<?xml version="1.0" encoding="us-ascii" standalone="no"?><svg xmlns="http://www.w3.org/2000/svg" xmlns:xlink="http://www.w3.org/1999/xlink" contentStyleType="text/css" height="1022px" preserveAspectRatio="none" style="width:1788px;height:1022px;background:#FFFFFF;" version="1.1" viewBox="0 0 1788 1022" width="1788px" zoomAndPan="magnify"><defs/><g><rect fill="#FFFFFF" height="841.5859" style="stroke:#181818;stroke-width:1.0;" width="10" x="83" y="90.6406"/><rect fill="#FFFFFF" height="226.3047" style="stroke:#181818;stroke-width:1.0;" width="10" x="458" y="111.1641"/><rect fill="#FFFFFF" height="449.375" style="stroke:#181818;stroke-width:1.0;" width="10" x="458" y="365.9922"/><rect fill="#FFFFFF" height="28.5234" style="stroke:#181818;stroke-width:1.0;" width="10" x="458" y="881.7031"/><rect fill="#FFFFFF" height="144.7344" style="stroke:#181818;stroke-width:1.0;" width="10" x="813" y="149.6875"/><rect fill="#FFFFFF" height="43.0469" style="stroke:#181818;stroke-width:1.0;" width="10" x="813" y="488.6094"/><rect fill="#FFFFFF" height="28.5234" style="stroke:#181818;stroke-width:1.0;" width="10" x="813" y="758.3203"/><rect fill="#FFFFFF" height="28.5234" style="stroke:#181818;stroke-width:1.0;" width="10" x="947.5" y="180.3281"/><rect fill="#FFFFFF" height="28.5234" style="stroke:#181818;stroke-width:1.0;" width="10" x="1052" y="237.375"/><rect fill="#FFFFFF" height="226.6641" style="stroke:#181818;stroke-width:1.0;" width="10" x="1222" y="531.6563"/><rect fill="#FFFFFF" height="46.5234" style="stroke:#181818;stroke-width:1.0;" width="10" x="1654.5" y="649.75"/><rect fill="none" height="488.1875" style="stroke:#000000;stroke-width:1.5;" width="1771.5" x="10" y="437.0391"/><rect fill="none" height="101.0938" style="stroke:#000000;stroke-width:1.5;" width="612" x="1159.5" y="588.1797"/><rect fill="none" height="73.5703" style="stroke:#000000;stroke-width:1.5;" width="504" x="20" y="844.6563"/><line style="stroke:#181818;stroke-width:0.5;stroke-dasharray:5.0,5.0;" x1="88" x2="88" y1="80.6406" y2="942.2266"/><line style="stroke:#181818;stroke-width:0.5;stroke-dasharray:5.0,5.0;" x1="463" x2="463" y1="80.6406" y2="942.2266"/><line style="stroke:#181818;stroke-width:0.5;stroke-dasharray:5.0,5.0;" x1="818" x2="818" y1="149.4844" y2="942.2266"/><line style="stroke:#181818;stroke-width:0.5;stroke-dasharray:5.0,5.0;" x1="952" x2="952" y1="80.6406" y2="942.2266"/><line style="stroke:#181818;stroke-width:0.5;stroke-dasharray:5.0,5.0;" x1="1057" x2="1057" y1="80.6406" y2="942.2266"/><line style="stroke:#181818;stroke-width:0.5;stroke-dasharray:5.0,5.0;" x1="1226.5" x2="1226.5" y1="80.6406" y2="942.2266"/><line style="stroke:#181818;stroke-width:0.5;stroke-dasharray:5.0,5.0;" x1="1659" x2="1659" y1="636.2266" y2="942.2266"/><text fill="#000000" font-family="sans-serif" font-size="14" lengthAdjust="spacing" textLength="110" x="30" y="77.6738">UnregisteredUser</text><ellipse cx="88" cy="13.5" fill="#E3E3E3" rx="8" ry="8" style="stroke:#181818;stroke-width:0.5;"/><path d="M88,21.5 L88,48.5 M75,29.5 L101,29.5 M88,48.5 L75,63.5 M88,48.5 L101,63.5 " fill="none" style="stroke:#181818;stroke-width:0.5;"/><text fill="#000000" font-family="sans-serif" font-size="14" lengthAdjust="spacing" textLength="110" x="30" y="953.9004">UnregisteredUser</text><ellipse cx="88" cy="965.3672" fill="#E3E3E3" rx="8" ry="8" style="stroke:#181818;stroke-width:0.5;"/><path d="M88,973.3672 L88,1000.3672 M75,981.3672 L101,981.3672 M88,1000.3672 L75,1015.3672 M88,1000.3672 L101,1015.3672 " fill="none" style="stroke:#181818;stroke-width:0.5;"/><rect fill="#E3E3E3" height="29.6406" rx="2.5" ry="2.5" style="stroke:#181818;stroke-width:0.5;" width="102" x="412" y="50"/><text fill="#000000" font-family="sans-serif" font-size="14" lengthAdjust="spacing" textLength="88" x="419" y="69.6738">:CreateUserUI</text><rect fill="#E3E3E3" height="29.6406" rx="2.5" ry="2.5" style="stroke:#181818;stroke-width:0.5;" width="102" x="412" y="941.2266"/><text fill="#000000" font-family="sans-serif" font-size="14" lengthAdjust="spacing" textLength="88" x="419" y="960.9004">:CreateUserUI</text><rect fill="#E3E3E3" height="29.6406" rx="2.5" ry="2.5" style="stroke:#181818;stroke-width:0.5;" width="152" x="742" y="941.2266"/><text fill="#000000" font-family="sans-serif" font-size="14" lengthAdjust="spacing" textLength="138" x="749" y="960.9004">:CreateUserController</text><rect fill="#E3E3E3" height="29.6406" rx="2.5" ry="2.5" style="stroke:#181818;stroke-width:0.5;" width="97" x="904" y="50"/><text fill="#000000" font-family="sans-serif" font-size="14" lengthAdjust="spacing" textLength="83" x="911" y="69.6738">:Repositories</text><rect fill="#E3E3E3" height="29.6406" rx="2.5" ry="2.5" style="stroke:#181818;stroke-width:0.5;" width="97" x="904" y="941.2266"/><text fill="#000000" font-family="sans-serif" font-size="14" lengthAdjust="spacing" textLength="83" x="911" y="960.9004">:Repositories</text><rect fill="#E3E3E3" height="45.2813" rx="2.5" ry="2.5" style="stroke:#181818;stroke-width:0.5;" width="92" x="1011" y="34.3594"/><text fill="#000000" font-family="sans-serif" font-size="14" lengthAdjust="spacing" textLength="78" x="1018" y="54.0332">repositories:</text><text fill="#000000" font-family="sans-serif" font-size="14" lengthAdjust="spacing" textLength="68" x="1023" y="69.6738">Repository</text><rect fill="#E3E3E3" height="45.2813" rx="2.5" ry="2.5" style="stroke:#181818;stroke-width:0.5;" width="92" x="1011" y="941.2266"/><text fill="#000000" font-family="sans-serif" font-size="14" lengthAdjust="spacing" textLength="78" x="1018" y="960.9004">repositories:</text><text fill="#000000" font-family="sans-serif" font-size="14" lengthAdjust="spacing" textLength="68" x="1023" y="976.541">Repository</text><rect fill="#E3E3E3" height="29.6406" rx="2.5" ry="2.5" style="stroke:#181818;stroke-width:0.5;" width="115" x="1169.5" y="50"/><text fill="#000000" font-family="sans-serif" font-size="14" lengthAdjust="spacing" textLength="101" x="1176.5" y="69.6738">:UserRepository</text><rect fill="#E3E3E3" height="29.6406" rx="2.5" ry="2.5" style="stroke:#181818;stroke-width:0.5;" width="115" x="1169.5" y="941.2266"/><text fill="#000000" font-family="sans-serif" font-size="14" lengthAdjust="spacing" textLength="101" x="1176.5" y="960.9004">:UserRepository</text><rect fill="#E3E3E3" height="29.6406" rx="2.5" ry="2.5" style="stroke:#181818;stroke-width:0.5;" width="47" x="1636" y="941.2266"/><text fill="#000000" font-family="sans-serif" font-size="14" lengthAdjust="spacing" textLength="33" x="1643" y="960.9004">:User</text><rect fill="#FFFFFF" height="841.5859" style="stroke:#181818;stroke-width:1.0;" width="10" x="83" y="90.6406"/><rect fill="#FFFFFF" height="226.3047" style="stroke:#181818;stroke-width:1.0;" width="10" x="458" y="111.1641"/><rect fill="#FFFFFF" height="449.375" style="stroke:#181818;stroke-width:1.0;" width="10" x="458" y="365.9922"/><rect fill="#FFFFFF" height="28.5234" style="stroke:#181818;stroke-width:1.0;" width="10" x="458" y="881.7031"/><rect fill="#FFFFFF" height="144.7344" style="stroke:#181818;stroke-width:1.0;" width="10" x="813" y="149.6875"/><rect fill="#FFFFFF" height="43.0469" style="stroke:#181818;stroke-width:1.0;" width="10" x="813" y="488.6094"/><rect fill="#FFFFFF" height="28.5234" style="stroke:#181818;stroke-width:1.0;" width="10" x="813" y="758.3203"/><rect fill="#FFFFFF" height="28.5234" style="stroke:#181818;stroke-width:1.0;" width="10" x="947.5" y="180.3281"/><rect fill="#FFFFFF" height="28.5234" style="stroke:#181818;stroke-width:1.0;" width="10" x="1052" y="237.375"/><rect fill="#FFFFFF" height="226.6641" style="stroke:#181818;stroke-width:1.0;" width="10" x="1222" y="531.6563"/><rect fill="#FFFFFF" height="46.5234" style="stroke:#181818;stroke-width:1.0;" width="10" x="1654.5" y="649.75"/><polygon fill="#181818" points="446,107.1641,456,111.1641,446,115.1641,450,111.1641" style="stroke:#181818;stroke-width:1.0;"/><line style="stroke:#181818;stroke-width:1.0;" x1="93" x2="452" y1="111.1641" y2="111.1641"/><text fill="#000000" font-family="sans-serif" font-size="13" font-weight="bold" lengthAdjust="spacing" textLength="7" x="100" y="106.4092">1</text><text fill="#000000" font-family="sans-serif" font-size="13" lengthAdjust="spacing" textLength="173" x="111" y="106.4092">asks to register in the system</text><polygon fill="#181818" points="730,135.6875,740,139.6875,730,143.6875,734,139.6875" style="stroke:#181818;stroke-width:1.0;"/><line style="stroke:#181818;stroke-width:1.0;" x1="468" x2="736" y1="139.6875" y2="139.6875"/><text fill="#000000" font-family="sans-serif" font-size="13" font-weight="bold" lengthAdjust="spacing" textLength="7" x="475" y="134.9326">2</text><text fill="#000000" font-family="sans-serif" font-size="13" lengthAdjust="spacing" textLength="36" x="486" y="134.9326">create</text><rect fill="#E3E3E3" height="29.6406" rx="2.5" ry="2.5" style="stroke:#181818;stroke-width:0.5;" width="152" x="742" y="119.1641"/><text fill="#000000" font-family="sans-serif" font-size="14" lengthAdjust="spacing" textLength="138" x="749" y="138.8379">:CreateUserController</text><polygon fill="#181818" points="935.5,176.3281,945.5,180.3281,935.5,184.3281,939.5,180.3281" style="stroke:#181818;stroke-width:1.0;"/><line style="stroke:#181818;stroke-width:1.0;" x1="823" x2="941.5" y1="180.3281" y2="180.3281"/><text fill="#000000" font-family="sans-serif" font-size="13" font-weight="bold" lengthAdjust="spacing" textLength="7" x="830" y="175.5732">3</text><text fill="#000000" font-family="sans-serif" font-size="13" lengthAdjust="spacing" textLength="75" x="841" y="175.5732">getInstance()</text><polygon fill="#181818" points="834,204.8516,824,208.8516,834,212.8516,830,208.8516" style="stroke:#181818;stroke-width:1.0;"/><line style="stroke:#181818;stroke-width:1.0;stroke-dasharray:2.0,2.0;" x1="828" x2="951.5" y1="208.8516" y2="208.8516"/><text fill="#000000" font-family="sans-serif" font-size="13" font-weight="bold" lengthAdjust="spacing" textLength="7" x="840" y="204.0967">4</text><text fill="#000000" font-family="sans-serif" font-size="13" lengthAdjust="spacing" textLength="67" x="851" y="204.0967">repositories</text><polygon fill="#181818" points="1040,233.375,1050,237.375,1040,241.375,1044,237.375" style="stroke:#181818;stroke-width:1.0;"/><line style="stroke:#181818;stroke-width:1.0;" x1="823" x2="1046" y1="237.375" y2="237.375"/><text fill="#000000" font-family="sans-serif" font-size="13" font-weight="bold" lengthAdjust="spacing" textLength="7" x="830" y="232.6201">5</text><text fill="#000000" font-family="sans-serif" font-size="13" lengthAdjust="spacing" textLength="115" x="841" y="232.6201">getUserRepository()</text><polygon fill="#181818" points="834,261.8984,824,265.8984,834,269.8984,830,265.8984" style="stroke:#181818;stroke-width:1.0;"/><line style="stroke:#181818;stroke-width:1.0;stroke-dasharray:2.0,2.0;" x1="828" x2="1056" y1="265.8984" y2="265.8984"/><text fill="#000000" font-family="sans-serif" font-size="13" font-weight="bold" lengthAdjust="spacing" textLength="7" x="840" y="261.1436">6</text><text fill="#000000" font-family="sans-serif" font-size="13" lengthAdjust="spacing" textLength="94" x="851" y="261.1436">usersRepository</text><polygon fill="#181818" points="479,290.4219,469,294.4219,479,298.4219,475,294.4219" style="stroke:#181818;stroke-width:1.0;"/><line style="stroke:#181818;stroke-width:1.0;stroke-dasharray:2.0,2.0;" x1="473" x2="817" y1="294.4219" y2="294.4219"/><text fill="#000000" font-family="sans-serif" font-size="13" font-weight="bold" lengthAdjust="spacing" textLength="7" x="485" y="289.667">7</text><text fill="#000000" font-family="sans-serif" font-size="13" lengthAdjust="spacing" textLength="94" x="496" y="289.667">usersRepository</text><polygon fill="#181818" points="104,333.4688,94,337.4688,104,341.4688,100,337.4688" style="stroke:#181818;stroke-width:1.0;"/><line style="stroke:#181818;stroke-width:1.0;stroke-dasharray:2.0,2.0;" x1="98" x2="462" y1="337.4688" y2="337.4688"/><text fill="#000000" font-family="sans-serif" font-size="13" font-weight="bold" lengthAdjust="spacing" textLength="7" x="110" y="325.4521">8</text><text fill="#000000" font-family="sans-serif" font-size="13" lengthAdjust="spacing" textLength="330" x="121" y="318.1904">requests data (name, passport card number, tax number,</text><text fill="#000000" font-family="sans-serif" font-size="13" lengthAdjust="spacing" textLength="313" x="125" y="332.7139">email address, address, phone number and password)</text><polygon fill="#181818" points="446,361.9922,456,365.9922,446,369.9922,450,365.9922" style="stroke:#181818;stroke-width:1.0;"/><line style="stroke:#181818;stroke-width:1.0;" x1="93" x2="452" y1="365.9922" y2="365.9922"/><text fill="#000000" font-family="sans-serif" font-size="13" font-weight="bold" lengthAdjust="spacing" textLength="7" x="100" y="361.2373">9</text><text fill="#000000" font-family="sans-serif" font-size="13" lengthAdjust="spacing" textLength="68" x="111" y="361.2373">inserts data</text><line style="stroke:#181818;stroke-width:1.0;" x1="468" x2="510" y1="409.0391" y2="409.0391"/><line style="stroke:#181818;stroke-width:1.0;" x1="510" x2="510" y1="409.0391" y2="422.0391"/><line style="stroke:#181818;stroke-width:1.0;" x1="469" x2="510" y1="422.0391" y2="422.0391"/><polygon fill="#181818" points="479,418.0391,469,422.0391,479,426.0391,475,422.0391" style="stroke:#181818;stroke-width:1.0;"/><text fill="#000000" font-family="sans-serif" font-size="13" font-weight="bold" lengthAdjust="spacing" textLength="14" x="475" y="397.0225">10</text><text fill="#000000" font-family="sans-serif" font-size="13" lengthAdjust="spacing" textLength="285" x="493" y="389.7607">keep data (name, passportCardNumber, address,</text><text fill="#000000" font-family="sans-serif" font-size="13" lengthAdjust="spacing" textLength="305" x="493" y="404.2842">taxNumber, emailAddress, phoneNumber, password)</text><path d="M10,437.0391 L71,437.0391 L71,443.5625 L61,453.5625 L10,453.5625 L10,437.0391 " fill="#EEEEEE" style="stroke:#000000;stroke-width:1.5;"/><rect fill="none" height="488.1875" style="stroke:#000000;stroke-width:1.5;" width="1771.5" x="10" y="437.0391"/><text fill="#000000" font-family="sans-serif" font-size="13" font-weight="bold" lengthAdjust="spacing" textLength="16" x="25" y="449.8076">alt</text><text fill="#000000" font-family="sans-serif" font-size="11" font-weight="bold" lengthAdjust="spacing" textLength="89" x="86" y="448.9971">[valid operation]</text><polygon fill="#181818" points="801,484.6094,811,488.6094,801,492.6094,805,488.6094" style="stroke:#181818;stroke-width:1.0;"/><line style="stroke:#181818;stroke-width:1.0;" x1="468" x2="807" y1="488.6094" y2="488.6094"/><text fill="#000000" font-family="sans-serif" font-size="13" font-weight="bold" lengthAdjust="spacing" textLength="14" x="475" y="476.5928">11</text><text fill="#000000" font-family="sans-serif" font-size="13" lengthAdjust="spacing" textLength="304" x="493" y="469.3311">createUser(name, passportCardNumber, taxNumber,</text><text fill="#000000" font-family="sans-serif" font-size="13" lengthAdjust="spacing" textLength="288" x="493" y="483.8545">emailAddress, address, phoneNumber, password)</text><polygon fill="#181818" points="1210,527.6563,1220,531.6563,1210,535.6563,1214,531.6563" style="stroke:#181818;stroke-width:1.0;"/><line style="stroke:#181818;stroke-width:1.0;" x1="818" x2="1216" y1="531.6563" y2="531.6563"/><text fill="#000000" font-family="sans-serif" font-size="13" font-weight="bold" lengthAdjust="spacing" textLength="14" x="825" y="519.6396">12</text><text fill="#000000" font-family="sans-serif" font-size="13" lengthAdjust="spacing" textLength="358" x="843" y="512.3779">createUser(name, passportCardNumber, taxNumber, address,</text><text fill="#000000" font-family="sans-serif" font-size="13" lengthAdjust="spacing" textLength="234" x="843" y="526.9014">emailAddress, phoneNumber, password)</text><line style="stroke:#181818;stroke-width:1.0;" x1="1232" x2="1274" y1="560.1797" y2="560.1797"/><line style="stroke:#181818;stroke-width:1.0;" x1="1274" x2="1274" y1="560.1797" y2="573.1797"/><line style="stroke:#181818;stroke-width:1.0;" x1="1233" x2="1274" y1="573.1797" y2="573.1797"/><polygon fill="#181818" points="1243,569.1797,1233,573.1797,1243,577.1797,1239,573.1797" style="stroke:#181818;stroke-width:1.0;"/><text fill="#000000" font-family="sans-serif" font-size="13" font-weight="bold" lengthAdjust="spacing" textLength="14" x="1239" y="555.4248">13</text><text fill="#000000" font-family="sans-serif" font-size="13" lengthAdjust="spacing" textLength="156" x="1257" y="555.4248">checksIfUserAlreadyExists</text><path d="M1159.5,588.1797 L1224.5,588.1797 L1224.5,594.7031 L1214.5,604.7031 L1159.5,604.7031 L1159.5,588.1797 " fill="#EEEEEE" style="stroke:#000000;stroke-width:1.5;"/><rect fill="none" height="101.0938" style="stroke:#000000;stroke-width:1.5;" width="612" x="1159.5" y="588.1797"/><text fill="#000000" font-family="sans-serif" font-size="13" font-weight="bold" lengthAdjust="spacing" textLength="20" x="1174.5" y="600.9482">opt</text><text fill="#000000" font-family="sans-serif" font-size="11" font-weight="bold" lengthAdjust="spacing" textLength="86" x="1239.5" y="600.1377">[return is false]</text><polygon fill="#181818" points="1624,635.75,1634,639.75,1624,643.75,1628,639.75" style="stroke:#181818;stroke-width:1.0;"/><line style="stroke:#181818;stroke-width:1.0;" x1="1232" x2="1630" y1="639.75" y2="639.75"/><text fill="#000000" font-family="sans-serif" font-size="13" font-weight="bold" lengthAdjust="spacing" textLength="14" x="1239" y="627.7334">14</text><text fill="#000000" font-family="sans-serif" font-size="13" lengthAdjust="spacing" textLength="358" x="1257" y="620.4717">createUser(name, passportCardNumber, taxNumber, address,</text><text fill="#000000" font-family="sans-serif" font-size="13" lengthAdjust="spacing" textLength="234" x="1257" y="634.9951">emailAddress, phoneNumber, password)</text><rect fill="#E3E3E3" height="29.6406" rx="2.5" ry="2.5" style="stroke:#181818;stroke-width:0.5;" width="47" x="1636" y="607.1094"/><text fill="#000000" font-family="sans-serif" font-size="14" lengthAdjust="spacing" textLength="33" x="1643" y="626.7832">:User</text><line style="stroke:#181818;stroke-width:1.0;stroke-dasharray:2.0,2.0;" x1="1664.5" x2="1706.5" y1="668.2734" y2="668.2734"/><line style="stroke:#181818;stroke-width:1.0;stroke-dasharray:2.0,2.0;" x1="1706.5" x2="1706.5" y1="668.2734" y2="681.2734"/><line style="stroke:#181818;stroke-width:1.0;stroke-dasharray:2.0,2.0;" x1="1665.5" x2="1706.5" y1="681.2734" y2="681.2734"/><polygon fill="#181818" points="1675.5,677.2734,1665.5,681.2734,1675.5,685.2734,1671.5,681.2734" style="stroke:#181818;stroke-width:1.0;"/><text fill="#000000" font-family="sans-serif" font-size="13" font-weight="bold" lengthAdjust="spacing" textLength="14" x="1671.5" y="663.5186">15</text><text fill="#000000" font-family="sans-serif" font-size="13" lengthAdjust="spacing" textLength="70" x="1689.5" y="663.5186">createdUser</text><line style="stroke:#181818;stroke-width:1.0;" x1="1232" x2="1274" y1="716.7969" y2="716.7969"/><line style="stroke:#181818;stroke-width:1.0;" x1="1274" x2="1274" y1="716.7969" y2="729.7969"/><line style="stroke:#181818;stroke-width:1.0;" x1="1233" x2="1274" y1="729.7969" y2="729.7969"/><polygon fill="#181818" points="1243,725.7969,1233,729.7969,1243,733.7969,1239,729.7969" style="stroke:#181818;stroke-width:1.0;"/><text fill="#000000" font-family="sans-serif" font-size="13" font-weight="bold" lengthAdjust="spacing" textLength="14" x="1239" y="712.042">16</text><text fill="#000000" font-family="sans-serif" font-size="13" lengthAdjust="spacing" textLength="78" x="1257" y="712.042">validateUser()</text><polygon fill="#181818" points="834,754.3203,824,758.3203,834,762.3203,830,758.3203" style="stroke:#181818;stroke-width:1.0;"/><line style="stroke:#181818;stroke-width:1.0;stroke-dasharray:2.0,2.0;" x1="828" x2="1226" y1="758.3203" y2="758.3203"/><text fill="#000000" font-family="sans-serif" font-size="13" font-weight="bold" lengthAdjust="spacing" textLength="14" x="840" y="753.5654">17</text><text fill="#000000" font-family="sans-serif" font-size="13" lengthAdjust="spacing" textLength="70" x="858" y="753.5654">createdUser</text><polygon fill="#181818" points="479,782.8438,469,786.8438,479,790.8438,475,786.8438" style="stroke:#181818;stroke-width:1.0;"/><line style="stroke:#181818;stroke-width:1.0;stroke-dasharray:2.0,2.0;" x1="473" x2="817" y1="786.8438" y2="786.8438"/><text fill="#000000" font-family="sans-serif" font-size="13" font-weight="bold" lengthAdjust="spacing" textLength="14" x="485" y="782.0889">18</text><text fill="#000000" font-family="sans-serif" font-size="13" lengthAdjust="spacing" textLength="70" x="503" y="782.0889">createdUser</text><polygon fill="#181818" points="104,811.3672,94,815.3672,104,819.3672,100,815.3672" style="stroke:#181818;stroke-width:1.0;"/><line style="stroke:#181818;stroke-width:1.0;stroke-dasharray:2.0,2.0;" x1="98" x2="462" y1="815.3672" y2="815.3672"/><text fill="#000000" font-family="sans-serif" font-size="13" font-weight="bold" lengthAdjust="spacing" textLength="14" x="110" y="810.6123">19</text><text fill="#000000" font-family="sans-serif" font-size="13" lengthAdjust="spacing" textLength="147" x="128" y="810.6123">shows operation success</text><line style="stroke:#000000;stroke-width:1.0;stroke-dasharray:2.0,2.0;" x1="10" x2="1781.5" y1="824.3672" y2="824.3672"/><text fill="#000000" font-family="sans-serif" font-size="11" font-weight="bold" lengthAdjust="spacing" textLength="99" x="15" y="834.3252">[invalid operation]</text><path d="M20,844.6563 L93,844.6563 L93,851.1797 L83,861.1797 L20,861.1797 L20,844.6563 " fill="#EEEEEE" style="stroke:#000000;stroke-width:1.5;"/><rect fill="none" height="73.5703" style="stroke:#000000;stroke-width:1.5;" width="504" x="20" y="844.6563"/><text fill="#000000" font-family="sans-serif" font-size="13" font-weight="bold" lengthAdjust="spacing" textLength="28" x="35" y="857.4248">loop</text><text fill="#000000" font-family="sans-serif" font-size="11" font-weight="bold" lengthAdjust="spacing" textLength="187" x="108" y="856.6143">[while the inserted data is wrong]</text><polygon fill="#181818" points="104,877.7031,94,881.7031,104,885.7031,100,881.7031" style="stroke:#181818;stroke-width:1.0;"/><line style="stroke:#181818;stroke-width:1.0;stroke-dasharray:2.0,2.0;" x1="98" x2="457" y1="881.7031" y2="881.7031"/><text fill="#000000" font-family="sans-serif" font-size="13" font-weight="bold" lengthAdjust="spacing" textLength="14" x="110" y="876.9482">20</text><text fill="#000000" font-family="sans-serif" font-size="13" lengthAdjust="spacing" textLength="180" x="128" y="876.9482">asks to reinsert the invalid data</text><polygon fill="#181818" points="451,906.2266,461,910.2266,451,914.2266,455,910.2266" style="stroke:#181818;stroke-width:1.0;"/><line style="stroke:#181818;stroke-width:1.0;" x1="93" x2="457" y1="910.2266" y2="910.2266"/><text fill="#000000" font-family="sans-serif" font-size="13" font-weight="bold" lengthAdjust="spacing" textLength="14" x="100" y="905.4717">21</text><text fill="#000000" font-family="sans-serif" font-size="13" lengthAdjust="spacing" textLength="253" x="118" y="905.4717">reinserts the data that the system asked for</text><!--SRC=[jLLDRzim3BthLn2zh2tIFv33W2BO8S2mWpVVSb4j9XPYIvueDys_7oL_oOvR50EQGs1BZ-JZuuVfh4qZdQoXjiOMfRCrWdSj2Xfl6bcSvGb_-sk5uB3mqfog542bLFQYpGcEiY8KGhRUchP-GIV4jr8hXAEr_iM-2Lbuw-0kDmvFcZmwL3cXkmD9aEU2_NbTw4OQ3tVRdKFfCTpd-mwnVnUniyOxMrMzhzsVxES2cs5ZINDuZHGnsHpWalljmOpmQmTUeBSXw0AJhs7YJKj12avUlpBVaAc0_fVdyFITCuCj0yy4tiAW3MW3laIWAx_LaydaPv_usGS_8U_7H_PLH6N4Yb6KPZmERy4mOviJ-hqXBc-1zmyhbjbqbi5J7utjKkL6XC8rkp5S7s-k8aUz3Pf6dOKDej9aB5P3tyGUn5vQhnZFbHf43WxocFNV5iaJAEabt1jPuuPdXQYnpaCXdO9k1ZRWvTlmV320jTGLIAKS4cscXwQq1diSIAEYiujrggz5memBl-WTRJYVdenORPAkGIBuZDYiqjunwryzwP7NmJ3_uJIIVvvH7guMT6NbuLLMMe5jq4clhH4faxwAnJZ27t1921pCd8By59VRaWwTc6V_GIBHvbE2h3NMl4XPfqmsKIgnEDF-64WzLynFNN-yyLgWZhvjF7UWRvq1JSFUdLo4xaxsmDTcDcOHrrmu2GznKkB3m2Ak-eub6hKKPJJEiq63s3u3_OSnlMNpT7wN8v9zNFbX5cwehIw0sJPRsmPKsWjDdGxK5WNhzkvQkHreWLn3dkFbp5JMDd0fDNzymyUW6tHKtVnoxI_EcfCGAPdfGzAXUyFESzmGiy396XaiA9h44BwKFlaC1USS_MYTMFBdciQ_z3p_1m00]--></g></svg>