<?xml version="1.0" encoding="us-ascii" standalone="no"?><svg xmlns="http://www.w3.org/2000/svg" xmlns:xlink="http://www.w3.org/1999/xlink" contentStyleType="text/css" height="1278px" preserveAspectRatio="none" style="width:683px;height:1278px;background:#FFFFFF;" version="1.1" viewBox="0 0 683 1278" width="683px" zoomAndPan="magnify"><defs/><g><!--class CreateUserUI--><g id="elem_CreateUserUI"><rect codeLine="11" fill="#F1F1F1" height="48" id="CreateUserUI" rx="2.5" ry="2.5" style="stroke:#181818;stroke-width:0.5;" width="116" x="283.5" y="7"/><ellipse cx="298.5" cy="23" fill="#ADD1B2" rx="11" ry="11" style="stroke:#181818;stroke-width:1.0;"/><path d="M301.2656,18.875 Q301.4219,18.6563 301.6094,18.5469 Q301.7969,18.4375 302.0156,18.4375 Q302.3906,18.4375 302.625,18.7031 Q302.8594,18.9531 302.8594,19.5625 L302.8594,21.0156 Q302.8594,21.625 302.625,21.8906 Q302.3906,22.1563 302.0156,22.1563 Q301.6719,22.1563 301.4688,21.9531 Q301.2656,21.7656 301.1563,21.25 Q301.1094,20.8906 300.9219,20.7031 Q300.5938,20.3281 299.9844,20.1094 Q299.375,19.8906 298.75,19.8906 Q297.9844,19.8906 297.3438,20.2188 Q296.7188,20.5469 296.2188,21.2969 Q295.7344,22.0469 295.7344,23.0781 L295.7344,24.1719 Q295.7344,25.4063 296.625,26.2344 Q297.5156,27.0469 299.1094,27.0469 Q300.0469,27.0469 300.7031,26.7969 Q301.0938,26.6406 301.5156,26.2031 Q301.7813,25.9375 301.9219,25.8594 Q302.0781,25.7813 302.2813,25.7813 Q302.6094,25.7813 302.8594,26.0469 Q303.125,26.2969 303.125,26.6406 Q303.125,26.9844 302.7813,27.3906 Q302.2813,27.9688 301.4844,28.2969 Q300.4063,28.75 299.1094,28.75 Q297.5938,28.75 296.3906,28.125 Q295.4063,27.625 294.7188,26.5625 Q294.0313,25.4844 294.0313,24.2031 L294.0313,23.0469 Q294.0313,21.7188 294.6406,20.5781 Q295.2656,19.4219 296.3594,18.8125 Q297.4531,18.1875 298.6875,18.1875 Q299.4219,18.1875 300.0625,18.3594 Q300.7188,18.5156 301.2656,18.875 Z " fill="#000000"/><text fill="#000000" font-family="sans-serif" font-size="14" lengthAdjust="spacing" textLength="84" x="312.5" y="27.8535">CreateUserUI</text><line style="stroke:#181818;stroke-width:0.5;" x1="284.5" x2="398.5" y1="39" y2="39"/><line style="stroke:#181818;stroke-width:0.5;" x1="284.5" x2="398.5" y1="47" y2="47"/></g><!--class CreateUserController--><g id="elem_CreateUserController"><rect codeLine="14" fill="#F1F1F1" height="63.6406" id="CreateUserController" rx="2.5" ry="2.5" style="stroke:#181818;stroke-width:0.5;" width="669" x="7" y="116"/><ellipse cx="270.25" cy="132" fill="#ADD1B2" rx="11" ry="11" style="stroke:#181818;stroke-width:1.0;"/><path d="M273.0156,127.875 Q273.1719,127.6563 273.3594,127.5469 Q273.5469,127.4375 273.7656,127.4375 Q274.1406,127.4375 274.375,127.7031 Q274.6094,127.9531 274.6094,128.5625 L274.6094,130.0156 Q274.6094,130.625 274.375,130.8906 Q274.1406,131.1563 273.7656,131.1563 Q273.4219,131.1563 273.2188,130.9531 Q273.0156,130.7656 272.9063,130.25 Q272.8594,129.8906 272.6719,129.7031 Q272.3438,129.3281 271.7344,129.1094 Q271.125,128.8906 270.5,128.8906 Q269.7344,128.8906 269.0938,129.2188 Q268.4688,129.5469 267.9688,130.2969 Q267.4844,131.0469 267.4844,132.0781 L267.4844,133.1719 Q267.4844,134.4063 268.375,135.2344 Q269.2656,136.0469 270.8594,136.0469 Q271.7969,136.0469 272.4531,135.7969 Q272.8438,135.6406 273.2656,135.2031 Q273.5313,134.9375 273.6719,134.8594 Q273.8281,134.7813 274.0313,134.7813 Q274.3594,134.7813 274.6094,135.0469 Q274.875,135.2969 274.875,135.6406 Q274.875,135.9844 274.5313,136.3906 Q274.0313,136.9688 273.2344,137.2969 Q272.1563,137.75 270.8594,137.75 Q269.3438,137.75 268.1406,137.125 Q267.1563,136.625 266.4688,135.5625 Q265.7813,134.4844 265.7813,133.2031 L265.7813,132.0469 Q265.7813,130.7188 266.3906,129.5781 Q267.0156,128.4219 268.1094,127.8125 Q269.2031,127.1875 270.4375,127.1875 Q271.1719,127.1875 271.8125,127.3594 Q272.4688,127.5156 273.0156,127.875 Z " fill="#000000"/><text fill="#000000" font-family="sans-serif" font-size="14" lengthAdjust="spacing" textLength="134" x="290.75" y="136.8535">CreateUserController</text><line style="stroke:#181818;stroke-width:0.5;" x1="8" x2="675" y1="148" y2="148"/><line style="stroke:#181818;stroke-width:0.5;" x1="8" x2="675" y1="156" y2="156"/><text fill="#000000" font-family="sans-serif" font-size="14" lengthAdjust="spacing" textLength="657" x="13" y="172.6738">+createUser(name, passportCardNumber, taxNumber, address, emailAddress, phoneNumber, password)</text></g><!--class Repositories--><g id="elem_Repositories"><rect codeLine="18" fill="#F1F1F1" height="94.9219" id="Repositories" rx="2.5" ry="2.5" style="stroke:#181818;stroke-width:0.5;" width="147" x="268" y="241"/><ellipse cx="299.2" cy="257" fill="#ADD1B2" rx="11" ry="11" style="stroke:#181818;stroke-width:1.0;"/><path d="M301.9656,252.875 Q302.1219,252.6563 302.3094,252.5469 Q302.4969,252.4375 302.7156,252.4375 Q303.0906,252.4375 303.325,252.7031 Q303.5594,252.9531 303.5594,253.5625 L303.5594,255.0156 Q303.5594,255.625 303.325,255.8906 Q303.0906,256.1563 302.7156,256.1563 Q302.3719,256.1563 302.1688,255.9531 Q301.9656,255.7656 301.8563,255.25 Q301.8094,254.8906 301.6219,254.7031 Q301.2938,254.3281 300.6844,254.1094 Q300.075,253.8906 299.45,253.8906 Q298.6844,253.8906 298.0438,254.2188 Q297.4188,254.5469 296.9188,255.2969 Q296.4344,256.0469 296.4344,257.0781 L296.4344,258.1719 Q296.4344,259.4063 297.325,260.2344 Q298.2156,261.0469 299.8094,261.0469 Q300.7469,261.0469 301.4031,260.7969 Q301.7938,260.6406 302.2156,260.2031 Q302.4813,259.9375 302.6219,259.8594 Q302.7781,259.7813 302.9813,259.7813 Q303.3094,259.7813 303.5594,260.0469 Q303.825,260.2969 303.825,260.6406 Q303.825,260.9844 303.4813,261.3906 Q302.9813,261.9688 302.1844,262.2969 Q301.1063,262.75 299.8094,262.75 Q298.2938,262.75 297.0906,262.125 Q296.1063,261.625 295.4188,260.5625 Q294.7313,259.4844 294.7313,258.2031 L294.7313,257.0469 Q294.7313,255.7188 295.3406,254.5781 Q295.9656,253.4219 297.0594,252.8125 Q298.1531,252.1875 299.3875,252.1875 Q300.1219,252.1875 300.7625,252.3594 Q301.4188,252.5156 301.9656,252.875 Z " fill="#000000"/><text fill="#000000" font-family="sans-serif" font-size="14" lengthAdjust="spacing" textLength="79" x="316.8" y="261.8535">Repositories</text><line style="stroke:#181818;stroke-width:0.5;" x1="269" x2="414" y1="273" y2="273"/><line style="stroke:#181818;stroke-width:0.5;" x1="269" x2="414" y1="281" y2="281"/><text fill="#000000" font-family="sans-serif" font-size="14" lengthAdjust="spacing" textLength="97" x="274" y="297.6738">+Repositories()</text><text fill="#000000" font-family="sans-serif" font-size="14" lengthAdjust="spacing" textLength="91" x="274" y="313.3145">+getInstance()</text><text fill="#000000" font-family="sans-serif" font-size="14" lengthAdjust="spacing" textLength="135" x="274" y="328.9551">+getUserRepository()</text></g><!--class UserRepository--><g id="elem_UserRepository"><rect codeLine="24" fill="#F1F1F1" height="126.2031" id="UserRepository" rx="2.5" ry="2.5" style="stroke:#181818;stroke-width:0.5;" width="669" x="7" y="397"/><ellipse cx="288.75" cy="413" fill="#ADD1B2" rx="11" ry="11" style="stroke:#181818;stroke-width:1.0;"/><path d="M291.5156,408.875 Q291.6719,408.6563 291.8594,408.5469 Q292.0469,408.4375 292.2656,408.4375 Q292.6406,408.4375 292.875,408.7031 Q293.1094,408.9531 293.1094,409.5625 L293.1094,411.0156 Q293.1094,411.625 292.875,411.8906 Q292.6406,412.1563 292.2656,412.1563 Q291.9219,412.1563 291.7188,411.9531 Q291.5156,411.7656 291.4063,411.25 Q291.3594,410.8906 291.1719,410.7031 Q290.8438,410.3281 290.2344,410.1094 Q289.625,409.8906 289,409.8906 Q288.2344,409.8906 287.5938,410.2188 Q286.9688,410.5469 286.4688,411.2969 Q285.9844,412.0469 285.9844,413.0781 L285.9844,414.1719 Q285.9844,415.4063 286.875,416.2344 Q287.7656,417.0469 289.3594,417.0469 Q290.2969,417.0469 290.9531,416.7969 Q291.3438,416.6406 291.7656,416.2031 Q292.0313,415.9375 292.1719,415.8594 Q292.3281,415.7813 292.5313,415.7813 Q292.8594,415.7813 293.1094,416.0469 Q293.375,416.2969 293.375,416.6406 Q293.375,416.9844 293.0313,417.3906 Q292.5313,417.9688 291.7344,418.2969 Q290.6563,418.75 289.3594,418.75 Q287.8438,418.75 286.6406,418.125 Q285.6563,417.625 284.9688,416.5625 Q284.2813,415.4844 284.2813,414.2031 L284.2813,413.0469 Q284.2813,411.7188 284.8906,410.5781 Q285.5156,409.4219 286.6094,408.8125 Q287.7031,408.1875 288.9375,408.1875 Q289.6719,408.1875 290.3125,408.3594 Q290.9688,408.5156 291.5156,408.875 Z " fill="#000000"/><text fill="#000000" font-family="sans-serif" font-size="14" lengthAdjust="spacing" textLength="97" x="309.25" y="417.8535">UserRepository</text><line style="stroke:#181818;stroke-width:0.5;" x1="8" x2="675" y1="429" y2="429"/><text fill="#000000" font-family="sans-serif" font-size="14" lengthAdjust="spacing" textLength="110" x="13" y="445.6738">+List &lt;user&gt; user</text><text fill="#000000" font-family="sans-serif" font-size="14" lengthAdjust="spacing" textLength="165" x="13" y="461.3145">+checkIfUserAlreadyExists</text><line style="stroke:#181818;stroke-width:0.5;" x1="8" x2="675" y1="468.2813" y2="468.2813"/><text fill="#000000" font-family="sans-serif" font-size="14" lengthAdjust="spacing" textLength="657" x="13" y="484.9551">+createUser(name, passportCardNumber, taxNumber, address, emailAddress, phoneNumber, password)</text><text fill="#000000" font-family="sans-serif" font-size="14" lengthAdjust="spacing" textLength="71" x="13" y="500.5957">+addUser()</text><text fill="#000000" font-family="sans-serif" font-size="14" lengthAdjust="spacing" textLength="96" x="13" y="516.2363">+validateUser()</text></g><!--class User--><g id="elem_User"><rect codeLine="32" fill="#F1F1F1" height="126.2031" id="User" rx="2.5" ry="2.5" style="stroke:#181818;stroke-width:0.5;" width="669" x="7" y="584"/><ellipse cx="322.75" cy="600" fill="#ADD1B2" rx="11" ry="11" style="stroke:#181818;stroke-width:1.0;"/><path d="M325.5156,595.875 Q325.6719,595.6563 325.8594,595.5469 Q326.0469,595.4375 326.2656,595.4375 Q326.6406,595.4375 326.875,595.7031 Q327.1094,595.9531 327.1094,596.5625 L327.1094,598.0156 Q327.1094,598.625 326.875,598.8906 Q326.6406,599.1563 326.2656,599.1563 Q325.9219,599.1563 325.7188,598.9531 Q325.5156,598.7656 325.4063,598.25 Q325.3594,597.8906 325.1719,597.7031 Q324.8438,597.3281 324.2344,597.1094 Q323.625,596.8906 323,596.8906 Q322.2344,596.8906 321.5938,597.2188 Q320.9688,597.5469 320.4688,598.2969 Q319.9844,599.0469 319.9844,600.0781 L319.9844,601.1719 Q319.9844,602.4063 320.875,603.2344 Q321.7656,604.0469 323.3594,604.0469 Q324.2969,604.0469 324.9531,603.7969 Q325.3438,603.6406 325.7656,603.2031 Q326.0313,602.9375 326.1719,602.8594 Q326.3281,602.7813 326.5313,602.7813 Q326.8594,602.7813 327.1094,603.0469 Q327.375,603.2969 327.375,603.6406 Q327.375,603.9844 327.0313,604.3906 Q326.5313,604.9688 325.7344,605.2969 Q324.6563,605.75 323.3594,605.75 Q321.8438,605.75 320.6406,605.125 Q319.6563,604.625 318.9688,603.5625 Q318.2813,602.4844 318.2813,601.2031 L318.2813,600.0469 Q318.2813,598.7188 318.8906,597.5781 Q319.5156,596.4219 320.6094,595.8125 Q321.7031,595.1875 322.9375,595.1875 Q323.6719,595.1875 324.3125,595.3594 Q324.9688,595.5156 325.5156,595.875 Z " fill="#000000"/><text fill="#000000" font-family="sans-serif" font-size="14" lengthAdjust="spacing" textLength="29" x="343.25" y="604.8535">User</text><line style="stroke:#181818;stroke-width:0.5;" x1="8" x2="675" y1="616" y2="616"/><text fill="#000000" font-family="sans-serif" font-size="14" lengthAdjust="spacing" textLength="81" x="13" y="632.6738">-String name</text><text fill="#000000" font-family="sans-serif" font-size="14" lengthAdjust="spacing" textLength="131" x="13" y="648.3145">-String emailAddress</text><text fill="#000000" font-family="sans-serif" font-size="14" lengthAdjust="spacing" textLength="113" x="13" y="663.9551">-int phoneNumber</text><text fill="#000000" font-family="sans-serif" font-size="14" lengthAdjust="spacing" textLength="106" x="13" y="679.5957">-String password</text><line style="stroke:#181818;stroke-width:0.5;" x1="8" x2="675" y1="686.5625" y2="686.5625"/><text fill="#000000" font-family="sans-serif" font-size="14" lengthAdjust="spacing" textLength="657" x="13" y="703.2363">+createUser(name, passportCardNumber, taxNumber, address, emailAddress, phoneNumber, password)</text></g><!--class PassportCardNumber--><g id="elem_PassportCardNumber"><rect codeLine="40" fill="#F1F1F1" height="63.6406" id="PassportCardNumber" rx="2.5" ry="2.5" style="stroke:#181818;stroke-width:0.5;" width="171" x="83" y="786"/><ellipse cx="99.35" cy="802" fill="#ADD1B2" rx="11" ry="11" style="stroke:#181818;stroke-width:1.0;"/><path d="M102.1156,797.875 Q102.2719,797.6563 102.4594,797.5469 Q102.6469,797.4375 102.8656,797.4375 Q103.2406,797.4375 103.475,797.7031 Q103.7094,797.9531 103.7094,798.5625 L103.7094,800.0156 Q103.7094,800.625 103.475,800.8906 Q103.2406,801.1563 102.8656,801.1563 Q102.5219,801.1563 102.3188,800.9531 Q102.1156,800.7656 102.0063,800.25 Q101.9594,799.8906 101.7719,799.7031 Q101.4438,799.3281 100.8344,799.1094 Q100.225,798.8906 99.6,798.8906 Q98.8344,798.8906 98.1938,799.2188 Q97.5688,799.5469 97.0688,800.2969 Q96.5844,801.0469 96.5844,802.0781 L96.5844,803.1719 Q96.5844,804.4063 97.475,805.2344 Q98.3656,806.0469 99.9594,806.0469 Q100.8969,806.0469 101.5531,805.7969 Q101.9438,805.6406 102.3656,805.2031 Q102.6313,804.9375 102.7719,804.8594 Q102.9281,804.7813 103.1313,804.7813 Q103.4594,804.7813 103.7094,805.0469 Q103.975,805.2969 103.975,805.6406 Q103.975,805.9844 103.6313,806.3906 Q103.1313,806.9688 102.3344,807.2969 Q101.2563,807.75 99.9594,807.75 Q98.4438,807.75 97.2406,807.125 Q96.2563,806.625 95.5688,805.5625 Q94.8813,804.4844 94.8813,803.2031 L94.8813,802.0469 Q94.8813,800.7188 95.4906,799.5781 Q96.1156,798.4219 97.2094,797.8125 Q98.3031,797.1875 99.5375,797.1875 Q100.2719,797.1875 100.9125,797.3594 Q101.5688,797.5156 102.1156,797.875 Z " fill="#000000"/><text fill="#000000" font-family="sans-serif" font-size="14" lengthAdjust="spacing" textLength="136" x="113.65" y="806.8535">PassportCardNumber</text><line style="stroke:#181818;stroke-width:0.5;" x1="84" x2="253" y1="818" y2="818"/><text fill="#000000" font-family="sans-serif" font-size="14" lengthAdjust="spacing" textLength="159" x="89" y="834.6738">-int passportCardNumber</text><line style="stroke:#181818;stroke-width:0.5;" x1="84" x2="253" y1="841.6406" y2="841.6406"/></g><!--class TaxNumber--><g id="elem_TaxNumber"><rect codeLine="44" fill="#F1F1F1" height="63.6406" id="TaxNumber" rx="2.5" ry="2.5" style="stroke:#181818;stroke-width:0.5;" width="104" x="289.5" y="786"/><ellipse cx="304.5" cy="802" fill="#ADD1B2" rx="11" ry="11" style="stroke:#181818;stroke-width:1.0;"/><path d="M307.2656,797.875 Q307.4219,797.6563 307.6094,797.5469 Q307.7969,797.4375 308.0156,797.4375 Q308.3906,797.4375 308.625,797.7031 Q308.8594,797.9531 308.8594,798.5625 L308.8594,800.0156 Q308.8594,800.625 308.625,800.8906 Q308.3906,801.1563 308.0156,801.1563 Q307.6719,801.1563 307.4688,800.9531 Q307.2656,800.7656 307.1563,800.25 Q307.1094,799.8906 306.9219,799.7031 Q306.5938,799.3281 305.9844,799.1094 Q305.375,798.8906 304.75,798.8906 Q303.9844,798.8906 303.3438,799.2188 Q302.7188,799.5469 302.2188,800.2969 Q301.7344,801.0469 301.7344,802.0781 L301.7344,803.1719 Q301.7344,804.4063 302.625,805.2344 Q303.5156,806.0469 305.1094,806.0469 Q306.0469,806.0469 306.7031,805.7969 Q307.0938,805.6406 307.5156,805.2031 Q307.7813,804.9375 307.9219,804.8594 Q308.0781,804.7813 308.2813,804.7813 Q308.6094,804.7813 308.8594,805.0469 Q309.125,805.2969 309.125,805.6406 Q309.125,805.9844 308.7813,806.3906 Q308.2813,806.9688 307.4844,807.2969 Q306.4063,807.75 305.1094,807.75 Q303.5938,807.75 302.3906,807.125 Q301.4063,806.625 300.7188,805.5625 Q300.0313,804.4844 300.0313,803.2031 L300.0313,802.0469 Q300.0313,800.7188 300.6406,799.5781 Q301.2656,798.4219 302.3594,797.8125 Q303.4531,797.1875 304.6875,797.1875 Q305.4219,797.1875 306.0625,797.3594 Q306.7188,797.5156 307.2656,797.875 Z " fill="#000000"/><text fill="#000000" font-family="sans-serif" font-size="14" lengthAdjust="spacing" textLength="72" x="318.5" y="806.8535">TaxNumber</text><line style="stroke:#181818;stroke-width:0.5;" x1="290.5" x2="392.5" y1="818" y2="818"/><text fill="#000000" font-family="sans-serif" font-size="14" lengthAdjust="spacing" textLength="91" x="295.5" y="834.6738">-int taxNumber</text><line style="stroke:#181818;stroke-width:0.5;" x1="290.5" x2="392.5" y1="841.6406" y2="841.6406"/></g><!--class Address--><g id="elem_Address"><rect codeLine="48" fill="#F1F1F1" height="110.5625" id="Address" rx="2.5" ry="2.5" style="stroke:#181818;stroke-width:0.5;" width="146" x="373.5" y="911"/><ellipse cx="416.4" cy="927" fill="#ADD1B2" rx="11" ry="11" style="stroke:#181818;stroke-width:1.0;"/><path d="M419.1656,922.875 Q419.3219,922.6563 419.5094,922.5469 Q419.6969,922.4375 419.9156,922.4375 Q420.2906,922.4375 420.525,922.7031 Q420.7594,922.9531 420.7594,923.5625 L420.7594,925.0156 Q420.7594,925.625 420.525,925.8906 Q420.2906,926.1563 419.9156,926.1563 Q419.5719,926.1563 419.3688,925.9531 Q419.1656,925.7656 419.0563,925.25 Q419.0094,924.8906 418.8219,924.7031 Q418.4938,924.3281 417.8844,924.1094 Q417.275,923.8906 416.65,923.8906 Q415.8844,923.8906 415.2438,924.2188 Q414.6188,924.5469 414.1188,925.2969 Q413.6344,926.0469 413.6344,927.0781 L413.6344,928.1719 Q413.6344,929.4063 414.525,930.2344 Q415.4156,931.0469 417.0094,931.0469 Q417.9469,931.0469 418.6031,930.7969 Q418.9938,930.6406 419.4156,930.2031 Q419.6813,929.9375 419.8219,929.8594 Q419.9781,929.7813 420.1813,929.7813 Q420.5094,929.7813 420.7594,930.0469 Q421.025,930.2969 421.025,930.6406 Q421.025,930.9844 420.6813,931.3906 Q420.1813,931.9688 419.3844,932.2969 Q418.3063,932.75 417.0094,932.75 Q415.4938,932.75 414.2906,932.125 Q413.3063,931.625 412.6188,930.5625 Q411.9313,929.4844 411.9313,928.2031 L411.9313,927.0469 Q411.9313,925.7188 412.5406,924.5781 Q413.1656,923.4219 414.2594,922.8125 Q415.3531,922.1875 416.5875,922.1875 Q417.3219,922.1875 417.9625,922.3594 Q418.6188,922.5156 419.1656,922.875 Z " fill="#000000"/><text fill="#000000" font-family="sans-serif" font-size="14" lengthAdjust="spacing" textLength="52" x="436.6" y="931.8535">Address</text><line style="stroke:#181818;stroke-width:0.5;" x1="374.5" x2="518.5" y1="943" y2="943"/><text fill="#000000" font-family="sans-serif" font-size="14" lengthAdjust="spacing" textLength="102" x="379.5" y="959.6738">-int doorNumber</text><text fill="#000000" font-family="sans-serif" font-size="14" lengthAdjust="spacing" textLength="101" x="379.5" y="975.3145">-int floorNumber</text><text fill="#000000" font-family="sans-serif" font-size="14" lengthAdjust="spacing" textLength="97" x="379.5" y="990.9551">-String zipCode</text><text fill="#000000" font-family="sans-serif" font-size="14" lengthAdjust="spacing" textLength="134" x="379.5" y="1006.5957">-String streetAddress</text><line style="stroke:#181818;stroke-width:0.5;" x1="374.5" x2="518.5" y1="1013.5625" y2="1013.5625"/></g><!--class State--><g id="elem_State"><rect codeLine="55" fill="#F1F1F1" height="63.6406" id="State" rx="2.5" ry="2.5" style="stroke:#181818;stroke-width:0.5;" width="125" x="263" y="1208"/><ellipse cx="305" cy="1224" fill="#ADD1B2" rx="11" ry="11" style="stroke:#181818;stroke-width:1.0;"/><path d="M307.7656,1219.875 Q307.9219,1219.6563 308.1094,1219.5469 Q308.2969,1219.4375 308.5156,1219.4375 Q308.8906,1219.4375 309.125,1219.7031 Q309.3594,1219.9531 309.3594,1220.5625 L309.3594,1222.0156 Q309.3594,1222.625 309.125,1222.8906 Q308.8906,1223.1563 308.5156,1223.1563 Q308.1719,1223.1563 307.9688,1222.9531 Q307.7656,1222.7656 307.6563,1222.25 Q307.6094,1221.8906 307.4219,1221.7031 Q307.0938,1221.3281 306.4844,1221.1094 Q305.875,1220.8906 305.25,1220.8906 Q304.4844,1220.8906 303.8438,1221.2188 Q303.2188,1221.5469 302.7188,1222.2969 Q302.2344,1223.0469 302.2344,1224.0781 L302.2344,1225.1719 Q302.2344,1226.4063 303.125,1227.2344 Q304.0156,1228.0469 305.6094,1228.0469 Q306.5469,1228.0469 307.2031,1227.7969 Q307.5938,1227.6406 308.0156,1227.2031 Q308.2813,1226.9375 308.4219,1226.8594 Q308.5781,1226.7813 308.7813,1226.7813 Q309.1094,1226.7813 309.3594,1227.0469 Q309.625,1227.2969 309.625,1227.6406 Q309.625,1227.9844 309.2813,1228.3906 Q308.7813,1228.9688 307.9844,1229.2969 Q306.9063,1229.75 305.6094,1229.75 Q304.0938,1229.75 302.8906,1229.125 Q301.9063,1228.625 301.2188,1227.5625 Q300.5313,1226.4844 300.5313,1225.2031 L300.5313,1224.0469 Q300.5313,1222.7188 301.1406,1221.5781 Q301.7656,1220.4219 302.8594,1219.8125 Q303.9531,1219.1875 305.1875,1219.1875 Q305.9219,1219.1875 306.5625,1219.3594 Q307.2188,1219.5156 307.7656,1219.875 Z " fill="#000000"/><text fill="#000000" font-family="sans-serif" font-size="14" lengthAdjust="spacing" textLength="33" x="325" y="1228.8535">State</text><line style="stroke:#181818;stroke-width:0.5;" x1="264" x2="387" y1="1240" y2="1240"/><text fill="#000000" font-family="sans-serif" font-size="14" lengthAdjust="spacing" textLength="113" x="269" y="1256.6738">-String stateName</text><line style="stroke:#181818;stroke-width:0.5;" x1="264" x2="387" y1="1263.6406" y2="1263.6406"/></g><!--class District--><g id="elem_District"><rect codeLine="59" fill="#F1F1F1" height="63.6406" id="District" rx="2.5" ry="2.5" style="stroke:#181818;stroke-width:0.5;" width="135" x="379" y="1083"/><ellipse cx="421" cy="1099" fill="#ADD1B2" rx="11" ry="11" style="stroke:#181818;stroke-width:1.0;"/><path d="M423.7656,1094.875 Q423.9219,1094.6563 424.1094,1094.5469 Q424.2969,1094.4375 424.5156,1094.4375 Q424.8906,1094.4375 425.125,1094.7031 Q425.3594,1094.9531 425.3594,1095.5625 L425.3594,1097.0156 Q425.3594,1097.625 425.125,1097.8906 Q424.8906,1098.1563 424.5156,1098.1563 Q424.1719,1098.1563 423.9688,1097.9531 Q423.7656,1097.7656 423.6563,1097.25 Q423.6094,1096.8906 423.4219,1096.7031 Q423.0938,1096.3281 422.4844,1096.1094 Q421.875,1095.8906 421.25,1095.8906 Q420.4844,1095.8906 419.8438,1096.2188 Q419.2188,1096.5469 418.7188,1097.2969 Q418.2344,1098.0469 418.2344,1099.0781 L418.2344,1100.1719 Q418.2344,1101.4063 419.125,1102.2344 Q420.0156,1103.0469 421.6094,1103.0469 Q422.5469,1103.0469 423.2031,1102.7969 Q423.5938,1102.6406 424.0156,1102.2031 Q424.2813,1101.9375 424.4219,1101.8594 Q424.5781,1101.7813 424.7813,1101.7813 Q425.1094,1101.7813 425.3594,1102.0469 Q425.625,1102.2969 425.625,1102.6406 Q425.625,1102.9844 425.2813,1103.3906 Q424.7813,1103.9688 423.9844,1104.2969 Q422.9063,1104.75 421.6094,1104.75 Q420.0938,1104.75 418.8906,1104.125 Q417.9063,1103.625 417.2188,1102.5625 Q416.5313,1101.4844 416.5313,1100.2031 L416.5313,1099.0469 Q416.5313,1097.7188 417.1406,1096.5781 Q417.7656,1095.4219 418.8594,1094.8125 Q419.9531,1094.1875 421.1875,1094.1875 Q421.9219,1094.1875 422.5625,1094.3594 Q423.2188,1094.5156 423.7656,1094.875 Z " fill="#000000"/><text fill="#000000" font-family="sans-serif" font-size="14" lengthAdjust="spacing" textLength="43" x="441" y="1103.8535">District</text><line style="stroke:#181818;stroke-width:0.5;" x1="380" x2="513" y1="1115" y2="1115"/><text fill="#000000" font-family="sans-serif" font-size="14" lengthAdjust="spacing" textLength="123" x="385" y="1131.6738">-String districtName</text><line style="stroke:#181818;stroke-width:0.5;" x1="380" x2="513" y1="1138.6406" y2="1138.6406"/></g><!--class City--><g id="elem_City"><rect codeLine="63" fill="#F1F1F1" height="63.6406" id="City" rx="2.5" ry="2.5" style="stroke:#181818;stroke-width:0.5;" width="115" x="549" y="1083"/><ellipse cx="590.55" cy="1099" fill="#ADD1B2" rx="11" ry="11" style="stroke:#181818;stroke-width:1.0;"/><path d="M593.3156,1094.875 Q593.4719,1094.6563 593.6594,1094.5469 Q593.8469,1094.4375 594.0656,1094.4375 Q594.4406,1094.4375 594.675,1094.7031 Q594.9094,1094.9531 594.9094,1095.5625 L594.9094,1097.0156 Q594.9094,1097.625 594.675,1097.8906 Q594.4406,1098.1563 594.0656,1098.1563 Q593.7219,1098.1563 593.5188,1097.9531 Q593.3156,1097.7656 593.2063,1097.25 Q593.1594,1096.8906 592.9719,1096.7031 Q592.6438,1096.3281 592.0344,1096.1094 Q591.425,1095.8906 590.8,1095.8906 Q590.0344,1095.8906 589.3938,1096.2188 Q588.7688,1096.5469 588.2688,1097.2969 Q587.7844,1098.0469 587.7844,1099.0781 L587.7844,1100.1719 Q587.7844,1101.4063 588.675,1102.2344 Q589.5656,1103.0469 591.1594,1103.0469 Q592.0969,1103.0469 592.7531,1102.7969 Q593.1438,1102.6406 593.5656,1102.2031 Q593.8313,1101.9375 593.9719,1101.8594 Q594.1281,1101.7813 594.3313,1101.7813 Q594.6594,1101.7813 594.9094,1102.0469 Q595.175,1102.2969 595.175,1102.6406 Q595.175,1102.9844 594.8313,1103.3906 Q594.3313,1103.9688 593.5344,1104.2969 Q592.4563,1104.75 591.1594,1104.75 Q589.6438,1104.75 588.4406,1104.125 Q587.4563,1103.625 586.7688,1102.5625 Q586.0813,1101.4844 586.0813,1100.2031 L586.0813,1099.0469 Q586.0813,1097.7188 586.6906,1096.5781 Q587.3156,1095.4219 588.4094,1094.8125 Q589.5031,1094.1875 590.7375,1094.1875 Q591.4719,1094.1875 592.1125,1094.3594 Q592.7688,1094.5156 593.3156,1094.875 Z " fill="#000000"/><text fill="#000000" font-family="sans-serif" font-size="14" lengthAdjust="spacing" textLength="24" x="610.45" y="1103.8535">City</text><line style="stroke:#181818;stroke-width:0.5;" x1="550" x2="663" y1="1115" y2="1115"/><text fill="#000000" font-family="sans-serif" font-size="14" lengthAdjust="spacing" textLength="103" x="555" y="1131.6738">-String cityName</text><line style="stroke:#181818;stroke-width:0.5;" x1="550" x2="663" y1="1138.6406" y2="1138.6406"/></g><!--link CreateUserUI to CreateUserController--><g id="link_CreateUserUI_CreateUserController"><path codeLine="67" d="M341.5,55.27 C341.5,71.23 341.5,92.72 341.5,110.88 " fill="none" id="CreateUserUI-to-CreateUserController" style="stroke:#181818;stroke-width:1.0;stroke-dasharray:7.0,7.0;"/><polygon fill="#181818" points="341.5,115.91,345.5,106.91,341.5,110.91,337.5,106.91,341.5,115.91" style="stroke:#181818;stroke-width:1.0;"/></g><!--link CreateUserController to Repositories--><g id="link_CreateUserController_Repositories"><path codeLine="69" d="M341.5,180.08 C341.5,196.48 341.5,217.04 341.5,235.77 " fill="none" id="CreateUserController-to-Repositories" style="stroke:#181818;stroke-width:1.0;stroke-dasharray:7.0,7.0;"/><polygon fill="#181818" points="341.5,241,345.5,232,341.5,236,337.5,232,341.5,241" style="stroke:#181818;stroke-width:1.0;"/></g><!--link Repositories to UserRepository--><g id="link_Repositories_UserRepository"><path codeLine="71" d="M341.5,336.27 C341.5,353.37 341.5,373.08 341.5,391.63 " fill="none" id="Repositories-to-UserRepository" style="stroke:#181818;stroke-width:1.0;"/><polygon fill="#181818" points="341.5,396.83,345.5,387.83,341.5,391.83,337.5,387.83,341.5,396.83" style="stroke:#181818;stroke-width:1.0;"/></g><!--link Repositories to Repositories--><g id="link_Repositories_Repositories"><path codeLine="73" d="M415.03,273.98 C434.89,274.75 450,279.59 450,288.5 C450,296.65 437.38,301.39 420.04,302.73 " fill="none" id="Repositories-to-Repositories" style="stroke:#181818;stroke-width:1.0;"/><polygon fill="#181818" points="415.03,303.02,424.2435,306.5,420.0219,302.7348,423.7871,298.5131,415.03,303.02" style="stroke:#181818;stroke-width:1.0;"/><text fill="#000000" font-family="sans-serif" font-size="13" lengthAdjust="spacing" textLength="49" x="456" y="293.2686">instance</text></g><!--link UserRepository to User--><g id="link_UserRepository_User"><path codeLine="74" d="M341.5,523.12 C341.5,540.96 341.5,560.51 341.5,578.65 " fill="none" id="UserRepository-to-User" style="stroke:#181818;stroke-width:1.0;"/><polygon fill="#181818" points="341.5,583.73,345.5,574.73,341.5,578.73,337.5,574.73,341.5,583.73" style="stroke:#181818;stroke-width:1.0;"/></g><!--link User to Address--><g id="link_User_Address"><path codeLine="76" d="M372.57,710.14 C390.88,746.77 410.5,786 410.5,786 C410.5,786 424.03,853.46 434.5,905.67 " fill="none" id="User-to-Address" style="stroke:#181818;stroke-width:1.0;"/><polygon fill="#181818" points="435.5,910.67,437.6519,901.0591,434.5167,905.7676,429.8081,902.6324,435.5,910.67" style="stroke:#181818;stroke-width:1.0;"/></g><!--link Address to State--><g id="link_Address_State"><path codeLine="78" d="M406.24,1022.21 C384.27,1052.06 361.5,1083 361.5,1083 C361.5,1083 347.74,1142.62 337.24,1188.15 " fill="none" id="Address-to-State" style="stroke:#181818;stroke-width:1.0;"/><polygon fill="none" points="344.02,1189.89,332.7,1207.81,330.38,1186.74,344.02,1189.89" style="stroke:#181818;stroke-width:1.0;"/></g><!--link Address to City--><g id="link_Address_City"><path codeLine="79" d="M506.08,1022.05 C523.05,1037.59 541.33,1054.33 557.58,1069.21 " fill="none" id="Address-to-City" style="stroke:#181818;stroke-width:1.0;"/><polygon fill="none" points="562.41,1064.14,572.43,1082.81,552.96,1074.46,562.41,1064.14" style="stroke:#181818;stroke-width:1.0;"/></g><!--link Address to District--><g id="link_Address_District"><path codeLine="80" d="M446.5,1022.05 C446.5,1035.34 446.5,1049.52 446.5,1062.66 " fill="none" id="Address-to-District" style="stroke:#181818;stroke-width:1.0;"/><polygon fill="none" points="453.5,1062.81,446.5,1082.81,439.5,1062.81,453.5,1062.81" style="stroke:#181818;stroke-width:1.0;"/></g><!--link User to TaxNumber--><g id="link_User_TaxNumber"><path codeLine="81" d="M341.5,710.45 C341.5,728.53 341.5,748.06 341.5,765.4 " fill="none" id="User-to-TaxNumber" style="stroke:#181818;stroke-width:1.0;"/><polygon fill="none" points="348.5,765.57,341.5,785.57,334.5,765.57,348.5,765.57" style="stroke:#181818;stroke-width:1.0;"/><text fill="#000000" font-family="sans-serif" font-size="13" lengthAdjust="spacing" textLength="21" x="342.5" y="752.7686">has</text></g><!--link User to PassportCardNumber--><g id="link_User_PassportCardNumber"><path codeLine="82" d="M277.57,710.45 C256.91,730.63 234.41,752.61 215.24,771.34 " fill="none" id="User-to-PassportCardNumber" style="stroke:#181818;stroke-width:1.0;"/><polygon fill="none" points="219.87,776.6,200.67,785.57,210.09,766.59,219.87,776.6" style="stroke:#181818;stroke-width:1.0;"/><text fill="#000000" font-family="sans-serif" font-size="13" lengthAdjust="spacing" textLength="21" x="246.5" y="752.7686">has</text></g><!--SRC=[lLDDZziW4BtpAxWbgtneprKLAN9xY5IjLatt1x0miL4mM33fhZVjV- -G68ERNDiBuhrvpBmPO1QEsdR2YvQtpZhPUDS2Hty2bYETa4THmnvx0zo3H65hKmf28vHxqxRc1s526J7Q0lOTyCwPFW8sknDq7XqhJaaZGjWYUlrwGjX9P_Vw0_WZOpC31-JekDTrWrpfQ4SxozZb3Ayy28IN0FvbTsQ_R-dAMVJE6F1djf0ZFRUYXILr6a97RYhXrTEfVGM_v2ZUqrOevI649OTMQBDDg6kSXQI9ATwSLm-v-dVeND3el8P0LKiuVs2B6d1d0mrLmW2Zer7LpujKqmWbuzzqGFxvHFo6nvMeVzlMWkINtBIL3SZZxX3Xrb1LrNzz9p-1BNuAerLoyLS3PxRYUxfSUY_HNqPbVMArnT94rYKp_-q6ds-oKWyNUpU1VEX7AZjeHnjPCXWO1CevdrgD-60AOcZzGtULKp3YW1u0qyp6n7kaiPmB5S6dEEjHyONkoMk9MQG6PgghDFPP8mcbUFdN-7grkVlBIbbc-NgzcNmBnah4LvHj-jJl22R49tejrp_4fWV7NEmI84WupOiDcyZ-sbodLd14nVQdJ1fSIaVKUDDaen6XYDm-dAla3m00]--></g></svg>