<?xml version="1.0" encoding="us-ascii" standalone="no"?><svg xmlns="http://www.w3.org/2000/svg" xmlns:xlink="http://www.w3.org/1999/xlink" contentStyleType="text/css" height="594px" preserveAspectRatio="none" style="width:2105px;height:594px;background:#FFFFFF;" version="1.1" viewBox="0 0 2105 594" width="2105px" zoomAndPan="magnify"><defs/><g><rect fill="#FFFFFF" height="405.375" style="stroke:#181818;stroke-width:1.0;" width="10" x="58" y="90.6406"/><rect fill="#FFFFFF" height="43.0469" style="stroke:#181818;stroke-width:1.0;" width="10" x="427" y="111.1641"/><rect fill="#FFFFFF" height="170.6641" style="stroke:#181818;stroke-width:1.0;" width="10" x="427" y="182.7344"/><rect fill="#FFFFFF" height="114.0938" style="stroke:#181818;stroke-width:1.0;" width="10" x="427" y="381.9219"/><rect fill="#FFFFFF" height="127.6172" style="stroke:#181818;stroke-width:1.0;" width="10" x="777" y="225.7813"/><rect fill="#FFFFFF" height="85.5703" style="stroke:#181818;stroke-width:1.0;" width="10" x="777" y="410.4453"/><rect fill="#FFFFFF" height="34.5234" style="stroke:#181818;stroke-width:1.0;" width="10" x="1127" y="268.8281"/><rect fill="#FFFFFF" height="37.5234" style="stroke:#181818;stroke-width:1.0;" width="10" x="1223.5" y="467.4922"/><rect fill="#FFFFFF" height="28.5234" style="stroke:#181818;stroke-width:1.0;" width="10" x="1351.5" y="438.9688"/><line style="stroke:#181818;stroke-width:0.5;stroke-dasharray:5.0,5.0;" x1="63" x2="63" y1="80.6406" y2="514.0156"/><line style="stroke:#181818;stroke-width:0.5;stroke-dasharray:5.0,5.0;" x1="432" x2="432" y1="80.6406" y2="514.0156"/><line style="stroke:#181818;stroke-width:0.5;stroke-dasharray:5.0,5.0;" x1="782" x2="782" y1="80.6406" y2="514.0156"/><line style="stroke:#181818;stroke-width:0.5;stroke-dasharray:5.0,5.0;" x1="1131.5" x2="1131.5" y1="80.6406" y2="514.0156"/><line style="stroke:#181818;stroke-width:0.5;stroke-dasharray:5.0,5.0;" x1="1228.5" x2="1228.5" y1="80.6406" y2="514.0156"/><line style="stroke:#181818;stroke-width:0.5;stroke-dasharray:5.0,5.0;" x1="1356" x2="1356" y1="80.6406" y2="514.0156"/><line style="stroke:#181818;stroke-width:0.5;stroke-dasharray:5.0,5.0;" x1="1441" x2="1441" y1="80.6406" y2="514.0156"/><line style="stroke:#181818;stroke-width:0.5;stroke-dasharray:5.0,5.0;" x1="1552" x2="1552" y1="80.6406" y2="514.0156"/><line style="stroke:#181818;stroke-width:0.5;stroke-dasharray:5.0,5.0;" x1="1677" x2="1677" y1="80.6406" y2="514.0156"/><line style="stroke:#181818;stroke-width:0.5;stroke-dasharray:5.0,5.0;" x1="1777" x2="1777" y1="80.6406" y2="514.0156"/><line style="stroke:#181818;stroke-width:0.5;stroke-dasharray:5.0,5.0;" x1="1869" x2="1869" y1="80.6406" y2="514.0156"/><line style="stroke:#181818;stroke-width:0.5;stroke-dasharray:5.0,5.0;" x1="1963" x2="1963" y1="80.6406" y2="514.0156"/><line style="stroke:#181818;stroke-width:0.5;stroke-dasharray:5.0,5.0;" x1="2062" x2="2062" y1="80.6406" y2="514.0156"/><text fill="#000000" font-family="sans-serif" font-size="14" lengthAdjust="spacing" textLength="110" x="5" y="77.6738">UnregisteredUser</text><ellipse cx="63" cy="13.5" fill="#E3E3E3" rx="8" ry="8" style="stroke:#181818;stroke-width:0.5;"/><path d="M63,21.5 L63,48.5 M50,29.5 L76,29.5 M63,48.5 L50,63.5 M63,48.5 L76,63.5 " fill="none" style="stroke:#181818;stroke-width:0.5;"/><text fill="#000000" font-family="sans-serif" font-size="14" lengthAdjust="spacing" textLength="110" x="5" y="525.6895">UnregisteredUser</text><ellipse cx="63" cy="537.1563" fill="#E3E3E3" rx="8" ry="8" style="stroke:#181818;stroke-width:0.5;"/><path d="M63,545.1563 L63,572.1563 M50,553.1563 L76,553.1563 M63,572.1563 L50,587.1563 M63,572.1563 L76,587.1563 " fill="none" style="stroke:#181818;stroke-width:0.5;"/><rect fill="#E3E3E3" height="29.6406" rx="2.5" ry="2.5" style="stroke:#181818;stroke-width:0.5;" width="102" x="381" y="50"/><text fill="#000000" font-family="sans-serif" font-size="14" lengthAdjust="spacing" textLength="88" x="388" y="69.6738">:CreateUserUI</text><rect fill="#E3E3E3" height="29.6406" rx="2.5" ry="2.5" style="stroke:#181818;stroke-width:0.5;" width="102" x="381" y="513.0156"/><text fill="#000000" font-family="sans-serif" font-size="14" lengthAdjust="spacing" textLength="88" x="388" y="532.6895">:CreateUserUI</text><rect fill="#E3E3E3" height="29.6406" rx="2.5" ry="2.5" style="stroke:#181818;stroke-width:0.5;" width="152" x="706" y="50"/><text fill="#000000" font-family="sans-serif" font-size="14" lengthAdjust="spacing" textLength="138" x="713" y="69.6738">:CreateUserController</text><rect fill="#E3E3E3" height="29.6406" rx="2.5" ry="2.5" style="stroke:#181818;stroke-width:0.5;" width="152" x="706" y="513.0156"/><text fill="#000000" font-family="sans-serif" font-size="14" lengthAdjust="spacing" textLength="138" x="713" y="532.6895">:CreateUserController</text><rect fill="#E3E3E3" height="29.6406" rx="2.5" ry="2.5" style="stroke:#181818;stroke-width:0.5;" width="47" x="1108.5" y="50"/><text fill="#000000" font-family="sans-serif" font-size="14" lengthAdjust="spacing" textLength="33" x="1115.5" y="69.6738">:User</text><rect fill="#E3E3E3" height="29.6406" rx="2.5" ry="2.5" style="stroke:#181818;stroke-width:0.5;" width="47" x="1108.5" y="513.0156"/><text fill="#000000" font-family="sans-serif" font-size="14" lengthAdjust="spacing" textLength="33" x="1115.5" y="532.6895">:User</text><rect fill="#E3E3E3" height="29.6406" rx="2.5" ry="2.5" style="stroke:#181818;stroke-width:0.5;" width="126" x="1165.5" y="50"/><text fill="#000000" font-family="sans-serif" font-size="14" lengthAdjust="spacing" textLength="112" x="1172.5" y="69.6738">:UserRepositories</text><rect fill="#E3E3E3" height="29.6406" rx="2.5" ry="2.5" style="stroke:#181818;stroke-width:0.5;" width="126" x="1165.5" y="513.0156"/><text fill="#000000" font-family="sans-serif" font-size="14" lengthAdjust="spacing" textLength="112" x="1172.5" y="532.6895">:UserRepositories</text><rect fill="#E3E3E3" height="29.6406" rx="2.5" ry="2.5" style="stroke:#181818;stroke-width:0.5;" width="97" x="1308" y="50"/><text fill="#000000" font-family="sans-serif" font-size="14" lengthAdjust="spacing" textLength="83" x="1315" y="69.6738">:Repositories</text><rect fill="#E3E3E3" height="29.6406" rx="2.5" ry="2.5" style="stroke:#181818;stroke-width:0.5;" width="97" x="1308" y="513.0156"/><text fill="#000000" font-family="sans-serif" font-size="14" lengthAdjust="spacing" textLength="83" x="1315" y="532.6895">:Repositories</text><rect fill="#E3E3E3" height="45.2813" rx="2.5" ry="2.5" style="stroke:#181818;stroke-width:0.5;" width="53" x="1415" y="34.3594"/><text fill="#000000" font-family="sans-serif" font-size="14" lengthAdjust="spacing" textLength="39" x="1422" y="54.0332">:name</text><text fill="#000000" font-family="sans-serif" font-size="14" lengthAdjust="spacing" textLength="37" x="1423" y="69.6738">String</text><rect fill="#E3E3E3" height="45.2813" rx="2.5" ry="2.5" style="stroke:#181818;stroke-width:0.5;" width="53" x="1415" y="513.0156"/><text fill="#000000" font-family="sans-serif" font-size="14" lengthAdjust="spacing" textLength="39" x="1422" y="532.6895">:name</text><text fill="#000000" font-family="sans-serif" font-size="14" lengthAdjust="spacing" textLength="37" x="1423" y="548.3301">String</text><rect fill="#E3E3E3" height="45.2813" rx="2.5" ry="2.5" style="stroke:#181818;stroke-width:0.5;" width="149" x="1478" y="34.3594"/><text fill="#000000" font-family="sans-serif" font-size="14" lengthAdjust="spacing" textLength="135" x="1485" y="54.0332">passportCardNumber</text><text fill="#000000" font-family="sans-serif" font-size="14" lengthAdjust="spacing" textLength="44" x="1530.5" y="69.6738">Integer</text><rect fill="#E3E3E3" height="45.2813" rx="2.5" ry="2.5" style="stroke:#181818;stroke-width:0.5;" width="149" x="1478" y="513.0156"/><text fill="#000000" font-family="sans-serif" font-size="14" lengthAdjust="spacing" textLength="135" x="1485" y="532.6895">passportCardNumber</text><text fill="#000000" font-family="sans-serif" font-size="14" lengthAdjust="spacing" textLength="44" x="1530.5" y="548.3301">Integer</text><rect fill="#E3E3E3" height="29.6406" rx="2.5" ry="2.5" style="stroke:#181818;stroke-width:0.5;" width="81" x="1637" y="50"/><text fill="#000000" font-family="sans-serif" font-size="14" lengthAdjust="spacing" textLength="67" x="1644" y="69.6738">taxNumber</text><rect fill="#E3E3E3" height="29.6406" rx="2.5" ry="2.5" style="stroke:#181818;stroke-width:0.5;" width="81" x="1637" y="513.0156"/><text fill="#000000" font-family="sans-serif" font-size="14" lengthAdjust="spacing" textLength="67" x="1644" y="532.6895">taxNumber</text><rect fill="#E3E3E3" height="45.2813" rx="2.5" ry="2.5" style="stroke:#181818;stroke-width:0.5;" width="99" x="1728" y="34.3594"/><text fill="#000000" font-family="sans-serif" font-size="14" lengthAdjust="spacing" textLength="85" x="1735" y="54.0332">emailAddress</text><text fill="#000000" font-family="sans-serif" font-size="14" lengthAdjust="spacing" textLength="37" x="1759" y="69.6738">String</text><rect fill="#E3E3E3" height="45.2813" rx="2.5" ry="2.5" style="stroke:#181818;stroke-width:0.5;" width="99" x="1728" y="513.0156"/><text fill="#000000" font-family="sans-serif" font-size="14" lengthAdjust="spacing" textLength="85" x="1735" y="532.6895">emailAddress</text><text fill="#000000" font-family="sans-serif" font-size="14" lengthAdjust="spacing" textLength="37" x="1759" y="548.3301">String</text><rect fill="#E3E3E3" height="45.2813" rx="2.5" ry="2.5" style="stroke:#181818;stroke-width:0.5;" width="65" x="1837" y="34.3594"/><text fill="#000000" font-family="sans-serif" font-size="14" lengthAdjust="spacing" textLength="51" x="1844" y="54.0332">address</text><text fill="#000000" font-family="sans-serif" font-size="14" lengthAdjust="spacing" textLength="37" x="1851" y="69.6738">String</text><rect fill="#E3E3E3" height="45.2813" rx="2.5" ry="2.5" style="stroke:#181818;stroke-width:0.5;" width="65" x="1837" y="513.0156"/><text fill="#000000" font-family="sans-serif" font-size="14" lengthAdjust="spacing" textLength="51" x="1844" y="532.6895">address</text><text fill="#000000" font-family="sans-serif" font-size="14" lengthAdjust="spacing" textLength="37" x="1851" y="548.3301">String</text><rect fill="#E3E3E3" height="29.6406" rx="2.5" ry="2.5" style="stroke:#181818;stroke-width:0.5;" width="103" x="1912" y="50"/><text fill="#000000" font-family="sans-serif" font-size="14" lengthAdjust="spacing" textLength="89" x="1919" y="69.6738">phoneNumber</text><rect fill="#E3E3E3" height="29.6406" rx="2.5" ry="2.5" style="stroke:#181818;stroke-width:0.5;" width="103" x="1912" y="513.0156"/><text fill="#000000" font-family="sans-serif" font-size="14" lengthAdjust="spacing" textLength="89" x="1919" y="532.6895">phoneNumber</text><rect fill="#E3E3E3" height="29.6406" rx="2.5" ry="2.5" style="stroke:#181818;stroke-width:0.5;" width="74" x="2025" y="50"/><text fill="#000000" font-family="sans-serif" font-size="14" lengthAdjust="spacing" textLength="60" x="2032" y="69.6738">password</text><rect fill="#E3E3E3" height="29.6406" rx="2.5" ry="2.5" style="stroke:#181818;stroke-width:0.5;" width="74" x="2025" y="513.0156"/><text fill="#000000" font-family="sans-serif" font-size="14" lengthAdjust="spacing" textLength="60" x="2032" y="532.6895">password</text><rect fill="#FFFFFF" height="405.375" style="stroke:#181818;stroke-width:1.0;" width="10" x="58" y="90.6406"/><rect fill="#FFFFFF" height="43.0469" style="stroke:#181818;stroke-width:1.0;" width="10" x="427" y="111.1641"/><rect fill="#FFFFFF" height="170.6641" style="stroke:#181818;stroke-width:1.0;" width="10" x="427" y="182.7344"/><rect fill="#FFFFFF" height="114.0938" style="stroke:#181818;stroke-width:1.0;" width="10" x="427" y="381.9219"/><rect fill="#FFFFFF" height="127.6172" style="stroke:#181818;stroke-width:1.0;" width="10" x="777" y="225.7813"/><rect fill="#FFFFFF" height="85.5703" style="stroke:#181818;stroke-width:1.0;" width="10" x="777" y="410.4453"/><rect fill="#FFFFFF" height="34.5234" style="stroke:#181818;stroke-width:1.0;" width="10" x="1127" y="268.8281"/><rect fill="#FFFFFF" height="37.5234" style="stroke:#181818;stroke-width:1.0;" width="10" x="1223.5" y="467.4922"/><rect fill="#FFFFFF" height="28.5234" style="stroke:#181818;stroke-width:1.0;" width="10" x="1351.5" y="438.9688"/><polygon fill="#181818" points="415,107.1641,425,111.1641,415,115.1641,419,111.1641" style="stroke:#181818;stroke-width:1.0;"/><line style="stroke:#181818;stroke-width:1.0;" x1="68" x2="421" y1="111.1641" y2="111.1641"/><text fill="#000000" font-family="sans-serif" font-size="13" font-weight="bold" lengthAdjust="spacing" textLength="7" x="75" y="106.4092">1</text><text fill="#000000" font-family="sans-serif" font-size="13" lengthAdjust="spacing" textLength="173" x="86" y="106.4092">asks to register in the system</text><polygon fill="#181818" points="79,150.2109,69,154.2109,79,158.2109,75,154.2109" style="stroke:#181818;stroke-width:1.0;"/><line style="stroke:#181818;stroke-width:1.0;stroke-dasharray:2.0,2.0;" x1="73" x2="431" y1="154.2109" y2="154.2109"/><text fill="#000000" font-family="sans-serif" font-size="13" font-weight="bold" lengthAdjust="spacing" textLength="7" x="85" y="142.1943">2</text><text fill="#000000" font-family="sans-serif" font-size="13" lengthAdjust="spacing" textLength="324" x="96" y="134.9326">requests data (name, passportCardNumber, taxNumber,</text><text fill="#000000" font-family="sans-serif" font-size="13" lengthAdjust="spacing" textLength="288" x="100" y="149.4561">emailAddress, address, phoneNumber, password)</text><polygon fill="#181818" points="415,178.7344,425,182.7344,415,186.7344,419,182.7344" style="stroke:#181818;stroke-width:1.0;"/><line style="stroke:#181818;stroke-width:1.0;" x1="68" x2="421" y1="182.7344" y2="182.7344"/><text fill="#000000" font-family="sans-serif" font-size="13" font-weight="bold" lengthAdjust="spacing" textLength="7" x="75" y="177.9795">3</text><text fill="#000000" font-family="sans-serif" font-size="13" lengthAdjust="spacing" textLength="68" x="86" y="177.9795">inserts data</text><polygon fill="#181818" points="765,221.7813,775,225.7813,765,229.7813,769,225.7813" style="stroke:#181818;stroke-width:1.0;"/><line style="stroke:#181818;stroke-width:1.0;" x1="437" x2="771" y1="225.7813" y2="225.7813"/><text fill="#000000" font-family="sans-serif" font-size="13" font-weight="bold" lengthAdjust="spacing" textLength="7" x="444" y="213.7646">4</text><text fill="#000000" font-family="sans-serif" font-size="13" lengthAdjust="spacing" textLength="310" x="455" y="206.5029">create user (name, passportCardNumber, taxNumber,</text><text fill="#000000" font-family="sans-serif" font-size="13" lengthAdjust="spacing" textLength="288" x="459" y="221.0264">emailAddress, address, phoneNumber, password)</text><polygon fill="#181818" points="1115,264.8281,1125,268.8281,1115,272.8281,1119,268.8281" style="stroke:#181818;stroke-width:1.0;"/><line style="stroke:#181818;stroke-width:1.0;" x1="787" x2="1121" y1="268.8281" y2="268.8281"/><text fill="#000000" font-family="sans-serif" font-size="13" font-weight="bold" lengthAdjust="spacing" textLength="7" x="794" y="256.8115">5</text><text fill="#000000" font-family="sans-serif" font-size="13" lengthAdjust="spacing" textLength="310" x="805" y="249.5498">create user (name, passportCardNumber, taxNumber,</text><text fill="#000000" font-family="sans-serif" font-size="13" lengthAdjust="spacing" textLength="288" x="809" y="264.0732">emailAddress, address, phoneNumber, password)</text><line style="stroke:#181818;stroke-width:1.0;" x1="787" x2="829" y1="302.3516" y2="302.3516"/><line style="stroke:#181818;stroke-width:1.0;" x1="829" x2="829" y1="302.3516" y2="315.3516"/><line style="stroke:#181818;stroke-width:1.0;" x1="782" x2="829" y1="315.3516" y2="315.3516"/><polygon fill="#181818" points="792,311.3516,782,315.3516,792,319.3516,788,315.3516" style="stroke:#181818;stroke-width:1.0;"/><text fill="#000000" font-family="sans-serif" font-size="13" font-weight="bold" lengthAdjust="spacing" textLength="7" x="794" y="297.5967">6</text><text fill="#000000" font-family="sans-serif" font-size="13" lengthAdjust="spacing" textLength="78" x="805" y="297.5967">validateUser()</text><polygon fill="#181818" points="79,349.3984,69,353.3984,79,357.3984,75,353.3984" style="stroke:#181818;stroke-width:1.0;"/><line style="stroke:#181818;stroke-width:1.0;stroke-dasharray:2.0,2.0;" x1="73" x2="431" y1="353.3984" y2="353.3984"/><text fill="#000000" font-family="sans-serif" font-size="13" font-weight="bold" lengthAdjust="spacing" textLength="7" x="85" y="341.3818">7</text><text fill="#000000" font-family="sans-serif" font-size="13" lengthAdjust="spacing" textLength="155" x="96" y="334.1201">shows all the data inserted</text><text fill="#000000" font-family="sans-serif" font-size="13" lengthAdjust="spacing" textLength="145" x="96" y="348.6436">and asks for confirmation</text><polygon fill="#181818" points="415,377.9219,425,381.9219,415,385.9219,419,381.9219" style="stroke:#181818;stroke-width:1.0;"/><line style="stroke:#181818;stroke-width:1.0;" x1="68" x2="421" y1="381.9219" y2="381.9219"/><text fill="#000000" font-family="sans-serif" font-size="13" font-weight="bold" lengthAdjust="spacing" textLength="7" x="75" y="377.167">8</text><text fill="#000000" font-family="sans-serif" font-size="13" lengthAdjust="spacing" textLength="78" x="86" y="377.167">confirms data</text><polygon fill="#181818" points="765,406.4453,775,410.4453,765,414.4453,769,410.4453" style="stroke:#181818;stroke-width:1.0;"/><line style="stroke:#181818;stroke-width:1.0;" x1="437" x2="771" y1="410.4453" y2="410.4453"/><text fill="#000000" font-family="sans-serif" font-size="13" font-weight="bold" lengthAdjust="spacing" textLength="7" x="444" y="405.6904">9</text><text fill="#000000" font-family="sans-serif" font-size="13" lengthAdjust="spacing" textLength="86" x="455" y="405.6904">saveUser(user)</text><polygon fill="#181818" points="1339.5,434.9688,1349.5,438.9688,1339.5,442.9688,1343.5,438.9688" style="stroke:#181818;stroke-width:1.0;"/><line style="stroke:#181818;stroke-width:1.0;" x1="787" x2="1345.5" y1="438.9688" y2="438.9688"/><text fill="#000000" font-family="sans-serif" font-size="13" font-weight="bold" lengthAdjust="spacing" textLength="14" x="794" y="434.2139">10</text><text fill="#000000" font-family="sans-serif" font-size="13" lengthAdjust="spacing" textLength="4" x="812" y="434.2139">&#160;</text><polygon fill="#181818" points="1244.5,463.4922,1234.5,467.4922,1244.5,471.4922,1240.5,467.4922" style="stroke:#181818;stroke-width:1.0;"/><line style="stroke:#181818;stroke-width:1.0;stroke-dasharray:2.0,2.0;" x1="1238.5" x2="1355.5" y1="467.4922" y2="467.4922"/><text fill="#000000" font-family="sans-serif" font-size="13" font-weight="bold" lengthAdjust="spacing" textLength="14" x="1250.5" y="462.7373">11</text><text fill="#000000" font-family="sans-serif" font-size="13" lengthAdjust="spacing" textLength="81" x="1268.5" y="462.7373">addUser(user)</text><polygon fill="#181818" points="74,492.0156,64,496.0156,74,500.0156,70,496.0156" style="stroke:#181818;stroke-width:1.0;"/><line style="stroke:#181818;stroke-width:1.0;stroke-dasharray:2.0,2.0;" x1="68" x2="431" y1="496.0156" y2="496.0156"/><text fill="#000000" font-family="sans-serif" font-size="13" font-weight="bold" lengthAdjust="spacing" textLength="14" x="80" y="491.2607">12</text><text fill="#000000" font-family="sans-serif" font-size="13" lengthAdjust="spacing" textLength="259" x="98" y="491.2607">shows confirmation of successful registration</text><!--SRC=[lLJ1Rfmm4BtxAqPxQIfjVY27I17g0QbQHIJSzZB10rWBDlMOtUJlOmpPDR1jaqFB0M7FyvitRyRmGUaEBRRG6csAsfgMmDcU19yZ7HO7hEZ9lJK4bWg7kcfY0DSepKdf2afic8J0tXdTjozaXVXMAqbG6kDUpAl0mXaBcrnRgXGxiYHp9hi1PCXpuVcSAbI7si7cBh64ZePudew8zBU8n6XdJTDCNCbpzdE1FUVf_SULM4QTOUNbAU8nMxP0hH1BWCQMzlh9MUz500mRSqo7p9snBa4hTy6YlKwreseIzvZivWSSlewu47wU1wb5rJn8QObvblZ7mno8Lp0BI5SRJL6gnzrQ-SbOEGR5q4frzEuFVHCmFNaEj_U-Jt3dKGS6P-2Zqw0qk9g0t_oglHovyAINpS2Lmkr0bdioIxzwOiSWqI7S3BvkOUtb5ivsRVSQOdksW1yVKQKZoL3Mzp6vf5ZFeYIb_PnC8iHLxOFc-p1z7bw4wGppzeyappI4cGzR8R_N4JB_TntXViKo9ZkEs2WvNTURjTtXcBZMVAxDYG6R9inFc82n4oHXhr7BSTPA_sSfZ2wLRT4feyzSKPBWqRhFoqPFD9_kDEDnB6ieugzjoSGSaOLbU6LZrTbmVwHSK4QQiuMeY2AkxFfszWUNOmF1bC1zKVZEbtqpNMJxPM_ZPIxU0G00]--></g></svg>