<?xml version="1.0" encoding="us-ascii" standalone="no"?><svg xmlns="http://www.w3.org/2000/svg" xmlns:xlink="http://www.w3.org/1999/xlink" contentStyleType="text/css" height="1041.7px" preserveAspectRatio="none" style="width:1920px;height:1041px;background:#FFFFFF;" version="1.1" viewBox="0 0 1920 1041" width="1920.6px" zoomAndPan="magnify"><defs/><g><rect fill="#FFFFFF" height="834.075" style="stroke:#181818;stroke-width:1.1;" width="11" x="63.8" y="99.7047"/><rect fill="#FFFFFF" height="248.9352" style="stroke:#181818;stroke-width:1.1;" width="11" x="469.7" y="122.2805"/><rect fill="#FFFFFF" height="93.0273" style="stroke:#181818;stroke-width:1.1;" width="11" x="469.7" y="402.5914"/><rect fill="#FFFFFF" height="406.7852" style="stroke:#181818;stroke-width:1.1;" width="11" x="469.7" y="526.9945"/><rect fill="#FFFFFF" height="159.2078" style="stroke:#181818;stroke-width:1.1;" width="11" x="860.2" y="164.6563"/><rect fill="#FFFFFF" height="47.3516" style="stroke:#181818;stroke-width:1.1;" width="11" x="860.2" y="574.3461"/><rect fill="#FFFFFF" height="31.3758" style="stroke:#181818;stroke-width:1.1;" width="11" x="860.2" y="871.0281"/><rect fill="#FFFFFF" height="31.3758" style="stroke:#181818;stroke-width:1.1;" width="11" x="1008.15" y="198.3609"/><rect fill="#FFFFFF" height="31.3758" style="stroke:#181818;stroke-width:1.1;" width="11" x="1123.1" y="261.1125"/><rect fill="#FFFFFF" height="249.3305" style="stroke:#181818;stroke-width:1.1;" width="11" x="1310.1" y="621.6977"/><rect fill="#FFFFFF" height="51.1758" style="stroke:#181818;stroke-width:1.1;" width="11" x="1785.85" y="751.6008"/><rect fill="none" height="111.2031" style="stroke:#000000;stroke-width:1.6500000000000001;" width="673.2" x="1241.35" y="683.8734"/><line style="stroke:#181818;stroke-width:0.55;stroke-dasharray:5.0,5.0;" x1="69.3" x2="69.3" y1="88.7047" y2="953.5797"/><line style="stroke:#181818;stroke-width:0.55;stroke-dasharray:5.0,5.0;" x1="475.2" x2="475.2" y1="88.7047" y2="953.5797"/><line style="stroke:#181818;stroke-width:0.55;stroke-dasharray:5.0,5.0;" x1="865.7" x2="865.7" y1="164.4328" y2="953.5797"/><line style="stroke:#181818;stroke-width:0.55;stroke-dasharray:5.0,5.0;" x1="1013.1" x2="1013.1" y1="88.7047" y2="953.5797"/><line style="stroke:#181818;stroke-width:0.55;stroke-dasharray:5.0,5.0;" x1="1128.6" x2="1128.6" y1="88.7047" y2="953.5797"/><line style="stroke:#181818;stroke-width:0.55;stroke-dasharray:5.0,5.0;" x1="1315.05" x2="1315.05" y1="88.7047" y2="953.5797"/><line style="stroke:#181818;stroke-width:0.55;stroke-dasharray:5.0,5.0;" x1="1790.8" x2="1790.8" y1="736.725" y2="953.5797"/><text fill="#000000" font-family="sans-serif" font-size="15.4" lengthAdjust="spacing" textLength="121" x="5.5" y="85.4412">UnregisteredUser</text><ellipse cx="69.3" cy="14.85" fill="#E3E3E3" rx="8.8" ry="8.8" style="stroke:#181818;stroke-width:0.55;"/><path d="M69.3,23.65 L69.3,53.35 M55,32.45 L83.6,32.45 M69.3,53.35 L55,69.85 M69.3,53.35 L83.6,69.85 " fill="none" style="stroke:#181818;stroke-width:0.55;"/><text fill="#000000" font-family="sans-serif" font-size="15.4" lengthAdjust="spacing" textLength="121" x="5.5" y="966.4209">UnregisteredUser</text><ellipse cx="69.3" cy="979.0344" fill="#E3E3E3" rx="8.8" ry="8.8" style="stroke:#181818;stroke-width:0.55;"/><path d="M69.3,987.8344 L69.3,1017.5344 M55,996.6344 L83.6,996.6344 M69.3,1017.5344 L55,1034.0344 M69.3,1017.5344 L83.6,1034.0344 " fill="none" style="stroke:#181818;stroke-width:0.55;"/><rect fill="#E3E3E3" height="32.6047" rx="2.75" ry="2.75" style="stroke:#181818;stroke-width:0.55;" width="112.2" x="419.1" y="55"/><text fill="#000000" font-family="sans-serif" font-size="15.4" lengthAdjust="spacing" textLength="96.8" x="426.8" y="76.6412">:CreateUserUI</text><rect fill="#E3E3E3" height="32.6047" rx="2.75" ry="2.75" style="stroke:#181818;stroke-width:0.55;" width="112.2" x="419.1" y="952.4797"/><text fill="#000000" font-family="sans-serif" font-size="15.4" lengthAdjust="spacing" textLength="96.8" x="426.8" y="974.1209">:CreateUserUI</text><rect fill="#E3E3E3" height="32.6047" rx="2.75" ry="2.75" style="stroke:#181818;stroke-width:0.55;" width="167.2" x="782.1" y="952.4797"/><text fill="#000000" font-family="sans-serif" font-size="15.4" lengthAdjust="spacing" textLength="151.8" x="789.8" y="974.1209">:CreateUserController</text><rect fill="#E3E3E3" height="32.6047" rx="2.75" ry="2.75" style="stroke:#181818;stroke-width:0.55;" width="106.7" x="960.3" y="55"/><text fill="#000000" font-family="sans-serif" font-size="15.4" lengthAdjust="spacing" textLength="91.3" x="968" y="76.6412">:Repositories</text><rect fill="#E3E3E3" height="32.6047" rx="2.75" ry="2.75" style="stroke:#181818;stroke-width:0.55;" width="106.7" x="960.3" y="952.4797"/><text fill="#000000" font-family="sans-serif" font-size="15.4" lengthAdjust="spacing" textLength="91.3" x="968" y="974.1209">:Repositories</text><rect fill="#E3E3E3" height="49.8094" rx="2.75" ry="2.75" style="stroke:#181818;stroke-width:0.55;" width="101.2" x="1078" y="37.7953"/><text fill="#000000" font-family="sans-serif" font-size="15.4" lengthAdjust="spacing" textLength="85.8" x="1085.7" y="59.4365">repositories:</text><text fill="#000000" font-family="sans-serif" font-size="15.4" lengthAdjust="spacing" textLength="74.8" x="1091.2" y="76.6412">Repository</text><rect fill="#E3E3E3" height="49.8094" rx="2.75" ry="2.75" style="stroke:#181818;stroke-width:0.55;" width="101.2" x="1078" y="952.4797"/><text fill="#000000" font-family="sans-serif" font-size="15.4" lengthAdjust="spacing" textLength="85.8" x="1085.7" y="974.1209">repositories:</text><text fill="#000000" font-family="sans-serif" font-size="15.4" lengthAdjust="spacing" textLength="74.8" x="1091.2" y="991.3256">Repository</text><rect fill="#E3E3E3" height="32.6047" rx="2.75" ry="2.75" style="stroke:#181818;stroke-width:0.55;" width="126.5" x="1252.35" y="55"/><text fill="#000000" font-family="sans-serif" font-size="15.4" lengthAdjust="spacing" textLength="111.1" x="1260.05" y="76.6412">:UserRepository</text><rect fill="#E3E3E3" height="32.6047" rx="2.75" ry="2.75" style="stroke:#181818;stroke-width:0.55;" width="126.5" x="1252.35" y="952.4797"/><text fill="#000000" font-family="sans-serif" font-size="15.4" lengthAdjust="spacing" textLength="111.1" x="1260.05" y="974.1209">:UserRepository</text><rect fill="#E3E3E3" height="32.6047" rx="2.75" ry="2.75" style="stroke:#181818;stroke-width:0.55;" width="51.7" x="1765.5" y="952.4797"/><text fill="#000000" font-family="sans-serif" font-size="15.4" lengthAdjust="spacing" textLength="36.3" x="1773.2" y="974.1209">:User</text><rect fill="#FFFFFF" height="834.075" style="stroke:#181818;stroke-width:1.1;" width="11" x="63.8" y="99.7047"/><rect fill="#FFFFFF" height="248.9352" style="stroke:#181818;stroke-width:1.1;" width="11" x="469.7" y="122.2805"/><rect fill="#FFFFFF" height="93.0273" style="stroke:#181818;stroke-width:1.1;" width="11" x="469.7" y="402.5914"/><rect fill="#FFFFFF" height="406.7852" style="stroke:#181818;stroke-width:1.1;" width="11" x="469.7" y="526.9945"/><rect fill="#FFFFFF" height="159.2078" style="stroke:#181818;stroke-width:1.1;" width="11" x="860.2" y="164.6563"/><rect fill="#FFFFFF" height="47.3516" style="stroke:#181818;stroke-width:1.1;" width="11" x="860.2" y="574.3461"/><rect fill="#FFFFFF" height="31.3758" style="stroke:#181818;stroke-width:1.1;" width="11" x="860.2" y="871.0281"/><rect fill="#FFFFFF" height="31.3758" style="stroke:#181818;stroke-width:1.1;" width="11" x="1008.15" y="198.3609"/><rect fill="#FFFFFF" height="31.3758" style="stroke:#181818;stroke-width:1.1;" width="11" x="1123.1" y="261.1125"/><rect fill="#FFFFFF" height="249.3305" style="stroke:#181818;stroke-width:1.1;" width="11" x="1310.1" y="621.6977"/><rect fill="#FFFFFF" height="51.1758" style="stroke:#181818;stroke-width:1.1;" width="11" x="1785.85" y="751.6008"/><polygon fill="#181818" points="456.5,117.8805,467.5,122.2805,456.5,126.6805,460.9,122.2805" style="stroke:#181818;stroke-width:1.1;"/><line style="stroke:#181818;stroke-width:1.1;" x1="74.8" x2="463.1" y1="122.2805" y2="122.2805"/><text fill="#000000" font-family="sans-serif" font-size="14.3" font-weight="bold" lengthAdjust="spacing" textLength="7.7" x="82.5" y="117.0501">1</text><text fill="#000000" font-family="sans-serif" font-size="14.3" lengthAdjust="spacing" textLength="190.3" x="94.6" y="117.0501">asks to register in the system</text><polygon fill="#181818" points="768.9,149.2563,779.9,153.6563,768.9,158.0563,773.3,153.6563" style="stroke:#181818;stroke-width:1.1;"/><line style="stroke:#181818;stroke-width:1.1;" x1="480.7" x2="775.5" y1="153.6563" y2="153.6563"/><text fill="#000000" font-family="sans-serif" font-size="14.3" font-weight="bold" lengthAdjust="spacing" textLength="7.7" x="488.4" y="148.4259">2</text><text fill="#000000" font-family="sans-serif" font-size="14.3" lengthAdjust="spacing" textLength="39.6" x="500.5" y="148.4259">create</text><rect fill="#E3E3E3" height="32.6047" rx="2.75" ry="2.75" style="stroke:#181818;stroke-width:0.55;" width="167.2" x="782.1" y="131.0805"/><text fill="#000000" font-family="sans-serif" font-size="15.4" lengthAdjust="spacing" textLength="151.8" x="789.8" y="152.7217">:CreateUserController</text><polygon fill="#181818" points="994.95,193.9609,1005.95,198.3609,994.95,202.7609,999.35,198.3609" style="stroke:#181818;stroke-width:1.1;"/><line style="stroke:#181818;stroke-width:1.1;" x1="871.2" x2="1001.55" y1="198.3609" y2="198.3609"/><text fill="#000000" font-family="sans-serif" font-size="14.3" font-weight="bold" lengthAdjust="spacing" textLength="7.7" x="878.9" y="193.1306">3</text><text fill="#000000" font-family="sans-serif" font-size="14.3" lengthAdjust="spacing" textLength="82.5" x="891" y="193.1306">getInstance()</text><polygon fill="#181818" points="883.3,225.3367,872.3,229.7367,883.3,234.1367,878.9,229.7367" style="stroke:#181818;stroke-width:1.1;"/><line style="stroke:#181818;stroke-width:1.1;stroke-dasharray:2.0,2.0;" x1="876.7" x2="1012.55" y1="229.7367" y2="229.7367"/><text fill="#000000" font-family="sans-serif" font-size="14.3" font-weight="bold" lengthAdjust="spacing" textLength="7.7" x="889.9" y="224.5063">4</text><text fill="#000000" font-family="sans-serif" font-size="14.3" lengthAdjust="spacing" textLength="73.7" x="902" y="224.5063">repositories</text><polygon fill="#181818" points="1109.9,256.7125,1120.9,261.1125,1109.9,265.5125,1114.3,261.1125" style="stroke:#181818;stroke-width:1.1;"/><line style="stroke:#181818;stroke-width:1.1;" x1="871.2" x2="1116.5" y1="261.1125" y2="261.1125"/><text fill="#000000" font-family="sans-serif" font-size="14.3" font-weight="bold" lengthAdjust="spacing" textLength="7.7" x="878.9" y="255.8821">5</text><text fill="#000000" font-family="sans-serif" font-size="14.3" lengthAdjust="spacing" textLength="126.5" x="891" y="255.8821">getUserRepository()</text><polygon fill="#181818" points="883.3,288.0883,872.3,292.4883,883.3,296.8883,878.9,292.4883" style="stroke:#181818;stroke-width:1.1;"/><line style="stroke:#181818;stroke-width:1.1;stroke-dasharray:2.0,2.0;" x1="876.7" x2="1127.5" y1="292.4883" y2="292.4883"/><text fill="#000000" font-family="sans-serif" font-size="14.3" font-weight="bold" lengthAdjust="spacing" textLength="7.7" x="889.9" y="287.2579">6</text><text fill="#000000" font-family="sans-serif" font-size="14.3" lengthAdjust="spacing" textLength="103.4" x="902" y="287.2579">usersRepository</text><polygon fill="#181818" points="492.8,319.4641,481.8,323.8641,492.8,328.2641,488.4,323.8641" style="stroke:#181818;stroke-width:1.1;"/><line style="stroke:#181818;stroke-width:1.1;stroke-dasharray:2.0,2.0;" x1="486.2" x2="864.6" y1="323.8641" y2="323.8641"/><text fill="#000000" font-family="sans-serif" font-size="14.3" font-weight="bold" lengthAdjust="spacing" textLength="7.7" x="499.4" y="318.6337">7</text><text fill="#000000" font-family="sans-serif" font-size="14.3" lengthAdjust="spacing" textLength="103.4" x="511.5" y="318.6337">usersRepository</text><polygon fill="#181818" points="86.9,366.8156,75.9,371.2156,86.9,375.6156,82.5,371.2156" style="stroke:#181818;stroke-width:1.1;"/><line style="stroke:#181818;stroke-width:1.1;stroke-dasharray:2.0,2.0;" x1="80.3" x2="474.1" y1="371.2156" y2="371.2156"/><text fill="#000000" font-family="sans-serif" font-size="14.3" font-weight="bold" lengthAdjust="spacing" textLength="7.7" x="93.5" y="357.9974">8</text><text fill="#000000" font-family="sans-serif" font-size="14.3" lengthAdjust="spacing" textLength="356.4" x="105.6" y="350.0095">requests data (name, passportCardNumber, taxNumber,</text><text fill="#000000" font-family="sans-serif" font-size="14.3" lengthAdjust="spacing" textLength="316.8" x="110" y="365.9853">emailAddress, address, phoneNumber, password)</text><polygon fill="#181818" points="456.5,398.1914,467.5,402.5914,456.5,406.9914,460.9,402.5914" style="stroke:#181818;stroke-width:1.1;"/><line style="stroke:#181818;stroke-width:1.1;" x1="74.8" x2="463.1" y1="402.5914" y2="402.5914"/><text fill="#000000" font-family="sans-serif" font-size="14.3" font-weight="bold" lengthAdjust="spacing" textLength="7.7" x="82.5" y="397.361">9</text><text fill="#000000" font-family="sans-serif" font-size="14.3" lengthAdjust="spacing" textLength="74.8" x="94.6" y="397.361">inserts data</text><line style="stroke:#181818;stroke-width:1.1;" x1="480.7" x2="526.9" y1="449.943" y2="449.943"/><line style="stroke:#181818;stroke-width:1.1;" x1="526.9" x2="526.9" y1="449.943" y2="464.243"/><line style="stroke:#181818;stroke-width:1.1;" x1="481.8" x2="526.9" y1="464.243" y2="464.243"/><polygon fill="#181818" points="492.8,459.843,481.8,464.243,492.8,468.643,488.4,464.243" style="stroke:#181818;stroke-width:1.1;"/><text fill="#000000" font-family="sans-serif" font-size="14.3" font-weight="bold" lengthAdjust="spacing" textLength="15.4" x="488.4" y="436.7247">10</text><text fill="#000000" font-family="sans-serif" font-size="14.3" lengthAdjust="spacing" textLength="254.1" x="508.2" y="428.7368">keep data (name, passportCardNumber,</text><text fill="#000000" font-family="sans-serif" font-size="14.3" lengthAdjust="spacing" textLength="335.5" x="508.2" y="444.7126">taxNumber, emailAddress, phoneNumber, password)</text><polygon fill="#181818" points="86.9,491.2188,75.9,495.6188,86.9,500.0188,82.5,495.6188" style="stroke:#181818;stroke-width:1.1;"/><line style="stroke:#181818;stroke-width:1.1;stroke-dasharray:2.0,2.0;" x1="80.3" x2="474.1" y1="495.6188" y2="495.6188"/><text fill="#000000" font-family="sans-serif" font-size="14.3" font-weight="bold" lengthAdjust="spacing" textLength="15.4" x="93.5" y="490.3884">11</text><text fill="#000000" font-family="sans-serif" font-size="14.3" lengthAdjust="spacing" textLength="163.9" x="113.3" y="490.3884">asks for data confirmation</text><polygon fill="#181818" points="456.5,522.5945,467.5,526.9945,456.5,531.3945,460.9,526.9945" style="stroke:#181818;stroke-width:1.1;"/><line style="stroke:#181818;stroke-width:1.1;" x1="74.8" x2="463.1" y1="526.9945" y2="526.9945"/><text fill="#000000" font-family="sans-serif" font-size="14.3" font-weight="bold" lengthAdjust="spacing" textLength="15.4" x="82.5" y="521.7642">12</text><text fill="#000000" font-family="sans-serif" font-size="14.3" lengthAdjust="spacing" textLength="85.8" x="102.3" y="521.7642">confirms data</text><polygon fill="#181818" points="847,569.9461,858,574.3461,847,578.7461,851.4,574.3461" style="stroke:#181818;stroke-width:1.1;"/><line style="stroke:#181818;stroke-width:1.1;" x1="480.7" x2="853.6" y1="574.3461" y2="574.3461"/><text fill="#000000" font-family="sans-serif" font-size="14.3" font-weight="bold" lengthAdjust="spacing" textLength="15.4" x="488.4" y="561.1278">13</text><text fill="#000000" font-family="sans-serif" font-size="14.3" lengthAdjust="spacing" textLength="334.4" x="508.2" y="553.1399">createUser(name, passportCardNumber, taxNumber,</text><text fill="#000000" font-family="sans-serif" font-size="14.3" lengthAdjust="spacing" textLength="257.4" x="508.2" y="569.1157">emailAddress, phoneNumber, password)</text><polygon fill="#181818" points="1296.9,617.2977,1307.9,621.6977,1296.9,626.0977,1301.3,621.6977" style="stroke:#181818;stroke-width:1.1;"/><line style="stroke:#181818;stroke-width:1.1;" x1="865.7" x2="1303.5" y1="621.6977" y2="621.6977"/><text fill="#000000" font-family="sans-serif" font-size="14.3" font-weight="bold" lengthAdjust="spacing" textLength="15.4" x="873.4" y="608.4794">14</text><text fill="#000000" font-family="sans-serif" font-size="14.3" lengthAdjust="spacing" textLength="393.8" x="893.2" y="600.4915">createUser(name, passportCardNumber, taxNumber, address,</text><text fill="#000000" font-family="sans-serif" font-size="14.3" lengthAdjust="spacing" textLength="257.4" x="893.2" y="616.4673">emailAddress, phoneNumber, password)</text><line style="stroke:#181818;stroke-width:1.1;" x1="1321.1" x2="1367.3" y1="653.0734" y2="653.0734"/><line style="stroke:#181818;stroke-width:1.1;" x1="1367.3" x2="1367.3" y1="653.0734" y2="667.3734"/><line style="stroke:#181818;stroke-width:1.1;" x1="1322.2" x2="1367.3" y1="667.3734" y2="667.3734"/><polygon fill="#181818" points="1333.2,662.9734,1322.2,667.3734,1333.2,671.7734,1328.8,667.3734" style="stroke:#181818;stroke-width:1.1;"/><text fill="#000000" font-family="sans-serif" font-size="14.3" font-weight="bold" lengthAdjust="spacing" textLength="15.4" x="1328.8" y="647.8431">15</text><text fill="#000000" font-family="sans-serif" font-size="14.3" lengthAdjust="spacing" textLength="171.6" x="1348.6" y="647.8431">checksIfUserAlreadyExists</text><path d="M1241.35,683.8734 L1312.85,683.8734 L1312.85,691.0492 L1301.85,702.0492 L1241.35,702.0492 L1241.35,683.8734 " fill="#EEEEEE" style="stroke:#000000;stroke-width:1.6500000000000001;"/><rect fill="none" height="111.2031" style="stroke:#000000;stroke-width:1.6500000000000001;" width="673.2" x="1241.35" y="683.8734"/><text fill="#000000" font-family="sans-serif" font-size="14.3" font-weight="bold" lengthAdjust="spacing" textLength="22" x="1257.85" y="697.9188">opt</text><text fill="#000000" font-family="sans-serif" font-size="12.1" font-weight="bold" lengthAdjust="spacing" textLength="94.6" x="1329.35" y="697.0272">[return is false]</text><polygon fill="#181818" points="1752.3,736.2008,1763.3,740.6008,1752.3,745.0008,1756.7,740.6008" style="stroke:#181818;stroke-width:1.1;"/><line style="stroke:#181818;stroke-width:1.1;" x1="1321.1" x2="1758.9" y1="740.6008" y2="740.6008"/><text fill="#000000" font-family="sans-serif" font-size="14.3" font-weight="bold" lengthAdjust="spacing" textLength="15.4" x="1328.8" y="727.3825">16</text><text fill="#000000" font-family="sans-serif" font-size="14.3" lengthAdjust="spacing" textLength="393.8" x="1348.6" y="719.3946">createUser(name, passportCardNumber, taxNumber, address,</text><text fill="#000000" font-family="sans-serif" font-size="14.3" lengthAdjust="spacing" textLength="257.4" x="1348.6" y="735.3704">emailAddress, phoneNumber, password)</text><rect fill="#E3E3E3" height="32.6047" rx="2.75" ry="2.75" style="stroke:#181818;stroke-width:0.55;" width="51.7" x="1765.5" y="704.6961"/><text fill="#000000" font-family="sans-serif" font-size="15.4" lengthAdjust="spacing" textLength="36.3" x="1773.2" y="726.3373">:User</text><line style="stroke:#181818;stroke-width:1.1;stroke-dasharray:2.0,2.0;" x1="1796.85" x2="1843.05" y1="771.9766" y2="771.9766"/><line style="stroke:#181818;stroke-width:1.1;stroke-dasharray:2.0,2.0;" x1="1843.05" x2="1843.05" y1="771.9766" y2="786.2766"/><line style="stroke:#181818;stroke-width:1.1;stroke-dasharray:2.0,2.0;" x1="1797.95" x2="1843.05" y1="786.2766" y2="786.2766"/><polygon fill="#181818" points="1808.95,781.8766,1797.95,786.2766,1808.95,790.6766,1804.55,786.2766" style="stroke:#181818;stroke-width:1.1;"/><text fill="#000000" font-family="sans-serif" font-size="14.3" font-weight="bold" lengthAdjust="spacing" textLength="15.4" x="1804.55" y="766.7462">17</text><text fill="#000000" font-family="sans-serif" font-size="14.3" lengthAdjust="spacing" textLength="77" x="1824.35" y="766.7462">createdUser</text><line style="stroke:#181818;stroke-width:1.1;" x1="1321.1" x2="1367.3" y1="825.3523" y2="825.3523"/><line style="stroke:#181818;stroke-width:1.1;" x1="1367.3" x2="1367.3" y1="825.3523" y2="839.6523"/><line style="stroke:#181818;stroke-width:1.1;" x1="1322.2" x2="1367.3" y1="839.6523" y2="839.6523"/><polygon fill="#181818" points="1333.2,835.2523,1322.2,839.6523,1333.2,844.0523,1328.8,839.6523" style="stroke:#181818;stroke-width:1.1;"/><text fill="#000000" font-family="sans-serif" font-size="14.3" font-weight="bold" lengthAdjust="spacing" textLength="15.4" x="1328.8" y="820.122">18</text><text fill="#000000" font-family="sans-serif" font-size="14.3" lengthAdjust="spacing" textLength="85.8" x="1348.6" y="820.122">validateUser()</text><polygon fill="#181818" points="883.3,866.6281,872.3,871.0281,883.3,875.4281,878.9,871.0281" style="stroke:#181818;stroke-width:1.1;"/><line style="stroke:#181818;stroke-width:1.1;stroke-dasharray:2.0,2.0;" x1="876.7" x2="1314.5" y1="871.0281" y2="871.0281"/><text fill="#000000" font-family="sans-serif" font-size="14.3" font-weight="bold" lengthAdjust="spacing" textLength="15.4" x="889.9" y="865.7978">19</text><text fill="#000000" font-family="sans-serif" font-size="14.3" lengthAdjust="spacing" textLength="77" x="909.7" y="865.7978">createdUser</text><polygon fill="#181818" points="492.8,898.0039,481.8,902.4039,492.8,906.8039,488.4,902.4039" style="stroke:#181818;stroke-width:1.1;"/><line style="stroke:#181818;stroke-width:1.1;stroke-dasharray:2.0,2.0;" x1="486.2" x2="864.6" y1="902.4039" y2="902.4039"/><text fill="#000000" font-family="sans-serif" font-size="14.3" font-weight="bold" lengthAdjust="spacing" textLength="15.4" x="499.4" y="897.1735">20</text><text fill="#000000" font-family="sans-serif" font-size="14.3" lengthAdjust="spacing" textLength="77" x="519.2" y="897.1735">createdUser</text><polygon fill="#181818" points="81.4,929.3797,70.4,933.7797,81.4,938.1797,77,933.7797" style="stroke:#181818;stroke-width:1.1;"/><line style="stroke:#181818;stroke-width:1.1;stroke-dasharray:2.0,2.0;" x1="74.8" x2="474.1" y1="933.7797" y2="933.7797"/><text fill="#000000" font-family="sans-serif" font-size="14.3" font-weight="bold" lengthAdjust="spacing" textLength="15.4" x="88" y="928.5493">21</text><text fill="#000000" font-family="sans-serif" font-size="14.3" lengthAdjust="spacing" textLength="284.9" x="107.8" y="928.5493">shows confirmation of successful registration</text><!--SRC=[jLLDRzim3BthLn2vh2sIFv33W2BOmS2mWpVTSb4bEXPYIvueDyc_d-HlksuR55XEiVN8z_X4qdJMfX9Eb51QOsNkR8dWNOsCXfDAoBCuuMz_An0SIY_CgPW2A1VANhGvGIOAGiP4xQsfonTqZ7tBjKB8hFKlzig4zDR1XXk79qqU7IfEw3OW23Xd8P_NKbV2UDZi3mw5ntZEanQHl8iuMEETBOekr-5F-dE1JR6of0EzHcemwHpW9kVxendWjnQyGEyZwGB3rp3DIKtHYb2yVWrwOwKCkX_diFiUAeDz09u9l8NU6z06V8v0j_1KZY5ZdcII9ubvOjrFJo6NR9nXAq6DDSFh-1G3qn1pGfyO2jShyU5n9J8TtwMmwzX2tDIv0Q5mBMwWw_ZcBWRMjwHJrXbjD9N6OBPA_OQxDtiPlH8yTwetEIRWJTL_QoHFe8GNy614YTimAqILTVuWdFhLJC0MlBXsVuy6i1IwU5RA8T4MHF-dogt1FY0ckLYdkZkOA0eNlkWPRK8TdGYssXnjOpJWCsBrgToZ6GKlv7waScfDqyXP6FI6IrgJQLSAhwtvlA0EtLNqKKbT6yXX1znr1w6- -ujQQOM-Wtdw1UxXlkyKiTQGSqVIrf1qb9IZF5EIHL7FHT2dRZ-kOPrGAzzMFdIkhvq1JVs-7bF4gO390lc_fGrbDFinlcduTxsGNaNpZMXbeb5BLuPWdlOcl8f2grx-ur3VicdQlCkMJ3- - -g5Hbz9MDyTi3Qwj4ShjXMOp0ZO3ggKCxcLrqNqDt3W-xpN5VApOz96pVm00]--></g></svg>