<?xml version="1.0" encoding="us-ascii" standalone="no"?><svg xmlns="http://www.w3.org/2000/svg" xmlns:xlink="http://www.w3.org/1999/xlink" contentStyleType="text/css" height="559px" preserveAspectRatio="none" style="width:967px;height:559px;background:#FFFFFF;" version="1.1" viewBox="0 0 967 559" width="967px" zoomAndPan="magnify"><defs/><g><rect fill="#FFFFFF" height="418.5156" style="stroke:#181818;stroke-width:1.0;" width="10" x="387" y="81.8047"/><rect fill="#FFFFFF" height="30" style="stroke:#181818;stroke-width:1.0;" width="10" x="705" y="369.2266"/><rect fill="#FFFFFF" height="30" style="stroke:#181818;stroke-width:1.0;" width="10" x="843.5" y="213.6563"/><rect fill="none" height="161.8516" style="stroke:#000000;stroke-width:1.5;" width="646.5" x="289.5" y="96.8047"/><rect fill="none" height="75.0469" style="stroke:#000000;stroke-width:1.5;" width="626.5" x="299.5" y="176.6094"/><line style="stroke:#181818;stroke-width:0.5;stroke-dasharray:5.0,5.0;" x1="391.5" x2="391.5" y1="51.2813" y2="509.3203"/><line style="stroke:#181818;stroke-width:0.5;stroke-dasharray:5.0,5.0;" x1="710" x2="710" y1="151.4688" y2="509.3203"/><line style="stroke:#181818;stroke-width:0.5;stroke-dasharray:5.0,5.0;" x1="848" x2="848" y1="51.2813" y2="509.3203"/><rect fill="#E2E2F0" height="45.2813" rx="2.5" ry="2.5" style="stroke:#181818;stroke-width:0.5;" width="165" x="309.5" y="5"/><text fill="#000000" font-family="sans-serif" font-size="14" lengthAdjust="spacing" textLength="142" x="321" y="24.6738">vistRequestRepository</text><text fill="#000000" font-family="sans-serif" font-size="14" lengthAdjust="spacing" textLength="151" x="316.5" y="40.3145">:VisitRequestRepository</text><rect fill="#E2E2F0" height="45.2813" rx="2.5" ry="2.5" style="stroke:#181818;stroke-width:0.5;" width="165" x="309.5" y="508.3203"/><text fill="#000000" font-family="sans-serif" font-size="14" lengthAdjust="spacing" textLength="142" x="321" y="527.9941">vistRequestRepository</text><text fill="#000000" font-family="sans-serif" font-size="14" lengthAdjust="spacing" textLength="151" x="316.5" y="543.6348">:VisitRequestRepository</text><rect fill="#E2E2F0" height="45.2813" rx="2.5" ry="2.5" style="stroke:#181818;stroke-width:0.5;" width="122" x="649" y="508.3203"/><text fill="#000000" font-family="sans-serif" font-size="14" lengthAdjust="spacing" textLength="58" x="681" y="527.9941">algorithm</text><text fill="#000000" font-family="sans-serif" font-size="14" lengthAdjust="spacing" textLength="108" x="656" y="543.6348">:SortingAlgorithm</text><rect fill="#E2E2F0" height="45.2813" rx="2.5" ry="2.5" style="stroke:#181818;stroke-width:0.5;" width="135" x="781" y="5"/><text fill="#000000" font-family="sans-serif" font-size="14" lengthAdjust="spacing" textLength="99" x="799" y="24.6738">visitRequestList</text><text fill="#000000" font-family="sans-serif" font-size="14" lengthAdjust="spacing" textLength="121" x="788" y="40.3145">:List&lt;VisitRequest&gt;</text><rect fill="#E2E2F0" height="45.2813" rx="2.5" ry="2.5" style="stroke:#181818;stroke-width:0.5;" width="135" x="781" y="508.3203"/><text fill="#000000" font-family="sans-serif" font-size="14" lengthAdjust="spacing" textLength="99" x="799" y="527.9941">visitRequestList</text><text fill="#000000" font-family="sans-serif" font-size="14" lengthAdjust="spacing" textLength="121" x="788" y="543.6348">:List&lt;VisitRequest&gt;</text><rect fill="#FFFFFF" height="418.5156" style="stroke:#181818;stroke-width:1.0;" width="10" x="387" y="81.8047"/><rect fill="#FFFFFF" height="30" style="stroke:#181818;stroke-width:1.0;" width="10" x="705" y="369.2266"/><rect fill="#FFFFFF" height="30" style="stroke:#181818;stroke-width:1.0;" width="10" x="843.5" y="213.6563"/><polygon fill="#181818" points="375,77.8047,385,81.8047,375,85.8047,379,81.8047" style="stroke:#181818;stroke-width:1.0;"/><line style="stroke:#181818;stroke-width:1.0;" x1="0" x2="381" y1="81.8047" y2="81.8047"/><text fill="#000000" font-family="sans-serif" font-size="13" font-weight="bold" lengthAdjust="spacing" textLength="7" x="7" y="77.0498">1</text><text fill="#000000" font-family="sans-serif" font-size="13" lengthAdjust="spacing" textLength="357" x="18" y="77.0498">getListVisitRequest(userEmail, startDate, endDate, algorithm)</text><path d="M289.5,96.8047 L362.5,96.8047 L362.5,103.3281 L352.5,113.3281 L289.5,113.3281 L289.5,96.8047 " fill="#EEEEEE" style="stroke:#000000;stroke-width:1.5;"/><rect fill="none" height="161.8516" style="stroke:#000000;stroke-width:1.5;" width="646.5" x="289.5" y="96.8047"/><text fill="#000000" font-family="sans-serif" font-size="13" font-weight="bold" lengthAdjust="spacing" textLength="28" x="304.5" y="109.5732">loop</text><text fill="#000000" font-family="sans-serif" font-size="11" font-weight="bold" lengthAdjust="spacing" textLength="133" x="377.5" y="108.7627">[(for each visitRequest)]</text><polygon fill="#181818" points="637,129.8516,647,133.8516,637,137.8516,641,133.8516" style="stroke:#181818;stroke-width:1.0;"/><line style="stroke:#181818;stroke-width:1.0;" x1="397" x2="643" y1="133.8516" y2="133.8516"/><text fill="#000000" font-family="sans-serif" font-size="13" font-weight="bold" lengthAdjust="spacing" textLength="7" x="404" y="129.0967">2</text><text fill="#000000" font-family="sans-serif" font-size="13" lengthAdjust="spacing" textLength="51" x="415" y="129.0967">creates()</text><rect fill="#E2E2F0" height="45.2813" rx="2.5" ry="2.5" style="stroke:#181818;stroke-width:0.5;" width="122" x="649" y="113.3281"/><text fill="#000000" font-family="sans-serif" font-size="14" lengthAdjust="spacing" textLength="58" x="681" y="133.002">algorithm</text><text fill="#000000" font-family="sans-serif" font-size="14" lengthAdjust="spacing" textLength="108" x="656" y="148.6426">:SortingAlgorithm</text><path d="M299.5,176.6094 L360.5,176.6094 L360.5,183.1328 L350.5,193.1328 L299.5,193.1328 L299.5,176.6094 " fill="#EEEEEE" style="stroke:#000000;stroke-width:1.5;"/><rect fill="none" height="75.0469" style="stroke:#000000;stroke-width:1.5;" width="626.5" x="299.5" y="176.6094"/><text fill="#000000" font-family="sans-serif" font-size="13" font-weight="bold" lengthAdjust="spacing" textLength="16" x="314.5" y="189.3779">alt</text><text fill="#000000" font-family="sans-serif" font-size="11" font-weight="bold" lengthAdjust="spacing" textLength="239" x="375.5" y="188.5674">[(visitRequest.getAgentEmail()==userEmail]</text><polygon fill="#181818" points="831.5,209.6563,841.5,213.6563,831.5,217.6563,835.5,213.6563" style="stroke:#181818;stroke-width:1.0;"/><line style="stroke:#181818;stroke-width:1.0;stroke-dasharray:2.0,2.0;" x1="397" x2="837.5" y1="213.6563" y2="213.6563"/><text fill="#000000" font-family="sans-serif" font-size="13" font-weight="bold" lengthAdjust="spacing" textLength="7" x="404" y="208.9014">3</text><text fill="#000000" font-family="sans-serif" font-size="13" lengthAdjust="spacing" textLength="99" x="415" y="208.9014">add(visitRequest)</text><line style="stroke:#181818;stroke-width:1.0;" x1="397" x2="439" y1="286.1797" y2="286.1797"/><line style="stroke:#181818;stroke-width:1.0;" x1="439" x2="439" y1="286.1797" y2="299.1797"/><line style="stroke:#181818;stroke-width:1.0;" x1="398" x2="439" y1="299.1797" y2="299.1797"/><polygon fill="#181818" points="408,295.1797,398,299.1797,408,303.1797,404,299.1797" style="stroke:#181818;stroke-width:1.0;"/><text fill="#000000" font-family="sans-serif" font-size="13" font-weight="bold" lengthAdjust="spacing" textLength="7" x="404" y="281.4248">4</text><text fill="#000000" font-family="sans-serif" font-size="13" lengthAdjust="spacing" textLength="259" x="415" y="281.4248">sortList(visitRequestList, startDate, endDate)</text><line style="stroke:#181818;stroke-width:1.0;" x1="397" x2="439" y1="327.7031" y2="327.7031"/><line style="stroke:#181818;stroke-width:1.0;" x1="439" x2="439" y1="327.7031" y2="340.7031"/><line style="stroke:#181818;stroke-width:1.0;" x1="398" x2="439" y1="340.7031" y2="340.7031"/><polygon fill="#181818" points="408,336.7031,398,340.7031,408,344.7031,404,340.7031" style="stroke:#181818;stroke-width:1.0;"/><text fill="#000000" font-family="sans-serif" font-size="13" font-weight="bold" lengthAdjust="spacing" textLength="7" x="404" y="322.9482">5</text><text fill="#000000" font-family="sans-serif" font-size="13" lengthAdjust="spacing" textLength="283" x="415" y="322.9482">filterByDate(visitRequestList, startDate, endDate)</text><polygon fill="#181818" points="693,365.2266,703,369.2266,693,373.2266,697,369.2266" style="stroke:#181818;stroke-width:1.0;"/><line style="stroke:#181818;stroke-width:1.0;" x1="397" x2="699" y1="369.2266" y2="369.2266"/><text fill="#000000" font-family="sans-serif" font-size="13" font-weight="bold" lengthAdjust="spacing" textLength="7" x="404" y="364.4717">6</text><text fill="#000000" font-family="sans-serif" font-size="13" lengthAdjust="spacing" textLength="139" x="415" y="364.4717">sort(startDate, endDate)</text><path d="M736,412.2266 L736,465.2266 L960,465.2266 L960,422.2266 L950,412.2266 L736,412.2266 " fill="#FEFFDD" style="stroke:#181818;stroke-width:0.5;"/><path d="M950,412.2266 L950,422.2266 L960,422.2266 L950,412.2266 " fill="#FEFFDD" style="stroke:#181818;stroke-width:0.5;"/><text fill="#000000" font-family="sans-serif" font-size="13" lengthAdjust="spacing" textLength="149" x="742" y="428.9951">SortingAlgorithm instance</text><text fill="#000000" font-family="sans-serif" font-size="13" lengthAdjust="spacing" textLength="121" x="742" y="443.5186">is used based on the</text><text fill="#000000" font-family="sans-serif" font-size="13" lengthAdjust="spacing" textLength="203" x="742" y="458.042">information written on the config file</text><polygon fill="#181818" points="11,487.3203,1,491.3203,11,495.3203,7,491.3203" style="stroke:#181818;stroke-width:1.0;"/><line style="stroke:#181818;stroke-width:1.0;stroke-dasharray:2.0,2.0;" x1="5" x2="386" y1="491.3203" y2="491.3203"/><text fill="#000000" font-family="sans-serif" font-size="13" font-weight="bold" lengthAdjust="spacing" textLength="7" x="17" y="486.5654">7</text><text fill="#000000" font-family="sans-serif" font-size="13" lengthAdjust="spacing" textLength="91" x="28" y="486.5654">visitRequestList</text><!--SRC=[bL8xRy8m4DxzAquiDHM1FG8aggAg4b9Rg3frCScHM4hirBvGyUzx3Y64nzB5TixttVU87tAYoiUJILKeGtLPZ1DRJZp-r6WIZ5AjCgTA8LHDrjJb5fqGbNAa4rqn00PxxMaTsiDMMQ_9kiEtYRyq7syk1g0yh9VhvVlRvHXLPDPfoak6RYnVc6nnAZMWnUhbXhWZMB481ePjsYUUjtmVgzVDfn3HlEM6ECC6r6-MjKUtB9KkHk29gPuLuGZGfCT39t4eE8-4z9xB9pE5jHN8dNM0AicXBuxRMrRcPnkFZn13uf3HNlAbAWXa7p1cSOiC3JLYv70swvITHpLU6byyJQMflAJiwJkQJ_6c9DXQkvm5dW82ptyXH2IlWxwNpl3kY9qk2DtJ8NJyVmn7rSgGzpexE-5b6Ci7kqVNcRj-HA0DJ-4tBRG7pZE5hGghDK0v5mt_krAHvkzV1X2QzWeIQtOw2sOmX0M1I_Jp30B4D8hEng-z_W40]--></g></svg>