<?xml version="1.0" encoding="us-ascii" standalone="no"?><svg xmlns="http://www.w3.org/2000/svg" xmlns:xlink="http://www.w3.org/1999/xlink" contentStyleType="text/css" height="391px" preserveAspectRatio="none" style="width:765px;height:391px;background:#FFFFFF;" version="1.1" viewBox="0 0 765 391" width="765px" zoomAndPan="magnify"><defs/><g><rect fill="#FFFFFF" height="250.6563" style="stroke:#181818;stroke-width:1.0;" width="10" x="190" y="81.8047"/><rect fill="#FFFFFF" height="46.2813" style="stroke:#181818;stroke-width:1.0;" width="10" x="525" y="241.6563"/><rect fill="none" height="142.8516" style="stroke:#000000;stroke-width:1.5;" width="647" x="112.5" y="153.0859"/><line style="stroke:#181818;stroke-width:0.5;stroke-dasharray:5.0,5.0;" x1="194.5" x2="194.5" y1="51.2813" y2="341.4609"/><line style="stroke:#181818;stroke-width:0.5;stroke-dasharray:5.0,5.0;" x1="529.5" x2="529.5" y1="127.9453" y2="341.4609"/><line style="stroke:#181818;stroke-width:0.5;stroke-dasharray:5.0,5.0;" x1="685.5" x2="685.5" y1="249.2734" y2="341.4609"/><rect fill="#E2E2F0" height="45.2813" rx="2.5" ry="2.5" style="stroke:#181818;stroke-width:0.5;" width="145" x="122.5" y="5"/><text fill="#000000" font-family="sans-serif" font-size="14" lengthAdjust="spacing" textLength="125" x="132.5" y="24.6738">visitRequestMapper</text><text fill="#000000" font-family="sans-serif" font-size="14" lengthAdjust="spacing" textLength="131" x="129.5" y="40.3145">:VisitRequestMapper</text><rect fill="#E2E2F0" height="45.2813" rx="2.5" ry="2.5" style="stroke:#181818;stroke-width:0.5;" width="145" x="122.5" y="340.4609"/><text fill="#000000" font-family="sans-serif" font-size="14" lengthAdjust="spacing" textLength="125" x="132.5" y="360.1348">visitRequestMapper</text><text fill="#000000" font-family="sans-serif" font-size="14" lengthAdjust="spacing" textLength="131" x="129.5" y="375.7754">:VisitRequestMapper</text><rect fill="#E2E2F0" height="45.2813" rx="2.5" ry="2.5" style="stroke:#181818;stroke-width:0.5;" width="165" x="447.5" y="340.4609"/><text fill="#000000" font-family="sans-serif" font-size="14" lengthAdjust="spacing" textLength="129" x="465.5" y="360.1348">visitRequestDTOList</text><text fill="#000000" font-family="sans-serif" font-size="14" lengthAdjust="spacing" textLength="151" x="454.5" y="375.7754">:List&lt;VisitRequestDTO&gt;</text><rect fill="#E2E2F0" height="45.2813" rx="2.5" ry="2.5" style="stroke:#181818;stroke-width:0.5;" width="127" x="622.5" y="340.4609"/><text fill="#000000" font-family="sans-serif" font-size="14" lengthAdjust="spacing" textLength="104" x="634" y="360.1348">vistRequestDTO</text><text fill="#000000" font-family="sans-serif" font-size="14" lengthAdjust="spacing" textLength="113" x="629.5" y="375.7754">:VisitRequestDTO</text><rect fill="#FFFFFF" height="250.6563" style="stroke:#181818;stroke-width:1.0;" width="10" x="190" y="81.8047"/><rect fill="#FFFFFF" height="46.2813" style="stroke:#181818;stroke-width:1.0;" width="10" x="525" y="241.6563"/><polygon fill="#181818" points="178,77.8047,188,81.8047,178,85.8047,182,81.8047" style="stroke:#181818;stroke-width:1.0;"/><line style="stroke:#181818;stroke-width:1.0;" x1="0" x2="184" y1="81.8047" y2="81.8047"/><text fill="#000000" font-family="sans-serif" font-size="13" font-weight="bold" lengthAdjust="spacing" textLength="7" x="7" y="77.0498">1</text><text fill="#000000" font-family="sans-serif" font-size="13" lengthAdjust="spacing" textLength="160" x="18" y="77.0498">ListToDTO(visitRequestList)</text><polygon fill="#181818" points="435.5,106.3281,445.5,110.3281,435.5,114.3281,439.5,110.3281" style="stroke:#181818;stroke-width:1.0;"/><line style="stroke:#181818;stroke-width:1.0;" x1="200" x2="441.5" y1="110.3281" y2="110.3281"/><text fill="#000000" font-family="sans-serif" font-size="13" font-weight="bold" lengthAdjust="spacing" textLength="7" x="207" y="105.5732">2</text><text fill="#000000" font-family="sans-serif" font-size="13" lengthAdjust="spacing" textLength="4" x="218" y="105.5732">&#160;</text><rect fill="#E2E2F0" height="45.2813" rx="2.5" ry="2.5" style="stroke:#181818;stroke-width:0.5;" width="165" x="447.5" y="89.8047"/><text fill="#000000" font-family="sans-serif" font-size="14" lengthAdjust="spacing" textLength="129" x="465.5" y="109.4785">visitRequestDTOList</text><text fill="#000000" font-family="sans-serif" font-size="14" lengthAdjust="spacing" textLength="151" x="454.5" y="125.1191">:List&lt;VisitRequestDTO&gt;</text><path d="M112.5,153.0859 L185.5,153.0859 L185.5,159.6094 L175.5,169.6094 L112.5,169.6094 L112.5,153.0859 " fill="#EEEEEE" style="stroke:#000000;stroke-width:1.5;"/><rect fill="none" height="142.8516" style="stroke:#000000;stroke-width:1.5;" width="647" x="112.5" y="153.0859"/><text fill="#000000" font-family="sans-serif" font-size="13" font-weight="bold" lengthAdjust="spacing" textLength="28" x="127.5" y="165.8545">loop</text><text fill="#000000" font-family="sans-serif" font-size="11" font-weight="bold" lengthAdjust="spacing" textLength="235" x="200.5" y="165.0439">[for each visitRequest in visitRequestList]]</text><line style="stroke:#181818;stroke-width:1.0;" x1="200" x2="242" y1="190.1328" y2="190.1328"/><line style="stroke:#181818;stroke-width:1.0;" x1="242" x2="242" y1="190.1328" y2="203.1328"/><line style="stroke:#181818;stroke-width:1.0;" x1="201" x2="242" y1="203.1328" y2="203.1328"/><polygon fill="#181818" points="211,199.1328,201,203.1328,211,207.1328,207,203.1328" style="stroke:#181818;stroke-width:1.0;"/><text fill="#000000" font-family="sans-serif" font-size="13" font-weight="bold" lengthAdjust="spacing" textLength="7" x="207" y="185.3779">3</text><text fill="#000000" font-family="sans-serif" font-size="13" lengthAdjust="spacing" textLength="300" x="218" y="185.3779">visitRequestDTO= visitRequestToDTO((visitRequest)</text><polygon fill="#181818" points="610.5,227.6563,620.5,231.6563,610.5,235.6563,614.5,231.6563" style="stroke:#181818;stroke-width:1.0;"/><line style="stroke:#181818;stroke-width:1.0;" x1="200" x2="616.5" y1="231.6563" y2="231.6563"/><text fill="#000000" font-family="sans-serif" font-size="13" font-weight="bold" lengthAdjust="spacing" textLength="7" x="207" y="226.9014">4</text><text fill="#000000" font-family="sans-serif" font-size="13" lengthAdjust="spacing" textLength="4" x="218" y="226.9014">&#160;</text><rect fill="#E2E2F0" height="45.2813" rx="2.5" ry="2.5" style="stroke:#181818;stroke-width:0.5;" width="127" x="622.5" y="211.1328"/><text fill="#000000" font-family="sans-serif" font-size="14" lengthAdjust="spacing" textLength="104" x="634" y="230.8066">vistRequestDTO</text><text fill="#000000" font-family="sans-serif" font-size="14" lengthAdjust="spacing" textLength="113" x="629.5" y="246.4473">:VisitRequestDTO</text><polygon fill="#181818" points="518,283.9375,528,287.9375,518,291.9375,522,287.9375" style="stroke:#181818;stroke-width:1.0;"/><line style="stroke:#181818;stroke-width:1.0;" x1="200" x2="524" y1="287.9375" y2="287.9375"/><text fill="#000000" font-family="sans-serif" font-size="13" font-weight="bold" lengthAdjust="spacing" textLength="7" x="207" y="283.1826">5</text><text fill="#000000" font-family="sans-serif" font-size="13" lengthAdjust="spacing" textLength="133" x="218" y="283.1826">add(annoucementDTO)</text><polygon fill="#181818" points="11,319.4609,1,323.4609,11,327.4609,7,323.4609" style="stroke:#181818;stroke-width:1.0;"/><line style="stroke:#181818;stroke-width:1.0;stroke-dasharray:2.0,2.0;" x1="5" x2="189" y1="323.4609" y2="323.4609"/><text fill="#000000" font-family="sans-serif" font-size="13" font-weight="bold" lengthAdjust="spacing" textLength="7" x="17" y="318.7061">6</text><text fill="#000000" font-family="sans-serif" font-size="13" lengthAdjust="spacing" textLength="117" x="28" y="318.7061">visitRequestDTOList</text><!--SRC=[TP7DJiCm48Jl-nIhNcWgXTojKWcf792eg4hK4nmMUw6M4jlOJf-V698eFt2oD9wP_RHxSudH1L4KhY8JcxgwbROk0dyrR2JdIjEdfng0ccXDKx-p1t3aevRQjG5SNNNGyPJy8Hx8EVQlHfmNuWefuE7-U7mu_P_VbyzFEiIs83tRy_HhzzEHF8ylvQ9aP9m1j4gV1CXt7GKAJ4DAsyhhCKHICo0PzPKYzypGfTfyHx3P05JMElom7fda1SSjg0tEMz_6BGF5R05t4-4NRyANpLWInq3RRsTmT890KcfDnjX6SiqcJSf0yI88R1G0RlEy9qJnnudW6m00]--></g></svg>