<?xml version="1.0" encoding="us-ascii" standalone="no"?><svg xmlns="http://www.w3.org/2000/svg" xmlns:xlink="http://www.w3.org/1999/xlink" contentStyleType="text/css" height="1053px" preserveAspectRatio="none" style="width:823px;height:1053px;background:#FFFFFF;" version="1.1" viewBox="0 0 823 1053" width="823px" zoomAndPan="magnify"><defs/><g><!--class Property--><g id="elem_Property"><rect codeLine="11" fill="#F1F1F1" height="113.9531" id="Property" rx="2.5" ry="2.5" style="stroke:#181818;stroke-width:0.5;" width="168" x="439.5" y="742"/><ellipse cx="490.25" cy="758" fill="#ADD1B2" rx="11" ry="11" style="stroke:#181818;stroke-width:1.0;"/><path d="M493.2231,763.6431 Q492.6421,763.9419 492.0029,764.0913 Q491.3638,764.2407 490.6582,764.2407 Q488.1514,764.2407 486.8315,762.5889 Q485.5117,760.937 485.5117,757.8159 Q485.5117,754.6865 486.8315,753.0347 Q488.1514,751.3828 490.6582,751.3828 Q491.3638,751.3828 492.0112,751.5322 Q492.6587,751.6816 493.2231,751.9805 L493.2231,754.7031 Q492.5923,754.1221 491.9988,753.8523 Q491.4053,753.5825 490.7744,753.5825 Q489.4297,753.5825 488.7449,754.6492 Q488.0601,755.7158 488.0601,757.8159 Q488.0601,759.9077 488.7449,760.9744 Q489.4297,762.041 490.7744,762.041 Q491.4053,762.041 491.9988,761.7712 Q492.5923,761.5015 493.2231,760.9204 Z " fill="#000000"/><text fill="#000000" font-family="sans-serif" font-size="14" lengthAdjust="spacing" textLength="58" x="510.75" y="763.291">Property</text><line style="stroke:#181818;stroke-width:0.5;" x1="440.5" x2="606.5" y1="774" y2="774"/><text fill="#000000" font-family="sans-serif" font-size="14" lengthAdjust="spacing" textLength="77" x="445.5" y="791.5352">-float price</text><text fill="#000000" font-family="sans-serif" font-size="14" lengthAdjust="spacing" textLength="156" x="445.5" y="808.0234">-String typeOfProperty</text><line style="stroke:#181818;stroke-width:0.5;" x1="440.5" x2="606.5" y1="814.9766" y2="814.9766"/><text fill="#000000" font-family="sans-serif" font-size="14" lengthAdjust="spacing" textLength="76" x="445.5" y="832.5117">+getPrice()</text><text fill="#000000" font-family="sans-serif" font-size="14" lengthAdjust="spacing" textLength="150" x="445.5" y="849">+getTypeOfProperty()</text></g><!--class Location--><g id="elem_Location"><rect codeLine="18" fill="#F1F1F1" height="113.9531" id="Location" rx="2.5" ry="2.5" style="stroke:#181818;stroke-width:0.5;" width="98" x="389.5" y="933"/><ellipse cx="408.1" cy="949" fill="#ADD1B2" rx="11" ry="11" style="stroke:#181818;stroke-width:1.0;"/><path d="M411.0731,954.6431 Q410.4921,954.9419 409.8529,955.0913 Q409.2138,955.2407 408.5082,955.2407 Q406.0014,955.2407 404.6815,953.5889 Q403.3617,951.937 403.3617,948.8159 Q403.3617,945.6865 404.6815,944.0347 Q406.0014,942.3828 408.5082,942.3828 Q409.2138,942.3828 409.8612,942.5322 Q410.5087,942.6816 411.0731,942.9805 L411.0731,945.7031 Q410.4423,945.1221 409.8488,944.8523 Q409.2553,944.5825 408.6244,944.5825 Q407.2797,944.5825 406.5949,945.6492 Q405.9101,946.7158 405.9101,948.8159 Q405.9101,950.9077 406.5949,951.9744 Q407.2797,953.041 408.6244,953.041 Q409.2553,953.041 409.8488,952.7712 Q410.4423,952.5015 411.0731,951.9204 Z " fill="#000000"/><text fill="#000000" font-family="sans-serif" font-size="14" lengthAdjust="spacing" textLength="58" x="422.9" y="954.291">Location</text><line style="stroke:#181818;stroke-width:0.5;" x1="390.5" x2="486.5" y1="965" y2="965"/><text fill="#000000" font-family="sans-serif" font-size="14" lengthAdjust="spacing" textLength="76" x="395.5" y="982.5352">-String city</text><text fill="#000000" font-family="sans-serif" font-size="14" lengthAdjust="spacing" textLength="86" x="395.5" y="999.0234">-String state</text><line style="stroke:#181818;stroke-width:0.5;" x1="390.5" x2="486.5" y1="1005.9766" y2="1005.9766"/><text fill="#000000" font-family="sans-serif" font-size="14" lengthAdjust="spacing" textLength="69" x="395.5" y="1023.5117">+getCity()</text><text fill="#000000" font-family="sans-serif" font-size="14" lengthAdjust="spacing" textLength="77" x="395.5" y="1040">+getState()</text></g><!--class Residence--><g id="elem_Residence"><rect codeLine="25" fill="#F1F1F1" height="80.9766" id="Residence" rx="2.5" ry="2.5" style="stroke:#181818;stroke-width:0.5;" width="173" x="523" y="949.5"/><ellipse cx="570.75" cy="965.5" fill="#ADD1B2" rx="11" ry="11" style="stroke:#181818;stroke-width:1.0;"/><path d="M573.7231,971.1431 Q573.1421,971.4419 572.5029,971.5913 Q571.8638,971.7407 571.1582,971.7407 Q568.6514,971.7407 567.3315,970.0889 Q566.0117,968.437 566.0117,965.3159 Q566.0117,962.1865 567.3315,960.5347 Q568.6514,958.8828 571.1582,958.8828 Q571.8638,958.8828 572.5112,959.0322 Q573.1587,959.1816 573.7231,959.4805 L573.7231,962.2031 Q573.0923,961.6221 572.4988,961.3523 Q571.9053,961.0825 571.2744,961.0825 Q569.9297,961.0825 569.2449,962.1492 Q568.5601,963.2158 568.5601,965.3159 Q568.5601,967.4077 569.2449,968.4744 Q569.9297,969.541 571.2744,969.541 Q571.9053,969.541 572.4988,969.2712 Q573.0923,969.0015 573.7231,968.4204 Z " fill="#000000"/><text fill="#000000" font-family="sans-serif" font-size="14" lengthAdjust="spacing" textLength="69" x="591.25" y="970.791">Residence</text><line style="stroke:#181818;stroke-width:0.5;" x1="524" x2="695" y1="981.5" y2="981.5"/><text fill="#000000" font-family="sans-serif" font-size="14" lengthAdjust="spacing" textLength="147" x="529" y="999.0352">-int numberOfRooms</text><line style="stroke:#181818;stroke-width:0.5;" x1="524" x2="695" y1="1005.9883" y2="1005.9883"/><text fill="#000000" font-family="sans-serif" font-size="14" lengthAdjust="spacing" textLength="161" x="529" y="1023.5234">+getNumberOfRooms()</text></g><!--class DisplayPropertiesUI--><g id="elem_DisplayPropertiesUI"><rect codeLine="30" fill="#F1F1F1" height="48" id="DisplayPropertiesUI" rx="2.5" ry="2.5" style="stroke:#181818;stroke-width:0.5;" width="165" x="7" y="56.5"/><ellipse cx="22" cy="72.5" fill="#ADD1B2" rx="11" ry="11" style="stroke:#181818;stroke-width:1.0;"/><path d="M24.9731,78.1431 Q24.3921,78.4419 23.7529,78.5913 Q23.1138,78.7407 22.4082,78.7407 Q19.9014,78.7407 18.5815,77.0889 Q17.2617,75.437 17.2617,72.3159 Q17.2617,69.1865 18.5815,67.5347 Q19.9014,65.8828 22.4082,65.8828 Q23.1138,65.8828 23.7612,66.0322 Q24.4087,66.1816 24.9731,66.4805 L24.9731,69.2031 Q24.3423,68.6221 23.7488,68.3523 Q23.1553,68.0825 22.5244,68.0825 Q21.1797,68.0825 20.4949,69.1492 Q19.8101,70.2158 19.8101,72.3159 Q19.8101,74.4077 20.4949,75.4744 Q21.1797,76.541 22.5244,76.541 Q23.1553,76.541 23.7488,76.2712 Q24.3423,76.0015 24.9731,75.4204 Z " fill="#000000"/><text fill="#000000" font-family="sans-serif" font-size="14" lengthAdjust="spacing" textLength="133" x="36" y="77.791">DisplayPropertiesUI</text><line style="stroke:#181818;stroke-width:0.5;" x1="8" x2="171" y1="88.5" y2="88.5"/><line style="stroke:#181818;stroke-width:0.5;" x1="8" x2="171" y1="96.5" y2="96.5"/></g><!--class DisplayPropertiesController--><g id="elem_DisplayPropertiesController"><rect codeLine="33" fill="#F1F1F1" height="146.9297" id="DisplayPropertiesController" rx="2.5" ry="2.5" style="stroke:#181818;stroke-width:0.5;" width="508" x="207.5" y="7"/><ellipse cx="362.75" cy="23" fill="#ADD1B2" rx="11" ry="11" style="stroke:#181818;stroke-width:1.0;"/><path d="M365.7231,28.6431 Q365.1421,28.9419 364.5029,29.0913 Q363.8638,29.2407 363.1582,29.2407 Q360.6514,29.2407 359.3315,27.5889 Q358.0117,25.937 358.0117,22.8159 Q358.0117,19.6865 359.3315,18.0347 Q360.6514,16.3828 363.1582,16.3828 Q363.8638,16.3828 364.5112,16.5322 Q365.1587,16.6816 365.7231,16.9805 L365.7231,19.7031 Q365.0923,19.1221 364.4988,18.8523 Q363.9053,18.5825 363.2744,18.5825 Q361.9297,18.5825 361.2449,19.6492 Q360.5601,20.7158 360.5601,22.8159 Q360.5601,24.9077 361.2449,25.9744 Q361.9297,27.041 363.2744,27.041 Q363.9053,27.041 364.4988,26.7712 Q365.0923,26.5015 365.7231,25.9204 Z " fill="#000000"/><text fill="#000000" font-family="sans-serif" font-size="14" lengthAdjust="spacing" textLength="189" x="383.25" y="28.291">DisplayPropertiesController</text><line style="stroke:#181818;stroke-width:0.5;" x1="208.5" x2="714.5" y1="39" y2="39"/><line style="stroke:#181818;stroke-width:0.5;" x1="208.5" x2="714.5" y1="47" y2="47"/><text fill="#000000" font-family="sans-serif" font-size="14" lengthAdjust="spacing" textLength="393" x="213.5" y="64.5352">+DisplayPropertiesController(announcementsRepository)</text><text fill="#000000" font-family="sans-serif" font-size="14" lengthAdjust="spacing" textLength="496" x="213.5" y="81.0234">+displayProperties(number of rooms, type of business, type of property)</text><text fill="#000000" font-family="sans-serif" font-size="14" lengthAdjust="spacing" textLength="155" x="213.5" y="97.5117">+getAnnouncements()</text><text fill="#000000" font-family="sans-serif" font-size="14" lengthAdjust="spacing" textLength="144" x="213.5" y="114">+sortPropertiesCity()</text><text fill="#000000" font-family="sans-serif" font-size="14" lengthAdjust="spacing" textLength="151" x="213.5" y="130.4883">+sortPropertiesPrice()</text><text fill="#000000" font-family="sans-serif" font-size="14" lengthAdjust="spacing" textLength="152" x="213.5" y="146.9766">+sortPropertiesState()</text></g><!--class PublishedAnnouncement--><g id="elem_PublishedAnnouncement"><rect codeLine="42" fill="#F1F1F1" height="97.4648" id="PublishedAnnouncement" rx="2.5" ry="2.5" style="stroke:#181818;stroke-width:0.5;" width="586" x="230.5" y="568"/><ellipse cx="433.25" cy="584" fill="#ADD1B2" rx="11" ry="11" style="stroke:#181818;stroke-width:1.0;"/><path d="M436.2231,589.6431 Q435.6421,589.9419 435.0029,590.0913 Q434.3638,590.2407 433.6582,590.2407 Q431.1514,590.2407 429.8315,588.5889 Q428.5117,586.937 428.5117,583.8159 Q428.5117,580.6865 429.8315,579.0347 Q431.1514,577.3828 433.6582,577.3828 Q434.3638,577.3828 435.0112,577.5322 Q435.6587,577.6816 436.2231,577.9805 L436.2231,580.7031 Q435.5923,580.1221 434.9988,579.8523 Q434.4053,579.5825 433.7744,579.5825 Q432.4297,579.5825 431.7449,580.6492 Q431.0601,581.7158 431.0601,583.8159 Q431.0601,585.9077 431.7449,586.9744 Q432.4297,588.041 433.7744,588.041 Q434.4053,588.041 434.9988,587.7712 Q435.5923,587.5015 436.2231,586.9204 Z " fill="#000000"/><text fill="#000000" font-family="sans-serif" font-size="14" lengthAdjust="spacing" textLength="172" x="453.75" y="589.291">PublishedAnnouncement</text><line style="stroke:#181818;stroke-width:0.5;" x1="231.5" x2="815.5" y1="600" y2="600"/><line style="stroke:#181818;stroke-width:0.5;" x1="231.5" x2="815.5" y1="608" y2="608"/><text fill="#000000" font-family="sans-serif" font-size="14" lengthAdjust="spacing" textLength="313" x="236.5" y="625.5352">+compare(announcement1, announcement2)</text><text fill="#000000" font-family="sans-serif" font-size="14" lengthAdjust="spacing" textLength="101" x="236.5" y="642.0234">+getProperty()</text><text fill="#000000" font-family="sans-serif" font-size="14" lengthAdjust="spacing" textLength="574" x="236.5" y="658.5117">+getPropertyByCharacteristics(number of rooms, type of business, type of property)</text></g><!--class Repositories--><g id="elem_Repositories"><rect codeLine="48" fill="#F1F1F1" height="97.4648" id="Repositories" rx="2.5" ry="2.5" style="stroke:#181818;stroke-width:0.5;" width="240" x="98.5" y="184"/><ellipse cx="171.75" cy="200" fill="#ADD1B2" rx="11" ry="11" style="stroke:#181818;stroke-width:1.0;"/><path d="M174.7231,205.6431 Q174.1421,205.9419 173.5029,206.0913 Q172.8638,206.2407 172.1582,206.2407 Q169.6514,206.2407 168.3315,204.5889 Q167.0117,202.937 167.0117,199.8159 Q167.0117,196.6865 168.3315,195.0347 Q169.6514,193.3828 172.1582,193.3828 Q172.8638,193.3828 173.5112,193.5322 Q174.1587,193.6816 174.7231,193.9805 L174.7231,196.7031 Q174.0923,196.1221 173.4988,195.8523 Q172.9053,195.5825 172.2744,195.5825 Q170.9297,195.5825 170.2449,196.6492 Q169.5601,197.7158 169.5601,199.8159 Q169.5601,201.9077 170.2449,202.9744 Q170.9297,204.041 172.2744,204.041 Q172.9053,204.041 173.4988,203.7712 Q174.0923,203.5015 174.7231,202.9204 Z " fill="#000000"/><text fill="#000000" font-family="sans-serif" font-size="14" lengthAdjust="spacing" textLength="85" x="192.25" y="205.291">Repositories</text><line style="stroke:#181818;stroke-width:0.5;" x1="99.5" x2="337.5" y1="216" y2="216"/><line style="stroke:#181818;stroke-width:0.5;" x1="99.5" x2="337.5" y1="224" y2="224"/><text fill="#000000" font-family="sans-serif" font-size="14" lengthAdjust="spacing" textLength="103" x="104.5" y="241.5352">-Repositories()</text><text fill="#000000" font-family="sans-serif" font-size="14" lengthAdjust="spacing" textLength="193" x="104.5" y="258.0234">+getInstance(): Repositories</text><text fill="#000000" font-family="sans-serif" font-size="14" lengthAdjust="spacing" textLength="228" x="104.5" y="274.5117">+getAnnouncementsRepository()</text></g><!--class AnnouncementsRepository--><g id="elem_AnnouncementsRepository"><rect codeLine="54" fill="#F1F1F1" height="196.3945" id="AnnouncementsRepository" rx="2.5" ry="2.5" style="stroke:#181818;stroke-width:0.5;" width="633" x="14" y="311"/><ellipse cx="233.75" cy="327" fill="#ADD1B2" rx="11" ry="11" style="stroke:#181818;stroke-width:1.0;"/><path d="M236.7231,332.6431 Q236.1421,332.9419 235.5029,333.0913 Q234.8638,333.2407 234.1582,333.2407 Q231.6514,333.2407 230.3315,331.5889 Q229.0117,329.937 229.0117,326.8159 Q229.0117,323.6865 230.3315,322.0347 Q231.6514,320.3828 234.1582,320.3828 Q234.8638,320.3828 235.5112,320.5322 Q236.1587,320.6816 236.7231,320.9805 L236.7231,323.7031 Q236.0923,323.1221 235.4988,322.8523 Q234.9053,322.5825 234.2744,322.5825 Q232.9297,322.5825 232.2449,323.6492 Q231.5601,324.7158 231.5601,326.8159 Q231.5601,328.9077 232.2449,329.9744 Q232.9297,331.041 234.2744,331.041 Q234.9053,331.041 235.4988,330.7712 Q236.0923,330.5015 236.7231,329.9204 Z " fill="#000000"/><text fill="#000000" font-family="sans-serif" font-size="14" lengthAdjust="spacing" textLength="185" x="254.25" y="332.291">AnnouncementsRepository</text><line style="stroke:#181818;stroke-width:0.5;" x1="15" x2="646" y1="343" y2="343"/><text fill="#000000" font-family="sans-serif" font-size="14" lengthAdjust="spacing" textLength="309" x="20" y="360.5352">-ArrayList&lt;Announcement&gt; announcements</text><line style="stroke:#181818;stroke-width:0.5;" x1="15" x2="646" y1="367.4883" y2="367.4883"/><text fill="#000000" font-family="sans-serif" font-size="14" lengthAdjust="spacing" textLength="621" x="20" y="385.0234">+getAnnouncementByCharacteristics(number of rooms, type of business, type of property)</text><text fill="#000000" font-family="sans-serif" font-size="14" lengthAdjust="spacing" textLength="148" x="20" y="401.5117">+getAnnouncement()</text><text fill="#000000" font-family="sans-serif" font-size="14" lengthAdjust="spacing" textLength="216" x="20" y="418">+sortPropertiesCityAscending()</text><text fill="#000000" font-family="sans-serif" font-size="14" lengthAdjust="spacing" textLength="224" x="20" y="434.4883">+sortPropertiesCityDescending()</text><text fill="#000000" font-family="sans-serif" font-size="14" lengthAdjust="spacing" textLength="223" x="20" y="450.9766">+sortPropertiesPriceAscending()</text><text fill="#000000" font-family="sans-serif" font-size="14" lengthAdjust="spacing" textLength="231" x="20" y="467.4648">+sortPropertiesPriceDescending()</text><text fill="#000000" font-family="sans-serif" font-size="14" lengthAdjust="spacing" textLength="224" x="20" y="483.9531">+sortPropertiesStateAscending()</text><text fill="#000000" font-family="sans-serif" font-size="14" lengthAdjust="spacing" textLength="232" x="20" y="500.4414">+sortPropertiesStateDescending()</text></g><!--link Repositories to Repositories--><g id="link_Repositories_Repositories"><path codeLine="67" d="M338.73,205.89 C359.27,209.53 373.5,218.4 373.5,232.5 C373.5,245.28 361.81,253.76 344.33,257.95 " fill="none" id="Repositories-to-Repositories" style="stroke:#181818;stroke-width:1.0;"/><polygon fill="#181818" points="339.73,259.11,349.354,261.2027,344.6262,258.0965,347.7324,253.3687,339.73,259.11" style="stroke:#181818;stroke-width:1.0;"/><text fill="#000000" font-family="sans-serif" font-size="13" lengthAdjust="spacing" textLength="53" x="379.5" y="237.5684">instance</text></g><!--link DisplayPropertiesUI to DisplayPropertiesController--><g id="link_DisplayPropertiesUI_DisplayPropertiesController"><path codeLine="69" d="M172.33,80.5 C181.92,80.5 191.5,80.5 201.09,80.5 " fill="none" id="DisplayPropertiesUI-to-DisplayPropertiesController" style="stroke:#181818;stroke-width:1.0;stroke-dasharray:7.0,7.0;"/><polygon fill="#181818" points="206.06,80.5,197.06,76.5,201.06,80.5,197.06,84.5,206.06,80.5" style="stroke:#181818;stroke-width:1.0;"/></g><!--link DisplayPropertiesController to Repositories--><g id="link_DisplayPropertiesController_Repositories"><path codeLine="70" d="M343.56,154.3 C329.24,163.14 314.85,172.03 301.19,180.46 " fill="none" id="DisplayPropertiesController-to-Repositories" style="stroke:#181818;stroke-width:1.0;stroke-dasharray:7.0,7.0;"/><polygon fill="#181818" points="297.19,183.54,306.9493,182.2152,301.4444,180.9131,302.7464,175.4082,297.19,183.54" style="stroke:#181818;stroke-width:1.0;"/><text fill="#000000" font-family="sans-serif" font-size="13" lengthAdjust="spacing" textLength="75" x="321.13" y="182.3384">repositories</text></g><!--link Repositories to AnnouncementsRepository--><g id="link_Repositories_AnnouncementsRepository"><path codeLine="72" d="M249.1,281.18 C254.13,289.02 259.51,297.39 265.01,305.96 " fill="none" id="Repositories-to-AnnouncementsRepository" style="stroke:#181818;stroke-width:1.0;"/><polygon fill="#181818" points="268.07,309.74,266.5829,300.0041,265.3727,305.5299,259.8468,304.3197,268.07,309.74" style="stroke:#181818;stroke-width:1.0;"/><text fill="#000000" font-family="sans-serif" font-size="13" lengthAdjust="spacing" textLength="8" x="254.984" y="300.2079">1</text></g><!--link DisplayPropertiesController to AnnouncementsRepository--><g id="link_DisplayPropertiesController_AnnouncementsRepository"><path codeLine="74" d="M454.93,154.38 C449.56,193.19 439.87,241.03 422.5,281 C418.91,289.27 414.7,297.53 410.1,305.64 " fill="none" id="DisplayPropertiesController-to-AnnouncementsRepository" style="stroke:#181818;stroke-width:1.0;stroke-dasharray:7.0,7.0;"/><polygon fill="#181818" points="407.19,309.66,415.155,303.867,409.6907,305.3303,408.2274,299.8659,407.19,309.66" style="stroke:#181818;stroke-width:1.0;"/><text fill="#000000" font-family="sans-serif" font-size="13" lengthAdjust="spacing" textLength="231" x="450.5" y="237.5684">publishedAnnouncementsRepository</text></g><!--link AnnouncementsRepository to PublishedAnnouncement--><g id="link_AnnouncementsRepository_PublishedAnnouncement"><path codeLine="76" d="M421.91,507.33 C440.06,526.65 458.44,546.23 474.49,563.32 " fill="none" id="AnnouncementsRepository-to-PublishedAnnouncement" style="stroke:#181818;stroke-width:1.0;"/><polygon fill="#181818" points="477.52,566.61,474.2645,557.3147,474.0932,562.969,468.4389,562.7977,477.52,566.61" style="stroke:#181818;stroke-width:1.0;"/><text fill="#000000" font-family="sans-serif" font-size="13" lengthAdjust="spacing" textLength="8" x="420.6023" y="527.9978">1</text><text fill="#000000" font-family="sans-serif" font-size="13" lengthAdjust="spacing" textLength="6" x="465.7728" y="557.2377">*</text></g><!--link DisplayPropertiesController to PublishedAnnouncement--><g id="link_DisplayPropertiesController_PublishedAnnouncement"><path codeLine="77" d="M665.19,154.47 C674.81,163.23 683.39,173.03 690.5,184 C724.79,236.92 705.32,434.82 664.5,507 C651.92,529.25 632.74,548.45 612.54,564.24 " fill="none" id="DisplayPropertiesController-to-PublishedAnnouncement" style="stroke:#181818;stroke-width:1.0;stroke-dasharray:7.0,7.0;"/><polygon fill="#181818" points="608.95,567.77,618.5269,565.4714,612.919,564.729,613.6613,559.1211,608.95,567.77" style="stroke:#181818;stroke-width:1.0;"/><text fill="#000000" font-family="sans-serif" font-size="13" lengthAdjust="spacing" textLength="93" x="707.5" y="414.0684">announcement</text><text fill="#000000" font-family="sans-serif" font-size="13" lengthAdjust="spacing" textLength="8" x="611.2633" y="557.4202">1</text></g><!--link PublishedAnnouncement to Property--><g id="link_PublishedAnnouncement_Property"><path codeLine="78" d="M523.5,665.4 C523.5,686.96 523.5,712.7 523.5,735.74 " fill="none" id="PublishedAnnouncement-to-Property" style="stroke:#181818;stroke-width:1.0;"/><polygon fill="#181818" points="523.5,740.54,527.5,731.54,523.5,735.54,519.5,731.54,523.5,740.54" style="stroke:#181818;stroke-width:1.0;"/><text fill="#000000" font-family="sans-serif" font-size="13" lengthAdjust="spacing" textLength="54" x="524.5" y="708.5684">contains</text><text fill="#000000" font-family="sans-serif" font-size="13" lengthAdjust="spacing" textLength="8" x="514.9375" y="685.8888">1</text><text fill="#000000" font-family="sans-serif" font-size="13" lengthAdjust="spacing" textLength="8" x="515.0125" y="731.2131">1</text></g><!--reverse link Property to Residence--><g id="link_Property_Residence"><path codeLine="79" d="M557.73,875.24 C569.21,900.45 581.55,927.58 591.31,949.02 " fill="none" id="Property-backto-Residence" style="stroke:#181818;stroke-width:1.0;"/><polygon fill="none" points="551.1,878.55,549.19,857.45,563.84,872.76,551.1,878.55" style="stroke:#181818;stroke-width:1.0;"/></g><!--link Property to Location--><g id="link_Property_Location"><path codeLine="80" d="M498.11,856.45 C488.1,878.7 476.57,904.34 466.34,927.1 " fill="none" id="Property-to-Location" style="stroke:#181818;stroke-width:1.0;"/><polygon fill="#181818" points="463.9,931.51,471.2315,924.9336,465.9453,926.9475,463.9315,921.6612,463.9,931.51" style="stroke:#181818;stroke-width:1.0;"/><text fill="#000000" font-family="sans-serif" font-size="13" lengthAdjust="spacing" textLength="33" x="484.5" y="899.5684">has a</text><text fill="#000000" font-family="sans-serif" font-size="13" lengthAdjust="spacing" textLength="8" x="486.7118" y="876.5489">1</text><text fill="#000000" font-family="sans-serif" font-size="13" lengthAdjust="spacing" textLength="8" x="458.5081" y="922.1795">1</text></g><!--SRC=[hLN1Rjim3BthAuHUcgxriEvO506yz1AWM8Da-m15fcEXicH8D0Olsx-FSfn4JXm7A7QB-CZ79_8fllNlobJ2YPANrbXPE5i2HrS3EoALaEzY0ojiD7074eNPw3Z15oAplvJPy5ne7oDQ6S2c0bvPtOJ346OTMXO1KWllKqIdrZN2N5gpKh-1Vs7iLaEE72rtQbCWprHGewnXhAtX2sShSDXiMP9hAv1NJabWoOguI5tezfRlazZz1d0H4YPtxUyVFPY2V_UyhrQAq6Txe9AA2FO7ZmAXfPYfjZ3yN8LWJB84hp8m4eX56UIcBjVWtlAbjQLlIxx7aRZqHVbAYwQJfi3_d6z7q9arwApMuBRiVWIT26DiJOfACEYNK5clqBg6Bf2TLarsShdDkGlo7lXkTpbVrvuswQD8rOrmDuWqRXA6usdXaPnkPFteOI_zyDbG5_LQArz05dUXMqjRafcWTyF71nuVlzvr3ZZiEpv-QsO5kL4YEELHoGyE8Df-Drsw1HaWFdQTvuPyPCAjdthPvqCyRYeUnOKKQfOw9vfNkiPpd3FjJUEypN-Qm2dji0DIBy5az9Y6uHUuZBTMIQ_WOmIjgT8hU8-0PixY5V5asbiPV-AgsoPZ0u-NVvwElLesWeNIarOkDikPhfl7cqlMOEEDgDE5GcfQ3Jsy7lUbsY0e2S8-tGm_twkg0iDW9UcAFSs6amu20atdKwgaxmmAMXixn9x_9CdnR_iOZmdsdmOYA8JdWlq3]--></g></svg>