<?xml version="1.0" encoding="us-ascii" standalone="no"?><svg xmlns="http://www.w3.org/2000/svg" xmlns:xlink="http://www.w3.org/1999/xlink" contentStyleType="text/css" height="512px" preserveAspectRatio="none" style="width:942px;height:512px;background:#FFFFFF;" version="1.1" viewBox="0 0 942 512" width="942px" zoomAndPan="magnify"><defs/><g><!--class ListRequestGUI--><g id="elem_ListRequestGUI"><rect codeLine="5" fill="#F1F1F1" height="48" id="ListRequestGUI" rx="2.5" ry="2.5" style="stroke:#181818;stroke-width:0.5;" width="130" x="466" y="7"/><ellipse cx="481" cy="23" fill="#ADD1B2" rx="11" ry="11" style="stroke:#181818;stroke-width:1.0;"/><path d="M483.7656,18.875 Q483.9219,18.6563 484.1094,18.5469 Q484.2969,18.4375 484.5156,18.4375 Q484.8906,18.4375 485.125,18.7031 Q485.3594,18.9531 485.3594,19.5625 L485.3594,21.0156 Q485.3594,21.625 485.125,21.8906 Q484.8906,22.1563 484.5156,22.1563 Q484.1719,22.1563 483.9688,21.9531 Q483.7656,21.7656 483.6563,21.25 Q483.6094,20.8906 483.4219,20.7031 Q483.0938,20.3281 482.4844,20.1094 Q481.875,19.8906 481.25,19.8906 Q480.4844,19.8906 479.8438,20.2188 Q479.2188,20.5469 478.7188,21.2969 Q478.2344,22.0469 478.2344,23.0781 L478.2344,24.1719 Q478.2344,25.4063 479.125,26.2344 Q480.0156,27.0469 481.6094,27.0469 Q482.5469,27.0469 483.2031,26.7969 Q483.5938,26.6406 484.0156,26.2031 Q484.2813,25.9375 484.4219,25.8594 Q484.5781,25.7813 484.7813,25.7813 Q485.1094,25.7813 485.3594,26.0469 Q485.625,26.2969 485.625,26.6406 Q485.625,26.9844 485.2813,27.3906 Q484.7813,27.9688 483.9844,28.2969 Q482.9063,28.75 481.6094,28.75 Q480.0938,28.75 478.8906,28.125 Q477.9063,27.625 477.2188,26.5625 Q476.5313,25.4844 476.5313,24.2031 L476.5313,23.0469 Q476.5313,21.7188 477.1406,20.5781 Q477.7656,19.4219 478.8594,18.8125 Q479.9531,18.1875 481.1875,18.1875 Q481.9219,18.1875 482.5625,18.3594 Q483.2188,18.5156 483.7656,18.875 Z " fill="#000000"/><text fill="#000000" font-family="sans-serif" font-size="14" lengthAdjust="spacing" textLength="98" x="495" y="27.8535">ListRequestGUI</text><line style="stroke:#181818;stroke-width:0.5;" x1="467" x2="595" y1="39" y2="39"/><line style="stroke:#181818;stroke-width:0.5;" x1="467" x2="595" y1="47" y2="47"/></g><!--class ListRequestController--><g id="elem_ListRequestController"><rect codeLine="9" fill="#F1F1F1" height="204.4063" id="ListRequestController" rx="2.5" ry="2.5" style="stroke:#181818;stroke-width:0.5;" width="183" x="439.5" y="115"/><ellipse cx="460.8" cy="131" fill="#ADD1B2" rx="11" ry="11" style="stroke:#181818;stroke-width:1.0;"/><path d="M463.5656,126.875 Q463.7219,126.6563 463.9094,126.5469 Q464.0969,126.4375 464.3156,126.4375 Q464.6906,126.4375 464.925,126.7031 Q465.1594,126.9531 465.1594,127.5625 L465.1594,129.0156 Q465.1594,129.625 464.925,129.8906 Q464.6906,130.1563 464.3156,130.1563 Q463.9719,130.1563 463.7688,129.9531 Q463.5656,129.7656 463.4563,129.25 Q463.4094,128.8906 463.2219,128.7031 Q462.8938,128.3281 462.2844,128.1094 Q461.675,127.8906 461.05,127.8906 Q460.2844,127.8906 459.6438,128.2188 Q459.0188,128.5469 458.5188,129.2969 Q458.0344,130.0469 458.0344,131.0781 L458.0344,132.1719 Q458.0344,133.4063 458.925,134.2344 Q459.8156,135.0469 461.4094,135.0469 Q462.3469,135.0469 463.0031,134.7969 Q463.3938,134.6406 463.8156,134.2031 Q464.0813,133.9375 464.2219,133.8594 Q464.3781,133.7813 464.5813,133.7813 Q464.9094,133.7813 465.1594,134.0469 Q465.425,134.2969 465.425,134.6406 Q465.425,134.9844 465.0813,135.3906 Q464.5813,135.9688 463.7844,136.2969 Q462.7063,136.75 461.4094,136.75 Q459.8938,136.75 458.6906,136.125 Q457.7063,135.625 457.0188,134.5625 Q456.3313,133.4844 456.3313,132.2031 L456.3313,131.0469 Q456.3313,129.7188 456.9406,128.5781 Q457.5656,127.4219 458.6594,126.8125 Q459.7531,126.1875 460.9875,126.1875 Q461.7219,126.1875 462.3625,126.3594 Q463.0188,126.5156 463.5656,126.875 Z " fill="#000000"/><text fill="#000000" font-family="sans-serif" font-size="14" lengthAdjust="spacing" textLength="137" x="476.2" y="135.8535">ListRequestController</text><line style="stroke:#181818;stroke-width:0.5;" x1="440.5" x2="621.5" y1="147" y2="147"/><rect fill="none" height="6" style="stroke:#C82930;stroke-width:1.0;" width="6" x="447.5" y="157.3203"/><text fill="#000000" font-family="sans-serif" font-size="14" lengthAdjust="spacing" textLength="157" x="459.5" y="163.6738">Repositories repositories</text><line style="stroke:#181818;stroke-width:0.5;" x1="440.5" x2="621.5" y1="170.6406" y2="170.6406"/><ellipse cx="450.5" cy="183.9609" fill="#84BE84" rx="3" ry="3" style="stroke:#038048;stroke-width:1.0;"/><text fill="#000000" font-family="sans-serif" font-size="14" lengthAdjust="spacing" textLength="125" x="459.5" y="187.3145">getAnnouncement()</text><ellipse cx="450.5" cy="199.6016" fill="#84BE84" rx="3" ry="3" style="stroke:#038048;stroke-width:1.0;"/><text fill="#000000" font-family="sans-serif" font-size="14" lengthAdjust="spacing" textLength="83" x="459.5" y="202.9551">getInstance()</text><ellipse cx="450.5" cy="215.2422" fill="#84BE84" rx="3" ry="3" style="stroke:#038048;stroke-width:1.0;"/><text fill="#000000" font-family="sans-serif" font-size="14" lengthAdjust="spacing" textLength="96" x="459.5" y="218.5957">checkMinutes()</text><ellipse cx="450.5" cy="230.8828" fill="#84BE84" rx="3" ry="3" style="stroke:#038048;stroke-width:1.0;"/><text fill="#000000" font-family="sans-serif" font-size="14" lengthAdjust="spacing" textLength="77" x="459.5" y="234.2363">checkHour()</text><ellipse cx="450.5" cy="246.5234" fill="#84BE84" rx="3" ry="3" style="stroke:#038048;stroke-width:1.0;"/><text fill="#000000" font-family="sans-serif" font-size="14" lengthAdjust="spacing" textLength="77" x="459.5" y="249.877">checkYear()</text><ellipse cx="450.5" cy="262.1641" fill="#84BE84" rx="3" ry="3" style="stroke:#038048;stroke-width:1.0;"/><text fill="#000000" font-family="sans-serif" font-size="14" lengthAdjust="spacing" textLength="86" x="459.5" y="265.5176">checkMonth()</text><ellipse cx="450.5" cy="277.8047" fill="#84BE84" rx="3" ry="3" style="stroke:#038048;stroke-width:1.0;"/><text fill="#000000" font-family="sans-serif" font-size="14" lengthAdjust="spacing" textLength="72" x="459.5" y="281.1582">checkDay()</text><ellipse cx="450.5" cy="293.4453" fill="#84BE84" rx="3" ry="3" style="stroke:#038048;stroke-width:1.0;"/><text fill="#000000" font-family="sans-serif" font-size="14" lengthAdjust="spacing" textLength="111" x="459.5" y="296.7988">checkIfValidVisit()</text><ellipse cx="450.5" cy="309.0859" fill="#84BE84" rx="3" ry="3" style="stroke:#038048;stroke-width:1.0;"/><text fill="#000000" font-family="sans-serif" font-size="14" lengthAdjust="spacing" textLength="91" x="459.5" y="312.4395">addMessage()</text></g><!--class Repositories--><g id="elem_Repositories"><rect codeLine="23" fill="#F1F1F1" height="126.2031" id="Repositories" rx="2.5" ry="2.5" style="stroke:#181818;stroke-width:0.5;" width="226" x="7" y="379"/><ellipse cx="76.25" cy="395" fill="#ADD1B2" rx="11" ry="11" style="stroke:#181818;stroke-width:1.0;"/><path d="M79.0156,390.875 Q79.1719,390.6563 79.3594,390.5469 Q79.5469,390.4375 79.7656,390.4375 Q80.1406,390.4375 80.375,390.7031 Q80.6094,390.9531 80.6094,391.5625 L80.6094,393.0156 Q80.6094,393.625 80.375,393.8906 Q80.1406,394.1563 79.7656,394.1563 Q79.4219,394.1563 79.2188,393.9531 Q79.0156,393.7656 78.9063,393.25 Q78.8594,392.8906 78.6719,392.7031 Q78.3438,392.3281 77.7344,392.1094 Q77.125,391.8906 76.5,391.8906 Q75.7344,391.8906 75.0938,392.2188 Q74.4688,392.5469 73.9688,393.2969 Q73.4844,394.0469 73.4844,395.0781 L73.4844,396.1719 Q73.4844,397.4063 74.375,398.2344 Q75.2656,399.0469 76.8594,399.0469 Q77.7969,399.0469 78.4531,398.7969 Q78.8438,398.6406 79.2656,398.2031 Q79.5313,397.9375 79.6719,397.8594 Q79.8281,397.7813 80.0313,397.7813 Q80.3594,397.7813 80.6094,398.0469 Q80.875,398.2969 80.875,398.6406 Q80.875,398.9844 80.5313,399.3906 Q80.0313,399.9688 79.2344,400.2969 Q78.1563,400.75 76.8594,400.75 Q75.3438,400.75 74.1406,400.125 Q73.1563,399.625 72.4688,398.5625 Q71.7813,397.4844 71.7813,396.2031 L71.7813,395.0469 Q71.7813,393.7188 72.3906,392.5781 Q73.0156,391.4219 74.1094,390.8125 Q75.2031,390.1875 76.4375,390.1875 Q77.1719,390.1875 77.8125,390.3594 Q78.4688,390.5156 79.0156,390.875 Z " fill="#000000"/><text fill="#000000" font-family="sans-serif" font-size="14" lengthAdjust="spacing" textLength="79" x="96.75" y="399.8535">Repositories</text><line style="stroke:#181818;stroke-width:0.5;" x1="8" x2="232" y1="411" y2="411"/><line style="stroke:#181818;stroke-width:0.5;" x1="8" x2="232" y1="419" y2="419"/><ellipse cx="18" cy="432.3203" fill="#84BE84" rx="3" ry="3" style="stroke:#038048;stroke-width:1.0;"/><text fill="#000000" font-family="sans-serif" font-size="14" lengthAdjust="spacing" textLength="89" x="27" y="435.6738">Repositories()</text><ellipse cx="18" cy="447.9609" fill="#84BE84" rx="3" ry="3" style="stroke:#038048;stroke-width:1.0;"/><text fill="#000000" font-family="sans-serif" font-size="14" lengthAdjust="spacing" textLength="188" x="27" y="451.3145">getAuthenticationRepository()</text><ellipse cx="18" cy="463.6016" fill="#84BE84" rx="3" ry="3" style="stroke:#038048;stroke-width:1.0;"/><text fill="#000000" font-family="sans-serif" font-size="14" lengthAdjust="spacing" textLength="83" x="27" y="466.9551">getInstance()</text><ellipse cx="18" cy="479.2422" fill="#84BE84" rx="3" ry="3" style="stroke:#038048;stroke-width:1.0;"/><text fill="#000000" font-family="sans-serif" font-size="14" lengthAdjust="spacing" textLength="155" x="27" y="482.5957">getMessageRepository()</text><ellipse cx="18" cy="494.8828" fill="#84BE84" rx="3" ry="3" style="stroke:#038048;stroke-width:1.0;"/><text fill="#000000" font-family="sans-serif" font-size="14" lengthAdjust="spacing" textLength="200" x="27" y="498.2363">getAnnouncementsRepository()</text></g><!--class MessageRepository--><g id="elem_MessageRepository"><rect codeLine="31" fill="#F1F1F1" height="94.9219" id="MessageRepository" rx="2.5" ry="2.5" style="stroke:#181818;stroke-width:0.5;" width="264" x="268" y="394.5"/><ellipse cx="333.25" cy="410.5" fill="#ADD1B2" rx="11" ry="11" style="stroke:#181818;stroke-width:1.0;"/><path d="M336.0156,406.375 Q336.1719,406.1563 336.3594,406.0469 Q336.5469,405.9375 336.7656,405.9375 Q337.1406,405.9375 337.375,406.2031 Q337.6094,406.4531 337.6094,407.0625 L337.6094,408.5156 Q337.6094,409.125 337.375,409.3906 Q337.1406,409.6563 336.7656,409.6563 Q336.4219,409.6563 336.2188,409.4531 Q336.0156,409.2656 335.9063,408.75 Q335.8594,408.3906 335.6719,408.2031 Q335.3438,407.8281 334.7344,407.6094 Q334.125,407.3906 333.5,407.3906 Q332.7344,407.3906 332.0938,407.7188 Q331.4688,408.0469 330.9688,408.7969 Q330.4844,409.5469 330.4844,410.5781 L330.4844,411.6719 Q330.4844,412.9063 331.375,413.7344 Q332.2656,414.5469 333.8594,414.5469 Q334.7969,414.5469 335.4531,414.2969 Q335.8438,414.1406 336.2656,413.7031 Q336.5313,413.4375 336.6719,413.3594 Q336.8281,413.2813 337.0313,413.2813 Q337.3594,413.2813 337.6094,413.5469 Q337.875,413.7969 337.875,414.1406 Q337.875,414.4844 337.5313,414.8906 Q337.0313,415.4688 336.2344,415.7969 Q335.1563,416.25 333.8594,416.25 Q332.3438,416.25 331.1406,415.625 Q330.1563,415.125 329.4688,414.0625 Q328.7813,412.9844 328.7813,411.7031 L328.7813,410.5469 Q328.7813,409.2188 329.3906,408.0781 Q330.0156,406.9219 331.1094,406.3125 Q332.2031,405.6875 333.4375,405.6875 Q334.1719,405.6875 334.8125,405.8594 Q335.4688,406.0156 336.0156,406.375 Z " fill="#000000"/><text fill="#000000" font-family="sans-serif" font-size="14" lengthAdjust="spacing" textLength="125" x="353.75" y="415.3535">MessageRepository</text><line style="stroke:#181818;stroke-width:0.5;" x1="269" x2="531" y1="426.5" y2="426.5"/><rect fill="none" height="6" style="stroke:#C82930;stroke-width:1.0;" width="6" x="276" y="436.8203"/><text fill="#000000" font-family="sans-serif" font-size="14" lengthAdjust="spacing" textLength="178" x="288" y="443.1738">List&lt;Message&gt; MessageList</text><rect fill="none" height="6" style="stroke:#C82930;stroke-width:1.0;" width="6" x="276" y="452.4609"/><text fill="#000000" font-family="sans-serif" font-size="14" lengthAdjust="spacing" textLength="238" x="288" y="458.8145">List&lt;Message&gt; MessageCompleteList</text><line style="stroke:#181818;stroke-width:0.5;" x1="269" x2="531" y1="465.7813" y2="465.7813"/><ellipse cx="279" cy="479.1016" fill="#84BE84" rx="3" ry="3" style="stroke:#038048;stroke-width:1.0;"/><text fill="#000000" font-family="sans-serif" font-size="14" lengthAdjust="spacing" textLength="109" x="288" y="482.4551">getMessageList()</text></g><!--class AuthenticationRepository--><g id="elem_AuthenticationRepository"><rect codeLine="38" fill="#F1F1F1" height="63.6406" id="AuthenticationRepository" rx="2.5" ry="2.5" style="stroke:#181818;stroke-width:0.5;" width="190" x="567" y="410"/><ellipse cx="582" cy="426" fill="#ADD1B2" rx="11" ry="11" style="stroke:#181818;stroke-width:1.0;"/><path d="M584.7656,421.875 Q584.9219,421.6563 585.1094,421.5469 Q585.2969,421.4375 585.5156,421.4375 Q585.8906,421.4375 586.125,421.7031 Q586.3594,421.9531 586.3594,422.5625 L586.3594,424.0156 Q586.3594,424.625 586.125,424.8906 Q585.8906,425.1563 585.5156,425.1563 Q585.1719,425.1563 584.9688,424.9531 Q584.7656,424.7656 584.6563,424.25 Q584.6094,423.8906 584.4219,423.7031 Q584.0938,423.3281 583.4844,423.1094 Q582.875,422.8906 582.25,422.8906 Q581.4844,422.8906 580.8438,423.2188 Q580.2188,423.5469 579.7188,424.2969 Q579.2344,425.0469 579.2344,426.0781 L579.2344,427.1719 Q579.2344,428.4063 580.125,429.2344 Q581.0156,430.0469 582.6094,430.0469 Q583.5469,430.0469 584.2031,429.7969 Q584.5938,429.6406 585.0156,429.2031 Q585.2813,428.9375 585.4219,428.8594 Q585.5781,428.7813 585.7813,428.7813 Q586.1094,428.7813 586.3594,429.0469 Q586.625,429.2969 586.625,429.6406 Q586.625,429.9844 586.2813,430.3906 Q585.7813,430.9688 584.9844,431.2969 Q583.9063,431.75 582.6094,431.75 Q581.0938,431.75 579.8906,431.125 Q578.9063,430.625 578.2188,429.5625 Q577.5313,428.4844 577.5313,427.2031 L577.5313,426.0469 Q577.5313,424.7188 578.1406,423.5781 Q578.7656,422.4219 579.8594,421.8125 Q580.9531,421.1875 582.1875,421.1875 Q582.9219,421.1875 583.5625,421.3594 Q584.2188,421.5156 584.7656,421.875 Z " fill="#000000"/><text fill="#000000" font-family="sans-serif" font-size="14" lengthAdjust="spacing" textLength="158" x="596" y="430.8535">AuthenticationRepository</text><line style="stroke:#181818;stroke-width:0.5;" x1="568" x2="756" y1="442" y2="442"/><line style="stroke:#181818;stroke-width:0.5;" x1="568" x2="756" y1="450" y2="450"/><ellipse cx="578" cy="463.3203" fill="#84BE84" rx="3" ry="3" style="stroke:#038048;stroke-width:1.0;"/><text fill="#000000" font-family="sans-serif" font-size="14" lengthAdjust="spacing" textLength="157" x="587" y="466.6738">getCurrentUserSession()</text></g><!--class AgentRepository--><g id="elem_AgentRepository"><rect codeLine="42" fill="#F1F1F1" height="79.2813" id="AgentRepository" rx="2.5" ry="2.5" style="stroke:#181818;stroke-width:0.5;" width="143" x="792.5" y="402.5"/><ellipse cx="810.2" cy="418.5" fill="#ADD1B2" rx="11" ry="11" style="stroke:#181818;stroke-width:1.0;"/><path d="M812.9656,414.375 Q813.1219,414.1563 813.3094,414.0469 Q813.4969,413.9375 813.7156,413.9375 Q814.0906,413.9375 814.325,414.2031 Q814.5594,414.4531 814.5594,415.0625 L814.5594,416.5156 Q814.5594,417.125 814.325,417.3906 Q814.0906,417.6563 813.7156,417.6563 Q813.3719,417.6563 813.1688,417.4531 Q812.9656,417.2656 812.8563,416.75 Q812.8094,416.3906 812.6219,416.2031 Q812.2938,415.8281 811.6844,415.6094 Q811.075,415.3906 810.45,415.3906 Q809.6844,415.3906 809.0438,415.7188 Q808.4188,416.0469 807.9188,416.7969 Q807.4344,417.5469 807.4344,418.5781 L807.4344,419.6719 Q807.4344,420.9063 808.325,421.7344 Q809.2156,422.5469 810.8094,422.5469 Q811.7469,422.5469 812.4031,422.2969 Q812.7938,422.1406 813.2156,421.7031 Q813.4813,421.4375 813.6219,421.3594 Q813.7781,421.2813 813.9813,421.2813 Q814.3094,421.2813 814.5594,421.5469 Q814.825,421.7969 814.825,422.1406 Q814.825,422.4844 814.4813,422.8906 Q813.9813,423.4688 813.1844,423.7969 Q812.1063,424.25 810.8094,424.25 Q809.2938,424.25 808.0906,423.625 Q807.1063,423.125 806.4188,422.0625 Q805.7313,420.9844 805.7313,419.7031 L805.7313,418.5469 Q805.7313,417.2188 806.3406,416.0781 Q806.9656,414.9219 808.0594,414.3125 Q809.1531,413.6875 810.3875,413.6875 Q811.1219,413.6875 811.7625,413.8594 Q812.4188,414.0156 812.9656,414.375 Z " fill="#000000"/><text fill="#000000" font-family="sans-serif" font-size="14" lengthAdjust="spacing" textLength="105" x="824.8" y="423.3535">AgentRepository</text><line style="stroke:#181818;stroke-width:0.5;" x1="793.5" x2="934.5" y1="434.5" y2="434.5"/><rect fill="none" height="6" style="stroke:#C82930;stroke-width:1.0;" width="6" x="800.5" y="444.8203"/><text fill="#000000" font-family="sans-serif" font-size="14" lengthAdjust="spacing" textLength="33" x="812.5" y="451.1738">email</text><line style="stroke:#181818;stroke-width:0.5;" x1="793.5" x2="934.5" y1="458.1406" y2="458.1406"/><ellipse cx="803.5" cy="471.4609" fill="#84BE84" rx="3" ry="3" style="stroke:#038048;stroke-width:1.0;"/><text fill="#000000" font-family="sans-serif" font-size="14" lengthAdjust="spacing" textLength="117" x="812.5" y="474.8145">getAgentByEmail()</text></g><!--class Agent--><g id="elem_Agent"><rect codeLine="47" fill="#F1F1F1" height="63.6406" id="Agent" rx="2.5" ry="2.5" style="stroke:#181818;stroke-width:0.5;" width="69" x="829.5" y="185"/><ellipse cx="844.5" cy="201" fill="#ADD1B2" rx="11" ry="11" style="stroke:#181818;stroke-width:1.0;"/><path d="M847.2656,196.875 Q847.4219,196.6563 847.6094,196.5469 Q847.7969,196.4375 848.0156,196.4375 Q848.3906,196.4375 848.625,196.7031 Q848.8594,196.9531 848.8594,197.5625 L848.8594,199.0156 Q848.8594,199.625 848.625,199.8906 Q848.3906,200.1563 848.0156,200.1563 Q847.6719,200.1563 847.4688,199.9531 Q847.2656,199.7656 847.1563,199.25 Q847.1094,198.8906 846.9219,198.7031 Q846.5938,198.3281 845.9844,198.1094 Q845.375,197.8906 844.75,197.8906 Q843.9844,197.8906 843.3438,198.2188 Q842.7188,198.5469 842.2188,199.2969 Q841.7344,200.0469 841.7344,201.0781 L841.7344,202.1719 Q841.7344,203.4063 842.625,204.2344 Q843.5156,205.0469 845.1094,205.0469 Q846.0469,205.0469 846.7031,204.7969 Q847.0938,204.6406 847.5156,204.2031 Q847.7813,203.9375 847.9219,203.8594 Q848.0781,203.7813 848.2813,203.7813 Q848.6094,203.7813 848.8594,204.0469 Q849.125,204.2969 849.125,204.6406 Q849.125,204.9844 848.7813,205.3906 Q848.2813,205.9688 847.4844,206.2969 Q846.4063,206.75 845.1094,206.75 Q843.5938,206.75 842.3906,206.125 Q841.4063,205.625 840.7188,204.5625 Q840.0313,203.4844 840.0313,202.2031 L840.0313,201.0469 Q840.0313,199.7188 840.6406,198.5781 Q841.2656,197.4219 842.3594,196.8125 Q843.4531,196.1875 844.6875,196.1875 Q845.4219,196.1875 846.0625,196.3594 Q846.7188,196.5156 847.2656,196.875 Z " fill="#000000"/><text fill="#000000" font-family="sans-serif" font-size="14" lengthAdjust="spacing" textLength="37" x="858.5" y="205.8535">Agent</text><line style="stroke:#181818;stroke-width:0.5;" x1="830.5" x2="897.5" y1="217" y2="217"/><text fill="#000000" font-family="sans-serif" font-size="14" lengthAdjust="spacing" textLength="33" x="835.5" y="233.6738">email</text><line style="stroke:#181818;stroke-width:0.5;" x1="830.5" x2="897.5" y1="240.6406" y2="240.6406"/></g><!--link ListRequestGUI to ListRequestController--><g id="link_ListRequestGUI_ListRequestController"><path codeLine="51" d="M531,55.3 C531,69.66 531,89.19 531,109.7 " fill="none" id="ListRequestGUI-to-ListRequestController" style="stroke:#181818;stroke-width:1.0;"/><polygon fill="#181818" points="531,114.93,535,105.93,531,109.93,527,105.93,531,114.93" style="stroke:#181818;stroke-width:1.0;"/></g><!--link ListRequestController to Repositories--><g id="link_ListRequestController_Repositories"><path codeLine="53" d="M439.28,267.77 C379.78,300.05 301.71,342.41 237.66,377.16 " fill="none" id="ListRequestController-to-Repositories" style="stroke:#181818;stroke-width:1.0;"/><polygon fill="#181818" points="233.08,379.65,242.8984,378.8765,237.4755,377.2667,239.0852,371.8438,233.08,379.65" style="stroke:#181818;stroke-width:1.0;"/></g><!--link ListRequestController to MessageRepository--><g id="link_ListRequestController_MessageRepository"><path codeLine="55" d="M471.63,319.06 C457.22,343.59 442.41,368.8 430.03,389.88 " fill="none" id="ListRequestController-to-MessageRepository" style="stroke:#181818;stroke-width:1.0;"/><polygon fill="#181818" points="427.42,394.32,435.4442,388.6093,429.9651,390.0162,428.5581,384.5371,427.42,394.32" style="stroke:#181818;stroke-width:1.0;"/></g><!--link ListRequestController to AuthenticationRepository--><g id="link_ListRequestController_AuthenticationRepository"><path codeLine="56" d="M590.37,319.06 C608.52,349.96 627.3,381.94 641.08,405.39 " fill="none" id="ListRequestController-to-AuthenticationRepository" style="stroke:#181818;stroke-width:1.0;"/><polygon fill="#181818" points="643.77,409.96,642.656,400.1743,641.2355,405.65,635.7599,404.2295,643.77,409.96" style="stroke:#181818;stroke-width:1.0;"/></g><!--link ListRequestController to AgentRepository--><g id="link_ListRequestController_AgentRepository"><path codeLine="57" d="M622.61,277.67 C668.54,307.78 724.91,345.03 775,379 C784.68,385.57 794.91,392.6 804.84,399.48 " fill="none" id="ListRequestController-to-AgentRepository" style="stroke:#181818;stroke-width:1.0;"/><polygon fill="#181818" points="809.08,402.42,803.9693,394.001,804.9732,399.568,799.4061,400.5719,809.08,402.42" style="stroke:#181818;stroke-width:1.0;"/></g><!--link Agent to AgentRepository--><g id="link_Agent_AgentRepository"><path codeLine="59" d="M864,249.01 C864,287.53 864,353.51 864,397.19 " fill="none" id="Agent-to-AgentRepository" style="stroke:#181818;stroke-width:1.0;"/><polygon fill="#181818" points="864,402.4,868,393.4,864,397.4,860,393.4,864,402.4" style="stroke:#181818;stroke-width:1.0;"/></g><!--SRC=[VL9BReCm4DtFALYsYhX15IcbLOjKDbI9rALbfc35sAa_2uHwzzf07HCWEx-Vvit8b1Ejam-cJOa_5hLvE-P93_0BG6-bJ0gZ9EUeUaXBl4ZDZ5GCTQ8Y0B2hqHo4a5PGR56OXyU1oeKsn54UqWRfkM326jG1lqkh0lX2SWM5czm4z4AwyCw_JuIpwiJSU4-IgYfGQrBxCM69k6mFknXEvGxMDAugeyGmAOAXM-dku3HYOOktrZCrL5b4tItzZPycOV_lyEI6bCdsmj6CbhYG9-9XMrlrGoYpIZdrg55zkhnppBArqsOriIMCZtjwxRbxzSGYqyDeTEpDlqhJ_Vf_cZclz10ePtzhsxSux1tlrbtkHURd01Y8LGNW3m00]--></g></svg>