<?xml version="1.0" encoding="us-ascii" standalone="no"?><svg xmlns="http://www.w3.org/2000/svg" xmlns:xlink="http://www.w3.org/1999/xlink" contentStyleType="text/css" height="1217px" preserveAspectRatio="none" style="width:1360px;height:1217px;background:#FFFFFF;" version="1.1" viewBox="0 0 1360 1217" width="1360px" zoomAndPan="magnify"><defs/><g><text fill="#000000" font-family="sans-serif" font-size="14" font-weight="bold" lengthAdjust="spacing" textLength="324" x="517.25" y="27.6738">US015 - Main activity Flux (Sequence Diagram)</text><rect fill="#FFFFFF" height="1001.5625" style="stroke:#181818;stroke-width:1.0;" width="10" x="36.5" y="127.2813"/><rect fill="#FFFFFF" height="370.0391" style="stroke:#181818;stroke-width:1.0;" width="10" x="457.5" y="147.8047"/><rect fill="#FFFFFF" height="70.0469" style="stroke:#181818;stroke-width:1.0;" width="10" x="457.5" y="546.3672"/><rect fill="#FFFFFF" height="483.9063" style="stroke:#181818;stroke-width:1.0;" width="10" x="457.5" y="644.9375"/><rect fill="#FFFFFF" height="188.8984" style="stroke:#181818;stroke-width:1.0;" width="10" x="670.5" y="186.3281"/><rect fill="#FFFFFF" height="85.5703" style="stroke:#181818;stroke-width:1.0;" width="10" x="670.5" y="403.75"/><rect fill="#FFFFFF" height="144.0938" style="stroke:#181818;stroke-width:1.0;" width="10" x="670.5" y="714.9844"/><rect fill="#FFFFFF" height="28.5234" style="stroke:#181818;stroke-width:1.0;" width="10" x="804.5" y="232.6094"/><rect fill="#FFFFFF" height="28.5234" style="stroke:#181818;stroke-width:1.0;" width="10" x="932.5" y="289.6563"/><rect fill="#FFFFFF" height="28.5234" style="stroke:#181818;stroke-width:1.0;" width="10" x="932.5" y="432.2734"/><rect fill="#FFFFFF" height="28.5234" style="stroke:#181818;stroke-width:1.0;" width="10" x="1101.5" y="346.7031"/><rect fill="#FFFFFF" height="58.5234" style="stroke:#181818;stroke-width:1.0;" width="10" x="1101.5" y="743.5078"/><rect fill="#FFFFFF" height="58.5234" style="stroke:#181818;stroke-width:1.0;" width="10" x="1288.5" y="772.0313"/><rect fill="none" height="88.5703" style="stroke:#000000;stroke-width:1.5;" width="745" x="383" y="874.0781"/><rect fill="none" height="58.0469" style="stroke:#000000;stroke-width:1.5;" width="725" x="393" y="897.6016"/><rect fill="none" height="87.8594" style="stroke:#000000;stroke-width:1.5;" width="522" x="10" y="1032.9844"/><line style="stroke:#181818;stroke-width:0.5;stroke-dasharray:5.0,5.0;" x1="41" x2="41" y1="117.2813" y2="1137.8438"/><line style="stroke:#181818;stroke-width:0.5;stroke-dasharray:5.0,5.0;" x1="462" x2="462" y1="117.2813" y2="1137.8438"/><line style="stroke:#181818;stroke-width:0.5;stroke-dasharray:5.0,5.0;" x1="675" x2="675" y1="193.9453" y2="1137.8438"/><line style="stroke:#181818;stroke-width:0.5;stroke-dasharray:5.0,5.0;" x1="809" x2="809" y1="117.2813" y2="1137.8438"/><line style="stroke:#181818;stroke-width:0.5;stroke-dasharray:5.0,5.0;" x1="937" x2="937" y1="117.2813" y2="1137.8438"/><line style="stroke:#181818;stroke-width:0.5;stroke-dasharray:5.0,5.0;" x1="1106" x2="1106" y1="117.2813" y2="1137.8438"/><line style="stroke:#181818;stroke-width:0.5;stroke-dasharray:5.0,5.0;" x1="1293.5" x2="1293.5" y1="117.2813" y2="1137.8438"/><text fill="#000000" font-family="sans-serif" font-size="14" lengthAdjust="spacing" textLength="37" x="20" y="114.3145">Agent</text><ellipse cx="41.5" cy="50.1406" fill="#E2E2F0" rx="8" ry="8" style="stroke:#181818;stroke-width:0.5;"/><path d="M41.5,58.1406 L41.5,85.1406 M28.5,66.1406 L54.5,66.1406 M41.5,85.1406 L28.5,100.1406 M41.5,85.1406 L54.5,100.1406 " fill="none" style="stroke:#181818;stroke-width:0.5;"/><text fill="#000000" font-family="sans-serif" font-size="14" lengthAdjust="spacing" textLength="37" x="20" y="1149.5176">Agent</text><ellipse cx="41.5" cy="1160.9844" fill="#E2E2F0" rx="8" ry="8" style="stroke:#181818;stroke-width:0.5;"/><path d="M41.5,1168.9844 L41.5,1195.9844 M28.5,1176.9844 L54.5,1176.9844 M41.5,1195.9844 L28.5,1210.9844 M41.5,1195.9844 L54.5,1210.9844 " fill="none" style="stroke:#181818;stroke-width:0.5;"/><rect fill="#E2E2F0" height="29.6406" rx="2.5" ry="2.5" style="stroke:#181818;stroke-width:0.5;" width="119" x="403" y="86.6406"/><text fill="#000000" font-family="sans-serif" font-size="14" lengthAdjust="spacing" textLength="105" x="410" y="106.3145">ListRequestsGUI</text><rect fill="#E2E2F0" height="29.6406" rx="2.5" ry="2.5" style="stroke:#181818;stroke-width:0.5;" width="119" x="403" y="1136.8438"/><text fill="#000000" font-family="sans-serif" font-size="14" lengthAdjust="spacing" textLength="105" x="410" y="1156.5176">ListRequestsGUI</text><rect fill="#E2E2F0" height="45.2813" rx="2.5" ry="2.5" style="stroke:#181818;stroke-width:0.5;" width="155" x="598" y="1136.8438"/><text fill="#000000" font-family="sans-serif" font-size="14" lengthAdjust="spacing" textLength="59" x="646" y="1156.5176">controller</text><text fill="#000000" font-family="sans-serif" font-size="14" lengthAdjust="spacing" textLength="141" x="605" y="1172.1582">:ListRequestController</text><rect fill="#E2E2F0" height="45.2813" rx="2.5" ry="2.5" style="stroke:#181818;stroke-width:0.5;" width="93" x="763" y="71"/><text fill="#000000" font-family="sans-serif" font-size="14" lengthAdjust="spacing" textLength="78" x="770.5" y="90.6738">:repositories</text><text fill="#000000" font-family="sans-serif" font-size="14" lengthAdjust="spacing" textLength="79" x="770" y="106.3145">Repositories</text><rect fill="#E2E2F0" height="45.2813" rx="2.5" ry="2.5" style="stroke:#181818;stroke-width:0.5;" width="93" x="763" y="1136.8438"/><text fill="#000000" font-family="sans-serif" font-size="14" lengthAdjust="spacing" textLength="78" x="770.5" y="1156.5176">:repositories</text><text fill="#000000" font-family="sans-serif" font-size="14" lengthAdjust="spacing" textLength="79" x="770" y="1172.1582">Repositories</text><rect fill="#E2E2F0" height="45.2813" rx="2.5" ry="2.5" style="stroke:#181818;stroke-width:0.5;" width="143" x="866" y="71"/><text fill="#000000" font-family="sans-serif" font-size="14" lengthAdjust="spacing" textLength="129" x="873" y="90.6738">:messageRepository</text><text fill="#000000" font-family="sans-serif" font-size="14" lengthAdjust="spacing" textLength="125" x="875" y="106.3145">MessageRepository</text><rect fill="#E2E2F0" height="45.2813" rx="2.5" ry="2.5" style="stroke:#181818;stroke-width:0.5;" width="143" x="866" y="1136.8438"/><text fill="#000000" font-family="sans-serif" font-size="14" lengthAdjust="spacing" textLength="129" x="873" y="1156.5176">:messageRepository</text><text fill="#000000" font-family="sans-serif" font-size="14" lengthAdjust="spacing" textLength="125" x="875" y="1172.1582">MessageRepository</text><rect fill="#E2E2F0" height="45.2813" rx="2.5" ry="2.5" style="stroke:#181818;stroke-width:0.5;" width="175" x="1019" y="71"/><text fill="#000000" font-family="sans-serif" font-size="14" lengthAdjust="spacing" textLength="161" x="1026" y="90.6738">:authenticationRepository</text><text fill="#000000" font-family="sans-serif" font-size="14" lengthAdjust="spacing" textLength="158" x="1027.5" y="106.3145">AuthenticationRepository</text><rect fill="#E2E2F0" height="45.2813" rx="2.5" ry="2.5" style="stroke:#181818;stroke-width:0.5;" width="175" x="1019" y="1136.8438"/><text fill="#000000" font-family="sans-serif" font-size="14" lengthAdjust="spacing" textLength="161" x="1026" y="1156.5176">:authenticationRepository</text><text fill="#000000" font-family="sans-serif" font-size="14" lengthAdjust="spacing" textLength="158" x="1027.5" y="1172.1582">AuthenticationRepository</text><rect fill="#E2E2F0" height="45.2813" rx="2.5" ry="2.5" style="stroke:#181818;stroke-width:0.5;" width="122" x="1232.5" y="71"/><text fill="#000000" font-family="sans-serif" font-size="14" lengthAdjust="spacing" textLength="108" x="1239.5" y="90.6738">:agentRepository</text><text fill="#000000" font-family="sans-serif" font-size="14" lengthAdjust="spacing" textLength="105" x="1241" y="106.3145">AgentRepository</text><rect fill="#E2E2F0" height="45.2813" rx="2.5" ry="2.5" style="stroke:#181818;stroke-width:0.5;" width="122" x="1232.5" y="1136.8438"/><text fill="#000000" font-family="sans-serif" font-size="14" lengthAdjust="spacing" textLength="108" x="1239.5" y="1156.5176">:agentRepository</text><text fill="#000000" font-family="sans-serif" font-size="14" lengthAdjust="spacing" textLength="105" x="1241" y="1172.1582">AgentRepository</text><rect fill="#FFFFFF" height="1001.5625" style="stroke:#181818;stroke-width:1.0;" width="10" x="36.5" y="127.2813"/><rect fill="#FFFFFF" height="370.0391" style="stroke:#181818;stroke-width:1.0;" width="10" x="457.5" y="147.8047"/><rect fill="#FFFFFF" height="70.0469" style="stroke:#181818;stroke-width:1.0;" width="10" x="457.5" y="546.3672"/><rect fill="#FFFFFF" height="483.9063" style="stroke:#181818;stroke-width:1.0;" width="10" x="457.5" y="644.9375"/><rect fill="#FFFFFF" height="188.8984" style="stroke:#181818;stroke-width:1.0;" width="10" x="670.5" y="186.3281"/><rect fill="#FFFFFF" height="85.5703" style="stroke:#181818;stroke-width:1.0;" width="10" x="670.5" y="403.75"/><rect fill="#FFFFFF" height="144.0938" style="stroke:#181818;stroke-width:1.0;" width="10" x="670.5" y="714.9844"/><rect fill="#FFFFFF" height="28.5234" style="stroke:#181818;stroke-width:1.0;" width="10" x="804.5" y="232.6094"/><rect fill="#FFFFFF" height="28.5234" style="stroke:#181818;stroke-width:1.0;" width="10" x="932.5" y="289.6563"/><rect fill="#FFFFFF" height="28.5234" style="stroke:#181818;stroke-width:1.0;" width="10" x="932.5" y="432.2734"/><rect fill="#FFFFFF" height="28.5234" style="stroke:#181818;stroke-width:1.0;" width="10" x="1101.5" y="346.7031"/><rect fill="#FFFFFF" height="58.5234" style="stroke:#181818;stroke-width:1.0;" width="10" x="1101.5" y="743.5078"/><rect fill="#FFFFFF" height="58.5234" style="stroke:#181818;stroke-width:1.0;" width="10" x="1288.5" y="772.0313"/><polygon fill="#181818" points="445.5,143.8047,455.5,147.8047,445.5,151.8047,449.5,147.8047" style="stroke:#181818;stroke-width:1.0;"/><line style="stroke:#181818;stroke-width:1.0;" x1="46.5" x2="451.5" y1="147.8047" y2="147.8047"/><text fill="#000000" font-family="sans-serif" font-size="13" font-weight="bold" lengthAdjust="spacing" textLength="7" x="53.5" y="143.0498">1</text><text fill="#000000" font-family="sans-serif" font-size="13" lengthAdjust="spacing" textLength="264" x="64.5" y="143.0498">asks to see the list of booking request for him</text><polygon fill="#181818" points="586,172.3281,596,176.3281,586,180.3281,590,176.3281" style="stroke:#181818;stroke-width:1.0;"/><line style="stroke:#181818;stroke-width:1.0;" x1="467.5" x2="592" y1="176.3281" y2="176.3281"/><text fill="#000000" font-family="sans-serif" font-size="13" font-weight="bold" lengthAdjust="spacing" textLength="7" x="474.5" y="171.5732">2</text><text fill="#000000" font-family="sans-serif" font-size="13" lengthAdjust="spacing" textLength="36" x="485.5" y="171.5732">create</text><rect fill="#E2E2F0" height="45.2813" rx="2.5" ry="2.5" style="stroke:#181818;stroke-width:0.5;" width="155" x="598" y="155.8047"/><text fill="#000000" font-family="sans-serif" font-size="14" lengthAdjust="spacing" textLength="59" x="646" y="175.4785">controller</text><text fill="#000000" font-family="sans-serif" font-size="14" lengthAdjust="spacing" textLength="141" x="605" y="191.1191">:ListRequestController</text><polygon fill="#181818" points="792.5,228.6094,802.5,232.6094,792.5,236.6094,796.5,232.6094" style="stroke:#181818;stroke-width:1.0;"/><line style="stroke:#181818;stroke-width:1.0;" x1="680.5" x2="798.5" y1="232.6094" y2="232.6094"/><text fill="#000000" font-family="sans-serif" font-size="13" font-weight="bold" lengthAdjust="spacing" textLength="7" x="687.5" y="227.8545">3</text><text fill="#000000" font-family="sans-serif" font-size="13" lengthAdjust="spacing" textLength="75" x="698.5" y="227.8545">getInstance()</text><polygon fill="#181818" points="691.5,257.1328,681.5,261.1328,691.5,265.1328,687.5,261.1328" style="stroke:#181818;stroke-width:1.0;"/><line style="stroke:#181818;stroke-width:1.0;stroke-dasharray:2.0,2.0;" x1="685.5" x2="808.5" y1="261.1328" y2="261.1328"/><text fill="#000000" font-family="sans-serif" font-size="13" font-weight="bold" lengthAdjust="spacing" textLength="7" x="697.5" y="256.3779">4</text><text fill="#000000" font-family="sans-serif" font-size="13" lengthAdjust="spacing" textLength="67" x="708.5" y="256.3779">repositories</text><polygon fill="#181818" points="920.5,285.6563,930.5,289.6563,920.5,293.6563,924.5,289.6563" style="stroke:#181818;stroke-width:1.0;"/><line style="stroke:#181818;stroke-width:1.0;" x1="680.5" x2="926.5" y1="289.6563" y2="289.6563"/><text fill="#000000" font-family="sans-serif" font-size="13" font-weight="bold" lengthAdjust="spacing" textLength="7" x="687.5" y="284.9014">5</text><text fill="#000000" font-family="sans-serif" font-size="13" lengthAdjust="spacing" textLength="141" x="698.5" y="284.9014">getMessageRepository()</text><polygon fill="#181818" points="691.5,314.1797,681.5,318.1797,691.5,322.1797,687.5,318.1797" style="stroke:#181818;stroke-width:1.0;"/><line style="stroke:#181818;stroke-width:1.0;stroke-dasharray:2.0,2.0;" x1="685.5" x2="936.5" y1="318.1797" y2="318.1797"/><text fill="#000000" font-family="sans-serif" font-size="13" font-weight="bold" lengthAdjust="spacing" textLength="7" x="697.5" y="313.4248">6</text><text fill="#000000" font-family="sans-serif" font-size="13" lengthAdjust="spacing" textLength="115" x="708.5" y="313.4248">messageRepository</text><polygon fill="#181818" points="1089.5,342.7031,1099.5,346.7031,1089.5,350.7031,1093.5,346.7031" style="stroke:#181818;stroke-width:1.0;"/><line style="stroke:#181818;stroke-width:1.0;" x1="680.5" x2="1095.5" y1="346.7031" y2="346.7031"/><text fill="#000000" font-family="sans-serif" font-size="13" font-weight="bold" lengthAdjust="spacing" textLength="7" x="687.5" y="341.9482">7</text><text fill="#000000" font-family="sans-serif" font-size="13" lengthAdjust="spacing" textLength="171" x="698.5" y="341.9482">getAuthenticationRepository()</text><polygon fill="#181818" points="686.5,371.2266,676.5,375.2266,686.5,379.2266,682.5,375.2266" style="stroke:#181818;stroke-width:1.0;"/><line style="stroke:#181818;stroke-width:1.0;stroke-dasharray:2.0,2.0;" x1="680.5" x2="1105.5" y1="375.2266" y2="375.2266"/><text fill="#000000" font-family="sans-serif" font-size="13" font-weight="bold" lengthAdjust="spacing" textLength="7" x="692.5" y="370.4717">8</text><text fill="#000000" font-family="sans-serif" font-size="13" lengthAdjust="spacing" textLength="143" x="703.5" y="370.4717">authenticationRepository</text><polygon fill="#181818" points="658.5,399.75,668.5,403.75,658.5,407.75,662.5,403.75" style="stroke:#181818;stroke-width:1.0;"/><line style="stroke:#181818;stroke-width:1.0;" x1="467.5" x2="664.5" y1="403.75" y2="403.75"/><text fill="#000000" font-family="sans-serif" font-size="13" font-weight="bold" lengthAdjust="spacing" textLength="7" x="474.5" y="398.9951">9</text><text fill="#000000" font-family="sans-serif" font-size="13" lengthAdjust="spacing" textLength="74" x="485.5" y="398.9951">getRequest()</text><polygon fill="#181818" points="920.5,428.2734,930.5,432.2734,920.5,436.2734,924.5,432.2734" style="stroke:#181818;stroke-width:1.0;"/><line style="stroke:#181818;stroke-width:1.0;" x1="680.5" x2="926.5" y1="432.2734" y2="432.2734"/><text fill="#000000" font-family="sans-serif" font-size="13" font-weight="bold" lengthAdjust="spacing" textLength="14" x="687.5" y="427.5186">10</text><text fill="#000000" font-family="sans-serif" font-size="13" lengthAdjust="spacing" textLength="74" x="705.5" y="427.5186">getRequest()</text><polygon fill="#181818" points="691.5,456.7969,681.5,460.7969,691.5,464.7969,687.5,460.7969" style="stroke:#181818;stroke-width:1.0;"/><line style="stroke:#181818;stroke-width:1.0;stroke-dasharray:2.0,2.0;" x1="685.5" x2="936.5" y1="460.7969" y2="460.7969"/><text fill="#000000" font-family="sans-serif" font-size="13" font-weight="bold" lengthAdjust="spacing" textLength="14" x="697.5" y="456.042">11</text><text fill="#000000" font-family="sans-serif" font-size="13" lengthAdjust="spacing" textLength="64" x="715.5" y="456.042">requestList</text><polygon fill="#181818" points="478.5,485.3203,468.5,489.3203,478.5,493.3203,474.5,489.3203" style="stroke:#181818;stroke-width:1.0;"/><line style="stroke:#181818;stroke-width:1.0;stroke-dasharray:2.0,2.0;" x1="472.5" x2="674.5" y1="489.3203" y2="489.3203"/><text fill="#000000" font-family="sans-serif" font-size="13" font-weight="bold" lengthAdjust="spacing" textLength="14" x="484.5" y="484.5654">12</text><text fill="#000000" font-family="sans-serif" font-size="13" lengthAdjust="spacing" textLength="64" x="502.5" y="484.5654">requestList</text><polygon fill="#181818" points="57.5,513.8438,47.5,517.8438,57.5,521.8438,53.5,517.8438" style="stroke:#181818;stroke-width:1.0;"/><line style="stroke:#181818;stroke-width:1.0;stroke-dasharray:2.0,2.0;" x1="51.5" x2="461.5" y1="517.8438" y2="517.8438"/><text fill="#000000" font-family="sans-serif" font-size="13" font-weight="bold" lengthAdjust="spacing" textLength="14" x="63.5" y="513.0889">13</text><text fill="#000000" font-family="sans-serif" font-size="13" lengthAdjust="spacing" textLength="119" x="81.5" y="513.0889">Requests begin data</text><polygon fill="#181818" points="445.5,542.3672,455.5,546.3672,445.5,550.3672,449.5,546.3672" style="stroke:#181818;stroke-width:1.0;"/><line style="stroke:#181818;stroke-width:1.0;" x1="46.5" x2="451.5" y1="546.3672" y2="546.3672"/><text fill="#000000" font-family="sans-serif" font-size="13" font-weight="bold" lengthAdjust="spacing" textLength="14" x="53.5" y="541.6123">14</text><text fill="#000000" font-family="sans-serif" font-size="13" lengthAdjust="spacing" textLength="101" x="71.5" y="541.6123">Select begin data</text><line style="stroke:#181818;stroke-width:1.0;" x1="467.5" x2="509.5" y1="574.8906" y2="574.8906"/><line style="stroke:#181818;stroke-width:1.0;" x1="509.5" x2="509.5" y1="574.8906" y2="587.8906"/><line style="stroke:#181818;stroke-width:1.0;" x1="468.5" x2="509.5" y1="587.8906" y2="587.8906"/><polygon fill="#181818" points="478.5,583.8906,468.5,587.8906,478.5,591.8906,474.5,587.8906" style="stroke:#181818;stroke-width:1.0;"/><text fill="#000000" font-family="sans-serif" font-size="13" font-weight="bold" lengthAdjust="spacing" textLength="14" x="474.5" y="570.1357">15</text><text fill="#000000" font-family="sans-serif" font-size="13" lengthAdjust="spacing" textLength="122" x="492.5" y="570.1357">keepBeginDate(start)</text><polygon fill="#181818" points="57.5,612.4141,47.5,616.4141,57.5,620.4141,53.5,616.4141" style="stroke:#181818;stroke-width:1.0;"/><line style="stroke:#181818;stroke-width:1.0;stroke-dasharray:2.0,2.0;" x1="51.5" x2="461.5" y1="616.4141" y2="616.4141"/><text fill="#000000" font-family="sans-serif" font-size="13" font-weight="bold" lengthAdjust="spacing" textLength="14" x="63.5" y="611.6592">16</text><text fill="#000000" font-family="sans-serif" font-size="13" lengthAdjust="spacing" textLength="109" x="81.5" y="611.6592">Requests end data</text><polygon fill="#181818" points="445.5,640.9375,455.5,644.9375,445.5,648.9375,449.5,644.9375" style="stroke:#181818;stroke-width:1.0;"/><line style="stroke:#181818;stroke-width:1.0;" x1="46.5" x2="451.5" y1="644.9375" y2="644.9375"/><text fill="#000000" font-family="sans-serif" font-size="13" font-weight="bold" lengthAdjust="spacing" textLength="14" x="53.5" y="640.1826">17</text><text fill="#000000" font-family="sans-serif" font-size="13" lengthAdjust="spacing" textLength="91" x="71.5" y="640.1826">Select end data</text><line style="stroke:#181818;stroke-width:1.0;" x1="467.5" x2="509.5" y1="673.4609" y2="673.4609"/><line style="stroke:#181818;stroke-width:1.0;" x1="509.5" x2="509.5" y1="673.4609" y2="686.4609"/><line style="stroke:#181818;stroke-width:1.0;" x1="468.5" x2="509.5" y1="686.4609" y2="686.4609"/><polygon fill="#181818" points="478.5,682.4609,468.5,686.4609,478.5,690.4609,474.5,686.4609" style="stroke:#181818;stroke-width:1.0;"/><text fill="#000000" font-family="sans-serif" font-size="13" font-weight="bold" lengthAdjust="spacing" textLength="14" x="474.5" y="668.7061">18</text><text fill="#000000" font-family="sans-serif" font-size="13" lengthAdjust="spacing" textLength="107" x="492.5" y="668.7061">keepEndDate(end)</text><polygon fill="#181818" points="658.5,710.9844,668.5,714.9844,658.5,718.9844,662.5,714.9844" style="stroke:#181818;stroke-width:1.0;"/><line style="stroke:#181818;stroke-width:1.0;" x1="467.5" x2="664.5" y1="714.9844" y2="714.9844"/><text fill="#000000" font-family="sans-serif" font-size="13" font-weight="bold" lengthAdjust="spacing" textLength="14" x="474.5" y="710.2295">19</text><text fill="#000000" font-family="sans-serif" font-size="13" lengthAdjust="spacing" textLength="102" x="492.5" y="710.2295">getCurrentAgent()</text><polygon fill="#181818" points="1089.5,739.5078,1099.5,743.5078,1089.5,747.5078,1093.5,743.5078" style="stroke:#181818;stroke-width:1.0;"/><line style="stroke:#181818;stroke-width:1.0;" x1="680.5" x2="1095.5" y1="743.5078" y2="743.5078"/><text fill="#000000" font-family="sans-serif" font-size="13" font-weight="bold" lengthAdjust="spacing" textLength="14" x="687.5" y="738.7529">20</text><text fill="#000000" font-family="sans-serif" font-size="13" lengthAdjust="spacing" textLength="142" x="705.5" y="738.7529">getCurrentUserSession()</text><polygon fill="#181818" points="1276.5,768.0313,1286.5,772.0313,1276.5,776.0313,1280.5,772.0313" style="stroke:#181818;stroke-width:1.0;"/><line style="stroke:#181818;stroke-width:1.0;stroke-dasharray:2.0,2.0;" x1="1111.5" x2="1282.5" y1="772.0313" y2="772.0313"/><text fill="#000000" font-family="sans-serif" font-size="13" font-weight="bold" lengthAdjust="spacing" textLength="14" x="1118.5" y="767.2764">21</text><text fill="#000000" font-family="sans-serif" font-size="13" lengthAdjust="spacing" textLength="140" x="1136.5" y="767.2764">getAgentByEmail(email)</text><polygon fill="#181818" points="691.5,826.5547,681.5,830.5547,691.5,834.5547,687.5,830.5547" style="stroke:#181818;stroke-width:1.0;"/><line style="stroke:#181818;stroke-width:1.0;stroke-dasharray:2.0,2.0;" x1="685.5" x2="1292.5" y1="830.5547" y2="830.5547"/><text fill="#000000" font-family="sans-serif" font-size="13" font-weight="bold" lengthAdjust="spacing" textLength="14" x="697.5" y="825.7998">22</text><text fill="#000000" font-family="sans-serif" font-size="13" lengthAdjust="spacing" textLength="82" x="715.5" y="825.7998">loggedInAgent</text><polygon fill="#181818" points="478.5,855.0781,468.5,859.0781,478.5,863.0781,474.5,859.0781" style="stroke:#181818;stroke-width:1.0;"/><line style="stroke:#181818;stroke-width:1.0;stroke-dasharray:2.0,2.0;" x1="472.5" x2="674.5" y1="859.0781" y2="859.0781"/><text fill="#000000" font-family="sans-serif" font-size="13" font-weight="bold" lengthAdjust="spacing" textLength="14" x="484.5" y="854.3232">23</text><text fill="#000000" font-family="sans-serif" font-size="13" lengthAdjust="spacing" textLength="82" x="502.5" y="854.3232">loggedInAgent</text><path d="M383,874.0781 L456,874.0781 L456,880.6016 L446,890.6016 L383,890.6016 L383,874.0781 " fill="#EEEEEE" style="stroke:#000000;stroke-width:1.5;"/><rect fill="none" height="88.5703" style="stroke:#000000;stroke-width:1.5;" width="745" x="383" y="874.0781"/><text fill="#000000" font-family="sans-serif" font-size="13" font-weight="bold" lengthAdjust="spacing" textLength="28" x="398" y="886.8467">loop</text><text fill="#000000" font-family="sans-serif" font-size="11" font-weight="bold" lengthAdjust="spacing" textLength="200" x="471" y="886.0361">[while request list is not read in full]</text><path d="M393,897.6016 L454,897.6016 L454,904.125 L444,914.125 L393,914.125 L393,897.6016 " fill="#EEEEEE" style="stroke:#000000;stroke-width:1.5;"/><rect fill="none" height="58.0469" style="stroke:#000000;stroke-width:1.5;" width="725" x="393" y="897.6016"/><text fill="#000000" font-family="sans-serif" font-size="13" font-weight="bold" lengthAdjust="spacing" textLength="16" x="408" y="910.3701">alt</text><text fill="#000000" font-family="sans-serif" font-size="11" font-weight="bold" lengthAdjust="spacing" textLength="644" x="469" y="909.5596">[if loggedInAgent is equals to agent in requestList and exists request for that agent and exist a request for that date]</text><line style="stroke:#181818;stroke-width:1.0;" x1="467.5" x2="509.5" y1="934.6484" y2="934.6484"/><line style="stroke:#181818;stroke-width:1.0;" x1="509.5" x2="509.5" y1="934.6484" y2="947.6484"/><line style="stroke:#181818;stroke-width:1.0;" x1="468.5" x2="509.5" y1="947.6484" y2="947.6484"/><polygon fill="#181818" points="478.5,943.6484,468.5,947.6484,478.5,951.6484,474.5,947.6484" style="stroke:#181818;stroke-width:1.0;"/><text fill="#000000" font-family="sans-serif" font-size="13" font-weight="bold" lengthAdjust="spacing" textLength="14" x="474.5" y="929.8936">24</text><text fill="#000000" font-family="sans-serif" font-size="13" lengthAdjust="spacing" textLength="171" x="492.5" y="929.8936">requestsAgent.add(requests);</text><rect fill="none" height="51.3359" style="stroke:#000000;stroke-width:1.5;" width="185" x="400" y="969.6484"/><path d="M400,969.6484 L462,969.6484 L462,975.6484 L452,985.6484 L400,985.6484 L400,969.6484 " fill="#EEEEEE" style="stroke:#000000;stroke-width:2.0;"/><text fill="#000000" font-family="sans-serif" font-size="13" font-weight="bold" lengthAdjust="spacing" textLength="17" x="413" y="983.417">ref</text><text fill="#000000" font-family="sans-serif" font-size="12" lengthAdjust="spacing" textLength="177" x="404" y="1000.5117">Alternative flux (Sorting Methods)</text><text fill="#000000" font-family="sans-serif" font-size="12" lengthAdjust="spacing" textLength="3" x="491" y="1013.918">&#160;</text><path d="M10,1032.9844 L71,1032.9844 L71,1039.5078 L61,1049.5078 L10,1049.5078 L10,1032.9844 " fill="#EEEEEE" style="stroke:#000000;stroke-width:1.5;"/><rect fill="none" height="87.8594" style="stroke:#000000;stroke-width:1.5;" width="522" x="10" y="1032.9844"/><text fill="#000000" font-family="sans-serif" font-size="13" font-weight="bold" lengthAdjust="spacing" textLength="16" x="25" y="1045.7529">alt</text><text fill="#000000" font-family="sans-serif" font-size="11" font-weight="bold" lengthAdjust="spacing" textLength="127" x="86" y="1044.9424">[if sortedList is empty]</text><polygon fill="#181818" points="57.5,1066.0313,47.5,1070.0313,57.5,1074.0313,53.5,1070.0313" style="stroke:#181818;stroke-width:1.0;"/><line style="stroke:#181818;stroke-width:1.0;" x1="51.5" x2="456.5" y1="1070.0313" y2="1070.0313"/><text fill="#000000" font-family="sans-serif" font-size="13" font-weight="bold" lengthAdjust="spacing" textLength="14" x="63.5" y="1065.2764">25</text><text fill="#000000" font-family="sans-serif" font-size="13" lengthAdjust="spacing" textLength="369" x="81.5" y="1065.2764">Show message:"There is no request associated with this agent"</text><line style="stroke:#000000;stroke-width:1.0;stroke-dasharray:2.0,2.0;" x1="10" x2="532" y1="1079.0313" y2="1079.0313"/><text fill="#000000" font-family="sans-serif" font-size="11" font-weight="bold" lengthAdjust="spacing" textLength="142" x="15" y="1088.9893">[if sortedList isn&#180;t empty]</text><polygon fill="#181818" points="57.5,1108.8438,47.5,1112.8438,57.5,1116.8438,53.5,1112.8438" style="stroke:#181818;stroke-width:1.0;"/><line style="stroke:#181818;stroke-width:1.0;" x1="51.5" x2="456.5" y1="1112.8438" y2="1112.8438"/><text fill="#000000" font-family="sans-serif" font-size="13" font-weight="bold" lengthAdjust="spacing" textLength="14" x="63.5" y="1108.0889">26</text><text fill="#000000" font-family="sans-serif" font-size="13" lengthAdjust="spacing" textLength="93" x="81.5" y="1108.0889">Show sortedList</text><!--SRC=[XLLBRjim4Dth50Elx00fsaKtAb30ITpKGDBMlrqsZ3IMYD2aIz99VA-Ue2VhaDJ_usfXI-IycJSpZqDsiagU3i-e8vPOfM4opr3Q2J03y_l5ZsrqPDhoX1-Pj31vuCQkyVS9ZJNtkwKtsotRDecILYiXK3_9k06uhTOzx7QxVcW3Our7PJYnu6YUvBhnvH7hnQ-V7SG1ZM4PLgRd9_dONIgmgm4uEzcSikK9irp9ffVvo4uep6xxVSYRgrpBINkXBge7HvPRWJ3PRJv- -WpNyCYu16e2V-Ns3D_4wHsc6rSwcI3SSPPfTfXD8dgy4RDOT2W2UlmhN7-bTa1CWLuCM0K64IWH4DG6K7juLkg5omnqQ0digUCvFtWFbLTggFlUBScRwzBLLGo9Hjfgs_aE-YNtvcAxl2XwXdOfZML4V3fhOqBcRiczNHSHOcYstc-dE82fuwpgKBs6zsEkcc43j0nDFdeYwXDOzJcK8WWanlJIvL999pIjzD5WCwR9BgcsfyQ6Rmk43aBjbqWM1x7WDDpAiIgFOrlL6Qvm8JSt34ghiV9MyKifNyRMn5sohYt-7CHGJYbunepELSeiwnQAT3vqTZOeCB5TN0jL5zSZNX2FDyxyZWoc97njPvT9eKn7AOqoQe7-nsSXKy-6G85BLmot9wr9Ptv6XQxsYpgizGAvCwWtT7H8fHryIvejZLVJ3s9tQ5pic_FYmBYOellj-AbdvGNjrpuRYXCgop1TXX7SHTTkevxSBW6hkWYbZl2MSnhVvIJr4vORaChI6ak1nBC_2U4J4hIrRxjsjWHbmizf5fPaK-t0gD_upfrUclFQvimMWCe2MDyaTGCxQYkZC3AUmWUMfjDoPVR5sv9Sglzms3JkGRsYBgw5kR2e9SscLuHzkACKNO9qfpoYpLLgPYNU8QD6-eRiC7qeweI7eptNxCeJiidLMpcGuyasHusXgbL-p1YLSCejXJTkSygLzdqv9g6VA0psuic_V-p5cBLrcVu_]--></g></svg>