<?xml version="1.0" encoding="us-ascii" standalone="no"?><svg xmlns="http://www.w3.org/2000/svg" xmlns:xlink="http://www.w3.org/1999/xlink" contentStyleType="text/css" height="887px" preserveAspectRatio="none" style="width:1159px;height:887px;background:#FFFFFF;" version="1.1" viewBox="0 0 1159 887" width="1159px" zoomAndPan="magnify"><defs/><g><!--class VisitRequestRepository--><g id="elem_VisitRequestRepository"><rect codeLine="5" fill="#F1F1F1" height="79.2813" id="VisitRequestRepository" rx="2.5" ry="2.5" style="stroke:#181818;stroke-width:0.5;" width="179" x="491" y="38.5"/><ellipse cx="506" cy="54.5" fill="#ADD1B2" rx="11" ry="11" style="stroke:#181818;stroke-width:1.0;"/><path d="M508.7656,50.375 Q508.9219,50.1563 509.1094,50.0469 Q509.2969,49.9375 509.5156,49.9375 Q509.8906,49.9375 510.125,50.2031 Q510.3594,50.4531 510.3594,51.0625 L510.3594,52.5156 Q510.3594,53.125 510.125,53.3906 Q509.8906,53.6563 509.5156,53.6563 Q509.1719,53.6563 508.9688,53.4531 Q508.7656,53.2656 508.6563,52.75 Q508.6094,52.3906 508.4219,52.2031 Q508.0938,51.8281 507.4844,51.6094 Q506.875,51.3906 506.25,51.3906 Q505.4844,51.3906 504.8438,51.7188 Q504.2188,52.0469 503.7188,52.7969 Q503.2344,53.5469 503.2344,54.5781 L503.2344,55.6719 Q503.2344,56.9063 504.125,57.7344 Q505.0156,58.5469 506.6094,58.5469 Q507.5469,58.5469 508.2031,58.2969 Q508.5938,58.1406 509.0156,57.7031 Q509.2813,57.4375 509.4219,57.3594 Q509.5781,57.2813 509.7813,57.2813 Q510.1094,57.2813 510.3594,57.5469 Q510.625,57.7969 510.625,58.1406 Q510.625,58.4844 510.2813,58.8906 Q509.7813,59.4688 508.9844,59.7969 Q507.9063,60.25 506.6094,60.25 Q505.0938,60.25 503.8906,59.625 Q502.9063,59.125 502.2188,58.0625 Q501.5313,56.9844 501.5313,55.7031 L501.5313,54.5469 Q501.5313,53.2188 502.1406,52.0781 Q502.7656,50.9219 503.8594,50.3125 Q504.9531,49.6875 506.1875,49.6875 Q506.9219,49.6875 507.5625,49.8594 Q508.2188,50.0156 508.7656,50.375 Z " fill="#000000"/><text fill="#000000" font-family="sans-serif" font-size="14" lengthAdjust="spacing" textLength="147" x="520" y="59.3535">VisitRequestRepository</text><line style="stroke:#181818;stroke-width:0.5;" x1="492" x2="669" y1="70.5" y2="70.5"/><line style="stroke:#181818;stroke-width:0.5;" x1="492" x2="669" y1="78.5" y2="78.5"/><rect fill="#F24D5C" height="6" style="stroke:#C82930;stroke-width:1.0;" width="6" x="499" y="88.8203"/><text fill="#000000" font-family="sans-serif" font-size="14" lengthAdjust="spacing" textLength="111" x="511" y="95.1738">add(visitRequest)</text><ellipse cx="502" cy="107.4609" fill="#84BE84" rx="3" ry="3" style="stroke:#038048;stroke-width:1.0;"/><text fill="#000000" font-family="sans-serif" font-size="14" lengthAdjust="spacing" textLength="110" x="511" y="110.8145">sortList(fileName)</text></g><!--class VisitRequest--><g id="elem_VisitRequest"><rect codeLine="10" fill="#F1F1F1" height="157.4844" id="VisitRequest" rx="2.5" ry="2.5" style="stroke:#181818;stroke-width:0.5;" width="149" x="734" y="210"/><ellipse cx="766.1" cy="226" fill="#ADD1B2" rx="11" ry="11" style="stroke:#181818;stroke-width:1.0;"/><path d="M768.8656,221.875 Q769.0219,221.6563 769.2094,221.5469 Q769.3969,221.4375 769.6156,221.4375 Q769.9906,221.4375 770.225,221.7031 Q770.4594,221.9531 770.4594,222.5625 L770.4594,224.0156 Q770.4594,224.625 770.225,224.8906 Q769.9906,225.1563 769.6156,225.1563 Q769.2719,225.1563 769.0688,224.9531 Q768.8656,224.7656 768.7563,224.25 Q768.7094,223.8906 768.5219,223.7031 Q768.1938,223.3281 767.5844,223.1094 Q766.975,222.8906 766.35,222.8906 Q765.5844,222.8906 764.9438,223.2188 Q764.3188,223.5469 763.8188,224.2969 Q763.3344,225.0469 763.3344,226.0781 L763.3344,227.1719 Q763.3344,228.4063 764.225,229.2344 Q765.1156,230.0469 766.7094,230.0469 Q767.6469,230.0469 768.3031,229.7969 Q768.6938,229.6406 769.1156,229.2031 Q769.3813,228.9375 769.5219,228.8594 Q769.6781,228.7813 769.8813,228.7813 Q770.2094,228.7813 770.4594,229.0469 Q770.725,229.2969 770.725,229.6406 Q770.725,229.9844 770.3813,230.3906 Q769.8813,230.9688 769.0844,231.2969 Q768.0063,231.75 766.7094,231.75 Q765.1938,231.75 763.9906,231.125 Q763.0063,230.625 762.3188,229.5625 Q761.6313,228.4844 761.6313,227.2031 L761.6313,226.0469 Q761.6313,224.7188 762.2406,223.5781 Q762.8656,222.4219 763.9594,221.8125 Q765.0531,221.1875 766.2875,221.1875 Q767.0219,221.1875 767.6625,221.3594 Q768.3188,221.5156 768.8656,221.875 Z " fill="#000000"/><text fill="#000000" font-family="sans-serif" font-size="14" lengthAdjust="spacing" textLength="79" x="783.9" y="230.8535">VisitRequest</text><line style="stroke:#181818;stroke-width:0.5;" x1="735" x2="882" y1="242" y2="242"/><rect fill="none" height="6" style="stroke:#C82930;stroke-width:1.0;" width="6" x="742" y="252.3203"/><text fill="#000000" font-family="sans-serif" font-size="14" lengthAdjust="spacing" textLength="57" x="754" y="258.6738">message</text><rect fill="none" height="6" style="stroke:#C82930;stroke-width:1.0;" width="6" x="742" y="267.9609"/><text fill="#000000" font-family="sans-serif" font-size="14" lengthAdjust="spacing" textLength="28" x="754" y="274.3145">date</text><rect fill="none" height="6" style="stroke:#C82930;stroke-width:1.0;" width="6" x="742" y="283.6016"/><text fill="#000000" font-family="sans-serif" font-size="14" lengthAdjust="spacing" textLength="50" x="754" y="289.9551">timeSolt</text><rect fill="none" height="6" style="stroke:#C82930;stroke-width:1.0;" width="6" x="742" y="299.2422"/><text fill="#000000" font-family="sans-serif" font-size="14" lengthAdjust="spacing" textLength="69" x="754" y="305.5957">clientName</text><rect fill="none" height="6" style="stroke:#C82930;stroke-width:1.0;" width="6" x="742" y="314.8828"/><text fill="#000000" font-family="sans-serif" font-size="14" lengthAdjust="spacing" textLength="123" x="754" y="321.2363">clientPhoneNumber</text><rect fill="none" height="6" style="stroke:#C82930;stroke-width:1.0;" width="6" x="742" y="330.5234"/><text fill="#000000" font-family="sans-serif" font-size="14" lengthAdjust="spacing" textLength="36" x="754" y="336.877">agent</text><rect fill="none" height="6" style="stroke:#C82930;stroke-width:1.0;" width="6" x="742" y="346.1641"/><text fill="#000000" font-family="sans-serif" font-size="14" lengthAdjust="spacing" textLength="53" x="754" y="352.5176">property</text><line style="stroke:#181818;stroke-width:0.5;" x1="735" x2="882" y1="359.4844" y2="359.4844"/></g><!--class SortingAlgorithm--><g id="elem_SortingAlgorithm"><rect codeLine="20" fill="#F1F1F1" height="63.6406" id="SortingAlgorithm" rx="2.5" ry="2.5" style="stroke:#181818;stroke-width:0.5;" width="136" x="318.5" y="256.5"/><ellipse cx="333.5" cy="272.5" fill="#B4A7E5" rx="11" ry="11" style="stroke:#181818;stroke-width:1.0;"/><path d="M334.4531,269.1406 L334.4531,275.7969 L336.1719,275.7969 Q336.7813,275.7969 337.0469,276.0313 Q337.3125,276.2656 337.3125,276.6563 Q337.3125,277.0313 337.0469,277.2656 Q336.7813,277.5 336.1719,277.5 L331.0313,277.5 Q330.4219,277.5 330.1563,277.2656 Q329.8906,277.0313 329.8906,276.6406 Q329.8906,276.2656 330.1563,276.0313 Q330.4219,275.7969 331.0313,275.7969 L332.75,275.7969 L332.75,269.1406 L331.0313,269.1406 Q330.4219,269.1406 330.1563,268.9063 Q329.8906,268.6719 329.8906,268.2813 Q329.8906,267.9063 330.1563,267.6719 Q330.4219,267.4375 331.0313,267.4375 L336.1719,267.4375 Q336.7813,267.4375 337.0469,267.6719 Q337.3125,267.9063 337.3125,268.2813 Q337.3125,268.6719 337.0469,268.9063 Q336.7813,269.1406 336.1719,269.1406 L334.4531,269.1406 Z " fill="#000000"/><text fill="#000000" font-family="sans-serif" font-size="14" font-style="italic" lengthAdjust="spacing" textLength="104" x="347.5" y="277.3535">SortingAlgorithm</text><line style="stroke:#181818;stroke-width:0.5;" x1="319.5" x2="453.5" y1="288.5" y2="288.5"/><line style="stroke:#181818;stroke-width:0.5;" x1="319.5" x2="453.5" y1="296.5" y2="296.5"/><text fill="#000000" font-family="sans-serif" font-size="14" lengthAdjust="spacing" textLength="34" x="324.5" y="313.1738">sort()</text></g><!--class BubbleSort--><g id="elem_BubbleSort"><rect codeLine="24" fill="#F1F1F1" height="63.6406" id="BubbleSort" rx="2.5" ry="2.5" style="stroke:#181818;stroke-width:0.5;" width="102" x="335.5" y="435.5"/><ellipse cx="350.5" cy="451.5" fill="#ADD1B2" rx="11" ry="11" style="stroke:#181818;stroke-width:1.0;"/><path d="M353.2656,447.375 Q353.4219,447.1563 353.6094,447.0469 Q353.7969,446.9375 354.0156,446.9375 Q354.3906,446.9375 354.625,447.2031 Q354.8594,447.4531 354.8594,448.0625 L354.8594,449.5156 Q354.8594,450.125 354.625,450.3906 Q354.3906,450.6563 354.0156,450.6563 Q353.6719,450.6563 353.4688,450.4531 Q353.2656,450.2656 353.1563,449.75 Q353.1094,449.3906 352.9219,449.2031 Q352.5938,448.8281 351.9844,448.6094 Q351.375,448.3906 350.75,448.3906 Q349.9844,448.3906 349.3438,448.7188 Q348.7188,449.0469 348.2188,449.7969 Q347.7344,450.5469 347.7344,451.5781 L347.7344,452.6719 Q347.7344,453.9063 348.625,454.7344 Q349.5156,455.5469 351.1094,455.5469 Q352.0469,455.5469 352.7031,455.2969 Q353.0938,455.1406 353.5156,454.7031 Q353.7813,454.4375 353.9219,454.3594 Q354.0781,454.2813 354.2813,454.2813 Q354.6094,454.2813 354.8594,454.5469 Q355.125,454.7969 355.125,455.1406 Q355.125,455.4844 354.7813,455.8906 Q354.2813,456.4688 353.4844,456.7969 Q352.4063,457.25 351.1094,457.25 Q349.5938,457.25 348.3906,456.625 Q347.4063,456.125 346.7188,455.0625 Q346.0313,453.9844 346.0313,452.7031 L346.0313,451.5469 Q346.0313,450.2188 346.6406,449.0781 Q347.2656,447.9219 348.3594,447.3125 Q349.4531,446.6875 350.6875,446.6875 Q351.4219,446.6875 352.0625,446.8594 Q352.7188,447.0156 353.2656,447.375 Z " fill="#000000"/><text fill="#000000" font-family="sans-serif" font-size="14" lengthAdjust="spacing" textLength="70" x="364.5" y="456.3535">BubbleSort</text><line style="stroke:#181818;stroke-width:0.5;" x1="336.5" x2="436.5" y1="467.5" y2="467.5"/><line style="stroke:#181818;stroke-width:0.5;" x1="336.5" x2="436.5" y1="475.5" y2="475.5"/><text fill="#000000" font-family="sans-serif" font-size="14" lengthAdjust="spacing" textLength="34" x="341.5" y="492.1738">sort()</text></g><!--class SelectionSort--><g id="elem_SelectionSort"><rect codeLine="28" fill="#F1F1F1" height="63.6406" id="SelectionSort" rx="2.5" ry="2.5" style="stroke:#181818;stroke-width:0.5;" width="116" x="184.5" y="435.5"/><ellipse cx="199.5" cy="451.5" fill="#ADD1B2" rx="11" ry="11" style="stroke:#181818;stroke-width:1.0;"/><path d="M202.2656,447.375 Q202.4219,447.1563 202.6094,447.0469 Q202.7969,446.9375 203.0156,446.9375 Q203.3906,446.9375 203.625,447.2031 Q203.8594,447.4531 203.8594,448.0625 L203.8594,449.5156 Q203.8594,450.125 203.625,450.3906 Q203.3906,450.6563 203.0156,450.6563 Q202.6719,450.6563 202.4688,450.4531 Q202.2656,450.2656 202.1563,449.75 Q202.1094,449.3906 201.9219,449.2031 Q201.5938,448.8281 200.9844,448.6094 Q200.375,448.3906 199.75,448.3906 Q198.9844,448.3906 198.3438,448.7188 Q197.7188,449.0469 197.2188,449.7969 Q196.7344,450.5469 196.7344,451.5781 L196.7344,452.6719 Q196.7344,453.9063 197.625,454.7344 Q198.5156,455.5469 200.1094,455.5469 Q201.0469,455.5469 201.7031,455.2969 Q202.0938,455.1406 202.5156,454.7031 Q202.7813,454.4375 202.9219,454.3594 Q203.0781,454.2813 203.2813,454.2813 Q203.6094,454.2813 203.8594,454.5469 Q204.125,454.7969 204.125,455.1406 Q204.125,455.4844 203.7813,455.8906 Q203.2813,456.4688 202.4844,456.7969 Q201.4063,457.25 200.1094,457.25 Q198.5938,457.25 197.3906,456.625 Q196.4063,456.125 195.7188,455.0625 Q195.0313,453.9844 195.0313,452.7031 L195.0313,451.5469 Q195.0313,450.2188 195.6406,449.0781 Q196.2656,447.9219 197.3594,447.3125 Q198.4531,446.6875 199.6875,446.6875 Q200.4219,446.6875 201.0625,446.8594 Q201.7188,447.0156 202.2656,447.375 Z " fill="#000000"/><text fill="#000000" font-family="sans-serif" font-size="14" lengthAdjust="spacing" textLength="84" x="213.5" y="456.3535">SelectionSort</text><line style="stroke:#181818;stroke-width:0.5;" x1="185.5" x2="299.5" y1="467.5" y2="467.5"/><line style="stroke:#181818;stroke-width:0.5;" x1="185.5" x2="299.5" y1="475.5" y2="475.5"/><text fill="#000000" font-family="sans-serif" font-size="14" lengthAdjust="spacing" textLength="34" x="190.5" y="492.1738">sort()</text></g><!--class ListVisitRequestsController--><g id="elem_ListVisitRequestsController"><rect codeLine="32" fill="#F1F1F1" height="79.2813" id="ListVisitRequestsController" rx="2.5" ry="2.5" style="stroke:#181818;stroke-width:0.5;" width="426" x="472.5" y="428"/><ellipse cx="596.25" cy="444" fill="#ADD1B2" rx="11" ry="11" style="stroke:#181818;stroke-width:1.0;"/><path d="M599.0156,439.875 Q599.1719,439.6563 599.3594,439.5469 Q599.5469,439.4375 599.7656,439.4375 Q600.1406,439.4375 600.375,439.7031 Q600.6094,439.9531 600.6094,440.5625 L600.6094,442.0156 Q600.6094,442.625 600.375,442.8906 Q600.1406,443.1563 599.7656,443.1563 Q599.4219,443.1563 599.2188,442.9531 Q599.0156,442.7656 598.9063,442.25 Q598.8594,441.8906 598.6719,441.7031 Q598.3438,441.3281 597.7344,441.1094 Q597.125,440.8906 596.5,440.8906 Q595.7344,440.8906 595.0938,441.2188 Q594.4688,441.5469 593.9688,442.2969 Q593.4844,443.0469 593.4844,444.0781 L593.4844,445.1719 Q593.4844,446.4063 594.375,447.2344 Q595.2656,448.0469 596.8594,448.0469 Q597.7969,448.0469 598.4531,447.7969 Q598.8438,447.6406 599.2656,447.2031 Q599.5313,446.9375 599.6719,446.8594 Q599.8281,446.7813 600.0313,446.7813 Q600.3594,446.7813 600.6094,447.0469 Q600.875,447.2969 600.875,447.6406 Q600.875,447.9844 600.5313,448.3906 Q600.0313,448.9688 599.2344,449.2969 Q598.1563,449.75 596.8594,449.75 Q595.3438,449.75 594.1406,449.125 Q593.1563,448.625 592.4688,447.5625 Q591.7813,446.4844 591.7813,445.2031 L591.7813,444.0469 Q591.7813,442.7188 592.3906,441.5781 Q593.0156,440.4219 594.1094,439.8125 Q595.2031,439.1875 596.4375,439.1875 Q597.1719,439.1875 597.8125,439.3594 Q598.4688,439.5156 599.0156,439.875 Z " fill="#000000"/><text fill="#000000" font-family="sans-serif" font-size="14" lengthAdjust="spacing" textLength="170" x="616.75" y="448.8535">ListVisitRequestsController</text><line style="stroke:#181818;stroke-width:0.5;" x1="473.5" x2="897.5" y1="460" y2="460"/><line style="stroke:#181818;stroke-width:0.5;" x1="473.5" x2="897.5" y1="468" y2="468"/><ellipse cx="483.5" cy="481.3203" fill="#84BE84" rx="3" ry="3" style="stroke:#038048;stroke-width:1.0;"/><text fill="#000000" font-family="sans-serif" font-size="14" lengthAdjust="spacing" textLength="185" x="492.5" y="484.6738">getListVisitRequest(fileName)</text><rect fill="#F24D5C" height="6" style="stroke:#C82930;stroke-width:1.0;" width="6" x="480.5" y="493.9609"/><text fill="#000000" font-family="sans-serif" font-size="14" lengthAdjust="spacing" textLength="400" x="492.5" y="500.3145">ListVisitRequestController(visitRequestRepository, appSession)</text></g><!--class Client--><g id="elem_Client"><rect codeLine="37" fill="#F1F1F1" height="141.8438" id="Client" rx="2.5" ry="2.5" style="stroke:#181818;stroke-width:0.5;" width="206" x="705.5" y="7"/><ellipse cx="786.25" cy="23" fill="#ADD1B2" rx="11" ry="11" style="stroke:#181818;stroke-width:1.0;"/><path d="M789.0156,18.875 Q789.1719,18.6563 789.3594,18.5469 Q789.5469,18.4375 789.7656,18.4375 Q790.1406,18.4375 790.375,18.7031 Q790.6094,18.9531 790.6094,19.5625 L790.6094,21.0156 Q790.6094,21.625 790.375,21.8906 Q790.1406,22.1563 789.7656,22.1563 Q789.4219,22.1563 789.2188,21.9531 Q789.0156,21.7656 788.9063,21.25 Q788.8594,20.8906 788.6719,20.7031 Q788.3438,20.3281 787.7344,20.1094 Q787.125,19.8906 786.5,19.8906 Q785.7344,19.8906 785.0938,20.2188 Q784.4688,20.5469 783.9688,21.2969 Q783.4844,22.0469 783.4844,23.0781 L783.4844,24.1719 Q783.4844,25.4063 784.375,26.2344 Q785.2656,27.0469 786.8594,27.0469 Q787.7969,27.0469 788.4531,26.7969 Q788.8438,26.6406 789.2656,26.2031 Q789.5313,25.9375 789.6719,25.8594 Q789.8281,25.7813 790.0313,25.7813 Q790.3594,25.7813 790.6094,26.0469 Q790.875,26.2969 790.875,26.6406 Q790.875,26.9844 790.5313,27.3906 Q790.0313,27.9688 789.2344,28.2969 Q788.1563,28.75 786.8594,28.75 Q785.3438,28.75 784.1406,28.125 Q783.1563,27.625 782.4688,26.5625 Q781.7813,25.4844 781.7813,24.2031 L781.7813,23.0469 Q781.7813,21.7188 782.3906,20.5781 Q783.0156,19.4219 784.1094,18.8125 Q785.2031,18.1875 786.4375,18.1875 Q787.1719,18.1875 787.8125,18.3594 Q788.4688,18.5156 789.0156,18.875 Z " fill="#000000"/><text fill="#000000" font-family="sans-serif" font-size="14" lengthAdjust="spacing" textLength="36" x="806.75" y="27.8535">Client</text><line style="stroke:#181818;stroke-width:0.5;" x1="706.5" x2="910.5" y1="39" y2="39"/><rect fill="none" height="6" style="stroke:#C82930;stroke-width:1.0;" width="6" x="713.5" y="49.3203"/><text fill="#000000" font-family="sans-serif" font-size="14" lengthAdjust="spacing" textLength="80" x="725.5" y="55.6738">name: String</text><rect fill="none" height="6" style="stroke:#C82930;stroke-width:1.0;" width="6" x="713.5" y="64.9609"/><text fill="#000000" font-family="sans-serif" font-size="14" lengthAdjust="spacing" textLength="180" x="725.5" y="71.3145">passportCardNumber: String</text><rect fill="none" height="6" style="stroke:#C82930;stroke-width:1.0;" width="6" x="713.5" y="80.6016"/><text fill="#000000" font-family="sans-serif" font-size="14" lengthAdjust="spacing" textLength="112" x="725.5" y="86.9551">taxNumber: String</text><rect fill="none" height="6" style="stroke:#C82930;stroke-width:1.0;" width="6" x="713.5" y="96.2422"/><text fill="#000000" font-family="sans-serif" font-size="14" lengthAdjust="spacing" textLength="78" x="725.5" y="102.5957">email: String</text><rect fill="none" height="6" style="stroke:#C82930;stroke-width:1.0;" width="6" x="713.5" y="111.8828"/><text fill="#000000" font-family="sans-serif" font-size="14" lengthAdjust="spacing" textLength="134" x="725.5" y="118.2363">phoneNumber: String</text><rect fill="none" height="6" style="stroke:#C82930;stroke-width:1.0;" width="6" x="713.5" y="127.5234"/><text fill="#000000" font-family="sans-serif" font-size="14" lengthAdjust="spacing" textLength="111" x="725.5" y="133.877">address: Address</text><line style="stroke:#181818;stroke-width:0.5;" x1="706.5" x2="910.5" y1="140.8438" y2="140.8438"/></g><!--class Employee--><g id="elem_Employee"><rect codeLine="46" fill="#F1F1F1" height="141.8438" id="Employee" rx="2.5" ry="2.5" style="stroke:#181818;stroke-width:0.5;" width="206" x="946.5" y="7"/><ellipse cx="1014.25" cy="23" fill="#ADD1B2" rx="11" ry="11" style="stroke:#181818;stroke-width:1.0;"/><path d="M1017.0156,18.875 Q1017.1719,18.6563 1017.3594,18.5469 Q1017.5469,18.4375 1017.7656,18.4375 Q1018.1406,18.4375 1018.375,18.7031 Q1018.6094,18.9531 1018.6094,19.5625 L1018.6094,21.0156 Q1018.6094,21.625 1018.375,21.8906 Q1018.1406,22.1563 1017.7656,22.1563 Q1017.4219,22.1563 1017.2188,21.9531 Q1017.0156,21.7656 1016.9063,21.25 Q1016.8594,20.8906 1016.6719,20.7031 Q1016.3438,20.3281 1015.7344,20.1094 Q1015.125,19.8906 1014.5,19.8906 Q1013.7344,19.8906 1013.0938,20.2188 Q1012.4688,20.5469 1011.9688,21.2969 Q1011.4844,22.0469 1011.4844,23.0781 L1011.4844,24.1719 Q1011.4844,25.4063 1012.375,26.2344 Q1013.2656,27.0469 1014.8594,27.0469 Q1015.7969,27.0469 1016.4531,26.7969 Q1016.8438,26.6406 1017.2656,26.2031 Q1017.5313,25.9375 1017.6719,25.8594 Q1017.8281,25.7813 1018.0313,25.7813 Q1018.3594,25.7813 1018.6094,26.0469 Q1018.875,26.2969 1018.875,26.6406 Q1018.875,26.9844 1018.5313,27.3906 Q1018.0313,27.9688 1017.2344,28.2969 Q1016.1563,28.75 1014.8594,28.75 Q1013.3438,28.75 1012.1406,28.125 Q1011.1563,27.625 1010.4688,26.5625 Q1009.7813,25.4844 1009.7813,24.2031 L1009.7813,23.0469 Q1009.7813,21.7188 1010.3906,20.5781 Q1011.0156,19.4219 1012.1094,18.8125 Q1013.2031,18.1875 1014.4375,18.1875 Q1015.1719,18.1875 1015.8125,18.3594 Q1016.4688,18.5156 1017.0156,18.875 Z " fill="#000000"/><text fill="#000000" font-family="sans-serif" font-size="14" lengthAdjust="spacing" textLength="62" x="1034.75" y="27.8535">Employee</text><line style="stroke:#181818;stroke-width:0.5;" x1="947.5" x2="1151.5" y1="39" y2="39"/><rect fill="none" height="6" style="stroke:#C82930;stroke-width:1.0;" width="6" x="954.5" y="49.3203"/><text fill="#000000" font-family="sans-serif" font-size="14" lengthAdjust="spacing" textLength="80" x="966.5" y="55.6738">name: String</text><rect fill="none" height="6" style="stroke:#C82930;stroke-width:1.0;" width="6" x="954.5" y="64.9609"/><text fill="#000000" font-family="sans-serif" font-size="14" lengthAdjust="spacing" textLength="180" x="966.5" y="71.3145">passportCardNumber: String</text><rect fill="none" height="6" style="stroke:#C82930;stroke-width:1.0;" width="6" x="954.5" y="80.6016"/><text fill="#000000" font-family="sans-serif" font-size="14" lengthAdjust="spacing" textLength="112" x="966.5" y="86.9551">taxNumber: String</text><rect fill="none" height="6" style="stroke:#C82930;stroke-width:1.0;" width="6" x="954.5" y="96.2422"/><text fill="#000000" font-family="sans-serif" font-size="14" lengthAdjust="spacing" textLength="134" x="966.5" y="102.5957">phoneNumber: String</text><rect fill="none" height="6" style="stroke:#C82930;stroke-width:1.0;" width="6" x="954.5" y="111.8828"/><text fill="#000000" font-family="sans-serif" font-size="14" lengthAdjust="spacing" textLength="61" x="966.5" y="118.2363">role: Role</text><rect fill="none" height="6" style="stroke:#C82930;stroke-width:1.0;" width="6" x="954.5" y="127.5234"/><text fill="#000000" font-family="sans-serif" font-size="14" lengthAdjust="spacing" textLength="111" x="966.5" y="133.877">address: Address</text><line style="stroke:#181818;stroke-width:0.5;" x1="947.5" x2="1151.5" y1="140.8438" y2="140.8438"/></g><!--class Repositories--><g id="elem_Repositories"><rect codeLine="55" fill="#F1F1F1" height="94.9219" id="Repositories" rx="2.5" ry="2.5" style="stroke:#181818;stroke-width:0.5;" width="203" x="7" y="599"/><ellipse cx="64.75" cy="615" fill="#ADD1B2" rx="11" ry="11" style="stroke:#181818;stroke-width:1.0;"/><path d="M67.5156,610.875 Q67.6719,610.6563 67.8594,610.5469 Q68.0469,610.4375 68.2656,610.4375 Q68.6406,610.4375 68.875,610.7031 Q69.1094,610.9531 69.1094,611.5625 L69.1094,613.0156 Q69.1094,613.625 68.875,613.8906 Q68.6406,614.1563 68.2656,614.1563 Q67.9219,614.1563 67.7188,613.9531 Q67.5156,613.7656 67.4063,613.25 Q67.3594,612.8906 67.1719,612.7031 Q66.8438,612.3281 66.2344,612.1094 Q65.625,611.8906 65,611.8906 Q64.2344,611.8906 63.5938,612.2188 Q62.9688,612.5469 62.4688,613.2969 Q61.9844,614.0469 61.9844,615.0781 L61.9844,616.1719 Q61.9844,617.4063 62.875,618.2344 Q63.7656,619.0469 65.3594,619.0469 Q66.2969,619.0469 66.9531,618.7969 Q67.3438,618.6406 67.7656,618.2031 Q68.0313,617.9375 68.1719,617.8594 Q68.3281,617.7813 68.5313,617.7813 Q68.8594,617.7813 69.1094,618.0469 Q69.375,618.2969 69.375,618.6406 Q69.375,618.9844 69.0313,619.3906 Q68.5313,619.9688 67.7344,620.2969 Q66.6563,620.75 65.3594,620.75 Q63.8438,620.75 62.6406,620.125 Q61.6563,619.625 60.9688,618.5625 Q60.2813,617.4844 60.2813,616.2031 L60.2813,615.0469 Q60.2813,613.7188 60.8906,612.5781 Q61.5156,611.4219 62.6094,610.8125 Q63.7031,610.1875 64.9375,610.1875 Q65.6719,610.1875 66.3125,610.3594 Q66.9688,610.5156 67.5156,610.875 Z " fill="#000000"/><text fill="#000000" font-family="sans-serif" font-size="14" lengthAdjust="spacing" textLength="79" x="85.25" y="619.8535">Repositories</text><line style="stroke:#181818;stroke-width:0.5;" x1="8" x2="209" y1="631" y2="631"/><line style="stroke:#181818;stroke-width:0.5;" x1="8" x2="209" y1="639" y2="639"/><rect fill="#F24D5C" height="6" style="stroke:#C82930;stroke-width:1.0;" width="6" x="15" y="649.3203"/><text fill="#000000" font-family="sans-serif" font-size="14" lengthAdjust="spacing" textLength="89" x="27" y="655.6738">Repositories()</text><ellipse cx="18" cy="667.9609" fill="#84BE84" rx="3" ry="3" style="stroke:#038048;stroke-width:1.0;"/><text fill="#000000" font-family="sans-serif" font-size="14" lengthAdjust="spacing" textLength="174" x="27" y="671.3145">getInstance() : Repositories</text><ellipse cx="18" cy="683.6016" fill="#84BE84" rx="3" ry="3" style="stroke:#038048;stroke-width:1.0;"/><text fill="#000000" font-family="sans-serif" font-size="14" lengthAdjust="spacing" textLength="177" x="27" y="686.9551">getVisitRequestRepository()</text></g><!--class VisitRequestDTO--><g id="elem_VisitRequestDTO"><rect codeLine="61" fill="#F1F1F1" height="157.4844" id="VisitRequestDTO" rx="2.5" ry="2.5" style="stroke:#181818;stroke-width:0.5;" width="149" x="739" y="568"/><ellipse cx="757.6" cy="584" fill="#ADD1B2" rx="11" ry="11" style="stroke:#181818;stroke-width:1.0;"/><path d="M760.3656,579.875 Q760.5219,579.6563 760.7094,579.5469 Q760.8969,579.4375 761.1156,579.4375 Q761.4906,579.4375 761.725,579.7031 Q761.9594,579.9531 761.9594,580.5625 L761.9594,582.0156 Q761.9594,582.625 761.725,582.8906 Q761.4906,583.1563 761.1156,583.1563 Q760.7719,583.1563 760.5688,582.9531 Q760.3656,582.7656 760.2563,582.25 Q760.2094,581.8906 760.0219,581.7031 Q759.6938,581.3281 759.0844,581.1094 Q758.475,580.8906 757.85,580.8906 Q757.0844,580.8906 756.4438,581.2188 Q755.8188,581.5469 755.3188,582.2969 Q754.8344,583.0469 754.8344,584.0781 L754.8344,585.1719 Q754.8344,586.4063 755.725,587.2344 Q756.6156,588.0469 758.2094,588.0469 Q759.1469,588.0469 759.8031,587.7969 Q760.1938,587.6406 760.6156,587.2031 Q760.8813,586.9375 761.0219,586.8594 Q761.1781,586.7813 761.3813,586.7813 Q761.7094,586.7813 761.9594,587.0469 Q762.225,587.2969 762.225,587.6406 Q762.225,587.9844 761.8813,588.3906 Q761.3813,588.9688 760.5844,589.2969 Q759.5063,589.75 758.2094,589.75 Q756.6938,589.75 755.4906,589.125 Q754.5063,588.625 753.8188,587.5625 Q753.1313,586.4844 753.1313,585.2031 L753.1313,584.0469 Q753.1313,582.7188 753.7406,581.5781 Q754.3656,580.4219 755.4594,579.8125 Q756.5531,579.1875 757.7875,579.1875 Q758.5219,579.1875 759.1625,579.3594 Q759.8188,579.5156 760.3656,579.875 Z " fill="#000000"/><text fill="#000000" font-family="sans-serif" font-size="14" lengthAdjust="spacing" textLength="109" x="772.4" y="588.8535">VisitRequestDTO</text><line style="stroke:#181818;stroke-width:0.5;" x1="740" x2="887" y1="600" y2="600"/><rect fill="none" height="6" style="stroke:#C82930;stroke-width:1.0;" width="6" x="747" y="610.3203"/><text fill="#000000" font-family="sans-serif" font-size="14" lengthAdjust="spacing" textLength="57" x="759" y="616.6738">message</text><rect fill="none" height="6" style="stroke:#C82930;stroke-width:1.0;" width="6" x="747" y="625.9609"/><text fill="#000000" font-family="sans-serif" font-size="14" lengthAdjust="spacing" textLength="28" x="759" y="632.3145">date</text><rect fill="none" height="6" style="stroke:#C82930;stroke-width:1.0;" width="6" x="747" y="641.6016"/><text fill="#000000" font-family="sans-serif" font-size="14" lengthAdjust="spacing" textLength="50" x="759" y="647.9551">timeSlot</text><rect fill="none" height="6" style="stroke:#C82930;stroke-width:1.0;" width="6" x="747" y="657.2422"/><text fill="#000000" font-family="sans-serif" font-size="14" lengthAdjust="spacing" textLength="69" x="759" y="663.5957">clientName</text><rect fill="none" height="6" style="stroke:#C82930;stroke-width:1.0;" width="6" x="747" y="672.8828"/><text fill="#000000" font-family="sans-serif" font-size="14" lengthAdjust="spacing" textLength="123" x="759" y="679.2363">clientPhoneNumber</text><rect fill="none" height="6" style="stroke:#C82930;stroke-width:1.0;" width="6" x="747" y="688.5234"/><text fill="#000000" font-family="sans-serif" font-size="14" lengthAdjust="spacing" textLength="36" x="759" y="694.877">agent</text><rect fill="none" height="6" style="stroke:#C82930;stroke-width:1.0;" width="6" x="747" y="704.1641"/><text fill="#000000" font-family="sans-serif" font-size="14" lengthAdjust="spacing" textLength="53" x="759" y="710.5176">property</text><line style="stroke:#181818;stroke-width:0.5;" x1="740" x2="887" y1="717.4844" y2="717.4844"/></g><!--class ListVisitRequestUI--><g id="elem_ListVisitRequestUI"><rect codeLine="71" fill="#F1F1F1" height="48" id="ListVisitRequestUI" rx="2.5" ry="2.5" style="stroke:#181818;stroke-width:0.5;" width="145" x="628" y="809.5"/><ellipse cx="643" cy="825.5" fill="#ADD1B2" rx="11" ry="11" style="stroke:#181818;stroke-width:1.0;"/><path d="M645.7656,821.375 Q645.9219,821.1563 646.1094,821.0469 Q646.2969,820.9375 646.5156,820.9375 Q646.8906,820.9375 647.125,821.2031 Q647.3594,821.4531 647.3594,822.0625 L647.3594,823.5156 Q647.3594,824.125 647.125,824.3906 Q646.8906,824.6563 646.5156,824.6563 Q646.1719,824.6563 645.9688,824.4531 Q645.7656,824.2656 645.6563,823.75 Q645.6094,823.3906 645.4219,823.2031 Q645.0938,822.8281 644.4844,822.6094 Q643.875,822.3906 643.25,822.3906 Q642.4844,822.3906 641.8438,822.7188 Q641.2188,823.0469 640.7188,823.7969 Q640.2344,824.5469 640.2344,825.5781 L640.2344,826.6719 Q640.2344,827.9063 641.125,828.7344 Q642.0156,829.5469 643.6094,829.5469 Q644.5469,829.5469 645.2031,829.2969 Q645.5938,829.1406 646.0156,828.7031 Q646.2813,828.4375 646.4219,828.3594 Q646.5781,828.2813 646.7813,828.2813 Q647.1094,828.2813 647.3594,828.5469 Q647.625,828.7969 647.625,829.1406 Q647.625,829.4844 647.2813,829.8906 Q646.7813,830.4688 645.9844,830.7969 Q644.9063,831.25 643.6094,831.25 Q642.0938,831.25 640.8906,830.625 Q639.9063,830.125 639.2188,829.0625 Q638.5313,827.9844 638.5313,826.7031 L638.5313,825.5469 Q638.5313,824.2188 639.1406,823.0781 Q639.7656,821.9219 640.8594,821.3125 Q641.9531,820.6875 643.1875,820.6875 Q643.9219,820.6875 644.5625,820.8594 Q645.2188,821.0156 645.7656,821.375 Z " fill="#000000"/><text fill="#000000" font-family="sans-serif" font-size="14" lengthAdjust="spacing" textLength="113" x="657" y="830.3535">ListVisitRequestUI</text><line style="stroke:#181818;stroke-width:0.5;" x1="629" x2="772" y1="841.5" y2="841.5"/><line style="stroke:#181818;stroke-width:0.5;" x1="629" x2="772" y1="849.5" y2="849.5"/></g><!--class UserSession--><g id="elem_UserSession"><rect codeLine="74" fill="#F1F1F1" height="63.6406" id="UserSession" rx="2.5" ry="2.5" style="stroke:#181818;stroke-width:0.5;" width="119" x="324" y="614.5"/><ellipse cx="342.6" cy="630.5" fill="#ADD1B2" rx="11" ry="11" style="stroke:#181818;stroke-width:1.0;"/><path d="M345.3656,626.375 Q345.5219,626.1563 345.7094,626.0469 Q345.8969,625.9375 346.1156,625.9375 Q346.4906,625.9375 346.725,626.2031 Q346.9594,626.4531 346.9594,627.0625 L346.9594,628.5156 Q346.9594,629.125 346.725,629.3906 Q346.4906,629.6563 346.1156,629.6563 Q345.7719,629.6563 345.5688,629.4531 Q345.3656,629.2656 345.2563,628.75 Q345.2094,628.3906 345.0219,628.2031 Q344.6938,627.8281 344.0844,627.6094 Q343.475,627.3906 342.85,627.3906 Q342.0844,627.3906 341.4438,627.7188 Q340.8188,628.0469 340.3188,628.7969 Q339.8344,629.5469 339.8344,630.5781 L339.8344,631.6719 Q339.8344,632.9063 340.725,633.7344 Q341.6156,634.5469 343.2094,634.5469 Q344.1469,634.5469 344.8031,634.2969 Q345.1938,634.1406 345.6156,633.7031 Q345.8813,633.4375 346.0219,633.3594 Q346.1781,633.2813 346.3813,633.2813 Q346.7094,633.2813 346.9594,633.5469 Q347.225,633.7969 347.225,634.1406 Q347.225,634.4844 346.8813,634.8906 Q346.3813,635.4688 345.5844,635.7969 Q344.5063,636.25 343.2094,636.25 Q341.6938,636.25 340.4906,635.625 Q339.5063,635.125 338.8188,634.0625 Q338.1313,632.9844 338.1313,631.7031 L338.1313,630.5469 Q338.1313,629.2188 338.7406,628.0781 Q339.3656,626.9219 340.4594,626.3125 Q341.5531,625.6875 342.7875,625.6875 Q343.5219,625.6875 344.1625,625.8594 Q344.8188,626.0156 345.3656,626.375 Z " fill="#000000"/><text fill="#000000" font-family="sans-serif" font-size="14" lengthAdjust="spacing" textLength="79" x="357.4" y="635.3535">UserSession</text><line style="stroke:#181818;stroke-width:0.5;" x1="325" x2="442" y1="646.5" y2="646.5"/><line style="stroke:#181818;stroke-width:0.5;" x1="325" x2="442" y1="654.5" y2="654.5"/><ellipse cx="335" cy="667.8203" fill="#84BE84" rx="3" ry="3" style="stroke:#038048;stroke-width:1.0;"/><text fill="#000000" font-family="sans-serif" font-size="14" lengthAdjust="spacing" textLength="93" x="344" y="671.1738">getUserEmail()</text></g><!--class VisitRequestMapper--><g id="elem_VisitRequestMapper"><rect codeLine="78" fill="#F1F1F1" height="94.9219" id="VisitRequestMapper" rx="2.5" ry="2.5" style="stroke:#181818;stroke-width:0.5;" width="237" x="823" y="786"/><ellipse cx="873.75" cy="802" fill="#ADD1B2" rx="11" ry="11" style="stroke:#181818;stroke-width:1.0;"/><path d="M876.5156,797.875 Q876.6719,797.6563 876.8594,797.5469 Q877.0469,797.4375 877.2656,797.4375 Q877.6406,797.4375 877.875,797.7031 Q878.1094,797.9531 878.1094,798.5625 L878.1094,800.0156 Q878.1094,800.625 877.875,800.8906 Q877.6406,801.1563 877.2656,801.1563 Q876.9219,801.1563 876.7188,800.9531 Q876.5156,800.7656 876.4063,800.25 Q876.3594,799.8906 876.1719,799.7031 Q875.8438,799.3281 875.2344,799.1094 Q874.625,798.8906 874,798.8906 Q873.2344,798.8906 872.5938,799.2188 Q871.9688,799.5469 871.4688,800.2969 Q870.9844,801.0469 870.9844,802.0781 L870.9844,803.1719 Q870.9844,804.4063 871.875,805.2344 Q872.7656,806.0469 874.3594,806.0469 Q875.2969,806.0469 875.9531,805.7969 Q876.3438,805.6406 876.7656,805.2031 Q877.0313,804.9375 877.1719,804.8594 Q877.3281,804.7813 877.5313,804.7813 Q877.8594,804.7813 878.1094,805.0469 Q878.375,805.2969 878.375,805.6406 Q878.375,805.9844 878.0313,806.3906 Q877.5313,806.9688 876.7344,807.2969 Q875.6563,807.75 874.3594,807.75 Q872.8438,807.75 871.6406,807.125 Q870.6563,806.625 869.9688,805.5625 Q869.2813,804.4844 869.2813,803.2031 L869.2813,802.0469 Q869.2813,800.7188 869.8906,799.5781 Q870.5156,798.4219 871.6094,797.8125 Q872.7031,797.1875 873.9375,797.1875 Q874.6719,797.1875 875.3125,797.3594 Q875.9688,797.5156 876.5156,797.875 Z " fill="#000000"/><text fill="#000000" font-family="sans-serif" font-size="14" lengthAdjust="spacing" textLength="127" x="894.25" y="806.8535">VisitRequestMapper</text><line style="stroke:#181818;stroke-width:0.5;" x1="824" x2="1059" y1="818" y2="818"/><line style="stroke:#181818;stroke-width:0.5;" x1="824" x2="1059" y1="826" y2="826"/><ellipse cx="834" cy="839.3203" fill="#84BE84" rx="3" ry="3" style="stroke:#038048;stroke-width:1.0;"/><text fill="#000000" font-family="sans-serif" font-size="14" lengthAdjust="spacing" textLength="173" x="843" y="842.6738">listToDTO(visitRequestList)</text><ellipse cx="834" cy="854.9609" fill="#84BE84" rx="3" ry="3" style="stroke:#038048;stroke-width:1.0;"/><text fill="#000000" font-family="sans-serif" font-size="14" lengthAdjust="spacing" textLength="211" x="843" y="858.3145">visitRequestToDTO(visitRequest)</text><rect fill="#F24D5C" height="6" style="stroke:#C82930;stroke-width:1.0;" width="6" x="831" y="867.6016"/><text fill="#000000" font-family="sans-serif" font-size="14" lengthAdjust="spacing" textLength="158" x="843" y="873.9551">add(announcementDTO)</text></g><!--class Address--><g id="elem_Address"><rect codeLine="84" fill="#F1F1F1" height="79.2813" id="Address" rx="2.5" ry="2.5" style="stroke:#181818;stroke-width:0.5;" width="122" x="953.5" y="249"/><ellipse cx="985.6" cy="265" fill="#ADD1B2" rx="11" ry="11" style="stroke:#181818;stroke-width:1.0;"/><path d="M988.3656,260.875 Q988.5219,260.6563 988.7094,260.5469 Q988.8969,260.4375 989.1156,260.4375 Q989.4906,260.4375 989.725,260.7031 Q989.9594,260.9531 989.9594,261.5625 L989.9594,263.0156 Q989.9594,263.625 989.725,263.8906 Q989.4906,264.1563 989.1156,264.1563 Q988.7719,264.1563 988.5688,263.9531 Q988.3656,263.7656 988.2563,263.25 Q988.2094,262.8906 988.0219,262.7031 Q987.6938,262.3281 987.0844,262.1094 Q986.475,261.8906 985.85,261.8906 Q985.0844,261.8906 984.4438,262.2188 Q983.8188,262.5469 983.3188,263.2969 Q982.8344,264.0469 982.8344,265.0781 L982.8344,266.1719 Q982.8344,267.4063 983.725,268.2344 Q984.6156,269.0469 986.2094,269.0469 Q987.1469,269.0469 987.8031,268.7969 Q988.1938,268.6406 988.6156,268.2031 Q988.8813,267.9375 989.0219,267.8594 Q989.1781,267.7813 989.3813,267.7813 Q989.7094,267.7813 989.9594,268.0469 Q990.225,268.2969 990.225,268.6406 Q990.225,268.9844 989.8813,269.3906 Q989.3813,269.9688 988.5844,270.2969 Q987.5063,270.75 986.2094,270.75 Q984.6938,270.75 983.4906,270.125 Q982.5063,269.625 981.8188,268.5625 Q981.1313,267.4844 981.1313,266.2031 L981.1313,265.0469 Q981.1313,263.7188 981.7406,262.5781 Q982.3656,261.4219 983.4594,260.8125 Q984.5531,260.1875 985.7875,260.1875 Q986.5219,260.1875 987.1625,260.3594 Q987.8188,260.5156 988.3656,260.875 Z " fill="#000000"/><text fill="#000000" font-family="sans-serif" font-size="14" lengthAdjust="spacing" textLength="52" x="1003.4" y="269.8535">Address</text><line style="stroke:#181818;stroke-width:0.5;" x1="954.5" x2="1074.5" y1="281" y2="281"/><rect fill="none" height="6" style="stroke:#C82930;stroke-width:1.0;" width="6" x="961.5" y="291.3203"/><text fill="#000000" font-family="sans-serif" font-size="14" lengthAdjust="spacing" textLength="81" x="973.5" y="297.6738">street: String</text><rect fill="none" height="6" style="stroke:#C82930;stroke-width:1.0;" width="6" x="961.5" y="306.9609"/><text fill="#000000" font-family="sans-serif" font-size="14" lengthAdjust="spacing" textLength="96" x="973.5" y="313.3145">zipCode: String</text><line style="stroke:#181818;stroke-width:0.5;" x1="954.5" x2="1074.5" y1="320.2813" y2="320.2813"/></g><!--class ApplicationSession--><g id="elem_ApplicationSession"><rect codeLine="89" fill="#F1F1F1" height="79.2813" id="ApplicationSession" rx="2.5" ry="2.5" style="stroke:#181818;stroke-width:0.5;" width="154" x="478.5" y="607"/><ellipse cx="494.85" cy="623" fill="#ADD1B2" rx="11" ry="11" style="stroke:#181818;stroke-width:1.0;"/><path d="M497.6156,618.875 Q497.7719,618.6563 497.9594,618.5469 Q498.1469,618.4375 498.3656,618.4375 Q498.7406,618.4375 498.975,618.7031 Q499.2094,618.9531 499.2094,619.5625 L499.2094,621.0156 Q499.2094,621.625 498.975,621.8906 Q498.7406,622.1563 498.3656,622.1563 Q498.0219,622.1563 497.8188,621.9531 Q497.6156,621.7656 497.5063,621.25 Q497.4594,620.8906 497.2719,620.7031 Q496.9438,620.3281 496.3344,620.1094 Q495.725,619.8906 495.1,619.8906 Q494.3344,619.8906 493.6938,620.2188 Q493.0688,620.5469 492.5688,621.2969 Q492.0844,622.0469 492.0844,623.0781 L492.0844,624.1719 Q492.0844,625.4063 492.975,626.2344 Q493.8656,627.0469 495.4594,627.0469 Q496.3969,627.0469 497.0531,626.7969 Q497.4438,626.6406 497.8656,626.2031 Q498.1313,625.9375 498.2719,625.8594 Q498.4281,625.7813 498.6313,625.7813 Q498.9594,625.7813 499.2094,626.0469 Q499.475,626.2969 499.475,626.6406 Q499.475,626.9844 499.1313,627.3906 Q498.6313,627.9688 497.8344,628.2969 Q496.7563,628.75 495.4594,628.75 Q493.9438,628.75 492.7406,628.125 Q491.7563,627.625 491.0688,626.5625 Q490.3813,625.4844 490.3813,624.2031 L490.3813,623.0469 Q490.3813,621.7188 490.9906,620.5781 Q491.6156,619.4219 492.7094,618.8125 Q493.8031,618.1875 495.0375,618.1875 Q495.7719,618.1875 496.4125,618.3594 Q497.0688,618.5156 497.6156,618.875 Z " fill="#000000"/><text fill="#000000" font-family="sans-serif" font-size="14" lengthAdjust="spacing" textLength="119" x="509.15" y="627.8535">ApplicationSession</text><line style="stroke:#181818;stroke-width:0.5;" x1="479.5" x2="631.5" y1="639" y2="639"/><line style="stroke:#181818;stroke-width:0.5;" x1="479.5" x2="631.5" y1="647" y2="647"/><ellipse cx="489.5" cy="660.3203" fill="#84BE84" rx="3" ry="3" style="stroke:#038048;stroke-width:1.0;"/><text fill="#000000" font-family="sans-serif" font-size="14" lengthAdjust="spacing" textLength="83" x="498.5" y="663.6738">getInstance()</text><ellipse cx="489.5" cy="675.9609" fill="#84BE84" rx="3" ry="3" style="stroke:#038048;stroke-width:1.0;"/><text fill="#000000" font-family="sans-serif" font-size="14" lengthAdjust="spacing" textLength="128" x="498.5" y="679.3145">getCurrentSession()</text></g><!--link VisitRequestRepository to VisitRequest--><g id="link_VisitRequestRepository_VisitRequest"><path codeLine="101" d="M622.85,117.73 C649.76,142.34 685.64,175.15 718.67,205.36 " fill="none" id="VisitRequestRepository-to-VisitRequest" style="stroke:#181818;stroke-width:1.0;"/><polygon fill="none" points="723.58,200.35,733.61,219.02,714.13,210.68,723.58,200.35" style="stroke:#181818;stroke-width:1.0;"/></g><!--link VisitRequestRepository to SortingAlgorithm--><g id="link_VisitRequestRepository_SortingAlgorithm"><path codeLine="102" d="M544.46,117.73 C508.52,156.36 453.79,215.18 419.1,252.46 " fill="none" id="VisitRequestRepository-to-SortingAlgorithm" style="stroke:#181818;stroke-width:1.0;stroke-dasharray:7.0,7.0;"/><polygon fill="#181818" points="415.39,256.45,424.44,252.5645,418.7873,252.7815,418.5704,247.1288,415.39,256.45" style="stroke:#181818;stroke-width:1.0;"/></g><!--reverse link VisitRequestRepository to ListVisitRequestsController--><g id="link_VisitRequestRepository_ListVisitRequestsController"><path codeLine="103" d="M592.28,122.47 C612.92,198.66 655.32,355.11 675.01,427.8 " fill="none" id="VisitRequestRepository-backto-ListVisitRequestsController" style="stroke:#181818;stroke-width:1.0;stroke-dasharray:7.0,7.0;"/><polygon fill="#181818" points="590.95,117.57,589.4541,127.3046,592.2632,122.3945,597.1733,125.2035,590.95,117.57" style="stroke:#181818;stroke-width:1.0;"/></g><!--reverse link VisitRequest to VisitRequestMapper--><g id="link_VisitRequest_VisitRequestMapper"><path codeLine="104" d="M880.79,371.12 C894.08,389 906.8,408.44 916.5,428 C982.11,560.31 966.86,607.57 975.5,755 C976.11,765.41 973.77,776.01 970.06,785.89 " fill="none" id="VisitRequest-backto-VisitRequestMapper" style="stroke:#181818;stroke-width:1.0;stroke-dasharray:7.0,7.0;"/><polygon fill="#181818" points="877.77,367.1,879.97,376.7,880.77,371.1,886.37,371.9,877.77,367.1" style="stroke:#181818;stroke-width:1.0;"/></g><!--reverse link VisitRequest to ListVisitRequestsController--><g id="link_VisitRequest_ListVisitRequestsController"><path codeLine="105" d="M751.47,371.57 C737.84,391.18 723.93,411.2 712.41,427.77 " fill="none" id="VisitRequest-backto-ListVisitRequestsController" style="stroke:#181818;stroke-width:1.0;stroke-dasharray:7.0,7.0;"/><polygon fill="#181818" points="754.55,367.13,746.1226,372.227,751.6913,371.2322,752.6861,376.8009,754.55,367.13" style="stroke:#181818;stroke-width:1.0;"/></g><!--reverse link SortingAlgorithm to SelectionSort--><g id="link_SortingAlgorithm_SelectionSort"><path codeLine="106" d="M348.19,336.59 C322.78,367.82 290.14,407.94 267.9,435.28 " fill="none" id="SortingAlgorithm-backto-SelectionSort" style="stroke:#181818;stroke-width:1.0;"/><polygon fill="none" points="343.04,331.83,361.09,320.74,353.9,340.67,343.04,331.83" style="stroke:#181818;stroke-width:1.0;"/></g><!--reverse link SortingAlgorithm to BubbleSort--><g id="link_SortingAlgorithm_BubbleSort"><path codeLine="107" d="M386.5,340.96 C386.5,371.49 386.5,409.2 386.5,435.28 " fill="none" id="SortingAlgorithm-backto-BubbleSort" style="stroke:#181818;stroke-width:1.0;"/><polygon fill="none" points="379.5,340.74,386.5,320.74,393.5,340.74,379.5,340.74" style="stroke:#181818;stroke-width:1.0;"/></g><!--link ListVisitRequestsController to UserSession--><g id="link_ListVisitRequestsController_UserSession"><path codeLine="108" d="M577.6,507.07 C539.32,523.12 496.97,543.73 461.5,568 C444.08,579.92 427.15,596.01 413.54,610.44 " fill="none" id="ListVisitRequestsController-to-UserSession" style="stroke:#181818;stroke-width:1.0;stroke-dasharray:7.0,7.0;"/><polygon fill="#181818" points="409.79,614.46,418.8476,610.5921,413.1944,610.7981,412.9885,605.145,409.79,614.46" style="stroke:#181818;stroke-width:1.0;"/></g><!--link ListVisitRequestsController to VisitRequestMapper--><g id="link_ListVisitRequestsController_VisitRequestMapper"><path codeLine="109" d="M826.62,507.07 C856.82,521.56 885.58,541.28 905.5,568 C951.62,629.85 952.98,723.11 948.29,780.78 " fill="none" id="ListVisitRequestsController-to-VisitRequestMapper" style="stroke:#181818;stroke-width:1.0;stroke-dasharray:7.0,7.0;"/><polygon fill="#181818" points="947.85,785.9,952.6061,777.2756,948.2782,780.9184,944.6355,776.5905,947.85,785.9" style="stroke:#181818;stroke-width:1.0;"/></g><!--link ListVisitRequestsController to ApplicationSession--><g id="link_ListVisitRequestsController_ApplicationSession"><path codeLine="110" d="M656.97,507.34 C636.31,535.47 608.39,573.49 587.06,602.53 " fill="none" id="ListVisitRequestsController-to-ApplicationSession" style="stroke:#181818;stroke-width:1.0;stroke-dasharray:7.0,7.0;"/><polygon fill="#181818" points="583.96,606.75,592.5101,601.8618,586.9187,602.7193,586.0611,597.1279,583.96,606.75" style="stroke:#181818;stroke-width:1.0;"/></g><!--link ListVisitRequestsController to Repositories--><g id="link_ListVisitRequestsController_Repositories"><path codeLine="111" d="M521.53,507.12 C454.36,524.08 376.2,545.3 306.5,568 C276.43,577.79 244.31,589.71 214.89,601.24 " fill="none" id="ListVisitRequestsController-to-Repositories" style="stroke:#181818;stroke-width:1.0;stroke-dasharray:7.0,7.0;"/><polygon fill="#181818" points="210.19,603.08,220.0293,603.514,214.8441,601.2526,217.1055,596.0674,210.19,603.08" style="stroke:#181818;stroke-width:1.0;"/></g><!--link ListVisitRequestsController to VisitRequestDTO--><g id="link_ListVisitRequestsController_VisitRequestDTO"><path codeLine="112" d="M713.59,507.34 C725.56,523.9 740.02,543.88 754.16,563.45 " fill="none" id="ListVisitRequestsController-to-VisitRequestDTO" style="stroke:#181818;stroke-width:1.0;stroke-dasharray:7.0,7.0;"/><polygon fill="#181818" points="757.37,567.88,755.3296,558.2448,754.4368,563.8308,748.8509,562.9379,757.37,567.88" style="stroke:#181818;stroke-width:1.0;"/></g><!--link Client to Address--><g id="link_Client_Address"><path codeLine="113" d="M877.67,149.01 C905.22,176.9 936.41,208.46 962.04,234.41 " fill="none" id="Client-to-Address" style="stroke:#181818;stroke-width:1.0;"/><polygon fill="none" points="967.35,229.82,976.43,248.96,957.39,239.66,967.35,229.82" style="stroke:#181818;stroke-width:1.0;"/></g><!--reverse link Client to VisitRequest--><g id="link_Client_VisitRequest"><path codeLine="114" d="M808.5,169.17 C808.5,182.7 808.5,196.55 808.5,209.78 " fill="none" id="Client-backto-VisitRequest" style="stroke:#181818;stroke-width:1.0;"/><polygon fill="none" points="801.5,169.01,808.5,149.01,815.5,169.01,801.5,169.01" style="stroke:#181818;stroke-width:1.0;"/></g><!--reverse link Employee to VisitRequest--><g id="link_Employee_VisitRequest"><path codeLine="115" d="M953.43,162.12 C930.03,182.36 905.34,203.72 883.11,222.95 " fill="none" id="Employee-backto-VisitRequest" style="stroke:#181818;stroke-width:1.0;"/><polygon fill="none" points="948.87,156.8,968.58,149.01,958.03,167.39,948.87,156.8" style="stroke:#181818;stroke-width:1.0;"/></g><!--link Employee to Address--><g id="link_Employee_Address"><path codeLine="116" d="M1037.75,149.01 C1033.39,174.94 1028.51,204.05 1024.34,228.87 " fill="none" id="Employee-to-Address" style="stroke:#181818;stroke-width:1.0;"/><polygon fill="none" points="1031.18,230.4,1020.97,248.96,1017.38,228.08,1031.18,230.4" style="stroke:#181818;stroke-width:1.0;"/></g><!--link Repositories to Repositories--><g id="link_Repositories_Repositories"><path codeLine="117" d="M210.29,627.09 C230.55,629.27 245,635.74 245,646.5 C245,656.33 232.93,662.59 215.38,665.26 " fill="none" id="Repositories-to-Repositories" style="stroke:#181818;stroke-width:1.0;stroke-dasharray:7.0,7.0;"/><polygon fill="#181818" points="210.29,665.91,219.7297,668.7193,215.2485,665.267,218.7008,660.7858,210.29,665.91" style="stroke:#181818;stroke-width:1.0;"/><text fill="#000000" font-family="sans-serif" font-size="13" lengthAdjust="spacing" textLength="49" x="251" y="651.2686">instance</text></g><!--reverse link VisitRequestDTO to VisitRequestMapper--><g id="link_VisitRequestDTO_VisitRequestMapper"><path codeLine="118" d="M878.71,741.76 C889.34,757.11 899.91,772.39 909.27,785.92 " fill="none" id="VisitRequestDTO-backto-VisitRequestMapper" style="stroke:#181818;stroke-width:1.0;"/><polygon fill="none" points="872.85,745.58,867.23,725.15,884.36,737.62,872.85,745.58" style="stroke:#181818;stroke-width:1.0;"/></g><!--link VisitRequestDTO to ListVisitRequestUI--><g id="link_VisitRequestDTO_ListVisitRequestUI"><path codeLine="119" d="M766.07,725.15 C748.7,753.59 730.16,783.94 717.24,805.09 " fill="none" id="VisitRequestDTO-to-ListVisitRequestUI" style="stroke:#181818;stroke-width:1.0;stroke-dasharray:7.0,7.0;"/><polygon fill="#181818" points="714.57,809.46,722.6747,803.8641,717.1761,805.1929,715.8473,799.6943,714.57,809.46" style="stroke:#181818;stroke-width:1.0;"/></g><!--link ListVisitRequestUI to ListVisitRequestsController--><g id="link_ListVisitRequestUI_ListVisitRequestsController"><path codeLine="120" d="M699.54,809.18 C697.08,749.49 690.52,590.37 687.32,512.57 " fill="none" id="ListVisitRequestUI-to-ListVisitRequestsController" style="stroke:#181818;stroke-width:1.0;stroke-dasharray:7.0,7.0;"/><polygon fill="#181818" points="687.09,507.11,683.479,516.273,687.3041,512.1054,691.4717,515.9305,687.09,507.11" style="stroke:#181818;stroke-width:1.0;"/></g><!--SRC=[fLHDRvmm4BtxLt1abR8_O1L5IcaEaTgq2adkNfWGIyPsRLDrk-b_pnZOsc1WbNGFBCpdcpVFBZar9dbYXjbx-Dc2mJybyKlgmv5ajAhINu5pGowCrFOhCpPzPXpkQ0CRyfUGCgg3sGqOGsiWMKKjFYrhe93Sagpa38HroQVt7ozIm5tRx45Zrnej95DQAj3suEepOK4_qnAI0lipKL_pMcfcNveZSOZI0CNdTh_duE9YNm4SIikac7UxmS8XJ2w5rP9pq4ToKOET1WGiP5EVpnrnw0d-b52b2YG9yGGWyeuHv4zWtLrIM8tp8XteKuWtfxhgcV8-ItzFJT1GneDiJx0tuderjjybr_sBnt3JA2uF0F-BOhOjae8Lx_6v1k4VJmmCmWW_SMLk6RV2M2fAI3V9RXJUUUT5dIx8zSl3zmN5SlaXnSuBwl7sw9sF1lIm_bvTpd3ZzhQ4yXiAffCYnxeF4a6FfEMw8JMXAGxQzCUQ2Y5R9Az1v1WID1msWNGOgm6iNzmVfd9PUJNu5AKuAsbtiCA1_8QwpxpL6jiD8VsGmsz-MqcMlLwD65WAt6wlegjXAVPokrqxwQEqBZXUGHopLd0ABBbypRBnNRGGu-yoijB0JH-8wLpet3pdKk8DdqqPdSZtG48valuIxFT_kXe6MqVCI1EdsshDDQeKGekm9Ziso9PCKCNrPzJWubp9-EYJs3GR6Khd3G00]--></g></svg>