<?xml version="1.0" encoding="us-ascii" standalone="no"?><svg xmlns="http://www.w3.org/2000/svg" xmlns:xlink="http://www.w3.org/1999/xlink" contentStyleType="text/css" height="1202px" preserveAspectRatio="none" style="width:1365px;height:1202px;background:#FFFFFF;" version="1.1" viewBox="0 0 1365 1202" width="1365px" zoomAndPan="magnify"><defs/><g><text fill="#000000" font-family="sans-serif" font-size="14" font-weight="bold" lengthAdjust="spacing" textLength="324" x="519.75" y="27.6738">US015 - Main activity Flux (Sequence Diagram)</text><rect fill="#FFFFFF" height="985.9219" style="stroke:#181818;stroke-width:1.0;" width="10" x="36.5" y="127.2813"/><rect fill="#FFFFFF" height="354.3984" style="stroke:#181818;stroke-width:1.0;" width="10" x="457.5" y="147.8047"/><rect fill="#FFFFFF" height="70.0469" style="stroke:#181818;stroke-width:1.0;" width="10" x="457.5" y="530.7266"/><rect fill="#FFFFFF" height="483.9063" style="stroke:#181818;stroke-width:1.0;" width="10" x="457.5" y="629.2969"/><rect fill="#FFFFFF" height="173.2578" style="stroke:#181818;stroke-width:1.0;" width="10" x="670.5" y="186.3281"/><rect fill="#FFFFFF" height="85.5703" style="stroke:#181818;stroke-width:1.0;" width="10" x="670.5" y="388.1094"/><rect fill="#FFFFFF" height="144.0938" style="stroke:#181818;stroke-width:1.0;" width="10" x="670.5" y="699.3438"/><rect fill="#FFFFFF" height="28.5234" style="stroke:#181818;stroke-width:1.0;" width="10" x="806.5" y="216.9688"/><rect fill="#FFFFFF" height="28.5234" style="stroke:#181818;stroke-width:1.0;" width="10" x="936.5" y="274.0156"/><rect fill="#FFFFFF" height="28.5234" style="stroke:#181818;stroke-width:1.0;" width="10" x="936.5" y="416.6328"/><rect fill="#FFFFFF" height="28.5234" style="stroke:#181818;stroke-width:1.0;" width="10" x="1106" y="331.0625"/><rect fill="#FFFFFF" height="58.5234" style="stroke:#181818;stroke-width:1.0;" width="10" x="1106" y="727.8672"/><rect fill="#FFFFFF" height="58.5234" style="stroke:#181818;stroke-width:1.0;" width="10" x="1293" y="756.3906"/><rect fill="none" height="88.5703" style="stroke:#000000;stroke-width:1.5;" width="745" x="383" y="858.4375"/><rect fill="none" height="58.0469" style="stroke:#000000;stroke-width:1.5;" width="725" x="393" y="881.9609"/><rect fill="none" height="87.8594" style="stroke:#000000;stroke-width:1.5;" width="522" x="10" y="1017.3438"/><line style="stroke:#181818;stroke-width:0.5;stroke-dasharray:5.0,5.0;" x1="41" x2="41" y1="117.2813" y2="1122.2031"/><line style="stroke:#181818;stroke-width:0.5;stroke-dasharray:5.0,5.0;" x1="462" x2="462" y1="117.2813" y2="1122.2031"/><line style="stroke:#181818;stroke-width:0.5;stroke-dasharray:5.0,5.0;" x1="675" x2="675" y1="186.125" y2="1122.2031"/><line style="stroke:#181818;stroke-width:0.5;stroke-dasharray:5.0,5.0;" x1="811" x2="811" y1="117.2813" y2="1122.2031"/><line style="stroke:#181818;stroke-width:0.5;stroke-dasharray:5.0,5.0;" x1="941" x2="941" y1="117.2813" y2="1122.2031"/><line style="stroke:#181818;stroke-width:0.5;stroke-dasharray:5.0,5.0;" x1="1111" x2="1111" y1="117.2813" y2="1122.2031"/><line style="stroke:#181818;stroke-width:0.5;stroke-dasharray:5.0,5.0;" x1="1297.5" x2="1297.5" y1="117.2813" y2="1122.2031"/><text fill="#000000" font-family="sans-serif" font-size="14" lengthAdjust="spacing" textLength="37" x="20" y="114.3145">Agent</text><ellipse cx="41.5" cy="50.1406" fill="#E2E2F0" rx="8" ry="8" style="stroke:#181818;stroke-width:0.5;"/><path d="M41.5,58.1406 L41.5,85.1406 M28.5,66.1406 L54.5,66.1406 M41.5,85.1406 L28.5,100.1406 M41.5,85.1406 L54.5,100.1406 " fill="none" style="stroke:#181818;stroke-width:0.5;"/><text fill="#000000" font-family="sans-serif" font-size="14" lengthAdjust="spacing" textLength="37" x="20" y="1133.877">Agent</text><ellipse cx="41.5" cy="1145.3438" fill="#E2E2F0" rx="8" ry="8" style="stroke:#181818;stroke-width:0.5;"/><path d="M41.5,1153.3438 L41.5,1180.3438 M28.5,1161.3438 L54.5,1161.3438 M41.5,1180.3438 L28.5,1195.3438 M41.5,1180.3438 L54.5,1195.3438 " fill="none" style="stroke:#181818;stroke-width:0.5;"/><rect fill="#E2E2F0" height="29.6406" rx="2.5" ry="2.5" style="stroke:#181818;stroke-width:0.5;" width="119" x="403" y="86.6406"/><text fill="#000000" font-family="sans-serif" font-size="14" lengthAdjust="spacing" textLength="105" x="410" y="106.3145">ListRequestsGUI</text><rect fill="#E2E2F0" height="29.6406" rx="2.5" ry="2.5" style="stroke:#181818;stroke-width:0.5;" width="119" x="403" y="1121.2031"/><text fill="#000000" font-family="sans-serif" font-size="14" lengthAdjust="spacing" textLength="105" x="410" y="1140.877">ListRequestsGUI</text><rect fill="#E2E2F0" height="29.6406" rx="2.5" ry="2.5" style="stroke:#181818;stroke-width:0.5;" width="155" x="598" y="1121.2031"/><text fill="#000000" font-family="sans-serif" font-size="14" lengthAdjust="spacing" textLength="141" x="605" y="1140.877">:ListRequestController</text><rect fill="#E2E2F0" height="29.6406" rx="2.5" ry="2.5" style="stroke:#181818;stroke-width:0.5;" width="97" x="763" y="86.6406"/><text fill="#000000" font-family="sans-serif" font-size="14" lengthAdjust="spacing" textLength="83" x="770" y="106.3145">:Repositories</text><rect fill="#E2E2F0" height="29.6406" rx="2.5" ry="2.5" style="stroke:#181818;stroke-width:0.5;" width="97" x="763" y="1121.2031"/><text fill="#000000" font-family="sans-serif" font-size="14" lengthAdjust="spacing" textLength="83" x="770" y="1140.877">:Repositories</text><rect fill="#E2E2F0" height="29.6406" rx="2.5" ry="2.5" style="stroke:#181818;stroke-width:0.5;" width="143" x="870" y="86.6406"/><text fill="#000000" font-family="sans-serif" font-size="14" lengthAdjust="spacing" textLength="129" x="877" y="106.3145">:MessageRepository</text><rect fill="#E2E2F0" height="29.6406" rx="2.5" ry="2.5" style="stroke:#181818;stroke-width:0.5;" width="143" x="870" y="1121.2031"/><text fill="#000000" font-family="sans-serif" font-size="14" lengthAdjust="spacing" textLength="129" x="877" y="1140.877">:MessageRepository</text><rect fill="#E2E2F0" height="29.6406" rx="2.5" ry="2.5" style="stroke:#181818;stroke-width:0.5;" width="176" x="1023" y="86.6406"/><text fill="#000000" font-family="sans-serif" font-size="14" lengthAdjust="spacing" textLength="162" x="1030" y="106.3145">:AuthenticationRepository</text><rect fill="#E2E2F0" height="29.6406" rx="2.5" ry="2.5" style="stroke:#181818;stroke-width:0.5;" width="176" x="1023" y="1121.2031"/><text fill="#000000" font-family="sans-serif" font-size="14" lengthAdjust="spacing" textLength="162" x="1030" y="1140.877">:AuthenticationRepository</text><rect fill="#E2E2F0" height="29.6406" rx="2.5" ry="2.5" style="stroke:#181818;stroke-width:0.5;" width="123" x="1236.5" y="86.6406"/><text fill="#000000" font-family="sans-serif" font-size="14" lengthAdjust="spacing" textLength="109" x="1243.5" y="106.3145">:AgentRepository</text><rect fill="#E2E2F0" height="29.6406" rx="2.5" ry="2.5" style="stroke:#181818;stroke-width:0.5;" width="123" x="1236.5" y="1121.2031"/><text fill="#000000" font-family="sans-serif" font-size="14" lengthAdjust="spacing" textLength="109" x="1243.5" y="1140.877">:AgentRepository</text><rect fill="#FFFFFF" height="985.9219" style="stroke:#181818;stroke-width:1.0;" width="10" x="36.5" y="127.2813"/><rect fill="#FFFFFF" height="354.3984" style="stroke:#181818;stroke-width:1.0;" width="10" x="457.5" y="147.8047"/><rect fill="#FFFFFF" height="70.0469" style="stroke:#181818;stroke-width:1.0;" width="10" x="457.5" y="530.7266"/><rect fill="#FFFFFF" height="483.9063" style="stroke:#181818;stroke-width:1.0;" width="10" x="457.5" y="629.2969"/><rect fill="#FFFFFF" height="173.2578" style="stroke:#181818;stroke-width:1.0;" width="10" x="670.5" y="186.3281"/><rect fill="#FFFFFF" height="85.5703" style="stroke:#181818;stroke-width:1.0;" width="10" x="670.5" y="388.1094"/><rect fill="#FFFFFF" height="144.0938" style="stroke:#181818;stroke-width:1.0;" width="10" x="670.5" y="699.3438"/><rect fill="#FFFFFF" height="28.5234" style="stroke:#181818;stroke-width:1.0;" width="10" x="806.5" y="216.9688"/><rect fill="#FFFFFF" height="28.5234" style="stroke:#181818;stroke-width:1.0;" width="10" x="936.5" y="274.0156"/><rect fill="#FFFFFF" height="28.5234" style="stroke:#181818;stroke-width:1.0;" width="10" x="936.5" y="416.6328"/><rect fill="#FFFFFF" height="28.5234" style="stroke:#181818;stroke-width:1.0;" width="10" x="1106" y="331.0625"/><rect fill="#FFFFFF" height="58.5234" style="stroke:#181818;stroke-width:1.0;" width="10" x="1106" y="727.8672"/><rect fill="#FFFFFF" height="58.5234" style="stroke:#181818;stroke-width:1.0;" width="10" x="1293" y="756.3906"/><polygon fill="#181818" points="445.5,143.8047,455.5,147.8047,445.5,151.8047,449.5,147.8047" style="stroke:#181818;stroke-width:1.0;"/><line style="stroke:#181818;stroke-width:1.0;" x1="46.5" x2="451.5" y1="147.8047" y2="147.8047"/><text fill="#000000" font-family="sans-serif" font-size="13" font-weight="bold" lengthAdjust="spacing" textLength="7" x="53.5" y="143.0498">1</text><text fill="#000000" font-family="sans-serif" font-size="13" lengthAdjust="spacing" textLength="264" x="64.5" y="143.0498">asks to see the list of booking request for him</text><polygon fill="#181818" points="586,172.3281,596,176.3281,586,180.3281,590,176.3281" style="stroke:#181818;stroke-width:1.0;"/><line style="stroke:#181818;stroke-width:1.0;" x1="467.5" x2="592" y1="176.3281" y2="176.3281"/><text fill="#000000" font-family="sans-serif" font-size="13" font-weight="bold" lengthAdjust="spacing" textLength="7" x="474.5" y="171.5732">2</text><text fill="#000000" font-family="sans-serif" font-size="13" lengthAdjust="spacing" textLength="36" x="485.5" y="171.5732">create</text><rect fill="#E2E2F0" height="29.6406" rx="2.5" ry="2.5" style="stroke:#181818;stroke-width:0.5;" width="155" x="598" y="155.8047"/><text fill="#000000" font-family="sans-serif" font-size="14" lengthAdjust="spacing" textLength="141" x="605" y="175.4785">:ListRequestController</text><polygon fill="#181818" points="794.5,212.9688,804.5,216.9688,794.5,220.9688,798.5,216.9688" style="stroke:#181818;stroke-width:1.0;"/><line style="stroke:#181818;stroke-width:1.0;" x1="680.5" x2="800.5" y1="216.9688" y2="216.9688"/><text fill="#000000" font-family="sans-serif" font-size="13" font-weight="bold" lengthAdjust="spacing" textLength="7" x="687.5" y="212.2139">3</text><text fill="#000000" font-family="sans-serif" font-size="13" lengthAdjust="spacing" textLength="75" x="698.5" y="212.2139">getInstance()</text><polygon fill="#181818" points="691.5,241.4922,681.5,245.4922,691.5,249.4922,687.5,245.4922" style="stroke:#181818;stroke-width:1.0;"/><line style="stroke:#181818;stroke-width:1.0;stroke-dasharray:2.0,2.0;" x1="685.5" x2="810.5" y1="245.4922" y2="245.4922"/><text fill="#000000" font-family="sans-serif" font-size="13" font-weight="bold" lengthAdjust="spacing" textLength="7" x="697.5" y="240.7373">4</text><text fill="#000000" font-family="sans-serif" font-size="13" lengthAdjust="spacing" textLength="67" x="708.5" y="240.7373">repositories</text><polygon fill="#181818" points="924.5,270.0156,934.5,274.0156,924.5,278.0156,928.5,274.0156" style="stroke:#181818;stroke-width:1.0;"/><line style="stroke:#181818;stroke-width:1.0;" x1="680.5" x2="930.5" y1="274.0156" y2="274.0156"/><text fill="#000000" font-family="sans-serif" font-size="13" font-weight="bold" lengthAdjust="spacing" textLength="7" x="687.5" y="269.2607">5</text><text fill="#000000" font-family="sans-serif" font-size="13" lengthAdjust="spacing" textLength="141" x="698.5" y="269.2607">getMessageRepository()</text><polygon fill="#181818" points="691.5,298.5391,681.5,302.5391,691.5,306.5391,687.5,302.5391" style="stroke:#181818;stroke-width:1.0;"/><line style="stroke:#181818;stroke-width:1.0;stroke-dasharray:2.0,2.0;" x1="685.5" x2="940.5" y1="302.5391" y2="302.5391"/><text fill="#000000" font-family="sans-serif" font-size="13" font-weight="bold" lengthAdjust="spacing" textLength="7" x="697.5" y="297.7842">6</text><text fill="#000000" font-family="sans-serif" font-size="13" lengthAdjust="spacing" textLength="115" x="708.5" y="297.7842">messageRepository</text><polygon fill="#181818" points="1094,327.0625,1104,331.0625,1094,335.0625,1098,331.0625" style="stroke:#181818;stroke-width:1.0;"/><line style="stroke:#181818;stroke-width:1.0;" x1="680.5" x2="1100" y1="331.0625" y2="331.0625"/><text fill="#000000" font-family="sans-serif" font-size="13" font-weight="bold" lengthAdjust="spacing" textLength="7" x="687.5" y="326.3076">7</text><text fill="#000000" font-family="sans-serif" font-size="13" lengthAdjust="spacing" textLength="171" x="698.5" y="326.3076">getAuthenticationRepository()</text><polygon fill="#181818" points="686.5,355.5859,676.5,359.5859,686.5,363.5859,682.5,359.5859" style="stroke:#181818;stroke-width:1.0;"/><line style="stroke:#181818;stroke-width:1.0;stroke-dasharray:2.0,2.0;" x1="680.5" x2="1110" y1="359.5859" y2="359.5859"/><text fill="#000000" font-family="sans-serif" font-size="13" font-weight="bold" lengthAdjust="spacing" textLength="7" x="692.5" y="354.8311">8</text><text fill="#000000" font-family="sans-serif" font-size="13" lengthAdjust="spacing" textLength="143" x="703.5" y="354.8311">authenticationRepository</text><polygon fill="#181818" points="658.5,384.1094,668.5,388.1094,658.5,392.1094,662.5,388.1094" style="stroke:#181818;stroke-width:1.0;"/><line style="stroke:#181818;stroke-width:1.0;" x1="467.5" x2="664.5" y1="388.1094" y2="388.1094"/><text fill="#000000" font-family="sans-serif" font-size="13" font-weight="bold" lengthAdjust="spacing" textLength="7" x="474.5" y="383.3545">9</text><text fill="#000000" font-family="sans-serif" font-size="13" lengthAdjust="spacing" textLength="74" x="485.5" y="383.3545">getRequest()</text><polygon fill="#181818" points="924.5,412.6328,934.5,416.6328,924.5,420.6328,928.5,416.6328" style="stroke:#181818;stroke-width:1.0;"/><line style="stroke:#181818;stroke-width:1.0;" x1="680.5" x2="930.5" y1="416.6328" y2="416.6328"/><text fill="#000000" font-family="sans-serif" font-size="13" font-weight="bold" lengthAdjust="spacing" textLength="14" x="687.5" y="411.8779">10</text><text fill="#000000" font-family="sans-serif" font-size="13" lengthAdjust="spacing" textLength="74" x="705.5" y="411.8779">getRequest()</text><polygon fill="#181818" points="691.5,441.1563,681.5,445.1563,691.5,449.1563,687.5,445.1563" style="stroke:#181818;stroke-width:1.0;"/><line style="stroke:#181818;stroke-width:1.0;stroke-dasharray:2.0,2.0;" x1="685.5" x2="940.5" y1="445.1563" y2="445.1563"/><text fill="#000000" font-family="sans-serif" font-size="13" font-weight="bold" lengthAdjust="spacing" textLength="14" x="697.5" y="440.4014">11</text><text fill="#000000" font-family="sans-serif" font-size="13" lengthAdjust="spacing" textLength="64" x="715.5" y="440.4014">requestList</text><polygon fill="#181818" points="478.5,469.6797,468.5,473.6797,478.5,477.6797,474.5,473.6797" style="stroke:#181818;stroke-width:1.0;"/><line style="stroke:#181818;stroke-width:1.0;stroke-dasharray:2.0,2.0;" x1="472.5" x2="674.5" y1="473.6797" y2="473.6797"/><text fill="#000000" font-family="sans-serif" font-size="13" font-weight="bold" lengthAdjust="spacing" textLength="14" x="484.5" y="468.9248">12</text><text fill="#000000" font-family="sans-serif" font-size="13" lengthAdjust="spacing" textLength="64" x="502.5" y="468.9248">requestList</text><polygon fill="#181818" points="57.5,498.2031,47.5,502.2031,57.5,506.2031,53.5,502.2031" style="stroke:#181818;stroke-width:1.0;"/><line style="stroke:#181818;stroke-width:1.0;stroke-dasharray:2.0,2.0;" x1="51.5" x2="461.5" y1="502.2031" y2="502.2031"/><text fill="#000000" font-family="sans-serif" font-size="13" font-weight="bold" lengthAdjust="spacing" textLength="14" x="63.5" y="497.4482">13</text><text fill="#000000" font-family="sans-serif" font-size="13" lengthAdjust="spacing" textLength="119" x="81.5" y="497.4482">Requests begin data</text><polygon fill="#181818" points="445.5,526.7266,455.5,530.7266,445.5,534.7266,449.5,530.7266" style="stroke:#181818;stroke-width:1.0;"/><line style="stroke:#181818;stroke-width:1.0;" x1="46.5" x2="451.5" y1="530.7266" y2="530.7266"/><text fill="#000000" font-family="sans-serif" font-size="13" font-weight="bold" lengthAdjust="spacing" textLength="14" x="53.5" y="525.9717">14</text><text fill="#000000" font-family="sans-serif" font-size="13" lengthAdjust="spacing" textLength="101" x="71.5" y="525.9717">Select begin data</text><line style="stroke:#181818;stroke-width:1.0;" x1="467.5" x2="509.5" y1="559.25" y2="559.25"/><line style="stroke:#181818;stroke-width:1.0;" x1="509.5" x2="509.5" y1="559.25" y2="572.25"/><line style="stroke:#181818;stroke-width:1.0;" x1="468.5" x2="509.5" y1="572.25" y2="572.25"/><polygon fill="#181818" points="478.5,568.25,468.5,572.25,478.5,576.25,474.5,572.25" style="stroke:#181818;stroke-width:1.0;"/><text fill="#000000" font-family="sans-serif" font-size="13" font-weight="bold" lengthAdjust="spacing" textLength="14" x="474.5" y="554.4951">15</text><text fill="#000000" font-family="sans-serif" font-size="13" lengthAdjust="spacing" textLength="122" x="492.5" y="554.4951">keepBeginDate(start)</text><polygon fill="#181818" points="57.5,596.7734,47.5,600.7734,57.5,604.7734,53.5,600.7734" style="stroke:#181818;stroke-width:1.0;"/><line style="stroke:#181818;stroke-width:1.0;stroke-dasharray:2.0,2.0;" x1="51.5" x2="461.5" y1="600.7734" y2="600.7734"/><text fill="#000000" font-family="sans-serif" font-size="13" font-weight="bold" lengthAdjust="spacing" textLength="14" x="63.5" y="596.0186">16</text><text fill="#000000" font-family="sans-serif" font-size="13" lengthAdjust="spacing" textLength="109" x="81.5" y="596.0186">Requests end data</text><polygon fill="#181818" points="445.5,625.2969,455.5,629.2969,445.5,633.2969,449.5,629.2969" style="stroke:#181818;stroke-width:1.0;"/><line style="stroke:#181818;stroke-width:1.0;" x1="46.5" x2="451.5" y1="629.2969" y2="629.2969"/><text fill="#000000" font-family="sans-serif" font-size="13" font-weight="bold" lengthAdjust="spacing" textLength="14" x="53.5" y="624.542">17</text><text fill="#000000" font-family="sans-serif" font-size="13" lengthAdjust="spacing" textLength="91" x="71.5" y="624.542">Select end data</text><line style="stroke:#181818;stroke-width:1.0;" x1="467.5" x2="509.5" y1="657.8203" y2="657.8203"/><line style="stroke:#181818;stroke-width:1.0;" x1="509.5" x2="509.5" y1="657.8203" y2="670.8203"/><line style="stroke:#181818;stroke-width:1.0;" x1="468.5" x2="509.5" y1="670.8203" y2="670.8203"/><polygon fill="#181818" points="478.5,666.8203,468.5,670.8203,478.5,674.8203,474.5,670.8203" style="stroke:#181818;stroke-width:1.0;"/><text fill="#000000" font-family="sans-serif" font-size="13" font-weight="bold" lengthAdjust="spacing" textLength="14" x="474.5" y="653.0654">18</text><text fill="#000000" font-family="sans-serif" font-size="13" lengthAdjust="spacing" textLength="107" x="492.5" y="653.0654">keepEndDate(end)</text><polygon fill="#181818" points="658.5,695.3438,668.5,699.3438,658.5,703.3438,662.5,699.3438" style="stroke:#181818;stroke-width:1.0;"/><line style="stroke:#181818;stroke-width:1.0;" x1="467.5" x2="664.5" y1="699.3438" y2="699.3438"/><text fill="#000000" font-family="sans-serif" font-size="13" font-weight="bold" lengthAdjust="spacing" textLength="14" x="474.5" y="694.5889">19</text><text fill="#000000" font-family="sans-serif" font-size="13" lengthAdjust="spacing" textLength="102" x="492.5" y="694.5889">getCurrentAgent()</text><polygon fill="#181818" points="1094,723.8672,1104,727.8672,1094,731.8672,1098,727.8672" style="stroke:#181818;stroke-width:1.0;"/><line style="stroke:#181818;stroke-width:1.0;" x1="680.5" x2="1100" y1="727.8672" y2="727.8672"/><text fill="#000000" font-family="sans-serif" font-size="13" font-weight="bold" lengthAdjust="spacing" textLength="14" x="687.5" y="723.1123">20</text><text fill="#000000" font-family="sans-serif" font-size="13" lengthAdjust="spacing" textLength="142" x="705.5" y="723.1123">getCurrentUserSession()</text><polygon fill="#181818" points="1281,752.3906,1291,756.3906,1281,760.3906,1285,756.3906" style="stroke:#181818;stroke-width:1.0;"/><line style="stroke:#181818;stroke-width:1.0;stroke-dasharray:2.0,2.0;" x1="1116" x2="1287" y1="756.3906" y2="756.3906"/><text fill="#000000" font-family="sans-serif" font-size="13" font-weight="bold" lengthAdjust="spacing" textLength="14" x="1123" y="751.6357">21</text><text fill="#000000" font-family="sans-serif" font-size="13" lengthAdjust="spacing" textLength="140" x="1141" y="751.6357">getAgentByEmail(email)</text><polygon fill="#181818" points="691.5,810.9141,681.5,814.9141,691.5,818.9141,687.5,814.9141" style="stroke:#181818;stroke-width:1.0;"/><line style="stroke:#181818;stroke-width:1.0;stroke-dasharray:2.0,2.0;" x1="685.5" x2="1297" y1="814.9141" y2="814.9141"/><text fill="#000000" font-family="sans-serif" font-size="13" font-weight="bold" lengthAdjust="spacing" textLength="14" x="697.5" y="810.1592">22</text><text fill="#000000" font-family="sans-serif" font-size="13" lengthAdjust="spacing" textLength="82" x="715.5" y="810.1592">loggedInAgent</text><polygon fill="#181818" points="478.5,839.4375,468.5,843.4375,478.5,847.4375,474.5,843.4375" style="stroke:#181818;stroke-width:1.0;"/><line style="stroke:#181818;stroke-width:1.0;stroke-dasharray:2.0,2.0;" x1="472.5" x2="674.5" y1="843.4375" y2="843.4375"/><text fill="#000000" font-family="sans-serif" font-size="13" font-weight="bold" lengthAdjust="spacing" textLength="14" x="484.5" y="838.6826">23</text><text fill="#000000" font-family="sans-serif" font-size="13" lengthAdjust="spacing" textLength="82" x="502.5" y="838.6826">loggedInAgent</text><path d="M383,858.4375 L456,858.4375 L456,864.9609 L446,874.9609 L383,874.9609 L383,858.4375 " fill="#EEEEEE" style="stroke:#000000;stroke-width:1.5;"/><rect fill="none" height="88.5703" style="stroke:#000000;stroke-width:1.5;" width="745" x="383" y="858.4375"/><text fill="#000000" font-family="sans-serif" font-size="13" font-weight="bold" lengthAdjust="spacing" textLength="28" x="398" y="871.2061">loop</text><text fill="#000000" font-family="sans-serif" font-size="11" font-weight="bold" lengthAdjust="spacing" textLength="200" x="471" y="870.3955">[while request list is not read in full]</text><path d="M393,881.9609 L454,881.9609 L454,888.4844 L444,898.4844 L393,898.4844 L393,881.9609 " fill="#EEEEEE" style="stroke:#000000;stroke-width:1.5;"/><rect fill="none" height="58.0469" style="stroke:#000000;stroke-width:1.5;" width="725" x="393" y="881.9609"/><text fill="#000000" font-family="sans-serif" font-size="13" font-weight="bold" lengthAdjust="spacing" textLength="16" x="408" y="894.7295">alt</text><text fill="#000000" font-family="sans-serif" font-size="11" font-weight="bold" lengthAdjust="spacing" textLength="644" x="469" y="893.9189">[if loggedInAgent is equals to agent in requestList and exists request for that agent and exist a request for that date]</text><line style="stroke:#181818;stroke-width:1.0;" x1="467.5" x2="509.5" y1="919.0078" y2="919.0078"/><line style="stroke:#181818;stroke-width:1.0;" x1="509.5" x2="509.5" y1="919.0078" y2="932.0078"/><line style="stroke:#181818;stroke-width:1.0;" x1="468.5" x2="509.5" y1="932.0078" y2="932.0078"/><polygon fill="#181818" points="478.5,928.0078,468.5,932.0078,478.5,936.0078,474.5,932.0078" style="stroke:#181818;stroke-width:1.0;"/><text fill="#000000" font-family="sans-serif" font-size="13" font-weight="bold" lengthAdjust="spacing" textLength="14" x="474.5" y="914.2529">24</text><text fill="#000000" font-family="sans-serif" font-size="13" lengthAdjust="spacing" textLength="171" x="492.5" y="914.2529">requestsAgent.add(requests);</text><rect fill="none" height="51.3359" style="stroke:#000000;stroke-width:1.5;" width="185" x="400" y="954.0078"/><path d="M400,954.0078 L462,954.0078 L462,960.0078 L452,970.0078 L400,970.0078 L400,954.0078 " fill="#EEEEEE" style="stroke:#000000;stroke-width:2.0;"/><text fill="#000000" font-family="sans-serif" font-size="13" font-weight="bold" lengthAdjust="spacing" textLength="17" x="413" y="967.7764">ref</text><text fill="#000000" font-family="sans-serif" font-size="12" lengthAdjust="spacing" textLength="177" x="404" y="984.8711">Alternative flux (Sorting Methods)</text><text fill="#000000" font-family="sans-serif" font-size="12" lengthAdjust="spacing" textLength="3" x="491" y="998.2773">&#160;</text><path d="M10,1017.3438 L71,1017.3438 L71,1023.8672 L61,1033.8672 L10,1033.8672 L10,1017.3438 " fill="#EEEEEE" style="stroke:#000000;stroke-width:1.5;"/><rect fill="none" height="87.8594" style="stroke:#000000;stroke-width:1.5;" width="522" x="10" y="1017.3438"/><text fill="#000000" font-family="sans-serif" font-size="13" font-weight="bold" lengthAdjust="spacing" textLength="16" x="25" y="1030.1123">alt</text><text fill="#000000" font-family="sans-serif" font-size="11" font-weight="bold" lengthAdjust="spacing" textLength="127" x="86" y="1029.3018">[if sortedList is empty]</text><polygon fill="#181818" points="57.5,1050.3906,47.5,1054.3906,57.5,1058.3906,53.5,1054.3906" style="stroke:#181818;stroke-width:1.0;"/><line style="stroke:#181818;stroke-width:1.0;" x1="51.5" x2="456.5" y1="1054.3906" y2="1054.3906"/><text fill="#000000" font-family="sans-serif" font-size="13" font-weight="bold" lengthAdjust="spacing" textLength="14" x="63.5" y="1049.6357">25</text><text fill="#000000" font-family="sans-serif" font-size="13" lengthAdjust="spacing" textLength="369" x="81.5" y="1049.6357">Show message:"There is no request associated with this agent"</text><line style="stroke:#000000;stroke-width:1.0;stroke-dasharray:2.0,2.0;" x1="10" x2="532" y1="1063.3906" y2="1063.3906"/><text fill="#000000" font-family="sans-serif" font-size="11" font-weight="bold" lengthAdjust="spacing" textLength="142" x="15" y="1073.3486">[if sortedList isn&#180;t empty]</text><polygon fill="#181818" points="57.5,1093.2031,47.5,1097.2031,57.5,1101.2031,53.5,1097.2031" style="stroke:#181818;stroke-width:1.0;"/><line style="stroke:#181818;stroke-width:1.0;" x1="51.5" x2="456.5" y1="1097.2031" y2="1097.2031"/><text fill="#000000" font-family="sans-serif" font-size="13" font-weight="bold" lengthAdjust="spacing" textLength="14" x="63.5" y="1092.4482">26</text><text fill="#000000" font-family="sans-serif" font-size="13" lengthAdjust="spacing" textLength="93" x="81.5" y="1092.4482">Show sortedList</text><!--SRC=[XLLBRjim4Dth50Ejx00fsaKtAb30ITpKGDBMlmFGqbWYGfCkIINnlNg2dgn3wlzplR1bwRsPDpEF8vPR9VFJ0NN0OgiqX8iKfGs16LWyBd_iWZFJbiVypAI5y8aRky7VEHfh7lSh3zklkfYe1RfNqceb16eFlTzjddhW3PwLuPIPe_6OpVBNpnxc6OrXATRGImbSZs0NkSse01upovNiKHRxtVSnZYkv3tN5UsnWkHK8uNxxyTDdk8LdnYLGi_WhjnVu9l9tc6rTkJ96UE0irUmq3mFwU12pM7Oo0FhuIxZzIcs3Y1Az6B0A32AGRX3KEb17E2ZrmcKAkcWZ76ao6J_v27LKQhpxlrzHDDVPcvi8Oetqg8lpNVUtt9NBxUgYx2dQbJIMaV3PlCifAdUttDLjcI4YGSsu_EC4HpXDddMJQZ35OSvrEsr1hL9JZ5C_m530UgYXcdaXOieUVIsrKugXLJ5QQjX4fBweRgJM0pyMA2O8JLmIMHwUKjFuAAUwFCtjT6UymwNTt06kK5FjhVDNLhxEROIxOjrO_3c8eDecSC2KpbN2BEitYdm-TdQsA32sVLw7rJJNCruGptSE_a206HbVs_brKIYJIKcJYZga_-bPoiIh8LAXfM-6-rnhyfdVKSLKXqqTzth9t1lKMpewvD8UlsFDZiVhxGUHEpGkzzrbUM9SpD1zz-8qk_AAzvkOBSS9bQQOhAHFqMStOOE1tQuHwxu8fSxmbd5QtzKczHkM6v3AqZsM09ddc0lX2nBqwDWDxR14PSBlQLRSacst0wDvupjtVcdlQvinMn9g1B0X974BE-WwemGPB-43Iv9PTMV-nMF9BlLlSTWq7a6zeYvV2mjXKKlQJQy8n-8TfUYTH- -KPxIPIioyuZjcq2hV40wJfx9FU3hRIwEkEY7RJBrL2paATnbgBBfQryUCKJ6dsX9uupQZMkcvRqTOp1E5mK4- -VUFlPgpGLVb_mC0]--></g></svg>