<?xml version="1.0" encoding="us-ascii" standalone="no"?><svg xmlns="http://www.w3.org/2000/svg" xmlns:xlink="http://www.w3.org/1999/xlink" contentStyleType="text/css" height="388px" preserveAspectRatio="none" style="width:928px;height:388px;background:#FFFFFF;" version="1.1" viewBox="0 0 928 388" width="928px" zoomAndPan="magnify"><defs/><g><text fill="#000000" font-family="sans-serif" font-size="14" font-weight="bold" lengthAdjust="spacing" textLength="294" x="316" y="27.6738">US015 - Alternative flux (Sorting Methods)</text><rect fill="#FFFFFF" height="172.1406" style="stroke:#181818;stroke-width:1.0;" width="10" x="112.5" y="127.2813"/><rect fill="#FFFFFF" height="151.6172" style="stroke:#181818;stroke-width:1.0;" width="10" x="428.5" y="147.8047"/><rect fill="#FFFFFF" height="123.0938" style="stroke:#181818;stroke-width:1.0;" width="10" x="651.5" y="176.3281"/><rect fill="#FFFFFF" height="94.5703" style="stroke:#181818;stroke-width:1.0;" width="10" x="825.5" y="204.8516"/><line style="stroke:#181818;stroke-width:0.5;stroke-dasharray:5.0,5.0;" x1="26" x2="26" y1="117.2813" y2="308.4219"/><line style="stroke:#181818;stroke-width:0.5;stroke-dasharray:5.0,5.0;" x1="117" x2="117" y1="117.2813" y2="308.4219"/><line style="stroke:#181818;stroke-width:0.5;stroke-dasharray:5.0,5.0;" x1="433" x2="433" y1="117.2813" y2="308.4219"/><line style="stroke:#181818;stroke-width:0.5;stroke-dasharray:5.0,5.0;" x1="656" x2="656" y1="117.2813" y2="308.4219"/><line style="stroke:#181818;stroke-width:0.5;stroke-dasharray:5.0,5.0;" x1="830" x2="830" y1="117.2813" y2="308.4219"/><text fill="#000000" font-family="sans-serif" font-size="14" lengthAdjust="spacing" textLength="37" x="5" y="114.3145">Agent</text><ellipse cx="26.5" cy="50.1406" fill="#E2E2F0" rx="8" ry="8" style="stroke:#181818;stroke-width:0.5;"/><path d="M26.5,58.1406 L26.5,85.1406 M13.5,66.1406 L39.5,66.1406 M26.5,85.1406 L13.5,100.1406 M26.5,85.1406 L39.5,100.1406 " fill="none" style="stroke:#181818;stroke-width:0.5;"/><text fill="#000000" font-family="sans-serif" font-size="14" lengthAdjust="spacing" textLength="37" x="5" y="320.0957">Agent</text><ellipse cx="26.5" cy="331.5625" fill="#E2E2F0" rx="8" ry="8" style="stroke:#181818;stroke-width:0.5;"/><path d="M26.5,339.5625 L26.5,366.5625 M13.5,347.5625 L39.5,347.5625 M26.5,366.5625 L13.5,381.5625 M26.5,366.5625 L39.5,381.5625 " fill="none" style="stroke:#181818;stroke-width:0.5;"/><rect fill="#E2E2F0" height="29.6406" rx="2.5" ry="2.5" style="stroke:#181818;stroke-width:0.5;" width="119" x="58" y="86.6406"/><text fill="#000000" font-family="sans-serif" font-size="14" lengthAdjust="spacing" textLength="105" x="65" y="106.3145">ListRequestsGUI</text><rect fill="#E2E2F0" height="29.6406" rx="2.5" ry="2.5" style="stroke:#181818;stroke-width:0.5;" width="119" x="58" y="307.4219"/><text fill="#000000" font-family="sans-serif" font-size="14" lengthAdjust="spacing" textLength="105" x="65" y="327.0957">ListRequestsGUI</text><rect fill="#E2E2F0" height="29.6406" rx="2.5" ry="2.5" style="stroke:#181818;stroke-width:0.5;" width="155" x="356" y="86.6406"/><text fill="#000000" font-family="sans-serif" font-size="14" lengthAdjust="spacing" textLength="141" x="363" y="106.3145">:ListRequestController</text><rect fill="#E2E2F0" height="29.6406" rx="2.5" ry="2.5" style="stroke:#181818;stroke-width:0.5;" width="155" x="356" y="307.4219"/><text fill="#000000" font-family="sans-serif" font-size="14" lengthAdjust="spacing" textLength="141" x="363" y="327.0957">:ListRequestController</text><rect fill="#E2E2F0" height="29.6406" rx="2.5" ry="2.5" style="stroke:#181818;stroke-width:0.5;" width="139" x="587" y="86.6406"/><text fill="#000000" font-family="sans-serif" font-size="14" lengthAdjust="spacing" textLength="125" x="594" y="106.3145">:RequestRepository</text><rect fill="#E2E2F0" height="29.6406" rx="2.5" ry="2.5" style="stroke:#181818;stroke-width:0.5;" width="139" x="587" y="307.4219"/><text fill="#000000" font-family="sans-serif" font-size="14" lengthAdjust="spacing" textLength="125" x="594" y="327.0957">:RequestRepository</text><rect fill="#E2E2F0" height="29.6406" rx="2.5" ry="2.5" style="stroke:#181818;stroke-width:0.5;" width="183" x="739" y="86.6406"/><text fill="#000000" font-family="sans-serif" font-size="14" lengthAdjust="spacing" textLength="169" x="746" y="106.3145">:sortingMethods.properties</text><rect fill="#E2E2F0" height="29.6406" rx="2.5" ry="2.5" style="stroke:#181818;stroke-width:0.5;" width="183" x="739" y="307.4219"/><text fill="#000000" font-family="sans-serif" font-size="14" lengthAdjust="spacing" textLength="169" x="746" y="327.0957">:sortingMethods.properties</text><rect fill="#FFFFFF" height="172.1406" style="stroke:#181818;stroke-width:1.0;" width="10" x="112.5" y="127.2813"/><rect fill="#FFFFFF" height="151.6172" style="stroke:#181818;stroke-width:1.0;" width="10" x="428.5" y="147.8047"/><rect fill="#FFFFFF" height="123.0938" style="stroke:#181818;stroke-width:1.0;" width="10" x="651.5" y="176.3281"/><rect fill="#FFFFFF" height="94.5703" style="stroke:#181818;stroke-width:1.0;" width="10" x="825.5" y="204.8516"/><polygon fill="#181818" points="416.5,143.8047,426.5,147.8047,416.5,151.8047,420.5,147.8047" style="stroke:#181818;stroke-width:1.0;"/><line style="stroke:#181818;stroke-width:1.0;" x1="122.5" x2="422.5" y1="147.8047" y2="147.8047"/><text fill="#000000" font-family="sans-serif" font-size="13" font-weight="bold" lengthAdjust="spacing" textLength="7" x="129.5" y="143.0498">1</text><text fill="#000000" font-family="sans-serif" font-size="13" lengthAdjust="spacing" textLength="276" x="140.5" y="143.0498">sortedList = getRequestsSorted(requestsAgent)</text><polygon fill="#181818" points="639.5,172.3281,649.5,176.3281,639.5,180.3281,643.5,176.3281" style="stroke:#181818;stroke-width:1.0;"/><line style="stroke:#181818;stroke-width:1.0;" x1="438.5" x2="645.5" y1="176.3281" y2="176.3281"/><text fill="#000000" font-family="sans-serif" font-size="13" font-weight="bold" lengthAdjust="spacing" textLength="7" x="445.5" y="171.5732">2</text><text fill="#000000" font-family="sans-serif" font-size="13" lengthAdjust="spacing" textLength="183" x="456.5" y="171.5732">getRequestsSorted(requestList)</text><polygon fill="#181818" points="813.5,200.8516,823.5,204.8516,813.5,208.8516,817.5,204.8516" style="stroke:#181818;stroke-width:1.0;"/><line style="stroke:#181818;stroke-width:1.0;" x1="661.5" x2="819.5" y1="204.8516" y2="204.8516"/><text fill="#000000" font-family="sans-serif" font-size="13" font-weight="bold" lengthAdjust="spacing" textLength="7" x="668.5" y="200.0967">3</text><text fill="#000000" font-family="sans-serif" font-size="13" lengthAdjust="spacing" textLength="134" x="679.5" y="200.0967">System.getProperties()</text><polygon fill="#181818" points="672.5,229.375,662.5,233.375,672.5,237.375,668.5,233.375" style="stroke:#181818;stroke-width:1.0;"/><line style="stroke:#181818;stroke-width:1.0;stroke-dasharray:2.0,2.0;" x1="666.5" x2="824.5" y1="233.375" y2="233.375"/><text fill="#000000" font-family="sans-serif" font-size="13" font-weight="bold" lengthAdjust="spacing" textLength="7" x="678.5" y="228.6201">4</text><text fill="#000000" font-family="sans-serif" font-size="13" lengthAdjust="spacing" textLength="97" x="689.5" y="228.6201">returns algorithm</text><polygon fill="#181818" points="449.5,257.8984,439.5,261.8984,449.5,265.8984,445.5,261.8984" style="stroke:#181818;stroke-width:1.0;"/><line style="stroke:#181818;stroke-width:1.0;stroke-dasharray:2.0,2.0;" x1="443.5" x2="650.5" y1="261.8984" y2="261.8984"/><text fill="#000000" font-family="sans-serif" font-size="13" font-weight="bold" lengthAdjust="spacing" textLength="7" x="455.5" y="257.1436">5</text><text fill="#000000" font-family="sans-serif" font-size="13" lengthAdjust="spacing" textLength="57" x="466.5" y="257.1436">sortedList</text><polygon fill="#181818" points="133.5,286.4219,123.5,290.4219,133.5,294.4219,129.5,290.4219" style="stroke:#181818;stroke-width:1.0;"/><line style="stroke:#181818;stroke-width:1.0;stroke-dasharray:2.0,2.0;" x1="127.5" x2="427.5" y1="290.4219" y2="290.4219"/><text fill="#000000" font-family="sans-serif" font-size="13" font-weight="bold" lengthAdjust="spacing" textLength="7" x="139.5" y="285.667">6</text><text fill="#000000" font-family="sans-serif" font-size="13" lengthAdjust="spacing" textLength="57" x="150.5" y="285.667">sortedList</text><!--SRC=[TP1DRi8m44RtFiKecy8Yq2wwYTHA4K882LgQa0EuOHeiERPhJr2vVMqtG41qvvytR-QRXpsHSTbqQYHNrBLoKkjswl2xGrLZkXEyiRnbZ7UaLTT-ecMy9cqXoHjKb01ta2_cRrjck2LH2-CraAo4eo987Bb5jOnOjRnciW4qqugibX9jH6VROdK3zs21HZlX1pX6i9X_5FFD-mthjB-fPesqrpitCLORz2_eOasvPeoH88cGLENZqpEaa4j2gpY90yANx7vWLFuve9UC4nQ2YmCd34bOjOJqDGuA6OI6k0jvu0KQF4Slu_l8zjUuil754sEowF2kFalslo0q69IVmhF-42JbsezJ7XrXE_6UpJdwQ50ODk31zDBK5rcapYe7N3RQ2jgt0- -zfAV1_P_VnTNFBm00]--></g></svg>