<?xml version="1.0" encoding="us-ascii" standalone="no"?><svg xmlns="http://www.w3.org/2000/svg" xmlns:xlink="http://www.w3.org/1999/xlink" contentStyleType="text/css" height="1131px" preserveAspectRatio="none" style="width:1941px;height:1131px;background:#FFFFFF;" version="1.1" viewBox="0 0 1941 1131" width="1941px" zoomAndPan="magnify"><defs/><g><rect fill="#FFFFFF" height="952.1563" style="stroke:#181818;stroke-width:1.0;" width="10" x="21.5" y="90.6406"/><rect fill="#FFFFFF" height="297.3516" style="stroke:#181818;stroke-width:1.0;" width="10" x="483.5" y="111.1641"/><rect fill="#FFFFFF" height="70.0469" style="stroke:#181818;stroke-width:1.0;" width="10" x="483.5" y="437.0391"/><rect fill="#FFFFFF" height="70.0469" style="stroke:#181818;stroke-width:1.0;" width="10" x="483.5" y="535.6094"/><rect fill="#FFFFFF" height="408.6172" style="stroke:#181818;stroke-width:1.0;" width="10" x="483.5" y="634.1797"/><rect fill="#FFFFFF" height="230.3047" style="stroke:#181818;stroke-width:1.0;" width="10" x="760.5" y="149.6875"/><rect fill="#FFFFFF" height="342.5703" style="stroke:#181818;stroke-width:1.0;" width="10" x="760.5" y="662.7031"/><rect fill="#FFFFFF" height="28.5234" style="stroke:#181818;stroke-width:1.0;" width="10" x="900" y="180.3281"/><rect fill="#FFFFFF" height="28.5234" style="stroke:#181818;stroke-width:1.0;" width="10" x="1007" y="237.375"/><rect fill="#FFFFFF" height="28.5234" style="stroke:#181818;stroke-width:1.0;" width="10" x="1134" y="294.4219"/><rect fill="#FFFFFF" height="28.5234" style="stroke:#181818;stroke-width:1.0;" width="10" x="1281" y="351.4688"/><rect fill="#FFFFFF" height="28.5234" style="stroke:#181818;stroke-width:1.0;" width="10" x="1281" y="748.2734"/><rect fill="#FFFFFF" height="28.5234" style="stroke:#181818;stroke-width:1.0;" width="10" x="1414" y="691.2266"/><rect fill="#FFFFFF" height="71.4531" style="stroke:#181818;stroke-width:1.0;" width="10" x="1561" y="805.3203"/><rect fill="#FFFFFF" height="71.4531" style="stroke:#181818;stroke-width:1.0;" width="10" x="1790.5" y="905.2969"/><line style="stroke:#181818;stroke-width:0.5;stroke-dasharray:5.0,5.0;" x1="26" x2="26" y1="80.6406" y2="1051.7969"/><line style="stroke:#181818;stroke-width:0.5;stroke-dasharray:5.0,5.0;" x1="488.5" x2="488.5" y1="80.6406" y2="1051.7969"/><line style="stroke:#181818;stroke-width:0.5;stroke-dasharray:5.0,5.0;" x1="765.5" x2="765.5" y1="149.4844" y2="1051.7969"/><line style="stroke:#181818;stroke-width:0.5;stroke-dasharray:5.0,5.0;" x1="904.5" x2="904.5" y1="80.6406" y2="1051.7969"/><line style="stroke:#181818;stroke-width:0.5;stroke-dasharray:5.0,5.0;" x1="1011.5" x2="1011.5" y1="80.6406" y2="1051.7969"/><line style="stroke:#181818;stroke-width:0.5;stroke-dasharray:5.0,5.0;" x1="1138.5" x2="1138.5" y1="80.6406" y2="1051.7969"/><line style="stroke:#181818;stroke-width:0.5;stroke-dasharray:5.0,5.0;" x1="1285.5" x2="1285.5" y1="80.6406" y2="1051.7969"/><line style="stroke:#181818;stroke-width:0.5;stroke-dasharray:5.0,5.0;" x1="1418.5" x2="1418.5" y1="80.6406" y2="1051.7969"/><line style="stroke:#181818;stroke-width:0.5;stroke-dasharray:5.0,5.0;" x1="1565.5" x2="1565.5" y1="80.6406" y2="1051.7969"/><line style="stroke:#181818;stroke-width:0.5;stroke-dasharray:5.0,5.0;" x1="1795.5" x2="1795.5" y1="80.6406" y2="1051.7969"/><text fill="#000000" font-family="sans-serif" font-size="14" lengthAdjust="spacing" textLength="37" x="5" y="77.6738">Agent</text><ellipse cx="26.5" cy="13.5" fill="#E2E2F0" rx="8" ry="8" style="stroke:#181818;stroke-width:0.5;"/><path d="M26.5,21.5 L26.5,48.5 M13.5,29.5 L39.5,29.5 M26.5,48.5 L13.5,63.5 M26.5,48.5 L39.5,63.5 " fill="none" style="stroke:#181818;stroke-width:0.5;"/><text fill="#000000" font-family="sans-serif" font-size="14" lengthAdjust="spacing" textLength="37" x="5" y="1063.4707">Agent</text><ellipse cx="26.5" cy="1074.9375" fill="#E2E2F0" rx="8" ry="8" style="stroke:#181818;stroke-width:0.5;"/><path d="M26.5,1082.9375 L26.5,1109.9375 M13.5,1090.9375 L39.5,1090.9375 M26.5,1109.9375 L13.5,1124.9375 M26.5,1109.9375 L39.5,1124.9375 " fill="none" style="stroke:#181818;stroke-width:0.5;"/><rect fill="#E2E2F0" height="29.6406" rx="2.5" ry="2.5" style="stroke:#181818;stroke-width:0.5;" width="112" x="432.5" y="50"/><text fill="#000000" font-family="sans-serif" font-size="14" lengthAdjust="spacing" textLength="98" x="439.5" y="69.6738">:ListRequestsUI</text><rect fill="#E2E2F0" height="29.6406" rx="2.5" ry="2.5" style="stroke:#181818;stroke-width:0.5;" width="112" x="432.5" y="1050.7969"/><text fill="#000000" font-family="sans-serif" font-size="14" lengthAdjust="spacing" textLength="98" x="439.5" y="1070.4707">:ListRequestsUI</text><rect fill="#E2E2F0" height="29.6406" rx="2.5" ry="2.5" style="stroke:#181818;stroke-width:0.5;" width="162" x="684.5" y="1050.7969"/><text fill="#000000" font-family="sans-serif" font-size="14" lengthAdjust="spacing" textLength="148" x="691.5" y="1070.4707">:ListRequestsController</text><rect fill="#E2E2F0" height="29.6406" rx="2.5" ry="2.5" style="stroke:#181818;stroke-width:0.5;" width="97" x="856.5" y="50"/><text fill="#000000" font-family="sans-serif" font-size="14" lengthAdjust="spacing" textLength="83" x="863.5" y="69.6738">:Repositories</text><rect fill="#E2E2F0" height="29.6406" rx="2.5" ry="2.5" style="stroke:#181818;stroke-width:0.5;" width="97" x="856.5" y="1050.7969"/><text fill="#000000" font-family="sans-serif" font-size="14" lengthAdjust="spacing" textLength="83" x="863.5" y="1070.4707">:Repositories</text><rect fill="#E2E2F0" height="45.2813" rx="2.5" ry="2.5" style="stroke:#181818;stroke-width:0.5;" width="97" x="963.5" y="34.3594"/><text fill="#000000" font-family="sans-serif" font-size="14" lengthAdjust="spacing" textLength="74" x="975" y="54.0332">repositories</text><text fill="#000000" font-family="sans-serif" font-size="14" lengthAdjust="spacing" textLength="83" x="970.5" y="69.6738">:Repositories</text><rect fill="#E2E2F0" height="45.2813" rx="2.5" ry="2.5" style="stroke:#181818;stroke-width:0.5;" width="97" x="963.5" y="1050.7969"/><text fill="#000000" font-family="sans-serif" font-size="14" lengthAdjust="spacing" textLength="74" x="975" y="1070.4707">repositories</text><text fill="#000000" font-family="sans-serif" font-size="14" lengthAdjust="spacing" textLength="83" x="970.5" y="1086.1113">:Repositories</text><rect fill="#E2E2F0" height="29.6406" rx="2.5" ry="2.5" style="stroke:#181818;stroke-width:0.5;" width="137" x="1070.5" y="50"/><text fill="#000000" font-family="sans-serif" font-size="14" lengthAdjust="spacing" textLength="123" x="1077.5" y="69.6738">:ApplicationSession</text><rect fill="#E2E2F0" height="29.6406" rx="2.5" ry="2.5" style="stroke:#181818;stroke-width:0.5;" width="137" x="1070.5" y="1050.7969"/><text fill="#000000" font-family="sans-serif" font-size="14" lengthAdjust="spacing" textLength="123" x="1077.5" y="1070.4707">:ApplicationSession</text><rect fill="#E2E2F0" height="45.2813" rx="2.5" ry="2.5" style="stroke:#181818;stroke-width:0.5;" width="137" x="1217.5" y="34.3594"/><text fill="#000000" font-family="sans-serif" font-size="14" lengthAdjust="spacing" textLength="74" x="1249" y="54.0332">appSession</text><text fill="#000000" font-family="sans-serif" font-size="14" lengthAdjust="spacing" textLength="123" x="1224.5" y="69.6738">:ApplicationSession</text><rect fill="#E2E2F0" height="45.2813" rx="2.5" ry="2.5" style="stroke:#181818;stroke-width:0.5;" width="137" x="1217.5" y="1050.7969"/><text fill="#000000" font-family="sans-serif" font-size="14" lengthAdjust="spacing" textLength="74" x="1249" y="1070.4707">appSession</text><text fill="#000000" font-family="sans-serif" font-size="14" lengthAdjust="spacing" textLength="123" x="1224.5" y="1086.1113">:ApplicationSession</text><rect fill="#E2E2F0" height="45.2813" rx="2.5" ry="2.5" style="stroke:#181818;stroke-width:0.5;" width="109" x="1364.5" y="34.3594"/><text fill="#000000" font-family="sans-serif" font-size="14" lengthAdjust="spacing" textLength="95" x="1371.5" y="54.0332">currentSession</text><text fill="#000000" font-family="sans-serif" font-size="14" lengthAdjust="spacing" textLength="83" x="1377.5" y="69.6738">:UserSession</text><rect fill="#E2E2F0" height="45.2813" rx="2.5" ry="2.5" style="stroke:#181818;stroke-width:0.5;" width="109" x="1364.5" y="1050.7969"/><text fill="#000000" font-family="sans-serif" font-size="14" lengthAdjust="spacing" textLength="95" x="1371.5" y="1070.4707">currentSession</text><text fill="#000000" font-family="sans-serif" font-size="14" lengthAdjust="spacing" textLength="83" x="1377.5" y="1086.1113">:UserSession</text><rect fill="#E2E2F0" height="45.2813" rx="2.5" ry="2.5" style="stroke:#181818;stroke-width:0.5;" width="165" x="1483.5" y="34.3594"/><text fill="#000000" font-family="sans-serif" font-size="14" lengthAdjust="spacing" textLength="145" x="1493.5" y="54.0332">visitRequestRepository</text><text fill="#000000" font-family="sans-serif" font-size="14" lengthAdjust="spacing" textLength="151" x="1490.5" y="69.6738">:VisitRequestRepository</text><rect fill="#E2E2F0" height="45.2813" rx="2.5" ry="2.5" style="stroke:#181818;stroke-width:0.5;" width="165" x="1483.5" y="1050.7969"/><text fill="#000000" font-family="sans-serif" font-size="14" lengthAdjust="spacing" textLength="145" x="1493.5" y="1070.4707">visitRequestRepository</text><text fill="#000000" font-family="sans-serif" font-size="14" lengthAdjust="spacing" textLength="151" x="1490.5" y="1086.1113">:VisitRequestRepository</text><rect fill="#E2E2F0" height="29.6406" rx="2.5" ry="2.5" style="stroke:#181818;stroke-width:0.5;" width="274" x="1658.5" y="50"/><text fill="#000000" font-family="sans-serif" font-size="14" lengthAdjust="spacing" textLength="260" x="1665.5" y="69.6738">visitRequestMapper\:VisitRequestMapper</text><rect fill="#E2E2F0" height="29.6406" rx="2.5" ry="2.5" style="stroke:#181818;stroke-width:0.5;" width="274" x="1658.5" y="1050.7969"/><text fill="#000000" font-family="sans-serif" font-size="14" lengthAdjust="spacing" textLength="260" x="1665.5" y="1070.4707">visitRequestMapper\:VisitRequestMapper</text><rect fill="#FFFFFF" height="952.1563" style="stroke:#181818;stroke-width:1.0;" width="10" x="21.5" y="90.6406"/><rect fill="#FFFFFF" height="297.3516" style="stroke:#181818;stroke-width:1.0;" width="10" x="483.5" y="111.1641"/><rect fill="#FFFFFF" height="70.0469" style="stroke:#181818;stroke-width:1.0;" width="10" x="483.5" y="437.0391"/><rect fill="#FFFFFF" height="70.0469" style="stroke:#181818;stroke-width:1.0;" width="10" x="483.5" y="535.6094"/><rect fill="#FFFFFF" height="408.6172" style="stroke:#181818;stroke-width:1.0;" width="10" x="483.5" y="634.1797"/><rect fill="#FFFFFF" height="230.3047" style="stroke:#181818;stroke-width:1.0;" width="10" x="760.5" y="149.6875"/><rect fill="#FFFFFF" height="342.5703" style="stroke:#181818;stroke-width:1.0;" width="10" x="760.5" y="662.7031"/><rect fill="#FFFFFF" height="28.5234" style="stroke:#181818;stroke-width:1.0;" width="10" x="900" y="180.3281"/><rect fill="#FFFFFF" height="28.5234" style="stroke:#181818;stroke-width:1.0;" width="10" x="1007" y="237.375"/><rect fill="#FFFFFF" height="28.5234" style="stroke:#181818;stroke-width:1.0;" width="10" x="1134" y="294.4219"/><rect fill="#FFFFFF" height="28.5234" style="stroke:#181818;stroke-width:1.0;" width="10" x="1281" y="351.4688"/><rect fill="#FFFFFF" height="28.5234" style="stroke:#181818;stroke-width:1.0;" width="10" x="1281" y="748.2734"/><rect fill="#FFFFFF" height="28.5234" style="stroke:#181818;stroke-width:1.0;" width="10" x="1414" y="691.2266"/><rect fill="#FFFFFF" height="71.4531" style="stroke:#181818;stroke-width:1.0;" width="10" x="1561" y="805.3203"/><rect fill="#FFFFFF" height="71.4531" style="stroke:#181818;stroke-width:1.0;" width="10" x="1790.5" y="905.2969"/><polygon fill="#181818" points="471.5,107.1641,481.5,111.1641,471.5,115.1641,475.5,111.1641" style="stroke:#181818;stroke-width:1.0;"/><line style="stroke:#181818;stroke-width:1.0;" x1="31.5" x2="477.5" y1="111.1641" y2="111.1641"/><text fill="#000000" font-family="sans-serif" font-size="13" font-weight="bold" lengthAdjust="spacing" textLength="7" x="38.5" y="106.4092">1</text><text fill="#000000" font-family="sans-serif" font-size="13" lengthAdjust="spacing" textLength="301" x="49.5" y="106.4092">Request to list all booking requests managed by me</text><polygon fill="#181818" points="672.5,135.6875,682.5,139.6875,672.5,143.6875,676.5,139.6875" style="stroke:#181818;stroke-width:1.0;"/><line style="stroke:#181818;stroke-width:1.0;" x1="493.5" x2="678.5" y1="139.6875" y2="139.6875"/><text fill="#000000" font-family="sans-serif" font-size="13" font-weight="bold" lengthAdjust="spacing" textLength="7" x="500.5" y="134.9326">2</text><text fill="#000000" font-family="sans-serif" font-size="13" lengthAdjust="spacing" textLength="36" x="511.5" y="134.9326">create</text><rect fill="#E2E2F0" height="29.6406" rx="2.5" ry="2.5" style="stroke:#181818;stroke-width:0.5;" width="162" x="684.5" y="119.1641"/><text fill="#000000" font-family="sans-serif" font-size="14" lengthAdjust="spacing" textLength="148" x="691.5" y="138.8379">:ListRequestsController</text><polygon fill="#181818" points="888,176.3281,898,180.3281,888,184.3281,892,180.3281" style="stroke:#181818;stroke-width:1.0;"/><line style="stroke:#181818;stroke-width:1.0;" x1="770.5" x2="894" y1="180.3281" y2="180.3281"/><text fill="#000000" font-family="sans-serif" font-size="13" font-weight="bold" lengthAdjust="spacing" textLength="7" x="777.5" y="175.5732">3</text><text fill="#000000" font-family="sans-serif" font-size="13" lengthAdjust="spacing" textLength="75" x="788.5" y="175.5732">getInstance()</text><polygon fill="#181818" points="781.5,204.8516,771.5,208.8516,781.5,212.8516,777.5,208.8516" style="stroke:#181818;stroke-width:1.0;"/><line style="stroke:#181818;stroke-width:1.0;stroke-dasharray:2.0,2.0;" x1="775.5" x2="904" y1="208.8516" y2="208.8516"/><text fill="#000000" font-family="sans-serif" font-size="13" font-weight="bold" lengthAdjust="spacing" textLength="7" x="787.5" y="204.0967">4</text><text fill="#000000" font-family="sans-serif" font-size="13" lengthAdjust="spacing" textLength="67" x="798.5" y="204.0967">repositories</text><polygon fill="#181818" points="995,233.375,1005,237.375,995,241.375,999,237.375" style="stroke:#181818;stroke-width:1.0;"/><line style="stroke:#181818;stroke-width:1.0;" x1="770.5" x2="1001" y1="237.375" y2="237.375"/><text fill="#000000" font-family="sans-serif" font-size="13" font-weight="bold" lengthAdjust="spacing" textLength="7" x="777.5" y="232.6201">5</text><text fill="#000000" font-family="sans-serif" font-size="13" lengthAdjust="spacing" textLength="141" x="788.5" y="232.6201">getMessageReposiotry()</text><polygon fill="#181818" points="781.5,261.8984,771.5,265.8984,781.5,269.8984,777.5,265.8984" style="stroke:#181818;stroke-width:1.0;"/><line style="stroke:#181818;stroke-width:1.0;stroke-dasharray:2.0,2.0;" x1="775.5" x2="1011" y1="265.8984" y2="265.8984"/><text fill="#000000" font-family="sans-serif" font-size="13" font-weight="bold" lengthAdjust="spacing" textLength="7" x="787.5" y="261.1436">6</text><text fill="#000000" font-family="sans-serif" font-size="13" lengthAdjust="spacing" textLength="115" x="798.5" y="261.1436">messageRepository</text><polygon fill="#181818" points="1122,290.4219,1132,294.4219,1122,298.4219,1126,294.4219" style="stroke:#181818;stroke-width:1.0;"/><line style="stroke:#181818;stroke-width:1.0;" x1="770.5" x2="1128" y1="294.4219" y2="294.4219"/><text fill="#000000" font-family="sans-serif" font-size="13" font-weight="bold" lengthAdjust="spacing" textLength="7" x="777.5" y="289.667">7</text><text fill="#000000" font-family="sans-serif" font-size="13" lengthAdjust="spacing" textLength="75" x="788.5" y="289.667">getInstance()</text><polygon fill="#181818" points="781.5,318.9453,771.5,322.9453,781.5,326.9453,777.5,322.9453" style="stroke:#181818;stroke-width:1.0;"/><line style="stroke:#181818;stroke-width:1.0;stroke-dasharray:2.0,2.0;" x1="775.5" x2="1138" y1="322.9453" y2="322.9453"/><text fill="#000000" font-family="sans-serif" font-size="13" font-weight="bold" lengthAdjust="spacing" textLength="7" x="787.5" y="318.1904">8</text><text fill="#000000" font-family="sans-serif" font-size="13" lengthAdjust="spacing" textLength="68" x="798.5" y="318.1904">appSession</text><polygon fill="#181818" points="1269,347.4688,1279,351.4688,1269,355.4688,1273,351.4688" style="stroke:#181818;stroke-width:1.0;"/><line style="stroke:#181818;stroke-width:1.0;" x1="770.5" x2="1275" y1="351.4688" y2="351.4688"/><text fill="#000000" font-family="sans-serif" font-size="13" font-weight="bold" lengthAdjust="spacing" textLength="7" x="777.5" y="346.7139">9</text><text fill="#000000" font-family="sans-serif" font-size="13" lengthAdjust="spacing" textLength="115" x="788.5" y="346.7139">getCurrentSession()</text><polygon fill="#181818" points="776.5,375.9922,766.5,379.9922,776.5,383.9922,772.5,379.9922" style="stroke:#181818;stroke-width:1.0;"/><line style="stroke:#181818;stroke-width:1.0;stroke-dasharray:2.0,2.0;" x1="770.5" x2="1285" y1="379.9922" y2="379.9922"/><text fill="#000000" font-family="sans-serif" font-size="13" font-weight="bold" lengthAdjust="spacing" textLength="14" x="782.5" y="375.2373">10</text><text fill="#000000" font-family="sans-serif" font-size="13" lengthAdjust="spacing" textLength="87" x="800.5" y="375.2373">currentSession</text><polygon fill="#181818" points="42.5,404.5156,32.5,408.5156,42.5,412.5156,38.5,408.5156" style="stroke:#181818;stroke-width:1.0;"/><line style="stroke:#181818;stroke-width:1.0;stroke-dasharray:2.0,2.0;" x1="36.5" x2="487.5" y1="408.5156" y2="408.5156"/><text fill="#000000" font-family="sans-serif" font-size="13" font-weight="bold" lengthAdjust="spacing" textLength="14" x="48.5" y="403.7607">11</text><text fill="#000000" font-family="sans-serif" font-size="13" lengthAdjust="spacing" textLength="264" x="66.5" y="403.7607">Requests to input the start date of the filtering</text><polygon fill="#181818" points="471.5,433.0391,481.5,437.0391,471.5,441.0391,475.5,437.0391" style="stroke:#181818;stroke-width:1.0;"/><line style="stroke:#181818;stroke-width:1.0;" x1="31.5" x2="477.5" y1="437.0391" y2="437.0391"/><text fill="#000000" font-family="sans-serif" font-size="13" font-weight="bold" lengthAdjust="spacing" textLength="14" x="38.5" y="432.2842">12</text><text fill="#000000" font-family="sans-serif" font-size="13" lengthAdjust="spacing" textLength="136" x="56.5" y="432.2842">Submists the start date</text><line style="stroke:#181818;stroke-width:1.0;stroke-dasharray:2.0,2.0;" x1="493.5" x2="535.5" y1="465.5625" y2="465.5625"/><line style="stroke:#181818;stroke-width:1.0;stroke-dasharray:2.0,2.0;" x1="535.5" x2="535.5" y1="465.5625" y2="478.5625"/><line style="stroke:#181818;stroke-width:1.0;stroke-dasharray:2.0,2.0;" x1="494.5" x2="535.5" y1="478.5625" y2="478.5625"/><polygon fill="#181818" points="504.5,474.5625,494.5,478.5625,504.5,482.5625,500.5,478.5625" style="stroke:#181818;stroke-width:1.0;"/><text fill="#000000" font-family="sans-serif" font-size="13" font-weight="bold" lengthAdjust="spacing" textLength="14" x="500.5" y="460.8076">13</text><text fill="#000000" font-family="sans-serif" font-size="13" lengthAdjust="spacing" textLength="94" x="518.5" y="460.8076">Saves start date</text><polygon fill="#181818" points="42.5,503.0859,32.5,507.0859,42.5,511.0859,38.5,507.0859" style="stroke:#181818;stroke-width:1.0;"/><line style="stroke:#181818;stroke-width:1.0;" x1="36.5" x2="487.5" y1="507.0859" y2="507.0859"/><text fill="#000000" font-family="sans-serif" font-size="13" font-weight="bold" lengthAdjust="spacing" textLength="14" x="48.5" y="502.3311">14</text><text fill="#000000" font-family="sans-serif" font-size="13" lengthAdjust="spacing" textLength="234" x="66.5" y="502.3311">Asks to input the end date of the filtering</text><polygon fill="#181818" points="471.5,531.6094,481.5,535.6094,471.5,539.6094,475.5,535.6094" style="stroke:#181818;stroke-width:1.0;"/><line style="stroke:#181818;stroke-width:1.0;stroke-dasharray:2.0,2.0;" x1="31.5" x2="477.5" y1="535.6094" y2="535.6094"/><text fill="#000000" font-family="sans-serif" font-size="13" font-weight="bold" lengthAdjust="spacing" textLength="14" x="38.5" y="530.8545">15</text><text fill="#000000" font-family="sans-serif" font-size="13" lengthAdjust="spacing" textLength="131" x="56.5" y="530.8545">Submists the end date</text><line style="stroke:#181818;stroke-width:1.0;stroke-dasharray:2.0,2.0;" x1="493.5" x2="535.5" y1="564.1328" y2="564.1328"/><line style="stroke:#181818;stroke-width:1.0;stroke-dasharray:2.0,2.0;" x1="535.5" x2="535.5" y1="564.1328" y2="577.1328"/><line style="stroke:#181818;stroke-width:1.0;stroke-dasharray:2.0,2.0;" x1="494.5" x2="535.5" y1="577.1328" y2="577.1328"/><polygon fill="#181818" points="504.5,573.1328,494.5,577.1328,504.5,581.1328,500.5,577.1328" style="stroke:#181818;stroke-width:1.0;"/><text fill="#000000" font-family="sans-serif" font-size="13" font-weight="bold" lengthAdjust="spacing" textLength="14" x="500.5" y="559.3779">16</text><text fill="#000000" font-family="sans-serif" font-size="13" lengthAdjust="spacing" textLength="89" x="518.5" y="559.3779">Saves end date</text><polygon fill="#181818" points="42.5,601.6563,32.5,605.6563,42.5,609.6563,38.5,605.6563" style="stroke:#181818;stroke-width:1.0;"/><line style="stroke:#181818;stroke-width:1.0;stroke-dasharray:2.0,2.0;" x1="36.5" x2="487.5" y1="605.6563" y2="605.6563"/><text fill="#000000" font-family="sans-serif" font-size="13" font-weight="bold" lengthAdjust="spacing" textLength="14" x="48.5" y="600.9014">17</text><text fill="#000000" font-family="sans-serif" font-size="13" lengthAdjust="spacing" textLength="310" x="66.5" y="600.9014">Shows the start date and end date and ask to confirm</text><polygon fill="#181818" points="471.5,630.1797,481.5,634.1797,471.5,638.1797,475.5,634.1797" style="stroke:#181818;stroke-width:1.0;"/><line style="stroke:#181818;stroke-width:1.0;" x1="31.5" x2="477.5" y1="634.1797" y2="634.1797"/><text fill="#000000" font-family="sans-serif" font-size="13" font-weight="bold" lengthAdjust="spacing" textLength="14" x="38.5" y="629.4248">18</text><text fill="#000000" font-family="sans-serif" font-size="13" lengthAdjust="spacing" textLength="254" x="56.5" y="629.4248">Confirms the file name and type of algorithm</text><polygon fill="#181818" points="748.5,658.7031,758.5,662.7031,748.5,666.7031,752.5,662.7031" style="stroke:#181818;stroke-width:1.0;"/><line style="stroke:#181818;stroke-width:1.0;" x1="493.5" x2="754.5" y1="662.7031" y2="662.7031"/><text fill="#000000" font-family="sans-serif" font-size="13" font-weight="bold" lengthAdjust="spacing" textLength="14" x="500.5" y="657.9482">19</text><text fill="#000000" font-family="sans-serif" font-size="13" lengthAdjust="spacing" textLength="230" x="518.5" y="657.9482">getListVisitRequest(startDate, endDate)</text><polygon fill="#181818" points="1402,687.2266,1412,691.2266,1402,695.2266,1406,691.2266" style="stroke:#181818;stroke-width:1.0;"/><line style="stroke:#181818;stroke-width:1.0;" x1="770.5" x2="1408" y1="691.2266" y2="691.2266"/><text fill="#000000" font-family="sans-serif" font-size="13" font-weight="bold" lengthAdjust="spacing" textLength="14" x="777.5" y="686.4717">20</text><text fill="#000000" font-family="sans-serif" font-size="13" lengthAdjust="spacing" textLength="86" x="795.5" y="686.4717">getUserEmail()</text><polygon fill="#181818" points="781.5,715.75,771.5,719.75,781.5,723.75,777.5,719.75" style="stroke:#181818;stroke-width:1.0;"/><line style="stroke:#181818;stroke-width:1.0;stroke-dasharray:2.0,2.0;" x1="775.5" x2="1418" y1="719.75" y2="719.75"/><text fill="#000000" font-family="sans-serif" font-size="13" font-weight="bold" lengthAdjust="spacing" textLength="14" x="787.5" y="714.9951">21</text><text fill="#000000" font-family="sans-serif" font-size="13" lengthAdjust="spacing" textLength="78" x="805.5" y="714.9951">getUserEmail</text><polygon fill="#181818" points="1269,744.2734,1279,748.2734,1269,752.2734,1273,748.2734" style="stroke:#181818;stroke-width:1.0;"/><line style="stroke:#181818;stroke-width:1.0;" x1="770.5" x2="1275" y1="748.2734" y2="748.2734"/><text fill="#000000" font-family="sans-serif" font-size="13" font-weight="bold" lengthAdjust="spacing" textLength="14" x="777.5" y="743.5186">22</text><text fill="#000000" font-family="sans-serif" font-size="13" lengthAdjust="spacing" textLength="122" x="795.5" y="743.5186">getSortingAlgorithm()</text><polygon fill="#181818" points="781.5,772.7969,771.5,776.7969,781.5,780.7969,777.5,776.7969" style="stroke:#181818;stroke-width:1.0;"/><line style="stroke:#181818;stroke-width:1.0;stroke-dasharray:2.0,2.0;" x1="775.5" x2="1285" y1="776.7969" y2="776.7969"/><text fill="#000000" font-family="sans-serif" font-size="13" font-weight="bold" lengthAdjust="spacing" textLength="14" x="787.5" y="772.042">23</text><text fill="#000000" font-family="sans-serif" font-size="13" lengthAdjust="spacing" textLength="53" x="805.5" y="772.042">algorithm</text><polygon fill="#181818" points="1549,801.3203,1559,805.3203,1549,809.3203,1553,805.3203" style="stroke:#181818;stroke-width:1.0;"/><line style="stroke:#181818;stroke-width:1.0;" x1="770.5" x2="1555" y1="805.3203" y2="805.3203"/><text fill="#000000" font-family="sans-serif" font-size="13" font-weight="bold" lengthAdjust="spacing" textLength="14" x="777.5" y="800.5654">24</text><text fill="#000000" font-family="sans-serif" font-size="13" lengthAdjust="spacing" textLength="4" x="795.5" y="800.5654">&#160;</text><rect fill="none" height="37.9297" style="stroke:#000000;stroke-width:1.5;" width="171" x="1480.5" y="813.3203"/><path d="M1480.5,813.3203 L1542.5,813.3203 L1542.5,819.3203 L1532.5,829.3203 L1480.5,829.3203 L1480.5,813.3203 " fill="#EEEEEE" style="stroke:#000000;stroke-width:2.0;"/><text fill="#000000" font-family="sans-serif" font-size="13" font-weight="bold" lengthAdjust="spacing" textLength="17" x="1493.5" y="827.0889">ref</text><text fill="#000000" font-family="sans-serif" font-size="12" lengthAdjust="spacing" textLength="131" x="1500.5" y="844.1836">SD_getListVisitRequest</text><polygon fill="#181818" points="781.5,872.7734,771.5,876.7734,781.5,880.7734,777.5,876.7734" style="stroke:#181818;stroke-width:1.0;"/><line style="stroke:#181818;stroke-width:1.0;stroke-dasharray:2.0,2.0;" x1="775.5" x2="1565" y1="876.7734" y2="876.7734"/><text fill="#000000" font-family="sans-serif" font-size="13" font-weight="bold" lengthAdjust="spacing" textLength="14" x="787.5" y="872.0186">25</text><text fill="#000000" font-family="sans-serif" font-size="13" lengthAdjust="spacing" textLength="91" x="805.5" y="872.0186">visitRequestList</text><polygon fill="#181818" points="1778.5,901.2969,1788.5,905.2969,1778.5,909.2969,1782.5,905.2969" style="stroke:#181818;stroke-width:1.0;"/><line style="stroke:#181818;stroke-width:1.0;" x1="770.5" x2="1784.5" y1="905.2969" y2="905.2969"/><text fill="#000000" font-family="sans-serif" font-size="13" font-weight="bold" lengthAdjust="spacing" textLength="14" x="777.5" y="900.542">26</text><text fill="#000000" font-family="sans-serif" font-size="13" lengthAdjust="spacing" textLength="156" x="795.5" y="900.542">listToDTO(visitRequestList)</text><rect fill="none" height="37.9297" style="stroke:#000000;stroke-width:1.5;" width="280" x="1655.5" y="913.2969"/><path d="M1655.5,913.2969 L1717.5,913.2969 L1717.5,919.2969 L1707.5,929.2969 L1655.5,929.2969 L1655.5,913.2969 " fill="#EEEEEE" style="stroke:#000000;stroke-width:2.0;"/><text fill="#000000" font-family="sans-serif" font-size="13" font-weight="bold" lengthAdjust="spacing" textLength="17" x="1668.5" y="927.0654">ref</text><text fill="#000000" font-family="sans-serif" font-size="12" lengthAdjust="spacing" textLength="131" x="1730" y="944.1602">SD_getListVisitRequest</text><polygon fill="#181818" points="781.5,972.75,771.5,976.75,781.5,980.75,777.5,976.75" style="stroke:#181818;stroke-width:1.0;"/><line style="stroke:#181818;stroke-width:1.0;stroke-dasharray:2.0,2.0;" x1="775.5" x2="1794.5" y1="976.75" y2="976.75"/><text fill="#000000" font-family="sans-serif" font-size="13" font-weight="bold" lengthAdjust="spacing" textLength="14" x="787.5" y="971.9951">27</text><text fill="#000000" font-family="sans-serif" font-size="13" lengthAdjust="spacing" textLength="113" x="805.5" y="971.9951">visitRequestDTOlist</text><polygon fill="#181818" points="504.5,1001.2734,494.5,1005.2734,504.5,1009.2734,500.5,1005.2734" style="stroke:#181818;stroke-width:1.0;"/><line style="stroke:#181818;stroke-width:1.0;stroke-dasharray:2.0,2.0;" x1="498.5" x2="764.5" y1="1005.2734" y2="1005.2734"/><text fill="#000000" font-family="sans-serif" font-size="13" font-weight="bold" lengthAdjust="spacing" textLength="14" x="510.5" y="1000.5186">28</text><text fill="#000000" font-family="sans-serif" font-size="13" lengthAdjust="spacing" textLength="113" x="528.5" y="1000.5186">visitRequestDTOlist</text><polygon fill="#181818" points="42.5,1029.7969,32.5,1033.7969,42.5,1037.7969,38.5,1033.7969" style="stroke:#181818;stroke-width:1.0;"/><line style="stroke:#181818;stroke-width:1.0;stroke-dasharray:2.0,2.0;" x1="36.5" x2="482.5" y1="1033.7969" y2="1033.7969"/><text fill="#000000" font-family="sans-serif" font-size="13" font-weight="bold" lengthAdjust="spacing" textLength="14" x="48.5" y="1029.042">29</text><text fill="#000000" font-family="sans-serif" font-size="13" lengthAdjust="spacing" textLength="410" x="66.5" y="1029.042">Displays the list of all booking requests sorted by the selectd algorithm</text><!--SRC=[bLLDR-8m4BtxLrYSschx1tfO2G5Q8K5117ggj39X08l4pjg65Vz-n-Dys06wQWz0dJTltimyJyJPQNKkjs2Oo9qsV30yW783BYmV_fgyhrabZ9Evh8HoVF0sazQjuCyPhBERAS4sqoym8wsSqKK1Xh2ZzMhMGw-WqbPYQWcMCAl9Sf5YJ0JvLBSHozcmhtDOLONCXPDQPM0jVeMIbiiKAAggVex4ZuEoIPPD5-zfR7us1dlLnMyic3XmaqrMQSX5el2wDsqPLmpzkFk0M3wcsNHzsvIOQevbWFbCMC8PCSon0bJY9omlma4zMKPV_FKdZf2_yJgEEyqBd20NHS6tMf-aEd1JZvENGea3xFZsoale2D4334cGoa_uvGNfSWFuf8FGw9d_z31V3u8EuARAEg5oU7hki5Gj8ynhpOdWs0Pi1prqm-pD49ZdE0eK6zgfdRd6ASWpZC1HYZ8EyHE8yr18amPR-bY_jndpY8wwCrfCIS28ilPPO1ub_khnDuvaKLHKIEhDE2ND8PNGSlaHUY7aYzOHrbj2gkgCtZW2ntADupiVg_TqifU50uC-YNcz9LA3PUTjAOakORbrKHiWBc1ZPEsnHj_GddhQGEs-fOmozPGr78ckMrajhD-rxAZ_zcla0j6jEF-Fi2SlFTTgBqtvTUD60MIRae0hKGOQTwseM54Sy5wuO_deJWPB-TKSBuadaZX6-0ylp_zuVdHb_JOZ4h_c9gMGHMn9sdNCVxOsJC59YGH-vFjCuvfJXs5JqlUSttNYWScRjDrURM7T4JEmv_e29ZhBnh_lj91XtnXhKR6KU4Nxi5XHbAeH5DOqnldrkzRZzUAfpn1rebdghT3wu2kLTOPkG34_vYjw8fiSGM5Zn_y41TVqBiLOsgeGrs1XUhsGQU-yOInEFxnWw0f10RdRHLFrV_y0]--></g></svg>