<?xml version="1.0" encoding="us-ascii" standalone="no"?><svg xmlns="http://www.w3.org/2000/svg" xmlns:xlink="http://www.w3.org/1999/xlink" contentStyleType="text/css" height="891px" preserveAspectRatio="none" style="width:1086px;height:891px;background:#FFFFFF;" version="1.1" viewBox="0 0 1086 891" width="1086px" zoomAndPan="magnify"><defs/><g><!--class PublishRequestUI--><g id="elem_PublishRequestUI"><rect codeLine="11" fill="#F1F1F1" height="48" id="PublishRequestUI" rx="2.5" ry="2.5" style="stroke:#181818;stroke-width:0.5;" width="143" x="352.85" y="7"/><ellipse cx="367.85" cy="23" fill="#ADD1B2" rx="11" ry="11" style="stroke:#181818;stroke-width:1.0;"/><path d="M370.6156,18.875 Q370.7719,18.6563 370.9594,18.5469 Q371.1469,18.4375 371.3656,18.4375 Q371.7406,18.4375 371.975,18.7031 Q372.2094,18.9531 372.2094,19.5625 L372.2094,21.0156 Q372.2094,21.625 371.975,21.8906 Q371.7406,22.1563 371.3656,22.1563 Q371.0219,22.1563 370.8187,21.9531 Q370.6156,21.7656 370.5062,21.25 Q370.4594,20.8906 370.2719,20.7031 Q369.9437,20.3281 369.3344,20.1094 Q368.725,19.8906 368.1,19.8906 Q367.3344,19.8906 366.6937,20.2188 Q366.0687,20.5469 365.5687,21.2969 Q365.0844,22.0469 365.0844,23.0781 L365.0844,24.1719 Q365.0844,25.4063 365.975,26.2344 Q366.8656,27.0469 368.4594,27.0469 Q369.3969,27.0469 370.0531,26.7969 Q370.4437,26.6406 370.8656,26.2031 Q371.1312,25.9375 371.2719,25.8594 Q371.4281,25.7813 371.6312,25.7813 Q371.9594,25.7813 372.2094,26.0469 Q372.475,26.2969 372.475,26.6406 Q372.475,26.9844 372.1312,27.3906 Q371.6312,27.9688 370.8344,28.2969 Q369.7562,28.75 368.4594,28.75 Q366.9437,28.75 365.7406,28.125 Q364.7562,27.625 364.0687,26.5625 Q363.3812,25.4844 363.3812,24.2031 L363.3812,23.0469 Q363.3812,21.7188 363.9906,20.5781 Q364.6156,19.4219 365.7094,18.8125 Q366.8031,18.1875 368.0375,18.1875 Q368.7719,18.1875 369.4125,18.3594 Q370.0687,18.5156 370.6156,18.875 Z " fill="#000000"/><text fill="#000000" font-family="sans-serif" font-size="14" lengthAdjust="spacing" textLength="111" x="381.85" y="27.8535">PublishRequestUI</text><line style="stroke:#181818;stroke-width:0.5;" x1="353.85" x2="494.85" y1="39" y2="39"/><line style="stroke:#181818;stroke-width:0.5;" x1="353.85" x2="494.85" y1="47" y2="47"/></g><!--class PublishRequestController--><g id="elem_PublishRequestController"><rect codeLine="13" fill="#F1F1F1" height="501.5781" id="PublishRequestController" rx="2.5" ry="2.5" style="stroke:#181818;stroke-width:0.5;" width="705" x="71.85" y="90"/><ellipse cx="339.6" cy="106" fill="#ADD1B2" rx="11" ry="11" style="stroke:#181818;stroke-width:1.0;"/><path d="M342.3656,101.875 Q342.5219,101.6563 342.7094,101.5469 Q342.8969,101.4375 343.1156,101.4375 Q343.4906,101.4375 343.725,101.7031 Q343.9594,101.9531 343.9594,102.5625 L343.9594,104.0156 Q343.9594,104.625 343.725,104.8906 Q343.4906,105.1563 343.1156,105.1563 Q342.7719,105.1563 342.5688,104.9531 Q342.3656,104.7656 342.2563,104.25 Q342.2094,103.8906 342.0219,103.7031 Q341.6938,103.3281 341.0844,103.1094 Q340.475,102.8906 339.85,102.8906 Q339.0844,102.8906 338.4438,103.2188 Q337.8188,103.5469 337.3188,104.2969 Q336.8344,105.0469 336.8344,106.0781 L336.8344,107.1719 Q336.8344,108.4063 337.725,109.2344 Q338.6156,110.0469 340.2094,110.0469 Q341.1469,110.0469 341.8031,109.7969 Q342.1938,109.6406 342.6156,109.2031 Q342.8813,108.9375 343.0219,108.8594 Q343.1781,108.7813 343.3813,108.7813 Q343.7094,108.7813 343.9594,109.0469 Q344.225,109.2969 344.225,109.6406 Q344.225,109.9844 343.8813,110.3906 Q343.3813,110.9688 342.5844,111.2969 Q341.5063,111.75 340.2094,111.75 Q338.6938,111.75 337.4906,111.125 Q336.5063,110.625 335.8188,109.5625 Q335.1313,108.4844 335.1313,107.2031 L335.1313,106.0469 Q335.1313,104.7188 335.7406,103.5781 Q336.3656,102.4219 337.4594,101.8125 Q338.5531,101.1875 339.7875,101.1875 Q340.5219,101.1875 341.1625,101.3594 Q341.8188,101.5156 342.3656,101.875 Z " fill="#000000"/><text fill="#000000" font-family="sans-serif" font-size="14" lengthAdjust="spacing" textLength="161" x="360.1" y="110.8535">PublishRequestController</text><line style="stroke:#181818;stroke-width:0.5;" x1="72.85" x2="775.85" y1="122" y2="122"/><text fill="#000000" font-family="sans-serif" font-size="14" lengthAdjust="spacing" textLength="144" x="77.85" y="138.6738">-comissionType: String</text><text fill="#000000" font-family="sans-serif" font-size="14" lengthAdjust="spacing" textLength="120" x="77.85" y="154.3145">-comission: Double</text><text fill="#000000" font-family="sans-serif" font-size="14" lengthAdjust="spacing" textLength="114" x="77.85" y="169.9551">-request: Request</text><text fill="#000000" font-family="sans-serif" font-size="14" lengthAdjust="spacing" textLength="202" x="77.85" y="185.5957">-announcement: Announcement</text><text fill="#000000" font-family="sans-serif" font-size="14" lengthAdjust="spacing" textLength="120" x="77.85" y="201.2363">-justification: String</text><text fill="#000000" font-family="sans-serif" font-size="14" lengthAdjust="spacing" textLength="120" x="77.85" y="216.877">-property: Property</text><text fill="#000000" font-family="sans-serif" font-size="14" lengthAdjust="spacing" textLength="105" x="77.85" y="232.5176">-date: LocalDate</text><text fill="#000000" font-family="sans-serif" font-size="14" lengthAdjust="spacing" textLength="178" x="77.85" y="248.1582">-requestType: RequestType</text><text fill="#000000" font-family="sans-serif" font-size="14" lengthAdjust="spacing" textLength="86" x="77.85" y="263.7988">-agent: Agent</text><text fill="#000000" font-family="sans-serif" font-size="14" lengthAdjust="spacing" textLength="89" x="77.85" y="279.4395">-price: Double</text><text fill="#000000" font-family="sans-serif" font-size="14" lengthAdjust="spacing" textLength="92" x="77.85" y="295.0801">-owner: Owner</text><text fill="#000000" font-family="sans-serif" font-size="14" lengthAdjust="spacing" textLength="79" x="77.85" y="310.7207">-store: Store</text><line style="stroke:#181818;stroke-width:0.5;" x1="72.85" x2="775.85" y1="317.6875" y2="317.6875"/><text fill="#000000" font-family="sans-serif" font-size="14" lengthAdjust="spacing" textLength="156" x="77.85" y="334.3613">+getRequestsList(agent)</text><text fill="#000000" font-family="sans-serif" font-size="14" lengthAdjust="spacing" textLength="162" x="77.85" y="350.002">+getRequestInfo(request)</text><text fill="#000000" font-family="sans-serif" font-size="14" lengthAdjust="spacing" textLength="269" x="77.85" y="365.6426">+saveDataComissionType(comissionType)</text><text fill="#000000" font-family="sans-serif" font-size="14" lengthAdjust="spacing" textLength="205" x="77.85" y="381.2832">+saveDataComission(comission)</text><text fill="#000000" font-family="sans-serif" font-size="14" lengthAdjust="spacing" textLength="231" x="77.85" y="396.9238">+addAnnouncement(announcement)</text><text fill="#000000" font-family="sans-serif" font-size="14" lengthAdjust="spacing" textLength="242" x="77.85" y="412.5645">+createEmail(announcement, request)</text><text fill="#000000" font-family="sans-serif" font-size="14" lengthAdjust="spacing" textLength="167" x="77.85" y="428.2051">+excludeRequest(request)</text><text fill="#000000" font-family="sans-serif" font-size="14" lengthAdjust="spacing" textLength="140" x="77.85" y="443.8457">+getProperty(request)</text><text fill="#000000" font-family="sans-serif" font-size="14" lengthAdjust="spacing" textLength="67" x="77.85" y="459.4863">+setDate()</text><text fill="#000000" font-family="sans-serif" font-size="14" lengthAdjust="spacing" textLength="171" x="77.85" y="475.127">+getRequestType(request)</text><text fill="#000000" font-family="sans-serif" font-size="14" lengthAdjust="spacing" textLength="123" x="77.85" y="490.7676">+getAgent(request)</text><text fill="#000000" font-family="sans-serif" font-size="14" lengthAdjust="spacing" textLength="127" x="77.85" y="506.4082">+getOwner(request)</text><text fill="#000000" font-family="sans-serif" font-size="14" lengthAdjust="spacing" textLength="118" x="77.85" y="522.0488">+getPrice(request)</text><text fill="#000000" font-family="sans-serif" font-size="14" lengthAdjust="spacing" textLength="120" x="77.85" y="537.6895">+getStore(request)</text><text fill="#000000" font-family="sans-serif" font-size="14" lengthAdjust="spacing" textLength="161" x="77.85" y="553.3301">+acceptRequest(request)</text><text fill="#000000" font-family="sans-serif" font-size="14" lengthAdjust="spacing" textLength="218" x="77.85" y="568.9707">+createEmail(request, justification)</text><text fill="#000000" font-family="sans-serif" font-size="14" lengthAdjust="spacing" textLength="693" x="77.85" y="584.6113">+createAnnouncement(property, date, commissionType, commission, requestType, agent, price, owner, store)</text></g><!--class Repositories--><g id="elem_Repositories"><rect codeLine="46" fill="#F1F1F1" height="94.9219" id="Repositories" rx="2.5" ry="2.5" style="stroke:#181818;stroke-width:0.5;" width="213" x="317.85" y="627.5"/><ellipse cx="380.6" cy="643.5" fill="#ADD1B2" rx="11" ry="11" style="stroke:#181818;stroke-width:1.0;"/><path d="M383.3656,639.375 Q383.5219,639.1563 383.7094,639.0469 Q383.8969,638.9375 384.1156,638.9375 Q384.4906,638.9375 384.725,639.2031 Q384.9594,639.4531 384.9594,640.0625 L384.9594,641.5156 Q384.9594,642.125 384.725,642.3906 Q384.4906,642.6563 384.1156,642.6563 Q383.7719,642.6563 383.5687,642.4531 Q383.3656,642.2656 383.2562,641.75 Q383.2094,641.3906 383.0219,641.2031 Q382.6937,640.8281 382.0844,640.6094 Q381.475,640.3906 380.85,640.3906 Q380.0844,640.3906 379.4437,640.7188 Q378.8187,641.0469 378.3187,641.7969 Q377.8344,642.5469 377.8344,643.5781 L377.8344,644.6719 Q377.8344,645.9063 378.725,646.7344 Q379.6156,647.5469 381.2094,647.5469 Q382.1469,647.5469 382.8031,647.2969 Q383.1937,647.1406 383.6156,646.7031 Q383.8812,646.4375 384.0219,646.3594 Q384.1781,646.2813 384.3812,646.2813 Q384.7094,646.2813 384.9594,646.5469 Q385.225,646.7969 385.225,647.1406 Q385.225,647.4844 384.8812,647.8906 Q384.3812,648.4688 383.5844,648.7969 Q382.5062,649.25 381.2094,649.25 Q379.6937,649.25 378.4906,648.625 Q377.5062,648.125 376.8187,647.0625 Q376.1312,645.9844 376.1312,644.7031 L376.1312,643.5469 Q376.1312,642.2188 376.7406,641.0781 Q377.3656,639.9219 378.4594,639.3125 Q379.5531,638.6875 380.7875,638.6875 Q381.5219,638.6875 382.1625,638.8594 Q382.8187,639.0156 383.3656,639.375 Z " fill="#000000"/><text fill="#000000" font-family="sans-serif" font-size="14" lengthAdjust="spacing" textLength="79" x="401.1" y="648.3535">Repositories</text><line style="stroke:#181818;stroke-width:0.5;" x1="318.85" x2="529.85" y1="659.5" y2="659.5"/><line style="stroke:#181818;stroke-width:0.5;" x1="318.85" x2="529.85" y1="667.5" y2="667.5"/><text fill="#000000" font-family="sans-serif" font-size="14" lengthAdjust="spacing" textLength="91" x="323.85" y="684.1738">+getInstance()</text><text fill="#000000" font-family="sans-serif" font-size="14" lengthAdjust="spacing" textLength="166" x="323.85" y="699.8145">+getRequestsRepository()</text><text fill="#000000" font-family="sans-serif" font-size="14" lengthAdjust="spacing" textLength="201" x="323.85" y="715.4551">+getAnnouncementRepository()</text></g><!--class RequestRepository--><g id="elem_RequestRepository"><rect codeLine="53" fill="#F1F1F1" height="126.2031" id="RequestRepository" rx="2.5" ry="2.5" style="stroke:#181818;stroke-width:0.5;" width="179" x="334.85" y="758"/><ellipse cx="361.55" cy="774" fill="#ADD1B2" rx="11" ry="11" style="stroke:#181818;stroke-width:1.0;"/><path d="M364.3156,769.875 Q364.4719,769.6563 364.6594,769.5469 Q364.8469,769.4375 365.0656,769.4375 Q365.4406,769.4375 365.675,769.7031 Q365.9094,769.9531 365.9094,770.5625 L365.9094,772.0156 Q365.9094,772.625 365.675,772.8906 Q365.4406,773.1563 365.0656,773.1563 Q364.7219,773.1563 364.5187,772.9531 Q364.3156,772.7656 364.2062,772.25 Q364.1594,771.8906 363.9719,771.7031 Q363.6437,771.3281 363.0344,771.1094 Q362.425,770.8906 361.8,770.8906 Q361.0344,770.8906 360.3937,771.2188 Q359.7687,771.5469 359.2687,772.2969 Q358.7844,773.0469 358.7844,774.0781 L358.7844,775.1719 Q358.7844,776.4063 359.675,777.2344 Q360.5656,778.0469 362.1594,778.0469 Q363.0969,778.0469 363.7531,777.7969 Q364.1437,777.6406 364.5656,777.2031 Q364.8312,776.9375 364.9719,776.8594 Q365.1281,776.7813 365.3312,776.7813 Q365.6594,776.7813 365.9094,777.0469 Q366.175,777.2969 366.175,777.6406 Q366.175,777.9844 365.8312,778.3906 Q365.3312,778.9688 364.5344,779.2969 Q363.4562,779.75 362.1594,779.75 Q360.6437,779.75 359.4406,779.125 Q358.4562,778.625 357.7687,777.5625 Q357.0812,776.4844 357.0812,775.2031 L357.0812,774.0469 Q357.0812,772.7188 357.6906,771.5781 Q358.3156,770.4219 359.4094,769.8125 Q360.5031,769.1875 361.7375,769.1875 Q362.4719,769.1875 363.1125,769.3594 Q363.7687,769.5156 364.3156,769.875 Z " fill="#000000"/><text fill="#000000" font-family="sans-serif" font-size="14" lengthAdjust="spacing" textLength="121" x="378.15" y="778.8535">RequestRepository</text><line style="stroke:#181818;stroke-width:0.5;" x1="335.85" x2="512.85" y1="790" y2="790"/><text fill="#000000" font-family="sans-serif" font-size="14" lengthAdjust="spacing" textLength="41" x="340.85" y="806.6738">-agent</text><text fill="#000000" font-family="sans-serif" font-size="14" lengthAdjust="spacing" textLength="53" x="340.85" y="822.3145">-request</text><line style="stroke:#181818;stroke-width:0.5;" x1="335.85" x2="512.85" y1="829.2813" y2="829.2813"/><text fill="#000000" font-family="sans-serif" font-size="14" lengthAdjust="spacing" textLength="134" x="340.85" y="845.9551">+getRequests(agent)</text><text fill="#000000" font-family="sans-serif" font-size="14" lengthAdjust="spacing" textLength="161" x="340.85" y="861.5957">+acceptRequest(request)</text><text fill="#000000" font-family="sans-serif" font-size="14" lengthAdjust="spacing" textLength="167" x="340.85" y="877.2363">+excludeRequest(request)</text></g><!--class AnnouncementRepository--><g id="elem_AnnouncementRepository"><rect codeLine="62" fill="#F1F1F1" height="79.2813" id="AnnouncementRepository" rx="2.5" ry="2.5" style="stroke:#181818;stroke-width:0.5;" width="243" x="836.85" y="301.5"/><ellipse cx="873.45" cy="317.5" fill="#ADD1B2" rx="11" ry="11" style="stroke:#181818;stroke-width:1.0;"/><path d="M876.2156,313.375 Q876.3719,313.1563 876.5594,313.0469 Q876.7469,312.9375 876.9656,312.9375 Q877.3406,312.9375 877.575,313.2031 Q877.8094,313.4531 877.8094,314.0625 L877.8094,315.5156 Q877.8094,316.125 877.575,316.3906 Q877.3406,316.6563 876.9656,316.6563 Q876.6219,316.6563 876.4188,316.4531 Q876.2156,316.2656 876.1063,315.75 Q876.0594,315.3906 875.8719,315.2031 Q875.5438,314.8281 874.9344,314.6094 Q874.325,314.3906 873.7,314.3906 Q872.9344,314.3906 872.2938,314.7188 Q871.6688,315.0469 871.1688,315.7969 Q870.6844,316.5469 870.6844,317.5781 L870.6844,318.6719 Q870.6844,319.9063 871.575,320.7344 Q872.4656,321.5469 874.0594,321.5469 Q874.9969,321.5469 875.6531,321.2969 Q876.0438,321.1406 876.4656,320.7031 Q876.7313,320.4375 876.8719,320.3594 Q877.0281,320.2813 877.2313,320.2813 Q877.5594,320.2813 877.8094,320.5469 Q878.075,320.7969 878.075,321.1406 Q878.075,321.4844 877.7313,321.8906 Q877.2313,322.4688 876.4344,322.7969 Q875.3563,323.25 874.0594,323.25 Q872.5438,323.25 871.3406,322.625 Q870.3563,322.125 869.6688,321.0625 Q868.9813,319.9844 868.9813,318.7031 L868.9813,317.5469 Q868.9813,316.2188 869.5906,315.0781 Q870.2156,313.9219 871.3094,313.3125 Q872.4031,312.6875 873.6375,312.6875 Q874.3719,312.6875 875.0125,312.8594 Q875.6688,313.0156 876.2156,313.375 Z " fill="#000000"/><text fill="#000000" font-family="sans-serif" font-size="14" lengthAdjust="spacing" textLength="163" x="892.25" y="322.3535">AnnouncementRepository</text><line style="stroke:#181818;stroke-width:0.5;" x1="837.85" x2="1078.85" y1="333.5" y2="333.5"/><text fill="#000000" font-family="sans-serif" font-size="14" lengthAdjust="spacing" textLength="99" x="842.85" y="350.1738">-announcement</text><line style="stroke:#181818;stroke-width:0.5;" x1="837.85" x2="1078.85" y1="357.1406" y2="357.1406"/><text fill="#000000" font-family="sans-serif" font-size="14" lengthAdjust="spacing" textLength="231" x="842.85" y="373.8145">+addAnnouncement(announcement)</text></g><!--class Announcement--><g id="elem_Announcement"><rect codeLine="69" fill="#F1F1F1" height="126.2031" id="Announcement" rx="2.5" ry="2.5" style="stroke:#181818;stroke-width:0.5;" width="190" x="863.35" y="416"/><ellipse cx="906.7" cy="432" fill="#ADD1B2" rx="11" ry="11" style="stroke:#181818;stroke-width:1.0;"/><path d="M909.4656,427.875 Q909.6219,427.6563 909.8094,427.5469 Q909.9969,427.4375 910.2156,427.4375 Q910.5906,427.4375 910.825,427.7031 Q911.0594,427.9531 911.0594,428.5625 L911.0594,430.0156 Q911.0594,430.625 910.825,430.8906 Q910.5906,431.1563 910.2156,431.1563 Q909.8719,431.1563 909.6688,430.9531 Q909.4656,430.7656 909.3563,430.25 Q909.3094,429.8906 909.1219,429.7031 Q908.7938,429.3281 908.1844,429.1094 Q907.575,428.8906 906.95,428.8906 Q906.1844,428.8906 905.5438,429.2188 Q904.9188,429.5469 904.4188,430.2969 Q903.9344,431.0469 903.9344,432.0781 L903.9344,433.1719 Q903.9344,434.4063 904.825,435.2344 Q905.7156,436.0469 907.3094,436.0469 Q908.2469,436.0469 908.9031,435.7969 Q909.2938,435.6406 909.7156,435.2031 Q909.9813,434.9375 910.1219,434.8594 Q910.2781,434.7813 910.4813,434.7813 Q910.8094,434.7813 911.0594,435.0469 Q911.325,435.2969 911.325,435.6406 Q911.325,435.9844 910.9813,436.3906 Q910.4813,436.9688 909.6844,437.2969 Q908.6063,437.75 907.3094,437.75 Q905.7938,437.75 904.5906,437.125 Q903.6063,436.625 902.9188,435.5625 Q902.2313,434.4844 902.2313,433.2031 L902.2313,432.0469 Q902.2313,430.7188 902.8406,429.5781 Q903.4656,428.4219 904.5594,427.8125 Q905.6531,427.1875 906.8875,427.1875 Q907.6219,427.1875 908.2625,427.3594 Q908.9188,427.5156 909.4656,427.875 Z " fill="#000000"/><text fill="#000000" font-family="sans-serif" font-size="14" lengthAdjust="spacing" textLength="95" x="927" y="436.8535">Announcement</text><line style="stroke:#181818;stroke-width:0.5;" x1="864.35" x2="1052.35" y1="448" y2="448"/><text fill="#000000" font-family="sans-serif" font-size="14" lengthAdjust="spacing" textLength="105" x="869.35" y="464.6738">-date: LocalDate</text><text fill="#000000" font-family="sans-serif" font-size="14" lengthAdjust="spacing" textLength="120" x="869.35" y="480.3145">-property: Property</text><text fill="#000000" font-family="sans-serif" font-size="14" lengthAdjust="spacing" textLength="144" x="869.35" y="495.9551">-comissionType: String</text><text fill="#000000" font-family="sans-serif" font-size="14" lengthAdjust="spacing" textLength="120" x="869.35" y="511.5957">-comission: Double</text><text fill="#000000" font-family="sans-serif" font-size="14" lengthAdjust="spacing" textLength="178" x="869.35" y="527.2363">-requestType: RequestType</text><line style="stroke:#181818;stroke-width:0.5;" x1="864.35" x2="1052.35" y1="534.2031" y2="534.2031"/></g><!--class Request--><g id="elem_Request"><rect codeLine="79" fill="#F1F1F1" height="141.8438" id="Request" rx="2.5" ry="2.5" style="stroke:#181818;stroke-width:0.5;" width="190" x="863.35" y="663"/><ellipse cx="927.6" cy="679" fill="#ADD1B2" rx="11" ry="11" style="stroke:#181818;stroke-width:1.0;"/><path d="M930.3656,674.875 Q930.5219,674.6563 930.7094,674.5469 Q930.8969,674.4375 931.1156,674.4375 Q931.4906,674.4375 931.725,674.7031 Q931.9594,674.9531 931.9594,675.5625 L931.9594,677.0156 Q931.9594,677.625 931.725,677.8906 Q931.4906,678.1563 931.1156,678.1563 Q930.7719,678.1563 930.5688,677.9531 Q930.3656,677.7656 930.2563,677.25 Q930.2094,676.8906 930.0219,676.7031 Q929.6938,676.3281 929.0844,676.1094 Q928.475,675.8906 927.85,675.8906 Q927.0844,675.8906 926.4438,676.2188 Q925.8188,676.5469 925.3188,677.2969 Q924.8344,678.0469 924.8344,679.0781 L924.8344,680.1719 Q924.8344,681.4063 925.725,682.2344 Q926.6156,683.0469 928.2094,683.0469 Q929.1469,683.0469 929.8031,682.7969 Q930.1938,682.6406 930.6156,682.2031 Q930.8813,681.9375 931.0219,681.8594 Q931.1781,681.7813 931.3813,681.7813 Q931.7094,681.7813 931.9594,682.0469 Q932.225,682.2969 932.225,682.6406 Q932.225,682.9844 931.8813,683.3906 Q931.3813,683.9688 930.5844,684.2969 Q929.5063,684.75 928.2094,684.75 Q926.6938,684.75 925.4906,684.125 Q924.5063,683.625 923.8188,682.5625 Q923.1313,681.4844 923.1313,680.2031 L923.1313,679.0469 Q923.1313,677.7188 923.7406,676.5781 Q924.3656,675.4219 925.4594,674.8125 Q926.5531,674.1875 927.7875,674.1875 Q928.5219,674.1875 929.1625,674.3594 Q929.8188,674.5156 930.3656,674.875 Z " fill="#000000"/><text fill="#000000" font-family="sans-serif" font-size="14" lengthAdjust="spacing" textLength="53" x="948.1" y="683.8535">Request</text><line style="stroke:#181818;stroke-width:0.5;" x1="864.35" x2="1052.35" y1="695" y2="695"/><text fill="#000000" font-family="sans-serif" font-size="14" lengthAdjust="spacing" textLength="120" x="869.35" y="711.6738">-Property: property</text><text fill="#000000" font-family="sans-serif" font-size="14" lengthAdjust="spacing" textLength="89" x="869.35" y="727.3145">-price: Double</text><text fill="#000000" font-family="sans-serif" font-size="14" lengthAdjust="spacing" textLength="178" x="869.35" y="742.9551">-requestType: RequestType</text><text fill="#000000" font-family="sans-serif" font-size="14" lengthAdjust="spacing" textLength="86" x="869.35" y="758.5957">-agent: Agent</text><text fill="#000000" font-family="sans-serif" font-size="14" lengthAdjust="spacing" textLength="79" x="869.35" y="774.2363">-store: Store</text><text fill="#000000" font-family="sans-serif" font-size="14" lengthAdjust="spacing" textLength="92" x="869.35" y="789.877">-owner: Owner</text><line style="stroke:#181818;stroke-width:0.5;" x1="864.35" x2="1052.35" y1="796.8438" y2="796.8438"/></g><!--link PublishRequestUI to PublishRequestController--><g id="link_PublishRequestUI_PublishRequestController"><path codeLine="89" d="M424.35,55.32 C424.35,65.09 424.35,74.85 424.35,84.62 " fill="none" id="PublishRequestUI-to-PublishRequestController" style="stroke:#181818;stroke-width:1.0;"/><polygon fill="#181818" points="424.35,89.73,428.35,80.73,424.35,84.73,420.35,80.73,424.35,89.73" style="stroke:#181818;stroke-width:1.0;"/></g><!--link PublishRequestController to Repositories--><g id="link_PublishRequestController_Repositories"><path codeLine="90" d="M424.35,592.14 C424.35,602.14 424.35,612.15 424.35,622.15 " fill="none" id="PublishRequestController-to-Repositories" style="stroke:#181818;stroke-width:1.0;"/><polygon fill="#181818" points="424.35,627.38,428.35,618.38,424.35,622.38,420.35,618.38,424.35,627.38" style="stroke:#181818;stroke-width:1.0;"/></g><!--link Repositories to AnnouncementRepository--><g id="link_Repositories_AnnouncementRepository"><path codeLine="91" d="M531.2,682.76 C608.56,682.52 711.03,669.06 776.85,609 C848.87,543.28 773.82,472.38 836.85,398 C841.2,392.86 846.12,388.16 851.42,383.86 " fill="none" id="Repositories-to-AnnouncementRepository" style="stroke:#181818;stroke-width:1.0;"/><polygon fill="#181818" points="855.55,380.64,845.9877,382.9985,851.6002,383.7058,850.8929,389.3182,855.55,380.64" style="stroke:#181818;stroke-width:1.0;"/></g><!--link Repositories to RequestRepository--><g id="link_Repositories_RequestRepository"><path codeLine="92" d="M424.35,722.65 C424.35,732.68 424.35,742.71 424.35,752.74 " fill="none" id="Repositories-to-RequestRepository" style="stroke:#181818;stroke-width:1.0;"/><polygon fill="#181818" points="424.35,757.98,428.35,748.98,424.35,752.98,420.35,748.98,424.35,757.98" style="stroke:#181818;stroke-width:1.0;"/></g><!--link AnnouncementRepository to Announcement--><g id="link_AnnouncementRepository_Announcement"><path codeLine="93" d="M958.35,380.51 C958.35,390.57 958.35,400.62 958.35,410.67 " fill="none" id="AnnouncementRepository-to-Announcement" style="stroke:#181818;stroke-width:1.0;"/><polygon fill="#181818" points="958.35,415.93,962.35,406.93,958.35,410.93,954.35,406.93,958.35,415.93" style="stroke:#181818;stroke-width:1.0;"/><text fill="#000000" font-family="sans-serif" font-size="13" lengthAdjust="spacing" textLength="21" x="936.0703" y="405.1783">has</text></g><!--link RequestRepository to Request--><g id="link_RequestRepository_Request"><path codeLine="94" d="M514.1,806.49 C609.02,790.96 759.2,766.4 858.01,750.25 " fill="none" id="RequestRepository-to-Request" style="stroke:#181818;stroke-width:1.0;"/><polygon fill="#181818" points="862.97,749.43,853.4395,746.9461,858.0365,750.2427,854.7399,754.8397,862.97,749.43" style="stroke:#181818;stroke-width:1.0;"/><text fill="#000000" font-family="sans-serif" font-size="13" lengthAdjust="spacing" textLength="21" x="834.1944" y="762.8707">has</text></g><!--link PublishRequestController to Announcement--><g id="link_PublishRequestController_Announcement"><path codeLine="95" d="M776.87,432.18 C806.09,439.76 833.76,446.94 858.26,453.3 " fill="none" id="PublishRequestController-to-Announcement" style="stroke:#181818;stroke-width:1.0;"/><polygon fill="#181818" points="863.12,454.56,855.4138,448.427,858.2804,453.3037,853.4037,456.1703,863.12,454.56" style="stroke:#181818;stroke-width:1.0;"/><text fill="#000000" font-family="sans-serif" font-size="13" lengthAdjust="spacing" textLength="43" x="808.5139" y="465.2216">creates</text></g><!--link PublishRequestController to AnnouncementRepository--><g id="link_PublishRequestController_AnnouncementRepository"><path codeLine="96" d="M776.87,341 C795.81,341 814.11,341 831.32,341 " fill="none" id="PublishRequestController-to-AnnouncementRepository" style="stroke:#181818;stroke-width:1.0;stroke-dasharray:7.0,7.0;"/><polygon fill="#181818" points="836.62,341,827.62,337,831.62,341,827.62,345,836.62,341" style="stroke:#181818;stroke-width:1.0;"/></g><!--link PublishRequestController to RequestRepository--><g id="link_PublishRequestController_RequestRepository"><path codeLine="97" d="M71.65,548.38 C26.03,600.8 6,660.08 41.85,722.5 C97.13,818.74 235.41,832.66 329.64,829.88 " fill="none" id="PublishRequestController-to-RequestRepository" style="stroke:#181818;stroke-width:1.0;stroke-dasharray:7.0,7.0;"/><polygon fill="#181818" points="334.65,829.72,325.5288,826.0047,329.6525,829.8771,325.7801,834.0007,334.65,829.72" style="stroke:#181818;stroke-width:1.0;"/></g><!--link PublishRequestController to Request--><g id="link_PublishRequestController_Request"><path codeLine="98" d="M765.29,592.12 C799.06,617.07 831.11,640.74 859,661.34 " fill="none" id="PublishRequestController-to-Request" style="stroke:#181818;stroke-width:1.0;"/><polygon fill="#181818" points="863.08,664.36,858.2114,655.7986,859.0562,661.3921,853.4627,662.2368,863.08,664.36" style="stroke:#181818;stroke-width:1.0;"/></g><!--SRC=[dLNBRjim4BppAnQ-r47be6SV2WH93mO2rB3R3s2ejSo68bMIQkeM_VTI52MJ4fK0ySNcpZvcXylr1_FCPKCrhQ5MKh6pLZM2rIsIAz9GzamhFDgBGD38B9MLY1tCcPRgXSiAJbIO615Sehqq28qIb-wGmvIsYaG04zIOEsirVsejxfYIH_u7uHCX0ayMh0BDgxE5adTak9A4-13Ojq-2c_C1VxPexFTTtdwlfDLA2DJaBm7tsJ1LSsDSec-EpXQEhhAi9j0M7fHBWxrPzwcs47BsLYgbQYN36gM3xg9JZ_zeZUKdpgZr2UCwZLODQdlPmZxywkqbjOxHes9KFBYVIVMUxU5w22ogldmrrcqqPvWse5uawYryxRvwYx5A- -RTbxTyhD26vEQH6xlsYM-cs4wUr3em2g2Xlz2nfVUnhkj4vINFgrVme6KP2xcEDGukJAEJvajDkKZW0b9Q-9k9jiJ0UyBPDJGeF-q6RIVzUjQvxsgMnUi-DtkbSpNTrSpD_XOcPieODZRFFfOW80KauvOu9eeEerT0Dsm5k1k8BYe-ZuBsW9-70lnq5U0dgW0_HZVat_3s3jWemvsHemdlhMjm9urR8ooZgXaZBX4OCquSea8-_0eEhvjU7uAENcjSCXdjrtHU6g6HHPxdI6Mw4juOxtpU8LjsDomjadVlkFcMSQJ8VQnv80IR_LYyYOldDj0RMoopnZ8hQhB77B7fNm1iFY-l_oMW2qhcDZvquC8jJztc8vaFx7nNPsfMwJNFmc4pEWxABxVGkVQltS0goRiOStkxsDfoJAxDLraDrCb_]--></g></svg>