<?xml version="1.0" encoding="us-ascii" standalone="no"?><svg xmlns="http://www.w3.org/2000/svg" xmlns:xlink="http://www.w3.org/1999/xlink" contentStyleType="text/css" height="763px" preserveAspectRatio="none" style="width:541px;height:763px;background:#FFFFFF;" version="1.1" viewBox="0 0 541 763" width="541px" zoomAndPan="magnify"><defs/><g><text fill="#000000" font-family="sans-serif" font-size="14" font-weight="bold" lengthAdjust="spacing" textLength="228" x="158.25" y="27.6738">System Sequence Diagram (SSD)</text><rect fill="#FFFFFF" height="545.9453" style="stroke:#181818;stroke-width:1.0;" width="10" x="36.5" y="127.2813"/><rect fill="#FFFFFF" height="28.5234" style="stroke:#181818;stroke-width:1.0;" width="10" x="488.5" y="147.8047"/><rect fill="#FFFFFF" height="28.5234" style="stroke:#181818;stroke-width:1.0;" width="10" x="488.5" y="204.8516"/><rect fill="#FFFFFF" height="52.0469" style="stroke:#181818;stroke-width:1.0;" width="10" x="488.5" y="261.8984"/><rect fill="#FFFFFF" height="28.5234" style="stroke:#181818;stroke-width:1.0;" width="10" x="488.5" y="342.4688"/><rect fill="#FFFFFF" height="28.5234" style="stroke:#181818;stroke-width:1.0;" width="10" x="488.5" y="399.5156"/><rect fill="#FFFFFF" height="87.5703" style="stroke:#181818;stroke-width:1.0;" width="10" x="488.5" y="456.5625"/><rect fill="#FFFFFF" height="28.5234" style="stroke:#181818;stroke-width:1.0;" width="10" x="488.5" y="572.6563"/><rect fill="#FFFFFF" height="28.5234" style="stroke:#181818;stroke-width:1.0;" width="10" x="488.5" y="629.7031"/><rect fill="none" height="216.1875" style="stroke:#000000;stroke-width:1.5;" width="525.5" x="10" y="276.8984"/><rect fill="none" height="159.1406" style="stroke:#000000;stroke-width:1.5;" width="525.5" x="10" y="507.0859"/><line style="stroke:#181818;stroke-width:0.5;stroke-dasharray:5.0,5.0;" x1="41" x2="41" y1="117.2813" y2="683.2266"/><line style="stroke:#181818;stroke-width:0.5;stroke-dasharray:5.0,5.0;" x1="493.5" x2="493.5" y1="117.2813" y2="683.2266"/><text fill="#000000" font-family="sans-serif" font-size="14" lengthAdjust="spacing" textLength="37" x="20" y="114.3145">Agent</text><ellipse cx="41.5" cy="50.1406" fill="#E3E3E3" rx="8" ry="8" style="stroke:#181818;stroke-width:0.5;"/><path d="M41.5,58.1406 L41.5,85.1406 M28.5,66.1406 L54.5,66.1406 M41.5,85.1406 L28.5,100.1406 M41.5,85.1406 L54.5,100.1406 " fill="none" style="stroke:#181818;stroke-width:0.5;"/><text fill="#000000" font-family="sans-serif" font-size="14" lengthAdjust="spacing" textLength="37" x="20" y="694.9004">Agent</text><ellipse cx="41.5" cy="706.3672" fill="#E3E3E3" rx="8" ry="8" style="stroke:#181818;stroke-width:0.5;"/><path d="M41.5,714.3672 L41.5,741.3672 M28.5,722.3672 L54.5,722.3672 M41.5,741.3672 L28.5,756.3672 M41.5,741.3672 L54.5,756.3672 " fill="none" style="stroke:#181818;stroke-width:0.5;"/><rect fill="#E3E3E3" height="29.6406" rx="2.5" ry="2.5" style="stroke:#181818;stroke-width:0.5;" width="64" x="461.5" y="86.6406"/><text fill="#000000" font-family="sans-serif" font-size="14" lengthAdjust="spacing" textLength="50" x="468.5" y="106.3145">:System</text><rect fill="#E3E3E3" height="29.6406" rx="2.5" ry="2.5" style="stroke:#181818;stroke-width:0.5;" width="64" x="461.5" y="682.2266"/><text fill="#000000" font-family="sans-serif" font-size="14" lengthAdjust="spacing" textLength="50" x="468.5" y="701.9004">:System</text><rect fill="#FFFFFF" height="545.9453" style="stroke:#181818;stroke-width:1.0;" width="10" x="36.5" y="127.2813"/><rect fill="#FFFFFF" height="28.5234" style="stroke:#181818;stroke-width:1.0;" width="10" x="488.5" y="147.8047"/><rect fill="#FFFFFF" height="28.5234" style="stroke:#181818;stroke-width:1.0;" width="10" x="488.5" y="204.8516"/><rect fill="#FFFFFF" height="52.0469" style="stroke:#181818;stroke-width:1.0;" width="10" x="488.5" y="261.8984"/><rect fill="#FFFFFF" height="28.5234" style="stroke:#181818;stroke-width:1.0;" width="10" x="488.5" y="342.4688"/><rect fill="#FFFFFF" height="28.5234" style="stroke:#181818;stroke-width:1.0;" width="10" x="488.5" y="399.5156"/><rect fill="#FFFFFF" height="87.5703" style="stroke:#181818;stroke-width:1.0;" width="10" x="488.5" y="456.5625"/><rect fill="#FFFFFF" height="28.5234" style="stroke:#181818;stroke-width:1.0;" width="10" x="488.5" y="572.6563"/><rect fill="#FFFFFF" height="28.5234" style="stroke:#181818;stroke-width:1.0;" width="10" x="488.5" y="629.7031"/><polygon fill="#181818" points="476.5,143.8047,486.5,147.8047,476.5,151.8047,480.5,147.8047" style="stroke:#181818;stroke-width:1.0;"/><line style="stroke:#181818;stroke-width:1.0;" x1="46.5" x2="482.5" y1="147.8047" y2="147.8047"/><text fill="#000000" font-family="sans-serif" font-size="13" font-weight="bold" lengthAdjust="spacing" textLength="7" x="53.5" y="143.0498">1</text><text fill="#000000" font-family="sans-serif" font-size="13" lengthAdjust="spacing" textLength="412" x="64.5" y="143.0498">asks to see the list of property announcement requests made to myself</text><polygon fill="#181818" points="57.5,172.3281,47.5,176.3281,57.5,180.3281,53.5,176.3281" style="stroke:#181818;stroke-width:1.0;"/><line style="stroke:#181818;stroke-width:1.0;stroke-dasharray:2.0,2.0;" x1="51.5" x2="492.5" y1="176.3281" y2="176.3281"/><text fill="#000000" font-family="sans-serif" font-size="13" font-weight="bold" lengthAdjust="spacing" textLength="7" x="63.5" y="171.5732">2</text><text fill="#000000" font-family="sans-serif" font-size="13" lengthAdjust="spacing" textLength="288" x="74.5" y="171.5732">shows the list of property announcement requests</text><polygon fill="#181818" points="476.5,200.8516,486.5,204.8516,476.5,208.8516,480.5,204.8516" style="stroke:#181818;stroke-width:1.0;"/><line style="stroke:#181818;stroke-width:1.0;" x1="46.5" x2="482.5" y1="204.8516" y2="204.8516"/><text fill="#000000" font-family="sans-serif" font-size="13" font-weight="bold" lengthAdjust="spacing" textLength="7" x="53.5" y="200.0967">3</text><text fill="#000000" font-family="sans-serif" font-size="13" lengthAdjust="spacing" textLength="297" x="64.5" y="200.0967">selects one of the property announcement requests</text><polygon fill="#181818" points="57.5,229.375,47.5,233.375,57.5,237.375,53.5,233.375" style="stroke:#181818;stroke-width:1.0;"/><line style="stroke:#181818;stroke-width:1.0;stroke-dasharray:2.0,2.0;" x1="51.5" x2="492.5" y1="233.375" y2="233.375"/><text fill="#000000" font-family="sans-serif" font-size="13" font-weight="bold" lengthAdjust="spacing" textLength="7" x="63.5" y="228.6201">4</text><text fill="#000000" font-family="sans-serif" font-size="13" lengthAdjust="spacing" textLength="271" x="74.5" y="228.6201">shows request and asks if they want to publish</text><polygon fill="#181818" points="476.5,257.8984,486.5,261.8984,476.5,265.8984,480.5,261.8984" style="stroke:#181818;stroke-width:1.0;"/><line style="stroke:#181818;stroke-width:1.0;" x1="46.5" x2="482.5" y1="261.8984" y2="261.8984"/><text fill="#000000" font-family="sans-serif" font-size="13" font-weight="bold" lengthAdjust="spacing" textLength="7" x="53.5" y="257.1436">5</text><text fill="#000000" font-family="sans-serif" font-size="13" lengthAdjust="spacing" textLength="103" x="64.5" y="257.1436">selects the option</text><path d="M10,276.8984 L75,276.8984 L75,283.4219 L65,293.4219 L10,293.4219 L10,276.8984 " fill="#EEEEEE" style="stroke:#000000;stroke-width:1.5;"/><rect fill="none" height="216.1875" style="stroke:#000000;stroke-width:1.5;" width="525.5" x="10" y="276.8984"/><text fill="#000000" font-family="sans-serif" font-size="13" font-weight="bold" lengthAdjust="spacing" textLength="20" x="25" y="289.667">opt</text><text fill="#000000" font-family="sans-serif" font-size="11" font-weight="bold" lengthAdjust="spacing" textLength="107" x="90" y="288.8564">[selects to publish]</text><polygon fill="#181818" points="57.5,309.9453,47.5,313.9453,57.5,317.9453,53.5,313.9453" style="stroke:#181818;stroke-width:1.0;"/><line style="stroke:#181818;stroke-width:1.0;stroke-dasharray:2.0,2.0;" x1="51.5" x2="492.5" y1="313.9453" y2="313.9453"/><text fill="#000000" font-family="sans-serif" font-size="13" font-weight="bold" lengthAdjust="spacing" textLength="7" x="63.5" y="309.1904">6</text><text fill="#000000" font-family="sans-serif" font-size="13" lengthAdjust="spacing" textLength="138" x="74.5" y="309.1904">asks for comission type</text><polygon fill="#181818" points="476.5,338.4688,486.5,342.4688,476.5,346.4688,480.5,342.4688" style="stroke:#181818;stroke-width:1.0;"/><line style="stroke:#181818;stroke-width:1.0;" x1="46.5" x2="482.5" y1="342.4688" y2="342.4688"/><text fill="#000000" font-family="sans-serif" font-size="13" font-weight="bold" lengthAdjust="spacing" textLength="7" x="53.5" y="337.7139">7</text><text fill="#000000" font-family="sans-serif" font-size="13" lengthAdjust="spacing" textLength="156" x="64.5" y="337.7139">selects the comission type</text><polygon fill="#181818" points="57.5,366.9922,47.5,370.9922,57.5,374.9922,53.5,370.9922" style="stroke:#181818;stroke-width:1.0;"/><line style="stroke:#181818;stroke-width:1.0;stroke-dasharray:2.0,2.0;" x1="51.5" x2="492.5" y1="370.9922" y2="370.9922"/><text fill="#000000" font-family="sans-serif" font-size="13" font-weight="bold" lengthAdjust="spacing" textLength="7" x="63.5" y="366.2373">8</text><text fill="#000000" font-family="sans-serif" font-size="13" lengthAdjust="spacing" textLength="131" x="74.5" y="366.2373">asks for the comission</text><polygon fill="#181818" points="476.5,395.5156,486.5,399.5156,476.5,403.5156,480.5,399.5156" style="stroke:#181818;stroke-width:1.0;"/><line style="stroke:#181818;stroke-width:1.0;" x1="46.5" x2="482.5" y1="399.5156" y2="399.5156"/><text fill="#000000" font-family="sans-serif" font-size="13" font-weight="bold" lengthAdjust="spacing" textLength="7" x="53.5" y="394.7607">9</text><text fill="#000000" font-family="sans-serif" font-size="13" lengthAdjust="spacing" textLength="95" x="64.5" y="394.7607">types comission</text><polygon fill="#181818" points="57.5,424.0391,47.5,428.0391,57.5,432.0391,53.5,428.0391" style="stroke:#181818;stroke-width:1.0;"/><line style="stroke:#181818;stroke-width:1.0;stroke-dasharray:2.0,2.0;" x1="51.5" x2="492.5" y1="428.0391" y2="428.0391"/><text fill="#000000" font-family="sans-serif" font-size="13" font-weight="bold" lengthAdjust="spacing" textLength="14" x="63.5" y="423.2842">10</text><text fill="#000000" font-family="sans-serif" font-size="13" lengthAdjust="spacing" textLength="232" x="81.5" y="423.2842">shows all data and asks for confirmation</text><polygon fill="#181818" points="476.5,452.5625,486.5,456.5625,476.5,460.5625,480.5,456.5625" style="stroke:#181818;stroke-width:1.0;"/><line style="stroke:#181818;stroke-width:1.0;" x1="46.5" x2="482.5" y1="456.5625" y2="456.5625"/><text fill="#000000" font-family="sans-serif" font-size="13" font-weight="bold" lengthAdjust="spacing" textLength="14" x="53.5" y="451.8076">11</text><text fill="#000000" font-family="sans-serif" font-size="13" lengthAdjust="spacing" textLength="123" x="71.5" y="451.8076">confirms publishment</text><polygon fill="#181818" points="57.5,481.0859,47.5,485.0859,57.5,489.0859,53.5,485.0859" style="stroke:#181818;stroke-width:1.0;"/><line style="stroke:#181818;stroke-width:1.0;stroke-dasharray:2.0,2.0;" x1="51.5" x2="487.5" y1="485.0859" y2="485.0859"/><text fill="#000000" font-family="sans-serif" font-size="13" font-weight="bold" lengthAdjust="spacing" textLength="14" x="63.5" y="480.3311">12</text><text fill="#000000" font-family="sans-serif" font-size="13" lengthAdjust="spacing" textLength="328" x="81.5" y="480.3311">publishes announcement and sends a confirmation email</text><path d="M10,507.0859 L75,507.0859 L75,513.6094 L65,523.6094 L10,523.6094 L10,507.0859 " fill="#EEEEEE" style="stroke:#000000;stroke-width:1.5;"/><rect fill="none" height="159.1406" style="stroke:#000000;stroke-width:1.5;" width="525.5" x="10" y="507.0859"/><text fill="#000000" font-family="sans-serif" font-size="13" font-weight="bold" lengthAdjust="spacing" textLength="20" x="25" y="519.8545">opt</text><text fill="#000000" font-family="sans-serif" font-size="11" font-weight="bold" lengthAdjust="spacing" textLength="106" x="90" y="519.0439">[selects to decline]</text><polygon fill="#181818" points="57.5,540.1328,47.5,544.1328,57.5,548.1328,53.5,544.1328" style="stroke:#181818;stroke-width:1.0;"/><line style="stroke:#181818;stroke-width:1.0;stroke-dasharray:2.0,2.0;" x1="51.5" x2="492.5" y1="544.1328" y2="544.1328"/><text fill="#000000" font-family="sans-serif" font-size="13" font-weight="bold" lengthAdjust="spacing" textLength="14" x="63.5" y="539.3779">13</text><text fill="#000000" font-family="sans-serif" font-size="13" lengthAdjust="spacing" textLength="154" x="81.5" y="539.3779">asks to write a justification</text><polygon fill="#181818" points="476.5,568.6563,486.5,572.6563,476.5,576.6563,480.5,572.6563" style="stroke:#181818;stroke-width:1.0;"/><line style="stroke:#181818;stroke-width:1.0;" x1="46.5" x2="482.5" y1="572.6563" y2="572.6563"/><text fill="#000000" font-family="sans-serif" font-size="13" font-weight="bold" lengthAdjust="spacing" textLength="14" x="53.5" y="567.9014">14</text><text fill="#000000" font-family="sans-serif" font-size="13" lengthAdjust="spacing" textLength="103" x="71.5" y="567.9014">writes justification</text><polygon fill="#181818" points="57.5,597.1797,47.5,601.1797,57.5,605.1797,53.5,601.1797" style="stroke:#181818;stroke-width:1.0;"/><line style="stroke:#181818;stroke-width:1.0;stroke-dasharray:2.0,2.0;" x1="51.5" x2="492.5" y1="601.1797" y2="601.1797"/><text fill="#000000" font-family="sans-serif" font-size="13" font-weight="bold" lengthAdjust="spacing" textLength="14" x="63.5" y="596.4248">15</text><text fill="#000000" font-family="sans-serif" font-size="13" lengthAdjust="spacing" textLength="232" x="81.5" y="596.4248">shows all data and asks for confirmation</text><polygon fill="#181818" points="476.5,625.7031,486.5,629.7031,476.5,633.7031,480.5,629.7031" style="stroke:#181818;stroke-width:1.0;"/><line style="stroke:#181818;stroke-width:1.0;" x1="46.5" x2="482.5" y1="629.7031" y2="629.7031"/><text fill="#000000" font-family="sans-serif" font-size="13" font-weight="bold" lengthAdjust="spacing" textLength="14" x="53.5" y="624.9482">16</text><text fill="#000000" font-family="sans-serif" font-size="13" lengthAdjust="spacing" textLength="116" x="71.5" y="624.9482">confirms information</text><polygon fill="#181818" points="57.5,654.2266,47.5,658.2266,57.5,662.2266,53.5,658.2266" style="stroke:#181818;stroke-width:1.0;"/><line style="stroke:#181818;stroke-width:1.0;stroke-dasharray:2.0,2.0;" x1="51.5" x2="492.5" y1="658.2266" y2="658.2266"/><text fill="#000000" font-family="sans-serif" font-size="13" font-weight="bold" lengthAdjust="spacing" textLength="14" x="63.5" y="653.4717">17</text><text fill="#000000" font-family="sans-serif" font-size="13" lengthAdjust="spacing" textLength="257" x="81.5" y="653.4717">deletes request and sends justification email</text><!--SRC=[hPHDZjim38NtFWMHLRkO2sHHeC3Sm2VWoBIZnf9SaPx0joybEJ_kE4aTr2l18Xy_yX7Ye_K3HdJWWW_c48CZa3XInPUR0SqHEwfbwWaY6K7VzRS1VC0cdApleCMUgQh4YeRM4mivgEdtIDuGl5liKlYtkdx_NbKuIl2Z-w2ePoCXmkvdHrvsW0pvLAcyM6C7z0AxVT7Br-MOy-md2itn5UYNZ_3surn_hmb71Wd0fBqT27hB0g658OQ1eao0teTH4LtAZ8cNXS5XGodDJKnzMyGl1Sy4C7zpiJUjMm3sEfPmuWq5YrX3gpM-TgLGwWL3y9IqKvr_qT_UmPoleaqPfStL9ZWbNtH0m_YX7HvUv4_WOH0R_0D03RWc_5Ln1JnZjhfI9ZZBhDeWqq3NPkzGFYUz9xXbh1UwXU2BS0c3rrIs6urz3mqANfqk8_IjZGwpGoyXpWfyjYrjvLtC1vHpkhQxsEz4o-GR_Rs01N9e-ooejsc5rbQf8TDRJuzNIUDEqIeamg-HnRRMNEVnTHRhOyWAl2Amblu_J7fYr1Eph5TXjvcoqT6cDczVZUBEel4RSrOG5wPLDm7bdVy3]--></g></svg>