<?xml version="1.0" encoding="us-ascii" standalone="no"?><svg xmlns="http://www.w3.org/2000/svg" xmlns:xlink="http://www.w3.org/1999/xlink" contentStyleType="text/css" height="1233.6px" preserveAspectRatio="none" style="width:1245px;height:1233px;background:#FFFFFF;" version="1.1" viewBox="0 0 1245 1233" width="1245.6px" zoomAndPan="magnify"><defs/><g><rect fill="#FFFFFF" height="1090.1375" style="stroke:#181818;stroke-width:0.8000000000000002;" width="8" x="44.8" y="72.5125"/><rect fill="#FFFFFF" height="436.85" style="stroke:#181818;stroke-width:0.8000000000000002;" width="8" x="422.4" y="88.9313"/><rect fill="#FFFFFF" height="22.8188" style="stroke:#181818;stroke-width:0.8000000000000002;" width="8" x="422.4" y="548.6"/><rect fill="#FFFFFF" height="22.8188" style="stroke:#181818;stroke-width:0.8000000000000002;" width="8" x="422.4" y="594.2375"/><rect fill="#FFFFFF" height="22.8188" style="stroke:#181818;stroke-width:0.8000000000000002;" width="8" x="422.4" y="639.875"/><rect fill="#FFFFFF" height="477.1375" style="stroke:#181818;stroke-width:0.8000000000000002;" width="8" x="422.4" y="685.5125"/><rect fill="#FFFFFF" height="383.2125" style="stroke:#181818;stroke-width:0.8000000000000002;" width="8" x="568.8" y="119.75"/><rect fill="#FFFFFF" height="68.4563" style="stroke:#181818;stroke-width:0.8000000000000002;" width="8" x="568.8" y="708.3313"/><rect fill="#FFFFFF" height="68.4563" style="stroke:#181818;stroke-width:0.8000000000000002;" width="8" x="568.8" y="866.0438"/><rect fill="#FFFFFF" height="46.8188" style="stroke:#181818;stroke-width:0.8000000000000002;" width="8" x="568.8" y="976.1375"/><rect fill="#FFFFFF" height="22.8188" style="stroke:#181818;stroke-width:0.8000000000000002;" width="8" x="681.6" y="144.2625"/><rect fill="#FFFFFF" height="68.4563" style="stroke:#181818;stroke-width:0.8000000000000002;" width="8" x="767.2" y="189.9"/><rect fill="#FFFFFF" height="68.4563" style="stroke:#181818;stroke-width:0.8000000000000002;" width="8" x="767.2" y="392.8688"/><rect fill="#FFFFFF" height="22.8188" style="stroke:#181818;stroke-width:0.8000000000000002;" width="8" x="916" y="212.7188"/><rect fill="#FFFFFF" height="22.8188" style="stroke:#181818;stroke-width:0.8000000000000002;" width="8" x="916" y="415.6875"/><rect fill="#FFFFFF" height="22.8188" style="stroke:#181818;stroke-width:0.8000000000000002;" width="8" x="1044.8" y="731.15"/><rect fill="#FFFFFF" height="22.8188" style="stroke:#181818;stroke-width:0.8000000000000002;" width="8" x="1155.6" y="888.8625"/><rect fill="#FFFFFF" height="24" style="stroke:#181818;stroke-width:0.8000000000000002;" width="8" x="1155.6" y="998.9563"/><rect fill="none" height="36.0375" style="stroke:#000000;stroke-width:1.2000000000000002;" width="456.4" x="24" y="293.175"/><rect fill="none" height="815.8375" style="stroke:#000000;stroke-width:1.2000000000000002;" width="1232.8" x="8" y="340.4125"/><rect fill="none" height="677.325" style="stroke:#000000;stroke-width:1.2000000000000002;" width="1216.8" x="16" y="473.325"/><rect fill="none" height="105.675" style="stroke:#000000;stroke-width:1.2000000000000002;" width="1200.8" x="24" y="946.5"/><rect fill="none" height="36.0375" style="stroke:#000000;stroke-width:1.2000000000000002;" width="456.4" x="24" y="1063.375"/><line style="stroke:#181818;stroke-width:0.4000000000000001;stroke-dasharray:5.0,5.0;" x1="48.8" x2="48.8" y1="64.5125" y2="1169.85"/><line style="stroke:#181818;stroke-width:0.4000000000000001;stroke-dasharray:5.0,5.0;" x1="426" x2="426" y1="64.5125" y2="1169.85"/><line style="stroke:#181818;stroke-width:0.4000000000000001;stroke-dasharray:5.0,5.0;" x1="572.4" x2="572.4" y1="119.5875" y2="1169.85"/><line style="stroke:#181818;stroke-width:0.4000000000000001;stroke-dasharray:5.0,5.0;" x1="685.2" x2="685.2" y1="64.5125" y2="1169.85"/><line style="stroke:#181818;stroke-width:0.4000000000000001;stroke-dasharray:5.0,5.0;" x1="770.8" x2="770.8" y1="64.5125" y2="1169.85"/><line style="stroke:#181818;stroke-width:0.4000000000000001;stroke-dasharray:5.0,5.0;" x1="920" x2="920" y1="64.5125" y2="1169.85"/><line style="stroke:#181818;stroke-width:0.4000000000000001;stroke-dasharray:5.0,5.0;" x1="1048.8" x2="1048.8" y1="64.5125" y2="1169.85"/><line style="stroke:#181818;stroke-width:0.4000000000000001;stroke-dasharray:5.0,5.0;" x1="1159.2" x2="1159.2" y1="64.5125" y2="1169.85"/><text fill="#000000" font-family="sans-serif" font-size="11.2" lengthAdjust="spacing" textLength="28.8" x="32" y="62.1391">Client</text><ellipse cx="48.8" cy="10.8" fill="#E3E3E3" rx="6.4" ry="6.4" style="stroke:#181818;stroke-width:0.4000000000000001;"/><path d="M48.8,17.2 L48.8,38.8 M38.4,23.6 L59.2,23.6 M48.8,38.8 L38.4,50.8 M48.8,38.8 L59.2,50.8 " fill="none" style="stroke:#181818;stroke-width:0.4000000000000001;"/><text fill="#000000" font-family="sans-serif" font-size="11.2" lengthAdjust="spacing" textLength="28.8" x="32" y="1179.1891">Client</text><ellipse cx="48.8" cy="1188.3625" fill="#E3E3E3" rx="6.4" ry="6.4" style="stroke:#181818;stroke-width:0.4000000000000001;"/><path d="M48.8,1194.7625 L48.8,1216.3625 M38.4,1201.1625 L59.2,1201.1625 M48.8,1216.3625 L38.4,1228.3625 M48.8,1216.3625 L59.2,1228.3625 " fill="none" style="stroke:#181818;stroke-width:0.4000000000000001;"/><rect fill="#E3E3E3" height="23.7125" rx="2" ry="2" style="stroke:#181818;stroke-width:0.4000000000000001;" width="92" x="380.4" y="40"/><text fill="#000000" font-family="sans-serif" font-size="11.2" lengthAdjust="spacing" textLength="80.8" x="386" y="55.7391">:ScheduleVisitUI</text><rect fill="#E3E3E3" height="23.7125" rx="2" ry="2" style="stroke:#181818;stroke-width:0.4000000000000001;" width="92" x="380.4" y="1169.05"/><text fill="#000000" font-family="sans-serif" font-size="11.2" lengthAdjust="spacing" textLength="80.8" x="386" y="1184.7891">:ScheduleVisitUI</text><rect fill="#E3E3E3" height="23.7125" rx="2" ry="2" style="stroke:#181818;stroke-width:0.4000000000000001;" width="132" x="506.8" y="1169.05"/><text fill="#000000" font-family="sans-serif" font-size="11.2" lengthAdjust="spacing" textLength="120.8" x="512.4" y="1184.7891">:ScheduleVisitController</text><rect fill="#E3E3E3" height="23.7125" rx="2" ry="2" style="stroke:#181818;stroke-width:0.4000000000000001;" width="77.6" x="646.8" y="40"/><text fill="#000000" font-family="sans-serif" font-size="11.2" lengthAdjust="spacing" textLength="66.4" x="652.4" y="55.7391">:Repositories</text><rect fill="#E3E3E3" height="23.7125" rx="2" ry="2" style="stroke:#181818;stroke-width:0.4000000000000001;" width="77.6" x="646.8" y="1169.05"/><text fill="#000000" font-family="sans-serif" font-size="11.2" lengthAdjust="spacing" textLength="66.4" x="652.4" y="1184.7891">:Repositories</text><rect fill="#E3E3E3" height="36.225" rx="2" ry="2" style="stroke:#181818;stroke-width:0.4000000000000001;" width="77.6" x="732.4" y="27.4875"/><text fill="#000000" font-family="sans-serif" font-size="11.2" lengthAdjust="spacing" textLength="59.2" x="741.6" y="43.2266">repositories</text><text fill="#000000" font-family="sans-serif" font-size="11.2" lengthAdjust="spacing" textLength="66.4" x="738" y="55.7391">:Repositories</text><rect fill="#E3E3E3" height="36.225" rx="2" ry="2" style="stroke:#181818;stroke-width:0.4000000000000001;" width="77.6" x="732.4" y="1169.05"/><text fill="#000000" font-family="sans-serif" font-size="11.2" lengthAdjust="spacing" textLength="59.2" x="741.6" y="1184.7891">repositories</text><text fill="#000000" font-family="sans-serif" font-size="11.2" lengthAdjust="spacing" textLength="66.4" x="738" y="1197.3016">:Repositories</text><rect fill="#E3E3E3" height="36.225" rx="2" ry="2" style="stroke:#181818;stroke-width:0.4000000000000001;" width="150.4" x="844.8" y="27.4875"/><text fill="#000000" font-family="sans-serif" font-size="11.2" lengthAdjust="spacing" textLength="135.2" x="852.4" y="43.2266">announcementsRepository</text><text fill="#000000" font-family="sans-serif" font-size="11.2" lengthAdjust="spacing" textLength="139.2" x="850.4" y="55.7391">:AnnouncementsRepository</text><rect fill="#E3E3E3" height="36.225" rx="2" ry="2" style="stroke:#181818;stroke-width:0.4000000000000001;" width="150.4" x="844.8" y="1169.05"/><text fill="#000000" font-family="sans-serif" font-size="11.2" lengthAdjust="spacing" textLength="135.2" x="852.4" y="1184.7891">announcementsRepository</text><text fill="#000000" font-family="sans-serif" font-size="11.2" lengthAdjust="spacing" textLength="139.2" x="850.4" y="1197.3016">:AnnouncementsRepository</text><rect fill="#E3E3E3" height="36.225" rx="2" ry="2" style="stroke:#181818;stroke-width:0.4000000000000001;" width="91.2" x="1003.2" y="27.4875"/><text fill="#000000" font-family="sans-serif" font-size="11.2" lengthAdjust="spacing" textLength="80" x="1008.8" y="43.2266">:userRepository</text><text fill="#000000" font-family="sans-serif" font-size="11.2" lengthAdjust="spacing" textLength="77.6" x="1010" y="55.7391">UserRepository</text><rect fill="#E3E3E3" height="36.225" rx="2" ry="2" style="stroke:#181818;stroke-width:0.4000000000000001;" width="91.2" x="1003.2" y="1169.05"/><text fill="#000000" font-family="sans-serif" font-size="11.2" lengthAdjust="spacing" textLength="80" x="1008.8" y="1184.7891">:userRepository</text><text fill="#000000" font-family="sans-serif" font-size="11.2" lengthAdjust="spacing" textLength="77.6" x="1010" y="1197.3016">UserRepository</text><rect fill="#E3E3E3" height="36.225" rx="2" ry="2" style="stroke:#181818;stroke-width:0.4000000000000001;" width="114.4" x="1102.4" y="27.4875"/><text fill="#000000" font-family="sans-serif" font-size="11.2" lengthAdjust="spacing" textLength="100" x="1109.6" y="43.2266">messageRepository</text><text fill="#000000" font-family="sans-serif" font-size="11.2" lengthAdjust="spacing" textLength="103.2" x="1108" y="55.7391">:MessageRepository</text><rect fill="#E3E3E3" height="36.225" rx="2" ry="2" style="stroke:#181818;stroke-width:0.4000000000000001;" width="114.4" x="1102.4" y="1169.05"/><text fill="#000000" font-family="sans-serif" font-size="11.2" lengthAdjust="spacing" textLength="100" x="1109.6" y="1184.7891">messageRepository</text><text fill="#000000" font-family="sans-serif" font-size="11.2" lengthAdjust="spacing" textLength="103.2" x="1108" y="1197.3016">:MessageRepository</text><rect fill="#FFFFFF" height="1090.1375" style="stroke:#181818;stroke-width:0.8000000000000002;" width="8" x="44.8" y="72.5125"/><rect fill="#FFFFFF" height="436.85" style="stroke:#181818;stroke-width:0.8000000000000002;" width="8" x="422.4" y="88.9313"/><rect fill="#FFFFFF" height="22.8188" style="stroke:#181818;stroke-width:0.8000000000000002;" width="8" x="422.4" y="548.6"/><rect fill="#FFFFFF" height="22.8188" style="stroke:#181818;stroke-width:0.8000000000000002;" width="8" x="422.4" y="594.2375"/><rect fill="#FFFFFF" height="22.8188" style="stroke:#181818;stroke-width:0.8000000000000002;" width="8" x="422.4" y="639.875"/><rect fill="#FFFFFF" height="477.1375" style="stroke:#181818;stroke-width:0.8000000000000002;" width="8" x="422.4" y="685.5125"/><rect fill="#FFFFFF" height="383.2125" style="stroke:#181818;stroke-width:0.8000000000000002;" width="8" x="568.8" y="119.75"/><rect fill="#FFFFFF" height="68.4563" style="stroke:#181818;stroke-width:0.8000000000000002;" width="8" x="568.8" y="708.3313"/><rect fill="#FFFFFF" height="68.4563" style="stroke:#181818;stroke-width:0.8000000000000002;" width="8" x="568.8" y="866.0438"/><rect fill="#FFFFFF" height="46.8188" style="stroke:#181818;stroke-width:0.8000000000000002;" width="8" x="568.8" y="976.1375"/><rect fill="#FFFFFF" height="22.8188" style="stroke:#181818;stroke-width:0.8000000000000002;" width="8" x="681.6" y="144.2625"/><rect fill="#FFFFFF" height="68.4563" style="stroke:#181818;stroke-width:0.8000000000000002;" width="8" x="767.2" y="189.9"/><rect fill="#FFFFFF" height="68.4563" style="stroke:#181818;stroke-width:0.8000000000000002;" width="8" x="767.2" y="392.8688"/><rect fill="#FFFFFF" height="22.8188" style="stroke:#181818;stroke-width:0.8000000000000002;" width="8" x="916" y="212.7188"/><rect fill="#FFFFFF" height="22.8188" style="stroke:#181818;stroke-width:0.8000000000000002;" width="8" x="916" y="415.6875"/><rect fill="#FFFFFF" height="22.8188" style="stroke:#181818;stroke-width:0.8000000000000002;" width="8" x="1044.8" y="731.15"/><rect fill="#FFFFFF" height="22.8188" style="stroke:#181818;stroke-width:0.8000000000000002;" width="8" x="1155.6" y="888.8625"/><rect fill="#FFFFFF" height="24" style="stroke:#181818;stroke-width:0.8000000000000002;" width="8" x="1155.6" y="998.9563"/><polygon fill="#181818" points="412.8,85.7313,420.8,88.9313,412.8,92.1313,416,88.9313" style="stroke:#181818;stroke-width:0.8000000000000002;"/><line style="stroke:#181818;stroke-width:0.8000000000000002;" x1="52.8" x2="417.6" y1="88.9313" y2="88.9313"/><text fill="#000000" font-family="sans-serif" font-size="10.4" font-weight="bold" lengthAdjust="spacing" textLength="5.6" x="58.4" y="85.1273">1</text><text fill="#000000" font-family="sans-serif" font-size="10.4" lengthAdjust="spacing" textLength="173.6" x="67.2" y="85.1273">asks to schedule a visit to a property.</text><polygon fill="#181818" points="497.2,108.55,505.2,111.75,497.2,114.95,500.4,111.75" style="stroke:#181818;stroke-width:0.8000000000000002;"/><line style="stroke:#181818;stroke-width:0.8000000000000002;" x1="430.4" x2="502" y1="111.75" y2="111.75"/><text fill="#000000" font-family="sans-serif" font-size="10.4" font-weight="bold" lengthAdjust="spacing" textLength="5.6" x="436" y="107.9461">2</text><text fill="#000000" font-family="sans-serif" font-size="10.4" lengthAdjust="spacing" textLength="28.8" x="444.8" y="107.9461">create</text><rect fill="#E3E3E3" height="23.7125" rx="2" ry="2" style="stroke:#181818;stroke-width:0.4000000000000001;" width="132" x="506.8" y="95.3313"/><text fill="#000000" font-family="sans-serif" font-size="11.2" lengthAdjust="spacing" textLength="120.8" x="512.4" y="111.0703">:ScheduleVisitController</text><polygon fill="#181818" points="672,141.0625,680,144.2625,672,147.4625,675.2,144.2625" style="stroke:#181818;stroke-width:0.8000000000000002;"/><line style="stroke:#181818;stroke-width:0.8000000000000002;" x1="576.8" x2="676.8" y1="144.2625" y2="144.2625"/><text fill="#000000" font-family="sans-serif" font-size="10.4" font-weight="bold" lengthAdjust="spacing" textLength="5.6" x="582.4" y="140.4586">3</text><text fill="#000000" font-family="sans-serif" font-size="10.4" lengthAdjust="spacing" textLength="60" x="591.2" y="140.4586">getInstance()</text><polygon fill="#181818" points="585.6,163.8813,577.6,167.0813,585.6,170.2813,582.4,167.0813" style="stroke:#181818;stroke-width:0.8000000000000002;"/><line style="stroke:#181818;stroke-width:0.8000000000000002;stroke-dasharray:2.0,2.0;" x1="580.8" x2="684.8" y1="167.0813" y2="167.0813"/><text fill="#000000" font-family="sans-serif" font-size="10.4" font-weight="bold" lengthAdjust="spacing" textLength="5.6" x="590.4" y="163.2773">4</text><text fill="#000000" font-family="sans-serif" font-size="10.4" lengthAdjust="spacing" textLength="53.6" x="599.2" y="163.2773">repositories</text><polygon fill="#181818" points="757.6,186.7,765.6,189.9,757.6,193.1,760.8,189.9" style="stroke:#181818;stroke-width:0.8000000000000002;"/><line style="stroke:#181818;stroke-width:0.8000000000000002;" x1="576.8" x2="762.4" y1="189.9" y2="189.9"/><text fill="#000000" font-family="sans-serif" font-size="10.4" font-weight="bold" lengthAdjust="spacing" textLength="5.6" x="582.4" y="186.0961">5</text><text fill="#000000" font-family="sans-serif" font-size="10.4" lengthAdjust="spacing" textLength="116.8" x="591.2" y="186.0961">checkIfPropertiesEmpty()</text><polygon fill="#181818" points="906.4,209.5188,914.4,212.7188,906.4,215.9188,909.6,212.7188" style="stroke:#181818;stroke-width:0.8000000000000002;"/><line style="stroke:#181818;stroke-width:0.8000000000000002;" x1="775.2" x2="911.2" y1="212.7188" y2="212.7188"/><text fill="#000000" font-family="sans-serif" font-size="10.4" font-weight="bold" lengthAdjust="spacing" textLength="5.6" x="780.8" y="208.9148">6</text><text fill="#000000" font-family="sans-serif" font-size="10.4" lengthAdjust="spacing" textLength="116.8" x="789.6" y="208.9148">checkIfPropertiesEmpty()</text><polygon fill="#181818" points="784,232.3375,776,235.5375,784,238.7375,780.8,235.5375" style="stroke:#181818;stroke-width:0.8000000000000002;"/><line style="stroke:#181818;stroke-width:0.8000000000000002;stroke-dasharray:2.0,2.0;" x1="779.2" x2="919.2" y1="235.5375" y2="235.5375"/><text fill="#000000" font-family="sans-serif" font-size="10.4" font-weight="bold" lengthAdjust="spacing" textLength="5.6" x="788.8" y="231.7336">7</text><text fill="#000000" font-family="sans-serif" font-size="10.4" lengthAdjust="spacing" textLength="36" x="797.6" y="231.7336">boolean</text><polygon fill="#181818" points="585.6,255.1563,577.6,258.3563,585.6,261.5563,582.4,258.3563" style="stroke:#181818;stroke-width:0.8000000000000002;"/><line style="stroke:#181818;stroke-width:0.8000000000000002;stroke-dasharray:2.0,2.0;" x1="580.8" x2="770.4" y1="258.3563" y2="258.3563"/><text fill="#000000" font-family="sans-serif" font-size="10.4" font-weight="bold" lengthAdjust="spacing" textLength="5.6" x="590.4" y="254.5523">8</text><text fill="#000000" font-family="sans-serif" font-size="10.4" lengthAdjust="spacing" textLength="36" x="599.2" y="254.5523">boolean</text><polygon fill="#181818" points="439.2,277.975,431.2,281.175,439.2,284.375,436,281.175" style="stroke:#181818;stroke-width:0.8000000000000002;"/><line style="stroke:#181818;stroke-width:0.8000000000000002;stroke-dasharray:2.0,2.0;" x1="434.4" x2="568" y1="281.175" y2="281.175"/><text fill="#000000" font-family="sans-serif" font-size="10.4" font-weight="bold" lengthAdjust="spacing" textLength="5.6" x="444" y="277.3711">9</text><text fill="#000000" font-family="sans-serif" font-size="10.4" lengthAdjust="spacing" textLength="36" x="452.8" y="277.3711">boolean</text><path d="M24,293.175 L72.8,293.175 L72.8,298.3938 L64.8,306.3938 L24,306.3938 L24,293.175 " fill="#EEEEEE" style="stroke:#000000;stroke-width:1.2000000000000002;"/><rect fill="none" height="36.0375" style="stroke:#000000;stroke-width:1.2000000000000002;" width="456.4" x="24" y="293.175"/><text fill="#000000" font-family="sans-serif" font-size="10.4" font-weight="bold" lengthAdjust="spacing" textLength="12.8" x="36" y="303.3898">alt</text><text fill="#000000" font-family="sans-serif" font-size="8.8" font-weight="bold" lengthAdjust="spacing" textLength="156.8" x="84.8" y="302.7414">[if true (list of properties is empty)]</text><polygon fill="#181818" points="61.6,319.6125,53.6,322.8125,61.6,326.0125,58.4,322.8125" style="stroke:#181818;stroke-width:0.8000000000000002;"/><line style="stroke:#181818;stroke-width:0.8000000000000002;stroke-dasharray:2.0,2.0;" x1="56.8" x2="421.6" y1="322.8125" y2="322.8125"/><text fill="#000000" font-family="sans-serif" font-size="10.4" font-weight="bold" lengthAdjust="spacing" textLength="11.2" x="66.4" y="319.0086">10</text><text fill="#000000" font-family="sans-serif" font-size="10.4" lengthAdjust="spacing" textLength="205.6" x="80.8" y="319.0086">Show message :"List of properties is empty"</text><path d="M8,340.4125 L56.8,340.4125 L56.8,345.6313 L48.8,353.6313 L8,353.6313 L8,340.4125 " fill="#EEEEEE" style="stroke:#000000;stroke-width:1.2000000000000002;"/><rect fill="none" height="815.8375" style="stroke:#000000;stroke-width:1.2000000000000002;" width="1232.8" x="8" y="340.4125"/><text fill="#000000" font-family="sans-serif" font-size="10.4" font-weight="bold" lengthAdjust="spacing" textLength="12.8" x="20" y="350.6273">alt</text><text fill="#000000" font-family="sans-serif" font-size="8.8" font-weight="bold" lengthAdjust="spacing" textLength="172" x="68.8" y="349.9789">[if false (list of properties isn&#180;t empty)]</text><polygon fill="#181818" points="559.2,366.85,567.2,370.05,559.2,373.25,562.4,370.05" style="stroke:#181818;stroke-width:0.8000000000000002;"/><line style="stroke:#181818;stroke-width:0.8000000000000002;" x1="430.4" x2="564" y1="370.05" y2="370.05"/><text fill="#000000" font-family="sans-serif" font-size="10.4" font-weight="bold" lengthAdjust="spacing" textLength="11.2" x="436" y="366.2461">11</text><text fill="#000000" font-family="sans-serif" font-size="10.4" lengthAdjust="spacing" textLength="98.4" x="450.4" y="366.2461">getSortedProperties()</text><polygon fill="#181818" points="757.6,389.6688,765.6,392.8688,757.6,396.0688,760.8,392.8688" style="stroke:#181818;stroke-width:0.8000000000000002;"/><line style="stroke:#181818;stroke-width:0.8000000000000002;" x1="576.8" x2="762.4" y1="392.8688" y2="392.8688"/><text fill="#000000" font-family="sans-serif" font-size="10.4" font-weight="bold" lengthAdjust="spacing" textLength="11.2" x="582.4" y="389.0648">12</text><text fill="#000000" font-family="sans-serif" font-size="10.4" lengthAdjust="spacing" textLength="98.4" x="596.8" y="389.0648">getSortedProperties()</text><polygon fill="#181818" points="906.4,412.4875,914.4,415.6875,906.4,418.8875,909.6,415.6875" style="stroke:#181818;stroke-width:0.8000000000000002;"/><line style="stroke:#181818;stroke-width:0.8000000000000002;" x1="775.2" x2="911.2" y1="415.6875" y2="415.6875"/><text fill="#000000" font-family="sans-serif" font-size="10.4" font-weight="bold" lengthAdjust="spacing" textLength="11.2" x="780.8" y="411.8836">13</text><text fill="#000000" font-family="sans-serif" font-size="10.4" lengthAdjust="spacing" textLength="98.4" x="795.2" y="411.8836">getSortedProperties()</text><polygon fill="#181818" points="784,435.3063,776,438.5063,784,441.7063,780.8,438.5063" style="stroke:#181818;stroke-width:0.8000000000000002;"/><line style="stroke:#181818;stroke-width:0.8000000000000002;stroke-dasharray:2.0,2.0;" x1="779.2" x2="919.2" y1="438.5063" y2="438.5063"/><text fill="#000000" font-family="sans-serif" font-size="10.4" font-weight="bold" lengthAdjust="spacing" textLength="11.2" x="788.8" y="434.7023">14</text><text fill="#000000" font-family="sans-serif" font-size="10.4" lengthAdjust="spacing" textLength="104.8" x="803.2" y="434.7023">ListOfPropertiesSorted</text><polygon fill="#181818" points="585.6,458.125,577.6,461.325,585.6,464.525,582.4,461.325" style="stroke:#181818;stroke-width:0.8000000000000002;"/><line style="stroke:#181818;stroke-width:0.8000000000000002;stroke-dasharray:2.0,2.0;" x1="580.8" x2="770.4" y1="461.325" y2="461.325"/><text fill="#000000" font-family="sans-serif" font-size="10.4" font-weight="bold" lengthAdjust="spacing" textLength="11.2" x="590.4" y="457.5211">15</text><text fill="#000000" font-family="sans-serif" font-size="10.4" lengthAdjust="spacing" textLength="104.8" x="604.8" y="457.5211">ListOfPropertiesSorted</text><path d="M16,473.325 L74.4,473.325 L74.4,478.5438 L66.4,486.5438 L16,486.5438 L16,473.325 " fill="#EEEEEE" style="stroke:#000000;stroke-width:1.2000000000000002;"/><rect fill="none" height="677.325" style="stroke:#000000;stroke-width:1.2000000000000002;" width="1216.8" x="16" y="473.325"/><text fill="#000000" font-family="sans-serif" font-size="10.4" font-weight="bold" lengthAdjust="spacing" textLength="22.4" x="28" y="483.5398">loop</text><text fill="#000000" font-family="sans-serif" font-size="8.8" font-weight="bold" lengthAdjust="spacing" textLength="76" x="86.4" y="482.8914">[while true (yes)]</text><polygon fill="#181818" points="439.2,499.7625,431.2,502.9625,439.2,506.1625,436,502.9625" style="stroke:#181818;stroke-width:0.8000000000000002;"/><line style="stroke:#181818;stroke-width:0.8000000000000002;stroke-dasharray:2.0,2.0;" x1="434.4" x2="572" y1="502.9625" y2="502.9625"/><text fill="#000000" font-family="sans-serif" font-size="10.4" font-weight="bold" lengthAdjust="spacing" textLength="11.2" x="444" y="499.1586">16</text><text fill="#000000" font-family="sans-serif" font-size="10.4" lengthAdjust="spacing" textLength="104.8" x="458.4" y="499.1586">ListOfPropertiesSorted</text><polygon fill="#181818" points="61.6,522.5813,53.6,525.7813,61.6,528.9813,58.4,525.7813" style="stroke:#181818;stroke-width:0.8000000000000002;"/><line style="stroke:#181818;stroke-width:0.8000000000000002;stroke-dasharray:2.0,2.0;" x1="56.8" x2="425.6" y1="525.7813" y2="525.7813"/><text fill="#000000" font-family="sans-serif" font-size="10.4" font-weight="bold" lengthAdjust="spacing" textLength="11.2" x="66.4" y="521.9773">17</text><text fill="#000000" font-family="sans-serif" font-size="10.4" lengthAdjust="spacing" textLength="336" x="80.8" y="521.9773">show a list of properties sorted from the most recent entries to the oldest</text><polygon fill="#181818" points="412.8,545.4,420.8,548.6,412.8,551.8,416,548.6" style="stroke:#181818;stroke-width:0.8000000000000002;"/><line style="stroke:#181818;stroke-width:0.8000000000000002;" x1="52.8" x2="417.6" y1="548.6" y2="548.6"/><text fill="#000000" font-family="sans-serif" font-size="10.4" font-weight="bold" lengthAdjust="spacing" textLength="11.2" x="58.4" y="544.7961">18</text><text fill="#000000" font-family="sans-serif" font-size="10.4" lengthAdjust="spacing" textLength="88" x="72.8" y="544.7961">Select the property</text><polygon fill="#181818" points="61.6,568.2188,53.6,571.4188,61.6,574.6188,58.4,571.4188" style="stroke:#181818;stroke-width:0.8000000000000002;"/><line style="stroke:#181818;stroke-width:0.8000000000000002;stroke-dasharray:2.0,2.0;" x1="56.8" x2="425.6" y1="571.4188" y2="571.4188"/><text fill="#000000" font-family="sans-serif" font-size="10.4" font-weight="bold" lengthAdjust="spacing" textLength="11.2" x="66.4" y="567.6148">19</text><text fill="#000000" font-family="sans-serif" font-size="10.4" lengthAdjust="spacing" textLength="224" x="80.8" y="567.6148">request data (preferred date for the property visit)</text><polygon fill="#181818" points="412.8,591.0375,420.8,594.2375,412.8,597.4375,416,594.2375" style="stroke:#181818;stroke-width:0.8000000000000002;"/><line style="stroke:#181818;stroke-width:0.8000000000000002;" x1="52.8" x2="417.6" y1="594.2375" y2="594.2375"/><text fill="#000000" font-family="sans-serif" font-size="10.4" font-weight="bold" lengthAdjust="spacing" textLength="11.2" x="58.4" y="590.4336">20</text><text fill="#000000" font-family="sans-serif" font-size="10.4" lengthAdjust="spacing" textLength="97.6" x="72.8" y="590.4336">types requested data</text><polygon fill="#181818" points="61.6,613.8563,53.6,617.0563,61.6,620.2563,58.4,617.0563" style="stroke:#181818;stroke-width:0.8000000000000002;"/><line style="stroke:#181818;stroke-width:0.8000000000000002;stroke-dasharray:2.0,2.0;" x1="56.8" x2="425.6" y1="617.0563" y2="617.0563"/><text fill="#000000" font-family="sans-serif" font-size="10.4" font-weight="bold" lengthAdjust="spacing" textLength="11.2" x="66.4" y="613.2523">21</text><text fill="#000000" font-family="sans-serif" font-size="10.4" lengthAdjust="spacing" textLength="218.4" x="80.8" y="613.2523">request data (starting time for the property visit)</text><polygon fill="#181818" points="412.8,636.675,420.8,639.875,412.8,643.075,416,639.875" style="stroke:#181818;stroke-width:0.8000000000000002;"/><line style="stroke:#181818;stroke-width:0.8000000000000002;" x1="52.8" x2="417.6" y1="639.875" y2="639.875"/><text fill="#000000" font-family="sans-serif" font-size="10.4" font-weight="bold" lengthAdjust="spacing" textLength="11.2" x="58.4" y="636.0711">22</text><text fill="#000000" font-family="sans-serif" font-size="10.4" lengthAdjust="spacing" textLength="97.6" x="72.8" y="636.0711">types requested data</text><polygon fill="#181818" points="61.6,659.4938,53.6,662.6938,61.6,665.8938,58.4,662.6938" style="stroke:#181818;stroke-width:0.8000000000000002;"/><line style="stroke:#181818;stroke-width:0.8000000000000002;stroke-dasharray:2.0,2.0;" x1="56.8" x2="425.6" y1="662.6938" y2="662.6938"/><text fill="#000000" font-family="sans-serif" font-size="10.4" font-weight="bold" lengthAdjust="spacing" textLength="11.2" x="66.4" y="658.8898">23</text><text fill="#000000" font-family="sans-serif" font-size="10.4" lengthAdjust="spacing" textLength="214.4" x="80.8" y="658.8898">request data (ending time for the property visit)</text><polygon fill="#181818" points="412.8,682.3125,420.8,685.5125,412.8,688.7125,416,685.5125" style="stroke:#181818;stroke-width:0.8000000000000002;"/><line style="stroke:#181818;stroke-width:0.8000000000000002;" x1="52.8" x2="417.6" y1="685.5125" y2="685.5125"/><text fill="#000000" font-family="sans-serif" font-size="10.4" font-weight="bold" lengthAdjust="spacing" textLength="11.2" x="58.4" y="681.7086">24</text><text fill="#000000" font-family="sans-serif" font-size="10.4" lengthAdjust="spacing" textLength="97.6" x="72.8" y="681.7086">types requested data</text><polygon fill="#181818" points="559.2,705.1313,567.2,708.3313,559.2,711.5313,562.4,708.3313" style="stroke:#181818;stroke-width:0.8000000000000002;"/><line style="stroke:#181818;stroke-width:0.8000000000000002;" x1="430.4" x2="564" y1="708.3313" y2="708.3313"/><text fill="#000000" font-family="sans-serif" font-size="10.4" font-weight="bold" lengthAdjust="spacing" textLength="11.2" x="436" y="704.5273">25</text><text fill="#000000" font-family="sans-serif" font-size="10.4" lengthAdjust="spacing" textLength="42.4" x="450.4" y="704.5273">getUser()</text><polygon fill="#181818" points="1035.2,727.95,1043.2,731.15,1035.2,734.35,1038.4,731.15" style="stroke:#181818;stroke-width:0.8000000000000002;"/><line style="stroke:#181818;stroke-width:0.8000000000000002;" x1="576.8" x2="1040" y1="731.15" y2="731.15"/><text fill="#000000" font-family="sans-serif" font-size="10.4" font-weight="bold" lengthAdjust="spacing" textLength="11.2" x="582.4" y="727.3461">26</text><text fill="#000000" font-family="sans-serif" font-size="10.4" lengthAdjust="spacing" textLength="42.4" x="596.8" y="727.3461">getUser()</text><polygon fill="#181818" points="585.6,750.7688,577.6,753.9688,585.6,757.1688,582.4,753.9688" style="stroke:#181818;stroke-width:0.8000000000000002;"/><line style="stroke:#181818;stroke-width:0.8000000000000002;stroke-dasharray:2.0,2.0;" x1="580.8" x2="1048" y1="753.9688" y2="753.9688"/><text fill="#000000" font-family="sans-serif" font-size="10.4" font-weight="bold" lengthAdjust="spacing" textLength="11.2" x="590.4" y="750.1648">27</text><text fill="#000000" font-family="sans-serif" font-size="10.4" lengthAdjust="spacing" textLength="21.6" x="604.8" y="750.1648">User</text><polygon fill="#181818" points="563.2,773.5875,571.2,776.7875,563.2,779.9875,566.4,776.7875" style="stroke:#181818;stroke-width:0.8000000000000002;"/><line style="stroke:#181818;stroke-width:0.8000000000000002;" x1="430.4" x2="568" y1="776.7875" y2="776.7875"/><text fill="#000000" font-family="sans-serif" font-size="10.4" font-weight="bold" lengthAdjust="spacing" textLength="11.2" x="436" y="772.9836">28</text><text fill="#000000" font-family="sans-serif" font-size="10.4" lengthAdjust="spacing" textLength="21.6" x="450.4" y="772.9836">User</text><line style="stroke:#181818;stroke-width:0.8000000000000002;" x1="430.4" x2="464" y1="799.6063" y2="799.6063"/><line style="stroke:#181818;stroke-width:0.8000000000000002;" x1="464" x2="464" y1="799.6063" y2="810.0063"/><line style="stroke:#181818;stroke-width:0.8000000000000002;" x1="431.2" x2="464" y1="810.0063" y2="810.0063"/><polygon fill="#181818" points="439.2,806.8063,431.2,810.0063,439.2,813.2063,436,810.0063" style="stroke:#181818;stroke-width:0.8000000000000002;"/><text fill="#000000" font-family="sans-serif" font-size="10.4" font-weight="bold" lengthAdjust="spacing" textLength="11.2" x="436" y="795.8023">29</text><text fill="#000000" font-family="sans-serif" font-size="10.4" lengthAdjust="spacing" textLength="88" x="450.4" y="795.8023">save phoneNumber</text><line style="stroke:#181818;stroke-width:0.8000000000000002;" x1="430.4" x2="464" y1="832.825" y2="832.825"/><line style="stroke:#181818;stroke-width:0.8000000000000002;" x1="464" x2="464" y1="832.825" y2="843.225"/><line style="stroke:#181818;stroke-width:0.8000000000000002;" x1="431.2" x2="464" y1="843.225" y2="843.225"/><polygon fill="#181818" points="439.2,840.025,431.2,843.225,439.2,846.425,436,843.225" style="stroke:#181818;stroke-width:0.8000000000000002;"/><text fill="#000000" font-family="sans-serif" font-size="10.4" font-weight="bold" lengthAdjust="spacing" textLength="11.2" x="436" y="829.0211">30</text><text fill="#000000" font-family="sans-serif" font-size="10.4" lengthAdjust="spacing" textLength="49.6" x="450.4" y="829.0211">save name</text><polygon fill="#181818" points="559.2,862.8438,567.2,866.0438,559.2,869.2438,562.4,866.0438" style="stroke:#181818;stroke-width:0.8000000000000002;"/><line style="stroke:#181818;stroke-width:0.8000000000000002;" x1="430.4" x2="564" y1="866.0438" y2="866.0438"/><text fill="#000000" font-family="sans-serif" font-size="10.4" font-weight="bold" lengthAdjust="spacing" textLength="11.2" x="436" y="862.2398">31</text><text fill="#000000" font-family="sans-serif" font-size="10.4" lengthAdjust="spacing" textLength="62.4" x="450.4" y="862.2398">checkIfValid()</text><polygon fill="#181818" points="1146,885.6625,1154,888.8625,1146,892.0625,1149.2,888.8625" style="stroke:#181818;stroke-width:0.8000000000000002;"/><line style="stroke:#181818;stroke-width:0.8000000000000002;" x1="576.8" x2="1150.8" y1="888.8625" y2="888.8625"/><text fill="#000000" font-family="sans-serif" font-size="10.4" font-weight="bold" lengthAdjust="spacing" textLength="11.2" x="582.4" y="885.0586">32</text><text fill="#000000" font-family="sans-serif" font-size="10.4" lengthAdjust="spacing" textLength="62.4" x="596.8" y="885.0586">checkIfValid()</text><polygon fill="#181818" points="585.6,908.4813,577.6,911.6813,585.6,914.8813,582.4,911.6813" style="stroke:#181818;stroke-width:0.8000000000000002;"/><line style="stroke:#181818;stroke-width:0.8000000000000002;stroke-dasharray:2.0,2.0;" x1="580.8" x2="1158.8" y1="911.6813" y2="911.6813"/><text fill="#000000" font-family="sans-serif" font-size="10.4" font-weight="bold" lengthAdjust="spacing" textLength="11.2" x="590.4" y="907.8773">33</text><text fill="#000000" font-family="sans-serif" font-size="10.4" lengthAdjust="spacing" textLength="65.6" x="604.8" y="907.8773">return boolean</text><polygon fill="#181818" points="439.2,931.3,431.2,934.5,439.2,937.7,436,934.5" style="stroke:#181818;stroke-width:0.8000000000000002;"/><line style="stroke:#181818;stroke-width:0.8000000000000002;stroke-dasharray:2.0,2.0;" x1="434.4" x2="572" y1="934.5" y2="934.5"/><text fill="#000000" font-family="sans-serif" font-size="10.4" font-weight="bold" lengthAdjust="spacing" textLength="11.2" x="444" y="930.6961">34</text><text fill="#000000" font-family="sans-serif" font-size="10.4" lengthAdjust="spacing" textLength="65.6" x="458.4" y="930.6961">return boolean</text><path d="M24,946.5 L72.8,946.5 L72.8,951.7188 L64.8,959.7188 L24,959.7188 L24,946.5 " fill="#EEEEEE" style="stroke:#000000;stroke-width:1.2000000000000002;"/><rect fill="none" height="105.675" style="stroke:#000000;stroke-width:1.2000000000000002;" width="1200.8" x="24" y="946.5"/><text fill="#000000" font-family="sans-serif" font-size="10.4" font-weight="bold" lengthAdjust="spacing" textLength="12.8" x="36" y="956.7148">alt</text><text fill="#000000" font-family="sans-serif" font-size="8.8" font-weight="bold" lengthAdjust="spacing" textLength="32.8" x="84.8" y="956.0664">[if true]</text><polygon fill="#181818" points="559.2,972.9375,567.2,976.1375,559.2,979.3375,562.4,976.1375" style="stroke:#181818;stroke-width:0.8000000000000002;"/><line style="stroke:#181818;stroke-width:0.8000000000000002;" x1="430.4" x2="564" y1="976.1375" y2="976.1375"/><text fill="#000000" font-family="sans-serif" font-size="10.4" font-weight="bold" lengthAdjust="spacing" textLength="11.2" x="436" y="972.3336">35</text><text fill="#000000" font-family="sans-serif" font-size="10.4" lengthAdjust="spacing" textLength="65.6" x="450.4" y="972.3336">addMessage()</text><polygon fill="#181818" points="1146,995.7563,1154,998.9563,1146,1002.1563,1149.2,998.9563" style="stroke:#181818;stroke-width:0.8000000000000002;"/><line style="stroke:#181818;stroke-width:0.8000000000000002;" x1="576.8" x2="1150.8" y1="998.9563" y2="998.9563"/><text fill="#000000" font-family="sans-serif" font-size="10.4" font-weight="bold" lengthAdjust="spacing" textLength="11.2" x="582.4" y="995.1523">36</text><text fill="#000000" font-family="sans-serif" font-size="10.4" lengthAdjust="spacing" textLength="65.6" x="596.8" y="995.1523">addMessage()</text><polygon fill="#181818" points="61.6,1042.575,53.6,1045.775,61.6,1048.975,58.4,1045.775" style="stroke:#181818;stroke-width:0.8000000000000002;"/><line style="stroke:#181818;stroke-width:0.8000000000000002;" x1="56.8" x2="421.6" y1="1045.775" y2="1045.775"/><text fill="#000000" font-family="sans-serif" font-size="10.4" font-weight="bold" lengthAdjust="spacing" textLength="11.2" x="66.4" y="1041.9711">37</text><text fill="#000000" font-family="sans-serif" font-size="10.4" lengthAdjust="spacing" textLength="117.6" x="80.8" y="1041.9711">show sucess of operation</text><path d="M24,1063.375 L72.8,1063.375 L72.8,1068.5938 L64.8,1076.5938 L24,1076.5938 L24,1063.375 " fill="#EEEEEE" style="stroke:#000000;stroke-width:1.2000000000000002;"/><rect fill="none" height="36.0375" style="stroke:#000000;stroke-width:1.2000000000000002;" width="456.4" x="24" y="1063.375"/><text fill="#000000" font-family="sans-serif" font-size="10.4" font-weight="bold" lengthAdjust="spacing" textLength="12.8" x="36" y="1073.5898">alt</text><text fill="#000000" font-family="sans-serif" font-size="8.8" font-weight="bold" lengthAdjust="spacing" textLength="36" x="84.8" y="1072.9414">[if false]</text><polygon fill="#181818" points="61.6,1089.8125,53.6,1093.0125,61.6,1096.2125,58.4,1093.0125" style="stroke:#181818;stroke-width:0.8000000000000002;"/><line style="stroke:#181818;stroke-width:0.8000000000000002;" x1="56.8" x2="421.6" y1="1093.0125" y2="1093.0125"/><text fill="#000000" font-family="sans-serif" font-size="10.4" font-weight="bold" lengthAdjust="spacing" textLength="11.2" x="66.4" y="1089.2086">38</text><text fill="#000000" font-family="sans-serif" font-size="10.4" lengthAdjust="spacing" textLength="125.6" x="80.8" y="1089.2086">show insucess of operation</text><polygon fill="#181818" points="61.6,1118.2313,53.6,1121.4313,61.6,1124.6313,58.4,1121.4313" style="stroke:#181818;stroke-width:0.8000000000000002;"/><line style="stroke:#181818;stroke-width:0.8000000000000002;" x1="56.8" x2="421.6" y1="1121.4313" y2="1121.4313"/><text fill="#000000" font-family="sans-serif" font-size="10.4" font-weight="bold" lengthAdjust="spacing" textLength="11.2" x="66.4" y="1117.6273">39</text><text fill="#000000" font-family="sans-serif" font-size="10.4" lengthAdjust="spacing" textLength="169.6" x="80.8" y="1117.6273">Show message: "Want to try more?"</text><polygon fill="#181818" points="412.8,1141.05,420.8,1144.25,412.8,1147.45,416,1144.25" style="stroke:#181818;stroke-width:0.8000000000000002;"/><line style="stroke:#181818;stroke-width:0.8000000000000002;" x1="52.8" x2="417.6" y1="1144.25" y2="1144.25"/><text fill="#000000" font-family="sans-serif" font-size="10.4" font-weight="bold" lengthAdjust="spacing" textLength="11.2" x="58.4" y="1140.4461">40</text><text fill="#000000" font-family="sans-serif" font-size="10.4" lengthAdjust="spacing" textLength="31.2" x="72.8" y="1140.4461">yes/no</text><!--SRC=[lLRDRfmm4BxxAKPxQH9fspk7hQgeXqXDMtMLzDAB0yDYBTZKDadtlVe4VRAE3Gi6p6wYI46Aic1_t_nzdh7P2rbppIkeb5HfeLM5O7M3pFGhDK_tV8TRUoWHDAQMorqPRZ05pzIJa3l8UMcGCTvO9Plg0JLZxmgH8UHAsGVrX_7KAWshwrAWj2lW1kuCxI8UAr9HSsbXbMpJ0hEcn7jXXBsxyTks1sEnEhNnMachLLcYze3XTGBwWRMYxKeBD7vd_-6m5IuoydqCqG7YbvmJXEjZ99TIDJB5Yg8rWnqY-HHVyNn-hLqQLYPHD9IsaF1kzDvdTWbVeJ5Kqv5BjzDldgNxokYXueb7Rh6j6MFktthJLYQXlNi3Le7fYW8S7brTt3SEjLOrQdjuFx1q9MMi_R7U32MxkaeWrKYx0gj1HTdmUxs9r2-17TeRQKYgALvS3XonMhF8ntNeJJAkS8QdwGBdOBqPOO72AZ3Tt-JVstpGjyzLRG-XZoDZR0GdkgWudiKRbnMB4wxddZyeLIANOVmBb6EVYId8I9Hd77AOFmAtyWY0Z9SMHExx55oKmbXG-L5XpgGmW2xwoqvQdiQfbKYsXNg2JlwGhBuierUCeSoEndnhMx0c__srHukzoKdK9CYjqXQpeK9KdEuvgPWuyfLoEKFwMgsuj7uBnDZQUhLqpjEEiy5OgLGDJuKeiPFB0StbiiGM3FWdi1Asehd4Z9COXuXKZAU3dCOis09fwD8M6gcK1A0_7pIrIxUaoWoD3Ots_T8tNWZTtc99SzdZZerstcVdZchytP0HoBZbS55hp55hyYzpi9m6TKZOTlFBc4SpV-oXHdEaRmdvonsYzarfesk55TLR-7FM8Me7R-bEj9Nue-iOm-CQ7utGnJ6ShoXuSazWu_V98KpQuHz4EONFf_aS4pi_GNuCVwJ45ahYr_OMkRH7yWhPOiljHk8zBqNsl6pT7kV28hQ_3XstJjEZqJPQnePS3uqsdrF8qE5m-2qfX6TPP-n5OIy1UySZmPmjgYjzrn8DzNjZN4jqHuPRuMvBqn7Bni8Fu4962Jp3316E-GHMFzsjrtLM4dIbD7vSHOubZOOFKda-pyd-0m00]--></g></svg>