<?xml version="1.0" encoding="us-ascii" standalone="no"?><svg xmlns="http://www.w3.org/2000/svg" xmlns:xlink="http://www.w3.org/1999/xlink" contentStyleType="text/css" height="946px" preserveAspectRatio="none" style="width:942px;height:946px;background:#FFFFFF;" version="1.1" viewBox="0 0 942 946" width="942px" zoomAndPan="magnify"><defs/><g><!--class ScheduleVisitUI--><g id="elem_ScheduleVisitUI"><rect codeLine="5" fill="#F1F1F1" height="48" id="ScheduleVisitUI" rx="2.5" ry="2.5" style="stroke:#181818;stroke-width:0.5;" width="129" x="665.5" y="7"/><ellipse cx="680.5" cy="23" fill="#ADD1B2" rx="11" ry="11" style="stroke:#181818;stroke-width:1.0;"/><path d="M683.2656,18.875 Q683.4219,18.6563 683.6094,18.5469 Q683.7969,18.4375 684.0156,18.4375 Q684.3906,18.4375 684.625,18.7031 Q684.8594,18.9531 684.8594,19.5625 L684.8594,21.0156 Q684.8594,21.625 684.625,21.8906 Q684.3906,22.1563 684.0156,22.1563 Q683.6719,22.1563 683.4688,21.9531 Q683.2656,21.7656 683.1563,21.25 Q683.1094,20.8906 682.9219,20.7031 Q682.5938,20.3281 681.9844,20.1094 Q681.375,19.8906 680.75,19.8906 Q679.9844,19.8906 679.3438,20.2188 Q678.7188,20.5469 678.2188,21.2969 Q677.7344,22.0469 677.7344,23.0781 L677.7344,24.1719 Q677.7344,25.4063 678.625,26.2344 Q679.5156,27.0469 681.1094,27.0469 Q682.0469,27.0469 682.7031,26.7969 Q683.0938,26.6406 683.5156,26.2031 Q683.7813,25.9375 683.9219,25.8594 Q684.0781,25.7813 684.2813,25.7813 Q684.6094,25.7813 684.8594,26.0469 Q685.125,26.2969 685.125,26.6406 Q685.125,26.9844 684.7813,27.3906 Q684.2813,27.9688 683.4844,28.2969 Q682.4063,28.75 681.1094,28.75 Q679.5938,28.75 678.3906,28.125 Q677.4063,27.625 676.7188,26.5625 Q676.0313,25.4844 676.0313,24.2031 L676.0313,23.0469 Q676.0313,21.7188 676.6406,20.5781 Q677.2656,19.4219 678.3594,18.8125 Q679.4531,18.1875 680.6875,18.1875 Q681.4219,18.1875 682.0625,18.3594 Q682.7188,18.5156 683.2656,18.875 Z " fill="#000000"/><text fill="#000000" font-family="sans-serif" font-size="14" lengthAdjust="spacing" textLength="97" x="694.5" y="27.8535">ScheduleVisitUI</text><line style="stroke:#181818;stroke-width:0.5;" x1="666.5" x2="793.5" y1="39" y2="39"/><line style="stroke:#181818;stroke-width:0.5;" x1="666.5" x2="793.5" y1="47" y2="47"/></g><!--class ScheduleVisitController--><g id="elem_ScheduleVisitController"><rect codeLine="7" fill="#F1F1F1" height="204.4063" id="ScheduleVisitController" rx="2.5" ry="2.5" style="stroke:#181818;stroke-width:0.5;" width="183" x="638.5" y="115"/><ellipse cx="655.3" cy="131" fill="#ADD1B2" rx="11" ry="11" style="stroke:#181818;stroke-width:1.0;"/><path d="M658.0656,126.875 Q658.2219,126.6563 658.4094,126.5469 Q658.5969,126.4375 658.8156,126.4375 Q659.1906,126.4375 659.425,126.7031 Q659.6594,126.9531 659.6594,127.5625 L659.6594,129.0156 Q659.6594,129.625 659.425,129.8906 Q659.1906,130.1563 658.8156,130.1563 Q658.4719,130.1563 658.2688,129.9531 Q658.0656,129.7656 657.9563,129.25 Q657.9094,128.8906 657.7219,128.7031 Q657.3938,128.3281 656.7844,128.1094 Q656.175,127.8906 655.55,127.8906 Q654.7844,127.8906 654.1438,128.2188 Q653.5188,128.5469 653.0188,129.2969 Q652.5344,130.0469 652.5344,131.0781 L652.5344,132.1719 Q652.5344,133.4063 653.425,134.2344 Q654.3156,135.0469 655.9094,135.0469 Q656.8469,135.0469 657.5031,134.7969 Q657.8938,134.6406 658.3156,134.2031 Q658.5813,133.9375 658.7219,133.8594 Q658.8781,133.7813 659.0813,133.7813 Q659.4094,133.7813 659.6594,134.0469 Q659.925,134.2969 659.925,134.6406 Q659.925,134.9844 659.5813,135.3906 Q659.0813,135.9688 658.2844,136.2969 Q657.2063,136.75 655.9094,136.75 Q654.3938,136.75 653.1906,136.125 Q652.2063,135.625 651.5188,134.5625 Q650.8313,133.4844 650.8313,132.2031 L650.8313,131.0469 Q650.8313,129.7188 651.4406,128.5781 Q652.0656,127.4219 653.1594,126.8125 Q654.2531,126.1875 655.4875,126.1875 Q656.2219,126.1875 656.8625,126.3594 Q657.5188,126.5156 658.0656,126.875 Z " fill="#000000"/><text fill="#000000" font-family="sans-serif" font-size="14" lengthAdjust="spacing" textLength="147" x="669.7" y="135.8535">ScheduleVisitController</text><line style="stroke:#181818;stroke-width:0.5;" x1="639.5" x2="820.5" y1="147" y2="147"/><rect fill="none" height="6" style="stroke:#C82930;stroke-width:1.0;" width="6" x="646.5" y="157.3203"/><text fill="#000000" font-family="sans-serif" font-size="14" lengthAdjust="spacing" textLength="157" x="658.5" y="163.6738">Repositories repositories</text><line style="stroke:#181818;stroke-width:0.5;" x1="639.5" x2="820.5" y1="170.6406" y2="170.6406"/><ellipse cx="649.5" cy="183.9609" fill="#84BE84" rx="3" ry="3" style="stroke:#038048;stroke-width:1.0;"/><text fill="#000000" font-family="sans-serif" font-size="14" lengthAdjust="spacing" textLength="125" x="658.5" y="187.3145">getAnnouncement()</text><ellipse cx="649.5" cy="199.6016" fill="#84BE84" rx="3" ry="3" style="stroke:#038048;stroke-width:1.0;"/><text fill="#000000" font-family="sans-serif" font-size="14" lengthAdjust="spacing" textLength="83" x="658.5" y="202.9551">getInstance()</text><ellipse cx="649.5" cy="215.2422" fill="#84BE84" rx="3" ry="3" style="stroke:#038048;stroke-width:1.0;"/><text fill="#000000" font-family="sans-serif" font-size="14" lengthAdjust="spacing" textLength="96" x="658.5" y="218.5957">checkMinutes()</text><ellipse cx="649.5" cy="230.8828" fill="#84BE84" rx="3" ry="3" style="stroke:#038048;stroke-width:1.0;"/><text fill="#000000" font-family="sans-serif" font-size="14" lengthAdjust="spacing" textLength="77" x="658.5" y="234.2363">checkHour()</text><ellipse cx="649.5" cy="246.5234" fill="#84BE84" rx="3" ry="3" style="stroke:#038048;stroke-width:1.0;"/><text fill="#000000" font-family="sans-serif" font-size="14" lengthAdjust="spacing" textLength="77" x="658.5" y="249.877">checkYear()</text><ellipse cx="649.5" cy="262.1641" fill="#84BE84" rx="3" ry="3" style="stroke:#038048;stroke-width:1.0;"/><text fill="#000000" font-family="sans-serif" font-size="14" lengthAdjust="spacing" textLength="86" x="658.5" y="265.5176">checkMonth()</text><ellipse cx="649.5" cy="277.8047" fill="#84BE84" rx="3" ry="3" style="stroke:#038048;stroke-width:1.0;"/><text fill="#000000" font-family="sans-serif" font-size="14" lengthAdjust="spacing" textLength="72" x="658.5" y="281.1582">checkDay()</text><ellipse cx="649.5" cy="293.4453" fill="#84BE84" rx="3" ry="3" style="stroke:#038048;stroke-width:1.0;"/><text fill="#000000" font-family="sans-serif" font-size="14" lengthAdjust="spacing" textLength="111" x="658.5" y="296.7988">checkIfValidVisit()</text><ellipse cx="649.5" cy="309.0859" fill="#84BE84" rx="3" ry="3" style="stroke:#038048;stroke-width:1.0;"/><text fill="#000000" font-family="sans-serif" font-size="14" lengthAdjust="spacing" textLength="91" x="658.5" y="312.4395">addMessage()</text></g><!--class Repositories--><g id="elem_Repositories"><rect codeLine="21" fill="#F1F1F1" height="110.5625" id="Repositories" rx="2.5" ry="2.5" style="stroke:#181818;stroke-width:0.5;" width="226" x="617" y="379"/><ellipse cx="686.25" cy="395" fill="#ADD1B2" rx="11" ry="11" style="stroke:#181818;stroke-width:1.0;"/><path d="M689.0156,390.875 Q689.1719,390.6563 689.3594,390.5469 Q689.5469,390.4375 689.7656,390.4375 Q690.1406,390.4375 690.375,390.7031 Q690.6094,390.9531 690.6094,391.5625 L690.6094,393.0156 Q690.6094,393.625 690.375,393.8906 Q690.1406,394.1563 689.7656,394.1563 Q689.4219,394.1563 689.2188,393.9531 Q689.0156,393.7656 688.9063,393.25 Q688.8594,392.8906 688.6719,392.7031 Q688.3438,392.3281 687.7344,392.1094 Q687.125,391.8906 686.5,391.8906 Q685.7344,391.8906 685.0938,392.2188 Q684.4688,392.5469 683.9688,393.2969 Q683.4844,394.0469 683.4844,395.0781 L683.4844,396.1719 Q683.4844,397.4063 684.375,398.2344 Q685.2656,399.0469 686.8594,399.0469 Q687.7969,399.0469 688.4531,398.7969 Q688.8438,398.6406 689.2656,398.2031 Q689.5313,397.9375 689.6719,397.8594 Q689.8281,397.7813 690.0313,397.7813 Q690.3594,397.7813 690.6094,398.0469 Q690.875,398.2969 690.875,398.6406 Q690.875,398.9844 690.5313,399.3906 Q690.0313,399.9688 689.2344,400.2969 Q688.1563,400.75 686.8594,400.75 Q685.3438,400.75 684.1406,400.125 Q683.1563,399.625 682.4688,398.5625 Q681.7813,397.4844 681.7813,396.2031 L681.7813,395.0469 Q681.7813,393.7188 682.3906,392.5781 Q683.0156,391.4219 684.1094,390.8125 Q685.2031,390.1875 686.4375,390.1875 Q687.1719,390.1875 687.8125,390.3594 Q688.4688,390.5156 689.0156,390.875 Z " fill="#000000"/><text fill="#000000" font-family="sans-serif" font-size="14" lengthAdjust="spacing" textLength="79" x="706.75" y="399.8535">Repositories</text><line style="stroke:#181818;stroke-width:0.5;" x1="618" x2="842" y1="411" y2="411"/><line style="stroke:#181818;stroke-width:0.5;" x1="618" x2="842" y1="419" y2="419"/><ellipse cx="628" cy="432.3203" fill="#84BE84" rx="3" ry="3" style="stroke:#038048;stroke-width:1.0;"/><text fill="#000000" font-family="sans-serif" font-size="14" lengthAdjust="spacing" textLength="89" x="637" y="435.6738">Repositories()</text><ellipse cx="628" cy="447.9609" fill="#84BE84" rx="3" ry="3" style="stroke:#038048;stroke-width:1.0;"/><text fill="#000000" font-family="sans-serif" font-size="14" lengthAdjust="spacing" textLength="83" x="637" y="451.3145">getInstance()</text><ellipse cx="628" cy="463.6016" fill="#84BE84" rx="3" ry="3" style="stroke:#038048;stroke-width:1.0;"/><text fill="#000000" font-family="sans-serif" font-size="14" lengthAdjust="spacing" textLength="155" x="637" y="466.9551">getMessageRepository()</text><ellipse cx="628" cy="479.2422" fill="#84BE84" rx="3" ry="3" style="stroke:#038048;stroke-width:1.0;"/><text fill="#000000" font-family="sans-serif" font-size="14" lengthAdjust="spacing" textLength="200" x="637" y="482.5957">getAnnouncementsRepository()</text></g><!--class Message--><g id="elem_Message"><rect codeLine="30" fill="#F1F1F1" height="157.4844" id="Message" rx="2.5" ry="2.5" style="stroke:#181818;stroke-width:0.5;" width="237" x="346.5" y="782"/><ellipse cx="432.25" cy="798" fill="#ADD1B2" rx="11" ry="11" style="stroke:#181818;stroke-width:1.0;"/><path d="M435.0156,793.875 Q435.1719,793.6563 435.3594,793.5469 Q435.5469,793.4375 435.7656,793.4375 Q436.1406,793.4375 436.375,793.7031 Q436.6094,793.9531 436.6094,794.5625 L436.6094,796.0156 Q436.6094,796.625 436.375,796.8906 Q436.1406,797.1563 435.7656,797.1563 Q435.4219,797.1563 435.2188,796.9531 Q435.0156,796.7656 434.9063,796.25 Q434.8594,795.8906 434.6719,795.7031 Q434.3438,795.3281 433.7344,795.1094 Q433.125,794.8906 432.5,794.8906 Q431.7344,794.8906 431.0938,795.2188 Q430.4688,795.5469 429.9688,796.2969 Q429.4844,797.0469 429.4844,798.0781 L429.4844,799.1719 Q429.4844,800.4063 430.375,801.2344 Q431.2656,802.0469 432.8594,802.0469 Q433.7969,802.0469 434.4531,801.7969 Q434.8438,801.6406 435.2656,801.2031 Q435.5313,800.9375 435.6719,800.8594 Q435.8281,800.7813 436.0313,800.7813 Q436.3594,800.7813 436.6094,801.0469 Q436.875,801.2969 436.875,801.6406 Q436.875,801.9844 436.5313,802.3906 Q436.0313,802.9688 435.2344,803.2969 Q434.1563,803.75 432.8594,803.75 Q431.3438,803.75 430.1406,803.125 Q429.1563,802.625 428.4688,801.5625 Q427.7813,800.4844 427.7813,799.2031 L427.7813,798.0469 Q427.7813,796.7188 428.3906,795.5781 Q429.0156,794.4219 430.1094,793.8125 Q431.2031,793.1875 432.4375,793.1875 Q433.1719,793.1875 433.8125,793.3594 Q434.4688,793.5156 435.0156,793.875 Z " fill="#000000"/><text fill="#000000" font-family="sans-serif" font-size="14" lengthAdjust="spacing" textLength="57" x="452.75" y="802.8535">Message</text><line style="stroke:#181818;stroke-width:0.5;" x1="347.5" x2="582.5" y1="814" y2="814"/><rect fill="none" height="6" style="stroke:#C82930;stroke-width:1.0;" width="6" x="354.5" y="824.3203"/><text fill="#000000" font-family="sans-serif" font-size="14" lengthAdjust="spacing" textLength="98" x="366.5" y="830.6738">String message</text><rect fill="none" height="6" style="stroke:#C82930;stroke-width:1.0;" width="6" x="354.5" y="839.9609"/><text fill="#000000" font-family="sans-serif" font-size="14" lengthAdjust="spacing" textLength="76" x="366.5" y="846.3145">String name</text><rect fill="none" height="6" style="stroke:#C82930;stroke-width:1.0;" width="6" x="354.5" y="855.6016"/><text fill="#000000" font-family="sans-serif" font-size="14" lengthAdjust="spacing" textLength="81" x="366.5" y="861.9551">String phone</text><rect fill="none" height="6" style="stroke:#C82930;stroke-width:1.0;" width="6" x="354.5" y="871.2422"/><text fill="#000000" font-family="sans-serif" font-size="14" lengthAdjust="spacing" textLength="91" x="366.5" y="877.5957">Int inputAnnou</text><rect fill="none" height="6" style="stroke:#C82930;stroke-width:1.0;" width="6" x="354.5" y="886.8828"/><text fill="#000000" font-family="sans-serif" font-size="14" lengthAdjust="spacing" textLength="211" x="366.5" y="893.2363">LocalDateTime newVisitStartTime</text><rect fill="none" height="6" style="stroke:#C82930;stroke-width:1.0;" width="6" x="354.5" y="902.5234"/><text fill="#000000" font-family="sans-serif" font-size="14" lengthAdjust="spacing" textLength="206" x="366.5" y="908.877">LocalDateTime newVisitEndTime</text><line style="stroke:#181818;stroke-width:0.5;" x1="347.5" x2="582.5" y1="915.8438" y2="915.8438"/><ellipse cx="357.5" cy="929.1641" fill="#84BE84" rx="3" ry="3" style="stroke:#038048;stroke-width:1.0;"/><text fill="#000000" font-family="sans-serif" font-size="14" lengthAdjust="spacing" textLength="111" x="366.5" y="932.5176">checkIfValidVisit()</text></g><!--class MessageRepository--><g id="elem_MessageRepository"><rect codeLine="41" fill="#F1F1F1" height="110.5625" id="MessageRepository" rx="2.5" ry="2.5" style="stroke:#181818;stroke-width:0.5;" width="264" x="619" y="805"/><ellipse cx="684.25" cy="821" fill="#ADD1B2" rx="11" ry="11" style="stroke:#181818;stroke-width:1.0;"/><path d="M687.0156,816.875 Q687.1719,816.6563 687.3594,816.5469 Q687.5469,816.4375 687.7656,816.4375 Q688.1406,816.4375 688.375,816.7031 Q688.6094,816.9531 688.6094,817.5625 L688.6094,819.0156 Q688.6094,819.625 688.375,819.8906 Q688.1406,820.1563 687.7656,820.1563 Q687.4219,820.1563 687.2188,819.9531 Q687.0156,819.7656 686.9063,819.25 Q686.8594,818.8906 686.6719,818.7031 Q686.3438,818.3281 685.7344,818.1094 Q685.125,817.8906 684.5,817.8906 Q683.7344,817.8906 683.0938,818.2188 Q682.4688,818.5469 681.9688,819.2969 Q681.4844,820.0469 681.4844,821.0781 L681.4844,822.1719 Q681.4844,823.4063 682.375,824.2344 Q683.2656,825.0469 684.8594,825.0469 Q685.7969,825.0469 686.4531,824.7969 Q686.8438,824.6406 687.2656,824.2031 Q687.5313,823.9375 687.6719,823.8594 Q687.8281,823.7813 688.0313,823.7813 Q688.3594,823.7813 688.6094,824.0469 Q688.875,824.2969 688.875,824.6406 Q688.875,824.9844 688.5313,825.3906 Q688.0313,825.9688 687.2344,826.2969 Q686.1563,826.75 684.8594,826.75 Q683.3438,826.75 682.1406,826.125 Q681.1563,825.625 680.4688,824.5625 Q679.7813,823.4844 679.7813,822.2031 L679.7813,821.0469 Q679.7813,819.7188 680.3906,818.5781 Q681.0156,817.4219 682.1094,816.8125 Q683.2031,816.1875 684.4375,816.1875 Q685.1719,816.1875 685.8125,816.3594 Q686.4688,816.5156 687.0156,816.875 Z " fill="#000000"/><text fill="#000000" font-family="sans-serif" font-size="14" lengthAdjust="spacing" textLength="125" x="704.75" y="825.8535">MessageRepository</text><line style="stroke:#181818;stroke-width:0.5;" x1="620" x2="882" y1="837" y2="837"/><rect fill="none" height="6" style="stroke:#C82930;stroke-width:1.0;" width="6" x="627" y="847.3203"/><text fill="#000000" font-family="sans-serif" font-size="14" lengthAdjust="spacing" textLength="178" x="639" y="853.6738">List&lt;Message&gt; MessageList</text><rect fill="none" height="6" style="stroke:#C82930;stroke-width:1.0;" width="6" x="627" y="862.9609"/><text fill="#000000" font-family="sans-serif" font-size="14" lengthAdjust="spacing" textLength="238" x="639" y="869.3145">List&lt;Message&gt; MessageCompleteList</text><line style="stroke:#181818;stroke-width:0.5;" x1="620" x2="882" y1="876.2813" y2="876.2813"/><ellipse cx="630" cy="889.6016" fill="#84BE84" rx="3" ry="3" style="stroke:#038048;stroke-width:1.0;"/><text fill="#000000" font-family="sans-serif" font-size="14" lengthAdjust="spacing" textLength="91" x="639" y="892.9551">addMessage()</text><ellipse cx="630" cy="905.2422" fill="#84BE84" rx="3" ry="3" style="stroke:#038048;stroke-width:1.0;"/><text fill="#000000" font-family="sans-serif" font-size="14" lengthAdjust="spacing" textLength="94" x="639" y="908.5957">addComplete()</text></g><!--class Property--><g id="elem_Property"><rect codeLine="49" fill="#F1F1F1" height="63.6406" id="Property" rx="2.5" ry="2.5" style="stroke:#181818;stroke-width:0.5;" width="201" x="120.5" y="634.5"/><ellipse cx="189.75" cy="650.5" fill="#ADD1B2" rx="11" ry="11" style="stroke:#181818;stroke-width:1.0;"/><path d="M192.5156,646.375 Q192.6719,646.1563 192.8594,646.0469 Q193.0469,645.9375 193.2656,645.9375 Q193.6406,645.9375 193.875,646.2031 Q194.1094,646.4531 194.1094,647.0625 L194.1094,648.5156 Q194.1094,649.125 193.875,649.3906 Q193.6406,649.6563 193.2656,649.6563 Q192.9219,649.6563 192.7188,649.4531 Q192.5156,649.2656 192.4063,648.75 Q192.3594,648.3906 192.1719,648.2031 Q191.8438,647.8281 191.2344,647.6094 Q190.625,647.3906 190,647.3906 Q189.2344,647.3906 188.5938,647.7188 Q187.9688,648.0469 187.4688,648.7969 Q186.9844,649.5469 186.9844,650.5781 L186.9844,651.6719 Q186.9844,652.9063 187.875,653.7344 Q188.7656,654.5469 190.3594,654.5469 Q191.2969,654.5469 191.9531,654.2969 Q192.3438,654.1406 192.7656,653.7031 Q193.0313,653.4375 193.1719,653.3594 Q193.3281,653.2813 193.5313,653.2813 Q193.8594,653.2813 194.1094,653.5469 Q194.375,653.7969 194.375,654.1406 Q194.375,654.4844 194.0313,654.8906 Q193.5313,655.4688 192.7344,655.7969 Q191.6563,656.25 190.3594,656.25 Q188.8438,656.25 187.6406,655.625 Q186.6563,655.125 185.9688,654.0625 Q185.2813,652.9844 185.2813,651.7031 L185.2813,650.5469 Q185.2813,649.2188 185.8906,648.0781 Q186.5156,646.9219 187.6094,646.3125 Q188.7031,645.6875 189.9375,645.6875 Q190.6719,645.6875 191.3125,645.8594 Q191.9688,646.0156 192.5156,646.375 Z " fill="#000000"/><text fill="#000000" font-family="sans-serif" font-size="14" lengthAdjust="spacing" textLength="54" x="210.25" y="655.3535">Property</text><line style="stroke:#181818;stroke-width:0.5;" x1="121.5" x2="320.5" y1="666.5" y2="666.5"/><rect fill="none" height="6" style="stroke:#C82930;stroke-width:1.0;" width="6" x="128.5" y="676.8203"/><text fill="#000000" font-family="sans-serif" font-size="14" lengthAdjust="spacing" textLength="175" x="140.5" y="683.1738">PropertyType propertyType</text><line style="stroke:#181818;stroke-width:0.5;" x1="121.5" x2="320.5" y1="690.1406" y2="690.1406"/></g><!--class House--><g id="elem_House"><rect codeLine="52" fill="#F1F1F1" height="48" id="House" rx="2.5" ry="2.5" style="stroke:#181818;stroke-width:0.5;" width="72" x="7" y="836.5"/><ellipse cx="22" cy="852.5" fill="#ADD1B2" rx="11" ry="11" style="stroke:#181818;stroke-width:1.0;"/><path d="M24.7656,848.375 Q24.9219,848.1563 25.1094,848.0469 Q25.2969,847.9375 25.5156,847.9375 Q25.8906,847.9375 26.125,848.2031 Q26.3594,848.4531 26.3594,849.0625 L26.3594,850.5156 Q26.3594,851.125 26.125,851.3906 Q25.8906,851.6563 25.5156,851.6563 Q25.1719,851.6563 24.9688,851.4531 Q24.7656,851.2656 24.6563,850.75 Q24.6094,850.3906 24.4219,850.2031 Q24.0938,849.8281 23.4844,849.6094 Q22.875,849.3906 22.25,849.3906 Q21.4844,849.3906 20.8438,849.7188 Q20.2188,850.0469 19.7188,850.7969 Q19.2344,851.5469 19.2344,852.5781 L19.2344,853.6719 Q19.2344,854.9063 20.125,855.7344 Q21.0156,856.5469 22.6094,856.5469 Q23.5469,856.5469 24.2031,856.2969 Q24.5938,856.1406 25.0156,855.7031 Q25.2813,855.4375 25.4219,855.3594 Q25.5781,855.2813 25.7813,855.2813 Q26.1094,855.2813 26.3594,855.5469 Q26.625,855.7969 26.625,856.1406 Q26.625,856.4844 26.2813,856.8906 Q25.7813,857.4688 24.9844,857.7969 Q23.9063,858.25 22.6094,858.25 Q21.0938,858.25 19.8906,857.625 Q18.9063,857.125 18.2188,856.0625 Q17.5313,854.9844 17.5313,853.7031 L17.5313,852.5469 Q17.5313,851.2188 18.1406,850.0781 Q18.7656,848.9219 19.8594,848.3125 Q20.9531,847.6875 22.1875,847.6875 Q22.9219,847.6875 23.5625,847.8594 Q24.2188,848.0156 24.7656,848.375 Z " fill="#000000"/><text fill="#000000" font-family="sans-serif" font-size="14" lengthAdjust="spacing" textLength="40" x="36" y="857.3535">House</text><line style="stroke:#181818;stroke-width:0.5;" x1="8" x2="78" y1="868.5" y2="868.5"/><line style="stroke:#181818;stroke-width:0.5;" x1="8" x2="78" y1="876.5" y2="876.5"/></g><!--class Apartment--><g id="elem_Apartment"><rect codeLine="54" fill="#F1F1F1" height="48" id="Apartment" rx="2.5" ry="2.5" style="stroke:#181818;stroke-width:0.5;" width="97" x="114.5" y="836.5"/><ellipse cx="129.5" cy="852.5" fill="#ADD1B2" rx="11" ry="11" style="stroke:#181818;stroke-width:1.0;"/><path d="M132.2656,848.375 Q132.4219,848.1563 132.6094,848.0469 Q132.7969,847.9375 133.0156,847.9375 Q133.3906,847.9375 133.625,848.2031 Q133.8594,848.4531 133.8594,849.0625 L133.8594,850.5156 Q133.8594,851.125 133.625,851.3906 Q133.3906,851.6563 133.0156,851.6563 Q132.6719,851.6563 132.4688,851.4531 Q132.2656,851.2656 132.1563,850.75 Q132.1094,850.3906 131.9219,850.2031 Q131.5938,849.8281 130.9844,849.6094 Q130.375,849.3906 129.75,849.3906 Q128.9844,849.3906 128.3438,849.7188 Q127.7188,850.0469 127.2188,850.7969 Q126.7344,851.5469 126.7344,852.5781 L126.7344,853.6719 Q126.7344,854.9063 127.625,855.7344 Q128.5156,856.5469 130.1094,856.5469 Q131.0469,856.5469 131.7031,856.2969 Q132.0938,856.1406 132.5156,855.7031 Q132.7813,855.4375 132.9219,855.3594 Q133.0781,855.2813 133.2813,855.2813 Q133.6094,855.2813 133.8594,855.5469 Q134.125,855.7969 134.125,856.1406 Q134.125,856.4844 133.7813,856.8906 Q133.2813,857.4688 132.4844,857.7969 Q131.4063,858.25 130.1094,858.25 Q128.5938,858.25 127.3906,857.625 Q126.4063,857.125 125.7188,856.0625 Q125.0313,854.9844 125.0313,853.7031 L125.0313,852.5469 Q125.0313,851.2188 125.6406,850.0781 Q126.2656,848.9219 127.3594,848.3125 Q128.4531,847.6875 129.6875,847.6875 Q130.4219,847.6875 131.0625,847.8594 Q131.7188,848.0156 132.2656,848.375 Z " fill="#000000"/><text fill="#000000" font-family="sans-serif" font-size="14" lengthAdjust="spacing" textLength="65" x="143.5" y="857.3535">Apartment</text><line style="stroke:#181818;stroke-width:0.5;" x1="115.5" x2="210.5" y1="868.5" y2="868.5"/><line style="stroke:#181818;stroke-width:0.5;" x1="115.5" x2="210.5" y1="876.5" y2="876.5"/></g><!--class Land--><g id="elem_Land"><rect codeLine="56" fill="#F1F1F1" height="48" id="Land" rx="2.5" ry="2.5" style="stroke:#181818;stroke-width:0.5;" width="64" x="247" y="836.5"/><ellipse cx="262" cy="852.5" fill="#ADD1B2" rx="11" ry="11" style="stroke:#181818;stroke-width:1.0;"/><path d="M264.7656,848.375 Q264.9219,848.1563 265.1094,848.0469 Q265.2969,847.9375 265.5156,847.9375 Q265.8906,847.9375 266.125,848.2031 Q266.3594,848.4531 266.3594,849.0625 L266.3594,850.5156 Q266.3594,851.125 266.125,851.3906 Q265.8906,851.6563 265.5156,851.6563 Q265.1719,851.6563 264.9688,851.4531 Q264.7656,851.2656 264.6563,850.75 Q264.6094,850.3906 264.4219,850.2031 Q264.0938,849.8281 263.4844,849.6094 Q262.875,849.3906 262.25,849.3906 Q261.4844,849.3906 260.8438,849.7188 Q260.2188,850.0469 259.7188,850.7969 Q259.2344,851.5469 259.2344,852.5781 L259.2344,853.6719 Q259.2344,854.9063 260.125,855.7344 Q261.0156,856.5469 262.6094,856.5469 Q263.5469,856.5469 264.2031,856.2969 Q264.5938,856.1406 265.0156,855.7031 Q265.2813,855.4375 265.4219,855.3594 Q265.5781,855.2813 265.7813,855.2813 Q266.1094,855.2813 266.3594,855.5469 Q266.625,855.7969 266.625,856.1406 Q266.625,856.4844 266.2813,856.8906 Q265.7813,857.4688 264.9844,857.7969 Q263.9063,858.25 262.6094,858.25 Q261.0938,858.25 259.8906,857.625 Q258.9063,857.125 258.2188,856.0625 Q257.5313,854.9844 257.5313,853.7031 L257.5313,852.5469 Q257.5313,851.2188 258.1406,850.0781 Q258.7656,848.9219 259.8594,848.3125 Q260.9531,847.6875 262.1875,847.6875 Q262.9219,847.6875 263.5625,847.8594 Q264.2188,848.0156 264.7656,848.375 Z " fill="#000000"/><text fill="#000000" font-family="sans-serif" font-size="14" lengthAdjust="spacing" textLength="32" x="276" y="857.3535">Land</text><line style="stroke:#181818;stroke-width:0.5;" x1="248" x2="310" y1="868.5" y2="868.5"/><line style="stroke:#181818;stroke-width:0.5;" x1="248" x2="310" y1="876.5" y2="876.5"/></g><!--class Annoucement--><g id="elem_Annoucement"><rect codeLine="59" fill="#F1F1F1" height="110.5625" id="Annoucement" rx="2.5" ry="2.5" style="stroke:#181818;stroke-width:0.5;" width="119" x="467.5" y="611"/><ellipse cx="482.5" cy="627" fill="#ADD1B2" rx="11" ry="11" style="stroke:#181818;stroke-width:1.0;"/><path d="M485.2656,622.875 Q485.4219,622.6563 485.6094,622.5469 Q485.7969,622.4375 486.0156,622.4375 Q486.3906,622.4375 486.625,622.7031 Q486.8594,622.9531 486.8594,623.5625 L486.8594,625.0156 Q486.8594,625.625 486.625,625.8906 Q486.3906,626.1563 486.0156,626.1563 Q485.6719,626.1563 485.4688,625.9531 Q485.2656,625.7656 485.1563,625.25 Q485.1094,624.8906 484.9219,624.7031 Q484.5938,624.3281 483.9844,624.1094 Q483.375,623.8906 482.75,623.8906 Q481.9844,623.8906 481.3438,624.2188 Q480.7188,624.5469 480.2188,625.2969 Q479.7344,626.0469 479.7344,627.0781 L479.7344,628.1719 Q479.7344,629.4063 480.625,630.2344 Q481.5156,631.0469 483.1094,631.0469 Q484.0469,631.0469 484.7031,630.7969 Q485.0938,630.6406 485.5156,630.2031 Q485.7813,629.9375 485.9219,629.8594 Q486.0781,629.7813 486.2813,629.7813 Q486.6094,629.7813 486.8594,630.0469 Q487.125,630.2969 487.125,630.6406 Q487.125,630.9844 486.7813,631.3906 Q486.2813,631.9688 485.4844,632.2969 Q484.4063,632.75 483.1094,632.75 Q481.5938,632.75 480.3906,632.125 Q479.4063,631.625 478.7188,630.5625 Q478.0313,629.4844 478.0313,628.2031 L478.0313,627.0469 Q478.0313,625.7188 478.6406,624.5781 Q479.2656,623.4219 480.3594,622.8125 Q481.4531,622.1875 482.6875,622.1875 Q483.4219,622.1875 484.0625,622.3594 Q484.7188,622.5156 485.2656,622.875 Z " fill="#000000"/><text fill="#000000" font-family="sans-serif" font-size="14" lengthAdjust="spacing" textLength="87" x="496.5" y="631.8535">Annoucement</text><line style="stroke:#181818;stroke-width:0.5;" x1="468.5" x2="585.5" y1="643" y2="643"/><text fill="#000000" font-family="sans-serif" font-size="14" lengthAdjust="spacing" textLength="32" x="473.5" y="659.6738">Price</text><text fill="#000000" font-family="sans-serif" font-size="14" lengthAdjust="spacing" textLength="32" x="473.5" y="675.3145">Type</text><text fill="#000000" font-family="sans-serif" font-size="14" lengthAdjust="spacing" textLength="76" x="473.5" y="690.9551">Commission</text><text fill="#000000" font-family="sans-serif" font-size="14" lengthAdjust="spacing" textLength="37" x="473.5" y="706.5957">Agent</text><line style="stroke:#181818;stroke-width:0.5;" x1="468.5" x2="585.5" y1="713.5625" y2="713.5625"/></g><!--class AnnoucementRepository--><g id="elem_AnnoucementRepository"><rect codeLine="66" fill="#F1F1F1" height="63.6406" id="AnnoucementRepository" rx="2.5" ry="2.5" style="stroke:#181818;stroke-width:0.5;" width="187" x="748.5" y="634.5"/><ellipse cx="763.5" cy="650.5" fill="#ADD1B2" rx="11" ry="11" style="stroke:#181818;stroke-width:1.0;"/><path d="M766.2656,646.375 Q766.4219,646.1563 766.6094,646.0469 Q766.7969,645.9375 767.0156,645.9375 Q767.3906,645.9375 767.625,646.2031 Q767.8594,646.4531 767.8594,647.0625 L767.8594,648.5156 Q767.8594,649.125 767.625,649.3906 Q767.3906,649.6563 767.0156,649.6563 Q766.6719,649.6563 766.4688,649.4531 Q766.2656,649.2656 766.1563,648.75 Q766.1094,648.3906 765.9219,648.2031 Q765.5938,647.8281 764.9844,647.6094 Q764.375,647.3906 763.75,647.3906 Q762.9844,647.3906 762.3438,647.7188 Q761.7188,648.0469 761.2188,648.7969 Q760.7344,649.5469 760.7344,650.5781 L760.7344,651.6719 Q760.7344,652.9063 761.625,653.7344 Q762.5156,654.5469 764.1094,654.5469 Q765.0469,654.5469 765.7031,654.2969 Q766.0938,654.1406 766.5156,653.7031 Q766.7813,653.4375 766.9219,653.3594 Q767.0781,653.2813 767.2813,653.2813 Q767.6094,653.2813 767.8594,653.5469 Q768.125,653.7969 768.125,654.1406 Q768.125,654.4844 767.7813,654.8906 Q767.2813,655.4688 766.4844,655.7969 Q765.4063,656.25 764.1094,656.25 Q762.5938,656.25 761.3906,655.625 Q760.4063,655.125 759.7188,654.0625 Q759.0313,652.9844 759.0313,651.7031 L759.0313,650.5469 Q759.0313,649.2188 759.6406,648.0781 Q760.2656,646.9219 761.3594,646.3125 Q762.4531,645.6875 763.6875,645.6875 Q764.4219,645.6875 765.0625,645.8594 Q765.7188,646.0156 766.2656,646.375 Z " fill="#000000"/><text fill="#000000" font-family="sans-serif" font-size="14" lengthAdjust="spacing" textLength="155" x="777.5" y="655.3535">AnnoucementRepository</text><line style="stroke:#181818;stroke-width:0.5;" x1="749.5" x2="934.5" y1="666.5" y2="666.5"/><line style="stroke:#181818;stroke-width:0.5;" x1="749.5" x2="934.5" y1="674.5" y2="674.5"/><ellipse cx="759.5" cy="687.8203" fill="#84BE84" rx="3" ry="3" style="stroke:#038048;stroke-width:1.0;"/><text fill="#000000" font-family="sans-serif" font-size="14" lengthAdjust="spacing" textLength="125" x="768.5" y="691.1738">getAnnouncement()</text></g><!--link ScheduleVisitUI to ScheduleVisitController--><g id="link_ScheduleVisitUI_ScheduleVisitController"><path codeLine="72" d="M730,55.3 C730,69.66 730,89.19 730,109.7 " fill="none" id="ScheduleVisitUI-to-ScheduleVisitController" style="stroke:#181818;stroke-width:1.0;"/><polygon fill="#181818" points="730,114.93,734,105.93,730,109.93,726,105.93,730,114.93" style="stroke:#181818;stroke-width:1.0;"/></g><!--link ScheduleVisitController to Repositories--><g id="link_ScheduleVisitController_Repositories"><path codeLine="74" d="M730,319.12 C730,337.76 730,356.65 730,373.58 " fill="none" id="ScheduleVisitController-to-Repositories" style="stroke:#181818;stroke-width:1.0;"/><polygon fill="#181818" points="730,378.76,734,369.76,730,373.76,726,369.76,730,378.76" style="stroke:#181818;stroke-width:1.0;"/></g><!--link Repositories to MessageRepository--><g id="link_Repositories_MessageRepository"><path codeLine="76" d="M727.9,490.25 C726.23,547.97 725.04,641.52 731,722 C732.9,747.6 736.67,775.68 740.44,799.76 " fill="none" id="Repositories-to-MessageRepository" style="stroke:#181818;stroke-width:1.0;"/><polygon fill="#181818" points="741.24,804.83,743.8043,795.3208,740.469,799.8898,735.9,796.5545,741.24,804.83" style="stroke:#181818;stroke-width:1.0;"/></g><!--link Repositories to AnnoucementRepository--><g id="link_Repositories_AnnoucementRepository"><path codeLine="77" d="M756.54,490.01 C777.53,533.1 806.23,592.05 824.45,629.45 " fill="none" id="Repositories-to-AnnoucementRepository" style="stroke:#181818;stroke-width:1.0;"/><polygon fill="#181818" points="826.83,634.36,826.4706,624.5177,824.6339,629.8681,819.2836,628.0314,826.83,634.36" style="stroke:#181818;stroke-width:1.0;"/></g><!--link Message to MessageRepository--><g id="link_Message_MessageRepository"><path codeLine="79" d="M583.7,860.5 C593.72,860.5 603.74,860.5 613.75,860.5 " fill="none" id="Message-to-MessageRepository" style="stroke:#181818;stroke-width:1.0;"/><polygon fill="#181818" points="618.99,860.5,609.99,856.5,613.99,860.5,609.99,864.5,618.99,860.5" style="stroke:#181818;stroke-width:1.0;"/></g><!--link Annoucement to AnnoucementRepository--><g id="link_Annoucement_AnnoucementRepository"><path codeLine="83" d="M586.68,666.5 C638.85,666.5 691.03,666.5 743.2,666.5 " fill="none" id="Annoucement-to-AnnoucementRepository" style="stroke:#181818;stroke-width:1.0;"/><polygon fill="#181818" points="748.25,666.5,739.25,662.5,743.25,666.5,739.25,670.5,748.25,666.5" style="stroke:#181818;stroke-width:1.0;"/></g><!--link Property to Annoucement--><g id="link_Property_Annoucement"><path codeLine="84" d="M321.71,666.5 C368.52,666.5 415.33,666.5 462.14,666.5 " fill="none" id="Property-to-Annoucement" style="stroke:#181818;stroke-width:1.0;"/><polygon fill="#181818" points="467.26,666.5,458.26,662.5,462.26,666.5,458.26,670.5,467.26,666.5" style="stroke:#181818;stroke-width:1.0;"/></g><!--link Property to House--><g id="link_Property_House"><path codeLine="85" d="M183.19,698.62 C157.53,720.63 123.57,751.52 97,782 C83.41,797.59 70.1,816.64 60.1,831.94 " fill="none" id="Property-to-House" style="stroke:#181818;stroke-width:1.0;"/><polygon fill="#181818" points="57.36,836.16,65.6129,830.785,60.0804,831.9648,58.9006,826.4324,57.36,836.16" style="stroke:#181818;stroke-width:1.0;"/></g><!--link Property to Apartment--><g id="link_Property_Apartment"><path codeLine="86" d="M211.55,698.78 C200.45,735.54 182.18,796.01 171.5,831.36 " fill="none" id="Property-to-Apartment" style="stroke:#181818;stroke-width:1.0;"/><polygon fill="#181818" points="169.98,836.39,176.428,828.9453,171.4364,831.6068,168.7749,826.6151,169.98,836.39" style="stroke:#181818;stroke-width:1.0;"/></g><!--link Property to Land--><g id="link_Property_Land"><path codeLine="87" d="M230.45,698.78 C241.55,735.54 259.82,796.01 270.5,831.36 " fill="none" id="Property-to-Land" style="stroke:#181818;stroke-width:1.0;"/><polygon fill="#181818" points="272.02,836.39,273.2251,826.6151,270.5636,831.6068,265.572,828.9453,272.02,836.39" style="stroke:#181818;stroke-width:1.0;"/></g><!--SRC=[TLFBQiCm4BphAtHiAVw3OWX9eOO4Gf86UXJsrX6rLqAIAS7atol9jYm_ufDdPj-xoYkcDJtdDoYQ2gvSS_ELjUH1ygMm5MYKg2fGBKbE88NbXEAWgOe08Mybc0sYQ3276j2yl7egGssOfHoqOVFV0yV6W0xuKpGgW6zW8pZOpBU0TkmU_hEVAwjuuUjp92kA0sZDIfVcGVesuc9RMs2CLwgpi0yI3Eyz7_Ub9wfDrcVhVUsGpaPnB6dT4G4ZgqSWRm8joj1GZhBfCf1aBt9MxPY12w-18lpv5i-6AUEOPmOVM7XvVJoFMObZ0xROFTVclHVImSAHJwIjg6K5fZEPJTwXGO_p7fMGe8nBD_nUxXAeZ40uFdiF6iPRt4ZRkvlxIEqP5kqOtO-ksqrBZehdG7n0MqdDjUO2oQQqugf7F8kL2tRh9RDtGfCaVVP4PiQZu9rEamSpUKj9uWmM2reOfUl54zAxqYHT1h5Vv4MV1XcMCxE8U2lu_KofiACfxVP4_W40]--></g></svg>