<?xml version="1.0" encoding="us-ascii" standalone="no"?><svg xmlns="http://www.w3.org/2000/svg" xmlns:xlink="http://www.w3.org/1999/xlink" contentStyleType="text/css" height="945px" preserveAspectRatio="none" style="width:1168px;height:945px;background:#FFFFFF;" version="1.1" viewBox="0 0 1168 945" width="1168px" zoomAndPan="magnify"><defs/><g><!--class ScheduleVisitUI--><g id="elem_ScheduleVisitUI"><rect codeLine="5" fill="#F1F1F1" height="48" id="ScheduleVisitUI" rx="2.5" ry="2.5" style="stroke:#181818;stroke-width:0.5;" width="129" x="777.5" y="7"/><ellipse cx="792.5" cy="23" fill="#ADD1B2" rx="11" ry="11" style="stroke:#181818;stroke-width:1.0;"/><path d="M795.2656,18.875 Q795.4219,18.6563 795.6094,18.5469 Q795.7969,18.4375 796.0156,18.4375 Q796.3906,18.4375 796.625,18.7031 Q796.8594,18.9531 796.8594,19.5625 L796.8594,21.0156 Q796.8594,21.625 796.625,21.8906 Q796.3906,22.1563 796.0156,22.1563 Q795.6719,22.1563 795.4688,21.9531 Q795.2656,21.7656 795.1563,21.25 Q795.1094,20.8906 794.9219,20.7031 Q794.5938,20.3281 793.9844,20.1094 Q793.375,19.8906 792.75,19.8906 Q791.9844,19.8906 791.3438,20.2188 Q790.7188,20.5469 790.2188,21.2969 Q789.7344,22.0469 789.7344,23.0781 L789.7344,24.1719 Q789.7344,25.4063 790.625,26.2344 Q791.5156,27.0469 793.1094,27.0469 Q794.0469,27.0469 794.7031,26.7969 Q795.0938,26.6406 795.5156,26.2031 Q795.7813,25.9375 795.9219,25.8594 Q796.0781,25.7813 796.2813,25.7813 Q796.6094,25.7813 796.8594,26.0469 Q797.125,26.2969 797.125,26.6406 Q797.125,26.9844 796.7813,27.3906 Q796.2813,27.9688 795.4844,28.2969 Q794.4063,28.75 793.1094,28.75 Q791.5938,28.75 790.3906,28.125 Q789.4063,27.625 788.7188,26.5625 Q788.0313,25.4844 788.0313,24.2031 L788.0313,23.0469 Q788.0313,21.7188 788.6406,20.5781 Q789.2656,19.4219 790.3594,18.8125 Q791.4531,18.1875 792.6875,18.1875 Q793.4219,18.1875 794.0625,18.3594 Q794.7188,18.5156 795.2656,18.875 Z " fill="#000000"/><text fill="#000000" font-family="sans-serif" font-size="14" lengthAdjust="spacing" textLength="97" x="806.5" y="27.8535">ScheduleVisitUI</text><line style="stroke:#181818;stroke-width:0.5;" x1="778.5" x2="905.5" y1="39" y2="39"/><line style="stroke:#181818;stroke-width:0.5;" x1="778.5" x2="905.5" y1="47" y2="47"/></g><!--class ScheduleVisitController--><g id="elem_ScheduleVisitController"><rect codeLine="7" fill="#F1F1F1" height="204.4063" id="ScheduleVisitController" rx="2.5" ry="2.5" style="stroke:#181818;stroke-width:0.5;" width="183" x="750.5" y="115"/><ellipse cx="767.3" cy="131" fill="#ADD1B2" rx="11" ry="11" style="stroke:#181818;stroke-width:1.0;"/><path d="M770.0656,126.875 Q770.2219,126.6563 770.4094,126.5469 Q770.5969,126.4375 770.8156,126.4375 Q771.1906,126.4375 771.425,126.7031 Q771.6594,126.9531 771.6594,127.5625 L771.6594,129.0156 Q771.6594,129.625 771.425,129.8906 Q771.1906,130.1563 770.8156,130.1563 Q770.4719,130.1563 770.2688,129.9531 Q770.0656,129.7656 769.9563,129.25 Q769.9094,128.8906 769.7219,128.7031 Q769.3938,128.3281 768.7844,128.1094 Q768.175,127.8906 767.55,127.8906 Q766.7844,127.8906 766.1438,128.2188 Q765.5188,128.5469 765.0188,129.2969 Q764.5344,130.0469 764.5344,131.0781 L764.5344,132.1719 Q764.5344,133.4063 765.425,134.2344 Q766.3156,135.0469 767.9094,135.0469 Q768.8469,135.0469 769.5031,134.7969 Q769.8938,134.6406 770.3156,134.2031 Q770.5813,133.9375 770.7219,133.8594 Q770.8781,133.7813 771.0813,133.7813 Q771.4094,133.7813 771.6594,134.0469 Q771.925,134.2969 771.925,134.6406 Q771.925,134.9844 771.5813,135.3906 Q771.0813,135.9688 770.2844,136.2969 Q769.2063,136.75 767.9094,136.75 Q766.3938,136.75 765.1906,136.125 Q764.2063,135.625 763.5188,134.5625 Q762.8313,133.4844 762.8313,132.2031 L762.8313,131.0469 Q762.8313,129.7188 763.4406,128.5781 Q764.0656,127.4219 765.1594,126.8125 Q766.2531,126.1875 767.4875,126.1875 Q768.2219,126.1875 768.8625,126.3594 Q769.5188,126.5156 770.0656,126.875 Z " fill="#000000"/><text fill="#000000" font-family="sans-serif" font-size="14" lengthAdjust="spacing" textLength="147" x="781.7" y="135.8535">ScheduleVisitController</text><line style="stroke:#181818;stroke-width:0.5;" x1="751.5" x2="932.5" y1="147" y2="147"/><rect fill="none" height="6" style="stroke:#C82930;stroke-width:1.0;" width="6" x="758.5" y="157.3203"/><text fill="#000000" font-family="sans-serif" font-size="14" lengthAdjust="spacing" textLength="157" x="770.5" y="163.6738">Repositories repositories</text><line style="stroke:#181818;stroke-width:0.5;" x1="751.5" x2="932.5" y1="170.6406" y2="170.6406"/><ellipse cx="761.5" cy="183.9609" fill="#84BE84" rx="3" ry="3" style="stroke:#038048;stroke-width:1.0;"/><text fill="#000000" font-family="sans-serif" font-size="14" lengthAdjust="spacing" textLength="125" x="770.5" y="187.3145">getAnnouncement()</text><ellipse cx="761.5" cy="199.6016" fill="#84BE84" rx="3" ry="3" style="stroke:#038048;stroke-width:1.0;"/><text fill="#000000" font-family="sans-serif" font-size="14" lengthAdjust="spacing" textLength="83" x="770.5" y="202.9551">getInstance()</text><ellipse cx="761.5" cy="215.2422" fill="#84BE84" rx="3" ry="3" style="stroke:#038048;stroke-width:1.0;"/><text fill="#000000" font-family="sans-serif" font-size="14" lengthAdjust="spacing" textLength="96" x="770.5" y="218.5957">checkMinutes()</text><ellipse cx="761.5" cy="230.8828" fill="#84BE84" rx="3" ry="3" style="stroke:#038048;stroke-width:1.0;"/><text fill="#000000" font-family="sans-serif" font-size="14" lengthAdjust="spacing" textLength="77" x="770.5" y="234.2363">checkHour()</text><ellipse cx="761.5" cy="246.5234" fill="#84BE84" rx="3" ry="3" style="stroke:#038048;stroke-width:1.0;"/><text fill="#000000" font-family="sans-serif" font-size="14" lengthAdjust="spacing" textLength="77" x="770.5" y="249.877">checkYear()</text><ellipse cx="761.5" cy="262.1641" fill="#84BE84" rx="3" ry="3" style="stroke:#038048;stroke-width:1.0;"/><text fill="#000000" font-family="sans-serif" font-size="14" lengthAdjust="spacing" textLength="86" x="770.5" y="265.5176">checkMonth()</text><ellipse cx="761.5" cy="277.8047" fill="#84BE84" rx="3" ry="3" style="stroke:#038048;stroke-width:1.0;"/><text fill="#000000" font-family="sans-serif" font-size="14" lengthAdjust="spacing" textLength="72" x="770.5" y="281.1582">checkDay()</text><ellipse cx="761.5" cy="293.4453" fill="#84BE84" rx="3" ry="3" style="stroke:#038048;stroke-width:1.0;"/><text fill="#000000" font-family="sans-serif" font-size="14" lengthAdjust="spacing" textLength="111" x="770.5" y="296.7988">checkIfValidVisit()</text><ellipse cx="761.5" cy="309.0859" fill="#84BE84" rx="3" ry="3" style="stroke:#038048;stroke-width:1.0;"/><text fill="#000000" font-family="sans-serif" font-size="14" lengthAdjust="spacing" textLength="91" x="770.5" y="312.4395">addMessage()</text></g><!--class Repositories--><g id="elem_Repositories"><rect codeLine="21" fill="#F1F1F1" height="126.2031" id="Repositories" rx="2.5" ry="2.5" style="stroke:#181818;stroke-width:0.5;" width="226" x="729" y="379"/><ellipse cx="798.25" cy="395" fill="#ADD1B2" rx="11" ry="11" style="stroke:#181818;stroke-width:1.0;"/><path d="M801.0156,390.875 Q801.1719,390.6563 801.3594,390.5469 Q801.5469,390.4375 801.7656,390.4375 Q802.1406,390.4375 802.375,390.7031 Q802.6094,390.9531 802.6094,391.5625 L802.6094,393.0156 Q802.6094,393.625 802.375,393.8906 Q802.1406,394.1563 801.7656,394.1563 Q801.4219,394.1563 801.2188,393.9531 Q801.0156,393.7656 800.9063,393.25 Q800.8594,392.8906 800.6719,392.7031 Q800.3438,392.3281 799.7344,392.1094 Q799.125,391.8906 798.5,391.8906 Q797.7344,391.8906 797.0938,392.2188 Q796.4688,392.5469 795.9688,393.2969 Q795.4844,394.0469 795.4844,395.0781 L795.4844,396.1719 Q795.4844,397.4063 796.375,398.2344 Q797.2656,399.0469 798.8594,399.0469 Q799.7969,399.0469 800.4531,398.7969 Q800.8438,398.6406 801.2656,398.2031 Q801.5313,397.9375 801.6719,397.8594 Q801.8281,397.7813 802.0313,397.7813 Q802.3594,397.7813 802.6094,398.0469 Q802.875,398.2969 802.875,398.6406 Q802.875,398.9844 802.5313,399.3906 Q802.0313,399.9688 801.2344,400.2969 Q800.1563,400.75 798.8594,400.75 Q797.3438,400.75 796.1406,400.125 Q795.1563,399.625 794.4688,398.5625 Q793.7813,397.4844 793.7813,396.2031 L793.7813,395.0469 Q793.7813,393.7188 794.3906,392.5781 Q795.0156,391.4219 796.1094,390.8125 Q797.2031,390.1875 798.4375,390.1875 Q799.1719,390.1875 799.8125,390.3594 Q800.4688,390.5156 801.0156,390.875 Z " fill="#000000"/><text fill="#000000" font-family="sans-serif" font-size="14" lengthAdjust="spacing" textLength="79" x="818.75" y="399.8535">Repositories</text><line style="stroke:#181818;stroke-width:0.5;" x1="730" x2="954" y1="411" y2="411"/><line style="stroke:#181818;stroke-width:0.5;" x1="730" x2="954" y1="419" y2="419"/><ellipse cx="740" cy="432.3203" fill="#84BE84" rx="3" ry="3" style="stroke:#038048;stroke-width:1.0;"/><text fill="#000000" font-family="sans-serif" font-size="14" lengthAdjust="spacing" textLength="89" x="749" y="435.6738">Repositories()</text><ellipse cx="740" cy="447.9609" fill="#84BE84" rx="3" ry="3" style="stroke:#038048;stroke-width:1.0;"/><text fill="#000000" font-family="sans-serif" font-size="14" lengthAdjust="spacing" textLength="188" x="749" y="451.3145">getAuthenticationRepository()</text><ellipse cx="740" cy="463.6016" fill="#84BE84" rx="3" ry="3" style="stroke:#038048;stroke-width:1.0;"/><text fill="#000000" font-family="sans-serif" font-size="14" lengthAdjust="spacing" textLength="83" x="749" y="466.9551">getInstance()</text><ellipse cx="740" cy="479.2422" fill="#84BE84" rx="3" ry="3" style="stroke:#038048;stroke-width:1.0;"/><text fill="#000000" font-family="sans-serif" font-size="14" lengthAdjust="spacing" textLength="155" x="749" y="482.5957">getMessageRepository()</text><ellipse cx="740" cy="494.8828" fill="#84BE84" rx="3" ry="3" style="stroke:#038048;stroke-width:1.0;"/><text fill="#000000" font-family="sans-serif" font-size="14" lengthAdjust="spacing" textLength="200" x="749" y="498.2363">getAnnouncementsRepository()</text></g><!--class Message--><g id="elem_Message"><rect codeLine="31" fill="#F1F1F1" height="141.8438" id="Message" rx="2.5" ry="2.5" style="stroke:#181818;stroke-width:0.5;" width="237" x="346.5" y="797"/><ellipse cx="432.25" cy="813" fill="#ADD1B2" rx="11" ry="11" style="stroke:#181818;stroke-width:1.0;"/><path d="M435.0156,808.875 Q435.1719,808.6563 435.3594,808.5469 Q435.5469,808.4375 435.7656,808.4375 Q436.1406,808.4375 436.375,808.7031 Q436.6094,808.9531 436.6094,809.5625 L436.6094,811.0156 Q436.6094,811.625 436.375,811.8906 Q436.1406,812.1563 435.7656,812.1563 Q435.4219,812.1563 435.2188,811.9531 Q435.0156,811.7656 434.9063,811.25 Q434.8594,810.8906 434.6719,810.7031 Q434.3438,810.3281 433.7344,810.1094 Q433.125,809.8906 432.5,809.8906 Q431.7344,809.8906 431.0938,810.2188 Q430.4688,810.5469 429.9688,811.2969 Q429.4844,812.0469 429.4844,813.0781 L429.4844,814.1719 Q429.4844,815.4063 430.375,816.2344 Q431.2656,817.0469 432.8594,817.0469 Q433.7969,817.0469 434.4531,816.7969 Q434.8438,816.6406 435.2656,816.2031 Q435.5313,815.9375 435.6719,815.8594 Q435.8281,815.7813 436.0313,815.7813 Q436.3594,815.7813 436.6094,816.0469 Q436.875,816.2969 436.875,816.6406 Q436.875,816.9844 436.5313,817.3906 Q436.0313,817.9688 435.2344,818.2969 Q434.1563,818.75 432.8594,818.75 Q431.3438,818.75 430.1406,818.125 Q429.1563,817.625 428.4688,816.5625 Q427.7813,815.4844 427.7813,814.2031 L427.7813,813.0469 Q427.7813,811.7188 428.3906,810.5781 Q429.0156,809.4219 430.1094,808.8125 Q431.2031,808.1875 432.4375,808.1875 Q433.1719,808.1875 433.8125,808.3594 Q434.4688,808.5156 435.0156,808.875 Z " fill="#000000"/><text fill="#000000" font-family="sans-serif" font-size="14" lengthAdjust="spacing" textLength="57" x="452.75" y="817.8535">Message</text><line style="stroke:#181818;stroke-width:0.5;" x1="347.5" x2="582.5" y1="829" y2="829"/><rect fill="none" height="6" style="stroke:#C82930;stroke-width:1.0;" width="6" x="354.5" y="839.3203"/><text fill="#000000" font-family="sans-serif" font-size="14" lengthAdjust="spacing" textLength="130" x="366.5" y="845.6738">Client loggedInClient</text><rect fill="none" height="6" style="stroke:#C82930;stroke-width:1.0;" width="6" x="354.5" y="854.9609"/><text fill="#000000" font-family="sans-serif" font-size="14" lengthAdjust="spacing" textLength="81" x="366.5" y="861.3145">String phone</text><rect fill="none" height="6" style="stroke:#C82930;stroke-width:1.0;" width="6" x="354.5" y="870.6016"/><text fill="#000000" font-family="sans-serif" font-size="14" lengthAdjust="spacing" textLength="185" x="366.5" y="876.9551">Annoucement announcement</text><rect fill="none" height="6" style="stroke:#C82930;stroke-width:1.0;" width="6" x="354.5" y="886.2422"/><text fill="#000000" font-family="sans-serif" font-size="14" lengthAdjust="spacing" textLength="211" x="366.5" y="892.5957">LocalDateTime newVisitStartTime</text><rect fill="none" height="6" style="stroke:#C82930;stroke-width:1.0;" width="6" x="354.5" y="901.8828"/><text fill="#000000" font-family="sans-serif" font-size="14" lengthAdjust="spacing" textLength="206" x="366.5" y="908.2363">LocalDateTime newVisitEndTime</text><line style="stroke:#181818;stroke-width:0.5;" x1="347.5" x2="582.5" y1="915.2031" y2="915.2031"/><ellipse cx="357.5" cy="928.5234" fill="#84BE84" rx="3" ry="3" style="stroke:#038048;stroke-width:1.0;"/><text fill="#000000" font-family="sans-serif" font-size="14" lengthAdjust="spacing" textLength="111" x="366.5" y="931.877">checkIfValidVisit()</text></g><!--class MessageRepository--><g id="elem_MessageRepository"><rect codeLine="41" fill="#F1F1F1" height="110.5625" id="MessageRepository" rx="2.5" ry="2.5" style="stroke:#181818;stroke-width:0.5;" width="264" x="619" y="812.5"/><ellipse cx="684.25" cy="828.5" fill="#ADD1B2" rx="11" ry="11" style="stroke:#181818;stroke-width:1.0;"/><path d="M687.0156,824.375 Q687.1719,824.1563 687.3594,824.0469 Q687.5469,823.9375 687.7656,823.9375 Q688.1406,823.9375 688.375,824.2031 Q688.6094,824.4531 688.6094,825.0625 L688.6094,826.5156 Q688.6094,827.125 688.375,827.3906 Q688.1406,827.6563 687.7656,827.6563 Q687.4219,827.6563 687.2188,827.4531 Q687.0156,827.2656 686.9063,826.75 Q686.8594,826.3906 686.6719,826.2031 Q686.3438,825.8281 685.7344,825.6094 Q685.125,825.3906 684.5,825.3906 Q683.7344,825.3906 683.0938,825.7188 Q682.4688,826.0469 681.9688,826.7969 Q681.4844,827.5469 681.4844,828.5781 L681.4844,829.6719 Q681.4844,830.9063 682.375,831.7344 Q683.2656,832.5469 684.8594,832.5469 Q685.7969,832.5469 686.4531,832.2969 Q686.8438,832.1406 687.2656,831.7031 Q687.5313,831.4375 687.6719,831.3594 Q687.8281,831.2813 688.0313,831.2813 Q688.3594,831.2813 688.6094,831.5469 Q688.875,831.7969 688.875,832.1406 Q688.875,832.4844 688.5313,832.8906 Q688.0313,833.4688 687.2344,833.7969 Q686.1563,834.25 684.8594,834.25 Q683.3438,834.25 682.1406,833.625 Q681.1563,833.125 680.4688,832.0625 Q679.7813,830.9844 679.7813,829.7031 L679.7813,828.5469 Q679.7813,827.2188 680.3906,826.0781 Q681.0156,824.9219 682.1094,824.3125 Q683.2031,823.6875 684.4375,823.6875 Q685.1719,823.6875 685.8125,823.8594 Q686.4688,824.0156 687.0156,824.375 Z " fill="#000000"/><text fill="#000000" font-family="sans-serif" font-size="14" lengthAdjust="spacing" textLength="125" x="704.75" y="833.3535">MessageRepository</text><line style="stroke:#181818;stroke-width:0.5;" x1="620" x2="882" y1="844.5" y2="844.5"/><rect fill="none" height="6" style="stroke:#C82930;stroke-width:1.0;" width="6" x="627" y="854.8203"/><text fill="#000000" font-family="sans-serif" font-size="14" lengthAdjust="spacing" textLength="178" x="639" y="861.1738">List&lt;Message&gt; MessageList</text><rect fill="none" height="6" style="stroke:#C82930;stroke-width:1.0;" width="6" x="627" y="870.4609"/><text fill="#000000" font-family="sans-serif" font-size="14" lengthAdjust="spacing" textLength="238" x="639" y="876.8145">List&lt;Message&gt; MessageCompleteList</text><line style="stroke:#181818;stroke-width:0.5;" x1="620" x2="882" y1="883.7813" y2="883.7813"/><ellipse cx="630" cy="897.1016" fill="#84BE84" rx="3" ry="3" style="stroke:#038048;stroke-width:1.0;"/><text fill="#000000" font-family="sans-serif" font-size="14" lengthAdjust="spacing" textLength="91" x="639" y="900.4551">addMessage()</text><ellipse cx="630" cy="912.7422" fill="#84BE84" rx="3" ry="3" style="stroke:#038048;stroke-width:1.0;"/><text fill="#000000" font-family="sans-serif" font-size="14" lengthAdjust="spacing" textLength="94" x="639" y="916.0957">addComplete()</text></g><!--class AuthenticationRepository--><g id="elem_AuthenticationRepository"><rect codeLine="49" fill="#F1F1F1" height="63.6406" id="AuthenticationRepository" rx="2.5" ry="2.5" style="stroke:#181818;stroke-width:0.5;" width="190" x="971" y="649.5"/><ellipse cx="986" cy="665.5" fill="#ADD1B2" rx="11" ry="11" style="stroke:#181818;stroke-width:1.0;"/><path d="M988.7656,661.375 Q988.9219,661.1563 989.1094,661.0469 Q989.2969,660.9375 989.5156,660.9375 Q989.8906,660.9375 990.125,661.2031 Q990.3594,661.4531 990.3594,662.0625 L990.3594,663.5156 Q990.3594,664.125 990.125,664.3906 Q989.8906,664.6563 989.5156,664.6563 Q989.1719,664.6563 988.9688,664.4531 Q988.7656,664.2656 988.6563,663.75 Q988.6094,663.3906 988.4219,663.2031 Q988.0938,662.8281 987.4844,662.6094 Q986.875,662.3906 986.25,662.3906 Q985.4844,662.3906 984.8438,662.7188 Q984.2188,663.0469 983.7188,663.7969 Q983.2344,664.5469 983.2344,665.5781 L983.2344,666.6719 Q983.2344,667.9063 984.125,668.7344 Q985.0156,669.5469 986.6094,669.5469 Q987.5469,669.5469 988.2031,669.2969 Q988.5938,669.1406 989.0156,668.7031 Q989.2813,668.4375 989.4219,668.3594 Q989.5781,668.2813 989.7813,668.2813 Q990.1094,668.2813 990.3594,668.5469 Q990.625,668.7969 990.625,669.1406 Q990.625,669.4844 990.2813,669.8906 Q989.7813,670.4688 988.9844,670.7969 Q987.9063,671.25 986.6094,671.25 Q985.0938,671.25 983.8906,670.625 Q982.9063,670.125 982.2188,669.0625 Q981.5313,667.9844 981.5313,666.7031 L981.5313,665.5469 Q981.5313,664.2188 982.1406,663.0781 Q982.7656,661.9219 983.8594,661.3125 Q984.9531,660.6875 986.1875,660.6875 Q986.9219,660.6875 987.5625,660.8594 Q988.2188,661.0156 988.7656,661.375 Z " fill="#000000"/><text fill="#000000" font-family="sans-serif" font-size="14" lengthAdjust="spacing" textLength="158" x="1000" y="670.3535">AuthenticationRepository</text><line style="stroke:#181818;stroke-width:0.5;" x1="972" x2="1160" y1="681.5" y2="681.5"/><line style="stroke:#181818;stroke-width:0.5;" x1="972" x2="1160" y1="689.5" y2="689.5"/><ellipse cx="982" cy="702.8203" fill="#84BE84" rx="3" ry="3" style="stroke:#038048;stroke-width:1.0;"/><text fill="#000000" font-family="sans-serif" font-size="14" lengthAdjust="spacing" textLength="157" x="991" y="706.1738">getCurrentUserSession()</text></g><!--class Property--><g id="elem_Property"><rect codeLine="53" fill="#F1F1F1" height="63.6406" id="Property" rx="2.5" ry="2.5" style="stroke:#181818;stroke-width:0.5;" width="201" x="120.5" y="649.5"/><ellipse cx="189.75" cy="665.5" fill="#ADD1B2" rx="11" ry="11" style="stroke:#181818;stroke-width:1.0;"/><path d="M192.5156,661.375 Q192.6719,661.1563 192.8594,661.0469 Q193.0469,660.9375 193.2656,660.9375 Q193.6406,660.9375 193.875,661.2031 Q194.1094,661.4531 194.1094,662.0625 L194.1094,663.5156 Q194.1094,664.125 193.875,664.3906 Q193.6406,664.6563 193.2656,664.6563 Q192.9219,664.6563 192.7188,664.4531 Q192.5156,664.2656 192.4063,663.75 Q192.3594,663.3906 192.1719,663.2031 Q191.8438,662.8281 191.2344,662.6094 Q190.625,662.3906 190,662.3906 Q189.2344,662.3906 188.5938,662.7188 Q187.9688,663.0469 187.4688,663.7969 Q186.9844,664.5469 186.9844,665.5781 L186.9844,666.6719 Q186.9844,667.9063 187.875,668.7344 Q188.7656,669.5469 190.3594,669.5469 Q191.2969,669.5469 191.9531,669.2969 Q192.3438,669.1406 192.7656,668.7031 Q193.0313,668.4375 193.1719,668.3594 Q193.3281,668.2813 193.5313,668.2813 Q193.8594,668.2813 194.1094,668.5469 Q194.375,668.7969 194.375,669.1406 Q194.375,669.4844 194.0313,669.8906 Q193.5313,670.4688 192.7344,670.7969 Q191.6563,671.25 190.3594,671.25 Q188.8438,671.25 187.6406,670.625 Q186.6563,670.125 185.9688,669.0625 Q185.2813,667.9844 185.2813,666.7031 L185.2813,665.5469 Q185.2813,664.2188 185.8906,663.0781 Q186.5156,661.9219 187.6094,661.3125 Q188.7031,660.6875 189.9375,660.6875 Q190.6719,660.6875 191.3125,660.8594 Q191.9688,661.0156 192.5156,661.375 Z " fill="#000000"/><text fill="#000000" font-family="sans-serif" font-size="14" lengthAdjust="spacing" textLength="54" x="210.25" y="670.3535">Property</text><line style="stroke:#181818;stroke-width:0.5;" x1="121.5" x2="320.5" y1="681.5" y2="681.5"/><rect fill="none" height="6" style="stroke:#C82930;stroke-width:1.0;" width="6" x="128.5" y="691.8203"/><text fill="#000000" font-family="sans-serif" font-size="14" lengthAdjust="spacing" textLength="175" x="140.5" y="698.1738">PropertyType propertyType</text><line style="stroke:#181818;stroke-width:0.5;" x1="121.5" x2="320.5" y1="705.1406" y2="705.1406"/></g><!--class House--><g id="elem_House"><rect codeLine="56" fill="#F1F1F1" height="48" id="House" rx="2.5" ry="2.5" style="stroke:#181818;stroke-width:0.5;" width="72" x="7" y="844"/><ellipse cx="22" cy="860" fill="#ADD1B2" rx="11" ry="11" style="stroke:#181818;stroke-width:1.0;"/><path d="M24.7656,855.875 Q24.9219,855.6563 25.1094,855.5469 Q25.2969,855.4375 25.5156,855.4375 Q25.8906,855.4375 26.125,855.7031 Q26.3594,855.9531 26.3594,856.5625 L26.3594,858.0156 Q26.3594,858.625 26.125,858.8906 Q25.8906,859.1563 25.5156,859.1563 Q25.1719,859.1563 24.9688,858.9531 Q24.7656,858.7656 24.6563,858.25 Q24.6094,857.8906 24.4219,857.7031 Q24.0938,857.3281 23.4844,857.1094 Q22.875,856.8906 22.25,856.8906 Q21.4844,856.8906 20.8438,857.2188 Q20.2188,857.5469 19.7188,858.2969 Q19.2344,859.0469 19.2344,860.0781 L19.2344,861.1719 Q19.2344,862.4063 20.125,863.2344 Q21.0156,864.0469 22.6094,864.0469 Q23.5469,864.0469 24.2031,863.7969 Q24.5938,863.6406 25.0156,863.2031 Q25.2813,862.9375 25.4219,862.8594 Q25.5781,862.7813 25.7813,862.7813 Q26.1094,862.7813 26.3594,863.0469 Q26.625,863.2969 26.625,863.6406 Q26.625,863.9844 26.2813,864.3906 Q25.7813,864.9688 24.9844,865.2969 Q23.9063,865.75 22.6094,865.75 Q21.0938,865.75 19.8906,865.125 Q18.9063,864.625 18.2188,863.5625 Q17.5313,862.4844 17.5313,861.2031 L17.5313,860.0469 Q17.5313,858.7188 18.1406,857.5781 Q18.7656,856.4219 19.8594,855.8125 Q20.9531,855.1875 22.1875,855.1875 Q22.9219,855.1875 23.5625,855.3594 Q24.2188,855.5156 24.7656,855.875 Z " fill="#000000"/><text fill="#000000" font-family="sans-serif" font-size="14" lengthAdjust="spacing" textLength="40" x="36" y="864.8535">House</text><line style="stroke:#181818;stroke-width:0.5;" x1="8" x2="78" y1="876" y2="876"/><line style="stroke:#181818;stroke-width:0.5;" x1="8" x2="78" y1="884" y2="884"/></g><!--class Apartment--><g id="elem_Apartment"><rect codeLine="58" fill="#F1F1F1" height="48" id="Apartment" rx="2.5" ry="2.5" style="stroke:#181818;stroke-width:0.5;" width="97" x="114.5" y="844"/><ellipse cx="129.5" cy="860" fill="#ADD1B2" rx="11" ry="11" style="stroke:#181818;stroke-width:1.0;"/><path d="M132.2656,855.875 Q132.4219,855.6563 132.6094,855.5469 Q132.7969,855.4375 133.0156,855.4375 Q133.3906,855.4375 133.625,855.7031 Q133.8594,855.9531 133.8594,856.5625 L133.8594,858.0156 Q133.8594,858.625 133.625,858.8906 Q133.3906,859.1563 133.0156,859.1563 Q132.6719,859.1563 132.4688,858.9531 Q132.2656,858.7656 132.1563,858.25 Q132.1094,857.8906 131.9219,857.7031 Q131.5938,857.3281 130.9844,857.1094 Q130.375,856.8906 129.75,856.8906 Q128.9844,856.8906 128.3438,857.2188 Q127.7188,857.5469 127.2188,858.2969 Q126.7344,859.0469 126.7344,860.0781 L126.7344,861.1719 Q126.7344,862.4063 127.625,863.2344 Q128.5156,864.0469 130.1094,864.0469 Q131.0469,864.0469 131.7031,863.7969 Q132.0938,863.6406 132.5156,863.2031 Q132.7813,862.9375 132.9219,862.8594 Q133.0781,862.7813 133.2813,862.7813 Q133.6094,862.7813 133.8594,863.0469 Q134.125,863.2969 134.125,863.6406 Q134.125,863.9844 133.7813,864.3906 Q133.2813,864.9688 132.4844,865.2969 Q131.4063,865.75 130.1094,865.75 Q128.5938,865.75 127.3906,865.125 Q126.4063,864.625 125.7188,863.5625 Q125.0313,862.4844 125.0313,861.2031 L125.0313,860.0469 Q125.0313,858.7188 125.6406,857.5781 Q126.2656,856.4219 127.3594,855.8125 Q128.4531,855.1875 129.6875,855.1875 Q130.4219,855.1875 131.0625,855.3594 Q131.7188,855.5156 132.2656,855.875 Z " fill="#000000"/><text fill="#000000" font-family="sans-serif" font-size="14" lengthAdjust="spacing" textLength="65" x="143.5" y="864.8535">Apartment</text><line style="stroke:#181818;stroke-width:0.5;" x1="115.5" x2="210.5" y1="876" y2="876"/><line style="stroke:#181818;stroke-width:0.5;" x1="115.5" x2="210.5" y1="884" y2="884"/></g><!--class Land--><g id="elem_Land"><rect codeLine="60" fill="#F1F1F1" height="48" id="Land" rx="2.5" ry="2.5" style="stroke:#181818;stroke-width:0.5;" width="64" x="247" y="844"/><ellipse cx="262" cy="860" fill="#ADD1B2" rx="11" ry="11" style="stroke:#181818;stroke-width:1.0;"/><path d="M264.7656,855.875 Q264.9219,855.6563 265.1094,855.5469 Q265.2969,855.4375 265.5156,855.4375 Q265.8906,855.4375 266.125,855.7031 Q266.3594,855.9531 266.3594,856.5625 L266.3594,858.0156 Q266.3594,858.625 266.125,858.8906 Q265.8906,859.1563 265.5156,859.1563 Q265.1719,859.1563 264.9688,858.9531 Q264.7656,858.7656 264.6563,858.25 Q264.6094,857.8906 264.4219,857.7031 Q264.0938,857.3281 263.4844,857.1094 Q262.875,856.8906 262.25,856.8906 Q261.4844,856.8906 260.8438,857.2188 Q260.2188,857.5469 259.7188,858.2969 Q259.2344,859.0469 259.2344,860.0781 L259.2344,861.1719 Q259.2344,862.4063 260.125,863.2344 Q261.0156,864.0469 262.6094,864.0469 Q263.5469,864.0469 264.2031,863.7969 Q264.5938,863.6406 265.0156,863.2031 Q265.2813,862.9375 265.4219,862.8594 Q265.5781,862.7813 265.7813,862.7813 Q266.1094,862.7813 266.3594,863.0469 Q266.625,863.2969 266.625,863.6406 Q266.625,863.9844 266.2813,864.3906 Q265.7813,864.9688 264.9844,865.2969 Q263.9063,865.75 262.6094,865.75 Q261.0938,865.75 259.8906,865.125 Q258.9063,864.625 258.2188,863.5625 Q257.5313,862.4844 257.5313,861.2031 L257.5313,860.0469 Q257.5313,858.7188 258.1406,857.5781 Q258.7656,856.4219 259.8594,855.8125 Q260.9531,855.1875 262.1875,855.1875 Q262.9219,855.1875 263.5625,855.3594 Q264.2188,855.5156 264.7656,855.875 Z " fill="#000000"/><text fill="#000000" font-family="sans-serif" font-size="14" lengthAdjust="spacing" textLength="32" x="276" y="864.8535">Land</text><line style="stroke:#181818;stroke-width:0.5;" x1="248" x2="310" y1="876" y2="876"/><line style="stroke:#181818;stroke-width:0.5;" x1="248" x2="310" y1="884" y2="884"/></g><!--class Annoucement--><g id="elem_Annoucement"><rect codeLine="63" fill="#F1F1F1" height="110.5625" id="Annoucement" rx="2.5" ry="2.5" style="stroke:#181818;stroke-width:0.5;" width="119" x="467.5" y="626"/><ellipse cx="482.5" cy="642" fill="#ADD1B2" rx="11" ry="11" style="stroke:#181818;stroke-width:1.0;"/><path d="M485.2656,637.875 Q485.4219,637.6563 485.6094,637.5469 Q485.7969,637.4375 486.0156,637.4375 Q486.3906,637.4375 486.625,637.7031 Q486.8594,637.9531 486.8594,638.5625 L486.8594,640.0156 Q486.8594,640.625 486.625,640.8906 Q486.3906,641.1563 486.0156,641.1563 Q485.6719,641.1563 485.4688,640.9531 Q485.2656,640.7656 485.1563,640.25 Q485.1094,639.8906 484.9219,639.7031 Q484.5938,639.3281 483.9844,639.1094 Q483.375,638.8906 482.75,638.8906 Q481.9844,638.8906 481.3438,639.2188 Q480.7188,639.5469 480.2188,640.2969 Q479.7344,641.0469 479.7344,642.0781 L479.7344,643.1719 Q479.7344,644.4063 480.625,645.2344 Q481.5156,646.0469 483.1094,646.0469 Q484.0469,646.0469 484.7031,645.7969 Q485.0938,645.6406 485.5156,645.2031 Q485.7813,644.9375 485.9219,644.8594 Q486.0781,644.7813 486.2813,644.7813 Q486.6094,644.7813 486.8594,645.0469 Q487.125,645.2969 487.125,645.6406 Q487.125,645.9844 486.7813,646.3906 Q486.2813,646.9688 485.4844,647.2969 Q484.4063,647.75 483.1094,647.75 Q481.5938,647.75 480.3906,647.125 Q479.4063,646.625 478.7188,645.5625 Q478.0313,644.4844 478.0313,643.2031 L478.0313,642.0469 Q478.0313,640.7188 478.6406,639.5781 Q479.2656,638.4219 480.3594,637.8125 Q481.4531,637.1875 482.6875,637.1875 Q483.4219,637.1875 484.0625,637.3594 Q484.7188,637.5156 485.2656,637.875 Z " fill="#000000"/><text fill="#000000" font-family="sans-serif" font-size="14" lengthAdjust="spacing" textLength="87" x="496.5" y="646.8535">Annoucement</text><line style="stroke:#181818;stroke-width:0.5;" x1="468.5" x2="585.5" y1="658" y2="658"/><text fill="#000000" font-family="sans-serif" font-size="14" lengthAdjust="spacing" textLength="32" x="473.5" y="674.6738">Price</text><text fill="#000000" font-family="sans-serif" font-size="14" lengthAdjust="spacing" textLength="32" x="473.5" y="690.3145">Type</text><text fill="#000000" font-family="sans-serif" font-size="14" lengthAdjust="spacing" textLength="76" x="473.5" y="705.9551">Commission</text><text fill="#000000" font-family="sans-serif" font-size="14" lengthAdjust="spacing" textLength="37" x="473.5" y="721.5957">Agent</text><line style="stroke:#181818;stroke-width:0.5;" x1="468.5" x2="585.5" y1="728.5625" y2="728.5625"/></g><!--class AnnoucementRepository--><g id="elem_AnnoucementRepository"><rect codeLine="70" fill="#F1F1F1" height="63.6406" id="AnnoucementRepository" rx="2.5" ry="2.5" style="stroke:#181818;stroke-width:0.5;" width="187" x="748.5" y="649.5"/><ellipse cx="763.5" cy="665.5" fill="#ADD1B2" rx="11" ry="11" style="stroke:#181818;stroke-width:1.0;"/><path d="M766.2656,661.375 Q766.4219,661.1563 766.6094,661.0469 Q766.7969,660.9375 767.0156,660.9375 Q767.3906,660.9375 767.625,661.2031 Q767.8594,661.4531 767.8594,662.0625 L767.8594,663.5156 Q767.8594,664.125 767.625,664.3906 Q767.3906,664.6563 767.0156,664.6563 Q766.6719,664.6563 766.4688,664.4531 Q766.2656,664.2656 766.1563,663.75 Q766.1094,663.3906 765.9219,663.2031 Q765.5938,662.8281 764.9844,662.6094 Q764.375,662.3906 763.75,662.3906 Q762.9844,662.3906 762.3438,662.7188 Q761.7188,663.0469 761.2188,663.7969 Q760.7344,664.5469 760.7344,665.5781 L760.7344,666.6719 Q760.7344,667.9063 761.625,668.7344 Q762.5156,669.5469 764.1094,669.5469 Q765.0469,669.5469 765.7031,669.2969 Q766.0938,669.1406 766.5156,668.7031 Q766.7813,668.4375 766.9219,668.3594 Q767.0781,668.2813 767.2813,668.2813 Q767.6094,668.2813 767.8594,668.5469 Q768.125,668.7969 768.125,669.1406 Q768.125,669.4844 767.7813,669.8906 Q767.2813,670.4688 766.4844,670.7969 Q765.4063,671.25 764.1094,671.25 Q762.5938,671.25 761.3906,670.625 Q760.4063,670.125 759.7188,669.0625 Q759.0313,667.9844 759.0313,666.7031 L759.0313,665.5469 Q759.0313,664.2188 759.6406,663.0781 Q760.2656,661.9219 761.3594,661.3125 Q762.4531,660.6875 763.6875,660.6875 Q764.4219,660.6875 765.0625,660.8594 Q765.7188,661.0156 766.2656,661.375 Z " fill="#000000"/><text fill="#000000" font-family="sans-serif" font-size="14" lengthAdjust="spacing" textLength="155" x="777.5" y="670.3535">AnnoucementRepository</text><line style="stroke:#181818;stroke-width:0.5;" x1="749.5" x2="934.5" y1="681.5" y2="681.5"/><line style="stroke:#181818;stroke-width:0.5;" x1="749.5" x2="934.5" y1="689.5" y2="689.5"/><ellipse cx="759.5" cy="702.8203" fill="#84BE84" rx="3" ry="3" style="stroke:#038048;stroke-width:1.0;"/><text fill="#000000" font-family="sans-serif" font-size="14" lengthAdjust="spacing" textLength="125" x="768.5" y="706.1738">getAnnouncement()</text></g><!--link ScheduleVisitUI to ScheduleVisitController--><g id="link_ScheduleVisitUI_ScheduleVisitController"><path codeLine="76" d="M842,55.3 C842,69.66 842,89.19 842,109.7 " fill="none" id="ScheduleVisitUI-to-ScheduleVisitController" style="stroke:#181818;stroke-width:1.0;"/><polygon fill="#181818" points="842,114.93,846,105.93,842,109.93,838,105.93,842,114.93" style="stroke:#181818;stroke-width:1.0;"/></g><!--link ScheduleVisitController to Repositories--><g id="link_ScheduleVisitController_Repositories"><path codeLine="78" d="M842,319.06 C842,337.55 842,356.42 842,373.62 " fill="none" id="ScheduleVisitController-to-Repositories" style="stroke:#181818;stroke-width:1.0;"/><polygon fill="#181818" points="842,378.9,846,369.9,842,373.9,838,369.9,842,378.9" style="stroke:#181818;stroke-width:1.0;"/></g><!--link Repositories to MessageRepository--><g id="link_Repositories_MessageRepository"><path codeLine="80" d="M792.63,505.04 C768.99,538.73 743.21,582.34 731,626 C714.17,686.2 723.68,757.89 734.59,807.35 " fill="none" id="Repositories-to-MessageRepository" style="stroke:#181818;stroke-width:1.0;"/><polygon fill="#181818" points="735.71,812.37,737.6294,802.71,734.6087,807.4928,729.8259,804.4721,735.71,812.37" style="stroke:#181818;stroke-width:1.0;"/></g><!--link Repositories to AnnoucementRepository--><g id="link_Repositories_AnnoucementRepository"><path codeLine="81" d="M842,505.09 C842,549.24 842,607.03 842,643.97 " fill="none" id="Repositories-to-AnnoucementRepository" style="stroke:#181818;stroke-width:1.0;"/><polygon fill="#181818" points="842,649.26,846,640.26,842,644.26,838,640.26,842,649.26" style="stroke:#181818;stroke-width:1.0;"/></g><!--link Repositories to AuthenticationRepository--><g id="link_Repositories_AuthenticationRepository"><path codeLine="82" d="M900.56,505.09 C942.71,549.78 998.05,608.45 1032.82,645.32 " fill="none" id="Repositories-to-AuthenticationRepository" style="stroke:#181818;stroke-width:1.0;"/><polygon fill="#181818" points="1036.54,649.26,1033.2663,639.9711,1033.106,645.6257,1027.4515,645.4655,1036.54,649.26" style="stroke:#181818;stroke-width:1.0;"/></g><!--link Message to MessageRepository--><g id="link_Message_MessageRepository"><path codeLine="84" d="M583.7,868 C593.72,868 603.74,868 613.75,868 " fill="none" id="Message-to-MessageRepository" style="stroke:#181818;stroke-width:1.0;"/><polygon fill="#181818" points="618.99,868,609.99,864,613.99,868,609.99,872,618.99,868" style="stroke:#181818;stroke-width:1.0;"/></g><!--link Annoucement to AnnoucementRepository--><g id="link_Annoucement_AnnoucementRepository"><path codeLine="88" d="M586.68,681.5 C638.85,681.5 691.03,681.5 743.2,681.5 " fill="none" id="Annoucement-to-AnnoucementRepository" style="stroke:#181818;stroke-width:1.0;"/><polygon fill="#181818" points="748.25,681.5,739.25,677.5,743.25,681.5,739.25,685.5,748.25,681.5" style="stroke:#181818;stroke-width:1.0;"/></g><!--link Property to Annoucement--><g id="link_Property_Annoucement"><path codeLine="89" d="M321.71,681.5 C368.52,681.5 415.33,681.5 462.14,681.5 " fill="none" id="Property-to-Annoucement" style="stroke:#181818;stroke-width:1.0;"/><polygon fill="#181818" points="467.26,681.5,458.26,677.5,462.26,681.5,458.26,685.5,467.26,681.5" style="stroke:#181818;stroke-width:1.0;"/></g><!--link Property to House--><g id="link_Property_House"><path codeLine="90" d="M184.2,713.56 C158.69,735.78 124.5,766.95 97,797 C84.7,810.44 72.19,826.47 62.32,839.8 " fill="none" id="Property-to-House" style="stroke:#181818;stroke-width:1.0;"/><polygon fill="#181818" points="59.34,843.84,67.8901,838.9518,62.2987,839.8093,61.4411,834.2179,59.34,843.84" style="stroke:#181818;stroke-width:1.0;"/></g><!--link Property to Apartment--><g id="link_Property_Apartment"><path codeLine="91" d="M211.16,713.8 C200.13,748.88 182.41,805.24 171.82,838.94 " fill="none" id="Property-to-Apartment" style="stroke:#181818;stroke-width:1.0;"/><polygon fill="#181818" points="170.31,843.75,176.825,836.3639,171.8095,838.9801,169.1932,833.9647,170.31,843.75" style="stroke:#181818;stroke-width:1.0;"/></g><!--link Property to Land--><g id="link_Property_Land"><path codeLine="92" d="M230.84,713.8 C241.87,748.88 259.59,805.24 270.18,838.94 " fill="none" id="Property-to-Land" style="stroke:#181818;stroke-width:1.0;"/><polygon fill="#181818" points="271.69,843.75,272.8068,833.9647,270.1905,838.9801,265.175,836.3639,271.69,843.75" style="stroke:#181818;stroke-width:1.0;"/></g><!--SRC=[TLF9QiCm4BthAtHi2Vg34WXEeOO4GZReKTXJHrIHZ2HJWic_TwHuaJUV_6QUPjvicUJMqbDsWxoIS1LMk4jQaoV9fev4AsUqb61gmevGQhHf8y1I4m52LWMuZLAwKXdSGRctzs1AbNKSJHvYsEntBrJbm7RuIrUc0z_0Ux37pBSERVcZ-qz_hboAFEZpHfxdUx2M5pxDapHbn69hiefX8svJkHjA5HbtGgkEy9ZHZh19CQ75LTk15wMqOfh7sCD42YHIgOi2ybIz864dPuGgQ7dJ2WWBCLyXAO_Y4xRJ6PTRxk0ixa0L_8Kkd1mtpbkM29yg3-xv3Zv7CligKF1EMFVHEDOjmniNN8c-bnBSYp8QZaUjFywxD8awT3YfZ47lnO8vOIXan6yFHfTWd9VQ_fuV9T0o0jrkuxfPw5TzKsBVV6Dxquwhl8wKzPEeoS6834W8Y5NSHT12DeMVpDoBSI6Z0mdxCJf3ojXwwG97vDuH7Xq7zpWuLSOyOJBS2MazBtwEjp0mGfeibAsd-V2BDtinNpl74IEoeoECScZgnZaq-v6IVm00]--></g></svg>