<?xml version="1.0" encoding="us-ascii" standalone="no"?><svg xmlns="http://www.w3.org/2000/svg" xmlns:xlink="http://www.w3.org/1999/xlink" contentStyleType="text/css" height="897.6px" preserveAspectRatio="none" style="width:935px;height:897px;background:#FFFFFF;" version="1.1" viewBox="0 0 935 897" width="935.2px" zoomAndPan="magnify"><defs/><g><!--class DivideUI--><g id="elem_DivideUI"><rect codeLine="6" fill="#F1F1F1" height="38.4" id="DivideUI" rx="2" ry="2" style="stroke:#181818;stroke-width:0.4000000000000001;" width="66.4" x="459.6" y="5.6"/><ellipse cx="471.6" cy="18.4" fill="#ADD1B2" rx="8.8" ry="8.8" style="stroke:#181818;stroke-width:0.8000000000000002;"/><path d="M473.8125,15.1 Q473.9375,14.925 474.0875,14.8375 Q474.2375,14.75 474.4125,14.75 Q474.7125,14.75 474.9,14.9625 Q475.0875,15.1625 475.0875,15.65 L475.0875,16.8125 Q475.0875,17.3 474.9,17.5125 Q474.7125,17.725 474.4125,17.725 Q474.1375,17.725 473.975,17.5625 Q473.8125,17.4125 473.725,17 Q473.6875,16.7125 473.5375,16.5625 Q473.275,16.2625 472.7875,16.0875 Q472.3,15.9125 471.8,15.9125 Q471.1875,15.9125 470.675,16.175 Q470.175,16.4375 469.775,17.0375 Q469.3875,17.6375 469.3875,18.4625 L469.3875,19.3375 Q469.3875,20.325 470.1,20.9875 Q470.8125,21.6375 472.0875,21.6375 Q472.8375,21.6375 473.3625,21.4375 Q473.675,21.3125 474.0125,20.9625 Q474.225,20.75 474.3375,20.6875 Q474.4625,20.625 474.625,20.625 Q474.8875,20.625 475.0875,20.8375 Q475.3,21.0375 475.3,21.3125 Q475.3,21.5875 475.025,21.9125 Q474.625,22.375 473.9875,22.6375 Q473.125,23 472.0875,23 Q470.875,23 469.9125,22.5 Q469.125,22.1 468.575,21.25 Q468.025,20.3875 468.025,19.3625 L468.025,18.4375 Q468.025,17.375 468.5125,16.4625 Q469.0125,15.5375 469.8875,15.05 Q470.7625,14.55 471.75,14.55 Q472.3375,14.55 472.85,14.6875 Q473.375,14.8125 473.8125,15.1 Z " fill="#000000"/><text fill="#000000" font-family="sans-serif" font-size="11.2" lengthAdjust="spacing" textLength="40.8" x="482.8" y="22.2828">DivideUI</text><line style="stroke:#181818;stroke-width:0.4000000000000001;" x1="460.4" x2="525.2" y1="31.2" y2="31.2"/><line style="stroke:#181818;stroke-width:0.4000000000000001;" x1="460.4" x2="525.2" y1="37.6" y2="37.6"/></g><!--class DivideController--><g id="elem_DivideController"><rect codeLine="9" fill="#F1F1F1" height="50.9125" id="DivideController" rx="2" ry="2" style="stroke:#181818;stroke-width:0.4000000000000001;" width="117.6" x="434" y="142.4"/><ellipse cx="451.04" cy="155.2" fill="#ADD1B2" rx="8.8" ry="8.8" style="stroke:#181818;stroke-width:0.8000000000000002;"/><path d="M453.2525,151.9 Q453.3775,151.725 453.5275,151.6375 Q453.6775,151.55 453.8525,151.55 Q454.1525,151.55 454.34,151.7625 Q454.5275,151.9625 454.5275,152.45 L454.5275,153.6125 Q454.5275,154.1 454.34,154.3125 Q454.1525,154.525 453.8525,154.525 Q453.5775,154.525 453.415,154.3625 Q453.2525,154.2125 453.165,153.8 Q453.1275,153.5125 452.9775,153.3625 Q452.715,153.0625 452.2275,152.8875 Q451.74,152.7125 451.24,152.7125 Q450.6275,152.7125 450.115,152.975 Q449.615,153.2375 449.215,153.8375 Q448.8275,154.4375 448.8275,155.2625 L448.8275,156.1375 Q448.8275,157.125 449.54,157.7875 Q450.2525,158.4375 451.5275,158.4375 Q452.2775,158.4375 452.8025,158.2375 Q453.115,158.1125 453.4525,157.7625 Q453.665,157.55 453.7775,157.4875 Q453.9025,157.425 454.065,157.425 Q454.3275,157.425 454.5275,157.6375 Q454.74,157.8375 454.74,158.1125 Q454.74,158.3875 454.465,158.7125 Q454.065,159.175 453.4275,159.4375 Q452.565,159.8 451.5275,159.8 Q450.315,159.8 449.3525,159.3 Q448.565,158.9 448.015,158.05 Q447.465,157.1875 447.465,156.1625 L447.465,155.2375 Q447.465,154.175 447.9525,153.2625 Q448.4525,152.3375 449.3275,151.85 Q450.2025,151.35 451.19,151.35 Q451.7775,151.35 452.29,151.4875 Q452.815,151.6125 453.2525,151.9 Z " fill="#000000"/><text fill="#000000" font-family="sans-serif" font-size="11.2" lengthAdjust="spacing" textLength="80.8" x="463.36" y="159.0828">DivideController</text><line style="stroke:#181818;stroke-width:0.4000000000000001;" x1="434.8" x2="550.8" y1="168" y2="168"/><line style="stroke:#181818;stroke-width:0.4000000000000001;" x1="434.8" x2="550.8" y1="174.4" y2="174.4"/><ellipse cx="442.8" cy="185.0563" fill="#84BE84" rx="2.4" ry="2.4" style="stroke:#038048;stroke-width:0.8000000000000002;"/><text fill="#000000" font-family="sans-serif" font-size="11.2" lengthAdjust="spacing" textLength="96.8" x="450" y="187.7391">divideIntoSubsets()</text></g><!--class Repositories--><g id="elem_Repositories"><rect codeLine="13" fill="#F1F1F1" height="88.45" id="Repositories" rx="2" ry="2" style="stroke:#181818;stroke-width:0.4000000000000001;" width="312" x="140.8" y="342.4"/><ellipse cx="261.8" cy="355.2" fill="#ADD1B2" rx="8.8" ry="8.8" style="stroke:#181818;stroke-width:0.8000000000000002;"/><path d="M264.0125,351.9 Q264.1375,351.725 264.2875,351.6375 Q264.4375,351.55 264.6125,351.55 Q264.9125,351.55 265.1,351.7625 Q265.2875,351.9625 265.2875,352.45 L265.2875,353.6125 Q265.2875,354.1 265.1,354.3125 Q264.9125,354.525 264.6125,354.525 Q264.3375,354.525 264.175,354.3625 Q264.0125,354.2125 263.925,353.8 Q263.8875,353.5125 263.7375,353.3625 Q263.475,353.0625 262.9875,352.8875 Q262.5,352.7125 262,352.7125 Q261.3875,352.7125 260.875,352.975 Q260.375,353.2375 259.975,353.8375 Q259.5875,354.4375 259.5875,355.2625 L259.5875,356.1375 Q259.5875,357.125 260.3,357.7875 Q261.0125,358.4375 262.2875,358.4375 Q263.0375,358.4375 263.5625,358.2375 Q263.875,358.1125 264.2125,357.7625 Q264.425,357.55 264.5375,357.4875 Q264.6625,357.425 264.825,357.425 Q265.0875,357.425 265.2875,357.6375 Q265.5,357.8375 265.5,358.1125 Q265.5,358.3875 265.225,358.7125 Q264.825,359.175 264.1875,359.4375 Q263.325,359.8 262.2875,359.8 Q261.075,359.8 260.1125,359.3 Q259.325,358.9 258.775,358.05 Q258.225,357.1875 258.225,356.1625 L258.225,355.2375 Q258.225,354.175 258.7125,353.2625 Q259.2125,352.3375 260.0875,351.85 Q260.9625,351.35 261.95,351.35 Q262.5375,351.35 263.05,351.4875 Q263.575,351.6125 264.0125,351.9 Z " fill="#000000"/><text fill="#000000" font-family="sans-serif" font-size="11.2" lengthAdjust="spacing" textLength="63.2" x="278.2" y="359.0828">Repositories</text><line style="stroke:#181818;stroke-width:0.4000000000000001;" x1="141.6" x2="452" y1="368" y2="368"/><rect fill="none" height="4.8" style="stroke:#C82930;stroke-width:0.8000000000000002;" width="4.8" x="147.2" y="376.2563"/><text fill="#000000" font-family="sans-serif" font-size="11.2" lengthAdjust="spacing" textLength="63.2" x="156.8" y="381.3391">Repositories</text><line style="stroke:#181818;stroke-width:0.4000000000000001;" x1="141.6" x2="452" y1="386.9125" y2="386.9125"/><ellipse cx="149.6" cy="397.5688" fill="#84BE84" rx="2.4" ry="2.4" style="stroke:#038048;stroke-width:0.8000000000000002;"/><text fill="#000000" font-family="sans-serif" font-size="11.2" lengthAdjust="spacing" textLength="136" x="156.8" y="400.2516">getInstance(): Repositories</text><ellipse cx="149.6" cy="410.0813" fill="#84BE84" rx="2.4" ry="2.4" style="stroke:#038048;stroke-width:0.8000000000000002;"/><text fill="#000000" font-family="sans-serif" font-size="11.2" lengthAdjust="spacing" textLength="193.6" x="156.8" y="412.7641">getStoreRepository(): StoreRepository</text><ellipse cx="149.6" cy="422.5938" fill="#84BE84" rx="2.4" ry="2.4" style="stroke:#038048;stroke-width:0.8000000000000002;"/><text fill="#000000" font-family="sans-serif" font-size="11.2" lengthAdjust="spacing" textLength="291.2" x="156.8" y="425.2766">getAnnouncementRepository(): AnnouncementRepository</text></g><!--class StoreRepository--><g id="elem_StoreRepository"><rect codeLine="20" fill="#F1F1F1" height="50.9125" id="StoreRepository" rx="2" ry="2" style="stroke:#181818;stroke-width:0.4000000000000001;" width="153.6" x="419.2" y="486"/><ellipse cx="452.08" cy="498.8" fill="#ADD1B2" rx="8.8" ry="8.8" style="stroke:#181818;stroke-width:0.8000000000000002;"/><path d="M454.2925,495.5 Q454.4175,495.325 454.5675,495.2375 Q454.7175,495.15 454.8925,495.15 Q455.1925,495.15 455.38,495.3625 Q455.5675,495.5625 455.5675,496.05 L455.5675,497.2125 Q455.5675,497.7 455.38,497.9125 Q455.1925,498.125 454.8925,498.125 Q454.6175,498.125 454.455,497.9625 Q454.2925,497.8125 454.205,497.4 Q454.1675,497.1125 454.0175,496.9625 Q453.755,496.6625 453.2675,496.4875 Q452.78,496.3125 452.28,496.3125 Q451.6675,496.3125 451.155,496.575 Q450.655,496.8375 450.255,497.4375 Q449.8675,498.0375 449.8675,498.8625 L449.8675,499.7375 Q449.8675,500.725 450.58,501.3875 Q451.2925,502.0375 452.5675,502.0375 Q453.3175,502.0375 453.8425,501.8375 Q454.155,501.7125 454.4925,501.3625 Q454.705,501.15 454.8175,501.0875 Q454.9425,501.025 455.105,501.025 Q455.3675,501.025 455.5675,501.2375 Q455.78,501.4375 455.78,501.7125 Q455.78,501.9875 455.505,502.3125 Q455.105,502.775 454.4675,503.0375 Q453.605,503.4 452.5675,503.4 Q451.355,503.4 450.3925,502.9 Q449.605,502.5 449.055,501.65 Q448.505,500.7875 448.505,499.7625 L448.505,498.8375 Q448.505,497.775 448.9925,496.8625 Q449.4925,495.9375 450.3675,495.45 Q451.2425,494.95 452.23,494.95 Q452.8175,494.95 453.33,495.0875 Q453.855,495.2125 454.2925,495.5 Z " fill="#000000"/><text fill="#000000" font-family="sans-serif" font-size="11.2" lengthAdjust="spacing" textLength="81.6" x="467.92" y="502.6828">StoreRepository</text><line style="stroke:#181818;stroke-width:0.4000000000000001;" x1="420" x2="572" y1="511.6" y2="511.6"/><line style="stroke:#181818;stroke-width:0.4000000000000001;" x1="420" x2="572" y1="518" y2="518"/><ellipse cx="428" cy="528.6563" fill="#84BE84" rx="2.4" ry="2.4" style="stroke:#038048;stroke-width:0.8000000000000002;"/><text fill="#000000" font-family="sans-serif" font-size="11.2" lengthAdjust="spacing" textLength="132.8" x="435.2" y="531.3391">getStoreList(): List&lt;Store&gt;</text></g><!--class AnnouncementRepository--><g id="elem_AnnouncementRepository"><rect codeLine="24" fill="#F1F1F1" height="63.425" id="AnnouncementRepository" rx="2" ry="2" style="stroke:#181818;stroke-width:0.4000000000000001;" width="344" x="47.2" y="480"/><ellipse cx="150.6" cy="492.8" fill="#ADD1B2" rx="8.8" ry="8.8" style="stroke:#181818;stroke-width:0.8000000000000002;"/><path d="M152.8125,489.5 Q152.9375,489.325 153.0875,489.2375 Q153.2375,489.15 153.4125,489.15 Q153.7125,489.15 153.9,489.3625 Q154.0875,489.5625 154.0875,490.05 L154.0875,491.2125 Q154.0875,491.7 153.9,491.9125 Q153.7125,492.125 153.4125,492.125 Q153.1375,492.125 152.975,491.9625 Q152.8125,491.8125 152.725,491.4 Q152.6875,491.1125 152.5375,490.9625 Q152.275,490.6625 151.7875,490.4875 Q151.3,490.3125 150.8,490.3125 Q150.1875,490.3125 149.675,490.575 Q149.175,490.8375 148.775,491.4375 Q148.3875,492.0375 148.3875,492.8625 L148.3875,493.7375 Q148.3875,494.725 149.1,495.3875 Q149.8125,496.0375 151.0875,496.0375 Q151.8375,496.0375 152.3625,495.8375 Q152.675,495.7125 153.0125,495.3625 Q153.225,495.15 153.3375,495.0875 Q153.4625,495.025 153.625,495.025 Q153.8875,495.025 154.0875,495.2375 Q154.3,495.4375 154.3,495.7125 Q154.3,495.9875 154.025,496.3125 Q153.625,496.775 152.9875,497.0375 Q152.125,497.4 151.0875,497.4 Q149.875,497.4 148.9125,496.9 Q148.125,496.5 147.575,495.65 Q147.025,494.7875 147.025,493.7625 L147.025,492.8375 Q147.025,491.775 147.5125,490.8625 Q148.0125,489.9375 148.8875,489.45 Q149.7625,488.95 150.75,488.95 Q151.3375,488.95 151.85,489.0875 Q152.375,489.2125 152.8125,489.5 Z " fill="#000000"/><text fill="#000000" font-family="sans-serif" font-size="11.2" lengthAdjust="spacing" textLength="130.4" x="167" y="496.6828">AnnouncementRepository</text><line style="stroke:#181818;stroke-width:0.4000000000000001;" x1="48" x2="390.4" y1="505.6" y2="505.6"/><line style="stroke:#181818;stroke-width:0.4000000000000001;" x1="48" x2="390.4" y1="512" y2="512"/><ellipse cx="56" cy="522.6563" fill="#84BE84" rx="2.4" ry="2.4" style="stroke:#038048;stroke-width:0.8000000000000002;"/><text fill="#000000" font-family="sans-serif" font-size="11.2" lengthAdjust="spacing" textLength="323.2" x="63.2" y="525.3391">getAnnouncementsByStoreID(storeID: int): List&lt;Announcement&gt;</text><ellipse cx="56" cy="535.1688" fill="#84BE84" rx="2.4" ry="2.4" style="stroke:#038048;stroke-width:0.8000000000000002;"/><text fill="#000000" font-family="sans-serif" font-size="11.2" lengthAdjust="spacing" textLength="116.8" x="63.2" y="537.8516">getProperty(): Property</text></g><!--class BruteForce--><g id="elem_BruteForce"><rect codeLine="29" fill="#F1F1F1" height="50.9125" id="BruteForce" rx="2" ry="2" style="stroke:#181818;stroke-width:0.4000000000000001;" width="272" x="657.6" y="242.4"/><ellipse cx="761.8" cy="255.2" fill="#ADD1B2" rx="8.8" ry="8.8" style="stroke:#181818;stroke-width:0.8000000000000002;"/><path d="M764.0125,251.9 Q764.1375,251.725 764.2875,251.6375 Q764.4375,251.55 764.6125,251.55 Q764.9125,251.55 765.1,251.7625 Q765.2875,251.9625 765.2875,252.45 L765.2875,253.6125 Q765.2875,254.1 765.1,254.3125 Q764.9125,254.525 764.6125,254.525 Q764.3375,254.525 764.175,254.3625 Q764.0125,254.2125 763.925,253.8 Q763.8875,253.5125 763.7375,253.3625 Q763.475,253.0625 762.9875,252.8875 Q762.5,252.7125 762,252.7125 Q761.3875,252.7125 760.875,252.975 Q760.375,253.2375 759.975,253.8375 Q759.5875,254.4375 759.5875,255.2625 L759.5875,256.1375 Q759.5875,257.125 760.3,257.7875 Q761.0125,258.4375 762.2875,258.4375 Q763.0375,258.4375 763.5625,258.2375 Q763.875,258.1125 764.2125,257.7625 Q764.425,257.55 764.5375,257.4875 Q764.6625,257.425 764.825,257.425 Q765.0875,257.425 765.2875,257.6375 Q765.5,257.8375 765.5,258.1125 Q765.5,258.3875 765.225,258.7125 Q764.825,259.175 764.1875,259.4375 Q763.325,259.8 762.2875,259.8 Q761.075,259.8 760.1125,259.3 Q759.325,258.9 758.775,258.05 Q758.225,257.1875 758.225,256.1625 L758.225,255.2375 Q758.225,254.175 758.7125,253.2625 Q759.2125,252.3375 760.0875,251.85 Q760.9625,251.35 761.95,251.35 Q762.5375,251.35 763.05,251.4875 Q763.575,251.6125 764.0125,251.9 Z " fill="#000000"/><text fill="#000000" font-family="sans-serif" font-size="11.2" lengthAdjust="spacing" textLength="56.8" x="778.2" y="259.0828">BruteForce</text><line style="stroke:#181818;stroke-width:0.4000000000000001;" x1="658.4" x2="928.8" y1="268" y2="268"/><line style="stroke:#181818;stroke-width:0.4000000000000001;" x1="658.4" x2="928.8" y1="274.4" y2="274.4"/><ellipse cx="666.4" cy="285.0563" fill="#84BE84" rx="2.4" ry="2.4" style="stroke:#038048;stroke-width:0.8000000000000002;"/><text fill="#000000" font-family="sans-serif" font-size="11.2" lengthAdjust="spacing" textLength="251.2" x="673.6" y="287.7391">divideIntoSubsets(storeList: List&lt;Store&gt;): Subsets</text></g><!--class Store--><g id="elem_Store"><rect codeLine="33" fill="#F1F1F1" height="63.425" id="Store" rx="2" ry="2" style="stroke:#181818;stroke-width:0.4000000000000001;" width="83.2" x="454.4" y="592"/><ellipse cx="480.08" cy="604.8" fill="#ADD1B2" rx="8.8" ry="8.8" style="stroke:#181818;stroke-width:0.8000000000000002;"/><path d="M482.2925,601.5 Q482.4175,601.325 482.5675,601.2375 Q482.7175,601.15 482.8925,601.15 Q483.1925,601.15 483.38,601.3625 Q483.5675,601.5625 483.5675,602.05 L483.5675,603.2125 Q483.5675,603.7 483.38,603.9125 Q483.1925,604.125 482.8925,604.125 Q482.6175,604.125 482.455,603.9625 Q482.2925,603.8125 482.205,603.4 Q482.1675,603.1125 482.0175,602.9625 Q481.755,602.6625 481.2675,602.4875 Q480.78,602.3125 480.28,602.3125 Q479.6675,602.3125 479.155,602.575 Q478.655,602.8375 478.255,603.4375 Q477.8675,604.0375 477.8675,604.8625 L477.8675,605.7375 Q477.8675,606.725 478.58,607.3875 Q479.2925,608.0375 480.5675,608.0375 Q481.3175,608.0375 481.8425,607.8375 Q482.155,607.7125 482.4925,607.3625 Q482.705,607.15 482.8175,607.0875 Q482.9425,607.025 483.105,607.025 Q483.3675,607.025 483.5675,607.2375 Q483.78,607.4375 483.78,607.7125 Q483.78,607.9875 483.505,608.3125 Q483.105,608.775 482.4675,609.0375 Q481.605,609.4 480.5675,609.4 Q479.355,609.4 478.3925,608.9 Q477.605,608.5 477.055,607.65 Q476.505,606.7875 476.505,605.7625 L476.505,604.8375 Q476.505,603.775 476.9925,602.8625 Q477.4925,601.9375 478.3675,601.45 Q479.2425,600.95 480.23,600.95 Q480.8175,600.95 481.33,601.0875 Q481.855,601.2125 482.2925,601.5 Z " fill="#000000"/><text fill="#000000" font-family="sans-serif" font-size="11.2" lengthAdjust="spacing" textLength="27.2" x="494.32" y="608.6828">Store</text><line style="stroke:#181818;stroke-width:0.4000000000000001;" x1="455.2" x2="536.8" y1="617.6" y2="617.6"/><rect fill="none" height="4.8" style="stroke:#C82930;stroke-width:0.8000000000000002;" width="4.8" x="460.8" y="625.8563"/><text fill="#000000" font-family="sans-serif" font-size="11.2" lengthAdjust="spacing" textLength="54.4" x="470.4" y="630.9391">storeID: int</text><rect fill="none" height="4.8" style="stroke:#C82930;stroke-width:0.8000000000000002;" width="4.8" x="460.8" y="638.3688"/><text fill="#000000" font-family="sans-serif" font-size="11.2" lengthAdjust="spacing" textLength="62.4" x="470.4" y="643.4516">name: string</text><line style="stroke:#181818;stroke-width:0.4000000000000001;" x1="455.2" x2="536.8" y1="649.025" y2="649.025"/></g><!--class Announcement--><g id="elem_Announcement"><rect codeLine="38" fill="#F1F1F1" height="75.9375" id="Announcement" rx="2" ry="2" style="stroke:#181818;stroke-width:0.4000000000000001;" width="124.8" x="156.8" y="704"/><ellipse cx="179.24" cy="716.8" fill="#ADD1B2" rx="8.8" ry="8.8" style="stroke:#181818;stroke-width:0.8000000000000002;"/><path d="M181.4525,713.5 Q181.5775,713.325 181.7275,713.2375 Q181.8775,713.15 182.0525,713.15 Q182.3525,713.15 182.54,713.3625 Q182.7275,713.5625 182.7275,714.05 L182.7275,715.2125 Q182.7275,715.7 182.54,715.9125 Q182.3525,716.125 182.0525,716.125 Q181.7775,716.125 181.615,715.9625 Q181.4525,715.8125 181.365,715.4 Q181.3275,715.1125 181.1775,714.9625 Q180.915,714.6625 180.4275,714.4875 Q179.94,714.3125 179.44,714.3125 Q178.8275,714.3125 178.315,714.575 Q177.815,714.8375 177.415,715.4375 Q177.0275,716.0375 177.0275,716.8625 L177.0275,717.7375 Q177.0275,718.725 177.74,719.3875 Q178.4525,720.0375 179.7275,720.0375 Q180.4775,720.0375 181.0025,719.8375 Q181.315,719.7125 181.6525,719.3625 Q181.865,719.15 181.9775,719.0875 Q182.1025,719.025 182.265,719.025 Q182.5275,719.025 182.7275,719.2375 Q182.94,719.4375 182.94,719.7125 Q182.94,719.9875 182.665,720.3125 Q182.265,720.775 181.6275,721.0375 Q180.765,721.4 179.7275,721.4 Q178.515,721.4 177.5525,720.9 Q176.765,720.5 176.215,719.65 Q175.665,718.7875 175.665,717.7625 L175.665,716.8375 Q175.665,715.775 176.1525,714.8625 Q176.6525,713.9375 177.5275,713.45 Q178.4025,712.95 179.39,712.95 Q179.9775,712.95 180.49,713.0875 Q181.015,713.2125 181.4525,713.5 Z " fill="#000000"/><text fill="#000000" font-family="sans-serif" font-size="11.2" lengthAdjust="spacing" textLength="76" x="192.76" y="720.6828">Announcement</text><line style="stroke:#181818;stroke-width:0.4000000000000001;" x1="157.6" x2="280.8" y1="729.6" y2="729.6"/><rect fill="none" height="4.8" style="stroke:#C82930;stroke-width:0.8000000000000002;" width="4.8" x="163.2" y="737.8563"/><text fill="#000000" font-family="sans-serif" font-size="11.2" lengthAdjust="spacing" textLength="104" x="172.8" y="742.9391">announcementID: int</text><rect fill="none" height="4.8" style="stroke:#C82930;stroke-width:0.8000000000000002;" width="4.8" x="163.2" y="750.3688"/><text fill="#000000" font-family="sans-serif" font-size="11.2" lengthAdjust="spacing" textLength="54.4" x="172.8" y="755.4516">storeID: int</text><rect fill="none" height="4.8" style="stroke:#C82930;stroke-width:0.8000000000000002;" width="4.8" x="163.2" y="762.8813"/><text fill="#000000" font-family="sans-serif" font-size="11.2" lengthAdjust="spacing" textLength="92" x="172.8" y="767.9641">property: Property</text><line style="stroke:#181818;stroke-width:0.4000000000000001;" x1="157.6" x2="280.8" y1="773.5375" y2="773.5375"/></g><!--class Property--><g id="elem_Property"><rect codeLine="44" fill="#F1F1F1" height="63.425" id="Property" rx="2" ry="2" style="stroke:#181818;stroke-width:0.4000000000000001;" width="92" x="173.2" y="828.8"/><ellipse cx="195.64" cy="841.6" fill="#ADD1B2" rx="8.8" ry="8.8" style="stroke:#181818;stroke-width:0.8000000000000002;"/><path d="M197.8525,838.3 Q197.9775,838.125 198.1275,838.0375 Q198.2775,837.95 198.4525,837.95 Q198.7525,837.95 198.94,838.1625 Q199.1275,838.3625 199.1275,838.85 L199.1275,840.0125 Q199.1275,840.5 198.94,840.7125 Q198.7525,840.925 198.4525,840.925 Q198.1775,840.925 198.015,840.7625 Q197.8525,840.6125 197.765,840.2 Q197.7275,839.9125 197.5775,839.7625 Q197.315,839.4625 196.8275,839.2875 Q196.34,839.1125 195.84,839.1125 Q195.2275,839.1125 194.715,839.375 Q194.215,839.6375 193.815,840.2375 Q193.4275,840.8375 193.4275,841.6625 L193.4275,842.5375 Q193.4275,843.525 194.14,844.1875 Q194.8525,844.8375 196.1275,844.8375 Q196.8775,844.8375 197.4025,844.6375 Q197.715,844.5125 198.0525,844.1625 Q198.265,843.95 198.3775,843.8875 Q198.5025,843.825 198.665,843.825 Q198.9275,843.825 199.1275,844.0375 Q199.34,844.2375 199.34,844.5125 Q199.34,844.7875 199.065,845.1125 Q198.665,845.575 198.0275,845.8375 Q197.165,846.2 196.1275,846.2 Q194.915,846.2 193.9525,845.7 Q193.165,845.3 192.615,844.45 Q192.065,843.5875 192.065,842.5625 L192.065,841.6375 Q192.065,840.575 192.5525,839.6625 Q193.0525,838.7375 193.9275,838.25 Q194.8025,837.75 195.79,837.75 Q196.3775,837.75 196.89,837.8875 Q197.415,838.0125 197.8525,838.3 Z " fill="#000000"/><text fill="#000000" font-family="sans-serif" font-size="11.2" lengthAdjust="spacing" textLength="43.2" x="209.16" y="845.4828">Property</text><line style="stroke:#181818;stroke-width:0.4000000000000001;" x1="174" x2="264.4" y1="854.4" y2="854.4"/><rect fill="none" height="4.8" style="stroke:#C82930;stroke-width:0.8000000000000002;" width="4.8" x="179.6" y="862.6563"/><text fill="#000000" font-family="sans-serif" font-size="11.2" lengthAdjust="spacing" textLength="71.2" x="189.2" y="867.7391">propertyID: int</text><rect fill="none" height="4.8" style="stroke:#C82930;stroke-width:0.8000000000000002;" width="4.8" x="179.6" y="875.1688"/><text fill="#000000" font-family="sans-serif" font-size="11.2" lengthAdjust="spacing" textLength="62.4" x="189.2" y="880.2516">name: string</text><line style="stroke:#181818;stroke-width:0.4000000000000001;" x1="174" x2="264.4" y1="885.825" y2="885.825"/></g><!--link DivideUI to DivideController--><g id="link_DivideUI_DivideController"><path codeLine="49" d="M492.8,44.112 C492.8,68.048 492.8,110 492.8,138.192 " fill="none" id="DivideUI-to-DivideController" style="stroke:#181818;stroke-width:0.8000000000000002;stroke-dasharray:7.0,7.0;"/><polygon fill="#181818" points="492.8,142.24,496,135.04,492.8,138.24,489.6,135.04,492.8,142.24" style="stroke:#181818;stroke-width:0.8000000000000002;"/></g><!--link DivideController to Repositories--><g id="link_DivideController_Repositories"><path codeLine="51" d="M470.32,193.712 C438.4,229.08 379.376,294.488 339.12,339.104 " fill="none" id="DivideController-to-Repositories" style="stroke:#181818;stroke-width:0.8000000000000002;stroke-dasharray:7.0,7.0;"/><polygon fill="#181818" points="336.256,342.28,343.4579,339.0842,338.9382,339.3125,338.7099,334.7928,336.256,342.28" style="stroke:#181818;stroke-width:0.8000000000000002;"/></g><!--link Repositories to Repositories--><g id="link_Repositories_Repositories"><path codeLine="52" d="M452.848,375.992 C469.848,378.056 480.8,381.664 480.8,386.8 C480.8,391.496 471.648,394.912 457.096,397.048 " fill="none" id="Repositories-to-Repositories" style="stroke:#181818;stroke-width:0.8000000000000002;"/><polygon fill="#181818" points="452.848,397.608,460.4124,399.8127,456.8118,397.0711,459.5533,393.4706,452.848,397.608" style="stroke:#181818;stroke-width:0.8000000000000002;"/><text fill="#000000" font-family="sans-serif" font-size="10.4" lengthAdjust="spacing" textLength="39.2" x="485.6" y="390.6148">instance</text></g><!--link Repositories to StoreRepository--><g id="link_Repositories_StoreRepository"><path codeLine="53" d="M367.312,431.208 C395.576,448.696 427.272,468.296 452.136,483.672 " fill="none" id="Repositories-to-StoreRepository" style="stroke:#181818;stroke-width:0.8000000000000002;"/><polygon fill="#181818" points="455.752,485.912,451.3069,479.4065,452.3485,483.8105,447.9445,484.8521,455.752,485.912" style="stroke:#181818;stroke-width:0.8000000000000002;"/></g><!--link Repositories to AnnouncementRepository--><g id="link_Repositories_AnnouncementRepository"><path codeLine="54" d="M269.224,431.384 C259.904,446.176 249.64,462.464 240.856,476.424 " fill="none" id="Repositories-to-AnnouncementRepository" style="stroke:#181818;stroke-width:0.8000000000000002;"/><polygon fill="#181818" points="238.648,479.92,245.1883,475.5263,240.7762,476.5332,239.7693,472.1211,238.648,479.92" style="stroke:#181818;stroke-width:0.8000000000000002;"/></g><!--link DivideController to AnnouncementRepository--><g id="link_DivideController_AnnouncementRepository"><path codeLine="55" d="M440.304,193.672 C338.992,241.672 126.4,342.4 126.4,342.4 C126.4,342.4 126.4,431.2 126.4,431.2 C126.4,431.2 154.656,455.432 179.984,477.16 " fill="none" id="DivideController-to-AnnouncementRepository" style="stroke:#181818;stroke-width:0.8000000000000002;stroke-dasharray:7.0,7.0;"/><polygon fill="#181818" points="183.056,479.8,179.6719,472.6847,180.019,477.1968,175.5068,477.5439,183.056,479.8" style="stroke:#181818;stroke-width:0.8000000000000002;"/></g><!--link DivideController to BruteForce--><g id="link_DivideController_BruteForce"><path codeLine="56" d="M551.872,188.12 C598.056,203.232 662.744,224.392 713.584,241.024 " fill="none" id="DivideController-to-BruteForce" style="stroke:#181818;stroke-width:0.8000000000000002;"/><polygon fill="#181818" points="717.528,242.312,711.6807,237.031,713.7265,241.0677,709.6898,243.1134,717.528,242.312" style="stroke:#181818;stroke-width:0.8000000000000002;"/></g><!--link DivideController to StoreRepository--><g id="link_DivideController_StoreRepository"><path codeLine="57" d="M498.072,193.672 C508.248,241.672 529.6,342.4 529.6,342.4 C529.6,342.4 529.6,431.2 529.6,431.2 C529.6,431.2 517.8,459.16 508.184,481.936 " fill="none" id="DivideController-to-StoreRepository" style="stroke:#181818;stroke-width:0.8000000000000002;stroke-dasharray:7.0,7.0;"/><polygon fill="#181818" points="506.536,485.832,512.2852,480.4444,508.0923,482.1472,506.3895,477.9543,506.536,485.832" style="stroke:#181818;stroke-width:0.8000000000000002;"/></g><!--link AnnouncementRepository to Announcement--><g id="link_AnnouncementRepository_Announcement"><path codeLine="58" d="M219.2,543.256 C219.2,583.632 219.2,654.536 219.2,699.616 " fill="none" id="AnnouncementRepository-to-Announcement" style="stroke:#181818;stroke-width:0.8000000000000002;"/><polygon fill="#181818" points="219.2,703.632,222.4,696.432,219.2,699.632,216,696.432,219.2,703.632" style="stroke:#181818;stroke-width:0.8000000000000002;"/><text fill="#000000" font-family="sans-serif" font-size="10.4" lengthAdjust="spacing" textLength="5.6" x="213.1013" y="559.3243">1</text><text fill="#000000" font-family="sans-serif" font-size="10.4" lengthAdjust="spacing" textLength="4" x="214.9063" y="695.4244">*</text></g><!--link DivideController to Store--><g id="link_DivideController_Store"><path codeLine="59" d="M523.688,193.632 C559.944,222.784 615.2,267.2 615.2,267.2 C615.2,267.2 615.2,267.2 615.2,512.4 C615.2,512.4 586.4,543.2 586.4,543.2 C586.4,543.2 559.096,567.24 534.504,588.896 " fill="none" id="DivideController-to-Store" style="stroke:#181818;stroke-width:0.8000000000000002;stroke-dasharray:7.0,7.0;"/><polygon fill="#181818" points="531.208,591.8,538.7249,589.4387,534.2084,589.1546,534.4924,584.6381,531.208,591.8" style="stroke:#181818;stroke-width:0.8000000000000002;"/><text fill="#000000" font-family="sans-serif" font-size="10.4" lengthAdjust="spacing" textLength="5.6" x="531.3807" y="583.3702">1</text></g><!--link DivideController to Announcement--><g id="link_DivideController_Announcement"><path codeLine="60" d="M433.936,180.672 C304.144,206.84 4.8,267.2 4.8,267.2 C4.8,267.2 4.8,267.2 4.8,624.4 C4.8,624.4 89.904,670.76 152.872,705.064 " fill="none" id="DivideController-to-Announcement" style="stroke:#181818;stroke-width:0.8000000000000002;stroke-dasharray:7.0,7.0;"/><polygon fill="#181818" points="156.608,707.104,151.828,700.8405,153.099,705.1838,148.7557,706.4548,156.608,707.104" style="stroke:#181818;stroke-width:0.8000000000000002;"/><text fill="#000000" font-family="sans-serif" font-size="10.4" lengthAdjust="spacing" textLength="5.6" x="144.7753" y="701.482">1</text></g><!--link Announcement to Property--><g id="link_Announcement_Property"><path codeLine="62" d="M219.2,780.08 C219.2,794.232 219.2,810.304 219.2,824.28 " fill="none" id="Announcement-to-Property" style="stroke:#181818;stroke-width:0.8000000000000002;"/><polygon fill="#181818" points="219.2,828.544,222.4,821.344,219.2,824.544,216,821.344,219.2,828.544" style="stroke:#181818;stroke-width:0.8000000000000002;"/><text fill="#000000" font-family="sans-serif" font-size="10.4" lengthAdjust="spacing" textLength="5.6" x="213.1013" y="820.1042">1</text></g><!--link StoreRepository to Store--><g id="link_StoreRepository_Store"><path codeLine="64" d="M496,537.448 C496,553.608 496,574.744 496,591.936 " fill="none" id="StoreRepository-Store" style="stroke:#181818;stroke-width:0.8000000000000002;"/><text fill="#000000" font-family="sans-serif" font-size="10.4" lengthAdjust="spacing" textLength="5.6" x="489.8838" y="552.7262">1</text><text fill="#000000" font-family="sans-serif" font-size="10.4" lengthAdjust="spacing" textLength="4" x="491.6313" y="583.2982">*</text></g><!--link Store to Announcement--><g id="link_Store_Announcement"><path codeLine="66" d="M454.264,642.016 C409.568,660.872 338.024,691.056 285.592,713.184 " fill="none" id="Store-to-Announcement" style="stroke:#181818;stroke-width:0.8000000000000002;"/><polygon fill="#181818" points="281.848,714.76,289.7257,714.9065,285.5328,713.2037,287.2356,709.0108,281.848,714.76" style="stroke:#181818;stroke-width:0.8000000000000002;"/><text fill="#000000" font-family="sans-serif" font-size="10.4" lengthAdjust="spacing" textLength="5.6" x="442.4011" y="642.0467">1</text><text fill="#000000" font-family="sans-serif" font-size="10.4" lengthAdjust="spacing" textLength="4" x="288.0098" y="709.8677">*</text></g><!--SRC=[ZLF1IiGm4BttAq9Fkqe5huiig8jGy20kVa3iZZLiDWcPh5B4VpT9cxP9syLJs_VUl9b9Nl78XAAQdeYYrP7Mi3SD1wAXCbJK73Bi1VX93_ARYPfyK8vZXZC1fb50bEID-yYoYbD4icDVx01l9Vd9VcFiKGgZ9UUWBKV8DJbuk1H6xi_l20PNww7c5PH4PgHcW5vVH90tgC6K0ktK5QpMcrb-Rp-X9nedIw2Wl1T2dgtJ2OI92-QPOTJ4iDikD7zcQ9oBUzvvP3kKpbiF3cCU7nfVNkvMs3utX0aJhCVIRQX_qLA1DdwDy3vqVz1d0qzILx1u8nXMY1PmfzWAabFeRceydmS4FS76mjfcQNxxhfAEeB71n55rsypj5P3ECqWl3TJ7jhWfjfF01duKOQ-B4XSbjaXOubgtKPqAqqHE10i9d1_gtsAh7HAmO9QEjX3O_3RtVlbL7lLVS7Loxto1ZsoYlcqdA-blFaj_mNOUFqxRfrKip_a7]--></g></svg>