<?xml version="1.0" encoding="us-ascii" standalone="no"?><svg xmlns="http://www.w3.org/2000/svg" xmlns:xlink="http://www.w3.org/1999/xlink" contentStyleType="text/css" height="1122px" preserveAspectRatio="none" style="width:1169px;height:1122px;background:#FFFFFF;" version="1.1" viewBox="0 0 1169 1122" width="1169px" zoomAndPan="magnify"><defs/><g><!--class DivideUI--><g id="elem_DivideUI"><rect codeLine="6" fill="#F1F1F1" height="48" id="DivideUI" rx="2.5" ry="2.5" style="stroke:#181818;stroke-width:0.5;" width="83" x="574.5" y="7"/><ellipse cx="589.5" cy="23" fill="#ADD1B2" rx="11" ry="11" style="stroke:#181818;stroke-width:1.0;"/><path d="M592.2656,18.875 Q592.4219,18.6563 592.6094,18.5469 Q592.7969,18.4375 593.0156,18.4375 Q593.3906,18.4375 593.625,18.7031 Q593.8594,18.9531 593.8594,19.5625 L593.8594,21.0156 Q593.8594,21.625 593.625,21.8906 Q593.3906,22.1563 593.0156,22.1563 Q592.6719,22.1563 592.4688,21.9531 Q592.2656,21.7656 592.1563,21.25 Q592.1094,20.8906 591.9219,20.7031 Q591.5938,20.3281 590.9844,20.1094 Q590.375,19.8906 589.75,19.8906 Q588.9844,19.8906 588.3438,20.2188 Q587.7188,20.5469 587.2188,21.2969 Q586.7344,22.0469 586.7344,23.0781 L586.7344,24.1719 Q586.7344,25.4063 587.625,26.2344 Q588.5156,27.0469 590.1094,27.0469 Q591.0469,27.0469 591.7031,26.7969 Q592.0938,26.6406 592.5156,26.2031 Q592.7813,25.9375 592.9219,25.8594 Q593.0781,25.7813 593.2813,25.7813 Q593.6094,25.7813 593.8594,26.0469 Q594.125,26.2969 594.125,26.6406 Q594.125,26.9844 593.7813,27.3906 Q593.2813,27.9688 592.4844,28.2969 Q591.4063,28.75 590.1094,28.75 Q588.5938,28.75 587.3906,28.125 Q586.4063,27.625 585.7188,26.5625 Q585.0313,25.4844 585.0313,24.2031 L585.0313,23.0469 Q585.0313,21.7188 585.6406,20.5781 Q586.2656,19.4219 587.3594,18.8125 Q588.4531,18.1875 589.6875,18.1875 Q590.4219,18.1875 591.0625,18.3594 Q591.7188,18.5156 592.2656,18.875 Z " fill="#000000"/><text fill="#000000" font-family="sans-serif" font-size="14" lengthAdjust="spacing" textLength="51" x="603.5" y="27.8535">DivideUI</text><line style="stroke:#181818;stroke-width:0.5;" x1="575.5" x2="656.5" y1="39" y2="39"/><line style="stroke:#181818;stroke-width:0.5;" x1="575.5" x2="656.5" y1="47" y2="47"/></g><!--class DivideController--><g id="elem_DivideController"><rect codeLine="9" fill="#F1F1F1" height="63.6406" id="DivideController" rx="2.5" ry="2.5" style="stroke:#181818;stroke-width:0.5;" width="147" x="542.5" y="178"/><ellipse cx="563.8" cy="194" fill="#ADD1B2" rx="11" ry="11" style="stroke:#181818;stroke-width:1.0;"/><path d="M566.5656,189.875 Q566.7219,189.6563 566.9094,189.5469 Q567.0969,189.4375 567.3156,189.4375 Q567.6906,189.4375 567.925,189.7031 Q568.1594,189.9531 568.1594,190.5625 L568.1594,192.0156 Q568.1594,192.625 567.925,192.8906 Q567.6906,193.1563 567.3156,193.1563 Q566.9719,193.1563 566.7688,192.9531 Q566.5656,192.7656 566.4563,192.25 Q566.4094,191.8906 566.2219,191.7031 Q565.8938,191.3281 565.2844,191.1094 Q564.675,190.8906 564.05,190.8906 Q563.2844,190.8906 562.6438,191.2188 Q562.0188,191.5469 561.5188,192.2969 Q561.0344,193.0469 561.0344,194.0781 L561.0344,195.1719 Q561.0344,196.4063 561.925,197.2344 Q562.8156,198.0469 564.4094,198.0469 Q565.3469,198.0469 566.0031,197.7969 Q566.3938,197.6406 566.8156,197.2031 Q567.0813,196.9375 567.2219,196.8594 Q567.3781,196.7813 567.5813,196.7813 Q567.9094,196.7813 568.1594,197.0469 Q568.425,197.2969 568.425,197.6406 Q568.425,197.9844 568.0813,198.3906 Q567.5813,198.9688 566.7844,199.2969 Q565.7063,199.75 564.4094,199.75 Q562.8938,199.75 561.6906,199.125 Q560.7063,198.625 560.0188,197.5625 Q559.3313,196.4844 559.3313,195.2031 L559.3313,194.0469 Q559.3313,192.7188 559.9406,191.5781 Q560.5656,190.4219 561.6594,189.8125 Q562.7531,189.1875 563.9875,189.1875 Q564.7219,189.1875 565.3625,189.3594 Q566.0188,189.5156 566.5656,189.875 Z " fill="#000000"/><text fill="#000000" font-family="sans-serif" font-size="14" lengthAdjust="spacing" textLength="101" x="579.2" y="198.8535">DivideController</text><line style="stroke:#181818;stroke-width:0.5;" x1="543.5" x2="688.5" y1="210" y2="210"/><line style="stroke:#181818;stroke-width:0.5;" x1="543.5" x2="688.5" y1="218" y2="218"/><ellipse cx="553.5" cy="231.3203" fill="#84BE84" rx="3" ry="3" style="stroke:#038048;stroke-width:1.0;"/><text fill="#000000" font-family="sans-serif" font-size="14" lengthAdjust="spacing" textLength="121" x="562.5" y="234.6738">divideIntoSubsets()</text></g><!--class Repositories--><g id="elem_Repositories"><rect codeLine="13" fill="#F1F1F1" height="110.5625" id="Repositories" rx="2.5" ry="2.5" style="stroke:#181818;stroke-width:0.5;" width="390" x="176" y="428"/><ellipse cx="327.25" cy="444" fill="#ADD1B2" rx="11" ry="11" style="stroke:#181818;stroke-width:1.0;"/><path d="M330.0156,439.875 Q330.1719,439.6563 330.3594,439.5469 Q330.5469,439.4375 330.7656,439.4375 Q331.1406,439.4375 331.375,439.7031 Q331.6094,439.9531 331.6094,440.5625 L331.6094,442.0156 Q331.6094,442.625 331.375,442.8906 Q331.1406,443.1563 330.7656,443.1563 Q330.4219,443.1563 330.2188,442.9531 Q330.0156,442.7656 329.9063,442.25 Q329.8594,441.8906 329.6719,441.7031 Q329.3438,441.3281 328.7344,441.1094 Q328.125,440.8906 327.5,440.8906 Q326.7344,440.8906 326.0938,441.2188 Q325.4688,441.5469 324.9688,442.2969 Q324.4844,443.0469 324.4844,444.0781 L324.4844,445.1719 Q324.4844,446.4063 325.375,447.2344 Q326.2656,448.0469 327.8594,448.0469 Q328.7969,448.0469 329.4531,447.7969 Q329.8438,447.6406 330.2656,447.2031 Q330.5313,446.9375 330.6719,446.8594 Q330.8281,446.7813 331.0313,446.7813 Q331.3594,446.7813 331.6094,447.0469 Q331.875,447.2969 331.875,447.6406 Q331.875,447.9844 331.5313,448.3906 Q331.0313,448.9688 330.2344,449.2969 Q329.1563,449.75 327.8594,449.75 Q326.3438,449.75 325.1406,449.125 Q324.1563,448.625 323.4688,447.5625 Q322.7813,446.4844 322.7813,445.2031 L322.7813,444.0469 Q322.7813,442.7188 323.3906,441.5781 Q324.0156,440.4219 325.1094,439.8125 Q326.2031,439.1875 327.4375,439.1875 Q328.1719,439.1875 328.8125,439.3594 Q329.4688,439.5156 330.0156,439.875 Z " fill="#000000"/><text fill="#000000" font-family="sans-serif" font-size="14" lengthAdjust="spacing" textLength="79" x="347.75" y="448.8535">Repositories</text><line style="stroke:#181818;stroke-width:0.5;" x1="177" x2="565" y1="460" y2="460"/><rect fill="none" height="6" style="stroke:#C82930;stroke-width:1.0;" width="6" x="184" y="470.3203"/><text fill="#000000" font-family="sans-serif" font-size="14" lengthAdjust="spacing" textLength="79" x="196" y="476.6738">Repositories</text><line style="stroke:#181818;stroke-width:0.5;" x1="177" x2="565" y1="483.6406" y2="483.6406"/><ellipse cx="187" cy="496.9609" fill="#84BE84" rx="3" ry="3" style="stroke:#038048;stroke-width:1.0;"/><text fill="#000000" font-family="sans-serif" font-size="14" lengthAdjust="spacing" textLength="170" x="196" y="500.3145">getInstance(): Repositories</text><ellipse cx="187" cy="512.6016" fill="#84BE84" rx="3" ry="3" style="stroke:#038048;stroke-width:1.0;"/><text fill="#000000" font-family="sans-serif" font-size="14" lengthAdjust="spacing" textLength="242" x="196" y="515.9551">getStoreRepository(): StoreRepository</text><ellipse cx="187" cy="528.2422" fill="#84BE84" rx="3" ry="3" style="stroke:#038048;stroke-width:1.0;"/><text fill="#000000" font-family="sans-serif" font-size="14" lengthAdjust="spacing" textLength="364" x="196" y="531.5957">getAnnouncementRepository(): AnnouncementRepository</text></g><!--class StoreRepository--><g id="elem_StoreRepository"><rect codeLine="20" fill="#F1F1F1" height="63.6406" id="StoreRepository" rx="2.5" ry="2.5" style="stroke:#181818;stroke-width:0.5;" width="192" x="524" y="607.5"/><ellipse cx="565.1" cy="623.5" fill="#ADD1B2" rx="11" ry="11" style="stroke:#181818;stroke-width:1.0;"/><path d="M567.8656,619.375 Q568.0219,619.1563 568.2094,619.0469 Q568.3969,618.9375 568.6156,618.9375 Q568.9906,618.9375 569.225,619.2031 Q569.4594,619.4531 569.4594,620.0625 L569.4594,621.5156 Q569.4594,622.125 569.225,622.3906 Q568.9906,622.6563 568.6156,622.6563 Q568.2719,622.6563 568.0688,622.4531 Q567.8656,622.2656 567.7563,621.75 Q567.7094,621.3906 567.5219,621.2031 Q567.1938,620.8281 566.5844,620.6094 Q565.975,620.3906 565.35,620.3906 Q564.5844,620.3906 563.9438,620.7188 Q563.3188,621.0469 562.8188,621.7969 Q562.3344,622.5469 562.3344,623.5781 L562.3344,624.6719 Q562.3344,625.9063 563.225,626.7344 Q564.1156,627.5469 565.7094,627.5469 Q566.6469,627.5469 567.3031,627.2969 Q567.6938,627.1406 568.1156,626.7031 Q568.3813,626.4375 568.5219,626.3594 Q568.6781,626.2813 568.8813,626.2813 Q569.2094,626.2813 569.4594,626.5469 Q569.725,626.7969 569.725,627.1406 Q569.725,627.4844 569.3813,627.8906 Q568.8813,628.4688 568.0844,628.7969 Q567.0063,629.25 565.7094,629.25 Q564.1938,629.25 562.9906,628.625 Q562.0063,628.125 561.3188,627.0625 Q560.6313,625.9844 560.6313,624.7031 L560.6313,623.5469 Q560.6313,622.2188 561.2406,621.0781 Q561.8656,619.9219 562.9594,619.3125 Q564.0531,618.6875 565.2875,618.6875 Q566.0219,618.6875 566.6625,618.8594 Q567.3188,619.0156 567.8656,619.375 Z " fill="#000000"/><text fill="#000000" font-family="sans-serif" font-size="14" lengthAdjust="spacing" textLength="102" x="584.9" y="628.3535">StoreRepository</text><line style="stroke:#181818;stroke-width:0.5;" x1="525" x2="715" y1="639.5" y2="639.5"/><line style="stroke:#181818;stroke-width:0.5;" x1="525" x2="715" y1="647.5" y2="647.5"/><ellipse cx="535" cy="660.8203" fill="#84BE84" rx="3" ry="3" style="stroke:#038048;stroke-width:1.0;"/><text fill="#000000" font-family="sans-serif" font-size="14" lengthAdjust="spacing" textLength="166" x="544" y="664.1738">getStoreList(): List&lt;Store&gt;</text></g><!--class AnnouncementRepository--><g id="elem_AnnouncementRepository"><rect codeLine="24" fill="#F1F1F1" height="79.2813" id="AnnouncementRepository" rx="2.5" ry="2.5" style="stroke:#181818;stroke-width:0.5;" width="430" x="59" y="600"/><ellipse cx="188.25" cy="616" fill="#ADD1B2" rx="11" ry="11" style="stroke:#181818;stroke-width:1.0;"/><path d="M191.0156,611.875 Q191.1719,611.6563 191.3594,611.5469 Q191.5469,611.4375 191.7656,611.4375 Q192.1406,611.4375 192.375,611.7031 Q192.6094,611.9531 192.6094,612.5625 L192.6094,614.0156 Q192.6094,614.625 192.375,614.8906 Q192.1406,615.1563 191.7656,615.1563 Q191.4219,615.1563 191.2188,614.9531 Q191.0156,614.7656 190.9063,614.25 Q190.8594,613.8906 190.6719,613.7031 Q190.3438,613.3281 189.7344,613.1094 Q189.125,612.8906 188.5,612.8906 Q187.7344,612.8906 187.0938,613.2188 Q186.4688,613.5469 185.9688,614.2969 Q185.4844,615.0469 185.4844,616.0781 L185.4844,617.1719 Q185.4844,618.4063 186.375,619.2344 Q187.2656,620.0469 188.8594,620.0469 Q189.7969,620.0469 190.4531,619.7969 Q190.8438,619.6406 191.2656,619.2031 Q191.5313,618.9375 191.6719,618.8594 Q191.8281,618.7813 192.0313,618.7813 Q192.3594,618.7813 192.6094,619.0469 Q192.875,619.2969 192.875,619.6406 Q192.875,619.9844 192.5313,620.3906 Q192.0313,620.9688 191.2344,621.2969 Q190.1563,621.75 188.8594,621.75 Q187.3438,621.75 186.1406,621.125 Q185.1563,620.625 184.4688,619.5625 Q183.7813,618.4844 183.7813,617.2031 L183.7813,616.0469 Q183.7813,614.7188 184.3906,613.5781 Q185.0156,612.4219 186.1094,611.8125 Q187.2031,611.1875 188.4375,611.1875 Q189.1719,611.1875 189.8125,611.3594 Q190.4688,611.5156 191.0156,611.875 Z " fill="#000000"/><text fill="#000000" font-family="sans-serif" font-size="14" lengthAdjust="spacing" textLength="163" x="208.75" y="620.8535">AnnouncementRepository</text><line style="stroke:#181818;stroke-width:0.5;" x1="60" x2="488" y1="632" y2="632"/><line style="stroke:#181818;stroke-width:0.5;" x1="60" x2="488" y1="640" y2="640"/><ellipse cx="70" cy="653.3203" fill="#84BE84" rx="3" ry="3" style="stroke:#038048;stroke-width:1.0;"/><text fill="#000000" font-family="sans-serif" font-size="14" lengthAdjust="spacing" textLength="404" x="79" y="656.6738">getAnnouncementsByStoreID(storeID: int): List&lt;Announcement&gt;</text><ellipse cx="70" cy="668.9609" fill="#84BE84" rx="3" ry="3" style="stroke:#038048;stroke-width:1.0;"/><text fill="#000000" font-family="sans-serif" font-size="14" lengthAdjust="spacing" textLength="146" x="79" y="672.3145">getProperty(): Property</text></g><!--class BruteForce--><g id="elem_BruteForce"><rect codeLine="29" fill="#F1F1F1" height="63.6406" id="BruteForce" rx="2.5" ry="2.5" style="stroke:#181818;stroke-width:0.5;" width="340" x="822" y="303"/><ellipse cx="952.25" cy="319" fill="#ADD1B2" rx="11" ry="11" style="stroke:#181818;stroke-width:1.0;"/><path d="M955.0156,314.875 Q955.1719,314.6563 955.3594,314.5469 Q955.5469,314.4375 955.7656,314.4375 Q956.1406,314.4375 956.375,314.7031 Q956.6094,314.9531 956.6094,315.5625 L956.6094,317.0156 Q956.6094,317.625 956.375,317.8906 Q956.1406,318.1563 955.7656,318.1563 Q955.4219,318.1563 955.2188,317.9531 Q955.0156,317.7656 954.9063,317.25 Q954.8594,316.8906 954.6719,316.7031 Q954.3438,316.3281 953.7344,316.1094 Q953.125,315.8906 952.5,315.8906 Q951.7344,315.8906 951.0938,316.2188 Q950.4688,316.5469 949.9688,317.2969 Q949.4844,318.0469 949.4844,319.0781 L949.4844,320.1719 Q949.4844,321.4063 950.375,322.2344 Q951.2656,323.0469 952.8594,323.0469 Q953.7969,323.0469 954.4531,322.7969 Q954.8438,322.6406 955.2656,322.2031 Q955.5313,321.9375 955.6719,321.8594 Q955.8281,321.7813 956.0313,321.7813 Q956.3594,321.7813 956.6094,322.0469 Q956.875,322.2969 956.875,322.6406 Q956.875,322.9844 956.5313,323.3906 Q956.0313,323.9688 955.2344,324.2969 Q954.1563,324.75 952.8594,324.75 Q951.3438,324.75 950.1406,324.125 Q949.1563,323.625 948.4688,322.5625 Q947.7813,321.4844 947.7813,320.2031 L947.7813,319.0469 Q947.7813,317.7188 948.3906,316.5781 Q949.0156,315.4219 950.1094,314.8125 Q951.2031,314.1875 952.4375,314.1875 Q953.1719,314.1875 953.8125,314.3594 Q954.4688,314.5156 955.0156,314.875 Z " fill="#000000"/><text fill="#000000" font-family="sans-serif" font-size="14" lengthAdjust="spacing" textLength="71" x="972.75" y="323.8535">BruteForce</text><line style="stroke:#181818;stroke-width:0.5;" x1="823" x2="1161" y1="335" y2="335"/><line style="stroke:#181818;stroke-width:0.5;" x1="823" x2="1161" y1="343" y2="343"/><ellipse cx="833" cy="356.3203" fill="#84BE84" rx="3" ry="3" style="stroke:#038048;stroke-width:1.0;"/><text fill="#000000" font-family="sans-serif" font-size="14" lengthAdjust="spacing" textLength="314" x="842" y="359.6738">divideIntoSubsets(storeList: List&lt;Store&gt;): Subsets</text></g><!--class Store--><g id="elem_Store"><rect codeLine="33" fill="#F1F1F1" height="79.2813" id="Store" rx="2.5" ry="2.5" style="stroke:#181818;stroke-width:0.5;" width="104" x="568" y="740"/><ellipse cx="600.1" cy="756" fill="#ADD1B2" rx="11" ry="11" style="stroke:#181818;stroke-width:1.0;"/><path d="M602.8656,751.875 Q603.0219,751.6563 603.2094,751.5469 Q603.3969,751.4375 603.6156,751.4375 Q603.9906,751.4375 604.225,751.7031 Q604.4594,751.9531 604.4594,752.5625 L604.4594,754.0156 Q604.4594,754.625 604.225,754.8906 Q603.9906,755.1563 603.6156,755.1563 Q603.2719,755.1563 603.0688,754.9531 Q602.8656,754.7656 602.7563,754.25 Q602.7094,753.8906 602.5219,753.7031 Q602.1938,753.3281 601.5844,753.1094 Q600.975,752.8906 600.35,752.8906 Q599.5844,752.8906 598.9438,753.2188 Q598.3188,753.5469 597.8188,754.2969 Q597.3344,755.0469 597.3344,756.0781 L597.3344,757.1719 Q597.3344,758.4063 598.225,759.2344 Q599.1156,760.0469 600.7094,760.0469 Q601.6469,760.0469 602.3031,759.7969 Q602.6938,759.6406 603.1156,759.2031 Q603.3813,758.9375 603.5219,758.8594 Q603.6781,758.7813 603.8813,758.7813 Q604.2094,758.7813 604.4594,759.0469 Q604.725,759.2969 604.725,759.6406 Q604.725,759.9844 604.3813,760.3906 Q603.8813,760.9688 603.0844,761.2969 Q602.0063,761.75 600.7094,761.75 Q599.1938,761.75 597.9906,761.125 Q597.0063,760.625 596.3188,759.5625 Q595.6313,758.4844 595.6313,757.2031 L595.6313,756.0469 Q595.6313,754.7188 596.2406,753.5781 Q596.8656,752.4219 597.9594,751.8125 Q599.0531,751.1875 600.2875,751.1875 Q601.0219,751.1875 601.6625,751.3594 Q602.3188,751.5156 602.8656,751.875 Z " fill="#000000"/><text fill="#000000" font-family="sans-serif" font-size="14" lengthAdjust="spacing" textLength="34" x="617.9" y="760.8535">Store</text><line style="stroke:#181818;stroke-width:0.5;" x1="569" x2="671" y1="772" y2="772"/><rect fill="none" height="6" style="stroke:#C82930;stroke-width:1.0;" width="6" x="576" y="782.3203"/><text fill="#000000" font-family="sans-serif" font-size="14" lengthAdjust="spacing" textLength="68" x="588" y="788.6738">storeID: int</text><rect fill="none" height="6" style="stroke:#C82930;stroke-width:1.0;" width="6" x="576" y="797.9609"/><text fill="#000000" font-family="sans-serif" font-size="14" lengthAdjust="spacing" textLength="78" x="588" y="804.3145">name: string</text><line style="stroke:#181818;stroke-width:0.5;" x1="569" x2="671" y1="811.2813" y2="811.2813"/></g><!--class Announcement--><g id="elem_Announcement"><rect codeLine="38" fill="#F1F1F1" height="94.9219" id="Announcement" rx="2.5" ry="2.5" style="stroke:#181818;stroke-width:0.5;" width="156" x="196" y="880"/><ellipse cx="224.05" cy="896" fill="#ADD1B2" rx="11" ry="11" style="stroke:#181818;stroke-width:1.0;"/><path d="M226.8156,891.875 Q226.9719,891.6563 227.1594,891.5469 Q227.3469,891.4375 227.5656,891.4375 Q227.9406,891.4375 228.175,891.7031 Q228.4094,891.9531 228.4094,892.5625 L228.4094,894.0156 Q228.4094,894.625 228.175,894.8906 Q227.9406,895.1563 227.5656,895.1563 Q227.2219,895.1563 227.0188,894.9531 Q226.8156,894.7656 226.7063,894.25 Q226.6594,893.8906 226.4719,893.7031 Q226.1438,893.3281 225.5344,893.1094 Q224.925,892.8906 224.3,892.8906 Q223.5344,892.8906 222.8938,893.2188 Q222.2688,893.5469 221.7688,894.2969 Q221.2844,895.0469 221.2844,896.0781 L221.2844,897.1719 Q221.2844,898.4063 222.175,899.2344 Q223.0656,900.0469 224.6594,900.0469 Q225.5969,900.0469 226.2531,899.7969 Q226.6438,899.6406 227.0656,899.2031 Q227.3313,898.9375 227.4719,898.8594 Q227.6281,898.7813 227.8313,898.7813 Q228.1594,898.7813 228.4094,899.0469 Q228.675,899.2969 228.675,899.6406 Q228.675,899.9844 228.3313,900.3906 Q227.8313,900.9688 227.0344,901.2969 Q225.9563,901.75 224.6594,901.75 Q223.1438,901.75 221.9406,901.125 Q220.9563,900.625 220.2688,899.5625 Q219.5813,898.4844 219.5813,897.2031 L219.5813,896.0469 Q219.5813,894.7188 220.1906,893.5781 Q220.8156,892.4219 221.9094,891.8125 Q223.0031,891.1875 224.2375,891.1875 Q224.9719,891.1875 225.6125,891.3594 Q226.2688,891.5156 226.8156,891.875 Z " fill="#000000"/><text fill="#000000" font-family="sans-serif" font-size="14" lengthAdjust="spacing" textLength="95" x="240.95" y="900.8535">Announcement</text><line style="stroke:#181818;stroke-width:0.5;" x1="197" x2="351" y1="912" y2="912"/><rect fill="none" height="6" style="stroke:#C82930;stroke-width:1.0;" width="6" x="204" y="922.3203"/><text fill="#000000" font-family="sans-serif" font-size="14" lengthAdjust="spacing" textLength="130" x="216" y="928.6738">announcementID: int</text><rect fill="none" height="6" style="stroke:#C82930;stroke-width:1.0;" width="6" x="204" y="937.9609"/><text fill="#000000" font-family="sans-serif" font-size="14" lengthAdjust="spacing" textLength="68" x="216" y="944.3145">storeID: int</text><rect fill="none" height="6" style="stroke:#C82930;stroke-width:1.0;" width="6" x="204" y="953.6016"/><text fill="#000000" font-family="sans-serif" font-size="14" lengthAdjust="spacing" textLength="115" x="216" y="959.9551">property: Property</text><line style="stroke:#181818;stroke-width:0.5;" x1="197" x2="351" y1="966.9219" y2="966.9219"/></g><!--class Property--><g id="elem_Property"><rect codeLine="44" fill="#F1F1F1" height="79.2813" id="Property" rx="2.5" ry="2.5" style="stroke:#181818;stroke-width:0.5;" width="115" x="216.5" y="1036"/><ellipse cx="244.55" cy="1052" fill="#ADD1B2" rx="11" ry="11" style="stroke:#181818;stroke-width:1.0;"/><path d="M247.3156,1047.875 Q247.4719,1047.6563 247.6594,1047.5469 Q247.8469,1047.4375 248.0656,1047.4375 Q248.4406,1047.4375 248.675,1047.7031 Q248.9094,1047.9531 248.9094,1048.5625 L248.9094,1050.0156 Q248.9094,1050.625 248.675,1050.8906 Q248.4406,1051.1563 248.0656,1051.1563 Q247.7219,1051.1563 247.5188,1050.9531 Q247.3156,1050.7656 247.2063,1050.25 Q247.1594,1049.8906 246.9719,1049.7031 Q246.6438,1049.3281 246.0344,1049.1094 Q245.425,1048.8906 244.8,1048.8906 Q244.0344,1048.8906 243.3938,1049.2188 Q242.7688,1049.5469 242.2688,1050.2969 Q241.7844,1051.0469 241.7844,1052.0781 L241.7844,1053.1719 Q241.7844,1054.4063 242.675,1055.2344 Q243.5656,1056.0469 245.1594,1056.0469 Q246.0969,1056.0469 246.7531,1055.7969 Q247.1438,1055.6406 247.5656,1055.2031 Q247.8313,1054.9375 247.9719,1054.8594 Q248.1281,1054.7813 248.3313,1054.7813 Q248.6594,1054.7813 248.9094,1055.0469 Q249.175,1055.2969 249.175,1055.6406 Q249.175,1055.9844 248.8313,1056.3906 Q248.3313,1056.9688 247.5344,1057.2969 Q246.4563,1057.75 245.1594,1057.75 Q243.6438,1057.75 242.4406,1057.125 Q241.4563,1056.625 240.7688,1055.5625 Q240.0813,1054.4844 240.0813,1053.2031 L240.0813,1052.0469 Q240.0813,1050.7188 240.6906,1049.5781 Q241.3156,1048.4219 242.4094,1047.8125 Q243.5031,1047.1875 244.7375,1047.1875 Q245.4719,1047.1875 246.1125,1047.3594 Q246.7688,1047.5156 247.3156,1047.875 Z " fill="#000000"/><text fill="#000000" font-family="sans-serif" font-size="14" lengthAdjust="spacing" textLength="54" x="261.45" y="1056.8535">Property</text><line style="stroke:#181818;stroke-width:0.5;" x1="217.5" x2="330.5" y1="1068" y2="1068"/><rect fill="none" height="6" style="stroke:#C82930;stroke-width:1.0;" width="6" x="224.5" y="1078.3203"/><text fill="#000000" font-family="sans-serif" font-size="14" lengthAdjust="spacing" textLength="89" x="236.5" y="1084.6738">propertyID: int</text><rect fill="none" height="6" style="stroke:#C82930;stroke-width:1.0;" width="6" x="224.5" y="1093.9609"/><text fill="#000000" font-family="sans-serif" font-size="14" lengthAdjust="spacing" textLength="78" x="236.5" y="1100.3145">name: string</text><line style="stroke:#181818;stroke-width:0.5;" x1="217.5" x2="330.5" y1="1107.2813" y2="1107.2813"/></g><!--link DivideUI to DivideController--><g id="link_DivideUI_DivideController"><path codeLine="49" d="M616,55.14 C616,85.06 616,137.5 616,172.74 " fill="none" id="DivideUI-to-DivideController" style="stroke:#181818;stroke-width:1.0;stroke-dasharray:7.0,7.0;"/><polygon fill="#181818" points="616,177.8,620,168.8,616,172.8,612,168.8,616,177.8" style="stroke:#181818;stroke-width:1.0;"/></g><!--link DivideController to Repositories--><g id="link_DivideController_Repositories"><path codeLine="51" d="M587.9,242.14 C548,286.35 474.22,368.11 423.9,423.88 " fill="none" id="DivideController-to-Repositories" style="stroke:#181818;stroke-width:1.0;stroke-dasharray:7.0,7.0;"/><polygon fill="#181818" points="420.32,427.85,429.3224,423.8553,423.6727,424.1406,423.3874,418.491,420.32,427.85" style="stroke:#181818;stroke-width:1.0;"/></g><!--link Repositories to Repositories--><g id="link_Repositories_Repositories"><path codeLine="52" d="M566.06,469.99 C587.31,472.57 601,477.08 601,483.5 C601,489.37 589.56,493.64 571.37,496.31 " fill="none" id="Repositories-to-Repositories" style="stroke:#181818;stroke-width:1.0;"/><polygon fill="#181818" points="566.06,497.01,575.5154,499.7658,571.0148,496.3389,574.4417,491.8382,566.06,497.01" style="stroke:#181818;stroke-width:1.0;"/><text fill="#000000" font-family="sans-serif" font-size="13" lengthAdjust="spacing" textLength="49" x="607" y="488.2686">instance</text></g><!--link Repositories to StoreRepository--><g id="link_Repositories_StoreRepository"><path codeLine="53" d="M459.14,539.01 C494.47,560.87 534.09,585.37 565.17,604.59 " fill="none" id="Repositories-to-StoreRepository" style="stroke:#181818;stroke-width:1.0;"/><polygon fill="#181818" points="569.69,607.39,564.1336,599.2582,565.4356,604.7631,559.9307,606.0652,569.69,607.39" style="stroke:#181818;stroke-width:1.0;"/></g><!--link Repositories to AnnouncementRepository--><g id="link_Repositories_AnnouncementRepository"><path codeLine="54" d="M336.53,539.23 C324.88,557.72 312.05,578.08 301.07,595.53 " fill="none" id="Repositories-to-AnnouncementRepository" style="stroke:#181818;stroke-width:1.0;"/><polygon fill="#181818" points="298.31,599.9,306.4853,594.4078,300.9703,595.6664,299.7116,590.1514,298.31,599.9" style="stroke:#181818;stroke-width:1.0;"/></g><!--link DivideController to AnnouncementRepository--><g id="link_DivideController_AnnouncementRepository"><path codeLine="55" d="M550.38,242.09 C423.74,302.09 158,428 158,428 C158,428 158,539 158,539 C158,539 193.32,569.29 224.98,596.45 " fill="none" id="DivideController-to-AnnouncementRepository" style="stroke:#181818;stroke-width:1.0;stroke-dasharray:7.0,7.0;"/><polygon fill="#181818" points="228.82,599.75,224.5899,590.8559,225.0237,596.496,219.3835,596.9299,228.82,599.75" style="stroke:#181818;stroke-width:1.0;"/></g><!--link DivideController to BruteForce--><g id="link_DivideController_BruteForce"><path codeLine="56" d="M689.84,235.15 C747.57,254.04 828.43,280.49 891.98,301.28 " fill="none" id="DivideController-to-BruteForce" style="stroke:#181818;stroke-width:1.0;"/><polygon fill="#181818" points="896.91,302.89,889.6009,296.2887,892.1581,301.3346,887.1122,303.8918,896.91,302.89" style="stroke:#181818;stroke-width:1.0;"/></g><!--link DivideController to StoreRepository--><g id="link_DivideController_StoreRepository"><path codeLine="57" d="M622.59,242.09 C635.31,302.09 662,428 662,428 C662,428 662,539 662,539 C662,539 647.25,573.95 635.23,602.42 " fill="none" id="DivideController-to-StoreRepository" style="stroke:#181818;stroke-width:1.0;stroke-dasharray:7.0,7.0;"/><polygon fill="#181818" points="633.17,607.29,640.3565,600.5555,635.1154,602.684,632.9869,597.4428,633.17,607.29" style="stroke:#181818;stroke-width:1.0;"/></g><!--link AnnouncementRepository to Announcement--><g id="link_AnnouncementRepository_Announcement"><path codeLine="58" d="M274,679.07 C274,729.54 274,818.17 274,874.52 " fill="none" id="AnnouncementRepository-to-Announcement" style="stroke:#181818;stroke-width:1.0;"/><polygon fill="#181818" points="274,879.54,278,870.54,274,874.54,270,870.54,274,879.54" style="stroke:#181818;stroke-width:1.0;"/><text fill="#000000" font-family="sans-serif" font-size="13" lengthAdjust="spacing" textLength="7" x="266.3766" y="699.1554">1</text><text fill="#000000" font-family="sans-serif" font-size="13" lengthAdjust="spacing" textLength="5" x="268.6328" y="869.2805">*</text></g><!--link DivideController to Store--><g id="link_DivideController_Store"><path codeLine="59" d="M654.61,242.04 C699.93,278.48 769,334 769,334 C769,334 769,334 769,640.5 C769,640.5 733,679 733,679 C733,679 698.87,709.05 668.13,736.12 " fill="none" id="DivideController-to-Store" style="stroke:#181818;stroke-width:1.0;stroke-dasharray:7.0,7.0;"/><polygon fill="#181818" points="664.01,739.75,673.4061,736.7983,667.7604,736.4433,668.1154,730.7976,664.01,739.75" style="stroke:#181818;stroke-width:1.0;"/><text fill="#000000" font-family="sans-serif" font-size="13" lengthAdjust="spacing" textLength="7" x="664.2258" y="729.2128">1</text></g><!--link DivideController to Announcement--><g id="link_DivideController_Announcement"><path codeLine="60" d="M542.42,225.84 C380.18,258.55 6,334 6,334 C6,334 6,334 6,780.5 C6,780.5 112.38,838.45 191.09,881.33 " fill="none" id="DivideController-to-Announcement" style="stroke:#181818;stroke-width:1.0;stroke-dasharray:7.0,7.0;"/><polygon fill="#181818" points="195.76,883.88,189.7851,876.0506,191.3738,881.4797,185.9446,883.0685,195.76,883.88" style="stroke:#181818;stroke-width:1.0;"/><text fill="#000000" font-family="sans-serif" font-size="13" lengthAdjust="spacing" textLength="7" x="180.9692" y="876.8525">1</text></g><!--link Announcement to Property--><g id="link_Announcement_Property"><path codeLine="62" d="M274,975.1 C274,992.79 274,1012.88 274,1030.35 " fill="none" id="Announcement-to-Property" style="stroke:#181818;stroke-width:1.0;"/><polygon fill="#181818" points="274,1035.68,278,1026.68,274,1030.68,270,1026.68,274,1035.68" style="stroke:#181818;stroke-width:1.0;"/><text fill="#000000" font-family="sans-serif" font-size="13" lengthAdjust="spacing" textLength="7" x="266.3766" y="1025.1303">1</text></g><!--link StoreRepository to Store--><g id="link_StoreRepository_Store"><path codeLine="64" d="M620,671.81 C620,692.01 620,718.43 620,739.92 " fill="none" id="StoreRepository-Store" style="stroke:#181818;stroke-width:1.0;"/><text fill="#000000" font-family="sans-serif" font-size="13" lengthAdjust="spacing" textLength="7" x="612.3547" y="690.9077">1</text><text fill="#000000" font-family="sans-serif" font-size="13" lengthAdjust="spacing" textLength="5" x="614.5391" y="729.1227">*</text></g><!--link Store to Announcement--><g id="link_Store_Announcement"><path codeLine="66" d="M567.83,802.52 C511.96,826.09 422.53,863.82 356.99,891.48 " fill="none" id="Store-to-Announcement" style="stroke:#181818;stroke-width:1.0;"/><polygon fill="#181818" points="352.31,893.45,362.1572,893.6331,356.916,891.5046,359.0445,886.2635,352.31,893.45" style="stroke:#181818;stroke-width:1.0;"/><text fill="#000000" font-family="sans-serif" font-size="13" lengthAdjust="spacing" textLength="7" x="553.0014" y="802.5584">1</text><text fill="#000000" font-family="sans-serif" font-size="13" lengthAdjust="spacing" textLength="5" x="360.0122" y="887.3346">*</text></g><!--SRC=[ZLF1IiGm4BttAq9Fkqe5huiig8jGy20kVa3iZZLiDWcPh5B4VpT9cxP9syLJs_VUl9b9Nl78XAAQdeYYrP7Mi3SD1wAXCbJK73Bi1VX93_ARYPfyK8vZXZC1fb50bEID-yYoYbD4icDVx01l9Vd9VcFiKGgZ9UUWBKV8DJbuk1H6xi_l20PNww7c5PH4PgHcW5vVH90tgC6K0ktK5QpMcrb-Rp-X9nedIw2Wl1T2dgtJ2OI92-QPOTJ4iDikD7zcQ9oBUzvvP3kKpbiF3cCU7nfVNkvMs3utX0aJhCVIRQX_qLA1DdwDy3vqVz1d0qzILx1u8nXMY1PmfzWAabFeRceydmS4FS76mjfcQNxxhfAEeB71n55rsypj5P3ECqWl3TJ7jhWfjfF01duKOQ-B4XSbjaXOubgtKPqAqqHE10i9d1_gtsAh7HAmO9QEjX3O_3RtVlbL7lLVS7Loxto1ZsoYlcqdA-blFaj_mNOUFqxRfrKip_a7]--></g></svg>