<?xml version="1.0" encoding="us-ascii" standalone="no"?><svg xmlns="http://www.w3.org/2000/svg" xmlns:xlink="http://www.w3.org/1999/xlink" contentStyleType="text/css" height="748px" preserveAspectRatio="none" style="width:683px;height:748px;background:#FFFFFF;" version="1.1" viewBox="0 0 683 748" width="683px" zoomAndPan="magnify"><defs/><g><!--class CreateUserUI--><g id="elem_CreateUserUI"><rect codeLine="11" fill="#F1F1F1" height="48" id="CreateUserUI" rx="2.5" ry="2.5" style="stroke:#181818;stroke-width:0.5;" width="116" x="283.5" y="7"/><ellipse cx="298.5" cy="23" fill="#ADD1B2" rx="11" ry="11" style="stroke:#181818;stroke-width:1.0;"/><path d="M301.2656,18.875 Q301.4219,18.6563 301.6094,18.5469 Q301.7969,18.4375 302.0156,18.4375 Q302.3906,18.4375 302.625,18.7031 Q302.8594,18.9531 302.8594,19.5625 L302.8594,21.0156 Q302.8594,21.625 302.625,21.8906 Q302.3906,22.1563 302.0156,22.1563 Q301.6719,22.1563 301.4688,21.9531 Q301.2656,21.7656 301.1563,21.25 Q301.1094,20.8906 300.9219,20.7031 Q300.5938,20.3281 299.9844,20.1094 Q299.375,19.8906 298.75,19.8906 Q297.9844,19.8906 297.3438,20.2188 Q296.7188,20.5469 296.2188,21.2969 Q295.7344,22.0469 295.7344,23.0781 L295.7344,24.1719 Q295.7344,25.4063 296.625,26.2344 Q297.5156,27.0469 299.1094,27.0469 Q300.0469,27.0469 300.7031,26.7969 Q301.0938,26.6406 301.5156,26.2031 Q301.7813,25.9375 301.9219,25.8594 Q302.0781,25.7813 302.2813,25.7813 Q302.6094,25.7813 302.8594,26.0469 Q303.125,26.2969 303.125,26.6406 Q303.125,26.9844 302.7813,27.3906 Q302.2813,27.9688 301.4844,28.2969 Q300.4063,28.75 299.1094,28.75 Q297.5938,28.75 296.3906,28.125 Q295.4063,27.625 294.7188,26.5625 Q294.0313,25.4844 294.0313,24.2031 L294.0313,23.0469 Q294.0313,21.7188 294.6406,20.5781 Q295.2656,19.4219 296.3594,18.8125 Q297.4531,18.1875 298.6875,18.1875 Q299.4219,18.1875 300.0625,18.3594 Q300.7188,18.5156 301.2656,18.875 Z " fill="#000000"/><text fill="#000000" font-family="sans-serif" font-size="14" lengthAdjust="spacing" textLength="84" x="312.5" y="27.8535">CreateUserUI</text><line style="stroke:#181818;stroke-width:0.5;" x1="284.5" x2="398.5" y1="39" y2="39"/><line style="stroke:#181818;stroke-width:0.5;" x1="284.5" x2="398.5" y1="47" y2="47"/></g><!--class CreateUserController--><g id="elem_CreateUserController"><rect codeLine="14" fill="#F1F1F1" height="63.6406" id="CreateUserController" rx="2.5" ry="2.5" style="stroke:#181818;stroke-width:0.5;" width="669" x="7" y="116"/><ellipse cx="270.25" cy="132" fill="#ADD1B2" rx="11" ry="11" style="stroke:#181818;stroke-width:1.0;"/><path d="M273.0156,127.875 Q273.1719,127.6563 273.3594,127.5469 Q273.5469,127.4375 273.7656,127.4375 Q274.1406,127.4375 274.375,127.7031 Q274.6094,127.9531 274.6094,128.5625 L274.6094,130.0156 Q274.6094,130.625 274.375,130.8906 Q274.1406,131.1563 273.7656,131.1563 Q273.4219,131.1563 273.2188,130.9531 Q273.0156,130.7656 272.9063,130.25 Q272.8594,129.8906 272.6719,129.7031 Q272.3438,129.3281 271.7344,129.1094 Q271.125,128.8906 270.5,128.8906 Q269.7344,128.8906 269.0938,129.2188 Q268.4688,129.5469 267.9688,130.2969 Q267.4844,131.0469 267.4844,132.0781 L267.4844,133.1719 Q267.4844,134.4063 268.375,135.2344 Q269.2656,136.0469 270.8594,136.0469 Q271.7969,136.0469 272.4531,135.7969 Q272.8438,135.6406 273.2656,135.2031 Q273.5313,134.9375 273.6719,134.8594 Q273.8281,134.7813 274.0313,134.7813 Q274.3594,134.7813 274.6094,135.0469 Q274.875,135.2969 274.875,135.6406 Q274.875,135.9844 274.5313,136.3906 Q274.0313,136.9688 273.2344,137.2969 Q272.1563,137.75 270.8594,137.75 Q269.3438,137.75 268.1406,137.125 Q267.1563,136.625 266.4688,135.5625 Q265.7813,134.4844 265.7813,133.2031 L265.7813,132.0469 Q265.7813,130.7188 266.3906,129.5781 Q267.0156,128.4219 268.1094,127.8125 Q269.2031,127.1875 270.4375,127.1875 Q271.1719,127.1875 271.8125,127.3594 Q272.4688,127.5156 273.0156,127.875 Z " fill="#000000"/><text fill="#000000" font-family="sans-serif" font-size="14" lengthAdjust="spacing" textLength="134" x="290.75" y="136.8535">CreateUserController</text><line style="stroke:#181818;stroke-width:0.5;" x1="8" x2="675" y1="148" y2="148"/><line style="stroke:#181818;stroke-width:0.5;" x1="8" x2="675" y1="156" y2="156"/><text fill="#000000" font-family="sans-serif" font-size="14" lengthAdjust="spacing" textLength="657" x="13" y="172.6738">+createUser(name, passportCardNumber, taxNumber, address, emailAddress, phoneNumber, password)</text></g><!--class Repositories--><g id="elem_Repositories"><rect codeLine="18" fill="#F1F1F1" height="94.9219" id="Repositories" rx="2.5" ry="2.5" style="stroke:#181818;stroke-width:0.5;" width="147" x="268" y="241"/><ellipse cx="299.2" cy="257" fill="#ADD1B2" rx="11" ry="11" style="stroke:#181818;stroke-width:1.0;"/><path d="M301.9656,252.875 Q302.1219,252.6563 302.3094,252.5469 Q302.4969,252.4375 302.7156,252.4375 Q303.0906,252.4375 303.325,252.7031 Q303.5594,252.9531 303.5594,253.5625 L303.5594,255.0156 Q303.5594,255.625 303.325,255.8906 Q303.0906,256.1563 302.7156,256.1563 Q302.3719,256.1563 302.1688,255.9531 Q301.9656,255.7656 301.8563,255.25 Q301.8094,254.8906 301.6219,254.7031 Q301.2938,254.3281 300.6844,254.1094 Q300.075,253.8906 299.45,253.8906 Q298.6844,253.8906 298.0438,254.2188 Q297.4188,254.5469 296.9188,255.2969 Q296.4344,256.0469 296.4344,257.0781 L296.4344,258.1719 Q296.4344,259.4063 297.325,260.2344 Q298.2156,261.0469 299.8094,261.0469 Q300.7469,261.0469 301.4031,260.7969 Q301.7938,260.6406 302.2156,260.2031 Q302.4813,259.9375 302.6219,259.8594 Q302.7781,259.7813 302.9813,259.7813 Q303.3094,259.7813 303.5594,260.0469 Q303.825,260.2969 303.825,260.6406 Q303.825,260.9844 303.4813,261.3906 Q302.9813,261.9688 302.1844,262.2969 Q301.1063,262.75 299.8094,262.75 Q298.2938,262.75 297.0906,262.125 Q296.1063,261.625 295.4188,260.5625 Q294.7313,259.4844 294.7313,258.2031 L294.7313,257.0469 Q294.7313,255.7188 295.3406,254.5781 Q295.9656,253.4219 297.0594,252.8125 Q298.1531,252.1875 299.3875,252.1875 Q300.1219,252.1875 300.7625,252.3594 Q301.4188,252.5156 301.9656,252.875 Z " fill="#000000"/><text fill="#000000" font-family="sans-serif" font-size="14" lengthAdjust="spacing" textLength="79" x="316.8" y="261.8535">Repositories</text><line style="stroke:#181818;stroke-width:0.5;" x1="269" x2="414" y1="273" y2="273"/><line style="stroke:#181818;stroke-width:0.5;" x1="269" x2="414" y1="281" y2="281"/><text fill="#000000" font-family="sans-serif" font-size="14" lengthAdjust="spacing" textLength="97" x="274" y="297.6738">+Repositories()</text><text fill="#000000" font-family="sans-serif" font-size="14" lengthAdjust="spacing" textLength="91" x="274" y="313.3145">+getInstance()</text><text fill="#000000" font-family="sans-serif" font-size="14" lengthAdjust="spacing" textLength="135" x="274" y="328.9551">+getUserRepository()</text></g><!--class UserRepository--><g id="elem_UserRepository"><rect codeLine="24" fill="#F1F1F1" height="126.2031" id="UserRepository" rx="2.5" ry="2.5" style="stroke:#181818;stroke-width:0.5;" width="669" x="7" y="397"/><ellipse cx="288.75" cy="413" fill="#ADD1B2" rx="11" ry="11" style="stroke:#181818;stroke-width:1.0;"/><path d="M291.5156,408.875 Q291.6719,408.6563 291.8594,408.5469 Q292.0469,408.4375 292.2656,408.4375 Q292.6406,408.4375 292.875,408.7031 Q293.1094,408.9531 293.1094,409.5625 L293.1094,411.0156 Q293.1094,411.625 292.875,411.8906 Q292.6406,412.1563 292.2656,412.1563 Q291.9219,412.1563 291.7188,411.9531 Q291.5156,411.7656 291.4063,411.25 Q291.3594,410.8906 291.1719,410.7031 Q290.8438,410.3281 290.2344,410.1094 Q289.625,409.8906 289,409.8906 Q288.2344,409.8906 287.5938,410.2188 Q286.9688,410.5469 286.4688,411.2969 Q285.9844,412.0469 285.9844,413.0781 L285.9844,414.1719 Q285.9844,415.4063 286.875,416.2344 Q287.7656,417.0469 289.3594,417.0469 Q290.2969,417.0469 290.9531,416.7969 Q291.3438,416.6406 291.7656,416.2031 Q292.0313,415.9375 292.1719,415.8594 Q292.3281,415.7813 292.5313,415.7813 Q292.8594,415.7813 293.1094,416.0469 Q293.375,416.2969 293.375,416.6406 Q293.375,416.9844 293.0313,417.3906 Q292.5313,417.9688 291.7344,418.2969 Q290.6563,418.75 289.3594,418.75 Q287.8438,418.75 286.6406,418.125 Q285.6563,417.625 284.9688,416.5625 Q284.2813,415.4844 284.2813,414.2031 L284.2813,413.0469 Q284.2813,411.7188 284.8906,410.5781 Q285.5156,409.4219 286.6094,408.8125 Q287.7031,408.1875 288.9375,408.1875 Q289.6719,408.1875 290.3125,408.3594 Q290.9688,408.5156 291.5156,408.875 Z " fill="#000000"/><text fill="#000000" font-family="sans-serif" font-size="14" lengthAdjust="spacing" textLength="97" x="309.25" y="417.8535">UserRepository</text><line style="stroke:#181818;stroke-width:0.5;" x1="8" x2="675" y1="429" y2="429"/><text fill="#000000" font-family="sans-serif" font-size="14" lengthAdjust="spacing" textLength="110" x="13" y="445.6738">+List &lt;user&gt; user</text><text fill="#000000" font-family="sans-serif" font-size="14" lengthAdjust="spacing" textLength="165" x="13" y="461.3145">+checkIfUserAlreadyExists</text><text fill="#000000" font-family="sans-serif" font-size="14" lengthAdjust="spacing" textLength="86" x="13" y="476.9551">+validateUser</text><line style="stroke:#181818;stroke-width:0.5;" x1="8" x2="675" y1="483.9219" y2="483.9219"/><text fill="#000000" font-family="sans-serif" font-size="14" lengthAdjust="spacing" textLength="657" x="13" y="500.5957">+createUser(name, passportCardNumber, taxNumber, address, emailAddress, phoneNumber, password)</text><text fill="#000000" font-family="sans-serif" font-size="14" lengthAdjust="spacing" textLength="71" x="13" y="516.2363">+addUser()</text></g><!--class User--><g id="elem_User"><rect codeLine="32" fill="#F1F1F1" height="157.4844" id="User" rx="2.5" ry="2.5" style="stroke:#181818;stroke-width:0.5;" width="200" x="241.5" y="584"/><ellipse cx="322.75" cy="600" fill="#ADD1B2" rx="11" ry="11" style="stroke:#181818;stroke-width:1.0;"/><path d="M325.5156,595.875 Q325.6719,595.6563 325.8594,595.5469 Q326.0469,595.4375 326.2656,595.4375 Q326.6406,595.4375 326.875,595.7031 Q327.1094,595.9531 327.1094,596.5625 L327.1094,598.0156 Q327.1094,598.625 326.875,598.8906 Q326.6406,599.1563 326.2656,599.1563 Q325.9219,599.1563 325.7188,598.9531 Q325.5156,598.7656 325.4063,598.25 Q325.3594,597.8906 325.1719,597.7031 Q324.8438,597.3281 324.2344,597.1094 Q323.625,596.8906 323,596.8906 Q322.2344,596.8906 321.5938,597.2188 Q320.9688,597.5469 320.4688,598.2969 Q319.9844,599.0469 319.9844,600.0781 L319.9844,601.1719 Q319.9844,602.4063 320.875,603.2344 Q321.7656,604.0469 323.3594,604.0469 Q324.2969,604.0469 324.9531,603.7969 Q325.3438,603.6406 325.7656,603.2031 Q326.0313,602.9375 326.1719,602.8594 Q326.3281,602.7813 326.5313,602.7813 Q326.8594,602.7813 327.1094,603.0469 Q327.375,603.2969 327.375,603.6406 Q327.375,603.9844 327.0313,604.3906 Q326.5313,604.9688 325.7344,605.2969 Q324.6563,605.75 323.3594,605.75 Q321.8438,605.75 320.6406,605.125 Q319.6563,604.625 318.9688,603.5625 Q318.2813,602.4844 318.2813,601.2031 L318.2813,600.0469 Q318.2813,598.7188 318.8906,597.5781 Q319.5156,596.4219 320.6094,595.8125 Q321.7031,595.1875 322.9375,595.1875 Q323.6719,595.1875 324.3125,595.3594 Q324.9688,595.5156 325.5156,595.875 Z " fill="#000000"/><text fill="#000000" font-family="sans-serif" font-size="14" lengthAdjust="spacing" textLength="29" x="343.25" y="604.8535">User</text><line style="stroke:#181818;stroke-width:0.5;" x1="242.5" x2="440.5" y1="616" y2="616"/><text fill="#000000" font-family="sans-serif" font-size="14" lengthAdjust="spacing" textLength="81" x="247.5" y="632.6738">-String name</text><text fill="#000000" font-family="sans-serif" font-size="14" lengthAdjust="spacing" textLength="188" x="247.5" y="648.3145">-Integer passportCardNumber</text><text fill="#000000" font-family="sans-serif" font-size="14" lengthAdjust="spacing" textLength="120" x="247.5" y="663.9551">-integer taxNumber</text><text fill="#000000" font-family="sans-serif" font-size="14" lengthAdjust="spacing" textLength="97" x="247.5" y="679.5957">-String address</text><text fill="#000000" font-family="sans-serif" font-size="14" lengthAdjust="spacing" textLength="131" x="247.5" y="695.2363">-String emailAddress</text><text fill="#000000" font-family="sans-serif" font-size="14" lengthAdjust="spacing" textLength="142" x="247.5" y="710.877">-integer phoneNumber</text><text fill="#000000" font-family="sans-serif" font-size="14" lengthAdjust="spacing" textLength="106" x="247.5" y="726.5176">-String password</text><line style="stroke:#181818;stroke-width:0.5;" x1="242.5" x2="440.5" y1="733.4844" y2="733.4844"/></g><!--link CreateUserUI to CreateUserController--><g id="link_CreateUserUI_CreateUserController"><path codeLine="42" d="M341.5,55.27 C341.5,71.23 341.5,92.72 341.5,110.88 " fill="none" id="CreateUserUI-to-CreateUserController" style="stroke:#181818;stroke-width:1.0;stroke-dasharray:7.0,7.0;"/><polygon fill="#181818" points="341.5,115.91,345.5,106.91,341.5,110.91,337.5,106.91,341.5,115.91" style="stroke:#181818;stroke-width:1.0;"/></g><!--link CreateUserController to Repositories--><g id="link_CreateUserController_Repositories"><path codeLine="44" d="M341.5,180.08 C341.5,196.48 341.5,217.04 341.5,235.77 " fill="none" id="CreateUserController-to-Repositories" style="stroke:#181818;stroke-width:1.0;stroke-dasharray:7.0,7.0;"/><polygon fill="#181818" points="341.5,241,345.5,232,341.5,236,337.5,232,341.5,241" style="stroke:#181818;stroke-width:1.0;"/></g><!--link Repositories to UserRepository--><g id="link_Repositories_UserRepository"><path codeLine="46" d="M341.5,336.27 C341.5,353.37 341.5,373.08 341.5,391.63 " fill="none" id="Repositories-to-UserRepository" style="stroke:#181818;stroke-width:1.0;"/><polygon fill="#181818" points="341.5,396.83,345.5,387.83,341.5,391.83,337.5,387.83,341.5,396.83" style="stroke:#181818;stroke-width:1.0;"/></g><!--link Repositories to Repositories--><g id="link_Repositories_Repositories"><path codeLine="48" d="M415.03,273.98 C434.89,274.75 450,279.59 450,288.5 C450,296.65 437.38,301.39 420.04,302.73 " fill="none" id="Repositories-to-Repositories" style="stroke:#181818;stroke-width:1.0;"/><polygon fill="#181818" points="415.03,303.02,424.2435,306.5,420.0219,302.7348,423.7871,298.5131,415.03,303.02" style="stroke:#181818;stroke-width:1.0;"/><text fill="#000000" font-family="sans-serif" font-size="13" lengthAdjust="spacing" textLength="49" x="456" y="293.2686">instance</text></g><!--link UserRepository to User--><g id="link_UserRepository_User"><path codeLine="49" d="M341.5,523.07 C341.5,540.62 341.5,560.02 341.5,578.59 " fill="none" id="UserRepository-to-User" style="stroke:#181818;stroke-width:1.0;"/><polygon fill="#181818" points="341.5,583.8,345.5,574.8,341.5,578.8,337.5,574.8,341.5,583.8" style="stroke:#181818;stroke-width:1.0;"/></g><!--SRC=[jL9DRy8m3BtdL_W6Y0_jF4r82ErGQTfXY1yGKjD6f4dbk8CExR_FPK1JZUikLTxpi_rSUnGFrjUQT0LLyC6K52e4fWPL7wcrEUW2Dzmw14B3sXSk5SHIv-5eVG5xxM8QSTOZjpL27LpR0JLw40p4GILPnkaOLynaTmrZPeBVs2-49wL63lSC781iKJBajhDZWrVgaWDhGisuZKZRxAo-_zBhu9c2SqXdDJLtUknrXJEPDCPQtAmrvUzDjKEQ0UlJxQdpd3366M2bhLlTK5q6ZpTDL-8OA9_qtJ-m3j5o88jHkgPmF57J0ZdpKNwgmIli7DrLxJWfDOn8CNYpaU6b4Nu9tLUe_nrhAl9BRNcQ4iqXstTmvQHhthwUn4zKqq_jR7vrCRH_LdFOo6hbMZftWZBFM20zi2b1UmtU_VRfLzyzaVfFKfD1UkrjeCvSUZMmc2yVtaigwrbOB9Q31IkL8fXBjU7I7WW6nBFu_hq6DKoyr_e1]--></g></svg>