<?xml version="1.0" encoding="us-ascii" standalone="no"?><svg xmlns="http://www.w3.org/2000/svg" xmlns:xlink="http://www.w3.org/1999/xlink" contentStyleType="text/css" height="620.4px" preserveAspectRatio="none" style="width:1933px;height:620px;background:#FFFFFF;" version="1.1" viewBox="0 0 1933 620" width="1933.8px" zoomAndPan="magnify"><defs/><g><!--class RegisterAnnouncementUI--><g id="elem_RegisterAnnouncementUI"><rect codeLine="11" fill="#F1F1F1" height="28.8" id="RegisterAnnouncementUI" rx="1.5" ry="1.5" style="stroke:#181818;stroke-width:0.3;" width="115.2" x="322.2" y="4.2"/><ellipse cx="331.2" cy="13.8" fill="#ADD1B2" rx="6.6" ry="6.6" style="stroke:#181818;stroke-width:0.6;"/><path d="M332.8594,11.325 Q332.9531,11.1938 333.0656,11.1281 Q333.1781,11.0625 333.3094,11.0625 Q333.5344,11.0625 333.675,11.2219 Q333.8156,11.3719 333.8156,11.7375 L333.8156,12.6094 Q333.8156,12.975 333.675,13.1344 Q333.5344,13.2938 333.3094,13.2938 Q333.1031,13.2938 332.9813,13.1719 Q332.8594,13.0594 332.7938,12.75 Q332.7656,12.5344 332.6531,12.4219 Q332.4563,12.1969 332.0906,12.0656 Q331.725,11.9344 331.35,11.9344 Q330.8906,11.9344 330.5062,12.1313 Q330.1312,12.3281 329.8313,12.7781 Q329.5406,13.2281 329.5406,13.8469 L329.5406,14.5031 Q329.5406,15.2437 330.075,15.7406 Q330.6094,16.2281 331.5656,16.2281 Q332.1281,16.2281 332.5219,16.0781 Q332.7562,15.9844 333.0094,15.7219 Q333.1688,15.5625 333.2531,15.5156 Q333.3469,15.4688 333.4688,15.4688 Q333.6656,15.4688 333.8156,15.6281 Q333.975,15.7781 333.975,15.9844 Q333.975,16.1906 333.7688,16.4344 Q333.4688,16.7813 332.9906,16.9781 Q332.3438,17.25 331.5656,17.25 Q330.6563,17.25 329.9344,16.875 Q329.3438,16.575 328.9313,15.9375 Q328.5188,15.2906 328.5188,14.5219 L328.5188,13.8281 Q328.5188,13.0313 328.8844,12.3469 Q329.2594,11.6531 329.9156,11.2875 Q330.5719,10.9125 331.3125,10.9125 Q331.7531,10.9125 332.1375,11.0156 Q332.5313,11.1094 332.8594,11.325 Z " fill="#000000"/><text fill="#000000" font-family="sans-serif" font-size="8.4" lengthAdjust="spacing" textLength="96" x="339.6" y="16.7121">RegisterAnnouncementUI</text><line style="stroke:#181818;stroke-width:0.3;" x1="322.8" x2="436.8" y1="23.4" y2="23.4"/><line style="stroke:#181818;stroke-width:0.3;" x1="322.8" x2="436.8" y1="28.2" y2="28.2"/></g><!--class RegisterAnnouncementController--><g id="elem_RegisterAnnouncementController"><rect codeLine="13" fill="#F1F1F1" height="441.7125" id="RegisterAnnouncementController" rx="1.5" ry="1.5" style="stroke:#181818;stroke-width:0.3;" width="751.2" x="4.2" y="54"/><ellipse cx="314.25" cy="63.6" fill="#ADD1B2" rx="6.6" ry="6.6" style="stroke:#181818;stroke-width:0.6;"/><path d="M315.9094,61.125 Q316.0031,60.9938 316.1156,60.9281 Q316.2281,60.8625 316.3594,60.8625 Q316.5844,60.8625 316.725,61.0219 Q316.8656,61.1719 316.8656,61.5375 L316.8656,62.4094 Q316.8656,62.775 316.725,62.9344 Q316.5844,63.0938 316.3594,63.0938 Q316.1531,63.0938 316.0313,62.9719 Q315.9094,62.8594 315.8438,62.55 Q315.8156,62.3344 315.7031,62.2219 Q315.5062,61.9969 315.1406,61.8656 Q314.775,61.7344 314.4,61.7344 Q313.9406,61.7344 313.5563,61.9313 Q313.1813,62.1281 312.8812,62.5781 Q312.5906,63.0281 312.5906,63.6469 L312.5906,64.3031 Q312.5906,65.0438 313.125,65.5406 Q313.6594,66.0281 314.6156,66.0281 Q315.1781,66.0281 315.5719,65.8781 Q315.8063,65.7844 316.0594,65.5219 Q316.2188,65.3625 316.3031,65.3156 Q316.3969,65.2688 316.5188,65.2688 Q316.7156,65.2688 316.8656,65.4281 Q317.025,65.5781 317.025,65.7844 Q317.025,65.9906 316.8187,66.2344 Q316.5188,66.5813 316.0406,66.7781 Q315.3938,67.05 314.6156,67.05 Q313.7063,67.05 312.9844,66.675 Q312.3938,66.375 311.9813,65.7375 Q311.5687,65.0906 311.5687,64.3219 L311.5687,63.6281 Q311.5687,62.8313 311.9344,62.1469 Q312.3094,61.4531 312.9656,61.0875 Q313.6219,60.7125 314.3625,60.7125 Q314.8031,60.7125 315.1875,60.8156 Q315.5813,60.9094 315.9094,61.125 Z " fill="#000000"/><text fill="#000000" font-family="sans-serif" font-size="8.4" lengthAdjust="spacing" textLength="126" x="326.55" y="66.5121">RegisterAnnouncementController</text><line style="stroke:#181818;stroke-width:0.3;" x1="4.8" x2="754.8" y1="73.2" y2="73.2"/><text fill="#000000" font-family="sans-serif" font-size="8.4" lengthAdjust="spacing" textLength="51" x="7.8" y="83.2043">-area: double</text><text fill="#000000" font-family="sans-serif" font-size="8.4" lengthAdjust="spacing" textLength="66" x="7.8" y="92.5887">-distance: integer</text><text fill="#000000" font-family="sans-serif" font-size="8.4" lengthAdjust="spacing" textLength="52.2" x="7.8" y="101.973">-price: double</text><text fill="#000000" font-family="sans-serif" font-size="8.4" lengthAdjust="spacing" textLength="100.8" x="7.8" y="111.3574">-photos: List&lt;Photograph&gt;</text><text fill="#000000" font-family="sans-serif" font-size="8.4" lengthAdjust="spacing" textLength="72" x="7.8" y="120.7418">-bedrooms: integer</text><text fill="#000000" font-family="sans-serif" font-size="8.4" lengthAdjust="spacing" textLength="74.4" x="7.8" y="130.1262">-bathrooms: integer</text><text fill="#000000" font-family="sans-serif" font-size="8.4" lengthAdjust="spacing" textLength="90.6" x="7.8" y="139.5105">-parkingSpaces: integer</text><text fill="#000000" font-family="sans-serif" font-size="8.4" lengthAdjust="spacing" textLength="178.2" x="7.8" y="148.8949">-availableEquipment: List&lt;availableEquipment&gt;</text><text fill="#000000" font-family="sans-serif" font-size="8.4" lengthAdjust="spacing" textLength="75.6" x="7.8" y="158.2793">-basement: boolean</text><text fill="#000000" font-family="sans-serif" font-size="8.4" lengthAdjust="spacing" textLength="49.8" x="7.8" y="167.6637">-loft: boolean</text><text fill="#000000" font-family="sans-serif" font-size="8.4" lengthAdjust="spacing" textLength="43.8" x="7.8" y="177.048">-sun: String</text><text fill="#000000" font-family="sans-serif" font-size="8.4" lengthAdjust="spacing" textLength="86.4" x="7.8" y="186.4324">-comissionType: String</text><text fill="#000000" font-family="sans-serif" font-size="8.4" lengthAdjust="spacing" textLength="70.8" x="7.8" y="195.8168">-comission: double</text><text fill="#000000" font-family="sans-serif" font-size="8.4" lengthAdjust="spacing" textLength="121.2" x="7.8" y="205.2012">-announcement: Announcement</text><text fill="#000000" font-family="sans-serif" font-size="8.4" lengthAdjust="spacing" textLength="72" x="7.8" y="214.5855">-property: Property</text><text fill="#000000" font-family="sans-serif" font-size="8.4" lengthAdjust="spacing" textLength="63" x="7.8" y="223.9699">-date: LocalDate</text><text fill="#000000" font-family="sans-serif" font-size="8.4" lengthAdjust="spacing" textLength="64.8" x="7.8" y="233.3543">-photoURI: String</text><line style="stroke:#181818;stroke-width:0.3;" x1="4.8" x2="754.8" y1="237.5344" y2="237.5344"/><text fill="#000000" font-family="sans-serif" font-size="8.4" lengthAdjust="spacing" textLength="85.8" x="7.8" y="247.5387">+getRegisteredUsers()</text><text fill="#000000" font-family="sans-serif" font-size="8.4" lengthAdjust="spacing" textLength="74.4" x="7.8" y="256.923">+getPropertyType()</text><text fill="#000000" font-family="sans-serif" font-size="8.4" lengthAdjust="spacing" textLength="124.8" x="7.8" y="266.3074">+setPropertyType(propertyType)</text><text fill="#000000" font-family="sans-serif" font-size="8.4" lengthAdjust="spacing" textLength="57.6" x="7.8" y="275.6918">+setArea(area)</text><text fill="#000000" font-family="sans-serif" font-size="8.4" lengthAdjust="spacing" textLength="119.4" x="7.8" y="285.0762">+setStreetAdress(streetAdress)</text><text fill="#000000" font-family="sans-serif" font-size="8.4" lengthAdjust="spacing" textLength="49.2" x="7.8" y="294.4605">+setCity(city)</text><text fill="#000000" font-family="sans-serif" font-size="8.4" lengthAdjust="spacing" textLength="60.6" x="7.8" y="303.8449">+setState(state)</text><text fill="#000000" font-family="sans-serif" font-size="8.4" lengthAdjust="spacing" textLength="117.6" x="7.8" y="313.2293">+setFloorNumber(floorNumber)</text><text fill="#000000" font-family="sans-serif" font-size="8.4" lengthAdjust="spacing" textLength="117" x="7.8" y="322.6137">+setDoorNumber(doorNumber)</text><text fill="#000000" font-family="sans-serif" font-size="8.4" lengthAdjust="spacing" textLength="207" x="7.8" y="331.998">+setDistanceFromCityCenter(distanceFromCityCenter)</text><text fill="#000000" font-family="sans-serif" font-size="8.4" lengthAdjust="spacing" textLength="60" x="7.8" y="341.3824">+setPrice(price)</text><text fill="#000000" font-family="sans-serif" font-size="8.4" lengthAdjust="spacing" textLength="151.2" x="7.8" y="350.7668">+setNumberOfPhotos(numberOfPhotos)</text><text fill="#000000" font-family="sans-serif" font-size="8.4" lengthAdjust="spacing" textLength="82.2" x="7.8" y="360.1512">+addPhoto(photoURI)</text><text fill="#000000" font-family="sans-serif" font-size="8.4" lengthAdjust="spacing" textLength="175.2" x="7.8" y="369.5355">+setNumberOfBedrooms(numberOfBedrooms)</text><text fill="#000000" font-family="sans-serif" font-size="8.4" lengthAdjust="spacing" textLength="180" x="7.8" y="378.9199">+setNumberOfBathrooms(numberOfBathrooms)</text><text fill="#000000" font-family="sans-serif" font-size="8.4" lengthAdjust="spacing" textLength="135.6" x="7.8" y="388.3043">+setParkingSpaces(parkingSpaces)</text><text fill="#000000" font-family="sans-serif" font-size="8.4" lengthAdjust="spacing" textLength="173.4" x="7.8" y="397.6887">+addAvailableEquipment(availableEquipment)</text><text fill="#000000" font-family="sans-serif" font-size="8.4" lengthAdjust="spacing" textLength="133.2" x="7.8" y="407.073">+setBasementExistence(basement)</text><text fill="#000000" font-family="sans-serif" font-size="8.4" lengthAdjust="spacing" textLength="84" x="7.8" y="416.4574">+setLoftExistence(loft)</text><text fill="#000000" font-family="sans-serif" font-size="8.4" lengthAdjust="spacing" textLength="121.8" x="7.8" y="425.8418">+setSunExposure(sunExposure)</text><text fill="#000000" font-family="sans-serif" font-size="8.4" lengthAdjust="spacing" textLength="136.8" x="7.8" y="435.2262">+setComissionType(comissionType)</text><text fill="#000000" font-family="sans-serif" font-size="8.4" lengthAdjust="spacing" textLength="98.4" x="7.8" y="444.6105">+setComission(comission)</text><text fill="#000000" font-family="sans-serif" font-size="8.4" lengthAdjust="spacing" textLength="57" x="7.8" y="453.9949">+setDate(date)</text><text fill="#000000" font-family="sans-serif" font-size="8.4" lengthAdjust="spacing" textLength="744" x="7.8" y="463.3793">+createProperty(address, area, distanceFromCityCenter, numberOfBathrooms, numberOfBedrooms, parking, availableEquipment, basement, sunExposure, loft, propertyType, photos, requestType)</text><text fill="#000000" font-family="sans-serif" font-size="8.4" lengthAdjust="spacing" textLength="471.6" x="7.8" y="472.7637">+createAnnouncement(property, date, commissionType, commission, requestType, propertyType, agent, store, owner, price)</text><text fill="#000000" font-family="sans-serif" font-size="8.4" lengthAdjust="spacing" textLength="138.6" x="7.8" y="482.148">+addAnnouncement(announcement)</text><text fill="#000000" font-family="sans-serif" font-size="8.4" lengthAdjust="spacing" textLength="108.6" x="7.8" y="491.5324">+createSMS(announcement)</text></g><!--class Repositories--><g id="elem_Repositories"><rect codeLine="61" fill="#F1F1F1" height="66.3375" id="Repositories" rx="1.5" ry="1.5" style="stroke:#181818;stroke-width:0.3;" width="133.8" x="797.4" y="108.3"/><ellipse cx="838.05" cy="117.9" fill="#ADD1B2" rx="6.6" ry="6.6" style="stroke:#181818;stroke-width:0.6;"/><path d="M839.7094,115.425 Q839.8031,115.2937 839.9156,115.2281 Q840.0281,115.1625 840.1594,115.1625 Q840.3844,115.1625 840.525,115.3219 Q840.6656,115.4719 840.6656,115.8375 L840.6656,116.7094 Q840.6656,117.075 840.525,117.2344 Q840.3844,117.3938 840.1594,117.3938 Q839.9531,117.3938 839.8313,117.2719 Q839.7094,117.1594 839.6438,116.85 Q839.6156,116.6344 839.5031,116.5219 Q839.3063,116.2969 838.9406,116.1656 Q838.575,116.0344 838.2,116.0344 Q837.7406,116.0344 837.3562,116.2312 Q836.9812,116.4281 836.6813,116.8781 Q836.3906,117.3281 836.3906,117.9469 L836.3906,118.6031 Q836.3906,119.3438 836.925,119.8406 Q837.4594,120.3281 838.4156,120.3281 Q838.9781,120.3281 839.3719,120.1781 Q839.6062,120.0844 839.8594,119.8219 Q840.0188,119.6625 840.1031,119.6156 Q840.1969,119.5688 840.3188,119.5688 Q840.5156,119.5688 840.6656,119.7281 Q840.825,119.8781 840.825,120.0844 Q840.825,120.2906 840.6188,120.5344 Q840.3188,120.8813 839.8406,121.0781 Q839.1938,121.35 838.4156,121.35 Q837.5063,121.35 836.7844,120.975 Q836.1938,120.675 835.7813,120.0375 Q835.3688,119.3906 835.3688,118.6219 L835.3688,117.9281 Q835.3688,117.1313 835.7344,116.4469 Q836.1094,115.7531 836.7656,115.3875 Q837.4219,115.0125 838.1625,115.0125 Q838.6031,115.0125 838.9875,115.1156 Q839.3813,115.2094 839.7094,115.425 Z " fill="#000000"/><text fill="#000000" font-family="sans-serif" font-size="8.4" lengthAdjust="spacing" textLength="47.4" x="850.35" y="120.8121">Repositories</text><line style="stroke:#181818;stroke-width:0.3;" x1="798" x2="930.6" y1="127.5" y2="127.5"/><line style="stroke:#181818;stroke-width:0.3;" x1="798" x2="930.6" y1="132.3" y2="132.3"/><text fill="#000000" font-family="sans-serif" font-size="8.4" lengthAdjust="spacing" textLength="54.6" x="801" y="142.3043">+getInstance()</text><text fill="#000000" font-family="sans-serif" font-size="8.4" lengthAdjust="spacing" textLength="115.2" x="801" y="151.6887">+getPropertyTypeRepository()</text><text fill="#000000" font-family="sans-serif" font-size="8.4" lengthAdjust="spacing" textLength="126.6" x="801" y="161.073">+getRegisteredUsersRepository()</text><text fill="#000000" font-family="sans-serif" font-size="8.4" lengthAdjust="spacing" textLength="120.6" x="801" y="170.4574">+getAnnouncementRepository()</text></g><!--class PropertyTypeRepository--><g id="elem_PropertyTypeRepository"><rect codeLine="69" fill="#F1F1F1" height="38.1844" id="PropertyTypeRepository" rx="1.5" ry="1.5" style="stroke:#181818;stroke-width:0.3;" width="111.6" x="808.5" y="255.6"/><ellipse cx="817.5" cy="265.2" fill="#ADD1B2" rx="6.6" ry="6.6" style="stroke:#181818;stroke-width:0.6;"/><path d="M819.1594,262.725 Q819.2531,262.5938 819.3656,262.5281 Q819.4781,262.4625 819.6094,262.4625 Q819.8344,262.4625 819.975,262.6219 Q820.1156,262.7719 820.1156,263.1375 L820.1156,264.0094 Q820.1156,264.375 819.975,264.5344 Q819.8344,264.6937 819.6094,264.6937 Q819.4031,264.6937 819.2813,264.5719 Q819.1594,264.4594 819.0938,264.15 Q819.0656,263.9344 818.9531,263.8219 Q818.7563,263.5969 818.3906,263.4656 Q818.025,263.3344 817.65,263.3344 Q817.1906,263.3344 816.8063,263.5313 Q816.4313,263.7281 816.1313,264.1781 Q815.8406,264.6281 815.8406,265.2469 L815.8406,265.9031 Q815.8406,266.6438 816.375,267.1406 Q816.9094,267.6281 817.8656,267.6281 Q818.4281,267.6281 818.8219,267.4781 Q819.0563,267.3844 819.3094,267.1219 Q819.4688,266.9625 819.5531,266.9156 Q819.6469,266.8688 819.7688,266.8688 Q819.9656,266.8688 820.1156,267.0281 Q820.275,267.1781 820.275,267.3844 Q820.275,267.5906 820.0688,267.8344 Q819.7688,268.1813 819.2906,268.3781 Q818.6438,268.65 817.8656,268.65 Q816.9563,268.65 816.2344,268.275 Q815.6438,267.975 815.2312,267.3375 Q814.8188,266.6906 814.8188,265.9219 L814.8188,265.2281 Q814.8188,264.4313 815.1844,263.7469 Q815.5594,263.0531 816.2156,262.6875 Q816.8719,262.3125 817.6125,262.3125 Q818.0531,262.3125 818.4375,262.4156 Q818.8313,262.5094 819.1594,262.725 Z " fill="#000000"/><text fill="#000000" font-family="sans-serif" font-size="8.4" lengthAdjust="spacing" textLength="92.4" x="825.9" y="268.1121">PropertyTypeRepository</text><line style="stroke:#181818;stroke-width:0.3;" x1="809.1" x2="919.5" y1="274.8" y2="274.8"/><line style="stroke:#181818;stroke-width:0.3;" x1="809.1" x2="919.5" y1="279.6" y2="279.6"/><text fill="#000000" font-family="sans-serif" font-size="8.4" lengthAdjust="spacing" textLength="74.4" x="812.1" y="289.6043">+getPropertyType()</text></g><!--class RegistedUsersRepository--><g id="elem_RegistedUsersRepository"><rect codeLine="74" fill="#F1F1F1" height="38.1844" id="RegistedUsersRepository" rx="1.5" ry="1.5" style="stroke:#181818;stroke-width:0.3;" width="115.2" x="806.7" y="315"/><ellipse cx="815.7" cy="324.6" fill="#ADD1B2" rx="6.6" ry="6.6" style="stroke:#181818;stroke-width:0.6;"/><path d="M817.3594,322.125 Q817.4531,321.9938 817.5656,321.9281 Q817.6781,321.8625 817.8094,321.8625 Q818.0344,321.8625 818.175,322.0219 Q818.3156,322.1719 818.3156,322.5375 L818.3156,323.4094 Q818.3156,323.775 818.175,323.9344 Q818.0344,324.0938 817.8094,324.0938 Q817.6031,324.0938 817.4812,323.9719 Q817.3594,323.8594 817.2937,323.55 Q817.2656,323.3344 817.1531,323.2219 Q816.9563,322.9969 816.5906,322.8656 Q816.225,322.7344 815.85,322.7344 Q815.3906,322.7344 815.0063,322.9313 Q814.6313,323.1281 814.3313,323.5781 Q814.0406,324.0281 814.0406,324.6469 L814.0406,325.3031 Q814.0406,326.0438 814.575,326.5406 Q815.1094,327.0281 816.0656,327.0281 Q816.6281,327.0281 817.0219,326.8781 Q817.2563,326.7844 817.5094,326.5219 Q817.6687,326.3625 817.7531,326.3156 Q817.8469,326.2688 817.9688,326.2688 Q818.1656,326.2688 818.3156,326.4281 Q818.475,326.5781 818.475,326.7844 Q818.475,326.9906 818.2688,327.2344 Q817.9688,327.5813 817.4906,327.7781 Q816.8438,328.05 816.0656,328.05 Q815.1563,328.05 814.4344,327.675 Q813.8438,327.375 813.4313,326.7375 Q813.0188,326.0906 813.0188,325.3219 L813.0188,324.6281 Q813.0188,323.8313 813.3844,323.1469 Q813.7594,322.4531 814.4156,322.0875 Q815.0719,321.7125 815.8125,321.7125 Q816.2531,321.7125 816.6375,321.8156 Q817.0313,321.9094 817.3594,322.125 Z " fill="#000000"/><text fill="#000000" font-family="sans-serif" font-size="8.4" lengthAdjust="spacing" textLength="96" x="824.1" y="327.5121">RegistedUsersRepository</text><line style="stroke:#181818;stroke-width:0.3;" x1="807.3" x2="921.3" y1="334.2" y2="334.2"/><line style="stroke:#181818;stroke-width:0.3;" x1="807.3" x2="921.3" y1="339" y2="339"/><text fill="#000000" font-family="sans-serif" font-size="8.4" lengthAdjust="spacing" textLength="85.8" x="810.3" y="349.0043">+getRegisteredUsers()</text></g><!--class Announcement--><g id="elem_Announcement"><rect codeLine="79" fill="#F1F1F1" height="132.0281" id="Announcement" rx="1.5" ry="1.5" style="stroke:#181818;stroke-width:0.3;" width="478.8" x="1105.2" y="149.4"/><ellipse cx="1313.55" cy="159" fill="#ADD1B2" rx="6.6" ry="6.6" style="stroke:#181818;stroke-width:0.6;"/><path d="M1315.2094,156.525 Q1315.3031,156.3937 1315.4156,156.3281 Q1315.5281,156.2625 1315.6594,156.2625 Q1315.8844,156.2625 1316.025,156.4219 Q1316.1656,156.5719 1316.1656,156.9375 L1316.1656,157.8094 Q1316.1656,158.175 1316.025,158.3344 Q1315.8844,158.4938 1315.6594,158.4938 Q1315.4531,158.4938 1315.3313,158.3719 Q1315.2094,158.2594 1315.1438,157.95 Q1315.1156,157.7344 1315.0031,157.6219 Q1314.8062,157.3969 1314.4406,157.2656 Q1314.075,157.1344 1313.7,157.1344 Q1313.2406,157.1344 1312.8563,157.3312 Q1312.4813,157.5281 1312.1812,157.9781 Q1311.8906,158.4281 1311.8906,159.0469 L1311.8906,159.7031 Q1311.8906,160.4438 1312.425,160.9406 Q1312.9594,161.4281 1313.9156,161.4281 Q1314.4781,161.4281 1314.8719,161.2781 Q1315.1063,161.1844 1315.3594,160.9219 Q1315.5188,160.7625 1315.6031,160.7156 Q1315.6969,160.6688 1315.8188,160.6688 Q1316.0156,160.6688 1316.1656,160.8281 Q1316.325,160.9781 1316.325,161.1844 Q1316.325,161.3906 1316.1187,161.6344 Q1315.8188,161.9813 1315.3406,162.1781 Q1314.6938,162.45 1313.9156,162.45 Q1313.0063,162.45 1312.2844,162.075 Q1311.6938,161.775 1311.2813,161.1375 Q1310.8687,160.4906 1310.8687,159.7219 L1310.8687,159.0281 Q1310.8687,158.2313 1311.2344,157.5469 Q1311.6094,156.8531 1312.2656,156.4875 Q1312.9219,156.1125 1313.6625,156.1125 Q1314.1031,156.1125 1314.4875,156.2156 Q1314.8813,156.3094 1315.2094,156.525 Z " fill="#000000"/><text fill="#000000" font-family="sans-serif" font-size="8.4" lengthAdjust="spacing" textLength="57" x="1325.85" y="161.9121">Announcement</text><line style="stroke:#181818;stroke-width:0.3;" x1="1105.8" x2="1583.4" y1="168.6" y2="168.6"/><text fill="#000000" font-family="sans-serif" font-size="8.4" lengthAdjust="spacing" textLength="72" x="1108.8" y="178.6043">-property: Property</text><text fill="#000000" font-family="sans-serif" font-size="8.4" lengthAdjust="spacing" textLength="63" x="1108.8" y="187.9887">-date: LocalDate</text><text fill="#000000" font-family="sans-serif" font-size="8.4" lengthAdjust="spacing" textLength="86.4" x="1108.8" y="197.373">-comissionType: String</text><text fill="#000000" font-family="sans-serif" font-size="8.4" lengthAdjust="spacing" textLength="72" x="1108.8" y="206.7574">-comission: Double</text><text fill="#000000" font-family="sans-serif" font-size="8.4" lengthAdjust="spacing" textLength="106.8" x="1108.8" y="216.1418">-requestType: RequestType</text><text fill="#000000" font-family="sans-serif" font-size="8.4" lengthAdjust="spacing" textLength="110.4" x="1108.8" y="225.5262">-propertyType: PropertyType</text><text fill="#000000" font-family="sans-serif" font-size="8.4" lengthAdjust="spacing" textLength="51.6" x="1108.8" y="234.9105">-agent: Agent</text><text fill="#000000" font-family="sans-serif" font-size="8.4" lengthAdjust="spacing" textLength="47.4" x="1108.8" y="244.2949">-store: Store</text><text fill="#000000" font-family="sans-serif" font-size="8.4" lengthAdjust="spacing" textLength="55.2" x="1108.8" y="253.6793">-owner: Owner</text><text fill="#000000" font-family="sans-serif" font-size="8.4" lengthAdjust="spacing" textLength="52.2" x="1108.8" y="263.0637">-price: double</text><line style="stroke:#181818;stroke-width:0.3;" x1="1105.8" x2="1583.4" y1="267.2438" y2="267.2438"/><text fill="#000000" font-family="sans-serif" font-size="8.4" lengthAdjust="spacing" textLength="471.6" x="1108.8" y="277.248">+createAnnouncement(property, date, commissionType, commission, requestType, propertyType, agent, store, owner, price)</text></g><!--class Agent--><g id="elem_Agent"><rect codeLine="94" fill="#F1F1F1" height="94.4906" id="Agent" rx="1.5" ry="1.5" style="stroke:#181818;stroke-width:0.3;" width="177.6" x="1752" y="168.3"/><ellipse cx="1827.15" cy="177.9" fill="#ADD1B2" rx="6.6" ry="6.6" style="stroke:#181818;stroke-width:0.6;"/><path d="M1828.8094,175.425 Q1828.9031,175.2938 1829.0156,175.2281 Q1829.1281,175.1625 1829.2594,175.1625 Q1829.4844,175.1625 1829.625,175.3219 Q1829.7656,175.4719 1829.7656,175.8375 L1829.7656,176.7094 Q1829.7656,177.075 1829.625,177.2344 Q1829.4844,177.3937 1829.2594,177.3937 Q1829.0531,177.3937 1828.9312,177.2719 Q1828.8094,177.1594 1828.7437,176.85 Q1828.7156,176.6344 1828.6031,176.5219 Q1828.4063,176.2969 1828.0406,176.1656 Q1827.675,176.0344 1827.3,176.0344 Q1826.8406,176.0344 1826.4563,176.2313 Q1826.0813,176.4281 1825.7813,176.8781 Q1825.4906,177.3281 1825.4906,177.9469 L1825.4906,178.6031 Q1825.4906,179.3438 1826.025,179.8406 Q1826.5594,180.3281 1827.5156,180.3281 Q1828.0781,180.3281 1828.4719,180.1781 Q1828.7063,180.0844 1828.9594,179.8219 Q1829.1187,179.6625 1829.2031,179.6156 Q1829.2969,179.5688 1829.4188,179.5688 Q1829.6156,179.5688 1829.7656,179.7281 Q1829.925,179.8781 1829.925,180.0844 Q1829.925,180.2906 1829.7188,180.5344 Q1829.4188,180.8813 1828.9406,181.0781 Q1828.2938,181.35 1827.5156,181.35 Q1826.6063,181.35 1825.8844,180.975 Q1825.2938,180.675 1824.8813,180.0375 Q1824.4688,179.3906 1824.4688,178.6219 L1824.4688,177.9281 Q1824.4688,177.1313 1824.8344,176.4469 Q1825.2094,175.7531 1825.8656,175.3875 Q1826.5219,175.0125 1827.2625,175.0125 Q1827.7031,175.0125 1828.0875,175.1156 Q1828.4813,175.2094 1828.8094,175.425 Z " fill="#000000"/><text fill="#000000" font-family="sans-serif" font-size="8.4" lengthAdjust="spacing" textLength="22.2" x="1839.45" y="180.8121">Agent</text><line style="stroke:#181818;stroke-width:0.3;" x1="1752.6" x2="1929" y1="187.5" y2="187.5"/><text fill="#000000" font-family="sans-serif" font-size="8.4" lengthAdjust="spacing" textLength="51" x="1755.6" y="197.5043">-name: String</text><text fill="#000000" font-family="sans-serif" font-size="8.4" lengthAdjust="spacing" textLength="105.6" x="1755.6" y="206.8887">-citizenCardNumber: Integer</text><text fill="#000000" font-family="sans-serif" font-size="8.4" lengthAdjust="spacing" textLength="91.2" x="1755.6" y="216.273">-taxNumber: TaxNumber</text><text fill="#000000" font-family="sans-serif" font-size="8.4" lengthAdjust="spacing" textLength="134.4" x="1755.6" y="225.6574">-propertyAddress: PropertyAddress</text><text fill="#000000" font-family="sans-serif" font-size="8.4" lengthAdjust="spacing" textLength="49.8" x="1755.6" y="235.0418">-email: String</text><text fill="#000000" font-family="sans-serif" font-size="8.4" lengthAdjust="spacing" textLength="83.4" x="1755.6" y="244.4262">-phoneNumber: String</text><text fill="#000000" font-family="sans-serif" font-size="8.4" lengthAdjust="spacing" textLength="170.4" x="1755.6" y="253.8105">-passportCardNumber: PassportCardNumber</text><line style="stroke:#181818;stroke-width:0.3;" x1="1752.6" x2="1929" y1="257.9906" y2="257.9906"/></g><!--class Address--><g id="elem_Address"><rect codeLine="105" fill="#F1F1F1" height="75.7219" id="Address" rx="1.5" ry="1.5" style="stroke:#181818;stroke-width:0.3;" width="67.8" x="1310.7" y="540.6"/><ellipse cx="1327.53" cy="550.2" fill="#ADD1B2" rx="6.6" ry="6.6" style="stroke:#181818;stroke-width:0.6;"/><path d="M1329.1894,547.725 Q1329.2831,547.5938 1329.3956,547.5281 Q1329.5081,547.4625 1329.6394,547.4625 Q1329.8644,547.4625 1330.005,547.6219 Q1330.1456,547.7719 1330.1456,548.1375 L1330.1456,549.0094 Q1330.1456,549.375 1330.005,549.5344 Q1329.8644,549.6938 1329.6394,549.6938 Q1329.4331,549.6938 1329.3113,549.5719 Q1329.1894,549.4594 1329.1238,549.15 Q1329.0956,548.9344 1328.9831,548.8219 Q1328.7863,548.5969 1328.4206,548.4656 Q1328.055,548.3344 1327.68,548.3344 Q1327.2206,548.3344 1326.8363,548.5313 Q1326.4613,548.7281 1326.1613,549.1781 Q1325.8706,549.6281 1325.8706,550.2469 L1325.8706,550.9031 Q1325.8706,551.6438 1326.405,552.1406 Q1326.9394,552.6281 1327.8956,552.6281 Q1328.4581,552.6281 1328.8519,552.4781 Q1329.0863,552.3844 1329.3394,552.1219 Q1329.4988,551.9625 1329.5831,551.9156 Q1329.6769,551.8688 1329.7988,551.8688 Q1329.9956,551.8688 1330.1456,552.0281 Q1330.305,552.1781 1330.305,552.3844 Q1330.305,552.5906 1330.0988,552.8344 Q1329.7988,553.1813 1329.3206,553.3781 Q1328.6738,553.65 1327.8956,553.65 Q1326.9863,553.65 1326.2644,553.275 Q1325.6738,552.975 1325.2613,552.3375 Q1324.8488,551.6906 1324.8488,550.9219 L1324.8488,550.2281 Q1324.8488,549.4313 1325.2144,548.7469 Q1325.5894,548.0531 1326.2456,547.6875 Q1326.9019,547.3125 1327.6425,547.3125 Q1328.0831,547.3125 1328.4675,547.4156 Q1328.8613,547.5094 1329.1894,547.725 Z " fill="#000000"/><text fill="#000000" font-family="sans-serif" font-size="8.4" lengthAdjust="spacing" textLength="31.2" x="1337.67" y="553.1121">Address</text><line style="stroke:#181818;stroke-width:0.3;" x1="1311.3" x2="1377.9" y1="559.8" y2="559.8"/><text fill="#000000" font-family="sans-serif" font-size="8.4" lengthAdjust="spacing" textLength="51.6" x="1314.3" y="569.8043">-street: String</text><text fill="#000000" font-family="sans-serif" font-size="8.4" lengthAdjust="spacing" textLength="34.8" x="1314.3" y="579.1887">-city: City</text><text fill="#000000" font-family="sans-serif" font-size="8.4" lengthAdjust="spacing" textLength="58.2" x="1314.3" y="588.573">-district: District</text><text fill="#000000" font-family="sans-serif" font-size="8.4" lengthAdjust="spacing" textLength="46.2" x="1314.3" y="597.9574">-state: State</text><text fill="#000000" font-family="sans-serif" font-size="8.4" lengthAdjust="spacing" textLength="60.6" x="1314.3" y="607.3418">-zipCode: String</text><line style="stroke:#181818;stroke-width:0.3;" x1="1311.3" x2="1377.9" y1="611.5219" y2="611.5219"/></g><!--class AnnouncementRepository--><g id="elem_AnnouncementRepository"><rect codeLine="114" fill="#F1F1F1" height="38.1844" id="AnnouncementRepository" rx="1.5" ry="1.5" style="stroke:#181818;stroke-width:0.3;" width="145.8" x="791.4" y="196.2"/><ellipse cx="813.36" cy="205.8" fill="#ADD1B2" rx="6.6" ry="6.6" style="stroke:#181818;stroke-width:0.6;"/><path d="M815.0194,203.325 Q815.1131,203.1938 815.2256,203.1281 Q815.3381,203.0625 815.4694,203.0625 Q815.6944,203.0625 815.835,203.2219 Q815.9756,203.3719 815.9756,203.7375 L815.9756,204.6094 Q815.9756,204.975 815.835,205.1344 Q815.6944,205.2938 815.4694,205.2938 Q815.2631,205.2938 815.1412,205.1719 Q815.0194,205.0594 814.9537,204.75 Q814.9256,204.5344 814.8131,204.4219 Q814.6162,204.1969 814.2506,204.0656 Q813.885,203.9344 813.51,203.9344 Q813.0506,203.9344 812.6662,204.1313 Q812.2912,204.3281 811.9912,204.7781 Q811.7006,205.2281 811.7006,205.8469 L811.7006,206.5031 Q811.7006,207.2438 812.235,207.7406 Q812.7694,208.2281 813.7256,208.2281 Q814.2881,208.2281 814.6819,208.0781 Q814.9162,207.9844 815.1694,207.7219 Q815.3287,207.5625 815.4131,207.5156 Q815.5069,207.4688 815.6288,207.4688 Q815.8256,207.4688 815.9756,207.6281 Q816.135,207.7781 816.135,207.9844 Q816.135,208.1906 815.9287,208.4344 Q815.6288,208.7813 815.1506,208.9781 Q814.5038,209.25 813.7256,209.25 Q812.8163,209.25 812.0944,208.875 Q811.5038,208.575 811.0913,207.9375 Q810.6787,207.2906 810.6787,206.5219 L810.6787,205.8281 Q810.6787,205.0313 811.0444,204.3469 Q811.4194,203.6531 812.0756,203.2875 Q812.7319,202.9125 813.4725,202.9125 Q813.9131,202.9125 814.2975,203.0156 Q814.6913,203.1094 815.0194,203.325 Z " fill="#000000"/><text fill="#000000" font-family="sans-serif" font-size="8.4" lengthAdjust="spacing" textLength="97.8" x="824.64" y="208.7121">AnnouncementRepository</text><line style="stroke:#181818;stroke-width:0.3;" x1="792" x2="936.6" y1="215.4" y2="215.4"/><line style="stroke:#181818;stroke-width:0.3;" x1="792" x2="936.6" y1="220.2" y2="220.2"/><text fill="#000000" font-family="sans-serif" font-size="8.4" lengthAdjust="spacing" textLength="138.6" x="795" y="230.2043">+addAnnouncement(announcement)</text></g><!--class Property--><g id="elem_Property"><rect codeLine="119" fill="#F1F1F1" height="216.4875" id="Property" rx="1.5" ry="1.5" style="stroke:#181818;stroke-width:0.3;" width="742.8" x="973.2" y="302.7"/><ellipse cx="1325.85" cy="312.3" fill="#ADD1B2" rx="6.6" ry="6.6" style="stroke:#181818;stroke-width:0.6;"/><path d="M1327.5094,309.825 Q1327.6031,309.6937 1327.7156,309.6281 Q1327.8281,309.5625 1327.9594,309.5625 Q1328.1844,309.5625 1328.325,309.7219 Q1328.4656,309.8719 1328.4656,310.2375 L1328.4656,311.1094 Q1328.4656,311.475 1328.325,311.6344 Q1328.1844,311.7938 1327.9594,311.7938 Q1327.7531,311.7938 1327.6313,311.6719 Q1327.5094,311.5594 1327.4438,311.25 Q1327.4156,311.0344 1327.3031,310.9219 Q1327.1063,310.6969 1326.7406,310.5656 Q1326.375,310.4344 1326,310.4344 Q1325.5406,310.4344 1325.1563,310.6312 Q1324.7813,310.8281 1324.4813,311.2781 Q1324.1906,311.7281 1324.1906,312.3469 L1324.1906,313.0031 Q1324.1906,313.7438 1324.725,314.2406 Q1325.2594,314.7281 1326.2156,314.7281 Q1326.7781,314.7281 1327.1719,314.5781 Q1327.4063,314.4844 1327.6594,314.2219 Q1327.8188,314.0625 1327.9031,314.0156 Q1327.9969,313.9688 1328.1187,313.9688 Q1328.3156,313.9688 1328.4656,314.1281 Q1328.625,314.2781 1328.625,314.4844 Q1328.625,314.6906 1328.4188,314.9344 Q1328.1187,315.2813 1327.6406,315.4781 Q1326.9937,315.75 1326.2156,315.75 Q1325.3062,315.75 1324.5844,315.375 Q1323.9937,315.075 1323.5813,314.4375 Q1323.1688,313.7906 1323.1688,313.0219 L1323.1688,312.3281 Q1323.1688,311.5313 1323.5344,310.8469 Q1323.9094,310.1531 1324.5656,309.7875 Q1325.2219,309.4125 1325.9625,309.4125 Q1326.4031,309.4125 1326.7875,309.5156 Q1327.1812,309.6094 1327.5094,309.825 Z " fill="#000000"/><text fill="#000000" font-family="sans-serif" font-size="8.4" lengthAdjust="spacing" textLength="32.4" x="1338.15" y="315.2121">Property</text><line style="stroke:#181818;stroke-width:0.3;" x1="973.8" x2="1715.4" y1="321.9" y2="321.9"/><text fill="#000000" font-family="sans-serif" font-size="8.4" lengthAdjust="spacing" textLength="51" x="976.8" y="331.9043">-area: double</text><text fill="#000000" font-family="sans-serif" font-size="8.4" lengthAdjust="spacing" textLength="66" x="976.8" y="341.2887">-distance: integer</text><text fill="#000000" font-family="sans-serif" font-size="8.4" lengthAdjust="spacing" textLength="52.2" x="976.8" y="350.673">-price: double</text><text fill="#000000" font-family="sans-serif" font-size="8.4" lengthAdjust="spacing" textLength="100.8" x="976.8" y="360.0574">-photos: List&lt;Photograph&gt;</text><text fill="#000000" font-family="sans-serif" font-size="8.4" lengthAdjust="spacing" textLength="72" x="976.8" y="369.4418">-bedrooms: integer</text><text fill="#000000" font-family="sans-serif" font-size="8.4" lengthAdjust="spacing" textLength="74.4" x="976.8" y="378.8262">-bathrooms: integer</text><text fill="#000000" font-family="sans-serif" font-size="8.4" lengthAdjust="spacing" textLength="90.6" x="976.8" y="388.2105">-parkingSpaces: integer</text><text fill="#000000" font-family="sans-serif" font-size="8.4" lengthAdjust="spacing" textLength="178.2" x="976.8" y="397.5949">-availableEquipment: List&lt;availableEquipment&gt;</text><text fill="#000000" font-family="sans-serif" font-size="8.4" lengthAdjust="spacing" textLength="75.6" x="976.8" y="406.9793">-basement: boolean</text><text fill="#000000" font-family="sans-serif" font-size="8.4" lengthAdjust="spacing" textLength="49.8" x="976.8" y="416.3637">-loft: boolean</text><text fill="#000000" font-family="sans-serif" font-size="8.4" lengthAdjust="spacing" textLength="43.8" x="976.8" y="425.748">-sun: String</text><text fill="#000000" font-family="sans-serif" font-size="8.4" lengthAdjust="spacing" textLength="86.4" x="976.8" y="435.1324">-comissionType: String</text><text fill="#000000" font-family="sans-serif" font-size="8.4" lengthAdjust="spacing" textLength="70.8" x="976.8" y="444.5168">-comission: double</text><text fill="#000000" font-family="sans-serif" font-size="8.4" lengthAdjust="spacing" textLength="121.2" x="976.8" y="453.9012">-announcement: Announcement</text><text fill="#000000" font-family="sans-serif" font-size="8.4" lengthAdjust="spacing" textLength="72" x="976.8" y="463.2855">-property: Property</text><text fill="#000000" font-family="sans-serif" font-size="8.4" lengthAdjust="spacing" textLength="63" x="976.8" y="472.6699">-date: LocalDate</text><text fill="#000000" font-family="sans-serif" font-size="8.4" lengthAdjust="spacing" textLength="64.8" x="976.8" y="482.0543">-photoURI: String</text><line style="stroke:#181818;stroke-width:0.3;" x1="973.8" x2="1715.4" y1="486.2344" y2="486.2344"/><text fill="#000000" font-family="sans-serif" font-size="8.4" lengthAdjust="spacing" textLength="303" x="976.8" y="496.2387">+createProperty(area, distanceFromCityCenter, address, propertyType, photos)</text><text fill="#000000" font-family="sans-serif" font-size="8.4" lengthAdjust="spacing" textLength="586.8" x="976.8" y="505.623">+createResidence(address, area, distanceFromCityCenter, numberOfBathrooms, numberOfBedrooms, parking, propertyType, photos, availableEquipment)</text><text fill="#000000" font-family="sans-serif" font-size="8.4" lengthAdjust="spacing" textLength="735.6" x="976.8" y="515.0074">+createHouse(address, area, distanceFromCityCenter, numberOfBathrooms, numberOfBedrooms, parking, availableEquipment, basement, sunExposure, loft, propertyType, photos, requestType)</text></g><!--link RegisterAnnouncementUI to RegisterAnnouncementController--><g id="link_RegisterAnnouncementUI_RegisterAnnouncementController"><path codeLine="146" d="M379.8,33.21 C379.8,39.072 379.8,44.94 379.8,50.808 " fill="none" id="RegisterAnnouncementUI-to-RegisterAnnouncementController" style="stroke:#181818;stroke-width:0.6;"/><polygon fill="#181818" points="379.8,53.88,382.2,48.48,379.8,50.88,377.4,48.48,379.8,53.88" style="stroke:#181818;stroke-width:0.6;"/></g><!--link RegisterAnnouncementController to Repositories--><g id="link_RegisterAnnouncementController_Repositories"><path codeLine="147" d="M755.538,171.408 C769.404,167.586 782.412,164.004 794.274,160.734 " fill="none" id="RegisterAnnouncementController-to-Repositories" style="stroke:#181818;stroke-width:0.6;stroke-dasharray:7.0,7.0;"/><polygon fill="#181818" points="797.262,159.912,791.4181,159.035,794.3701,160.7101,792.695,163.662,797.262,159.912" style="stroke:#181818;stroke-width:0.6;"/></g><!--link Repositories to Announcement--><g id="link_Repositories_Announcement"><path codeLine="148" d="M931.266,151.824 C976.404,158.778 1039.176,168.444 1102.152,178.146 " fill="none" id="Repositories-to-Announcement" style="stroke:#181818;stroke-width:0.6;"/><polygon fill="#181818" points="1105.152,178.608,1100.1867,175.404,1102.1879,178.1454,1099.4465,180.1466,1105.152,178.608" style="stroke:#181818;stroke-width:0.6;"/></g><!--link Repositories to RegistedUsersRepository--><g id="link_Repositories_RegistedUsersRepository"><path codeLine="149" d="M797.178,170.316 C787.656,177.294 779.16,185.748 773.4,195.9 C751.95,233.706 751.752,256.008 773.4,293.7 C780.198,305.538 791.466,313.926 803.784,319.866 " fill="none" id="Repositories-to-RegistedUsersRepository" style="stroke:#181818;stroke-width:0.6;"/><polygon fill="#181818" points="806.598,321.174,802.7088,316.725,803.8764,319.9119,800.6894,321.0796,806.598,321.174" style="stroke:#181818;stroke-width:0.6;"/></g><!--link Repositories to PropertyTypeRepository--><g id="link_Repositories_PropertyTypeRepository"><path codeLine="150" d="M797.178,170.316 C787.656,177.294 779.16,185.748 773.4,195.9 C764.976,210.744 764.898,219.498 773.4,234.3 C780.552,246.75 792.636,255.384 805.698,261.366 " fill="none" id="Repositories-to-PropertyTypeRepository" style="stroke:#181818;stroke-width:0.6;"/><polygon fill="#181818" points="808.5,262.602,804.5262,258.2284,805.7547,261.3923,802.5907,262.6209,808.5,262.602" style="stroke:#181818;stroke-width:0.6;"/></g><!--link Repositories to AnnouncementRepository--><g id="link_Repositories_AnnouncementRepository"><path codeLine="151" d="M864.3,175.014 C864.3,180.996 864.3,186.978 864.3,192.96 " fill="none" id="Repositories-to-AnnouncementRepository" style="stroke:#181818;stroke-width:0.6;"/><polygon fill="#181818" points="864.3,196.086,866.7,190.686,864.3,193.086,861.9,190.686,864.3,196.086" style="stroke:#181818;stroke-width:0.6;"/></g><!--link RegisterAnnouncementController to Announcement--><g id="link_RegisterAnnouncementController_Announcement"><path codeLine="152" d="M755.604,359.256 C767.652,360.882 779.604,362.34 791.4,363.6 C855.834,370.482 882.018,397.572 937.2,363.6 C967.464,344.964 944.994,313.818 973.2,292.2 C1010.532,263.58 1055.964,244.962 1102.05,232.986 " fill="none" id="RegisterAnnouncementController-to-Announcement" style="stroke:#181818;stroke-width:0.6;"/><polygon fill="#181818" points="1105.092,232.206,1099.2649,231.2237,1102.1862,232.9517,1100.4581,235.873,1105.092,232.206" style="stroke:#181818;stroke-width:0.6;"/><text fill="#000000" font-family="sans-serif" font-size="7.8" lengthAdjust="spacing" textLength="25.8" x="1074.9537" y="239.6306">creates</text></g><!--link RegisterAnnouncementController to RegistedUsersRepository--><g id="link_RegisterAnnouncementController_RegistedUsersRepository"><path codeLine="153" d="M755.538,320.904 C773.076,323.064 789.246,325.05 803.448,326.796 " fill="none" id="RegisterAnnouncementController-to-RegistedUsersRepository" style="stroke:#181818;stroke-width:0.6;stroke-dasharray:7.0,7.0;"/><polygon fill="#181818" points="806.448,327.162,801.3841,324.1161,803.4708,326.7931,800.7938,328.8797,806.448,327.162" style="stroke:#181818;stroke-width:0.6;"/></g><!--link RegisterAnnouncementController to PropertyTypeRepository--><g id="link_RegisterAnnouncementController_PropertyTypeRepository"><path codeLine="154" d="M755.538,274.8 C773.88,274.8 790.722,274.8 805.386,274.8 " fill="none" id="RegisterAnnouncementController-to-PropertyTypeRepository" style="stroke:#181818;stroke-width:0.6;stroke-dasharray:7.0,7.0;"/><polygon fill="#181818" points="808.482,274.8,803.082,272.4,805.482,274.8,803.082,277.2,808.482,274.8" style="stroke:#181818;stroke-width:0.6;"/></g><!--link RegisterAnnouncementController to AnnouncementRepository--><g id="link_RegisterAnnouncementController_AnnouncementRepository"><path codeLine="155" d="M755.538,228.696 C767.058,227.28 777.984,225.936 788.148,224.688 " fill="none" id="RegisterAnnouncementController-to-AnnouncementRepository" style="stroke:#181818;stroke-width:0.6;stroke-dasharray:7.0,7.0;"/><polygon fill="#181818" points="791.28,224.298,785.6258,222.5803,788.3028,224.6669,786.2161,227.3439,791.28,224.298" style="stroke:#181818;stroke-width:0.6;"/></g><!--link AnnouncementRepository to Announcement--><g id="link_AnnouncementRepository_Announcement"><path codeLine="156" d="M937.404,215.4 C981.972,215.4 1041.9,215.4 1102.032,215.4 " fill="none" id="AnnouncementRepository-to-Announcement" style="stroke:#181818;stroke-width:0.6;"/><polygon fill="#181818" points="1105.08,215.4,1099.68,213,1102.08,215.4,1099.68,217.8,1105.08,215.4" style="stroke:#181818;stroke-width:0.6;"/><text fill="#000000" font-family="sans-serif" font-size="7.8" lengthAdjust="spacing" textLength="12.6" x="1087.4868" y="222.5493">has</text></g><!--link Announcement to Property--><g id="link_Announcement_Property"><path codeLine="157" d="M1344.6,281.55 C1344.6,287.556 1344.6,293.556 1344.6,299.556 " fill="none" id="Announcement-to-Property" style="stroke:#181818;stroke-width:0.6;"/><polygon fill="#181818" points="1344.6,302.694,1347,297.294,1344.6,299.694,1342.2,297.294,1344.6,302.694" style="stroke:#181818;stroke-width:0.6;"/><text fill="#000000" font-family="sans-serif" font-size="7.8" lengthAdjust="spacing" textLength="12.6" x="1331.7145" y="296.2669">has</text></g><!--link Property to Address--><g id="link_Property_Address"><path codeLine="158" d="M1344.6,519.486 C1344.6,525.444 1344.6,531.402 1344.6,537.36 " fill="none" id="Property-to-Address" style="stroke:#181818;stroke-width:0.6;"/><polygon fill="#181818" points="1344.6,540.474,1347,535.074,1344.6,537.474,1342.2,535.074,1344.6,540.474" style="stroke:#181818;stroke-width:0.6;"/><text fill="#000000" font-family="sans-serif" font-size="7.8" lengthAdjust="spacing" textLength="12.6" x="1331.2716" y="534.2754">has</text></g><!--link Announcement to Agent--><g id="link_Announcement_Agent"><path codeLine="159" d="M1584,215.4 C1642.668,215.4 1701.984,215.4 1748.748,215.4 " fill="none" id="Announcement-to-Agent" style="stroke:#181818;stroke-width:0.6;"/><polygon fill="#181818" points="1751.808,215.4,1746.408,213,1748.808,215.4,1746.408,217.8,1751.808,215.4" style="stroke:#181818;stroke-width:0.6;"/><text fill="#000000" font-family="sans-serif" font-size="7.8" lengthAdjust="spacing" textLength="12.6" x="1734.5923" y="222.6651">has</text></g><!--SRC=[xLTVRzis47_Nfo3oCWrJYZqRGm3NIL43sHh4pGUWfRDCL29LabhZ1ltkEqgYU9HafnWm30Ng1vkyFxox7-yF_Olv96J3DQzPhQJAZrhLmAnk8GcSXkUVU0axUwg0QSWjbsL51SoH5-gBa2KxyCfGJYKas5C3h57LoMsMU4fRbH16Nd5ZrjPgiMyjR7CbT-8hiD-Jf8A3PLOnBSgZPOLmpWWbawHJOOzG2cD1hwLKhSoX1ccVjfUu6oMjLbK5Edb967wkkGQ-OeLgznXYHobGYwFyYWbfeKJHZjneuMXKiZaggyoAtQF67mzkKshU76zwxXuAhLHj9kVikJqkqH4BHAJS8VemvV6_kQWushtxt8h61J8OdJEySMwWbzihLG6NFRbIXod9j7B5TWY-B7j2hcfX3CBy4I_h32l6WHE4LupYxQ5J3MXxMh67OJKWpIqQk5SvhsvnIK1zUjn6bdyhmVhxXEB9W3RfhoF7d-eSzcGp8JTa4qJMUFkfIu50Ggk0Z4A3CQaXco2o4VQKvlX5jJ005CVlG7nNAQN_QkizwFGGra7WDl2B9VQGYU-mIftD3IBgH1V9D6xCrBJBrq3ip_vmwDBKf3BQ3cAyABfzwkzWhlvsIEhn04zO4FM97cGzXVXAipwDQY0ujPvbUJfF_73cso7txvvTlY1GgQ-687EFXH3uhYp8NRRoxhbHfjLues5DxfzMI1hLou9G420twxAb2CcIOmfQy0cROimkupBcKZDZonUUiHckX3HSIyO6JF6i6MGPyy1aZ0IQCOS7QfAImLsNAHaEXCyj64k2xPsdPJzM6_gEh8mX10GakeyEdDh4ATJvPfNpIdsHBcgQs2uvg5tQYIBlTd_k9inlOKvWs09D2333L71DPIjxqC_qcL7hH0GcBMfHXleR2OmEBPiXhatwtRV9n9iQ9vhp7ZegHstxvLyqxk-R6xTaRf2RNw7puoOsthDfpCFKAVjnKuvpfiiJPnb_UagNCYlsmVsS6-F_K_u6u4k2kEJr53jXyJKaDrmNVMTTiIrz6rZ-xEaV_J86SDrtau3XGEYbeCQs49l4KfVW3uqOw6-3ppVgpCECvaBRzA4DXbxy_RXfEWiFqyjrjV3wGe1GwdPOUTqkvxevsrE-YcQZYe3MOYRFg-1oovWLuSztuW_rJfmEqelpSnopIvCk6X-FO4JHFHN-az6yF6dFld5wdzwhri2FyrHmfPKaot_PsFNDQt_NBhFPcvjuZjEDEprAjYdptDoSofqPp9TiHM8N8xY-HjMh_chDrTJXoy6_kHJ3gwfdmtfLyqoaosG7pTMHJsEZco0oDW2_8Dh3K8aL0zkDqty0]--></g></svg>