<?xml version="1.0" encoding="us-ascii" standalone="no"?><svg xmlns="http://www.w3.org/2000/svg" xmlns:xlink="http://www.w3.org/1999/xlink" contentStyleType="text/css" height="403px" preserveAspectRatio="none" style="width:503px;height:403px;background:#FFFFFF;" version="1.1" viewBox="0 0 503 403" width="503px" zoomAndPan="magnify"><defs/><g><text fill="#000000" font-family="sans-serif" font-size="14" font-weight="bold" lengthAdjust="spacing" textLength="288" x="106.75" y="27.6738">System Sequence Diagram (SSD) - US 007</text><rect fill="#FFFFFF" height="186.6641" style="stroke:#181818;stroke-width:1.0;" width="10" x="59.5" y="127.2813"/><rect fill="#FFFFFF" height="43.0469" style="stroke:#181818;stroke-width:1.0;" width="10" x="460.5" y="147.8047"/><rect fill="#FFFFFF" height="28.5234" style="stroke:#181818;stroke-width:1.0;" width="10" x="460.5" y="219.375"/><rect fill="#FFFFFF" height="28.5234" style="stroke:#181818;stroke-width:1.0;" width="10" x="460.5" y="276.4219"/><line style="stroke:#181818;stroke-width:0.5;stroke-dasharray:5.0,5.0;" x1="64" x2="64" y1="117.2813" y2="322.9453"/><line style="stroke:#181818;stroke-width:0.5;stroke-dasharray:5.0,5.0;" x1="465.5" x2="465.5" y1="117.2813" y2="322.9453"/><text fill="#000000" font-family="sans-serif" font-size="14" lengthAdjust="spacing" textLength="113" x="5" y="114.3145">Unregistered user</text><ellipse cx="64.5" cy="50.1406" fill="#E3E3E3" rx="8" ry="8" style="stroke:#181818;stroke-width:0.5;"/><path d="M64.5,58.1406 L64.5,85.1406 M51.5,66.1406 L77.5,66.1406 M64.5,85.1406 L51.5,100.1406 M64.5,85.1406 L77.5,100.1406 " fill="none" style="stroke:#181818;stroke-width:0.5;"/><text fill="#000000" font-family="sans-serif" font-size="14" lengthAdjust="spacing" textLength="113" x="5" y="334.6191">Unregistered user</text><ellipse cx="64.5" cy="346.0859" fill="#E3E3E3" rx="8" ry="8" style="stroke:#181818;stroke-width:0.5;"/><path d="M64.5,354.0859 L64.5,381.0859 M51.5,362.0859 L77.5,362.0859 M64.5,381.0859 L51.5,396.0859 M64.5,381.0859 L77.5,396.0859 " fill="none" style="stroke:#181818;stroke-width:0.5;"/><rect fill="#E3E3E3" height="29.6406" rx="2.5" ry="2.5" style="stroke:#181818;stroke-width:0.5;" width="64" x="433.5" y="86.6406"/><text fill="#000000" font-family="sans-serif" font-size="14" lengthAdjust="spacing" textLength="50" x="440.5" y="106.3145">:System</text><rect fill="#E3E3E3" height="29.6406" rx="2.5" ry="2.5" style="stroke:#181818;stroke-width:0.5;" width="64" x="433.5" y="321.9453"/><text fill="#000000" font-family="sans-serif" font-size="14" lengthAdjust="spacing" textLength="50" x="440.5" y="341.6191">:System</text><rect fill="#FFFFFF" height="186.6641" style="stroke:#181818;stroke-width:1.0;" width="10" x="59.5" y="127.2813"/><rect fill="#FFFFFF" height="43.0469" style="stroke:#181818;stroke-width:1.0;" width="10" x="460.5" y="147.8047"/><rect fill="#FFFFFF" height="28.5234" style="stroke:#181818;stroke-width:1.0;" width="10" x="460.5" y="219.375"/><rect fill="#FFFFFF" height="28.5234" style="stroke:#181818;stroke-width:1.0;" width="10" x="460.5" y="276.4219"/><polygon fill="#181818" points="448.5,143.8047,458.5,147.8047,448.5,151.8047,452.5,147.8047" style="stroke:#181818;stroke-width:1.0;"/><line style="stroke:#181818;stroke-width:1.0;" x1="69.5" x2="454.5" y1="147.8047" y2="147.8047"/><text fill="#000000" font-family="sans-serif" font-size="13" font-weight="bold" lengthAdjust="spacing" textLength="7" x="76.5" y="143.0498">1</text><text fill="#000000" font-family="sans-serif" font-size="13" lengthAdjust="spacing" textLength="173" x="87.5" y="143.0498">asks to register in the system</text><polygon fill="#181818" points="80.5,186.8516,70.5,190.8516,80.5,194.8516,76.5,190.8516" style="stroke:#181818;stroke-width:1.0;"/><line style="stroke:#181818;stroke-width:1.0;stroke-dasharray:2.0,2.0;" x1="74.5" x2="464.5" y1="190.8516" y2="190.8516"/><text fill="#000000" font-family="sans-serif" font-size="13" font-weight="bold" lengthAdjust="spacing" textLength="7" x="86.5" y="178.835">2</text><text fill="#000000" font-family="sans-serif" font-size="13" lengthAdjust="spacing" textLength="301" x="97.5" y="171.5732">requests data (name, passport number, tax number,</text><text fill="#000000" font-family="sans-serif" font-size="13" lengthAdjust="spacing" textLength="356" x="97.5" y="186.0967">address, email address, telephone number and the password)</text><polygon fill="#181818" points="448.5,215.375,458.5,219.375,448.5,223.375,452.5,219.375" style="stroke:#181818;stroke-width:1.0;"/><line style="stroke:#181818;stroke-width:1.0;" x1="69.5" x2="454.5" y1="219.375" y2="219.375"/><text fill="#000000" font-family="sans-serif" font-size="13" font-weight="bold" lengthAdjust="spacing" textLength="7" x="76.5" y="214.6201">3</text><text fill="#000000" font-family="sans-serif" font-size="13" lengthAdjust="spacing" textLength="68" x="87.5" y="214.6201">inserts data</text><polygon fill="#181818" points="80.5,243.8984,70.5,247.8984,80.5,251.8984,76.5,247.8984" style="stroke:#181818;stroke-width:1.0;"/><line style="stroke:#181818;stroke-width:1.0;stroke-dasharray:2.0,2.0;" x1="74.5" x2="464.5" y1="247.8984" y2="247.8984"/><text fill="#000000" font-family="sans-serif" font-size="13" font-weight="bold" lengthAdjust="spacing" textLength="7" x="86.5" y="243.1436">4</text><text fill="#000000" font-family="sans-serif" font-size="13" lengthAdjust="spacing" textLength="304" x="97.5" y="243.1436">shows all the data inserted and asks for confirmation</text><polygon fill="#181818" points="448.5,272.4219,458.5,276.4219,448.5,280.4219,452.5,276.4219" style="stroke:#181818;stroke-width:1.0;"/><line style="stroke:#181818;stroke-width:1.0;" x1="69.5" x2="454.5" y1="276.4219" y2="276.4219"/><text fill="#000000" font-family="sans-serif" font-size="13" font-weight="bold" lengthAdjust="spacing" textLength="7" x="76.5" y="271.667">5</text><text fill="#000000" font-family="sans-serif" font-size="13" lengthAdjust="spacing" textLength="78" x="87.5" y="271.667">confirms data</text><polygon fill="#181818" points="80.5,300.9453,70.5,304.9453,80.5,308.9453,76.5,304.9453" style="stroke:#181818;stroke-width:1.0;"/><line style="stroke:#181818;stroke-width:1.0;stroke-dasharray:2.0,2.0;" x1="74.5" x2="464.5" y1="304.9453" y2="304.9453"/><text fill="#000000" font-family="sans-serif" font-size="13" font-weight="bold" lengthAdjust="spacing" textLength="7" x="86.5" y="300.1904">6</text><text fill="#000000" font-family="sans-serif" font-size="13" lengthAdjust="spacing" textLength="259" x="97.5" y="300.1904">shows confirmation of successful registration</text><!--SRC=[hPA_RW8n3CRtUmgB2IIGs2enTE8DJcnTtCHt5v4urzWfvUsR-mD5XNQecidds9z__d9oTDnZmW0XSZHTYe50KwPAhZSzcYEsLElP4oGoYjpwsmBfqCQJunOQz49LfKvBQNqMfG0rlMLYGx1ts0xboxhUhs03XngsswUgmgoHStYbL6AZCS7Ym8bQLzeJMSX2QG4ea6-oXvAiodXrnlN82elTD6-idC91pRsZqdrd1ULypyBc-GAzAof70OrmAG77e1s1JD93_rL-7ZScXpEBR8hUtOnTKIo6Y0fOL8GbOw1rCLcaZqbXSc8DYX_N-8NHsaGYQw20piFrKybJtqMckHQGxOWvw9rYigiHoj93rbyDS5moC-NFw_w-gdJn983UZqpZlfDiUTQ1T3IvAIzk8ZSk1LGN-S_4iyX_8D_oG6n0iZ75y2Rx-OT8NwYFSJy1]--></g></svg>