<?xml version="1.0" encoding="us-ascii" standalone="no"?><svg xmlns="http://www.w3.org/2000/svg" xmlns:xlink="http://www.w3.org/1999/xlink" contentStyleType="text/css" height="872px" preserveAspectRatio="none" style="width:362px;height:872px;background:#FFFFFF;" version="1.1" viewBox="0 0 362 872" width="362px" zoomAndPan="magnify"><defs/><g><text fill="#000000" font-family="sans-serif" font-size="14" font-weight="bold" lengthAdjust="spacing" textLength="155" x="96.5" y="23.5352">US001 Domain Model</text><!--class Adress--><g id="elem_Adress"><rect
        fill="#F1F1F1" height="133.418" id="Adress" rx="2.5" ry="2.5" style="stroke:#181818;stroke-width:0.5;" width="90" x="7" y="460.4883"/><text fill="#000000" font-family="sans-serif" font-size="14" lengthAdjust="spacing" textLength="47" x="28.5" y="479.0234">Adress</text><line style="stroke:#181818;stroke-width:0.5;" x1="8" x2="96" y1="486.9766" y2="486.9766"/><text fill="#000000" font-family="sans-serif" font-size="14" lengthAdjust="spacing" textLength="39" x="13" y="504.5117">street</text><text fill="#000000" font-family="sans-serif" font-size="14" lengthAdjust="spacing" textLength="23" x="13" y="521">city</text><text fill="#000000" font-family="sans-serif" font-size="14" lengthAdjust="spacing" textLength="49" x="13" y="537.4883">doorNr</text><text fill="#000000" font-family="sans-serif" font-size="14" lengthAdjust="spacing" textLength="49" x="13" y="553.9766">floorNr</text><text fill="#000000" font-family="sans-serif" font-size="14" lengthAdjust="spacing" textLength="33" x="13" y="570.4648">state</text><text fill="#000000" font-family="sans-serif" font-size="14" lengthAdjust="spacing" textLength="78" x="13" y="586.9531">postalCode</text></g><!--class State--><g id="elem_State"><rect
        fill="#F1F1F1" height="34.4883" id="State" rx="2.5" ry="2.5" style="stroke:#181818;stroke-width:0.5;" width="40" x="31" y="44.4883"/><text fill="#000000" font-family="sans-serif" font-size="14" lengthAdjust="spacing" textLength="34" x="34" y="63.0234">State</text><line style="stroke:#181818;stroke-width:0.5;" x1="32" x2="70" y1="70.9766" y2="70.9766"/></g><!--class District--><g id="elem_District"><rect
        fill="#F1F1F1" height="34.4883" id="District" rx="2.5" ry="2.5" style="stroke:#181818;stroke-width:0.5;" width="54" x="24" y="180.4883"/><text fill="#000000" font-family="sans-serif" font-size="14" lengthAdjust="spacing" textLength="48" x="27" y="199.0234">District</text><line style="stroke:#181818;stroke-width:0.5;" x1="25" x2="77" y1="206.9766" y2="206.9766"/></g><!--class City--><g id="elem_City"><rect
        fill="#F1F1F1" height="34.4883" id="City" rx="2.5" ry="2.5" style="stroke:#181818;stroke-width:0.5;" width="32" x="35" y="332.9883"/><text fill="#000000" font-family="sans-serif" font-size="14" lengthAdjust="spacing" textLength="26" x="38" y="351.5234">City</text><line style="stroke:#181818;stroke-width:0.5;" x1="36" x2="66" y1="359.4766" y2="359.4766"/></g><!--class PublishedAnnouncement--><g id="elem_PublishedAnnouncement"><rect
        fill="#F1F1F1" height="83.9531" id="PublishedAnnouncement" rx="2.5" ry="2.5" style="stroke:#181818;stroke-width:0.5;" width="178" x="126" y="155.4883"/><text fill="#000000" font-family="sans-serif" font-size="14" lengthAdjust="spacing" textLength="172" x="129" y="174.0234">PublishedAnnouncement</text><line style="stroke:#181818;stroke-width:0.5;" x1="127" x2="303" y1="181.9766" y2="181.9766"/><text fill="#000000" font-family="sans-serif" font-size="14" lengthAdjust="spacing" textLength="30" x="132" y="199.5117">date</text><text fill="#000000" font-family="sans-serif" font-size="14" lengthAdjust="spacing" textLength="48" x="132" y="216">photos</text><text fill="#000000" font-family="sans-serif" font-size="14" lengthAdjust="spacing" textLength="34" x="132" y="232.4883">price</text></g><!--class Property--><g id="elem_Property"><rect
        fill="#F1F1F1" height="67.4648" id="Property" rx="2.5" ry="2.5" style="stroke:#181818;stroke-width:0.5;" width="177" x="126.5" y="316.4883"/><text fill="#000000" font-family="sans-serif" font-size="14" lengthAdjust="spacing" textLength="58" x="186" y="335.0234">Property</text><line style="stroke:#181818;stroke-width:0.5;" x1="127.5" x2="302.5" y1="342.9766" y2="342.9766"/><text fill="#000000" font-family="sans-serif" font-size="14" lengthAdjust="spacing" textLength="30" x="132.5" y="360.5117">area</text><text fill="#000000" font-family="sans-serif" font-size="14" lengthAdjust="spacing" textLength="165" x="132.5" y="377">distanceFromCityCenter</text></g><!--class Residence--><g id="elem_Residence"><rect
        fill="#F1F1F1" height="83.9531" id="Residence" rx="2.5" ry="2.5" style="stroke:#181818;stroke-width:0.5;" width="191" x="132.5" y="484.9883"/><text fill="#000000" font-family="sans-serif" font-size="14" lengthAdjust="spacing" textLength="69" x="193.5" y="503.5234">Residence</text><line style="stroke:#181818;stroke-width:0.5;" x1="133.5" x2="322.5" y1="511.4766" y2="511.4766"/><text fill="#000000" font-family="sans-serif" font-size="14" lengthAdjust="spacing" textLength="146" x="138.5" y="529.0117">number of bedrooms</text><text fill="#000000" font-family="sans-serif" font-size="14" lengthAdjust="spacing" textLength="151" x="138.5" y="545.5">number of bathrooms</text><text fill="#000000" font-family="sans-serif" font-size="14" lengthAdjust="spacing" textLength="179" x="138.5" y="561.9883">number of parking spaces</text></g><!--class House--><g id="elem_House"><rect
        fill="#F1F1F1" height="67.4648" id="House" rx="2.5" ry="2.5" style="stroke:#181818;stroke-width:0.5;" width="116" x="62" y="670.4883"/><text fill="#000000" font-family="sans-serif" font-size="14" lengthAdjust="spacing" textLength="43" x="98.5" y="689.0234">House</text><line style="stroke:#181818;stroke-width:0.5;" x1="63" x2="177" y1="696.9766" y2="696.9766"/><text fill="#000000" font-family="sans-serif" font-size="14" lengthAdjust="spacing" textLength="67" x="68" y="714.5117">basement</text><text fill="#000000" font-family="sans-serif" font-size="14" lengthAdjust="spacing" textLength="104" x="68" y="731">inhabitable loft</text></g><!--class AvailableEquipment--><g id="elem_AvailableEquipment"><rect
        fill="#F1F1F1" height="67.4648" id="AvailableEquipment" rx="2.5" ry="2.5" style="stroke:#181818;stroke-width:0.5;" width="142" x="213" y="670.4883"/><text fill="#000000" font-family="sans-serif" font-size="14" lengthAdjust="spacing" textLength="136" x="216" y="689.0234">AvailableEquipment</text><line style="stroke:#181818;stroke-width:0.5;" x1="214" x2="354" y1="696.9766" y2="696.9766"/><text fill="#000000" font-family="sans-serif" font-size="14" lengthAdjust="spacing" textLength="100" x="219" y="714.5117">centralHeating</text><text fill="#000000" font-family="sans-serif" font-size="14" lengthAdjust="spacing" textLength="108" x="219" y="731">airConditioning</text></g><!--class SunExposure--><g id="elem_SunExposure"><rect
        fill="#F1F1F1" height="50.9766" id="SunExposure" rx="2.5" ry="2.5" style="stroke:#181818;stroke-width:0.5;" width="97" x="71.5" y="814.4883"/><text fill="#000000" font-family="sans-serif" font-size="14" lengthAdjust="spacing" textLength="91" x="74.5" y="833.0234">SunExposure</text><line style="stroke:#181818;stroke-width:0.5;" x1="72.5" x2="167.5" y1="840.9766" y2="840.9766"/><text fill="#000000" font-family="sans-serif" font-size="14" lengthAdjust="spacing" textLength="62" x="77.5" y="858.5117">Direction</text></g><!--link City to Adress--><g id="link_City_Adress"><path
        d="M50,367.4283 C49.28,380.0283 48.38,397.8483 48,413.4883 C47.64,428.6283 47.86,444.9183 48.35,460.2583 " fill="none" id="City-Adress" style="stroke:#181818;stroke-width:1.0;"/><polygon fill="#000000" points="52.9111,427.1428,56.0103,418.1513,50.1334,418.0469,52.9111,427.1428" style="stroke:#000000;stroke-width:1.0;"/><text fill="#000000" font-family="sans-serif" font-size="13" lengthAdjust="spacing" textLength="22" x="62" y="427.0566">has</text><text fill="#000000" font-family="sans-serif" font-size="13" lengthAdjust="spacing" textLength="8" x="40.4063" y="387.9179">1</text><text fill="#000000" font-family="sans-serif" font-size="13" lengthAdjust="spacing" textLength="8" x="39.5133" y="449.7019">1</text></g><!--link State to District--><g id="link_State_District"><path
        d="M51,78.9183 C51,104.7783 51,154.6583 51,180.3383 " fill="none" id="State-District" style="stroke:#181818;stroke-width:1.0;"/><polygon fill="#000000" points="56,122.1436,58.9389,113.0985,53.0611,113.0985,56,122.1436" style="stroke:#000000;stroke-width:1.0;"/><text fill="#000000" font-family="sans-serif" font-size="13" lengthAdjust="spacing" textLength="22" x="65" y="122.0566">has</text><text fill="#000000" font-family="sans-serif" font-size="13" lengthAdjust="spacing" textLength="8" x="41.725" y="99.4048">1</text><text fill="#000000" font-family="sans-serif" font-size="13" lengthAdjust="spacing" textLength="8" x="41.675" y="169.7119">1</text></g><!--link District to City--><g id="link_District_City"><path
        d="M51,214.8783 C51,243.8283 51,303.6783 51,332.6183 " fill="none" id="District-City" style="stroke:#181818;stroke-width:1.0;"/><polygon fill="#000000" points="56,283.1436,58.9389,274.0985,53.0611,274.0985,56,283.1436" style="stroke:#000000;stroke-width:1.0;"/><text fill="#000000" font-family="sans-serif" font-size="13" lengthAdjust="spacing" textLength="22" x="65" y="283.0566">has</text><text fill="#000000" font-family="sans-serif" font-size="13" lengthAdjust="spacing" textLength="8" x="41.675" y="235.662">1</text><text fill="#000000" font-family="sans-serif" font-size="13" lengthAdjust="spacing" textLength="8" x="41.725" y="322.231">1</text></g><!--link PublishedAnnouncement to Property--><g id="link_PublishedAnnouncement_Property"><path
        d="M215,239.6083 C215,263.6383 215,293.5383 215,316.0083 " fill="none" id="PublishedAnnouncement-Property" style="stroke:#181818;stroke-width:1.0;"/><polygon fill="#000000" points="220,283.1436,222.9389,274.0985,217.0611,274.0985,220,283.1436" style="stroke:#000000;stroke-width:1.0;"/><text fill="#000000" font-family="sans-serif" font-size="13" lengthAdjust="spacing" textLength="36" x="229" y="283.0566">about</text><text fill="#000000" font-family="sans-serif" font-size="13" lengthAdjust="spacing" textLength="8" x="206.3625" y="260.1133">1</text><text fill="#000000" font-family="sans-serif" font-size="13" lengthAdjust="spacing" textLength="8" x="206.2375" y="305.6548">1</text></g><!--link Residence to AvailableEquipment--><g id="link_Residence_AvailableEquipment"><path
        d="M241.27,569.4583 C251.1,600.1883 264.32,641.4983 273.44,669.9983 " fill="none" id="Residence-AvailableEquipment" style="stroke:#181818;stroke-width:1.0;"/><polygon fill="#000000" points="269.5238,636.9057,269.5664,627.3952,263.9681,629.1865,269.5238,636.9057" style="stroke:#000000;stroke-width:1.0;"/><text fill="#000000" font-family="sans-serif" font-size="13" lengthAdjust="spacing" textLength="22" x="277" y="637.0566">has</text><text fill="#000000" font-family="sans-serif" font-size="13" lengthAdjust="spacing" textLength="8" x="234.6315" y="589.3922">1</text><text fill="#000000" font-family="sans-serif" font-size="13" lengthAdjust="spacing" textLength="8" x="262.6645" y="659.6429">1</text></g><!--link House to SunExposure--><g id="link_House_SunExposure"><path
        d="M120,737.7683 C120,761.3183 120,792.5883 120,814.1083 " fill="none" id="House-SunExposure" style="stroke:#181818;stroke-width:1.0;"/><polygon fill="#000000" points="125,781.1436,127.9389,772.0985,122.0611,772.0985,125,781.1436" style="stroke:#000000;stroke-width:1.0;"/><text fill="#000000" font-family="sans-serif" font-size="13" lengthAdjust="spacing" textLength="22" x="134" y="781.0566">has</text><text fill="#000000" font-family="sans-serif" font-size="13" lengthAdjust="spacing" textLength="8" x="111.2125" y="758.4485">1</text><text fill="#000000" font-family="sans-serif" font-size="13" lengthAdjust="spacing" textLength="8" x="111.025" y="803.581">1</text></g><!--link Property to Adress--><g id="link_Property_Adress"><path
        d="M168.75,383.6683 C157.2,392.7483 145.2,402.9983 135,413.4883 C121.21,427.6683 107.78,444.2183 95.89,460.1983 " fill="none" id="Property-Adress" style="stroke:#181818;stroke-width:1.0;"/><polygon fill="#000000" points="136.5524,425.7649,144.9177,421.2403,140.6607,417.1874,136.5524,425.7649" style="stroke:#000000;stroke-width:1.0;"/><text fill="#000000" font-family="sans-serif" font-size="13" lengthAdjust="spacing" textLength="62" x="149" y="427.0566">located at</text><text fill="#000000" font-family="sans-serif" font-size="13" lengthAdjust="spacing" textLength="8" x="150.3859" y="404.7141">1</text><text fill="#000000" font-family="sans-serif" font-size="13" lengthAdjust="spacing" textLength="8" x="92.253" y="449.6353">1</text></g><!--reverse link Residence to House--><g id="link_Residence_House"><path
        d="M191.39,587.3083 C174.35,614.9283 154.72,646.7283 140.36,669.9983 " fill="none" id="Residence-backto-House" style="stroke:#181818;stroke-width:1.0;"/><polygon fill="none" points="185.94,583.8083,202.41,570.4583,197.86,591.1583,185.94,583.8083" style="stroke:#181818;stroke-width:1.0;"/></g><!--reverse link Property to Residence--><g id="link_Property_Residence"><path
        d="M218.98,404.6083 C220.89,430.3283 223.15,460.6583 224.92,484.5683 " fill="none" id="Property-backto-Residence" style="stroke:#181818;stroke-width:1.0;"/><polygon fill="none" points="211.95,405.3683,217.45,384.9083,225.91,404.3283,211.95,405.3683" style="stroke:#181818;stroke-width:1.0;"/></g><!--SRC=[RL5DRzGm4BtFhx1wuLIflLO8QRLRr0i8iU87JEpPjRME9zWJe2hyTyPUaXZeQPBn-x3VAvUG9imucf4JMvzv92Dv9YZhoOJsWcSwodCaayaAfdFi0SMZu-yXdSq9Oo60Dv5EOeHD3cSlneNA2fm0V71aRCXM1ThtIEBP5G09el9VZdTtz-R08uPaFh2Z260Zbc9sBbCfBr0a4mdO8C_WcFF73ATudKLG22RM6VVAXLyB-LXFpCksE0JL2LRwtLub-_zFyn13yUHsAV6SB8sKAi4r5y_21IOLQJuB9_D4kUbW9WIdFgZKznfirT-h1ENDupCLJK41IaZpE50sV383kSmybdw5ul_TQVgNcdhHXgXieayyboeuO6btXf0y3a5mq8GZdsI3xhvXY7N_-7KEqvy7MXqPunEXg3nWo7jEBjG6w_-MwfmUVsZSSwvkXxNb6aSBy-R-njpUjd6jppmOZyMyWsiXtVbQo89O5nseYIw0r-lfq6iN3mO7daKvMzpzrVxFOF6u9jbX-oUl5rbyNdjkPAilTGR_jd_xKu5DVQEttGg1tm00]--></g></svg>