<?xml version="1.0" encoding="us-ascii" standalone="no"?><svg xmlns="http://www.w3.org/2000/svg" xmlns:xlink="http://www.w3.org/1999/xlink" contentStyleType="text/css" height="433px" preserveAspectRatio="none" style="width:682px;height:433px;background:#FFFFFF;" version="1.1" viewBox="0 0 682 433" width="682px" zoomAndPan="magnify"><defs/><g><text fill="#000000" font-family="sans-serif" font-size="14" font-weight="bold" lengthAdjust="spacing" textLength="284" x="200.5" y="27.6738">US009 - System Sequence Diagram (SSD)</text><rect fill="#FFFFFF" height="217.1875" style="stroke:#181818;stroke-width:1.0;" width="10" x="36" y="127.2813"/><rect fill="#FFFFFF" height="66.5703" style="stroke:#181818;stroke-width:1.0;" width="10" x="629" y="147.8047"/><rect fill="#FFFFFF" height="28.5234" style="stroke:#181818;stroke-width:1.0;" width="10" x="629" y="242.8984"/><rect fill="#FFFFFF" height="35.5234" style="stroke:#181818;stroke-width:1.0;" width="10" x="629" y="299.9453"/><rect fill="none" height="145.1406" style="stroke:#000000;stroke-width:1.5;" width="666" x="10" y="162.8047"/><line style="stroke:#181818;stroke-width:0.5;stroke-dasharray:5.0,5.0;" x1="41" x2="41" y1="117.2813" y2="353.4688"/><line style="stroke:#181818;stroke-width:0.5;stroke-dasharray:5.0,5.0;" x1="634" x2="634" y1="117.2813" y2="353.4688"/><text fill="#000000" font-family="sans-serif" font-size="14" lengthAdjust="spacing" textLength="36" x="20" y="114.3145">Client</text><ellipse cx="41" cy="50.1406" fill="#E3E3E3" rx="8" ry="8" style="stroke:#181818;stroke-width:0.5;"/><path d="M41,58.1406 L41,85.1406 M28,66.1406 L54,66.1406 M41,85.1406 L28,100.1406 M41,85.1406 L54,100.1406 " fill="none" style="stroke:#181818;stroke-width:0.5;"/><text fill="#000000" font-family="sans-serif" font-size="14" lengthAdjust="spacing" textLength="36" x="20" y="365.1426">Client</text><ellipse cx="41" cy="376.6094" fill="#E3E3E3" rx="8" ry="8" style="stroke:#181818;stroke-width:0.5;"/><path d="M41,384.6094 L41,411.6094 M28,392.6094 L54,392.6094 M41,411.6094 L28,426.6094 M41,411.6094 L54,426.6094 " fill="none" style="stroke:#181818;stroke-width:0.5;"/><rect fill="#E3E3E3" height="29.6406" rx="2.5" ry="2.5" style="stroke:#181818;stroke-width:0.5;" width="64" x="602" y="86.6406"/><text fill="#000000" font-family="sans-serif" font-size="14" lengthAdjust="spacing" textLength="50" x="609" y="106.3145">:System</text><rect fill="#E3E3E3" height="29.6406" rx="2.5" ry="2.5" style="stroke:#181818;stroke-width:0.5;" width="64" x="602" y="352.4688"/><text fill="#000000" font-family="sans-serif" font-size="14" lengthAdjust="spacing" textLength="50" x="609" y="372.1426">:System</text><rect fill="#FFFFFF" height="217.1875" style="stroke:#181818;stroke-width:1.0;" width="10" x="36" y="127.2813"/><rect fill="#FFFFFF" height="66.5703" style="stroke:#181818;stroke-width:1.0;" width="10" x="629" y="147.8047"/><rect fill="#FFFFFF" height="28.5234" style="stroke:#181818;stroke-width:1.0;" width="10" x="629" y="242.8984"/><rect fill="#FFFFFF" height="35.5234" style="stroke:#181818;stroke-width:1.0;" width="10" x="629" y="299.9453"/><polygon fill="#181818" points="617,143.8047,627,147.8047,617,151.8047,621,147.8047" style="stroke:#181818;stroke-width:1.0;"/><line style="stroke:#181818;stroke-width:1.0;" x1="46" x2="623" y1="147.8047" y2="147.8047"/><text fill="#000000" font-family="sans-serif" font-size="13" font-weight="bold" lengthAdjust="spacing" textLength="7" x="53" y="143.0498">1</text><text fill="#000000" font-family="sans-serif" font-size="13" lengthAdjust="spacing" textLength="217" x="64" y="143.0498">asks to schedule a visit to a property.</text><path d="M10,162.8047 L83,162.8047 L83,169.3281 L73,179.3281 L10,179.3281 L10,162.8047 " fill="#EEEEEE" style="stroke:#000000;stroke-width:1.5;"/><rect fill="none" height="145.1406" style="stroke:#000000;stroke-width:1.5;" width="666" x="10" y="162.8047"/><text fill="#000000" font-family="sans-serif" font-size="13" font-weight="bold" lengthAdjust="spacing" textLength="28" x="25" y="175.5732">loop</text><text fill="#000000" font-family="sans-serif" font-size="11" font-weight="bold" lengthAdjust="spacing" textLength="284" x="98" y="174.7627">[while date and time slot do not overlap each other]</text><polygon fill="#181818" points="57,210.375,47,214.375,57,218.375,53,214.375" style="stroke:#181818;stroke-width:1.0;"/><line style="stroke:#181818;stroke-width:1.0;stroke-dasharray:2.0,2.0;" x1="51" x2="633" y1="214.375" y2="214.375"/><text fill="#000000" font-family="sans-serif" font-size="13" font-weight="bold" lengthAdjust="spacing" textLength="7" x="63" y="202.3584">2</text><text fill="#000000" font-family="sans-serif" font-size="13" lengthAdjust="spacing" textLength="230" x="74" y="195.0967">shows list of available properties (sorted</text><text fill="#000000" font-family="sans-serif" font-size="13" lengthAdjust="spacing" textLength="247" x="74" y="209.6201">from the most recent entries to the oldest).</text><polygon fill="#181818" points="617,238.8984,627,242.8984,617,246.8984,621,242.8984" style="stroke:#181818;stroke-width:1.0;"/><line style="stroke:#181818;stroke-width:1.0;" x1="46" x2="623" y1="242.8984" y2="242.8984"/><text fill="#000000" font-family="sans-serif" font-size="13" font-weight="bold" lengthAdjust="spacing" textLength="7" x="53" y="238.1436">3</text><text fill="#000000" font-family="sans-serif" font-size="13" lengthAdjust="spacing" textLength="93" x="64" y="238.1436">selects property</text><polygon fill="#181818" points="57,267.4219,47,271.4219,57,275.4219,53,271.4219" style="stroke:#181818;stroke-width:1.0;"/><line style="stroke:#181818;stroke-width:1.0;stroke-dasharray:2.0,2.0;" x1="51" x2="633" y1="271.4219" y2="271.4219"/><text fill="#000000" font-family="sans-serif" font-size="13" font-weight="bold" lengthAdjust="spacing" textLength="7" x="63" y="266.667">4</text><text fill="#000000" font-family="sans-serif" font-size="13" lengthAdjust="spacing" textLength="548" x="74" y="266.667">request data: preferred date, time slot (from x hour to y hour) for the property visit and message</text><polygon fill="#181818" points="617,295.9453,627,299.9453,617,303.9453,621,299.9453" style="stroke:#181818;stroke-width:1.0;"/><line style="stroke:#181818;stroke-width:1.0;" x1="46" x2="623" y1="299.9453" y2="299.9453"/><text fill="#000000" font-family="sans-serif" font-size="13" font-weight="bold" lengthAdjust="spacing" textLength="7" x="53" y="295.1904">5</text><text fill="#000000" font-family="sans-serif" font-size="13" lengthAdjust="spacing" textLength="281" x="64" y="295.1904">Type request data (date, time slot and message)</text><polygon fill="#181818" points="57,331.4688,47,335.4688,57,339.4688,53,335.4688" style="stroke:#181818;stroke-width:1.0;"/><line style="stroke:#181818;stroke-width:1.0;stroke-dasharray:2.0,2.0;" x1="51" x2="633" y1="335.4688" y2="335.4688"/><text fill="#000000" font-family="sans-serif" font-size="13" font-weight="bold" lengthAdjust="spacing" textLength="7" x="63" y="330.7139">6</text><text fill="#000000" font-family="sans-serif" font-size="13" lengthAdjust="spacing" textLength="145" x="74" y="330.7139">Informs operation sucess</text><!--SRC=[bL8zZzim3DtzAnuo9K1JtDeCNUwMczrkNNWs7GkHHLUaa_hVbqhYD2ro1Sw0OLeYdzw7z13II9a639AawRCC3CiJLthR6Qavq9vhcoCZSsEKzl6-GNjgvHJI7Xr5vQgoODxwlNvw-e8jwbcD1zJyS-BKC5u2xSlOkgvVDbL5aqcQXZVENZSc6Qld63ZP2gHudjISKwxyA0jD62aPLhiBvhdZKfvdmv6C_unKy6Vvm_RhmcJdOmU52RJfkPsSA-4OD5XP8unPHiusVxuWt82NayfY51bnweFFjcMFKWiBRfv6CRI2v1yvSeuqWgdf8TOldAuyjaxfHc_dDif94OFwO0SwKeZqvlXNEe4LQvLitE97wZmfEABdvlsUYXi6VtDfSnLbIsBBQfkhZ9OV2ddeZtBqdFNcnFi-F9QIIzREowsXdQDmnpaxxsBLfpkVrcSPlz3Bb0lh-LnjqFajA0gMyw_f59C7LlNR-75Dt-QH_oA6zRzqxl0t_ycUKtifbkUn2Q_9PGoA8e4iI89EZQE_nxpw3G00]--></g></svg>