<?xml version="1.0" encoding="us-ascii" standalone="no"?><svg xmlns="http://www.w3.org/2000/svg" xmlns:xlink="http://www.w3.org/1999/xlink" contentStyleType="text/css" height="867px" preserveAspectRatio="none" style="width:1030px;height:867px;background:#FFFFFF;" version="1.1" viewBox="0 0 1030 867" width="1030px" zoomAndPan="magnify"><defs/><g><text fill="#000000" font-family="sans-serif" font-size="14" font-weight="bold" lengthAdjust="spacing" textLength="156" x="430" y="22.6738">Domain Model - US004</text><!--class Owner--><g id="elem_Owner"><rect codeLine="14" fill="#F1F1F1" height="111.8438" id="Owner" rx="2.5" ry="2.5" style="stroke:#181818;stroke-width:0.5;" width="131" x="392.5" y="43.6406"/><text fill="#000000" font-family="sans-serif" font-size="14" lengthAdjust="spacing" textLength="41" x="437.5" y="61.3145">Owner</text><line style="stroke:#181818;stroke-width:0.5;" x1="393.5" x2="522.5" y1="69.2813" y2="69.2813"/><text fill="#000000" font-family="sans-serif" font-size="14" lengthAdjust="spacing" textLength="35" x="398.5" y="85.9551">name</text><text fill="#000000" font-family="sans-serif" font-size="14" lengthAdjust="spacing" textLength="119" x="398.5" y="101.5957">citizenCardNumber</text><text fill="#000000" font-family="sans-serif" font-size="14" lengthAdjust="spacing" textLength="67" x="398.5" y="117.2363">taxNumber</text><text fill="#000000" font-family="sans-serif" font-size="14" lengthAdjust="spacing" textLength="33" x="398.5" y="132.877">email</text><text fill="#000000" font-family="sans-serif" font-size="14" lengthAdjust="spacing" textLength="89" x="398.5" y="148.5176">phoneNumber</text></g><!--class Address--><g id="elem_Address"><rect codeLine="22" fill="#F1F1F1" height="127.4844" id="Address" rx="2.5" ry="2.5" style="stroke:#181818;stroke-width:0.5;" width="90" x="904" y="419.6406"/><text fill="#000000" font-family="sans-serif" font-size="14" lengthAdjust="spacing" textLength="52" x="923" y="437.3145">Address</text><line style="stroke:#181818;stroke-width:0.5;" x1="905" x2="993" y1="445.2813" y2="445.2813"/><text fill="#000000" font-family="sans-serif" font-size="14" lengthAdjust="spacing" textLength="78" x="910" y="461.9551">doorNumber</text><text fill="#000000" font-family="sans-serif" font-size="14" lengthAdjust="spacing" textLength="36" x="910" y="477.5957">street</text><text fill="#000000" font-family="sans-serif" font-size="14" lengthAdjust="spacing" textLength="77" x="910" y="493.2363">floorNumber</text><text fill="#000000" font-family="sans-serif" font-size="14" lengthAdjust="spacing" textLength="21" x="910" y="508.877">city</text><text fill="#000000" font-family="sans-serif" font-size="14" lengthAdjust="spacing" textLength="31" x="910" y="524.5176">state</text><text fill="#000000" font-family="sans-serif" font-size="14" lengthAdjust="spacing" textLength="72" x="910" y="540.1582">postalCode</text></g><!--class CompanyBranch--><g id="elem_CompanyBranch"><rect codeLine="31" fill="#F1F1F1" height="80.5625" id="CompanyBranch" rx="2.5" ry="2.5" style="stroke:#181818;stroke-width:0.5;" width="111" x="819.5" y="59.1406"/><text fill="#000000" font-family="sans-serif" font-size="14" lengthAdjust="spacing" textLength="105" x="822.5" y="76.8145">CompanyBranch</text><line style="stroke:#181818;stroke-width:0.5;" x1="820.5" x2="929.5" y1="84.7813" y2="84.7813"/><text fill="#000000" font-family="sans-serif" font-size="14" lengthAdjust="spacing" textLength="49" x="825.5" y="101.4551">location</text><text fill="#000000" font-family="sans-serif" font-size="14" lengthAdjust="spacing" textLength="33" x="825.5" y="117.0957">email</text><text fill="#000000" font-family="sans-serif" font-size="14" lengthAdjust="spacing" textLength="89" x="825.5" y="132.7363">phoneNumber</text></g><!--class Company--><g id="elem_Company"><rect codeLine="37" fill="#F1F1F1" height="49.2813" id="Company" rx="2.5" ry="2.5" style="stroke:#181818;stroke-width:0.5;" width="85" x="832.5" y="263.1406"/><text fill="#000000" font-family="sans-serif" font-size="14" lengthAdjust="spacing" textLength="60" x="845" y="280.8145">Company</text><line style="stroke:#181818;stroke-width:0.5;" x1="833.5" x2="916.5" y1="288.7813" y2="288.7813"/><text fill="#000000" font-family="sans-serif" font-size="14" lengthAdjust="spacing" textLength="73" x="838.5" y="305.4551">designation</text></g><!--class Agent--><g id="elem_Agent"><rect codeLine="41" fill="#F1F1F1" height="111.8438" id="Agent" rx="2.5" ry="2.5" style="stroke:#181818;stroke-width:0.5;" width="131" x="666.5" y="231.6406"/><text fill="#000000" font-family="sans-serif" font-size="14" lengthAdjust="spacing" textLength="37" x="713.5" y="249.3145">Agent</text><line style="stroke:#181818;stroke-width:0.5;" x1="667.5" x2="796.5" y1="257.2813" y2="257.2813"/><text fill="#000000" font-family="sans-serif" font-size="14" lengthAdjust="spacing" textLength="35" x="672.5" y="273.9551">name</text><text fill="#000000" font-family="sans-serif" font-size="14" lengthAdjust="spacing" textLength="119" x="672.5" y="289.5957">citizenCardNumber</text><text fill="#000000" font-family="sans-serif" font-size="14" lengthAdjust="spacing" textLength="67" x="672.5" y="305.2363">taxNumber</text><text fill="#000000" font-family="sans-serif" font-size="14" lengthAdjust="spacing" textLength="33" x="672.5" y="320.877">email</text><text fill="#000000" font-family="sans-serif" font-size="14" lengthAdjust="spacing" textLength="89" x="672.5" y="336.5176">phoneNumber</text></g><!--class InitialData--><g id="elem_InitialData"><rect codeLine="49" fill="#F1F1F1" height="80.5625" id="InitialData" rx="2.5" ry="2.5" style="stroke:#181818;stroke-width:0.5;" width="125" x="316.5" y="247.1406"/><text fill="#000000" font-family="sans-serif" font-size="14" lengthAdjust="spacing" textLength="62" x="348" y="264.8145">InitialData</text><line style="stroke:#181818;stroke-width:0.5;" x1="317.5" x2="440.5" y1="272.7813" y2="272.7813"/><text fill="#000000" font-family="sans-serif" font-size="14" lengthAdjust="spacing" textLength="113" x="322.5" y="289.4551">propertiesNumber</text><text fill="#000000" font-family="sans-serif" font-size="14" lengthAdjust="spacing" textLength="85" x="322.5" y="305.0957">propertyType</text><text fill="#000000" font-family="sans-serif" font-size="14" lengthAdjust="spacing" textLength="72" x="322.5" y="320.7363">saleOrRent</text></g><!--class PropertyType--><g id="elem_PropertyType"><rect codeLine="55" fill="#F1F1F1" height="80.5625" id="PropertyType" rx="2.5" ry="2.5" style="stroke:#181818;stroke-width:0.5;" width="92" x="155" y="442.6406"/><text fill="#000000" font-family="sans-serif" font-size="14" lengthAdjust="spacing" textLength="86" x="158" y="460.3145">PropertyType</text><line style="stroke:#181818;stroke-width:0.5;" x1="156" x2="246" y1="468.2813" y2="468.2813"/><text fill="#000000" font-family="sans-serif" font-size="14" lengthAdjust="spacing" textLength="27" x="161" y="484.9551">land</text><text fill="#000000" font-family="sans-serif" font-size="14" lengthAdjust="spacing" textLength="39" x="161" y="500.5957">house</text><text fill="#000000" font-family="sans-serif" font-size="14" lengthAdjust="spacing" textLength="64" x="161" y="516.2363">apartment</text></g><!--class Rent--><g id="elem_Rent"><rect codeLine="61" fill="#F1F1F1" height="64.9219" id="Rent" rx="2.5" ry="2.5" style="stroke:#181818;stroke-width:0.5;" width="117" x="332.5" y="638.1406"/><text fill="#000000" font-family="sans-serif" font-size="14" lengthAdjust="spacing" textLength="30" x="376" y="655.8145">Rent</text><line style="stroke:#181818;stroke-width:0.5;" x1="333.5" x2="448.5" y1="663.7813" y2="663.7813"/><text fill="#000000" font-family="sans-serif" font-size="14" lengthAdjust="spacing" textLength="92" x="338.5" y="680.4551">pricePerMonth</text><text fill="#000000" font-family="sans-serif" font-size="14" lengthAdjust="spacing" textLength="105" x="338.5" y="696.0957">contractDuration</text></g><!--class Sale--><g id="elem_Sale"><rect codeLine="66" fill="#F1F1F1" height="49.2813" id="Sale" rx="2.5" ry="2.5" style="stroke:#181818;stroke-width:0.5;" width="43" x="233.5" y="646.1406"/><text fill="#000000" font-family="sans-serif" font-size="14" lengthAdjust="spacing" textLength="28" x="241" y="663.8145">Sale</text><line style="stroke:#181818;stroke-width:0.5;" x1="234.5" x2="275.5" y1="671.7813" y2="671.7813"/><text fill="#000000" font-family="sans-serif" font-size="14" lengthAdjust="spacing" textLength="31" x="239.5" y="688.4551">price</text></g><!--class PropertyRequest--><g id="elem_PropertyRequest"><rect codeLine="70" fill="#F1F1F1" height="96.2031" id="PropertyRequest" rx="2.5" ry="2.5" style="stroke:#181818;stroke-width:0.5;" width="165" x="587.5" y="622.6406"/><text fill="#000000" font-family="sans-serif" font-size="14" lengthAdjust="spacing" textLength="107" x="616.5" y="640.3145">PropertyRequest</text><line style="stroke:#181818;stroke-width:0.5;" x1="588.5" x2="751.5" y1="648.2813" y2="648.2813"/><text fill="#000000" font-family="sans-serif" font-size="14" lengthAdjust="spacing" textLength="49" x="593.5" y="664.9551">location</text><text fill="#000000" font-family="sans-serif" font-size="14" lengthAdjust="spacing" textLength="29" x="593.5" y="680.5957">area</text><text fill="#000000" font-family="sans-serif" font-size="14" lengthAdjust="spacing" textLength="153" x="593.5" y="696.2363">distanceFromCityCenter</text><text fill="#000000" font-family="sans-serif" font-size="14" lengthAdjust="spacing" textLength="80" x="593.5" y="711.877">photographs</text></g><!--class Residence--><g id="elem_Residence"><rect codeLine="77" fill="#F1F1F1" height="96.2031" id="Residence" rx="2.5" ry="2.5" style="stroke:#181818;stroke-width:0.5;" width="170" x="28" y="622.6406"/><text fill="#000000" font-family="sans-serif" font-size="14" lengthAdjust="spacing" textLength="67" x="79.5" y="640.3145">Residence</text><line style="stroke:#181818;stroke-width:0.5;" x1="29" x2="197" y1="648.2813" y2="648.2813"/><text fill="#000000" font-family="sans-serif" font-size="14" lengthAdjust="spacing" textLength="127" x="34" y="664.9551">numberOfBedrooms</text><text fill="#000000" font-family="sans-serif" font-size="14" lengthAdjust="spacing" textLength="131" x="34" y="680.5957">numberOfBathrooms</text><text fill="#000000" font-family="sans-serif" font-size="14" lengthAdjust="spacing" textLength="158" x="34" y="696.2363">numberOfParkingSpaces</text><text fill="#000000" font-family="sans-serif" font-size="14" lengthAdjust="spacing" textLength="123" x="34" y="711.877">availableEquipment</text></g><!--class House--><g id="elem_House"><rect codeLine="84" fill="#F1F1F1" height="80.5625" id="House" rx="2.5" ry="2.5" style="stroke:#181818;stroke-width:0.5;" width="94" x="7" y="779.6406"/><text fill="#000000" font-family="sans-serif" font-size="14" lengthAdjust="spacing" textLength="40" x="34" y="797.3145">House</text><line style="stroke:#181818;stroke-width:0.5;" x1="8" x2="100" y1="805.2813" y2="805.2813"/><text fill="#000000" font-family="sans-serif" font-size="14" lengthAdjust="spacing" textLength="62" x="13" y="821.9551">basement</text><text fill="#000000" font-family="sans-serif" font-size="14" lengthAdjust="spacing" textLength="19" x="13" y="837.5957">loft</text><text fill="#000000" font-family="sans-serif" font-size="14" lengthAdjust="spacing" textLength="82" x="13" y="853.2363">sunExposure</text></g><!--class Apartment--><g id="elem_Apartment"><rect codeLine="90" fill="#F1F1F1" height="33.6406" id="Apartment" rx="2.5" ry="2.5" style="stroke:#181818;stroke-width:0.5;" width="71" x="136.5" y="803.1406"/><text fill="#000000" font-family="sans-serif" font-size="14" lengthAdjust="spacing" textLength="65" x="139.5" y="820.8145">Apartment</text><line style="stroke:#181818;stroke-width:0.5;" x1="137.5" x2="206.5" y1="828.7813" y2="828.7813"/></g><!--class Announcement--><g id="elem_Announcement"><rect codeLine="93" fill="#F1F1F1" height="33.6406" id="Announcement" rx="2.5" ry="2.5" style="stroke:#181818;stroke-width:0.5;" width="101" x="334.5" y="466.1406"/><text fill="#000000" font-family="sans-serif" font-size="14" lengthAdjust="spacing" textLength="95" x="337.5" y="483.8145">Announcement</text><line style="stroke:#181818;stroke-width:0.5;" x1="335.5" x2="434.5" y1="491.7813" y2="491.7813"/></g><!--link CompanyBranch to Company--><g id="link_CompanyBranch_Company"><path codeLine="96" d="M875,140.5406 C875,177.8006 875,232.1406 875,262.9706 " fill="none" id="CompanyBranch-Company" style="stroke:#181818;stroke-width:1.0;"/><polygon fill="#000000" points="880,198.9023,882.9389,189.8573,877.0611,189.8573,880,198.9023" style="stroke:#000000;stroke-width:1.0;"/><text fill="#000000" font-family="sans-serif" font-size="13" lengthAdjust="spacing" textLength="51" x="889" y="198.4092">is owned</text><text fill="#000000" font-family="sans-serif" font-size="13" lengthAdjust="spacing" textLength="24" x="849.2375" y="159.4151">0...*</text><text fill="#000000" font-family="sans-serif" font-size="13" lengthAdjust="spacing" textLength="7" x="867.0594" y="252.2604">1</text></g><!--link CompanyBranch to Agent--><g id="link_CompanyBranch_Agent"><path codeLine="97" d="M840.18,140.2406 C828.12,154.3406 814.7,170.4906 803,185.6406 C791.73,200.2306 780.02,216.4106 769.44,231.4706 " fill="none" id="CompanyBranch-Agent" style="stroke:#181818;stroke-width:1.0;"/><polygon fill="#000000" points="804.9361,197.8536,812.8012,192.5066,808.1562,188.9048,804.9361,197.8536" style="stroke:#000000;stroke-width:1.0;"/><text fill="#000000" font-family="sans-serif" font-size="13" lengthAdjust="spacing" textLength="49" x="817" y="198.4092">employs</text><text fill="#000000" font-family="sans-serif" font-size="13" lengthAdjust="spacing" textLength="7" x="810.0872" y="159.3715">1</text><text fill="#000000" font-family="sans-serif" font-size="13" lengthAdjust="spacing" textLength="24" x="748.8585" y="220.7964">0...*</text></g><!--link CompanyBranch to Address--><g id="link_CompanyBranch_Address"><path codeLine="98" d="M919.82,140.2706 C931.6,153.4006 942.76,168.9706 949,185.6406 C977.65,262.1706 970.76,357.8006 961.4,419.4206 " fill="none" id="CompanyBranch-Address" style="stroke:#181818;stroke-width:1.0;"/><polygon fill="#000000" points="974.7366,292.8478,976.3109,283.4684,970.4972,284.3344,974.7366,292.8478" style="stroke:#000000;stroke-width:1.0;"/><text fill="#000000" font-family="sans-serif" font-size="13" lengthAdjust="spacing" textLength="39" x="983" y="292.4092">has an</text><text fill="#000000" font-family="sans-serif" font-size="13" lengthAdjust="spacing" textLength="7" x="914.8409" y="159.4061">1</text><text fill="#000000" font-family="sans-serif" font-size="13" lengthAdjust="spacing" textLength="24" x="937.4463" y="409.0144">0...*</text></g><!--link Agent to Announcement--><g id="link_Agent_Announcement"><path codeLine="100" d="M666.18,331.2706 C636.8,349.8206 601.54,371.4306 569,389.6406 C517.83,418.2806 456.71,448.1906 419.39,465.9806 " fill="none" id="Agent-Announcement" style="stroke:#181818;stroke-width:1.0;"/><polygon fill="#000000" points="596.6112,384.2979,605.9587,382.5439,603.1425,377.3846,596.6112,384.2979" style="stroke:#000000;stroke-width:1.0;"/><text fill="#000000" font-family="sans-serif" font-size="13" lengthAdjust="spacing" textLength="126" x="610" y="386.4092">reviews and publishes</text><text fill="#000000" font-family="sans-serif" font-size="13" lengthAdjust="spacing" textLength="7" x="651.5981" y="333.0828">1</text><text fill="#000000" font-family="sans-serif" font-size="13" lengthAdjust="spacing" textLength="24" x="379.1414" y="455.2994">0...*</text></g><!--link Agent to Address--><g id="link_Agent_Address"><path codeLine="101" d="M793.89,343.8306 C828.97,375.1106 872.07,413.5406 903.93,441.9506 " fill="none" id="Agent-Address" style="stroke:#181818;stroke-width:1.0;"/><polygon fill="#000000" points="848.7319,385.23,843.9368,377.0167,840.0249,381.4038,848.7319,385.23" style="stroke:#000000;stroke-width:1.0;"/><text fill="#000000" font-family="sans-serif" font-size="13" lengthAdjust="spacing" textLength="39" x="854" y="386.4092">has an</text><text fill="#000000" font-family="sans-serif" font-size="13" lengthAdjust="spacing" textLength="7" x="794.0063" y="363.3419">1</text><text fill="#000000" font-family="sans-serif" font-size="13" lengthAdjust="spacing" textLength="7" x="880.8802" y="432.3431">1</text></g><!--link Agent to PropertyRequest--><g id="link_Agent_PropertyRequest"><path codeLine="102" d="M744.28,343.6906 C746.19,358.6006 746.96,374.7406 745,389.6406 C734,473.2106 705.29,567.2906 686.75,622.3506 " fill="none" id="Agent-PropertyRequest" style="stroke:#181818;stroke-width:1.0;"/><polygon fill="#000000" points="743.9891,488.2991,748.6961,480.035,742.9396,478.8466,743.9891,488.2991" style="stroke:#000000;stroke-width:1.0;"/><text fill="#000000" font-family="sans-serif" font-size="13" lengthAdjust="spacing" textLength="43" x="754" y="487.9092">creates</text><text fill="#000000" font-family="sans-serif" font-size="13" lengthAdjust="spacing" textLength="7" x="738.3501" y="363.1848">1</text><text fill="#000000" font-family="sans-serif" font-size="13" lengthAdjust="spacing" textLength="7" x="681.6961" y="612.022">1</text></g><!--link Owner to InitialData--><g id="link_Owner_InitialData"><path codeLine="104" d="M434.62,155.6906 C422.15,185.0406 407.1,220.4806 395.8,247.0906 " fill="none" id="Owner-InitialData" style="stroke:#181818;stroke-width:1.0;"/><polygon fill="#000000" points="424.0454,198.5045,430.2864,191.3281,424.8763,189.0303,424.0454,198.5045" style="stroke:#000000;stroke-width:1.0;"/><text fill="#000000" font-family="sans-serif" font-size="13" lengthAdjust="spacing" textLength="41" x="435" y="198.4092">specify</text><text fill="#000000" font-family="sans-serif" font-size="13" lengthAdjust="spacing" textLength="7" x="424.344" y="175.1848">1</text><text fill="#000000" font-family="sans-serif" font-size="13" lengthAdjust="spacing" textLength="24" x="372.655" y="236.4749">0...*</text></g><!--link Owner to PropertyRequest--><g id="link_Owner_PropertyRequest"><path codeLine="105" d="M477.5,155.9606 C480.39,165.7506 483.05,175.9206 485,185.6406 C502.89,274.8806 474.98,303.0406 503,389.6406 C531.75,478.5006 592.81,569.1306 632.59,622.3406 " fill="none" id="Owner-PropertyRequest" style="stroke:#181818;stroke-width:1.0;"/><polygon fill="#000000" points="509.5778,386.6469,509.5123,377.1365,503.9348,378.9913,509.5778,386.6469" style="stroke:#000000;stroke-width:1.0;"/><text fill="#000000" font-family="sans-serif" font-size="13" lengthAdjust="spacing" textLength="43" x="517" y="386.4092">creates</text><text fill="#000000" font-family="sans-serif" font-size="13" lengthAdjust="spacing" textLength="7" x="472.35" y="175.0898">1</text><text fill="#000000" font-family="sans-serif" font-size="13" lengthAdjust="spacing" textLength="7" x="619.5813" y="612.0105">1</text></g><!--link InitialData to PropertyType--><g id="link_InitialData_PropertyType"><path codeLine="107" d="M342.55,328.2606 C311.83,361.6606 268.1,409.1906 237.4,442.5706 " fill="none" id="InitialData-PropertyType" style="stroke:#181818;stroke-width:1.0;"/><polygon fill="#000000" points="302.615,385.5822,310.9015,380.9149,306.5755,376.9356,302.615,385.5822" style="stroke:#000000;stroke-width:1.0;"/><text fill="#000000" font-family="sans-serif" font-size="13" lengthAdjust="spacing" textLength="48" x="315" y="386.4092">includes</text><text fill="#000000" font-family="sans-serif" font-size="13" lengthAdjust="spacing" textLength="7" x="320.8202" y="347.3946">1</text><text fill="#000000" font-family="sans-serif" font-size="13" lengthAdjust="spacing" textLength="7" x="236.2603" y="431.9514">1</text></g><!--link InitialData to Announcement--><g id="link_InitialData_Announcement"><path codeLine="108" d="M377.31,328.4206 C376.78,342.6806 376.26,358.8806 376,373.6406 C375.87,380.7506 375.66,382.5406 376,389.6406 C377.31,416.5506 380.74,447.7206 382.97,466.1306 " fill="none" id="InitialData-Announcement" style="stroke:#181818;stroke-width:1.0;"/><polygon fill="#000000" points="381.2053,386.8981,383.7703,377.74,377.8974,377.9814,381.2053,386.8981" style="stroke:#000000;stroke-width:1.0;"/><text fill="#000000" font-family="sans-serif" font-size="13" lengthAdjust="spacing" textLength="76" x="390" y="386.4092">is included in</text><text fill="#000000" font-family="sans-serif" font-size="13" lengthAdjust="spacing" textLength="7" x="369.5153" y="347.5791">1</text><text fill="#000000" font-family="sans-serif" font-size="13" lengthAdjust="spacing" textLength="7" x="369.7249" y="455.5029">1</text></g><!--reverse link PropertyType to Residence--><g id="link_PropertyType_Residence"><path codeLine="110" d="M179.83,528.7606 C166.42,557.0406 149.08,593.5806 135.43,622.3606 " fill="none" id="PropertyType-backto-Residence" style="stroke:#181818;stroke-width:1.0;"/><polygon fill="#181818" points="182.12,523.9306,174.647,530.3458,179.9759,528.4476,181.8741,533.7764,182.12,523.9306" style="stroke:#181818;stroke-width:1.0;"/></g><!--reverse link Residence to House--><g id="link_Residence_House"><path codeLine="112" d="M92.13,723.8206 C84.81,742.1106 76.72,762.3406 69.88,779.4406 " fill="none" id="Residence-backto-House" style="stroke:#181818;stroke-width:1.0;"/><polygon fill="#181818" points="94.17,718.7206,87.1136,725.5914,92.313,723.363,94.5414,728.5625,94.17,718.7206" style="stroke:#181818;stroke-width:1.0;"/></g><!--reverse link Residence to Apartment--><g id="link_Residence_Apartment"><path codeLine="113" d="M133.74,723.5006 C144.88,751.3506 157.85,783.7706 165.47,802.8106 " fill="none" id="Residence-backto-Apartment" style="stroke:#181818;stroke-width:1.0;"/><polygon fill="#181818" points="131.83,718.7206,131.4586,728.5625,133.687,723.363,138.8864,725.5914,131.83,718.7206" style="stroke:#181818;stroke-width:1.0;"/></g><!--link Announcement to Sale--><g id="link_Announcement_Sale"><path codeLine="115" d="M361.22,500.1706 C338.32,516.7706 304.27,544.7306 284,576.6406 C271.57,596.2206 264.14,621.5006 259.91,640.7606 " fill="none" id="Announcement-to-Sale" style="stroke:#181818;stroke-width:1.0;"/><polygon fill="#181818" points="258.8,646.0306,264.5636,638.0443,259.8272,641.1373,256.7342,636.4008,258.8,646.0306" style="stroke:#181818;stroke-width:1.0;"/><polygon fill="#000000" points="286.0769,588.9588,293.7492,583.3387,288.9805,579.9024,286.0769,588.9588" style="stroke:#000000;stroke-width:1.0;"/><text fill="#000000" font-family="sans-serif" font-size="13" lengthAdjust="spacing" textLength="81" x="298" y="589.4092">can announce</text></g><!--link Announcement to Rent--><g id="link_Announcement_Rent"><path codeLine="116" d="M385.39,500.3206 C385.91,521.5206 386.91,559.8706 388,592.6406 C388.43,605.6306 388.97,619.8406 389.47,632.4906 " fill="none" id="Announcement-to-Rent" style="stroke:#181818;stroke-width:1.0;"/><polygon fill="#181818" points="389.68,637.8006,393.3171,628.6479,389.4802,632.8046,385.3235,628.9677,389.68,637.8006" style="stroke:#181818;stroke-width:1.0;"/><polygon fill="#000000" points="393.1543,589.9,395.8127,580.7685,389.9377,580.9499,393.1543,589.9" style="stroke:#000000;stroke-width:1.0;"/><text fill="#000000" font-family="sans-serif" font-size="13" lengthAdjust="spacing" textLength="81" x="402" y="589.4092">can announce</text></g><!--SRC=[fLJBRjim4BplLn2-52ZWm0PwAee0YPEYEQG9xFO3rkHQ8aAH2hbAeXhzzwuUjYKbI0xLnSHoPlOrT7gmliI8XIg23pgFeI35iI98nviIzGDcjE7QaOga6NtcXe2KemdFrcTgXouHm2T7ErOSLBHPpihOXcM3Xm59EqpfWZdQRSLqeuFVs3-a5W2vDQIqZLgIjEU2E0yc0R1bAU4g56YzkWs6d9ghtvl5uWj0gwVkdZt5FNWi2BHbKVGhZEPdLMmf0kDBVoAHS53cmLCV-NkGk30cKafxC274_Z9n96BOkLD8r6k98nEKGNxTIkevgQn2KQAlBoDwdU_11Otj1Dv9t5CaCIMR-Gv_AYiZp__NsOqN7hehPDn36KD9aIsb7jO7wbzrASj5HtTnBIbFzFi1G3f2Ro0FbUmRPQDSZB3hjjWoMatt56-3vnnanHnHyrKL9xrj95kFVfrkJOyL9HxC42CX62j3zvg-YsLNiekLP6owo0E7B6APfs4rINmaO9bVs-pTxf9C3A58fm1oFexSOnItPXlnFoN09vahRXrTFrQs77Vxend37hQOgBrmOSUGAd_z8jQeug2fYyEezeEOzw6IuexXaNVKR75sTlPvfkPpDLlE3YvHNvLDAeZTZJgVCfPAlexHarlt28UAqeKwlKKPuxj788mSaq8l1EWqcXeQeFhmEqWDsXEzI4-MdXjDeyfgwspAgQbdhBviwd-ZY26gcyV49WBMOWzkDQ7zEpYAzWKDde6WKqdQxcf1Zy4VIGzLkd8dhEQPD5losbMcvOmfmp4kNur9bjipZHoQX2FTRy8zkXhWU6mlMZjEOaVZoHw7cURpy_RvDSt9XB6_QqOzXQsxoYQmVm00]--></g></svg>