<?xml version="1.0" encoding="us-ascii" standalone="no"?><svg xmlns="http://www.w3.org/2000/svg" xmlns:xlink="http://www.w3.org/1999/xlink" contentStyleType="text/css" height="520.2px" preserveAspectRatio="none" style="width:630px;height:520px;background:#FFFFFF;" version="1.1" viewBox="0 0 630 520" width="630.6px" zoomAndPan="magnify"><defs/><g><text fill="#000000" font-family="sans-serif" font-size="8.4" font-weight="bold" lengthAdjust="spacing" textLength="93.6" x="264.45" y="13.6043">Domain Model - US004</text><!--class Owner--><g id="elem_Owner"><rect codeLine="14" fill="#F1F1F1" height="67.1063" id="Owner" rx="1.5" ry="1.5" style="stroke:#181818;stroke-width:0.3;" width="78.6" x="235.5" y="26.1844"/><text fill="#000000" font-family="sans-serif" font-size="8.4" lengthAdjust="spacing" textLength="24.6" x="262.5" y="36.7887">Owner</text><line style="stroke:#181818;stroke-width:0.3;" x1="236.1" x2="313.5" y1="41.5688" y2="41.5688"/><text fill="#000000" font-family="sans-serif" font-size="8.4" lengthAdjust="spacing" textLength="21" x="239.1" y="51.573">name</text><text fill="#000000" font-family="sans-serif" font-size="8.4" lengthAdjust="spacing" textLength="71.4" x="239.1" y="60.9574">citizenCardNumber</text><text fill="#000000" font-family="sans-serif" font-size="8.4" lengthAdjust="spacing" textLength="40.2" x="239.1" y="70.3418">taxNumber</text><text fill="#000000" font-family="sans-serif" font-size="8.4" lengthAdjust="spacing" textLength="19.8" x="239.1" y="79.7262">email</text><text fill="#000000" font-family="sans-serif" font-size="8.4" lengthAdjust="spacing" textLength="53.4" x="239.1" y="89.1105">phoneNumber</text></g><!--class Address--><g id="elem_Address"><rect codeLine="22" fill="#F1F1F1" height="76.4906" id="Address" rx="1.5" ry="1.5" style="stroke:#181818;stroke-width:0.3;" width="54" x="542.4" y="251.7844"/><text fill="#000000" font-family="sans-serif" font-size="8.4" lengthAdjust="spacing" textLength="31.2" x="553.8" y="262.3887">Address</text><line style="stroke:#181818;stroke-width:0.3;" x1="543" x2="595.8" y1="267.1688" y2="267.1688"/><text fill="#000000" font-family="sans-serif" font-size="8.4" lengthAdjust="spacing" textLength="46.8" x="546" y="277.173">doorNumber</text><text fill="#000000" font-family="sans-serif" font-size="8.4" lengthAdjust="spacing" textLength="21.6" x="546" y="286.5574">street</text><text fill="#000000" font-family="sans-serif" font-size="8.4" lengthAdjust="spacing" textLength="46.2" x="546" y="295.9418">floorNumber</text><text fill="#000000" font-family="sans-serif" font-size="8.4" lengthAdjust="spacing" textLength="12.6" x="546" y="305.3262">city</text><text fill="#000000" font-family="sans-serif" font-size="8.4" lengthAdjust="spacing" textLength="18.6" x="546" y="314.7105">state</text><text fill="#000000" font-family="sans-serif" font-size="8.4" lengthAdjust="spacing" textLength="43.2" x="546" y="324.0949">postalCode</text></g><!--class CompanyBranch--><g id="elem_CompanyBranch"><rect codeLine="31" fill="#F1F1F1" height="48.3375" id="CompanyBranch" rx="1.5" ry="1.5" style="stroke:#181818;stroke-width:0.3;" width="66.6" x="491.7" y="35.4844"/><text fill="#000000" font-family="sans-serif" font-size="8.4" lengthAdjust="spacing" textLength="63" x="493.5" y="46.0887">CompanyBranch</text><line style="stroke:#181818;stroke-width:0.3;" x1="492.3" x2="557.7" y1="50.8688" y2="50.8688"/><text fill="#000000" font-family="sans-serif" font-size="8.4" lengthAdjust="spacing" textLength="29.4" x="495.3" y="60.873">location</text><text fill="#000000" font-family="sans-serif" font-size="8.4" lengthAdjust="spacing" textLength="19.8" x="495.3" y="70.2574">email</text><text fill="#000000" font-family="sans-serif" font-size="8.4" lengthAdjust="spacing" textLength="53.4" x="495.3" y="79.6418">phoneNumber</text></g><!--class Company--><g id="elem_Company"><rect codeLine="37" fill="#F1F1F1" height="29.5687" id="Company" rx="1.5" ry="1.5" style="stroke:#181818;stroke-width:0.3;" width="51" x="499.5" y="157.8844"/><text fill="#000000" font-family="sans-serif" font-size="8.4" lengthAdjust="spacing" textLength="36" x="507" y="168.4887">Company</text><line style="stroke:#181818;stroke-width:0.3;" x1="500.1" x2="549.9" y1="173.2687" y2="173.2687"/><text fill="#000000" font-family="sans-serif" font-size="8.4" lengthAdjust="spacing" textLength="43.8" x="503.1" y="183.273">designation</text></g><!--class Agent--><g id="elem_Agent"><rect codeLine="41" fill="#F1F1F1" height="67.1063" id="Agent" rx="1.5" ry="1.5" style="stroke:#181818;stroke-width:0.3;" width="78.6" x="399.9" y="138.9844"/><text fill="#000000" font-family="sans-serif" font-size="8.4" lengthAdjust="spacing" textLength="22.2" x="428.1" y="149.5887">Agent</text><line style="stroke:#181818;stroke-width:0.3;" x1="400.5" x2="477.9" y1="154.3688" y2="154.3688"/><text fill="#000000" font-family="sans-serif" font-size="8.4" lengthAdjust="spacing" textLength="21" x="403.5" y="164.373">name</text><text fill="#000000" font-family="sans-serif" font-size="8.4" lengthAdjust="spacing" textLength="71.4" x="403.5" y="173.7574">citizenCardNumber</text><text fill="#000000" font-family="sans-serif" font-size="8.4" lengthAdjust="spacing" textLength="40.2" x="403.5" y="183.1418">taxNumber</text><text fill="#000000" font-family="sans-serif" font-size="8.4" lengthAdjust="spacing" textLength="19.8" x="403.5" y="192.5262">email</text><text fill="#000000" font-family="sans-serif" font-size="8.4" lengthAdjust="spacing" textLength="53.4" x="403.5" y="201.9105">phoneNumber</text></g><!--class InitialData--><g id="elem_InitialData"><rect codeLine="49" fill="#F1F1F1" height="48.3375" id="InitialData" rx="1.5" ry="1.5" style="stroke:#181818;stroke-width:0.3;" width="75" x="189.9" y="148.2844"/><text fill="#000000" font-family="sans-serif" font-size="8.4" lengthAdjust="spacing" textLength="37.2" x="208.8" y="158.8887">InitialData</text><line style="stroke:#181818;stroke-width:0.3;" x1="190.5" x2="264.3" y1="163.6688" y2="163.6688"/><text fill="#000000" font-family="sans-serif" font-size="8.4" lengthAdjust="spacing" textLength="67.8" x="193.5" y="173.673">propertiesNumber</text><text fill="#000000" font-family="sans-serif" font-size="8.4" lengthAdjust="spacing" textLength="51" x="193.5" y="183.0574">propertyType</text><text fill="#000000" font-family="sans-serif" font-size="8.4" lengthAdjust="spacing" textLength="43.2" x="193.5" y="192.4418">saleOrRent</text></g><!--class PropertyType--><g id="elem_PropertyType"><rect codeLine="55" fill="#F1F1F1" height="48.3375" id="PropertyType" rx="1.5" ry="1.5" style="stroke:#181818;stroke-width:0.3;" width="55.2" x="93" y="265.5844"/><text fill="#000000" font-family="sans-serif" font-size="8.4" lengthAdjust="spacing" textLength="51.6" x="94.8" y="276.1887">PropertyType</text><line style="stroke:#181818;stroke-width:0.3;" x1="93.6" x2="147.6" y1="280.9688" y2="280.9688"/><text fill="#000000" font-family="sans-serif" font-size="8.4" lengthAdjust="spacing" textLength="16.2" x="96.6" y="290.973">land</text><text fill="#000000" font-family="sans-serif" font-size="8.4" lengthAdjust="spacing" textLength="23.4" x="96.6" y="300.3574">house</text><text fill="#000000" font-family="sans-serif" font-size="8.4" lengthAdjust="spacing" textLength="38.4" x="96.6" y="309.7418">apartment</text></g><!--class Rent--><g id="elem_Rent"><rect codeLine="61" fill="#F1F1F1" height="38.9531" id="Rent" rx="1.5" ry="1.5" style="stroke:#181818;stroke-width:0.3;" width="70.2" x="199.5" y="382.8844"/><text fill="#000000" font-family="sans-serif" font-size="8.4" lengthAdjust="spacing" textLength="18" x="225.6" y="393.4887">Rent</text><line style="stroke:#181818;stroke-width:0.3;" x1="200.1" x2="269.1" y1="398.2688" y2="398.2688"/><text fill="#000000" font-family="sans-serif" font-size="8.4" lengthAdjust="spacing" textLength="55.2" x="203.1" y="408.273">pricePerMonth</text><text fill="#000000" font-family="sans-serif" font-size="8.4" lengthAdjust="spacing" textLength="63" x="203.1" y="417.6574">contractDuration</text></g><!--class Sale--><g id="elem_Sale"><rect codeLine="66" fill="#F1F1F1" height="29.5687" id="Sale" rx="1.5" ry="1.5" style="stroke:#181818;stroke-width:0.3;" width="25.8" x="140.1" y="387.6844"/><text fill="#000000" font-family="sans-serif" font-size="8.4" lengthAdjust="spacing" textLength="16.8" x="144.6" y="398.2887">Sale</text><line style="stroke:#181818;stroke-width:0.3;" x1="140.7" x2="165.3" y1="403.0687" y2="403.0687"/><text fill="#000000" font-family="sans-serif" font-size="8.4" lengthAdjust="spacing" textLength="18.6" x="143.7" y="413.073">price</text></g><!--class PropertyRequest--><g id="elem_PropertyRequest"><rect codeLine="70" fill="#F1F1F1" height="57.7219" id="PropertyRequest" rx="1.5" ry="1.5" style="stroke:#181818;stroke-width:0.3;" width="99" x="352.5" y="373.5844"/><text fill="#000000" font-family="sans-serif" font-size="8.4" lengthAdjust="spacing" textLength="64.2" x="369.9" y="384.1887">PropertyRequest</text><line style="stroke:#181818;stroke-width:0.3;" x1="353.1" x2="450.9" y1="388.9688" y2="388.9688"/><text fill="#000000" font-family="sans-serif" font-size="8.4" lengthAdjust="spacing" textLength="29.4" x="356.1" y="398.973">location</text><text fill="#000000" font-family="sans-serif" font-size="8.4" lengthAdjust="spacing" textLength="17.4" x="356.1" y="408.3574">area</text><text fill="#000000" font-family="sans-serif" font-size="8.4" lengthAdjust="spacing" textLength="91.8" x="356.1" y="417.7418">distanceFromCityCenter</text><text fill="#000000" font-family="sans-serif" font-size="8.4" lengthAdjust="spacing" textLength="48" x="356.1" y="427.1262">photographs</text></g><!--class Residence--><g id="elem_Residence"><rect codeLine="77" fill="#F1F1F1" height="57.7219" id="Residence" rx="1.5" ry="1.5" style="stroke:#181818;stroke-width:0.3;" width="102" x="16.8" y="373.5844"/><text fill="#000000" font-family="sans-serif" font-size="8.4" lengthAdjust="spacing" textLength="40.2" x="47.7" y="384.1887">Residence</text><line style="stroke:#181818;stroke-width:0.3;" x1="17.4" x2="118.2" y1="388.9688" y2="388.9688"/><text fill="#000000" font-family="sans-serif" font-size="8.4" lengthAdjust="spacing" textLength="76.2" x="20.4" y="398.973">numberOfBedrooms</text><text fill="#000000" font-family="sans-serif" font-size="8.4" lengthAdjust="spacing" textLength="78.6" x="20.4" y="408.3574">numberOfBathrooms</text><text fill="#000000" font-family="sans-serif" font-size="8.4" lengthAdjust="spacing" textLength="94.8" x="20.4" y="417.7418">numberOfParkingSpaces</text><text fill="#000000" font-family="sans-serif" font-size="8.4" lengthAdjust="spacing" textLength="73.8" x="20.4" y="427.1262">availableEquipment</text></g><!--class House--><g id="elem_House"><rect codeLine="84" fill="#F1F1F1" height="48.3375" id="House" rx="1.5" ry="1.5" style="stroke:#181818;stroke-width:0.3;" width="56.4" x="4.2" y="467.7844"/><text fill="#000000" font-family="sans-serif" font-size="8.4" lengthAdjust="spacing" textLength="24" x="20.4" y="478.3887">House</text><line style="stroke:#181818;stroke-width:0.3;" x1="4.8" x2="60" y1="483.1688" y2="483.1688"/><text fill="#000000" font-family="sans-serif" font-size="8.4" lengthAdjust="spacing" textLength="37.2" x="7.8" y="493.173">basement</text><text fill="#000000" font-family="sans-serif" font-size="8.4" lengthAdjust="spacing" textLength="11.4" x="7.8" y="502.5574">loft</text><text fill="#000000" font-family="sans-serif" font-size="8.4" lengthAdjust="spacing" textLength="49.2" x="7.8" y="511.9418">sunExposure</text></g><!--class Appartment--><g id="elem_Appartment"><rect codeLine="90" fill="#F1F1F1" height="20.1844" id="Appartment" rx="1.5" ry="1.5" style="stroke:#181818;stroke-width:0.3;" width="47.4" x="579.3" y="49.5844"/><text fill="#000000" font-family="sans-serif" font-size="8.4" lengthAdjust="spacing" textLength="43.8" x="581.1" y="60.1887">Appartment</text><line style="stroke:#181818;stroke-width:0.3;" x1="579.9" x2="626.1" y1="64.9688" y2="64.9688"/></g><!--class Announcement--><g id="elem_Announcement"><rect codeLine="93" fill="#F1F1F1" height="20.1844" id="Announcement" rx="1.5" ry="1.5" style="stroke:#181818;stroke-width:0.3;" width="60.6" x="200.7" y="279.6844"/><text fill="#000000" font-family="sans-serif" font-size="8.4" lengthAdjust="spacing" textLength="57" x="202.5" y="290.2887">Announcement</text><line style="stroke:#181818;stroke-width:0.3;" x1="201.3" x2="260.7" y1="295.0687" y2="295.0687"/></g><!--class Apartment--><g id="elem_Apartment"><rect fill="#F1F1F1" height="20.1844" id="Apartment" rx="1.5" ry="1.5" style="stroke:#181818;stroke-width:0.3;" width="42.6" x="81.9" y="481.8844"/><text fill="#000000" font-family="sans-serif" font-size="8.4" lengthAdjust="spacing" textLength="39" x="83.7" y="492.4887">Apartment</text><line style="stroke:#181818;stroke-width:0.3;" x1="82.5" x2="123.9" y1="497.2687" y2="497.2687"/></g><!--link CompanyBranch to Company--><g id="link_CompanyBranch_Company"><path codeLine="96" d="M525,84.3244 C525,106.6804 525,139.2844 525,157.7824 " fill="none" id="CompanyBranch-Company" style="stroke:#181818;stroke-width:0.6;"/><polygon fill="#000000" points="528,119.3414,529.7634,113.9144,526.2366,113.9144,528,119.3414" style="stroke:#000000;stroke-width:0.6;"/><text fill="#000000" font-family="sans-serif" font-size="7.8" lengthAdjust="spacing" textLength="30.6" x="533.4" y="119.0455">is owned</text><text fill="#000000" font-family="sans-serif" font-size="7.8" lengthAdjust="spacing" textLength="14.4" x="509.5425" y="95.649">0...*</text><text fill="#000000" font-family="sans-serif" font-size="7.8" lengthAdjust="spacing" textLength="4.2" x="520.2356" y="151.3562">1</text></g><!--link CompanyBranch to Agent--><g id="link_CompanyBranch_Agent"><path codeLine="97" d="M504.108,84.1444 C496.872,92.6044 488.82,102.2944 481.8,111.3844 C475.038,120.1384 468.012,129.8464 461.664,138.8824 " fill="none" id="CompanyBranch-Agent" style="stroke:#181818;stroke-width:0.6;"/><polygon fill="#000000" points="482.9617,118.7122,487.6807,115.5039,484.8937,113.3429,482.9617,118.7122" style="stroke:#000000;stroke-width:0.6;"/><text fill="#000000" font-family="sans-serif" font-size="7.8" lengthAdjust="spacing" textLength="29.4" x="490.2" y="119.0455">employs</text><text fill="#000000" font-family="sans-serif" font-size="7.8" lengthAdjust="spacing" textLength="4.2" x="486.0523" y="95.6229">1</text><text fill="#000000" font-family="sans-serif" font-size="7.8" lengthAdjust="spacing" textLength="14.4" x="449.3151" y="132.4778">0...*</text></g><!--link CompanyBranch to Address--><g id="link_CompanyBranch_Address"><path codeLine="98" d="M551.892,84.1624 C558.96,92.0404 565.656,101.3824 569.4,111.3844 C586.59,157.3024 582.456,214.6804 576.84,251.6524 " fill="none" id="CompanyBranch-Address" style="stroke:#181818;stroke-width:0.6;"/><polygon fill="#000000" points="584.842,175.7087,585.7865,170.0811,582.2983,170.6006,584.842,175.7087" style="stroke:#000000;stroke-width:0.6;"/><text fill="#000000" font-family="sans-serif" font-size="7.8" lengthAdjust="spacing" textLength="23.4" x="589.8" y="175.4455">has an</text><text fill="#000000" font-family="sans-serif" font-size="7.8" lengthAdjust="spacing" textLength="4.2" x="548.9045" y="95.6437">1</text><text fill="#000000" font-family="sans-serif" font-size="7.8" lengthAdjust="spacing" textLength="14.4" x="562.4677" y="245.4087">0...*</text></g><!--link Agent to Announcement--><g id="link_Agent_Announcement"><path codeLine="100" d="M399.708,198.7624 C382.08,209.8924 360.924,222.8584 341.4,233.7844 C310.698,250.9684 274.026,268.9144 251.634,279.5884 " fill="none" id="Agent-Announcement" style="stroke:#181818;stroke-width:0.6;"/><polygon fill="#000000" points="357.9667,230.5788,363.5752,229.5263,361.8855,226.4308,357.9667,230.5788" style="stroke:#000000;stroke-width:0.6;"/><text fill="#000000" font-family="sans-serif" font-size="7.8" lengthAdjust="spacing" textLength="75.6" x="366" y="231.8455">reviews and publishes</text><text fill="#000000" font-family="sans-serif" font-size="7.8" lengthAdjust="spacing" textLength="4.2" x="390.9589" y="199.8497">1</text><text fill="#000000" font-family="sans-serif" font-size="7.8" lengthAdjust="spacing" textLength="14.4" x="227.4849" y="273.1797">0...*</text></g><!--link Agent to Address--><g id="link_Agent_Address"><path codeLine="101" d="M476.334,206.2984 C497.382,225.0664 523.242,248.1244 542.358,265.1704 " fill="none" id="Agent-Address" style="stroke:#181818;stroke-width:0.6;"/><polygon fill="#000000" points="509.2391,231.138,506.3621,226.21,504.015,228.8423,509.2391,231.138" style="stroke:#000000;stroke-width:0.6;"/><text fill="#000000" font-family="sans-serif" font-size="7.8" lengthAdjust="spacing" textLength="23.4" x="512.4" y="231.8455">has an</text><text fill="#000000" font-family="sans-serif" font-size="7.8" lengthAdjust="spacing" textLength="4.2" x="476.4038" y="218.0051">1</text><text fill="#000000" font-family="sans-serif" font-size="7.8" lengthAdjust="spacing" textLength="4.2" x="528.5281" y="259.4058">1</text></g><!--link Agent to PropertyRequest--><g id="link_Agent_PropertyRequest"><path codeLine="102" d="M446.568,206.2144 C447.714,215.1604 448.176,224.8444 447,233.7844 C440.4,283.9264 423.174,340.3744 412.05,373.4104 " fill="none" id="Agent-PropertyRequest" style="stroke:#181818;stroke-width:0.6;"/><polygon fill="#000000" points="446.3934,292.9794,449.2177,288.021,445.7638,287.308,446.3934,292.9794" style="stroke:#000000;stroke-width:0.6;"/><text fill="#000000" font-family="sans-serif" font-size="7.8" lengthAdjust="spacing" textLength="25.8" x="452.4" y="292.7455">creates</text><text fill="#000000" font-family="sans-serif" font-size="7.8" lengthAdjust="spacing" textLength="4.2" x="443.01" y="217.9109">1</text><text fill="#000000" font-family="sans-serif" font-size="7.8" lengthAdjust="spacing" textLength="4.2" x="409.0177" y="367.2132">1</text></g><!--link Owner to InitialData--><g id="link_Owner_InitialData"><path codeLine="104" d="M260.772,93.4144 C253.29,111.0244 244.26,132.2884 237.48,148.2544 " fill="none" id="Owner-InitialData" style="stroke:#181818;stroke-width:0.6;"/><polygon fill="#000000" points="254.4272,119.1027,258.1718,114.7968,254.9258,113.4182,254.4272,119.1027" style="stroke:#000000;stroke-width:0.6;"/><text fill="#000000" font-family="sans-serif" font-size="7.8" lengthAdjust="spacing" textLength="24.6" x="261" y="119.0455">specify</text><text fill="#000000" font-family="sans-serif" font-size="7.8" lengthAdjust="spacing" textLength="4.2" x="254.6064" y="105.1109">1</text><text fill="#000000" font-family="sans-serif" font-size="7.8" lengthAdjust="spacing" textLength="14.4" x="223.593" y="141.885">0...*</text></g><!--link Owner to PropertyRequest--><g id="link_Owner_PropertyRequest"><path codeLine="105" d="M286.5,93.5764 C288.234,99.4504 289.83,105.5524 291,111.3844 C301.734,164.9284 284.988,181.8244 301.8,233.7844 C319.05,287.1004 355.686,341.4784 379.554,373.4044 " fill="none" id="Owner-PropertyRequest" style="stroke:#181818;stroke-width:0.6;"/><polygon fill="#000000" points="305.7467,231.9881,305.7074,226.2819,302.3609,227.3948,305.7467,231.9881" style="stroke:#000000;stroke-width:0.6;"/><text fill="#000000" font-family="sans-serif" font-size="7.8" lengthAdjust="spacing" textLength="25.8" x="310.2" y="231.8455">creates</text><text fill="#000000" font-family="sans-serif" font-size="7.8" lengthAdjust="spacing" textLength="4.2" x="283.41" y="105.0539">1</text><text fill="#000000" font-family="sans-serif" font-size="7.8" lengthAdjust="spacing" textLength="4.2" x="371.7488" y="367.2063">1</text></g><!--link InitialData to PropertyType--><g id="link_InitialData_PropertyType"><path codeLine="107" d="M205.53,196.9564 C187.098,216.9964 160.86,245.5144 142.44,265.5424 " fill="none" id="InitialData-PropertyType" style="stroke:#181818;stroke-width:0.6;"/><polygon fill="#000000" points="181.569,231.3493,186.5409,228.5489,183.9453,226.1613,181.569,231.3493" style="stroke:#000000;stroke-width:0.6;"/><text fill="#000000" font-family="sans-serif" font-size="7.8" lengthAdjust="spacing" textLength="28.8" x="189" y="231.8455">includes</text><text fill="#000000" font-family="sans-serif" font-size="7.8" lengthAdjust="spacing" textLength="4.2" x="192.4921" y="208.4367">1</text><text fill="#000000" font-family="sans-serif" font-size="7.8" lengthAdjust="spacing" textLength="4.2" x="141.7562" y="259.1708">1</text></g><!--link InitialData to Announcement--><g id="link_InitialData_Announcement"><path codeLine="108" d="M226.386,197.0524 C226.068,205.6084 225.756,215.3284 225.6,224.1844 C225.522,228.4504 225.396,229.5244 225.6,233.7844 C226.386,249.9304 228.444,268.6324 229.782,279.6784 " fill="none" id="InitialData-Announcement" style="stroke:#181818;stroke-width:0.6;"/><polygon fill="#000000" points="228.7232,232.1389,230.2622,226.644,226.7385,226.7888,228.7232,232.1389" style="stroke:#000000;stroke-width:0.6;"/><text fill="#000000" font-family="sans-serif" font-size="7.8" lengthAdjust="spacing" textLength="45.6" x="234" y="231.8455">is included in</text><text fill="#000000" font-family="sans-serif" font-size="7.8" lengthAdjust="spacing" textLength="4.2" x="221.7092" y="208.5474">1</text><text fill="#000000" font-family="sans-serif" font-size="7.8" lengthAdjust="spacing" textLength="4.2" x="221.835" y="273.3017">1</text></g><!--reverse link PropertyType to Residence--><g id="link_PropertyType_Residence"><path codeLine="110" d="M107.898,317.2564 C99.852,334.2244 89.448,356.1484 81.258,373.4164 " fill="none" id="PropertyType-backto-Residence" style="stroke:#181818;stroke-width:0.6;"/><polygon fill="#181818" points="109.272,314.3584,104.7882,318.2075,107.9855,317.0685,109.1245,320.2658,109.272,314.3584" style="stroke:#181818;stroke-width:0.6;"/></g><!--reverse link Residence to House--><g id="link_Residence_House"><path codeLine="112" d="M55.278,434.2924 C50.886,445.2664 46.032,457.4044 41.928,467.6644 " fill="none" id="Residence-backto-House" style="stroke:#181818;stroke-width:0.6;"/><polygon fill="#181818" points="56.502,431.2324,52.2681,435.3548,55.3878,434.0178,56.7248,437.1375,56.502,431.2324" style="stroke:#181818;stroke-width:0.6;"/></g><!--reverse link Residence to Apartment--><g id="link_Residence_Apartment"><path codeLine="113" d="M80.244,434.1004 C86.928,450.8104 94.71,470.2624 99.282,481.6864 " fill="none" id="Residence-backto-Apartment" style="stroke:#181818;stroke-width:0.6;"/><polygon fill="#181818" points="79.098,431.2324,78.8752,437.1375,80.2122,434.0178,83.3319,435.3548,79.098,431.2324" style="stroke:#181818;stroke-width:0.6;"/></g><!--link Announcement to Sale--><g id="link_Announcement_Sale"><path codeLine="115" d="M216.732,300.1024 C202.992,310.0624 182.562,326.8384 170.4,345.9844 C162.942,357.7324 158.484,372.9004 155.946,384.4564 " fill="none" id="Announcement-to-Sale" style="stroke:#181818;stroke-width:0.6;"/><polygon fill="#181818" points="155.28,387.6184,158.7382,382.8266,155.8963,384.6824,154.0405,381.8405,155.28,387.6184" style="stroke:#181818;stroke-width:0.6;"/><polygon fill="#000000" points="171.6461,353.3753,176.2495,350.0032,173.3883,347.9414,171.6461,353.3753" style="stroke:#000000;stroke-width:0.6;"/><text fill="#000000" font-family="sans-serif" font-size="7.8" lengthAdjust="spacing" textLength="48.6" x="178.8" y="353.6455">can announce</text></g><!--link Announcement to Rent--><g id="link_Announcement_Rent"><path codeLine="116" d="M231.234,300.1924 C231.546,312.9124 232.146,335.9224 232.8,355.5844 C233.058,363.3784 233.382,371.9044 233.682,379.4944 " fill="none" id="Announcement-to-Rent" style="stroke:#181818;stroke-width:0.6;"/><polygon fill="#181818" points="233.808,382.6804,235.9903,377.1888,233.6881,379.6828,231.1941,377.3806,233.808,382.6804" style="stroke:#181818;stroke-width:0.6;"/><polygon fill="#000000" points="235.8926,353.94,237.4876,348.4611,233.9626,348.5699,235.8926,353.94" style="stroke:#000000;stroke-width:0.6;"/><text fill="#000000" font-family="sans-serif" font-size="7.8" lengthAdjust="spacing" textLength="48.6" x="241.2" y="353.6455">can announce</text></g><!--SRC=[fLJBRjim4BplLn2-52ZWm0PwAee0hfEYEQG9xFO3rkHQ8aAH3BbAuXhzzwvasPQKe3bK5nFBcTdP1vqVh8-Oi59Ly46NALIaEDK4-NGJKJzWGMlUELA9DAClN1-GIpJXsVf2RT5b0lZWQCkAWqgsA5aPsx1iyD0ZQOSvBvYJtTHCDphujVrDQWPGMaDAswGbINkkYCjWCW1R5WjNeKBhrMqmvDHK_LhFPfy0MZrrz-mfxS5ZHQ0jYw9VOZ8_wcf32HXVkXE9X8DO1azTvCzHOc5CefptO498tMNcHCImTUUGgEyaZamGW_owfVWvgon35T7llYRqkjo32nhR3lmZSKUHn9HjuG_uiws2FFzVPJTUUEYka74FCOL8YItb3jO5TZztKOQBZkxIIbAUwVSzW5I4ta0PQfatoaIv6c1NhTcOhAPxIhV1SmaoOawe-QfEezhMagr3lqwteiUQClTwY8aGZ9McUqtVP6MNCekbP6ogA0E78c4iSzzDbZqIiFIlBVPk-vLC2g7Avm1oEOpSOv9jBTQo_vG1dwIlk75q_LZREApsUzE6FMmmKtlXmfOXr_xwHLQZJhsY5l7Ogtqlw7senTqfF5WUDPbTN5nydAZfL4tca-EQgC_APXLatusw73FcIhu3eoEtwoCSgg8Bk_mMPOW_l09Xb9WLUY70GQFnq03LkzzHgbUUw2LwilJSQ1eLwuspkQJ6pr1ztlX_mqGVTUZ7Q4y4h6K_kDM4zl_W9DePwhq3GUT8scvtWXw2tvFkgnpiZbZDEsccvBMhJSiPKlfjdBzgamotOnevD0a7kb-4UrfhWDEnlMZtSHHRd1uf339DfvVj-skAamvZTzUqUWnR7PoDO7y1]--></g></svg>