<?xml version="1.0" encoding="us-ascii" standalone="no"?><svg xmlns="http://www.w3.org/2000/svg" xmlns:xlink="http://www.w3.org/1999/xlink" contentStyleType="text/css" height="1451px" preserveAspectRatio="none" style="width:1566px;height:1451px;background:#FFFFFF;" version="1.1" viewBox="0 0 1566 1451" width="1566px" zoomAndPan="magnify"><defs/><g><rect fill="#FFFFFF" height="1271.7266" style="stroke:#181818;stroke-width:1.0;" width="10" x="36.5" y="90.6406"/><rect fill="#FFFFFF" height="620.6328" style="stroke:#181818;stroke-width:1.0;" width="10" x="397.5" y="125.6875"/><rect fill="#FFFFFF" height="28.5234" style="stroke:#181818;stroke-width:1.0;" width="10" x="397.5" y="774.8438"/><rect fill="#FFFFFF" height="514.4766" style="stroke:#181818;stroke-width:1.0;" width="10" x="397.5" y="831.8906"/><rect fill="#FFFFFF" height="230.3047" style="stroke:#181818;stroke-width:1.0;" width="10" x="705.5" y="164.2109"/><rect fill="#FFFFFF" height="199.6641" style="stroke:#181818;stroke-width:1.0;" width="10" x="705.5" y="480.0859"/><rect fill="#FFFFFF" height="184.1406" style="stroke:#181818;stroke-width:1.0;" width="10" x="705.5" y="883.9375"/><rect fill="#FFFFFF" height="142.6172" style="stroke:#181818;stroke-width:1.0;" width="10" x="705.5" y="1110.8906"/><rect fill="#FFFFFF" height="28.5234" style="stroke:#181818;stroke-width:1.0;" width="10" x="952.5" y="194.8516"/><rect fill="#FFFFFF" height="28.5234" style="stroke:#181818;stroke-width:1.0;" width="10" x="952.5" y="508.6094"/><rect fill="#FFFFFF" height="28.5234" style="stroke:#181818;stroke-width:1.0;" width="10" x="1059.5" y="565.6563"/><rect fill="#FFFFFF" height="28.5234" style="stroke:#181818;stroke-width:1.0;" width="10" x="1059.5" y="912.4609"/><rect fill="#FFFFFF" height="28.5234" style="stroke:#181818;stroke-width:1.0;" width="10" x="1208.5" y="251.8984"/><rect fill="#FFFFFF" height="28.5234" style="stroke:#181818;stroke-width:1.0;" width="10" x="1208.5" y="337.4688"/><rect fill="#FFFFFF" height="28.5234" style="stroke:#181818;stroke-width:1.0;" width="10" x="1369" y="622.7031"/><rect fill="#FFFFFF" height="28.5234" style="stroke:#181818;stroke-width:1.0;" width="10" x="1369" y="1139.4141"/><rect fill="#FFFFFF" height="28.5234" style="stroke:#181818;stroke-width:1.0;" width="10" x="1486.5" y="1011.0313"/><rect fill="#FFFFFF" height="28.5234" style="stroke:#181818;stroke-width:1.0;" width="10" x="1486.5" y="1196.4609"/><rect fill="none" height="659.6172" style="stroke:#000000;stroke-width:1.5;" width="1549" x="10" y="694.75"/><rect fill="none" height="414.6172" style="stroke:#000000;stroke-width:1.5;" width="1217" x="332" y="846.8906"/><line style="stroke:#181818;stroke-width:0.5;stroke-dasharray:5.0,5.0;" x1="41" x2="41" y1="80.6406" y2="1371.3672"/><line style="stroke:#181818;stroke-width:0.5;stroke-dasharray:5.0,5.0;" x1="402" x2="402" y1="80.6406" y2="1371.3672"/><line style="stroke:#181818;stroke-width:0.5;stroke-dasharray:5.0,5.0;" x1="710" x2="710" y1="164.0078" y2="1371.3672"/><line style="stroke:#181818;stroke-width:0.5;stroke-dasharray:5.0,5.0;" x1="957" x2="957" y1="80.6406" y2="1371.3672"/><line style="stroke:#181818;stroke-width:0.5;stroke-dasharray:5.0,5.0;" x1="1064" x2="1064" y1="80.6406" y2="1371.3672"/><line style="stroke:#181818;stroke-width:0.5;stroke-dasharray:5.0,5.0;" x1="1213" x2="1213" y1="80.6406" y2="1371.3672"/><line style="stroke:#181818;stroke-width:0.5;stroke-dasharray:5.0,5.0;" x1="1374" x2="1374" y1="80.6406" y2="1371.3672"/><line style="stroke:#181818;stroke-width:0.5;stroke-dasharray:5.0,5.0;" x1="1491" x2="1491" y1="80.6406" y2="1371.3672"/><text fill="#000000" font-family="sans-serif" font-size="14" lengthAdjust="spacing" textLength="37" x="20" y="77.6738">Agent</text><ellipse cx="41.5" cy="13.5" fill="#E3E3E3" rx="8" ry="8" style="stroke:#181818;stroke-width:0.5;"/><path d="M41.5,21.5 L41.5,48.5 M28.5,29.5 L54.5,29.5 M41.5,48.5 L28.5,63.5 M41.5,48.5 L54.5,63.5 " fill="none" style="stroke:#181818;stroke-width:0.5;"/><text fill="#000000" font-family="sans-serif" font-size="14" lengthAdjust="spacing" textLength="37" x="20" y="1383.041">Agent</text><ellipse cx="41.5" cy="1394.5078" fill="#E3E3E3" rx="8" ry="8" style="stroke:#181818;stroke-width:0.5;"/><path d="M41.5,1402.5078 L41.5,1429.5078 M28.5,1410.5078 L54.5,1410.5078 M41.5,1429.5078 L28.5,1444.5078 M41.5,1429.5078 L54.5,1444.5078 " fill="none" style="stroke:#181818;stroke-width:0.5;"/><rect fill="#E3E3E3" height="29.6406" rx="2.5" ry="2.5" style="stroke:#181818;stroke-width:0.5;" width="121" x="342" y="50"/><text fill="#000000" font-family="sans-serif" font-size="14" lengthAdjust="spacing" textLength="107" x="349" y="69.6738">:OrderDecisionUI</text><rect fill="#E3E3E3" height="29.6406" rx="2.5" ry="2.5" style="stroke:#181818;stroke-width:0.5;" width="121" x="342" y="1370.3672"/><text fill="#000000" font-family="sans-serif" font-size="14" lengthAdjust="spacing" textLength="107" x="349" y="1390.041">:OrderDecisionUI</text><rect fill="#E3E3E3" height="29.6406" rx="2.5" ry="2.5" style="stroke:#181818;stroke-width:0.5;" width="171" x="625" y="1370.3672"/><text fill="#000000" font-family="sans-serif" font-size="14" lengthAdjust="spacing" textLength="157" x="632" y="1390.041">:OrderDecisionController</text><rect fill="#E3E3E3" height="29.6406" rx="2.5" ry="2.5" style="stroke:#181818;stroke-width:0.5;" width="97" x="909" y="50"/><text fill="#000000" font-family="sans-serif" font-size="14" lengthAdjust="spacing" textLength="83" x="916" y="69.6738">:Repositories</text><rect fill="#E3E3E3" height="29.6406" rx="2.5" ry="2.5" style="stroke:#181818;stroke-width:0.5;" width="97" x="909" y="1370.3672"/><text fill="#000000" font-family="sans-serif" font-size="14" lengthAdjust="spacing" textLength="83" x="916" y="1390.041">:Repositories</text><rect fill="#E3E3E3" height="45.2813" rx="2.5" ry="2.5" style="stroke:#181818;stroke-width:0.5;" width="97" x="1016" y="34.3594"/><text fill="#000000" font-family="sans-serif" font-size="14" lengthAdjust="spacing" textLength="74" x="1027.5" y="54.0332">repositories</text><text fill="#000000" font-family="sans-serif" font-size="14" lengthAdjust="spacing" textLength="83" x="1023" y="69.6738">:Repositories</text><rect fill="#E3E3E3" height="45.2813" rx="2.5" ry="2.5" style="stroke:#181818;stroke-width:0.5;" width="97" x="1016" y="1370.3672"/><text fill="#000000" font-family="sans-serif" font-size="14" lengthAdjust="spacing" textLength="74" x="1027.5" y="1390.041">repositories</text><text fill="#000000" font-family="sans-serif" font-size="14" lengthAdjust="spacing" textLength="83" x="1023" y="1405.6816">:Repositories</text><rect fill="#E3E3E3" height="45.2813" rx="2.5" ry="2.5" style="stroke:#181818;stroke-width:0.5;" width="181" x="1123" y="34.3594"/><text fill="#000000" font-family="sans-serif" font-size="14" lengthAdjust="spacing" textLength="162" x="1132.5" y="54.0332">announcementRepository</text><text fill="#000000" font-family="sans-serif" font-size="14" lengthAdjust="spacing" textLength="167" x="1130" y="69.6738">:AnnouncementRepository</text><rect fill="#E3E3E3" height="45.2813" rx="2.5" ry="2.5" style="stroke:#181818;stroke-width:0.5;" width="181" x="1123" y="1370.3672"/><text fill="#000000" font-family="sans-serif" font-size="14" lengthAdjust="spacing" textLength="162" x="1132.5" y="1390.041">announcementRepository</text><text fill="#000000" font-family="sans-serif" font-size="14" lengthAdjust="spacing" textLength="167" x="1130" y="1405.6816">:AnnouncementRepository</text><rect fill="#E3E3E3" height="45.2813" rx="2.5" ry="2.5" style="stroke:#181818;stroke-width:0.5;" width="120" x="1314" y="34.3594"/><text fill="#000000" font-family="sans-serif" font-size="14" lengthAdjust="spacing" textLength="106" x="1321" y="54.0332">orderRepository:</text><text fill="#000000" font-family="sans-serif" font-size="14" lengthAdjust="spacing" textLength="105" x="1321.5" y="69.6738">OrderRepository</text><rect fill="#E3E3E3" height="45.2813" rx="2.5" ry="2.5" style="stroke:#181818;stroke-width:0.5;" width="120" x="1314" y="1370.3672"/><text fill="#000000" font-family="sans-serif" font-size="14" lengthAdjust="spacing" textLength="106" x="1321" y="1390.041">orderRepository:</text><text fill="#000000" font-family="sans-serif" font-size="14" lengthAdjust="spacing" textLength="105" x="1321.5" y="1405.6816">OrderRepository</text><rect fill="#E3E3E3" height="29.6406" rx="2.5" ry="2.5" style="stroke:#181818;stroke-width:0.5;" width="95" x="1444" y="50"/><text fill="#000000" font-family="sans-serif" font-size="14" lengthAdjust="spacing" textLength="81" x="1451" y="69.6738">EmailService</text><rect fill="#E3E3E3" height="29.6406" rx="2.5" ry="2.5" style="stroke:#181818;stroke-width:0.5;" width="95" x="1444" y="1370.3672"/><text fill="#000000" font-family="sans-serif" font-size="14" lengthAdjust="spacing" textLength="81" x="1451" y="1390.041">EmailService</text><rect fill="#FFFFFF" height="1271.7266" style="stroke:#181818;stroke-width:1.0;" width="10" x="36.5" y="90.6406"/><rect fill="#FFFFFF" height="620.6328" style="stroke:#181818;stroke-width:1.0;" width="10" x="397.5" y="125.6875"/><rect fill="#FFFFFF" height="28.5234" style="stroke:#181818;stroke-width:1.0;" width="10" x="397.5" y="774.8438"/><rect fill="#FFFFFF" height="514.4766" style="stroke:#181818;stroke-width:1.0;" width="10" x="397.5" y="831.8906"/><rect fill="#FFFFFF" height="230.3047" style="stroke:#181818;stroke-width:1.0;" width="10" x="705.5" y="164.2109"/><rect fill="#FFFFFF" height="199.6641" style="stroke:#181818;stroke-width:1.0;" width="10" x="705.5" y="480.0859"/><rect fill="#FFFFFF" height="184.1406" style="stroke:#181818;stroke-width:1.0;" width="10" x="705.5" y="883.9375"/><rect fill="#FFFFFF" height="142.6172" style="stroke:#181818;stroke-width:1.0;" width="10" x="705.5" y="1110.8906"/><rect fill="#FFFFFF" height="28.5234" style="stroke:#181818;stroke-width:1.0;" width="10" x="952.5" y="194.8516"/><rect fill="#FFFFFF" height="28.5234" style="stroke:#181818;stroke-width:1.0;" width="10" x="952.5" y="508.6094"/><rect fill="#FFFFFF" height="28.5234" style="stroke:#181818;stroke-width:1.0;" width="10" x="1059.5" y="565.6563"/><rect fill="#FFFFFF" height="28.5234" style="stroke:#181818;stroke-width:1.0;" width="10" x="1059.5" y="912.4609"/><rect fill="#FFFFFF" height="28.5234" style="stroke:#181818;stroke-width:1.0;" width="10" x="1208.5" y="251.8984"/><rect fill="#FFFFFF" height="28.5234" style="stroke:#181818;stroke-width:1.0;" width="10" x="1208.5" y="337.4688"/><rect fill="#FFFFFF" height="28.5234" style="stroke:#181818;stroke-width:1.0;" width="10" x="1369" y="622.7031"/><rect fill="#FFFFFF" height="28.5234" style="stroke:#181818;stroke-width:1.0;" width="10" x="1369" y="1139.4141"/><rect fill="#FFFFFF" height="28.5234" style="stroke:#181818;stroke-width:1.0;" width="10" x="1486.5" y="1011.0313"/><rect fill="#FFFFFF" height="28.5234" style="stroke:#181818;stroke-width:1.0;" width="10" x="1486.5" y="1196.4609"/><polygon fill="#181818" points="385.5,121.6875,395.5,125.6875,385.5,129.6875,389.5,125.6875" style="stroke:#181818;stroke-width:1.0;"/><line style="stroke:#181818;stroke-width:1.0;" x1="46.5" x2="391.5" y1="125.6875" y2="125.6875"/><text fill="#000000" font-family="sans-serif" font-size="13" font-weight="bold" lengthAdjust="spacing" textLength="7" x="53.5" y="113.6709">1</text><text fill="#000000" font-family="sans-serif" font-size="13" lengthAdjust="spacing" textLength="151" x="64.5" y="106.4092">requests to see properties</text><text fill="#000000" font-family="sans-serif" font-size="13" lengthAdjust="spacing" textLength="124" x="64.5" y="120.9326">available for purchase</text><polygon fill="#181818" points="613,150.2109,623,154.2109,613,158.2109,617,154.2109" style="stroke:#181818;stroke-width:1.0;"/><line style="stroke:#181818;stroke-width:1.0;" x1="407.5" x2="619" y1="154.2109" y2="154.2109"/><text fill="#000000" font-family="sans-serif" font-size="13" font-weight="bold" lengthAdjust="spacing" textLength="7" x="414.5" y="149.4561">2</text><text fill="#000000" font-family="sans-serif" font-size="13" lengthAdjust="spacing" textLength="36" x="425.5" y="149.4561">create</text><rect fill="#E3E3E3" height="29.6406" rx="2.5" ry="2.5" style="stroke:#181818;stroke-width:0.5;" width="171" x="625" y="133.6875"/><text fill="#000000" font-family="sans-serif" font-size="14" lengthAdjust="spacing" textLength="157" x="632" y="153.3613">:OrderDecisionController</text><polygon fill="#181818" points="940.5,190.8516,950.5,194.8516,940.5,198.8516,944.5,194.8516" style="stroke:#181818;stroke-width:1.0;"/><line style="stroke:#181818;stroke-width:1.0;" x1="715.5" x2="946.5" y1="194.8516" y2="194.8516"/><text fill="#000000" font-family="sans-serif" font-size="13" font-weight="bold" lengthAdjust="spacing" textLength="7" x="722.5" y="190.0967">3</text><text fill="#000000" font-family="sans-serif" font-size="13" lengthAdjust="spacing" textLength="75" x="733.5" y="190.0967">getInstance()</text><polygon fill="#181818" points="726.5,219.375,716.5,223.375,726.5,227.375,722.5,223.375" style="stroke:#181818;stroke-width:1.0;"/><line style="stroke:#181818;stroke-width:1.0;stroke-dasharray:2.0,2.0;" x1="720.5" x2="956.5" y1="223.375" y2="223.375"/><text fill="#000000" font-family="sans-serif" font-size="13" font-weight="bold" lengthAdjust="spacing" textLength="7" x="732.5" y="218.6201">4</text><text fill="#000000" font-family="sans-serif" font-size="13" lengthAdjust="spacing" textLength="67" x="743.5" y="218.6201">repositories</text><polygon fill="#181818" points="1196.5,247.8984,1206.5,251.8984,1196.5,255.8984,1200.5,251.8984" style="stroke:#181818;stroke-width:1.0;"/><line style="stroke:#181818;stroke-width:1.0;" x1="715.5" x2="1202.5" y1="251.8984" y2="251.8984"/><text fill="#000000" font-family="sans-serif" font-size="13" font-weight="bold" lengthAdjust="spacing" textLength="7" x="722.5" y="247.1436">5</text><text fill="#000000" font-family="sans-serif" font-size="13" lengthAdjust="spacing" textLength="175" x="733.5" y="247.1436">getAnnouncementRepository()</text><polygon fill="#181818" points="726.5,276.4219,716.5,280.4219,726.5,284.4219,722.5,280.4219" style="stroke:#181818;stroke-width:1.0;"/><line style="stroke:#181818;stroke-width:1.0;stroke-dasharray:2.0,2.0;" x1="720.5" x2="1212.5" y1="280.4219" y2="280.4219"/><text fill="#000000" font-family="sans-serif" font-size="13" font-weight="bold" lengthAdjust="spacing" textLength="7" x="732.5" y="275.667">6</text><text fill="#000000" font-family="sans-serif" font-size="13" lengthAdjust="spacing" textLength="147" x="743.5" y="275.667">announcementRepository</text><polygon fill="#181818" points="693.5,304.9453,703.5,308.9453,693.5,312.9453,697.5,308.9453" style="stroke:#181818;stroke-width:1.0;"/><line style="stroke:#181818;stroke-width:1.0;" x1="407.5" x2="699.5" y1="308.9453" y2="308.9453"/><text fill="#000000" font-family="sans-serif" font-size="13" font-weight="bold" lengthAdjust="spacing" textLength="7" x="414.5" y="304.1904">7</text><text fill="#000000" font-family="sans-serif" font-size="13" lengthAdjust="spacing" textLength="215" x="425.5" y="304.1904">getAnnouncementListSortedByDate()</text><polygon fill="#181818" points="1196.5,333.4688,1206.5,337.4688,1196.5,341.4688,1200.5,337.4688" style="stroke:#181818;stroke-width:1.0;"/><line style="stroke:#181818;stroke-width:1.0;" x1="715.5" x2="1202.5" y1="337.4688" y2="337.4688"/><text fill="#000000" font-family="sans-serif" font-size="13" font-weight="bold" lengthAdjust="spacing" textLength="7" x="722.5" y="332.7139">8</text><text fill="#000000" font-family="sans-serif" font-size="13" lengthAdjust="spacing" textLength="141" x="733.5" y="332.7139">getAnnouncementsList()</text><polygon fill="#181818" points="726.5,361.9922,716.5,365.9922,726.5,369.9922,722.5,365.9922" style="stroke:#181818;stroke-width:1.0;"/><line style="stroke:#181818;stroke-width:1.0;stroke-dasharray:2.0,2.0;" x1="720.5" x2="1212.5" y1="365.9922" y2="365.9922"/><text fill="#000000" font-family="sans-serif" font-size="13" font-weight="bold" lengthAdjust="spacing" textLength="7" x="732.5" y="361.2373">9</text><text fill="#000000" font-family="sans-serif" font-size="13" lengthAdjust="spacing" textLength="121" x="743.5" y="361.2373">announcementsList()</text><polygon fill="#181818" points="418.5,390.5156,408.5,394.5156,418.5,398.5156,414.5,394.5156" style="stroke:#181818;stroke-width:1.0;"/><line style="stroke:#181818;stroke-width:1.0;stroke-dasharray:2.0,2.0;" x1="412.5" x2="709.5" y1="394.5156" y2="394.5156"/><text fill="#000000" font-family="sans-serif" font-size="13" font-weight="bold" lengthAdjust="spacing" textLength="14" x="424.5" y="389.7607">10</text><text fill="#000000" font-family="sans-serif" font-size="13" lengthAdjust="spacing" textLength="121" x="442.5" y="389.7607">announcementsList()</text><polygon fill="#181818" points="57.5,419.0391,47.5,423.0391,57.5,427.0391,53.5,423.0391" style="stroke:#181818;stroke-width:1.0;"/><line style="stroke:#181818;stroke-width:1.0;stroke-dasharray:2.0,2.0;" x1="51.5" x2="396.5" y1="423.0391" y2="423.0391"/><text fill="#000000" font-family="sans-serif" font-size="13" font-weight="bold" lengthAdjust="spacing" textLength="14" x="63.5" y="418.2842">11</text><text fill="#000000" font-family="sans-serif" font-size="13" lengthAdjust="spacing" textLength="309" x="81.5" y="418.2842">shows the available properties and asks to select one</text><polygon fill="#181818" points="385.5,447.5625,395.5,451.5625,385.5,455.5625,389.5,451.5625" style="stroke:#181818;stroke-width:1.0;"/><line style="stroke:#181818;stroke-width:1.0;" x1="46.5" x2="391.5" y1="451.5625" y2="451.5625"/><text fill="#000000" font-family="sans-serif" font-size="13" font-weight="bold" lengthAdjust="spacing" textLength="14" x="53.5" y="446.8076">12</text><text fill="#000000" font-family="sans-serif" font-size="13" lengthAdjust="spacing" textLength="104" x="71.5" y="446.8076">selects a property</text><polygon fill="#181818" points="693.5,476.0859,703.5,480.0859,693.5,484.0859,697.5,480.0859" style="stroke:#181818;stroke-width:1.0;"/><line style="stroke:#181818;stroke-width:1.0;" x1="407.5" x2="699.5" y1="480.0859" y2="480.0859"/><text fill="#000000" font-family="sans-serif" font-size="13" font-weight="bold" lengthAdjust="spacing" textLength="14" x="414.5" y="475.3311">13</text><text fill="#000000" font-family="sans-serif" font-size="13" lengthAdjust="spacing" textLength="261" x="432.5" y="475.3311">getOrderListSortedByPrice(selectedProperty)</text><polygon fill="#181818" points="940.5,504.6094,950.5,508.6094,940.5,512.6094,944.5,508.6094" style="stroke:#181818;stroke-width:1.0;"/><line style="stroke:#181818;stroke-width:1.0;" x1="715.5" x2="946.5" y1="508.6094" y2="508.6094"/><text fill="#000000" font-family="sans-serif" font-size="13" font-weight="bold" lengthAdjust="spacing" textLength="14" x="722.5" y="503.8545">14</text><text fill="#000000" font-family="sans-serif" font-size="13" lengthAdjust="spacing" textLength="75" x="740.5" y="503.8545">getInstance()</text><polygon fill="#181818" points="726.5,533.1328,716.5,537.1328,726.5,541.1328,722.5,537.1328" style="stroke:#181818;stroke-width:1.0;"/><line style="stroke:#181818;stroke-width:1.0;stroke-dasharray:2.0,2.0;" x1="720.5" x2="956.5" y1="537.1328" y2="537.1328"/><text fill="#000000" font-family="sans-serif" font-size="13" font-weight="bold" lengthAdjust="spacing" textLength="14" x="732.5" y="532.3779">15</text><text fill="#000000" font-family="sans-serif" font-size="13" lengthAdjust="spacing" textLength="67" x="750.5" y="532.3779">repositories</text><polygon fill="#181818" points="1047.5,561.6563,1057.5,565.6563,1047.5,569.6563,1051.5,565.6563" style="stroke:#181818;stroke-width:1.0;"/><line style="stroke:#181818;stroke-width:1.0;" x1="715.5" x2="1053.5" y1="565.6563" y2="565.6563"/><text fill="#000000" font-family="sans-serif" font-size="13" font-weight="bold" lengthAdjust="spacing" textLength="14" x="722.5" y="560.9014">16</text><text fill="#000000" font-family="sans-serif" font-size="13" lengthAdjust="spacing" textLength="120" x="740.5" y="560.9014">getOrderRepository()</text><polygon fill="#181818" points="726.5,590.1797,716.5,594.1797,726.5,598.1797,722.5,594.1797" style="stroke:#181818;stroke-width:1.0;"/><line style="stroke:#181818;stroke-width:1.0;stroke-dasharray:2.0,2.0;" x1="720.5" x2="1063.5" y1="594.1797" y2="594.1797"/><text fill="#000000" font-family="sans-serif" font-size="13" font-weight="bold" lengthAdjust="spacing" textLength="14" x="732.5" y="589.4248">17</text><text fill="#000000" font-family="sans-serif" font-size="13" lengthAdjust="spacing" textLength="91" x="750.5" y="589.4248">orderRepository</text><polygon fill="#181818" points="1357,618.7031,1367,622.7031,1357,626.7031,1361,622.7031" style="stroke:#181818;stroke-width:1.0;"/><line style="stroke:#181818;stroke-width:1.0;" x1="715.5" x2="1363" y1="622.7031" y2="622.7031"/><text fill="#000000" font-family="sans-serif" font-size="13" font-weight="bold" lengthAdjust="spacing" textLength="14" x="722.5" y="617.9482">18</text><text fill="#000000" font-family="sans-serif" font-size="13" lengthAdjust="spacing" textLength="86" x="740.5" y="617.9482">getOrdersList()</text><polygon fill="#181818" points="726.5,647.2266,716.5,651.2266,726.5,655.2266,722.5,651.2266" style="stroke:#181818;stroke-width:1.0;"/><line style="stroke:#181818;stroke-width:1.0;stroke-dasharray:2.0,2.0;" x1="720.5" x2="1373" y1="651.2266" y2="651.2266"/><text fill="#000000" font-family="sans-serif" font-size="13" font-weight="bold" lengthAdjust="spacing" textLength="14" x="732.5" y="646.4717">19</text><text fill="#000000" font-family="sans-serif" font-size="13" lengthAdjust="spacing" textLength="57" x="750.5" y="646.4717">ordersList</text><polygon fill="#181818" points="418.5,675.75,408.5,679.75,418.5,683.75,414.5,679.75" style="stroke:#181818;stroke-width:1.0;"/><line style="stroke:#181818;stroke-width:1.0;stroke-dasharray:2.0,2.0;" x1="412.5" x2="709.5" y1="679.75" y2="679.75"/><text fill="#000000" font-family="sans-serif" font-size="13" font-weight="bold" lengthAdjust="spacing" textLength="14" x="424.5" y="674.9951">20</text><text fill="#000000" font-family="sans-serif" font-size="13" lengthAdjust="spacing" textLength="57" x="442.5" y="674.9951">ordersList</text><path d="M10,694.75 L71,694.75 L71,701.2734 L61,711.2734 L10,711.2734 L10,694.75 " fill="#EEEEEE" style="stroke:#000000;stroke-width:1.5;"/><rect fill="none" height="659.6172" style="stroke:#000000;stroke-width:1.5;" width="1549" x="10" y="694.75"/><text fill="#000000" font-family="sans-serif" font-size="13" font-weight="bold" lengthAdjust="spacing" textLength="16" x="25" y="707.5186">alt</text><text fill="#000000" font-family="sans-serif" font-size="11" font-weight="bold" lengthAdjust="spacing" textLength="172" x="86" y="706.708">[if that exists purchase orders]</text><polygon fill="#181818" points="57.5,742.3203,47.5,746.3203,57.5,750.3203,53.5,746.3203" style="stroke:#181818;stroke-width:1.0;"/><line style="stroke:#181818;stroke-width:1.0;stroke-dasharray:2.0,2.0;" x1="51.5" x2="401.5" y1="746.3203" y2="746.3203"/><text fill="#000000" font-family="sans-serif" font-size="13" font-weight="bold" lengthAdjust="spacing" textLength="14" x="63.5" y="734.3037">21</text><text fill="#000000" font-family="sans-serif" font-size="13" lengthAdjust="spacing" textLength="162" x="81.5" y="727.042">displays the list of purchase</text><text fill="#000000" font-family="sans-serif" font-size="13" lengthAdjust="spacing" textLength="155" x="81.5" y="741.5654">orders grouped by property</text><polygon fill="#181818" points="385.5,770.8438,395.5,774.8438,385.5,778.8438,389.5,774.8438" style="stroke:#181818;stroke-width:1.0;"/><line style="stroke:#181818;stroke-width:1.0;" x1="46.5" x2="391.5" y1="774.8438" y2="774.8438"/><text fill="#000000" font-family="sans-serif" font-size="13" font-weight="bold" lengthAdjust="spacing" textLength="14" x="53.5" y="770.0889">22</text><text fill="#000000" font-family="sans-serif" font-size="13" lengthAdjust="spacing" textLength="136" x="71.5" y="770.0889">select a purchase order</text><polygon fill="#181818" points="57.5,799.3672,47.5,803.3672,57.5,807.3672,53.5,803.3672" style="stroke:#181818;stroke-width:1.0;"/><line style="stroke:#181818;stroke-width:1.0;stroke-dasharray:2.0,2.0;" x1="51.5" x2="401.5" y1="803.3672" y2="803.3672"/><text fill="#000000" font-family="sans-serif" font-size="13" font-weight="bold" lengthAdjust="spacing" textLength="14" x="63.5" y="798.6123">23</text><text fill="#000000" font-family="sans-serif" font-size="13" lengthAdjust="spacing" textLength="209" x="81.5" y="798.6123">asks for decision (accept or decline)</text><polygon fill="#181818" points="385.5,827.8906,395.5,831.8906,385.5,835.8906,389.5,831.8906" style="stroke:#181818;stroke-width:1.0;"/><line style="stroke:#181818;stroke-width:1.0;" x1="46.5" x2="391.5" y1="831.8906" y2="831.8906"/><text fill="#000000" font-family="sans-serif" font-size="13" font-weight="bold" lengthAdjust="spacing" textLength="14" x="53.5" y="827.1357">24</text><text fill="#000000" font-family="sans-serif" font-size="13" lengthAdjust="spacing" textLength="224" x="71.5" y="827.1357">makes the decision (accept or decline)</text><path d="M332,846.8906 L393,846.8906 L393,853.4141 L383,863.4141 L332,863.4141 L332,846.8906 " fill="#EEEEEE" style="stroke:#000000;stroke-width:1.5;"/><rect fill="none" height="414.6172" style="stroke:#000000;stroke-width:1.5;" width="1217" x="332" y="846.8906"/><text fill="#000000" font-family="sans-serif" font-size="13" font-weight="bold" lengthAdjust="spacing" textLength="16" x="347" y="859.6592">alt</text><text fill="#000000" font-family="sans-serif" font-size="11" font-weight="bold" lengthAdjust="spacing" textLength="106" x="408" y="858.8486">[accepts the order]</text><polygon fill="#181818" points="693.5,879.9375,703.5,883.9375,693.5,887.9375,697.5,883.9375" style="stroke:#181818;stroke-width:1.0;"/><line style="stroke:#181818;stroke-width:1.0;" x1="407.5" x2="699.5" y1="883.9375" y2="883.9375"/><text fill="#000000" font-family="sans-serif" font-size="13" font-weight="bold" lengthAdjust="spacing" textLength="14" x="414.5" y="879.1826">25</text><text fill="#000000" font-family="sans-serif" font-size="13" lengthAdjust="spacing" textLength="163" x="432.5" y="879.1826">acceptPurchaseOrder(order)</text><polygon fill="#181818" points="1047.5,908.4609,1057.5,912.4609,1047.5,916.4609,1051.5,912.4609" style="stroke:#181818;stroke-width:1.0;"/><line style="stroke:#181818;stroke-width:1.0;" x1="715.5" x2="1053.5" y1="912.4609" y2="912.4609"/><text fill="#000000" font-family="sans-serif" font-size="13" font-weight="bold" lengthAdjust="spacing" textLength="14" x="722.5" y="907.7061">26</text><text fill="#000000" font-family="sans-serif" font-size="13" lengthAdjust="spacing" textLength="253" x="740.5" y="907.7061">getOrdersByAnnouncement(announcement)</text><polygon fill="#181818" points="726.5,936.9844,716.5,940.9844,726.5,944.9844,722.5,940.9844" style="stroke:#181818;stroke-width:1.0;"/><line style="stroke:#181818;stroke-width:1.0;stroke-dasharray:2.0,2.0;" x1="720.5" x2="1063.5" y1="940.9844" y2="940.9844"/><text fill="#000000" font-family="sans-serif" font-size="13" font-weight="bold" lengthAdjust="spacing" textLength="14" x="732.5" y="936.2295">27</text><text fill="#000000" font-family="sans-serif" font-size="13" lengthAdjust="spacing" textLength="57" x="750.5" y="936.2295">ordersList</text><line style="stroke:#181818;stroke-width:1.0;" x1="715.5" x2="757.5" y1="969.5078" y2="969.5078"/><line style="stroke:#181818;stroke-width:1.0;" x1="757.5" x2="757.5" y1="969.5078" y2="982.5078"/><line style="stroke:#181818;stroke-width:1.0;" x1="716.5" x2="757.5" y1="982.5078" y2="982.5078"/><polygon fill="#181818" points="726.5,978.5078,716.5,982.5078,726.5,986.5078,722.5,982.5078" style="stroke:#181818;stroke-width:1.0;"/><text fill="#000000" font-family="sans-serif" font-size="13" font-weight="bold" lengthAdjust="spacing" textLength="14" x="722.5" y="964.7529">28</text><text fill="#000000" font-family="sans-serif" font-size="13" lengthAdjust="spacing" textLength="205" x="740.5" y="964.7529">declineOtherOrders(acceptedOrder)</text><polygon fill="#181818" points="1474.5,1007.0313,1484.5,1011.0313,1474.5,1015.0313,1478.5,1011.0313" style="stroke:#181818;stroke-width:1.0;"/><line style="stroke:#181818;stroke-width:1.0;" x1="715.5" x2="1480.5" y1="1011.0313" y2="1011.0313"/><text fill="#000000" font-family="sans-serif" font-size="13" font-weight="bold" lengthAdjust="spacing" textLength="14" x="722.5" y="1006.2764">29</text><text fill="#000000" font-family="sans-serif" font-size="13" lengthAdjust="spacing" textLength="214" x="740.5" y="1006.2764">sendMessage(clientEmail, message)</text><polygon fill="#181818" points="726.5,1035.5547,716.5,1039.5547,726.5,1043.5547,722.5,1039.5547" style="stroke:#181818;stroke-width:1.0;"/><line style="stroke:#181818;stroke-width:1.0;stroke-dasharray:2.0,2.0;" x1="720.5" x2="1490.5" y1="1039.5547" y2="1039.5547"/><text fill="#000000" font-family="sans-serif" font-size="13" font-weight="bold" lengthAdjust="spacing" textLength="14" x="732.5" y="1034.7998">30</text><text fill="#000000" font-family="sans-serif" font-size="13" lengthAdjust="spacing" textLength="106" x="750.5" y="1034.7998">operation success</text><polygon fill="#181818" points="418.5,1064.0781,408.5,1068.0781,418.5,1072.0781,414.5,1068.0781" style="stroke:#181818;stroke-width:1.0;"/><line style="stroke:#181818;stroke-width:1.0;stroke-dasharray:2.0,2.0;" x1="412.5" x2="709.5" y1="1068.0781" y2="1068.0781"/><text fill="#000000" font-family="sans-serif" font-size="13" font-weight="bold" lengthAdjust="spacing" textLength="14" x="424.5" y="1063.3232">31</text><text fill="#000000" font-family="sans-serif" font-size="13" lengthAdjust="spacing" textLength="106" x="442.5" y="1063.3232">operation success</text><line style="stroke:#000000;stroke-width:1.0;stroke-dasharray:2.0,2.0;" x1="332" x2="1549" y1="1077.0781" y2="1077.0781"/><text fill="#000000" font-family="sans-serif" font-size="11" font-weight="bold" lengthAdjust="spacing" textLength="110" x="337" y="1087.0361">[declines the order]</text><polygon fill="#181818" points="693.5,1106.8906,703.5,1110.8906,693.5,1114.8906,697.5,1110.8906" style="stroke:#181818;stroke-width:1.0;"/><line style="stroke:#181818;stroke-width:1.0;" x1="407.5" x2="699.5" y1="1110.8906" y2="1110.8906"/><text fill="#000000" font-family="sans-serif" font-size="13" font-weight="bold" lengthAdjust="spacing" textLength="14" x="414.5" y="1106.1357">32</text><text fill="#000000" font-family="sans-serif" font-size="13" lengthAdjust="spacing" textLength="165" x="432.5" y="1106.1357">declinePurchaseOrder(order)</text><polygon fill="#181818" points="1357,1135.4141,1367,1139.4141,1357,1143.4141,1361,1139.4141" style="stroke:#181818;stroke-width:1.0;"/><line style="stroke:#181818;stroke-width:1.0;" x1="715.5" x2="1363" y1="1139.4141" y2="1139.4141"/><text fill="#000000" font-family="sans-serif" font-size="13" font-weight="bold" lengthAdjust="spacing" textLength="14" x="722.5" y="1134.6592">33</text><text fill="#000000" font-family="sans-serif" font-size="13" lengthAdjust="spacing" textLength="253" x="740.5" y="1134.6592">getOrdersByAnnouncement(announcement)</text><polygon fill="#181818" points="726.5,1163.9375,716.5,1167.9375,726.5,1171.9375,722.5,1167.9375" style="stroke:#181818;stroke-width:1.0;"/><line style="stroke:#181818;stroke-width:1.0;stroke-dasharray:2.0,2.0;" x1="720.5" x2="1373" y1="1167.9375" y2="1167.9375"/><text fill="#000000" font-family="sans-serif" font-size="13" font-weight="bold" lengthAdjust="spacing" textLength="14" x="732.5" y="1163.1826">34</text><text fill="#000000" font-family="sans-serif" font-size="13" lengthAdjust="spacing" textLength="57" x="750.5" y="1163.1826">ordersList</text><polygon fill="#181818" points="1474.5,1192.4609,1484.5,1196.4609,1474.5,1200.4609,1478.5,1196.4609" style="stroke:#181818;stroke-width:1.0;"/><line style="stroke:#181818;stroke-width:1.0;" x1="715.5" x2="1480.5" y1="1196.4609" y2="1196.4609"/><text fill="#000000" font-family="sans-serif" font-size="13" font-weight="bold" lengthAdjust="spacing" textLength="14" x="722.5" y="1191.7061">35</text><text fill="#000000" font-family="sans-serif" font-size="13" lengthAdjust="spacing" textLength="214" x="740.5" y="1191.7061">sendMessage(clientEmail, message)</text><polygon fill="#181818" points="726.5,1220.9844,716.5,1224.9844,726.5,1228.9844,722.5,1224.9844" style="stroke:#181818;stroke-width:1.0;"/><line style="stroke:#181818;stroke-width:1.0;stroke-dasharray:2.0,2.0;" x1="720.5" x2="1490.5" y1="1224.9844" y2="1224.9844"/><text fill="#000000" font-family="sans-serif" font-size="13" font-weight="bold" lengthAdjust="spacing" textLength="14" x="732.5" y="1220.2295">36</text><text fill="#000000" font-family="sans-serif" font-size="13" lengthAdjust="spacing" textLength="106" x="750.5" y="1220.2295">operation success</text><polygon fill="#181818" points="418.5,1249.5078,408.5,1253.5078,418.5,1257.5078,414.5,1253.5078" style="stroke:#181818;stroke-width:1.0;"/><line style="stroke:#181818;stroke-width:1.0;stroke-dasharray:2.0,2.0;" x1="412.5" x2="709.5" y1="1253.5078" y2="1253.5078"/><text fill="#000000" font-family="sans-serif" font-size="13" font-weight="bold" lengthAdjust="spacing" textLength="14" x="424.5" y="1248.7529">37</text><text fill="#000000" font-family="sans-serif" font-size="13" lengthAdjust="spacing" textLength="106" x="442.5" y="1248.7529">operation success</text><polygon fill="#181818" points="57.5,1285.0313,47.5,1289.0313,57.5,1293.0313,53.5,1289.0313" style="stroke:#181818;stroke-width:1.0;"/><line style="stroke:#181818;stroke-width:1.0;stroke-dasharray:2.0,2.0;" x1="51.5" x2="396.5" y1="1289.0313" y2="1289.0313"/><text fill="#000000" font-family="sans-serif" font-size="13" font-weight="bold" lengthAdjust="spacing" textLength="14" x="63.5" y="1284.2764">38</text><text fill="#000000" font-family="sans-serif" font-size="13" lengthAdjust="spacing" textLength="106" x="81.5" y="1284.2764">operation success</text><line style="stroke:#000000;stroke-width:1.0;stroke-dasharray:2.0,2.0;" x1="10" x2="1559" y1="1298.0313" y2="1298.0313"/><text fill="#000000" font-family="sans-serif" font-size="11" font-weight="bold" lengthAdjust="spacing" textLength="171" x="15" y="1307.9893">[if there's no purchase orders]</text><polygon fill="#181818" points="57.5,1342.3672,47.5,1346.3672,57.5,1350.3672,53.5,1346.3672" style="stroke:#181818;stroke-width:1.0;"/><line style="stroke:#181818;stroke-width:1.0;stroke-dasharray:2.0,2.0;" x1="51.5" x2="401.5" y1="1346.3672" y2="1346.3672"/><text fill="#000000" font-family="sans-serif" font-size="13" font-weight="bold" lengthAdjust="spacing" textLength="14" x="63.5" y="1334.3506">39</text><text fill="#000000" font-family="sans-serif" font-size="13" lengthAdjust="spacing" textLength="116" x="81.5" y="1327.0889">shows an empty list</text><text fill="#000000" font-family="sans-serif" font-size="13" lengthAdjust="spacing" textLength="132" x="81.5" y="1341.6123">and the operation ends</text><!--SRC=[tLR1JkCm4BtdAomkbDNo0psi560FIA1M56wzkCcqjPhOMTi1ylSxjbF7SHpeNhS7HErvBszctaoZJemtLDAQr8ABuYX53KJB5ZBbRnfQdEW1DhghW4WeDEM7AWnGHrgA3yOFP4yh1Lb6MoruM-z0PjdraPL0zaBedVZCQA6595Vv0RY-8bIH_E4vGnRD2jPGhidLSYLBa0zGCCK4VtkqKM-FNmNT2wwbg2gGDlZ-zUKf2d-1HYY6ZsQWR8m_w3RCP8Dwnn0P8BPyIh1-ob_72CgvQ7a1DQOsq2CsJrwuxCSKmcGrX2otV3K-iQ3eB3D5PUzKWorcHl23_v3RNrWsiiIE_Mb1QKMq80g0D58qW0y5HRQSlbDMqLrbEYH9qyhYIB63XiEpOl7j0R8XfwdkZn_8MqZ0s-3fjkusqdpCDnEVg3I23w0VkK8d5R2uyHXFbMgFZqentlRAJBf3fpoaXCkepw9p9p7TkPJWVE381orfIwHKvN69boGMyCIKtWYfeRph7X23CYxHhGpkEyc-VcGiEWPF5RiddxqsXmrmWqjCiaOpUdM9EqHye4MFG0PB1awbl4JhdteJLxY4YE0mDRkxm_Wpk8iBwofaPoYiw5eojAA3GxdkmNs9_qUBcmKMrE9hUzjjvuyjT90JRQsK8eUVQ8YU7CYPTUra-PqZOgx0qS8pfhGb6SUsZWWcRgQL9coFxgMQm2Spo_QyIdjiml4bKqr5EsVw2a54x0VObZiWEKZHDb2INJTOEXA12pez1sOCHZhc5xkNPQVC_1YK_QyhMT2YW0RbsREASRYvG45DJ-1o-vPe8iZKqyKw1gTzEiWkPjsdQ1kviB7pSpjZVtNNXKjp4Iwoc6mOXj4WZ7sI9ISWLE26fo_42jEKJabV9IXNGIPdqEyQb-C6v3jkAzDbNZw3KlXsja0Qr6hlVvBQ7SRAGxIx2az6cQ3Hg3PDKotAKIhEPqeLZSo483awvip-0NnnF1SZRBeF63M-3qnsVjfupp6pTowrWUUPtHq-ul9jb7spZYRY_zK2KzMZtldhf1NcdF2b7IB9yvP8CGsZYfabzbF2M9arZrt08E5Q4Iwc-tVkbODo0dMZExU2yOqOtpIi_VnpK0VYnzikmyE_]--></g></svg>