<?xml version="1.0" encoding="us-ascii" standalone="no"?><svg xmlns="http://www.w3.org/2000/svg" xmlns:xlink="http://www.w3.org/1999/xlink" contentStyleType="text/css" height="1166px" preserveAspectRatio="none" style="width:1304px;height:1166px;background:#FFFFFF;" version="1.1" viewBox="0 0 1304 1166" width="1304px" zoomAndPan="magnify"><defs/><g><!--class Location--><g id="elem_Location"><rect codeLine="11" fill="#F1F1F1" height="126.2031" id="Location" rx="2.5" ry="2.5" style="stroke:#181818;stroke-width:0.5;" width="146" x="370.5" y="754"/><ellipse cx="412.5" cy="770" fill="#ADD1B2" rx="11" ry="11" style="stroke:#181818;stroke-width:1.0;"/><path d="M414.5,766.5 Q414.7031,766 414.9375,765.75 Q415.1719,765.5 415.4375,765.5 Q415.9063,765.5 416.2031,765.7813 Q416.5,766.0625 416.5,766.7188 L416.5,768.2813 Q416.5,768.9375 416.2188,769.2188 Q415.9375,769.5 415.5,769.5 Q415.1094,769.5 414.8594,769.3281 Q414.6094,769.1563 414.5,768.7031 Q414.4531,768.3906 414.2813,768.2188 Q413.9688,767.8906 413.4063,767.7031 Q412.8438,767.5 412.2813,767.5 Q411.5781,767.5 410.9844,767.7813 Q410.4063,768.0625 409.9531,768.6875 Q409.5,769.3125 409.5,770.1719 L409.5,771.0938 Q409.5,772.125 410.3438,772.8125 Q411.1875,773.5 412.6875,773.5 Q413.5781,773.5 414.2031,773.2969 Q414.5625,773.1875 414.9688,772.8281 Q415.2344,772.625 415.375,772.5625 Q415.5156,772.5 415.6875,772.5 Q416.0156,772.5 416.25,772.7656 Q416.5,773.0156 416.5,773.375 Q416.5,773.7188 416.1563,774.125 Q415.6563,774.7188 414.8594,775.0469 Q413.8125,775.5 412.5313,775.5 Q411.0313,775.5 409.8281,774.9063 Q408.8594,774.4375 408.1719,773.4219 Q407.5,772.4063 407.5,771.2031 L407.5,770.1094 Q407.5,768.8594 408.0938,767.7656 Q408.7031,766.6719 409.75,766.0938 Q410.8125,765.5 412,765.5 Q412.7188,765.5 413.3438,765.75 Q413.9688,766 414.5,766.5 Z " fill="#000000"/><text fill="#000000" font-family="sans-serif" font-size="14" lengthAdjust="spacing" textLength="54" x="432.5" y="774.8535">Location</text><line style="stroke:#181818;stroke-width:0.5;" x1="371.5" x2="515.5" y1="786" y2="786"/><text fill="#000000" font-family="sans-serif" font-size="14" lengthAdjust="spacing" textLength="134" x="376.5" y="802.6738">-String streetAddress</text><text fill="#000000" font-family="sans-serif" font-size="14" lengthAdjust="spacing" textLength="54" x="376.5" y="818.3145">-City city</text><text fill="#000000" font-family="sans-serif" font-size="14" lengthAdjust="spacing" textLength="93" x="376.5" y="833.9551">-District district</text><text fill="#000000" font-family="sans-serif" font-size="14" lengthAdjust="spacing" textLength="73" x="376.5" y="849.5957">-State state</text><text fill="#000000" font-family="sans-serif" font-size="14" lengthAdjust="spacing" textLength="97" x="376.5" y="865.2363">-String zipCode</text><line style="stroke:#181818;stroke-width:0.5;" x1="371.5" x2="515.5" y1="872.2031" y2="872.2031"/></g><!--class City--><g id="elem_City"><rect codeLine="19" fill="#F1F1F1" height="63.6406" id="City" rx="2.5" ry="2.5" style="stroke:#181818;stroke-width:0.5;" width="93" x="368" y="1096"/><ellipse cx="399.65" cy="1112" fill="#ADD1B2" rx="11" ry="11" style="stroke:#181818;stroke-width:1.0;"/><path d="M401.65,1108.5 Q401.8531,1108 402.0875,1107.75 Q402.3219,1107.5 402.5875,1107.5 Q403.0563,1107.5 403.3531,1107.7813 Q403.65,1108.0625 403.65,1108.7188 L403.65,1110.2813 Q403.65,1110.9375 403.3688,1111.2188 Q403.0875,1111.5 402.65,1111.5 Q402.2594,1111.5 402.0094,1111.3281 Q401.7594,1111.1563 401.65,1110.7031 Q401.6031,1110.3906 401.4313,1110.2188 Q401.1188,1109.8906 400.5563,1109.7031 Q399.9938,1109.5 399.4313,1109.5 Q398.7281,1109.5 398.1344,1109.7813 Q397.5563,1110.0625 397.1031,1110.6875 Q396.65,1111.3125 396.65,1112.1719 L396.65,1113.0938 Q396.65,1114.125 397.4938,1114.8125 Q398.3375,1115.5 399.8375,1115.5 Q400.7281,1115.5 401.3531,1115.2969 Q401.7125,1115.1875 402.1188,1114.8281 Q402.3844,1114.625 402.525,1114.5625 Q402.6656,1114.5 402.8375,1114.5 Q403.1656,1114.5 403.4,1114.7656 Q403.65,1115.0156 403.65,1115.375 Q403.65,1115.7188 403.3063,1116.125 Q402.8063,1116.7188 402.0094,1117.0469 Q400.9625,1117.5 399.6813,1117.5 Q398.1813,1117.5 396.9781,1116.9063 Q396.0094,1116.4375 395.3219,1115.4219 Q394.65,1114.4063 394.65,1113.2031 L394.65,1112.1094 Q394.65,1110.8594 395.2438,1109.7656 Q395.8531,1108.6719 396.9,1108.0938 Q397.9625,1107.5 399.15,1107.5 Q399.8688,1107.5 400.4938,1107.75 Q401.1188,1108 401.65,1108.5 Z " fill="#000000"/><text fill="#000000" font-family="sans-serif" font-size="14" lengthAdjust="spacing" textLength="24" x="417.35" y="1116.8535">City</text><line style="stroke:#181818;stroke-width:0.5;" x1="369" x2="460" y1="1128" y2="1128"/><text fill="#000000" font-family="sans-serif" font-size="14" lengthAdjust="spacing" textLength="81" x="374" y="1144.6738">-String name</text><line style="stroke:#181818;stroke-width:0.5;" x1="369" x2="460" y1="1151.6406" y2="1151.6406"/></g><!--class District--><g id="elem_District"><rect codeLine="23" fill="#F1F1F1" height="63.6406" id="District" rx="2.5" ry="2.5" style="stroke:#181818;stroke-width:0.5;" width="93" x="659" y="1096"/><ellipse cx="682.1" cy="1112" fill="#ADD1B2" rx="11" ry="11" style="stroke:#181818;stroke-width:1.0;"/><path d="M684.1,1108.5 Q684.3031,1108 684.5375,1107.75 Q684.7719,1107.5 685.0375,1107.5 Q685.5063,1107.5 685.8031,1107.7813 Q686.1,1108.0625 686.1,1108.7188 L686.1,1110.2813 Q686.1,1110.9375 685.8188,1111.2188 Q685.5375,1111.5 685.1,1111.5 Q684.7094,1111.5 684.4594,1111.3281 Q684.2094,1111.1563 684.1,1110.7031 Q684.0531,1110.3906 683.8813,1110.2188 Q683.5688,1109.8906 683.0063,1109.7031 Q682.4438,1109.5 681.8813,1109.5 Q681.1781,1109.5 680.5844,1109.7813 Q680.0063,1110.0625 679.5531,1110.6875 Q679.1,1111.3125 679.1,1112.1719 L679.1,1113.0938 Q679.1,1114.125 679.9438,1114.8125 Q680.7875,1115.5 682.2875,1115.5 Q683.1781,1115.5 683.8031,1115.2969 Q684.1625,1115.1875 684.5688,1114.8281 Q684.8344,1114.625 684.975,1114.5625 Q685.1156,1114.5 685.2875,1114.5 Q685.6156,1114.5 685.85,1114.7656 Q686.1,1115.0156 686.1,1115.375 Q686.1,1115.7188 685.7563,1116.125 Q685.2563,1116.7188 684.4594,1117.0469 Q683.4125,1117.5 682.1313,1117.5 Q680.6313,1117.5 679.4281,1116.9063 Q678.4594,1116.4375 677.7719,1115.4219 Q677.1,1114.4063 677.1,1113.2031 L677.1,1112.1094 Q677.1,1110.8594 677.6938,1109.7656 Q678.3031,1108.6719 679.35,1108.0938 Q680.4125,1107.5 681.6,1107.5 Q682.3188,1107.5 682.9438,1107.75 Q683.5688,1108 684.1,1108.5 Z " fill="#000000"/><text fill="#000000" font-family="sans-serif" font-size="14" lengthAdjust="spacing" textLength="43" x="697.9" y="1116.8535">District</text><line style="stroke:#181818;stroke-width:0.5;" x1="660" x2="751" y1="1128" y2="1128"/><text fill="#000000" font-family="sans-serif" font-size="14" lengthAdjust="spacing" textLength="81" x="665" y="1144.6738">-String name</text><line style="stroke:#181818;stroke-width:0.5;" x1="660" x2="751" y1="1151.6406" y2="1151.6406"/></g><!--class State--><g id="elem_State"><rect codeLine="27" fill="#F1F1F1" height="63.6406" id="State" rx="2.5" ry="2.5" style="stroke:#181818;stroke-width:0.5;" width="93" x="84" y="1096"/><ellipse cx="111.6" cy="1112" fill="#ADD1B2" rx="11" ry="11" style="stroke:#181818;stroke-width:1.0;"/><path d="M113.6,1108.5 Q113.8031,1108 114.0375,1107.75 Q114.2719,1107.5 114.5375,1107.5 Q115.0063,1107.5 115.3031,1107.7813 Q115.6,1108.0625 115.6,1108.7188 L115.6,1110.2813 Q115.6,1110.9375 115.3188,1111.2188 Q115.0375,1111.5 114.6,1111.5 Q114.2094,1111.5 113.9594,1111.3281 Q113.7094,1111.1563 113.6,1110.7031 Q113.5531,1110.3906 113.3813,1110.2188 Q113.0688,1109.8906 112.5063,1109.7031 Q111.9438,1109.5 111.3813,1109.5 Q110.6781,1109.5 110.0844,1109.7813 Q109.5063,1110.0625 109.0531,1110.6875 Q108.6,1111.3125 108.6,1112.1719 L108.6,1113.0938 Q108.6,1114.125 109.4438,1114.8125 Q110.2875,1115.5 111.7875,1115.5 Q112.6781,1115.5 113.3031,1115.2969 Q113.6625,1115.1875 114.0688,1114.8281 Q114.3344,1114.625 114.475,1114.5625 Q114.6156,1114.5 114.7875,1114.5 Q115.1156,1114.5 115.35,1114.7656 Q115.6,1115.0156 115.6,1115.375 Q115.6,1115.7188 115.2563,1116.125 Q114.7563,1116.7188 113.9594,1117.0469 Q112.9125,1117.5 111.6313,1117.5 Q110.1313,1117.5 108.9281,1116.9063 Q107.9594,1116.4375 107.2719,1115.4219 Q106.6,1114.4063 106.6,1113.2031 L106.6,1112.1094 Q106.6,1110.8594 107.1938,1109.7656 Q107.8031,1108.6719 108.85,1108.0938 Q109.9125,1107.5 111.1,1107.5 Q111.8188,1107.5 112.4438,1107.75 Q113.0688,1108 113.6,1108.5 Z " fill="#000000"/><text fill="#000000" font-family="sans-serif" font-size="14" lengthAdjust="spacing" textLength="33" x="128.4" y="1116.8535">State</text><line style="stroke:#181818;stroke-width:0.5;" x1="85" x2="176" y1="1128" y2="1128"/><text fill="#000000" font-family="sans-serif" font-size="14" lengthAdjust="spacing" textLength="81" x="90" y="1144.6738">-String name</text><line style="stroke:#181818;stroke-width:0.5;" x1="85" x2="176" y1="1151.6406" y2="1151.6406"/></g><!--class Store--><g id="elem_Store"><rect codeLine="31" fill="#F1F1F1" height="173.125" id="Store" rx="2.5" ry="2.5" style="stroke:#181818;stroke-width:0.5;" width="401" x="255" y="505"/><ellipse cx="434.25" cy="521" fill="#ADD1B2" rx="11" ry="11" style="stroke:#181818;stroke-width:1.0;"/><path d="M436.25,517.5 Q436.4531,517 436.6875,516.75 Q436.9219,516.5 437.1875,516.5 Q437.6563,516.5 437.9531,516.7813 Q438.25,517.0625 438.25,517.7188 L438.25,519.2813 Q438.25,519.9375 437.9688,520.2188 Q437.6875,520.5 437.25,520.5 Q436.8594,520.5 436.6094,520.3281 Q436.3594,520.1563 436.25,519.7031 Q436.2031,519.3906 436.0313,519.2188 Q435.7188,518.8906 435.1563,518.7031 Q434.5938,518.5 434.0313,518.5 Q433.3281,518.5 432.7344,518.7813 Q432.1563,519.0625 431.7031,519.6875 Q431.25,520.3125 431.25,521.1719 L431.25,522.0938 Q431.25,523.125 432.0938,523.8125 Q432.9375,524.5 434.4375,524.5 Q435.3281,524.5 435.9531,524.2969 Q436.3125,524.1875 436.7188,523.8281 Q436.9844,523.625 437.125,523.5625 Q437.2656,523.5 437.4375,523.5 Q437.7656,523.5 438,523.7656 Q438.25,524.0156 438.25,524.375 Q438.25,524.7188 437.9063,525.125 Q437.4063,525.7188 436.6094,526.0469 Q435.5625,526.5 434.2813,526.5 Q432.7813,526.5 431.5781,525.9063 Q430.6094,525.4375 429.9219,524.4219 Q429.25,523.4063 429.25,522.2031 L429.25,521.1094 Q429.25,519.8594 429.8438,518.7656 Q430.4531,517.6719 431.5,517.0938 Q432.5625,516.5 433.75,516.5 Q434.4688,516.5 435.0938,516.75 Q435.7188,517 436.25,517.5 Z " fill="#000000"/><text fill="#000000" font-family="sans-serif" font-size="14" lengthAdjust="spacing" textLength="34" x="454.75" y="525.8535">Store</text><line style="stroke:#181818;stroke-width:0.5;" x1="256" x2="655" y1="537" y2="537"/><text fill="#000000" font-family="sans-serif" font-size="14" lengthAdjust="spacing" textLength="59" x="261" y="553.6738">-String ID</text><text fill="#000000" font-family="sans-serif" font-size="14" lengthAdjust="spacing" textLength="119" x="261" y="569.3145">-String designation</text><text fill="#000000" font-family="sans-serif" font-size="14" lengthAdjust="spacing" textLength="112" x="261" y="584.9551">-Location location</text><text fill="#000000" font-family="sans-serif" font-size="14" lengthAdjust="spacing" textLength="131" x="261" y="600.5957">-String emailAddress</text><text fill="#000000" font-family="sans-serif" font-size="14" lengthAdjust="spacing" textLength="135" x="261" y="616.2363">-String phoneNumber</text><line style="stroke:#181818;stroke-width:0.5;" x1="256" x2="655" y1="623.2031" y2="623.2031"/><text fill="#000000" font-family="sans-serif" font-size="14" lengthAdjust="spacing" textLength="389" x="261" y="639.877">+Store(ID, designation,location, emailAddress, phoneNumber)</text><text fill="#000000" font-family="sans-serif" font-size="14" lengthAdjust="spacing" textLength="336" x="261" y="655.5176">+Store(ID, designation, emailAddress, phoneNumber)</text><text fill="#000000" font-family="sans-serif" font-size="14" lengthAdjust="spacing" textLength="140" x="261" y="671.1582">+setLocation(location)</text></g><!--class Organization--><g id="elem_Organization"><rect codeLine="43" fill="#F1F1F1" height="94.9219" id="Organization" rx="2.5" ry="2.5" style="stroke:#181818;stroke-width:0.5;" width="236" x="1061.5" y="769.5"/><ellipse cx="1135.25" cy="785.5" fill="#ADD1B2" rx="11" ry="11" style="stroke:#181818;stroke-width:1.0;"/><path d="M1137.25,782 Q1137.4531,781.5 1137.6875,781.25 Q1137.9219,781 1138.1875,781 Q1138.6563,781 1138.9531,781.2813 Q1139.25,781.5625 1139.25,782.2188 L1139.25,783.7813 Q1139.25,784.4375 1138.9688,784.7188 Q1138.6875,785 1138.25,785 Q1137.8594,785 1137.6094,784.8281 Q1137.3594,784.6563 1137.25,784.2031 Q1137.2031,783.8906 1137.0313,783.7188 Q1136.7188,783.3906 1136.1563,783.2031 Q1135.5938,783 1135.0313,783 Q1134.3281,783 1133.7344,783.2813 Q1133.1563,783.5625 1132.7031,784.1875 Q1132.25,784.8125 1132.25,785.6719 L1132.25,786.5938 Q1132.25,787.625 1133.0938,788.3125 Q1133.9375,789 1135.4375,789 Q1136.3281,789 1136.9531,788.7969 Q1137.3125,788.6875 1137.7188,788.3281 Q1137.9844,788.125 1138.125,788.0625 Q1138.2656,788 1138.4375,788 Q1138.7656,788 1139,788.2656 Q1139.25,788.5156 1139.25,788.875 Q1139.25,789.2188 1138.9063,789.625 Q1138.4063,790.2188 1137.6094,790.5469 Q1136.5625,791 1135.2813,791 Q1133.7813,791 1132.5781,790.4063 Q1131.6094,789.9375 1130.9219,788.9219 Q1130.25,787.9063 1130.25,786.7031 L1130.25,785.6094 Q1130.25,784.3594 1130.8438,783.2656 Q1131.4531,782.1719 1132.5,781.5938 Q1133.5625,781 1134.75,781 Q1135.4688,781 1136.0938,781.25 Q1136.7188,781.5 1137.25,782 Z " fill="#000000"/><text fill="#000000" font-family="sans-serif" font-size="14" lengthAdjust="spacing" textLength="80" x="1155.75" y="790.3535">Organization</text><line style="stroke:#181818;stroke-width:0.5;" x1="1062.5" x2="1296.5" y1="801.5" y2="801.5"/><text fill="#000000" font-family="sans-serif" font-size="14" lengthAdjust="spacing" textLength="81" x="1067.5" y="818.1738">-String name</text><line style="stroke:#181818;stroke-width:0.5;" x1="1062.5" x2="1296.5" y1="825.1406" y2="825.1406"/><text fill="#000000" font-family="sans-serif" font-size="14" lengthAdjust="spacing" textLength="224" x="1067.5" y="841.8145">-checkIfStoreExists(store) : boolean</text><text fill="#000000" font-family="sans-serif" font-size="14" lengthAdjust="spacing" textLength="133" x="1067.5" y="857.4551">+Organization(name)</text></g><!--class StoreRepository--><g id="elem_StoreRepository"><rect codeLine="50" fill="#F1F1F1" height="173.125" id="StoreRepository" rx="2.5" ry="2.5" style="stroke:#181818;stroke-width:0.5;" width="488" x="527.5" y="256"/><ellipse cx="716.25" cy="272" fill="#ADD1B2" rx="11" ry="11" style="stroke:#181818;stroke-width:1.0;"/><path d="M718.25,268.5 Q718.4531,268 718.6875,267.75 Q718.9219,267.5 719.1875,267.5 Q719.6563,267.5 719.9531,267.7813 Q720.25,268.0625 720.25,268.7188 L720.25,270.2813 Q720.25,270.9375 719.9688,271.2188 Q719.6875,271.5 719.25,271.5 Q718.8594,271.5 718.6094,271.3281 Q718.3594,271.1563 718.25,270.7031 Q718.2031,270.3906 718.0313,270.2188 Q717.7188,269.8906 717.1563,269.7031 Q716.5938,269.5 716.0313,269.5 Q715.3281,269.5 714.7344,269.7813 Q714.1563,270.0625 713.7031,270.6875 Q713.25,271.3125 713.25,272.1719 L713.25,273.0938 Q713.25,274.125 714.0938,274.8125 Q714.9375,275.5 716.4375,275.5 Q717.3281,275.5 717.9531,275.2969 Q718.3125,275.1875 718.7188,274.8281 Q718.9844,274.625 719.125,274.5625 Q719.2656,274.5 719.4375,274.5 Q719.7656,274.5 720,274.7656 Q720.25,275.0156 720.25,275.375 Q720.25,275.7188 719.9063,276.125 Q719.4063,276.7188 718.6094,277.0469 Q717.5625,277.5 716.2813,277.5 Q714.7813,277.5 713.5781,276.9063 Q712.6094,276.4375 711.9219,275.4219 Q711.25,274.4063 711.25,273.2031 L711.25,272.1094 Q711.25,270.8594 711.8438,269.7656 Q712.4531,268.6719 713.5,268.0938 Q714.5625,267.5 715.75,267.5 Q716.4688,267.5 717.0938,267.75 Q717.7188,268 718.25,268.5 Z " fill="#000000"/><text fill="#000000" font-family="sans-serif" font-size="14" lengthAdjust="spacing" textLength="102" x="736.75" y="276.8535">StoreRepository</text><line style="stroke:#181818;stroke-width:0.5;" x1="528.5" x2="1014.5" y1="288" y2="288"/><text fill="#000000" font-family="sans-serif" font-size="14" lengthAdjust="spacing" textLength="120" x="533.5" y="304.6738">-List&lt;Store&gt; stores</text><line style="stroke:#181818;stroke-width:0.5;" x1="528.5" x2="1014.5" y1="311.6406" y2="311.6406"/><text fill="#000000" font-family="sans-serif" font-size="14" lengthAdjust="spacing" textLength="160" x="533.5" y="328.3145">-getStores() : List&lt;Store&gt;</text><text fill="#000000" font-family="sans-serif" font-size="14" lengthAdjust="spacing" textLength="157" x="533.5" y="343.9551">-getStoreByID(ID) : Store</text><text fill="#000000" font-family="sans-serif" font-size="14" lengthAdjust="spacing" textLength="310" x="533.5" y="359.5957">-getStoreByPhoneNumber(phoneNumber) : Store</text><text fill="#000000" font-family="sans-serif" font-size="14" lengthAdjust="spacing" textLength="198" x="533.5" y="375.2363">-getStoreByEmail(email) : Store</text><text fill="#000000" font-family="sans-serif" font-size="14" lengthAdjust="spacing" textLength="192" x="533.5" y="390.877">-registerStore(store) : boolean</text><text fill="#000000" font-family="sans-serif" font-size="14" lengthAdjust="spacing" textLength="419" x="533.5" y="406.5176">-createStore(ID, designation, emailAddress, phoneNumber) : Store</text><text fill="#000000" font-family="sans-serif" font-size="14" lengthAdjust="spacing" textLength="476" x="533.5" y="422.1582">-createStore(ID, designation, location, emailAddress, phoneNumber) : Store</text></g><!--class StateRepository--><g id="elem_StateRepository"><rect codeLine="61" fill="#F1F1F1" height="63.6406" id="StateRepository" rx="2.5" ry="2.5" style="stroke:#181818;stroke-width:0.5;" width="247" x="7" y="956"/><ellipse cx="75.75" cy="972" fill="#ADD1B2" rx="11" ry="11" style="stroke:#181818;stroke-width:1.0;"/><path d="M77.75,968.5 Q77.9531,968 78.1875,967.75 Q78.4219,967.5 78.6875,967.5 Q79.1563,967.5 79.4531,967.7813 Q79.75,968.0625 79.75,968.7188 L79.75,970.2813 Q79.75,970.9375 79.4688,971.2188 Q79.1875,971.5 78.75,971.5 Q78.3594,971.5 78.1094,971.3281 Q77.8594,971.1563 77.75,970.7031 Q77.7031,970.3906 77.5313,970.2188 Q77.2188,969.8906 76.6563,969.7031 Q76.0938,969.5 75.5313,969.5 Q74.8281,969.5 74.2344,969.7813 Q73.6563,970.0625 73.2031,970.6875 Q72.75,971.3125 72.75,972.1719 L72.75,973.0938 Q72.75,974.125 73.5938,974.8125 Q74.4375,975.5 75.9375,975.5 Q76.8281,975.5 77.4531,975.2969 Q77.8125,975.1875 78.2188,974.8281 Q78.4844,974.625 78.625,974.5625 Q78.7656,974.5 78.9375,974.5 Q79.2656,974.5 79.5,974.7656 Q79.75,975.0156 79.75,975.375 Q79.75,975.7188 79.4063,976.125 Q78.9063,976.7188 78.1094,977.0469 Q77.0625,977.5 75.7813,977.5 Q74.2813,977.5 73.0781,976.9063 Q72.1094,976.4375 71.4219,975.4219 Q70.75,974.4063 70.75,973.2031 L70.75,972.1094 Q70.75,970.8594 71.3438,969.7656 Q71.9531,968.6719 73,968.0938 Q74.0625,967.5 75.25,967.5 Q75.9688,967.5 76.5938,967.75 Q77.2188,968 77.75,968.5 Z " fill="#000000"/><text fill="#000000" font-family="sans-serif" font-size="14" lengthAdjust="spacing" textLength="101" x="96.25" y="976.8535">StateRepository</text><line style="stroke:#181818;stroke-width:0.5;" x1="8" x2="253" y1="988" y2="988"/><line style="stroke:#181818;stroke-width:0.5;" x1="8" x2="253" y1="996" y2="996"/><text fill="#000000" font-family="sans-serif" font-size="14" lengthAdjust="spacing" textLength="235" x="13" y="1012.6738">+getStateByName(stateName) : State</text></g><!--class DistrictRepository--><g id="elem_DistrictRepository"><rect codeLine="65" fill="#F1F1F1" height="63.6406" id="DistrictRepository" rx="2.5" ry="2.5" style="stroke:#181818;stroke-width:0.5;" width="277" x="567" y="956"/><ellipse cx="645.75" cy="972" fill="#ADD1B2" rx="11" ry="11" style="stroke:#181818;stroke-width:1.0;"/><path d="M647.75,968.5 Q647.9531,968 648.1875,967.75 Q648.4219,967.5 648.6875,967.5 Q649.1563,967.5 649.4531,967.7813 Q649.75,968.0625 649.75,968.7188 L649.75,970.2813 Q649.75,970.9375 649.4688,971.2188 Q649.1875,971.5 648.75,971.5 Q648.3594,971.5 648.1094,971.3281 Q647.8594,971.1563 647.75,970.7031 Q647.7031,970.3906 647.5313,970.2188 Q647.2188,969.8906 646.6563,969.7031 Q646.0938,969.5 645.5313,969.5 Q644.8281,969.5 644.2344,969.7813 Q643.6563,970.0625 643.2031,970.6875 Q642.75,971.3125 642.75,972.1719 L642.75,973.0938 Q642.75,974.125 643.5938,974.8125 Q644.4375,975.5 645.9375,975.5 Q646.8281,975.5 647.4531,975.2969 Q647.8125,975.1875 648.2188,974.8281 Q648.4844,974.625 648.625,974.5625 Q648.7656,974.5 648.9375,974.5 Q649.2656,974.5 649.5,974.7656 Q649.75,975.0156 649.75,975.375 Q649.75,975.7188 649.4063,976.125 Q648.9063,976.7188 648.1094,977.0469 Q647.0625,977.5 645.7813,977.5 Q644.2813,977.5 643.0781,976.9063 Q642.1094,976.4375 641.4219,975.4219 Q640.75,974.4063 640.75,973.2031 L640.75,972.1094 Q640.75,970.8594 641.3438,969.7656 Q641.9531,968.6719 643,968.0938 Q644.0625,967.5 645.25,967.5 Q645.9688,967.5 646.5938,967.75 Q647.2188,968 647.75,968.5 Z " fill="#000000"/><text fill="#000000" font-family="sans-serif" font-size="14" lengthAdjust="spacing" textLength="111" x="666.25" y="976.8535">DistrictRepository</text><line style="stroke:#181818;stroke-width:0.5;" x1="568" x2="843" y1="988" y2="988"/><line style="stroke:#181818;stroke-width:0.5;" x1="568" x2="843" y1="996" y2="996"/><text fill="#000000" font-family="sans-serif" font-size="14" lengthAdjust="spacing" textLength="265" x="573" y="1012.6738">+getDistrictByName(districtName) : District</text></g><!--class CityRepository--><g id="elem_CityRepository"><rect codeLine="69" fill="#F1F1F1" height="63.6406" id="CityRepository" rx="2.5" ry="2.5" style="stroke:#181818;stroke-width:0.5;" width="219" x="305" y="956"/><ellipse cx="364.25" cy="972" fill="#ADD1B2" rx="11" ry="11" style="stroke:#181818;stroke-width:1.0;"/><path d="M366.25,968.5 Q366.4531,968 366.6875,967.75 Q366.9219,967.5 367.1875,967.5 Q367.6563,967.5 367.9531,967.7813 Q368.25,968.0625 368.25,968.7188 L368.25,970.2813 Q368.25,970.9375 367.9688,971.2188 Q367.6875,971.5 367.25,971.5 Q366.8594,971.5 366.6094,971.3281 Q366.3594,971.1563 366.25,970.7031 Q366.2031,970.3906 366.0313,970.2188 Q365.7188,969.8906 365.1563,969.7031 Q364.5938,969.5 364.0313,969.5 Q363.3281,969.5 362.7344,969.7813 Q362.1563,970.0625 361.7031,970.6875 Q361.25,971.3125 361.25,972.1719 L361.25,973.0938 Q361.25,974.125 362.0938,974.8125 Q362.9375,975.5 364.4375,975.5 Q365.3281,975.5 365.9531,975.2969 Q366.3125,975.1875 366.7188,974.8281 Q366.9844,974.625 367.125,974.5625 Q367.2656,974.5 367.4375,974.5 Q367.7656,974.5 368,974.7656 Q368.25,975.0156 368.25,975.375 Q368.25,975.7188 367.9063,976.125 Q367.4063,976.7188 366.6094,977.0469 Q365.5625,977.5 364.2813,977.5 Q362.7813,977.5 361.5781,976.9063 Q360.6094,976.4375 359.9219,975.4219 Q359.25,974.4063 359.25,973.2031 L359.25,972.1094 Q359.25,970.8594 359.8438,969.7656 Q360.4531,968.6719 361.5,968.0938 Q362.5625,967.5 363.75,967.5 Q364.4688,967.5 365.0938,967.75 Q365.7188,968 366.25,968.5 Z " fill="#000000"/><text fill="#000000" font-family="sans-serif" font-size="14" lengthAdjust="spacing" textLength="92" x="384.75" y="976.8535">CityRepository</text><line style="stroke:#181818;stroke-width:0.5;" x1="306" x2="523" y1="988" y2="988"/><line style="stroke:#181818;stroke-width:0.5;" x1="306" x2="523" y1="996" y2="996"/><text fill="#000000" font-family="sans-serif" font-size="14" lengthAdjust="spacing" textLength="207" x="311" y="1012.6738">+getCityByName(cityName) : City</text></g><!--class Repositories--><g id="elem_Repositories"><rect codeLine="73" fill="#F1F1F1" height="141.8438" id="Repositories" rx="2.5" ry="2.5" style="stroke:#181818;stroke-width:0.5;" width="194" x="219.5" y="271.5"/><ellipse cx="272.75" cy="287.5" fill="#ADD1B2" rx="11" ry="11" style="stroke:#181818;stroke-width:1.0;"/><path d="M274.75,284 Q274.9531,283.5 275.1875,283.25 Q275.4219,283 275.6875,283 Q276.1563,283 276.4531,283.2813 Q276.75,283.5625 276.75,284.2188 L276.75,285.7813 Q276.75,286.4375 276.4688,286.7188 Q276.1875,287 275.75,287 Q275.3594,287 275.1094,286.8281 Q274.8594,286.6563 274.75,286.2031 Q274.7031,285.8906 274.5313,285.7188 Q274.2188,285.3906 273.6563,285.2031 Q273.0938,285 272.5313,285 Q271.8281,285 271.2344,285.2813 Q270.6563,285.5625 270.2031,286.1875 Q269.75,286.8125 269.75,287.6719 L269.75,288.5938 Q269.75,289.625 270.5938,290.3125 Q271.4375,291 272.9375,291 Q273.8281,291 274.4531,290.7969 Q274.8125,290.6875 275.2188,290.3281 Q275.4844,290.125 275.625,290.0625 Q275.7656,290 275.9375,290 Q276.2656,290 276.5,290.2656 Q276.75,290.5156 276.75,290.875 Q276.75,291.2188 276.4063,291.625 Q275.9063,292.2188 275.1094,292.5469 Q274.0625,293 272.7813,293 Q271.2813,293 270.0781,292.4063 Q269.1094,291.9375 268.4219,290.9219 Q267.75,289.9063 267.75,288.7031 L267.75,287.6094 Q267.75,286.3594 268.3438,285.2656 Q268.9531,284.1719 270,283.5938 Q271.0625,283 272.25,283 Q272.9688,283 273.5938,283.25 Q274.2188,283.5 274.75,284 Z " fill="#000000"/><text fill="#000000" font-family="sans-serif" font-size="14" lengthAdjust="spacing" textLength="79" x="293.25" y="292.3535">Repositories</text><line style="stroke:#181818;stroke-width:0.5;" x1="220.5" x2="412.5" y1="303.5" y2="303.5"/><line style="stroke:#181818;stroke-width:0.5;" x1="220.5" x2="412.5" y1="311.5" y2="311.5"/><text fill="#000000" font-family="sans-serif" font-size="14" lengthAdjust="spacing" textLength="94" x="225.5" y="328.1738">-Repositories()</text><text fill="#000000" font-family="sans-serif" font-size="14" lengthAdjust="spacing" textLength="182" x="225.5" y="343.8145">+getInstance() : Repositories</text><text fill="#000000" font-family="sans-serif" font-size="14" lengthAdjust="spacing" textLength="140" x="225.5" y="359.4551">+getStoreRepository()</text><text fill="#000000" font-family="sans-serif" font-size="14" lengthAdjust="spacing" textLength="139" x="225.5" y="375.0957">+getStateRepository()</text><text fill="#000000" font-family="sans-serif" font-size="14" lengthAdjust="spacing" textLength="149" x="225.5" y="390.7363">+getDistrictRepository()</text><text fill="#000000" font-family="sans-serif" font-size="14" lengthAdjust="spacing" textLength="149" x="225.5" y="406.377">+getDistrictRepository()</text></g><!--class RegisterStoreController--><g id="elem_RegisterStoreController"><rect codeLine="82" fill="#F1F1F1" height="173.125" id="RegisterStoreController" rx="2.5" ry="2.5" style="stroke:#181818;stroke-width:0.5;" width="491" x="526" y="7"/><ellipse cx="692.75" cy="23" fill="#ADD1B2" rx="11" ry="11" style="stroke:#181818;stroke-width:1.0;"/><path d="M694.75,19.5 Q694.9531,19 695.1875,18.75 Q695.4219,18.5 695.6875,18.5 Q696.1563,18.5 696.4531,18.7813 Q696.75,19.0625 696.75,19.7188 L696.75,21.2813 Q696.75,21.9375 696.4688,22.2188 Q696.1875,22.5 695.75,22.5 Q695.3594,22.5 695.1094,22.3281 Q694.8594,22.1563 694.75,21.7031 Q694.7031,21.3906 694.5313,21.2188 Q694.2188,20.8906 693.6563,20.7031 Q693.0938,20.5 692.5313,20.5 Q691.8281,20.5 691.2344,20.7813 Q690.6563,21.0625 690.2031,21.6875 Q689.75,22.3125 689.75,23.1719 L689.75,24.0938 Q689.75,25.125 690.5938,25.8125 Q691.4375,26.5 692.9375,26.5 Q693.8281,26.5 694.4531,26.2969 Q694.8125,26.1875 695.2188,25.8281 Q695.4844,25.625 695.625,25.5625 Q695.7656,25.5 695.9375,25.5 Q696.2656,25.5 696.5,25.7656 Q696.75,26.0156 696.75,26.375 Q696.75,26.7188 696.4063,27.125 Q695.9063,27.7188 695.1094,28.0469 Q694.0625,28.5 692.7813,28.5 Q691.2813,28.5 690.0781,27.9063 Q689.1094,27.4375 688.4219,26.4219 Q687.75,25.4063 687.75,24.2031 L687.75,23.1094 Q687.75,21.8594 688.3438,20.7656 Q688.9531,19.6719 690,19.0938 Q691.0625,18.5 692.25,18.5 Q692.9688,18.5 693.5938,18.75 Q694.2188,19 694.75,19.5 Z " fill="#000000"/><text fill="#000000" font-family="sans-serif" font-size="14" lengthAdjust="spacing" textLength="149" x="713.25" y="27.8535">RegisterStoreController</text><line style="stroke:#181818;stroke-width:0.5;" x1="527" x2="1016" y1="39" y2="39"/><line style="stroke:#181818;stroke-width:0.5;" x1="527" x2="1016" y1="47" y2="47"/><text fill="#000000" font-family="sans-serif" font-size="14" lengthAdjust="spacing" textLength="312" x="532" y="63.6738">+RegisterStoreController(organizationRepository)</text><text fill="#000000" font-family="sans-serif" font-size="14" lengthAdjust="spacing" textLength="163" x="532" y="79.3145">+getStores() : List&lt;Store&gt;</text><text fill="#000000" font-family="sans-serif" font-size="14" lengthAdjust="spacing" textLength="422" x="532" y="94.9551">+createStore(ID, designation, emailAddress, phoneNumber) : Store</text><text fill="#000000" font-family="sans-serif" font-size="14" lengthAdjust="spacing" textLength="479" x="532" y="110.5957">+createStore(ID, designation, location, emailAddress, phoneNumber) : Store</text><text fill="#000000" font-family="sans-serif" font-size="14" lengthAdjust="spacing" textLength="242" x="532" y="126.2363">+registerStore(store) : void or boolean</text><text fill="#000000" font-family="sans-serif" font-size="14" lengthAdjust="spacing" textLength="294" x="532" y="141.877">+registerLocationAtStore(store, location) : void</text><text fill="#000000" font-family="sans-serif" font-size="14" lengthAdjust="spacing" textLength="473" x="532" y="157.5176">-createStoreLocation(streetAddress, city, district, state, zipCode) : Location</text><text fill="#000000" font-family="sans-serif" font-size="14" lengthAdjust="spacing" textLength="247" x="532" y="173.1582">-getSystemAdministratorFromSession()</text></g><!--class RegisterStoreUI--><g id="elem_RegisterStoreUI"><rect codeLine="93" fill="#F1F1F1" height="48" id="RegisterStoreUI" rx="2.5" ry="2.5" style="stroke:#181818;stroke-width:0.5;" width="131" x="360" y="69.5"/><ellipse cx="375" cy="85.5" fill="#ADD1B2" rx="11" ry="11" style="stroke:#181818;stroke-width:1.0;"/><path d="M377,82 Q377.2031,81.5 377.4375,81.25 Q377.6719,81 377.9375,81 Q378.4063,81 378.7031,81.2813 Q379,81.5625 379,82.2188 L379,83.7813 Q379,84.4375 378.7188,84.7188 Q378.4375,85 378,85 Q377.6094,85 377.3594,84.8281 Q377.1094,84.6563 377,84.2031 Q376.9531,83.8906 376.7813,83.7188 Q376.4688,83.3906 375.9063,83.2031 Q375.3438,83 374.7813,83 Q374.0781,83 373.4844,83.2813 Q372.9063,83.5625 372.4531,84.1875 Q372,84.8125 372,85.6719 L372,86.5938 Q372,87.625 372.8438,88.3125 Q373.6875,89 375.1875,89 Q376.0781,89 376.7031,88.7969 Q377.0625,88.6875 377.4688,88.3281 Q377.7344,88.125 377.875,88.0625 Q378.0156,88 378.1875,88 Q378.5156,88 378.75,88.2656 Q379,88.5156 379,88.875 Q379,89.2188 378.6563,89.625 Q378.1563,90.2188 377.3594,90.5469 Q376.3125,91 375.0313,91 Q373.5313,91 372.3281,90.4063 Q371.3594,89.9375 370.6719,88.9219 Q370,87.9063 370,86.7031 L370,85.6094 Q370,84.3594 370.5938,83.2656 Q371.2031,82.1719 372.25,81.5938 Q373.3125,81 374.5,81 Q375.2188,81 375.8438,81.25 Q376.4688,81.5 377,82 Z " fill="#000000"/><text fill="#000000" font-family="sans-serif" font-size="14" lengthAdjust="spacing" textLength="99" x="389" y="90.3535">RegisterStoreUI</text><line style="stroke:#181818;stroke-width:0.5;" x1="361" x2="490" y1="101.5" y2="101.5"/><line style="stroke:#181818;stroke-width:0.5;" x1="361" x2="490" y1="109.5" y2="109.5"/></g><!--class OrganizationRepository--><g id="elem_OrganizationRepository"><rect fill="#F1F1F1" height="48" id="OrganizationRepository" rx="2.5" ry="2.5" style="stroke:#181818;stroke-width:0.5;" width="180" x="995.5" y="567.5"/><ellipse cx="1010.5" cy="583.5" fill="#ADD1B2" rx="11" ry="11" style="stroke:#181818;stroke-width:1.0;"/><path d="M1012.5,580 Q1012.7031,579.5 1012.9375,579.25 Q1013.1719,579 1013.4375,579 Q1013.9063,579 1014.2031,579.2813 Q1014.5,579.5625 1014.5,580.2188 L1014.5,581.7813 Q1014.5,582.4375 1014.2188,582.7188 Q1013.9375,583 1013.5,583 Q1013.1094,583 1012.8594,582.8281 Q1012.6094,582.6563 1012.5,582.2031 Q1012.4531,581.8906 1012.2813,581.7188 Q1011.9688,581.3906 1011.4063,581.2031 Q1010.8438,581 1010.2813,581 Q1009.5781,581 1008.9844,581.2813 Q1008.4063,581.5625 1007.9531,582.1875 Q1007.5,582.8125 1007.5,583.6719 L1007.5,584.5938 Q1007.5,585.625 1008.3438,586.3125 Q1009.1875,587 1010.6875,587 Q1011.5781,587 1012.2031,586.7969 Q1012.5625,586.6875 1012.9688,586.3281 Q1013.2344,586.125 1013.375,586.0625 Q1013.5156,586 1013.6875,586 Q1014.0156,586 1014.25,586.2656 Q1014.5,586.5156 1014.5,586.875 Q1014.5,587.2188 1014.1563,587.625 Q1013.6563,588.2188 1012.8594,588.5469 Q1011.8125,589 1010.5313,589 Q1009.0313,589 1007.8281,588.4063 Q1006.8594,587.9375 1006.1719,586.9219 Q1005.5,585.9063 1005.5,584.7031 L1005.5,583.6094 Q1005.5,582.3594 1006.0938,581.2656 Q1006.7031,580.1719 1007.75,579.5938 Q1008.8125,579 1010,579 Q1010.7188,579 1011.3438,579.25 Q1011.9688,579.5 1012.5,580 Z " fill="#000000"/><text fill="#000000" font-family="sans-serif" font-size="14" lengthAdjust="spacing" textLength="148" x="1024.5" y="588.3535">OrganizationRepository</text><line style="stroke:#181818;stroke-width:0.5;" x1="996.5" x2="1174.5" y1="599.5" y2="599.5"/><line style="stroke:#181818;stroke-width:0.5;" x1="996.5" x2="1174.5" y1="607.5" y2="607.5"/></g><!--link Repositories to Repositories--><g id="link_Repositories_Repositories"><path codeLine="96" d="M413.78,320.07 C433.98,322.43 448.5,329.91 448.5,342.5 C448.5,354.01 436.37,361.25 418.86,364.21 " fill="none" id="Repositories-to-Repositories" style="stroke:#181818;stroke-width:1.0;"/><polygon fill="#181818" points="413.78,364.93,423.2596,367.6017,418.7286,364.2149,422.1154,359.6839,413.78,364.93" style="stroke:#181818;stroke-width:1.0;"/><text fill="#000000" font-family="sans-serif" font-size="13" lengthAdjust="spacing" textLength="49" x="454.5" y="347.2686">instance</text></g><!--link RegisterStoreUI to RegisterStoreController--><g id="link_RegisterStoreUI_RegisterStoreController"><path codeLine="99" d="M491.25,93.5 C501.77,93.5 511.93,93.5 520.28,93.5 " fill="none" id="RegisterStoreUI-to-RegisterStoreController" style="stroke:#181818;stroke-width:1.0;stroke-dasharray:7.0,7.0;"/><polygon fill="#181818" points="525.76,93.5,516.76,89.5,520.76,93.5,516.76,97.5,525.76,93.5" style="stroke:#181818;stroke-width:1.0;"/></g><!--link RegisterStoreController to Repositories--><g id="link_RegisterStoreController_Repositories"><path codeLine="101" d="M613.96,180.02 C549.02,215.28 475.65,255.1 418.03,286.38 " fill="none" id="RegisterStoreController-to-Repositories" style="stroke:#181818;stroke-width:1.0;stroke-dasharray:7.0,7.0;"/><polygon fill="#181818" points="413.56,288.81,423.3774,288.0231,417.9522,286.4208,419.5546,280.9956,413.56,288.81" style="stroke:#181818;stroke-width:1.0;"/><text fill="#000000" font-family="sans-serif" font-size="13" lengthAdjust="spacing" textLength="67" x="559.5" y="222.7686">repositories</text></g><!--link Repositories to StoreRepository--><g id="link_Repositories_StoreRepository"><path codeLine="103" d="M413.84,342.5 C443.38,342.5 468.17,342.5 468.17,342.5 C468.17,342.5 492.74,342.5 522.1,342.5 " fill="none" id="Repositories-to-StoreRepository" style="stroke:#181818;stroke-width:1.0;"/><polygon fill="#181818" points="527.24,342.5,518.24,338.5,522.24,342.5,518.24,346.5,527.24,342.5" style="stroke:#181818;stroke-width:1.0;"/><text fill="#000000" font-family="sans-serif" font-size="13" lengthAdjust="spacing" textLength="7" x="512.8846" y="340.0667">1</text></g><!--link Repositories to StateRepository--><g id="link_Repositories_StateRepository"><path codeLine="104" d="M272.75,413.68 C257.67,437.87 244.5,459 244.5,459 C244.5,459 229.5,505 229.5,505 C229.5,505 161.05,838.27 137.98,950.57 " fill="none" id="Repositories-to-StateRepository" style="stroke:#181818;stroke-width:1.0;"/><polygon fill="#181818" points="136.92,955.75,142.6389,947.7316,137.9198,950.851,134.8004,946.1319,136.92,955.75" style="stroke:#181818;stroke-width:1.0;"/><text fill="#000000" font-family="sans-serif" font-size="13" lengthAdjust="spacing" textLength="7" x="130.5588" y="945.0292">1</text></g><!--link Repositories to DistrictRepository--><g id="link_Repositories_DistrictRepository"><path codeLine="105" d="M413.58,387.42 C519.3,435.24 673.5,505 673.5,505 C673.5,505 695.63,838.27 703.08,950.57 " fill="none" id="Repositories-to-DistrictRepository" style="stroke:#181818;stroke-width:1.0;"/><polygon fill="#181818" points="703.43,955.75,706.8295,946.5064,703.1012,950.7608,698.8468,947.0325,703.43,955.75" style="stroke:#181818;stroke-width:1.0;"/><text fill="#000000" font-family="sans-serif" font-size="13" lengthAdjust="spacing" textLength="7" x="695.2116" y="945.0292">1</text></g><!--link Repositories to CityRepository--><g id="link_Repositories_CityRepository"><path codeLine="106" d="M282.08,413.87 C260.79,457.39 237.5,505 237.5,505 C237.5,505 237.5,678 237.5,678 C237.5,678 242.5,926 242.5,926 C242.5,926 281.28,939.75 322.01,954.2 " fill="none" id="Repositories-to-CityRepository" style="stroke:#181818;stroke-width:1.0;"/><polygon fill="#181818" points="326.99,955.96,319.844,949.1825,322.2774,954.2892,317.1707,956.7226,326.99,955.96" style="stroke:#181818;stroke-width:1.0;"/><text fill="#000000" font-family="sans-serif" font-size="13" lengthAdjust="spacing" textLength="7" x="300.0816" y="945.2851">1</text></g><!--link RegisterStoreController to Store--><g id="link_RegisterStoreController_Store"><path codeLine="108" d="M525.76,174.39 C514.92,177.91 508.5,180 508.5,180 C508.5,180 201.5,256 201.5,256 C201.5,256 201.5,429 201.5,429 C201.5,429 257.19,464.41 316.42,502.07 " fill="none" id="RegisterStoreController-to-Store" style="stroke:#181818;stroke-width:1.0;stroke-dasharray:7.0,7.0;"/><polygon fill="#181818" points="320.69,504.78,315.2499,496.5699,316.4735,502.0928,310.9505,503.3164,320.69,504.78" style="stroke:#181818;stroke-width:1.0;"/></g><!--link RegisterStoreController to OrganizationRepository--><g id="link_RegisterStoreController_OrganizationRepository"><path codeLine="109" d="M910.02,180.22 C972.49,218.87 1032.5,256 1032.5,256 C1032.5,256 1068.21,481.38 1081.01,562.14 " fill="none" id="RegisterStoreController-to-OrganizationRepository" style="stroke:#181818;stroke-width:1.0;stroke-dasharray:7.0,7.0;"/><polygon fill="#181818" points="1081.82,567.24,1084.3575,557.7236,1081.0351,562.302,1076.4567,558.9796,1081.82,567.24" style="stroke:#181818;stroke-width:1.0;"/><text fill="#000000" font-family="sans-serif" font-size="13" lengthAdjust="spacing" textLength="132" x="1061.5" y="347.2686">organizationRepository</text></g><!--link RegisterStoreController to StoreRepository--><g id="link_RegisterStoreController_StoreRepository"><path codeLine="110" d="M771.5,180.2 C771.5,202.99 771.5,227.7 771.5,250.75 " fill="none" id="RegisterStoreController-to-StoreRepository" style="stroke:#181818;stroke-width:1.0;stroke-dasharray:7.0,7.0;"/><polygon fill="#181818" points="771.5,255.96,775.5,246.96,771.5,250.96,767.5,246.96,771.5,255.96" style="stroke:#181818;stroke-width:1.0;"/><text fill="#000000" font-family="sans-serif" font-size="13" lengthAdjust="spacing" textLength="93" x="772.5" y="222.7686">StoreRepository</text></g><!--link Repositories to OrganizationRepository--><g id="link_Repositories_OrganizationRepository"><path codeLine="112" d="M413.57,386.5 C461.63,407.79 509.5,429 509.5,429 C509.5,429 728.5,459 728.5,459 C728.5,459 914.57,527.54 1018.04,565.65 " fill="none" id="Repositories-to-OrganizationRepository" style="stroke:#181818;stroke-width:1.0;"/><polygon fill="#181818" points="1022.91,567.44,1015.8439,560.5793,1018.2173,565.7141,1013.0825,568.0876,1022.91,567.44" style="stroke:#181818;stroke-width:1.0;"/><text fill="#000000" font-family="sans-serif" font-size="13" lengthAdjust="spacing" textLength="7" x="998.1483" y="556.9315">1</text></g><!--link OrganizationRepository to Organization--><g id="link_OrganizationRepository_Organization"><path codeLine="114" d="M1095.21,615.58 C1109.9,650.51 1138.17,717.72 1157.9,764.63 " fill="none" id="OrganizationRepository-to-Organization" style="stroke:#181818;stroke-width:1.0;"/><polygon fill="#181818" points="1159.9,769.39,1160.1091,759.5434,1157.9668,764.7789,1152.7313,762.6365,1159.9,769.39" style="stroke:#181818;stroke-width:1.0;"/><text fill="#000000" font-family="sans-serif" font-size="13" lengthAdjust="spacing" textLength="5" x="1151.5159" y="758.8425">*</text></g><!--link RegisterStoreController to Organization--><g id="link_RegisterStoreController_Organization"><path codeLine="116" d="M999.94,180.1 C1103.21,218.79 1202.5,256 1202.5,256 C1202.5,256 1202.5,429 1202.5,429 C1202.5,429 1193.5,678 1193.5,678 C1193.5,678 1188.74,724.94 1184.77,764.06 " fill="none" id="RegisterStoreController-to-Organization" style="stroke:#181818;stroke-width:1.0;stroke-dasharray:7.0,7.0;"/><polygon fill="#181818" points="1184.24,769.28,1189.1181,760.7241,1184.7389,764.305,1181.158,759.9258,1184.24,769.28" style="stroke:#181818;stroke-width:1.0;"/><text fill="#000000" font-family="sans-serif" font-size="13" lengthAdjust="spacing" textLength="70" x="1201.5" y="471.7686">organization</text><text fill="#000000" font-family="sans-serif" font-size="13" lengthAdjust="spacing" textLength="7" x="1177.4299" y="758.7156">1</text></g><!--link StoreRepository to Store--><g id="link_StoreRepository_Store"><path codeLine="118" d="M661.87,429.2 C631.84,452.66 599.24,478.15 569,501.78 " fill="none" id="StoreRepository-to-Store" style="stroke:#181818;stroke-width:1.0;"/><polygon fill="#181818" points="564.94,504.96,574.4928,502.5632,568.8775,501.8785,569.5623,496.2632,564.94,504.96" style="stroke:#181818;stroke-width:1.0;"/><text fill="#000000" font-family="sans-serif" font-size="13" lengthAdjust="spacing" textLength="29" x="624.5" y="471.7686">store</text><text fill="#000000" font-family="sans-serif" font-size="13" lengthAdjust="spacing" textLength="7" x="645.1479" y="449.038">1</text><text fill="#000000" font-family="sans-serif" font-size="13" lengthAdjust="spacing" textLength="5" x="569.7985" y="494.1237">*</text></g><!--link StateRepository to State--><g id="link_StateRepository_State"><path codeLine="119" d="M130.5,1020.31 C130.5,1041.22 130.5,1068.79 130.5,1090.66 " fill="none" id="StateRepository-to-State" style="stroke:#181818;stroke-width:1.0;"/><polygon fill="#181818" points="130.5,1095.81,134.5,1086.81,130.5,1090.81,126.5,1086.81,130.5,1095.81" style="stroke:#181818;stroke-width:1.0;"/><text fill="#000000" font-family="sans-serif" font-size="13" lengthAdjust="spacing" textLength="29" x="131.5" y="1062.7686">state</text><text fill="#000000" font-family="sans-serif" font-size="13" lengthAdjust="spacing" textLength="7" x="122.8547" y="1039.4077">1</text><text fill="#000000" font-family="sans-serif" font-size="13" lengthAdjust="spacing" textLength="5" x="124.9531" y="1085.1023">*</text></g><!--link DistrictRepository to District--><g id="link_DistrictRepository_District"><path codeLine="120" d="M705.5,1020.31 C705.5,1041.22 705.5,1068.79 705.5,1090.66 " fill="none" id="DistrictRepository-to-District" style="stroke:#181818;stroke-width:1.0;"/><polygon fill="#181818" points="705.5,1095.81,709.5,1086.81,705.5,1090.81,701.5,1086.81,705.5,1095.81" style="stroke:#181818;stroke-width:1.0;"/><text fill="#000000" font-family="sans-serif" font-size="13" lengthAdjust="spacing" textLength="39" x="706.5" y="1062.7686">district</text><text fill="#000000" font-family="sans-serif" font-size="13" lengthAdjust="spacing" textLength="7" x="697.8547" y="1039.4077">1</text><text fill="#000000" font-family="sans-serif" font-size="13" lengthAdjust="spacing" textLength="5" x="699.9531" y="1085.1023">*</text></g><!--link CityRepository to City--><g id="link_CityRepository_City"><path codeLine="121" d="M414.5,1020.31 C414.5,1041.22 414.5,1068.79 414.5,1090.66 " fill="none" id="CityRepository-to-City" style="stroke:#181818;stroke-width:1.0;"/><polygon fill="#181818" points="414.5,1095.81,418.5,1086.81,414.5,1090.81,410.5,1086.81,414.5,1095.81" style="stroke:#181818;stroke-width:1.0;"/><text fill="#000000" font-family="sans-serif" font-size="13" lengthAdjust="spacing" textLength="21" x="415.5" y="1062.7686">city</text><text fill="#000000" font-family="sans-serif" font-size="13" lengthAdjust="spacing" textLength="7" x="406.8547" y="1039.4077">1</text><text fill="#000000" font-family="sans-serif" font-size="13" lengthAdjust="spacing" textLength="5" x="408.9531" y="1085.1023">*</text></g><!--link Store to Location--><g id="link_Store_Location"><path codeLine="123" d="M450.89,678.27 C449.65,701.52 448.31,726.36 447.13,748.45 " fill="none" id="Store-to-Location" style="stroke:#181818;stroke-width:1.0;"/><polygon fill="#181818" points="446.84,753.71,451.3233,744.9408,447.1118,748.7174,443.3352,744.5059,446.84,753.71" style="stroke:#181818;stroke-width:1.0;"/><text fill="#000000" font-family="sans-serif" font-size="13" lengthAdjust="spacing" textLength="45" x="450.5" y="720.7686">location</text></g><!--link Location to StateRepository--><g id="link_Location_StateRepository"><path codeLine="124" d="M370.12,857.62 C316.18,886.74 243.69,925.88 192.62,953.46 " fill="none" id="Location-to-StateRepository" style="stroke:#181818;stroke-width:1.0;"/><polygon fill="#181818" points="188.05,955.93,197.8704,955.1812,192.4514,953.5578,194.0748,948.1389,188.05,955.93" style="stroke:#181818;stroke-width:1.0;"/><text fill="#000000" font-family="sans-serif" font-size="13" lengthAdjust="spacing" textLength="58" x="269.5" y="922.7686">state from</text></g><!--link Location to DistrictRepository--><g id="link_Location_DistrictRepository"><path codeLine="125" d="M516.83,865.3 C560.21,893.28 614.13,928.06 653.21,953.27 " fill="none" id="Location-to-DistrictRepository" style="stroke:#181818;stroke-width:1.0;"/><polygon fill="#181818" points="657.42,955.99,652.0195,947.7538,653.2164,953.2826,647.6877,954.4796,657.42,955.99" style="stroke:#181818;stroke-width:1.0;"/><text fill="#000000" font-family="sans-serif" font-size="13" lengthAdjust="spacing" textLength="68" x="607.5" y="922.7686">district from</text></g><!--link Location to CityRepository--><g id="link_Location_CityRepository"><path codeLine="126" d="M432.78,880.45 C428.74,904.03 424.27,930.07 420.76,950.5 " fill="none" id="Location-to-CityRepository" style="stroke:#181818;stroke-width:1.0;"/><polygon fill="#181818" points="419.89,955.57,425.3499,947.3731,420.7328,950.6415,417.4643,946.0245,419.89,955.57" style="stroke:#181818;stroke-width:1.0;"/><text fill="#000000" font-family="sans-serif" font-size="13" lengthAdjust="spacing" textLength="50" x="428.5" y="922.7686">city from</text></g><!--SRC=[hLRTRjiW5BxdAT1kugnkjTr6KwKqwQH8LJijsmDG-yH1iI42sisjzkxZnzY0dNIJcel8SBxpdNzW9W-K7OaW3MuuuyLUy0Qm4a-01icH50TImLQrDM01XIAigaE0t9EI_wAimZjIor1IKmQgFG8-yher2pIR47AXE0gqYff8kLHAqCSd1Pk2iorz0Vm9eLaDEuKLnu9MUuLBQjoXd25aTV0TBuXPurU4zUzogpcqMr890BKiIm5IEicAgXON-iyjrrHZQ64etOVN9mgqklwF25_eSSLBG7-yOKCNssIa2UIU_np66ZiFu09yQBY3RDRnkWH9AsQpq0dwfDJTHwm03Q5rb1ilEUuvW_kdvX44if8BvqAsMUUXdTmJvn5P7XBCpnAyhIT1-JWoRsu-fEP1L8JHbwZuE4oYsodsK1msE-l4xMzT4vb9ypt72_p8UGs4TVP2mimmpD5Cxqlo33-8F6HA_ysJqdo78vTKVxMz2tVQnXShlCRMaazn1SfkoypO3c29_ARTh7Mw3CYkH-9lGwwoC6yd5MvDgZERy1GaeDAEW715cioCpg40tQV_NSV4r5cMV-cddY-Udw46hrqbRUHQSjFUwp9cTfZDbsCmapsQqaaIB-nu_47XgRmuFXD6BM6fZAIZCKUGfp3RWtglIa7s_HHkPlE1SSDqNAm0sqqXA4n2rAAXTfAvK3HEoPlI88AWdLQSAS7h6aIVYHFoZ0UpDp3Far2c9-VYNVhpuXtxq_6T6ArdJajz_oM7ZmVx4s-f0hN1l2SOZrH_L4OtNsullBo_ut9ti-N-EhFvZEy8a-nMkz8iouOoeqSq_rVzJDXgGcFXLBr_RdITjIXguylhkAqNc7QDYmmoLh-wFjKX2JPehQkH0H4EmyYR3vy_f6Vt2Kmq8PEOyJ1Cmk9ZuKmeEXRNGUSG3vEpekEU7gAthKKaQMgIWBg8fdr0w8HlLkrZh7O-3QcH93mqSoyZG-fzCfVqIjUiSe6eO8dIE0tUE-MO5kwoHadP4wHv6owwr-6u-16uVrykXXTcSZ-4SFiwNRZtgNFNYlgNt69uo_Lx1f3wstc7TtfWO-I4luDh4_Z4MUURm_q5]--></g></svg>