<?xml version="1.0" encoding="us-ascii" standalone="no"?><svg xmlns="http://www.w3.org/2000/svg" xmlns:xlink="http://www.w3.org/1999/xlink" contentStyleType="text/css" height="1212.8px" preserveAspectRatio="none" style="width:1261px;height:1212px;background:#FFFFFF;" version="1.1" viewBox="0 0 1261 1212" width="1261.6px" zoomAndPan="magnify"><defs/><g><!--class CreateRequestUI--><g id="elem_CreateRequestUI"><rect codeLine="4" fill="#F1F1F1" height="38.4" id="CreateRequestUI" rx="2" ry="2" style="stroke:#181818;stroke-width:0.4000000000000001;" width="112" x="823.6" y="5.6"/><ellipse cx="835.6" cy="18.4" fill="#ADD1B2" rx="8.8" ry="8.8" style="stroke:#181818;stroke-width:0.8000000000000002;"/><path d="M837.8125,15.1 Q837.9375,14.925 838.0875,14.8375 Q838.2375,14.75 838.4125,14.75 Q838.7125,14.75 838.9,14.9625 Q839.0875,15.1625 839.0875,15.65 L839.0875,16.8125 Q839.0875,17.3 838.9,17.5125 Q838.7125,17.725 838.4125,17.725 Q838.1375,17.725 837.975,17.5625 Q837.8125,17.4125 837.725,17 Q837.6875,16.7125 837.5375,16.5625 Q837.275,16.2625 836.7875,16.0875 Q836.3,15.9125 835.8,15.9125 Q835.1875,15.9125 834.675,16.175 Q834.175,16.4375 833.775,17.0375 Q833.3875,17.6375 833.3875,18.4625 L833.3875,19.3375 Q833.3875,20.325 834.1,20.9875 Q834.8125,21.6375 836.0875,21.6375 Q836.8375,21.6375 837.3625,21.4375 Q837.675,21.3125 838.0125,20.9625 Q838.225,20.75 838.3375,20.6875 Q838.4625,20.625 838.625,20.625 Q838.8875,20.625 839.0875,20.8375 Q839.3,21.0375 839.3,21.3125 Q839.3,21.5875 839.025,21.9125 Q838.625,22.375 837.9875,22.6375 Q837.125,23 836.0875,23 Q834.875,23 833.9125,22.5 Q833.125,22.1 832.575,21.25 Q832.025,20.3875 832.025,19.3625 L832.025,18.4375 Q832.025,17.375 832.5125,16.4625 Q833.0125,15.5375 833.8875,15.05 Q834.7625,14.55 835.75,14.55 Q836.3375,14.55 836.85,14.6875 Q837.375,14.8125 837.8125,15.1 Z " fill="#000000"/><text fill="#000000" font-family="sans-serif" font-size="11.2" lengthAdjust="spacing" textLength="86.4" x="846.8" y="22.2828">CreateRequestUI</text><line style="stroke:#181818;stroke-width:0.4000000000000001;" x1="824.4" x2="934.8" y1="31.2" y2="31.2"/><line style="stroke:#181818;stroke-width:0.4000000000000001;" x1="824.4" x2="934.8" y1="37.6" y2="37.6"/></g><!--class CreateRequestController--><g id="elem_CreateRequestController"><rect codeLine="7" fill="#F1F1F1" height="50.9125" id="CreateRequestController" rx="2" ry="2" style="stroke:#181818;stroke-width:0.4000000000000001;" width="492.8" x="633.2" y="140.8"/><ellipse cx="813" cy="153.6" fill="#ADD1B2" rx="8.8" ry="8.8" style="stroke:#181818;stroke-width:0.8000000000000002;"/><path d="M815.2125,150.3 Q815.3375,150.125 815.4875,150.0375 Q815.6375,149.95 815.8125,149.95 Q816.1125,149.95 816.3,150.1625 Q816.4875,150.3625 816.4875,150.85 L816.4875,152.0125 Q816.4875,152.5 816.3,152.7125 Q816.1125,152.925 815.8125,152.925 Q815.5375,152.925 815.375,152.7625 Q815.2125,152.6125 815.125,152.2 Q815.0875,151.9125 814.9375,151.7625 Q814.675,151.4625 814.1875,151.2875 Q813.7,151.1125 813.2,151.1125 Q812.5875,151.1125 812.075,151.375 Q811.575,151.6375 811.175,152.2375 Q810.7875,152.8375 810.7875,153.6625 L810.7875,154.5375 Q810.7875,155.525 811.5,156.1875 Q812.2125,156.8375 813.4875,156.8375 Q814.2375,156.8375 814.7625,156.6375 Q815.075,156.5125 815.4125,156.1625 Q815.625,155.95 815.7375,155.8875 Q815.8625,155.825 816.025,155.825 Q816.2875,155.825 816.4875,156.0375 Q816.7,156.2375 816.7,156.5125 Q816.7,156.7875 816.425,157.1125 Q816.025,157.575 815.3875,157.8375 Q814.525,158.2 813.4875,158.2 Q812.275,158.2 811.3125,157.7 Q810.525,157.3 809.975,156.45 Q809.425,155.5875 809.425,154.5625 L809.425,153.6375 Q809.425,152.575 809.9125,151.6625 Q810.4125,150.7375 811.2875,150.25 Q812.1625,149.75 813.15,149.75 Q813.7375,149.75 814.25,149.8875 Q814.775,150.0125 815.2125,150.3 Z " fill="#000000"/><text fill="#000000" font-family="sans-serif" font-size="11.2" lengthAdjust="spacing" textLength="126.4" x="829.4" y="157.4828">CreateRequestController</text><line style="stroke:#181818;stroke-width:0.4000000000000001;" x1="634" x2="1125.2" y1="166.4" y2="166.4"/><line style="stroke:#181818;stroke-width:0.4000000000000001;" x1="634" x2="1125.2" y1="172.8" y2="172.8"/><text fill="#000000" font-family="sans-serif" font-size="11.2" lengthAdjust="spacing" textLength="483.2" x="638" y="186.1391">+createRequestController(requestTypeRepository, propertyTypeRepository, agencyRepository)</text></g><!--class Repositories--><g id="elem_Repositories"><rect codeLine="11" fill="#F1F1F1" height="100.9625" id="Repositories" rx="2" ry="2" style="stroke:#181818;stroke-width:0.4000000000000001;" width="163.2" x="798" y="288.8"/><ellipse cx="844.6" cy="301.6" fill="#ADD1B2" rx="8.8" ry="8.8" style="stroke:#181818;stroke-width:0.8000000000000002;"/><path d="M846.8125,298.3 Q846.9375,298.125 847.0875,298.0375 Q847.2375,297.95 847.4125,297.95 Q847.7125,297.95 847.9,298.1625 Q848.0875,298.3625 848.0875,298.85 L848.0875,300.0125 Q848.0875,300.5 847.9,300.7125 Q847.7125,300.925 847.4125,300.925 Q847.1375,300.925 846.975,300.7625 Q846.8125,300.6125 846.725,300.2 Q846.6875,299.9125 846.5375,299.7625 Q846.275,299.4625 845.7875,299.2875 Q845.3,299.1125 844.8,299.1125 Q844.1875,299.1125 843.675,299.375 Q843.175,299.6375 842.775,300.2375 Q842.3875,300.8375 842.3875,301.6625 L842.3875,302.5375 Q842.3875,303.525 843.1,304.1875 Q843.8125,304.8375 845.0875,304.8375 Q845.8375,304.8375 846.3625,304.6375 Q846.675,304.5125 847.0125,304.1625 Q847.225,303.95 847.3375,303.8875 Q847.4625,303.825 847.625,303.825 Q847.8875,303.825 848.0875,304.0375 Q848.3,304.2375 848.3,304.5125 Q848.3,304.7875 848.025,305.1125 Q847.625,305.575 846.9875,305.8375 Q846.125,306.2 845.0875,306.2 Q843.875,306.2 842.9125,305.7 Q842.125,305.3 841.575,304.45 Q841.025,303.5875 841.025,302.5625 L841.025,301.6375 Q841.025,300.575 841.5125,299.6625 Q842.0125,298.7375 842.8875,298.25 Q843.7625,297.75 844.75,297.75 Q845.3375,297.75 845.85,297.8875 Q846.375,298.0125 846.8125,298.3 Z " fill="#000000"/><text fill="#000000" font-family="sans-serif" font-size="11.2" lengthAdjust="spacing" textLength="63.2" x="861" y="305.4828">Repositories</text><line style="stroke:#181818;stroke-width:0.4000000000000001;" x1="798.8" x2="960.4" y1="314.4" y2="314.4"/><text fill="#000000" font-family="sans-serif" font-size="11.2" lengthAdjust="spacing" textLength="67.2" x="802.8" y="327.7391">-Repositories</text><line style="stroke:#181818;stroke-width:0.4000000000000001;" x1="798.8" x2="960.4" y1="333.3125" y2="333.3125"/><text fill="#000000" font-family="sans-serif" font-size="11.2" lengthAdjust="spacing" textLength="139.2" x="802.8" y="346.6516">+getInstance():Repositories</text><text fill="#000000" font-family="sans-serif" font-size="11.2" lengthAdjust="spacing" textLength="152.8" x="802.8" y="359.1641">+getRequestTypeRepository()</text><text fill="#000000" font-family="sans-serif" font-size="11.2" lengthAdjust="spacing" textLength="153.6" x="802.8" y="371.6766">+getPropertyTypeRepository()</text><text fill="#000000" font-family="sans-serif" font-size="11.2" lengthAdjust="spacing" textLength="122.4" x="802.8" y="384.1891">+getAgencyRepository()</text></g><!--class PropertyTypeRepository--><g id="elem_PropertyTypeRepository"><rect codeLine="19" fill="#F1F1F1" height="63.425" id="PropertyTypeRepository" rx="2" ry="2" style="stroke:#181818;stroke-width:0.4000000000000001;" width="168.8" x="704.8" y="437.6"/><ellipse cx="725.8" cy="450.4" fill="#ADD1B2" rx="8.8" ry="8.8" style="stroke:#181818;stroke-width:0.8000000000000002;"/><path d="M728.0125,447.1 Q728.1375,446.925 728.2875,446.8375 Q728.4375,446.75 728.6125,446.75 Q728.9125,446.75 729.1,446.9625 Q729.2875,447.1625 729.2875,447.65 L729.2875,448.8125 Q729.2875,449.3 729.1,449.5125 Q728.9125,449.725 728.6125,449.725 Q728.3375,449.725 728.175,449.5625 Q728.0125,449.4125 727.925,449 Q727.8875,448.7125 727.7375,448.5625 Q727.475,448.2625 726.9875,448.0875 Q726.5,447.9125 726,447.9125 Q725.3875,447.9125 724.875,448.175 Q724.375,448.4375 723.975,449.0375 Q723.5875,449.6375 723.5875,450.4625 L723.5875,451.3375 Q723.5875,452.325 724.3,452.9875 Q725.0125,453.6375 726.2875,453.6375 Q727.0375,453.6375 727.5625,453.4375 Q727.875,453.3125 728.2125,452.9625 Q728.425,452.75 728.5375,452.6875 Q728.6625,452.625 728.825,452.625 Q729.0875,452.625 729.2875,452.8375 Q729.5,453.0375 729.5,453.3125 Q729.5,453.5875 729.225,453.9125 Q728.825,454.375 728.1875,454.6375 Q727.325,455 726.2875,455 Q725.075,455 724.1125,454.5 Q723.325,454.1 722.775,453.25 Q722.225,452.3875 722.225,451.3625 L722.225,450.4375 Q722.225,449.375 722.7125,448.4625 Q723.2125,447.5375 724.0875,447.05 Q724.9625,446.55 725.95,446.55 Q726.5375,446.55 727.05,446.6875 Q727.575,446.8125 728.0125,447.1 Z " fill="#000000"/><text fill="#000000" font-family="sans-serif" font-size="11.2" lengthAdjust="spacing" textLength="123.2" x="739" y="454.2828">PropertyTypeRepository</text><line style="stroke:#181818;stroke-width:0.4000000000000001;" x1="705.6" x2="872.8" y1="463.2" y2="463.2"/><text fill="#000000" font-family="sans-serif" font-size="11.2" lengthAdjust="spacing" textLength="159.2" x="709.6" y="476.5391">-propertyTypeList: List &lt;String&gt;</text><line style="stroke:#181818;stroke-width:0.4000000000000001;" x1="705.6" x2="872.8" y1="482.1125" y2="482.1125"/><text fill="#000000" font-family="sans-serif" font-size="11.2" lengthAdjust="spacing" textLength="99.2" x="709.6" y="495.4516">+getPropertyType()</text></g><!--class AgencyTypeRepository--><g id="elem_AgencyTypeRepository"><rect codeLine="24" fill="#F1F1F1" height="63.425" id="AgencyTypeRepository" rx="2" ry="2" style="stroke:#181818;stroke-width:0.4000000000000001;" width="143.2" x="901.6" y="437.6"/><ellipse cx="913.6" cy="450.4" fill="#ADD1B2" rx="8.8" ry="8.8" style="stroke:#181818;stroke-width:0.8000000000000002;"/><path d="M915.8125,447.1 Q915.9375,446.925 916.0875,446.8375 Q916.2375,446.75 916.4125,446.75 Q916.7125,446.75 916.9,446.9625 Q917.0875,447.1625 917.0875,447.65 L917.0875,448.8125 Q917.0875,449.3 916.9,449.5125 Q916.7125,449.725 916.4125,449.725 Q916.1375,449.725 915.975,449.5625 Q915.8125,449.4125 915.725,449 Q915.6875,448.7125 915.5375,448.5625 Q915.275,448.2625 914.7875,448.0875 Q914.3,447.9125 913.8,447.9125 Q913.1875,447.9125 912.675,448.175 Q912.175,448.4375 911.775,449.0375 Q911.3875,449.6375 911.3875,450.4625 L911.3875,451.3375 Q911.3875,452.325 912.1,452.9875 Q912.8125,453.6375 914.0875,453.6375 Q914.8375,453.6375 915.3625,453.4375 Q915.675,453.3125 916.0125,452.9625 Q916.225,452.75 916.3375,452.6875 Q916.4625,452.625 916.625,452.625 Q916.8875,452.625 917.0875,452.8375 Q917.3,453.0375 917.3,453.3125 Q917.3,453.5875 917.025,453.9125 Q916.625,454.375 915.9875,454.6375 Q915.125,455 914.0875,455 Q912.875,455 911.9125,454.5 Q911.125,454.1 910.575,453.25 Q910.025,452.3875 910.025,451.3625 L910.025,450.4375 Q910.025,449.375 910.5125,448.4625 Q911.0125,447.5375 911.8875,447.05 Q912.7625,446.55 913.75,446.55 Q914.3375,446.55 914.85,446.6875 Q915.375,446.8125 915.8125,447.1 Z " fill="#000000"/><text fill="#000000" font-family="sans-serif" font-size="11.2" lengthAdjust="spacing" textLength="117.6" x="924.8" y="454.2828">AgencyTypeRepository</text><line style="stroke:#181818;stroke-width:0.4000000000000001;" x1="902.4" x2="1044" y1="463.2" y2="463.2"/><text fill="#000000" font-family="sans-serif" font-size="11.2" lengthAdjust="spacing" textLength="132.8" x="906.4" y="476.5391">-agencyList: List&lt;Agency&gt;</text><line style="stroke:#181818;stroke-width:0.4000000000000001;" x1="902.4" x2="1044" y1="482.1125" y2="482.1125"/><text fill="#000000" font-family="sans-serif" font-size="11.2" lengthAdjust="spacing" textLength="85.6" x="906.4" y="495.4516">+getAgencyList()</text></g><!--class Agency--><g id="elem_Agency"><rect codeLine="29" fill="#F1F1F1" height="113.475" id="Agency" rx="2" ry="2" style="stroke:#181818;stroke-width:0.4000000000000001;" width="167.2" x="734.4" y="548.8"/><ellipse cx="795.8" cy="561.6" fill="#ADD1B2" rx="8.8" ry="8.8" style="stroke:#181818;stroke-width:0.8000000000000002;"/><path d="M798.0125,558.3 Q798.1375,558.125 798.2875,558.0375 Q798.4375,557.95 798.6125,557.95 Q798.9125,557.95 799.1,558.1625 Q799.2875,558.3625 799.2875,558.85 L799.2875,560.0125 Q799.2875,560.5 799.1,560.7125 Q798.9125,560.925 798.6125,560.925 Q798.3375,560.925 798.175,560.7625 Q798.0125,560.6125 797.925,560.2 Q797.8875,559.9125 797.7375,559.7625 Q797.475,559.4625 796.9875,559.2875 Q796.5,559.1125 796,559.1125 Q795.3875,559.1125 794.875,559.375 Q794.375,559.6375 793.975,560.2375 Q793.5875,560.8375 793.5875,561.6625 L793.5875,562.5375 Q793.5875,563.525 794.3,564.1875 Q795.0125,564.8375 796.2875,564.8375 Q797.0375,564.8375 797.5625,564.6375 Q797.875,564.5125 798.2125,564.1625 Q798.425,563.95 798.5375,563.8875 Q798.6625,563.825 798.825,563.825 Q799.0875,563.825 799.2875,564.0375 Q799.5,564.2375 799.5,564.5125 Q799.5,564.7875 799.225,565.1125 Q798.825,565.575 798.1875,565.8375 Q797.325,566.2 796.2875,566.2 Q795.075,566.2 794.1125,565.7 Q793.325,565.3 792.775,564.45 Q792.225,563.5875 792.225,562.5625 L792.225,561.6375 Q792.225,560.575 792.7125,559.6625 Q793.2125,558.7375 794.0875,558.25 Q794.9625,557.75 795.95,557.75 Q796.5375,557.75 797.05,557.8875 Q797.575,558.0125 798.0125,558.3 Z " fill="#000000"/><text fill="#000000" font-family="sans-serif" font-size="11.2" lengthAdjust="spacing" textLength="37.6" x="812.2" y="565.4828">Agency</text><line style="stroke:#181818;stroke-width:0.4000000000000001;" x1="735.2" x2="900.8" y1="574.4" y2="574.4"/><text fill="#000000" font-family="sans-serif" font-size="11.2" lengthAdjust="spacing" textLength="79.2" x="739.2" y="587.7391">-location: String</text><text fill="#000000" font-family="sans-serif" font-size="11.2" lengthAdjust="spacing" textLength="98.4" x="739.2" y="600.2516">-designation: String</text><text fill="#000000" font-family="sans-serif" font-size="11.2" lengthAdjust="spacing" textLength="139.2" x="739.2" y="612.7641">-requestList: List&lt;Request&gt;</text><text fill="#000000" font-family="sans-serif" font-size="11.2" lengthAdjust="spacing" textLength="156.8" x="739.2" y="625.2766">-employeeList: List&lt;Employee&gt;</text><line style="stroke:#181818;stroke-width:0.4000000000000001;" x1="735.2" x2="900.8" y1="630.85" y2="630.85"/><text fill="#000000" font-family="sans-serif" font-size="11.2" lengthAdjust="spacing" textLength="152.8" x="739.2" y="644.1891">+createRequest(requestType)</text><text fill="#000000" font-family="sans-serif" font-size="11.2" lengthAdjust="spacing" textLength="157.6" x="739.2" y="656.7016">+getAgentList(selectedAgency)</text></g><!--class RequestTypeRepository--><g id="elem_RequestTypeRepository"><rect codeLine="38" fill="#F1F1F1" height="63.425" id="RequestTypeRepository" rx="2" ry="2" style="stroke:#181818;stroke-width:0.4000000000000001;" width="161.6" x="1073.2" y="437.6"/><ellipse cx="1091.32" cy="450.4" fill="#ADD1B2" rx="8.8" ry="8.8" style="stroke:#181818;stroke-width:0.8000000000000002;"/><path d="M1093.5325,447.1 Q1093.6575,446.925 1093.8075,446.8375 Q1093.9575,446.75 1094.1325,446.75 Q1094.4325,446.75 1094.62,446.9625 Q1094.8075,447.1625 1094.8075,447.65 L1094.8075,448.8125 Q1094.8075,449.3 1094.62,449.5125 Q1094.4325,449.725 1094.1325,449.725 Q1093.8575,449.725 1093.695,449.5625 Q1093.5325,449.4125 1093.445,449 Q1093.4075,448.7125 1093.2575,448.5625 Q1092.995,448.2625 1092.5075,448.0875 Q1092.02,447.9125 1091.52,447.9125 Q1090.9075,447.9125 1090.395,448.175 Q1089.895,448.4375 1089.495,449.0375 Q1089.1075,449.6375 1089.1075,450.4625 L1089.1075,451.3375 Q1089.1075,452.325 1089.82,452.9875 Q1090.5325,453.6375 1091.8075,453.6375 Q1092.5575,453.6375 1093.0825,453.4375 Q1093.395,453.3125 1093.7325,452.9625 Q1093.945,452.75 1094.0575,452.6875 Q1094.1825,452.625 1094.345,452.625 Q1094.6075,452.625 1094.8075,452.8375 Q1095.02,453.0375 1095.02,453.3125 Q1095.02,453.5875 1094.745,453.9125 Q1094.345,454.375 1093.7075,454.6375 Q1092.845,455 1091.8075,455 Q1090.595,455 1089.6325,454.5 Q1088.845,454.1 1088.295,453.25 Q1087.745,452.3875 1087.745,451.3625 L1087.745,450.4375 Q1087.745,449.375 1088.2325,448.4625 Q1088.7325,447.5375 1089.6075,447.05 Q1090.4825,446.55 1091.47,446.55 Q1092.0575,446.55 1092.57,446.6875 Q1093.095,446.8125 1093.5325,447.1 Z " fill="#000000"/><text fill="#000000" font-family="sans-serif" font-size="11.2" lengthAdjust="spacing" textLength="122.4" x="1103.88" y="454.2828">RequestTypeRepository</text><line style="stroke:#181818;stroke-width:0.4000000000000001;" x1="1074" x2="1234" y1="463.2" y2="463.2"/><text fill="#000000" font-family="sans-serif" font-size="11.2" lengthAdjust="spacing" textLength="152" x="1078" y="476.5391">-requestTypeList: List&lt;String&gt;</text><line style="stroke:#181818;stroke-width:0.4000000000000001;" x1="1074" x2="1234" y1="482.1125" y2="482.1125"/><text fill="#000000" font-family="sans-serif" font-size="11.2" lengthAdjust="spacing" textLength="98.4" x="1078" y="495.4516">+getRequestType()</text></g><!--class Request--><g id="elem_Request"><rect codeLine="43" fill="#F1F1F1" height="138.5" id="Request" rx="2" ry="2" style="stroke:#181818;stroke-width:0.4000000000000001;" width="560" x="215.6" y="710.4"/><ellipse cx="471" cy="723.2" fill="#ADD1B2" rx="8.8" ry="8.8" style="stroke:#181818;stroke-width:0.8000000000000002;"/><path d="M473.2125,719.9 Q473.3375,719.725 473.4875,719.6375 Q473.6375,719.55 473.8125,719.55 Q474.1125,719.55 474.3,719.7625 Q474.4875,719.9625 474.4875,720.45 L474.4875,721.6125 Q474.4875,722.1 474.3,722.3125 Q474.1125,722.525 473.8125,722.525 Q473.5375,722.525 473.375,722.3625 Q473.2125,722.2125 473.125,721.8 Q473.0875,721.5125 472.9375,721.3625 Q472.675,721.0625 472.1875,720.8875 Q471.7,720.7125 471.2,720.7125 Q470.5875,720.7125 470.075,720.975 Q469.575,721.2375 469.175,721.8375 Q468.7875,722.4375 468.7875,723.2625 L468.7875,724.1375 Q468.7875,725.125 469.5,725.7875 Q470.2125,726.4375 471.4875,726.4375 Q472.2375,726.4375 472.7625,726.2375 Q473.075,726.1125 473.4125,725.7625 Q473.625,725.55 473.7375,725.4875 Q473.8625,725.425 474.025,725.425 Q474.2875,725.425 474.4875,725.6375 Q474.7,725.8375 474.7,726.1125 Q474.7,726.3875 474.425,726.7125 Q474.025,727.175 473.3875,727.4375 Q472.525,727.8 471.4875,727.8 Q470.275,727.8 469.3125,727.3 Q468.525,726.9 467.975,726.05 Q467.425,725.1875 467.425,724.1625 L467.425,723.2375 Q467.425,722.175 467.9125,721.2625 Q468.4125,720.3375 469.2875,719.85 Q470.1625,719.35 471.15,719.35 Q471.7375,719.35 472.25,719.4875 Q472.775,719.6125 473.2125,719.9 Z " fill="#000000"/><text fill="#000000" font-family="sans-serif" font-size="11.2" lengthAdjust="spacing" textLength="42.4" x="487.4" y="727.0828">Request</text><line style="stroke:#181818;stroke-width:0.4000000000000001;" x1="216.4" x2="774.8" y1="736" y2="736"/><text fill="#000000" font-family="sans-serif" font-size="11.2" lengthAdjust="spacing" textLength="116.8" x="220.4" y="749.3391">-requestState: Boolean</text><text fill="#000000" font-family="sans-serif" font-size="11.2" lengthAdjust="spacing" textLength="62.4" x="220.4" y="761.8516">-date: String</text><text fill="#000000" font-family="sans-serif" font-size="11.2" lengthAdjust="spacing" textLength="111.2" x="220.4" y="774.3641">-requestOwner: String</text><line style="stroke:#181818;stroke-width:0.4000000000000001;" x1="216.4" x2="774.8" y1="779.9375" y2="779.9375"/><text fill="#000000" font-family="sans-serif" font-size="11.2" lengthAdjust="spacing" textLength="166.4" x="220.4" y="793.2766">+setPropertyType(propertyType)</text><text fill="#000000" font-family="sans-serif" font-size="11.2" lengthAdjust="spacing" textLength="420.8" x="220.4" y="805.7891">+createProperty(area, location, distanceFromTheCityCentre, price, photographList)</text><text fill="#000000" font-family="sans-serif" font-size="11.2" lengthAdjust="spacing" textLength="119.2" x="220.4" y="818.3016">+addProperty(property)</text><text fill="#000000" font-family="sans-serif" font-size="11.2" lengthAdjust="spacing" textLength="550.4" x="220.4" y="830.8141">+createResidence(numberOfBedrooms, numberOfBathrooms, numberOfParkingSpaces, availableEquipment)</text><text fill="#000000" font-family="sans-serif" font-size="11.2" lengthAdjust="spacing" textLength="280.8" x="220.4" y="843.3266">+createHouse(basement, inhabitableLoft, sunExposure)</text></g><!--class Property--><g id="elem_Property"><rect codeLine="54" fill="#F1F1F1" height="100.9625" id="Property" rx="2" ry="2" style="stroke:#181818;stroke-width:0.4000000000000001;" width="198.4" x="191.6" y="896.8"/><ellipse cx="265.8" cy="909.6" fill="#ADD1B2" rx="8.8" ry="8.8" style="stroke:#181818;stroke-width:0.8000000000000002;"/><path d="M268.0125,906.3 Q268.1375,906.125 268.2875,906.0375 Q268.4375,905.95 268.6125,905.95 Q268.9125,905.95 269.1,906.1625 Q269.2875,906.3625 269.2875,906.85 L269.2875,908.0125 Q269.2875,908.5 269.1,908.7125 Q268.9125,908.925 268.6125,908.925 Q268.3375,908.925 268.175,908.7625 Q268.0125,908.6125 267.925,908.2 Q267.8875,907.9125 267.7375,907.7625 Q267.475,907.4625 266.9875,907.2875 Q266.5,907.1125 266,907.1125 Q265.3875,907.1125 264.875,907.375 Q264.375,907.6375 263.975,908.2375 Q263.5875,908.8375 263.5875,909.6625 L263.5875,910.5375 Q263.5875,911.525 264.3,912.1875 Q265.0125,912.8375 266.2875,912.8375 Q267.0375,912.8375 267.5625,912.6375 Q267.875,912.5125 268.2125,912.1625 Q268.425,911.95 268.5375,911.8875 Q268.6625,911.825 268.825,911.825 Q269.0875,911.825 269.2875,912.0375 Q269.5,912.2375 269.5,912.5125 Q269.5,912.7875 269.225,913.1125 Q268.825,913.575 268.1875,913.8375 Q267.325,914.2 266.2875,914.2 Q265.075,914.2 264.1125,913.7 Q263.325,913.3 262.775,912.45 Q262.225,911.5875 262.225,910.5625 L262.225,909.6375 Q262.225,908.575 262.7125,907.6625 Q263.2125,906.7375 264.0875,906.25 Q264.9625,905.75 265.95,905.75 Q266.5375,905.75 267.05,905.8875 Q267.575,906.0125 268.0125,906.3 Z " fill="#000000"/><text fill="#000000" font-family="sans-serif" font-size="11.2" lengthAdjust="spacing" textLength="43.2" x="282.2" y="913.4828">Property</text><line style="stroke:#181818;stroke-width:0.4000000000000001;" x1="192.4" x2="389.2" y1="922.4" y2="922.4"/><text fill="#000000" font-family="sans-serif" font-size="11.2" lengthAdjust="spacing" textLength="65.6" x="196.4" y="935.7391">-area:Integer</text><text fill="#000000" font-family="sans-serif" font-size="11.2" lengthAdjust="spacing" textLength="79.2" x="196.4" y="948.2516">-location: String</text><text fill="#000000" font-family="sans-serif" font-size="11.2" lengthAdjust="spacing" textLength="188.8" x="196.4" y="960.7641">-distanceFromTheCityCentre: Double</text><text fill="#000000" font-family="sans-serif" font-size="11.2" lengthAdjust="spacing" textLength="70.4" x="196.4" y="973.2766">-price: Integer</text><text fill="#000000" font-family="sans-serif" font-size="11.2" lengthAdjust="spacing" textLength="128.8" x="196.4" y="985.7891">-photograph: List&lt;String&gt;</text><line style="stroke:#181818;stroke-width:0.4000000000000001;" x1="192.4" x2="389.2" y1="991.3625" y2="991.3625"/></g><!--class Owner--><g id="elem_Owner"><rect codeLine="62" fill="#F1F1F1" height="63.425" id="Owner" rx="2" ry="2" style="stroke:#181818;stroke-width:0.4000000000000001;" width="163.2" x="612.4" y="915.6"/><ellipse cx="674.2" cy="928.4" fill="#ADD1B2" rx="8.8" ry="8.8" style="stroke:#181818;stroke-width:0.8000000000000002;"/><path d="M676.4125,925.1 Q676.5375,924.925 676.6875,924.8375 Q676.8375,924.75 677.0125,924.75 Q677.3125,924.75 677.5,924.9625 Q677.6875,925.1625 677.6875,925.65 L677.6875,926.8125 Q677.6875,927.3 677.5,927.5125 Q677.3125,927.725 677.0125,927.725 Q676.7375,927.725 676.575,927.5625 Q676.4125,927.4125 676.325,927 Q676.2875,926.7125 676.1375,926.5625 Q675.875,926.2625 675.3875,926.0875 Q674.9,925.9125 674.4,925.9125 Q673.7875,925.9125 673.275,926.175 Q672.775,926.4375 672.375,927.0375 Q671.9875,927.6375 671.9875,928.4625 L671.9875,929.3375 Q671.9875,930.325 672.7,930.9875 Q673.4125,931.6375 674.6875,931.6375 Q675.4375,931.6375 675.9625,931.4375 Q676.275,931.3125 676.6125,930.9625 Q676.825,930.75 676.9375,930.6875 Q677.0625,930.625 677.225,930.625 Q677.4875,930.625 677.6875,930.8375 Q677.9,931.0375 677.9,931.3125 Q677.9,931.5875 677.625,931.9125 Q677.225,932.375 676.5875,932.6375 Q675.725,933 674.6875,933 Q673.475,933 672.5125,932.5 Q671.725,932.1 671.175,931.25 Q670.625,930.3875 670.625,929.3625 L670.625,928.4375 Q670.625,927.375 671.1125,926.4625 Q671.6125,925.5375 672.4875,925.05 Q673.3625,924.55 674.35,924.55 Q674.9375,924.55 675.45,924.6875 Q675.975,924.8125 676.4125,925.1 Z " fill="#000000"/><text fill="#000000" font-family="sans-serif" font-size="11.2" lengthAdjust="spacing" textLength="32.8" x="690.6" y="932.2828">Owner</text><line style="stroke:#181818;stroke-width:0.4000000000000001;" x1="613.2" x2="774.8" y1="941.2" y2="941.2"/><text fill="#000000" font-family="sans-serif" font-size="11.2" lengthAdjust="spacing" textLength="68" x="617.2" y="954.5391">-name: String</text><text fill="#000000" font-family="sans-serif" font-size="11.2" lengthAdjust="spacing" textLength="153.6" x="617.2" y="967.0516">-passportCardNumber: Integer</text><line style="stroke:#181818;stroke-width:0.4000000000000001;" x1="613.2" x2="774.8" y1="972.625" y2="972.625"/></g><!--class Residence--><g id="elem_Residence"><rect codeLine="67" fill="#F1F1F1" height="88.45" id="Residence" rx="2" ry="2" style="stroke:#181818;stroke-width:0.4000000000000001;" width="181.6" x="5.6" y="735.2"/><ellipse cx="66.2" cy="748" fill="#ADD1B2" rx="8.8" ry="8.8" style="stroke:#181818;stroke-width:0.8000000000000002;"/><path d="M68.4125,744.7 Q68.5375,744.525 68.6875,744.4375 Q68.8375,744.35 69.0125,744.35 Q69.3125,744.35 69.5,744.5625 Q69.6875,744.7625 69.6875,745.25 L69.6875,746.4125 Q69.6875,746.9 69.5,747.1125 Q69.3125,747.325 69.0125,747.325 Q68.7375,747.325 68.575,747.1625 Q68.4125,747.0125 68.325,746.6 Q68.2875,746.3125 68.1375,746.1625 Q67.875,745.8625 67.3875,745.6875 Q66.9,745.5125 66.4,745.5125 Q65.7875,745.5125 65.275,745.775 Q64.775,746.0375 64.375,746.6375 Q63.9875,747.2375 63.9875,748.0625 L63.9875,748.9375 Q63.9875,749.925 64.7,750.5875 Q65.4125,751.2375 66.6875,751.2375 Q67.4375,751.2375 67.9625,751.0375 Q68.275,750.9125 68.6125,750.5625 Q68.825,750.35 68.9375,750.2875 Q69.0625,750.225 69.225,750.225 Q69.4875,750.225 69.6875,750.4375 Q69.9,750.6375 69.9,750.9125 Q69.9,751.1875 69.625,751.5125 Q69.225,751.975 68.5875,752.2375 Q67.725,752.6 66.6875,752.6 Q65.475,752.6 64.5125,752.1 Q63.725,751.7 63.175,750.85 Q62.625,749.9875 62.625,748.9625 L62.625,748.0375 Q62.625,746.975 63.1125,746.0625 Q63.6125,745.1375 64.4875,744.65 Q65.3625,744.15 66.35,744.15 Q66.9375,744.15 67.45,744.2875 Q67.975,744.4125 68.4125,744.7 Z " fill="#000000"/><text fill="#000000" font-family="sans-serif" font-size="11.2" lengthAdjust="spacing" textLength="53.6" x="82.6" y="751.8828">Residence</text><line style="stroke:#181818;stroke-width:0.4000000000000001;" x1="6.4" x2="186.4" y1="760.8" y2="760.8"/><text fill="#000000" font-family="sans-serif" font-size="11.2" lengthAdjust="spacing" textLength="147.2" x="10.4" y="774.1391">-numberOfBedrooms: Integer</text><text fill="#000000" font-family="sans-serif" font-size="11.2" lengthAdjust="spacing" textLength="150.4" x="10.4" y="786.6516">-numberOfBathrooms: Integer</text><text fill="#000000" font-family="sans-serif" font-size="11.2" lengthAdjust="spacing" textLength="172" x="10.4" y="799.1641">-numberOfParkingSpaces: Integer</text><text fill="#000000" font-family="sans-serif" font-size="11.2" lengthAdjust="spacing" textLength="138.4" x="10.4" y="811.6766">-availableEquipment: String</text><line style="stroke:#181818;stroke-width:0.4000000000000001;" x1="6.4" x2="186.4" y1="817.25" y2="817.25"/></g><!--class House--><g id="elem_House"><rect codeLine="74" fill="#F1F1F1" height="75.9375" id="House" rx="2" ry="2" style="stroke:#181818;stroke-width:0.4000000000000001;" width="135.2" x="28.8" y="567.6"/><ellipse cx="77" cy="580.4" fill="#ADD1B2" rx="8.8" ry="8.8" style="stroke:#181818;stroke-width:0.8000000000000002;"/><path d="M79.2125,577.1 Q79.3375,576.925 79.4875,576.8375 Q79.6375,576.75 79.8125,576.75 Q80.1125,576.75 80.3,576.9625 Q80.4875,577.1625 80.4875,577.65 L80.4875,578.8125 Q80.4875,579.3 80.3,579.5125 Q80.1125,579.725 79.8125,579.725 Q79.5375,579.725 79.375,579.5625 Q79.2125,579.4125 79.125,579 Q79.0875,578.7125 78.9375,578.5625 Q78.675,578.2625 78.1875,578.0875 Q77.7,577.9125 77.2,577.9125 Q76.5875,577.9125 76.075,578.175 Q75.575,578.4375 75.175,579.0375 Q74.7875,579.6375 74.7875,580.4625 L74.7875,581.3375 Q74.7875,582.325 75.5,582.9875 Q76.2125,583.6375 77.4875,583.6375 Q78.2375,583.6375 78.7625,583.4375 Q79.075,583.3125 79.4125,582.9625 Q79.625,582.75 79.7375,582.6875 Q79.8625,582.625 80.025,582.625 Q80.2875,582.625 80.4875,582.8375 Q80.7,583.0375 80.7,583.3125 Q80.7,583.5875 80.425,583.9125 Q80.025,584.375 79.3875,584.6375 Q78.525,585 77.4875,585 Q76.275,585 75.3125,584.5 Q74.525,584.1 73.975,583.25 Q73.425,582.3875 73.425,581.3625 L73.425,580.4375 Q73.425,579.375 73.9125,578.4625 Q74.4125,577.5375 75.2875,577.05 Q76.1625,576.55 77.15,576.55 Q77.7375,576.55 78.25,576.6875 Q78.775,576.8125 79.2125,577.1 Z " fill="#000000"/><text fill="#000000" font-family="sans-serif" font-size="11.2" lengthAdjust="spacing" textLength="32" x="93.4" y="584.2828">House</text><line style="stroke:#181818;stroke-width:0.4000000000000001;" x1="29.6" x2="163.2" y1="593.2" y2="593.2"/><text fill="#000000" font-family="sans-serif" font-size="11.2" lengthAdjust="spacing" textLength="100.8" x="33.6" y="606.5391">-basement: boolean</text><text fill="#000000" font-family="sans-serif" font-size="11.2" lengthAdjust="spacing" textLength="125.6" x="33.6" y="619.0516">-inhabitableLoft: boolean</text><text fill="#000000" font-family="sans-serif" font-size="11.2" lengthAdjust="spacing" textLength="105.6" x="33.6" y="631.5641">-sunExposure: String</text><line style="stroke:#181818;stroke-width:0.4000000000000001;" x1="29.6" x2="163.2" y1="637.1375" y2="637.1375"/></g><!--class Contacts--><g id="elem_Contacts"><rect codeLine="80" fill="#F1F1F1" height="63.425" id="Contacts" rx="2" ry="2" style="stroke:#181818;stroke-width:0.4000000000000001;" width="126.4" x="754.8" y="1045.6"/><ellipse cx="792.2" cy="1058.4" fill="#ADD1B2" rx="8.8" ry="8.8" style="stroke:#181818;stroke-width:0.8000000000000002;"/><path d="M794.4125,1055.1 Q794.5375,1054.925 794.6875,1054.8375 Q794.8375,1054.75 795.0125,1054.75 Q795.3125,1054.75 795.5,1054.9625 Q795.6875,1055.1625 795.6875,1055.65 L795.6875,1056.8125 Q795.6875,1057.3 795.5,1057.5125 Q795.3125,1057.725 795.0125,1057.725 Q794.7375,1057.725 794.575,1057.5625 Q794.4125,1057.4125 794.325,1057 Q794.2875,1056.7125 794.1375,1056.5625 Q793.875,1056.2625 793.3875,1056.0875 Q792.9,1055.9125 792.4,1055.9125 Q791.7875,1055.9125 791.275,1056.175 Q790.775,1056.4375 790.375,1057.0375 Q789.9875,1057.6375 789.9875,1058.4625 L789.9875,1059.3375 Q789.9875,1060.325 790.7,1060.9875 Q791.4125,1061.6375 792.6875,1061.6375 Q793.4375,1061.6375 793.9625,1061.4375 Q794.275,1061.3125 794.6125,1060.9625 Q794.825,1060.75 794.9375,1060.6875 Q795.0625,1060.625 795.225,1060.625 Q795.4875,1060.625 795.6875,1060.8375 Q795.9,1061.0375 795.9,1061.3125 Q795.9,1061.5875 795.625,1061.9125 Q795.225,1062.375 794.5875,1062.6375 Q793.725,1063 792.6875,1063 Q791.475,1063 790.5125,1062.5 Q789.725,1062.1 789.175,1061.25 Q788.625,1060.3875 788.625,1059.3625 L788.625,1058.4375 Q788.625,1057.375 789.1125,1056.4625 Q789.6125,1055.5375 790.4875,1055.05 Q791.3625,1054.55 792.35,1054.55 Q792.9375,1054.55 793.45,1054.6875 Q793.975,1054.8125 794.4125,1055.1 Z " fill="#000000"/><text fill="#000000" font-family="sans-serif" font-size="11.2" lengthAdjust="spacing" textLength="44.8" x="808.6" y="1062.2828">Contacts</text><line style="stroke:#181818;stroke-width:0.4000000000000001;" x1="755.6" x2="880.4" y1="1071.2" y2="1071.2"/><text fill="#000000" font-family="sans-serif" font-size="11.2" lengthAdjust="spacing" textLength="116.8" x="759.6" y="1084.5391">-phoneNumber: Integer</text><text fill="#000000" font-family="sans-serif" font-size="11.2" lengthAdjust="spacing" textLength="108" x="759.6" y="1097.0516">-emailAddress: String</text><line style="stroke:#181818;stroke-width:0.4000000000000001;" x1="755.6" x2="880.4" y1="1102.625" y2="1102.625"/></g><!--class Employee--><g id="elem_Employee"><rect codeLine="85" fill="#F1F1F1" height="63.425" id="Employee" rx="2" ry="2" style="stroke:#181818;stroke-width:0.4000000000000001;" width="163.2" x="860.4" y="915.6"/><ellipse cx="913.8" cy="928.4" fill="#ADD1B2" rx="8.8" ry="8.8" style="stroke:#181818;stroke-width:0.8000000000000002;"/><path d="M916.0125,925.1 Q916.1375,924.925 916.2875,924.8375 Q916.4375,924.75 916.6125,924.75 Q916.9125,924.75 917.1,924.9625 Q917.2875,925.1625 917.2875,925.65 L917.2875,926.8125 Q917.2875,927.3 917.1,927.5125 Q916.9125,927.725 916.6125,927.725 Q916.3375,927.725 916.175,927.5625 Q916.0125,927.4125 915.925,927 Q915.8875,926.7125 915.7375,926.5625 Q915.475,926.2625 914.9875,926.0875 Q914.5,925.9125 914,925.9125 Q913.3875,925.9125 912.875,926.175 Q912.375,926.4375 911.975,927.0375 Q911.5875,927.6375 911.5875,928.4625 L911.5875,929.3375 Q911.5875,930.325 912.3,930.9875 Q913.0125,931.6375 914.2875,931.6375 Q915.0375,931.6375 915.5625,931.4375 Q915.875,931.3125 916.2125,930.9625 Q916.425,930.75 916.5375,930.6875 Q916.6625,930.625 916.825,930.625 Q917.0875,930.625 917.2875,930.8375 Q917.5,931.0375 917.5,931.3125 Q917.5,931.5875 917.225,931.9125 Q916.825,932.375 916.1875,932.6375 Q915.325,933 914.2875,933 Q913.075,933 912.1125,932.5 Q911.325,932.1 910.775,931.25 Q910.225,930.3875 910.225,929.3625 L910.225,928.4375 Q910.225,927.375 910.7125,926.4625 Q911.2125,925.5375 912.0875,925.05 Q912.9625,924.55 913.95,924.55 Q914.5375,924.55 915.05,924.6875 Q915.575,924.8125 916.0125,925.1 Z " fill="#000000"/><text fill="#000000" font-family="sans-serif" font-size="11.2" lengthAdjust="spacing" textLength="49.6" x="930.2" y="932.2828">Employee</text><line style="stroke:#181818;stroke-width:0.4000000000000001;" x1="861.2" x2="1022.8" y1="941.2" y2="941.2"/><text fill="#000000" font-family="sans-serif" font-size="11.2" lengthAdjust="spacing" textLength="68" x="865.2" y="954.5391">-name: String</text><text fill="#000000" font-family="sans-serif" font-size="11.2" lengthAdjust="spacing" textLength="153.6" x="865.2" y="967.0516">-passportCardNumber: Integer</text><line style="stroke:#181818;stroke-width:0.4000000000000001;" x1="861.2" x2="1022.8" y1="972.625" y2="972.625"/></g><!--class TaxNumber--><g id="elem_TaxNumber"><rect codeLine="90" fill="#F1F1F1" height="50.9125" id="TaxNumber" rx="2" ry="2" style="stroke:#181818;stroke-width:0.4000000000000001;" width="83.2" x="776.4" y="1156.8"/><ellipse cx="788.4" cy="1169.6" fill="#ADD1B2" rx="8.8" ry="8.8" style="stroke:#181818;stroke-width:0.8000000000000002;"/><path d="M790.6125,1166.3 Q790.7375,1166.125 790.8875,1166.0375 Q791.0375,1165.95 791.2125,1165.95 Q791.5125,1165.95 791.7,1166.1625 Q791.8875,1166.3625 791.8875,1166.85 L791.8875,1168.0125 Q791.8875,1168.5 791.7,1168.7125 Q791.5125,1168.925 791.2125,1168.925 Q790.9375,1168.925 790.775,1168.7625 Q790.6125,1168.6125 790.525,1168.2 Q790.4875,1167.9125 790.3375,1167.7625 Q790.075,1167.4625 789.5875,1167.2875 Q789.1,1167.1125 788.6,1167.1125 Q787.9875,1167.1125 787.475,1167.375 Q786.975,1167.6375 786.575,1168.2375 Q786.1875,1168.8375 786.1875,1169.6625 L786.1875,1170.5375 Q786.1875,1171.525 786.9,1172.1875 Q787.6125,1172.8375 788.8875,1172.8375 Q789.6375,1172.8375 790.1625,1172.6375 Q790.475,1172.5125 790.8125,1172.1625 Q791.025,1171.95 791.1375,1171.8875 Q791.2625,1171.825 791.425,1171.825 Q791.6875,1171.825 791.8875,1172.0375 Q792.1,1172.2375 792.1,1172.5125 Q792.1,1172.7875 791.825,1173.1125 Q791.425,1173.575 790.7875,1173.8375 Q789.925,1174.2 788.8875,1174.2 Q787.675,1174.2 786.7125,1173.7 Q785.925,1173.3 785.375,1172.45 Q784.825,1171.5875 784.825,1170.5625 L784.825,1169.6375 Q784.825,1168.575 785.3125,1167.6625 Q785.8125,1166.7375 786.6875,1166.25 Q787.5625,1165.75 788.55,1165.75 Q789.1375,1165.75 789.65,1165.8875 Q790.175,1166.0125 790.6125,1166.3 Z " fill="#000000"/><text fill="#000000" font-family="sans-serif" font-size="11.2" lengthAdjust="spacing" textLength="57.6" x="799.6" y="1173.4828">TaxNumber</text><line style="stroke:#181818;stroke-width:0.4000000000000001;" x1="777.2" x2="858.8" y1="1182.4" y2="1182.4"/><text fill="#000000" font-family="sans-serif" font-size="11.2" lengthAdjust="spacing" textLength="57.6" x="781.2" y="1195.7391">-taxNumber</text><line style="stroke:#181818;stroke-width:0.4000000000000001;" x1="777.2" x2="858.8" y1="1201.3125" y2="1201.3125"/></g><!--class Rent--><g id="elem_Rent"><rect codeLine="94" fill="#F1F1F1" height="50.9125" id="Rent" rx="2" ry="2" style="stroke:#181818;stroke-width:0.4000000000000001;" width="139.2" x="1117.2" y="313.6"/><ellipse cx="1171.4" cy="326.4" fill="#ADD1B2" rx="8.8" ry="8.8" style="stroke:#181818;stroke-width:0.8000000000000002;"/><path d="M1173.6125,323.1 Q1173.7375,322.925 1173.8875,322.8375 Q1174.0375,322.75 1174.2125,322.75 Q1174.5125,322.75 1174.7,322.9625 Q1174.8875,323.1625 1174.8875,323.65 L1174.8875,324.8125 Q1174.8875,325.3 1174.7,325.5125 Q1174.5125,325.725 1174.2125,325.725 Q1173.9375,325.725 1173.775,325.5625 Q1173.6125,325.4125 1173.525,325 Q1173.4875,324.7125 1173.3375,324.5625 Q1173.075,324.2625 1172.5875,324.0875 Q1172.1,323.9125 1171.6,323.9125 Q1170.9875,323.9125 1170.475,324.175 Q1169.975,324.4375 1169.575,325.0375 Q1169.1875,325.6375 1169.1875,326.4625 L1169.1875,327.3375 Q1169.1875,328.325 1169.9,328.9875 Q1170.6125,329.6375 1171.8875,329.6375 Q1172.6375,329.6375 1173.1625,329.4375 Q1173.475,329.3125 1173.8125,328.9625 Q1174.025,328.75 1174.1375,328.6875 Q1174.2625,328.625 1174.425,328.625 Q1174.6875,328.625 1174.8875,328.8375 Q1175.1,329.0375 1175.1,329.3125 Q1175.1,329.5875 1174.825,329.9125 Q1174.425,330.375 1173.7875,330.6375 Q1172.925,331 1171.8875,331 Q1170.675,331 1169.7125,330.5 Q1168.925,330.1 1168.375,329.25 Q1167.825,328.3875 1167.825,327.3625 L1167.825,326.4375 Q1167.825,325.375 1168.3125,324.4625 Q1168.8125,323.5375 1169.6875,323.05 Q1170.5625,322.55 1171.55,322.55 Q1172.1375,322.55 1172.65,322.6875 Q1173.175,322.8125 1173.6125,323.1 Z " fill="#000000"/><text fill="#000000" font-family="sans-serif" font-size="11.2" lengthAdjust="spacing" textLength="24" x="1187.8" y="330.2828">Rent</text><line style="stroke:#181818;stroke-width:0.4000000000000001;" x1="1118" x2="1255.6" y1="339.2" y2="339.2"/><text fill="#000000" font-family="sans-serif" font-size="11.2" lengthAdjust="spacing" textLength="129.6" x="1122" y="352.5391">-contractDuration: integer</text><line style="stroke:#181818;stroke-width:0.4000000000000001;" x1="1118" x2="1255.6" y1="358.1125" y2="358.1125"/></g><!--link CreateRequestUI to CreateRequestController--><g id="link_CreateRequestUI_CreateRequestController"><path codeLine="98" d="M879.6,44.192 C879.6,44.192 879.6,136.776 879.6,136.776 " fill="none" id="CreateRequestUI-to-CreateRequestController" style="stroke:#181818;stroke-width:0.8000000000000002;stroke-dasharray:7.0,7.0;"/><polygon fill="#181818" points="879.6,140.776,882.8,133.576,879.6,136.776,876.4,133.576,879.6,140.776" style="stroke:#181818;stroke-width:0.8000000000000002;"/></g><!--link CreateRequestController to Repositories--><g id="link_CreateRequestController_Repositories"><path codeLine="100" d="M852.4,192.272 C852.4,192.272 852.4,284.792 852.4,284.792 " fill="none" id="CreateRequestController-to-Repositories" style="stroke:#181818;stroke-width:0.8000000000000002;stroke-dasharray:7.0,7.0;"/><polygon fill="#181818" points="852.4,288.792,855.6,281.592,852.4,284.792,849.2,281.592,852.4,288.792" style="stroke:#181818;stroke-width:0.8000000000000002;"/><text fill="#000000" font-family="sans-serif" font-size="10.4" lengthAdjust="spacing" textLength="53.6" x="798" y="235.9428">repositories</text></g><!--link CreateRequestController to Agency--><g id="link_CreateRequestController_Agency"><path codeLine="101" d="M669,192.12 C669,279.328 669,558.4 669,558.4 C669,558.4 730.352,558.4 730.352,558.4 " fill="none" id="CreateRequestController-to-Agency" style="stroke:#181818;stroke-width:0.8000000000000002;stroke-dasharray:7.0,7.0;"/><polygon fill="#181818" points="734.352,558.4,727.152,555.2,730.352,558.4,727.152,561.6,734.352,558.4" style="stroke:#181818;stroke-width:0.8000000000000002;"/><text fill="#000000" font-family="sans-serif" font-size="10.4" lengthAdjust="spacing" textLength="33.6" x="634.6" y="403.3508">agency</text></g><!--link CreateRequestController to RequestTypeRepository--><g id="link_CreateRequestController_RequestTypeRepository"><path codeLine="102" d="M1102.536,192.216 C1102.536,192.216 1102.536,433.4 1102.536,433.4 " fill="none" id="CreateRequestController-to-RequestTypeRepository" style="stroke:#181818;stroke-width:0.8000000000000002;stroke-dasharray:7.0,7.0;"/><polygon fill="#181818" points="1102.536,437.4,1105.736,430.2,1102.536,433.4,1099.336,430.2,1102.536,437.4" style="stroke:#181818;stroke-width:0.8000000000000002;"/><text fill="#000000" font-family="sans-serif" font-size="10.4" lengthAdjust="spacing" textLength="106.4" x="995.336" y="323.0228">requestTypeRepository</text></g><!--link CreateRequestController to AgencyTypeRepository--><g id="link_CreateRequestController_AgencyTypeRepository"><path codeLine="103" d="M1016.936,192.216 C1016.936,192.216 1016.936,433.4 1016.936,433.4 " fill="none" id="CreateRequestController-to-AgencyTypeRepository" style="stroke:#181818;stroke-width:0.8000000000000002;stroke-dasharray:7.0,7.0;"/><polygon fill="#181818" points="1016.936,437.4,1020.136,430.2,1016.936,433.4,1013.736,430.2,1016.936,437.4" style="stroke:#181818;stroke-width:0.8000000000000002;"/><text fill="#000000" font-family="sans-serif" font-size="10.4" lengthAdjust="spacing" textLength="83.2" x="1017.736" y="310.2228">agencyRepository</text></g><!--link CreateRequestController to PropertyTypeRepository--><g id="link_CreateRequestController_PropertyTypeRepository"><path codeLine="104" d="M751.4,192.216 C751.4,192.216 751.4,433.4 751.4,433.4 " fill="none" id="CreateRequestController-to-PropertyTypeRepository" style="stroke:#181818;stroke-width:0.8000000000000002;stroke-dasharray:7.0,7.0;"/><polygon fill="#181818" points="751.4,437.4,754.6,430.2,751.4,433.4,748.2,430.2,751.4,437.4" style="stroke:#181818;stroke-width:0.8000000000000002;"/><text fill="#000000" font-family="sans-serif" font-size="10.4" lengthAdjust="spacing" textLength="109.6" x="641" y="310.2228">propertyTypeRepository</text></g><!--link Agency to Request--><g id="link_Agency_Request"><path codeLine="106" d="M755,662.576 C755,662.576 755,706.352 755,706.352 " fill="none" id="Agency-to-Request" style="stroke:#181818;stroke-width:0.8000000000000002;"/><polygon fill="#181818" points="755,710.352,758.2,703.152,755,706.352,751.8,703.152,755,710.352" style="stroke:#181818;stroke-width:0.8000000000000002;"/><text fill="#000000" font-family="sans-serif" font-size="10.4" lengthAdjust="spacing" textLength="40" x="714.2" y="681.8788">requests</text></g><!--link Agency to Employee--><g id="link_Agency_Employee"><path codeLine="107" d="M881,662.776 C881,662.776 881,911.536 881,911.536 " fill="none" id="Agency-to-Employee" style="stroke:#181818;stroke-width:0.8000000000000002;"/><polygon fill="#181818" points="881,915.536,884.2,908.336,881,911.536,877.8,908.336,881,915.536" style="stroke:#181818;stroke-width:0.8000000000000002;"/><text fill="#000000" font-family="sans-serif" font-size="10.4" lengthAdjust="spacing" textLength="39.2" x="841" y="784.5668">employs</text></g><!--link AgencyTypeRepository to Agency--><g id="link_AgencyTypeRepository_Agency"><path codeLine="108" d="M901.352,469.6 C893.12,469.6 887.6,469.6 887.6,469.6 C887.6,469.6 887.6,544.712 887.6,544.712 " fill="none" id="AgencyTypeRepository-to-Agency" style="stroke:#181818;stroke-width:0.8000000000000002;"/><polygon fill="#181818" points="887.6,548.712,890.8,541.512,887.6,544.712,884.4,541.512,887.6,548.712" style="stroke:#181818;stroke-width:0.8000000000000002;"/></g><!--link Request to Property--><g id="link_Request_Property"><path codeLine="109" d="M302.8,848.976 C302.8,848.976 302.8,892.552 302.8,892.552 " fill="none" id="Request-to-Property" style="stroke:#181818;stroke-width:0.8000000000000002;"/><polygon fill="#181818" points="302.8,896.552,306,889.352,302.8,892.552,299.6,889.352,302.8,896.552" style="stroke:#181818;stroke-width:0.8000000000000002;"/><text fill="#000000" font-family="sans-serif" font-size="10.4" lengthAdjust="spacing" textLength="16.8" x="285.2" y="868.1828">has</text></g><!--link Request to Owner--><g id="link_Request_Owner"><path codeLine="110" d="M694,848.976 C694,848.976 694,911.6 694,911.6 " fill="none" id="Request-to-Owner" style="stroke:#181818;stroke-width:0.8000000000000002;"/><polygon fill="#181818" points="694,915.6,697.2,908.4,694,911.6,690.8,908.4,694,915.6" style="stroke:#181818;stroke-width:0.8000000000000002;"/><text fill="#000000" font-family="sans-serif" font-size="10.4" lengthAdjust="spacing" textLength="47.2" x="646" y="877.7028">createdBy</text></g><!--link Rent to RequestTypeRepository--><g id="link_Rent_RequestTypeRepository"><path codeLine="111" d="M1176,364.88 C1176,364.88 1176,433.592 1176,433.592 " fill="none" id="Rent-to-RequestTypeRepository" style="stroke:#181818;stroke-width:0.8000000000000002;"/><polygon fill="#181818" points="1176,437.592,1179.2,430.392,1176,433.592,1172.8,430.392,1176,437.592" style="stroke:#181818;stroke-width:0.8000000000000002;"/><polygon fill="#000000" points="1136.8,397.0494,1139.1511,389.8133,1134.4489,389.8133,1136.8,397.0494" style="stroke:#000000;stroke-width:0.8000000000000002;"/><text fill="#000000" font-family="sans-serif" font-size="10.4" lengthAdjust="spacing" textLength="31.2" x="1144" y="396.6548">can be</text></g><!--link Repositories to AgencyTypeRepository--><g id="link_Repositories_AgencyTypeRepository"><path codeLine="113" d="M921.464,389.832 C921.464,389.832 921.464,433.272 921.464,433.272 " fill="none" id="Repositories-to-AgencyTypeRepository" style="stroke:#181818;stroke-width:0.8000000000000002;"/><polygon fill="#181818" points="921.464,437.272,924.664,430.072,921.464,433.272,918.264,430.072,921.464,437.272" style="stroke:#181818;stroke-width:0.8000000000000002;"/></g><!--link Repositories to PropertyTypeRepository--><g id="link_Repositories_PropertyTypeRepository"><path codeLine="114" d="M835.8,389.832 C835.8,389.832 835.8,433.272 835.8,433.272 " fill="none" id="Repositories-to-PropertyTypeRepository" style="stroke:#181818;stroke-width:0.8000000000000002;"/><polygon fill="#181818" points="835.8,437.272,839,430.072,835.8,433.272,832.6,430.072,835.8,437.272" style="stroke:#181818;stroke-width:0.8000000000000002;"/></g><!--link Repositories to RequestTypeRepository--><g id="link_Repositories_RequestTypeRepository"><path codeLine="115" d="M961.312,377.6 C1019.664,377.6 1087.864,377.6 1087.864,377.6 C1087.864,377.6 1087.864,433.416 1087.864,433.416 " fill="none" id="Repositories-to-RequestTypeRepository" style="stroke:#181818;stroke-width:0.8000000000000002;"/><polygon fill="#181818" points="1087.864,437.416,1091.064,430.216,1087.864,433.416,1084.664,430.216,1087.864,437.416" style="stroke:#181818;stroke-width:0.8000000000000002;"/></g><!--link House to Residence--><g id="link_House_Residence"><path codeLine="117" d="M96.4,643.784 C96.4,643.784 96.4,719.048 96.4,719.048 " fill="none" id="House-to-Residence" style="stroke:#181818;stroke-width:0.8000000000000002;"/><polygon fill="none" points="102,719.048,96.4,735.048,90.8,719.048,102,719.048" style="stroke:#181818;stroke-width:0.8000000000000002;"/></g><!--link Residence to Property--><g id="link_Residence_Property"><path codeLine="119" d="M187.32,780 C197.104,780 203.6,780 203.6,780 C203.6,780 203.6,880.584 203.6,880.584 " fill="none" id="Residence-to-Property" style="stroke:#181818;stroke-width:0.8000000000000002;"/><polygon fill="none" points="209.2,880.584,203.6,896.584,198,880.584,209.2,880.584" style="stroke:#181818;stroke-width:0.8000000000000002;"/></g><!--link Agency to Contacts--><g id="link_Agency_Contacts"><path codeLine="121" d="M818,662.488 C818,662.488 818,1041.48 818,1041.48 " fill="none" id="Agency-to-Contacts" style="stroke:#181818;stroke-width:0.8000000000000002;"/><polygon fill="#181818" points="818,1045.48,821.2,1038.28,818,1041.48,814.8,1038.28,818,1045.48" style="stroke:#181818;stroke-width:0.8000000000000002;"/><polygon fill="#000000" points="793.2,849.7934,795.5511,842.5573,790.8489,842.5573,793.2,849.7934" style="stroke:#000000;stroke-width:0.8000000000000002;"/><text fill="#000000" font-family="sans-serif" font-size="10.4" lengthAdjust="spacing" textLength="16.8" x="800.4" y="849.3988">has</text></g><!--link Employee to Contacts--><g id="link_Employee_Contacts"><path codeLine="122" d="M870.8,979 C870.8,979 870.8,1041.504 870.8,1041.504 " fill="none" id="Employee-to-Contacts" style="stroke:#181818;stroke-width:0.8000000000000002;"/><polygon fill="#181818" points="870.8,1045.504,874,1038.304,870.8,1041.504,867.6,1038.304,870.8,1045.504" style="stroke:#181818;stroke-width:0.8000000000000002;"/><polygon fill="#000000" points="846,1008.0574,848.3511,1000.8213,843.6489,1000.8213,846,1008.0574" style="stroke:#000000;stroke-width:0.8000000000000002;"/><text fill="#000000" font-family="sans-serif" font-size="10.4" lengthAdjust="spacing" textLength="16.8" x="853.2" y="1007.6628">has</text></g><!--link Owner to Contacts--><g id="link_Owner_Contacts"><path codeLine="123" d="M765.2,979 C765.2,979 765.2,1041.504 765.2,1041.504 " fill="none" id="Owner-to-Contacts" style="stroke:#181818;stroke-width:0.8000000000000002;"/><polygon fill="#181818" points="765.2,1045.504,768.4,1038.304,765.2,1041.504,762,1038.304,765.2,1045.504" style="stroke:#181818;stroke-width:0.8000000000000002;"/><polygon fill="#000000" points="740.4,1008.0574,742.7511,1000.8213,738.0489,1000.8213,740.4,1008.0574" style="stroke:#000000;stroke-width:0.8000000000000002;"/><text fill="#000000" font-family="sans-serif" font-size="10.4" lengthAdjust="spacing" textLength="16.8" x="747.6" y="1007.6628">has</text></g><!--link Owner to TaxNumber--><g id="link_Owner_TaxNumber"><path codeLine="125" d="M683.6,978.92 C683.6,1043.12 683.6,1182.4 683.6,1182.4 C683.6,1182.4 772.208,1182.4 772.208,1182.4 " fill="none" id="Owner-to-TaxNumber" style="stroke:#181818;stroke-width:0.8000000000000002;"/><polygon fill="#181818" points="776.208,1182.4,769.008,1179.2,772.208,1182.4,769.008,1185.6,776.208,1182.4" style="stroke:#181818;stroke-width:0.8000000000000002;"/><polygon fill="#000000" points="660.397,1122.4447,659.6636,1114.8717,655.3524,1116.7491,660.397,1122.4447" style="stroke:#000000;stroke-width:0.8000000000000002;"/><text fill="#000000" font-family="sans-serif" font-size="10.4" lengthAdjust="spacing" textLength="16.8" x="666" y="1122.3828">has</text></g><!--link Employee to TaxNumber--><g id="link_Employee_TaxNumber"><path codeLine="126" d="M952.4,978.92 C952.4,1043.12 952.4,1182.4 952.4,1182.4 C952.4,1182.4 863.792,1182.4 863.792,1182.4 " fill="none" id="Employee-to-TaxNumber" style="stroke:#181818;stroke-width:0.8000000000000002;"/><polygon fill="#181818" points="859.792,1182.4,866.992,1185.6,863.792,1182.4,866.992,1179.2,859.792,1182.4" style="stroke:#181818;stroke-width:0.8000000000000002;"/><polygon fill="#000000" points="926.003,1122.4447,931.0476,1116.7491,926.7364,1114.8717,926.003,1122.4447" style="stroke:#000000;stroke-width:0.8000000000000002;"/><text fill="#000000" font-family="sans-serif" font-size="10.4" lengthAdjust="spacing" textLength="16.8" x="934.8" y="1122.3828">has</text></g><!--link Repositories to Repositories--><g id="link_Repositories_Repositories"><path codeLine="128" d="M906.8,288.56 C906.8,264.448 906.8,240.8 906.8,240.8 C906.8,240.8 989.064,240.8 989.064,240.8 C989.064,240.8 989.064,413.6 989.064,413.6 C989.064,413.6 941.336,413.6 941.336,413.6 C941.336,413.6 941.336,393.648 941.336,393.648 " fill="none" id="Repositories-to-Repositories" style="stroke:#181818;stroke-width:0.8000000000000002;"/><polygon fill="#181818" points="941.336,389.648,938.136,396.848,941.336,393.648,944.536,396.848,941.336,389.648" style="stroke:#181818;stroke-width:0.8000000000000002;"/><text fill="#000000" font-family="sans-serif" font-size="10.4" lengthAdjust="spacing" textLength="39.2" x="993.864" y="289.4468">instance</text></g><!--SRC=[dLRHRjiW57ttL_3egCcqPwkArAQP5gbQgwRx06BV9cWEk82tPjd-VHTZOmoac_RIrlV0kOTpkPUgRumtLD8ZAMkgr8tMakrQ3PjIy2tx2UHZfjoIcd7GfmQ8aFeWigpRGbOIg8OdU6r1wQ-RS_OxYQm4rrBKDSXpTaNAD9HB6td6B4_G2CMqaASvQQHeGEfJ6ATxuELfZCp6v2x8G9spnUGR1Un1RxZIb9UGpueOV4e9oMSMV4pA6T2RG5JkgKhlDFhy8zupfGjYVfBhBLQ4xvTnOf_Mfen9hJyZtRLTkFI5cdZCPNRNegIQ2LuGAm935IYsvs6qhvgNfxTlYI0ScrgSm3lKzReFBSERuDVVSxDZpXNKK6gehC19gHErEe-wffPE7VNsvZ6bHxBLABCWjqBKGBcneliEFNZumK6wy1LHGT7yCi_SyOSbESNFkJD-JYfcx-WdAOxF1rWnVLgX7n9CJx3I_3e8BVQIDWTpE4D9gyhn3UbcdjEALM2kFM-FEv0FBxTGII6EQavSXEf347ga4kV0VjlG4Z1ClrDMqrqDwzUMDKUKD6RuB5e5-OugCF4vOVn0TqoRrVVY1GEgvUith5Ch8T4QtRr5ecB3DUn1NhY8bumfo9reCLNNKkXGGKQUqQlWAZWHNVcC0awFVdKR11iSUoiggo-T9IElTsbwQpk2m5rVH-Hp2fmuxY-8lNT2dPIk1aR6K8Q2xDpD3GhYGrvfOb8pfscfkt6ALd88dJ3DZjfkgag2KZ71qFV_Q_0pVREO8T33Xry0thLiQHuKL7hNolxUi94gUA_8uiDYUUcf2bQFWDtbFnkam17WlIBlRhGZ3BVO0VstB8dnrgLBnFybRyGKFgFlawJVCAH9lz9PrfzsCPvbLAzyTBWV2DjNOq23L0jtb6mWN7Z2SFk1gWdKzJN6xOIgRir6hdr9qMbAoiaEo3BB9cLUNB0nNfNsALwN591bNGlZWb_BSR0OBVsV5XboJ4mU-jJwW2TmlYPHwqqISXY2hldIj34Sd3Hg5zR___K7]--></g></svg>