<?xml version="1.0" encoding="us-ascii" standalone="no"?><svg xmlns="http://www.w3.org/2000/svg" xmlns:xlink="http://www.w3.org/1999/xlink" contentStyleType="text/css" height="838.6px" preserveAspectRatio="none" style="width:1739px;height:838px;background:#FFFFFF;" version="1.1" viewBox="0 0 1739 838" width="1739.5px" zoomAndPan="magnify"><defs/><g><!--class CreateRequestUI--><g id="elem_CreateRequestUI"><rect codeLine="4" fill="#F1F1F1" height="33.6" id="CreateRequestUI" rx="1.75" ry="1.75" style="stroke:#181818;stroke-width:0.3499999999999999;" width="98" x="509.95" y="4.9"/><ellipse cx="520.45" cy="16.1" fill="#ADD1B2" rx="7.7" ry="7.7" style="stroke:#181818;stroke-width:0.6999999999999998;"/><path d="M522.3859,13.2125 Q522.4953,13.0594 522.6266,12.9828 Q522.7578,12.9062 522.9109,12.9062 Q523.1734,12.9062 523.3375,13.0922 Q523.5016,13.2672 523.5016,13.6937 L523.5016,14.7109 Q523.5016,15.1375 523.3375,15.3234 Q523.1734,15.5094 522.9109,15.5094 Q522.6703,15.5094 522.5281,15.3672 Q522.3859,15.2359 522.3094,14.875 Q522.2766,14.6234 522.1453,14.4922 Q521.9156,14.2297 521.4891,14.0766 Q521.0625,13.9234 520.625,13.9234 Q520.0891,13.9234 519.6406,14.1531 Q519.2031,14.3828 518.8531,14.9078 Q518.5141,15.4328 518.5141,16.1547 L518.5141,16.9203 Q518.5141,17.7844 519.1375,18.3641 Q519.7609,18.9328 520.8766,18.9328 Q521.5328,18.9328 521.9922,18.7578 Q522.2656,18.6484 522.5609,18.3422 Q522.7469,18.1562 522.8453,18.1016 Q522.9547,18.0469 523.0969,18.0469 Q523.3266,18.0469 523.5016,18.2328 Q523.6875,18.4078 523.6875,18.6484 Q523.6875,18.8891 523.4469,19.1734 Q523.0969,19.5781 522.5391,19.8078 Q521.7844,20.125 520.8766,20.125 Q519.8156,20.125 518.9734,19.6875 Q518.2844,19.3375 517.8031,18.5937 Q517.3219,17.8391 517.3219,16.9422 L517.3219,16.1328 Q517.3219,15.2031 517.7484,14.4047 Q518.1859,13.5953 518.9516,13.1687 Q519.7172,12.7312 520.5812,12.7312 Q521.0953,12.7312 521.5437,12.8516 Q522.0031,12.9609 522.3859,13.2125 Z " fill="#000000"/><text fill="#000000" font-family="sans-serif" font-size="9.8" lengthAdjust="spacing" textLength="75.6" x="530.25" y="19.4975">CreateRequestUI</text><line style="stroke:#181818;stroke-width:0.3499999999999999;" x1="510.65" x2="607.25" y1="27.3" y2="27.3"/><line style="stroke:#181818;stroke-width:0.3499999999999999;" x1="510.65" x2="607.25" y1="32.9" y2="32.9"/></g><!--class CreateRequestController--><g id="elem_CreateRequestController"><rect codeLine="7" fill="#F1F1F1" height="110.2391" id="CreateRequestController" rx="1.75" ry="1.75" style="stroke:#181818;stroke-width:0.3499999999999999;" width="298.2" x="409.85" y="124.6"/><ellipse cx="500.675" cy="135.8" fill="#ADD1B2" rx="7.7" ry="7.7" style="stroke:#181818;stroke-width:0.6999999999999998;"/><path d="M502.6109,132.9125 Q502.7203,132.7594 502.8516,132.6828 Q502.9828,132.6062 503.1359,132.6062 Q503.3984,132.6062 503.5625,132.7922 Q503.7266,132.9672 503.7266,133.3937 L503.7266,134.4109 Q503.7266,134.8375 503.5625,135.0234 Q503.3984,135.2094 503.1359,135.2094 Q502.8953,135.2094 502.7531,135.0672 Q502.6109,134.9359 502.5344,134.575 Q502.5016,134.3234 502.3703,134.1922 Q502.1406,133.9297 501.7141,133.7766 Q501.2875,133.6234 500.85,133.6234 Q500.3141,133.6234 499.8656,133.8531 Q499.4281,134.0828 499.0781,134.6078 Q498.7391,135.1328 498.7391,135.8547 L498.7391,136.6203 Q498.7391,137.4844 499.3625,138.0641 Q499.9859,138.6328 501.1016,138.6328 Q501.7578,138.6328 502.2172,138.4578 Q502.4906,138.3484 502.7859,138.0422 Q502.9719,137.8562 503.0703,137.8016 Q503.1797,137.7469 503.3219,137.7469 Q503.5516,137.7469 503.7266,137.9328 Q503.9125,138.1078 503.9125,138.3484 Q503.9125,138.5891 503.6719,138.8734 Q503.3219,139.2781 502.7641,139.5078 Q502.0094,139.825 501.1016,139.825 Q500.0406,139.825 499.1984,139.3875 Q498.5094,139.0375 498.0281,138.2937 Q497.5469,137.5391 497.5469,136.6422 L497.5469,135.8328 Q497.5469,134.9031 497.9734,134.1047 Q498.4109,133.2953 499.1766,132.8687 Q499.9422,132.4312 500.8062,132.4312 Q501.3203,132.4312 501.7687,132.5516 Q502.2281,132.6609 502.6109,132.9125 Z " fill="#000000"/><text fill="#000000" font-family="sans-serif" font-size="9.8" lengthAdjust="spacing" textLength="110.6" x="515.025" y="139.1975">CreateRequestController</text><line style="stroke:#181818;stroke-width:0.3499999999999999;" x1="410.55" x2="707.35" y1="147" y2="147"/><line style="stroke:#181818;stroke-width:0.3499999999999999;" x1="410.55" x2="707.35" y1="152.6" y2="152.6"/><text fill="#000000" font-family="sans-serif" font-size="9.8" lengthAdjust="spacing" textLength="289.8" x="414.05" y="164.2717">+CreateRequestController(requestRepository, agencyRepository)</text><text fill="#000000" font-family="sans-serif" font-size="9.8" lengthAdjust="spacing" textLength="109.9" x="414.05" y="175.2201">+CreatePhotograph(URI)</text><text fill="#000000" font-family="sans-serif" font-size="9.8" lengthAdjust="spacing" textLength="96.6" x="414.05" y="186.1686">+getTypeOfRequest()</text><text fill="#000000" font-family="sans-serif" font-size="9.8" lengthAdjust="spacing" textLength="59.5" x="414.05" y="197.117">+getAgency()</text><text fill="#000000" font-family="sans-serif" font-size="9.8" lengthAdjust="spacing" textLength="58.1" x="414.05" y="208.0654">+getBranch()</text><text fill="#000000" font-family="sans-serif" font-size="9.8" lengthAdjust="spacing" textLength="52.5" x="414.05" y="219.0139">+getAgent()</text><text fill="#000000" font-family="sans-serif" font-size="9.8" lengthAdjust="spacing" textLength="77.7" x="414.05" y="229.9623">+createRequest()</text></g><!--class Repositories--><g id="elem_Repositories"><rect codeLine="17" fill="#F1F1F1" height="77.3937" id="Repositories" rx="1.75" ry="1.75" style="stroke:#181818;stroke-width:0.3499999999999999;" width="119.7" x="487.2" y="429.1"/><ellipse cx="516.6" cy="440.3" fill="#ADD1B2" rx="7.7" ry="7.7" style="stroke:#181818;stroke-width:0.6999999999999998;"/><path d="M518.5359,437.4125 Q518.6453,437.2594 518.7766,437.1828 Q518.9078,437.1062 519.0609,437.1062 Q519.3234,437.1062 519.4875,437.2922 Q519.6516,437.4672 519.6516,437.8937 L519.6516,438.9109 Q519.6516,439.3375 519.4875,439.5234 Q519.3234,439.7094 519.0609,439.7094 Q518.8203,439.7094 518.6781,439.5672 Q518.5359,439.4359 518.4594,439.075 Q518.4266,438.8234 518.2953,438.6922 Q518.0656,438.4297 517.6391,438.2766 Q517.2125,438.1234 516.775,438.1234 Q516.2391,438.1234 515.7906,438.3531 Q515.3531,438.5828 515.0031,439.1078 Q514.6641,439.6328 514.6641,440.3547 L514.6641,441.1203 Q514.6641,441.9844 515.2875,442.5641 Q515.9109,443.1328 517.0266,443.1328 Q517.6828,443.1328 518.1422,442.9578 Q518.4156,442.8484 518.7109,442.5422 Q518.8969,442.3562 518.9953,442.3016 Q519.1047,442.2469 519.2469,442.2469 Q519.4766,442.2469 519.6516,442.4328 Q519.8375,442.6078 519.8375,442.8484 Q519.8375,443.0891 519.5969,443.3734 Q519.2469,443.7781 518.6891,444.0078 Q517.9344,444.325 517.0266,444.325 Q515.9656,444.325 515.1234,443.8875 Q514.4344,443.5375 513.9531,442.7937 Q513.4719,442.0391 513.4719,441.1422 L513.4719,440.3328 Q513.4719,439.4031 513.8984,438.6047 Q514.3359,437.7953 515.1016,437.3687 Q515.8672,436.9312 516.7312,436.9312 Q517.2453,436.9312 517.6937,437.0516 Q518.1531,437.1609 518.5359,437.4125 Z " fill="#000000"/><text fill="#000000" font-family="sans-serif" font-size="9.8" lengthAdjust="spacing" textLength="55.3" x="530.6" y="443.6975">Repositories</text><line style="stroke:#181818;stroke-width:0.3499999999999999;" x1="487.9" x2="606.2" y1="451.5" y2="451.5"/><line style="stroke:#181818;stroke-width:0.3499999999999999;" x1="487.9" x2="606.2" y1="457.1" y2="457.1"/><text fill="#000000" font-family="sans-serif" font-size="9.8" lengthAdjust="spacing" textLength="65.8" x="491.4" y="468.7717">-Repositories()</text><text fill="#000000" font-family="sans-serif" font-size="9.8" lengthAdjust="spacing" textLength="63.7" x="491.4" y="479.7201">+getInstance()</text><text fill="#000000" font-family="sans-serif" font-size="9.8" lengthAdjust="spacing" textLength="111.3" x="491.4" y="490.6686">+getRequestRepository()</text><text fill="#000000" font-family="sans-serif" font-size="9.8" lengthAdjust="spacing" textLength="107.1" x="491.4" y="501.617">+getAgencyRepository()</text></g><!--class RequestRepository--><g id="elem_RequestRepository"><rect codeLine="24" fill="#F1F1F1" height="55.4969" id="RequestRepository" rx="1.75" ry="1.75" style="stroke:#181818;stroke-width:0.3499999999999999;" width="110.6" x="362.95" y="571.2"/><ellipse cx="375.025" cy="582.4" fill="#ADD1B2" rx="7.7" ry="7.7" style="stroke:#181818;stroke-width:0.6999999999999998;"/><path d="M376.9609,579.5125 Q377.0703,579.3594 377.2016,579.2828 Q377.3328,579.2062 377.4859,579.2062 Q377.7484,579.2062 377.9125,579.3922 Q378.0766,579.5672 378.0766,579.9937 L378.0766,581.0109 Q378.0766,581.4375 377.9125,581.6234 Q377.7484,581.8094 377.4859,581.8094 Q377.2453,581.8094 377.1031,581.6672 Q376.9609,581.5359 376.8844,581.175 Q376.8516,580.9234 376.7203,580.7922 Q376.4906,580.5297 376.0641,580.3766 Q375.6375,580.2234 375.2,580.2234 Q374.6641,580.2234 374.2156,580.4531 Q373.7781,580.6828 373.4281,581.2078 Q373.0891,581.7328 373.0891,582.4547 L373.0891,583.2203 Q373.0891,584.0844 373.7125,584.6641 Q374.3359,585.2328 375.4516,585.2328 Q376.1078,585.2328 376.5672,585.0578 Q376.8406,584.9484 377.1359,584.6422 Q377.3219,584.4562 377.4203,584.4016 Q377.5297,584.3469 377.6719,584.3469 Q377.9016,584.3469 378.0766,584.5328 Q378.2625,584.7078 378.2625,584.9484 Q378.2625,585.1891 378.0219,585.4734 Q377.6719,585.8781 377.1141,586.1078 Q376.3594,586.425 375.4516,586.425 Q374.3906,586.425 373.5484,585.9875 Q372.8594,585.6375 372.3781,584.8937 Q371.8969,584.1391 371.8969,583.2422 L371.8969,582.4328 Q371.8969,581.5031 372.3234,580.7047 Q372.7609,579.8953 373.5266,579.4687 Q374.2922,579.0312 375.1562,579.0312 Q375.6703,579.0312 376.1187,579.1516 Q376.5781,579.2609 376.9609,579.5125 Z " fill="#000000"/><text fill="#000000" font-family="sans-serif" font-size="9.8" lengthAdjust="spacing" textLength="84.7" x="385.175" y="585.7975">RequestRepository</text><line style="stroke:#181818;stroke-width:0.3499999999999999;" x1="363.65" x2="472.85" y1="593.6" y2="593.6"/><line style="stroke:#181818;stroke-width:0.3499999999999999;" x1="363.65" x2="472.85" y1="599.2" y2="599.2"/><text fill="#000000" font-family="sans-serif" font-size="9.8" lengthAdjust="spacing" textLength="102.2" x="367.15" y="610.8717">+getPropertyTypeList()</text><text fill="#000000" font-family="sans-serif" font-size="9.8" lengthAdjust="spacing" textLength="101.5" x="367.15" y="621.8201">+getRequestTypeList()</text></g><!--class AgencyRepository--><g id="elem_AgencyRepository"><rect codeLine="29" fill="#F1F1F1" height="66.4453" id="AgencyRepository" rx="1.75" ry="1.75" style="stroke:#181818;stroke-width:0.3499999999999999;" width="102.9" x="498.4" y="565.6"/><ellipse cx="508.9" cy="576.8" fill="#ADD1B2" rx="7.7" ry="7.7" style="stroke:#181818;stroke-width:0.6999999999999998;"/><path d="M510.8359,573.9125 Q510.9453,573.7594 511.0766,573.6828 Q511.2078,573.6062 511.3609,573.6062 Q511.6234,573.6062 511.7875,573.7922 Q511.9516,573.9672 511.9516,574.3937 L511.9516,575.4109 Q511.9516,575.8375 511.7875,576.0234 Q511.6234,576.2094 511.3609,576.2094 Q511.1203,576.2094 510.9781,576.0672 Q510.8359,575.9359 510.7594,575.575 Q510.7266,575.3234 510.5953,575.1922 Q510.3656,574.9297 509.9391,574.7766 Q509.5125,574.6234 509.075,574.6234 Q508.5391,574.6234 508.0906,574.8531 Q507.6531,575.0828 507.3031,575.6078 Q506.9641,576.1328 506.9641,576.8547 L506.9641,577.6203 Q506.9641,578.4844 507.5875,579.0641 Q508.2109,579.6328 509.3266,579.6328 Q509.9828,579.6328 510.4422,579.4578 Q510.7156,579.3484 511.0109,579.0422 Q511.1969,578.8562 511.2953,578.8016 Q511.4047,578.7469 511.5469,578.7469 Q511.7766,578.7469 511.9516,578.9328 Q512.1375,579.1078 512.1375,579.3484 Q512.1375,579.5891 511.8969,579.8734 Q511.5469,580.2781 510.9891,580.5078 Q510.2344,580.825 509.3266,580.825 Q508.2656,580.825 507.4234,580.3875 Q506.7344,580.0375 506.2531,579.2937 Q505.7719,578.5391 505.7719,577.6422 L505.7719,576.8328 Q505.7719,575.9031 506.1984,575.1047 Q506.6359,574.2953 507.4016,573.8687 Q508.1672,573.4312 509.0312,573.4312 Q509.5453,573.4312 509.9937,573.5516 Q510.4531,573.6609 510.8359,573.9125 Z " fill="#000000"/><text fill="#000000" font-family="sans-serif" font-size="9.8" lengthAdjust="spacing" textLength="80.5" x="518.7" y="580.1975">AgencyRepository</text><line style="stroke:#181818;stroke-width:0.3499999999999999;" x1="499.1" x2="600.6" y1="588" y2="588"/><line style="stroke:#181818;stroke-width:0.3499999999999999;" x1="499.1" x2="600.6" y1="593.6" y2="593.6"/><text fill="#000000" font-family="sans-serif" font-size="9.8" lengthAdjust="spacing" textLength="74.9" x="502.6" y="605.2717">+getAgencyList()</text><text fill="#000000" font-family="sans-serif" font-size="9.8" lengthAdjust="spacing" textLength="73.5" x="502.6" y="616.2201">+getBranchList()</text><text fill="#000000" font-family="sans-serif" font-size="9.8" lengthAdjust="spacing" textLength="72.8" x="502.6" y="627.1686">+getAgentsList()</text></g><!--class Photograph--><g id="elem_Photograph"><rect codeLine="35" fill="#F1F1F1" height="44.5484" id="Photograph" rx="1.75" ry="1.75" style="stroke:#181818;stroke-width:0.3499999999999999;" width="74.2" x="1334.55" y="445.55"/><ellipse cx="1345.05" cy="456.75" fill="#ADD1B2" rx="7.7" ry="7.7" style="stroke:#181818;stroke-width:0.6999999999999998;"/><path d="M1346.9859,453.8625 Q1347.0953,453.7094 1347.2266,453.6328 Q1347.3578,453.5562 1347.5109,453.5562 Q1347.7734,453.5562 1347.9375,453.7422 Q1348.1016,453.9172 1348.1016,454.3437 L1348.1016,455.3609 Q1348.1016,455.7875 1347.9375,455.9734 Q1347.7734,456.1594 1347.5109,456.1594 Q1347.2703,456.1594 1347.1281,456.0172 Q1346.9859,455.8859 1346.9094,455.525 Q1346.8766,455.2734 1346.7453,455.1422 Q1346.5156,454.8797 1346.0891,454.7266 Q1345.6625,454.5734 1345.225,454.5734 Q1344.6891,454.5734 1344.2406,454.8031 Q1343.8031,455.0328 1343.4531,455.5578 Q1343.1141,456.0828 1343.1141,456.8047 L1343.1141,457.5703 Q1343.1141,458.4344 1343.7375,459.0141 Q1344.3609,459.5828 1345.4766,459.5828 Q1346.1328,459.5828 1346.5922,459.4078 Q1346.8656,459.2984 1347.1609,458.9922 Q1347.3469,458.8062 1347.4453,458.7516 Q1347.5547,458.6969 1347.6969,458.6969 Q1347.9266,458.6969 1348.1016,458.8828 Q1348.2875,459.0578 1348.2875,459.2984 Q1348.2875,459.5391 1348.0469,459.8234 Q1347.6969,460.2281 1347.1391,460.4578 Q1346.3844,460.775 1345.4766,460.775 Q1344.4156,460.775 1343.5734,460.3375 Q1342.8844,459.9875 1342.4031,459.2437 Q1341.9219,458.4891 1341.9219,457.5922 L1341.9219,456.7828 Q1341.9219,455.8531 1342.3484,455.0547 Q1342.7859,454.2453 1343.5516,453.8187 Q1344.3172,453.3812 1345.1812,453.3812 Q1345.6953,453.3812 1346.1437,453.5016 Q1346.6031,453.6109 1346.9859,453.8625 Z " fill="#000000"/><text fill="#000000" font-family="sans-serif" font-size="9.8" lengthAdjust="spacing" textLength="51.8" x="1354.85" y="460.1475">Photograph</text><line style="stroke:#181818;stroke-width:0.3499999999999999;" x1="1335.25" x2="1408.05" y1="467.95" y2="467.95"/><text fill="#000000" font-family="sans-serif" font-size="9.8" lengthAdjust="spacing" textLength="47.6" x="1338.75" y="479.6217">-String URI</text><line style="stroke:#181818;stroke-width:0.3499999999999999;" x1="1335.25" x2="1408.05" y1="484.4984" y2="484.4984"/></g><!--class PhotographList--><g id="elem_PhotographList"><rect codeLine="40" fill="#F1F1F1" height="44.5484" id="PhotographList" rx="1.75" ry="1.75" style="stroke:#181818;stroke-width:0.3499999999999999;" width="133.7" x="1226.4" y="309.4"/><ellipse cx="1256.745" cy="320.6" fill="#ADD1B2" rx="7.7" ry="7.7" style="stroke:#181818;stroke-width:0.6999999999999998;"/><path d="M1258.6809,317.7125 Q1258.7903,317.5594 1258.9216,317.4828 Q1259.0528,317.4062 1259.2059,317.4062 Q1259.4684,317.4062 1259.6325,317.5922 Q1259.7966,317.7672 1259.7966,318.1937 L1259.7966,319.2109 Q1259.7966,319.6375 1259.6325,319.8234 Q1259.4684,320.0094 1259.2059,320.0094 Q1258.9653,320.0094 1258.8231,319.8672 Q1258.6809,319.7359 1258.6044,319.375 Q1258.5716,319.1234 1258.4403,318.9922 Q1258.2106,318.7297 1257.7841,318.5766 Q1257.3575,318.4234 1256.92,318.4234 Q1256.3841,318.4234 1255.9356,318.6531 Q1255.4981,318.8828 1255.1481,319.4078 Q1254.8091,319.9328 1254.8091,320.6547 L1254.8091,321.4203 Q1254.8091,322.2844 1255.4325,322.8641 Q1256.0559,323.4328 1257.1716,323.4328 Q1257.8278,323.4328 1258.2872,323.2578 Q1258.5606,323.1484 1258.8559,322.8422 Q1259.0419,322.6562 1259.1403,322.6016 Q1259.2497,322.5469 1259.3919,322.5469 Q1259.6216,322.5469 1259.7966,322.7328 Q1259.9825,322.9078 1259.9825,323.1484 Q1259.9825,323.3891 1259.7419,323.6734 Q1259.3919,324.0781 1258.8341,324.3078 Q1258.0794,324.625 1257.1716,324.625 Q1256.1106,324.625 1255.2684,324.1875 Q1254.5794,323.8375 1254.0981,323.0937 Q1253.6169,322.3391 1253.6169,321.4422 L1253.6169,320.6328 Q1253.6169,319.7031 1254.0434,318.9047 Q1254.4809,318.0953 1255.2466,317.6687 Q1256.0122,317.2312 1256.8762,317.2312 Q1257.3903,317.2312 1257.8387,317.3516 Q1258.2981,317.4609 1258.6809,317.7125 Z " fill="#000000"/><text fill="#000000" font-family="sans-serif" font-size="9.8" lengthAdjust="spacing" textLength="67.2" x="1270.955" y="323.9975">PhotographList</text><line style="stroke:#181818;stroke-width:0.3499999999999999;" x1="1227.1" x2="1359.4" y1="331.8" y2="331.8"/><text fill="#000000" font-family="sans-serif" font-size="9.8" lengthAdjust="spacing" textLength="125.3" x="1230.6" y="343.4717">-addPhotographToPhotoList</text><line style="stroke:#181818;stroke-width:0.3499999999999999;" x1="1227.1" x2="1359.4" y1="348.3484" y2="348.3484"/></g><!--class Request--><g id="elem_Request"><rect codeLine="44" fill="#F1F1F1" height="88.3422" id="Request" rx="1.75" ry="1.75" style="stroke:#181818;stroke-width:0.3499999999999999;" width="95.9" x="681.8" y="287.7"/><ellipse cx="708.68" cy="298.9" fill="#ADD1B2" rx="7.7" ry="7.7" style="stroke:#181818;stroke-width:0.6999999999999998;"/><path d="M710.6159,296.0125 Q710.7253,295.8594 710.8566,295.7828 Q710.9878,295.7062 711.1409,295.7062 Q711.4034,295.7062 711.5675,295.8922 Q711.7316,296.0672 711.7316,296.4937 L711.7316,297.5109 Q711.7316,297.9375 711.5675,298.1234 Q711.4034,298.3094 711.1409,298.3094 Q710.9003,298.3094 710.7581,298.1672 Q710.6159,298.0359 710.5394,297.675 Q710.5066,297.4234 710.3753,297.2922 Q710.1456,297.0297 709.7191,296.8766 Q709.2925,296.7234 708.855,296.7234 Q708.3191,296.7234 707.8706,296.9531 Q707.4331,297.1828 707.0831,297.7078 Q706.7441,298.2328 706.7441,298.9547 L706.7441,299.7203 Q706.7441,300.5844 707.3675,301.1641 Q707.9909,301.7328 709.1066,301.7328 Q709.7628,301.7328 710.2222,301.5578 Q710.4956,301.4484 710.7909,301.1422 Q710.9769,300.9562 711.0753,300.9016 Q711.1847,300.8469 711.3269,300.8469 Q711.5566,300.8469 711.7316,301.0328 Q711.9175,301.2078 711.9175,301.4484 Q711.9175,301.6891 711.6769,301.9734 Q711.3269,302.3781 710.7691,302.6078 Q710.0144,302.925 709.1066,302.925 Q708.0456,302.925 707.2034,302.4875 Q706.5144,302.1375 706.0331,301.3937 Q705.5519,300.6391 705.5519,299.7422 L705.5519,298.9328 Q705.5519,298.0031 705.9784,297.2047 Q706.4159,296.3953 707.1816,295.9687 Q707.9472,295.5312 708.8112,295.5312 Q709.3253,295.5312 709.7737,295.6516 Q710.2331,295.7609 710.6159,296.0125 Z " fill="#000000"/><text fill="#000000" font-family="sans-serif" font-size="9.8" lengthAdjust="spacing" textLength="37.1" x="722.12" y="302.2975">Request</text><line style="stroke:#181818;stroke-width:0.3499999999999999;" x1="682.5" x2="777" y1="310.1" y2="310.1"/><text fill="#000000" font-family="sans-serif" font-size="9.8" lengthAdjust="spacing" textLength="58.8" x="686" y="321.7717">-String status</text><text fill="#000000" font-family="sans-serif" font-size="9.8" lengthAdjust="spacing" textLength="87.5" x="686" y="332.7201">-String dateOfBegin</text><text fill="#000000" font-family="sans-serif" font-size="9.8" lengthAdjust="spacing" textLength="70" x="686" y="343.6686">-String endDate</text><line style="stroke:#181818;stroke-width:0.3499999999999999;" x1="682.5" x2="777" y1="348.5453" y2="348.5453"/><text fill="#000000" font-family="sans-serif" font-size="9.8" lengthAdjust="spacing" textLength="64.4" x="686" y="360.217">-addRequest()</text><text fill="#000000" font-family="sans-serif" font-size="9.8" lengthAdjust="spacing" textLength="84" x="686" y="371.1654">+validateRequest()</text></g><!--class Property--><g id="elem_Property"><rect codeLine="52" fill="#F1F1F1" height="77.3937" id="Property" rx="1.75" ry="1.75" style="stroke:#181818;stroke-width:0.3499999999999999;" width="482.3" x="827.4" y="429.1"/><ellipse cx="1046.675" cy="440.3" fill="#ADD1B2" rx="7.7" ry="7.7" style="stroke:#181818;stroke-width:0.6999999999999998;"/><path d="M1048.6109,437.4125 Q1048.7203,437.2594 1048.8516,437.1828 Q1048.9828,437.1062 1049.1359,437.1062 Q1049.3984,437.1062 1049.5625,437.2922 Q1049.7266,437.4672 1049.7266,437.8937 L1049.7266,438.9109 Q1049.7266,439.3375 1049.5625,439.5234 Q1049.3984,439.7094 1049.1359,439.7094 Q1048.8953,439.7094 1048.7531,439.5672 Q1048.6109,439.4359 1048.5344,439.075 Q1048.5016,438.8234 1048.3703,438.6922 Q1048.1406,438.4297 1047.7141,438.2766 Q1047.2875,438.1234 1046.85,438.1234 Q1046.3141,438.1234 1045.8656,438.3531 Q1045.4281,438.5828 1045.0781,439.1078 Q1044.7391,439.6328 1044.7391,440.3547 L1044.7391,441.1203 Q1044.7391,441.9844 1045.3625,442.5641 Q1045.9859,443.1328 1047.1016,443.1328 Q1047.7578,443.1328 1048.2172,442.9578 Q1048.4906,442.8484 1048.7859,442.5422 Q1048.9719,442.3562 1049.0703,442.3016 Q1049.1797,442.2469 1049.3219,442.2469 Q1049.5516,442.2469 1049.7266,442.4328 Q1049.9125,442.6078 1049.9125,442.8484 Q1049.9125,443.0891 1049.6719,443.3734 Q1049.3219,443.7781 1048.7641,444.0078 Q1048.0094,444.325 1047.1016,444.325 Q1046.0406,444.325 1045.1984,443.8875 Q1044.5094,443.5375 1044.0281,442.7937 Q1043.5469,442.0391 1043.5469,441.1422 L1043.5469,440.3328 Q1043.5469,439.4031 1043.9734,438.6047 Q1044.4109,437.7953 1045.1766,437.3687 Q1045.9422,436.9312 1046.8062,436.9312 Q1047.3203,436.9312 1047.7687,437.0516 Q1048.2281,437.1609 1048.6109,437.4125 Z " fill="#000000"/><text fill="#000000" font-family="sans-serif" font-size="9.8" lengthAdjust="spacing" textLength="37.8" x="1061.025" y="443.6975">Property</text><line style="stroke:#181818;stroke-width:0.3499999999999999;" x1="828.1" x2="1309" y1="451.5" y2="451.5"/><text fill="#000000" font-family="sans-serif" font-size="9.8" lengthAdjust="spacing" textLength="56.7" x="831.6" y="463.1717">-double area</text><text fill="#000000" font-family="sans-serif" font-size="9.8" lengthAdjust="spacing" textLength="143.5" x="831.6" y="474.1201">-double distanceFromCityCenter</text><text fill="#000000" font-family="sans-serif" font-size="9.8" lengthAdjust="spacing" textLength="58.1" x="831.6" y="485.0686">-double price</text><line style="stroke:#181818;stroke-width:0.3499999999999999;" x1="828.1" x2="1309" y1="489.9453" y2="489.9453"/><text fill="#000000" font-family="sans-serif" font-size="9.8" lengthAdjust="spacing" textLength="473.9" x="831.6" y="501.617">+createRequest(agentName, propertyType, area, location, distanceFromCityCenter, price, photographList )</text></g><!--class Residence--><g id="elem_Residence"><rect codeLine="59" fill="#F1F1F1" height="77.3937" id="Residence" rx="1.75" ry="1.75" style="stroke:#181818;stroke-width:0.3499999999999999;" width="879.2" x="627.55" y="560"/><ellipse cx="1040.725" cy="571.2" fill="#ADD1B2" rx="7.7" ry="7.7" style="stroke:#181818;stroke-width:0.6999999999999998;"/><path d="M1042.6609,568.3125 Q1042.7703,568.1594 1042.9016,568.0828 Q1043.0328,568.0062 1043.1859,568.0062 Q1043.4484,568.0062 1043.6125,568.1922 Q1043.7766,568.3672 1043.7766,568.7937 L1043.7766,569.8109 Q1043.7766,570.2375 1043.6125,570.4234 Q1043.4484,570.6094 1043.1859,570.6094 Q1042.9453,570.6094 1042.8031,570.4672 Q1042.6609,570.3359 1042.5844,569.975 Q1042.5516,569.7234 1042.4203,569.5922 Q1042.1906,569.3297 1041.7641,569.1766 Q1041.3375,569.0234 1040.9,569.0234 Q1040.3641,569.0234 1039.9156,569.2531 Q1039.4781,569.4828 1039.1281,570.0078 Q1038.7891,570.5328 1038.7891,571.2547 L1038.7891,572.0203 Q1038.7891,572.8844 1039.4125,573.4641 Q1040.0359,574.0328 1041.1516,574.0328 Q1041.8078,574.0328 1042.2672,573.8578 Q1042.5406,573.7484 1042.8359,573.4422 Q1043.0219,573.2562 1043.1203,573.2016 Q1043.2297,573.1469 1043.3719,573.1469 Q1043.6016,573.1469 1043.7766,573.3328 Q1043.9625,573.5078 1043.9625,573.7484 Q1043.9625,573.9891 1043.7219,574.2734 Q1043.3719,574.6781 1042.8141,574.9078 Q1042.0594,575.225 1041.1516,575.225 Q1040.0906,575.225 1039.2484,574.7875 Q1038.5594,574.4375 1038.0781,573.6937 Q1037.5969,572.9391 1037.5969,572.0422 L1037.5969,571.2328 Q1037.5969,570.3031 1038.0234,569.5047 Q1038.4609,568.6953 1039.2266,568.2687 Q1039.9922,567.8312 1040.8562,567.8312 Q1041.3703,567.8312 1041.8187,567.9516 Q1042.2781,568.0609 1042.6609,568.3125 Z " fill="#000000"/><text fill="#000000" font-family="sans-serif" font-size="9.8" lengthAdjust="spacing" textLength="46.9" x="1055.075" y="574.5975">Residence</text><line style="stroke:#181818;stroke-width:0.3499999999999999;" x1="628.25" x2="1506.05" y1="582.4" y2="582.4"/><text fill="#000000" font-family="sans-serif" font-size="9.8" lengthAdjust="spacing" textLength="125.3" x="631.75" y="594.0717">-double numberOfBedrooms</text><text fill="#000000" font-family="sans-serif" font-size="9.8" lengthAdjust="spacing" textLength="128.1" x="631.75" y="605.0201">-double numberOfBathrooms</text><text fill="#000000" font-family="sans-serif" font-size="9.8" lengthAdjust="spacing" textLength="147" x="631.75" y="615.9686">-double numberOfParkingSpaces</text><line style="stroke:#181818;stroke-width:0.3499999999999999;" x1="628.25" x2="1506.05" y1="620.8453" y2="620.8453"/><text fill="#000000" font-family="sans-serif" font-size="9.8" lengthAdjust="spacing" textLength="870.8" x="631.75" y="632.517">+createRequest(agentName, propertyType, area, location, distanceFromCityCenter, price, photographList, numberOfBedrooms, numberOfBathrooms, numberOfParkingSpaces, availableEquipment)</text></g><!--class AvailableEquipment--><g id="elem_AvailableEquipment"><rect codeLine="66" fill="#F1F1F1" height="44.5484" id="AvailableEquipment" rx="1.75" ry="1.75" style="stroke:#181818;stroke-width:0.3499999999999999;" width="109.2" x="1150.45" y="691.25"/><ellipse cx="1160.95" cy="702.45" fill="#ADD1B2" rx="7.7" ry="7.7" style="stroke:#181818;stroke-width:0.6999999999999998;"/><path d="M1162.8859,699.5625 Q1162.9953,699.4094 1163.1266,699.3328 Q1163.2578,699.2562 1163.4109,699.2562 Q1163.6734,699.2562 1163.8375,699.4422 Q1164.0016,699.6172 1164.0016,700.0437 L1164.0016,701.0609 Q1164.0016,701.4875 1163.8375,701.6734 Q1163.6734,701.8594 1163.4109,701.8594 Q1163.1703,701.8594 1163.0281,701.7172 Q1162.8859,701.5859 1162.8094,701.225 Q1162.7766,700.9734 1162.6453,700.8422 Q1162.4156,700.5797 1161.9891,700.4266 Q1161.5625,700.2734 1161.125,700.2734 Q1160.5891,700.2734 1160.1406,700.5031 Q1159.7031,700.7328 1159.3531,701.2578 Q1159.0141,701.7828 1159.0141,702.5047 L1159.0141,703.2703 Q1159.0141,704.1344 1159.6375,704.7141 Q1160.2609,705.2828 1161.3766,705.2828 Q1162.0328,705.2828 1162.4922,705.1078 Q1162.7656,704.9984 1163.0609,704.6922 Q1163.2469,704.5062 1163.3453,704.4516 Q1163.4547,704.3969 1163.5969,704.3969 Q1163.8266,704.3969 1164.0016,704.5828 Q1164.1875,704.7578 1164.1875,704.9984 Q1164.1875,705.2391 1163.9469,705.5234 Q1163.5969,705.9281 1163.0391,706.1578 Q1162.2844,706.475 1161.3766,706.475 Q1160.3156,706.475 1159.4734,706.0375 Q1158.7844,705.6875 1158.3031,704.9437 Q1157.8219,704.1891 1157.8219,703.2922 L1157.8219,702.4828 Q1157.8219,701.5531 1158.2484,700.7547 Q1158.6859,699.9453 1159.4516,699.5187 Q1160.2172,699.0812 1161.0812,699.0812 Q1161.5953,699.0812 1162.0437,699.2016 Q1162.5031,699.3109 1162.8859,699.5625 Z " fill="#000000"/><text fill="#000000" font-family="sans-serif" font-size="9.8" lengthAdjust="spacing" textLength="86.8" x="1170.75" y="705.8475">AvailableEquipment</text><line style="stroke:#181818;stroke-width:0.3499999999999999;" x1="1151.15" x2="1258.95" y1="713.65" y2="713.65"/><text fill="#000000" font-family="sans-serif" font-size="9.8" lengthAdjust="spacing" textLength="88.2" x="1154.65" y="725.3217">-boolean equipment</text><line style="stroke:#181818;stroke-width:0.3499999999999999;" x1="1151.15" x2="1258.95" y1="730.1984" y2="730.1984"/></g><!--class House--><g id="elem_House"><rect codeLine="70" fill="#F1F1F1" height="66.4453" id="House" rx="1.75" ry="1.75" style="stroke:#181818;stroke-width:0.3499999999999999;" width="1120.7" x="4.9" y="680.4"/><ellipse cx="548.275" cy="691.6" fill="#ADD1B2" rx="7.7" ry="7.7" style="stroke:#181818;stroke-width:0.6999999999999998;"/><path d="M550.2109,688.7125 Q550.3203,688.5594 550.4516,688.4828 Q550.5828,688.4062 550.7359,688.4062 Q550.9984,688.4062 551.1625,688.5922 Q551.3266,688.7672 551.3266,689.1937 L551.3266,690.2109 Q551.3266,690.6375 551.1625,690.8234 Q550.9984,691.0094 550.7359,691.0094 Q550.4953,691.0094 550.3531,690.8672 Q550.2109,690.7359 550.1344,690.375 Q550.1016,690.1234 549.9703,689.9922 Q549.7406,689.7297 549.3141,689.5766 Q548.8875,689.4234 548.45,689.4234 Q547.9141,689.4234 547.4656,689.6531 Q547.0281,689.8828 546.6781,690.4078 Q546.3391,690.9328 546.3391,691.6547 L546.3391,692.4203 Q546.3391,693.2844 546.9625,693.8641 Q547.5859,694.4328 548.7016,694.4328 Q549.3578,694.4328 549.8172,694.2578 Q550.0906,694.1484 550.3859,693.8422 Q550.5719,693.6562 550.6703,693.6016 Q550.7797,693.5469 550.9219,693.5469 Q551.1516,693.5469 551.3266,693.7328 Q551.5125,693.9078 551.5125,694.1484 Q551.5125,694.3891 551.2719,694.6734 Q550.9219,695.0781 550.3641,695.3078 Q549.6094,695.625 548.7016,695.625 Q547.6406,695.625 546.7984,695.1875 Q546.1094,694.8375 545.6281,694.0937 Q545.1469,693.3391 545.1469,692.4422 L545.1469,691.6328 Q545.1469,690.7031 545.5734,689.9047 Q546.0109,689.0953 546.7766,688.6687 Q547.5422,688.2312 548.4062,688.2312 Q548.9203,688.2312 549.3687,688.3516 Q549.8281,688.4609 550.2109,688.7125 Z " fill="#000000"/><text fill="#000000" font-family="sans-serif" font-size="9.8" lengthAdjust="spacing" textLength="28" x="562.625" y="694.9975">House</text><line style="stroke:#181818;stroke-width:0.3499999999999999;" x1="5.6" x2="1124.9" y1="702.8" y2="702.8"/><text fill="#000000" font-family="sans-serif" font-size="9.8" lengthAdjust="spacing" textLength="144.2" x="9.1" y="714.4717">-boolean existenceOfABasement</text><text fill="#000000" font-family="sans-serif" font-size="9.8" lengthAdjust="spacing" textLength="107.1" x="9.1" y="725.4201">-boolean inhabitableLoft</text><line style="stroke:#181818;stroke-width:0.3499999999999999;" x1="5.6" x2="1124.9" y1="730.2969" y2="730.2969"/><text fill="#000000" font-family="sans-serif" font-size="9.8" lengthAdjust="spacing" textLength="1112.3" x="9.1" y="741.9686">+createRequest(agentName, propertyType, area, location, distanceFromCityCenter, price, photographList, numberOfBedrooms, numberOfBathrooms, numberOfParkingSpaces, availableEquipment, existenceOfABasement, inhabitableLoft, sunExposure)</text></g><!--class SunExposure--><g id="elem_SunExposure"><rect codeLine="76" fill="#F1F1F1" height="44.5484" id="SunExposure" rx="1.75" ry="1.75" style="stroke:#181818;stroke-width:0.3499999999999999;" width="81.2" x="524.65" y="789.6"/><ellipse cx="535.15" cy="800.8" fill="#ADD1B2" rx="7.7" ry="7.7" style="stroke:#181818;stroke-width:0.6999999999999998;"/><path d="M537.0859,797.9125 Q537.1953,797.7594 537.3266,797.6828 Q537.4578,797.6062 537.6109,797.6062 Q537.8734,797.6062 538.0375,797.7922 Q538.2016,797.9672 538.2016,798.3937 L538.2016,799.4109 Q538.2016,799.8375 538.0375,800.0234 Q537.8734,800.2094 537.6109,800.2094 Q537.3703,800.2094 537.2281,800.0672 Q537.0859,799.9359 537.0094,799.575 Q536.9766,799.3234 536.8453,799.1922 Q536.6156,798.9297 536.1891,798.7766 Q535.7625,798.6234 535.325,798.6234 Q534.7891,798.6234 534.3406,798.8531 Q533.9031,799.0828 533.5531,799.6078 Q533.2141,800.1328 533.2141,800.8547 L533.2141,801.6203 Q533.2141,802.4844 533.8375,803.0641 Q534.4609,803.6328 535.5766,803.6328 Q536.2328,803.6328 536.6922,803.4578 Q536.9656,803.3484 537.2609,803.0422 Q537.4469,802.8562 537.5453,802.8016 Q537.6547,802.7469 537.7969,802.7469 Q538.0266,802.7469 538.2016,802.9328 Q538.3875,803.1078 538.3875,803.3484 Q538.3875,803.5891 538.1469,803.8734 Q537.7969,804.2781 537.2391,804.5078 Q536.4844,804.825 535.5766,804.825 Q534.5156,804.825 533.6734,804.3875 Q532.9844,804.0375 532.5031,803.2937 Q532.0219,802.5391 532.0219,801.6422 L532.0219,800.8328 Q532.0219,799.9031 532.4484,799.1047 Q532.8859,798.2953 533.6516,797.8687 Q534.4172,797.4312 535.2812,797.4312 Q535.7953,797.4312 536.2437,797.5516 Q536.7031,797.6609 537.0859,797.9125 Z " fill="#000000"/><text fill="#000000" font-family="sans-serif" font-size="9.8" lengthAdjust="spacing" textLength="58.8" x="544.95" y="804.1975">SunExposure</text><line style="stroke:#181818;stroke-width:0.3499999999999999;" x1="525.35" x2="605.15" y1="812" y2="812"/><text fill="#000000" font-family="sans-serif" font-size="9.8" lengthAdjust="spacing" textLength="70" x="528.85" y="823.6717">-String direction</text><line style="stroke:#181818;stroke-width:0.3499999999999999;" x1="525.35" x2="605.15" y1="828.5484" y2="828.5484"/></g><!--class Location--><g id="elem_Location"><rect codeLine="80" fill="#F1F1F1" height="77.3937" id="Location" rx="1.75" ry="1.75" style="stroke:#181818;stroke-width:0.3499999999999999;" width="102.2" x="1531.25" y="560"/><ellipse cx="1560.65" cy="571.2" fill="#ADD1B2" rx="7.7" ry="7.7" style="stroke:#181818;stroke-width:0.6999999999999998;"/><path d="M1562.5859,568.3125 Q1562.6953,568.1594 1562.8266,568.0828 Q1562.9578,568.0062 1563.1109,568.0062 Q1563.3734,568.0062 1563.5375,568.1922 Q1563.7016,568.3672 1563.7016,568.7937 L1563.7016,569.8109 Q1563.7016,570.2375 1563.5375,570.4234 Q1563.3734,570.6094 1563.1109,570.6094 Q1562.8703,570.6094 1562.7281,570.4672 Q1562.5859,570.3359 1562.5094,569.975 Q1562.4766,569.7234 1562.3453,569.5922 Q1562.1156,569.3297 1561.6891,569.1766 Q1561.2625,569.0234 1560.825,569.0234 Q1560.2891,569.0234 1559.8406,569.2531 Q1559.4031,569.4828 1559.0531,570.0078 Q1558.7141,570.5328 1558.7141,571.2547 L1558.7141,572.0203 Q1558.7141,572.8844 1559.3375,573.4641 Q1559.9609,574.0328 1561.0766,574.0328 Q1561.7328,574.0328 1562.1922,573.8578 Q1562.4656,573.7484 1562.7609,573.4422 Q1562.9469,573.2562 1563.0453,573.2016 Q1563.1547,573.1469 1563.2969,573.1469 Q1563.5266,573.1469 1563.7016,573.3328 Q1563.8875,573.5078 1563.8875,573.7484 Q1563.8875,573.9891 1563.6469,574.2734 Q1563.2969,574.6781 1562.7391,574.9078 Q1561.9844,575.225 1561.0766,575.225 Q1560.0156,575.225 1559.1734,574.7875 Q1558.4844,574.4375 1558.0031,573.6937 Q1557.5219,572.9391 1557.5219,572.0422 L1557.5219,571.2328 Q1557.5219,570.3031 1557.9484,569.5047 Q1558.3859,568.6953 1559.1516,568.2687 Q1559.9172,567.8312 1560.7812,567.8312 Q1561.2953,567.8312 1561.7437,567.9516 Q1562.2031,568.0609 1562.5859,568.3125 Z " fill="#000000"/><text fill="#000000" font-family="sans-serif" font-size="9.8" lengthAdjust="spacing" textLength="37.8" x="1574.65" y="574.5975">Location</text><line style="stroke:#181818;stroke-width:0.3499999999999999;" x1="1531.95" x2="1632.75" y1="582.4" y2="582.4"/><text fill="#000000" font-family="sans-serif" font-size="9.8" lengthAdjust="spacing" textLength="71.4" x="1535.45" y="594.0717">-int doorNumber</text><text fill="#000000" font-family="sans-serif" font-size="9.8" lengthAdjust="spacing" textLength="70.7" x="1535.45" y="605.0201">-int floorNumber</text><text fill="#000000" font-family="sans-serif" font-size="9.8" lengthAdjust="spacing" textLength="67.9" x="1535.45" y="615.9686">-String zipCode</text><text fill="#000000" font-family="sans-serif" font-size="9.8" lengthAdjust="spacing" textLength="93.8" x="1535.45" y="626.917">-String streetAddress</text><line style="stroke:#181818;stroke-width:0.3499999999999999;" x1="1531.95" x2="1632.75" y1="631.7937" y2="631.7937"/></g><!--class State--><g id="elem_State"><rect codeLine="87" fill="#F1F1F1" height="44.5484" id="State" rx="1.75" ry="1.75" style="stroke:#181818;stroke-width:0.3499999999999999;" width="87.5" x="1423.1" y="691.25"/><ellipse cx="1452.5" cy="702.45" fill="#ADD1B2" rx="7.7" ry="7.7" style="stroke:#181818;stroke-width:0.6999999999999998;"/><path d="M1454.4359,699.5625 Q1454.5453,699.4094 1454.6766,699.3328 Q1454.8078,699.2562 1454.9609,699.2562 Q1455.2234,699.2562 1455.3875,699.4422 Q1455.5516,699.6172 1455.5516,700.0437 L1455.5516,701.0609 Q1455.5516,701.4875 1455.3875,701.6734 Q1455.2234,701.8594 1454.9609,701.8594 Q1454.7203,701.8594 1454.5781,701.7172 Q1454.4359,701.5859 1454.3594,701.225 Q1454.3266,700.9734 1454.1953,700.8422 Q1453.9656,700.5797 1453.5391,700.4266 Q1453.1125,700.2734 1452.675,700.2734 Q1452.1391,700.2734 1451.6906,700.5031 Q1451.2531,700.7328 1450.9031,701.2578 Q1450.5641,701.7828 1450.5641,702.5047 L1450.5641,703.2703 Q1450.5641,704.1344 1451.1875,704.7141 Q1451.8109,705.2828 1452.9266,705.2828 Q1453.5828,705.2828 1454.0422,705.1078 Q1454.3156,704.9984 1454.6109,704.6922 Q1454.7969,704.5062 1454.8953,704.4516 Q1455.0047,704.3969 1455.1469,704.3969 Q1455.3766,704.3969 1455.5516,704.5828 Q1455.7375,704.7578 1455.7375,704.9984 Q1455.7375,705.2391 1455.4969,705.5234 Q1455.1469,705.9281 1454.5891,706.1578 Q1453.8344,706.475 1452.9266,706.475 Q1451.8656,706.475 1451.0234,706.0375 Q1450.3344,705.6875 1449.8531,704.9437 Q1449.3719,704.1891 1449.3719,703.2922 L1449.3719,702.4828 Q1449.3719,701.5531 1449.7984,700.7547 Q1450.2359,699.9453 1451.0016,699.5187 Q1451.7672,699.0812 1452.6312,699.0812 Q1453.1453,699.0812 1453.5937,699.2016 Q1454.0531,699.3109 1454.4359,699.5625 Z " fill="#000000"/><text fill="#000000" font-family="sans-serif" font-size="9.8" lengthAdjust="spacing" textLength="23.1" x="1466.5" y="705.8475">State</text><line style="stroke:#181818;stroke-width:0.3499999999999999;" x1="1423.8" x2="1509.9" y1="713.65" y2="713.65"/><text fill="#000000" font-family="sans-serif" font-size="9.8" lengthAdjust="spacing" textLength="79.1" x="1427.3" y="725.3217">-String stateName</text><line style="stroke:#181818;stroke-width:0.3499999999999999;" x1="1423.8" x2="1509.9" y1="730.1984" y2="730.1984"/></g><!--class District--><g id="elem_District"><rect codeLine="91" fill="#F1F1F1" height="44.5484" id="District" rx="1.75" ry="1.75" style="stroke:#181818;stroke-width:0.3499999999999999;" width="94.5" x="1535.1" y="691.25"/><ellipse cx="1564.5" cy="702.45" fill="#ADD1B2" rx="7.7" ry="7.7" style="stroke:#181818;stroke-width:0.6999999999999998;"/><path d="M1566.4359,699.5625 Q1566.5453,699.4094 1566.6766,699.3328 Q1566.8078,699.2562 1566.9609,699.2562 Q1567.2234,699.2562 1567.3875,699.4422 Q1567.5516,699.6172 1567.5516,700.0437 L1567.5516,701.0609 Q1567.5516,701.4875 1567.3875,701.6734 Q1567.2234,701.8594 1566.9609,701.8594 Q1566.7203,701.8594 1566.5781,701.7172 Q1566.4359,701.5859 1566.3594,701.225 Q1566.3266,700.9734 1566.1953,700.8422 Q1565.9656,700.5797 1565.5391,700.4266 Q1565.1125,700.2734 1564.675,700.2734 Q1564.1391,700.2734 1563.6906,700.5031 Q1563.2531,700.7328 1562.9031,701.2578 Q1562.5641,701.7828 1562.5641,702.5047 L1562.5641,703.2703 Q1562.5641,704.1344 1563.1875,704.7141 Q1563.8109,705.2828 1564.9266,705.2828 Q1565.5828,705.2828 1566.0422,705.1078 Q1566.3156,704.9984 1566.6109,704.6922 Q1566.7969,704.5062 1566.8953,704.4516 Q1567.0047,704.3969 1567.1469,704.3969 Q1567.3766,704.3969 1567.5516,704.5828 Q1567.7375,704.7578 1567.7375,704.9984 Q1567.7375,705.2391 1567.4969,705.5234 Q1567.1469,705.9281 1566.5891,706.1578 Q1565.8344,706.475 1564.9266,706.475 Q1563.8656,706.475 1563.0234,706.0375 Q1562.3344,705.6875 1561.8531,704.9437 Q1561.3719,704.1891 1561.3719,703.2922 L1561.3719,702.4828 Q1561.3719,701.5531 1561.7984,700.7547 Q1562.2359,699.9453 1563.0016,699.5187 Q1563.7672,699.0812 1564.6312,699.0812 Q1565.1453,699.0812 1565.5937,699.2016 Q1566.0531,699.3109 1566.4359,699.5625 Z " fill="#000000"/><text fill="#000000" font-family="sans-serif" font-size="9.8" lengthAdjust="spacing" textLength="30.1" x="1578.5" y="705.8475">District</text><line style="stroke:#181818;stroke-width:0.3499999999999999;" x1="1535.8" x2="1628.9" y1="713.65" y2="713.65"/><text fill="#000000" font-family="sans-serif" font-size="9.8" lengthAdjust="spacing" textLength="86.1" x="1539.3" y="725.3217">-String districtName</text><line style="stroke:#181818;stroke-width:0.3499999999999999;" x1="1535.8" x2="1628.9" y1="730.1984" y2="730.1984"/></g><!--class City--><g id="elem_City"><rect codeLine="95" fill="#F1F1F1" height="44.5484" id="City" rx="1.75" ry="1.75" style="stroke:#181818;stroke-width:0.3499999999999999;" width="80.5" x="1654.1" y="691.25"/><ellipse cx="1683.185" cy="702.45" fill="#ADD1B2" rx="7.7" ry="7.7" style="stroke:#181818;stroke-width:0.6999999999999998;"/><path d="M1685.1209,699.5625 Q1685.2303,699.4094 1685.3616,699.3328 Q1685.4928,699.2562 1685.6459,699.2562 Q1685.9084,699.2562 1686.0725,699.4422 Q1686.2366,699.6172 1686.2366,700.0437 L1686.2366,701.0609 Q1686.2366,701.4875 1686.0725,701.6734 Q1685.9084,701.8594 1685.6459,701.8594 Q1685.4053,701.8594 1685.2631,701.7172 Q1685.1209,701.5859 1685.0444,701.225 Q1685.0116,700.9734 1684.8803,700.8422 Q1684.6506,700.5797 1684.2241,700.4266 Q1683.7975,700.2734 1683.36,700.2734 Q1682.8241,700.2734 1682.3756,700.5031 Q1681.9381,700.7328 1681.5881,701.2578 Q1681.2491,701.7828 1681.2491,702.5047 L1681.2491,703.2703 Q1681.2491,704.1344 1681.8725,704.7141 Q1682.4959,705.2828 1683.6116,705.2828 Q1684.2678,705.2828 1684.7272,705.1078 Q1685.0006,704.9984 1685.2959,704.6922 Q1685.4819,704.5062 1685.5803,704.4516 Q1685.6897,704.3969 1685.8319,704.3969 Q1686.0616,704.3969 1686.2366,704.5828 Q1686.4225,704.7578 1686.4225,704.9984 Q1686.4225,705.2391 1686.1819,705.5234 Q1685.8319,705.9281 1685.2741,706.1578 Q1684.5194,706.475 1683.6116,706.475 Q1682.5506,706.475 1681.7084,706.0375 Q1681.0194,705.6875 1680.5381,704.9437 Q1680.0569,704.1891 1680.0569,703.2922 L1680.0569,702.4828 Q1680.0569,701.5531 1680.4834,700.7547 Q1680.9209,699.9453 1681.6866,699.5187 Q1682.4522,699.0812 1683.3162,699.0812 Q1683.8303,699.0812 1684.2787,699.2016 Q1684.7381,699.3109 1685.1209,699.5625 Z " fill="#000000"/><text fill="#000000" font-family="sans-serif" font-size="9.8" lengthAdjust="spacing" textLength="16.8" x="1697.115" y="705.8475">City</text><line style="stroke:#181818;stroke-width:0.3499999999999999;" x1="1654.8" x2="1733.9" y1="713.65" y2="713.65"/><text fill="#000000" font-family="sans-serif" font-size="9.8" lengthAdjust="spacing" textLength="72.1" x="1658.3" y="725.3217">-String cityName</text><line style="stroke:#181818;stroke-width:0.3499999999999999;" x1="1654.8" x2="1733.9" y1="730.1984" y2="730.1984"/></g><!--class Rent--><g id="elem_Rent"><rect codeLine="99" fill="#F1F1F1" height="44.5484" id="Rent" rx="1.75" ry="1.75" style="stroke:#181818;stroke-width:0.3499999999999999;" width="98.7" x="686.7" y="445.55"/><ellipse cx="722.575" cy="456.75" fill="#ADD1B2" rx="7.7" ry="7.7" style="stroke:#181818;stroke-width:0.6999999999999998;"/><path d="M724.5109,453.8625 Q724.6203,453.7094 724.7516,453.6328 Q724.8828,453.5562 725.0359,453.5562 Q725.2984,453.5562 725.4625,453.7422 Q725.6266,453.9172 725.6266,454.3437 L725.6266,455.3609 Q725.6266,455.7875 725.4625,455.9734 Q725.2984,456.1594 725.0359,456.1594 Q724.7953,456.1594 724.6531,456.0172 Q724.5109,455.8859 724.4344,455.525 Q724.4016,455.2734 724.2703,455.1422 Q724.0406,454.8797 723.6141,454.7266 Q723.1875,454.5734 722.75,454.5734 Q722.2141,454.5734 721.7656,454.8031 Q721.3281,455.0328 720.9781,455.5578 Q720.6391,456.0828 720.6391,456.8047 L720.6391,457.5703 Q720.6391,458.4344 721.2625,459.0141 Q721.8859,459.5828 723.0016,459.5828 Q723.6578,459.5828 724.1172,459.4078 Q724.3906,459.2984 724.6859,458.9922 Q724.8719,458.8062 724.9703,458.7516 Q725.0797,458.6969 725.2219,458.6969 Q725.4516,458.6969 725.6266,458.8828 Q725.8125,459.0578 725.8125,459.2984 Q725.8125,459.5391 725.5719,459.8234 Q725.2219,460.2281 724.6641,460.4578 Q723.9094,460.775 723.0016,460.775 Q721.9406,460.775 721.0984,460.3375 Q720.4094,459.9875 719.9281,459.2437 Q719.4469,458.4891 719.4469,457.5922 L719.4469,456.7828 Q719.4469,455.8531 719.8734,455.0547 Q720.3109,454.2453 721.0766,453.8187 Q721.8422,453.3812 722.7062,453.3812 Q723.2203,453.3812 723.6687,453.5016 Q724.1281,453.6109 724.5109,453.8625 Z " fill="#000000"/><text fill="#000000" font-family="sans-serif" font-size="9.8" lengthAdjust="spacing" textLength="21" x="736.925" y="460.1475">Rent</text><line style="stroke:#181818;stroke-width:0.3499999999999999;" x1="687.4" x2="784.7" y1="467.95" y2="467.95"/><text fill="#000000" font-family="sans-serif" font-size="9.8" lengthAdjust="spacing" textLength="90.3" x="690.9" y="479.6217">-int contractDuration</text><line style="stroke:#181818;stroke-width:0.3499999999999999;" x1="687.4" x2="784.7" y1="484.4984" y2="484.4984"/></g><!--class Owner--><g id="elem_Owner"><rect codeLine="103" fill="#F1F1F1" height="66.4453" id="Owner" rx="1.75" ry="1.75" style="stroke:#181818;stroke-width:0.3499999999999999;" width="100.1" x="907.2" y="146.3"/><ellipse cx="939.925" cy="157.5" fill="#ADD1B2" rx="7.7" ry="7.7" style="stroke:#181818;stroke-width:0.6999999999999998;"/><path d="M941.8609,154.6125 Q941.9703,154.4594 942.1016,154.3828 Q942.2328,154.3062 942.3859,154.3062 Q942.6484,154.3062 942.8125,154.4922 Q942.9766,154.6672 942.9766,155.0937 L942.9766,156.1109 Q942.9766,156.5375 942.8125,156.7234 Q942.6484,156.9094 942.3859,156.9094 Q942.1453,156.9094 942.0031,156.7672 Q941.8609,156.6359 941.7844,156.275 Q941.7516,156.0234 941.6203,155.8922 Q941.3906,155.6297 940.9641,155.4766 Q940.5375,155.3234 940.1,155.3234 Q939.5641,155.3234 939.1156,155.5531 Q938.6781,155.7828 938.3281,156.3078 Q937.9891,156.8328 937.9891,157.5547 L937.9891,158.3203 Q937.9891,159.1844 938.6125,159.7641 Q939.2359,160.3328 940.3516,160.3328 Q941.0078,160.3328 941.4672,160.1578 Q941.7406,160.0484 942.0359,159.7422 Q942.2219,159.5562 942.3203,159.5016 Q942.4297,159.4469 942.5719,159.4469 Q942.8016,159.4469 942.9766,159.6328 Q943.1625,159.8078 943.1625,160.0484 Q943.1625,160.2891 942.9219,160.5734 Q942.5719,160.9781 942.0141,161.2078 Q941.2594,161.525 940.3516,161.525 Q939.2906,161.525 938.4484,161.0875 Q937.7594,160.7375 937.2781,159.9937 Q936.7969,159.2391 936.7969,158.3422 L936.7969,157.5328 Q936.7969,156.6031 937.2234,155.8047 Q937.6609,154.9953 938.4266,154.5687 Q939.1922,154.1312 940.0562,154.1312 Q940.5703,154.1312 941.0187,154.2516 Q941.4781,154.3609 941.8609,154.6125 Z " fill="#000000"/><text fill="#000000" font-family="sans-serif" font-size="9.8" lengthAdjust="spacing" textLength="28.7" x="954.275" y="160.8975">Owner</text><line style="stroke:#181818;stroke-width:0.3499999999999999;" x1="907.9" x2="1006.6" y1="168.7" y2="168.7"/><text fill="#000000" font-family="sans-serif" font-size="9.8" lengthAdjust="spacing" textLength="56.7" x="911.4" y="180.3717">-String name</text><text fill="#000000" font-family="sans-serif" font-size="9.8" lengthAdjust="spacing" textLength="79.1" x="911.4" y="191.3201">-int phoneNumber</text><text fill="#000000" font-family="sans-serif" font-size="9.8" lengthAdjust="spacing" textLength="91.7" x="911.4" y="202.2686">-String emailAddress</text><line style="stroke:#181818;stroke-width:0.3499999999999999;" x1="907.9" x2="1006.6" y1="207.1453" y2="207.1453"/></g><!--class Agent--><g id="elem_Agent"><rect codeLine="109" fill="#F1F1F1" height="66.4453" id="Agent" rx="1.75" ry="1.75" style="stroke:#181818;stroke-width:0.3499999999999999;" width="100.1" x="737.1" y="146.3"/><ellipse cx="771.225" cy="157.5" fill="#ADD1B2" rx="7.7" ry="7.7" style="stroke:#181818;stroke-width:0.6999999999999998;"/><path d="M773.1609,154.6125 Q773.2703,154.4594 773.4016,154.3828 Q773.5328,154.3062 773.6859,154.3062 Q773.9484,154.3062 774.1125,154.4922 Q774.2766,154.6672 774.2766,155.0937 L774.2766,156.1109 Q774.2766,156.5375 774.1125,156.7234 Q773.9484,156.9094 773.6859,156.9094 Q773.4453,156.9094 773.3031,156.7672 Q773.1609,156.6359 773.0844,156.275 Q773.0516,156.0234 772.9203,155.8922 Q772.6906,155.6297 772.2641,155.4766 Q771.8375,155.3234 771.4,155.3234 Q770.8641,155.3234 770.4156,155.5531 Q769.9781,155.7828 769.6281,156.3078 Q769.2891,156.8328 769.2891,157.5547 L769.2891,158.3203 Q769.2891,159.1844 769.9125,159.7641 Q770.5359,160.3328 771.6516,160.3328 Q772.3078,160.3328 772.7672,160.1578 Q773.0406,160.0484 773.3359,159.7422 Q773.5219,159.5562 773.6203,159.5016 Q773.7297,159.4469 773.8719,159.4469 Q774.1016,159.4469 774.2766,159.6328 Q774.4625,159.8078 774.4625,160.0484 Q774.4625,160.2891 774.2219,160.5734 Q773.8719,160.9781 773.3141,161.2078 Q772.5594,161.525 771.6516,161.525 Q770.5906,161.525 769.7484,161.0875 Q769.0594,160.7375 768.5781,159.9937 Q768.0969,159.2391 768.0969,158.3422 L768.0969,157.5328 Q768.0969,156.6031 768.5234,155.8047 Q768.9609,154.9953 769.7266,154.5687 Q770.4922,154.1312 771.3562,154.1312 Q771.8703,154.1312 772.3187,154.2516 Q772.7781,154.3609 773.1609,154.6125 Z " fill="#000000"/><text fill="#000000" font-family="sans-serif" font-size="9.8" lengthAdjust="spacing" textLength="25.9" x="785.575" y="160.8975">Agent</text><line style="stroke:#181818;stroke-width:0.3499999999999999;" x1="737.8" x2="836.5" y1="168.7" y2="168.7"/><text fill="#000000" font-family="sans-serif" font-size="9.8" lengthAdjust="spacing" textLength="56.7" x="741.3" y="180.3717">-String name</text><text fill="#000000" font-family="sans-serif" font-size="9.8" lengthAdjust="spacing" textLength="79.1" x="741.3" y="191.3201">-int phoneNumber</text><text fill="#000000" font-family="sans-serif" font-size="9.8" lengthAdjust="spacing" textLength="91.7" x="741.3" y="202.2686">-String emailAddress</text><line style="stroke:#181818;stroke-width:0.3499999999999999;" x1="737.8" x2="836.5" y1="207.1453" y2="207.1453"/></g><!--class TaxNumber--><g id="elem_TaxNumber"><rect codeLine="115" fill="#F1F1F1" height="44.5484" id="TaxNumber" rx="1.75" ry="1.75" style="stroke:#181818;stroke-width:0.3499999999999999;" width="72.8" x="802.55" y="309.4"/><ellipse cx="813.05" cy="320.6" fill="#ADD1B2" rx="7.7" ry="7.7" style="stroke:#181818;stroke-width:0.6999999999999998;"/><path d="M814.9859,317.7125 Q815.0953,317.5594 815.2266,317.4828 Q815.3578,317.4062 815.5109,317.4062 Q815.7734,317.4062 815.9375,317.5922 Q816.1016,317.7672 816.1016,318.1937 L816.1016,319.2109 Q816.1016,319.6375 815.9375,319.8234 Q815.7734,320.0094 815.5109,320.0094 Q815.2703,320.0094 815.1281,319.8672 Q814.9859,319.7359 814.9094,319.375 Q814.8766,319.1234 814.7453,318.9922 Q814.5156,318.7297 814.0891,318.5766 Q813.6625,318.4234 813.225,318.4234 Q812.6891,318.4234 812.2406,318.6531 Q811.8031,318.8828 811.4531,319.4078 Q811.1141,319.9328 811.1141,320.6547 L811.1141,321.4203 Q811.1141,322.2844 811.7375,322.8641 Q812.3609,323.4328 813.4766,323.4328 Q814.1328,323.4328 814.5922,323.2578 Q814.8656,323.1484 815.1609,322.8422 Q815.3469,322.6562 815.4453,322.6016 Q815.5547,322.5469 815.6969,322.5469 Q815.9266,322.5469 816.1016,322.7328 Q816.2875,322.9078 816.2875,323.1484 Q816.2875,323.3891 816.0469,323.6734 Q815.6969,324.0781 815.1391,324.3078 Q814.3844,324.625 813.4766,324.625 Q812.4156,324.625 811.5734,324.1875 Q810.8844,323.8375 810.4031,323.0937 Q809.9219,322.3391 809.9219,321.4422 L809.9219,320.6328 Q809.9219,319.7031 810.3484,318.9047 Q810.7859,318.0953 811.5516,317.6687 Q812.3172,317.2312 813.1812,317.2312 Q813.6953,317.2312 814.1437,317.3516 Q814.6031,317.4609 814.9859,317.7125 Z " fill="#000000"/><text fill="#000000" font-family="sans-serif" font-size="9.8" lengthAdjust="spacing" textLength="50.4" x="822.85" y="323.9975">TaxNumber</text><line style="stroke:#181818;stroke-width:0.3499999999999999;" x1="803.25" x2="874.65" y1="331.8" y2="331.8"/><text fill="#000000" font-family="sans-serif" font-size="9.8" lengthAdjust="spacing" textLength="63.7" x="806.75" y="343.4717">-int taxNumber</text><line style="stroke:#181818;stroke-width:0.3499999999999999;" x1="803.25" x2="874.65" y1="348.3484" y2="348.3484"/></g><!--class PassportCardNumber--><g id="elem_PassportCardNumber"><rect codeLine="119" fill="#F1F1F1" height="44.5484" id="PassportCardNumber" rx="1.75" ry="1.75" style="stroke:#181818;stroke-width:0.3499999999999999;" width="119.7" x="900.2" y="309.4"/><ellipse cx="911.645" cy="320.6" fill="#ADD1B2" rx="7.7" ry="7.7" style="stroke:#181818;stroke-width:0.6999999999999998;"/><path d="M913.5809,317.7125 Q913.6903,317.5594 913.8216,317.4828 Q913.9528,317.4062 914.1059,317.4062 Q914.3684,317.4062 914.5325,317.5922 Q914.6966,317.7672 914.6966,318.1937 L914.6966,319.2109 Q914.6966,319.6375 914.5325,319.8234 Q914.3684,320.0094 914.1059,320.0094 Q913.8653,320.0094 913.7231,319.8672 Q913.5809,319.7359 913.5044,319.375 Q913.4716,319.1234 913.3403,318.9922 Q913.1106,318.7297 912.6841,318.5766 Q912.2575,318.4234 911.82,318.4234 Q911.2841,318.4234 910.8356,318.6531 Q910.3981,318.8828 910.0481,319.4078 Q909.7091,319.9328 909.7091,320.6547 L909.7091,321.4203 Q909.7091,322.2844 910.3325,322.8641 Q910.9559,323.4328 912.0716,323.4328 Q912.7278,323.4328 913.1872,323.2578 Q913.4606,323.1484 913.7559,322.8422 Q913.9419,322.6562 914.0403,322.6016 Q914.1497,322.5469 914.2919,322.5469 Q914.5216,322.5469 914.6966,322.7328 Q914.8825,322.9078 914.8825,323.1484 Q914.8825,323.3891 914.6419,323.6734 Q914.2919,324.0781 913.7341,324.3078 Q912.9794,324.625 912.0716,324.625 Q911.0106,324.625 910.1684,324.1875 Q909.4794,323.8375 908.9981,323.0937 Q908.5169,322.3391 908.5169,321.4422 L908.5169,320.6328 Q908.5169,319.7031 908.9434,318.9047 Q909.3809,318.0953 910.1466,317.6687 Q910.9122,317.2312 911.7762,317.2312 Q912.2903,317.2312 912.7387,317.3516 Q913.1981,317.4609 913.5809,317.7125 Z " fill="#000000"/><text fill="#000000" font-family="sans-serif" font-size="9.8" lengthAdjust="spacing" textLength="95.2" x="921.655" y="323.9975">PassportCardNumber</text><line style="stroke:#181818;stroke-width:0.3499999999999999;" x1="900.9" x2="1019.2" y1="331.8" y2="331.8"/><text fill="#000000" font-family="sans-serif" font-size="9.8" lengthAdjust="spacing" textLength="111.3" x="904.4" y="343.4717">-int passportCardNumber</text><line style="stroke:#181818;stroke-width:0.3499999999999999;" x1="900.9" x2="1019.2" y1="348.3484" y2="348.3484"/></g><!--link CreateRequestUI to CreateRequestController--><g id="link_CreateRequestUI_CreateRequestController"><path codeLine="123" d="M558.95,38.556 C558.95,57.946 558.95,91.546 558.95,121.002 " fill="none" id="CreateRequestUI-to-CreateRequestController" style="stroke:#181818;stroke-width:0.6999999999999998;stroke-dasharray:7.0,7.0;"/><polygon fill="#181818" points="558.95,124.572,561.75,118.272,558.95,121.072,556.15,118.272,558.95,124.572" style="stroke:#181818;stroke-width:0.6999999999999998;"/></g><!--link Repositories to Repositories--><g id="link_Repositories_Repositories"><path codeLine="124" d="M606.942,456.113 C621.019,457.086 631.4,461.034 631.4,467.95 C631.4,474.271 622.727,478.114 610.484,479.472 " fill="none" id="Repositories-to-Repositories" style="stroke:#181818;stroke-width:0.6999999999999998;stroke-dasharray:7.0,7.0;"/><polygon fill="#181818" points="606.942,479.787,613.465,482.0186,610.4283,479.4773,612.9696,476.4406,606.942,479.787" style="stroke:#181818;stroke-width:0.6999999999999998;"/><text fill="#000000" font-family="sans-serif" font-size="9.1" lengthAdjust="spacing" textLength="34.3" x="635.6" y="471.288">instance</text></g><!--link CreateRequestController to Repositories--><g id="link_CreateRequestController_Repositories"><path codeLine="125" d="M556.696,234.57 C554.4,290.038 550.879,374.948 548.786,425.404 " fill="none" id="CreateRequestController-to-Repositories" style="stroke:#181818;stroke-width:0.6999999999999998;stroke-dasharray:7.0,7.0;"/><polygon fill="#181818" points="548.639,428.974,551.6893,422.7913,548.7793,425.4768,546.0938,422.5668,548.639,428.974" style="stroke:#181818;stroke-width:0.6999999999999998;"/><text fill="#000000" font-family="sans-serif" font-size="9.1" lengthAdjust="spacing" textLength="46.9" x="555.45" y="335.138">repositories</text></g><!--link Repositories to AgencyRepository--><g id="link_Repositories_AgencyRepository"><path codeLine="126" d="M547.876,506.807 C548.254,524.216 548.695,544.74 549.066,561.911 " fill="none" id="Repositories-to-AgencyRepository" style="stroke:#181818;stroke-width:0.6999999999999998;"/><polygon fill="#181818" points="549.143,565.523,551.7983,559.1607,549.063,562.0239,546.1998,559.2886,549.143,565.523" style="stroke:#181818;stroke-width:0.6999999999999998;"/></g><!--link Repositories to RequestRepository--><g id="link_Repositories_RequestRepository"><path codeLine="127" d="M509.103,506.807 C489.51,526.505 465.969,550.172 447.755,568.484 " fill="none" id="Repositories-to-RequestRepository" style="stroke:#181818;stroke-width:0.6999999999999998;"/><polygon fill="#181818" points="445.109,571.144,451.5336,568.6432,447.5739,568.6592,447.5579,564.6994,445.109,571.144" style="stroke:#181818;stroke-width:0.6999999999999998;"/></g><!--link Location to State--><g id="link_Location_State"><path codeLine="128" d="M1543.248,637.945 C1528.926,652.008 1512.889,667.751 1499.218,681.17 " fill="none" id="Location-to-State" style="stroke:#181818;stroke-width:0.6999999999999998;"/><polygon fill="none" points="1502.494,684.824,1489.068,691.138,1495.627,677.831,1502.494,684.824" style="stroke:#181818;stroke-width:0.6999999999999998;"/></g><!--link Location to City--><g id="link_Location_City"><path codeLine="129" d="M1620.269,637.945 C1634.157,652.008 1649.711,667.751 1662.962,681.17 " fill="none" id="Location-to-City" style="stroke:#181818;stroke-width:0.6999999999999998;"/><polygon fill="none" points="1666.455,677.733,1672.804,691.138,1659.483,684.621,1666.455,677.733" style="stroke:#181818;stroke-width:0.6999999999999998;"/></g><!--link Location to District--><g id="link_Location_District"><path codeLine="130" d="M1582.35,637.945 C1582.35,650.552 1582.35,664.51 1582.35,676.935 " fill="none" id="Location-to-District" style="stroke:#181818;stroke-width:0.6999999999999998;"/><polygon fill="none" points="1587.25,677.138,1582.35,691.138,1577.45,677.138,1587.25,677.138" style="stroke:#181818;stroke-width:0.6999999999999998;"/></g><!--reverse link Property to Residence--><g id="link_Property_Residence"><path codeLine="131" d="M1067.983,520.828 C1067.843,533.862 1067.696,547.596 1067.563,559.818 " fill="none" id="Property-backto-Residence" style="stroke:#181818;stroke-width:0.6999999999999998;"/><polygon fill="none" points="1063.083,520.751,1068.137,506.807,1072.883,520.856,1063.083,520.751" style="stroke:#181818;stroke-width:0.6999999999999998;"/></g><!--link Property to Location--><g id="link_Property_Location"><path codeLine="132" d="M1293.446,506.842 C1384.152,523.782 1477.231,543.557 1519.35,560 C1522.178,561.106 1525.02,562.331 1527.848,563.647 " fill="none" id="Property-to-Location" style="stroke:#181818;stroke-width:0.6999999999999998;"/><polygon fill="#181818" points="1531.166,565.229,1526.6889,559.9864,1528.008,563.72,1524.2744,565.0391,1531.166,565.229" style="stroke:#181818;stroke-width:0.6999999999999998;"/><text fill="#000000" font-family="sans-serif" font-size="9.1" lengthAdjust="spacing" textLength="14.7" x="1446.55" y="536.738">has</text></g><!--link PhotographList to Property--><g id="link_PhotographList_Property"><path codeLine="133" d="M1256.899,354.298 C1224.153,373.94 1175.195,403.298 1135.4,427.161 " fill="none" id="PhotographList-to-Property" style="stroke:#181818;stroke-width:0.6999999999999998;"/><polygon fill="#181818" points="1132.306,429.016,1139.1488,428.1757,1135.3072,427.2153,1136.2676,423.3737,1132.306,429.016" style="stroke:#181818;stroke-width:0.6999999999999998;"/></g><!--reverse link Residence to House--><g id="link_Residence_House"><path codeLine="134" d="M884.52,640.815 C826.868,653.842 764.008,668.045 709.436,680.372 " fill="none" id="Residence-backto-House" style="stroke:#181818;stroke-width:0.6999999999999998;"/><polygon fill="none" points="883.54,636.013,898.282,637.707,885.703,645.568,883.54,636.013" style="stroke:#181818;stroke-width:0.6999999999999998;"/></g><!--link Residence to AvailableEquipment--><g id="link_Residence_AvailableEquipment"><path codeLine="135" d="M1113.644,637.784 C1134.203,654.689 1157.751,674.058 1175.797,688.898 " fill="none" id="Residence-to-AvailableEquipment" style="stroke:#181818;stroke-width:0.6999999999999998;"/><polygon fill="#181818" points="1178.646,691.236,1175.5468,685.0777,1175.9385,689.018,1171.9981,689.4097,1178.646,691.236" style="stroke:#181818;stroke-width:0.6999999999999998;"/></g><!--link Request to Property--><g id="link_Request_Property"><path codeLine="136" d="M777.896,369.117 C781.886,371.56 785.932,373.856 789.95,375.9 C830.739,396.655 877.24,414.099 920.409,428.001 " fill="none" id="Request-to-Property" style="stroke:#181818;stroke-width:0.6999999999999998;"/><polygon fill="#181818" points="923.776,429.079,918.6221,424.5,920.4409,428.0174,916.9235,429.8362,923.776,429.079" style="stroke:#181818;stroke-width:0.6999999999999998;"/><text fill="#000000" font-family="sans-serif" font-size="9.1" lengthAdjust="spacing" textLength="44.1" x="864.85" y="405.838">announces</text></g><!--reverse link House to SunExposure--><g id="link_House_SunExposure"><path codeLine="137" d="M565.25,761.11 C565.25,770.98 565.25,780.948 565.25,789.369 " fill="none" id="House-backto-SunExposure" style="stroke:#181818;stroke-width:0.6999999999999998;"/><polygon fill="none" points="560.35,760.9,565.25,746.9,570.15,760.9,560.35,760.9" style="stroke:#181818;stroke-width:0.6999999999999998;"/></g><!--link Request to Rent--><g id="link_Request_Rent"><path codeLine="138" d="M731.787,376.061 C732.802,397.831 733.999,423.409 734.867,441.924 " fill="none" id="Request-to-Rent" style="stroke:#181818;stroke-width:0.6999999999999998;"/><polygon fill="#181818" points="735.035,445.536,737.5435,439.1144,734.8747,442.0397,731.9494,439.3708,735.035,445.536" style="stroke:#181818;stroke-width:0.6999999999999998;"/><text fill="#000000" font-family="sans-serif" font-size="9.1" lengthAdjust="spacing" textLength="27.3" x="734.65" y="405.838">can be</text></g><!--link PhotographList to Photograph--><g id="link_PhotographList_Photograph"><path codeLine="139" d="M1306.018,354.452 C1320.018,378.504 1342.418,417.011 1357.09,442.218 " fill="none" id="PhotographList-to-Photograph" style="stroke:#181818;stroke-width:0.6999999999999998;"/><polygon fill="#181818" points="1359.015,445.536,1358.2719,438.682,1357.257,442.5095,1353.4295,441.4947,1359.015,445.536" style="stroke:#181818;stroke-width:0.6999999999999998;"/><text fill="#000000" font-family="sans-serif" font-size="9.1" lengthAdjust="spacing" textLength="14.7" x="1338.05" y="405.838">has</text><text fill="#000000" font-family="sans-serif" font-size="9.1" lengthAdjust="spacing" textLength="23.1" x="1330.6245" y="438.0666">1...30</text></g><!--link CreateRequestController to Request--><g id="link_CreateRequestController_Request"><path codeLine="140" d="M620.613,234.71 C639.737,251.601 660.59,270.018 678.895,286.181 " fill="none" id="CreateRequestController-to-Request" style="stroke:#181818;stroke-width:0.6999999999999998;"/><polygon fill="#181818" points="681.576,288.554,678.7156,282.2812,678.9557,286.2337,675.0031,286.4737,681.576,288.554" style="stroke:#181818;stroke-width:0.6999999999999998;"/></g><!--link Owner to Property--><g id="link_Owner_Property"><path codeLine="141" d="M985.369,212.968 C1001.385,233.24 1020.516,260.526 1032.15,287.7 C1051.337,332.528 1060.598,388.052 1064.938,425.39 " fill="none" id="Owner-to-Property" style="stroke:#181818;stroke-width:0.6999999999999998;"/><polygon fill="#181818" points="1065.344,428.946,1067.4249,422.3734,1064.9542,425.4678,1061.8598,422.997,1065.344,428.946" style="stroke:#181818;stroke-width:0.6999999999999998;"/><text fill="#000000" font-family="sans-serif" font-size="9.1" lengthAdjust="spacing" textLength="21" x="1058.75" y="335.138">owns</text></g><!--link Owner to TaxNumber--><g id="link_Owner_TaxNumber"><path codeLine="142" d="M941.423,212.898 C932.554,229.726 920.654,250.138 907.55,266.7 C901.859,273.896 887.943,287.182 874.125,299.824 " fill="none" id="Owner-to-TaxNumber" style="stroke:#181818;stroke-width:0.6999999999999998;"/><polygon fill="none" points="877.38,303.485,863.716,309.253,870.8,296.226,877.38,303.485" style="stroke:#181818;stroke-width:0.6999999999999998;"/><text fill="#000000" font-family="sans-serif" font-size="9.1" lengthAdjust="spacing" textLength="14.7" x="916.65" y="264.438">has</text></g><!--link Owner to PassportCardNumber--><g id="link_Owner_PassportCardNumber"><path codeLine="143" d="M957.859,212.982 C958.307,237.279 958.923,270.389 959.385,295.372 " fill="none" id="Owner-to-PassportCardNumber" style="stroke:#181818;stroke-width:0.6999999999999998;"/><polygon fill="none" points="964.285,295.281,959.644,309.372,954.485,295.463,964.285,295.281" style="stroke:#181818;stroke-width:0.6999999999999998;"/><text fill="#000000" font-family="sans-serif" font-size="9.1" lengthAdjust="spacing" textLength="14.7" x="960.05" y="264.438">has</text></g><!--link Agent to PassportCardNumber--><g id="link_Agent_PassportCardNumber"><path codeLine="144" d="M824.376,212.926 C842.849,229.124 865.501,248.962 885.85,266.7 C898.352,277.599 912.058,289.513 924.259,300.09 " fill="none" id="Agent-to-PassportCardNumber" style="stroke:#181818;stroke-width:0.6999999999999998;"/><polygon fill="none" points="927.584,296.492,934.955,309.365,921.165,303.898,927.584,296.492" style="stroke:#181818;stroke-width:0.6999999999999998;"/><text fill="#000000" font-family="sans-serif" font-size="9.1" lengthAdjust="spacing" textLength="14.7" x="886.55" y="264.438">has</text></g><!--link Agent to TaxNumber--><g id="link_Agent_TaxNumber"><path codeLine="145" d="M780.815,212.982 C778.974,229.544 778.876,249.697 785.05,266.7 C789.271,278.32 796.614,289.31 804.545,298.816 " fill="none" id="Agent-to-TaxNumber" style="stroke:#181818;stroke-width:0.6999999999999998;"/><polygon fill="none" points="808.206,295.561,813.967,309.232,800.94,302.141,808.206,295.561" style="stroke:#181818;stroke-width:0.6999999999999998;"/><text fill="#000000" font-family="sans-serif" font-size="9.1" lengthAdjust="spacing" textLength="14.7" x="785.75" y="264.438">has</text></g><!--link Owner to Request--><g id="link_Owner_Request"><path codeLine="146" d="M907.046,211.197 C873.502,232.19 828.597,260.897 789.95,287.7 C787.01,289.737 784,291.844 780.976,293.979 " fill="none" id="Owner-to-Request" style="stroke:#181818;stroke-width:0.6999999999999998;"/><polygon fill="#181818" points="777.938,296.121,784.6992,294.7735,780.7968,294.1018,781.4686,290.1994,777.938,296.121" style="stroke:#181818;stroke-width:0.6999999999999998;"/><text fill="#000000" font-family="sans-serif" font-size="9.1" lengthAdjust="spacing" textLength="30.1" x="836.15" y="264.438">creates</text><text fill="#000000" font-family="sans-serif" font-size="9.1" lengthAdjust="spacing" textLength="16.8" x="783.3315" y="290.702">1...*</text></g><!--link Agent to Request--><g id="link_Agent_Request"><path codeLine="147" d="M767.452,212.912 C760.298,225.827 752.654,241.024 747.25,255.5 C743.869,264.551 741.013,274.456 738.647,284.039 " fill="none" id="Agent-to-Request" style="stroke:#181818;stroke-width:0.6999999999999998;"/><polygon fill="#181818" points="737.793,287.546,742.0072,282.0898,738.623,284.1458,736.5669,280.7617,737.793,287.546" style="stroke:#181818;stroke-width:0.6999999999999998;"/><text fill="#000000" font-family="sans-serif" font-size="9.1" lengthAdjust="spacing" textLength="28" x="747.95" y="264.438">revises</text></g><!--SRC=[rLLjJzim4FwUNs7nYMrfnRHlQ4A2mhHAYA8MVe0RNrjhYHri1oXb_trdEucTbqf8aoRjIrFVFVVSFUUphNznKL952vBbLEjBOnHVLmRccHGh_WRaBD4j9ES2pBu4Kifyd-y598cB8ZC5rC0IdYhGvd5-I7wFUcPI62Np7DGX-NB4SwgyPGcbrDn8jKy9tOB8zi7ogOc-tqaZjugMkzF7vHpDMp0FME1YK_EUUjkb8wWNLugAR1Tv72gBoq53gw1Doq4Vaacyh3dcGXkaX7gvx0le5D4nHqbwCGSNSgza2ShihQPRtigfqP6r9UedEKIf8mRVWyZW-g3xRA6_g9oiS3R4bc2dBM80iS48eum5suDq_wrh81QnDIEsprIwNJBSYCNc2hPSj3OGx1hDZZxQssUQSpQ-RqtlC0sJrJe7Gd6BsmNZVjD-A5dCkDdFK3-erbqgda5_AkmScZjQG8h-i3EfOqv9BZDgk1Jf4VBKi-AdqpFIcGFD6UuLXAf5LQn1sNum9MMXXmvgTkEUUwhmx6vN9Sr0_ninwQ3UT5XeEbuXfdwcFASeuUQfucM1YUBH7ZYnIMifSw22G6CB-9-oqX13Nh4-szl5vlAAQd3eril5ZgwviVotScF-pswbeoBJlhYKw4hSlE8TKIc8EhmArd0u6LUGMMq1TrkhHH0NXZ0frPqhqQytUMIeMTvuEPCCeYEl06yTnXHe7LM0Dm5qBmQmNG-8QzI7hJHnWTxInTdU1qo6gwv_wUV7rflPnuTcvhfIj2jqyIBiMzMm2ClWGd0R1VGaGe7RCL3aBjQ_etYWhnvNrskQTNJPuKyfbPbHnJhOSk2mGRttcaocaujZJtKIltWUsR6SutJvaK-EC8m6gMZPIu7W_ZCsH0nUpAIPIdI_N_X9wjdiJFHCpJWbpND1lhzF9k4U3dQRj8qz9pkga-xRvn0DF6aPFA6xZ2AZ4paulqcjgaE5oQWGiXBs4dSydZ8whPquEzaOa-6bjeQn6a- -JgVJRsSdqTjT2pgwWQ7XYJiJf5kVV16wSTYkjXDRyqQkuQJM67TGFeuvag9Mz_cagTTsmgaAqHUHJy4prw3_0000]--></g></svg>