<?xml version="1.0" encoding="us-ascii" standalone="no"?><svg xmlns="http://www.w3.org/2000/svg" xmlns:xlink="http://www.w3.org/1999/xlink" contentStyleType="text/css" height="1126.3px" preserveAspectRatio="none" style="width:1170px;height:1126px;background:#FFFFFF;" version="1.1" viewBox="0 0 1170 1126" width="1170.4px" zoomAndPan="magnify"><defs/><g><!--class CreateRequestUI--><g id="elem_CreateRequestUI"><rect codeLine="4" fill="#F1F1F1" height="33.6" id="CreateRequestUI" rx="1.75" ry="1.75" style="stroke:#181818;stroke-width:0.3499999999999999;" width="98" x="719.95" y="4.9"/><ellipse cx="730.45" cy="16.1" fill="#ADD1B2" rx="7.7" ry="7.7" style="stroke:#181818;stroke-width:0.6999999999999998;"/><path d="M732.3859,13.2125 Q732.4953,13.0594 732.6266,12.9828 Q732.7578,12.9062 732.9109,12.9062 Q733.1734,12.9062 733.3375,13.0922 Q733.5016,13.2672 733.5016,13.6937 L733.5016,14.7109 Q733.5016,15.1375 733.3375,15.3234 Q733.1734,15.5094 732.9109,15.5094 Q732.6703,15.5094 732.5281,15.3672 Q732.3859,15.2359 732.3094,14.875 Q732.2766,14.6234 732.1453,14.4922 Q731.9156,14.2297 731.4891,14.0766 Q731.0625,13.9234 730.625,13.9234 Q730.0891,13.9234 729.6406,14.1531 Q729.2031,14.3828 728.8531,14.9078 Q728.5141,15.4328 728.5141,16.1547 L728.5141,16.9203 Q728.5141,17.7844 729.1375,18.3641 Q729.7609,18.9328 730.8766,18.9328 Q731.5328,18.9328 731.9922,18.7578 Q732.2656,18.6484 732.5609,18.3422 Q732.7469,18.1562 732.8453,18.1016 Q732.9547,18.0469 733.0969,18.0469 Q733.3266,18.0469 733.5016,18.2328 Q733.6875,18.4078 733.6875,18.6484 Q733.6875,18.8891 733.4469,19.1734 Q733.0969,19.5781 732.5391,19.8078 Q731.7844,20.125 730.8766,20.125 Q729.8156,20.125 728.9734,19.6875 Q728.2844,19.3375 727.8031,18.5937 Q727.3219,17.8391 727.3219,16.9422 L727.3219,16.1328 Q727.3219,15.2031 727.7484,14.4047 Q728.1859,13.5953 728.9516,13.1687 Q729.7172,12.7312 730.5812,12.7312 Q731.0953,12.7312 731.5437,12.8516 Q732.0031,12.9609 732.3859,13.2125 Z " fill="#000000"/><text fill="#000000" font-family="sans-serif" font-size="9.8" lengthAdjust="spacing" textLength="75.6" x="740.25" y="19.4975">CreateRequestUI</text><line style="stroke:#181818;stroke-width:0.3499999999999999;" x1="720.65" x2="817.25" y1="27.3" y2="27.3"/><line style="stroke:#181818;stroke-width:0.3499999999999999;" x1="720.65" x2="817.25" y1="32.9" y2="32.9"/></g><!--class CreateRequestController--><g id="elem_CreateRequestController"><rect codeLine="7" fill="#F1F1F1" height="110.2391" id="CreateRequestController" rx="1.75" ry="1.75" style="stroke:#181818;stroke-width:0.3499999999999999;" width="431.2" x="553.35" y="123.2"/><ellipse cx="710.675" cy="134.4" fill="#ADD1B2" rx="7.7" ry="7.7" style="stroke:#181818;stroke-width:0.6999999999999998;"/><path d="M712.6109,131.5125 Q712.7203,131.3594 712.8516,131.2828 Q712.9828,131.2062 713.1359,131.2062 Q713.3984,131.2062 713.5625,131.3922 Q713.7266,131.5672 713.7266,131.9937 L713.7266,133.0109 Q713.7266,133.4375 713.5625,133.6234 Q713.3984,133.8094 713.1359,133.8094 Q712.8953,133.8094 712.7531,133.6672 Q712.6109,133.5359 712.5344,133.175 Q712.5016,132.9234 712.3703,132.7922 Q712.1406,132.5297 711.7141,132.3766 Q711.2875,132.2234 710.85,132.2234 Q710.3141,132.2234 709.8656,132.4531 Q709.4281,132.6828 709.0781,133.2078 Q708.7391,133.7328 708.7391,134.4547 L708.7391,135.2203 Q708.7391,136.0844 709.3625,136.6641 Q709.9859,137.2328 711.1016,137.2328 Q711.7578,137.2328 712.2172,137.0578 Q712.4906,136.9484 712.7859,136.6422 Q712.9719,136.4562 713.0703,136.4016 Q713.1797,136.3469 713.3219,136.3469 Q713.5516,136.3469 713.7266,136.5328 Q713.9125,136.7078 713.9125,136.9484 Q713.9125,137.1891 713.6719,137.4734 Q713.3219,137.8781 712.7641,138.1078 Q712.0094,138.425 711.1016,138.425 Q710.0406,138.425 709.1984,137.9875 Q708.5094,137.6375 708.0281,136.8937 Q707.5469,136.1391 707.5469,135.2422 L707.5469,134.4328 Q707.5469,133.5031 707.9734,132.7047 Q708.4109,131.8953 709.1766,131.4687 Q709.9422,131.0312 710.8062,131.0312 Q711.3203,131.0312 711.7687,131.1516 Q712.2281,131.2609 712.6109,131.5125 Z " fill="#000000"/><text fill="#000000" font-family="sans-serif" font-size="9.8" lengthAdjust="spacing" textLength="110.6" x="725.025" y="137.7975">CreateRequestController</text><line style="stroke:#181818;stroke-width:0.3499999999999999;" x1="554.05" x2="983.85" y1="145.6" y2="145.6"/><text fill="#000000" font-family="sans-serif" font-size="9.8" lengthAdjust="spacing" textLength="71.4" x="557.55" y="157.2717">+createProperty</text><line style="stroke:#181818;stroke-width:0.3499999999999999;" x1="554.05" x2="983.85" y1="162.1484" y2="162.1484"/><text fill="#000000" font-family="sans-serif" font-size="9.8" lengthAdjust="spacing" textLength="422.8" x="557.55" y="173.8201">+createRequestController(requestTypeRepository, propertyTypeRepository, agencyRepository)</text><text fill="#000000" font-family="sans-serif" font-size="9.8" lengthAdjust="spacing" textLength="112" x="557.55" y="184.7686">+getRequestCategories()</text><text fill="#000000" font-family="sans-serif" font-size="9.8" lengthAdjust="spacing" textLength="352.8" x="557.55" y="195.717">+createProperty(area, location, price, distanceFromTheCityCentre, photograph)</text><text fill="#000000" font-family="sans-serif" font-size="9.8" lengthAdjust="spacing" textLength="101.5" x="557.55" y="206.6654">+setContractDuration()</text><text fill="#000000" font-family="sans-serif" font-size="9.8" lengthAdjust="spacing" textLength="59.5" x="557.55" y="217.6139">+getAgency()</text><text fill="#000000" font-family="sans-serif" font-size="9.8" lengthAdjust="spacing" textLength="67.9" x="557.55" y="228.5623">+getAgentList()</text></g><!--class Repositories--><g id="elem_Repositories"><rect codeLine="17" fill="#F1F1F1" height="88.3422" id="Repositories" rx="1.75" ry="1.75" style="stroke:#181818;stroke-width:0.3499999999999999;" width="142.8" x="806.05" y="317.8"/><ellipse cx="846.825" cy="329" fill="#ADD1B2" rx="7.7" ry="7.7" style="stroke:#181818;stroke-width:0.6999999999999998;"/><path d="M848.7609,326.1125 Q848.8703,325.9594 849.0016,325.8828 Q849.1328,325.8062 849.2859,325.8062 Q849.5484,325.8062 849.7125,325.9922 Q849.8766,326.1672 849.8766,326.5937 L849.8766,327.6109 Q849.8766,328.0375 849.7125,328.2234 Q849.5484,328.4094 849.2859,328.4094 Q849.0453,328.4094 848.9031,328.2672 Q848.7609,328.1359 848.6844,327.775 Q848.6516,327.5234 848.5203,327.3922 Q848.2906,327.1297 847.8641,326.9766 Q847.4375,326.8234 847,326.8234 Q846.4641,326.8234 846.0156,327.0531 Q845.5781,327.2828 845.2281,327.8078 Q844.8891,328.3328 844.8891,329.0547 L844.8891,329.8203 Q844.8891,330.6844 845.5125,331.2641 Q846.1359,331.8328 847.2516,331.8328 Q847.9078,331.8328 848.3672,331.6578 Q848.6406,331.5484 848.9359,331.2422 Q849.1219,331.0562 849.2203,331.0016 Q849.3297,330.9469 849.4719,330.9469 Q849.7016,330.9469 849.8766,331.1328 Q850.0625,331.3078 850.0625,331.5484 Q850.0625,331.7891 849.8219,332.0734 Q849.4719,332.4781 848.9141,332.7078 Q848.1594,333.025 847.2516,333.025 Q846.1906,333.025 845.3484,332.5875 Q844.6594,332.2375 844.1781,331.4937 Q843.6969,330.7391 843.6969,329.8422 L843.6969,329.0328 Q843.6969,328.1031 844.1234,327.3047 Q844.5609,326.4953 845.3266,326.0687 Q846.0922,325.6312 846.9562,325.6312 Q847.4703,325.6312 847.9187,325.7516 Q848.3781,325.8609 848.7609,326.1125 Z " fill="#000000"/><text fill="#000000" font-family="sans-serif" font-size="9.8" lengthAdjust="spacing" textLength="55.3" x="861.175" y="332.3975">Repositories</text><line style="stroke:#181818;stroke-width:0.3499999999999999;" x1="806.75" x2="948.15" y1="340.2" y2="340.2"/><text fill="#000000" font-family="sans-serif" font-size="9.8" lengthAdjust="spacing" textLength="58.8" x="810.25" y="351.8717">-Repositories</text><line style="stroke:#181818;stroke-width:0.3499999999999999;" x1="806.75" x2="948.15" y1="356.7484" y2="356.7484"/><text fill="#000000" font-family="sans-serif" font-size="9.8" lengthAdjust="spacing" textLength="121.8" x="810.25" y="368.4201">+getInstance():Repositories</text><text fill="#000000" font-family="sans-serif" font-size="9.8" lengthAdjust="spacing" textLength="133.7" x="810.25" y="379.3686">+getRequestTypeRepository()</text><text fill="#000000" font-family="sans-serif" font-size="9.8" lengthAdjust="spacing" textLength="134.4" x="810.25" y="390.317">+getPropertyTypeRepository()</text><text fill="#000000" font-family="sans-serif" font-size="9.8" lengthAdjust="spacing" textLength="107.1" x="810.25" y="401.2654">+getAgencyRepository()</text></g><!--class PropertyTypeRepository--><g id="elem_PropertyTypeRepository"><rect codeLine="25" fill="#F1F1F1" height="55.4969" id="PropertyTypeRepository" rx="1.75" ry="1.75" style="stroke:#181818;stroke-width:0.3499999999999999;" width="205.1" x="585.2" y="448"/><ellipse cx="630.875" cy="459.2" fill="#ADD1B2" rx="7.7" ry="7.7" style="stroke:#181818;stroke-width:0.6999999999999998;"/><path d="M632.8109,456.3125 Q632.9203,456.1594 633.0516,456.0828 Q633.1828,456.0062 633.3359,456.0062 Q633.5984,456.0062 633.7625,456.1922 Q633.9266,456.3672 633.9266,456.7937 L633.9266,457.8109 Q633.9266,458.2375 633.7625,458.4234 Q633.5984,458.6094 633.3359,458.6094 Q633.0953,458.6094 632.9531,458.4672 Q632.8109,458.3359 632.7344,457.975 Q632.7016,457.7234 632.5703,457.5922 Q632.3406,457.3297 631.9141,457.1766 Q631.4875,457.0234 631.05,457.0234 Q630.5141,457.0234 630.0656,457.2531 Q629.6281,457.4828 629.2781,458.0078 Q628.9391,458.5328 628.9391,459.2547 L628.9391,460.0203 Q628.9391,460.8844 629.5625,461.4641 Q630.1859,462.0328 631.3016,462.0328 Q631.9578,462.0328 632.4172,461.8578 Q632.6906,461.7484 632.9859,461.4422 Q633.1719,461.2562 633.2703,461.2016 Q633.3797,461.1469 633.5219,461.1469 Q633.7516,461.1469 633.9266,461.3328 Q634.1125,461.5078 634.1125,461.7484 Q634.1125,461.9891 633.8719,462.2734 Q633.5219,462.6781 632.9641,462.9078 Q632.2094,463.225 631.3016,463.225 Q630.2406,463.225 629.3984,462.7875 Q628.7094,462.4375 628.2281,461.6937 Q627.7469,460.9391 627.7469,460.0422 L627.7469,459.2328 Q627.7469,458.3031 628.1734,457.5047 Q628.6109,456.6953 629.3766,456.2687 Q630.1422,455.8312 631.0062,455.8312 Q631.5203,455.8312 631.9687,455.9516 Q632.4281,456.0609 632.8109,456.3125 Z " fill="#000000"/><text fill="#000000" font-family="sans-serif" font-size="9.8" lengthAdjust="spacing" textLength="107.8" x="645.225" y="462.5975">PropertyTypeRepository</text><line style="stroke:#181818;stroke-width:0.3499999999999999;" x1="585.9" x2="789.6" y1="470.4" y2="470.4"/><text fill="#000000" font-family="sans-serif" font-size="9.8" lengthAdjust="spacing" textLength="196.7" x="589.4" y="482.0717">-String List&lt;PropertyType&gt; propertyTypeList</text><line style="stroke:#181818;stroke-width:0.3499999999999999;" x1="585.9" x2="789.6" y1="486.9484" y2="486.9484"/><text fill="#000000" font-family="sans-serif" font-size="9.8" lengthAdjust="spacing" textLength="86.8" x="589.4" y="498.6201">+getPropertyType()</text></g><!--class AgencyTypeRepository--><g id="elem_AgencyTypeRepository"><rect codeLine="30" fill="#F1F1F1" height="55.4969" id="AgencyTypeRepository" rx="1.75" ry="1.75" style="stroke:#181818;stroke-width:0.3499999999999999;" width="125.3" x="814.8" y="448"/><ellipse cx="825.3" cy="459.2" fill="#ADD1B2" rx="7.7" ry="7.7" style="stroke:#181818;stroke-width:0.6999999999999998;"/><path d="M827.2359,456.3125 Q827.3453,456.1594 827.4766,456.0828 Q827.6078,456.0062 827.7609,456.0062 Q828.0234,456.0062 828.1875,456.1922 Q828.3516,456.3672 828.3516,456.7937 L828.3516,457.8109 Q828.3516,458.2375 828.1875,458.4234 Q828.0234,458.6094 827.7609,458.6094 Q827.5203,458.6094 827.3781,458.4672 Q827.2359,458.3359 827.1594,457.975 Q827.1266,457.7234 826.9953,457.5922 Q826.7656,457.3297 826.3391,457.1766 Q825.9125,457.0234 825.475,457.0234 Q824.9391,457.0234 824.4906,457.2531 Q824.0531,457.4828 823.7031,458.0078 Q823.3641,458.5328 823.3641,459.2547 L823.3641,460.0203 Q823.3641,460.8844 823.9875,461.4641 Q824.6109,462.0328 825.7266,462.0328 Q826.3828,462.0328 826.8422,461.8578 Q827.1156,461.7484 827.4109,461.4422 Q827.5969,461.2562 827.6953,461.2016 Q827.8047,461.1469 827.9469,461.1469 Q828.1766,461.1469 828.3516,461.3328 Q828.5375,461.5078 828.5375,461.7484 Q828.5375,461.9891 828.2969,462.2734 Q827.9469,462.6781 827.3891,462.9078 Q826.6344,463.225 825.7266,463.225 Q824.6656,463.225 823.8234,462.7875 Q823.1344,462.4375 822.6531,461.6937 Q822.1719,460.9391 822.1719,460.0422 L822.1719,459.2328 Q822.1719,458.3031 822.5984,457.5047 Q823.0359,456.6953 823.8016,456.2687 Q824.5672,455.8312 825.4312,455.8312 Q825.9453,455.8312 826.3937,455.9516 Q826.8531,456.0609 827.2359,456.3125 Z " fill="#000000"/><text fill="#000000" font-family="sans-serif" font-size="9.8" lengthAdjust="spacing" textLength="102.9" x="835.1" y="462.5975">AgencyTypeRepository</text><line style="stroke:#181818;stroke-width:0.3499999999999999;" x1="815.5" x2="939.4" y1="470.4" y2="470.4"/><text fill="#000000" font-family="sans-serif" font-size="9.8" lengthAdjust="spacing" textLength="116.2" x="819" y="482.0717">-agencyList: List&lt;Agency&gt;</text><line style="stroke:#181818;stroke-width:0.3499999999999999;" x1="815.5" x2="939.4" y1="486.9484" y2="486.9484"/><text fill="#000000" font-family="sans-serif" font-size="9.8" lengthAdjust="spacing" textLength="74.9" x="819" y="498.6201">+getAgencyList()</text></g><!--class Agency--><g id="elem_Agency"><rect codeLine="35" fill="#F1F1F1" height="99.2906" id="Agency" rx="1.75" ry="1.75" style="stroke:#181818;stroke-width:0.3499999999999999;" width="171.5" x="627.2" y="545.3"/><ellipse cx="693.525" cy="556.5" fill="#ADD1B2" rx="7.7" ry="7.7" style="stroke:#181818;stroke-width:0.6999999999999998;"/><path d="M695.4609,553.6125 Q695.5703,553.4594 695.7016,553.3828 Q695.8328,553.3062 695.9859,553.3062 Q696.2484,553.3062 696.4125,553.4922 Q696.5766,553.6672 696.5766,554.0937 L696.5766,555.1109 Q696.5766,555.5375 696.4125,555.7234 Q696.2484,555.9094 695.9859,555.9094 Q695.7453,555.9094 695.6031,555.7672 Q695.4609,555.6359 695.3844,555.275 Q695.3516,555.0234 695.2203,554.8922 Q694.9906,554.6297 694.5641,554.4766 Q694.1375,554.3234 693.7,554.3234 Q693.1641,554.3234 692.7156,554.5531 Q692.2781,554.7828 691.9281,555.3078 Q691.5891,555.8328 691.5891,556.5547 L691.5891,557.3203 Q691.5891,558.1844 692.2125,558.7641 Q692.8359,559.3328 693.9516,559.3328 Q694.6078,559.3328 695.0672,559.1578 Q695.3406,559.0484 695.6359,558.7422 Q695.8219,558.5562 695.9203,558.5016 Q696.0297,558.4469 696.1719,558.4469 Q696.4016,558.4469 696.5766,558.6328 Q696.7625,558.8078 696.7625,559.0484 Q696.7625,559.2891 696.5219,559.5734 Q696.1719,559.9781 695.6141,560.2078 Q694.8594,560.525 693.9516,560.525 Q692.8906,560.525 692.0484,560.0875 Q691.3594,559.7375 690.8781,558.9937 Q690.3969,558.2391 690.3969,557.3422 L690.3969,556.5328 Q690.3969,555.6031 690.8234,554.8047 Q691.2609,553.9953 692.0266,553.5687 Q692.7922,553.1312 693.6562,553.1312 Q694.1703,553.1312 694.6187,553.2516 Q695.0781,553.3609 695.4609,553.6125 Z " fill="#000000"/><text fill="#000000" font-family="sans-serif" font-size="9.8" lengthAdjust="spacing" textLength="32.9" x="707.875" y="559.8975">Agency</text><line style="stroke:#181818;stroke-width:0.3499999999999999;" x1="627.9" x2="798" y1="567.7" y2="567.7"/><text fill="#000000" font-family="sans-serif" font-size="9.8" lengthAdjust="spacing" textLength="66.5" x="631.4" y="579.3717">-String location</text><text fill="#000000" font-family="sans-serif" font-size="9.8" lengthAdjust="spacing" textLength="83.3" x="631.4" y="590.3201">-String designation</text><text fill="#000000" font-family="sans-serif" font-size="9.8" lengthAdjust="spacing" textLength="147.7" x="631.4" y="601.2686">-String List&lt;Request&gt; requestList</text><text fill="#000000" font-family="sans-serif" font-size="9.8" lengthAdjust="spacing" textLength="163.1" x="631.4" y="612.217">-String List&lt;Employee&gt; employeeList</text><line style="stroke:#181818;stroke-width:0.3499999999999999;" x1="627.9" x2="798" y1="617.0937" y2="617.0937"/><text fill="#000000" font-family="sans-serif" font-size="9.8" lengthAdjust="spacing" textLength="133.7" x="631.4" y="628.7654">+createRequest(requestType)</text><text fill="#000000" font-family="sans-serif" font-size="9.8" lengthAdjust="spacing" textLength="137.9" x="631.4" y="639.7139">+getAgentList(selectedAgency)</text></g><!--class RequestTypeRepository--><g id="elem_RequestTypeRepository"><rect codeLine="44" fill="#F1F1F1" height="55.4969" id="RequestTypeRepository" rx="1.75" ry="1.75" style="stroke:#181818;stroke-width:0.3499999999999999;" width="200.9" x="964.6" y="448"/><ellipse cx="1008.525" cy="459.2" fill="#ADD1B2" rx="7.7" ry="7.7" style="stroke:#181818;stroke-width:0.6999999999999998;"/><path d="M1010.4609,456.3125 Q1010.5703,456.1594 1010.7016,456.0828 Q1010.8328,456.0062 1010.9859,456.0062 Q1011.2484,456.0062 1011.4125,456.1922 Q1011.5766,456.3672 1011.5766,456.7937 L1011.5766,457.8109 Q1011.5766,458.2375 1011.4125,458.4234 Q1011.2484,458.6094 1010.9859,458.6094 Q1010.7453,458.6094 1010.6031,458.4672 Q1010.4609,458.3359 1010.3844,457.975 Q1010.3516,457.7234 1010.2203,457.5922 Q1009.9906,457.3297 1009.5641,457.1766 Q1009.1375,457.0234 1008.7,457.0234 Q1008.1641,457.0234 1007.7156,457.2531 Q1007.2781,457.4828 1006.9281,458.0078 Q1006.5891,458.5328 1006.5891,459.2547 L1006.5891,460.0203 Q1006.5891,460.8844 1007.2125,461.4641 Q1007.8359,462.0328 1008.9516,462.0328 Q1009.6078,462.0328 1010.0672,461.8578 Q1010.3406,461.7484 1010.6359,461.4422 Q1010.8219,461.2562 1010.9203,461.2016 Q1011.0297,461.1469 1011.1719,461.1469 Q1011.4016,461.1469 1011.5766,461.3328 Q1011.7625,461.5078 1011.7625,461.7484 Q1011.7625,461.9891 1011.5219,462.2734 Q1011.1719,462.6781 1010.6141,462.9078 Q1009.8594,463.225 1008.9516,463.225 Q1007.8906,463.225 1007.0484,462.7875 Q1006.3594,462.4375 1005.8781,461.6937 Q1005.3969,460.9391 1005.3969,460.0422 L1005.3969,459.2328 Q1005.3969,458.3031 1005.8234,457.5047 Q1006.2609,456.6953 1007.0266,456.2687 Q1007.7922,455.8312 1008.6562,455.8312 Q1009.1703,455.8312 1009.6187,455.9516 Q1010.0781,456.0609 1010.4609,456.3125 Z " fill="#000000"/><text fill="#000000" font-family="sans-serif" font-size="9.8" lengthAdjust="spacing" textLength="107.1" x="1022.875" y="462.5975">RequestTypeRepository</text><line style="stroke:#181818;stroke-width:0.3499999999999999;" x1="965.3" x2="1164.8" y1="470.4" y2="470.4"/><text fill="#000000" font-family="sans-serif" font-size="9.8" lengthAdjust="spacing" textLength="192.5" x="968.8" y="482.0717">-String List&lt;RequestType&gt; requestTypeList</text><line style="stroke:#181818;stroke-width:0.3499999999999999;" x1="965.3" x2="1164.8" y1="486.9484" y2="486.9484"/><text fill="#000000" font-family="sans-serif" font-size="9.8" lengthAdjust="spacing" textLength="86.1" x="968.8" y="498.6201">+getRequestType()</text></g><!--class Request--><g id="elem_Request"><rect codeLine="49" fill="#F1F1F1" height="121.1875" id="Request" rx="1.75" ry="1.75" style="stroke:#181818;stroke-width:0.3499999999999999;" width="490" x="185.85" y="686.7"/><ellipse cx="409.325" cy="697.9" fill="#ADD1B2" rx="7.7" ry="7.7" style="stroke:#181818;stroke-width:0.6999999999999998;"/><path d="M411.2609,695.0125 Q411.3703,694.8594 411.5016,694.7828 Q411.6328,694.7062 411.7859,694.7062 Q412.0484,694.7062 412.2125,694.8922 Q412.3766,695.0672 412.3766,695.4937 L412.3766,696.5109 Q412.3766,696.9375 412.2125,697.1234 Q412.0484,697.3094 411.7859,697.3094 Q411.5453,697.3094 411.4031,697.1672 Q411.2609,697.0359 411.1844,696.675 Q411.1516,696.4234 411.0203,696.2922 Q410.7906,696.0297 410.3641,695.8766 Q409.9375,695.7234 409.5,695.7234 Q408.9641,695.7234 408.5156,695.9531 Q408.0781,696.1828 407.7281,696.7078 Q407.3891,697.2328 407.3891,697.9547 L407.3891,698.7203 Q407.3891,699.5844 408.0125,700.1641 Q408.6359,700.7328 409.7516,700.7328 Q410.4078,700.7328 410.8672,700.5578 Q411.1406,700.4484 411.4359,700.1422 Q411.6219,699.9562 411.7203,699.9016 Q411.8297,699.8469 411.9719,699.8469 Q412.2016,699.8469 412.3766,700.0328 Q412.5625,700.2078 412.5625,700.4484 Q412.5625,700.6891 412.3219,700.9734 Q411.9719,701.3781 411.4141,701.6078 Q410.6594,701.925 409.7516,701.925 Q408.6906,701.925 407.8484,701.4875 Q407.1594,701.1375 406.6781,700.3937 Q406.1969,699.6391 406.1969,698.7422 L406.1969,697.9328 Q406.1969,697.0031 406.6234,696.2047 Q407.0609,695.3953 407.8266,694.9687 Q408.5922,694.5312 409.4562,694.5312 Q409.9703,694.5312 410.4187,694.6516 Q410.8781,694.7609 411.2609,695.0125 Z " fill="#000000"/><text fill="#000000" font-family="sans-serif" font-size="9.8" lengthAdjust="spacing" textLength="37.1" x="423.675" y="701.2975">Request</text><line style="stroke:#181818;stroke-width:0.3499999999999999;" x1="186.55" x2="675.15" y1="709.1" y2="709.1"/><text fill="#000000" font-family="sans-serif" font-size="9.8" lengthAdjust="spacing" textLength="98.7" x="190.05" y="720.7717">-boolean requestState</text><text fill="#000000" font-family="sans-serif" font-size="9.8" lengthAdjust="spacing" textLength="51.8" x="190.05" y="731.7201">-String date</text><text fill="#000000" font-family="sans-serif" font-size="9.8" lengthAdjust="spacing" textLength="94.5" x="190.05" y="742.6686">-String requestOwner</text><line style="stroke:#181818;stroke-width:0.3499999999999999;" x1="186.55" x2="675.15" y1="747.5453" y2="747.5453"/><text fill="#000000" font-family="sans-serif" font-size="9.8" lengthAdjust="spacing" textLength="145.6" x="190.05" y="759.217">+setPropertyType(propertyType)</text><text fill="#000000" font-family="sans-serif" font-size="9.8" lengthAdjust="spacing" textLength="368.2" x="190.05" y="770.1654">+createProperty(area, location, distanceFromTheCityCentre, price, photographList)</text><text fill="#000000" font-family="sans-serif" font-size="9.8" lengthAdjust="spacing" textLength="104.3" x="190.05" y="781.1139">+addProperty(property)</text><text fill="#000000" font-family="sans-serif" font-size="9.8" lengthAdjust="spacing" textLength="481.6" x="190.05" y="792.0623">+createResidence(numberOfBedrooms, numberOfBathrooms, numberOfParkingSpaces, availableEquipment)</text><text fill="#000000" font-family="sans-serif" font-size="9.8" lengthAdjust="spacing" textLength="245.7" x="190.05" y="803.0107">+createHouse(basement, inhabitableLoft, sunExposure)</text></g><!--class Property--><g id="elem_Property"><rect codeLine="60" fill="#F1F1F1" height="88.3422" id="Property" rx="1.75" ry="1.75" style="stroke:#181818;stroke-width:0.3499999999999999;" width="187.6" x="156.45" y="849.8"/><ellipse cx="228.375" cy="861" fill="#ADD1B2" rx="7.7" ry="7.7" style="stroke:#181818;stroke-width:0.6999999999999998;"/><path d="M230.3109,858.1125 Q230.4203,857.9594 230.5516,857.8828 Q230.6828,857.8062 230.8359,857.8062 Q231.0984,857.8062 231.2625,857.9922 Q231.4266,858.1672 231.4266,858.5937 L231.4266,859.6109 Q231.4266,860.0375 231.2625,860.2234 Q231.0984,860.4094 230.8359,860.4094 Q230.5953,860.4094 230.4531,860.2672 Q230.3109,860.1359 230.2344,859.775 Q230.2016,859.5234 230.0703,859.3922 Q229.8406,859.1297 229.4141,858.9766 Q228.9875,858.8234 228.55,858.8234 Q228.0141,858.8234 227.5656,859.0531 Q227.1281,859.2828 226.7781,859.8078 Q226.4391,860.3328 226.4391,861.0547 L226.4391,861.8203 Q226.4391,862.6844 227.0625,863.2641 Q227.6859,863.8328 228.8016,863.8328 Q229.4578,863.8328 229.9172,863.6578 Q230.1906,863.5484 230.4859,863.2422 Q230.6719,863.0562 230.7703,863.0016 Q230.8797,862.9469 231.0219,862.9469 Q231.2516,862.9469 231.4266,863.1328 Q231.6125,863.3078 231.6125,863.5484 Q231.6125,863.7891 231.3719,864.0734 Q231.0219,864.4781 230.4641,864.7078 Q229.7094,865.025 228.8016,865.025 Q227.7406,865.025 226.8984,864.5875 Q226.2094,864.2375 225.7281,863.4937 Q225.2469,862.7391 225.2469,861.8422 L225.2469,861.0328 Q225.2469,860.1031 225.6734,859.3047 Q226.1109,858.4953 226.8766,858.0687 Q227.6422,857.6312 228.5062,857.6312 Q229.0203,857.6312 229.4687,857.7516 Q229.9281,857.8609 230.3109,858.1125 Z " fill="#000000"/><text fill="#000000" font-family="sans-serif" font-size="9.8" lengthAdjust="spacing" textLength="37.8" x="242.725" y="864.3975">Property</text><line style="stroke:#181818;stroke-width:0.3499999999999999;" x1="157.15" x2="343.35" y1="872.2" y2="872.2"/><text fill="#000000" font-family="sans-serif" font-size="9.8" lengthAdjust="spacing" textLength="57.4" x="160.65" y="883.8717">-Integer area</text><text fill="#000000" font-family="sans-serif" font-size="9.8" lengthAdjust="spacing" textLength="66.5" x="160.65" y="894.8201">-String location</text><text fill="#000000" font-family="sans-serif" font-size="9.8" lengthAdjust="spacing" textLength="161" x="160.65" y="905.7686">-double distanceFromTheCityCentre</text><text fill="#000000" font-family="sans-serif" font-size="9.8" lengthAdjust="spacing" textLength="58.8" x="160.65" y="916.717">-Integer price</text><text fill="#000000" font-family="sans-serif" font-size="9.8" lengthAdjust="spacing" textLength="179.2" x="160.65" y="927.6654">-String List&lt;photograph&gt; photographList</text><line style="stroke:#181818;stroke-width:0.3499999999999999;" x1="157.15" x2="343.35" y1="932.5422" y2="932.5422"/></g><!--class Owner--><g id="elem_Owner"><rect codeLine="68" fill="#F1F1F1" height="55.4969" id="Owner" rx="1.75" ry="1.75" style="stroke:#181818;stroke-width:0.3499999999999999;" width="140" x="535.85" y="866.25"/><ellipse cx="588.525" cy="877.45" fill="#ADD1B2" rx="7.7" ry="7.7" style="stroke:#181818;stroke-width:0.6999999999999998;"/><path d="M590.4609,874.5625 Q590.5703,874.4094 590.7016,874.3328 Q590.8328,874.2562 590.9859,874.2562 Q591.2484,874.2562 591.4125,874.4422 Q591.5766,874.6172 591.5766,875.0437 L591.5766,876.0609 Q591.5766,876.4875 591.4125,876.6734 Q591.2484,876.8594 590.9859,876.8594 Q590.7453,876.8594 590.6031,876.7172 Q590.4609,876.5859 590.3844,876.225 Q590.3516,875.9734 590.2203,875.8422 Q589.9906,875.5797 589.5641,875.4266 Q589.1375,875.2734 588.7,875.2734 Q588.1641,875.2734 587.7156,875.5031 Q587.2781,875.7328 586.9281,876.2578 Q586.5891,876.7828 586.5891,877.5047 L586.5891,878.2703 Q586.5891,879.1344 587.2125,879.7141 Q587.8359,880.2828 588.9516,880.2828 Q589.6078,880.2828 590.0672,880.1078 Q590.3406,879.9984 590.6359,879.6922 Q590.8219,879.5062 590.9203,879.4516 Q591.0297,879.3969 591.1719,879.3969 Q591.4016,879.3969 591.5766,879.5828 Q591.7625,879.7578 591.7625,879.9984 Q591.7625,880.2391 591.5219,880.5234 Q591.1719,880.9281 590.6141,881.1578 Q589.8594,881.475 588.9516,881.475 Q587.8906,881.475 587.0484,881.0375 Q586.3594,880.6875 585.8781,879.9437 Q585.3969,879.1891 585.3969,878.2922 L585.3969,877.4828 Q585.3969,876.5531 585.8234,875.7547 Q586.2609,874.9453 587.0266,874.5187 Q587.7922,874.0812 588.6562,874.0812 Q589.1703,874.0812 589.6187,874.2016 Q590.0781,874.3109 590.4609,874.5625 Z " fill="#000000"/><text fill="#000000" font-family="sans-serif" font-size="9.8" lengthAdjust="spacing" textLength="28.7" x="602.875" y="880.8475">Owner</text><line style="stroke:#181818;stroke-width:0.3499999999999999;" x1="536.55" x2="675.15" y1="888.65" y2="888.65"/><text fill="#000000" font-family="sans-serif" font-size="9.8" lengthAdjust="spacing" textLength="56.7" x="540.05" y="900.3217">-String name</text><text fill="#000000" font-family="sans-serif" font-size="9.8" lengthAdjust="spacing" textLength="131.6" x="540.05" y="911.2701">-Integer passportCardNumber</text><line style="stroke:#181818;stroke-width:0.3499999999999999;" x1="536.55" x2="675.15" y1="916.1469" y2="916.1469"/></g><!--class Residence--><g id="elem_Residence"><rect codeLine="73" fill="#F1F1F1" height="77.3937" id="Residence" rx="1.75" ry="1.75" style="stroke:#181818;stroke-width:0.3499999999999999;" width="156.1" x="4.9" y="708.4"/><ellipse cx="56.525" cy="719.6" fill="#ADD1B2" rx="7.7" ry="7.7" style="stroke:#181818;stroke-width:0.6999999999999998;"/><path d="M58.4609,716.7125 Q58.5703,716.5594 58.7016,716.4828 Q58.8328,716.4062 58.9859,716.4062 Q59.2484,716.4062 59.4125,716.5922 Q59.5766,716.7672 59.5766,717.1937 L59.5766,718.2109 Q59.5766,718.6375 59.4125,718.8234 Q59.2484,719.0094 58.9859,719.0094 Q58.7453,719.0094 58.6031,718.8672 Q58.4609,718.7359 58.3844,718.375 Q58.3516,718.1234 58.2203,717.9922 Q57.9906,717.7297 57.5641,717.5766 Q57.1375,717.4234 56.7,717.4234 Q56.1641,717.4234 55.7156,717.6531 Q55.2781,717.8828 54.9281,718.4078 Q54.5891,718.9328 54.5891,719.6547 L54.5891,720.4203 Q54.5891,721.2844 55.2125,721.8641 Q55.8359,722.4328 56.9516,722.4328 Q57.6078,722.4328 58.0672,722.2578 Q58.3406,722.1484 58.6359,721.8422 Q58.8219,721.6562 58.9203,721.6016 Q59.0297,721.5469 59.1719,721.5469 Q59.4016,721.5469 59.5766,721.7328 Q59.7625,721.9078 59.7625,722.1484 Q59.7625,722.3891 59.5219,722.6734 Q59.1719,723.0781 58.6141,723.3078 Q57.8594,723.625 56.9516,723.625 Q55.8906,723.625 55.0484,723.1875 Q54.3594,722.8375 53.8781,722.0937 Q53.3969,721.3391 53.3969,720.4422 L53.3969,719.6328 Q53.3969,718.7031 53.8234,717.9047 Q54.2609,717.0953 55.0266,716.6687 Q55.7922,716.2312 56.6562,716.2312 Q57.1703,716.2312 57.6187,716.3516 Q58.0781,716.4609 58.4609,716.7125 Z " fill="#000000"/><text fill="#000000" font-family="sans-serif" font-size="9.8" lengthAdjust="spacing" textLength="46.9" x="70.875" y="722.9975">Residence</text><line style="stroke:#181818;stroke-width:0.3499999999999999;" x1="5.6" x2="160.3" y1="730.8" y2="730.8"/><text fill="#000000" font-family="sans-serif" font-size="9.8" lengthAdjust="spacing" textLength="126" x="9.1" y="742.4717">-Integer numberOfBedrooms</text><text fill="#000000" font-family="sans-serif" font-size="9.8" lengthAdjust="spacing" textLength="128.8" x="9.1" y="753.4201">-Integer numberOfBathrooms</text><text fill="#000000" font-family="sans-serif" font-size="9.8" lengthAdjust="spacing" textLength="147.7" x="9.1" y="764.3686">-Integer numberOfParkingSpaces</text><text fill="#000000" font-family="sans-serif" font-size="9.8" lengthAdjust="spacing" textLength="118.3" x="9.1" y="775.317">-String availableEquipment</text><line style="stroke:#181818;stroke-width:0.3499999999999999;" x1="5.6" x2="160.3" y1="780.1937" y2="780.1937"/></g><!--class House--><g id="elem_House"><rect codeLine="80" fill="#F1F1F1" height="66.4453" id="House" rx="1.75" ry="1.75" style="stroke:#181818;stroke-width:0.3499999999999999;" width="115.5" x="25.2" y="561.75"/><ellipse cx="65.975" cy="572.95" fill="#ADD1B2" rx="7.7" ry="7.7" style="stroke:#181818;stroke-width:0.6999999999999998;"/><path d="M67.9109,570.0625 Q68.0203,569.9094 68.1516,569.8328 Q68.2828,569.7562 68.4359,569.7562 Q68.6984,569.7562 68.8625,569.9422 Q69.0266,570.1172 69.0266,570.5437 L69.0266,571.5609 Q69.0266,571.9875 68.8625,572.1734 Q68.6984,572.3594 68.4359,572.3594 Q68.1953,572.3594 68.0531,572.2172 Q67.9109,572.0859 67.8344,571.725 Q67.8016,571.4734 67.6703,571.3422 Q67.4406,571.0797 67.0141,570.9266 Q66.5875,570.7734 66.15,570.7734 Q65.6141,570.7734 65.1656,571.0031 Q64.7281,571.2328 64.3781,571.7578 Q64.0391,572.2828 64.0391,573.0047 L64.0391,573.7703 Q64.0391,574.6344 64.6625,575.2141 Q65.2859,575.7828 66.4016,575.7828 Q67.0578,575.7828 67.5172,575.6078 Q67.7906,575.4984 68.0859,575.1922 Q68.2719,575.0062 68.3703,574.9516 Q68.4797,574.8969 68.6219,574.8969 Q68.8516,574.8969 69.0266,575.0828 Q69.2125,575.2578 69.2125,575.4984 Q69.2125,575.7391 68.9719,576.0234 Q68.6219,576.4281 68.0641,576.6578 Q67.3094,576.975 66.4016,576.975 Q65.3406,576.975 64.4984,576.5375 Q63.8094,576.1875 63.3281,575.4437 Q62.8469,574.6891 62.8469,573.7922 L62.8469,572.9828 Q62.8469,572.0531 63.2734,571.2547 Q63.7109,570.4453 64.4766,570.0187 Q65.2422,569.5812 66.1062,569.5812 Q66.6203,569.5812 67.0687,569.7016 Q67.5281,569.8109 67.9109,570.0625 Z " fill="#000000"/><text fill="#000000" font-family="sans-serif" font-size="9.8" lengthAdjust="spacing" textLength="28" x="80.325" y="576.3475">House</text><line style="stroke:#181818;stroke-width:0.3499999999999999;" x1="25.9" x2="140" y1="584.15" y2="584.15"/><text fill="#000000" font-family="sans-serif" font-size="9.8" lengthAdjust="spacing" textLength="85.4" x="29.4" y="595.8217">-boolean basement</text><text fill="#000000" font-family="sans-serif" font-size="9.8" lengthAdjust="spacing" textLength="107.1" x="29.4" y="606.7701">-boolean inhabitableLoft</text><text fill="#000000" font-family="sans-serif" font-size="9.8" lengthAdjust="spacing" textLength="88.2" x="29.4" y="617.7186">-string sunExposure</text><line style="stroke:#181818;stroke-width:0.3499999999999999;" x1="25.9" x2="140" y1="622.5953" y2="622.5953"/></g><!--class Contacts--><g id="elem_Contacts"><rect codeLine="86" fill="#F1F1F1" height="55.4969" id="Contacts" rx="1.75" ry="1.75" style="stroke:#181818;stroke-width:0.3499999999999999;" width="107.8" x="659.05" y="980"/><ellipse cx="690.375" cy="991.2" fill="#ADD1B2" rx="7.7" ry="7.7" style="stroke:#181818;stroke-width:0.6999999999999998;"/><path d="M692.3109,988.3125 Q692.4203,988.1594 692.5516,988.0828 Q692.6828,988.0062 692.8359,988.0062 Q693.0984,988.0062 693.2625,988.1922 Q693.4266,988.3672 693.4266,988.7937 L693.4266,989.8109 Q693.4266,990.2375 693.2625,990.4234 Q693.0984,990.6094 692.8359,990.6094 Q692.5953,990.6094 692.4531,990.4672 Q692.3109,990.3359 692.2344,989.975 Q692.2016,989.7234 692.0703,989.5922 Q691.8406,989.3297 691.4141,989.1766 Q690.9875,989.0234 690.55,989.0234 Q690.0141,989.0234 689.5656,989.2531 Q689.1281,989.4828 688.7781,990.0078 Q688.4391,990.5328 688.4391,991.2547 L688.4391,992.0203 Q688.4391,992.8844 689.0625,993.4641 Q689.6859,994.0328 690.8016,994.0328 Q691.4578,994.0328 691.9172,993.8578 Q692.1906,993.7484 692.4859,993.4422 Q692.6719,993.2562 692.7703,993.2016 Q692.8797,993.1469 693.0219,993.1469 Q693.2516,993.1469 693.4266,993.3328 Q693.6125,993.5078 693.6125,993.7484 Q693.6125,993.9891 693.3719,994.2734 Q693.0219,994.6781 692.4641,994.9078 Q691.7094,995.225 690.8016,995.225 Q689.7406,995.225 688.8984,994.7875 Q688.2094,994.4375 687.7281,993.6937 Q687.2469,992.9391 687.2469,992.0422 L687.2469,991.2328 Q687.2469,990.3031 687.6734,989.5047 Q688.1109,988.6953 688.8766,988.2687 Q689.6422,987.8312 690.5062,987.8312 Q691.0203,987.8312 691.4687,987.9516 Q691.9281,988.0609 692.3109,988.3125 Z " fill="#000000"/><text fill="#000000" font-family="sans-serif" font-size="9.8" lengthAdjust="spacing" textLength="39.2" x="704.725" y="994.5975">Contacts</text><line style="stroke:#181818;stroke-width:0.3499999999999999;" x1="659.75" x2="766.15" y1="1002.4" y2="1002.4"/><text fill="#000000" font-family="sans-serif" font-size="9.8" lengthAdjust="spacing" textLength="99.4" x="663.25" y="1014.0717">-Integer phoneNumber</text><text fill="#000000" font-family="sans-serif" font-size="9.8" lengthAdjust="spacing" textLength="91.7" x="663.25" y="1025.0201">-String emailAddress</text><line style="stroke:#181818;stroke-width:0.3499999999999999;" x1="659.75" x2="766.15" y1="1029.8969" y2="1029.8969"/></g><!--class Employee--><g id="elem_Employee"><rect codeLine="91" fill="#F1F1F1" height="55.4969" id="Employee" rx="1.75" ry="1.75" style="stroke:#181818;stroke-width:0.3499999999999999;" width="140" x="750.05" y="866.25"/><ellipse cx="795.375" cy="877.45" fill="#ADD1B2" rx="7.7" ry="7.7" style="stroke:#181818;stroke-width:0.6999999999999998;"/><path d="M797.3109,874.5625 Q797.4203,874.4094 797.5516,874.3328 Q797.6828,874.2562 797.8359,874.2562 Q798.0984,874.2562 798.2625,874.4422 Q798.4266,874.6172 798.4266,875.0437 L798.4266,876.0609 Q798.4266,876.4875 798.2625,876.6734 Q798.0984,876.8594 797.8359,876.8594 Q797.5953,876.8594 797.4531,876.7172 Q797.3109,876.5859 797.2344,876.225 Q797.2016,875.9734 797.0703,875.8422 Q796.8406,875.5797 796.4141,875.4266 Q795.9875,875.2734 795.55,875.2734 Q795.0141,875.2734 794.5656,875.5031 Q794.1281,875.7328 793.7781,876.2578 Q793.4391,876.7828 793.4391,877.5047 L793.4391,878.2703 Q793.4391,879.1344 794.0625,879.7141 Q794.6859,880.2828 795.8016,880.2828 Q796.4578,880.2828 796.9172,880.1078 Q797.1906,879.9984 797.4859,879.6922 Q797.6719,879.5062 797.7703,879.4516 Q797.8797,879.3969 798.0219,879.3969 Q798.2516,879.3969 798.4266,879.5828 Q798.6125,879.7578 798.6125,879.9984 Q798.6125,880.2391 798.3719,880.5234 Q798.0219,880.9281 797.4641,881.1578 Q796.7094,881.475 795.8016,881.475 Q794.7406,881.475 793.8984,881.0375 Q793.2094,880.6875 792.7281,879.9437 Q792.2469,879.1891 792.2469,878.2922 L792.2469,877.4828 Q792.2469,876.5531 792.6734,875.7547 Q793.1109,874.9453 793.8766,874.5187 Q794.6422,874.0812 795.5062,874.0812 Q796.0203,874.0812 796.4687,874.2016 Q796.9281,874.3109 797.3109,874.5625 Z " fill="#000000"/><text fill="#000000" font-family="sans-serif" font-size="9.8" lengthAdjust="spacing" textLength="43.4" x="809.725" y="880.8475">Employee</text><line style="stroke:#181818;stroke-width:0.3499999999999999;" x1="750.75" x2="889.35" y1="888.65" y2="888.65"/><text fill="#000000" font-family="sans-serif" font-size="9.8" lengthAdjust="spacing" textLength="56.7" x="754.25" y="900.3217">-String name</text><text fill="#000000" font-family="sans-serif" font-size="9.8" lengthAdjust="spacing" textLength="131.6" x="754.25" y="911.2701">-Integer passportCardNumber</text><line style="stroke:#181818;stroke-width:0.3499999999999999;" x1="750.75" x2="889.35" y1="916.1469" y2="916.1469"/></g><!--class TaxNumber--><g id="elem_TaxNumber"><rect codeLine="96" fill="#F1F1F1" height="44.5484" id="TaxNumber" rx="1.75" ry="1.75" style="stroke:#181818;stroke-width:0.3499999999999999;" width="92.4" x="666.75" y="1077.3"/><ellipse cx="686.07" cy="1088.5" fill="#ADD1B2" rx="7.7" ry="7.7" style="stroke:#181818;stroke-width:0.6999999999999998;"/><path d="M688.0059,1085.6125 Q688.1153,1085.4594 688.2466,1085.3828 Q688.3778,1085.3062 688.5309,1085.3062 Q688.7934,1085.3062 688.9575,1085.4922 Q689.1216,1085.6672 689.1216,1086.0937 L689.1216,1087.1109 Q689.1216,1087.5375 688.9575,1087.7234 Q688.7934,1087.9094 688.5309,1087.9094 Q688.2903,1087.9094 688.1481,1087.7672 Q688.0059,1087.6359 687.9294,1087.275 Q687.8966,1087.0234 687.7653,1086.8922 Q687.5356,1086.6297 687.1091,1086.4766 Q686.6825,1086.3234 686.245,1086.3234 Q685.7091,1086.3234 685.2606,1086.5531 Q684.8231,1086.7828 684.4731,1087.3078 Q684.1341,1087.8328 684.1341,1088.5547 L684.1341,1089.3203 Q684.1341,1090.1844 684.7575,1090.7641 Q685.3809,1091.3328 686.4966,1091.3328 Q687.1528,1091.3328 687.6122,1091.1578 Q687.8856,1091.0484 688.1809,1090.7422 Q688.3669,1090.5562 688.4653,1090.5016 Q688.5747,1090.4469 688.7169,1090.4469 Q688.9466,1090.4469 689.1216,1090.6328 Q689.3075,1090.8078 689.3075,1091.0484 Q689.3075,1091.2891 689.0669,1091.5734 Q688.7169,1091.9781 688.1591,1092.2078 Q687.4044,1092.525 686.4966,1092.525 Q685.4356,1092.525 684.5934,1092.0875 Q683.9044,1091.7375 683.4231,1090.9937 Q682.9419,1090.2391 682.9419,1089.3422 L682.9419,1088.5328 Q682.9419,1087.6031 683.3684,1086.8047 Q683.8059,1085.9953 684.5716,1085.5687 Q685.3372,1085.1312 686.2012,1085.1312 Q686.7153,1085.1312 687.1637,1085.2516 Q687.6231,1085.3609 688.0059,1085.6125 Z " fill="#000000"/><text fill="#000000" font-family="sans-serif" font-size="9.8" lengthAdjust="spacing" textLength="50.4" x="697.83" y="1091.8975">TaxNumber</text><line style="stroke:#181818;stroke-width:0.3499999999999999;" x1="667.45" x2="758.45" y1="1099.7" y2="1099.7"/><text fill="#000000" font-family="sans-serif" font-size="9.8" lengthAdjust="spacing" textLength="84" x="670.95" y="1111.3717">-Integer taxNumber</text><line style="stroke:#181818;stroke-width:0.3499999999999999;" x1="667.45" x2="758.45" y1="1116.2484" y2="1116.2484"/></g><!--class Rent--><g id="elem_Rent"><rect codeLine="100" fill="#F1F1F1" height="44.5484" id="Rent" rx="1.75" ry="1.75" style="stroke:#181818;stroke-width:0.3499999999999999;" width="119" x="1005.55" y="572.6"/><ellipse cx="1051.575" cy="583.8" fill="#ADD1B2" rx="7.7" ry="7.7" style="stroke:#181818;stroke-width:0.6999999999999998;"/><path d="M1053.5109,580.9125 Q1053.6203,580.7594 1053.7516,580.6828 Q1053.8828,580.6062 1054.0359,580.6062 Q1054.2984,580.6062 1054.4625,580.7922 Q1054.6266,580.9672 1054.6266,581.3937 L1054.6266,582.4109 Q1054.6266,582.8375 1054.4625,583.0234 Q1054.2984,583.2094 1054.0359,583.2094 Q1053.7953,583.2094 1053.6531,583.0672 Q1053.5109,582.9359 1053.4344,582.575 Q1053.4016,582.3234 1053.2703,582.1922 Q1053.0406,581.9297 1052.6141,581.7766 Q1052.1875,581.6234 1051.75,581.6234 Q1051.2141,581.6234 1050.7656,581.8531 Q1050.3281,582.0828 1049.9781,582.6078 Q1049.6391,583.1328 1049.6391,583.8547 L1049.6391,584.6203 Q1049.6391,585.4844 1050.2625,586.0641 Q1050.8859,586.6328 1052.0016,586.6328 Q1052.6578,586.6328 1053.1172,586.4578 Q1053.3906,586.3484 1053.6859,586.0422 Q1053.8719,585.8562 1053.9703,585.8016 Q1054.0797,585.7469 1054.2219,585.7469 Q1054.4516,585.7469 1054.6266,585.9328 Q1054.8125,586.1078 1054.8125,586.3484 Q1054.8125,586.5891 1054.5719,586.8734 Q1054.2219,587.2781 1053.6641,587.5078 Q1052.9094,587.825 1052.0016,587.825 Q1050.9406,587.825 1050.0984,587.3875 Q1049.4094,587.0375 1048.9281,586.2937 Q1048.4469,585.5391 1048.4469,584.6422 L1048.4469,583.8328 Q1048.4469,582.9031 1048.8734,582.1047 Q1049.3109,581.2953 1050.0766,580.8687 Q1050.8422,580.4312 1051.7062,580.4312 Q1052.2203,580.4312 1052.6687,580.5516 Q1053.1281,580.6609 1053.5109,580.9125 Z " fill="#000000"/><text fill="#000000" font-family="sans-serif" font-size="9.8" lengthAdjust="spacing" textLength="21" x="1065.925" y="587.1975">Rent</text><line style="stroke:#181818;stroke-width:0.3499999999999999;" x1="1006.25" x2="1123.85" y1="595" y2="595"/><text fill="#000000" font-family="sans-serif" font-size="9.8" lengthAdjust="spacing" textLength="110.6" x="1009.75" y="606.6717">-Integer contractDuration</text><line style="stroke:#181818;stroke-width:0.3499999999999999;" x1="1006.25" x2="1123.85" y1="611.5484" y2="611.5484"/></g><!--link CreateRequestUI to CreateRequestController--><g id="link_CreateRequestUI_CreateRequestController"><path codeLine="104" d="M768.95,38.738 C768.95,38.738 768.95,119.455 768.95,119.455 " fill="none" id="CreateRequestUI-to-CreateRequestController" style="stroke:#181818;stroke-width:0.6999999999999998;stroke-dasharray:7.0,7.0;"/><polygon fill="#181818" points="768.95,122.955,771.75,116.655,768.95,119.455,766.15,116.655,768.95,122.955" style="stroke:#181818;stroke-width:0.6999999999999998;"/></g><!--link CreateRequestController to Repositories--><g id="link_CreateRequestController_Repositories"><path codeLine="106" d="M901.25,233.282 C901.25,233.282 901.25,314.09 901.25,314.09 " fill="none" id="CreateRequestController-to-Repositories" style="stroke:#181818;stroke-width:0.6999999999999998;stroke-dasharray:7.0,7.0;"/><polygon fill="#181818" points="901.25,317.59,904.05,311.29,901.25,314.09,898.45,311.29,901.25,317.59" style="stroke:#181818;stroke-width:0.6999999999999998;"/><text fill="#000000" font-family="sans-serif" font-size="9.1" lengthAdjust="spacing" textLength="46.9" x="853.65" y="271.424">repositories</text></g><!--link CreateRequestController to Agency--><g id="link_CreateRequestController_Agency"><path codeLine="107" d="M793.1,233.289 C793.1,233.289 793.1,541.723 793.1,541.723 " fill="none" id="CreateRequestController-to-Agency" style="stroke:#181818;stroke-width:0.6999999999999998;stroke-dasharray:7.0,7.0;"/><polygon fill="#181818" points="793.1,545.223,795.9,538.923,793.1,541.723,790.3,538.923,793.1,545.223" style="stroke:#181818;stroke-width:0.6999999999999998;"/><text fill="#000000" font-family="sans-serif" font-size="9.1" lengthAdjust="spacing" textLength="29.4" x="763" y="385.244">agency</text></g><!--link CreateRequestController to RequestTypeRepository--><g id="link_CreateRequestController_RequestTypeRepository"><path codeLine="108" d="M974.575,233.408 C974.575,233.408 974.575,444.5 974.575,444.5 " fill="none" id="CreateRequestController-to-RequestTypeRepository" style="stroke:#181818;stroke-width:0.6999999999999998;stroke-dasharray:7.0,7.0;"/><polygon fill="#181818" points="974.575,448,977.375,441.7,974.575,444.5,971.775,441.7,974.575,448" style="stroke:#181818;stroke-width:0.6999999999999998;"/><text fill="#000000" font-family="sans-serif" font-size="9.1" lengthAdjust="spacing" textLength="93.1" x="975.275" y="336.692">requestTypeRepository</text></g><!--link CreateRequestController to AgencyTypeRepository--><g id="link_CreateRequestController_AgencyTypeRepository"><path codeLine="109" d="M801.15,233.219 C801.15,315.763 801.15,462 801.15,462 C801.15,462 811.293,462 811.293,462 " fill="none" id="CreateRequestController-to-AgencyTypeRepository" style="stroke:#181818;stroke-width:0.6999999999999998;stroke-dasharray:7.0,7.0;"/><polygon fill="#181818" points="814.793,462,808.493,459.2,811.293,462,808.493,464.8,814.793,462" style="stroke:#181818;stroke-width:0.6999999999999998;"/><text fill="#000000" font-family="sans-serif" font-size="9.1" lengthAdjust="spacing" textLength="72.8" x="727.65" y="350.419">agencyRepository</text></g><!--link CreateRequestController to PropertyTypeRepository--><g id="link_CreateRequestController_PropertyTypeRepository"><path codeLine="110" d="M687.75,233.408 C687.75,233.408 687.75,444.5 687.75,444.5 " fill="none" id="CreateRequestController-to-PropertyTypeRepository" style="stroke:#181818;stroke-width:0.6999999999999998;stroke-dasharray:7.0,7.0;"/><polygon fill="#181818" points="687.75,448,690.55,441.7,687.75,444.5,684.95,441.7,687.75,448" style="stroke:#181818;stroke-width:0.6999999999999998;"/><text fill="#000000" font-family="sans-serif" font-size="9.1" lengthAdjust="spacing" textLength="95.9" x="591.15" y="336.692">propertyTypeRepository</text></g><!--link Agency to Request--><g id="link_Agency_Request"><path codeLine="112" d="M651.525,644.854 C651.525,644.854 651.525,683.158 651.525,683.158 " fill="none" id="Agency-to-Request" style="stroke:#181818;stroke-width:0.6999999999999998;"/><polygon fill="#181818" points="651.525,686.658,654.325,680.358,651.525,683.158,648.725,680.358,651.525,686.658" style="stroke:#181818;stroke-width:0.6999999999999998;"/><text fill="#000000" font-family="sans-serif" font-size="9.1" lengthAdjust="spacing" textLength="35" x="615.825" y="661.744">requests</text></g><!--link Agency to Employee--><g id="link_Agency_Employee"><path codeLine="113" d="M774.375,645.029 C774.375,645.029 774.375,862.694 774.375,862.694 " fill="none" id="Agency-to-Employee" style="stroke:#181818;stroke-width:0.6999999999999998;"/><polygon fill="#181818" points="774.375,866.194,777.175,859.894,774.375,862.694,771.575,859.894,774.375,866.194" style="stroke:#181818;stroke-width:0.6999999999999998;"/><text fill="#000000" font-family="sans-serif" font-size="9.1" lengthAdjust="spacing" textLength="34.3" x="739.375" y="751.596">employs</text></g><!--link AgencyTypeRepository to Agency--><g id="link_AgencyTypeRepository_Agency"><path codeLine="114" d="M814.611,490 C803.768,490 795.9,490 795.9,490 C795.9,490 795.9,541.765 795.9,541.765 " fill="none" id="AgencyTypeRepository-to-Agency" style="stroke:#181818;stroke-width:0.6999999999999998;"/><polygon fill="#181818" points="795.9,545.265,798.7,538.965,795.9,541.765,793.1,538.965,795.9,545.265" style="stroke:#181818;stroke-width:0.6999999999999998;"/></g><!--link Request to Property--><g id="link_Request_Property"><path codeLine="115" d="M264.95,807.954 C264.95,807.954 264.95,846.083 264.95,846.083 " fill="none" id="Request-to-Property" style="stroke:#181818;stroke-width:0.6999999999999998;"/><polygon fill="#181818" points="264.95,849.583,267.75,843.283,264.95,846.083,262.15,843.283,264.95,849.583" style="stroke:#181818;stroke-width:0.6999999999999998;"/><text fill="#000000" font-family="sans-serif" font-size="9.1" lengthAdjust="spacing" textLength="14.7" x="249.55" y="824.76">has</text></g><!--link Request to Owner--><g id="link_Request_Owner"><path codeLine="116" d="M605.85,807.954 C605.85,807.954 605.85,862.75 605.85,862.75 " fill="none" id="Request-to-Owner" style="stroke:#181818;stroke-width:0.6999999999999998;"/><polygon fill="#181818" points="605.85,866.25,608.65,859.95,605.85,862.75,603.05,859.95,605.85,866.25" style="stroke:#181818;stroke-width:0.6999999999999998;"/><text fill="#000000" font-family="sans-serif" font-size="9.1" lengthAdjust="spacing" textLength="41.3" x="563.85" y="833.09">createdBy</text></g><!--link RequestTypeRepository to Rent--><g id="link_RequestTypeRepository_Rent"><path codeLine="117" d="M1065.05,503.328 C1065.05,503.328 1065.05,568.967 1065.05,568.967 " fill="none" id="RequestTypeRepository-to-Rent" style="stroke:#181818;stroke-width:0.6999999999999998;"/><polygon fill="#181818" points="1065.05,572.467,1067.868,566.175,1065.06,568.967,1062.268,566.159,1065.05,572.467" style="stroke:#181818;stroke-width:0.6999999999999998;"/><polygon fill="#000000" points="1030.75,534.2272,1032.8072,527.8956,1028.6928,527.8956,1030.75,534.2272" style="stroke:#000000;stroke-width:0.6999999999999998;"/><text fill="#000000" font-family="sans-serif" font-size="9.1" lengthAdjust="spacing" textLength="27.3" x="1037.05" y="533.882">can be</text></g><!--link Repositories to AgencyTypeRepository--><g id="link_Repositories_AgencyTypeRepository"><path codeLine="119" d="M877.45,406.203 C877.45,406.203 877.45,444.213 877.45,444.213 " fill="none" id="Repositories-to-AgencyTypeRepository" style="stroke:#181818;stroke-width:0.6999999999999998;"/><polygon fill="#181818" points="877.45,447.713,880.25,441.413,877.45,444.213,874.65,441.413,877.45,447.713" style="stroke:#181818;stroke-width:0.6999999999999998;"/></g><!--link Repositories to PropertyTypeRepository--><g id="link_Repositories_PropertyTypeRepository"><path codeLine="120" d="M808.969,406.014 C808.969,438.123 808.969,476 808.969,476 C808.969,476 794.059,476 794.059,476 " fill="none" id="Repositories-to-PropertyTypeRepository" style="stroke:#181818;stroke-width:0.6999999999999998;"/><polygon fill="#181818" points="790.559,476,796.859,478.8,794.059,476,796.859,473.2,790.559,476" style="stroke:#181818;stroke-width:0.6999999999999998;"/></g><!--link Repositories to RequestTypeRepository--><g id="link_Repositories_RequestTypeRepository"><path codeLine="121" d="M944.475,406.014 C944.475,438.123 944.475,476 944.475,476 C944.475,476 960.883,476 960.883,476 " fill="none" id="Repositories-to-RequestTypeRepository" style="stroke:#181818;stroke-width:0.6999999999999998;"/><polygon fill="#181818" points="964.383,476,958.083,473.2,960.883,476,958.083,478.8,964.383,476" style="stroke:#181818;stroke-width:0.6999999999999998;"/></g><!--link House to Residence--><g id="link_House_Residence"><path codeLine="123" d="M82.95,628.411 C82.95,628.411 82.95,694.267 82.95,694.267 " fill="none" id="House-to-Residence" style="stroke:#181818;stroke-width:0.6999999999999998;"/><polygon fill="none" points="87.85,694.267,82.95,708.267,78.05,694.267,87.85,694.267" style="stroke:#181818;stroke-width:0.6999999999999998;"/></g><!--link Residence to Property--><g id="link_Residence_Property"><path codeLine="125" d="M161.035,747.6 C168.539,747.6 173.425,747.6 173.425,747.6 C173.425,747.6 173.425,835.611 173.425,835.611 " fill="none" id="Residence-to-Property" style="stroke:#181818;stroke-width:0.6999999999999998;"/><polygon fill="none" points="178.325,835.611,173.425,849.611,168.525,835.611,178.325,835.611" style="stroke:#181818;stroke-width:0.6999999999999998;"/></g><!--link Agency to Contacts--><g id="link_Agency_Contacts"><path codeLine="127" d="M712.95,644.777 C712.95,644.777 712.95,976.395 712.95,976.395 " fill="none" id="Agency-to-Contacts" style="stroke:#181818;stroke-width:0.6999999999999998;"/><polygon fill="#181818" points="712.95,979.895,715.75,973.595,712.95,976.395,710.15,973.595,712.95,979.895" style="stroke:#181818;stroke-width:0.6999999999999998;"/><polygon fill="#000000" points="691.25,808.6692,693.3072,802.3376,689.1928,802.3376,691.25,808.6692" style="stroke:#000000;stroke-width:0.6999999999999998;"/><text fill="#000000" font-family="sans-serif" font-size="9.1" lengthAdjust="spacing" textLength="14.7" x="697.55" y="808.324">has</text></g><!--link Employee to Contacts--><g id="link_Employee_Contacts"><path codeLine="128" d="M758.45,921.725 C758.45,921.725 758.45,976.416 758.45,976.416 " fill="none" id="Employee-to-Contacts" style="stroke:#181818;stroke-width:0.6999999999999998;"/><polygon fill="#181818" points="758.45,979.916,761.25,973.616,758.45,976.416,755.65,973.616,758.45,979.916" style="stroke:#181818;stroke-width:0.6999999999999998;"/><polygon fill="#000000" points="736.75,947.1502,738.8072,940.8186,734.6928,940.8186,736.75,947.1502" style="stroke:#000000;stroke-width:0.6999999999999998;"/><text fill="#000000" font-family="sans-serif" font-size="9.1" lengthAdjust="spacing" textLength="14.7" x="743.05" y="946.805">has</text></g><!--link Owner to Contacts--><g id="link_Owner_Contacts"><path codeLine="129" d="M667.45,921.725 C667.45,921.725 667.45,976.416 667.45,976.416 " fill="none" id="Owner-to-Contacts" style="stroke:#181818;stroke-width:0.6999999999999998;"/><polygon fill="#181818" points="667.45,979.916,670.25,973.616,667.45,976.416,664.65,973.616,667.45,979.916" style="stroke:#181818;stroke-width:0.6999999999999998;"/><polygon fill="#000000" points="645.75,947.1502,647.8072,940.8186,643.6928,940.8186,645.75,947.1502" style="stroke:#000000;stroke-width:0.6999999999999998;"/><text fill="#000000" font-family="sans-serif" font-size="9.1" lengthAdjust="spacing" textLength="14.7" x="652.05" y="946.805">has</text></g><!--link Owner to TaxNumber--><g id="link_Owner_TaxNumber"><path codeLine="131" d="M597.45,921.655 C597.45,977.83 597.45,1099.7 597.45,1099.7 C597.45,1099.7 663.138,1099.7 663.138,1099.7 " fill="none" id="Owner-to-TaxNumber" style="stroke:#181818;stroke-width:0.6999999999999998;"/><polygon fill="#181818" points="666.638,1099.7,660.338,1096.9,663.138,1099.7,660.338,1102.5,666.638,1099.7" style="stroke:#181818;stroke-width:0.6999999999999998;"/><polygon fill="#000000" points="576.9615,1041.3849,576.7,1034.7326,572.8398,1036.1568,576.9615,1041.3849" style="stroke:#000000;stroke-width:0.6999999999999998;"/><text fill="#000000" font-family="sans-serif" font-size="9.1" lengthAdjust="spacing" textLength="14.7" x="582.05" y="1041.256">has</text></g><!--link Employee to TaxNumber--><g id="link_Employee_TaxNumber"><path codeLine="132" d="M828.45,921.655 C828.45,977.83 828.45,1099.7 828.45,1099.7 C828.45,1099.7 762.762,1099.7 762.762,1099.7 " fill="none" id="Employee-to-TaxNumber" style="stroke:#181818;stroke-width:0.6999999999999998;"/><polygon fill="#181818" points="759.262,1099.7,765.562,1102.5,762.762,1099.7,765.562,1096.9,759.262,1099.7" style="stroke:#181818;stroke-width:0.6999999999999998;"/><polygon fill="#000000" points="805.5385,1041.3849,809.6602,1036.1568,805.8,1034.7326,805.5385,1041.3849" style="stroke:#000000;stroke-width:0.6999999999999998;"/><text fill="#000000" font-family="sans-serif" font-size="9.1" lengthAdjust="spacing" textLength="14.7" x="813.05" y="1041.256">has</text></g><!--link Repositories to Repositories--><g id="link_Repositories_Repositories"><path codeLine="134" d="M853.65,317.59 C853.65,296.492 853.65,275.8 853.65,275.8 C853.65,275.8 803.6,275.8 803.6,275.8 C803.6,275.8 803.6,427 803.6,427 C803.6,427 811.881,427 811.881,427 C811.881,427 811.881,409.542 811.881,409.542 " fill="none" id="Repositories-to-Repositories" style="stroke:#181818;stroke-width:0.6999999999999998;"/><polygon fill="#181818" points="811.881,406.042,809.081,412.342,811.881,409.542,814.681,412.342,811.881,406.042" style="stroke:#181818;stroke-width:0.6999999999999998;"/><text fill="#000000" font-family="sans-serif" font-size="9.1" lengthAdjust="spacing" textLength="34.3" x="765.1" y="312.591">instance</text></g><!--SRC=[dLRTRfim5BxdANn9j33jkfgGsgpJ8bLhrNGFuC0fM0ERscPhbktTTup16EDsrUwIy_kTx_mOzPtnZahQagAXIbrgBTcnrx0l13-mNq0-9CgPD8o3FdL0XDIrI9B1XUmaK0ttyDI3qj_sv-HFLBCJN4lHD23FoJjIn5Mfj987p78FdL1C2tdQaawA3gG-XN9Q0IzEisI3eIlGKrnCKGd9GAKRb_Dk39LI_BibZIYePeAR7Ao0BIcPqfGNy5cAzg667TEd7I0-L7MrqAAIjAlNuL2Wm5P22_sfbqFKT0HqEU3q_-aRp8C2HvOh0k6UaspntxhjkKMMRYxMoliOSLF2koXzIt0BkKCLzpJu3ZWfl2AcZ8- -LRvebb6lCVWPRFPrVDjQutzXarZ3tCSSScYb7hgfkxEa1CKg7WY7-2E3EHbdS82-DBbkkqQS06k4yTTOtsAS_I5UTLn10uM6qa9Tz3_Im7CSe-NPIpFJx5caw-Wctb681YYVt0yQaNlyBFwDDhS_EKWxuOis-fr-muQzjbfs-UODCnMPaBGiNRmftSPZNB4Ip4xmlZs2l7syWb8AqQejSHAgwq1qHoKUjUhGqG9GJ7zGrj1Z0zTFFUjQX3Hd-29w1UcHAZ3oBM6yfaUcZVMDU4I1wldrC_Qhbn3P6qFudkCP0aaC7T7HB4MFuLwcnuiny1GCnKnQ7X0uunaww4qJf-qYBDfqUDLtL9PV1vByqHavzci9wOwf9juZkaK3PbJhHimmXaRuyplrn1C5pK6Die6z9ddF4nvhlDNAhmlvup0ou611Yx0korA2KhFxT0p-ZzK7-cn5VdOz2NtskVPDYk25CPR12qoozrd-qkCRMCyAw-K_BEG2zzzxPrvrjFSCNUpT_bUMoAqRqaNaRycxYXH-6BmU9FxAOPZuTqUIZDLcSoqpUkLhfo51jNqo9csGAdEb95F0p0E6xZLL2zMmqIYtPwgySewHo6Q8qD8i3P0yIHPTpbvWSMqLfsbj5mMI9CC6ey7lVBuf1iluqshSzvJFuhIfbWQimD4QrLfgeYgdGwLRmNZOjJgeTBKjRFn0-mi0]--></g></svg>