<?xml version="1.0" encoding="us-ascii" standalone="no"?><svg xmlns="http://www.w3.org/2000/svg" xmlns:xlink="http://www.w3.org/1999/xlink" contentStyleType="text/css" height="826.2px" preserveAspectRatio="none" style="width:813px;height:826px;background:#FFFFFF;" version="1.1" viewBox="0 0 813 826" width="813.6px" zoomAndPan="magnify"><defs/><g><!--class CreateRequestUI--><g id="elem_CreateRequestUI"><rect codeLine="4" fill="#F1F1F1" height="28.8" id="CreateRequestUI" rx="1.5" ry="1.5" style="stroke:#181818;stroke-width:0.3;" width="84" x="528.9" y="4.2"/><ellipse cx="537.9" cy="13.8" fill="#ADD1B2" rx="6.6" ry="6.6" style="stroke:#181818;stroke-width:0.6;"/><path d="M539.5594,11.325 Q539.6531,11.1938 539.7656,11.1281 Q539.8781,11.0625 540.0094,11.0625 Q540.2344,11.0625 540.375,11.2219 Q540.5156,11.3719 540.5156,11.7375 L540.5156,12.6094 Q540.5156,12.975 540.375,13.1344 Q540.2344,13.2938 540.0094,13.2938 Q539.8031,13.2938 539.6813,13.1719 Q539.5594,13.0594 539.4938,12.75 Q539.4656,12.5344 539.3531,12.4219 Q539.1563,12.1969 538.7906,12.0656 Q538.425,11.9344 538.05,11.9344 Q537.5906,11.9344 537.2063,12.1313 Q536.8313,12.3281 536.5313,12.7781 Q536.2406,13.2281 536.2406,13.8469 L536.2406,14.5031 Q536.2406,15.2437 536.775,15.7406 Q537.3094,16.2281 538.2656,16.2281 Q538.8281,16.2281 539.2219,16.0781 Q539.4563,15.9844 539.7094,15.7219 Q539.8688,15.5625 539.9531,15.5156 Q540.0469,15.4688 540.1687,15.4688 Q540.3656,15.4688 540.5156,15.6281 Q540.675,15.7781 540.675,15.9844 Q540.675,16.1906 540.4688,16.4344 Q540.1687,16.7813 539.6906,16.9781 Q539.0437,17.25 538.2656,17.25 Q537.3562,17.25 536.6344,16.875 Q536.0437,16.575 535.6313,15.9375 Q535.2188,15.2906 535.2188,14.5219 L535.2188,13.8281 Q535.2188,13.0313 535.5844,12.3469 Q535.9594,11.6531 536.6156,11.2875 Q537.2719,10.9125 538.0125,10.9125 Q538.4531,10.9125 538.8375,11.0156 Q539.2312,11.1094 539.5594,11.325 Z " fill="#000000"/><text fill="#000000" font-family="sans-serif" font-size="8.4" lengthAdjust="spacing" textLength="64.8" x="546.3" y="16.7121">CreateRequestUI</text><line style="stroke:#181818;stroke-width:0.3;" x1="529.5" x2="612.3" y1="23.4" y2="23.4"/><line style="stroke:#181818;stroke-width:0.3;" x1="529.5" x2="612.3" y1="28.2" y2="28.2"/></g><!--class CreateRequestController--><g id="elem_CreateRequestController"><rect codeLine="7" fill="#F1F1F1" height="38.1844" id="CreateRequestController" rx="1.5" ry="1.5" style="stroke:#181818;stroke-width:0.3;" width="369.6" x="386.1" y="105.6"/><ellipse cx="520.95" cy="115.2" fill="#ADD1B2" rx="6.6" ry="6.6" style="stroke:#181818;stroke-width:0.6;"/><path d="M522.6094,112.725 Q522.7031,112.5938 522.8156,112.5281 Q522.9281,112.4625 523.0594,112.4625 Q523.2844,112.4625 523.425,112.6219 Q523.5656,112.7719 523.5656,113.1375 L523.5656,114.0094 Q523.5656,114.375 523.425,114.5344 Q523.2844,114.6938 523.0594,114.6938 Q522.8531,114.6938 522.7312,114.5719 Q522.6094,114.4594 522.5437,114.15 Q522.5156,113.9344 522.4031,113.8219 Q522.2063,113.5969 521.8406,113.4656 Q521.475,113.3344 521.1,113.3344 Q520.6406,113.3344 520.2563,113.5313 Q519.8813,113.7281 519.5813,114.1781 Q519.2906,114.6281 519.2906,115.2469 L519.2906,115.9031 Q519.2906,116.6438 519.825,117.1406 Q520.3594,117.6281 521.3156,117.6281 Q521.8781,117.6281 522.2719,117.4781 Q522.5063,117.3844 522.7594,117.1219 Q522.9187,116.9625 523.0031,116.9156 Q523.0969,116.8687 523.2188,116.8687 Q523.4156,116.8687 523.5656,117.0281 Q523.725,117.1781 523.725,117.3844 Q523.725,117.5906 523.5188,117.8344 Q523.2188,118.1812 522.7406,118.3781 Q522.0938,118.65 521.3156,118.65 Q520.4063,118.65 519.6844,118.275 Q519.0938,117.975 518.6813,117.3375 Q518.2688,116.6906 518.2688,115.9219 L518.2688,115.2281 Q518.2688,114.4312 518.6344,113.7469 Q519.0094,113.0531 519.6656,112.6875 Q520.3219,112.3125 521.0625,112.3125 Q521.5031,112.3125 521.8875,112.4156 Q522.2813,112.5094 522.6094,112.725 Z " fill="#000000"/><text fill="#000000" font-family="sans-serif" font-size="8.4" lengthAdjust="spacing" textLength="94.8" x="533.25" y="118.1121">CreateRequestController</text><line style="stroke:#181818;stroke-width:0.3;" x1="386.7" x2="755.1" y1="124.8" y2="124.8"/><line style="stroke:#181818;stroke-width:0.3;" x1="386.7" x2="755.1" y1="129.6" y2="129.6"/><text fill="#000000" font-family="sans-serif" font-size="8.4" lengthAdjust="spacing" textLength="362.4" x="389.7" y="139.6043">+createRequestController(requestTypeRepository, propertyTypeRepository, agencyRepository)</text></g><!--class Repositories--><g id="elem_Repositories"><rect codeLine="11" fill="#F1F1F1" height="75.7219" id="Repositories" rx="1.5" ry="1.5" style="stroke:#181818;stroke-width:0.3;" width="122.4" x="215.1" y="216.6"/><ellipse cx="250.05" cy="226.2" fill="#ADD1B2" rx="6.6" ry="6.6" style="stroke:#181818;stroke-width:0.6;"/><path d="M251.7094,223.725 Q251.8031,223.5938 251.9156,223.5281 Q252.0281,223.4625 252.1594,223.4625 Q252.3844,223.4625 252.525,223.6219 Q252.6656,223.7719 252.6656,224.1375 L252.6656,225.0094 Q252.6656,225.375 252.525,225.5344 Q252.3844,225.6938 252.1594,225.6938 Q251.9531,225.6938 251.8312,225.5719 Q251.7094,225.4594 251.6437,225.15 Q251.6156,224.9344 251.5031,224.8219 Q251.3062,224.5969 250.9406,224.4656 Q250.575,224.3344 250.2,224.3344 Q249.7406,224.3344 249.3563,224.5313 Q248.9813,224.7281 248.6812,225.1781 Q248.3906,225.6281 248.3906,226.2469 L248.3906,226.9031 Q248.3906,227.6437 248.925,228.1406 Q249.4594,228.6281 250.4156,228.6281 Q250.9781,228.6281 251.3719,228.4781 Q251.6063,228.3844 251.8594,228.1219 Q252.0187,227.9625 252.1031,227.9156 Q252.1969,227.8688 252.3188,227.8688 Q252.5156,227.8688 252.6656,228.0281 Q252.825,228.1781 252.825,228.3844 Q252.825,228.5906 252.6187,228.8344 Q252.3188,229.1813 251.8406,229.3781 Q251.1938,229.65 250.4156,229.65 Q249.5063,229.65 248.7844,229.275 Q248.1938,228.975 247.7813,228.3375 Q247.3687,227.6906 247.3687,226.9219 L247.3687,226.2281 Q247.3687,225.4313 247.7344,224.7469 Q248.1094,224.0531 248.7656,223.6875 Q249.4219,223.3125 250.1625,223.3125 Q250.6031,223.3125 250.9875,223.4156 Q251.3813,223.5094 251.7094,223.725 Z " fill="#000000"/><text fill="#000000" font-family="sans-serif" font-size="8.4" lengthAdjust="spacing" textLength="47.4" x="262.35" y="229.1121">Repositories</text><line style="stroke:#181818;stroke-width:0.3;" x1="215.7" x2="336.9" y1="235.8" y2="235.8"/><text fill="#000000" font-family="sans-serif" font-size="8.4" lengthAdjust="spacing" textLength="50.4" x="218.7" y="245.8043">-Repositories</text><line style="stroke:#181818;stroke-width:0.3;" x1="215.7" x2="336.9" y1="249.9844" y2="249.9844"/><text fill="#000000" font-family="sans-serif" font-size="8.4" lengthAdjust="spacing" textLength="104.4" x="218.7" y="259.9887">+getInstance():Repositories</text><text fill="#000000" font-family="sans-serif" font-size="8.4" lengthAdjust="spacing" textLength="114.6" x="218.7" y="269.373">+getRequestTypeRepository()</text><text fill="#000000" font-family="sans-serif" font-size="8.4" lengthAdjust="spacing" textLength="115.2" x="218.7" y="278.7574">+getPropertyTypeRepository()</text><text fill="#000000" font-family="sans-serif" font-size="8.4" lengthAdjust="spacing" textLength="91.8" x="218.7" y="288.1418">+getAgencyRepository()</text></g><!--class PropertyTypeRepository--><g id="elem_PropertyTypeRepository"><rect codeLine="19" fill="#F1F1F1" height="47.5688" id="PropertyTypeRepository" rx="1.5" ry="1.5" style="stroke:#181818;stroke-width:0.3;" width="126.6" x="369.6" y="230.7"/><ellipse cx="385.35" cy="240.3" fill="#ADD1B2" rx="6.6" ry="6.6" style="stroke:#181818;stroke-width:0.6;"/><path d="M387.0094,237.825 Q387.1031,237.6938 387.2156,237.6281 Q387.3281,237.5625 387.4594,237.5625 Q387.6844,237.5625 387.825,237.7219 Q387.9656,237.8719 387.9656,238.2375 L387.9656,239.1094 Q387.9656,239.475 387.825,239.6344 Q387.6844,239.7938 387.4594,239.7938 Q387.2531,239.7938 387.1312,239.6719 Q387.0094,239.5594 386.9437,239.25 Q386.9156,239.0344 386.8031,238.9219 Q386.6063,238.6969 386.2406,238.5656 Q385.875,238.4344 385.5,238.4344 Q385.0406,238.4344 384.6563,238.6313 Q384.2813,238.8281 383.9813,239.2781 Q383.6906,239.7281 383.6906,240.3469 L383.6906,241.0031 Q383.6906,241.7437 384.225,242.2406 Q384.7594,242.7281 385.7156,242.7281 Q386.2781,242.7281 386.6719,242.5781 Q386.9063,242.4844 387.1594,242.2219 Q387.3187,242.0625 387.4031,242.0156 Q387.4969,241.9688 387.6188,241.9688 Q387.8156,241.9688 387.9656,242.1281 Q388.125,242.2781 388.125,242.4844 Q388.125,242.6906 387.9188,242.9344 Q387.6188,243.2813 387.1406,243.4781 Q386.4938,243.75 385.7156,243.75 Q384.8063,243.75 384.0844,243.375 Q383.4938,243.075 383.0813,242.4375 Q382.6688,241.7906 382.6688,241.0219 L382.6688,240.3281 Q382.6688,239.5313 383.0344,238.8469 Q383.4094,238.1531 384.0656,237.7875 Q384.7219,237.4125 385.4625,237.4125 Q385.9031,237.4125 386.2875,237.5156 Q386.6813,237.6094 387.0094,237.825 Z " fill="#000000"/><text fill="#000000" font-family="sans-serif" font-size="8.4" lengthAdjust="spacing" textLength="92.4" x="395.25" y="243.2121">PropertyTypeRepository</text><line style="stroke:#181818;stroke-width:0.3;" x1="370.2" x2="495.6" y1="249.9" y2="249.9"/><text fill="#000000" font-family="sans-serif" font-size="8.4" lengthAdjust="spacing" textLength="119.4" x="373.2" y="259.9043">-propertyTypeList: List &lt;String&gt;</text><line style="stroke:#181818;stroke-width:0.3;" x1="370.2" x2="495.6" y1="264.0844" y2="264.0844"/><text fill="#000000" font-family="sans-serif" font-size="8.4" lengthAdjust="spacing" textLength="74.4" x="373.2" y="274.0887">+getPropertyType()</text></g><!--class AgencyTypeRepository--><g id="elem_AgencyTypeRepository"><rect codeLine="24" fill="#F1F1F1" height="47.5688" id="AgencyTypeRepository" rx="1.5" ry="1.5" style="stroke:#181818;stroke-width:0.3;" width="107.4" x="517.2" y="230.7"/><ellipse cx="526.2" cy="240.3" fill="#ADD1B2" rx="6.6" ry="6.6" style="stroke:#181818;stroke-width:0.6;"/><path d="M527.8594,237.825 Q527.9531,237.6938 528.0656,237.6281 Q528.1781,237.5625 528.3094,237.5625 Q528.5344,237.5625 528.675,237.7219 Q528.8156,237.8719 528.8156,238.2375 L528.8156,239.1094 Q528.8156,239.475 528.675,239.6344 Q528.5344,239.7938 528.3094,239.7938 Q528.1031,239.7938 527.9812,239.6719 Q527.8594,239.5594 527.7937,239.25 Q527.7656,239.0344 527.6531,238.9219 Q527.4563,238.6969 527.0906,238.5656 Q526.725,238.4344 526.35,238.4344 Q525.8906,238.4344 525.5063,238.6313 Q525.1313,238.8281 524.8313,239.2781 Q524.5406,239.7281 524.5406,240.3469 L524.5406,241.0031 Q524.5406,241.7437 525.075,242.2406 Q525.6094,242.7281 526.5656,242.7281 Q527.1281,242.7281 527.5219,242.5781 Q527.7563,242.4844 528.0094,242.2219 Q528.1687,242.0625 528.2531,242.0156 Q528.3469,241.9688 528.4688,241.9688 Q528.6656,241.9688 528.8156,242.1281 Q528.975,242.2781 528.975,242.4844 Q528.975,242.6906 528.7688,242.9344 Q528.4688,243.2813 527.9906,243.4781 Q527.3438,243.75 526.5656,243.75 Q525.6563,243.75 524.9344,243.375 Q524.3438,243.075 523.9313,242.4375 Q523.5188,241.7906 523.5188,241.0219 L523.5188,240.3281 Q523.5188,239.5313 523.8844,238.8469 Q524.2594,238.1531 524.9156,237.7875 Q525.5719,237.4125 526.3125,237.4125 Q526.7531,237.4125 527.1375,237.5156 Q527.5313,237.6094 527.8594,237.825 Z " fill="#000000"/><text fill="#000000" font-family="sans-serif" font-size="8.4" lengthAdjust="spacing" textLength="88.2" x="534.6" y="243.2121">AgencyTypeRepository</text><line style="stroke:#181818;stroke-width:0.3;" x1="517.8" x2="624" y1="249.9" y2="249.9"/><text fill="#000000" font-family="sans-serif" font-size="8.4" lengthAdjust="spacing" textLength="99.6" x="520.8" y="259.9043">-agencyList: List&lt;Agency&gt;</text><line style="stroke:#181818;stroke-width:0.3;" x1="517.8" x2="624" y1="264.0844" y2="264.0844"/><text fill="#000000" font-family="sans-serif" font-size="8.4" lengthAdjust="spacing" textLength="64.2" x="520.8" y="274.0887">+getAgencyList()</text></g><!--class Agency--><g id="elem_Agency"><rect codeLine="29" fill="#F1F1F1" height="85.1063" id="Agency" rx="1.5" ry="1.5" style="stroke:#181818;stroke-width:0.3;" width="125.4" x="550.8" y="328.2"/><ellipse cx="596.85" cy="337.8" fill="#ADD1B2" rx="6.6" ry="6.6" style="stroke:#181818;stroke-width:0.6;"/><path d="M598.5094,335.325 Q598.6031,335.1937 598.7156,335.1281 Q598.8281,335.0625 598.9594,335.0625 Q599.1844,335.0625 599.325,335.2219 Q599.4656,335.3719 599.4656,335.7375 L599.4656,336.6094 Q599.4656,336.975 599.325,337.1344 Q599.1844,337.2938 598.9594,337.2938 Q598.7531,337.2938 598.6313,337.1719 Q598.5094,337.0594 598.4438,336.75 Q598.4156,336.5344 598.3031,336.4219 Q598.1062,336.1969 597.7406,336.0656 Q597.375,335.9344 597,335.9344 Q596.5406,335.9344 596.1563,336.1312 Q595.7813,336.3281 595.4812,336.7781 Q595.1906,337.2281 595.1906,337.8469 L595.1906,338.5031 Q595.1906,339.2438 595.725,339.7406 Q596.2594,340.2281 597.2156,340.2281 Q597.7781,340.2281 598.1719,340.0781 Q598.4063,339.9844 598.6594,339.7219 Q598.8188,339.5625 598.9031,339.5156 Q598.9969,339.4688 599.1188,339.4688 Q599.3156,339.4688 599.4656,339.6281 Q599.625,339.7781 599.625,339.9844 Q599.625,340.1906 599.4187,340.4344 Q599.1188,340.7813 598.6406,340.9781 Q597.9938,341.25 597.2156,341.25 Q596.3063,341.25 595.5844,340.875 Q594.9938,340.575 594.5813,339.9375 Q594.1687,339.2906 594.1687,338.5219 L594.1687,337.8281 Q594.1687,337.0313 594.5344,336.3469 Q594.9094,335.6531 595.5656,335.2875 Q596.2219,334.9125 596.9625,334.9125 Q597.4031,334.9125 597.7875,335.0156 Q598.1813,335.1094 598.5094,335.325 Z " fill="#000000"/><text fill="#000000" font-family="sans-serif" font-size="8.4" lengthAdjust="spacing" textLength="28.2" x="609.15" y="340.7121">Agency</text><line style="stroke:#181818;stroke-width:0.3;" x1="551.4" x2="675.6" y1="347.4" y2="347.4"/><text fill="#000000" font-family="sans-serif" font-size="8.4" lengthAdjust="spacing" textLength="59.4" x="554.4" y="357.4043">-location: String</text><text fill="#000000" font-family="sans-serif" font-size="8.4" lengthAdjust="spacing" textLength="73.8" x="554.4" y="366.7887">-designation: String</text><text fill="#000000" font-family="sans-serif" font-size="8.4" lengthAdjust="spacing" textLength="104.4" x="554.4" y="376.173">-requestList: List&lt;Request&gt;</text><text fill="#000000" font-family="sans-serif" font-size="8.4" lengthAdjust="spacing" textLength="117.6" x="554.4" y="385.5574">-employeeList: List&lt;Employee&gt;</text><line style="stroke:#181818;stroke-width:0.3;" x1="551.4" x2="675.6" y1="389.7375" y2="389.7375"/><text fill="#000000" font-family="sans-serif" font-size="8.4" lengthAdjust="spacing" textLength="114.6" x="554.4" y="399.7418">+createRequest(requestType)</text><text fill="#000000" font-family="sans-serif" font-size="8.4" lengthAdjust="spacing" textLength="118.2" x="554.4" y="409.1262">+getAgentList(selectedAgency)</text></g><!--class RequestTypeRepository--><g id="elem_RequestTypeRepository"><rect codeLine="38" fill="#F1F1F1" height="47.5688" id="RequestTypeRepository" rx="1.5" ry="1.5" style="stroke:#181818;stroke-width:0.3;" width="121.2" x="688.5" y="230.7"/><ellipse cx="702.09" cy="240.3" fill="#ADD1B2" rx="6.6" ry="6.6" style="stroke:#181818;stroke-width:0.6;"/><path d="M703.7494,237.825 Q703.8431,237.6938 703.9556,237.6281 Q704.0681,237.5625 704.1994,237.5625 Q704.4244,237.5625 704.565,237.7219 Q704.7056,237.8719 704.7056,238.2375 L704.7056,239.1094 Q704.7056,239.475 704.565,239.6344 Q704.4244,239.7938 704.1994,239.7938 Q703.9931,239.7938 703.8713,239.6719 Q703.7494,239.5594 703.6838,239.25 Q703.6556,239.0344 703.5431,238.9219 Q703.3463,238.6969 702.9806,238.5656 Q702.615,238.4344 702.24,238.4344 Q701.7806,238.4344 701.3963,238.6313 Q701.0213,238.8281 700.7213,239.2781 Q700.4306,239.7281 700.4306,240.3469 L700.4306,241.0031 Q700.4306,241.7437 700.965,242.2406 Q701.4994,242.7281 702.4556,242.7281 Q703.0181,242.7281 703.4119,242.5781 Q703.6463,242.4844 703.8994,242.2219 Q704.0588,242.0625 704.1431,242.0156 Q704.2369,241.9688 704.3588,241.9688 Q704.5556,241.9688 704.7056,242.1281 Q704.865,242.2781 704.865,242.4844 Q704.865,242.6906 704.6588,242.9344 Q704.3588,243.2813 703.8806,243.4781 Q703.2338,243.75 702.4556,243.75 Q701.5463,243.75 700.8244,243.375 Q700.2338,243.075 699.8213,242.4375 Q699.4088,241.7906 699.4088,241.0219 L699.4088,240.3281 Q699.4088,239.5313 699.7744,238.8469 Q700.1494,238.1531 700.8056,237.7875 Q701.4619,237.4125 702.2025,237.4125 Q702.6431,237.4125 703.0275,237.5156 Q703.4213,237.6094 703.7494,237.825 Z " fill="#000000"/><text fill="#000000" font-family="sans-serif" font-size="8.4" lengthAdjust="spacing" textLength="91.8" x="711.51" y="243.2121">RequestTypeRepository</text><line style="stroke:#181818;stroke-width:0.3;" x1="689.1" x2="809.1" y1="249.9" y2="249.9"/><text fill="#000000" font-family="sans-serif" font-size="8.4" lengthAdjust="spacing" textLength="114" x="692.1" y="259.9043">-requestTypeList: List&lt;String&gt;</text><line style="stroke:#181818;stroke-width:0.3;" x1="689.1" x2="809.1" y1="264.0844" y2="264.0844"/><text fill="#000000" font-family="sans-serif" font-size="8.4" lengthAdjust="spacing" textLength="73.8" x="692.1" y="274.0887">+getRequestType()</text></g><!--class Request--><g id="elem_Request"><rect codeLine="43" fill="#F1F1F1" height="103.875" id="Request" rx="1.5" ry="1.5" style="stroke:#181818;stroke-width:0.3;" width="420" x="161.7" y="449.4"/><ellipse cx="353.25" cy="459" fill="#ADD1B2" rx="6.6" ry="6.6" style="stroke:#181818;stroke-width:0.6;"/><path d="M354.9094,456.525 Q355.0031,456.3938 355.1156,456.3281 Q355.2281,456.2625 355.3594,456.2625 Q355.5844,456.2625 355.725,456.4219 Q355.8656,456.5719 355.8656,456.9375 L355.8656,457.8094 Q355.8656,458.175 355.725,458.3344 Q355.5844,458.4938 355.3594,458.4938 Q355.1531,458.4938 355.0313,458.3719 Q354.9094,458.2594 354.8438,457.95 Q354.8156,457.7344 354.7031,457.6219 Q354.5062,457.3969 354.1406,457.2656 Q353.775,457.1344 353.4,457.1344 Q352.9406,457.1344 352.5563,457.3313 Q352.1813,457.5281 351.8812,457.9781 Q351.5906,458.4281 351.5906,459.0469 L351.5906,459.7031 Q351.5906,460.4437 352.125,460.9406 Q352.6594,461.4281 353.6156,461.4281 Q354.1781,461.4281 354.5719,461.2781 Q354.8063,461.1844 355.0594,460.9219 Q355.2188,460.7625 355.3031,460.7156 Q355.3969,460.6688 355.5188,460.6688 Q355.7156,460.6688 355.8656,460.8281 Q356.025,460.9781 356.025,461.1844 Q356.025,461.3906 355.8187,461.6344 Q355.5188,461.9813 355.0406,462.1781 Q354.3938,462.45 353.6156,462.45 Q352.7063,462.45 351.9844,462.075 Q351.3938,461.775 350.9813,461.1375 Q350.5687,460.4906 350.5687,459.7219 L350.5687,459.0281 Q350.5687,458.2313 350.9344,457.5469 Q351.3094,456.8531 351.9656,456.4875 Q352.6219,456.1125 353.3625,456.1125 Q353.8031,456.1125 354.1875,456.2156 Q354.5813,456.3094 354.9094,456.525 Z " fill="#000000"/><text fill="#000000" font-family="sans-serif" font-size="8.4" lengthAdjust="spacing" textLength="31.8" x="365.55" y="461.9121">Request</text><line style="stroke:#181818;stroke-width:0.3;" x1="162.3" x2="581.1" y1="468.6" y2="468.6"/><text fill="#000000" font-family="sans-serif" font-size="8.4" lengthAdjust="spacing" textLength="87.6" x="165.3" y="478.6043">-requestState: Boolean</text><text fill="#000000" font-family="sans-serif" font-size="8.4" lengthAdjust="spacing" textLength="46.8" x="165.3" y="487.9887">-date: String</text><text fill="#000000" font-family="sans-serif" font-size="8.4" lengthAdjust="spacing" textLength="83.4" x="165.3" y="497.373">-requestOwner: String</text><line style="stroke:#181818;stroke-width:0.3;" x1="162.3" x2="581.1" y1="501.5531" y2="501.5531"/><text fill="#000000" font-family="sans-serif" font-size="8.4" lengthAdjust="spacing" textLength="124.8" x="165.3" y="511.5574">+setPropertyType(propertyType)</text><text fill="#000000" font-family="sans-serif" font-size="8.4" lengthAdjust="spacing" textLength="315.6" x="165.3" y="520.9418">+createProperty(area, location, distanceFromTheCityCentre, price, photographList)</text><text fill="#000000" font-family="sans-serif" font-size="8.4" lengthAdjust="spacing" textLength="89.4" x="165.3" y="530.3262">+addProperty(property)</text><text fill="#000000" font-family="sans-serif" font-size="8.4" lengthAdjust="spacing" textLength="412.8" x="165.3" y="539.7105">+createResidence(numberOfBedrooms, numberOfBathrooms, numberOfParkingSpaces, availableEquipment)</text><text fill="#000000" font-family="sans-serif" font-size="8.4" lengthAdjust="spacing" textLength="210.6" x="165.3" y="549.0949">+createHouse(basement, inhabitableLoft, sunExposure)</text></g><!--class Property--><g id="elem_Property"><rect codeLine="54" fill="#F1F1F1" height="75.7219" id="Property" rx="1.5" ry="1.5" style="stroke:#181818;stroke-width:0.3;" width="148.8" x="143.7" y="589.2"/><ellipse cx="199.35" cy="598.8" fill="#ADD1B2" rx="6.6" ry="6.6" style="stroke:#181818;stroke-width:0.6;"/><path d="M201.0094,596.325 Q201.1031,596.1938 201.2156,596.1281 Q201.3281,596.0625 201.4594,596.0625 Q201.6844,596.0625 201.825,596.2219 Q201.9656,596.3719 201.9656,596.7375 L201.9656,597.6094 Q201.9656,597.975 201.825,598.1344 Q201.6844,598.2937 201.4594,598.2937 Q201.2531,598.2937 201.1313,598.1719 Q201.0094,598.0594 200.9438,597.75 Q200.9156,597.5344 200.8031,597.4219 Q200.6063,597.1969 200.2406,597.0656 Q199.875,596.9344 199.5,596.9344 Q199.0406,596.9344 198.6563,597.1313 Q198.2813,597.3281 197.9813,597.7781 Q197.6906,598.2281 197.6906,598.8469 L197.6906,599.5031 Q197.6906,600.2438 198.225,600.7406 Q198.7594,601.2281 199.7156,601.2281 Q200.2781,601.2281 200.6719,601.0781 Q200.9063,600.9844 201.1594,600.7219 Q201.3188,600.5625 201.4031,600.5156 Q201.4969,600.4688 201.6188,600.4688 Q201.8156,600.4688 201.9656,600.6281 Q202.125,600.7781 202.125,600.9844 Q202.125,601.1906 201.9188,601.4344 Q201.6188,601.7813 201.1406,601.9781 Q200.4938,602.25 199.7156,602.25 Q198.8063,602.25 198.0844,601.875 Q197.4938,601.575 197.0812,600.9375 Q196.6688,600.2906 196.6688,599.5219 L196.6688,598.8281 Q196.6688,598.0313 197.0344,597.3469 Q197.4094,596.6531 198.0656,596.2875 Q198.7219,595.9125 199.4625,595.9125 Q199.9031,595.9125 200.2875,596.0156 Q200.6813,596.1094 201.0094,596.325 Z " fill="#000000"/><text fill="#000000" font-family="sans-serif" font-size="8.4" lengthAdjust="spacing" textLength="32.4" x="211.65" y="601.7121">Property</text><line style="stroke:#181818;stroke-width:0.3;" x1="144.3" x2="291.9" y1="608.4" y2="608.4"/><text fill="#000000" font-family="sans-serif" font-size="8.4" lengthAdjust="spacing" textLength="49.2" x="147.3" y="618.4043">-area:Integer</text><text fill="#000000" font-family="sans-serif" font-size="8.4" lengthAdjust="spacing" textLength="59.4" x="147.3" y="627.7887">-location: String</text><text fill="#000000" font-family="sans-serif" font-size="8.4" lengthAdjust="spacing" textLength="141.6" x="147.3" y="637.173">-distanceFromTheCityCentre: Double</text><text fill="#000000" font-family="sans-serif" font-size="8.4" lengthAdjust="spacing" textLength="52.8" x="147.3" y="646.5574">-price: Integer</text><text fill="#000000" font-family="sans-serif" font-size="8.4" lengthAdjust="spacing" textLength="96.6" x="147.3" y="655.9418">-photograph: List&lt;String&gt;</text><line style="stroke:#181818;stroke-width:0.3;" x1="144.3" x2="291.9" y1="660.1219" y2="660.1219"/></g><!--class Owner--><g id="elem_Owner"><rect codeLine="62" fill="#F1F1F1" height="47.5688" id="Owner" rx="1.5" ry="1.5" style="stroke:#181818;stroke-width:0.3;" width="122.4" x="459.3" y="603.3"/><ellipse cx="505.65" cy="612.9" fill="#ADD1B2" rx="6.6" ry="6.6" style="stroke:#181818;stroke-width:0.6;"/><path d="M507.3094,610.425 Q507.4031,610.2937 507.5156,610.2281 Q507.6281,610.1625 507.7594,610.1625 Q507.9844,610.1625 508.125,610.3219 Q508.2656,610.4719 508.2656,610.8375 L508.2656,611.7094 Q508.2656,612.075 508.125,612.2344 Q507.9844,612.3938 507.7594,612.3938 Q507.5531,612.3938 507.4313,612.2719 Q507.3094,612.1594 507.2438,611.85 Q507.2156,611.6344 507.1031,611.5219 Q506.9063,611.2969 506.5406,611.1656 Q506.175,611.0344 505.8,611.0344 Q505.3406,611.0344 504.9562,611.2312 Q504.5812,611.4281 504.2813,611.8781 Q503.9906,612.3281 503.9906,612.9469 L503.9906,613.6031 Q503.9906,614.3438 504.525,614.8406 Q505.0594,615.3281 506.0156,615.3281 Q506.5781,615.3281 506.9719,615.1781 Q507.2062,615.0844 507.4594,614.8219 Q507.6188,614.6625 507.7031,614.6156 Q507.7969,614.5688 507.9188,614.5688 Q508.1156,614.5688 508.2656,614.7281 Q508.425,614.8781 508.425,615.0844 Q508.425,615.2906 508.2188,615.5344 Q507.9188,615.8813 507.4406,616.0781 Q506.7938,616.35 506.0156,616.35 Q505.1063,616.35 504.3844,615.975 Q503.7938,615.675 503.3812,615.0375 Q502.9688,614.3906 502.9688,613.6219 L502.9688,612.9281 Q502.9688,612.1313 503.3344,611.4469 Q503.7094,610.7531 504.3656,610.3875 Q505.0219,610.0125 505.7625,610.0125 Q506.2031,610.0125 506.5875,610.1156 Q506.9813,610.2094 507.3094,610.425 Z " fill="#000000"/><text fill="#000000" font-family="sans-serif" font-size="8.4" lengthAdjust="spacing" textLength="24.6" x="517.95" y="615.8121">Owner</text><line style="stroke:#181818;stroke-width:0.3;" x1="459.9" x2="581.1" y1="622.5" y2="622.5"/><text fill="#000000" font-family="sans-serif" font-size="8.4" lengthAdjust="spacing" textLength="51" x="462.9" y="632.5043">-name: String</text><text fill="#000000" font-family="sans-serif" font-size="8.4" lengthAdjust="spacing" textLength="115.2" x="462.9" y="641.8887">-passportCardNumber: Integer</text><line style="stroke:#181818;stroke-width:0.3;" x1="459.9" x2="581.1" y1="646.0688" y2="646.0688"/></g><!--class Residence--><g id="elem_Residence"><rect codeLine="67" fill="#F1F1F1" height="66.3375" id="Residence" rx="1.5" ry="1.5" style="stroke:#181818;stroke-width:0.3;" width="136.2" x="4.2" y="468"/><ellipse cx="49.65" cy="477.6" fill="#ADD1B2" rx="6.6" ry="6.6" style="stroke:#181818;stroke-width:0.6;"/><path d="M51.3094,475.125 Q51.4031,474.9938 51.5156,474.9281 Q51.6281,474.8625 51.7594,474.8625 Q51.9844,474.8625 52.125,475.0219 Q52.2656,475.1719 52.2656,475.5375 L52.2656,476.4094 Q52.2656,476.775 52.125,476.9344 Q51.9844,477.0938 51.7594,477.0938 Q51.5531,477.0938 51.4313,476.9719 Q51.3094,476.8594 51.2438,476.55 Q51.2156,476.3344 51.1031,476.2219 Q50.9063,475.9969 50.5406,475.8656 Q50.175,475.7344 49.8,475.7344 Q49.3406,475.7344 48.9563,475.9313 Q48.5813,476.1281 48.2813,476.5781 Q47.9906,477.0281 47.9906,477.6469 L47.9906,478.3031 Q47.9906,479.0438 48.525,479.5406 Q49.0594,480.0281 50.0156,480.0281 Q50.5781,480.0281 50.9719,479.8781 Q51.2063,479.7844 51.4594,479.5219 Q51.6188,479.3625 51.7031,479.3156 Q51.7969,479.2687 51.9187,479.2687 Q52.1156,479.2687 52.2656,479.4281 Q52.425,479.5781 52.425,479.7844 Q52.425,479.9906 52.2188,480.2344 Q51.9187,480.5812 51.4406,480.7781 Q50.7937,481.05 50.0156,481.05 Q49.1062,481.05 48.3844,480.675 Q47.7937,480.375 47.3813,479.7375 Q46.9688,479.0906 46.9688,478.3219 L46.9688,477.6281 Q46.9688,476.8312 47.3344,476.1469 Q47.7094,475.4531 48.3656,475.0875 Q49.0219,474.7125 49.7625,474.7125 Q50.2031,474.7125 50.5875,474.8156 Q50.9812,474.9094 51.3094,475.125 Z " fill="#000000"/><text fill="#000000" font-family="sans-serif" font-size="8.4" lengthAdjust="spacing" textLength="40.2" x="61.95" y="480.5121">Residence</text><line style="stroke:#181818;stroke-width:0.3;" x1="4.8" x2="139.8" y1="487.2" y2="487.2"/><text fill="#000000" font-family="sans-serif" font-size="8.4" lengthAdjust="spacing" textLength="110.4" x="7.8" y="497.2043">-numberOfBedrooms: Integer</text><text fill="#000000" font-family="sans-serif" font-size="8.4" lengthAdjust="spacing" textLength="112.8" x="7.8" y="506.5887">-numberOfBathrooms: Integer</text><text fill="#000000" font-family="sans-serif" font-size="8.4" lengthAdjust="spacing" textLength="129" x="7.8" y="515.973">-numberOfParkingSpaces: Integer</text><text fill="#000000" font-family="sans-serif" font-size="8.4" lengthAdjust="spacing" textLength="103.8" x="7.8" y="525.3574">-availableEquipment: String</text><line style="stroke:#181818;stroke-width:0.3;" x1="4.8" x2="139.8" y1="529.5375" y2="529.5375"/></g><!--class House--><g id="elem_House"><rect codeLine="74" fill="#F1F1F1" height="56.9531" id="House" rx="1.5" ry="1.5" style="stroke:#181818;stroke-width:0.3;" width="101.4" x="21.6" y="342.3"/><ellipse cx="57.75" cy="351.9" fill="#ADD1B2" rx="6.6" ry="6.6" style="stroke:#181818;stroke-width:0.6;"/><path d="M59.4094,349.425 Q59.5031,349.2938 59.6156,349.2281 Q59.7281,349.1625 59.8594,349.1625 Q60.0844,349.1625 60.225,349.3219 Q60.3656,349.4719 60.3656,349.8375 L60.3656,350.7094 Q60.3656,351.075 60.225,351.2344 Q60.0844,351.3938 59.8594,351.3938 Q59.6531,351.3938 59.5313,351.2719 Q59.4094,351.1594 59.3438,350.85 Q59.3156,350.6344 59.2031,350.5219 Q59.0062,350.2969 58.6406,350.1656 Q58.275,350.0344 57.9,350.0344 Q57.4406,350.0344 57.0563,350.2313 Q56.6813,350.4281 56.3813,350.8781 Q56.0906,351.3281 56.0906,351.9469 L56.0906,352.6031 Q56.0906,353.3438 56.625,353.8406 Q57.1594,354.3281 58.1156,354.3281 Q58.6781,354.3281 59.0719,354.1781 Q59.3063,354.0844 59.5594,353.8219 Q59.7188,353.6625 59.8031,353.6156 Q59.8969,353.5687 60.0188,353.5687 Q60.2156,353.5687 60.3656,353.7281 Q60.525,353.8781 60.525,354.0844 Q60.525,354.2906 60.3187,354.5344 Q60.0188,354.8812 59.5406,355.0781 Q58.8938,355.35 58.1156,355.35 Q57.2063,355.35 56.4844,354.975 Q55.8938,354.675 55.4812,354.0375 Q55.0688,353.3906 55.0688,352.6219 L55.0688,351.9281 Q55.0688,351.1312 55.4344,350.4469 Q55.8094,349.7531 56.4656,349.3875 Q57.1219,349.0125 57.8625,349.0125 Q58.3031,349.0125 58.6875,349.1156 Q59.0813,349.2094 59.4094,349.425 Z " fill="#000000"/><text fill="#000000" font-family="sans-serif" font-size="8.4" lengthAdjust="spacing" textLength="24" x="70.05" y="354.8121">House</text><line style="stroke:#181818;stroke-width:0.3;" x1="22.2" x2="122.4" y1="361.5" y2="361.5"/><text fill="#000000" font-family="sans-serif" font-size="8.4" lengthAdjust="spacing" textLength="75.6" x="25.2" y="371.5043">-basement: boolean</text><text fill="#000000" font-family="sans-serif" font-size="8.4" lengthAdjust="spacing" textLength="94.2" x="25.2" y="380.8887">-inhabitableLoft: boolean</text><text fill="#000000" font-family="sans-serif" font-size="8.4" lengthAdjust="spacing" textLength="79.2" x="25.2" y="390.273">-sunExposure: String</text><line style="stroke:#181818;stroke-width:0.3;" x1="22.2" x2="122.4" y1="394.4531" y2="394.4531"/></g><!--class Contacts--><g id="elem_Contacts"><rect codeLine="80" fill="#F1F1F1" height="47.5688" id="Contacts" rx="1.5" ry="1.5" style="stroke:#181818;stroke-width:0.3;" width="94.8" x="566.1" y="700.8"/><ellipse cx="594.15" cy="710.4" fill="#ADD1B2" rx="6.6" ry="6.6" style="stroke:#181818;stroke-width:0.6;"/><path d="M595.8094,707.925 Q595.9031,707.7937 596.0156,707.7281 Q596.1281,707.6625 596.2594,707.6625 Q596.4844,707.6625 596.625,707.8219 Q596.7656,707.9719 596.7656,708.3375 L596.7656,709.2094 Q596.7656,709.575 596.625,709.7344 Q596.4844,709.8938 596.2594,709.8938 Q596.0531,709.8938 595.9313,709.7719 Q595.8094,709.6594 595.7438,709.35 Q595.7156,709.1344 595.6031,709.0219 Q595.4063,708.7969 595.0406,708.6656 Q594.675,708.5344 594.3,708.5344 Q593.8406,708.5344 593.4563,708.7312 Q593.0813,708.9281 592.7813,709.3781 Q592.4906,709.8281 592.4906,710.4469 L592.4906,711.1031 Q592.4906,711.8438 593.025,712.3406 Q593.5594,712.8281 594.5156,712.8281 Q595.0781,712.8281 595.4719,712.6781 Q595.7063,712.5844 595.9594,712.3219 Q596.1188,712.1625 596.2031,712.1156 Q596.2969,712.0688 596.4187,712.0688 Q596.6156,712.0688 596.7656,712.2281 Q596.925,712.3781 596.925,712.5844 Q596.925,712.7906 596.7188,713.0344 Q596.4187,713.3813 595.9406,713.5781 Q595.2937,713.85 594.5156,713.85 Q593.6062,713.85 592.8844,713.475 Q592.2937,713.175 591.8813,712.5375 Q591.4688,711.8906 591.4688,711.1219 L591.4688,710.4281 Q591.4688,709.6313 591.8344,708.9469 Q592.2094,708.2531 592.8656,707.8875 Q593.5219,707.5125 594.2625,707.5125 Q594.7031,707.5125 595.0875,707.6156 Q595.4812,707.7094 595.8094,707.925 Z " fill="#000000"/><text fill="#000000" font-family="sans-serif" font-size="8.4" lengthAdjust="spacing" textLength="33.6" x="606.45" y="713.3121">Contacts</text><line style="stroke:#181818;stroke-width:0.3;" x1="566.7" x2="660.3" y1="720" y2="720"/><text fill="#000000" font-family="sans-serif" font-size="8.4" lengthAdjust="spacing" textLength="87.6" x="569.7" y="730.0043">-phoneNumber: Integer</text><text fill="#000000" font-family="sans-serif" font-size="8.4" lengthAdjust="spacing" textLength="81" x="569.7" y="739.3887">-emailAddress: String</text><line style="stroke:#181818;stroke-width:0.3;" x1="566.7" x2="660.3" y1="743.5688" y2="743.5688"/></g><!--class Employee--><g id="elem_Employee"><rect codeLine="85" fill="#F1F1F1" height="47.5688" id="Employee" rx="1.5" ry="1.5" style="stroke:#181818;stroke-width:0.3;" width="122.4" x="645.3" y="603.3"/><ellipse cx="685.35" cy="612.9" fill="#ADD1B2" rx="6.6" ry="6.6" style="stroke:#181818;stroke-width:0.6;"/><path d="M687.0094,610.425 Q687.1031,610.2937 687.2156,610.2281 Q687.3281,610.1625 687.4594,610.1625 Q687.6844,610.1625 687.825,610.3219 Q687.9656,610.4719 687.9656,610.8375 L687.9656,611.7094 Q687.9656,612.075 687.825,612.2344 Q687.6844,612.3938 687.4594,612.3938 Q687.2531,612.3938 687.1313,612.2719 Q687.0094,612.1594 686.9438,611.85 Q686.9156,611.6344 686.8031,611.5219 Q686.6062,611.2969 686.2406,611.1656 Q685.875,611.0344 685.5,611.0344 Q685.0406,611.0344 684.6563,611.2312 Q684.2813,611.4281 683.9812,611.8781 Q683.6906,612.3281 683.6906,612.9469 L683.6906,613.6031 Q683.6906,614.3438 684.225,614.8406 Q684.7594,615.3281 685.7156,615.3281 Q686.2781,615.3281 686.6719,615.1781 Q686.9063,615.0844 687.1594,614.8219 Q687.3188,614.6625 687.4031,614.6156 Q687.4969,614.5688 687.6188,614.5688 Q687.8156,614.5688 687.9656,614.7281 Q688.125,614.8781 688.125,615.0844 Q688.125,615.2906 687.9187,615.5344 Q687.6188,615.8813 687.1406,616.0781 Q686.4938,616.35 685.7156,616.35 Q684.8063,616.35 684.0844,615.975 Q683.4938,615.675 683.0813,615.0375 Q682.6687,614.3906 682.6687,613.6219 L682.6687,612.9281 Q682.6687,612.1313 683.0344,611.4469 Q683.4094,610.7531 684.0656,610.3875 Q684.7219,610.0125 685.4625,610.0125 Q685.9031,610.0125 686.2875,610.1156 Q686.6813,610.2094 687.0094,610.425 Z " fill="#000000"/><text fill="#000000" font-family="sans-serif" font-size="8.4" lengthAdjust="spacing" textLength="37.2" x="697.65" y="615.8121">Employee</text><line style="stroke:#181818;stroke-width:0.3;" x1="645.9" x2="767.1" y1="622.5" y2="622.5"/><text fill="#000000" font-family="sans-serif" font-size="8.4" lengthAdjust="spacing" textLength="51" x="648.9" y="632.5043">-name: String</text><text fill="#000000" font-family="sans-serif" font-size="8.4" lengthAdjust="spacing" textLength="115.2" x="648.9" y="641.8887">-passportCardNumber: Integer</text><line style="stroke:#181818;stroke-width:0.3;" x1="645.9" x2="767.1" y1="646.0688" y2="646.0688"/></g><!--class TaxNumber--><g id="elem_TaxNumber"><rect codeLine="90" fill="#F1F1F1" height="38.1844" id="TaxNumber" rx="1.5" ry="1.5" style="stroke:#181818;stroke-width:0.3;" width="62.4" x="582.3" y="784.2"/><ellipse cx="591.3" cy="793.8" fill="#ADD1B2" rx="6.6" ry="6.6" style="stroke:#181818;stroke-width:0.6;"/><path d="M592.9594,791.325 Q593.0531,791.1938 593.1656,791.1281 Q593.2781,791.0625 593.4094,791.0625 Q593.6344,791.0625 593.775,791.2219 Q593.9156,791.3719 593.9156,791.7375 L593.9156,792.6094 Q593.9156,792.975 593.775,793.1344 Q593.6344,793.2937 593.4094,793.2937 Q593.2031,793.2937 593.0813,793.1719 Q592.9594,793.0594 592.8938,792.75 Q592.8656,792.5344 592.7531,792.4219 Q592.5563,792.1969 592.1906,792.0656 Q591.825,791.9344 591.45,791.9344 Q590.9906,791.9344 590.6062,792.1313 Q590.2312,792.3281 589.9313,792.7781 Q589.6406,793.2281 589.6406,793.8469 L589.6406,794.5031 Q589.6406,795.2438 590.175,795.7406 Q590.7094,796.2281 591.6656,796.2281 Q592.2281,796.2281 592.6219,796.0781 Q592.8562,795.9844 593.1094,795.7219 Q593.2688,795.5625 593.3531,795.5156 Q593.4469,795.4688 593.5688,795.4688 Q593.7656,795.4688 593.9156,795.6281 Q594.075,795.7781 594.075,795.9844 Q594.075,796.1906 593.8688,796.4344 Q593.5688,796.7813 593.0906,796.9781 Q592.4438,797.25 591.6656,797.25 Q590.7563,797.25 590.0344,796.875 Q589.4438,796.575 589.0313,795.9375 Q588.6188,795.2906 588.6188,794.5219 L588.6188,793.8281 Q588.6188,793.0313 588.9844,792.3469 Q589.3594,791.6531 590.0156,791.2875 Q590.6719,790.9125 591.4125,790.9125 Q591.8531,790.9125 592.2375,791.0156 Q592.6313,791.1094 592.9594,791.325 Z " fill="#000000"/><text fill="#000000" font-family="sans-serif" font-size="8.4" lengthAdjust="spacing" textLength="43.2" x="599.7" y="796.7121">TaxNumber</text><line style="stroke:#181818;stroke-width:0.3;" x1="582.9" x2="644.1" y1="803.4" y2="803.4"/><text fill="#000000" font-family="sans-serif" font-size="8.4" lengthAdjust="spacing" textLength="43.2" x="585.9" y="813.4043">-taxNumber</text><line style="stroke:#181818;stroke-width:0.3;" x1="582.9" x2="644.1" y1="817.5844" y2="817.5844"/></g><!--link CreateRequestUI to CreateRequestController--><g id="link_CreateRequestUI_CreateRequestController"><path codeLine="94" d="M570.9,33.144 C570.9,33.144 570.9,102.582 570.9,102.582 " fill="none" id="CreateRequestUI-to-CreateRequestController" style="stroke:#181818;stroke-width:0.6;stroke-dasharray:7.0,7.0;"/><polygon fill="#181818" points="570.9,105.582,573.3,100.182,570.9,102.582,568.5,100.182,570.9,105.582" style="stroke:#181818;stroke-width:0.6;"/></g><!--link CreateRequestController to Repositories--><g id="link_CreateRequestController_Repositories"><path codeLine="96" d="M422.802,144.126 C422.802,172.932 422.802,223.8 422.802,223.8 C422.802,223.8 340.578,223.8 340.578,223.8 " fill="none" id="CreateRequestController-to-Repositories" style="stroke:#181818;stroke-width:0.6;stroke-dasharray:7.0,7.0;"/><polygon fill="#181818" points="337.578,223.8,342.978,226.2,340.578,223.8,342.978,221.4,337.578,223.8" style="stroke:#181818;stroke-width:0.6;"/><text fill="#000000" font-family="sans-serif" font-size="7.8" lengthAdjust="spacing" textLength="40.2" x="380.73" y="221.8611">repositories</text></g><!--link CreateRequestController to Agency--><g id="link_CreateRequestController_Agency"><path codeLine="97" d="M650.4,144.102 C650.4,144.102 650.4,325.056 650.4,325.056 " fill="none" id="CreateRequestController-to-Agency" style="stroke:#181818;stroke-width:0.6;stroke-dasharray:7.0,7.0;"/><polygon fill="#181818" points="650.4,328.056,652.8,322.656,650.4,325.056,648,322.656,650.4,328.056" style="stroke:#181818;stroke-width:0.6;"/><text fill="#000000" font-family="sans-serif" font-size="7.8" lengthAdjust="spacing" textLength="25.2" x="651" y="232.6431">agency</text></g><!--link CreateRequestController to RequestTypeRepository--><g id="link_CreateRequestController_RequestTypeRepository"><path codeLine="98" d="M722.1,144.204 C722.1,144.204 722.1,227.682 722.1,227.682 " fill="none" id="CreateRequestController-to-RequestTypeRepository" style="stroke:#181818;stroke-width:0.6;stroke-dasharray:7.0,7.0;"/><polygon fill="#181818" points="722.1,230.682,724.5,225.282,722.1,227.682,719.7,225.282,722.1,230.682" style="stroke:#181818;stroke-width:0.6;"/><text fill="#000000" font-family="sans-serif" font-size="7.8" lengthAdjust="spacing" textLength="79.8" x="641.7" y="184.0011">requestTypeRepository</text></g><!--link CreateRequestController to AgencyTypeRepository--><g id="link_CreateRequestController_AgencyTypeRepository"><path codeLine="99" d="M570.9,144.204 C570.9,144.204 570.9,227.682 570.9,227.682 " fill="none" id="CreateRequestController-to-AgencyTypeRepository" style="stroke:#181818;stroke-width:0.6;stroke-dasharray:7.0,7.0;"/><polygon fill="#181818" points="570.9,230.682,573.3,225.282,570.9,227.682,568.5,225.282,570.9,230.682" style="stroke:#181818;stroke-width:0.6;"/><text fill="#000000" font-family="sans-serif" font-size="7.8" lengthAdjust="spacing" textLength="62.4" x="507.9" y="184.0011">agencyRepository</text></g><!--link CreateRequestController to PropertyTypeRepository--><g id="link_CreateRequestController_PropertyTypeRepository"><path codeLine="100" d="M459.498,144.204 C459.498,144.204 459.498,227.682 459.498,227.682 " fill="none" id="CreateRequestController-to-PropertyTypeRepository" style="stroke:#181818;stroke-width:0.6;stroke-dasharray:7.0,7.0;"/><polygon fill="#181818" points="459.498,230.682,461.898,225.282,459.498,227.682,457.098,225.282,459.498,230.682" style="stroke:#181818;stroke-width:0.6;"/><text fill="#000000" font-family="sans-serif" font-size="7.8" lengthAdjust="spacing" textLength="82.2" x="376.698" y="184.0011">propertyTypeRepository</text></g><!--link Agency to Request--><g id="link_Agency_Request"><path codeLine="102" d="M566.25,413.532 C566.25,413.532 566.25,446.364 566.25,446.364 " fill="none" id="Agency-to-Request" style="stroke:#181818;stroke-width:0.6;"/><polygon fill="#181818" points="566.25,449.364,568.65,443.964,566.25,446.364,563.85,443.964,566.25,449.364" style="stroke:#181818;stroke-width:0.6;"/><text fill="#000000" font-family="sans-serif" font-size="7.8" lengthAdjust="spacing" textLength="30" x="535.65" y="428.0091">requests</text></g><!--link Agency to Employee--><g id="link_Agency_Employee"><path codeLine="103" d="M660.75,413.682 C660.75,413.682 660.75,600.252 660.75,600.252 " fill="none" id="Agency-to-Employee" style="stroke:#181818;stroke-width:0.6;"/><polygon fill="#181818" points="660.75,603.252,663.15,597.852,660.75,600.252,658.35,597.852,660.75,603.252" style="stroke:#181818;stroke-width:0.6;"/><text fill="#000000" font-family="sans-serif" font-size="7.8" lengthAdjust="spacing" textLength="29.4" x="630.75" y="505.0251">employs</text></g><!--link AgencyTypeRepository to Agency--><g id="link_AgencyTypeRepository_Agency"><path codeLine="104" d="M587.7,278.238 C587.7,278.238 587.7,325.164 587.7,325.164 " fill="none" id="AgencyTypeRepository-to-Agency" style="stroke:#181818;stroke-width:0.6;"/><polygon fill="#181818" points="587.7,328.164,590.1,322.764,587.7,325.164,585.3,322.764,587.7,328.164" style="stroke:#181818;stroke-width:0.6;"/></g><!--link Request to Property--><g id="link_Request_Property"><path codeLine="105" d="M227.1,553.332 C227.1,553.332 227.1,586.014 227.1,586.014 " fill="none" id="Request-to-Property" style="stroke:#181818;stroke-width:0.6;"/><polygon fill="#181818" points="227.1,589.014,229.5,583.614,227.1,586.014,224.7,583.614,227.1,589.014" style="stroke:#181818;stroke-width:0.6;"/><text fill="#000000" font-family="sans-serif" font-size="7.8" lengthAdjust="spacing" textLength="12.6" x="213.9" y="567.7371">has</text></g><!--link Request to Owner--><g id="link_Request_Owner"><path codeLine="106" d="M520.5,553.332 C520.5,553.332 520.5,600.3 520.5,600.3 " fill="none" id="Request-to-Owner" style="stroke:#181818;stroke-width:0.6;"/><polygon fill="#181818" points="520.5,603.3,522.9,597.9,520.5,600.3,518.1,597.9,520.5,603.3" style="stroke:#181818;stroke-width:0.6;"/><text fill="#000000" font-family="sans-serif" font-size="7.8" lengthAdjust="spacing" textLength="35.4" x="484.5" y="574.8771">createdBy</text></g><!--link House to Residence--><g id="link_House_Residence"><path codeLine="108" d="M72.3,399.438 C72.3,399.438 72.3,455.886 72.3,455.886 " fill="none" id="House-to-Residence" style="stroke:#181818;stroke-width:0.6;"/><polygon fill="none" points="76.5,455.886,72.3,467.886,68.1,455.886,76.5,455.886" style="stroke:#181818;stroke-width:0.6;"/></g><!--link Residence to Property--><g id="link_Residence_Property"><path codeLine="110" d="M140.49,501.6 C147.828,501.6 152.7,501.6 152.7,501.6 C152.7,501.6 152.7,577.038 152.7,577.038 " fill="none" id="Residence-to-Property" style="stroke:#181818;stroke-width:0.6;"/><polygon fill="none" points="156.9,577.038,152.7,589.038,148.5,577.038,156.9,577.038" style="stroke:#181818;stroke-width:0.6;"/></g><!--link Agency to Contacts--><g id="link_Agency_Contacts"><path codeLine="112" d="M613.5,413.466 C613.5,413.466 613.5,697.71 613.5,697.71 " fill="none" id="Agency-to-Contacts" style="stroke:#181818;stroke-width:0.6;"/><polygon fill="#181818" points="613.5,700.71,615.9,695.31,613.5,697.71,611.1,695.31,613.5,700.71" style="stroke:#181818;stroke-width:0.6;"/><polygon fill="#000000" points="594.9,553.945,596.6634,548.518,593.1366,548.518,594.9,553.945" style="stroke:#000000;stroke-width:0.6;"/><text fill="#000000" font-family="sans-serif" font-size="7.8" lengthAdjust="spacing" textLength="12.6" x="600.3" y="553.6491">has</text></g><!--link Employee to Contacts--><g id="link_Employee_Contacts"><path codeLine="113" d="M653.1,650.85 C653.1,650.85 653.1,697.728 653.1,697.728 " fill="none" id="Employee-to-Contacts" style="stroke:#181818;stroke-width:0.6;"/><polygon fill="#181818" points="653.1,700.728,655.5,695.328,653.1,697.728,650.7,695.328,653.1,700.728" style="stroke:#181818;stroke-width:0.6;"/><polygon fill="#000000" points="634.5,672.643,636.2634,667.216,632.7366,667.216,634.5,672.643" style="stroke:#000000;stroke-width:0.6;"/><text fill="#000000" font-family="sans-serif" font-size="7.8" lengthAdjust="spacing" textLength="12.6" x="639.9" y="672.3471">has</text></g><!--link Owner to Contacts--><g id="link_Owner_Contacts"><path codeLine="114" d="M573.9,650.85 C573.9,650.85 573.9,697.728 573.9,697.728 " fill="none" id="Owner-to-Contacts" style="stroke:#181818;stroke-width:0.6;"/><polygon fill="#181818" points="573.9,700.728,576.3,695.328,573.9,697.728,571.5,695.328,573.9,700.728" style="stroke:#181818;stroke-width:0.6;"/><polygon fill="#000000" points="555.3,672.643,557.0634,667.216,553.5366,667.216,555.3,672.643" style="stroke:#000000;stroke-width:0.6;"/><text fill="#000000" font-family="sans-serif" font-size="7.8" lengthAdjust="spacing" textLength="12.6" x="560.7" y="672.3471">has</text></g><!--link Owner to TaxNumber--><g id="link_Owner_TaxNumber"><path codeLine="116" d="M512.7,650.79 C512.7,698.94 512.7,803.4 512.7,803.4 C512.7,803.4 579.156,803.4 579.156,803.4 " fill="none" id="Owner-to-TaxNumber" style="stroke:#181818;stroke-width:0.6;"/><polygon fill="#181818" points="582.156,803.4,576.756,801,579.156,803.4,576.756,805.8,582.156,803.4" style="stroke:#181818;stroke-width:0.6;"/><polygon fill="#000000" points="495.2978,758.4336,494.7477,752.7538,491.5143,754.1618,495.2978,758.4336" style="stroke:#000000;stroke-width:0.6;"/><text fill="#000000" font-family="sans-serif" font-size="7.8" lengthAdjust="spacing" textLength="12.6" x="499.5" y="758.3871">has</text></g><!--link Employee to TaxNumber--><g id="link_Employee_TaxNumber"><path codeLine="117" d="M714.3,650.79 C714.3,698.94 714.3,803.4 714.3,803.4 C714.3,803.4 647.844,803.4 647.844,803.4 " fill="none" id="Employee-to-TaxNumber" style="stroke:#181818;stroke-width:0.6;"/><polygon fill="#181818" points="644.844,803.4,650.244,805.8,647.844,803.4,650.244,801,644.844,803.4" style="stroke:#181818;stroke-width:0.6;"/><polygon fill="#000000" points="694.5022,758.4336,698.2857,754.1618,695.0523,752.7538,694.5022,758.4336" style="stroke:#000000;stroke-width:0.6;"/><text fill="#000000" font-family="sans-serif" font-size="7.8" lengthAdjust="spacing" textLength="12.6" x="701.1" y="758.3871">has</text></g><!--link Repositories to Repositories--><g id="link_Repositories_Repositories"><path codeLine="119" d="M276.3,216.42 C276.3,198.336 276.3,180.6 276.3,180.6 C276.3,180.6 353.55,180.6 353.55,180.6 C353.55,180.6 353.55,310.2 353.55,310.2 C353.55,310.2 276.3,310.2 276.3,310.2 C276.3,310.2 276.3,295.236 276.3,295.236 " fill="none" id="Repositories-to-Repositories" style="stroke:#181818;stroke-width:0.6;"/><polygon fill="#181818" points="276.3,292.236,273.9,297.636,276.3,295.236,278.7,297.636,276.3,292.236" style="stroke:#181818;stroke-width:0.6;"/><text fill="#000000" font-family="sans-serif" font-size="7.8" lengthAdjust="spacing" textLength="29.4" x="338.85" y="245.6331">instance</text></g><!--SRC=[dLRHRjiW57ttL_3egCcqPwkorAQT5gbQgwRx06BVscWsk82tPjd-VHSJOunfD-qb2VV0kOTpBn3rZV6EIjgIeg5ANMajsQ7Ni2i4txEVG3ucoarf60Tzx808gMkH9CCIifL0DJp2ImzAVzsTajzHP2kubg9fG9wI2rB4eLJQo1DcUOHEAAQ5FAv99qK7KX_3EAs05ySfifgIko03TKesip4Ag43lkDAK5v2kiYNu61EIhYpu49KpebU1gDHJ5LzfzFbRl6DAPyHyaiizLeHN-JAnJsjJBacjFnFTfPsO-q9DVCbbLZUYe9e9dX4h0aCbA5RnC7gkcfVdR5-E8BHT8uxWRUhozXpAmqxmw- -vEJ2d2XeeD9HMuApKaLgT9brpI-UEUclJ9QL7ijSeCoFNGZH0kR5Y68SUtF_W85tuWgYWQ7wPLsxxuvIKud3jZ5-JajaU_IH5-rJ3bkdZ5lsGOCu4AynNBRIe9Ergipb3ISlIyOtfLfxJYfLWsfxtxG7a_VCrb5A8Lgs9Yr1T1w47Al4UgFOTBG33z3jb3JqqSFlIiwv5ILE6pw9Na1we0XDV4yPhUc3QpBuJpnXGFRzznJhr4Y97O-XR9CfsN4C5yer6VCkOZDo87bCDHmeToiZ4CtaLj88JCPJFAE2qzQlR8TZXjRUbilmoM3BnUarpjdOW2DprTInyZe4pn_q9I- -TK2Tbg86HCPOX8mVNkK51VCWhpPBKtDEqqCDrYbPo29qmXnsrNPMb1AMM1EEv_r-3d-YhnGo17WS63nuXilcmoTzwVuBP4s1N-My1oV1SUq_3kmljlOHBxAtxjooHEsj85ud_Izu5K_WslayIVvYG9lxq9ibvjvjfBvDwvQDZqH6sJy681gasRYl9IBZnXE7ocgePD1nMZDjhfxn6LKFV8_WhdqvZahYV5XafPviOczlc8NdYT4THcpiAEGn1rx5nsYMSpDflsOxi_AVb3m00]--></g></svg>