<?xml version="1.0" encoding="us-ascii" standalone="no"?><svg xmlns="http://www.w3.org/2000/svg" xmlns:xlink="http://www.w3.org/1999/xlink" contentStyleType="text/css" height="1594px" preserveAspectRatio="none" style="width:1672px;height:1594px;background:#FFFFFF;" version="1.1" viewBox="0 0 1672 1594" width="1672px" zoomAndPan="magnify"><defs/><g><!--class CreateRequestUI--><g id="elem_CreateRequestUI"><rect codeLine="4" fill="#F1F1F1" height="48" id="CreateRequestUI" rx="2.5" ry="2.5" style="stroke:#181818;stroke-width:0.5;" width="140" x="1028.5" y="7"/><ellipse cx="1043.5" cy="23" fill="#ADD1B2" rx="11" ry="11" style="stroke:#181818;stroke-width:1.0;"/><path d="M1046.2656,18.875 Q1046.4219,18.6563 1046.6094,18.5469 Q1046.7969,18.4375 1047.0156,18.4375 Q1047.3906,18.4375 1047.625,18.7031 Q1047.8594,18.9531 1047.8594,19.5625 L1047.8594,21.0156 Q1047.8594,21.625 1047.625,21.8906 Q1047.3906,22.1563 1047.0156,22.1563 Q1046.6719,22.1563 1046.4688,21.9531 Q1046.2656,21.7656 1046.1563,21.25 Q1046.1094,20.8906 1045.9219,20.7031 Q1045.5938,20.3281 1044.9844,20.1094 Q1044.375,19.8906 1043.75,19.8906 Q1042.9844,19.8906 1042.3438,20.2188 Q1041.7188,20.5469 1041.2188,21.2969 Q1040.7344,22.0469 1040.7344,23.0781 L1040.7344,24.1719 Q1040.7344,25.4063 1041.625,26.2344 Q1042.5156,27.0469 1044.1094,27.0469 Q1045.0469,27.0469 1045.7031,26.7969 Q1046.0938,26.6406 1046.5156,26.2031 Q1046.7813,25.9375 1046.9219,25.8594 Q1047.0781,25.7813 1047.2813,25.7813 Q1047.6094,25.7813 1047.8594,26.0469 Q1048.125,26.2969 1048.125,26.6406 Q1048.125,26.9844 1047.7813,27.3906 Q1047.2813,27.9688 1046.4844,28.2969 Q1045.4063,28.75 1044.1094,28.75 Q1042.5938,28.75 1041.3906,28.125 Q1040.4063,27.625 1039.7188,26.5625 Q1039.0313,25.4844 1039.0313,24.2031 L1039.0313,23.0469 Q1039.0313,21.7188 1039.6406,20.5781 Q1040.2656,19.4219 1041.3594,18.8125 Q1042.4531,18.1875 1043.6875,18.1875 Q1044.4219,18.1875 1045.0625,18.3594 Q1045.7188,18.5156 1046.2656,18.875 Z " fill="#000000"/><text fill="#000000" font-family="sans-serif" font-size="14" lengthAdjust="spacing" textLength="108" x="1057.5" y="27.8535">CreateRequestUI</text><line style="stroke:#181818;stroke-width:0.5;" x1="1029.5" x2="1167.5" y1="39" y2="39"/><line style="stroke:#181818;stroke-width:0.5;" x1="1029.5" x2="1167.5" y1="47" y2="47"/></g><!--class CreateRequestController--><g id="elem_CreateRequestController"><rect codeLine="7" fill="#F1F1F1" height="141.8438" id="CreateRequestController" rx="2.5" ry="2.5" style="stroke:#181818;stroke-width:0.5;" width="616" x="790.5" y="176"/><ellipse cx="1015.25" cy="192" fill="#ADD1B2" rx="11" ry="11" style="stroke:#181818;stroke-width:1.0;"/><path d="M1018.0156,187.875 Q1018.1719,187.6563 1018.3594,187.5469 Q1018.5469,187.4375 1018.7656,187.4375 Q1019.1406,187.4375 1019.375,187.7031 Q1019.6094,187.9531 1019.6094,188.5625 L1019.6094,190.0156 Q1019.6094,190.625 1019.375,190.8906 Q1019.1406,191.1563 1018.7656,191.1563 Q1018.4219,191.1563 1018.2188,190.9531 Q1018.0156,190.7656 1017.9063,190.25 Q1017.8594,189.8906 1017.6719,189.7031 Q1017.3438,189.3281 1016.7344,189.1094 Q1016.125,188.8906 1015.5,188.8906 Q1014.7344,188.8906 1014.0938,189.2188 Q1013.4688,189.5469 1012.9688,190.2969 Q1012.4844,191.0469 1012.4844,192.0781 L1012.4844,193.1719 Q1012.4844,194.4063 1013.375,195.2344 Q1014.2656,196.0469 1015.8594,196.0469 Q1016.7969,196.0469 1017.4531,195.7969 Q1017.8438,195.6406 1018.2656,195.2031 Q1018.5313,194.9375 1018.6719,194.8594 Q1018.8281,194.7813 1019.0313,194.7813 Q1019.3594,194.7813 1019.6094,195.0469 Q1019.875,195.2969 1019.875,195.6406 Q1019.875,195.9844 1019.5313,196.3906 Q1019.0313,196.9688 1018.2344,197.2969 Q1017.1563,197.75 1015.8594,197.75 Q1014.3438,197.75 1013.1406,197.125 Q1012.1563,196.625 1011.4688,195.5625 Q1010.7813,194.4844 1010.7813,193.2031 L1010.7813,192.0469 Q1010.7813,190.7188 1011.3906,189.5781 Q1012.0156,188.4219 1013.1094,187.8125 Q1014.2031,187.1875 1015.4375,187.1875 Q1016.1719,187.1875 1016.8125,187.3594 Q1017.4688,187.5156 1018.0156,187.875 Z " fill="#000000"/><text fill="#000000" font-family="sans-serif" font-size="14" lengthAdjust="spacing" textLength="158" x="1035.75" y="196.8535">CreateRequestController</text><line style="stroke:#181818;stroke-width:0.5;" x1="791.5" x2="1405.5" y1="208" y2="208"/><line style="stroke:#181818;stroke-width:0.5;" x1="791.5" x2="1405.5" y1="216" y2="216"/><text fill="#000000" font-family="sans-serif" font-size="14" lengthAdjust="spacing" textLength="604" x="796.5" y="232.6738">+createRequestController(requestTypeRepository, propertyTypeRepository, agencyRepository)</text><text fill="#000000" font-family="sans-serif" font-size="14" lengthAdjust="spacing" textLength="160" x="796.5" y="248.3145">+getRequestCategories()</text><text fill="#000000" font-family="sans-serif" font-size="14" lengthAdjust="spacing" textLength="124" x="796.5" y="263.9551">+getPropertyType()</text><text fill="#000000" font-family="sans-serif" font-size="14" lengthAdjust="spacing" textLength="145" x="796.5" y="279.5957">+setContractDuration()</text><text fill="#000000" font-family="sans-serif" font-size="14" lengthAdjust="spacing" textLength="85" x="796.5" y="295.2363">+getAgency()</text><text fill="#000000" font-family="sans-serif" font-size="14" lengthAdjust="spacing" textLength="97" x="796.5" y="310.877">+getAgentList()</text></g><!--class Repositories--><g id="elem_Repositories"><rect codeLine="16" fill="#F1F1F1" height="126.2031" id="Repositories" rx="2.5" ry="2.5" style="stroke:#181818;stroke-width:0.5;" width="204" x="1151.5" y="439"/><ellipse cx="1209.75" cy="455" fill="#ADD1B2" rx="11" ry="11" style="stroke:#181818;stroke-width:1.0;"/><path d="M1212.5156,450.875 Q1212.6719,450.6563 1212.8594,450.5469 Q1213.0469,450.4375 1213.2656,450.4375 Q1213.6406,450.4375 1213.875,450.7031 Q1214.1094,450.9531 1214.1094,451.5625 L1214.1094,453.0156 Q1214.1094,453.625 1213.875,453.8906 Q1213.6406,454.1563 1213.2656,454.1563 Q1212.9219,454.1563 1212.7188,453.9531 Q1212.5156,453.7656 1212.4063,453.25 Q1212.3594,452.8906 1212.1719,452.7031 Q1211.8438,452.3281 1211.2344,452.1094 Q1210.625,451.8906 1210,451.8906 Q1209.2344,451.8906 1208.5938,452.2188 Q1207.9688,452.5469 1207.4688,453.2969 Q1206.9844,454.0469 1206.9844,455.0781 L1206.9844,456.1719 Q1206.9844,457.4063 1207.875,458.2344 Q1208.7656,459.0469 1210.3594,459.0469 Q1211.2969,459.0469 1211.9531,458.7969 Q1212.3438,458.6406 1212.7656,458.2031 Q1213.0313,457.9375 1213.1719,457.8594 Q1213.3281,457.7813 1213.5313,457.7813 Q1213.8594,457.7813 1214.1094,458.0469 Q1214.375,458.2969 1214.375,458.6406 Q1214.375,458.9844 1214.0313,459.3906 Q1213.5313,459.9688 1212.7344,460.2969 Q1211.6563,460.75 1210.3594,460.75 Q1208.8438,460.75 1207.6406,460.125 Q1206.6563,459.625 1205.9688,458.5625 Q1205.2813,457.4844 1205.2813,456.2031 L1205.2813,455.0469 Q1205.2813,453.7188 1205.8906,452.5781 Q1206.5156,451.4219 1207.6094,450.8125 Q1208.7031,450.1875 1209.9375,450.1875 Q1210.6719,450.1875 1211.3125,450.3594 Q1211.9688,450.5156 1212.5156,450.875 Z " fill="#000000"/><text fill="#000000" font-family="sans-serif" font-size="14" lengthAdjust="spacing" textLength="79" x="1230.25" y="459.8535">Repositories</text><line style="stroke:#181818;stroke-width:0.5;" x1="1152.5" x2="1354.5" y1="471" y2="471"/><text fill="#000000" font-family="sans-serif" font-size="14" lengthAdjust="spacing" textLength="84" x="1157.5" y="487.6738">-Repositories</text><line style="stroke:#181818;stroke-width:0.5;" x1="1152.5" x2="1354.5" y1="494.6406" y2="494.6406"/><text fill="#000000" font-family="sans-serif" font-size="14" lengthAdjust="spacing" textLength="174" x="1157.5" y="511.3145">+getInstance():Repositories</text><text fill="#000000" font-family="sans-serif" font-size="14" lengthAdjust="spacing" textLength="191" x="1157.5" y="526.9551">+getRequestTypeRepository()</text><text fill="#000000" font-family="sans-serif" font-size="14" lengthAdjust="spacing" textLength="192" x="1157.5" y="542.5957">+getPropertyTypeRepository()</text><text fill="#000000" font-family="sans-serif" font-size="14" lengthAdjust="spacing" textLength="153" x="1157.5" y="558.2363">+getAgencyRepository()</text></g><!--class PropertyTypeRepository--><g id="elem_PropertyTypeRepository"><rect codeLine="24" fill="#F1F1F1" height="79.2813" id="PropertyTypeRepository" rx="2.5" ry="2.5" style="stroke:#181818;stroke-width:0.5;" width="293" x="836" y="625"/><ellipse cx="901.25" cy="641" fill="#ADD1B2" rx="11" ry="11" style="stroke:#181818;stroke-width:1.0;"/><path d="M904.0156,636.875 Q904.1719,636.6563 904.3594,636.5469 Q904.5469,636.4375 904.7656,636.4375 Q905.1406,636.4375 905.375,636.7031 Q905.6094,636.9531 905.6094,637.5625 L905.6094,639.0156 Q905.6094,639.625 905.375,639.8906 Q905.1406,640.1563 904.7656,640.1563 Q904.4219,640.1563 904.2188,639.9531 Q904.0156,639.7656 903.9063,639.25 Q903.8594,638.8906 903.6719,638.7031 Q903.3438,638.3281 902.7344,638.1094 Q902.125,637.8906 901.5,637.8906 Q900.7344,637.8906 900.0938,638.2188 Q899.4688,638.5469 898.9688,639.2969 Q898.4844,640.0469 898.4844,641.0781 L898.4844,642.1719 Q898.4844,643.4063 899.375,644.2344 Q900.2656,645.0469 901.8594,645.0469 Q902.7969,645.0469 903.4531,644.7969 Q903.8438,644.6406 904.2656,644.2031 Q904.5313,643.9375 904.6719,643.8594 Q904.8281,643.7813 905.0313,643.7813 Q905.3594,643.7813 905.6094,644.0469 Q905.875,644.2969 905.875,644.6406 Q905.875,644.9844 905.5313,645.3906 Q905.0313,645.9688 904.2344,646.2969 Q903.1563,646.75 901.8594,646.75 Q900.3438,646.75 899.1406,646.125 Q898.1563,645.625 897.4688,644.5625 Q896.7813,643.4844 896.7813,642.2031 L896.7813,641.0469 Q896.7813,639.7188 897.3906,638.5781 Q898.0156,637.4219 899.1094,636.8125 Q900.2031,636.1875 901.4375,636.1875 Q902.1719,636.1875 902.8125,636.3594 Q903.4688,636.5156 904.0156,636.875 Z " fill="#000000"/><text fill="#000000" font-family="sans-serif" font-size="14" lengthAdjust="spacing" textLength="154" x="921.75" y="645.8535">PropertyTypeRepository</text><line style="stroke:#181818;stroke-width:0.5;" x1="837" x2="1128" y1="657" y2="657"/><text fill="#000000" font-family="sans-serif" font-size="14" lengthAdjust="spacing" textLength="281" x="842" y="673.6738">-String List&lt;PropertyType&gt; propertyTypeList</text><line style="stroke:#181818;stroke-width:0.5;" x1="837" x2="1128" y1="680.6406" y2="680.6406"/><text fill="#000000" font-family="sans-serif" font-size="14" lengthAdjust="spacing" textLength="124" x="842" y="697.3145">+getPropertyType()</text></g><!--class AgencyTypeRepository--><g id="elem_AgencyTypeRepository"><rect codeLine="29" fill="#F1F1F1" height="79.2813" id="AgencyTypeRepository" rx="2.5" ry="2.5" style="stroke:#181818;stroke-width:0.5;" width="179" x="1164" y="625"/><ellipse cx="1179" cy="641" fill="#ADD1B2" rx="11" ry="11" style="stroke:#181818;stroke-width:1.0;"/><path d="M1181.7656,636.875 Q1181.9219,636.6563 1182.1094,636.5469 Q1182.2969,636.4375 1182.5156,636.4375 Q1182.8906,636.4375 1183.125,636.7031 Q1183.3594,636.9531 1183.3594,637.5625 L1183.3594,639.0156 Q1183.3594,639.625 1183.125,639.8906 Q1182.8906,640.1563 1182.5156,640.1563 Q1182.1719,640.1563 1181.9688,639.9531 Q1181.7656,639.7656 1181.6563,639.25 Q1181.6094,638.8906 1181.4219,638.7031 Q1181.0938,638.3281 1180.4844,638.1094 Q1179.875,637.8906 1179.25,637.8906 Q1178.4844,637.8906 1177.8438,638.2188 Q1177.2188,638.5469 1176.7188,639.2969 Q1176.2344,640.0469 1176.2344,641.0781 L1176.2344,642.1719 Q1176.2344,643.4063 1177.125,644.2344 Q1178.0156,645.0469 1179.6094,645.0469 Q1180.5469,645.0469 1181.2031,644.7969 Q1181.5938,644.6406 1182.0156,644.2031 Q1182.2813,643.9375 1182.4219,643.8594 Q1182.5781,643.7813 1182.7813,643.7813 Q1183.1094,643.7813 1183.3594,644.0469 Q1183.625,644.2969 1183.625,644.6406 Q1183.625,644.9844 1183.2813,645.3906 Q1182.7813,645.9688 1181.9844,646.2969 Q1180.9063,646.75 1179.6094,646.75 Q1178.0938,646.75 1176.8906,646.125 Q1175.9063,645.625 1175.2188,644.5625 Q1174.5313,643.4844 1174.5313,642.2031 L1174.5313,641.0469 Q1174.5313,639.7188 1175.1406,638.5781 Q1175.7656,637.4219 1176.8594,636.8125 Q1177.9531,636.1875 1179.1875,636.1875 Q1179.9219,636.1875 1180.5625,636.3594 Q1181.2188,636.5156 1181.7656,636.875 Z " fill="#000000"/><text fill="#000000" font-family="sans-serif" font-size="14" lengthAdjust="spacing" textLength="147" x="1193" y="645.8535">AgencyTypeRepository</text><line style="stroke:#181818;stroke-width:0.5;" x1="1165" x2="1342" y1="657" y2="657"/><text fill="#000000" font-family="sans-serif" font-size="14" lengthAdjust="spacing" textLength="166" x="1170" y="673.6738">-agencyList: List&lt;Agency&gt;</text><line style="stroke:#181818;stroke-width:0.5;" x1="1165" x2="1342" y1="680.6406" y2="680.6406"/><text fill="#000000" font-family="sans-serif" font-size="14" lengthAdjust="spacing" textLength="107" x="1170" y="697.3145">+getAgencyList()</text></g><!--class Agency--><g id="elem_Agency"><rect codeLine="34" fill="#F1F1F1" height="141.8438" id="Agency" rx="2.5" ry="2.5" style="stroke:#181818;stroke-width:0.5;" width="245" x="896" y="764"/><ellipse cx="990.75" cy="780" fill="#ADD1B2" rx="11" ry="11" style="stroke:#181818;stroke-width:1.0;"/><path d="M993.5156,775.875 Q993.6719,775.6563 993.8594,775.5469 Q994.0469,775.4375 994.2656,775.4375 Q994.6406,775.4375 994.875,775.7031 Q995.1094,775.9531 995.1094,776.5625 L995.1094,778.0156 Q995.1094,778.625 994.875,778.8906 Q994.6406,779.1563 994.2656,779.1563 Q993.9219,779.1563 993.7188,778.9531 Q993.5156,778.7656 993.4063,778.25 Q993.3594,777.8906 993.1719,777.7031 Q992.8438,777.3281 992.2344,777.1094 Q991.625,776.8906 991,776.8906 Q990.2344,776.8906 989.5938,777.2188 Q988.9688,777.5469 988.4688,778.2969 Q987.9844,779.0469 987.9844,780.0781 L987.9844,781.1719 Q987.9844,782.4063 988.875,783.2344 Q989.7656,784.0469 991.3594,784.0469 Q992.2969,784.0469 992.9531,783.7969 Q993.3438,783.6406 993.7656,783.2031 Q994.0313,782.9375 994.1719,782.8594 Q994.3281,782.7813 994.5313,782.7813 Q994.8594,782.7813 995.1094,783.0469 Q995.375,783.2969 995.375,783.6406 Q995.375,783.9844 995.0313,784.3906 Q994.5313,784.9688 993.7344,785.2969 Q992.6563,785.75 991.3594,785.75 Q989.8438,785.75 988.6406,785.125 Q987.6563,784.625 986.9688,783.5625 Q986.2813,782.4844 986.2813,781.2031 L986.2813,780.0469 Q986.2813,778.7188 986.8906,777.5781 Q987.5156,776.4219 988.6094,775.8125 Q989.7031,775.1875 990.9375,775.1875 Q991.6719,775.1875 992.3125,775.3594 Q992.9688,775.5156 993.5156,775.875 Z " fill="#000000"/><text fill="#000000" font-family="sans-serif" font-size="14" lengthAdjust="spacing" textLength="47" x="1011.25" y="784.8535">Agency</text><line style="stroke:#181818;stroke-width:0.5;" x1="897" x2="1140" y1="796" y2="796"/><text fill="#000000" font-family="sans-serif" font-size="14" lengthAdjust="spacing" textLength="95" x="902" y="812.6738">-String location</text><text fill="#000000" font-family="sans-serif" font-size="14" lengthAdjust="spacing" textLength="119" x="902" y="828.3145">-String designation</text><text fill="#000000" font-family="sans-serif" font-size="14" lengthAdjust="spacing" textLength="211" x="902" y="843.9551">-String List&lt;Request&gt; requestList</text><text fill="#000000" font-family="sans-serif" font-size="14" lengthAdjust="spacing" textLength="233" x="902" y="859.5957">-String List&lt;Employee&gt; employeeList</text><line style="stroke:#181818;stroke-width:0.5;" x1="897" x2="1140" y1="866.5625" y2="866.5625"/><text fill="#000000" font-family="sans-serif" font-size="14" lengthAdjust="spacing" textLength="191" x="902" y="883.2363">+createRequest(requestType)</text><text fill="#000000" font-family="sans-serif" font-size="14" lengthAdjust="spacing" textLength="197" x="902" y="898.877">+getAgentList(selectedAgency)</text></g><!--class RequestTypeRepository--><g id="elem_RequestTypeRepository"><rect codeLine="43" fill="#F1F1F1" height="79.2813" id="RequestTypeRepository" rx="2.5" ry="2.5" style="stroke:#181818;stroke-width:0.5;" width="287" x="1378" y="625"/><ellipse cx="1440.75" cy="641" fill="#ADD1B2" rx="11" ry="11" style="stroke:#181818;stroke-width:1.0;"/><path d="M1443.5156,636.875 Q1443.6719,636.6563 1443.8594,636.5469 Q1444.0469,636.4375 1444.2656,636.4375 Q1444.6406,636.4375 1444.875,636.7031 Q1445.1094,636.9531 1445.1094,637.5625 L1445.1094,639.0156 Q1445.1094,639.625 1444.875,639.8906 Q1444.6406,640.1563 1444.2656,640.1563 Q1443.9219,640.1563 1443.7188,639.9531 Q1443.5156,639.7656 1443.4063,639.25 Q1443.3594,638.8906 1443.1719,638.7031 Q1442.8438,638.3281 1442.2344,638.1094 Q1441.625,637.8906 1441,637.8906 Q1440.2344,637.8906 1439.5938,638.2188 Q1438.9688,638.5469 1438.4688,639.2969 Q1437.9844,640.0469 1437.9844,641.0781 L1437.9844,642.1719 Q1437.9844,643.4063 1438.875,644.2344 Q1439.7656,645.0469 1441.3594,645.0469 Q1442.2969,645.0469 1442.9531,644.7969 Q1443.3438,644.6406 1443.7656,644.2031 Q1444.0313,643.9375 1444.1719,643.8594 Q1444.3281,643.7813 1444.5313,643.7813 Q1444.8594,643.7813 1445.1094,644.0469 Q1445.375,644.2969 1445.375,644.6406 Q1445.375,644.9844 1445.0313,645.3906 Q1444.5313,645.9688 1443.7344,646.2969 Q1442.6563,646.75 1441.3594,646.75 Q1439.8438,646.75 1438.6406,646.125 Q1437.6563,645.625 1436.9688,644.5625 Q1436.2813,643.4844 1436.2813,642.2031 L1436.2813,641.0469 Q1436.2813,639.7188 1436.8906,638.5781 Q1437.5156,637.4219 1438.6094,636.8125 Q1439.7031,636.1875 1440.9375,636.1875 Q1441.6719,636.1875 1442.3125,636.3594 Q1442.9688,636.5156 1443.5156,636.875 Z " fill="#000000"/><text fill="#000000" font-family="sans-serif" font-size="14" lengthAdjust="spacing" textLength="153" x="1461.25" y="645.8535">RequestTypeRepository</text><line style="stroke:#181818;stroke-width:0.5;" x1="1379" x2="1664" y1="657" y2="657"/><text fill="#000000" font-family="sans-serif" font-size="14" lengthAdjust="spacing" textLength="275" x="1384" y="673.6738">-String List&lt;RequestType&gt; requestTypeList</text><line style="stroke:#181818;stroke-width:0.5;" x1="1379" x2="1664" y1="680.6406" y2="680.6406"/><text fill="#000000" font-family="sans-serif" font-size="14" lengthAdjust="spacing" textLength="123" x="1384" y="697.3145">+getRequestType()</text></g><!--class Request--><g id="elem_Request"><rect codeLine="48" fill="#F1F1F1" height="173.125" id="Request" rx="2.5" ry="2.5" style="stroke:#181818;stroke-width:0.5;" width="700" x="265.5" y="966"/><ellipse cx="584.75" cy="982" fill="#ADD1B2" rx="11" ry="11" style="stroke:#181818;stroke-width:1.0;"/><path d="M587.5156,977.875 Q587.6719,977.6563 587.8594,977.5469 Q588.0469,977.4375 588.2656,977.4375 Q588.6406,977.4375 588.875,977.7031 Q589.1094,977.9531 589.1094,978.5625 L589.1094,980.0156 Q589.1094,980.625 588.875,980.8906 Q588.6406,981.1563 588.2656,981.1563 Q587.9219,981.1563 587.7188,980.9531 Q587.5156,980.7656 587.4063,980.25 Q587.3594,979.8906 587.1719,979.7031 Q586.8438,979.3281 586.2344,979.1094 Q585.625,978.8906 585,978.8906 Q584.2344,978.8906 583.5938,979.2188 Q582.9688,979.5469 582.4688,980.2969 Q581.9844,981.0469 581.9844,982.0781 L581.9844,983.1719 Q581.9844,984.4063 582.875,985.2344 Q583.7656,986.0469 585.3594,986.0469 Q586.2969,986.0469 586.9531,985.7969 Q587.3438,985.6406 587.7656,985.2031 Q588.0313,984.9375 588.1719,984.8594 Q588.3281,984.7813 588.5313,984.7813 Q588.8594,984.7813 589.1094,985.0469 Q589.375,985.2969 589.375,985.6406 Q589.375,985.9844 589.0313,986.3906 Q588.5313,986.9688 587.7344,987.2969 Q586.6563,987.75 585.3594,987.75 Q583.8438,987.75 582.6406,987.125 Q581.6563,986.625 580.9688,985.5625 Q580.2813,984.4844 580.2813,983.2031 L580.2813,982.0469 Q580.2813,980.7188 580.8906,979.5781 Q581.5156,978.4219 582.6094,977.8125 Q583.7031,977.1875 584.9375,977.1875 Q585.6719,977.1875 586.3125,977.3594 Q586.9688,977.5156 587.5156,977.875 Z " fill="#000000"/><text fill="#000000" font-family="sans-serif" font-size="14" lengthAdjust="spacing" textLength="53" x="605.25" y="986.8535">Request</text><line style="stroke:#181818;stroke-width:0.5;" x1="266.5" x2="964.5" y1="998" y2="998"/><text fill="#000000" font-family="sans-serif" font-size="14" lengthAdjust="spacing" textLength="141" x="271.5" y="1014.6738">-boolean requestState</text><text fill="#000000" font-family="sans-serif" font-size="14" lengthAdjust="spacing" textLength="74" x="271.5" y="1030.3145">-String date</text><text fill="#000000" font-family="sans-serif" font-size="14" lengthAdjust="spacing" textLength="135" x="271.5" y="1045.9551">-String requestOwner</text><line style="stroke:#181818;stroke-width:0.5;" x1="266.5" x2="964.5" y1="1052.9219" y2="1052.9219"/><text fill="#000000" font-family="sans-serif" font-size="14" lengthAdjust="spacing" textLength="208" x="271.5" y="1069.5957">+setPropertyType(propertyType)</text><text fill="#000000" font-family="sans-serif" font-size="14" lengthAdjust="spacing" textLength="526" x="271.5" y="1085.2363">+createProperty(area, location, distanceFromTheCityCentre, price, photographList)</text><text fill="#000000" font-family="sans-serif" font-size="14" lengthAdjust="spacing" textLength="149" x="271.5" y="1100.877">+addProperty(property)</text><text fill="#000000" font-family="sans-serif" font-size="14" lengthAdjust="spacing" textLength="688" x="271.5" y="1116.5176">+createResidence(numberOfBedrooms, numberOfBathrooms, numberOfParkingSpaces, availableEquipment)</text><text fill="#000000" font-family="sans-serif" font-size="14" lengthAdjust="spacing" textLength="351" x="271.5" y="1132.1582">+createHouse(basement, inhabitableLoft, sunExposure)</text></g><!--class Property--><g id="elem_Property"><rect codeLine="59" fill="#F1F1F1" height="126.2031" id="Property" rx="2.5" ry="2.5" style="stroke:#181818;stroke-width:0.5;" width="268" x="223.5" y="1199"/><ellipse cx="326.25" cy="1215" fill="#ADD1B2" rx="11" ry="11" style="stroke:#181818;stroke-width:1.0;"/><path d="M329.0156,1210.875 Q329.1719,1210.6563 329.3594,1210.5469 Q329.5469,1210.4375 329.7656,1210.4375 Q330.1406,1210.4375 330.375,1210.7031 Q330.6094,1210.9531 330.6094,1211.5625 L330.6094,1213.0156 Q330.6094,1213.625 330.375,1213.8906 Q330.1406,1214.1563 329.7656,1214.1563 Q329.4219,1214.1563 329.2188,1213.9531 Q329.0156,1213.7656 328.9063,1213.25 Q328.8594,1212.8906 328.6719,1212.7031 Q328.3438,1212.3281 327.7344,1212.1094 Q327.125,1211.8906 326.5,1211.8906 Q325.7344,1211.8906 325.0938,1212.2188 Q324.4688,1212.5469 323.9688,1213.2969 Q323.4844,1214.0469 323.4844,1215.0781 L323.4844,1216.1719 Q323.4844,1217.4063 324.375,1218.2344 Q325.2656,1219.0469 326.8594,1219.0469 Q327.7969,1219.0469 328.4531,1218.7969 Q328.8438,1218.6406 329.2656,1218.2031 Q329.5313,1217.9375 329.6719,1217.8594 Q329.8281,1217.7813 330.0313,1217.7813 Q330.3594,1217.7813 330.6094,1218.0469 Q330.875,1218.2969 330.875,1218.6406 Q330.875,1218.9844 330.5313,1219.3906 Q330.0313,1219.9688 329.2344,1220.2969 Q328.1563,1220.75 326.8594,1220.75 Q325.3438,1220.75 324.1406,1220.125 Q323.1563,1219.625 322.4688,1218.5625 Q321.7813,1217.4844 321.7813,1216.2031 L321.7813,1215.0469 Q321.7813,1213.7188 322.3906,1212.5781 Q323.0156,1211.4219 324.1094,1210.8125 Q325.2031,1210.1875 326.4375,1210.1875 Q327.1719,1210.1875 327.8125,1210.3594 Q328.4688,1210.5156 329.0156,1210.875 Z " fill="#000000"/><text fill="#000000" font-family="sans-serif" font-size="14" lengthAdjust="spacing" textLength="54" x="346.75" y="1219.8535">Property</text><line style="stroke:#181818;stroke-width:0.5;" x1="224.5" x2="490.5" y1="1231" y2="1231"/><text fill="#000000" font-family="sans-serif" font-size="14" lengthAdjust="spacing" textLength="82" x="229.5" y="1247.6738">-Integer area</text><text fill="#000000" font-family="sans-serif" font-size="14" lengthAdjust="spacing" textLength="95" x="229.5" y="1263.3145">-String location</text><text fill="#000000" font-family="sans-serif" font-size="14" lengthAdjust="spacing" textLength="230" x="229.5" y="1278.9551">-double distanceFromTheCityCentre</text><text fill="#000000" font-family="sans-serif" font-size="14" lengthAdjust="spacing" textLength="84" x="229.5" y="1294.5957">-Integer price</text><text fill="#000000" font-family="sans-serif" font-size="14" lengthAdjust="spacing" textLength="256" x="229.5" y="1310.2363">-String List&lt;photograph&gt; photographList</text><line style="stroke:#181818;stroke-width:0.5;" x1="224.5" x2="490.5" y1="1317.2031" y2="1317.2031"/></g><!--class Owner--><g id="elem_Owner"><rect codeLine="67" fill="#F1F1F1" height="79.2813" id="Owner" rx="2.5" ry="2.5" style="stroke:#181818;stroke-width:0.5;" width="200" x="765.5" y="1222.5"/><ellipse cx="840.75" cy="1238.5" fill="#ADD1B2" rx="11" ry="11" style="stroke:#181818;stroke-width:1.0;"/><path d="M843.5156,1234.375 Q843.6719,1234.1563 843.8594,1234.0469 Q844.0469,1233.9375 844.2656,1233.9375 Q844.6406,1233.9375 844.875,1234.2031 Q845.1094,1234.4531 845.1094,1235.0625 L845.1094,1236.5156 Q845.1094,1237.125 844.875,1237.3906 Q844.6406,1237.6563 844.2656,1237.6563 Q843.9219,1237.6563 843.7188,1237.4531 Q843.5156,1237.2656 843.4063,1236.75 Q843.3594,1236.3906 843.1719,1236.2031 Q842.8438,1235.8281 842.2344,1235.6094 Q841.625,1235.3906 841,1235.3906 Q840.2344,1235.3906 839.5938,1235.7188 Q838.9688,1236.0469 838.4688,1236.7969 Q837.9844,1237.5469 837.9844,1238.5781 L837.9844,1239.6719 Q837.9844,1240.9063 838.875,1241.7344 Q839.7656,1242.5469 841.3594,1242.5469 Q842.2969,1242.5469 842.9531,1242.2969 Q843.3438,1242.1406 843.7656,1241.7031 Q844.0313,1241.4375 844.1719,1241.3594 Q844.3281,1241.2813 844.5313,1241.2813 Q844.8594,1241.2813 845.1094,1241.5469 Q845.375,1241.7969 845.375,1242.1406 Q845.375,1242.4844 845.0313,1242.8906 Q844.5313,1243.4688 843.7344,1243.7969 Q842.6563,1244.25 841.3594,1244.25 Q839.8438,1244.25 838.6406,1243.625 Q837.6563,1243.125 836.9688,1242.0625 Q836.2813,1240.9844 836.2813,1239.7031 L836.2813,1238.5469 Q836.2813,1237.2188 836.8906,1236.0781 Q837.5156,1234.9219 838.6094,1234.3125 Q839.7031,1233.6875 840.9375,1233.6875 Q841.6719,1233.6875 842.3125,1233.8594 Q842.9688,1234.0156 843.5156,1234.375 Z " fill="#000000"/><text fill="#000000" font-family="sans-serif" font-size="14" lengthAdjust="spacing" textLength="41" x="861.25" y="1243.3535">Owner</text><line style="stroke:#181818;stroke-width:0.5;" x1="766.5" x2="964.5" y1="1254.5" y2="1254.5"/><text fill="#000000" font-family="sans-serif" font-size="14" lengthAdjust="spacing" textLength="81" x="771.5" y="1271.1738">-String name</text><text fill="#000000" font-family="sans-serif" font-size="14" lengthAdjust="spacing" textLength="188" x="771.5" y="1286.8145">-Integer passportCardNumber</text><line style="stroke:#181818;stroke-width:0.5;" x1="766.5" x2="964.5" y1="1293.7813" y2="1293.7813"/></g><!--class Residence--><g id="elem_Residence"><rect codeLine="72" fill="#F1F1F1" height="110.5625" id="Residence" rx="2.5" ry="2.5" style="stroke:#181818;stroke-width:0.5;" width="223" x="7" y="997"/><ellipse cx="80.75" cy="1013" fill="#ADD1B2" rx="11" ry="11" style="stroke:#181818;stroke-width:1.0;"/><path d="M83.5156,1008.875 Q83.6719,1008.6563 83.8594,1008.5469 Q84.0469,1008.4375 84.2656,1008.4375 Q84.6406,1008.4375 84.875,1008.7031 Q85.1094,1008.9531 85.1094,1009.5625 L85.1094,1011.0156 Q85.1094,1011.625 84.875,1011.8906 Q84.6406,1012.1563 84.2656,1012.1563 Q83.9219,1012.1563 83.7188,1011.9531 Q83.5156,1011.7656 83.4063,1011.25 Q83.3594,1010.8906 83.1719,1010.7031 Q82.8438,1010.3281 82.2344,1010.1094 Q81.625,1009.8906 81,1009.8906 Q80.2344,1009.8906 79.5938,1010.2188 Q78.9688,1010.5469 78.4688,1011.2969 Q77.9844,1012.0469 77.9844,1013.0781 L77.9844,1014.1719 Q77.9844,1015.4063 78.875,1016.2344 Q79.7656,1017.0469 81.3594,1017.0469 Q82.2969,1017.0469 82.9531,1016.7969 Q83.3438,1016.6406 83.7656,1016.2031 Q84.0313,1015.9375 84.1719,1015.8594 Q84.3281,1015.7813 84.5313,1015.7813 Q84.8594,1015.7813 85.1094,1016.0469 Q85.375,1016.2969 85.375,1016.6406 Q85.375,1016.9844 85.0313,1017.3906 Q84.5313,1017.9688 83.7344,1018.2969 Q82.6563,1018.75 81.3594,1018.75 Q79.8438,1018.75 78.6406,1018.125 Q77.6563,1017.625 76.9688,1016.5625 Q76.2813,1015.4844 76.2813,1014.2031 L76.2813,1013.0469 Q76.2813,1011.7188 76.8906,1010.5781 Q77.5156,1009.4219 78.6094,1008.8125 Q79.7031,1008.1875 80.9375,1008.1875 Q81.6719,1008.1875 82.3125,1008.3594 Q82.9688,1008.5156 83.5156,1008.875 Z " fill="#000000"/><text fill="#000000" font-family="sans-serif" font-size="14" lengthAdjust="spacing" textLength="67" x="101.25" y="1017.8535">Residence</text><line style="stroke:#181818;stroke-width:0.5;" x1="8" x2="229" y1="1029" y2="1029"/><text fill="#000000" font-family="sans-serif" font-size="14" lengthAdjust="spacing" textLength="180" x="13" y="1045.6738">-Integer numberOfBedrooms</text><text fill="#000000" font-family="sans-serif" font-size="14" lengthAdjust="spacing" textLength="184" x="13" y="1061.3145">-Integer numberOfBathrooms</text><text fill="#000000" font-family="sans-serif" font-size="14" lengthAdjust="spacing" textLength="211" x="13" y="1076.9551">-Integer numberOfParkingSpaces</text><text fill="#000000" font-family="sans-serif" font-size="14" lengthAdjust="spacing" textLength="169" x="13" y="1092.5957">-String availableEquipment</text><line style="stroke:#181818;stroke-width:0.5;" x1="8" x2="229" y1="1099.5625" y2="1099.5625"/></g><!--class House--><g id="elem_House"><rect codeLine="79" fill="#F1F1F1" height="94.9219" id="House" rx="2.5" ry="2.5" style="stroke:#181818;stroke-width:0.5;" width="165" x="36" y="787.5"/><ellipse cx="94.25" cy="803.5" fill="#ADD1B2" rx="11" ry="11" style="stroke:#181818;stroke-width:1.0;"/><path d="M97.0156,799.375 Q97.1719,799.1563 97.3594,799.0469 Q97.5469,798.9375 97.7656,798.9375 Q98.1406,798.9375 98.375,799.2031 Q98.6094,799.4531 98.6094,800.0625 L98.6094,801.5156 Q98.6094,802.125 98.375,802.3906 Q98.1406,802.6563 97.7656,802.6563 Q97.4219,802.6563 97.2188,802.4531 Q97.0156,802.2656 96.9063,801.75 Q96.8594,801.3906 96.6719,801.2031 Q96.3438,800.8281 95.7344,800.6094 Q95.125,800.3906 94.5,800.3906 Q93.7344,800.3906 93.0938,800.7188 Q92.4688,801.0469 91.9688,801.7969 Q91.4844,802.5469 91.4844,803.5781 L91.4844,804.6719 Q91.4844,805.9063 92.375,806.7344 Q93.2656,807.5469 94.8594,807.5469 Q95.7969,807.5469 96.4531,807.2969 Q96.8438,807.1406 97.2656,806.7031 Q97.5313,806.4375 97.6719,806.3594 Q97.8281,806.2813 98.0313,806.2813 Q98.3594,806.2813 98.6094,806.5469 Q98.875,806.7969 98.875,807.1406 Q98.875,807.4844 98.5313,807.8906 Q98.0313,808.4688 97.2344,808.7969 Q96.1563,809.25 94.8594,809.25 Q93.3438,809.25 92.1406,808.625 Q91.1563,808.125 90.4688,807.0625 Q89.7813,805.9844 89.7813,804.7031 L89.7813,803.5469 Q89.7813,802.2188 90.3906,801.0781 Q91.0156,799.9219 92.1094,799.3125 Q93.2031,798.6875 94.4375,798.6875 Q95.1719,798.6875 95.8125,798.8594 Q96.4688,799.0156 97.0156,799.375 Z " fill="#000000"/><text fill="#000000" font-family="sans-serif" font-size="14" lengthAdjust="spacing" textLength="40" x="114.75" y="808.3535">House</text><line style="stroke:#181818;stroke-width:0.5;" x1="37" x2="200" y1="819.5" y2="819.5"/><text fill="#000000" font-family="sans-serif" font-size="14" lengthAdjust="spacing" textLength="122" x="42" y="836.1738">-boolean basement</text><text fill="#000000" font-family="sans-serif" font-size="14" lengthAdjust="spacing" textLength="153" x="42" y="851.8145">-boolean inhabitableLoft</text><text fill="#000000" font-family="sans-serif" font-size="14" lengthAdjust="spacing" textLength="126" x="42" y="867.4551">-string sunExposure</text><line style="stroke:#181818;stroke-width:0.5;" x1="37" x2="200" y1="874.4219" y2="874.4219"/></g><!--class Contacts--><g id="elem_Contacts"><rect codeLine="85" fill="#F1F1F1" height="79.2813" id="Contacts" rx="2.5" ry="2.5" style="stroke:#181818;stroke-width:0.5;" width="154" x="941.5" y="1385"/><ellipse cx="986.25" cy="1401" fill="#ADD1B2" rx="11" ry="11" style="stroke:#181818;stroke-width:1.0;"/><path d="M989.0156,1396.875 Q989.1719,1396.6563 989.3594,1396.5469 Q989.5469,1396.4375 989.7656,1396.4375 Q990.1406,1396.4375 990.375,1396.7031 Q990.6094,1396.9531 990.6094,1397.5625 L990.6094,1399.0156 Q990.6094,1399.625 990.375,1399.8906 Q990.1406,1400.1563 989.7656,1400.1563 Q989.4219,1400.1563 989.2188,1399.9531 Q989.0156,1399.7656 988.9063,1399.25 Q988.8594,1398.8906 988.6719,1398.7031 Q988.3438,1398.3281 987.7344,1398.1094 Q987.125,1397.8906 986.5,1397.8906 Q985.7344,1397.8906 985.0938,1398.2188 Q984.4688,1398.5469 983.9688,1399.2969 Q983.4844,1400.0469 983.4844,1401.0781 L983.4844,1402.1719 Q983.4844,1403.4063 984.375,1404.2344 Q985.2656,1405.0469 986.8594,1405.0469 Q987.7969,1405.0469 988.4531,1404.7969 Q988.8438,1404.6406 989.2656,1404.2031 Q989.5313,1403.9375 989.6719,1403.8594 Q989.8281,1403.7813 990.0313,1403.7813 Q990.3594,1403.7813 990.6094,1404.0469 Q990.875,1404.2969 990.875,1404.6406 Q990.875,1404.9844 990.5313,1405.3906 Q990.0313,1405.9688 989.2344,1406.2969 Q988.1563,1406.75 986.8594,1406.75 Q985.3438,1406.75 984.1406,1406.125 Q983.1563,1405.625 982.4688,1404.5625 Q981.7813,1403.4844 981.7813,1402.2031 L981.7813,1401.0469 Q981.7813,1399.7188 982.3906,1398.5781 Q983.0156,1397.4219 984.1094,1396.8125 Q985.2031,1396.1875 986.4375,1396.1875 Q987.1719,1396.1875 987.8125,1396.3594 Q988.4688,1396.5156 989.0156,1396.875 Z " fill="#000000"/><text fill="#000000" font-family="sans-serif" font-size="14" lengthAdjust="spacing" textLength="56" x="1006.75" y="1405.8535">Contacts</text><line style="stroke:#181818;stroke-width:0.5;" x1="942.5" x2="1094.5" y1="1417" y2="1417"/><text fill="#000000" font-family="sans-serif" font-size="14" lengthAdjust="spacing" textLength="142" x="947.5" y="1433.6738">-Integer phoneNumber</text><text fill="#000000" font-family="sans-serif" font-size="14" lengthAdjust="spacing" textLength="131" x="947.5" y="1449.3145">-String emailAddress</text><line style="stroke:#181818;stroke-width:0.5;" x1="942.5" x2="1094.5" y1="1456.2813" y2="1456.2813"/></g><!--class Employee--><g id="elem_Employee"><rect codeLine="90" fill="#F1F1F1" height="79.2813" id="Employee" rx="2.5" ry="2.5" style="stroke:#181818;stroke-width:0.5;" width="200" x="1071.5" y="1222.5"/><ellipse cx="1136.25" cy="1238.5" fill="#ADD1B2" rx="11" ry="11" style="stroke:#181818;stroke-width:1.0;"/><path d="M1139.0156,1234.375 Q1139.1719,1234.1563 1139.3594,1234.0469 Q1139.5469,1233.9375 1139.7656,1233.9375 Q1140.1406,1233.9375 1140.375,1234.2031 Q1140.6094,1234.4531 1140.6094,1235.0625 L1140.6094,1236.5156 Q1140.6094,1237.125 1140.375,1237.3906 Q1140.1406,1237.6563 1139.7656,1237.6563 Q1139.4219,1237.6563 1139.2188,1237.4531 Q1139.0156,1237.2656 1138.9063,1236.75 Q1138.8594,1236.3906 1138.6719,1236.2031 Q1138.3438,1235.8281 1137.7344,1235.6094 Q1137.125,1235.3906 1136.5,1235.3906 Q1135.7344,1235.3906 1135.0938,1235.7188 Q1134.4688,1236.0469 1133.9688,1236.7969 Q1133.4844,1237.5469 1133.4844,1238.5781 L1133.4844,1239.6719 Q1133.4844,1240.9063 1134.375,1241.7344 Q1135.2656,1242.5469 1136.8594,1242.5469 Q1137.7969,1242.5469 1138.4531,1242.2969 Q1138.8438,1242.1406 1139.2656,1241.7031 Q1139.5313,1241.4375 1139.6719,1241.3594 Q1139.8281,1241.2813 1140.0313,1241.2813 Q1140.3594,1241.2813 1140.6094,1241.5469 Q1140.875,1241.7969 1140.875,1242.1406 Q1140.875,1242.4844 1140.5313,1242.8906 Q1140.0313,1243.4688 1139.2344,1243.7969 Q1138.1563,1244.25 1136.8594,1244.25 Q1135.3438,1244.25 1134.1406,1243.625 Q1133.1563,1243.125 1132.4688,1242.0625 Q1131.7813,1240.9844 1131.7813,1239.7031 L1131.7813,1238.5469 Q1131.7813,1237.2188 1132.3906,1236.0781 Q1133.0156,1234.9219 1134.1094,1234.3125 Q1135.2031,1233.6875 1136.4375,1233.6875 Q1137.1719,1233.6875 1137.8125,1233.8594 Q1138.4688,1234.0156 1139.0156,1234.375 Z " fill="#000000"/><text fill="#000000" font-family="sans-serif" font-size="14" lengthAdjust="spacing" textLength="62" x="1156.75" y="1243.3535">Employee</text><line style="stroke:#181818;stroke-width:0.5;" x1="1072.5" x2="1270.5" y1="1254.5" y2="1254.5"/><text fill="#000000" font-family="sans-serif" font-size="14" lengthAdjust="spacing" textLength="81" x="1077.5" y="1271.1738">-String name</text><text fill="#000000" font-family="sans-serif" font-size="14" lengthAdjust="spacing" textLength="188" x="1077.5" y="1286.8145">-Integer passportCardNumber</text><line style="stroke:#181818;stroke-width:0.5;" x1="1072.5" x2="1270.5" y1="1293.7813" y2="1293.7813"/></g><!--class TaxNumber--><g id="elem_TaxNumber"><rect codeLine="95" fill="#F1F1F1" height="63.6406" id="TaxNumber" rx="2.5" ry="2.5" style="stroke:#181818;stroke-width:0.5;" width="132" x="952.5" y="1524"/><ellipse cx="980.1" cy="1540" fill="#ADD1B2" rx="11" ry="11" style="stroke:#181818;stroke-width:1.0;"/><path d="M982.8656,1535.875 Q983.0219,1535.6563 983.2094,1535.5469 Q983.3969,1535.4375 983.6156,1535.4375 Q983.9906,1535.4375 984.225,1535.7031 Q984.4594,1535.9531 984.4594,1536.5625 L984.4594,1538.0156 Q984.4594,1538.625 984.225,1538.8906 Q983.9906,1539.1563 983.6156,1539.1563 Q983.2719,1539.1563 983.0688,1538.9531 Q982.8656,1538.7656 982.7563,1538.25 Q982.7094,1537.8906 982.5219,1537.7031 Q982.1938,1537.3281 981.5844,1537.1094 Q980.975,1536.8906 980.35,1536.8906 Q979.5844,1536.8906 978.9438,1537.2188 Q978.3188,1537.5469 977.8188,1538.2969 Q977.3344,1539.0469 977.3344,1540.0781 L977.3344,1541.1719 Q977.3344,1542.4063 978.225,1543.2344 Q979.1156,1544.0469 980.7094,1544.0469 Q981.6469,1544.0469 982.3031,1543.7969 Q982.6938,1543.6406 983.1156,1543.2031 Q983.3813,1542.9375 983.5219,1542.8594 Q983.6781,1542.7813 983.8813,1542.7813 Q984.2094,1542.7813 984.4594,1543.0469 Q984.725,1543.2969 984.725,1543.6406 Q984.725,1543.9844 984.3813,1544.3906 Q983.8813,1544.9688 983.0844,1545.2969 Q982.0063,1545.75 980.7094,1545.75 Q979.1938,1545.75 977.9906,1545.125 Q977.0063,1544.625 976.3188,1543.5625 Q975.6313,1542.4844 975.6313,1541.2031 L975.6313,1540.0469 Q975.6313,1538.7188 976.2406,1537.5781 Q976.8656,1536.4219 977.9594,1535.8125 Q979.0531,1535.1875 980.2875,1535.1875 Q981.0219,1535.1875 981.6625,1535.3594 Q982.3188,1535.5156 982.8656,1535.875 Z " fill="#000000"/><text fill="#000000" font-family="sans-serif" font-size="14" lengthAdjust="spacing" textLength="72" x="996.9" y="1544.8535">TaxNumber</text><line style="stroke:#181818;stroke-width:0.5;" x1="953.5" x2="1083.5" y1="1556" y2="1556"/><text fill="#000000" font-family="sans-serif" font-size="14" lengthAdjust="spacing" textLength="120" x="958.5" y="1572.6738">-Integer taxNumber</text><line style="stroke:#181818;stroke-width:0.5;" x1="953.5" x2="1083.5" y1="1579.6406" y2="1579.6406"/></g><!--class Rent--><g id="elem_Rent"><rect codeLine="99" fill="#F1F1F1" height="63.6406" id="Rent" rx="2.5" ry="2.5" style="stroke:#181818;stroke-width:0.5;" width="170" x="1436.5" y="803"/><ellipse cx="1502.25" cy="819" fill="#ADD1B2" rx="11" ry="11" style="stroke:#181818;stroke-width:1.0;"/><path d="M1505.0156,814.875 Q1505.1719,814.6563 1505.3594,814.5469 Q1505.5469,814.4375 1505.7656,814.4375 Q1506.1406,814.4375 1506.375,814.7031 Q1506.6094,814.9531 1506.6094,815.5625 L1506.6094,817.0156 Q1506.6094,817.625 1506.375,817.8906 Q1506.1406,818.1563 1505.7656,818.1563 Q1505.4219,818.1563 1505.2188,817.9531 Q1505.0156,817.7656 1504.9063,817.25 Q1504.8594,816.8906 1504.6719,816.7031 Q1504.3438,816.3281 1503.7344,816.1094 Q1503.125,815.8906 1502.5,815.8906 Q1501.7344,815.8906 1501.0938,816.2188 Q1500.4688,816.5469 1499.9688,817.2969 Q1499.4844,818.0469 1499.4844,819.0781 L1499.4844,820.1719 Q1499.4844,821.4063 1500.375,822.2344 Q1501.2656,823.0469 1502.8594,823.0469 Q1503.7969,823.0469 1504.4531,822.7969 Q1504.8438,822.6406 1505.2656,822.2031 Q1505.5313,821.9375 1505.6719,821.8594 Q1505.8281,821.7813 1506.0313,821.7813 Q1506.3594,821.7813 1506.6094,822.0469 Q1506.875,822.2969 1506.875,822.6406 Q1506.875,822.9844 1506.5313,823.3906 Q1506.0313,823.9688 1505.2344,824.2969 Q1504.1563,824.75 1502.8594,824.75 Q1501.3438,824.75 1500.1406,824.125 Q1499.1563,823.625 1498.4688,822.5625 Q1497.7813,821.4844 1497.7813,820.2031 L1497.7813,819.0469 Q1497.7813,817.7188 1498.3906,816.5781 Q1499.0156,815.4219 1500.1094,814.8125 Q1501.2031,814.1875 1502.4375,814.1875 Q1503.1719,814.1875 1503.8125,814.3594 Q1504.4688,814.5156 1505.0156,814.875 Z " fill="#000000"/><text fill="#000000" font-family="sans-serif" font-size="14" lengthAdjust="spacing" textLength="30" x="1522.75" y="823.8535">Rent</text><line style="stroke:#181818;stroke-width:0.5;" x1="1437.5" x2="1605.5" y1="835" y2="835"/><text fill="#000000" font-family="sans-serif" font-size="14" lengthAdjust="spacing" textLength="158" x="1442.5" y="851.6738">-Integer contractDuration</text><line style="stroke:#181818;stroke-width:0.5;" x1="1437.5" x2="1605.5" y1="858.6406" y2="858.6406"/></g><!--link CreateRequestUI to CreateRequestController--><g id="link_CreateRequestUI_CreateRequestController"><path codeLine="103" d="M1098.5,55.36 C1098.5,55.36 1098.5,170.7 1098.5,170.7 " fill="none" id="CreateRequestUI-to-CreateRequestController" style="stroke:#181818;stroke-width:1.0;stroke-dasharray:7.0,7.0;"/><polygon fill="#181818" points="1098.5,175.7,1102.5,166.7,1098.5,170.7,1094.5,166.7,1098.5,175.7" style="stroke:#181818;stroke-width:1.0;"/></g><!--link CreateRequestController to Repositories--><g id="link_CreateRequestController_Repositories"><path codeLine="105" d="M1287.5,318.03 C1287.5,318.03 1287.5,433.74 1287.5,433.74 " fill="none" id="CreateRequestController-to-Repositories" style="stroke:#181818;stroke-width:1.0;stroke-dasharray:7.0,7.0;"/><polygon fill="#181818" points="1287.5,438.74,1291.5,429.74,1287.5,433.74,1283.5,429.74,1287.5,438.74" style="stroke:#181818;stroke-width:1.0;"/><text fill="#000000" font-family="sans-serif" font-size="13" lengthAdjust="spacing" textLength="67" x="1219.5" y="372.6586">repositories</text></g><!--link CreateRequestController to Agency--><g id="link_CreateRequestController_Agency"><path codeLine="106" d="M1133,318.22 C1133,318.22 1133,758.9 1133,758.9 " fill="none" id="CreateRequestController-to-Agency" style="stroke:#181818;stroke-width:1.0;stroke-dasharray:7.0,7.0;"/><polygon fill="#181818" points="1133,763.9,1137,754.9,1133,758.9,1129,754.9,1133,763.9" style="stroke:#181818;stroke-width:1.0;"/><text fill="#000000" font-family="sans-serif" font-size="13" lengthAdjust="spacing" textLength="42" x="1090" y="535.3286">agency</text></g><!--link CreateRequestController to RequestTypeRepository--><g id="link_CreateRequestController_RequestTypeRepository"><path codeLine="107" d="M1392.25,318.3 C1392.25,318.3 1392.25,619.98 1392.25,619.98 " fill="none" id="CreateRequestController-to-RequestTypeRepository" style="stroke:#181818;stroke-width:1.0;stroke-dasharray:7.0,7.0;"/><polygon fill="#181818" points="1392.25,624.98,1396.25,615.98,1392.25,619.98,1388.25,615.98,1392.25,624.98" style="stroke:#181818;stroke-width:1.0;"/><text fill="#000000" font-family="sans-serif" font-size="13" lengthAdjust="spacing" textLength="133" x="1393.25" y="465.9086">requestTypeRepository</text></g><!--link CreateRequestController to AgencyTypeRepository--><g id="link_CreateRequestController_AgencyTypeRepository"><path codeLine="108" d="M1144.5,318.15 C1144.5,432.63 1144.5,645 1144.5,645 C1144.5,645 1158.99,645 1158.99,645 " fill="none" id="CreateRequestController-to-AgencyTypeRepository" style="stroke:#181818;stroke-width:1.0;stroke-dasharray:7.0,7.0;"/><polygon fill="#181818" points="1163.99,645,1154.99,641,1158.99,645,1154.99,649,1163.99,645" style="stroke:#181818;stroke-width:1.0;"/><text fill="#000000" font-family="sans-serif" font-size="13" lengthAdjust="spacing" textLength="104" x="1039.5" y="485.5886">agencyRepository</text></g><!--link CreateRequestController to PropertyTypeRepository--><g id="link_CreateRequestController_PropertyTypeRepository"><path codeLine="109" d="M982.5,318.3 C982.5,318.3 982.5,619.98 982.5,619.98 " fill="none" id="CreateRequestController-to-PropertyTypeRepository" style="stroke:#181818;stroke-width:1.0;stroke-dasharray:7.0,7.0;"/><polygon fill="#181818" points="982.5,624.98,986.5,615.98,982.5,619.98,978.5,615.98,982.5,624.98" style="stroke:#181818;stroke-width:1.0;"/><text fill="#000000" font-family="sans-serif" font-size="13" lengthAdjust="spacing" textLength="137" x="844.5" y="465.9086">propertyTypeRepository</text></g><!--link Agency to Request--><g id="link_Agency_Request"><path codeLine="111" d="M930.75,906.22 C930.75,906.22 930.75,960.94 930.75,960.94 " fill="none" id="Agency-to-Request" style="stroke:#181818;stroke-width:1.0;"/><polygon fill="#181818" points="930.75,965.94,934.75,956.94,930.75,960.94,926.75,956.94,930.75,965.94" style="stroke:#181818;stroke-width:1.0;"/><text fill="#000000" font-family="sans-serif" font-size="13" lengthAdjust="spacing" textLength="50" x="879.75" y="930.3486">requests</text></g><!--link Agency to Employee--><g id="link_Agency_Employee"><path codeLine="112" d="M1106.25,906.47 C1106.25,906.47 1106.25,1217.42 1106.25,1217.42 " fill="none" id="Agency-to-Employee" style="stroke:#181818;stroke-width:1.0;"/><polygon fill="#181818" points="1106.25,1222.42,1110.25,1213.42,1106.25,1217.42,1102.25,1213.42,1106.25,1222.42" style="stroke:#181818;stroke-width:1.0;"/><text fill="#000000" font-family="sans-serif" font-size="13" lengthAdjust="spacing" textLength="49" x="1056.25" y="1058.7086">employs</text></g><!--link AgencyTypeRepository to Agency--><g id="link_AgencyTypeRepository_Agency"><path codeLine="113" d="M1163.73,685 C1148.24,685 1137,685 1137,685 C1137,685 1137,758.95 1137,758.95 " fill="none" id="AgencyTypeRepository-to-Agency" style="stroke:#181818;stroke-width:1.0;"/><polygon fill="#181818" points="1137,763.95,1141,754.95,1137,758.95,1133,754.95,1137,763.95" style="stroke:#181818;stroke-width:1.0;"/></g><!--link Request to Property--><g id="link_Request_Property"><path codeLine="114" d="M378.5,1139.22 C378.5,1139.22 378.5,1193.69 378.5,1193.69 " fill="none" id="Request-to-Property" style="stroke:#181818;stroke-width:1.0;"/><polygon fill="#181818" points="378.5,1198.69,382.5,1189.69,378.5,1193.69,374.5,1189.69,378.5,1198.69" style="stroke:#181818;stroke-width:1.0;"/><text fill="#000000" font-family="sans-serif" font-size="13" lengthAdjust="spacing" textLength="21" x="356.5" y="1163.2286">has</text></g><!--link Request to Owner--><g id="link_Request_Owner"><path codeLine="115" d="M865.5,1139.22 C865.5,1139.22 865.5,1217.5 865.5,1217.5 " fill="none" id="Request-to-Owner" style="stroke:#181818;stroke-width:1.0;"/><polygon fill="#181818" points="865.5,1222.5,869.5,1213.5,865.5,1217.5,861.5,1213.5,865.5,1222.5" style="stroke:#181818;stroke-width:1.0;"/><text fill="#000000" font-family="sans-serif" font-size="13" lengthAdjust="spacing" textLength="59" x="805.5" y="1175.1286">createdBy</text></g><!--link RequestTypeRepository to Rent--><g id="link_RequestTypeRepository_Rent"><path codeLine="116" d="M1521.5,704.04 C1521.5,704.04 1521.5,797.81 1521.5,797.81 " fill="none" id="RequestTypeRepository-to-Rent" style="stroke:#181818;stroke-width:1.0;"/><polygon fill="#181818" points="1521.5,802.81,1525.5257,793.8215,1521.5143,797.81,1517.5257,793.7986,1521.5,802.81" style="stroke:#181818;stroke-width:1.0;"/><polygon fill="#000000" points="1472.5,748.1817,1475.4389,739.1366,1469.5611,739.1366,1472.5,748.1817" style="stroke:#000000;stroke-width:1.0;"/><text fill="#000000" font-family="sans-serif" font-size="13" lengthAdjust="spacing" textLength="39" x="1481.5" y="747.6886">can be</text></g><!--link Repositories to AgencyTypeRepository--><g id="link_Repositories_AgencyTypeRepository"><path codeLine="118" d="M1253.5,565.29 C1253.5,565.29 1253.5,619.59 1253.5,619.59 " fill="none" id="Repositories-to-AgencyTypeRepository" style="stroke:#181818;stroke-width:1.0;"/><polygon fill="#181818" points="1253.5,624.59,1257.5,615.59,1253.5,619.59,1249.5,615.59,1253.5,624.59" style="stroke:#181818;stroke-width:1.0;"/></g><!--link Repositories to PropertyTypeRepository--><g id="link_Repositories_PropertyTypeRepository"><path codeLine="119" d="M1155.67,565.02 C1155.67,610.89 1155.67,665 1155.67,665 C1155.67,665 1134.37,665 1134.37,665 " fill="none" id="Repositories-to-PropertyTypeRepository" style="stroke:#181818;stroke-width:1.0;"/><polygon fill="#181818" points="1129.37,665,1138.37,669,1134.37,665,1138.37,661,1129.37,665" style="stroke:#181818;stroke-width:1.0;"/></g><!--link Repositories to RequestTypeRepository--><g id="link_Repositories_RequestTypeRepository"><path codeLine="120" d="M1349.25,565.02 C1349.25,610.89 1349.25,665 1349.25,665 C1349.25,665 1372.69,665 1372.69,665 " fill="none" id="Repositories-to-RequestTypeRepository" style="stroke:#181818;stroke-width:1.0;"/><polygon fill="#181818" points="1377.69,665,1368.69,661,1372.69,665,1368.69,669,1377.69,665" style="stroke:#181818;stroke-width:1.0;"/></g><!--link House to Residence--><g id="link_House_Residence"><path codeLine="122" d="M118.5,882.73 C118.5,882.73 118.5,976.81 118.5,976.81 " fill="none" id="House-to-Residence" style="stroke:#181818;stroke-width:1.0;"/><polygon fill="none" points="125.5,976.81,118.5,996.81,111.5,976.81,125.5,976.81" style="stroke:#181818;stroke-width:1.0;"/></g><!--link Residence to Property--><g id="link_Residence_Property"><path codeLine="124" d="M230.05,1053 C240.77,1053 247.75,1053 247.75,1053 C247.75,1053 247.75,1178.73 247.75,1178.73 " fill="none" id="Residence-to-Property" style="stroke:#181818;stroke-width:1.0;"/><polygon fill="none" points="254.75,1178.73,247.75,1198.73,240.75,1178.73,254.75,1178.73" style="stroke:#181818;stroke-width:1.0;"/></g><!--link Agency to Contacts--><g id="link_Agency_Contacts"><path codeLine="126" d="M1018.5,906.11 C1018.5,906.11 1018.5,1379.85 1018.5,1379.85 " fill="none" id="Agency-to-Contacts" style="stroke:#181818;stroke-width:1.0;"/><polygon fill="#181818" points="1018.5,1384.85,1022.5,1375.85,1018.5,1379.85,1014.5,1375.85,1018.5,1384.85" style="stroke:#181818;stroke-width:1.0;"/><polygon fill="#000000" points="987.5,1140.2417,990.4389,1131.1966,984.5611,1131.1966,987.5,1140.2417" style="stroke:#000000;stroke-width:1.0;"/><text fill="#000000" font-family="sans-serif" font-size="13" lengthAdjust="spacing" textLength="21" x="996.5" y="1139.7486">has</text></g><!--link Employee to Contacts--><g id="link_Employee_Contacts"><path codeLine="127" d="M1083.5,1301.75 C1083.5,1301.75 1083.5,1379.88 1083.5,1379.88 " fill="none" id="Employee-to-Contacts" style="stroke:#181818;stroke-width:1.0;"/><polygon fill="#181818" points="1083.5,1384.88,1087.5,1375.88,1083.5,1379.88,1079.5,1375.88,1083.5,1384.88" style="stroke:#181818;stroke-width:1.0;"/><polygon fill="#000000" points="1052.5,1338.0717,1055.4389,1329.0266,1049.5611,1329.0266,1052.5,1338.0717" style="stroke:#000000;stroke-width:1.0;"/><text fill="#000000" font-family="sans-serif" font-size="13" lengthAdjust="spacing" textLength="21" x="1061.5" y="1337.5786">has</text></g><!--link Owner to Contacts--><g id="link_Owner_Contacts"><path codeLine="128" d="M953.5,1301.75 C953.5,1301.75 953.5,1379.88 953.5,1379.88 " fill="none" id="Owner-to-Contacts" style="stroke:#181818;stroke-width:1.0;"/><polygon fill="#181818" points="953.5,1384.88,957.5,1375.88,953.5,1379.88,949.5,1375.88,953.5,1384.88" style="stroke:#181818;stroke-width:1.0;"/><polygon fill="#000000" points="922.5,1338.0717,925.4389,1329.0266,919.5611,1329.0266,922.5,1338.0717" style="stroke:#000000;stroke-width:1.0;"/><text fill="#000000" font-family="sans-serif" font-size="13" lengthAdjust="spacing" textLength="21" x="931.5" y="1337.5786">has</text></g><!--link Owner to TaxNumber--><g id="link_Owner_TaxNumber"><path codeLine="130" d="M853.5,1301.65 C853.5,1381.9 853.5,1556 853.5,1556 C853.5,1556 947.34,1556 947.34,1556 " fill="none" id="Owner-to-TaxNumber" style="stroke:#181818;stroke-width:1.0;"/><polygon fill="#181818" points="952.34,1556,943.34,1552,947.34,1556,943.34,1560,952.34,1556" style="stroke:#181818;stroke-width:1.0;"/><polygon fill="#000000" points="824.2307,1472.6926,823.8571,1463.1894,818.3426,1465.2239,824.2307,1472.6926" style="stroke:#000000;stroke-width:1.0;"/><text fill="#000000" font-family="sans-serif" font-size="13" lengthAdjust="spacing" textLength="21" x="831.5" y="1472.5086">has</text></g><!--link Employee to TaxNumber--><g id="link_Employee_TaxNumber"><path codeLine="131" d="M1183.5,1301.65 C1183.5,1381.9 1183.5,1556 1183.5,1556 C1183.5,1556 1089.66,1556 1089.66,1556 " fill="none" id="Employee-to-TaxNumber" style="stroke:#181818;stroke-width:1.0;"/><polygon fill="#181818" points="1084.66,1556,1093.66,1560,1089.66,1556,1093.66,1552,1084.66,1556" style="stroke:#181818;stroke-width:1.0;"/><polygon fill="#000000" points="1150.7693,1472.6926,1156.6574,1465.2239,1151.1429,1463.1894,1150.7693,1472.6926" style="stroke:#000000;stroke-width:1.0;"/><text fill="#000000" font-family="sans-serif" font-size="13" lengthAdjust="spacing" textLength="21" x="1161.5" y="1472.5086">has</text></g><!--link Repositories to Repositories--><g id="link_Repositories_Repositories"><path codeLine="133" d="M1219.5,438.7 C1219.5,408.56 1219.5,379 1219.5,379 C1219.5,379 1148,379 1148,379 C1148,379 1148,595 1148,595 C1148,595 1159.83,595 1159.83,595 C1159.83,595 1159.83,570.06 1159.83,570.06 " fill="none" id="Repositories-to-Repositories" style="stroke:#181818;stroke-width:1.0;"/><polygon fill="#181818" points="1159.83,565.06,1155.83,574.06,1159.83,570.06,1163.83,574.06,1159.83,565.06" style="stroke:#181818;stroke-width:1.0;"/><text fill="#000000" font-family="sans-serif" font-size="13" lengthAdjust="spacing" textLength="49" x="1093" y="431.5586">instance</text></g><!--SRC=[dLPBRjim4Dth55mwg5Lq7HG272T53GHD4AS7eAM9J5GY5P9guxgzUuUYI54KanPT9PhFcvat7rfzOxoZahQaRAXI6wqbE_GQTgNWU_OJo8TCUPE6ST2d3eYG-YYoR70XMmbKmmCyzw3qrzqv-vtKR0NNKZGDo7FsZfHfrKfQoID6UO1EAAQ5FAr99qK7KfzYEQs1bwT9Se7GDMY7Yo5g8HcerQYu3t06cG8RdPRwkfTKCy6TxMR03h_qBLCQ1Rv07nX3dBDyzctTTbnfoaiCThbKFgIAJQMwr6wYmiEiqfuclprsbzV4bF4nj2fc11jraYuVmKPVujjs6FzB6yGQ5c7ECOTM6cJNY7BemoIfGB6QHy81VsIm8EFS3AdFJMxQhX4dm1fX_6-iRpQ2uU0jEgwWWL93PLETzJ_Hm7CwHyjp46QYER1OBT4Dta681YXtxdkDcGVypBv6cxiV7AITy5aRmqvVU1gSoOhYvzhtO4qgPWVuanJjun6sJ9-so8i4ivIiD7-EGejQqkveAZAGjAeydWjt4J2kM0Lc9tZV7a3UFLr19OLerPfu2TN7I7HF9HwYUj_H4b1ClrFMq4C3DyyzwrfCQOhmMVGALWUgmCZNXF4ZFJ1jh6_54mfKpszUi5-zXCJU6C9t74y7I6BeI8vc9Ng4UvsU06FWAHgAYRGY8d3AP-XWC4sSjZDOjEdm4c-fhBuC98MZCt8SrXBJdL8vtXEwMGEch9QDcD8O6X7Eh-j988gQWnfbWOCc1KyA7ckyrIgi2_dZC3BWqu8MqzfKbGIb9dTt3FwFrKVwOaLXTEs48VjSXoPbzC8Oo-ZL9Fdxl7ZjmOoi9uNr2XyMSedx7xmpRphQUuOkzcx_BKhYrWtX4l9_YRj0YX_pjq7Ihnp2f7yhPDbORJxLCcMlGgqR4bJR9yDfer2vBoLpW7cG6BeVgPgfXer6kJrJrPLtJ22R8K9BipH0YYoRTJb_XSMbLPgcfLqoaImRDXWDVXNJJJ6vZFzQZOinuzXjggK1A_2q9hMMcgJAwr3fLp0DkrH7bIwsXOq_qFu0]--></g></svg>