<?xml version="1.0" encoding="us-ascii" standalone="no"?><svg xmlns="http://www.w3.org/2000/svg" xmlns:xlink="http://www.w3.org/1999/xlink" contentStyleType="text/css" height="1741.5px" preserveAspectRatio="none" style="width:1713px;height:1741px;background:#FFFFFF;" version="1.1" viewBox="0 0 1713 1741" width="1713.6px" zoomAndPan="magnify"><defs/><g><text fill="#000000" font-family="sans-serif" font-size="12.6" font-weight="bold" lengthAdjust="spacing" textLength="202.5" x="754.875" y="24.9064">Sequence Diagram (SD) - US 004</text><rect fill="#FFFFFF" height="1539.3023" style="stroke:#181818;stroke-width:0.9;" width="9" x="43.65" y="114.5531"/><rect fill="#FFFFFF" height="1520.8313" style="stroke:#181818;stroke-width:0.9;" width="9" x="589.95" y="133.0242"/><rect fill="#FFFFFF" height="181.6031" style="stroke:#181818;stroke-width:0.9;" width="9" x="779.85" y="167.6953"/><rect fill="#FFFFFF" height="128.3555" style="stroke:#181818;stroke-width:0.9;" width="9" x="779.85" y="439.3828"/><rect fill="#FFFFFF" height="128.3555" style="stroke:#181818;stroke-width:0.9;" width="9" x="779.85" y="696.5648"/><rect fill="#FFFFFF" height="128.3555" style="stroke:#181818;stroke-width:0.9;" width="9" x="779.85" y="1228.4578"/><rect fill="#FFFFFF" height="25.6711" style="stroke:#181818;stroke-width:0.9;" width="9" x="911.7" y="195.2719"/><rect fill="#FFFFFF" height="25.6711" style="stroke:#181818;stroke-width:0.9;" width="9" x="1023.75" y="297.9563"/><rect fill="#FFFFFF" height="25.6711" style="stroke:#181818;stroke-width:0.9;" width="9" x="1150.2" y="516.3961"/><rect fill="#FFFFFF" height="25.6711" style="stroke:#181818;stroke-width:0.9;" width="9" x="1259.1" y="246.6141"/><rect fill="#FFFFFF" height="25.6711" style="stroke:#181818;stroke-width:0.9;" width="9" x="1259.1" y="465.0539"/><rect fill="#FFFFFF" height="25.6711" style="stroke:#181818;stroke-width:0.9;" width="9" x="1259.1" y="722.2359"/><rect fill="#FFFFFF" height="25.6711" style="stroke:#181818;stroke-width:0.9;" width="9" x="1259.1" y="1254.1289"/><rect fill="#FFFFFF" height="25.6711" style="stroke:#181818;stroke-width:0.9;" width="9" x="1372.5" y="773.5781"/><rect fill="#FFFFFF" height="25.6711" style="stroke:#181818;stroke-width:0.9;" width="9" x="1507.95" y="1305.4711"/><rect fill="none" height="40.5422" style="stroke:#000000;stroke-width:1.35;" width="642.15" x="18" y="966.7758"/><rect fill="none" height="158.0977" style="stroke:#000000;stroke-width:1.35;" width="660.15" x="9" y="1019.918"/><rect fill="none" height="66.2133" style="stroke:#000000;stroke-width:1.35;" width="642.15" x="18" y="1105.5023"/><rect fill="none" height="130.4156" style="stroke:#000000;stroke-width:1.35;" width="642.15" x="18" y="1395.9844"/><line style="stroke:#181818;stroke-width:0.45;stroke-dasharray:5.0,5.0;" x1="47.7" x2="47.7" y1="105.5531" y2="1670.0555"/><line style="stroke:#181818;stroke-width:0.45;stroke-dasharray:5.0,5.0;" x1="594.45" x2="594.45" y1="105.5531" y2="1670.0555"/><line style="stroke:#181818;stroke-width:0.45;stroke-dasharray:5.0,5.0;" x1="784.35" x2="784.35" y1="167.5125" y2="1670.0555"/><line style="stroke:#181818;stroke-width:0.45;stroke-dasharray:5.0,5.0;" x1="915.75" x2="915.75" y1="105.5531" y2="1670.0555"/><line style="stroke:#181818;stroke-width:0.45;stroke-dasharray:5.0,5.0;" x1="1028.25" x2="1028.25" y1="105.5531" y2="1670.0555"/><line style="stroke:#181818;stroke-width:0.45;stroke-dasharray:5.0,5.0;" x1="1154.25" x2="1154.25" y1="105.5531" y2="1670.0555"/><line style="stroke:#181818;stroke-width:0.45;stroke-dasharray:5.0,5.0;" x1="1263.15" x2="1263.15" y1="105.5531" y2="1670.0555"/><line style="stroke:#181818;stroke-width:0.45;stroke-dasharray:5.0,5.0;" x1="1376.55" x2="1376.55" y1="105.5531" y2="1670.0555"/><line style="stroke:#181818;stroke-width:0.45;stroke-dasharray:5.0,5.0;" x1="1512.45" x2="1512.45" y1="105.5531" y2="1670.0555"/><line style="stroke:#181818;stroke-width:0.45;stroke-dasharray:5.0,5.0;" x1="1646.55" x2="1646.55" y1="105.5531" y2="1670.0555"/><text fill="#000000" font-family="sans-serif" font-size="12.6" lengthAdjust="spacing" textLength="36.9" x="27" y="102.883">Owner</text><ellipse cx="48.15" cy="45.1266" fill="#E3E3E3" rx="7.2" ry="7.2" style="stroke:#181818;stroke-width:0.45;"/><path d="M48.15,52.3266 L48.15,76.6266 M36.45,59.5266 L59.85,59.5266 M48.15,76.6266 L36.45,90.1266 M48.15,76.6266 L59.85,90.1266 " fill="none" style="stroke:#181818;stroke-width:0.45;"/><text fill="#000000" font-family="sans-serif" font-size="12.6" lengthAdjust="spacing" textLength="36.9" x="27" y="1680.5619">Owner</text><ellipse cx="48.15" cy="1690.882" fill="#E3E3E3" rx="7.2" ry="7.2" style="stroke:#181818;stroke-width:0.45;"/><path d="M48.15,1698.082 L48.15,1722.382 M36.45,1705.282 L59.85,1705.282 M48.15,1722.382 L36.45,1735.882 M48.15,1722.382 L59.85,1735.882 " fill="none" style="stroke:#181818;stroke-width:0.45;"/><rect fill="#E3E3E3" height="26.6766" rx="2.25" ry="2.25" style="stroke:#181818;stroke-width:0.45;" width="113.4" x="537.75" y="77.9766"/><text fill="#000000" font-family="sans-serif" font-size="12.6" lengthAdjust="spacing" textLength="100.8" x="544.05" y="95.683">:CreateRequestUI</text><rect fill="#E3E3E3" height="26.6766" rx="2.25" ry="2.25" style="stroke:#181818;stroke-width:0.45;" width="113.4" x="537.75" y="1669.1555"/><text fill="#000000" font-family="sans-serif" font-size="12.6" lengthAdjust="spacing" textLength="100.8" x="544.05" y="1686.8619">:CreateRequestUI</text><rect fill="#E3E3E3" height="26.6766" rx="2.25" ry="2.25" style="stroke:#181818;stroke-width:0.45;" width="158.4" x="705.15" y="1669.1555"/><text fill="#000000" font-family="sans-serif" font-size="12.6" lengthAdjust="spacing" textLength="145.8" x="711.45" y="1686.8619">:CreateRequestController</text><rect fill="#E3E3E3" height="26.6766" rx="2.25" ry="2.25" style="stroke:#181818;stroke-width:0.45;" width="87.3" x="872.55" y="77.9766"/><text fill="#000000" font-family="sans-serif" font-size="12.6" lengthAdjust="spacing" textLength="74.7" x="878.85" y="95.683">:Repositories</text><rect fill="#E3E3E3" height="26.6766" rx="2.25" ry="2.25" style="stroke:#181818;stroke-width:0.45;" width="87.3" x="872.55" y="1669.1555"/><text fill="#000000" font-family="sans-serif" font-size="12.6" lengthAdjust="spacing" textLength="74.7" x="878.85" y="1686.8619">:Repositories</text><rect fill="#E3E3E3" height="40.7531" rx="2.25" ry="2.25" style="stroke:#181818;stroke-width:0.45;" width="118.8" x="968.85" y="63.9"/><text fill="#000000" font-family="sans-serif" font-size="12.6" lengthAdjust="spacing" textLength="106.2" x="975.15" y="81.6064">agencyRepository:</text><text fill="#000000" font-family="sans-serif" font-size="12.6" lengthAdjust="spacing" textLength="103.5" x="976.5" y="95.683">AgencyRepository</text><rect fill="#E3E3E3" height="40.7531" rx="2.25" ry="2.25" style="stroke:#181818;stroke-width:0.45;" width="118.8" x="968.85" y="1669.1555"/><text fill="#000000" font-family="sans-serif" font-size="12.6" lengthAdjust="spacing" textLength="106.2" x="975.15" y="1686.8619">agencyRepository:</text><text fill="#000000" font-family="sans-serif" font-size="12.6" lengthAdjust="spacing" textLength="103.5" x="976.5" y="1700.9385">AgencyRepository</text><rect fill="#E3E3E3" height="40.7531" rx="2.25" ry="2.25" style="stroke:#181818;stroke-width:0.45;" width="116.1" x="1096.65" y="63.9"/><text fill="#000000" font-family="sans-serif" font-size="12.6" lengthAdjust="spacing" textLength="103.5" x="1102.95" y="81.6064">agentsRepository:</text><text fill="#000000" font-family="sans-serif" font-size="12.6" lengthAdjust="spacing" textLength="100.8" x="1104.3" y="95.683">AgentsRepository</text><rect fill="#E3E3E3" height="40.7531" rx="2.25" ry="2.25" style="stroke:#181818;stroke-width:0.45;" width="116.1" x="1096.65" y="1669.1555"/><text fill="#000000" font-family="sans-serif" font-size="12.6" lengthAdjust="spacing" textLength="103.5" x="1102.95" y="1686.8619">agentsRepository:</text><text fill="#000000" font-family="sans-serif" font-size="12.6" lengthAdjust="spacing" textLength="100.8" x="1104.3" y="1700.9385">AgentsRepository</text><rect fill="#E3E3E3" height="40.7531" rx="2.25" ry="2.25" style="stroke:#181818;stroke-width:0.45;" width="83.7" x="1221.75" y="63.9"/><text fill="#000000" font-family="sans-serif" font-size="12.6" lengthAdjust="spacing" textLength="70.2" x="1228.5" y="81.6064">repositories:</text><text fill="#000000" font-family="sans-serif" font-size="12.6" lengthAdjust="spacing" textLength="71.1" x="1228.05" y="95.683">Repositories</text><rect fill="#E3E3E3" height="40.7531" rx="2.25" ry="2.25" style="stroke:#181818;stroke-width:0.45;" width="83.7" x="1221.75" y="1669.1555"/><text fill="#000000" font-family="sans-serif" font-size="12.6" lengthAdjust="spacing" textLength="70.2" x="1228.5" y="1686.8619">repositories:</text><text fill="#000000" font-family="sans-serif" font-size="12.6" lengthAdjust="spacing" textLength="71.1" x="1228.05" y="1700.9385">Repositories</text><rect fill="#E3E3E3" height="40.7531" rx="2.25" ry="2.25" style="stroke:#181818;stroke-width:0.45;" width="125.1" x="1314.45" y="63.9"/><text fill="#000000" font-family="sans-serif" font-size="12.6" lengthAdjust="spacing" textLength="112.5" x="1320.75" y="81.6064">propertyRepository:</text><text fill="#000000" font-family="sans-serif" font-size="12.6" lengthAdjust="spacing" textLength="109.8" x="1322.1" y="95.683">PropertyRepository</text><rect fill="#E3E3E3" height="40.7531" rx="2.25" ry="2.25" style="stroke:#181818;stroke-width:0.45;" width="125.1" x="1314.45" y="1669.1555"/><text fill="#000000" font-family="sans-serif" font-size="12.6" lengthAdjust="spacing" textLength="112.5" x="1320.75" y="1686.8619">propertyRepository:</text><text fill="#000000" font-family="sans-serif" font-size="12.6" lengthAdjust="spacing" textLength="109.8" x="1322.1" y="1700.9385">PropertyRepository</text><rect fill="#E3E3E3" height="40.7531" rx="2.25" ry="2.25" style="stroke:#181818;stroke-width:0.45;" width="127.8" x="1448.55" y="63.9"/><text fill="#000000" font-family="sans-serif" font-size="12.6" lengthAdjust="spacing" textLength="115.2" x="1454.85" y="81.6064">businessRepository:</text><text fill="#000000" font-family="sans-serif" font-size="12.6" lengthAdjust="spacing" textLength="112.5" x="1456.2" y="95.683">BusinessRepository</text><rect fill="#E3E3E3" height="40.7531" rx="2.25" ry="2.25" style="stroke:#181818;stroke-width:0.45;" width="127.8" x="1448.55" y="1669.1555"/><text fill="#000000" font-family="sans-serif" font-size="12.6" lengthAdjust="spacing" textLength="115.2" x="1454.85" y="1686.8619">businessRepository:</text><text fill="#000000" font-family="sans-serif" font-size="12.6" lengthAdjust="spacing" textLength="112.5" x="1456.2" y="1700.9385">BusinessRepository</text><rect fill="#E3E3E3" height="40.7531" rx="2.25" ry="2.25" style="stroke:#181818;stroke-width:0.45;" width="123.3" x="1585.35" y="63.9"/><text fill="#000000" font-family="sans-serif" font-size="12.6" lengthAdjust="spacing" textLength="110.7" x="1591.65" y="81.6064">addressRepository:</text><text fill="#000000" font-family="sans-serif" font-size="12.6" lengthAdjust="spacing" textLength="108" x="1593" y="95.683">AddressRepository</text><rect fill="#E3E3E3" height="40.7531" rx="2.25" ry="2.25" style="stroke:#181818;stroke-width:0.45;" width="123.3" x="1585.35" y="1669.1555"/><text fill="#000000" font-family="sans-serif" font-size="12.6" lengthAdjust="spacing" textLength="110.7" x="1591.65" y="1686.8619">addressRepository:</text><text fill="#000000" font-family="sans-serif" font-size="12.6" lengthAdjust="spacing" textLength="108" x="1593" y="1700.9385">AddressRepository</text><rect fill="#FFFFFF" height="1539.3023" style="stroke:#181818;stroke-width:0.9;" width="9" x="43.65" y="114.5531"/><rect fill="#FFFFFF" height="1520.8313" style="stroke:#181818;stroke-width:0.9;" width="9" x="589.95" y="133.0242"/><rect fill="#FFFFFF" height="181.6031" style="stroke:#181818;stroke-width:0.9;" width="9" x="779.85" y="167.6953"/><rect fill="#FFFFFF" height="128.3555" style="stroke:#181818;stroke-width:0.9;" width="9" x="779.85" y="439.3828"/><rect fill="#FFFFFF" height="128.3555" style="stroke:#181818;stroke-width:0.9;" width="9" x="779.85" y="696.5648"/><rect fill="#FFFFFF" height="128.3555" style="stroke:#181818;stroke-width:0.9;" width="9" x="779.85" y="1228.4578"/><rect fill="#FFFFFF" height="25.6711" style="stroke:#181818;stroke-width:0.9;" width="9" x="911.7" y="195.2719"/><rect fill="#FFFFFF" height="25.6711" style="stroke:#181818;stroke-width:0.9;" width="9" x="1023.75" y="297.9563"/><rect fill="#FFFFFF" height="25.6711" style="stroke:#181818;stroke-width:0.9;" width="9" x="1150.2" y="516.3961"/><rect fill="#FFFFFF" height="25.6711" style="stroke:#181818;stroke-width:0.9;" width="9" x="1259.1" y="246.6141"/><rect fill="#FFFFFF" height="25.6711" style="stroke:#181818;stroke-width:0.9;" width="9" x="1259.1" y="465.0539"/><rect fill="#FFFFFF" height="25.6711" style="stroke:#181818;stroke-width:0.9;" width="9" x="1259.1" y="722.2359"/><rect fill="#FFFFFF" height="25.6711" style="stroke:#181818;stroke-width:0.9;" width="9" x="1259.1" y="1254.1289"/><rect fill="#FFFFFF" height="25.6711" style="stroke:#181818;stroke-width:0.9;" width="9" x="1372.5" y="773.5781"/><rect fill="#FFFFFF" height="25.6711" style="stroke:#181818;stroke-width:0.9;" width="9" x="1507.95" y="1305.4711"/><polygon fill="#181818" points="579.15,129.4242,588.15,133.0242,579.15,136.6242,582.75,133.0242" style="stroke:#181818;stroke-width:0.9;"/><line style="stroke:#181818;stroke-width:0.9;" x1="52.65" x2="584.55" y1="133.0242" y2="133.0242"/><text fill="#000000" font-family="sans-serif" font-size="11.7" font-weight="bold" lengthAdjust="spacing" textLength="6.3" x="58.95" y="128.7448">1</text><text fill="#000000" font-family="sans-serif" font-size="11.7" lengthAdjust="spacing" textLength="151.2" x="68.85" y="128.7448">asks to create a new request</text><polygon fill="#181818" points="694.35,155.0953,703.35,158.6953,694.35,162.2953,697.95,158.6953" style="stroke:#181818;stroke-width:0.9;"/><line style="stroke:#181818;stroke-width:0.9;" x1="598.95" x2="699.75" y1="158.6953" y2="158.6953"/><text fill="#000000" font-family="sans-serif" font-size="11.7" font-weight="bold" lengthAdjust="spacing" textLength="6.3" x="605.25" y="154.4159">2</text><text fill="#000000" font-family="sans-serif" font-size="11.7" lengthAdjust="spacing" textLength="74.7" x="615.15" y="154.4159">getAgencyList</text><rect fill="#E3E3E3" height="26.6766" rx="2.25" ry="2.25" style="stroke:#181818;stroke-width:0.45;" width="158.4" x="705.15" y="140.2242"/><text fill="#000000" font-family="sans-serif" font-size="12.6" lengthAdjust="spacing" textLength="145.8" x="711.45" y="157.9307">:CreateRequestController</text><polygon fill="#181818" points="900.9,191.6719,909.9,195.2719,900.9,198.8719,904.5,195.2719" style="stroke:#181818;stroke-width:0.9;"/><line style="stroke:#181818;stroke-width:0.9;" x1="788.85" x2="906.3" y1="195.2719" y2="195.2719"/><text fill="#000000" font-family="sans-serif" font-size="11.7" font-weight="bold" lengthAdjust="spacing" textLength="6.3" x="795.15" y="190.9925">3</text><text fill="#000000" font-family="sans-serif" font-size="11.7" lengthAdjust="spacing" textLength="67.5" x="805.05" y="190.9925">getInstance()</text><polygon fill="#181818" points="798.75,217.343,789.75,220.943,798.75,224.543,795.15,220.943" style="stroke:#181818;stroke-width:0.9;"/><line style="stroke:#181818;stroke-width:0.9;stroke-dasharray:2.0,2.0;" x1="793.35" x2="915.3" y1="220.943" y2="220.943"/><text fill="#000000" font-family="sans-serif" font-size="11.7" font-weight="bold" lengthAdjust="spacing" textLength="6.3" x="804.15" y="216.6636">4</text><text fill="#000000" font-family="sans-serif" font-size="11.7" lengthAdjust="spacing" textLength="60.3" x="814.05" y="216.6636">repositories</text><polygon fill="#181818" points="1248.3,243.0141,1257.3,246.6141,1248.3,250.2141,1251.9,246.6141" style="stroke:#181818;stroke-width:0.9;"/><line style="stroke:#181818;stroke-width:0.9;" x1="788.85" x2="1253.7" y1="246.6141" y2="246.6141"/><text fill="#000000" font-family="sans-serif" font-size="11.7" font-weight="bold" lengthAdjust="spacing" textLength="6.3" x="795.15" y="242.3347">5</text><text fill="#000000" font-family="sans-serif" font-size="11.7" lengthAdjust="spacing" textLength="118.8" x="805.05" y="242.3347">getAgencyRepository()</text><polygon fill="#181818" points="798.75,268.6852,789.75,272.2852,798.75,275.8852,795.15,272.2852" style="stroke:#181818;stroke-width:0.9;"/><line style="stroke:#181818;stroke-width:0.9;stroke-dasharray:2.0,2.0;" x1="793.35" x2="1262.7" y1="272.2852" y2="272.2852"/><text fill="#000000" font-family="sans-serif" font-size="11.7" font-weight="bold" lengthAdjust="spacing" textLength="6.3" x="804.15" y="268.0058">6</text><text fill="#000000" font-family="sans-serif" font-size="11.7" lengthAdjust="spacing" textLength="93.6" x="814.05" y="268.0058">agencyRepository</text><polygon fill="#181818" points="1012.95,294.3563,1021.95,297.9563,1012.95,301.5563,1016.55,297.9563" style="stroke:#181818;stroke-width:0.9;"/><line style="stroke:#181818;stroke-width:0.9;" x1="788.85" x2="1018.35" y1="297.9563" y2="297.9563"/><text fill="#000000" font-family="sans-serif" font-size="11.7" font-weight="bold" lengthAdjust="spacing" textLength="6.3" x="795.15" y="293.6769">7</text><text fill="#000000" font-family="sans-serif" font-size="11.7" lengthAdjust="spacing" textLength="72" x="805.05" y="293.6769">getAgencies()</text><polygon fill="#181818" points="798.75,320.0273,789.75,323.6273,798.75,327.2273,795.15,323.6273" style="stroke:#181818;stroke-width:0.9;"/><line style="stroke:#181818;stroke-width:0.9;stroke-dasharray:2.0,2.0;" x1="793.35" x2="1027.35" y1="323.6273" y2="323.6273"/><text fill="#000000" font-family="sans-serif" font-size="11.7" font-weight="bold" lengthAdjust="spacing" textLength="6.3" x="804.15" y="319.3479">8</text><text fill="#000000" font-family="sans-serif" font-size="11.7" lengthAdjust="spacing" textLength="56.7" x="814.05" y="319.3479">agencyList</text><polygon fill="#181818" points="608.85,345.6984,599.85,349.2984,608.85,352.8984,605.25,349.2984" style="stroke:#181818;stroke-width:0.9;"/><line style="stroke:#181818;stroke-width:0.9;stroke-dasharray:2.0,2.0;" x1="603.45" x2="783.45" y1="349.2984" y2="349.2984"/><text fill="#000000" font-family="sans-serif" font-size="11.7" font-weight="bold" lengthAdjust="spacing" textLength="6.3" x="614.25" y="345.019">9</text><text fill="#000000" font-family="sans-serif" font-size="11.7" lengthAdjust="spacing" textLength="56.7" x="624.15" y="345.019">agencyList</text><polygon fill="#181818" points="62.55,384.4406,53.55,388.0406,62.55,391.6406,58.95,388.0406" style="stroke:#181818;stroke-width:0.9;"/><line style="stroke:#181818;stroke-width:0.9;stroke-dasharray:2.0,2.0;" x1="57.15" x2="589.05" y1="388.0406" y2="388.0406"/><text fill="#000000" font-family="sans-serif" font-size="11.7" font-weight="bold" lengthAdjust="spacing" textLength="12.6" x="67.95" y="377.2257">10</text><text fill="#000000" font-family="sans-serif" font-size="11.7" lengthAdjust="spacing" textLength="93.6" x="84.15" y="370.6901">shows agency list</text><text fill="#000000" font-family="sans-serif" font-size="11.7" lengthAdjust="spacing" textLength="118.8" x="87.75" y="383.7612">and asks to select one</text><polygon fill="#181818" points="579.15,410.1117,588.15,413.7117,579.15,417.3117,582.75,413.7117" style="stroke:#181818;stroke-width:0.9;"/><line style="stroke:#181818;stroke-width:0.9;" x1="52.65" x2="584.55" y1="413.7117" y2="413.7117"/><text fill="#000000" font-family="sans-serif" font-size="11.7" font-weight="bold" lengthAdjust="spacing" textLength="12.6" x="58.95" y="409.4323">11</text><text fill="#000000" font-family="sans-serif" font-size="11.7" lengthAdjust="spacing" textLength="95.4" x="75.15" y="409.4323">selects an agency</text><polygon fill="#181818" points="769.05,435.7828,778.05,439.3828,769.05,442.9828,772.65,439.3828" style="stroke:#181818;stroke-width:0.9;"/><line style="stroke:#181818;stroke-width:0.9;" x1="598.95" x2="774.45" y1="439.3828" y2="439.3828"/><text fill="#000000" font-family="sans-serif" font-size="11.7" font-weight="bold" lengthAdjust="spacing" textLength="12.6" x="605.25" y="435.1034">12</text><text fill="#000000" font-family="sans-serif" font-size="11.7" lengthAdjust="spacing" textLength="79.2" x="621.45" y="435.1034">getAgentsList()</text><polygon fill="#181818" points="1248.3,461.4539,1257.3,465.0539,1248.3,468.6539,1251.9,465.0539" style="stroke:#181818;stroke-width:0.9;"/><line style="stroke:#181818;stroke-width:0.9;" x1="788.85" x2="1253.7" y1="465.0539" y2="465.0539"/><text fill="#000000" font-family="sans-serif" font-size="11.7" font-weight="bold" lengthAdjust="spacing" textLength="12.6" x="795.15" y="460.7745">13</text><text fill="#000000" font-family="sans-serif" font-size="11.7" lengthAdjust="spacing" textLength="116.1" x="811.35" y="460.7745">getAgentsRepository()</text><polygon fill="#181818" points="798.75,487.125,789.75,490.725,798.75,494.325,795.15,490.725" style="stroke:#181818;stroke-width:0.9;"/><line style="stroke:#181818;stroke-width:0.9;stroke-dasharray:2.0,2.0;" x1="793.35" x2="1262.7" y1="490.725" y2="490.725"/><text fill="#000000" font-family="sans-serif" font-size="11.7" font-weight="bold" lengthAdjust="spacing" textLength="12.6" x="804.15" y="486.4456">14</text><text fill="#000000" font-family="sans-serif" font-size="11.7" lengthAdjust="spacing" textLength="90.9" x="820.35" y="486.4456">agentsRepository</text><polygon fill="#181818" points="1139.4,512.7961,1148.4,516.3961,1139.4,519.9961,1143,516.3961" style="stroke:#181818;stroke-width:0.9;"/><line style="stroke:#181818;stroke-width:0.9;" x1="788.85" x2="1144.8" y1="516.3961" y2="516.3961"/><text fill="#000000" font-family="sans-serif" font-size="11.7" font-weight="bold" lengthAdjust="spacing" textLength="12.6" x="795.15" y="512.1167">15</text><text fill="#000000" font-family="sans-serif" font-size="11.7" lengthAdjust="spacing" textLength="60.3" x="811.35" y="512.1167">getAgents()</text><polygon fill="#181818" points="798.75,538.4672,789.75,542.0672,798.75,545.6672,795.15,542.0672" style="stroke:#181818;stroke-width:0.9;"/><line style="stroke:#181818;stroke-width:0.9;stroke-dasharray:2.0,2.0;" x1="793.35" x2="1153.8" y1="542.0672" y2="542.0672"/><text fill="#000000" font-family="sans-serif" font-size="11.7" font-weight="bold" lengthAdjust="spacing" textLength="12.6" x="804.15" y="537.7878">16</text><text fill="#000000" font-family="sans-serif" font-size="11.7" lengthAdjust="spacing" textLength="54" x="820.35" y="537.7878">agentsList</text><polygon fill="#181818" points="608.85,564.1383,599.85,567.7383,608.85,571.3383,605.25,567.7383" style="stroke:#181818;stroke-width:0.9;"/><line style="stroke:#181818;stroke-width:0.9;stroke-dasharray:2.0,2.0;" x1="603.45" x2="783.45" y1="567.7383" y2="567.7383"/><text fill="#000000" font-family="sans-serif" font-size="11.7" font-weight="bold" lengthAdjust="spacing" textLength="12.6" x="614.25" y="563.4589">17</text><text fill="#000000" font-family="sans-serif" font-size="11.7" lengthAdjust="spacing" textLength="54" x="630.45" y="563.4589">agentsList</text><polygon fill="#181818" points="62.55,602.8805,53.55,606.4805,62.55,610.0805,58.95,606.4805" style="stroke:#181818;stroke-width:0.9;"/><line style="stroke:#181818;stroke-width:0.9;stroke-dasharray:2.0,2.0;" x1="57.15" x2="589.05" y1="606.4805" y2="606.4805"/><text fill="#000000" font-family="sans-serif" font-size="11.7" font-weight="bold" lengthAdjust="spacing" textLength="12.6" x="67.95" y="595.6655">18</text><text fill="#000000" font-family="sans-serif" font-size="11.7" lengthAdjust="spacing" textLength="94.5" x="84.15" y="589.13">shows agents list,</text><text fill="#000000" font-family="sans-serif" font-size="11.7" lengthAdjust="spacing" textLength="118.8" x="87.75" y="602.2011">and asks to select one</text><polygon fill="#181818" points="579.15,628.5516,588.15,632.1516,579.15,635.7516,582.75,632.1516" style="stroke:#181818;stroke-width:0.9;"/><line style="stroke:#181818;stroke-width:0.9;" x1="52.65" x2="584.55" y1="632.1516" y2="632.1516"/><text fill="#000000" font-family="sans-serif" font-size="11.7" font-weight="bold" lengthAdjust="spacing" textLength="12.6" x="58.95" y="627.8722">19</text><text fill="#000000" font-family="sans-serif" font-size="11.7" lengthAdjust="spacing" textLength="86.4" x="75.15" y="627.8722">selects an agent</text><polygon fill="#181818" points="62.55,667.2938,53.55,670.8938,62.55,674.4938,58.95,670.8938" style="stroke:#181818;stroke-width:0.9;"/><line style="stroke:#181818;stroke-width:0.9;stroke-dasharray:2.0,2.0;" x1="57.15" x2="589.05" y1="670.8938" y2="670.8938"/><text fill="#000000" font-family="sans-serif" font-size="11.7" font-weight="bold" lengthAdjust="spacing" textLength="12.6" x="67.95" y="660.0788">20</text><text fill="#000000" font-family="sans-serif" font-size="11.7" lengthAdjust="spacing" textLength="117.9" x="84.15" y="653.5433">shows type of property</text><text fill="#000000" font-family="sans-serif" font-size="11.7" lengthAdjust="spacing" textLength="118.8" x="84.15" y="666.6144">and asks to select one</text><polygon fill="#181818" points="769.05,692.9648,778.05,696.5648,769.05,700.1648,772.65,696.5648" style="stroke:#181818;stroke-width:0.9;"/><line style="stroke:#181818;stroke-width:0.9;" x1="598.95" x2="774.45" y1="696.5648" y2="696.5648"/><text fill="#000000" font-family="sans-serif" font-size="11.7" font-weight="bold" lengthAdjust="spacing" textLength="12.6" x="605.25" y="692.2854">21</text><text fill="#000000" font-family="sans-serif" font-size="11.7" lengthAdjust="spacing" textLength="117.9" x="621.45" y="692.2854">getPropertyTypesList()</text><polygon fill="#181818" points="1248.3,718.6359,1257.3,722.2359,1248.3,725.8359,1251.9,722.2359" style="stroke:#181818;stroke-width:0.9;"/><line style="stroke:#181818;stroke-width:0.9;" x1="788.85" x2="1253.7" y1="722.2359" y2="722.2359"/><text fill="#000000" font-family="sans-serif" font-size="11.7" font-weight="bold" lengthAdjust="spacing" textLength="12.6" x="795.15" y="717.9565">22</text><text fill="#000000" font-family="sans-serif" font-size="11.7" lengthAdjust="spacing" textLength="173.7" x="811.35" y="717.9565">getPropertyTypesListRepository()</text><polygon fill="#181818" points="798.75,744.307,789.75,747.907,798.75,751.507,795.15,747.907" style="stroke:#181818;stroke-width:0.9;"/><line style="stroke:#181818;stroke-width:0.9;stroke-dasharray:2.0,2.0;" x1="793.35" x2="1262.7" y1="747.907" y2="747.907"/><text fill="#000000" font-family="sans-serif" font-size="11.7" font-weight="bold" lengthAdjust="spacing" textLength="12.6" x="804.15" y="743.6276">23</text><text fill="#000000" font-family="sans-serif" font-size="11.7" lengthAdjust="spacing" textLength="129.6" x="820.35" y="743.6276">propertyTypesRepository</text><polygon fill="#181818" points="1361.7,769.9781,1370.7,773.5781,1361.7,777.1781,1365.3,773.5781" style="stroke:#181818;stroke-width:0.9;"/><line style="stroke:#181818;stroke-width:0.9;" x1="788.85" x2="1367.1" y1="773.5781" y2="773.5781"/><text fill="#000000" font-family="sans-serif" font-size="11.7" font-weight="bold" lengthAdjust="spacing" textLength="12.6" x="795.15" y="769.2987">24</text><text fill="#000000" font-family="sans-serif" font-size="11.7" lengthAdjust="spacing" textLength="99" x="811.35" y="769.2987">getPropertyTypes()</text><polygon fill="#181818" points="798.75,795.6492,789.75,799.2492,798.75,802.8492,795.15,799.2492" style="stroke:#181818;stroke-width:0.9;"/><line style="stroke:#181818;stroke-width:0.9;stroke-dasharray:2.0,2.0;" x1="793.35" x2="1376.1" y1="799.2492" y2="799.2492"/><text fill="#000000" font-family="sans-serif" font-size="11.7" font-weight="bold" lengthAdjust="spacing" textLength="12.6" x="804.15" y="794.9698">25</text><text fill="#000000" font-family="sans-serif" font-size="11.7" lengthAdjust="spacing" textLength="92.7" x="820.35" y="794.9698">propertyTypesList</text><polygon fill="#181818" points="608.85,821.3203,599.85,824.9203,608.85,828.5203,605.25,824.9203" style="stroke:#181818;stroke-width:0.9;"/><line style="stroke:#181818;stroke-width:0.9;stroke-dasharray:2.0,2.0;" x1="603.45" x2="783.45" y1="824.9203" y2="824.9203"/><text fill="#000000" font-family="sans-serif" font-size="11.7" font-weight="bold" lengthAdjust="spacing" textLength="12.6" x="614.25" y="820.6409">26</text><text fill="#000000" font-family="sans-serif" font-size="11.7" lengthAdjust="spacing" textLength="92.7" x="630.45" y="820.6409">propertyTypesList</text><polygon fill="#181818" points="579.15,846.9914,588.15,850.5914,579.15,854.1914,582.75,850.5914" style="stroke:#181818;stroke-width:0.9;"/><line style="stroke:#181818;stroke-width:0.9;" x1="52.65" x2="584.55" y1="850.5914" y2="850.5914"/><text fill="#000000" font-family="sans-serif" font-size="11.7" font-weight="bold" lengthAdjust="spacing" textLength="12.6" x="58.95" y="846.312">27</text><text fill="#000000" font-family="sans-serif" font-size="11.7" lengthAdjust="spacing" textLength="142.2" x="75.15" y="846.312">selects the type of property</text><polygon fill="#181818" points="773.55,872.6625,782.55,876.2625,773.55,879.8625,777.15,876.2625" style="stroke:#181818;stroke-width:0.9;"/><line style="stroke:#181818;stroke-width:0.9;" x1="598.95" x2="778.95" y1="876.2625" y2="876.2625"/><text fill="#000000" font-family="sans-serif" font-size="11.7" font-weight="bold" lengthAdjust="spacing" textLength="12.6" x="605.25" y="871.9831">28</text><text fill="#000000" font-family="sans-serif" font-size="11.7" lengthAdjust="spacing" textLength="16.2" x="621.45" y="871.9831">set</text><polygon fill="#181818" points="62.55,898.3336,53.55,901.9336,62.55,905.5336,58.95,901.9336" style="stroke:#181818;stroke-width:0.9;"/><line style="stroke:#181818;stroke-width:0.9;stroke-dasharray:2.0,2.0;" x1="57.15" x2="589.05" y1="901.9336" y2="901.9336"/><text fill="#000000" font-family="sans-serif" font-size="11.7" font-weight="bold" lengthAdjust="spacing" textLength="12.6" x="67.95" y="897.6542">29</text><text fill="#000000" font-family="sans-serif" font-size="11.7" lengthAdjust="spacing" textLength="335.7" x="84.15" y="897.6542">requests data (area(m^2), location, distance from the city centre)</text><polygon fill="#181818" points="579.15,924.0047,588.15,927.6047,579.15,931.2047,582.75,927.6047" style="stroke:#181818;stroke-width:0.9;"/><line style="stroke:#181818;stroke-width:0.9;" x1="52.65" x2="584.55" y1="927.6047" y2="927.6047"/><text fill="#000000" font-family="sans-serif" font-size="11.7" font-weight="bold" lengthAdjust="spacing" textLength="12.6" x="58.95" y="923.3253">30</text><text fill="#000000" font-family="sans-serif" font-size="11.7" lengthAdjust="spacing" textLength="61.2" x="75.15" y="923.3253">inserts data</text><polygon fill="#181818" points="62.55,949.6758,53.55,953.2758,62.55,956.8758,58.95,953.2758" style="stroke:#181818;stroke-width:0.9;"/><line style="stroke:#181818;stroke-width:0.9;stroke-dasharray:2.0,2.0;" x1="57.15" x2="589.05" y1="953.2758" y2="953.2758"/><text fill="#000000" font-family="sans-serif" font-size="11.7" font-weight="bold" lengthAdjust="spacing" textLength="12.6" x="67.95" y="948.9964">31</text><text fill="#000000" font-family="sans-serif" font-size="11.7" lengthAdjust="spacing" textLength="126" x="84.15" y="948.9964">asks for property photos</text><path d="M18,966.7758 L83.7,966.7758 L83.7,972.6469 L74.7,981.6469 L18,981.6469 L18,966.7758 " fill="#EEEEEE" style="stroke:#000000;stroke-width:1.35;"/><rect fill="none" height="40.5422" style="stroke:#000000;stroke-width:1.35;" width="642.15" x="18" y="966.7758"/><text fill="#000000" font-family="sans-serif" font-size="11.7" font-weight="bold" lengthAdjust="spacing" textLength="25.2" x="31.5" y="978.2675">loop</text><text fill="#000000" font-family="sans-serif" font-size="9.9" font-weight="bold" lengthAdjust="spacing" textLength="195.3" x="97.2" y="977.538">[at least 1 photo and at most 30 photos]</text><polygon fill="#181818" points="579.15,996.518,588.15,1000.118,579.15,1003.718,582.75,1000.118" style="stroke:#181818;stroke-width:0.9;"/><line style="stroke:#181818;stroke-width:0.9;" x1="52.65" x2="584.55" y1="1000.118" y2="1000.118"/><text fill="#000000" font-family="sans-serif" font-size="11.7" font-weight="bold" lengthAdjust="spacing" textLength="12.6" x="58.95" y="995.8386">32</text><text fill="#000000" font-family="sans-serif" font-size="11.7" lengthAdjust="spacing" textLength="149.4" x="75.15" y="995.8386">inserts property photos (URI)</text><path d="M9,1019.918 L67.5,1019.918 L67.5,1025.7891 L58.5,1034.7891 L9,1034.7891 L9,1019.918 " fill="#EEEEEE" style="stroke:#000000;stroke-width:1.35;"/><rect fill="none" height="158.0977" style="stroke:#000000;stroke-width:1.35;" width="660.15" x="9" y="1019.918"/><text fill="#000000" font-family="sans-serif" font-size="11.7" font-weight="bold" lengthAdjust="spacing" textLength="18" x="22.5" y="1031.4097">opt</text><text fill="#000000" font-family="sans-serif" font-size="9.9" font-weight="bold" lengthAdjust="spacing" textLength="165.6" x="81" y="1030.6802">[Property is Apartment or House]</text><polygon fill="#181818" points="62.55,1062.7313,53.55,1066.3313,62.55,1069.9313,58.95,1066.3313" style="stroke:#181818;stroke-width:0.9;"/><line style="stroke:#181818;stroke-width:0.9;stroke-dasharray:2.0,2.0;" x1="57.15" x2="589.05" y1="1066.3313" y2="1066.3313"/><text fill="#000000" font-family="sans-serif" font-size="11.7" font-weight="bold" lengthAdjust="spacing" textLength="12.6" x="67.95" y="1055.5163">33</text><text fill="#000000" font-family="sans-serif" font-size="11.7" lengthAdjust="spacing" textLength="305.1" x="84.15" y="1048.9808">requests data (number of bedrooms, number of bathrooms,</text><text fill="#000000" font-family="sans-serif" font-size="11.7" lengthAdjust="spacing" textLength="265.5" x="84.15" y="1062.0519">number of parking spaces and available equipment)</text><polygon fill="#181818" points="579.15,1088.4023,588.15,1092.0023,579.15,1095.6023,582.75,1092.0023" style="stroke:#181818;stroke-width:0.9;"/><line style="stroke:#181818;stroke-width:0.9;" x1="52.65" x2="584.55" y1="1092.0023" y2="1092.0023"/><text fill="#000000" font-family="sans-serif" font-size="11.7" font-weight="bold" lengthAdjust="spacing" textLength="12.6" x="58.95" y="1087.7229">34</text><text fill="#000000" font-family="sans-serif" font-size="11.7" lengthAdjust="spacing" textLength="61.2" x="75.15" y="1087.7229">inserts data</text><path d="M18,1105.5023 L76.5,1105.5023 L76.5,1111.3734 L67.5,1120.3734 L18,1120.3734 L18,1105.5023 " fill="#EEEEEE" style="stroke:#000000;stroke-width:1.35;"/><rect fill="none" height="66.2133" style="stroke:#000000;stroke-width:1.35;" width="642.15" x="18" y="1105.5023"/><text fill="#000000" font-family="sans-serif" font-size="11.7" font-weight="bold" lengthAdjust="spacing" textLength="18" x="31.5" y="1116.994">opt</text><text fill="#000000" font-family="sans-serif" font-size="9.9" font-weight="bold" lengthAdjust="spacing" textLength="104.4" x="90" y="1116.2646">[Property is a House]</text><polygon fill="#181818" points="62.55,1135.2445,53.55,1138.8445,62.55,1142.4445,58.95,1138.8445" style="stroke:#181818;stroke-width:0.9;"/><line style="stroke:#181818;stroke-width:0.9;stroke-dasharray:2.0,2.0;" x1="57.15" x2="589.05" y1="1138.8445" y2="1138.8445"/><text fill="#000000" font-family="sans-serif" font-size="11.7" font-weight="bold" lengthAdjust="spacing" textLength="12.6" x="67.95" y="1134.5651">35</text><text fill="#000000" font-family="sans-serif" font-size="11.7" lengthAdjust="spacing" textLength="420.3" x="84.15" y="1134.5651">requests data (existence of a basement and/or inhabitable loft and sun exposure)</text><polygon fill="#181818" points="579.15,1160.9156,588.15,1164.5156,579.15,1168.1156,582.75,1164.5156" style="stroke:#181818;stroke-width:0.9;"/><line style="stroke:#181818;stroke-width:0.9;" x1="52.65" x2="584.55" y1="1164.5156" y2="1164.5156"/><text fill="#000000" font-family="sans-serif" font-size="11.7" font-weight="bold" lengthAdjust="spacing" textLength="12.6" x="58.95" y="1160.2362">36</text><text fill="#000000" font-family="sans-serif" font-size="11.7" lengthAdjust="spacing" textLength="61.2" x="75.15" y="1160.2362">inserts data</text><polygon fill="#181818" points="62.55,1199.1867,53.55,1202.7867,62.55,1206.3867,58.95,1202.7867" style="stroke:#181818;stroke-width:0.9;"/><line style="stroke:#181818;stroke-width:0.9;stroke-dasharray:2.0,2.0;" x1="57.15" x2="589.05" y1="1202.7867" y2="1202.7867"/><text fill="#000000" font-family="sans-serif" font-size="11.7" font-weight="bold" lengthAdjust="spacing" textLength="12.6" x="67.95" y="1198.5073">37</text><text fill="#000000" font-family="sans-serif" font-size="11.7" lengthAdjust="spacing" textLength="284.4" x="84.15" y="1198.5073">shows the type of operation list and asks to select one</text><polygon fill="#181818" points="769.05,1224.8578,778.05,1228.4578,769.05,1232.0578,772.65,1228.4578" style="stroke:#181818;stroke-width:0.9;"/><line style="stroke:#181818;stroke-width:0.9;" x1="598.95" x2="774.45" y1="1228.4578" y2="1228.4578"/><text fill="#000000" font-family="sans-serif" font-size="11.7" font-weight="bold" lengthAdjust="spacing" textLength="12.6" x="605.25" y="1224.1784">38</text><text fill="#000000" font-family="sans-serif" font-size="11.7" lengthAdjust="spacing" textLength="135.9" x="621.45" y="1224.1784">getTypesOfOperationList()</text><polygon fill="#181818" points="1248.3,1250.5289,1257.3,1254.1289,1248.3,1257.7289,1251.9,1254.1289" style="stroke:#181818;stroke-width:0.9;"/><line style="stroke:#181818;stroke-width:0.9;" x1="788.85" x2="1253.7" y1="1254.1289" y2="1254.1289"/><text fill="#000000" font-family="sans-serif" font-size="11.7" font-weight="bold" lengthAdjust="spacing" textLength="12.6" x="795.15" y="1249.8495">39</text><text fill="#000000" font-family="sans-serif" font-size="11.7" lengthAdjust="spacing" textLength="172.8" x="811.35" y="1249.8495">getTypesOfOperationRepository()</text><polygon fill="#181818" points="798.75,1276.2,789.75,1279.8,798.75,1283.4,795.15,1279.8" style="stroke:#181818;stroke-width:0.9;"/><line style="stroke:#181818;stroke-width:0.9;stroke-dasharray:2.0,2.0;" x1="793.35" x2="1262.7" y1="1279.8" y2="1279.8"/><text fill="#000000" font-family="sans-serif" font-size="11.7" font-weight="bold" lengthAdjust="spacing" textLength="12.6" x="804.15" y="1275.5206">40</text><text fill="#000000" font-family="sans-serif" font-size="11.7" lengthAdjust="spacing" textLength="146.7" x="820.35" y="1275.5206">typesOfOperationRepository</text><polygon fill="#181818" points="1497.15,1301.8711,1506.15,1305.4711,1497.15,1309.0711,1500.75,1305.4711" style="stroke:#181818;stroke-width:0.9;"/><line style="stroke:#181818;stroke-width:0.9;" x1="788.85" x2="1502.55" y1="1305.4711" y2="1305.4711"/><text fill="#000000" font-family="sans-serif" font-size="11.7" font-weight="bold" lengthAdjust="spacing" textLength="12.6" x="795.15" y="1301.1917">41</text><text fill="#000000" font-family="sans-serif" font-size="11.7" lengthAdjust="spacing" textLength="117" x="811.35" y="1301.1917">getTypesOfOperation()</text><polygon fill="#181818" points="798.75,1327.5422,789.75,1331.1422,798.75,1334.7422,795.15,1331.1422" style="stroke:#181818;stroke-width:0.9;"/><line style="stroke:#181818;stroke-width:0.9;stroke-dasharray:2.0,2.0;" x1="793.35" x2="1511.55" y1="1331.1422" y2="1331.1422"/><text fill="#000000" font-family="sans-serif" font-size="11.7" font-weight="bold" lengthAdjust="spacing" textLength="12.6" x="804.15" y="1326.8628">42</text><text fill="#000000" font-family="sans-serif" font-size="11.7" lengthAdjust="spacing" textLength="109.8" x="820.35" y="1326.8628">typesOfOperationList</text><polygon fill="#181818" points="608.85,1353.2133,599.85,1356.8133,608.85,1360.4133,605.25,1356.8133" style="stroke:#181818;stroke-width:0.9;"/><line style="stroke:#181818;stroke-width:0.9;stroke-dasharray:2.0,2.0;" x1="603.45" x2="783.45" y1="1356.8133" y2="1356.8133"/><text fill="#000000" font-family="sans-serif" font-size="11.7" font-weight="bold" lengthAdjust="spacing" textLength="12.6" x="614.25" y="1352.5339">43</text><text fill="#000000" font-family="sans-serif" font-size="11.7" lengthAdjust="spacing" textLength="103.5" x="630.45" y="1352.5339">typeOfOperationList</text><polygon fill="#181818" points="579.15,1378.8844,588.15,1382.4844,579.15,1386.0844,582.75,1382.4844" style="stroke:#181818;stroke-width:0.9;"/><line style="stroke:#181818;stroke-width:0.9;" x1="52.65" x2="584.55" y1="1382.4844" y2="1382.4844"/><text fill="#000000" font-family="sans-serif" font-size="11.7" font-weight="bold" lengthAdjust="spacing" textLength="12.6" x="58.95" y="1378.205">44</text><text fill="#000000" font-family="sans-serif" font-size="11.7" lengthAdjust="spacing" textLength="125.1" x="75.15" y="1378.205">inserts type of operation</text><path d="M18,1395.9844 L72.9,1395.9844 L72.9,1401.8555 L63.9,1410.8555 L18,1410.8555 L18,1395.9844 " fill="#EEEEEE" style="stroke:#000000;stroke-width:1.35;"/><rect fill="none" height="130.4156" style="stroke:#000000;stroke-width:1.35;" width="642.15" x="18" y="1395.9844"/><text fill="#000000" font-family="sans-serif" font-size="11.7" font-weight="bold" lengthAdjust="spacing" textLength="14.4" x="31.5" y="1407.4761">alt</text><text fill="#000000" font-family="sans-serif" font-size="9.9" font-weight="bold" lengthAdjust="spacing" textLength="189" x="86.4" y="1406.7466">[the owner intends to rent a property]</text><polygon fill="#181818" points="62.55,1425.7266,53.55,1429.3266,62.55,1432.9266,58.95,1429.3266" style="stroke:#181818;stroke-width:0.9;"/><line style="stroke:#181818;stroke-width:0.9;stroke-dasharray:2.0,2.0;" x1="57.15" x2="589.05" y1="1429.3266" y2="1429.3266"/><text fill="#000000" font-family="sans-serif" font-size="11.7" font-weight="bold" lengthAdjust="spacing" textLength="12.6" x="67.95" y="1425.0472">45</text><text fill="#000000" font-family="sans-serif" font-size="11.7" lengthAdjust="spacing" textLength="286.2" x="84.15" y="1425.0472">asks for the contract duration and the price (per month)</text><polygon fill="#181818" points="579.15,1451.3977,588.15,1454.9977,579.15,1458.5977,582.75,1454.9977" style="stroke:#181818;stroke-width:0.9;"/><line style="stroke:#181818;stroke-width:0.9;" x1="52.65" x2="584.55" y1="1454.9977" y2="1454.9977"/><text fill="#000000" font-family="sans-serif" font-size="11.7" font-weight="bold" lengthAdjust="spacing" textLength="12.6" x="58.95" y="1450.7183">46</text><text fill="#000000" font-family="sans-serif" font-size="11.7" lengthAdjust="spacing" textLength="67.5" x="75.15" y="1450.7183">submits data</text><line style="stroke:#000000;stroke-width:0.9;stroke-dasharray:2.0,2.0;" x1="18" x2="660.15" y1="1463.0977" y2="1463.0977"/><text fill="#000000" font-family="sans-serif" font-size="9.9" font-weight="bold" lengthAdjust="spacing" textLength="186.3" x="22.5" y="1472.0599">[the owner intends to sell a property]</text><polygon fill="#181818" points="62.55,1489.9289,53.55,1493.5289,62.55,1497.1289,58.95,1493.5289" style="stroke:#181818;stroke-width:0.9;"/><line style="stroke:#181818;stroke-width:0.9;stroke-dasharray:2.0,2.0;" x1="57.15" x2="589.05" y1="1493.5289" y2="1493.5289"/><text fill="#000000" font-family="sans-serif" font-size="11.7" font-weight="bold" lengthAdjust="spacing" textLength="12.6" x="67.95" y="1489.2495">47</text><text fill="#000000" font-family="sans-serif" font-size="11.7" lengthAdjust="spacing" textLength="135.9" x="84.15" y="1489.2495">asks for the property price</text><polygon fill="#181818" points="579.15,1515.6,588.15,1519.2,579.15,1522.8,582.75,1519.2" style="stroke:#181818;stroke-width:0.9;"/><line style="stroke:#181818;stroke-width:0.9;" x1="52.65" x2="584.55" y1="1519.2" y2="1519.2"/><text fill="#000000" font-family="sans-serif" font-size="11.7" font-weight="bold" lengthAdjust="spacing" textLength="12.6" x="58.95" y="1514.9206">48</text><text fill="#000000" font-family="sans-serif" font-size="11.7" lengthAdjust="spacing" textLength="67.5" x="75.15" y="1514.9206">submits data</text><polygon fill="#181818" points="62.55,1547.5711,53.55,1551.1711,62.55,1554.7711,58.95,1551.1711" style="stroke:#181818;stroke-width:0.9;"/><line style="stroke:#181818;stroke-width:0.9;stroke-dasharray:2.0,2.0;" x1="57.15" x2="589.05" y1="1551.1711" y2="1551.1711"/><text fill="#000000" font-family="sans-serif" font-size="11.7" font-weight="bold" lengthAdjust="spacing" textLength="12.6" x="67.95" y="1546.8917">49</text><text fill="#000000" font-family="sans-serif" font-size="11.7" lengthAdjust="spacing" textLength="499.5" x="84.15" y="1546.8917">requests data (name, passport number, tax number, address, email address, telephone number)</text><polygon fill="#181818" points="579.15,1573.2422,588.15,1576.8422,579.15,1580.4422,582.75,1576.8422" style="stroke:#181818;stroke-width:0.9;"/><line style="stroke:#181818;stroke-width:0.9;" x1="52.65" x2="584.55" y1="1576.8422" y2="1576.8422"/><text fill="#000000" font-family="sans-serif" font-size="11.7" font-weight="bold" lengthAdjust="spacing" textLength="12.6" x="58.95" y="1572.5628">50</text><text fill="#000000" font-family="sans-serif" font-size="11.7" lengthAdjust="spacing" textLength="61.2" x="75.15" y="1572.5628">Inserts data</text><polygon fill="#181818" points="62.55,1598.9133,53.55,1602.5133,62.55,1606.1133,58.95,1602.5133" style="stroke:#181818;stroke-width:0.9;"/><line style="stroke:#181818;stroke-width:0.9;stroke-dasharray:2.0,2.0;" x1="57.15" x2="589.05" y1="1602.5133" y2="1602.5133"/><text fill="#000000" font-family="sans-serif" font-size="11.7" font-weight="bold" lengthAdjust="spacing" textLength="12.6" x="67.95" y="1598.2339">51</text><text fill="#000000" font-family="sans-serif" font-size="11.7" lengthAdjust="spacing" textLength="402.3" x="84.15" y="1598.2339">shows requested data, selected property movement and asks for confirmation</text><polygon fill="#181818" points="579.15,1624.5844,588.15,1628.1844,579.15,1631.7844,582.75,1628.1844" style="stroke:#181818;stroke-width:0.9;"/><line style="stroke:#181818;stroke-width:0.9;" x1="52.65" x2="584.55" y1="1628.1844" y2="1628.1844"/><text fill="#000000" font-family="sans-serif" font-size="11.7" font-weight="bold" lengthAdjust="spacing" textLength="12.6" x="58.95" y="1623.905">52</text><text fill="#000000" font-family="sans-serif" font-size="11.7" lengthAdjust="spacing" textLength="70.2" x="75.15" y="1623.905">confirms data</text><polygon fill="#181818" points="58.05,1650.2555,49.05,1653.8555,58.05,1657.4555,54.45,1653.8555" style="stroke:#181818;stroke-width:0.9;"/><line style="stroke:#181818;stroke-width:0.9;stroke-dasharray:2.0,2.0;" x1="52.65" x2="593.55" y1="1653.8555" y2="1653.8555"/><text fill="#000000" font-family="sans-serif" font-size="11.7" font-weight="bold" lengthAdjust="spacing" textLength="12.6" x="63.45" y="1649.5761">53</text><text fill="#000000" font-family="sans-serif" font-size="11.7" lengthAdjust="spacing" textLength="132.3" x="79.65" y="1649.5761">shows operation success</text><!--SRC=[hLVBRjiw4DthAmRPr2aSDBtthhmeKAUB6YWGGsbsGG5QecqY4gcIepp-_WufIgQeXmsqMjdKpE4XvyoXQ9w5h9Xc9PHAgkoeLSa1TSqJqxsfMFRC3lm1tmiEccV8vA480yoHvUfLo0FiMM5uah0QbQpB7TS92gIi1_wxvZBZy4smWqrPF7oxXXjuV83Rs_-I3qUHSzWhXJlrbh0CbOQh-rV9zHKm0-vNGdEXo4J59CBLwavpXZork0OVDoxkSJCNTASaQbKK7lJkP_eZ2azvfOoWoGKtBYOSwCVguCtgIGupqtuyxP_CthkmTyhv6WsvF3yuJ4OpI0w7kcHCOw9kyVraALLDrIXjU1yYvbrfLN6DVURRmQ3BtKQvkze8oKsV-7emw7BNyPBpNCUfN-EnPj5fOXKZNgZINYa9-CVzXPilf0nOKV2p0LIGELK00ybVmU_FAQV38ZLrW_OX34AoilduaT0E79jY_H2K7WPs24vYlLVsiQCMATHCWxUHXdehuulhGLA7sPFa8Cm-FTmRJta5eM87UJc_S8AEV1fkmQaaizJJ2S9fG3Dkb5cgwJJ1jfC2chIWENfjwuroRD5Qej0o7LG_uZY9sX3jj3aE5W0DnMG5IVcDo5VamkhLU20e2Eb90fDv9tl32_9kK9BtOVfDqaGHZlHGKqrmsbWqbdUqjJEynpGKUjaKKbpkT52E42L9BbHDIwTnpv3I517liqai41mXD5VICPoXB6OnahyW5wgsbSiI_ePWy899yRtYeFRG7YuqyINpnjfhZw6V1FU74Xn0_QaQgn1mmiqkqEHsZDyKesq4ifrcDATAWfaMvCKempqVbmqU-K0FCsKt7EVqvKzp0pb31Wj69_sY_FNFzH8AbJ4KIYuX5yqf2tlws7NpPu8qc95sDR-Uuooa8NeD-ApCdPBtz17RARmwAbJHULeeLG53A3Wp29-RcAO3aJx7QUpVsz74SLRHNB1uJ3VHShZCasP4LGYjg43GLvJz-hBVWq2ilwlQ1BqtlyVDTxujtuxdMgdIB24OOtZqWq_oD4opFTlxWg6x1JVDcb-OADYEBWk4BohBnRC_LuHuBInUm9aLy3TIXBkT43D6b8txChQiFj5k27baEu6EMg7sRXnCBO6_KLlNdMREqNIRt_inRev1GzWrETKwWvuovp5lTFrvlxzl0G9x76dHs0xZx84R3eohxtuucPzC65_BO3t189vtxVFMi_Ds1XNCkExDs9RBPfv9F6tNUAK7HMk2MO6kfieb2KbAorq5jTDOP7fJHk9iobvWYGxajLU55OHzKsb1wbqGZht6ut5KaQRUbQAlIBgiZtCZTHKXjtFKJjvZcLmuExN1fKOkMScNv1h6L4gZzvSb87lhVliRun9uIKPo-elKAEI8all8qRtPJ3dxQ8jwSZntyKlVY_ItsuPIlNGUSjefAk1Uw38GnxYZ-pXFP-w0dJg3MgOd0p5rHavhOb7RIsxmroN_3m00]--></g></svg>