<?xml version="1.0" encoding="us-ascii" standalone="no"?><svg xmlns="http://www.w3.org/2000/svg" xmlns:xlink="http://www.w3.org/1999/xlink" contentStyleType="text/css" height="1275.2px" preserveAspectRatio="none" style="width:1240px;height:1275px;background:#FFFFFF;" version="1.1" viewBox="0 0 1240 1275" width="1240.8px" zoomAndPan="magnify"><defs/><g><!--class CreateRequestUI--><g id="elem_CreateRequestUI"><rect codeLine="4" fill="#F1F1F1" height="38.4" id="CreateRequestUI" rx="2" ry="2" style="stroke:#181818;stroke-width:0.4000000000000001;" width="112" x="794" y="5.6"/><ellipse cx="806" cy="18.4" fill="#ADD1B2" rx="8.8" ry="8.8" style="stroke:#181818;stroke-width:0.8000000000000002;"/><path d="M808.2125,15.1 Q808.3375,14.925 808.4875,14.8375 Q808.6375,14.75 808.8125,14.75 Q809.1125,14.75 809.3,14.9625 Q809.4875,15.1625 809.4875,15.65 L809.4875,16.8125 Q809.4875,17.3 809.3,17.5125 Q809.1125,17.725 808.8125,17.725 Q808.5375,17.725 808.375,17.5625 Q808.2125,17.4125 808.125,17 Q808.0875,16.7125 807.9375,16.5625 Q807.675,16.2625 807.1875,16.0875 Q806.7,15.9125 806.2,15.9125 Q805.5875,15.9125 805.075,16.175 Q804.575,16.4375 804.175,17.0375 Q803.7875,17.6375 803.7875,18.4625 L803.7875,19.3375 Q803.7875,20.325 804.5,20.9875 Q805.2125,21.6375 806.4875,21.6375 Q807.2375,21.6375 807.7625,21.4375 Q808.075,21.3125 808.4125,20.9625 Q808.625,20.75 808.7375,20.6875 Q808.8625,20.625 809.025,20.625 Q809.2875,20.625 809.4875,20.8375 Q809.7,21.0375 809.7,21.3125 Q809.7,21.5875 809.425,21.9125 Q809.025,22.375 808.3875,22.6375 Q807.525,23 806.4875,23 Q805.275,23 804.3125,22.5 Q803.525,22.1 802.975,21.25 Q802.425,20.3875 802.425,19.3625 L802.425,18.4375 Q802.425,17.375 802.9125,16.4625 Q803.4125,15.5375 804.2875,15.05 Q805.1625,14.55 806.15,14.55 Q806.7375,14.55 807.25,14.6875 Q807.775,14.8125 808.2125,15.1 Z " fill="#000000"/><text fill="#000000" font-family="sans-serif" font-size="11.2" lengthAdjust="spacing" textLength="86.4" x="817.2" y="22.2828">CreateRequestUI</text><line style="stroke:#181818;stroke-width:0.4000000000000001;" x1="794.8" x2="905.2" y1="31.2" y2="31.2"/><line style="stroke:#181818;stroke-width:0.4000000000000001;" x1="794.8" x2="905.2" y1="37.6" y2="37.6"/></g><!--class CreateRequestController--><g id="elem_CreateRequestController"><rect codeLine="7" fill="#F1F1F1" height="113.475" id="CreateRequestController" rx="2" ry="2" style="stroke:#181818;stroke-width:0.4000000000000001;" width="492.8" x="603.6" y="140.8"/><ellipse cx="783.4" cy="153.6" fill="#ADD1B2" rx="8.8" ry="8.8" style="stroke:#181818;stroke-width:0.8000000000000002;"/><path d="M785.6125,150.3 Q785.7375,150.125 785.8875,150.0375 Q786.0375,149.95 786.2125,149.95 Q786.5125,149.95 786.7,150.1625 Q786.8875,150.3625 786.8875,150.85 L786.8875,152.0125 Q786.8875,152.5 786.7,152.7125 Q786.5125,152.925 786.2125,152.925 Q785.9375,152.925 785.775,152.7625 Q785.6125,152.6125 785.525,152.2 Q785.4875,151.9125 785.3375,151.7625 Q785.075,151.4625 784.5875,151.2875 Q784.1,151.1125 783.6,151.1125 Q782.9875,151.1125 782.475,151.375 Q781.975,151.6375 781.575,152.2375 Q781.1875,152.8375 781.1875,153.6625 L781.1875,154.5375 Q781.1875,155.525 781.9,156.1875 Q782.6125,156.8375 783.8875,156.8375 Q784.6375,156.8375 785.1625,156.6375 Q785.475,156.5125 785.8125,156.1625 Q786.025,155.95 786.1375,155.8875 Q786.2625,155.825 786.425,155.825 Q786.6875,155.825 786.8875,156.0375 Q787.1,156.2375 787.1,156.5125 Q787.1,156.7875 786.825,157.1125 Q786.425,157.575 785.7875,157.8375 Q784.925,158.2 783.8875,158.2 Q782.675,158.2 781.7125,157.7 Q780.925,157.3 780.375,156.45 Q779.825,155.5875 779.825,154.5625 L779.825,153.6375 Q779.825,152.575 780.3125,151.6625 Q780.8125,150.7375 781.6875,150.25 Q782.5625,149.75 783.55,149.75 Q784.1375,149.75 784.65,149.8875 Q785.175,150.0125 785.6125,150.3 Z " fill="#000000"/><text fill="#000000" font-family="sans-serif" font-size="11.2" lengthAdjust="spacing" textLength="126.4" x="799.8" y="157.4828">CreateRequestController</text><line style="stroke:#181818;stroke-width:0.4000000000000001;" x1="604.4" x2="1095.6" y1="166.4" y2="166.4"/><line style="stroke:#181818;stroke-width:0.4000000000000001;" x1="604.4" x2="1095.6" y1="172.8" y2="172.8"/><text fill="#000000" font-family="sans-serif" font-size="11.2" lengthAdjust="spacing" textLength="483.2" x="608.4" y="186.1391">+createRequestController(requestTypeRepository, propertyTypeRepository, agencyRepository)</text><text fill="#000000" font-family="sans-serif" font-size="11.2" lengthAdjust="spacing" textLength="128" x="608.4" y="198.6516">+getRequestCategories()</text><text fill="#000000" font-family="sans-serif" font-size="11.2" lengthAdjust="spacing" textLength="99.2" x="608.4" y="211.1641">+getPropertyType()</text><text fill="#000000" font-family="sans-serif" font-size="11.2" lengthAdjust="spacing" textLength="116" x="608.4" y="223.6766">+setContractDuration()</text><text fill="#000000" font-family="sans-serif" font-size="11.2" lengthAdjust="spacing" textLength="68" x="608.4" y="236.1891">+getAgency()</text><text fill="#000000" font-family="sans-serif" font-size="11.2" lengthAdjust="spacing" textLength="77.6" x="608.4" y="248.7016">+getAgentList()</text></g><!--class Repositories--><g id="elem_Repositories"><rect codeLine="16" fill="#F1F1F1" height="100.9625" id="Repositories" rx="2" ry="2" style="stroke:#181818;stroke-width:0.4000000000000001;" width="163.2" x="892.4" y="351.2"/><ellipse cx="939" cy="364" fill="#ADD1B2" rx="8.8" ry="8.8" style="stroke:#181818;stroke-width:0.8000000000000002;"/><path d="M941.2125,360.7 Q941.3375,360.525 941.4875,360.4375 Q941.6375,360.35 941.8125,360.35 Q942.1125,360.35 942.3,360.5625 Q942.4875,360.7625 942.4875,361.25 L942.4875,362.4125 Q942.4875,362.9 942.3,363.1125 Q942.1125,363.325 941.8125,363.325 Q941.5375,363.325 941.375,363.1625 Q941.2125,363.0125 941.125,362.6 Q941.0875,362.3125 940.9375,362.1625 Q940.675,361.8625 940.1875,361.6875 Q939.7,361.5125 939.2,361.5125 Q938.5875,361.5125 938.075,361.775 Q937.575,362.0375 937.175,362.6375 Q936.7875,363.2375 936.7875,364.0625 L936.7875,364.9375 Q936.7875,365.925 937.5,366.5875 Q938.2125,367.2375 939.4875,367.2375 Q940.2375,367.2375 940.7625,367.0375 Q941.075,366.9125 941.4125,366.5625 Q941.625,366.35 941.7375,366.2875 Q941.8625,366.225 942.025,366.225 Q942.2875,366.225 942.4875,366.4375 Q942.7,366.6375 942.7,366.9125 Q942.7,367.1875 942.425,367.5125 Q942.025,367.975 941.3875,368.2375 Q940.525,368.6 939.4875,368.6 Q938.275,368.6 937.3125,368.1 Q936.525,367.7 935.975,366.85 Q935.425,365.9875 935.425,364.9625 L935.425,364.0375 Q935.425,362.975 935.9125,362.0625 Q936.4125,361.1375 937.2875,360.65 Q938.1625,360.15 939.15,360.15 Q939.7375,360.15 940.25,360.2875 Q940.775,360.4125 941.2125,360.7 Z " fill="#000000"/><text fill="#000000" font-family="sans-serif" font-size="11.2" lengthAdjust="spacing" textLength="63.2" x="955.4" y="367.8828">Repositories</text><line style="stroke:#181818;stroke-width:0.4000000000000001;" x1="893.2" x2="1054.8" y1="376.8" y2="376.8"/><text fill="#000000" font-family="sans-serif" font-size="11.2" lengthAdjust="spacing" textLength="67.2" x="897.2" y="390.1391">-Repositories</text><line style="stroke:#181818;stroke-width:0.4000000000000001;" x1="893.2" x2="1054.8" y1="395.7125" y2="395.7125"/><text fill="#000000" font-family="sans-serif" font-size="11.2" lengthAdjust="spacing" textLength="139.2" x="897.2" y="409.0516">+getInstance():Repositories</text><text fill="#000000" font-family="sans-serif" font-size="11.2" lengthAdjust="spacing" textLength="152.8" x="897.2" y="421.5641">+getRequestTypeRepository()</text><text fill="#000000" font-family="sans-serif" font-size="11.2" lengthAdjust="spacing" textLength="153.6" x="897.2" y="434.0766">+getPropertyTypeRepository()</text><text fill="#000000" font-family="sans-serif" font-size="11.2" lengthAdjust="spacing" textLength="122.4" x="897.2" y="446.5891">+getAgencyRepository()</text></g><!--class PropertyTypeRepository--><g id="elem_PropertyTypeRepository"><rect codeLine="24" fill="#F1F1F1" height="63.425" id="PropertyTypeRepository" rx="2" ry="2" style="stroke:#181818;stroke-width:0.4000000000000001;" width="168.8" x="705.6" y="500"/><ellipse cx="726.6" cy="512.8" fill="#ADD1B2" rx="8.8" ry="8.8" style="stroke:#181818;stroke-width:0.8000000000000002;"/><path d="M728.8125,509.5 Q728.9375,509.325 729.0875,509.2375 Q729.2375,509.15 729.4125,509.15 Q729.7125,509.15 729.9,509.3625 Q730.0875,509.5625 730.0875,510.05 L730.0875,511.2125 Q730.0875,511.7 729.9,511.9125 Q729.7125,512.125 729.4125,512.125 Q729.1375,512.125 728.975,511.9625 Q728.8125,511.8125 728.725,511.4 Q728.6875,511.1125 728.5375,510.9625 Q728.275,510.6625 727.7875,510.4875 Q727.3,510.3125 726.8,510.3125 Q726.1875,510.3125 725.675,510.575 Q725.175,510.8375 724.775,511.4375 Q724.3875,512.0375 724.3875,512.8625 L724.3875,513.7375 Q724.3875,514.725 725.1,515.3875 Q725.8125,516.0375 727.0875,516.0375 Q727.8375,516.0375 728.3625,515.8375 Q728.675,515.7125 729.0125,515.3625 Q729.225,515.15 729.3375,515.0875 Q729.4625,515.025 729.625,515.025 Q729.8875,515.025 730.0875,515.2375 Q730.3,515.4375 730.3,515.7125 Q730.3,515.9875 730.025,516.3125 Q729.625,516.775 728.9875,517.0375 Q728.125,517.4 727.0875,517.4 Q725.875,517.4 724.9125,516.9 Q724.125,516.5 723.575,515.65 Q723.025,514.7875 723.025,513.7625 L723.025,512.8375 Q723.025,511.775 723.5125,510.8625 Q724.0125,509.9375 724.8875,509.45 Q725.7625,508.95 726.75,508.95 Q727.3375,508.95 727.85,509.0875 Q728.375,509.2125 728.8125,509.5 Z " fill="#000000"/><text fill="#000000" font-family="sans-serif" font-size="11.2" lengthAdjust="spacing" textLength="123.2" x="739.8" y="516.6828">PropertyTypeRepository</text><line style="stroke:#181818;stroke-width:0.4000000000000001;" x1="706.4" x2="873.6" y1="525.6" y2="525.6"/><text fill="#000000" font-family="sans-serif" font-size="11.2" lengthAdjust="spacing" textLength="159.2" x="710.4" y="538.9391">-propertyTypeList: List &lt;String&gt;</text><line style="stroke:#181818;stroke-width:0.4000000000000001;" x1="706.4" x2="873.6" y1="544.5125" y2="544.5125"/><text fill="#000000" font-family="sans-serif" font-size="11.2" lengthAdjust="spacing" textLength="99.2" x="710.4" y="557.8516">+getPropertyType()</text></g><!--class AgencyTypeRepository--><g id="elem_AgencyTypeRepository"><rect codeLine="29" fill="#F1F1F1" height="63.425" id="AgencyTypeRepository" rx="2" ry="2" style="stroke:#181818;stroke-width:0.4000000000000001;" width="143.2" x="902.4" y="500"/><ellipse cx="914.4" cy="512.8" fill="#ADD1B2" rx="8.8" ry="8.8" style="stroke:#181818;stroke-width:0.8000000000000002;"/><path d="M916.6125,509.5 Q916.7375,509.325 916.8875,509.2375 Q917.0375,509.15 917.2125,509.15 Q917.5125,509.15 917.7,509.3625 Q917.8875,509.5625 917.8875,510.05 L917.8875,511.2125 Q917.8875,511.7 917.7,511.9125 Q917.5125,512.125 917.2125,512.125 Q916.9375,512.125 916.775,511.9625 Q916.6125,511.8125 916.525,511.4 Q916.4875,511.1125 916.3375,510.9625 Q916.075,510.6625 915.5875,510.4875 Q915.1,510.3125 914.6,510.3125 Q913.9875,510.3125 913.475,510.575 Q912.975,510.8375 912.575,511.4375 Q912.1875,512.0375 912.1875,512.8625 L912.1875,513.7375 Q912.1875,514.725 912.9,515.3875 Q913.6125,516.0375 914.8875,516.0375 Q915.6375,516.0375 916.1625,515.8375 Q916.475,515.7125 916.8125,515.3625 Q917.025,515.15 917.1375,515.0875 Q917.2625,515.025 917.425,515.025 Q917.6875,515.025 917.8875,515.2375 Q918.1,515.4375 918.1,515.7125 Q918.1,515.9875 917.825,516.3125 Q917.425,516.775 916.7875,517.0375 Q915.925,517.4 914.8875,517.4 Q913.675,517.4 912.7125,516.9 Q911.925,516.5 911.375,515.65 Q910.825,514.7875 910.825,513.7625 L910.825,512.8375 Q910.825,511.775 911.3125,510.8625 Q911.8125,509.9375 912.6875,509.45 Q913.5625,508.95 914.55,508.95 Q915.1375,508.95 915.65,509.0875 Q916.175,509.2125 916.6125,509.5 Z " fill="#000000"/><text fill="#000000" font-family="sans-serif" font-size="11.2" lengthAdjust="spacing" textLength="117.6" x="925.6" y="516.6828">AgencyTypeRepository</text><line style="stroke:#181818;stroke-width:0.4000000000000001;" x1="903.2" x2="1044.8" y1="525.6" y2="525.6"/><text fill="#000000" font-family="sans-serif" font-size="11.2" lengthAdjust="spacing" textLength="132.8" x="907.2" y="538.9391">-agencyList: List&lt;Agency&gt;</text><line style="stroke:#181818;stroke-width:0.4000000000000001;" x1="903.2" x2="1044.8" y1="544.5125" y2="544.5125"/><text fill="#000000" font-family="sans-serif" font-size="11.2" lengthAdjust="spacing" textLength="85.6" x="907.2" y="557.8516">+getAgencyList()</text></g><!--class Agency--><g id="elem_Agency"><rect codeLine="34" fill="#F1F1F1" height="113.475" id="Agency" rx="2" ry="2" style="stroke:#181818;stroke-width:0.4000000000000001;" width="167.2" x="734.4" y="611.2"/><ellipse cx="795.8" cy="624" fill="#ADD1B2" rx="8.8" ry="8.8" style="stroke:#181818;stroke-width:0.8000000000000002;"/><path d="M798.0125,620.7 Q798.1375,620.525 798.2875,620.4375 Q798.4375,620.35 798.6125,620.35 Q798.9125,620.35 799.1,620.5625 Q799.2875,620.7625 799.2875,621.25 L799.2875,622.4125 Q799.2875,622.9 799.1,623.1125 Q798.9125,623.325 798.6125,623.325 Q798.3375,623.325 798.175,623.1625 Q798.0125,623.0125 797.925,622.6 Q797.8875,622.3125 797.7375,622.1625 Q797.475,621.8625 796.9875,621.6875 Q796.5,621.5125 796,621.5125 Q795.3875,621.5125 794.875,621.775 Q794.375,622.0375 793.975,622.6375 Q793.5875,623.2375 793.5875,624.0625 L793.5875,624.9375 Q793.5875,625.925 794.3,626.5875 Q795.0125,627.2375 796.2875,627.2375 Q797.0375,627.2375 797.5625,627.0375 Q797.875,626.9125 798.2125,626.5625 Q798.425,626.35 798.5375,626.2875 Q798.6625,626.225 798.825,626.225 Q799.0875,626.225 799.2875,626.4375 Q799.5,626.6375 799.5,626.9125 Q799.5,627.1875 799.225,627.5125 Q798.825,627.975 798.1875,628.2375 Q797.325,628.6 796.2875,628.6 Q795.075,628.6 794.1125,628.1 Q793.325,627.7 792.775,626.85 Q792.225,625.9875 792.225,624.9625 L792.225,624.0375 Q792.225,622.975 792.7125,622.0625 Q793.2125,621.1375 794.0875,620.65 Q794.9625,620.15 795.95,620.15 Q796.5375,620.15 797.05,620.2875 Q797.575,620.4125 798.0125,620.7 Z " fill="#000000"/><text fill="#000000" font-family="sans-serif" font-size="11.2" lengthAdjust="spacing" textLength="37.6" x="812.2" y="627.8828">Agency</text><line style="stroke:#181818;stroke-width:0.4000000000000001;" x1="735.2" x2="900.8" y1="636.8" y2="636.8"/><text fill="#000000" font-family="sans-serif" font-size="11.2" lengthAdjust="spacing" textLength="79.2" x="739.2" y="650.1391">-location: String</text><text fill="#000000" font-family="sans-serif" font-size="11.2" lengthAdjust="spacing" textLength="98.4" x="739.2" y="662.6516">-designation: String</text><text fill="#000000" font-family="sans-serif" font-size="11.2" lengthAdjust="spacing" textLength="139.2" x="739.2" y="675.1641">-requestList: List&lt;Request&gt;</text><text fill="#000000" font-family="sans-serif" font-size="11.2" lengthAdjust="spacing" textLength="156.8" x="739.2" y="687.6766">-employeeList: List&lt;Employee&gt;</text><line style="stroke:#181818;stroke-width:0.4000000000000001;" x1="735.2" x2="900.8" y1="693.25" y2="693.25"/><text fill="#000000" font-family="sans-serif" font-size="11.2" lengthAdjust="spacing" textLength="152.8" x="739.2" y="706.5891">+createRequest(requestType)</text><text fill="#000000" font-family="sans-serif" font-size="11.2" lengthAdjust="spacing" textLength="157.6" x="739.2" y="719.1016">+getAgentList(selectedAgency)</text></g><!--class RequestTypeRepository--><g id="elem_RequestTypeRepository"><rect codeLine="43" fill="#F1F1F1" height="63.425" id="RequestTypeRepository" rx="2" ry="2" style="stroke:#181818;stroke-width:0.4000000000000001;" width="161.6" x="1074" y="500"/><ellipse cx="1092.12" cy="512.8" fill="#ADD1B2" rx="8.8" ry="8.8" style="stroke:#181818;stroke-width:0.8000000000000002;"/><path d="M1094.3325,509.5 Q1094.4575,509.325 1094.6075,509.2375 Q1094.7575,509.15 1094.9325,509.15 Q1095.2325,509.15 1095.42,509.3625 Q1095.6075,509.5625 1095.6075,510.05 L1095.6075,511.2125 Q1095.6075,511.7 1095.42,511.9125 Q1095.2325,512.125 1094.9325,512.125 Q1094.6575,512.125 1094.495,511.9625 Q1094.3325,511.8125 1094.245,511.4 Q1094.2075,511.1125 1094.0575,510.9625 Q1093.795,510.6625 1093.3075,510.4875 Q1092.82,510.3125 1092.32,510.3125 Q1091.7075,510.3125 1091.195,510.575 Q1090.695,510.8375 1090.295,511.4375 Q1089.9075,512.0375 1089.9075,512.8625 L1089.9075,513.7375 Q1089.9075,514.725 1090.62,515.3875 Q1091.3325,516.0375 1092.6075,516.0375 Q1093.3575,516.0375 1093.8825,515.8375 Q1094.195,515.7125 1094.5325,515.3625 Q1094.745,515.15 1094.8575,515.0875 Q1094.9825,515.025 1095.145,515.025 Q1095.4075,515.025 1095.6075,515.2375 Q1095.82,515.4375 1095.82,515.7125 Q1095.82,515.9875 1095.545,516.3125 Q1095.145,516.775 1094.5075,517.0375 Q1093.645,517.4 1092.6075,517.4 Q1091.395,517.4 1090.4325,516.9 Q1089.645,516.5 1089.095,515.65 Q1088.545,514.7875 1088.545,513.7625 L1088.545,512.8375 Q1088.545,511.775 1089.0325,510.8625 Q1089.5325,509.9375 1090.4075,509.45 Q1091.2825,508.95 1092.27,508.95 Q1092.8575,508.95 1093.37,509.0875 Q1093.895,509.2125 1094.3325,509.5 Z " fill="#000000"/><text fill="#000000" font-family="sans-serif" font-size="11.2" lengthAdjust="spacing" textLength="122.4" x="1104.68" y="516.6828">RequestTypeRepository</text><line style="stroke:#181818;stroke-width:0.4000000000000001;" x1="1074.8" x2="1234.8" y1="525.6" y2="525.6"/><text fill="#000000" font-family="sans-serif" font-size="11.2" lengthAdjust="spacing" textLength="152" x="1078.8" y="538.9391">-requestTypeList: List&lt;String&gt;</text><line style="stroke:#181818;stroke-width:0.4000000000000001;" x1="1074.8" x2="1234.8" y1="544.5125" y2="544.5125"/><text fill="#000000" font-family="sans-serif" font-size="11.2" lengthAdjust="spacing" textLength="98.4" x="1078.8" y="557.8516">+getRequestType()</text></g><!--class Request--><g id="elem_Request"><rect codeLine="48" fill="#F1F1F1" height="138.5" id="Request" rx="2" ry="2" style="stroke:#181818;stroke-width:0.4000000000000001;" width="560" x="215.6" y="772.8"/><ellipse cx="471" cy="785.6" fill="#ADD1B2" rx="8.8" ry="8.8" style="stroke:#181818;stroke-width:0.8000000000000002;"/><path d="M473.2125,782.3 Q473.3375,782.125 473.4875,782.0375 Q473.6375,781.95 473.8125,781.95 Q474.1125,781.95 474.3,782.1625 Q474.4875,782.3625 474.4875,782.85 L474.4875,784.0125 Q474.4875,784.5 474.3,784.7125 Q474.1125,784.925 473.8125,784.925 Q473.5375,784.925 473.375,784.7625 Q473.2125,784.6125 473.125,784.2 Q473.0875,783.9125 472.9375,783.7625 Q472.675,783.4625 472.1875,783.2875 Q471.7,783.1125 471.2,783.1125 Q470.5875,783.1125 470.075,783.375 Q469.575,783.6375 469.175,784.2375 Q468.7875,784.8375 468.7875,785.6625 L468.7875,786.5375 Q468.7875,787.525 469.5,788.1875 Q470.2125,788.8375 471.4875,788.8375 Q472.2375,788.8375 472.7625,788.6375 Q473.075,788.5125 473.4125,788.1625 Q473.625,787.95 473.7375,787.8875 Q473.8625,787.825 474.025,787.825 Q474.2875,787.825 474.4875,788.0375 Q474.7,788.2375 474.7,788.5125 Q474.7,788.7875 474.425,789.1125 Q474.025,789.575 473.3875,789.8375 Q472.525,790.2 471.4875,790.2 Q470.275,790.2 469.3125,789.7 Q468.525,789.3 467.975,788.45 Q467.425,787.5875 467.425,786.5625 L467.425,785.6375 Q467.425,784.575 467.9125,783.6625 Q468.4125,782.7375 469.2875,782.25 Q470.1625,781.75 471.15,781.75 Q471.7375,781.75 472.25,781.8875 Q472.775,782.0125 473.2125,782.3 Z " fill="#000000"/><text fill="#000000" font-family="sans-serif" font-size="11.2" lengthAdjust="spacing" textLength="42.4" x="487.4" y="789.4828">Request</text><line style="stroke:#181818;stroke-width:0.4000000000000001;" x1="216.4" x2="774.8" y1="798.4" y2="798.4"/><text fill="#000000" font-family="sans-serif" font-size="11.2" lengthAdjust="spacing" textLength="116.8" x="220.4" y="811.7391">-requestState: Boolean</text><text fill="#000000" font-family="sans-serif" font-size="11.2" lengthAdjust="spacing" textLength="62.4" x="220.4" y="824.2516">-date: String</text><text fill="#000000" font-family="sans-serif" font-size="11.2" lengthAdjust="spacing" textLength="111.2" x="220.4" y="836.7641">-requestOwner: String</text><line style="stroke:#181818;stroke-width:0.4000000000000001;" x1="216.4" x2="774.8" y1="842.3375" y2="842.3375"/><text fill="#000000" font-family="sans-serif" font-size="11.2" lengthAdjust="spacing" textLength="166.4" x="220.4" y="855.6766">+setPropertyType(propertyType)</text><text fill="#000000" font-family="sans-serif" font-size="11.2" lengthAdjust="spacing" textLength="420.8" x="220.4" y="868.1891">+createProperty(area, location, distanceFromTheCityCentre, price, photographList)</text><text fill="#000000" font-family="sans-serif" font-size="11.2" lengthAdjust="spacing" textLength="119.2" x="220.4" y="880.7016">+addProperty(property)</text><text fill="#000000" font-family="sans-serif" font-size="11.2" lengthAdjust="spacing" textLength="550.4" x="220.4" y="893.2141">+createResidence(numberOfBedrooms, numberOfBathrooms, numberOfParkingSpaces, availableEquipment)</text><text fill="#000000" font-family="sans-serif" font-size="11.2" lengthAdjust="spacing" textLength="280.8" x="220.4" y="905.7266">+createHouse(basement, inhabitableLoft, sunExposure)</text></g><!--class Property--><g id="elem_Property"><rect codeLine="59" fill="#F1F1F1" height="100.9625" id="Property" rx="2" ry="2" style="stroke:#181818;stroke-width:0.4000000000000001;" width="198.4" x="191.6" y="959.2"/><ellipse cx="265.8" cy="972" fill="#ADD1B2" rx="8.8" ry="8.8" style="stroke:#181818;stroke-width:0.8000000000000002;"/><path d="M268.0125,968.7 Q268.1375,968.525 268.2875,968.4375 Q268.4375,968.35 268.6125,968.35 Q268.9125,968.35 269.1,968.5625 Q269.2875,968.7625 269.2875,969.25 L269.2875,970.4125 Q269.2875,970.9 269.1,971.1125 Q268.9125,971.325 268.6125,971.325 Q268.3375,971.325 268.175,971.1625 Q268.0125,971.0125 267.925,970.6 Q267.8875,970.3125 267.7375,970.1625 Q267.475,969.8625 266.9875,969.6875 Q266.5,969.5125 266,969.5125 Q265.3875,969.5125 264.875,969.775 Q264.375,970.0375 263.975,970.6375 Q263.5875,971.2375 263.5875,972.0625 L263.5875,972.9375 Q263.5875,973.925 264.3,974.5875 Q265.0125,975.2375 266.2875,975.2375 Q267.0375,975.2375 267.5625,975.0375 Q267.875,974.9125 268.2125,974.5625 Q268.425,974.35 268.5375,974.2875 Q268.6625,974.225 268.825,974.225 Q269.0875,974.225 269.2875,974.4375 Q269.5,974.6375 269.5,974.9125 Q269.5,975.1875 269.225,975.5125 Q268.825,975.975 268.1875,976.2375 Q267.325,976.6 266.2875,976.6 Q265.075,976.6 264.1125,976.1 Q263.325,975.7 262.775,974.85 Q262.225,973.9875 262.225,972.9625 L262.225,972.0375 Q262.225,970.975 262.7125,970.0625 Q263.2125,969.1375 264.0875,968.65 Q264.9625,968.15 265.95,968.15 Q266.5375,968.15 267.05,968.2875 Q267.575,968.4125 268.0125,968.7 Z " fill="#000000"/><text fill="#000000" font-family="sans-serif" font-size="11.2" lengthAdjust="spacing" textLength="43.2" x="282.2" y="975.8828">Property</text><line style="stroke:#181818;stroke-width:0.4000000000000001;" x1="192.4" x2="389.2" y1="984.8" y2="984.8"/><text fill="#000000" font-family="sans-serif" font-size="11.2" lengthAdjust="spacing" textLength="65.6" x="196.4" y="998.1391">-area:Integer</text><text fill="#000000" font-family="sans-serif" font-size="11.2" lengthAdjust="spacing" textLength="79.2" x="196.4" y="1010.6516">-location: String</text><text fill="#000000" font-family="sans-serif" font-size="11.2" lengthAdjust="spacing" textLength="188.8" x="196.4" y="1023.1641">-distanceFromTheCityCentre: Double</text><text fill="#000000" font-family="sans-serif" font-size="11.2" lengthAdjust="spacing" textLength="70.4" x="196.4" y="1035.6766">-price: Integer</text><text fill="#000000" font-family="sans-serif" font-size="11.2" lengthAdjust="spacing" textLength="128.8" x="196.4" y="1048.1891">-photograph: List&lt;String&gt;</text><line style="stroke:#181818;stroke-width:0.4000000000000001;" x1="192.4" x2="389.2" y1="1053.7625" y2="1053.7625"/></g><!--class Owner--><g id="elem_Owner"><rect codeLine="67" fill="#F1F1F1" height="63.425" id="Owner" rx="2" ry="2" style="stroke:#181818;stroke-width:0.4000000000000001;" width="163.2" x="612.4" y="978"/><ellipse cx="674.2" cy="990.8" fill="#ADD1B2" rx="8.8" ry="8.8" style="stroke:#181818;stroke-width:0.8000000000000002;"/><path d="M676.4125,987.5 Q676.5375,987.325 676.6875,987.2375 Q676.8375,987.15 677.0125,987.15 Q677.3125,987.15 677.5,987.3625 Q677.6875,987.5625 677.6875,988.05 L677.6875,989.2125 Q677.6875,989.7 677.5,989.9125 Q677.3125,990.125 677.0125,990.125 Q676.7375,990.125 676.575,989.9625 Q676.4125,989.8125 676.325,989.4 Q676.2875,989.1125 676.1375,988.9625 Q675.875,988.6625 675.3875,988.4875 Q674.9,988.3125 674.4,988.3125 Q673.7875,988.3125 673.275,988.575 Q672.775,988.8375 672.375,989.4375 Q671.9875,990.0375 671.9875,990.8625 L671.9875,991.7375 Q671.9875,992.725 672.7,993.3875 Q673.4125,994.0375 674.6875,994.0375 Q675.4375,994.0375 675.9625,993.8375 Q676.275,993.7125 676.6125,993.3625 Q676.825,993.15 676.9375,993.0875 Q677.0625,993.025 677.225,993.025 Q677.4875,993.025 677.6875,993.2375 Q677.9,993.4375 677.9,993.7125 Q677.9,993.9875 677.625,994.3125 Q677.225,994.775 676.5875,995.0375 Q675.725,995.4 674.6875,995.4 Q673.475,995.4 672.5125,994.9 Q671.725,994.5 671.175,993.65 Q670.625,992.7875 670.625,991.7625 L670.625,990.8375 Q670.625,989.775 671.1125,988.8625 Q671.6125,987.9375 672.4875,987.45 Q673.3625,986.95 674.35,986.95 Q674.9375,986.95 675.45,987.0875 Q675.975,987.2125 676.4125,987.5 Z " fill="#000000"/><text fill="#000000" font-family="sans-serif" font-size="11.2" lengthAdjust="spacing" textLength="32.8" x="690.6" y="994.6828">Owner</text><line style="stroke:#181818;stroke-width:0.4000000000000001;" x1="613.2" x2="774.8" y1="1003.6" y2="1003.6"/><text fill="#000000" font-family="sans-serif" font-size="11.2" lengthAdjust="spacing" textLength="68" x="617.2" y="1016.9391">-name: String</text><text fill="#000000" font-family="sans-serif" font-size="11.2" lengthAdjust="spacing" textLength="153.6" x="617.2" y="1029.4516">-passportCardNumber: Integer</text><line style="stroke:#181818;stroke-width:0.4000000000000001;" x1="613.2" x2="774.8" y1="1035.025" y2="1035.025"/></g><!--class Residence--><g id="elem_Residence"><rect codeLine="72" fill="#F1F1F1" height="88.45" id="Residence" rx="2" ry="2" style="stroke:#181818;stroke-width:0.4000000000000001;" width="181.6" x="5.6" y="797.6"/><ellipse cx="66.2" cy="810.4" fill="#ADD1B2" rx="8.8" ry="8.8" style="stroke:#181818;stroke-width:0.8000000000000002;"/><path d="M68.4125,807.1 Q68.5375,806.925 68.6875,806.8375 Q68.8375,806.75 69.0125,806.75 Q69.3125,806.75 69.5,806.9625 Q69.6875,807.1625 69.6875,807.65 L69.6875,808.8125 Q69.6875,809.3 69.5,809.5125 Q69.3125,809.725 69.0125,809.725 Q68.7375,809.725 68.575,809.5625 Q68.4125,809.4125 68.325,809 Q68.2875,808.7125 68.1375,808.5625 Q67.875,808.2625 67.3875,808.0875 Q66.9,807.9125 66.4,807.9125 Q65.7875,807.9125 65.275,808.175 Q64.775,808.4375 64.375,809.0375 Q63.9875,809.6375 63.9875,810.4625 L63.9875,811.3375 Q63.9875,812.325 64.7,812.9875 Q65.4125,813.6375 66.6875,813.6375 Q67.4375,813.6375 67.9625,813.4375 Q68.275,813.3125 68.6125,812.9625 Q68.825,812.75 68.9375,812.6875 Q69.0625,812.625 69.225,812.625 Q69.4875,812.625 69.6875,812.8375 Q69.9,813.0375 69.9,813.3125 Q69.9,813.5875 69.625,813.9125 Q69.225,814.375 68.5875,814.6375 Q67.725,815 66.6875,815 Q65.475,815 64.5125,814.5 Q63.725,814.1 63.175,813.25 Q62.625,812.3875 62.625,811.3625 L62.625,810.4375 Q62.625,809.375 63.1125,808.4625 Q63.6125,807.5375 64.4875,807.05 Q65.3625,806.55 66.35,806.55 Q66.9375,806.55 67.45,806.6875 Q67.975,806.8125 68.4125,807.1 Z " fill="#000000"/><text fill="#000000" font-family="sans-serif" font-size="11.2" lengthAdjust="spacing" textLength="53.6" x="82.6" y="814.2828">Residence</text><line style="stroke:#181818;stroke-width:0.4000000000000001;" x1="6.4" x2="186.4" y1="823.2" y2="823.2"/><text fill="#000000" font-family="sans-serif" font-size="11.2" lengthAdjust="spacing" textLength="147.2" x="10.4" y="836.5391">-numberOfBedrooms: Integer</text><text fill="#000000" font-family="sans-serif" font-size="11.2" lengthAdjust="spacing" textLength="150.4" x="10.4" y="849.0516">-numberOfBathrooms: Integer</text><text fill="#000000" font-family="sans-serif" font-size="11.2" lengthAdjust="spacing" textLength="172" x="10.4" y="861.5641">-numberOfParkingSpaces: Integer</text><text fill="#000000" font-family="sans-serif" font-size="11.2" lengthAdjust="spacing" textLength="138.4" x="10.4" y="874.0766">-availableEquipment: String</text><line style="stroke:#181818;stroke-width:0.4000000000000001;" x1="6.4" x2="186.4" y1="879.65" y2="879.65"/></g><!--class House--><g id="elem_House"><rect codeLine="79" fill="#F1F1F1" height="75.9375" id="House" rx="2" ry="2" style="stroke:#181818;stroke-width:0.4000000000000001;" width="135.2" x="28.8" y="630"/><ellipse cx="77" cy="642.8" fill="#ADD1B2" rx="8.8" ry="8.8" style="stroke:#181818;stroke-width:0.8000000000000002;"/><path d="M79.2125,639.5 Q79.3375,639.325 79.4875,639.2375 Q79.6375,639.15 79.8125,639.15 Q80.1125,639.15 80.3,639.3625 Q80.4875,639.5625 80.4875,640.05 L80.4875,641.2125 Q80.4875,641.7 80.3,641.9125 Q80.1125,642.125 79.8125,642.125 Q79.5375,642.125 79.375,641.9625 Q79.2125,641.8125 79.125,641.4 Q79.0875,641.1125 78.9375,640.9625 Q78.675,640.6625 78.1875,640.4875 Q77.7,640.3125 77.2,640.3125 Q76.5875,640.3125 76.075,640.575 Q75.575,640.8375 75.175,641.4375 Q74.7875,642.0375 74.7875,642.8625 L74.7875,643.7375 Q74.7875,644.725 75.5,645.3875 Q76.2125,646.0375 77.4875,646.0375 Q78.2375,646.0375 78.7625,645.8375 Q79.075,645.7125 79.4125,645.3625 Q79.625,645.15 79.7375,645.0875 Q79.8625,645.025 80.025,645.025 Q80.2875,645.025 80.4875,645.2375 Q80.7,645.4375 80.7,645.7125 Q80.7,645.9875 80.425,646.3125 Q80.025,646.775 79.3875,647.0375 Q78.525,647.4 77.4875,647.4 Q76.275,647.4 75.3125,646.9 Q74.525,646.5 73.975,645.65 Q73.425,644.7875 73.425,643.7625 L73.425,642.8375 Q73.425,641.775 73.9125,640.8625 Q74.4125,639.9375 75.2875,639.45 Q76.1625,638.95 77.15,638.95 Q77.7375,638.95 78.25,639.0875 Q78.775,639.2125 79.2125,639.5 Z " fill="#000000"/><text fill="#000000" font-family="sans-serif" font-size="11.2" lengthAdjust="spacing" textLength="32" x="93.4" y="646.6828">House</text><line style="stroke:#181818;stroke-width:0.4000000000000001;" x1="29.6" x2="163.2" y1="655.6" y2="655.6"/><text fill="#000000" font-family="sans-serif" font-size="11.2" lengthAdjust="spacing" textLength="100.8" x="33.6" y="668.9391">-basement: boolean</text><text fill="#000000" font-family="sans-serif" font-size="11.2" lengthAdjust="spacing" textLength="125.6" x="33.6" y="681.4516">-inhabitableLoft: boolean</text><text fill="#000000" font-family="sans-serif" font-size="11.2" lengthAdjust="spacing" textLength="105.6" x="33.6" y="693.9641">-sunExposure: String</text><line style="stroke:#181818;stroke-width:0.4000000000000001;" x1="29.6" x2="163.2" y1="699.5375" y2="699.5375"/></g><!--class Contacts--><g id="elem_Contacts"><rect codeLine="85" fill="#F1F1F1" height="63.425" id="Contacts" rx="2" ry="2" style="stroke:#181818;stroke-width:0.4000000000000001;" width="126.4" x="754.8" y="1108"/><ellipse cx="792.2" cy="1120.8" fill="#ADD1B2" rx="8.8" ry="8.8" style="stroke:#181818;stroke-width:0.8000000000000002;"/><path d="M794.4125,1117.5 Q794.5375,1117.325 794.6875,1117.2375 Q794.8375,1117.15 795.0125,1117.15 Q795.3125,1117.15 795.5,1117.3625 Q795.6875,1117.5625 795.6875,1118.05 L795.6875,1119.2125 Q795.6875,1119.7 795.5,1119.9125 Q795.3125,1120.125 795.0125,1120.125 Q794.7375,1120.125 794.575,1119.9625 Q794.4125,1119.8125 794.325,1119.4 Q794.2875,1119.1125 794.1375,1118.9625 Q793.875,1118.6625 793.3875,1118.4875 Q792.9,1118.3125 792.4,1118.3125 Q791.7875,1118.3125 791.275,1118.575 Q790.775,1118.8375 790.375,1119.4375 Q789.9875,1120.0375 789.9875,1120.8625 L789.9875,1121.7375 Q789.9875,1122.725 790.7,1123.3875 Q791.4125,1124.0375 792.6875,1124.0375 Q793.4375,1124.0375 793.9625,1123.8375 Q794.275,1123.7125 794.6125,1123.3625 Q794.825,1123.15 794.9375,1123.0875 Q795.0625,1123.025 795.225,1123.025 Q795.4875,1123.025 795.6875,1123.2375 Q795.9,1123.4375 795.9,1123.7125 Q795.9,1123.9875 795.625,1124.3125 Q795.225,1124.775 794.5875,1125.0375 Q793.725,1125.4 792.6875,1125.4 Q791.475,1125.4 790.5125,1124.9 Q789.725,1124.5 789.175,1123.65 Q788.625,1122.7875 788.625,1121.7625 L788.625,1120.8375 Q788.625,1119.775 789.1125,1118.8625 Q789.6125,1117.9375 790.4875,1117.45 Q791.3625,1116.95 792.35,1116.95 Q792.9375,1116.95 793.45,1117.0875 Q793.975,1117.2125 794.4125,1117.5 Z " fill="#000000"/><text fill="#000000" font-family="sans-serif" font-size="11.2" lengthAdjust="spacing" textLength="44.8" x="808.6" y="1124.6828">Contacts</text><line style="stroke:#181818;stroke-width:0.4000000000000001;" x1="755.6" x2="880.4" y1="1133.6" y2="1133.6"/><text fill="#000000" font-family="sans-serif" font-size="11.2" lengthAdjust="spacing" textLength="116.8" x="759.6" y="1146.9391">-phoneNumber: Integer</text><text fill="#000000" font-family="sans-serif" font-size="11.2" lengthAdjust="spacing" textLength="108" x="759.6" y="1159.4516">-emailAddress: String</text><line style="stroke:#181818;stroke-width:0.4000000000000001;" x1="755.6" x2="880.4" y1="1165.025" y2="1165.025"/></g><!--class Employee--><g id="elem_Employee"><rect codeLine="90" fill="#F1F1F1" height="63.425" id="Employee" rx="2" ry="2" style="stroke:#181818;stroke-width:0.4000000000000001;" width="163.2" x="860.4" y="978"/><ellipse cx="913.8" cy="990.8" fill="#ADD1B2" rx="8.8" ry="8.8" style="stroke:#181818;stroke-width:0.8000000000000002;"/><path d="M916.0125,987.5 Q916.1375,987.325 916.2875,987.2375 Q916.4375,987.15 916.6125,987.15 Q916.9125,987.15 917.1,987.3625 Q917.2875,987.5625 917.2875,988.05 L917.2875,989.2125 Q917.2875,989.7 917.1,989.9125 Q916.9125,990.125 916.6125,990.125 Q916.3375,990.125 916.175,989.9625 Q916.0125,989.8125 915.925,989.4 Q915.8875,989.1125 915.7375,988.9625 Q915.475,988.6625 914.9875,988.4875 Q914.5,988.3125 914,988.3125 Q913.3875,988.3125 912.875,988.575 Q912.375,988.8375 911.975,989.4375 Q911.5875,990.0375 911.5875,990.8625 L911.5875,991.7375 Q911.5875,992.725 912.3,993.3875 Q913.0125,994.0375 914.2875,994.0375 Q915.0375,994.0375 915.5625,993.8375 Q915.875,993.7125 916.2125,993.3625 Q916.425,993.15 916.5375,993.0875 Q916.6625,993.025 916.825,993.025 Q917.0875,993.025 917.2875,993.2375 Q917.5,993.4375 917.5,993.7125 Q917.5,993.9875 917.225,994.3125 Q916.825,994.775 916.1875,995.0375 Q915.325,995.4 914.2875,995.4 Q913.075,995.4 912.1125,994.9 Q911.325,994.5 910.775,993.65 Q910.225,992.7875 910.225,991.7625 L910.225,990.8375 Q910.225,989.775 910.7125,988.8625 Q911.2125,987.9375 912.0875,987.45 Q912.9625,986.95 913.95,986.95 Q914.5375,986.95 915.05,987.0875 Q915.575,987.2125 916.0125,987.5 Z " fill="#000000"/><text fill="#000000" font-family="sans-serif" font-size="11.2" lengthAdjust="spacing" textLength="49.6" x="930.2" y="994.6828">Employee</text><line style="stroke:#181818;stroke-width:0.4000000000000001;" x1="861.2" x2="1022.8" y1="1003.6" y2="1003.6"/><text fill="#000000" font-family="sans-serif" font-size="11.2" lengthAdjust="spacing" textLength="68" x="865.2" y="1016.9391">-name: String</text><text fill="#000000" font-family="sans-serif" font-size="11.2" lengthAdjust="spacing" textLength="153.6" x="865.2" y="1029.4516">-passportCardNumber: Integer</text><line style="stroke:#181818;stroke-width:0.4000000000000001;" x1="861.2" x2="1022.8" y1="1035.025" y2="1035.025"/></g><!--class TaxNumber--><g id="elem_TaxNumber"><rect codeLine="95" fill="#F1F1F1" height="50.9125" id="TaxNumber" rx="2" ry="2" style="stroke:#181818;stroke-width:0.4000000000000001;" width="83.2" x="776.4" y="1219.2"/><ellipse cx="788.4" cy="1232" fill="#ADD1B2" rx="8.8" ry="8.8" style="stroke:#181818;stroke-width:0.8000000000000002;"/><path d="M790.6125,1228.7 Q790.7375,1228.525 790.8875,1228.4375 Q791.0375,1228.35 791.2125,1228.35 Q791.5125,1228.35 791.7,1228.5625 Q791.8875,1228.7625 791.8875,1229.25 L791.8875,1230.4125 Q791.8875,1230.9 791.7,1231.1125 Q791.5125,1231.325 791.2125,1231.325 Q790.9375,1231.325 790.775,1231.1625 Q790.6125,1231.0125 790.525,1230.6 Q790.4875,1230.3125 790.3375,1230.1625 Q790.075,1229.8625 789.5875,1229.6875 Q789.1,1229.5125 788.6,1229.5125 Q787.9875,1229.5125 787.475,1229.775 Q786.975,1230.0375 786.575,1230.6375 Q786.1875,1231.2375 786.1875,1232.0625 L786.1875,1232.9375 Q786.1875,1233.925 786.9,1234.5875 Q787.6125,1235.2375 788.8875,1235.2375 Q789.6375,1235.2375 790.1625,1235.0375 Q790.475,1234.9125 790.8125,1234.5625 Q791.025,1234.35 791.1375,1234.2875 Q791.2625,1234.225 791.425,1234.225 Q791.6875,1234.225 791.8875,1234.4375 Q792.1,1234.6375 792.1,1234.9125 Q792.1,1235.1875 791.825,1235.5125 Q791.425,1235.975 790.7875,1236.2375 Q789.925,1236.6 788.8875,1236.6 Q787.675,1236.6 786.7125,1236.1 Q785.925,1235.7 785.375,1234.85 Q784.825,1233.9875 784.825,1232.9625 L784.825,1232.0375 Q784.825,1230.975 785.3125,1230.0625 Q785.8125,1229.1375 786.6875,1228.65 Q787.5625,1228.15 788.55,1228.15 Q789.1375,1228.15 789.65,1228.2875 Q790.175,1228.4125 790.6125,1228.7 Z " fill="#000000"/><text fill="#000000" font-family="sans-serif" font-size="11.2" lengthAdjust="spacing" textLength="57.6" x="799.6" y="1235.8828">TaxNumber</text><line style="stroke:#181818;stroke-width:0.4000000000000001;" x1="777.2" x2="858.8" y1="1244.8" y2="1244.8"/><text fill="#000000" font-family="sans-serif" font-size="11.2" lengthAdjust="spacing" textLength="57.6" x="781.2" y="1258.1391">-taxNumber</text><line style="stroke:#181818;stroke-width:0.4000000000000001;" x1="777.2" x2="858.8" y1="1263.7125" y2="1263.7125"/></g><!--class Rent--><g id="elem_Rent"><rect codeLine="99" fill="#F1F1F1" height="50.9125" id="Rent" rx="2" ry="2" style="stroke:#181818;stroke-width:0.4000000000000001;" width="139.2" x="1085.2" y="642.4"/><ellipse cx="1139.4" cy="655.2" fill="#ADD1B2" rx="8.8" ry="8.8" style="stroke:#181818;stroke-width:0.8000000000000002;"/><path d="M1141.6125,651.9 Q1141.7375,651.725 1141.8875,651.6375 Q1142.0375,651.55 1142.2125,651.55 Q1142.5125,651.55 1142.7,651.7625 Q1142.8875,651.9625 1142.8875,652.45 L1142.8875,653.6125 Q1142.8875,654.1 1142.7,654.3125 Q1142.5125,654.525 1142.2125,654.525 Q1141.9375,654.525 1141.775,654.3625 Q1141.6125,654.2125 1141.525,653.8 Q1141.4875,653.5125 1141.3375,653.3625 Q1141.075,653.0625 1140.5875,652.8875 Q1140.1,652.7125 1139.6,652.7125 Q1138.9875,652.7125 1138.475,652.975 Q1137.975,653.2375 1137.575,653.8375 Q1137.1875,654.4375 1137.1875,655.2625 L1137.1875,656.1375 Q1137.1875,657.125 1137.9,657.7875 Q1138.6125,658.4375 1139.8875,658.4375 Q1140.6375,658.4375 1141.1625,658.2375 Q1141.475,658.1125 1141.8125,657.7625 Q1142.025,657.55 1142.1375,657.4875 Q1142.2625,657.425 1142.425,657.425 Q1142.6875,657.425 1142.8875,657.6375 Q1143.1,657.8375 1143.1,658.1125 Q1143.1,658.3875 1142.825,658.7125 Q1142.425,659.175 1141.7875,659.4375 Q1140.925,659.8 1139.8875,659.8 Q1138.675,659.8 1137.7125,659.3 Q1136.925,658.9 1136.375,658.05 Q1135.825,657.1875 1135.825,656.1625 L1135.825,655.2375 Q1135.825,654.175 1136.3125,653.2625 Q1136.8125,652.3375 1137.6875,651.85 Q1138.5625,651.35 1139.55,651.35 Q1140.1375,651.35 1140.65,651.4875 Q1141.175,651.6125 1141.6125,651.9 Z " fill="#000000"/><text fill="#000000" font-family="sans-serif" font-size="11.2" lengthAdjust="spacing" textLength="24" x="1155.8" y="659.0828">Rent</text><line style="stroke:#181818;stroke-width:0.4000000000000001;" x1="1086" x2="1223.6" y1="668" y2="668"/><text fill="#000000" font-family="sans-serif" font-size="11.2" lengthAdjust="spacing" textLength="129.6" x="1090" y="681.3391">-contractDuration: integer</text><line style="stroke:#181818;stroke-width:0.4000000000000001;" x1="1086" x2="1223.6" y1="686.9125" y2="686.9125"/></g><!--link CreateRequestUI to CreateRequestController--><g id="link_CreateRequestUI_CreateRequestController"><path codeLine="103" d="M850,44.288 C850,44.288 850,136.56 850,136.56 " fill="none" id="CreateRequestUI-to-CreateRequestController" style="stroke:#181818;stroke-width:0.8000000000000002;stroke-dasharray:7.0,7.0;"/><polygon fill="#181818" points="850,140.56,853.2,133.36,850,136.56,846.8,133.36,850,140.56" style="stroke:#181818;stroke-width:0.8000000000000002;"/></g><!--link CreateRequestController to Repositories--><g id="link_CreateRequestController_Repositories"><path codeLine="105" d="M1001.2,254.424 C1001.2,254.424 1001.2,346.992 1001.2,346.992 " fill="none" id="CreateRequestController-to-Repositories" style="stroke:#181818;stroke-width:0.8000000000000002;stroke-dasharray:7.0,7.0;"/><polygon fill="#181818" points="1001.2,350.992,1004.4,343.792,1001.2,346.992,998,343.792,1001.2,350.992" style="stroke:#181818;stroke-width:0.8000000000000002;"/><text fill="#000000" font-family="sans-serif" font-size="10.4" lengthAdjust="spacing" textLength="53.6" x="946.8" y="298.1268">repositories</text></g><!--link CreateRequestController to Agency--><g id="link_CreateRequestController_Agency"><path codeLine="106" d="M878.896,254.576 C878.896,254.576 878.896,607.12 878.896,607.12 " fill="none" id="CreateRequestController-to-Agency" style="stroke:#181818;stroke-width:0.8000000000000002;stroke-dasharray:7.0,7.0;"/><polygon fill="#181818" points="878.896,611.12,882.096,603.92,878.896,607.12,875.696,603.92,878.896,611.12" style="stroke:#181818;stroke-width:0.8000000000000002;"/><text fill="#000000" font-family="sans-serif" font-size="10.4" lengthAdjust="spacing" textLength="33.6" x="844.496" y="428.2628">agency</text></g><!--link CreateRequestController to RequestTypeRepository--><g id="link_CreateRequestController_RequestTypeRepository"><path codeLine="107" d="M1085.2,254.64 C1085.2,254.64 1085.2,495.984 1085.2,495.984 " fill="none" id="CreateRequestController-to-RequestTypeRepository" style="stroke:#181818;stroke-width:0.8000000000000002;stroke-dasharray:7.0,7.0;"/><polygon fill="#181818" points="1085.2,499.984,1088.4,492.784,1085.2,495.984,1082,492.784,1085.2,499.984" style="stroke:#181818;stroke-width:0.8000000000000002;"/><text fill="#000000" font-family="sans-serif" font-size="10.4" lengthAdjust="spacing" textLength="106.4" x="1086" y="372.7268">requestTypeRepository</text></g><!--link CreateRequestController to AgencyTypeRepository--><g id="link_CreateRequestController_AgencyTypeRepository"><path codeLine="108" d="M883.4,254.704 C883.4,350.216 883.4,532 883.4,532 C883.4,532 898.392,532 898.392,532 " fill="none" id="CreateRequestController-to-AgencyTypeRepository" style="stroke:#181818;stroke-width:0.8000000000000002;stroke-dasharray:7.0,7.0;"/><polygon fill="#181818" points="902.392,532,895.192,528.8,898.392,532,895.192,535.2,902.392,532" style="stroke:#181818;stroke-width:0.8000000000000002;"/><text fill="#000000" font-family="sans-serif" font-size="10.4" lengthAdjust="spacing" textLength="83.2" x="799.4" y="398.2628">agencyRepository</text></g><!--link CreateRequestController to PropertyTypeRepository--><g id="link_CreateRequestController_PropertyTypeRepository"><path codeLine="109" d="M790,254.64 C790,254.64 790,495.984 790,495.984 " fill="none" id="CreateRequestController-to-PropertyTypeRepository" style="stroke:#181818;stroke-width:0.8000000000000002;stroke-dasharray:7.0,7.0;"/><polygon fill="#181818" points="790,499.984,793.2,492.784,790,495.984,786.8,492.784,790,499.984" style="stroke:#181818;stroke-width:0.8000000000000002;"/><text fill="#000000" font-family="sans-serif" font-size="10.4" lengthAdjust="spacing" textLength="109.6" x="679.6" y="372.7268">propertyTypeRepository</text></g><!--link Agency to Request--><g id="link_Agency_Request"><path codeLine="111" d="M755,724.976 C755,724.976 755,768.752 755,768.752 " fill="none" id="Agency-to-Request" style="stroke:#181818;stroke-width:0.8000000000000002;"/><polygon fill="#181818" points="755,772.752,758.2,765.552,755,768.752,751.8,765.552,755,772.752" style="stroke:#181818;stroke-width:0.8000000000000002;"/><text fill="#000000" font-family="sans-serif" font-size="10.4" lengthAdjust="spacing" textLength="40" x="714.2" y="744.2788">requests</text></g><!--link Agency to Employee--><g id="link_Agency_Employee"><path codeLine="112" d="M881,725.176 C881,725.176 881,973.936 881,973.936 " fill="none" id="Agency-to-Employee" style="stroke:#181818;stroke-width:0.8000000000000002;"/><polygon fill="#181818" points="881,977.936,884.2,970.736,881,973.936,877.8,970.736,881,977.936" style="stroke:#181818;stroke-width:0.8000000000000002;"/><text fill="#000000" font-family="sans-serif" font-size="10.4" lengthAdjust="spacing" textLength="39.2" x="841" y="846.9668">employs</text></g><!--link AgencyTypeRepository to Agency--><g id="link_AgencyTypeRepository_Agency"><path codeLine="113" d="M902.296,548 C898.976,548 897,548 897,548 C897,548 897,607.16 897,607.16 " fill="none" id="AgencyTypeRepository-to-Agency" style="stroke:#181818;stroke-width:0.8000000000000002;"/><polygon fill="#181818" points="897,611.16,900.2,603.96,897,607.16,893.8,603.96,897,611.16" style="stroke:#181818;stroke-width:0.8000000000000002;"/></g><!--link Request to Property--><g id="link_Request_Property"><path codeLine="114" d="M302.8,911.376 C302.8,911.376 302.8,954.952 302.8,954.952 " fill="none" id="Request-to-Property" style="stroke:#181818;stroke-width:0.8000000000000002;"/><polygon fill="#181818" points="302.8,958.952,306,951.752,302.8,954.952,299.6,951.752,302.8,958.952" style="stroke:#181818;stroke-width:0.8000000000000002;"/><text fill="#000000" font-family="sans-serif" font-size="10.4" lengthAdjust="spacing" textLength="16.8" x="285.2" y="930.5828">has</text></g><!--link Request to Owner--><g id="link_Request_Owner"><path codeLine="115" d="M694,911.376 C694,911.376 694,974 694,974 " fill="none" id="Request-to-Owner" style="stroke:#181818;stroke-width:0.8000000000000002;"/><polygon fill="#181818" points="694,978,697.2,970.8,694,974,690.8,970.8,694,978" style="stroke:#181818;stroke-width:0.8000000000000002;"/><text fill="#000000" font-family="sans-serif" font-size="10.4" lengthAdjust="spacing" textLength="47.2" x="646" y="940.1028">createdBy</text></g><!--link RequestTypeRepository to Rent--><g id="link_RequestTypeRepository_Rent"><path codeLine="116" d="M1154.8,563.232 C1154.8,563.232 1154.8,638.248 1154.8,638.248 " fill="none" id="RequestTypeRepository-to-Rent" style="stroke:#181818;stroke-width:0.8000000000000002;"/><polygon fill="#181818" points="1154.8,642.248,1158.0206,635.0572,1154.8114,638.248,1151.6206,635.0389,1154.8,642.248" style="stroke:#181818;stroke-width:0.8000000000000002;"/><polygon fill="#000000" points="1115.6,598.5454,1117.9511,591.3093,1113.2489,591.3093,1115.6,598.5454" style="stroke:#000000;stroke-width:0.8000000000000002;"/><text fill="#000000" font-family="sans-serif" font-size="10.4" lengthAdjust="spacing" textLength="31.2" x="1122.8" y="598.1508">can be</text></g><!--link Repositories to AgencyTypeRepository--><g id="link_Repositories_AgencyTypeRepository"><path codeLine="118" d="M974,452.232 C974,452.232 974,495.672 974,495.672 " fill="none" id="Repositories-to-AgencyTypeRepository" style="stroke:#181818;stroke-width:0.8000000000000002;"/><polygon fill="#181818" points="974,499.672,977.2,492.472,974,495.672,970.8,492.472,974,499.672" style="stroke:#181818;stroke-width:0.8000000000000002;"/></g><!--link Repositories to PropertyTypeRepository--><g id="link_Repositories_PropertyTypeRepository"><path codeLine="119" d="M894.704,452.112 C894.704,482.76 894.704,516 894.704,516 C894.704,516 878.512,516 878.512,516 " fill="none" id="Repositories-to-PropertyTypeRepository" style="stroke:#181818;stroke-width:0.8000000000000002;"/><polygon fill="#181818" points="874.512,516,881.712,519.2,878.512,516,881.712,512.8,874.512,516" style="stroke:#181818;stroke-width:0.8000000000000002;"/></g><!--link Repositories to RequestTypeRepository--><g id="link_Repositories_RequestTypeRepository"><path codeLine="120" d="M1050.6,452.016 C1050.6,488.712 1050.6,532 1050.6,532 C1050.6,532 1069.984,532 1069.984,532 " fill="none" id="Repositories-to-RequestTypeRepository" style="stroke:#181818;stroke-width:0.8000000000000002;"/><polygon fill="#181818" points="1073.984,532,1066.784,528.8,1069.984,532,1066.784,535.2,1073.984,532" style="stroke:#181818;stroke-width:0.8000000000000002;"/></g><!--link House to Residence--><g id="link_House_Residence"><path codeLine="122" d="M96.4,706.184 C96.4,706.184 96.4,781.448 96.4,781.448 " fill="none" id="House-to-Residence" style="stroke:#181818;stroke-width:0.8000000000000002;"/><polygon fill="none" points="102,781.448,96.4,797.448,90.8,781.448,102,781.448" style="stroke:#181818;stroke-width:0.8000000000000002;"/></g><!--link Residence to Property--><g id="link_Residence_Property"><path codeLine="124" d="M187.32,842.4 C197.104,842.4 203.6,842.4 203.6,842.4 C203.6,842.4 203.6,942.984 203.6,942.984 " fill="none" id="Residence-to-Property" style="stroke:#181818;stroke-width:0.8000000000000002;"/><polygon fill="none" points="209.2,942.984,203.6,958.984,198,942.984,209.2,942.984" style="stroke:#181818;stroke-width:0.8000000000000002;"/></g><!--link Agency to Contacts--><g id="link_Agency_Contacts"><path codeLine="126" d="M818,724.888 C818,724.888 818,1103.88 818,1103.88 " fill="none" id="Agency-to-Contacts" style="stroke:#181818;stroke-width:0.8000000000000002;"/><polygon fill="#181818" points="818,1107.88,821.2,1100.68,818,1103.88,814.8,1100.68,818,1107.88" style="stroke:#181818;stroke-width:0.8000000000000002;"/><polygon fill="#000000" points="793.2,912.1934,795.5511,904.9573,790.8489,904.9573,793.2,912.1934" style="stroke:#000000;stroke-width:0.8000000000000002;"/><text fill="#000000" font-family="sans-serif" font-size="10.4" lengthAdjust="spacing" textLength="16.8" x="800.4" y="911.7988">has</text></g><!--link Employee to Contacts--><g id="link_Employee_Contacts"><path codeLine="127" d="M870.8,1041.4 C870.8,1041.4 870.8,1103.904 870.8,1103.904 " fill="none" id="Employee-to-Contacts" style="stroke:#181818;stroke-width:0.8000000000000002;"/><polygon fill="#181818" points="870.8,1107.904,874,1100.704,870.8,1103.904,867.6,1100.704,870.8,1107.904" style="stroke:#181818;stroke-width:0.8000000000000002;"/><polygon fill="#000000" points="846,1070.4574,848.3511,1063.2213,843.6489,1063.2213,846,1070.4574" style="stroke:#000000;stroke-width:0.8000000000000002;"/><text fill="#000000" font-family="sans-serif" font-size="10.4" lengthAdjust="spacing" textLength="16.8" x="853.2" y="1070.0628">has</text></g><!--link Owner to Contacts--><g id="link_Owner_Contacts"><path codeLine="128" d="M765.2,1041.4 C765.2,1041.4 765.2,1103.904 765.2,1103.904 " fill="none" id="Owner-to-Contacts" style="stroke:#181818;stroke-width:0.8000000000000002;"/><polygon fill="#181818" points="765.2,1107.904,768.4,1100.704,765.2,1103.904,762,1100.704,765.2,1107.904" style="stroke:#181818;stroke-width:0.8000000000000002;"/><polygon fill="#000000" points="740.4,1070.4574,742.7511,1063.2213,738.0489,1063.2213,740.4,1070.4574" style="stroke:#000000;stroke-width:0.8000000000000002;"/><text fill="#000000" font-family="sans-serif" font-size="10.4" lengthAdjust="spacing" textLength="16.8" x="747.6" y="1070.0628">has</text></g><!--link Owner to TaxNumber--><g id="link_Owner_TaxNumber"><path codeLine="130" d="M683.6,1041.32 C683.6,1105.52 683.6,1244.8 683.6,1244.8 C683.6,1244.8 772.208,1244.8 772.208,1244.8 " fill="none" id="Owner-to-TaxNumber" style="stroke:#181818;stroke-width:0.8000000000000002;"/><polygon fill="#181818" points="776.208,1244.8,769.008,1241.6,772.208,1244.8,769.008,1248,776.208,1244.8" style="stroke:#181818;stroke-width:0.8000000000000002;"/><polygon fill="#000000" points="660.397,1184.8447,659.6636,1177.2717,655.3524,1179.1491,660.397,1184.8447" style="stroke:#000000;stroke-width:0.8000000000000002;"/><text fill="#000000" font-family="sans-serif" font-size="10.4" lengthAdjust="spacing" textLength="16.8" x="666" y="1184.7828">has</text></g><!--link Employee to TaxNumber--><g id="link_Employee_TaxNumber"><path codeLine="131" d="M952.4,1041.32 C952.4,1105.52 952.4,1244.8 952.4,1244.8 C952.4,1244.8 863.792,1244.8 863.792,1244.8 " fill="none" id="Employee-to-TaxNumber" style="stroke:#181818;stroke-width:0.8000000000000002;"/><polygon fill="#181818" points="859.792,1244.8,866.992,1248,863.792,1244.8,866.992,1241.6,859.792,1244.8" style="stroke:#181818;stroke-width:0.8000000000000002;"/><polygon fill="#000000" points="926.003,1184.8447,931.0476,1179.1491,926.7364,1177.2717,926.003,1184.8447" style="stroke:#000000;stroke-width:0.8000000000000002;"/><text fill="#000000" font-family="sans-serif" font-size="10.4" lengthAdjust="spacing" textLength="16.8" x="934.8" y="1184.7828">has</text></g><!--link Repositories to Repositories--><g id="link_Repositories_Repositories"><path codeLine="133" d="M946.8,350.96 C946.8,326.848 946.8,303.2 946.8,303.2 C946.8,303.2 887.904,303.2 887.904,303.2 C887.904,303.2 887.904,476 887.904,476 C887.904,476 899.296,476 899.296,476 C899.296,476 899.296,456.048 899.296,456.048 " fill="none" id="Repositories-to-Repositories" style="stroke:#181818;stroke-width:0.8000000000000002;"/><polygon fill="#181818" points="899.296,452.048,896.096,459.248,899.296,456.048,902.496,459.248,899.296,452.048" style="stroke:#181818;stroke-width:0.8000000000000002;"/><text fill="#000000" font-family="sans-serif" font-size="10.4" lengthAdjust="spacing" textLength="39.2" x="843.904" y="345.3588">instance</text></g><!--SRC=[dLRBRjim4BphAtXqK3leMGWCE4wA6WYQm4u_W9OsCb6PL4YgZUlstxia9OgYwBJe9ObsoDdTsGUZlZ7UK4cFfAYfKYkj9Tkt6ZQ5u3ls4yZ7JFaZDUEWJmqG8VL1P9czGjOIg8OjlBQWzDVDEVkTHDQ2Qodg6kGv-q2AD3IJplACNhRG2CMqaASvQQHeGEfJRASLyE8qMAwGkWBTywABIaW6QjO1Jm6FjIbmtccXxrf9DHEyFxkotE6NVc1Aey4dw1sZYtEs67sxQnkkDEK5Eikdu3QLR2hKARgA4W-ZIjyqyOKocbnoOdwIcnrMdLVBf4QUrhcSaheQ37Gtxk0o33GMpbdDxLeKLlMSk23GL89Y5O-jNMS4VZhvbWZ2iQd52OAaRkuxqpBkjh379iLLK4EXeNG1ZagTgDLvY6iiwLZHuEviIXcGx3I6cPDR8MgWt4XXlsCD7dzmaDvictXKjB3CLpxz_iYCukVS2pyd9NCz-acAu_C1raoVrgY713Dth32_3aABIjBcO98pbBGiFL_lxYfGMh4IJDlpzhW7-VXo2wKKugZcn5keFaIc9ofnrrIxXXQ0PlgTifhkQxX_RLbpn9063vz5gs2sfmgCVKuOFz0zq-RqWtX1Wshv_HlMgPMG60tRjqYKRpYk290N6l6IC3cv4oswiYE52kLau1cqYbh11s7BPoBWz1XMjq6mmTMwfhByOYKPU8EcwQIr196wOHmJdLFWIF7mm5Hx7wWFnTR0XD6N8ITxtxbHGK8eACsKr6nZNCPsdQAK768bpB1ZRAkobA3KbA2V-_yL-9c-ESmGwFuZB02t8rj4pqQEANkgw4qaY-l5yj9p69qU07ShV3P8ZYiWU4NUlUXM65vn2_flNXBhpRfBsF_5xuGfVghV9qc_OKYJ_ayWoxfi5qCkG_GgHFl-GDYz6ZqQkLhuLBAUS144XjSFL8qWEzTeTnkglFKN4ynREou5vMGFP9bbeoelBgWuFPMMQNek6KYMsGd60x-MmruniNH_EgJtCTAu7rCd0sRWPKsYJfeav344_UobQQTmbEbaMbZtxzSV]--></g></svg>