<?xml version="1.0" encoding="us-ascii" standalone="no"?><svg xmlns="http://www.w3.org/2000/svg" xmlns:xlink="http://www.w3.org/1999/xlink" contentStyleType="text/css" height="2103px" preserveAspectRatio="none" style="width:2102px;height:2103px;background:#FFFFFF;" version="1.1" viewBox="0 0 2102 2103" width="2102px" zoomAndPan="magnify"><defs/><g><!--class CreateRequestUI--><g id="elem_CreateRequestUI"><rect codeLine="5" fill="#F1F1F1" height="48" id="CreateRequestUI" rx="2.5" ry="2.5" style="stroke:#181818;stroke-width:0.5;" width="140" x="644" y="124.5"/><ellipse cx="659" cy="140.5" fill="#ADD1B2" rx="11" ry="11" style="stroke:#181818;stroke-width:1.0;"/><path d="M661.7656,136.375 Q661.9219,136.1563 662.1094,136.0469 Q662.2969,135.9375 662.5156,135.9375 Q662.8906,135.9375 663.125,136.2031 Q663.3594,136.4531 663.3594,137.0625 L663.3594,138.5156 Q663.3594,139.125 663.125,139.3906 Q662.8906,139.6563 662.5156,139.6563 Q662.1719,139.6563 661.9688,139.4531 Q661.7656,139.2656 661.6563,138.75 Q661.6094,138.3906 661.4219,138.2031 Q661.0938,137.8281 660.4844,137.6094 Q659.875,137.3906 659.25,137.3906 Q658.4844,137.3906 657.8438,137.7188 Q657.2188,138.0469 656.7188,138.7969 Q656.2344,139.5469 656.2344,140.5781 L656.2344,141.6719 Q656.2344,142.9063 657.125,143.7344 Q658.0156,144.5469 659.6094,144.5469 Q660.5469,144.5469 661.2031,144.2969 Q661.5938,144.1406 662.0156,143.7031 Q662.2813,143.4375 662.4219,143.3594 Q662.5781,143.2813 662.7813,143.2813 Q663.1094,143.2813 663.3594,143.5469 Q663.625,143.7969 663.625,144.1406 Q663.625,144.4844 663.2813,144.8906 Q662.7813,145.4688 661.9844,145.7969 Q660.9063,146.25 659.6094,146.25 Q658.0938,146.25 656.8906,145.625 Q655.9063,145.125 655.2188,144.0625 Q654.5313,142.9844 654.5313,141.7031 L654.5313,140.5469 Q654.5313,139.2188 655.1406,138.0781 Q655.7656,136.9219 656.8594,136.3125 Q657.9531,135.6875 659.1875,135.6875 Q659.9219,135.6875 660.5625,135.8594 Q661.2188,136.0156 661.7656,136.375 Z " fill="#000000"/><text fill="#000000" font-family="sans-serif" font-size="14" lengthAdjust="spacing" textLength="108" x="673" y="145.3535">CreateRequestUI</text><line style="stroke:#181818;stroke-width:0.5;" x1="645" x2="783" y1="156.5" y2="156.5"/><line style="stroke:#181818;stroke-width:0.5;" x1="645" x2="783" y1="164.5" y2="164.5"/></g><!--class CreateRequestController--><g id="elem_CreateRequestController"><rect codeLine="8" fill="#F1F1F1" height="282.6094" id="CreateRequestController" rx="2.5" ry="2.5" style="stroke:#181818;stroke-width:0.5;" width="700" x="819" y="7"/><ellipse cx="1085.75" cy="23" fill="#ADD1B2" rx="11" ry="11" style="stroke:#181818;stroke-width:1.0;"/><path d="M1088.5156,18.875 Q1088.6719,18.6563 1088.8594,18.5469 Q1089.0469,18.4375 1089.2656,18.4375 Q1089.6406,18.4375 1089.875,18.7031 Q1090.1094,18.9531 1090.1094,19.5625 L1090.1094,21.0156 Q1090.1094,21.625 1089.875,21.8906 Q1089.6406,22.1563 1089.2656,22.1563 Q1088.9219,22.1563 1088.7188,21.9531 Q1088.5156,21.7656 1088.4063,21.25 Q1088.3594,20.8906 1088.1719,20.7031 Q1087.8438,20.3281 1087.2344,20.1094 Q1086.625,19.8906 1086,19.8906 Q1085.2344,19.8906 1084.5938,20.2188 Q1083.9688,20.5469 1083.4688,21.2969 Q1082.9844,22.0469 1082.9844,23.0781 L1082.9844,24.1719 Q1082.9844,25.4063 1083.875,26.2344 Q1084.7656,27.0469 1086.3594,27.0469 Q1087.2969,27.0469 1087.9531,26.7969 Q1088.3438,26.6406 1088.7656,26.2031 Q1089.0313,25.9375 1089.1719,25.8594 Q1089.3281,25.7813 1089.5313,25.7813 Q1089.8594,25.7813 1090.1094,26.0469 Q1090.375,26.2969 1090.375,26.6406 Q1090.375,26.9844 1090.0313,27.3906 Q1089.5313,27.9688 1088.7344,28.2969 Q1087.6563,28.75 1086.3594,28.75 Q1084.8438,28.75 1083.6406,28.125 Q1082.6563,27.625 1081.9688,26.5625 Q1081.2813,25.4844 1081.2813,24.2031 L1081.2813,23.0469 Q1081.2813,21.7188 1081.8906,20.5781 Q1082.5156,19.4219 1083.6094,18.8125 Q1084.7031,18.1875 1085.9375,18.1875 Q1086.6719,18.1875 1087.3125,18.3594 Q1087.9688,18.5156 1088.5156,18.875 Z " fill="#000000"/><text fill="#000000" font-family="sans-serif" font-size="14" lengthAdjust="spacing" textLength="158" x="1106.25" y="27.8535">CreateRequestController</text><line style="stroke:#181818;stroke-width:0.5;" x1="820" x2="1518" y1="39" y2="39"/><line style="stroke:#181818;stroke-width:0.5;" x1="820" x2="1518" y1="47" y2="47"/><text fill="#000000" font-family="sans-serif" font-size="14" lengthAdjust="spacing" textLength="146" x="825" y="63.6738">+getPropertyTypeList()</text><text fill="#000000" font-family="sans-serif" font-size="14" lengthAdjust="spacing" textLength="208" x="825" y="79.3145">+setPropertyType(propertyType)</text><text fill="#000000" font-family="sans-serif" font-size="14" lengthAdjust="spacing" textLength="71" x="825" y="94.9551">+getState()</text><text fill="#000000" font-family="sans-serif" font-size="14" lengthAdjust="spacing" textLength="81" x="825" y="110.5957">+getDistrict()</text><text fill="#000000" font-family="sans-serif" font-size="14" lengthAdjust="spacing" textLength="62" x="825" y="126.2363">+getCity()</text><text fill="#000000" font-family="sans-serif" font-size="14" lengthAdjust="spacing" textLength="545" x="825" y="141.877">+createAddress(doorNumber, floorNumber, zipCode, streetAddress, city, district, state)</text><text fill="#000000" font-family="sans-serif" font-size="14" lengthAdjust="spacing" textLength="154" x="825" y="157.5176">+createPhotograph(URI)</text><text fill="#000000" font-family="sans-serif" font-size="14" lengthAdjust="spacing" textLength="145" x="825" y="173.1582">+getRequestTypeList()</text><text fill="#000000" font-family="sans-serif" font-size="14" lengthAdjust="spacing" textLength="194" x="825" y="188.7988">setRequestType(requestType)</text><text fill="#000000" font-family="sans-serif" font-size="14" lengthAdjust="spacing" textLength="400" x="825" y="204.4395">+createProperty(area, distanceFromCityCenter, address, price)</text><text fill="#000000" font-family="sans-serif" font-size="14" lengthAdjust="spacing" textLength="688" x="825" y="220.0801">+createResidence(numberOfBedrooms, numberOfBathrooms, numberOfParkingSpaces, availableEquipment)</text><text fill="#000000" font-family="sans-serif" font-size="14" lengthAdjust="spacing" textLength="426" x="825" y="235.7207">+createHouse(existenceOfBasement, inhabitableLoft, sunExposure)</text><text fill="#000000" font-family="sans-serif" font-size="14" lengthAdjust="spacing" textLength="85" x="825" y="251.3613">+getAgency()</text><text fill="#000000" font-family="sans-serif" font-size="14" lengthAdjust="spacing" textLength="75" x="825" y="267.002">+getAgent()</text><text fill="#000000" font-family="sans-serif" font-size="14" lengthAdjust="spacing" textLength="530" x="825" y="282.6426">+CreateRequest(propertyType, requestType,agency, agent, currentDate, photoList)</text></g><!--class Repositories--><g id="elem_Repositories"><rect codeLine="26" fill="#F1F1F1" height="204.4063" id="Repositories" rx="2.5" ry="2.5" style="stroke:#181818;stroke-width:0.5;" width="226" x="1056" y="413"/><ellipse cx="1125.25" cy="429" fill="#ADD1B2" rx="11" ry="11" style="stroke:#181818;stroke-width:1.0;"/><path d="M1128.0156,424.875 Q1128.1719,424.6563 1128.3594,424.5469 Q1128.5469,424.4375 1128.7656,424.4375 Q1129.1406,424.4375 1129.375,424.7031 Q1129.6094,424.9531 1129.6094,425.5625 L1129.6094,427.0156 Q1129.6094,427.625 1129.375,427.8906 Q1129.1406,428.1563 1128.7656,428.1563 Q1128.4219,428.1563 1128.2188,427.9531 Q1128.0156,427.7656 1127.9063,427.25 Q1127.8594,426.8906 1127.6719,426.7031 Q1127.3438,426.3281 1126.7344,426.1094 Q1126.125,425.8906 1125.5,425.8906 Q1124.7344,425.8906 1124.0938,426.2188 Q1123.4688,426.5469 1122.9688,427.2969 Q1122.4844,428.0469 1122.4844,429.0781 L1122.4844,430.1719 Q1122.4844,431.4063 1123.375,432.2344 Q1124.2656,433.0469 1125.8594,433.0469 Q1126.7969,433.0469 1127.4531,432.7969 Q1127.8438,432.6406 1128.2656,432.2031 Q1128.5313,431.9375 1128.6719,431.8594 Q1128.8281,431.7813 1129.0313,431.7813 Q1129.3594,431.7813 1129.6094,432.0469 Q1129.875,432.2969 1129.875,432.6406 Q1129.875,432.9844 1129.5313,433.3906 Q1129.0313,433.9688 1128.2344,434.2969 Q1127.1563,434.75 1125.8594,434.75 Q1124.3438,434.75 1123.1406,434.125 Q1122.1563,433.625 1121.4688,432.5625 Q1120.7813,431.4844 1120.7813,430.2031 L1120.7813,429.0469 Q1120.7813,427.7188 1121.3906,426.5781 Q1122.0156,425.4219 1123.1094,424.8125 Q1124.2031,424.1875 1125.4375,424.1875 Q1126.1719,424.1875 1126.8125,424.3594 Q1127.4688,424.5156 1128.0156,424.875 Z " fill="#000000"/><text fill="#000000" font-family="sans-serif" font-size="14" lengthAdjust="spacing" textLength="79" x="1145.75" y="433.8535">Repositories</text><line style="stroke:#181818;stroke-width:0.5;" x1="1057" x2="1281" y1="445" y2="445"/><line style="stroke:#181818;stroke-width:0.5;" x1="1057" x2="1281" y1="453" y2="453"/><text fill="#000000" font-family="sans-serif" font-size="14" lengthAdjust="spacing" textLength="91" x="1062" y="469.6738">+getInstance()</text><text fill="#000000" font-family="sans-serif" font-size="14" lengthAdjust="spacing" textLength="214" x="1062" y="485.3145">+getPropertyTypeListRepository()</text><text fill="#000000" font-family="sans-serif" font-size="14" lengthAdjust="spacing" textLength="139" x="1062" y="500.9551">+getStateRepository()</text><text fill="#000000" font-family="sans-serif" font-size="14" lengthAdjust="spacing" textLength="149" x="1062" y="516.5957">+getDistrictRepository()</text><text fill="#000000" font-family="sans-serif" font-size="14" lengthAdjust="spacing" textLength="130" x="1062" y="532.2363">+getCityRepository()</text><text fill="#000000" font-family="sans-serif" font-size="14" lengthAdjust="spacing" textLength="191" x="1062" y="547.877">+getRequestTypeRepository()</text><text fill="#000000" font-family="sans-serif" font-size="14" lengthAdjust="spacing" textLength="153" x="1062" y="563.5176">+getAgencyRepository()</text><text fill="#000000" font-family="sans-serif" font-size="14" lengthAdjust="spacing" textLength="62" x="1062" y="579.1582">+getCity()</text><text fill="#000000" font-family="sans-serif" font-size="14" lengthAdjust="spacing" textLength="71" x="1062" y="594.7988">+getState()</text><text fill="#000000" font-family="sans-serif" font-size="14" lengthAdjust="spacing" textLength="81" x="1062" y="610.4395">+getDistrict()</text></g><!--class PropertyTypeListRepository--><g id="elem_PropertyTypeListRepository"><rect codeLine="39" fill="#F1F1F1" height="63.6406" id="PropertyTypeListRepository" rx="2.5" ry="2.5" style="stroke:#181818;stroke-width:0.5;" width="208" x="773" y="678"/><ellipse cx="788" cy="694" fill="#ADD1B2" rx="11" ry="11" style="stroke:#181818;stroke-width:1.0;"/><path d="M790.7656,689.875 Q790.9219,689.6563 791.1094,689.5469 Q791.2969,689.4375 791.5156,689.4375 Q791.8906,689.4375 792.125,689.7031 Q792.3594,689.9531 792.3594,690.5625 L792.3594,692.0156 Q792.3594,692.625 792.125,692.8906 Q791.8906,693.1563 791.5156,693.1563 Q791.1719,693.1563 790.9688,692.9531 Q790.7656,692.7656 790.6563,692.25 Q790.6094,691.8906 790.4219,691.7031 Q790.0938,691.3281 789.4844,691.1094 Q788.875,690.8906 788.25,690.8906 Q787.4844,690.8906 786.8438,691.2188 Q786.2188,691.5469 785.7188,692.2969 Q785.2344,693.0469 785.2344,694.0781 L785.2344,695.1719 Q785.2344,696.4063 786.125,697.2344 Q787.0156,698.0469 788.6094,698.0469 Q789.5469,698.0469 790.2031,697.7969 Q790.5938,697.6406 791.0156,697.2031 Q791.2813,696.9375 791.4219,696.8594 Q791.5781,696.7813 791.7813,696.7813 Q792.1094,696.7813 792.3594,697.0469 Q792.625,697.2969 792.625,697.6406 Q792.625,697.9844 792.2813,698.3906 Q791.7813,698.9688 790.9844,699.2969 Q789.9063,699.75 788.6094,699.75 Q787.0938,699.75 785.8906,699.125 Q784.9063,698.625 784.2188,697.5625 Q783.5313,696.4844 783.5313,695.2031 L783.5313,694.0469 Q783.5313,692.7188 784.1406,691.5781 Q784.7656,690.4219 785.8594,689.8125 Q786.9531,689.1875 788.1875,689.1875 Q788.9219,689.1875 789.5625,689.3594 Q790.2188,689.5156 790.7656,689.875 Z " fill="#000000"/><text fill="#000000" font-family="sans-serif" font-size="14" lengthAdjust="spacing" textLength="176" x="802" y="698.8535">PropertyTypeListRepository</text><line style="stroke:#181818;stroke-width:0.5;" x1="774" x2="980" y1="710" y2="710"/><line style="stroke:#181818;stroke-width:0.5;" x1="774" x2="980" y1="718" y2="718"/><text fill="#000000" font-family="sans-serif" font-size="14" lengthAdjust="spacing" textLength="146" x="779" y="734.6738">+getPropertyTypeList()</text></g><!--class StateRepository--><g id="elem_StateRepository"><rect codeLine="43" fill="#F1F1F1" height="63.6406" id="StateRepository" rx="2.5" ry="2.5" style="stroke:#181818;stroke-width:0.5;" width="133" x="610.5" y="1884.5"/><ellipse cx="625.5" cy="1900.5" fill="#ADD1B2" rx="11" ry="11" style="stroke:#181818;stroke-width:1.0;"/><path d="M628.2656,1896.375 Q628.4219,1896.1563 628.6094,1896.0469 Q628.7969,1895.9375 629.0156,1895.9375 Q629.3906,1895.9375 629.625,1896.2031 Q629.8594,1896.4531 629.8594,1897.0625 L629.8594,1898.5156 Q629.8594,1899.125 629.625,1899.3906 Q629.3906,1899.6563 629.0156,1899.6563 Q628.6719,1899.6563 628.4688,1899.4531 Q628.2656,1899.2656 628.1563,1898.75 Q628.1094,1898.3906 627.9219,1898.2031 Q627.5938,1897.8281 626.9844,1897.6094 Q626.375,1897.3906 625.75,1897.3906 Q624.9844,1897.3906 624.3438,1897.7188 Q623.7188,1898.0469 623.2188,1898.7969 Q622.7344,1899.5469 622.7344,1900.5781 L622.7344,1901.6719 Q622.7344,1902.9063 623.625,1903.7344 Q624.5156,1904.5469 626.1094,1904.5469 Q627.0469,1904.5469 627.7031,1904.2969 Q628.0938,1904.1406 628.5156,1903.7031 Q628.7813,1903.4375 628.9219,1903.3594 Q629.0781,1903.2813 629.2813,1903.2813 Q629.6094,1903.2813 629.8594,1903.5469 Q630.125,1903.7969 630.125,1904.1406 Q630.125,1904.4844 629.7813,1904.8906 Q629.2813,1905.4688 628.4844,1905.7969 Q627.4063,1906.25 626.1094,1906.25 Q624.5938,1906.25 623.3906,1905.625 Q622.4063,1905.125 621.7188,1904.0625 Q621.0313,1902.9844 621.0313,1901.7031 L621.0313,1900.5469 Q621.0313,1899.2188 621.6406,1898.0781 Q622.2656,1896.9219 623.3594,1896.3125 Q624.4531,1895.6875 625.6875,1895.6875 Q626.4219,1895.6875 627.0625,1895.8594 Q627.7188,1896.0156 628.2656,1896.375 Z " fill="#000000"/><text fill="#000000" font-family="sans-serif" font-size="14" lengthAdjust="spacing" textLength="101" x="639.5" y="1905.3535">StateRepository</text><line style="stroke:#181818;stroke-width:0.5;" x1="611.5" x2="742.5" y1="1916.5" y2="1916.5"/><line style="stroke:#181818;stroke-width:0.5;" x1="611.5" x2="742.5" y1="1924.5" y2="1924.5"/><text fill="#000000" font-family="sans-serif" font-size="14" lengthAdjust="spacing" textLength="93" x="616.5" y="1941.1738">+getStateList()</text></g><!--class DistrictRepository--><g id="elem_DistrictRepository"><rect codeLine="47" fill="#F1F1F1" height="63.6406" id="DistrictRepository" rx="2.5" ry="2.5" style="stroke:#181818;stroke-width:0.5;" width="143" x="1474.5" y="678"/><ellipse cx="1489.5" cy="694" fill="#ADD1B2" rx="11" ry="11" style="stroke:#181818;stroke-width:1.0;"/><path d="M1492.2656,689.875 Q1492.4219,689.6563 1492.6094,689.5469 Q1492.7969,689.4375 1493.0156,689.4375 Q1493.3906,689.4375 1493.625,689.7031 Q1493.8594,689.9531 1493.8594,690.5625 L1493.8594,692.0156 Q1493.8594,692.625 1493.625,692.8906 Q1493.3906,693.1563 1493.0156,693.1563 Q1492.6719,693.1563 1492.4688,692.9531 Q1492.2656,692.7656 1492.1563,692.25 Q1492.1094,691.8906 1491.9219,691.7031 Q1491.5938,691.3281 1490.9844,691.1094 Q1490.375,690.8906 1489.75,690.8906 Q1488.9844,690.8906 1488.3438,691.2188 Q1487.7188,691.5469 1487.2188,692.2969 Q1486.7344,693.0469 1486.7344,694.0781 L1486.7344,695.1719 Q1486.7344,696.4063 1487.625,697.2344 Q1488.5156,698.0469 1490.1094,698.0469 Q1491.0469,698.0469 1491.7031,697.7969 Q1492.0938,697.6406 1492.5156,697.2031 Q1492.7813,696.9375 1492.9219,696.8594 Q1493.0781,696.7813 1493.2813,696.7813 Q1493.6094,696.7813 1493.8594,697.0469 Q1494.125,697.2969 1494.125,697.6406 Q1494.125,697.9844 1493.7813,698.3906 Q1493.2813,698.9688 1492.4844,699.2969 Q1491.4063,699.75 1490.1094,699.75 Q1488.5938,699.75 1487.3906,699.125 Q1486.4063,698.625 1485.7188,697.5625 Q1485.0313,696.4844 1485.0313,695.2031 L1485.0313,694.0469 Q1485.0313,692.7188 1485.6406,691.5781 Q1486.2656,690.4219 1487.3594,689.8125 Q1488.4531,689.1875 1489.6875,689.1875 Q1490.4219,689.1875 1491.0625,689.3594 Q1491.7188,689.5156 1492.2656,689.875 Z " fill="#000000"/><text fill="#000000" font-family="sans-serif" font-size="14" lengthAdjust="spacing" textLength="111" x="1503.5" y="698.8535">DistrictRepository</text><line style="stroke:#181818;stroke-width:0.5;" x1="1475.5" x2="1616.5" y1="710" y2="710"/><line style="stroke:#181818;stroke-width:0.5;" x1="1475.5" x2="1616.5" y1="718" y2="718"/><text fill="#000000" font-family="sans-serif" font-size="14" lengthAdjust="spacing" textLength="103" x="1480.5" y="734.6738">+getDistrictList()</text></g><!--class CityRepository--><g id="elem_CityRepository"><rect codeLine="51" fill="#F1F1F1" height="63.6406" id="CityRepository" rx="2.5" ry="2.5" style="stroke:#181818;stroke-width:0.5;" width="124" x="1653" y="678"/><ellipse cx="1668" cy="694" fill="#ADD1B2" rx="11" ry="11" style="stroke:#181818;stroke-width:1.0;"/><path d="M1670.7656,689.875 Q1670.9219,689.6563 1671.1094,689.5469 Q1671.2969,689.4375 1671.5156,689.4375 Q1671.8906,689.4375 1672.125,689.7031 Q1672.3594,689.9531 1672.3594,690.5625 L1672.3594,692.0156 Q1672.3594,692.625 1672.125,692.8906 Q1671.8906,693.1563 1671.5156,693.1563 Q1671.1719,693.1563 1670.9688,692.9531 Q1670.7656,692.7656 1670.6563,692.25 Q1670.6094,691.8906 1670.4219,691.7031 Q1670.0938,691.3281 1669.4844,691.1094 Q1668.875,690.8906 1668.25,690.8906 Q1667.4844,690.8906 1666.8438,691.2188 Q1666.2188,691.5469 1665.7188,692.2969 Q1665.2344,693.0469 1665.2344,694.0781 L1665.2344,695.1719 Q1665.2344,696.4063 1666.125,697.2344 Q1667.0156,698.0469 1668.6094,698.0469 Q1669.5469,698.0469 1670.2031,697.7969 Q1670.5938,697.6406 1671.0156,697.2031 Q1671.2813,696.9375 1671.4219,696.8594 Q1671.5781,696.7813 1671.7813,696.7813 Q1672.1094,696.7813 1672.3594,697.0469 Q1672.625,697.2969 1672.625,697.6406 Q1672.625,697.9844 1672.2813,698.3906 Q1671.7813,698.9688 1670.9844,699.2969 Q1669.9063,699.75 1668.6094,699.75 Q1667.0938,699.75 1665.8906,699.125 Q1664.9063,698.625 1664.2188,697.5625 Q1663.5313,696.4844 1663.5313,695.2031 L1663.5313,694.0469 Q1663.5313,692.7188 1664.1406,691.5781 Q1664.7656,690.4219 1665.8594,689.8125 Q1666.9531,689.1875 1668.1875,689.1875 Q1668.9219,689.1875 1669.5625,689.3594 Q1670.2188,689.5156 1670.7656,689.875 Z " fill="#000000"/><text fill="#000000" font-family="sans-serif" font-size="14" lengthAdjust="spacing" textLength="92" x="1682" y="698.8535">CityRepository</text><line style="stroke:#181818;stroke-width:0.5;" x1="1654" x2="1776" y1="710" y2="710"/><line style="stroke:#181818;stroke-width:0.5;" x1="1654" x2="1776" y1="718" y2="718"/><text fill="#000000" font-family="sans-serif" font-size="14" lengthAdjust="spacing" textLength="84" x="1659" y="734.6738">+getCityList()</text></g><!--class RequestTypeRepository--><g id="elem_RequestTypeRepository"><rect codeLine="55" fill="#F1F1F1" height="63.6406" id="RequestTypeRepository" rx="2.5" ry="2.5" style="stroke:#181818;stroke-width:0.5;" width="185" x="1087.5" y="678"/><ellipse cx="1102.5" cy="694" fill="#ADD1B2" rx="11" ry="11" style="stroke:#181818;stroke-width:1.0;"/><path d="M1105.2656,689.875 Q1105.4219,689.6563 1105.6094,689.5469 Q1105.7969,689.4375 1106.0156,689.4375 Q1106.3906,689.4375 1106.625,689.7031 Q1106.8594,689.9531 1106.8594,690.5625 L1106.8594,692.0156 Q1106.8594,692.625 1106.625,692.8906 Q1106.3906,693.1563 1106.0156,693.1563 Q1105.6719,693.1563 1105.4688,692.9531 Q1105.2656,692.7656 1105.1563,692.25 Q1105.1094,691.8906 1104.9219,691.7031 Q1104.5938,691.3281 1103.9844,691.1094 Q1103.375,690.8906 1102.75,690.8906 Q1101.9844,690.8906 1101.3438,691.2188 Q1100.7188,691.5469 1100.2188,692.2969 Q1099.7344,693.0469 1099.7344,694.0781 L1099.7344,695.1719 Q1099.7344,696.4063 1100.625,697.2344 Q1101.5156,698.0469 1103.1094,698.0469 Q1104.0469,698.0469 1104.7031,697.7969 Q1105.0938,697.6406 1105.5156,697.2031 Q1105.7813,696.9375 1105.9219,696.8594 Q1106.0781,696.7813 1106.2813,696.7813 Q1106.6094,696.7813 1106.8594,697.0469 Q1107.125,697.2969 1107.125,697.6406 Q1107.125,697.9844 1106.7813,698.3906 Q1106.2813,698.9688 1105.4844,699.2969 Q1104.4063,699.75 1103.1094,699.75 Q1101.5938,699.75 1100.3906,699.125 Q1099.4063,698.625 1098.7188,697.5625 Q1098.0313,696.4844 1098.0313,695.2031 L1098.0313,694.0469 Q1098.0313,692.7188 1098.6406,691.5781 Q1099.2656,690.4219 1100.3594,689.8125 Q1101.4531,689.1875 1102.6875,689.1875 Q1103.4219,689.1875 1104.0625,689.3594 Q1104.7188,689.5156 1105.2656,689.875 Z " fill="#000000"/><text fill="#000000" font-family="sans-serif" font-size="14" lengthAdjust="spacing" textLength="153" x="1116.5" y="698.8535">RequestTypeRepository</text><line style="stroke:#181818;stroke-width:0.5;" x1="1088.5" x2="1271.5" y1="710" y2="710"/><line style="stroke:#181818;stroke-width:0.5;" x1="1088.5" x2="1271.5" y1="718" y2="718"/><text fill="#000000" font-family="sans-serif" font-size="14" lengthAdjust="spacing" textLength="145" x="1093.5" y="734.6738">+getRequestTypeList()</text></g><!--class AgencyRepository--><g id="elem_AgencyRepository"><rect codeLine="59" fill="#F1F1F1" height="79.2813" id="AgencyRepository" rx="2.5" ry="2.5" style="stroke:#181818;stroke-width:0.5;" width="147" x="1608.5" y="811"/><ellipse cx="1623.5" cy="827" fill="#ADD1B2" rx="11" ry="11" style="stroke:#181818;stroke-width:1.0;"/><path d="M1626.2656,822.875 Q1626.4219,822.6563 1626.6094,822.5469 Q1626.7969,822.4375 1627.0156,822.4375 Q1627.3906,822.4375 1627.625,822.7031 Q1627.8594,822.9531 1627.8594,823.5625 L1627.8594,825.0156 Q1627.8594,825.625 1627.625,825.8906 Q1627.3906,826.1563 1627.0156,826.1563 Q1626.6719,826.1563 1626.4688,825.9531 Q1626.2656,825.7656 1626.1563,825.25 Q1626.1094,824.8906 1625.9219,824.7031 Q1625.5938,824.3281 1624.9844,824.1094 Q1624.375,823.8906 1623.75,823.8906 Q1622.9844,823.8906 1622.3438,824.2188 Q1621.7188,824.5469 1621.2188,825.2969 Q1620.7344,826.0469 1620.7344,827.0781 L1620.7344,828.1719 Q1620.7344,829.4063 1621.625,830.2344 Q1622.5156,831.0469 1624.1094,831.0469 Q1625.0469,831.0469 1625.7031,830.7969 Q1626.0938,830.6406 1626.5156,830.2031 Q1626.7813,829.9375 1626.9219,829.8594 Q1627.0781,829.7813 1627.2813,829.7813 Q1627.6094,829.7813 1627.8594,830.0469 Q1628.125,830.2969 1628.125,830.6406 Q1628.125,830.9844 1627.7813,831.3906 Q1627.2813,831.9688 1626.4844,832.2969 Q1625.4063,832.75 1624.1094,832.75 Q1622.5938,832.75 1621.3906,832.125 Q1620.4063,831.625 1619.7188,830.5625 Q1619.0313,829.4844 1619.0313,828.2031 L1619.0313,827.0469 Q1619.0313,825.7188 1619.6406,824.5781 Q1620.2656,823.4219 1621.3594,822.8125 Q1622.4531,822.1875 1623.6875,822.1875 Q1624.4219,822.1875 1625.0625,822.3594 Q1625.7188,822.5156 1626.2656,822.875 Z " fill="#000000"/><text fill="#000000" font-family="sans-serif" font-size="14" lengthAdjust="spacing" textLength="115" x="1637.5" y="831.8535">AgencyRepository</text><line style="stroke:#181818;stroke-width:0.5;" x1="1609.5" x2="1754.5" y1="843" y2="843"/><line style="stroke:#181818;stroke-width:0.5;" x1="1609.5" x2="1754.5" y1="851" y2="851"/><text fill="#000000" font-family="sans-serif" font-size="14" lengthAdjust="spacing" textLength="107" x="1614.5" y="867.6738">+getAgencyList()</text><text fill="#000000" font-family="sans-serif" font-size="14" lengthAdjust="spacing" textLength="104" x="1614.5" y="883.3145">+getAgentsList()</text></g><!--class Photograph--><g id="elem_Photograph"><rect codeLine="64" fill="#F1F1F1" height="63.6406" id="Photograph" rx="2.5" ry="2.5" style="stroke:#181818;stroke-width:0.5;" width="106" x="959" y="1706"/><ellipse cx="974" cy="1722" fill="#ADD1B2" rx="11" ry="11" style="stroke:#181818;stroke-width:1.0;"/><path d="M976.7656,1717.875 Q976.9219,1717.6563 977.1094,1717.5469 Q977.2969,1717.4375 977.5156,1717.4375 Q977.8906,1717.4375 978.125,1717.7031 Q978.3594,1717.9531 978.3594,1718.5625 L978.3594,1720.0156 Q978.3594,1720.625 978.125,1720.8906 Q977.8906,1721.1563 977.5156,1721.1563 Q977.1719,1721.1563 976.9688,1720.9531 Q976.7656,1720.7656 976.6563,1720.25 Q976.6094,1719.8906 976.4219,1719.7031 Q976.0938,1719.3281 975.4844,1719.1094 Q974.875,1718.8906 974.25,1718.8906 Q973.4844,1718.8906 972.8438,1719.2188 Q972.2188,1719.5469 971.7188,1720.2969 Q971.2344,1721.0469 971.2344,1722.0781 L971.2344,1723.1719 Q971.2344,1724.4063 972.125,1725.2344 Q973.0156,1726.0469 974.6094,1726.0469 Q975.5469,1726.0469 976.2031,1725.7969 Q976.5938,1725.6406 977.0156,1725.2031 Q977.2813,1724.9375 977.4219,1724.8594 Q977.5781,1724.7813 977.7813,1724.7813 Q978.1094,1724.7813 978.3594,1725.0469 Q978.625,1725.2969 978.625,1725.6406 Q978.625,1725.9844 978.2813,1726.3906 Q977.7813,1726.9688 976.9844,1727.2969 Q975.9063,1727.75 974.6094,1727.75 Q973.0938,1727.75 971.8906,1727.125 Q970.9063,1726.625 970.2188,1725.5625 Q969.5313,1724.4844 969.5313,1723.2031 L969.5313,1722.0469 Q969.5313,1720.7188 970.1406,1719.5781 Q970.7656,1718.4219 971.8594,1717.8125 Q972.9531,1717.1875 974.1875,1717.1875 Q974.9219,1717.1875 975.5625,1717.3594 Q976.2188,1717.5156 976.7656,1717.875 Z " fill="#000000"/><text fill="#000000" font-family="sans-serif" font-size="14" lengthAdjust="spacing" textLength="74" x="988" y="1726.8535">Photograph</text><line style="stroke:#181818;stroke-width:0.5;" x1="960" x2="1064" y1="1738" y2="1738"/><text fill="#000000" font-family="sans-serif" font-size="14" lengthAdjust="spacing" textLength="68" x="965" y="1754.6738">-String URI</text><line style="stroke:#181818;stroke-width:0.5;" x1="960" x2="1064" y1="1761.6406" y2="1761.6406"/></g><!--class PhotographList--><g id="elem_PhotographList"><rect codeLine="69" fill="#F1F1F1" height="63.6406" id="PhotographList" rx="2.5" ry="2.5" style="stroke:#181818;stroke-width:0.5;" width="191" x="916.5" y="1884.5"/><ellipse cx="959.85" cy="1900.5" fill="#ADD1B2" rx="11" ry="11" style="stroke:#181818;stroke-width:1.0;"/><path d="M962.6156,1896.375 Q962.7719,1896.1563 962.9594,1896.0469 Q963.1469,1895.9375 963.3656,1895.9375 Q963.7406,1895.9375 963.975,1896.2031 Q964.2094,1896.4531 964.2094,1897.0625 L964.2094,1898.5156 Q964.2094,1899.125 963.975,1899.3906 Q963.7406,1899.6563 963.3656,1899.6563 Q963.0219,1899.6563 962.8188,1899.4531 Q962.6156,1899.2656 962.5063,1898.75 Q962.4594,1898.3906 962.2719,1898.2031 Q961.9438,1897.8281 961.3344,1897.6094 Q960.725,1897.3906 960.1,1897.3906 Q959.3344,1897.3906 958.6938,1897.7188 Q958.0688,1898.0469 957.5688,1898.7969 Q957.0844,1899.5469 957.0844,1900.5781 L957.0844,1901.6719 Q957.0844,1902.9063 957.975,1903.7344 Q958.8656,1904.5469 960.4594,1904.5469 Q961.3969,1904.5469 962.0531,1904.2969 Q962.4438,1904.1406 962.8656,1903.7031 Q963.1313,1903.4375 963.2719,1903.3594 Q963.4281,1903.2813 963.6313,1903.2813 Q963.9594,1903.2813 964.2094,1903.5469 Q964.475,1903.7969 964.475,1904.1406 Q964.475,1904.4844 964.1313,1904.8906 Q963.6313,1905.4688 962.8344,1905.7969 Q961.7563,1906.25 960.4594,1906.25 Q958.9438,1906.25 957.7406,1905.625 Q956.7563,1905.125 956.0688,1904.0625 Q955.3813,1902.9844 955.3813,1901.7031 L955.3813,1900.5469 Q955.3813,1899.2188 955.9906,1898.0781 Q956.6156,1896.9219 957.7094,1896.3125 Q958.8031,1895.6875 960.0375,1895.6875 Q960.7719,1895.6875 961.4125,1895.8594 Q962.0688,1896.0156 962.6156,1896.375 Z " fill="#000000"/><text fill="#000000" font-family="sans-serif" font-size="14" lengthAdjust="spacing" textLength="96" x="980.15" y="1905.3535">PhotographList</text><line style="stroke:#181818;stroke-width:0.5;" x1="917.5" x2="1106.5" y1="1916.5" y2="1916.5"/><text fill="#000000" font-family="sans-serif" font-size="14" lengthAdjust="spacing" textLength="179" x="922.5" y="1933.1738">-addPhotographToPhotoList</text><line style="stroke:#181818;stroke-width:0.5;" x1="917.5" x2="1106.5" y1="1940.1406" y2="1940.1406"/></g><!--class Request--><g id="elem_Request"><rect codeLine="73" fill="#F1F1F1" height="94.9219" id="Request" rx="2.5" ry="2.5" style="stroke:#181818;stroke-width:0.5;" width="143" x="1229.5" y="1309"/><ellipse cx="1270.6" cy="1325" fill="#ADD1B2" rx="11" ry="11" style="stroke:#181818;stroke-width:1.0;"/><path d="M1273.3656,1320.875 Q1273.5219,1320.6563 1273.7094,1320.5469 Q1273.8969,1320.4375 1274.1156,1320.4375 Q1274.4906,1320.4375 1274.725,1320.7031 Q1274.9594,1320.9531 1274.9594,1321.5625 L1274.9594,1323.0156 Q1274.9594,1323.625 1274.725,1323.8906 Q1274.4906,1324.1563 1274.1156,1324.1563 Q1273.7719,1324.1563 1273.5688,1323.9531 Q1273.3656,1323.7656 1273.2563,1323.25 Q1273.2094,1322.8906 1273.0219,1322.7031 Q1272.6938,1322.3281 1272.0844,1322.1094 Q1271.475,1321.8906 1270.85,1321.8906 Q1270.0844,1321.8906 1269.4438,1322.2188 Q1268.8188,1322.5469 1268.3188,1323.2969 Q1267.8344,1324.0469 1267.8344,1325.0781 L1267.8344,1326.1719 Q1267.8344,1327.4063 1268.725,1328.2344 Q1269.6156,1329.0469 1271.2094,1329.0469 Q1272.1469,1329.0469 1272.8031,1328.7969 Q1273.1938,1328.6406 1273.6156,1328.2031 Q1273.8813,1327.9375 1274.0219,1327.8594 Q1274.1781,1327.7813 1274.3813,1327.7813 Q1274.7094,1327.7813 1274.9594,1328.0469 Q1275.225,1328.2969 1275.225,1328.6406 Q1275.225,1328.9844 1274.8813,1329.3906 Q1274.3813,1329.9688 1273.5844,1330.2969 Q1272.5063,1330.75 1271.2094,1330.75 Q1269.6938,1330.75 1268.4906,1330.125 Q1267.5063,1329.625 1266.8188,1328.5625 Q1266.1313,1327.4844 1266.1313,1326.2031 L1266.1313,1325.0469 Q1266.1313,1323.7188 1266.7406,1322.5781 Q1267.3656,1321.4219 1268.4594,1320.8125 Q1269.5531,1320.1875 1270.7875,1320.1875 Q1271.5219,1320.1875 1272.1625,1320.3594 Q1272.8188,1320.5156 1273.3656,1320.875 Z " fill="#000000"/><text fill="#000000" font-family="sans-serif" font-size="14" lengthAdjust="spacing" textLength="53" x="1290.4" y="1329.8535">Request</text><line style="stroke:#181818;stroke-width:0.5;" x1="1230.5" x2="1371.5" y1="1341" y2="1341"/><text fill="#000000" font-family="sans-serif" font-size="14" lengthAdjust="spacing" textLength="131" x="1235.5" y="1357.6738">-String propertyType</text><text fill="#000000" font-family="sans-serif" font-size="14" lengthAdjust="spacing" textLength="126" x="1235.5" y="1373.3145">-String requestType</text><text fill="#000000" font-family="sans-serif" font-size="14" lengthAdjust="spacing" textLength="121" x="1235.5" y="1388.9551">-String currentDate</text><line style="stroke:#181818;stroke-width:0.5;" x1="1230.5" x2="1371.5" y1="1395.9219" y2="1395.9219"/></g><!--class Property--><g id="elem_Property"><rect codeLine="79" fill="#F1F1F1" height="110.5625" id="Property" rx="2.5" ry="2.5" style="stroke:#181818;stroke-width:0.5;" width="412" x="730" y="1488"/><ellipse cx="904.75" cy="1504" fill="#ADD1B2" rx="11" ry="11" style="stroke:#181818;stroke-width:1.0;"/><path d="M907.5156,1499.875 Q907.6719,1499.6563 907.8594,1499.5469 Q908.0469,1499.4375 908.2656,1499.4375 Q908.6406,1499.4375 908.875,1499.7031 Q909.1094,1499.9531 909.1094,1500.5625 L909.1094,1502.0156 Q909.1094,1502.625 908.875,1502.8906 Q908.6406,1503.1563 908.2656,1503.1563 Q907.9219,1503.1563 907.7188,1502.9531 Q907.5156,1502.7656 907.4063,1502.25 Q907.3594,1501.8906 907.1719,1501.7031 Q906.8438,1501.3281 906.2344,1501.1094 Q905.625,1500.8906 905,1500.8906 Q904.2344,1500.8906 903.5938,1501.2188 Q902.9688,1501.5469 902.4688,1502.2969 Q901.9844,1503.0469 901.9844,1504.0781 L901.9844,1505.1719 Q901.9844,1506.4063 902.875,1507.2344 Q903.7656,1508.0469 905.3594,1508.0469 Q906.2969,1508.0469 906.9531,1507.7969 Q907.3438,1507.6406 907.7656,1507.2031 Q908.0313,1506.9375 908.1719,1506.8594 Q908.3281,1506.7813 908.5313,1506.7813 Q908.8594,1506.7813 909.1094,1507.0469 Q909.375,1507.2969 909.375,1507.6406 Q909.375,1507.9844 909.0313,1508.3906 Q908.5313,1508.9688 907.7344,1509.2969 Q906.6563,1509.75 905.3594,1509.75 Q903.8438,1509.75 902.6406,1509.125 Q901.6563,1508.625 900.9688,1507.5625 Q900.2813,1506.4844 900.2813,1505.2031 L900.2813,1504.0469 Q900.2813,1502.7188 900.8906,1501.5781 Q901.5156,1500.4219 902.6094,1499.8125 Q903.7031,1499.1875 904.9375,1499.1875 Q905.6719,1499.1875 906.3125,1499.3594 Q906.9688,1499.5156 907.5156,1499.875 Z " fill="#000000"/><text fill="#000000" font-family="sans-serif" font-size="14" lengthAdjust="spacing" textLength="54" x="925.25" y="1508.8535">Property</text><line style="stroke:#181818;stroke-width:0.5;" x1="731" x2="1141" y1="1520" y2="1520"/><text fill="#000000" font-family="sans-serif" font-size="14" lengthAdjust="spacing" textLength="81" x="736" y="1536.6738">-double area</text><text fill="#000000" font-family="sans-serif" font-size="14" lengthAdjust="spacing" textLength="205" x="736" y="1552.3145">-double distanceFromCityCenter</text><text fill="#000000" font-family="sans-serif" font-size="14" lengthAdjust="spacing" textLength="83" x="736" y="1567.9551">-double price</text><line style="stroke:#181818;stroke-width:0.5;" x1="731" x2="1141" y1="1574.9219" y2="1574.9219"/><text fill="#000000" font-family="sans-serif" font-size="14" lengthAdjust="spacing" textLength="400" x="736" y="1591.5957">+createProperty(area, distanceFromCityCenter, address, price)</text></g><!--class Residence--><g id="elem_Residence"><rect codeLine="86" fill="#F1F1F1" height="110.5625" id="Residence" rx="2.5" ry="2.5" style="stroke:#181818;stroke-width:0.5;" width="700" x="130" y="1301"/><ellipse cx="442.25" cy="1317" fill="#ADD1B2" rx="11" ry="11" style="stroke:#181818;stroke-width:1.0;"/><path d="M445.0156,1312.875 Q445.1719,1312.6563 445.3594,1312.5469 Q445.5469,1312.4375 445.7656,1312.4375 Q446.1406,1312.4375 446.375,1312.7031 Q446.6094,1312.9531 446.6094,1313.5625 L446.6094,1315.0156 Q446.6094,1315.625 446.375,1315.8906 Q446.1406,1316.1563 445.7656,1316.1563 Q445.4219,1316.1563 445.2188,1315.9531 Q445.0156,1315.7656 444.9063,1315.25 Q444.8594,1314.8906 444.6719,1314.7031 Q444.3438,1314.3281 443.7344,1314.1094 Q443.125,1313.8906 442.5,1313.8906 Q441.7344,1313.8906 441.0938,1314.2188 Q440.4688,1314.5469 439.9688,1315.2969 Q439.4844,1316.0469 439.4844,1317.0781 L439.4844,1318.1719 Q439.4844,1319.4063 440.375,1320.2344 Q441.2656,1321.0469 442.8594,1321.0469 Q443.7969,1321.0469 444.4531,1320.7969 Q444.8438,1320.6406 445.2656,1320.2031 Q445.5313,1319.9375 445.6719,1319.8594 Q445.8281,1319.7813 446.0313,1319.7813 Q446.3594,1319.7813 446.6094,1320.0469 Q446.875,1320.2969 446.875,1320.6406 Q446.875,1320.9844 446.5313,1321.3906 Q446.0313,1321.9688 445.2344,1322.2969 Q444.1563,1322.75 442.8594,1322.75 Q441.3438,1322.75 440.1406,1322.125 Q439.1563,1321.625 438.4688,1320.5625 Q437.7813,1319.4844 437.7813,1318.2031 L437.7813,1317.0469 Q437.7813,1315.7188 438.3906,1314.5781 Q439.0156,1313.4219 440.1094,1312.8125 Q441.2031,1312.1875 442.4375,1312.1875 Q443.1719,1312.1875 443.8125,1312.3594 Q444.4688,1312.5156 445.0156,1312.875 Z " fill="#000000"/><text fill="#000000" font-family="sans-serif" font-size="14" lengthAdjust="spacing" textLength="67" x="462.75" y="1321.8535">Residence</text><line style="stroke:#181818;stroke-width:0.5;" x1="131" x2="829" y1="1333" y2="1333"/><text fill="#000000" font-family="sans-serif" font-size="14" lengthAdjust="spacing" textLength="179" x="136" y="1349.6738">-double numberOfBedrooms</text><text fill="#000000" font-family="sans-serif" font-size="14" lengthAdjust="spacing" textLength="183" x="136" y="1365.3145">-double numberOfBathrooms</text><text fill="#000000" font-family="sans-serif" font-size="14" lengthAdjust="spacing" textLength="210" x="136" y="1380.9551">-double numberOfParkingSpaces</text><line style="stroke:#181818;stroke-width:0.5;" x1="131" x2="829" y1="1387.9219" y2="1387.9219"/><text fill="#000000" font-family="sans-serif" font-size="14" lengthAdjust="spacing" textLength="688" x="136" y="1404.5957">+createResidence(numberOfBedrooms, numberOfBathrooms, numberOfParkingSpaces, availableEquipment)</text></g><!--class AvailableEquipment--><g id="elem_AvailableEquipment"><rect codeLine="93" fill="#F1F1F1" height="63.6406" id="AvailableEquipment" rx="2.5" ry="2.5" style="stroke:#181818;stroke-width:0.5;" width="156" x="402" y="1511.5"/><ellipse cx="417" cy="1527.5" fill="#ADD1B2" rx="11" ry="11" style="stroke:#181818;stroke-width:1.0;"/><path d="M419.7656,1523.375 Q419.9219,1523.1563 420.1094,1523.0469 Q420.2969,1522.9375 420.5156,1522.9375 Q420.8906,1522.9375 421.125,1523.2031 Q421.3594,1523.4531 421.3594,1524.0625 L421.3594,1525.5156 Q421.3594,1526.125 421.125,1526.3906 Q420.8906,1526.6563 420.5156,1526.6563 Q420.1719,1526.6563 419.9688,1526.4531 Q419.7656,1526.2656 419.6563,1525.75 Q419.6094,1525.3906 419.4219,1525.2031 Q419.0938,1524.8281 418.4844,1524.6094 Q417.875,1524.3906 417.25,1524.3906 Q416.4844,1524.3906 415.8438,1524.7188 Q415.2188,1525.0469 414.7188,1525.7969 Q414.2344,1526.5469 414.2344,1527.5781 L414.2344,1528.6719 Q414.2344,1529.9063 415.125,1530.7344 Q416.0156,1531.5469 417.6094,1531.5469 Q418.5469,1531.5469 419.2031,1531.2969 Q419.5938,1531.1406 420.0156,1530.7031 Q420.2813,1530.4375 420.4219,1530.3594 Q420.5781,1530.2813 420.7813,1530.2813 Q421.1094,1530.2813 421.3594,1530.5469 Q421.625,1530.7969 421.625,1531.1406 Q421.625,1531.4844 421.2813,1531.8906 Q420.7813,1532.4688 419.9844,1532.7969 Q418.9063,1533.25 417.6094,1533.25 Q416.0938,1533.25 414.8906,1532.625 Q413.9063,1532.125 413.2188,1531.0625 Q412.5313,1529.9844 412.5313,1528.7031 L412.5313,1527.5469 Q412.5313,1526.2188 413.1406,1525.0781 Q413.7656,1523.9219 414.8594,1523.3125 Q415.9531,1522.6875 417.1875,1522.6875 Q417.9219,1522.6875 418.5625,1522.8594 Q419.2188,1523.0156 419.7656,1523.375 Z " fill="#000000"/><text fill="#000000" font-family="sans-serif" font-size="14" lengthAdjust="spacing" textLength="124" x="431" y="1532.3535">AvailableEquipment</text><line style="stroke:#181818;stroke-width:0.5;" x1="403" x2="557" y1="1543.5" y2="1543.5"/><text fill="#000000" font-family="sans-serif" font-size="14" lengthAdjust="spacing" textLength="126" x="408" y="1560.1738">-boolean equipment</text><line style="stroke:#181818;stroke-width:0.5;" x1="403" x2="557" y1="1567.1406" y2="1567.1406"/></g><!--class House--><g id="elem_House"><rect codeLine="97" fill="#F1F1F1" height="94.9219" id="House" rx="2.5" ry="2.5" style="stroke:#181818;stroke-width:0.5;" width="447" x="395.5" y="1130"/><ellipse cx="594.75" cy="1146" fill="#ADD1B2" rx="11" ry="11" style="stroke:#181818;stroke-width:1.0;"/><path d="M597.5156,1141.875 Q597.6719,1141.6563 597.8594,1141.5469 Q598.0469,1141.4375 598.2656,1141.4375 Q598.6406,1141.4375 598.875,1141.7031 Q599.1094,1141.9531 599.1094,1142.5625 L599.1094,1144.0156 Q599.1094,1144.625 598.875,1144.8906 Q598.6406,1145.1563 598.2656,1145.1563 Q597.9219,1145.1563 597.7188,1144.9531 Q597.5156,1144.7656 597.4063,1144.25 Q597.3594,1143.8906 597.1719,1143.7031 Q596.8438,1143.3281 596.2344,1143.1094 Q595.625,1142.8906 595,1142.8906 Q594.2344,1142.8906 593.5938,1143.2188 Q592.9688,1143.5469 592.4688,1144.2969 Q591.9844,1145.0469 591.9844,1146.0781 L591.9844,1147.1719 Q591.9844,1148.4063 592.875,1149.2344 Q593.7656,1150.0469 595.3594,1150.0469 Q596.2969,1150.0469 596.9531,1149.7969 Q597.3438,1149.6406 597.7656,1149.2031 Q598.0313,1148.9375 598.1719,1148.8594 Q598.3281,1148.7813 598.5313,1148.7813 Q598.8594,1148.7813 599.1094,1149.0469 Q599.375,1149.2969 599.375,1149.6406 Q599.375,1149.9844 599.0313,1150.3906 Q598.5313,1150.9688 597.7344,1151.2969 Q596.6563,1151.75 595.3594,1151.75 Q593.8438,1151.75 592.6406,1151.125 Q591.6563,1150.625 590.9688,1149.5625 Q590.2813,1148.4844 590.2813,1147.2031 L590.2813,1146.0469 Q590.2813,1144.7188 590.8906,1143.5781 Q591.5156,1142.4219 592.6094,1141.8125 Q593.7031,1141.1875 594.9375,1141.1875 Q595.6719,1141.1875 596.3125,1141.3594 Q596.9688,1141.5156 597.5156,1141.875 Z " fill="#000000"/><text fill="#000000" font-family="sans-serif" font-size="14" lengthAdjust="spacing" textLength="40" x="615.25" y="1150.8535">House</text><line style="stroke:#181818;stroke-width:0.5;" x1="396.5" x2="841.5" y1="1162" y2="1162"/><text fill="#000000" font-family="sans-serif" font-size="14" lengthAdjust="spacing" textLength="206" x="401.5" y="1178.6738">-boolean existenceOfABasement</text><text fill="#000000" font-family="sans-serif" font-size="14" lengthAdjust="spacing" textLength="153" x="401.5" y="1194.3145">-boolean inhabitableLoft</text><line style="stroke:#181818;stroke-width:0.5;" x1="396.5" x2="841.5" y1="1201.2813" y2="1201.2813"/><text fill="#000000" font-family="sans-serif" font-size="14" lengthAdjust="spacing" textLength="435" x="401.5" y="1217.9551">+createHouse(existenceOfABasement, inhabitableLoft, sunExposure)</text></g><!--class SunExposure--><g id="elem_SunExposure"><rect codeLine="103" fill="#F1F1F1" height="63.6406" id="SunExposure" rx="2.5" ry="2.5" style="stroke:#181818;stroke-width:0.5;" width="116" x="865" y="1324.5"/><ellipse cx="880" cy="1340.5" fill="#EB937F" rx="11" ry="11" style="stroke:#181818;stroke-width:1.0;"/><path d="M878.8594,1341.2969 L878.8594,1343.7969 L883.1875,1343.7969 L883.1875,1342.875 Q883.1875,1342.2656 883.4219,1342 Q883.6719,1341.7344 884.0469,1341.7344 Q884.4219,1341.7344 884.6563,1342 Q884.8906,1342.2656 884.8906,1342.875 L884.8906,1345.5 L876.8906,1345.5 Q876.2656,1345.5 876,1345.2656 Q875.75,1345.0313 875.75,1344.6406 Q875.75,1344.2656 876.0156,1344.0313 Q876.2813,1343.7969 876.8906,1343.7969 L877.1563,1343.7969 L877.1563,1337.1406 L876.8906,1337.1406 Q876.2656,1337.1406 876,1336.9063 Q875.75,1336.6719 875.75,1336.2813 Q875.75,1335.9063 876,1335.6719 Q876.2656,1335.4375 876.8906,1335.4375 L884.5156,1335.4375 L884.5156,1338.0313 Q884.5156,1338.6406 884.2813,1338.9063 Q884.0625,1339.1563 883.6719,1339.1563 Q883.2969,1339.1563 883.0625,1338.9063 Q882.8281,1338.6406 882.8281,1338.0313 L882.8281,1337.1406 L878.8594,1337.1406 L878.8594,1339.5938 L880.3438,1339.5938 Q880.3438,1338.9375 880.4688,1338.75 Q880.7344,1338.3438 881.2031,1338.3438 Q881.5781,1338.3438 881.8125,1338.6094 Q882.0469,1338.8594 882.0469,1339.4688 L882.0469,1341.4375 Q882.0469,1341.9844 881.9219,1342.1719 Q881.6563,1342.5625 881.2031,1342.5625 Q880.7344,1342.5625 880.4688,1342.1563 Q880.3438,1341.9688 880.3438,1341.2969 L878.8594,1341.2969 Z " fill="#000000"/><text fill="#000000" font-family="sans-serif" font-size="14" lengthAdjust="spacing" textLength="84" x="894" y="1345.3535">SunExposure</text><line style="stroke:#181818;stroke-width:0.5;" x1="866" x2="980" y1="1356.5" y2="1356.5"/><text fill="#000000" font-family="sans-serif" font-size="14" lengthAdjust="spacing" textLength="82" x="871" y="1373.1738">sunExposure</text><line style="stroke:#181818;stroke-width:0.5;" x1="866" x2="980" y1="1380.1406" y2="1380.1406"/></g><!--class Address--><g id="elem_Address"><rect codeLine="107" fill="#F1F1F1" height="126.2031" id="Address" rx="2.5" ry="2.5" style="stroke:#181818;stroke-width:0.5;" width="557" x="1396.5" y="1675"/><ellipse cx="1644.75" cy="1691" fill="#ADD1B2" rx="11" ry="11" style="stroke:#181818;stroke-width:1.0;"/><path d="M1647.5156,1686.875 Q1647.6719,1686.6563 1647.8594,1686.5469 Q1648.0469,1686.4375 1648.2656,1686.4375 Q1648.6406,1686.4375 1648.875,1686.7031 Q1649.1094,1686.9531 1649.1094,1687.5625 L1649.1094,1689.0156 Q1649.1094,1689.625 1648.875,1689.8906 Q1648.6406,1690.1563 1648.2656,1690.1563 Q1647.9219,1690.1563 1647.7188,1689.9531 Q1647.5156,1689.7656 1647.4063,1689.25 Q1647.3594,1688.8906 1647.1719,1688.7031 Q1646.8438,1688.3281 1646.2344,1688.1094 Q1645.625,1687.8906 1645,1687.8906 Q1644.2344,1687.8906 1643.5938,1688.2188 Q1642.9688,1688.5469 1642.4688,1689.2969 Q1641.9844,1690.0469 1641.9844,1691.0781 L1641.9844,1692.1719 Q1641.9844,1693.4063 1642.875,1694.2344 Q1643.7656,1695.0469 1645.3594,1695.0469 Q1646.2969,1695.0469 1646.9531,1694.7969 Q1647.3438,1694.6406 1647.7656,1694.2031 Q1648.0313,1693.9375 1648.1719,1693.8594 Q1648.3281,1693.7813 1648.5313,1693.7813 Q1648.8594,1693.7813 1649.1094,1694.0469 Q1649.375,1694.2969 1649.375,1694.6406 Q1649.375,1694.9844 1649.0313,1695.3906 Q1648.5313,1695.9688 1647.7344,1696.2969 Q1646.6563,1696.75 1645.3594,1696.75 Q1643.8438,1696.75 1642.6406,1696.125 Q1641.6563,1695.625 1640.9688,1694.5625 Q1640.2813,1693.4844 1640.2813,1692.2031 L1640.2813,1691.0469 Q1640.2813,1689.7188 1640.8906,1688.5781 Q1641.5156,1687.4219 1642.6094,1686.8125 Q1643.7031,1686.1875 1644.9375,1686.1875 Q1645.6719,1686.1875 1646.3125,1686.3594 Q1646.9688,1686.5156 1647.5156,1686.875 Z " fill="#000000"/><text fill="#000000" font-family="sans-serif" font-size="14" lengthAdjust="spacing" textLength="52" x="1665.25" y="1695.8535">Address</text><line style="stroke:#181818;stroke-width:0.5;" x1="1397.5" x2="1952.5" y1="1707" y2="1707"/><text fill="#000000" font-family="sans-serif" font-size="14" lengthAdjust="spacing" textLength="102" x="1402.5" y="1723.6738">-int doorNumber</text><text fill="#000000" font-family="sans-serif" font-size="14" lengthAdjust="spacing" textLength="101" x="1402.5" y="1739.3145">-int floorNumber</text><text fill="#000000" font-family="sans-serif" font-size="14" lengthAdjust="spacing" textLength="97" x="1402.5" y="1754.9551">-String zipCode</text><text fill="#000000" font-family="sans-serif" font-size="14" lengthAdjust="spacing" textLength="134" x="1402.5" y="1770.5957">-String streetAddress</text><line style="stroke:#181818;stroke-width:0.5;" x1="1397.5" x2="1952.5" y1="1777.5625" y2="1777.5625"/><text fill="#000000" font-family="sans-serif" font-size="14" lengthAdjust="spacing" textLength="545" x="1402.5" y="1794.2363">+createAddress(doorNumber, floorNumber, zipCode, streetAddress, city, district, state)</text></g><!--class State--><g id="elem_State"><rect codeLine="115" fill="#F1F1F1" height="79.2813" id="State" rx="2.5" ry="2.5" style="stroke:#181818;stroke-width:0.5;" width="130" x="612" y="2017"/><ellipse cx="656.25" cy="2033" fill="#ADD1B2" rx="11" ry="11" style="stroke:#181818;stroke-width:1.0;"/><path d="M659.0156,2028.875 Q659.1719,2028.6563 659.3594,2028.5469 Q659.5469,2028.4375 659.7656,2028.4375 Q660.1406,2028.4375 660.375,2028.7031 Q660.6094,2028.9531 660.6094,2029.5625 L660.6094,2031.0156 Q660.6094,2031.625 660.375,2031.8906 Q660.1406,2032.1563 659.7656,2032.1563 Q659.4219,2032.1563 659.2188,2031.9531 Q659.0156,2031.7656 658.9063,2031.25 Q658.8594,2030.8906 658.6719,2030.7031 Q658.3438,2030.3281 657.7344,2030.1094 Q657.125,2029.8906 656.5,2029.8906 Q655.7344,2029.8906 655.0938,2030.2188 Q654.4688,2030.5469 653.9688,2031.2969 Q653.4844,2032.0469 653.4844,2033.0781 L653.4844,2034.1719 Q653.4844,2035.4063 654.375,2036.2344 Q655.2656,2037.0469 656.8594,2037.0469 Q657.7969,2037.0469 658.4531,2036.7969 Q658.8438,2036.6406 659.2656,2036.2031 Q659.5313,2035.9375 659.6719,2035.8594 Q659.8281,2035.7813 660.0313,2035.7813 Q660.3594,2035.7813 660.6094,2036.0469 Q660.875,2036.2969 660.875,2036.6406 Q660.875,2036.9844 660.5313,2037.3906 Q660.0313,2037.9688 659.2344,2038.2969 Q658.1563,2038.75 656.8594,2038.75 Q655.3438,2038.75 654.1406,2038.125 Q653.1563,2037.625 652.4688,2036.5625 Q651.7813,2035.4844 651.7813,2034.2031 L651.7813,2033.0469 Q651.7813,2031.7188 652.3906,2030.5781 Q653.0156,2029.4219 654.1094,2028.8125 Q655.2031,2028.1875 656.4375,2028.1875 Q657.1719,2028.1875 657.8125,2028.3594 Q658.4688,2028.5156 659.0156,2028.875 Z " fill="#000000"/><text fill="#000000" font-family="sans-serif" font-size="14" lengthAdjust="spacing" textLength="33" x="676.75" y="2037.8535">State</text><line style="stroke:#181818;stroke-width:0.5;" x1="613" x2="741" y1="2049" y2="2049"/><text fill="#000000" font-family="sans-serif" font-size="14" lengthAdjust="spacing" textLength="113" x="618" y="2065.6738">-String stateName</text><line style="stroke:#181818;stroke-width:0.5;" x1="613" x2="741" y1="2072.6406" y2="2072.6406"/><text fill="#000000" font-family="sans-serif" font-size="14" lengthAdjust="spacing" textLength="118" x="618" y="2089.3145">+State(stateName)</text></g><!--class District--><g id="elem_District"><rect codeLine="120" fill="#F1F1F1" height="79.2813" id="District" rx="2.5" ry="2.5" style="stroke:#181818;stroke-width:0.5;" width="154" x="1675" y="1877"/><ellipse cx="1726.25" cy="1893" fill="#ADD1B2" rx="11" ry="11" style="stroke:#181818;stroke-width:1.0;"/><path d="M1729.0156,1888.875 Q1729.1719,1888.6563 1729.3594,1888.5469 Q1729.5469,1888.4375 1729.7656,1888.4375 Q1730.1406,1888.4375 1730.375,1888.7031 Q1730.6094,1888.9531 1730.6094,1889.5625 L1730.6094,1891.0156 Q1730.6094,1891.625 1730.375,1891.8906 Q1730.1406,1892.1563 1729.7656,1892.1563 Q1729.4219,1892.1563 1729.2188,1891.9531 Q1729.0156,1891.7656 1728.9063,1891.25 Q1728.8594,1890.8906 1728.6719,1890.7031 Q1728.3438,1890.3281 1727.7344,1890.1094 Q1727.125,1889.8906 1726.5,1889.8906 Q1725.7344,1889.8906 1725.0938,1890.2188 Q1724.4688,1890.5469 1723.9688,1891.2969 Q1723.4844,1892.0469 1723.4844,1893.0781 L1723.4844,1894.1719 Q1723.4844,1895.4063 1724.375,1896.2344 Q1725.2656,1897.0469 1726.8594,1897.0469 Q1727.7969,1897.0469 1728.4531,1896.7969 Q1728.8438,1896.6406 1729.2656,1896.2031 Q1729.5313,1895.9375 1729.6719,1895.8594 Q1729.8281,1895.7813 1730.0313,1895.7813 Q1730.3594,1895.7813 1730.6094,1896.0469 Q1730.875,1896.2969 1730.875,1896.6406 Q1730.875,1896.9844 1730.5313,1897.3906 Q1730.0313,1897.9688 1729.2344,1898.2969 Q1728.1563,1898.75 1726.8594,1898.75 Q1725.3438,1898.75 1724.1406,1898.125 Q1723.1563,1897.625 1722.4688,1896.5625 Q1721.7813,1895.4844 1721.7813,1894.2031 L1721.7813,1893.0469 Q1721.7813,1891.7188 1722.3906,1890.5781 Q1723.0156,1889.4219 1724.1094,1888.8125 Q1725.2031,1888.1875 1726.4375,1888.1875 Q1727.1719,1888.1875 1727.8125,1888.3594 Q1728.4688,1888.5156 1729.0156,1888.875 Z " fill="#000000"/><text fill="#000000" font-family="sans-serif" font-size="14" lengthAdjust="spacing" textLength="43" x="1746.75" y="1897.8535">District</text><line style="stroke:#181818;stroke-width:0.5;" x1="1676" x2="1828" y1="1909" y2="1909"/><text fill="#000000" font-family="sans-serif" font-size="14" lengthAdjust="spacing" textLength="123" x="1681" y="1925.6738">-String districtName</text><line style="stroke:#181818;stroke-width:0.5;" x1="1676" x2="1828" y1="1932.6406" y2="1932.6406"/><text fill="#000000" font-family="sans-serif" font-size="14" lengthAdjust="spacing" textLength="142" x="1681" y="1949.3145">+District (districtName)</text></g><!--class City--><g id="elem_City"><rect codeLine="125" fill="#F1F1F1" height="79.2813" id="City" rx="2.5" ry="2.5" style="stroke:#181818;stroke-width:0.5;" width="115" x="1980.5" y="1877"/><ellipse cx="2022.05" cy="1893" fill="#ADD1B2" rx="11" ry="11" style="stroke:#181818;stroke-width:1.0;"/><path d="M2024.8156,1888.875 Q2024.9719,1888.6563 2025.1594,1888.5469 Q2025.3469,1888.4375 2025.5656,1888.4375 Q2025.9406,1888.4375 2026.175,1888.7031 Q2026.4094,1888.9531 2026.4094,1889.5625 L2026.4094,1891.0156 Q2026.4094,1891.625 2026.175,1891.8906 Q2025.9406,1892.1563 2025.5656,1892.1563 Q2025.2219,1892.1563 2025.0188,1891.9531 Q2024.8156,1891.7656 2024.7063,1891.25 Q2024.6594,1890.8906 2024.4719,1890.7031 Q2024.1438,1890.3281 2023.5344,1890.1094 Q2022.925,1889.8906 2022.3,1889.8906 Q2021.5344,1889.8906 2020.8938,1890.2188 Q2020.2688,1890.5469 2019.7688,1891.2969 Q2019.2844,1892.0469 2019.2844,1893.0781 L2019.2844,1894.1719 Q2019.2844,1895.4063 2020.175,1896.2344 Q2021.0656,1897.0469 2022.6594,1897.0469 Q2023.5969,1897.0469 2024.2531,1896.7969 Q2024.6438,1896.6406 2025.0656,1896.2031 Q2025.3313,1895.9375 2025.4719,1895.8594 Q2025.6281,1895.7813 2025.8313,1895.7813 Q2026.1594,1895.7813 2026.4094,1896.0469 Q2026.675,1896.2969 2026.675,1896.6406 Q2026.675,1896.9844 2026.3313,1897.3906 Q2025.8313,1897.9688 2025.0344,1898.2969 Q2023.9563,1898.75 2022.6594,1898.75 Q2021.1438,1898.75 2019.9406,1898.125 Q2018.9563,1897.625 2018.2688,1896.5625 Q2017.5813,1895.4844 2017.5813,1894.2031 L2017.5813,1893.0469 Q2017.5813,1891.7188 2018.1906,1890.5781 Q2018.8156,1889.4219 2019.9094,1888.8125 Q2021.0031,1888.1875 2022.2375,1888.1875 Q2022.9719,1888.1875 2023.6125,1888.3594 Q2024.2688,1888.5156 2024.8156,1888.875 Z " fill="#000000"/><text fill="#000000" font-family="sans-serif" font-size="14" lengthAdjust="spacing" textLength="24" x="2041.95" y="1897.8535">City</text><line style="stroke:#181818;stroke-width:0.5;" x1="1981.5" x2="2094.5" y1="1909" y2="1909"/><text fill="#000000" font-family="sans-serif" font-size="14" lengthAdjust="spacing" textLength="103" x="1986.5" y="1925.6738">-String cityName</text><line style="stroke:#181818;stroke-width:0.5;" x1="1981.5" x2="2094.5" y1="1932.6406" y2="1932.6406"/><text fill="#000000" font-family="sans-serif" font-size="14" lengthAdjust="spacing" textLength="103" x="1986.5" y="1949.3145">+City (cityName)</text></g><!--class Rent--><g id="elem_Rent"><rect codeLine="130" fill="#F1F1F1" height="63.6406" id="Rent" rx="2.5" ry="2.5" style="stroke:#181818;stroke-width:0.5;" width="141" x="1204.5" y="1706"/><ellipse cx="1255.75" cy="1722" fill="#ADD1B2" rx="11" ry="11" style="stroke:#181818;stroke-width:1.0;"/><path d="M1258.5156,1717.875 Q1258.6719,1717.6563 1258.8594,1717.5469 Q1259.0469,1717.4375 1259.2656,1717.4375 Q1259.6406,1717.4375 1259.875,1717.7031 Q1260.1094,1717.9531 1260.1094,1718.5625 L1260.1094,1720.0156 Q1260.1094,1720.625 1259.875,1720.8906 Q1259.6406,1721.1563 1259.2656,1721.1563 Q1258.9219,1721.1563 1258.7188,1720.9531 Q1258.5156,1720.7656 1258.4063,1720.25 Q1258.3594,1719.8906 1258.1719,1719.7031 Q1257.8438,1719.3281 1257.2344,1719.1094 Q1256.625,1718.8906 1256,1718.8906 Q1255.2344,1718.8906 1254.5938,1719.2188 Q1253.9688,1719.5469 1253.4688,1720.2969 Q1252.9844,1721.0469 1252.9844,1722.0781 L1252.9844,1723.1719 Q1252.9844,1724.4063 1253.875,1725.2344 Q1254.7656,1726.0469 1256.3594,1726.0469 Q1257.2969,1726.0469 1257.9531,1725.7969 Q1258.3438,1725.6406 1258.7656,1725.2031 Q1259.0313,1724.9375 1259.1719,1724.8594 Q1259.3281,1724.7813 1259.5313,1724.7813 Q1259.8594,1724.7813 1260.1094,1725.0469 Q1260.375,1725.2969 1260.375,1725.6406 Q1260.375,1725.9844 1260.0313,1726.3906 Q1259.5313,1726.9688 1258.7344,1727.2969 Q1257.6563,1727.75 1256.3594,1727.75 Q1254.8438,1727.75 1253.6406,1727.125 Q1252.6563,1726.625 1251.9688,1725.5625 Q1251.2813,1724.4844 1251.2813,1723.2031 L1251.2813,1722.0469 Q1251.2813,1720.7188 1251.8906,1719.5781 Q1252.5156,1718.4219 1253.6094,1717.8125 Q1254.7031,1717.1875 1255.9375,1717.1875 Q1256.6719,1717.1875 1257.3125,1717.3594 Q1257.9688,1717.5156 1258.5156,1717.875 Z " fill="#000000"/><text fill="#000000" font-family="sans-serif" font-size="14" lengthAdjust="spacing" textLength="30" x="1276.25" y="1726.8535">Rent</text><line style="stroke:#181818;stroke-width:0.5;" x1="1205.5" x2="1344.5" y1="1738" y2="1738"/><text fill="#000000" font-family="sans-serif" font-size="14" lengthAdjust="spacing" textLength="129" x="1210.5" y="1754.6738">-int contractDuration</text><line style="stroke:#181818;stroke-width:0.5;" x1="1205.5" x2="1344.5" y1="1761.6406" y2="1761.6406"/></g><!--class RequestType--><g id="elem_RequestType"><rect codeLine="134" fill="#F1F1F1" height="79.2813" id="RequestType" rx="2.5" ry="2.5" style="stroke:#181818;stroke-width:0.5;" width="195" x="1177.5" y="1504"/><ellipse cx="1228.25" cy="1520" fill="#ADD1B2" rx="11" ry="11" style="stroke:#181818;stroke-width:1.0;"/><path d="M1231.0156,1515.875 Q1231.1719,1515.6563 1231.3594,1515.5469 Q1231.5469,1515.4375 1231.7656,1515.4375 Q1232.1406,1515.4375 1232.375,1515.7031 Q1232.6094,1515.9531 1232.6094,1516.5625 L1232.6094,1518.0156 Q1232.6094,1518.625 1232.375,1518.8906 Q1232.1406,1519.1563 1231.7656,1519.1563 Q1231.4219,1519.1563 1231.2188,1518.9531 Q1231.0156,1518.7656 1230.9063,1518.25 Q1230.8594,1517.8906 1230.6719,1517.7031 Q1230.3438,1517.3281 1229.7344,1517.1094 Q1229.125,1516.8906 1228.5,1516.8906 Q1227.7344,1516.8906 1227.0938,1517.2188 Q1226.4688,1517.5469 1225.9688,1518.2969 Q1225.4844,1519.0469 1225.4844,1520.0781 L1225.4844,1521.1719 Q1225.4844,1522.4063 1226.375,1523.2344 Q1227.2656,1524.0469 1228.8594,1524.0469 Q1229.7969,1524.0469 1230.4531,1523.7969 Q1230.8438,1523.6406 1231.2656,1523.2031 Q1231.5313,1522.9375 1231.6719,1522.8594 Q1231.8281,1522.7813 1232.0313,1522.7813 Q1232.3594,1522.7813 1232.6094,1523.0469 Q1232.875,1523.2969 1232.875,1523.6406 Q1232.875,1523.9844 1232.5313,1524.3906 Q1232.0313,1524.9688 1231.2344,1525.2969 Q1230.1563,1525.75 1228.8594,1525.75 Q1227.3438,1525.75 1226.1406,1525.125 Q1225.1563,1524.625 1224.4688,1523.5625 Q1223.7813,1522.4844 1223.7813,1521.2031 L1223.7813,1520.0469 Q1223.7813,1518.7188 1224.3906,1517.5781 Q1225.0156,1516.4219 1226.1094,1515.8125 Q1227.2031,1515.1875 1228.4375,1515.1875 Q1229.1719,1515.1875 1229.8125,1515.3594 Q1230.4688,1515.5156 1231.0156,1515.875 Z " fill="#000000"/><text fill="#000000" font-family="sans-serif" font-size="14" lengthAdjust="spacing" textLength="85" x="1248.75" y="1524.8535">RequestType</text><line style="stroke:#181818;stroke-width:0.5;" x1="1178.5" x2="1371.5" y1="1536" y2="1536"/><text fill="#000000" font-family="sans-serif" font-size="14" lengthAdjust="spacing" textLength="126" x="1183.5" y="1552.6738">-String requestType</text><line style="stroke:#181818;stroke-width:0.5;" x1="1178.5" x2="1371.5" y1="1559.6406" y2="1559.6406"/><text fill="#000000" font-family="sans-serif" font-size="14" lengthAdjust="spacing" textLength="183" x="1183.5" y="1576.3145">+RequestType(requestType)</text></g><!--class Owner--><g id="elem_Owner"><rect codeLine="139" fill="#F1F1F1" height="94.9219" id="Owner" rx="2.5" ry="2.5" style="stroke:#181818;stroke-width:0.5;" width="143" x="1372.5" y="803"/><ellipse cx="1419.25" cy="819" fill="#ADD1B2" rx="11" ry="11" style="stroke:#181818;stroke-width:1.0;"/><path d="M1422.0156,814.875 Q1422.1719,814.6563 1422.3594,814.5469 Q1422.5469,814.4375 1422.7656,814.4375 Q1423.1406,814.4375 1423.375,814.7031 Q1423.6094,814.9531 1423.6094,815.5625 L1423.6094,817.0156 Q1423.6094,817.625 1423.375,817.8906 Q1423.1406,818.1563 1422.7656,818.1563 Q1422.4219,818.1563 1422.2188,817.9531 Q1422.0156,817.7656 1421.9063,817.25 Q1421.8594,816.8906 1421.6719,816.7031 Q1421.3438,816.3281 1420.7344,816.1094 Q1420.125,815.8906 1419.5,815.8906 Q1418.7344,815.8906 1418.0938,816.2188 Q1417.4688,816.5469 1416.9688,817.2969 Q1416.4844,818.0469 1416.4844,819.0781 L1416.4844,820.1719 Q1416.4844,821.4063 1417.375,822.2344 Q1418.2656,823.0469 1419.8594,823.0469 Q1420.7969,823.0469 1421.4531,822.7969 Q1421.8438,822.6406 1422.2656,822.2031 Q1422.5313,821.9375 1422.6719,821.8594 Q1422.8281,821.7813 1423.0313,821.7813 Q1423.3594,821.7813 1423.6094,822.0469 Q1423.875,822.2969 1423.875,822.6406 Q1423.875,822.9844 1423.5313,823.3906 Q1423.0313,823.9688 1422.2344,824.2969 Q1421.1563,824.75 1419.8594,824.75 Q1418.3438,824.75 1417.1406,824.125 Q1416.1563,823.625 1415.4688,822.5625 Q1414.7813,821.4844 1414.7813,820.2031 L1414.7813,819.0469 Q1414.7813,817.7188 1415.3906,816.5781 Q1416.0156,815.4219 1417.1094,814.8125 Q1418.2031,814.1875 1419.4375,814.1875 Q1420.1719,814.1875 1420.8125,814.3594 Q1421.4688,814.5156 1422.0156,814.875 Z " fill="#000000"/><text fill="#000000" font-family="sans-serif" font-size="14" lengthAdjust="spacing" textLength="41" x="1439.75" y="823.8535">Owner</text><line style="stroke:#181818;stroke-width:0.5;" x1="1373.5" x2="1514.5" y1="835" y2="835"/><text fill="#000000" font-family="sans-serif" font-size="14" lengthAdjust="spacing" textLength="81" x="1378.5" y="851.6738">-String name</text><text fill="#000000" font-family="sans-serif" font-size="14" lengthAdjust="spacing" textLength="113" x="1378.5" y="867.3145">-int phoneNumber</text><text fill="#000000" font-family="sans-serif" font-size="14" lengthAdjust="spacing" textLength="131" x="1378.5" y="882.9551">-String emailAddress</text><line style="stroke:#181818;stroke-width:0.5;" x1="1373.5" x2="1514.5" y1="889.9219" y2="889.9219"/></g><!--class Agent--><g id="elem_Agent"><rect codeLine="145" fill="#F1F1F1" height="94.9219" id="Agent" rx="2.5" ry="2.5" style="stroke:#181818;stroke-width:0.5;" width="143" x="1695.5" y="1130"/><ellipse cx="1744.25" cy="1146" fill="#ADD1B2" rx="11" ry="11" style="stroke:#181818;stroke-width:1.0;"/><path d="M1747.0156,1141.875 Q1747.1719,1141.6563 1747.3594,1141.5469 Q1747.5469,1141.4375 1747.7656,1141.4375 Q1748.1406,1141.4375 1748.375,1141.7031 Q1748.6094,1141.9531 1748.6094,1142.5625 L1748.6094,1144.0156 Q1748.6094,1144.625 1748.375,1144.8906 Q1748.1406,1145.1563 1747.7656,1145.1563 Q1747.4219,1145.1563 1747.2188,1144.9531 Q1747.0156,1144.7656 1746.9063,1144.25 Q1746.8594,1143.8906 1746.6719,1143.7031 Q1746.3438,1143.3281 1745.7344,1143.1094 Q1745.125,1142.8906 1744.5,1142.8906 Q1743.7344,1142.8906 1743.0938,1143.2188 Q1742.4688,1143.5469 1741.9688,1144.2969 Q1741.4844,1145.0469 1741.4844,1146.0781 L1741.4844,1147.1719 Q1741.4844,1148.4063 1742.375,1149.2344 Q1743.2656,1150.0469 1744.8594,1150.0469 Q1745.7969,1150.0469 1746.4531,1149.7969 Q1746.8438,1149.6406 1747.2656,1149.2031 Q1747.5313,1148.9375 1747.6719,1148.8594 Q1747.8281,1148.7813 1748.0313,1148.7813 Q1748.3594,1148.7813 1748.6094,1149.0469 Q1748.875,1149.2969 1748.875,1149.6406 Q1748.875,1149.9844 1748.5313,1150.3906 Q1748.0313,1150.9688 1747.2344,1151.2969 Q1746.1563,1151.75 1744.8594,1151.75 Q1743.3438,1151.75 1742.1406,1151.125 Q1741.1563,1150.625 1740.4688,1149.5625 Q1739.7813,1148.4844 1739.7813,1147.2031 L1739.7813,1146.0469 Q1739.7813,1144.7188 1740.3906,1143.5781 Q1741.0156,1142.4219 1742.1094,1141.8125 Q1743.2031,1141.1875 1744.4375,1141.1875 Q1745.1719,1141.1875 1745.8125,1141.3594 Q1746.4688,1141.5156 1747.0156,1141.875 Z " fill="#000000"/><text fill="#000000" font-family="sans-serif" font-size="14" lengthAdjust="spacing" textLength="37" x="1764.75" y="1150.8535">Agent</text><line style="stroke:#181818;stroke-width:0.5;" x1="1696.5" x2="1837.5" y1="1162" y2="1162"/><text fill="#000000" font-family="sans-serif" font-size="14" lengthAdjust="spacing" textLength="81" x="1701.5" y="1178.6738">-String name</text><text fill="#000000" font-family="sans-serif" font-size="14" lengthAdjust="spacing" textLength="113" x="1701.5" y="1194.3145">-int phoneNumber</text><text fill="#000000" font-family="sans-serif" font-size="14" lengthAdjust="spacing" textLength="131" x="1701.5" y="1209.9551">-String emailAddress</text><line style="stroke:#181818;stroke-width:0.5;" x1="1696.5" x2="1837.5" y1="1216.9219" y2="1216.9219"/></g><!--class TaxNumber--><g id="elem_TaxNumber"><rect codeLine="151" fill="#F1F1F1" height="63.6406" id="TaxNumber" rx="2.5" ry="2.5" style="stroke:#181818;stroke-width:0.5;" width="104" x="1479" y="1511.5"/><ellipse cx="1494" cy="1527.5" fill="#ADD1B2" rx="11" ry="11" style="stroke:#181818;stroke-width:1.0;"/><path d="M1496.7656,1523.375 Q1496.9219,1523.1563 1497.1094,1523.0469 Q1497.2969,1522.9375 1497.5156,1522.9375 Q1497.8906,1522.9375 1498.125,1523.2031 Q1498.3594,1523.4531 1498.3594,1524.0625 L1498.3594,1525.5156 Q1498.3594,1526.125 1498.125,1526.3906 Q1497.8906,1526.6563 1497.5156,1526.6563 Q1497.1719,1526.6563 1496.9688,1526.4531 Q1496.7656,1526.2656 1496.6563,1525.75 Q1496.6094,1525.3906 1496.4219,1525.2031 Q1496.0938,1524.8281 1495.4844,1524.6094 Q1494.875,1524.3906 1494.25,1524.3906 Q1493.4844,1524.3906 1492.8438,1524.7188 Q1492.2188,1525.0469 1491.7188,1525.7969 Q1491.2344,1526.5469 1491.2344,1527.5781 L1491.2344,1528.6719 Q1491.2344,1529.9063 1492.125,1530.7344 Q1493.0156,1531.5469 1494.6094,1531.5469 Q1495.5469,1531.5469 1496.2031,1531.2969 Q1496.5938,1531.1406 1497.0156,1530.7031 Q1497.2813,1530.4375 1497.4219,1530.3594 Q1497.5781,1530.2813 1497.7813,1530.2813 Q1498.1094,1530.2813 1498.3594,1530.5469 Q1498.625,1530.7969 1498.625,1531.1406 Q1498.625,1531.4844 1498.2813,1531.8906 Q1497.7813,1532.4688 1496.9844,1532.7969 Q1495.9063,1533.25 1494.6094,1533.25 Q1493.0938,1533.25 1491.8906,1532.625 Q1490.9063,1532.125 1490.2188,1531.0625 Q1489.5313,1529.9844 1489.5313,1528.7031 L1489.5313,1527.5469 Q1489.5313,1526.2188 1490.1406,1525.0781 Q1490.7656,1523.9219 1491.8594,1523.3125 Q1492.9531,1522.6875 1494.1875,1522.6875 Q1494.9219,1522.6875 1495.5625,1522.8594 Q1496.2188,1523.0156 1496.7656,1523.375 Z " fill="#000000"/><text fill="#000000" font-family="sans-serif" font-size="14" lengthAdjust="spacing" textLength="72" x="1508" y="1532.3535">TaxNumber</text><line style="stroke:#181818;stroke-width:0.5;" x1="1480" x2="1582" y1="1543.5" y2="1543.5"/><text fill="#000000" font-family="sans-serif" font-size="14" lengthAdjust="spacing" textLength="91" x="1485" y="1560.1738">-int taxNumber</text><line style="stroke:#181818;stroke-width:0.5;" x1="1480" x2="1582" y1="1567.1406" y2="1567.1406"/></g><!--class PassportCardNumber--><g id="elem_PassportCardNumber"><rect codeLine="155" fill="#F1F1F1" height="63.6406" id="PassportCardNumber" rx="2.5" ry="2.5" style="stroke:#181818;stroke-width:0.5;" width="171" x="1618.5" y="1511.5"/><ellipse cx="1634.85" cy="1527.5" fill="#ADD1B2" rx="11" ry="11" style="stroke:#181818;stroke-width:1.0;"/><path d="M1637.6156,1523.375 Q1637.7719,1523.1563 1637.9594,1523.0469 Q1638.1469,1522.9375 1638.3656,1522.9375 Q1638.7406,1522.9375 1638.975,1523.2031 Q1639.2094,1523.4531 1639.2094,1524.0625 L1639.2094,1525.5156 Q1639.2094,1526.125 1638.975,1526.3906 Q1638.7406,1526.6563 1638.3656,1526.6563 Q1638.0219,1526.6563 1637.8188,1526.4531 Q1637.6156,1526.2656 1637.5063,1525.75 Q1637.4594,1525.3906 1637.2719,1525.2031 Q1636.9438,1524.8281 1636.3344,1524.6094 Q1635.725,1524.3906 1635.1,1524.3906 Q1634.3344,1524.3906 1633.6938,1524.7188 Q1633.0688,1525.0469 1632.5688,1525.7969 Q1632.0844,1526.5469 1632.0844,1527.5781 L1632.0844,1528.6719 Q1632.0844,1529.9063 1632.975,1530.7344 Q1633.8656,1531.5469 1635.4594,1531.5469 Q1636.3969,1531.5469 1637.0531,1531.2969 Q1637.4438,1531.1406 1637.8656,1530.7031 Q1638.1313,1530.4375 1638.2719,1530.3594 Q1638.4281,1530.2813 1638.6313,1530.2813 Q1638.9594,1530.2813 1639.2094,1530.5469 Q1639.475,1530.7969 1639.475,1531.1406 Q1639.475,1531.4844 1639.1313,1531.8906 Q1638.6313,1532.4688 1637.8344,1532.7969 Q1636.7563,1533.25 1635.4594,1533.25 Q1633.9438,1533.25 1632.7406,1532.625 Q1631.7563,1532.125 1631.0688,1531.0625 Q1630.3813,1529.9844 1630.3813,1528.7031 L1630.3813,1527.5469 Q1630.3813,1526.2188 1630.9906,1525.0781 Q1631.6156,1523.9219 1632.7094,1523.3125 Q1633.8031,1522.6875 1635.0375,1522.6875 Q1635.7719,1522.6875 1636.4125,1522.8594 Q1637.0688,1523.0156 1637.6156,1523.375 Z " fill="#000000"/><text fill="#000000" font-family="sans-serif" font-size="14" lengthAdjust="spacing" textLength="136" x="1649.15" y="1532.3535">PassportCardNumber</text><line style="stroke:#181818;stroke-width:0.5;" x1="1619.5" x2="1788.5" y1="1543.5" y2="1543.5"/><text fill="#000000" font-family="sans-serif" font-size="14" lengthAdjust="spacing" textLength="159" x="1624.5" y="1560.1738">-int passportCardNumber</text><line style="stroke:#181818;stroke-width:0.5;" x1="1619.5" x2="1788.5" y1="1567.1406" y2="1567.1406"/></g><!--class PropertyType--><g id="elem_PropertyType"><rect codeLine="159" fill="#F1F1F1" height="79.2813" id="PropertyType" rx="2.5" ry="2.5" style="stroke:#181818;stroke-width:0.5;" width="193" x="730.5" y="1698.5"/><ellipse cx="779.75" cy="1714.5" fill="#ADD1B2" rx="11" ry="11" style="stroke:#181818;stroke-width:1.0;"/><path d="M782.5156,1710.375 Q782.6719,1710.1563 782.8594,1710.0469 Q783.0469,1709.9375 783.2656,1709.9375 Q783.6406,1709.9375 783.875,1710.2031 Q784.1094,1710.4531 784.1094,1711.0625 L784.1094,1712.5156 Q784.1094,1713.125 783.875,1713.3906 Q783.6406,1713.6563 783.2656,1713.6563 Q782.9219,1713.6563 782.7188,1713.4531 Q782.5156,1713.2656 782.4063,1712.75 Q782.3594,1712.3906 782.1719,1712.2031 Q781.8438,1711.8281 781.2344,1711.6094 Q780.625,1711.3906 780,1711.3906 Q779.2344,1711.3906 778.5938,1711.7188 Q777.9688,1712.0469 777.4688,1712.7969 Q776.9844,1713.5469 776.9844,1714.5781 L776.9844,1715.6719 Q776.9844,1716.9063 777.875,1717.7344 Q778.7656,1718.5469 780.3594,1718.5469 Q781.2969,1718.5469 781.9531,1718.2969 Q782.3438,1718.1406 782.7656,1717.7031 Q783.0313,1717.4375 783.1719,1717.3594 Q783.3281,1717.2813 783.5313,1717.2813 Q783.8594,1717.2813 784.1094,1717.5469 Q784.375,1717.7969 784.375,1718.1406 Q784.375,1718.4844 784.0313,1718.8906 Q783.5313,1719.4688 782.7344,1719.7969 Q781.6563,1720.25 780.3594,1720.25 Q778.8438,1720.25 777.6406,1719.625 Q776.6563,1719.125 775.9688,1718.0625 Q775.2813,1716.9844 775.2813,1715.7031 L775.2813,1714.5469 Q775.2813,1713.2188 775.8906,1712.0781 Q776.5156,1710.9219 777.6094,1710.3125 Q778.7031,1709.6875 779.9375,1709.6875 Q780.6719,1709.6875 781.3125,1709.8594 Q781.9688,1710.0156 782.5156,1710.375 Z " fill="#000000"/><text fill="#000000" font-family="sans-serif" font-size="14" lengthAdjust="spacing" textLength="86" x="800.25" y="1719.3535">PropertyType</text><line style="stroke:#181818;stroke-width:0.5;" x1="731.5" x2="922.5" y1="1730.5" y2="1730.5"/><text fill="#000000" font-family="sans-serif" font-size="14" lengthAdjust="spacing" textLength="81" x="736.5" y="1747.1738">-String name</text><line style="stroke:#181818;stroke-width:0.5;" x1="731.5" x2="922.5" y1="1754.1406" y2="1754.1406"/><text fill="#000000" font-family="sans-serif" font-size="14" lengthAdjust="spacing" textLength="181" x="736.5" y="1770.8145">+getPropertyTypeList(name)</text></g><!--class Agency--><g id="elem_Agency"><rect codeLine="164" fill="#F1F1F1" height="94.9219" id="Agency" rx="2.5" ry="2.5" style="stroke:#181818;stroke-width:0.5;" width="131" x="1751.5" y="959"/><ellipse cx="1789.9" cy="975" fill="#ADD1B2" rx="11" ry="11" style="stroke:#181818;stroke-width:1.0;"/><path d="M1792.6656,970.875 Q1792.8219,970.6563 1793.0094,970.5469 Q1793.1969,970.4375 1793.4156,970.4375 Q1793.7906,970.4375 1794.025,970.7031 Q1794.2594,970.9531 1794.2594,971.5625 L1794.2594,973.0156 Q1794.2594,973.625 1794.025,973.8906 Q1793.7906,974.1563 1793.4156,974.1563 Q1793.0719,974.1563 1792.8688,973.9531 Q1792.6656,973.7656 1792.5563,973.25 Q1792.5094,972.8906 1792.3219,972.7031 Q1791.9938,972.3281 1791.3844,972.1094 Q1790.775,971.8906 1790.15,971.8906 Q1789.3844,971.8906 1788.7438,972.2188 Q1788.1188,972.5469 1787.6188,973.2969 Q1787.1344,974.0469 1787.1344,975.0781 L1787.1344,976.1719 Q1787.1344,977.4063 1788.025,978.2344 Q1788.9156,979.0469 1790.5094,979.0469 Q1791.4469,979.0469 1792.1031,978.7969 Q1792.4938,978.6406 1792.9156,978.2031 Q1793.1813,977.9375 1793.3219,977.8594 Q1793.4781,977.7813 1793.6813,977.7813 Q1794.0094,977.7813 1794.2594,978.0469 Q1794.525,978.2969 1794.525,978.6406 Q1794.525,978.9844 1794.1813,979.3906 Q1793.6813,979.9688 1792.8844,980.2969 Q1791.8063,980.75 1790.5094,980.75 Q1788.9938,980.75 1787.7906,980.125 Q1786.8063,979.625 1786.1188,978.5625 Q1785.4313,977.4844 1785.4313,976.2031 L1785.4313,975.0469 Q1785.4313,973.7188 1786.0406,972.5781 Q1786.6656,971.4219 1787.7594,970.8125 Q1788.8531,970.1875 1790.0875,970.1875 Q1790.8219,970.1875 1791.4625,970.3594 Q1792.1188,970.5156 1792.6656,970.875 Z " fill="#000000"/><text fill="#000000" font-family="sans-serif" font-size="14" lengthAdjust="spacing" textLength="47" x="1809.1" y="979.8535">Agency</text><line style="stroke:#181818;stroke-width:0.5;" x1="1752.5" x2="1881.5" y1="991" y2="991"/><text fill="#000000" font-family="sans-serif" font-size="14" lengthAdjust="spacing" textLength="35" x="1757.5" y="1007.6738">-int id</text><text fill="#000000" font-family="sans-serif" font-size="14" lengthAdjust="spacing" textLength="119" x="1757.5" y="1023.3145">-String designation</text><text fill="#000000" font-family="sans-serif" font-size="14" lengthAdjust="spacing" textLength="113" x="1757.5" y="1038.9551">-int phoneNumber</text><line style="stroke:#181818;stroke-width:0.5;" x1="1752.5" x2="1881.5" y1="1045.9219" y2="1045.9219"/></g><!--link CreateRequestUI to CreateRequestController--><g id="link_CreateRequestUI_CreateRequestController"><path codeLine="170" d="M784.06,148.5 C794.02,148.5 804.1,148.5 813.63,148.5 " fill="none" id="CreateRequestUI-to-CreateRequestController" style="stroke:#181818;stroke-width:1.0;"/><polygon fill="#181818" points="818.87,148.5,809.87,144.5,813.87,148.5,809.87,152.5,818.87,148.5" style="stroke:#181818;stroke-width:1.0;"/></g><!--link CreateRequestController to Repositories--><g id="link_CreateRequestController_Repositories"><path codeLine="172" d="M1169,290.16 C1169,329.14 1169,370.79 1169,407.47 " fill="none" id="CreateRequestController-to-Repositories" style="stroke:#181818;stroke-width:1.0;stroke-dasharray:7.0,7.0;"/><polygon fill="#181818" points="1169,412.84,1173,403.84,1169,407.84,1165,403.84,1169,412.84" style="stroke:#181818;stroke-width:1.0;"/></g><!--link CreateRequestController to PropertyTypeListRepository--><g id="link_CreateRequestController_PropertyTypeListRepository"><path codeLine="173" d="M1092.2,290.3 C1082.56,307.97 1076,320 1076,320 C1076,320 944.38,577.28 895.23,673.37 " fill="none" id="CreateRequestController-to-PropertyTypeListRepository" style="stroke:#181818;stroke-width:1.0;stroke-dasharray:7.0,7.0;"/><polygon fill="#181818" points="892.95,677.82,900.6084,671.6274,895.2261,673.3681,893.4854,667.9857,892.95,677.82" style="stroke:#181818;stroke-width:1.0;"/></g><!--link CreateRequestController to RequestTypeRepository--><g id="link_CreateRequestController_RequestTypeRepository"><path codeLine="174" d="M1099.62,290.12 C1068.65,352.91 1039,413 1039,413 C1039,413 1039,617 1039,617 C1039,617 1087.74,648.8 1127.91,675.01 " fill="none" id="CreateRequestController-to-RequestTypeRepository" style="stroke:#181818;stroke-width:1.0;stroke-dasharray:7.0,7.0;"/><polygon fill="#181818" points="1132.26,677.85,1126.9049,669.5843,1128.0714,675.1195,1122.5361,676.2861,1132.26,677.85" style="stroke:#181818;stroke-width:1.0;"/></g><!--link CreateRequestController to AgencyRepository--><g id="link_CreateRequestController_AgencyRepository"><path codeLine="175" d="M1345.05,290.27 C1387.56,324.26 1421,351 1421,351 C1421,351 1421,351 1421,711 C1421,711 1457,742 1457,742 C1457,742 1538.74,781.05 1603.68,812.08 " fill="none" id="CreateRequestController-to-AgencyRepository" style="stroke:#181818;stroke-width:1.0;stroke-dasharray:7.0,7.0;"/><polygon fill="#181818" points="1608.33,814.3,1601.9433,806.8026,1603.8213,812.1387,1598.4852,814.0166,1608.33,814.3" style="stroke:#181818;stroke-width:1.0;"/></g><!--link CreateRequestController to CityRepository--><g id="link_CreateRequestController_CityRepository"><path codeLine="176" d="M1419.7,290.11 C1451.39,307.88 1473,320 1473,320 C1473,320 1633.06,577.28 1692.84,673.37 " fill="none" id="CreateRequestController-to-CityRepository" style="stroke:#181818;stroke-width:1.0;stroke-dasharray:7.0,7.0;"/><polygon fill="#181818" points="1695.61,677.82,1694.2468,668.0659,1692.9664,673.576,1687.4564,672.2957,1695.61,677.82" style="stroke:#181818;stroke-width:1.0;"/></g><!--link CreateRequestController to DistrictRepository--><g id="link_CreateRequestController_DistrictRepository"><path codeLine="177" d="M1398.26,290.11 C1427.24,307.88 1447,320 1447,320 C1447,320 1512.22,576.26 1536.79,672.8 " fill="none" id="CreateRequestController-to-DistrictRepository" style="stroke:#181818;stroke-width:1.0;stroke-dasharray:7.0,7.0;"/><polygon fill="#181818" points="1538.07,677.82,1539.7341,668.1127,1536.8405,672.9735,1531.9797,670.0799,1538.07,677.82" style="stroke:#181818;stroke-width:1.0;"/></g><!--link CreateRequestController to StateRepository--><g id="link_CreateRequestController_StateRepository"><path codeLine="178" d="M819,283.13 C807.59,287.49 801,290 801,290 C801,290 6,351 6,351 C6,351 6,351 6,1739 C6,1739 432.04,1851.07 605.16,1896.6 " fill="none" id="CreateRequestController-to-StateRepository" style="stroke:#181818;stroke-width:1.0;stroke-dasharray:7.0,7.0;"/><polygon fill="#181818" points="610.21,1897.93,602.5252,1891.7701,605.3748,1896.6568,600.4881,1899.5064,610.21,1897.93" style="stroke:#181818;stroke-width:1.0;"/></g><!--link Repositories to Repositories--><g id="link_Repositories_Repositories"><path codeLine="180" d="M1282.24,491.66 C1302.69,494.65 1317,502.43 1317,515 C1317,526.49 1305.04,533.98 1287.37,537.47 " fill="none" id="Repositories-to-Repositories" style="stroke:#181818;stroke-width:1.0;"/><polygon fill="#181818" points="1282.24,538.34,1291.7855,540.7657,1287.1685,537.4972,1290.4369,532.8801,1282.24,538.34" style="stroke:#181818;stroke-width:1.0;"/><text fill="#000000" font-family="sans-serif" font-size="13" lengthAdjust="spacing" textLength="56" x="1323" y="519.7686">instances</text></g><!--link Repositories to PropertyTypeListRepository--><g id="link_Repositories_PropertyTypeListRepository"><path codeLine="181" d="M1055.69,590.9 C1011.63,620.02 963.39,651.9 928.14,675.2 " fill="none" id="Repositories-to-PropertyTypeListRepository" style="stroke:#181818;stroke-width:1.0;"/><polygon fill="#181818" points="923.91,677.99,933.6238,676.3644,928.0812,675.233,929.2126,669.6904,923.91,677.99" style="stroke:#181818;stroke-width:1.0;"/></g><!--link Repositories to RequestTypeRepository--><g id="link_Repositories_RequestTypeRepository"><path codeLine="182" d="M1174.76,617.02 C1175.89,636.85 1177,656.43 1177.91,672.39 " fill="none" id="Repositories-to-RequestTypeRepository" style="stroke:#181818;stroke-width:1.0;"/><polygon fill="#181818" points="1178.21,677.66,1181.69,668.4465,1177.9248,672.6681,1173.7031,668.9029,1178.21,677.66" style="stroke:#181818;stroke-width:1.0;"/></g><!--link Repositories to AgencyRepository--><g id="link_Repositories_AgencyRepository"><path codeLine="183" d="M1258,617.2 C1321.24,689.12 1395,773 1395,773 C1395,773 1533,803 1533,803 C1533,803 1567.65,813.81 1603.54,825.01 " fill="none" id="Repositories-to-AgencyRepository" style="stroke:#181818;stroke-width:1.0;"/><polygon fill="#181818" points="1608.37,826.52,1600.9661,820.0252,1603.5961,825.0335,1598.5877,827.6635,1608.37,826.52" style="stroke:#181818;stroke-width:1.0;"/></g><!--link Repositories to CityRepository--><g id="link_Repositories_CityRepository"><path codeLine="184" d="M1282.1,555.32 C1420.03,603.27 1635,678 1635,678 C1635,678 1640.09,679.97 1647.71,682.92 " fill="none" id="Repositories-to-CityRepository" style="stroke:#181818;stroke-width:1.0;"/><polygon fill="#181818" points="1652.75,684.88,1645.7901,677.9115,1648.0844,683.0822,1642.9137,685.3765,1652.75,684.88" style="stroke:#181818;stroke-width:1.0;"/></g><!--link Repositories to DistrictRepository--><g id="link_Repositories_DistrictRepository"><path codeLine="185" d="M1282.11,573.91 C1346.98,607.12 1426.11,647.63 1480.71,675.57 " fill="none" id="Repositories-to-DistrictRepository" style="stroke:#181818;stroke-width:1.0;"/><polygon fill="#181818" points="1485.25,677.9,1479.0574,670.2416,1480.7981,675.6239,1475.4157,677.3646,1485.25,677.9" style="stroke:#181818;stroke-width:1.0;"/></g><!--link Repositories to StateRepository--><g id="link_Repositories_StateRepository"><path codeLine="186" d="M1098.34,617.02 C1065.67,663.72 1034,709 1034,709 C1034,709 1034,709 1034,1264 C1034,1264 999,1412 999,1412 C999,1412 712,1488 712,1488 C712,1488 688.4,1776.22 679.96,1879.35 " fill="none" id="Repositories-to-StateRepository" style="stroke:#181818;stroke-width:1.0;"/><polygon fill="#181818" points="679.55,1884.41,684.2815,1875.7721,679.964,1879.4272,676.309,1875.1097,679.55,1884.41" style="stroke:#181818;stroke-width:1.0;"/></g><!--link PropertyTypeListRepository to PropertyType--><g id="link_PropertyTypeListRepository_PropertyType"><path codeLine="188" d="M772.82,729.04 C556.17,766.54 77,849.5 77,849.5 C77,849.5 77,849.5 77,1544.5 C77,1544.5 520.47,1658.32 725.39,1710.92 " fill="none" id="PropertyTypeListRepository-to-PropertyType" style="stroke:#181818;stroke-width:1.0;"/><polygon fill="#181818" points="730.49,1712.23,722.7668,1706.1183,725.6469,1710.9871,720.7782,1713.8672,730.49,1712.23" style="stroke:#181818;stroke-width:1.0;"/></g><!--link House to Residence--><g id="link_House_Residence"><path codeLine="190" d="M582.48,1225 C568.07,1243.35 551.2,1264.83 535.36,1285.01 " fill="none" id="House-to-Residence" style="stroke:#181818;stroke-width:1.0;"/><polygon fill="none" points="540.79,1289.42,522.94,1300.83,529.78,1280.77,540.79,1289.42" style="stroke:#181818;stroke-width:1.0;"/></g><!--link House to SunExposure--><g id="link_House_SunExposure"><path codeLine="191" d="M705.85,1225.16 C770.28,1259.78 847,1301 847,1301 C847,1301 860.04,1310.35 875.31,1321.3 " fill="none" id="House-to-SunExposure" style="stroke:#181818;stroke-width:1.0;"/><polygon fill="#181818" points="879.67,1324.43,874.6798,1315.939,875.6042,1321.5198,870.0234,1322.4442,879.67,1324.43" style="stroke:#181818;stroke-width:1.0;"/></g><!--link Residence to Property--><g id="link_Residence_Property"><path codeLine="193" d="M614.35,1412.01 C667.22,1433.46 728.23,1458.21 782.8,1480.35 " fill="none" id="Residence-to-Property" style="stroke:#181818;stroke-width:1.0;"/><polygon fill="none" points="785.53,1473.9,801.43,1487.9,780.27,1486.87,785.53,1473.9" style="stroke:#181818;stroke-width:1.0;"/></g><!--link Residence to AvailableEquipment--><g id="link_Residence_AvailableEquipment"><path codeLine="194" d="M480,1412.01 C480,1442.38 480,1479.37 480,1506.21 " fill="none" id="Residence-to-AvailableEquipment" style="stroke:#181818;stroke-width:1.0;"/><polygon fill="#181818" points="480,1511.43,484,1502.43,480,1506.43,476,1502.43,480,1511.43" style="stroke:#181818;stroke-width:1.0;"/></g><!--link Property to PropertyType--><g id="link_Property_PropertyType"><path codeLine="196" d="M905.06,1599.15 C888.03,1629.22 867.2,1666 851.35,1694 " fill="none" id="Property-to-PropertyType" style="stroke:#181818;stroke-width:1.0;"/><polygon fill="#181818" points="848.85,1698.42,856.7779,1692.5763,851.323,1694.0744,849.8249,1688.6195,848.85,1698.42" style="stroke:#181818;stroke-width:1.0;"/><text fill="#000000" font-family="sans-serif" font-size="13" lengthAdjust="spacing" textLength="21" x="890" y="1641.7686">has</text></g><!--link Property to Photograph--><g id="link_Property_Photograph"><path codeLine="197" d="M957.58,1599.15 C970.48,1631.83 986.51,1672.43 997.82,1701.08 " fill="none" id="Property-to-Photograph" style="stroke:#181818;stroke-width:1.0;"/><polygon fill="#181818" points="999.73,1705.93,1000.1275,1696.0892,997.8854,1701.2827,992.6918,1699.0406,999.73,1705.93" style="stroke:#181818;stroke-width:1.0;"/><text fill="#000000" font-family="sans-serif" font-size="13" lengthAdjust="spacing" textLength="21" x="975" y="1641.7686">has</text><text fill="#000000" font-family="sans-serif" font-size="13" lengthAdjust="spacing" textLength="29" x="964.8741" y="1695.2485">1..30</text></g><!--link Property to Address--><g id="link_Property_Address"><path codeLine="198" d="M1103.07,1599.01 C1175.48,1622.64 1244,1645 1244,1645 C1244,1645 1310.32,1659.16 1390.93,1676.36 " fill="none" id="Property-to-Address" style="stroke:#181818;stroke-width:1.0;"/><polygon fill="#181818" points="1396.26,1677.5,1388.2933,1671.7094,1391.3702,1676.4563,1386.6233,1679.5331,1396.26,1677.5" style="stroke:#181818;stroke-width:1.0;"/><text fill="#000000" font-family="sans-serif" font-size="13" lengthAdjust="spacing" textLength="21" x="1245" y="1641.7686">has</text></g><!--link AgencyRepository to Agency--><g id="link_AgencyRepository_Agency"><path codeLine="200" d="M1716.07,890.36 C1733.27,909.99 1754.36,934.04 1772.8,955.08 " fill="none" id="AgencyRepository-to-Agency" style="stroke:#181818;stroke-width:1.0;"/><polygon fill="#181818" points="1776.21,958.97,1773.2963,949.562,1772.9185,955.2062,1767.2743,954.8284,1776.21,958.97" style="stroke:#181818;stroke-width:1.0;"/></g><!--link Agency to Address--><g id="link_Agency_Address"><path codeLine="202" d="M1838.37,1054.2 C1845.65,1070.13 1852,1084 1852,1084 C1852,1084 1856,1130 1856,1130 C1856,1130 1856,1225 1856,1225 C1856,1225 1833,1599 1833,1599 C1833,1599 1796,1645 1796,1645 C1796,1645 1780.57,1656.73 1760.74,1671.81 " fill="none" id="Agency-to-Address" style="stroke:#181818;stroke-width:1.0;"/><polygon fill="#181818" points="1756.71,1674.87,1766.3011,1672.6316,1760.698,1671.854,1761.4755,1666.2509,1756.71,1674.87" style="stroke:#181818;stroke-width:1.0;"/><text fill="#000000" font-family="sans-serif" font-size="13" lengthAdjust="spacing" textLength="21" x="1852" y="1361.2686">has</text></g><!--link Agency to Agent--><g id="link_Agency_Agent"><path codeLine="203" d="M1803.2,1054.13 C1796.73,1076.02 1788.99,1102.18 1782.33,1124.69 " fill="none" id="Agency-to-Agent" style="stroke:#181818;stroke-width:1.0;"/><polygon fill="#181818" points="1780.84,1129.73,1787.2267,1122.2326,1782.257,1124.935,1779.5547,1119.9654,1780.84,1129.73" style="stroke:#181818;stroke-width:1.0;"/><text fill="#000000" font-family="sans-serif" font-size="13" lengthAdjust="spacing" textLength="49" x="1794" y="1096.7686">employs</text></g><!--link Photograph to PhotographList--><g id="link_Photograph_PhotographList"><path codeLine="205" d="M1012,1770.15 C1012,1800.68 1012,1847.19 1012,1879.34 " fill="none" id="Photograph-to-PhotographList" style="stroke:#181818;stroke-width:1.0;"/><polygon fill="#181818" points="1012,1884.37,1016,1875.37,1012,1879.37,1008,1875.37,1012,1884.37" style="stroke:#181818;stroke-width:1.0;"/><text fill="#000000" font-family="sans-serif" font-size="13" lengthAdjust="spacing" textLength="24" x="1013" y="1843.7686">is in</text></g><!--link StateRepository to State--><g id="link_StateRepository_State"><path codeLine="207" d="M677,1948.81 C677,1967.44 677,1991.34 677,2011.8 " fill="none" id="StateRepository-to-State" style="stroke:#181818;stroke-width:1.0;"/><polygon fill="#181818" points="677,2016.92,681,2007.92,677,2011.92,673,2007.92,677,2016.92" style="stroke:#181818;stroke-width:1.0;"/></g><!--link DistrictRepository to District--><g id="link_DistrictRepository_District"><path codeLine="209" d="M1617.79,735.73 C1628.48,739.41 1636,742 1636,742 C1636,742 2007,849.5 2007,849.5 C2007,849.5 2007,849.5 2007,1739 C2007,1739 1949,1847 1949,1847 C1949,1847 1888,1868.21 1833.89,1887.03 " fill="none" id="DistrictRepository-to-District" style="stroke:#181818;stroke-width:1.0;"/><polygon fill="#181818" points="1829.01,1888.72,1838.825,1889.5355,1833.7315,1887.0746,1836.1924,1881.9811,1829.01,1888.72" style="stroke:#181818;stroke-width:1.0;"/></g><!--link CityRepository to City--><g id="link_CityRepository_City"><path codeLine="211" d="M1777.4,734.81 C1881.19,774.41 2078,849.5 2078,849.5 C2078,849.5 2078,849.5 2078,1739 C2078,1739 2059.75,1819.53 2047.9,1871.8 " fill="none" id="CityRepository-to-City" style="stroke:#181818;stroke-width:1.0;"/><polygon fill="#181818" points="2046.78,1876.77,2052.6861,1868.8885,2047.8949,1871.8959,2044.8875,1867.1047,2046.78,1876.77" style="stroke:#181818;stroke-width:1.0;"/></g><!--link Owner to Property--><g id="link_Owner_Property"><path codeLine="213" d="M1394.23,898.03 C1363.15,927.08 1329,959 1329,959 C1329,959 1060,1412 1060,1412 C1060,1412 1024.48,1449.38 991.47,1484.13 " fill="none" id="Owner-to-Property" style="stroke:#181818;stroke-width:1.0;"/><polygon fill="#181818" points="987.87,1487.91,996.9664,1484.1344,991.3115,1484.2829,991.163,1478.628,987.87,1487.91" style="stroke:#181818;stroke-width:1.0;"/><text fill="#000000" font-family="sans-serif" font-size="13" lengthAdjust="spacing" textLength="30" x="1228" y="1182.2686">owns</text></g><!--link Owner to Request--><g id="link_Owner_Request"><path codeLine="214" d="M1401.26,898.2 C1386.69,914.13 1374,928 1374,928 C1374,928 1329,1084 1329,1084 C1329,1084 1314.46,1224.94 1306.34,1303.73 " fill="none" id="Owner-to-Request" style="stroke:#181818;stroke-width:1.0;"/><polygon fill="#181818" points="1305.81,1308.83,1310.7149,1300.2894,1306.3245,1303.8565,1302.7573,1299.4662,1305.81,1308.83" style="stroke:#181818;stroke-width:1.0;"/><text fill="#000000" font-family="sans-serif" font-size="13" lengthAdjust="spacing" textLength="43" x="1330" y="1096.7686">creates</text></g><!--link Owner to Address--><g id="link_Owner_Address"><path codeLine="215" d="M1444.6,898.37 C1444.82,914.69 1445,929 1445,929 C1445,929 1462,1599 1462,1599 C1462,1599 1519.52,1636.27 1574.78,1672.07 " fill="none" id="Owner-to-Address" style="stroke:#181818;stroke-width:1.0;"/><polygon fill="#181818" points="1579.09,1674.86,1573.7349,1666.5943,1574.9014,1672.1295,1569.3661,1673.2961,1579.09,1674.86" style="stroke:#181818;stroke-width:1.0;"/><text fill="#000000" font-family="sans-serif" font-size="13" lengthAdjust="spacing" textLength="21" x="1454" y="1267.7686">has</text></g><!--link Owner to TaxNumber--><g id="link_Owner_TaxNumber"><path codeLine="216" d="M1449.88,898.18 C1466.2,1027.83 1511.85,1390.4 1526.45,1506.35 " fill="none" id="Owner-to-TaxNumber" style="stroke:#181818;stroke-width:1.0;"/><polygon fill="#181818" points="1527.08,1511.36,1529.9428,1501.9364,1526.4651,1506.398,1522.0036,1502.9202,1527.08,1511.36" style="stroke:#181818;stroke-width:1.0;"/><text fill="#000000" font-family="sans-serif" font-size="13" lengthAdjust="spacing" textLength="21" x="1491" y="1182.2686">has</text></g><!--link Owner to PassportCardNumber--><g id="link_Owner_PassportCardNumber"><path codeLine="217" d="M1465.37,898.2 C1472.65,914.13 1479,928 1479,928 C1479,928 1489,959 1489,959 C1489,959 1575,1255 1575,1255 C1575,1255 1609,1412 1609,1412 C1609,1412 1650.09,1468.45 1678.22,1507.09 " fill="none" id="Owner-to-PassportCardNumber" style="stroke:#181818;stroke-width:1.0;"/><polygon fill="#181818" points="1681.25,1511.24,1679.1874,1501.6096,1678.3074,1507.1976,1672.7194,1506.3176,1681.25,1511.24" style="stroke:#181818;stroke-width:1.0;"/><text fill="#000000" font-family="sans-serif" font-size="13" lengthAdjust="spacing" textLength="21" x="1567" y="1182.2686">has</text></g><!--link Owner to Agent--><g id="link_Owner_Agent"><path codeLine="218" d="M1515.84,884.61 C1560.71,905.28 1610,928 1610,928 C1610,928 1688.82,1052.75 1734.76,1125.48 " fill="none" id="Owner-to-Agent" style="stroke:#181818;stroke-width:1.0;"/><polygon fill="#181818" points="1737.47,1129.76,1736.0448,1120.0148,1734.7995,1125.5329,1729.2814,1124.2876,1737.47,1129.76" style="stroke:#181818;stroke-width:1.0;"/><text fill="#000000" font-family="sans-serif" font-size="13" lengthAdjust="spacing" textLength="42" x="1689" y="1011.2686">selects</text></g><!--link RequestType to Rent--><g id="link_RequestType_Rent"><path codeLine="220" d="M1275,1583.46 C1275,1617.66 1275,1667.04 1275,1700.5 " fill="none" id="RequestType-to-Rent" style="stroke:#181818;stroke-width:1.0;"/><polygon fill="#181818" points="1275,1705.72,1279,1696.72,1275,1700.72,1271,1696.72,1275,1705.72" style="stroke:#181818;stroke-width:1.0;"/><text fill="#000000" font-family="sans-serif" font-size="13" lengthAdjust="spacing" textLength="39" x="1276" y="1641.7686">can be</text></g><!--link Request to RequestType--><g id="link_Request_RequestType"><path codeLine="221" d="M1294.44,1404.18 C1290.36,1433.2 1285.15,1470.28 1281.15,1498.73 " fill="none" id="Request-to-RequestType" style="stroke:#181818;stroke-width:1.0;"/><polygon fill="#181818" points="1280.42,1503.94,1285.6391,1495.5877,1281.1191,1498.9891,1277.7177,1494.4691,1280.42,1503.94" style="stroke:#181818;stroke-width:1.0;"/></g><!--link RequestTypeRepository to RequestType--><g id="link_RequestTypeRepository_RequestType"><path codeLine="223" d="M1163.17,742.08 C1141.06,782.92 1105,849.5 1105,849.5 C1105,849.5 1105,849.5 1105,1264 C1105,1264 1138,1458 1138,1458 C1138,1458 1173.15,1479.68 1207.85,1501.08 " fill="none" id="RequestTypeRepository-to-RequestType" style="stroke:#181818;stroke-width:1.0;"/><polygon fill="#181818" points="1212.51,1503.96,1206.9536,1495.8282,1208.2556,1501.3331,1202.7507,1502.6352,1212.51,1503.96" style="stroke:#181818;stroke-width:1.0;"/></g><!--link Agent to Request--><g id="link_Agent_Request"><path codeLine="224" d="M1695.46,1205.67 C1609.37,1238.37 1465.4,1293.06 1377.25,1326.54 " fill="none" id="Agent-to-Request" style="stroke:#181818;stroke-width:1.0;"/><polygon fill="#181818" points="1372.57,1328.31,1382.4035,1328.859,1377.2452,1326.5372,1379.567,1321.3788,1372.57,1328.31" style="stroke:#181818;stroke-width:1.0;"/><text fill="#000000" font-family="sans-serif" font-size="13" lengthAdjust="spacing" textLength="40" x="1562" y="1267.7686">revises</text></g><!--link Agent to Address--><g id="link_Agent_Address"><path codeLine="225" d="M1773.72,1225.2 C1776.01,1241.13 1778,1255 1778,1255 C1778,1255 1807,1488 1807,1488 C1807,1488 1807,1599 1807,1599 C1807,1599 1772.06,1635.52 1738.14,1670.99 " fill="none" id="Agent-to-Address" style="stroke:#181818;stroke-width:1.0;"/><polygon fill="#181818" points="1734.44,1674.86,1743.5516,1671.1211,1737.8961,1671.2468,1737.7704,1665.5913,1734.44,1674.86" style="stroke:#181818;stroke-width:1.0;"/><text fill="#000000" font-family="sans-serif" font-size="13" lengthAdjust="spacing" textLength="21" x="1804" y="1454.7686">has</text></g><!--link Agent to TaxNumber--><g id="link_Agent_TaxNumber"><path codeLine="226" d="M1736.63,1225.34 C1688.76,1299.18 1596.79,1441.02 1553.98,1507.06 " fill="none" id="Agent-to-TaxNumber" style="stroke:#181818;stroke-width:1.0;"/><polygon fill="#181818" points="1551.23,1511.29,1559.4745,1505.9022,1553.9439,1507.0906,1552.7555,1501.56,1551.23,1511.29" style="stroke:#181818;stroke-width:1.0;"/><text fill="#000000" font-family="sans-serif" font-size="13" lengthAdjust="spacing" textLength="21" x="1684" y="1361.2686">has</text></g><!--link Agent to PassportCardNumber--><g id="link_Agent_PassportCardNumber"><path codeLine="227" d="M1758.89,1225.34 C1746.16,1298.89 1721.76,1439.89 1710.27,1506.26 " fill="none" id="Agent-to-PassportCardNumber" style="stroke:#181818;stroke-width:1.0;"/><polygon fill="#181818" points="1709.4,1511.29,1714.8829,1503.1085,1710.2567,1506.3639,1707.0012,1501.7377,1709.4,1511.29" style="stroke:#181818;stroke-width:1.0;"/><text fill="#000000" font-family="sans-serif" font-size="13" lengthAdjust="spacing" textLength="21" x="1745" y="1361.2686">has</text></g><!--link Request to Property--><g id="link_Request_Property"><path codeLine="229" d="M1229.31,1396.96 C1213.83,1405.49 1202,1412 1202,1412 C1202,1412 1123.64,1450.45 1051.98,1485.6 " fill="none" id="Request-to-Property" style="stroke:#181818;stroke-width:1.0;"/><polygon fill="#181818" points="1047.27,1487.91,1057.1109,1487.5131,1051.7535,1485.6968,1053.5697,1480.3395,1047.27,1487.91" style="stroke:#181818;stroke-width:1.0;"/><text fill="#000000" font-family="sans-serif" font-size="13" lengthAdjust="spacing" textLength="63" x="1138" y="1454.7686">announces</text></g><!--link Address to StateRepository--><g id="link_Address_StateRepository"><path codeLine="231" d="M1396.39,1794.36 C1375.87,1798.44 1363,1801 1363,1801 C1363,1801 899,1877 899,1877 C899,1877 813.51,1891.83 748.63,1903.08 " fill="none" id="Address-to-StateRepository" style="stroke:#181818;stroke-width:1.0;"/><polygon fill="#181818" points="743.61,1903.95,753.1623,1906.3488,748.5361,1903.0933,751.7915,1898.4671,743.61,1903.95" style="stroke:#181818;stroke-width:1.0;"/><text fill="#000000" font-family="sans-serif" font-size="13" lengthAdjust="spacing" textLength="58" x="1173" y="1843.7686">state from</text></g><!--link Address to District--><g id="link_Address_District"><path codeLine="233" d="M1702.15,1801.23 C1712.37,1824.66 1723.77,1850.79 1733.08,1872.14 " fill="none" id="Address-to-District" style="stroke:#181818;stroke-width:1.0;"/><polygon fill="#181818" points="1735.16,1876.9,1735.2173,1867.0513,1733.1559,1872.3192,1727.888,1870.2579,1735.16,1876.9" style="stroke:#181818;stroke-width:1.0;"/><text fill="#000000" font-family="sans-serif" font-size="13" lengthAdjust="spacing" textLength="68" x="1721" y="1843.7686">district from</text></g><!--link Address to City--><g id="link_Address_City"><path codeLine="235" d="M1802.72,1801.1 C1861.48,1829.67 1928.5,1862.26 1975.94,1885.32 " fill="none" id="Address-to-City" style="stroke:#181818;stroke-width:1.0;"/><polygon fill="#181818" points="1980.46,1887.52,1974.112,1879.9898,1975.9625,1885.3355,1970.6168,1887.1859,1980.46,1887.52" style="stroke:#181818;stroke-width:1.0;"/><text fill="#000000" font-family="sans-serif" font-size="13" lengthAdjust="spacing" textLength="50" x="1890" y="1843.7686">city from</text></g><!--link AgencyRepository to Agent--><g id="link_AgencyRepository_Agent"><path codeLine="237" d="M1755.5,887.74 C1818.79,918.95 1900,959 1900,959 C1900,959 1900,1054 1900,1054 C1900,1054 1852,1100 1852,1100 C1852,1100 1838.9,1111.79 1822.99,1126.11 " fill="none" id="AgencyRepository-to-Agent" style="stroke:#181818;stroke-width:1.0;"/><polygon fill="#181818" points="1818.89,1129.8,1828.2555,1126.7525,1822.6065,1126.4552,1822.9038,1120.8061,1818.89,1129.8" style="stroke:#181818;stroke-width:1.0;"/></g><!--SRC=[jLPRRzis57xdho3wCWLnWWvxoqC0pscn04KR9EaFeAKJMwXCgYJLnjNsttSeYNVQ6r3qHH3F_SRlK7rfUSyaEz2wOqgjjPRjTj1mNml-rFu0-fOe9zAr7FIn1zgBxcWEvBS2KqWj29dCqOq4fk4HlWwWzEVxaVnJv6m4rr9q7SYHNEv0FqZHWzJ7PxJteLMwkY2NAYPNVN2ucBIUD5givlyxr99jhPVZfjL7yrjFNjTD8q6fgX52VXmEMv0h-j85Xnzjln4Dh2WQ0T2B_8hMQ6P5cyMsOQCrP_PXBxJOITRlgy-FzxFZ9S4W4HKHA-d_lQ4bjOhXSVR7U0tlfJYOH3R0jOcIsR1wZCPhFu9g6q3vYa_fV7hv4nefn04b7ONfVK9wO19xkNlgMGr8PjzOsx5j1- - -3cr_G9VEmLzYK531AuPbt1Xh2ep4YhPypxQjDdeVn8kfqC3VlVP23N9fqdg7EiVA7wOMHTCGjNP5WmgjsAIDqUqcT_KW9VxSeIvMmPJV5Fd2JzaZeEzM2zc2caVhdi_5N2989yqfs12deSgeThmoXkbFHWpwdV7cUXJjL6V7skLuEeMJbydf9jcDtc4gcMSyHX6byd4XHfTKAbUipNZYxZYjj6fZK4iB67Q-LAhix-b8hh044iUUueqr4fc8KKOnl6kUzYmUxAnbYQ3iOZ6SOaSCXjdHWYdEkuhs6Z7WVQ863DoXZ0cEFI72Jy99aDa2A3wM55boXWMOZ1FXpA_7B3yo6HFJsGhH0UCKBCtBJoWNYdYyMrl0yzm4-4v2vVh_OYN60PWcVVB4aGGIGM9ptp3KbclgTzfy3lQQ6xXblRbpjEL-rPACCMSCdEFn8plWkCv8vmW5zF5grlwiQVcq2ka977bb4-AiQEYqikTewAS1CIMipUk4rVfka4otWXV1QonUySkJgzxP-FITcsUFrUOchCajxZCEIUVWW4Di6nMXeVuv4y_iTPPRSjRs720IVdfyt6sOR2BPFcEKbrCION4tyRWBCw8lVjh6Tn_nOiVdRcIPedRoxgHNjwSUd8ciPz2hQzGA7n3d9K-luV_oK5Y0vrNIxNTUEjx4vsNpBNzUFda_41BMYrub1QGt27hpyb6vv9a25goMYfQ8bIgLMKgga_4B5SbaiYgSJeKcYH8ohGWqy_UjNxIEU1lYlwdk8Z3BMqCH_RQmwNn4MQMn9tkcOlwRtw-l_tZx9dW5bQGM35bO92qrzVMtp89Qo30eXcGuz9queiN0_HHrz2OpiwHmd0X9gkyxGaZUlAYdUFUZxhk186H2vQXOw51yvyfn_1GYPrwPAb2BqmoK7DBch1nXSnbR9GKTr5gPcN1NORaQ4x_6HyaMB3UzD95QKe1GRFOMvohXMwj0ELwnfxgSRC0wcMmKSr1znhaO9kWWrb_XyfdI60fzmUTjBEaU2JVkzL2Gcbu4DzCJmN9FJJOE427_0W00]--></g></svg>