<?xml version="1.0" encoding="us-ascii" standalone="no"?><svg xmlns="http://www.w3.org/2000/svg" xmlns:xlink="http://www.w3.org/1999/xlink" contentStyleType="text/css" height="718.8px" preserveAspectRatio="none" style="width:1378px;height:718px;background:#FFFFFF;" version="1.1" viewBox="0 0 1378 718" width="1378.8px" zoomAndPan="magnify"><defs/><g><!--class CreateRequestUI--><g id="elem_CreateRequestUI"><rect codeLine="4" fill="#F1F1F1" height="28.8" id="CreateRequestUI" rx="1.5" ry="1.5" style="stroke:#181818;stroke-width:0.3;" width="84" x="586.5" y="4.2"/><ellipse cx="595.5" cy="13.8" fill="#ADD1B2" rx="6.6" ry="6.6" style="stroke:#181818;stroke-width:0.6;"/><path d="M597.1594,11.325 Q597.2531,11.1938 597.3656,11.1281 Q597.4781,11.0625 597.6094,11.0625 Q597.8344,11.0625 597.975,11.2219 Q598.1156,11.3719 598.1156,11.7375 L598.1156,12.6094 Q598.1156,12.975 597.975,13.1344 Q597.8344,13.2938 597.6094,13.2938 Q597.4031,13.2938 597.2813,13.1719 Q597.1594,13.0594 597.0938,12.75 Q597.0656,12.5344 596.9531,12.4219 Q596.7563,12.1969 596.3906,12.0656 Q596.025,11.9344 595.65,11.9344 Q595.1906,11.9344 594.8063,12.1313 Q594.4313,12.3281 594.1313,12.7781 Q593.8406,13.2281 593.8406,13.8469 L593.8406,14.5031 Q593.8406,15.2437 594.375,15.7406 Q594.9094,16.2281 595.8656,16.2281 Q596.4281,16.2281 596.8219,16.0781 Q597.0563,15.9844 597.3094,15.7219 Q597.4688,15.5625 597.5531,15.5156 Q597.6469,15.4688 597.7688,15.4688 Q597.9656,15.4688 598.1156,15.6281 Q598.275,15.7781 598.275,15.9844 Q598.275,16.1906 598.0688,16.4344 Q597.7688,16.7813 597.2906,16.9781 Q596.6438,17.25 595.8656,17.25 Q594.9563,17.25 594.2344,16.875 Q593.6438,16.575 593.2312,15.9375 Q592.8188,15.2906 592.8188,14.5219 L592.8188,13.8281 Q592.8188,13.0313 593.1844,12.3469 Q593.5594,11.6531 594.2156,11.2875 Q594.8719,10.9125 595.6125,10.9125 Q596.0531,10.9125 596.4375,11.0156 Q596.8313,11.1094 597.1594,11.325 Z " fill="#000000"/><text fill="#000000" font-family="sans-serif" font-size="8.4" lengthAdjust="spacing" textLength="64.8" x="603.9" y="16.7121">CreateRequestUI</text><line style="stroke:#181818;stroke-width:0.3;" x1="587.1" x2="669.9" y1="23.4" y2="23.4"/><line style="stroke:#181818;stroke-width:0.3;" x1="587.1" x2="669.9" y1="28.2" y2="28.2"/></g><!--class CreateRequestController--><g id="elem_CreateRequestController"><rect codeLine="7" fill="#F1F1F1" height="94.4906" id="CreateRequestController" rx="1.5" ry="1.5" style="stroke:#181818;stroke-width:0.3;" width="255.6" x="500.7" y="106.8"/><ellipse cx="578.55" cy="116.4" fill="#ADD1B2" rx="6.6" ry="6.6" style="stroke:#181818;stroke-width:0.6;"/><path d="M580.2094,113.925 Q580.3031,113.7938 580.4156,113.7281 Q580.5281,113.6625 580.6594,113.6625 Q580.8844,113.6625 581.025,113.8219 Q581.1656,113.9719 581.1656,114.3375 L581.1656,115.2094 Q581.1656,115.575 581.025,115.7344 Q580.8844,115.8938 580.6594,115.8938 Q580.4531,115.8938 580.3313,115.7719 Q580.2094,115.6594 580.1438,115.35 Q580.1156,115.1344 580.0031,115.0219 Q579.8063,114.7969 579.4406,114.6656 Q579.075,114.5344 578.7,114.5344 Q578.2406,114.5344 577.8562,114.7313 Q577.4812,114.9281 577.1813,115.3781 Q576.8906,115.8281 576.8906,116.4469 L576.8906,117.1031 Q576.8906,117.8438 577.425,118.3406 Q577.9594,118.8281 578.9156,118.8281 Q579.4781,118.8281 579.8719,118.6781 Q580.1062,118.5844 580.3594,118.3219 Q580.5188,118.1625 580.6031,118.1156 Q580.6969,118.0688 580.8188,118.0688 Q581.0156,118.0688 581.1656,118.2281 Q581.325,118.3781 581.325,118.5844 Q581.325,118.7906 581.1188,119.0344 Q580.8188,119.3813 580.3406,119.5781 Q579.6938,119.85 578.9156,119.85 Q578.0063,119.85 577.2844,119.475 Q576.6938,119.175 576.2813,118.5375 Q575.8688,117.8906 575.8688,117.1219 L575.8688,116.4281 Q575.8688,115.6313 576.2344,114.9469 Q576.6094,114.2531 577.2656,113.8875 Q577.9219,113.5125 578.6625,113.5125 Q579.1031,113.5125 579.4875,113.6156 Q579.8813,113.7094 580.2094,113.925 Z " fill="#000000"/><text fill="#000000" font-family="sans-serif" font-size="8.4" lengthAdjust="spacing" textLength="94.8" x="590.85" y="119.3121">CreateRequestController</text><line style="stroke:#181818;stroke-width:0.3;" x1="501.3" x2="755.7" y1="126" y2="126"/><line style="stroke:#181818;stroke-width:0.3;" x1="501.3" x2="755.7" y1="130.8" y2="130.8"/><text fill="#000000" font-family="sans-serif" font-size="8.4" lengthAdjust="spacing" textLength="248.4" x="504.3" y="140.8043">+CreateRequestController(requestRepository, agencyRepository)</text><text fill="#000000" font-family="sans-serif" font-size="8.4" lengthAdjust="spacing" textLength="94.2" x="504.3" y="150.1887">+CreatePhotograph(URI)</text><text fill="#000000" font-family="sans-serif" font-size="8.4" lengthAdjust="spacing" textLength="82.8" x="504.3" y="159.573">+getTypeOfRequest()</text><text fill="#000000" font-family="sans-serif" font-size="8.4" lengthAdjust="spacing" textLength="51" x="504.3" y="168.9574">+getAgency()</text><text fill="#000000" font-family="sans-serif" font-size="8.4" lengthAdjust="spacing" textLength="49.8" x="504.3" y="178.3418">+getBranch()</text><text fill="#000000" font-family="sans-serif" font-size="8.4" lengthAdjust="spacing" textLength="45" x="504.3" y="187.7262">+getAgent()</text><text fill="#000000" font-family="sans-serif" font-size="8.4" lengthAdjust="spacing" textLength="66.6" x="504.3" y="197.1105">+createRequest()</text></g><!--class Repositories--><g id="elem_Repositories"><rect codeLine="17" fill="#F1F1F1" height="66.3375" id="Repositories" rx="1.5" ry="1.5" style="stroke:#181818;stroke-width:0.3;" width="102.6" x="1166.4" y="367.8"/><ellipse cx="1191.6" cy="377.4" fill="#ADD1B2" rx="6.6" ry="6.6" style="stroke:#181818;stroke-width:0.6;"/><path d="M1193.2594,374.925 Q1193.3531,374.7938 1193.4656,374.7281 Q1193.5781,374.6625 1193.7094,374.6625 Q1193.9344,374.6625 1194.075,374.8219 Q1194.2156,374.9719 1194.2156,375.3375 L1194.2156,376.2094 Q1194.2156,376.575 1194.075,376.7344 Q1193.9344,376.8938 1193.7094,376.8938 Q1193.5031,376.8938 1193.3813,376.7719 Q1193.2594,376.6594 1193.1938,376.35 Q1193.1656,376.1344 1193.0531,376.0219 Q1192.8563,375.7969 1192.4906,375.6656 Q1192.125,375.5344 1191.75,375.5344 Q1191.2906,375.5344 1190.9063,375.7313 Q1190.5313,375.9281 1190.2313,376.3781 Q1189.9406,376.8281 1189.9406,377.4469 L1189.9406,378.1031 Q1189.9406,378.8438 1190.475,379.3406 Q1191.0094,379.8281 1191.9656,379.8281 Q1192.5281,379.8281 1192.9219,379.6781 Q1193.1563,379.5844 1193.4094,379.3219 Q1193.5688,379.1625 1193.6531,379.1156 Q1193.7469,379.0687 1193.8687,379.0687 Q1194.0656,379.0687 1194.2156,379.2281 Q1194.375,379.3781 1194.375,379.5844 Q1194.375,379.7906 1194.1688,380.0344 Q1193.8687,380.3812 1193.3906,380.5781 Q1192.7437,380.85 1191.9656,380.85 Q1191.0562,380.85 1190.3344,380.475 Q1189.7437,380.175 1189.3313,379.5375 Q1188.9188,378.8906 1188.9188,378.1219 L1188.9188,377.4281 Q1188.9188,376.6312 1189.2844,375.9469 Q1189.6594,375.2531 1190.3156,374.8875 Q1190.9719,374.5125 1191.7125,374.5125 Q1192.1531,374.5125 1192.5375,374.6156 Q1192.9312,374.7094 1193.2594,374.925 Z " fill="#000000"/><text fill="#000000" font-family="sans-serif" font-size="8.4" lengthAdjust="spacing" textLength="47.4" x="1203.6" y="380.3121">Repositories</text><line style="stroke:#181818;stroke-width:0.3;" x1="1167" x2="1268.4" y1="387" y2="387"/><line style="stroke:#181818;stroke-width:0.3;" x1="1167" x2="1268.4" y1="391.8" y2="391.8"/><text fill="#000000" font-family="sans-serif" font-size="8.4" lengthAdjust="spacing" textLength="56.4" x="1170" y="401.8043">-Repositories()</text><text fill="#000000" font-family="sans-serif" font-size="8.4" lengthAdjust="spacing" textLength="54.6" x="1170" y="411.1887">+getInstance()</text><text fill="#000000" font-family="sans-serif" font-size="8.4" lengthAdjust="spacing" textLength="95.4" x="1170" y="420.573">+getRequestRepository()</text><text fill="#000000" font-family="sans-serif" font-size="8.4" lengthAdjust="spacing" textLength="91.8" x="1170" y="429.9574">+getAgencyRepository()</text></g><!--class RequestRepository--><g id="elem_RequestRepository"><rect codeLine="24" fill="#F1F1F1" height="47.5688" id="RequestRepository" rx="1.5" ry="1.5" style="stroke:#181818;stroke-width:0.3;" width="94.8" x="1170.3" y="489.6"/><ellipse cx="1180.65" cy="499.2" fill="#ADD1B2" rx="6.6" ry="6.6" style="stroke:#181818;stroke-width:0.6;"/><path d="M1182.3094,496.725 Q1182.4031,496.5938 1182.5156,496.5281 Q1182.6281,496.4625 1182.7594,496.4625 Q1182.9844,496.4625 1183.125,496.6219 Q1183.2656,496.7719 1183.2656,497.1375 L1183.2656,498.0094 Q1183.2656,498.375 1183.125,498.5344 Q1182.9844,498.6937 1182.7594,498.6937 Q1182.5531,498.6937 1182.4312,498.5719 Q1182.3094,498.4594 1182.2437,498.15 Q1182.2156,497.9344 1182.1031,497.8219 Q1181.9063,497.5969 1181.5406,497.4656 Q1181.175,497.3344 1180.8,497.3344 Q1180.3406,497.3344 1179.9563,497.5313 Q1179.5813,497.7281 1179.2813,498.1781 Q1178.9906,498.6281 1178.9906,499.2469 L1178.9906,499.9031 Q1178.9906,500.6437 1179.525,501.1406 Q1180.0594,501.6281 1181.0156,501.6281 Q1181.5781,501.6281 1181.9719,501.4781 Q1182.2063,501.3844 1182.4594,501.1219 Q1182.6187,500.9625 1182.7031,500.9156 Q1182.7969,500.8688 1182.9188,500.8688 Q1183.1156,500.8688 1183.2656,501.0281 Q1183.425,501.1781 1183.425,501.3844 Q1183.425,501.5906 1183.2188,501.8344 Q1182.9188,502.1813 1182.4406,502.3781 Q1181.7938,502.65 1181.0156,502.65 Q1180.1063,502.65 1179.3844,502.275 Q1178.7938,501.975 1178.3813,501.3375 Q1177.9688,500.6906 1177.9688,499.9219 L1177.9688,499.2281 Q1177.9688,498.4313 1178.3344,497.7469 Q1178.7094,497.0531 1179.3656,496.6875 Q1180.0219,496.3125 1180.7625,496.3125 Q1181.2031,496.3125 1181.5875,496.4156 Q1181.9813,496.5094 1182.3094,496.725 Z " fill="#000000"/><text fill="#000000" font-family="sans-serif" font-size="8.4" lengthAdjust="spacing" textLength="72.6" x="1189.35" y="502.1121">RequestRepository</text><line style="stroke:#181818;stroke-width:0.3;" x1="1170.9" x2="1264.5" y1="508.8" y2="508.8"/><line style="stroke:#181818;stroke-width:0.3;" x1="1170.9" x2="1264.5" y1="513.6" y2="513.6"/><text fill="#000000" font-family="sans-serif" font-size="8.4" lengthAdjust="spacing" textLength="87.6" x="1173.9" y="523.6043">+getPropertyTypeList()</text><text fill="#000000" font-family="sans-serif" font-size="8.4" lengthAdjust="spacing" textLength="87" x="1173.9" y="532.9887">+getRequestTypeList()</text></g><!--class AgencyRepository--><g id="elem_AgencyRepository"><rect codeLine="29" fill="#F1F1F1" height="56.9531" id="AgencyRepository" rx="1.5" ry="1.5" style="stroke:#181818;stroke-width:0.3;" width="88.2" x="1286.4" y="484.8"/><ellipse cx="1295.4" cy="494.4" fill="#ADD1B2" rx="6.6" ry="6.6" style="stroke:#181818;stroke-width:0.6;"/><path d="M1297.0594,491.925 Q1297.1531,491.7938 1297.2656,491.7281 Q1297.3781,491.6625 1297.5094,491.6625 Q1297.7344,491.6625 1297.875,491.8219 Q1298.0156,491.9719 1298.0156,492.3375 L1298.0156,493.2094 Q1298.0156,493.575 1297.875,493.7344 Q1297.7344,493.8937 1297.5094,493.8937 Q1297.3031,493.8937 1297.1812,493.7719 Q1297.0594,493.6594 1296.9937,493.35 Q1296.9656,493.1344 1296.8531,493.0219 Q1296.6563,492.7969 1296.2906,492.6656 Q1295.925,492.5344 1295.55,492.5344 Q1295.0906,492.5344 1294.7063,492.7313 Q1294.3313,492.9281 1294.0313,493.3781 Q1293.7406,493.8281 1293.7406,494.4469 L1293.7406,495.1031 Q1293.7406,495.8438 1294.275,496.3406 Q1294.8094,496.8281 1295.7656,496.8281 Q1296.3281,496.8281 1296.7219,496.6781 Q1296.9563,496.5844 1297.2094,496.3219 Q1297.3687,496.1625 1297.4531,496.1156 Q1297.5469,496.0687 1297.6688,496.0687 Q1297.8656,496.0687 1298.0156,496.2281 Q1298.175,496.3781 1298.175,496.5844 Q1298.175,496.7906 1297.9688,497.0344 Q1297.6688,497.3812 1297.1906,497.5781 Q1296.5438,497.85 1295.7656,497.85 Q1294.8563,497.85 1294.1344,497.475 Q1293.5438,497.175 1293.1313,496.5375 Q1292.7188,495.8906 1292.7188,495.1219 L1292.7188,494.4281 Q1292.7188,493.6312 1293.0844,492.9469 Q1293.4594,492.2531 1294.1156,491.8875 Q1294.7719,491.5125 1295.5125,491.5125 Q1295.9531,491.5125 1296.3375,491.6156 Q1296.7313,491.7094 1297.0594,491.925 Z " fill="#000000"/><text fill="#000000" font-family="sans-serif" font-size="8.4" lengthAdjust="spacing" textLength="69" x="1303.8" y="497.3121">AgencyRepository</text><line style="stroke:#181818;stroke-width:0.3;" x1="1287" x2="1374" y1="504" y2="504"/><line style="stroke:#181818;stroke-width:0.3;" x1="1287" x2="1374" y1="508.8" y2="508.8"/><text fill="#000000" font-family="sans-serif" font-size="8.4" lengthAdjust="spacing" textLength="64.2" x="1290" y="518.8043">+getAgencyList()</text><text fill="#000000" font-family="sans-serif" font-size="8.4" lengthAdjust="spacing" textLength="63" x="1290" y="528.1887">+getBranchList()</text><text fill="#000000" font-family="sans-serif" font-size="8.4" lengthAdjust="spacing" textLength="62.4" x="1290" y="537.573">+getAgentsList()</text></g><!--class Photograph--><g id="elem_Photograph"><rect codeLine="35" fill="#F1F1F1" height="38.1844" id="Photograph" rx="1.5" ry="1.5" style="stroke:#181818;stroke-width:0.3;" width="63.6" x="1000.5" y="381.9"/><ellipse cx="1009.5" cy="391.5" fill="#ADD1B2" rx="6.6" ry="6.6" style="stroke:#181818;stroke-width:0.6;"/><path d="M1011.1594,389.025 Q1011.2531,388.8938 1011.3656,388.8281 Q1011.4781,388.7625 1011.6094,388.7625 Q1011.8344,388.7625 1011.975,388.9219 Q1012.1156,389.0719 1012.1156,389.4375 L1012.1156,390.3094 Q1012.1156,390.675 1011.975,390.8344 Q1011.8344,390.9938 1011.6094,390.9938 Q1011.4031,390.9938 1011.2813,390.8719 Q1011.1594,390.7594 1011.0938,390.45 Q1011.0656,390.2344 1010.9531,390.1219 Q1010.7562,389.8969 1010.3906,389.7656 Q1010.025,389.6344 1009.65,389.6344 Q1009.1906,389.6344 1008.8063,389.8313 Q1008.4313,390.0281 1008.1312,390.4781 Q1007.8406,390.9281 1007.8406,391.5469 L1007.8406,392.2031 Q1007.8406,392.9437 1008.375,393.4406 Q1008.9094,393.9281 1009.8656,393.9281 Q1010.4281,393.9281 1010.8219,393.7781 Q1011.0563,393.6844 1011.3094,393.4219 Q1011.4688,393.2625 1011.5531,393.2156 Q1011.6469,393.1688 1011.7688,393.1688 Q1011.9656,393.1688 1012.1156,393.3281 Q1012.275,393.4781 1012.275,393.6844 Q1012.275,393.8906 1012.0687,394.1344 Q1011.7688,394.4813 1011.2906,394.6781 Q1010.6438,394.95 1009.8656,394.95 Q1008.9563,394.95 1008.2344,394.575 Q1007.6438,394.275 1007.2312,393.6375 Q1006.8187,392.9906 1006.8187,392.2219 L1006.8187,391.5281 Q1006.8187,390.7313 1007.1844,390.0469 Q1007.5594,389.3531 1008.2156,388.9875 Q1008.8719,388.6125 1009.6125,388.6125 Q1010.0531,388.6125 1010.4375,388.7156 Q1010.8313,388.8094 1011.1594,389.025 Z " fill="#000000"/><text fill="#000000" font-family="sans-serif" font-size="8.4" lengthAdjust="spacing" textLength="44.4" x="1017.9" y="394.4121">Photograph</text><line style="stroke:#181818;stroke-width:0.3;" x1="1001.1" x2="1063.5" y1="401.1" y2="401.1"/><text fill="#000000" font-family="sans-serif" font-size="8.4" lengthAdjust="spacing" textLength="40.8" x="1004.1" y="411.1043">-String URI</text><line style="stroke:#181818;stroke-width:0.3;" x1="1001.1" x2="1063.5" y1="415.2844" y2="415.2844"/></g><!--class PhotographList--><g id="elem_PhotographList"><rect codeLine="40" fill="#F1F1F1" height="38.1844" id="PhotographList" rx="1.5" ry="1.5" style="stroke:#181818;stroke-width:0.3;" width="114.6" x="827.4" y="265.2"/><ellipse cx="853.41" cy="274.8" fill="#ADD1B2" rx="6.6" ry="6.6" style="stroke:#181818;stroke-width:0.6;"/><path d="M855.0694,272.325 Q855.1631,272.1937 855.2756,272.1281 Q855.3881,272.0625 855.5194,272.0625 Q855.7444,272.0625 855.885,272.2219 Q856.0256,272.3719 856.0256,272.7375 L856.0256,273.6094 Q856.0256,273.975 855.885,274.1344 Q855.7444,274.2938 855.5194,274.2938 Q855.3131,274.2938 855.1913,274.1719 Q855.0694,274.0594 855.0038,273.75 Q854.9756,273.5344 854.8631,273.4219 Q854.6662,273.1969 854.3006,273.0656 Q853.935,272.9344 853.56,272.9344 Q853.1006,272.9344 852.7163,273.1312 Q852.3413,273.3281 852.0412,273.7781 Q851.7506,274.2281 851.7506,274.8469 L851.7506,275.5031 Q851.7506,276.2438 852.285,276.7406 Q852.8194,277.2281 853.7756,277.2281 Q854.3381,277.2281 854.7319,277.0781 Q854.9663,276.9844 855.2194,276.7219 Q855.3788,276.5625 855.4631,276.5156 Q855.5569,276.4688 855.6787,276.4688 Q855.8756,276.4688 856.0256,276.6281 Q856.185,276.7781 856.185,276.9844 Q856.185,277.1906 855.9787,277.4344 Q855.6787,277.7813 855.2006,277.9781 Q854.5537,278.25 853.7756,278.25 Q852.8662,278.25 852.1444,277.875 Q851.5537,277.575 851.1412,276.9375 Q850.7287,276.2906 850.7287,275.5219 L850.7287,274.8281 Q850.7287,274.0313 851.0944,273.3469 Q851.4694,272.6531 852.1256,272.2875 Q852.7819,271.9125 853.5225,271.9125 Q853.9631,271.9125 854.3475,272.0156 Q854.7412,272.1094 855.0694,272.325 Z " fill="#000000"/><text fill="#000000" font-family="sans-serif" font-size="8.4" lengthAdjust="spacing" textLength="57.6" x="865.59" y="277.7121">PhotographList</text><line style="stroke:#181818;stroke-width:0.3;" x1="828" x2="941.4" y1="284.4" y2="284.4"/><text fill="#000000" font-family="sans-serif" font-size="8.4" lengthAdjust="spacing" textLength="107.4" x="831" y="294.4043">-addPhotographToPhotoList</text><line style="stroke:#181818;stroke-width:0.3;" x1="828" x2="941.4" y1="298.5844" y2="298.5844"/></g><!--class Request--><g id="elem_Request"><rect codeLine="44" fill="#F1F1F1" height="75.7219" id="Request" rx="1.5" ry="1.5" style="stroke:#181818;stroke-width:0.3;" width="82.2" x="465.6" y="246.6"/><ellipse cx="488.64" cy="256.2" fill="#ADD1B2" rx="6.6" ry="6.6" style="stroke:#181818;stroke-width:0.6;"/><path d="M490.2994,253.725 Q490.3931,253.5938 490.5056,253.5281 Q490.6181,253.4625 490.7494,253.4625 Q490.9744,253.4625 491.115,253.6219 Q491.2556,253.7719 491.2556,254.1375 L491.2556,255.0094 Q491.2556,255.375 491.115,255.5344 Q490.9744,255.6938 490.7494,255.6938 Q490.5431,255.6938 490.4213,255.5719 Q490.2994,255.4594 490.2338,255.15 Q490.2056,254.9344 490.0931,254.8219 Q489.8962,254.5969 489.5306,254.4656 Q489.165,254.3344 488.79,254.3344 Q488.3306,254.3344 487.9462,254.5313 Q487.5712,254.7281 487.2712,255.1781 Q486.9806,255.6281 486.9806,256.2469 L486.9806,256.9031 Q486.9806,257.6438 487.515,258.1406 Q488.0494,258.6281 489.0056,258.6281 Q489.5681,258.6281 489.9619,258.4781 Q490.1962,258.3844 490.4494,258.1219 Q490.6088,257.9625 490.6931,257.9156 Q490.7869,257.8688 490.9087,257.8688 Q491.1056,257.8688 491.2556,258.0281 Q491.415,258.1781 491.415,258.3844 Q491.415,258.5906 491.2087,258.8344 Q490.9087,259.1813 490.4306,259.3781 Q489.7837,259.65 489.0056,259.65 Q488.0962,259.65 487.3744,259.275 Q486.7837,258.975 486.3713,258.3375 Q485.9587,257.6906 485.9587,256.9219 L485.9587,256.2281 Q485.9587,255.4312 486.3244,254.7469 Q486.6994,254.0531 487.3556,253.6875 Q488.0119,253.3125 488.7525,253.3125 Q489.1931,253.3125 489.5775,253.4156 Q489.9712,253.5094 490.2994,253.725 Z " fill="#000000"/><text fill="#000000" font-family="sans-serif" font-size="8.4" lengthAdjust="spacing" textLength="31.8" x="500.16" y="259.1121">Request</text><line style="stroke:#181818;stroke-width:0.3;" x1="466.2" x2="547.2" y1="265.8" y2="265.8"/><text fill="#000000" font-family="sans-serif" font-size="8.4" lengthAdjust="spacing" textLength="50.4" x="469.2" y="275.8043">-String status</text><text fill="#000000" font-family="sans-serif" font-size="8.4" lengthAdjust="spacing" textLength="75" x="469.2" y="285.1887">-String dateOfBegin</text><text fill="#000000" font-family="sans-serif" font-size="8.4" lengthAdjust="spacing" textLength="60" x="469.2" y="294.573">-String endDate</text><line style="stroke:#181818;stroke-width:0.3;" x1="466.2" x2="547.2" y1="298.7531" y2="298.7531"/><text fill="#000000" font-family="sans-serif" font-size="8.4" lengthAdjust="spacing" textLength="55.2" x="469.2" y="308.7574">-addRequest()</text><text fill="#000000" font-family="sans-serif" font-size="8.4" lengthAdjust="spacing" textLength="72" x="469.2" y="318.1418">+validateRequest()</text></g><!--class Property--><g id="elem_Property"><rect codeLine="52" fill="#F1F1F1" height="66.3375" id="Property" rx="1.5" ry="1.5" style="stroke:#181818;stroke-width:0.3;" width="413.4" x="565.8" y="367.8"/><ellipse cx="753.75" cy="377.4" fill="#ADD1B2" rx="6.6" ry="6.6" style="stroke:#181818;stroke-width:0.6;"/><path d="M755.4094,374.925 Q755.5031,374.7938 755.6156,374.7281 Q755.7281,374.6625 755.8594,374.6625 Q756.0844,374.6625 756.225,374.8219 Q756.3656,374.9719 756.3656,375.3375 L756.3656,376.2094 Q756.3656,376.575 756.225,376.7344 Q756.0844,376.8938 755.8594,376.8938 Q755.6531,376.8938 755.5313,376.7719 Q755.4094,376.6594 755.3438,376.35 Q755.3156,376.1344 755.2031,376.0219 Q755.0063,375.7969 754.6406,375.6656 Q754.275,375.5344 753.9,375.5344 Q753.4406,375.5344 753.0563,375.7313 Q752.6813,375.9281 752.3813,376.3781 Q752.0906,376.8281 752.0906,377.4469 L752.0906,378.1031 Q752.0906,378.8438 752.625,379.3406 Q753.1594,379.8281 754.1156,379.8281 Q754.6781,379.8281 755.0719,379.6781 Q755.3063,379.5844 755.5594,379.3219 Q755.7188,379.1625 755.8031,379.1156 Q755.8969,379.0687 756.0188,379.0687 Q756.2156,379.0687 756.3656,379.2281 Q756.525,379.3781 756.525,379.5844 Q756.525,379.7906 756.3188,380.0344 Q756.0188,380.3812 755.5406,380.5781 Q754.8938,380.85 754.1156,380.85 Q753.2063,380.85 752.4844,380.475 Q751.8938,380.175 751.4812,379.5375 Q751.0688,378.8906 751.0688,378.1219 L751.0688,377.4281 Q751.0688,376.6312 751.4344,375.9469 Q751.8094,375.2531 752.4656,374.8875 Q753.1219,374.5125 753.8625,374.5125 Q754.3031,374.5125 754.6875,374.6156 Q755.0813,374.7094 755.4094,374.925 Z " fill="#000000"/><text fill="#000000" font-family="sans-serif" font-size="8.4" lengthAdjust="spacing" textLength="32.4" x="766.05" y="380.3121">Property</text><line style="stroke:#181818;stroke-width:0.3;" x1="566.4" x2="978.6" y1="387" y2="387"/><text fill="#000000" font-family="sans-serif" font-size="8.4" lengthAdjust="spacing" textLength="48.6" x="569.4" y="397.0043">-double area</text><text fill="#000000" font-family="sans-serif" font-size="8.4" lengthAdjust="spacing" textLength="123" x="569.4" y="406.3887">-double distanceFromCityCenter</text><text fill="#000000" font-family="sans-serif" font-size="8.4" lengthAdjust="spacing" textLength="49.8" x="569.4" y="415.773">-double price</text><line style="stroke:#181818;stroke-width:0.3;" x1="566.4" x2="978.6" y1="419.9531" y2="419.9531"/><text fill="#000000" font-family="sans-serif" font-size="8.4" lengthAdjust="spacing" textLength="406.2" x="569.4" y="429.9574">+createRequest(agentName, propertyType, area, location, distanceFromCityCenter, price, photographList )</text></g><!--class Residence--><g id="elem_Residence"><rect codeLine="59" fill="#F1F1F1" height="66.3375" id="Residence" rx="1.5" ry="1.5" style="stroke:#181818;stroke-width:0.3;" width="753.6" x="395.7" y="480"/><ellipse cx="749.85" cy="489.6" fill="#ADD1B2" rx="6.6" ry="6.6" style="stroke:#181818;stroke-width:0.6;"/><path d="M751.5094,487.125 Q751.6031,486.9938 751.7156,486.9281 Q751.8281,486.8625 751.9594,486.8625 Q752.1844,486.8625 752.325,487.0219 Q752.4656,487.1719 752.4656,487.5375 L752.4656,488.4094 Q752.4656,488.775 752.325,488.9344 Q752.1844,489.0938 751.9594,489.0938 Q751.7531,489.0938 751.6313,488.9719 Q751.5094,488.8594 751.4438,488.55 Q751.4156,488.3344 751.3031,488.2219 Q751.1062,487.9969 750.7406,487.8656 Q750.375,487.7344 750,487.7344 Q749.5406,487.7344 749.1563,487.9313 Q748.7813,488.1281 748.4812,488.5781 Q748.1906,489.0281 748.1906,489.6469 L748.1906,490.3031 Q748.1906,491.0438 748.725,491.5406 Q749.2594,492.0281 750.2156,492.0281 Q750.7781,492.0281 751.1719,491.8781 Q751.4063,491.7844 751.6594,491.5219 Q751.8188,491.3625 751.9031,491.3156 Q751.9969,491.2687 752.1188,491.2687 Q752.3156,491.2687 752.4656,491.4281 Q752.625,491.5781 752.625,491.7844 Q752.625,491.9906 752.4187,492.2344 Q752.1188,492.5812 751.6406,492.7781 Q750.9938,493.05 750.2156,493.05 Q749.3063,493.05 748.5844,492.675 Q747.9938,492.375 747.5813,491.7375 Q747.1687,491.0906 747.1687,490.3219 L747.1687,489.6281 Q747.1687,488.8312 747.5344,488.1469 Q747.9094,487.4531 748.5656,487.0875 Q749.2219,486.7125 749.9625,486.7125 Q750.4031,486.7125 750.7875,486.8156 Q751.1813,486.9094 751.5094,487.125 Z " fill="#000000"/><text fill="#000000" font-family="sans-serif" font-size="8.4" lengthAdjust="spacing" textLength="40.2" x="762.15" y="492.5121">Residence</text><line style="stroke:#181818;stroke-width:0.3;" x1="396.3" x2="1148.7" y1="499.2" y2="499.2"/><text fill="#000000" font-family="sans-serif" font-size="8.4" lengthAdjust="spacing" textLength="107.4" x="399.3" y="509.2043">-double numberOfBedrooms</text><text fill="#000000" font-family="sans-serif" font-size="8.4" lengthAdjust="spacing" textLength="109.8" x="399.3" y="518.5887">-double numberOfBathrooms</text><text fill="#000000" font-family="sans-serif" font-size="8.4" lengthAdjust="spacing" textLength="126" x="399.3" y="527.973">-double numberOfParkingSpaces</text><line style="stroke:#181818;stroke-width:0.3;" x1="396.3" x2="1148.7" y1="532.1531" y2="532.1531"/><text fill="#000000" font-family="sans-serif" font-size="8.4" lengthAdjust="spacing" textLength="746.4" x="399.3" y="542.1574">+createRequest(agentName, propertyType, area, location, distanceFromCityCenter, price, photographList, numberOfBedrooms, numberOfBathrooms, numberOfParkingSpaces, availableEquipment)</text></g><!--class AvailableEquipment--><g id="elem_AvailableEquipment"><rect codeLine="66" fill="#F1F1F1" height="38.1844" id="AvailableEquipment" rx="1.5" ry="1.5" style="stroke:#181818;stroke-width:0.3;" width="93.6" x="1274.1" y="592.5"/><ellipse cx="1283.1" cy="602.1" fill="#ADD1B2" rx="6.6" ry="6.6" style="stroke:#181818;stroke-width:0.6;"/><path d="M1284.7594,599.625 Q1284.8531,599.4938 1284.9656,599.4281 Q1285.0781,599.3625 1285.2094,599.3625 Q1285.4344,599.3625 1285.575,599.5219 Q1285.7156,599.6719 1285.7156,600.0375 L1285.7156,600.9094 Q1285.7156,601.275 1285.575,601.4344 Q1285.4344,601.5938 1285.2094,601.5938 Q1285.0031,601.5938 1284.8813,601.4719 Q1284.7594,601.3594 1284.6938,601.05 Q1284.6656,600.8344 1284.5531,600.7219 Q1284.3563,600.4969 1283.9906,600.3656 Q1283.625,600.2344 1283.25,600.2344 Q1282.7906,600.2344 1282.4063,600.4313 Q1282.0313,600.6281 1281.7313,601.0781 Q1281.4406,601.5281 1281.4406,602.1469 L1281.4406,602.8031 Q1281.4406,603.5437 1281.975,604.0406 Q1282.5094,604.5281 1283.4656,604.5281 Q1284.0281,604.5281 1284.4219,604.3781 Q1284.6563,604.2844 1284.9094,604.0219 Q1285.0688,603.8625 1285.1531,603.8156 Q1285.2469,603.7688 1285.3687,603.7688 Q1285.5656,603.7688 1285.7156,603.9281 Q1285.875,604.0781 1285.875,604.2844 Q1285.875,604.4906 1285.6688,604.7344 Q1285.3687,605.0813 1284.8906,605.2781 Q1284.2437,605.55 1283.4656,605.55 Q1282.5562,605.55 1281.8344,605.175 Q1281.2437,604.875 1280.8313,604.2375 Q1280.4188,603.5906 1280.4188,602.8219 L1280.4188,602.1281 Q1280.4188,601.3313 1280.7844,600.6469 Q1281.1594,599.9531 1281.8156,599.5875 Q1282.4719,599.2125 1283.2125,599.2125 Q1283.6531,599.2125 1284.0375,599.3156 Q1284.4312,599.4094 1284.7594,599.625 Z " fill="#000000"/><text fill="#000000" font-family="sans-serif" font-size="8.4" lengthAdjust="spacing" textLength="74.4" x="1291.5" y="605.0121">AvailableEquipment</text><line style="stroke:#181818;stroke-width:0.3;" x1="1274.7" x2="1367.1" y1="611.7" y2="611.7"/><text fill="#000000" font-family="sans-serif" font-size="8.4" lengthAdjust="spacing" textLength="75.6" x="1277.7" y="621.7043">-boolean equipment</text><line style="stroke:#181818;stroke-width:0.3;" x1="1274.7" x2="1367.1" y1="625.8844" y2="625.8844"/></g><!--class House--><g id="elem_House"><rect codeLine="70" fill="#F1F1F1" height="56.9531" id="House" rx="1.5" ry="1.5" style="stroke:#181818;stroke-width:0.3;" width="960.6" x="292.2" y="583.2"/><ellipse cx="757.95" cy="592.8" fill="#ADD1B2" rx="6.6" ry="6.6" style="stroke:#181818;stroke-width:0.6;"/><path d="M759.6094,590.325 Q759.7031,590.1938 759.8156,590.1281 Q759.9281,590.0625 760.0594,590.0625 Q760.2844,590.0625 760.425,590.2219 Q760.5656,590.3719 760.5656,590.7375 L760.5656,591.6094 Q760.5656,591.975 760.425,592.1344 Q760.2844,592.2937 760.0594,592.2937 Q759.8531,592.2937 759.7312,592.1719 Q759.6094,592.0594 759.5437,591.75 Q759.5156,591.5344 759.4031,591.4219 Q759.2063,591.1969 758.8406,591.0656 Q758.475,590.9344 758.1,590.9344 Q757.6406,590.9344 757.2563,591.1313 Q756.8813,591.3281 756.5813,591.7781 Q756.2906,592.2281 756.2906,592.8469 L756.2906,593.5031 Q756.2906,594.2438 756.825,594.7406 Q757.3594,595.2281 758.3156,595.2281 Q758.8781,595.2281 759.2719,595.0781 Q759.5063,594.9844 759.7594,594.7219 Q759.9187,594.5625 760.0031,594.5156 Q760.0969,594.4688 760.2188,594.4688 Q760.4156,594.4688 760.5656,594.6281 Q760.725,594.7781 760.725,594.9844 Q760.725,595.1906 760.5188,595.4344 Q760.2188,595.7813 759.7406,595.9781 Q759.0938,596.25 758.3156,596.25 Q757.4063,596.25 756.6844,595.875 Q756.0938,595.575 755.6813,594.9375 Q755.2688,594.2906 755.2688,593.5219 L755.2688,592.8281 Q755.2688,592.0313 755.6344,591.3469 Q756.0094,590.6531 756.6656,590.2875 Q757.3219,589.9125 758.0625,589.9125 Q758.5031,589.9125 758.8875,590.0156 Q759.2813,590.1094 759.6094,590.325 Z " fill="#000000"/><text fill="#000000" font-family="sans-serif" font-size="8.4" lengthAdjust="spacing" textLength="24" x="770.25" y="595.7121">House</text><line style="stroke:#181818;stroke-width:0.3;" x1="292.8" x2="1252.2" y1="602.4" y2="602.4"/><text fill="#000000" font-family="sans-serif" font-size="8.4" lengthAdjust="spacing" textLength="123.6" x="295.8" y="612.4043">-boolean existenceOfABasement</text><text fill="#000000" font-family="sans-serif" font-size="8.4" lengthAdjust="spacing" textLength="91.8" x="295.8" y="621.7887">-boolean inhabitableLoft</text><line style="stroke:#181818;stroke-width:0.3;" x1="292.8" x2="1252.2" y1="625.9688" y2="625.9688"/><text fill="#000000" font-family="sans-serif" font-size="8.4" lengthAdjust="spacing" textLength="953.4" x="295.8" y="635.973">+createRequest(agentName, propertyType, area, location, distanceFromCityCenter, price, photographList, numberOfBedrooms, numberOfBathrooms, numberOfParkingSpaces, availableEquipment, existenceOfABasement, inhabitableLoft, sunExposure)</text></g><!--class SunExposure--><g id="elem_SunExposure"><rect codeLine="76" fill="#F1F1F1" height="38.1844" id="SunExposure" rx="1.5" ry="1.5" style="stroke:#181818;stroke-width:0.3;" width="69.6" x="737.7" y="676.8"/><ellipse cx="746.7" cy="686.4" fill="#ADD1B2" rx="6.6" ry="6.6" style="stroke:#181818;stroke-width:0.6;"/><path d="M748.3594,683.925 Q748.4531,683.7937 748.5656,683.7281 Q748.6781,683.6625 748.8094,683.6625 Q749.0344,683.6625 749.175,683.8219 Q749.3156,683.9719 749.3156,684.3375 L749.3156,685.2094 Q749.3156,685.575 749.175,685.7344 Q749.0344,685.8938 748.8094,685.8938 Q748.6031,685.8938 748.4812,685.7719 Q748.3594,685.6594 748.2937,685.35 Q748.2656,685.1344 748.1531,685.0219 Q747.9563,684.7969 747.5906,684.6656 Q747.225,684.5344 746.85,684.5344 Q746.3906,684.5344 746.0063,684.7312 Q745.6313,684.9281 745.3313,685.3781 Q745.0406,685.8281 745.0406,686.4469 L745.0406,687.1031 Q745.0406,687.8438 745.575,688.3406 Q746.1094,688.8281 747.0656,688.8281 Q747.6281,688.8281 748.0219,688.6781 Q748.2563,688.5844 748.5094,688.3219 Q748.6687,688.1625 748.7531,688.1156 Q748.8469,688.0688 748.9688,688.0688 Q749.1656,688.0688 749.3156,688.2281 Q749.475,688.3781 749.475,688.5844 Q749.475,688.7906 749.2688,689.0344 Q748.9688,689.3813 748.4906,689.5781 Q747.8438,689.85 747.0656,689.85 Q746.1563,689.85 745.4344,689.475 Q744.8438,689.175 744.4313,688.5375 Q744.0188,687.8906 744.0188,687.1219 L744.0188,686.4281 Q744.0188,685.6313 744.3844,684.9469 Q744.7594,684.2531 745.4156,683.8875 Q746.0719,683.5125 746.8125,683.5125 Q747.2531,683.5125 747.6375,683.6156 Q748.0313,683.7094 748.3594,683.925 Z " fill="#000000"/><text fill="#000000" font-family="sans-serif" font-size="8.4" lengthAdjust="spacing" textLength="50.4" x="755.1" y="689.3121">SunExposure</text><line style="stroke:#181818;stroke-width:0.3;" x1="738.3" x2="806.7" y1="696" y2="696"/><text fill="#000000" font-family="sans-serif" font-size="8.4" lengthAdjust="spacing" textLength="60" x="741.3" y="706.0043">-String direction</text><line style="stroke:#181818;stroke-width:0.3;" x1="738.3" x2="806.7" y1="710.1844" y2="710.1844"/></g><!--class Address--><g id="elem_Address"><rect codeLine="80" fill="#F1F1F1" height="66.3375" id="Address" rx="1.5" ry="1.5" style="stroke:#181818;stroke-width:0.3;" width="87.6" x="160.5" y="480"/><ellipse cx="186.24" cy="489.6" fill="#ADD1B2" rx="6.6" ry="6.6" style="stroke:#181818;stroke-width:0.6;"/><path d="M187.8994,487.125 Q187.9931,486.9938 188.1056,486.9281 Q188.2181,486.8625 188.3494,486.8625 Q188.5744,486.8625 188.715,487.0219 Q188.8556,487.1719 188.8556,487.5375 L188.8556,488.4094 Q188.8556,488.775 188.715,488.9344 Q188.5744,489.0938 188.3494,489.0938 Q188.1431,489.0938 188.0212,488.9719 Q187.8994,488.8594 187.8337,488.55 Q187.8056,488.3344 187.6931,488.2219 Q187.4962,487.9969 187.1306,487.8656 Q186.765,487.7344 186.39,487.7344 Q185.9306,487.7344 185.5463,487.9313 Q185.1713,488.1281 184.8712,488.5781 Q184.5806,489.0281 184.5806,489.6469 L184.5806,490.3031 Q184.5806,491.0438 185.115,491.5406 Q185.6494,492.0281 186.6056,492.0281 Q187.1681,492.0281 187.5619,491.8781 Q187.7963,491.7844 188.0494,491.5219 Q188.2087,491.3625 188.2931,491.3156 Q188.3869,491.2687 188.5088,491.2687 Q188.7056,491.2687 188.8556,491.4281 Q189.015,491.5781 189.015,491.7844 Q189.015,491.9906 188.8087,492.2344 Q188.5088,492.5812 188.0306,492.7781 Q187.3838,493.05 186.6056,493.05 Q185.6963,493.05 184.9744,492.675 Q184.3838,492.375 183.9712,491.7375 Q183.5587,491.0906 183.5587,490.3219 L183.5587,489.6281 Q183.5587,488.8312 183.9244,488.1469 Q184.2994,487.4531 184.9556,487.0875 Q185.6119,486.7125 186.3525,486.7125 Q186.7931,486.7125 187.1775,486.8156 Q187.5713,486.9094 187.8994,487.125 Z " fill="#000000"/><text fill="#000000" font-family="sans-serif" font-size="8.4" lengthAdjust="spacing" textLength="31.2" x="198.36" y="492.5121">Address</text><line style="stroke:#181818;stroke-width:0.3;" x1="161.1" x2="247.5" y1="499.2" y2="499.2"/><text fill="#000000" font-family="sans-serif" font-size="8.4" lengthAdjust="spacing" textLength="61.2" x="164.1" y="509.2043">-int doorNumber</text><text fill="#000000" font-family="sans-serif" font-size="8.4" lengthAdjust="spacing" textLength="60.6" x="164.1" y="518.5887">-int floorNumber</text><text fill="#000000" font-family="sans-serif" font-size="8.4" lengthAdjust="spacing" textLength="58.2" x="164.1" y="527.973">-String zipCode</text><text fill="#000000" font-family="sans-serif" font-size="8.4" lengthAdjust="spacing" textLength="80.4" x="164.1" y="537.3574">-String streetAddress</text><line style="stroke:#181818;stroke-width:0.3;" x1="161.1" x2="247.5" y1="541.5375" y2="541.5375"/></g><!--class State--><g id="elem_State"><rect codeLine="87" fill="#F1F1F1" height="38.1844" id="State" rx="1.5" ry="1.5" style="stroke:#181818;stroke-width:0.3;" width="75" x="94.2" y="592.5"/><ellipse cx="119.4" cy="602.1" fill="#ADD1B2" rx="6.6" ry="6.6" style="stroke:#181818;stroke-width:0.6;"/><path d="M121.0594,599.625 Q121.1531,599.4938 121.2656,599.4281 Q121.3781,599.3625 121.5094,599.3625 Q121.7344,599.3625 121.875,599.5219 Q122.0156,599.6719 122.0156,600.0375 L122.0156,600.9094 Q122.0156,601.275 121.875,601.4344 Q121.7344,601.5938 121.5094,601.5938 Q121.3031,601.5938 121.1812,601.4719 Q121.0594,601.3594 120.9937,601.05 Q120.9656,600.8344 120.8531,600.7219 Q120.6563,600.4969 120.2906,600.3656 Q119.925,600.2344 119.55,600.2344 Q119.0906,600.2344 118.7063,600.4313 Q118.3313,600.6281 118.0313,601.0781 Q117.7406,601.5281 117.7406,602.1469 L117.7406,602.8031 Q117.7406,603.5437 118.275,604.0406 Q118.8094,604.5281 119.7656,604.5281 Q120.3281,604.5281 120.7219,604.3781 Q120.9563,604.2844 121.2094,604.0219 Q121.3687,603.8625 121.4531,603.8156 Q121.5469,603.7688 121.6687,603.7688 Q121.8656,603.7688 122.0156,603.9281 Q122.175,604.0781 122.175,604.2844 Q122.175,604.4906 121.9688,604.7344 Q121.6687,605.0813 121.1906,605.2781 Q120.5437,605.55 119.7656,605.55 Q118.8562,605.55 118.1344,605.175 Q117.5437,604.875 117.1313,604.2375 Q116.7188,603.5906 116.7188,602.8219 L116.7188,602.1281 Q116.7188,601.3313 117.0844,600.6469 Q117.4594,599.9531 118.1156,599.5875 Q118.7719,599.2125 119.5125,599.2125 Q119.9531,599.2125 120.3375,599.3156 Q120.7312,599.4094 121.0594,599.625 Z " fill="#000000"/><text fill="#000000" font-family="sans-serif" font-size="8.4" lengthAdjust="spacing" textLength="19.8" x="131.4" y="605.0121">State</text><line style="stroke:#181818;stroke-width:0.3;" x1="94.8" x2="168.6" y1="611.7" y2="611.7"/><text fill="#000000" font-family="sans-serif" font-size="8.4" lengthAdjust="spacing" textLength="67.8" x="97.8" y="621.7043">-String stateName</text><line style="stroke:#181818;stroke-width:0.3;" x1="94.8" x2="168.6" y1="625.8844" y2="625.8844"/></g><!--class District--><g id="elem_District"><rect codeLine="91" fill="#F1F1F1" height="38.1844" id="District" rx="1.5" ry="1.5" style="stroke:#181818;stroke-width:0.3;" width="81" x="190.2" y="592.5"/><ellipse cx="215.4" cy="602.1" fill="#ADD1B2" rx="6.6" ry="6.6" style="stroke:#181818;stroke-width:0.6;"/><path d="M217.0594,599.625 Q217.1531,599.4938 217.2656,599.4281 Q217.3781,599.3625 217.5094,599.3625 Q217.7344,599.3625 217.875,599.5219 Q218.0156,599.6719 218.0156,600.0375 L218.0156,600.9094 Q218.0156,601.275 217.875,601.4344 Q217.7344,601.5938 217.5094,601.5938 Q217.3031,601.5938 217.1813,601.4719 Q217.0594,601.3594 216.9938,601.05 Q216.9656,600.8344 216.8531,600.7219 Q216.6563,600.4969 216.2906,600.3656 Q215.925,600.2344 215.55,600.2344 Q215.0906,600.2344 214.7062,600.4313 Q214.3312,600.6281 214.0313,601.0781 Q213.7406,601.5281 213.7406,602.1469 L213.7406,602.8031 Q213.7406,603.5437 214.275,604.0406 Q214.8094,604.5281 215.7656,604.5281 Q216.3281,604.5281 216.7219,604.3781 Q216.9562,604.2844 217.2094,604.0219 Q217.3688,603.8625 217.4531,603.8156 Q217.5469,603.7688 217.6688,603.7688 Q217.8656,603.7688 218.0156,603.9281 Q218.175,604.0781 218.175,604.2844 Q218.175,604.4906 217.9688,604.7344 Q217.6688,605.0813 217.1906,605.2781 Q216.5438,605.55 215.7656,605.55 Q214.8563,605.55 214.1344,605.175 Q213.5438,604.875 213.1313,604.2375 Q212.7188,603.5906 212.7188,602.8219 L212.7188,602.1281 Q212.7188,601.3313 213.0844,600.6469 Q213.4594,599.9531 214.1156,599.5875 Q214.7719,599.2125 215.5125,599.2125 Q215.9531,599.2125 216.3375,599.3156 Q216.7313,599.4094 217.0594,599.625 Z " fill="#000000"/><text fill="#000000" font-family="sans-serif" font-size="8.4" lengthAdjust="spacing" textLength="25.8" x="227.4" y="605.0121">District</text><line style="stroke:#181818;stroke-width:0.3;" x1="190.8" x2="270.6" y1="611.7" y2="611.7"/><text fill="#000000" font-family="sans-serif" font-size="8.4" lengthAdjust="spacing" textLength="73.8" x="193.8" y="621.7043">-String districtName</text><line style="stroke:#181818;stroke-width:0.3;" x1="190.8" x2="270.6" y1="625.8844" y2="625.8844"/></g><!--class City--><g id="elem_City"><rect codeLine="95" fill="#F1F1F1" height="38.1844" id="City" rx="1.5" ry="1.5" style="stroke:#181818;stroke-width:0.3;" width="69" x="4.2" y="592.5"/><ellipse cx="29.13" cy="602.1" fill="#ADD1B2" rx="6.6" ry="6.6" style="stroke:#181818;stroke-width:0.6;"/><path d="M30.7894,599.625 Q30.8831,599.4938 30.9956,599.4281 Q31.1081,599.3625 31.2394,599.3625 Q31.4644,599.3625 31.605,599.5219 Q31.7456,599.6719 31.7456,600.0375 L31.7456,600.9094 Q31.7456,601.275 31.605,601.4344 Q31.4644,601.5938 31.2394,601.5938 Q31.0331,601.5938 30.9112,601.4719 Q30.7894,601.3594 30.7237,601.05 Q30.6956,600.8344 30.5831,600.7219 Q30.3862,600.4969 30.0206,600.3656 Q29.655,600.2344 29.28,600.2344 Q28.8206,600.2344 28.4362,600.4313 Q28.0612,600.6281 27.7612,601.0781 Q27.4706,601.5281 27.4706,602.1469 L27.4706,602.8031 Q27.4706,603.5437 28.005,604.0406 Q28.5394,604.5281 29.4956,604.5281 Q30.0581,604.5281 30.4519,604.3781 Q30.6862,604.2844 30.9394,604.0219 Q31.0987,603.8625 31.1831,603.8156 Q31.2769,603.7688 31.3987,603.7688 Q31.5956,603.7688 31.7456,603.9281 Q31.905,604.0781 31.905,604.2844 Q31.905,604.4906 31.6987,604.7344 Q31.3987,605.0813 30.9206,605.2781 Q30.2737,605.55 29.4956,605.55 Q28.5862,605.55 27.8644,605.175 Q27.2737,604.875 26.8613,604.2375 Q26.4487,603.5906 26.4487,602.8219 L26.4487,602.1281 Q26.4487,601.3313 26.8144,600.6469 Q27.1894,599.9531 27.8456,599.5875 Q28.5019,599.2125 29.2425,599.2125 Q29.6831,599.2125 30.0675,599.3156 Q30.4612,599.4094 30.7894,599.625 Z " fill="#000000"/><text fill="#000000" font-family="sans-serif" font-size="8.4" lengthAdjust="spacing" textLength="14.4" x="41.07" y="605.0121">City</text><line style="stroke:#181818;stroke-width:0.3;" x1="4.8" x2="72.6" y1="611.7" y2="611.7"/><text fill="#000000" font-family="sans-serif" font-size="8.4" lengthAdjust="spacing" textLength="61.8" x="7.8" y="621.7043">-String cityName</text><line style="stroke:#181818;stroke-width:0.3;" x1="4.8" x2="72.6" y1="625.8844" y2="625.8844"/></g><!--class Rent--><g id="elem_Rent"><rect codeLine="99" fill="#F1F1F1" height="38.1844" id="Rent" rx="1.5" ry="1.5" style="stroke:#181818;stroke-width:0.3;" width="84.6" x="460.2" y="381.9"/><ellipse cx="490.95" cy="391.5" fill="#ADD1B2" rx="6.6" ry="6.6" style="stroke:#181818;stroke-width:0.6;"/><path d="M492.6094,389.025 Q492.7031,388.8938 492.8156,388.8281 Q492.9281,388.7625 493.0594,388.7625 Q493.2844,388.7625 493.425,388.9219 Q493.5656,389.0719 493.5656,389.4375 L493.5656,390.3094 Q493.5656,390.675 493.425,390.8344 Q493.2844,390.9938 493.0594,390.9938 Q492.8531,390.9938 492.7313,390.8719 Q492.6094,390.7594 492.5438,390.45 Q492.5156,390.2344 492.4031,390.1219 Q492.2062,389.8969 491.8406,389.7656 Q491.475,389.6344 491.1,389.6344 Q490.6406,389.6344 490.2562,389.8313 Q489.8812,390.0281 489.5812,390.4781 Q489.2906,390.9281 489.2906,391.5469 L489.2906,392.2031 Q489.2906,392.9437 489.825,393.4406 Q490.3594,393.9281 491.3156,393.9281 Q491.8781,393.9281 492.2719,393.7781 Q492.5062,393.6844 492.7594,393.4219 Q492.9188,393.2625 493.0031,393.2156 Q493.0969,393.1688 493.2188,393.1688 Q493.4156,393.1688 493.5656,393.3281 Q493.725,393.4781 493.725,393.6844 Q493.725,393.8906 493.5187,394.1344 Q493.2188,394.4813 492.7406,394.6781 Q492.0938,394.95 491.3156,394.95 Q490.4063,394.95 489.6844,394.575 Q489.0938,394.275 488.6813,393.6375 Q488.2687,392.9906 488.2687,392.2219 L488.2687,391.5281 Q488.2687,390.7313 488.6344,390.0469 Q489.0094,389.3531 489.6656,388.9875 Q490.3219,388.6125 491.0625,388.6125 Q491.5031,388.6125 491.8875,388.7156 Q492.2813,388.8094 492.6094,389.025 Z " fill="#000000"/><text fill="#000000" font-family="sans-serif" font-size="8.4" lengthAdjust="spacing" textLength="18" x="503.25" y="394.4121">Rent</text><line style="stroke:#181818;stroke-width:0.3;" x1="460.8" x2="544.2" y1="401.1" y2="401.1"/><text fill="#000000" font-family="sans-serif" font-size="8.4" lengthAdjust="spacing" textLength="77.4" x="463.8" y="411.1043">-int contractDuration</text><line style="stroke:#181818;stroke-width:0.3;" x1="460.8" x2="544.2" y1="415.2844" y2="415.2844"/></g><!--class Owner--><g id="elem_Owner"><rect codeLine="103" fill="#F1F1F1" height="56.9531" id="Owner" rx="1.5" ry="1.5" style="stroke:#181818;stroke-width:0.3;" width="85.8" x="296.4" y="255.9"/><ellipse cx="324.45" cy="265.5" fill="#ADD1B2" rx="6.6" ry="6.6" style="stroke:#181818;stroke-width:0.6;"/><path d="M326.1094,263.025 Q326.2031,262.8938 326.3156,262.8281 Q326.4281,262.7625 326.5594,262.7625 Q326.7844,262.7625 326.925,262.9219 Q327.0656,263.0719 327.0656,263.4375 L327.0656,264.3094 Q327.0656,264.675 326.925,264.8344 Q326.7844,264.9938 326.5594,264.9938 Q326.3531,264.9938 326.2313,264.8719 Q326.1094,264.7594 326.0438,264.45 Q326.0156,264.2344 325.9031,264.1219 Q325.7063,263.8969 325.3406,263.7656 Q324.975,263.6344 324.6,263.6344 Q324.1406,263.6344 323.7562,263.8313 Q323.3812,264.0281 323.0813,264.4781 Q322.7906,264.9281 322.7906,265.5469 L322.7906,266.2031 Q322.7906,266.9437 323.325,267.4406 Q323.8594,267.9281 324.8156,267.9281 Q325.3781,267.9281 325.7719,267.7781 Q326.0062,267.6844 326.2594,267.4219 Q326.4188,267.2625 326.5031,267.2156 Q326.5969,267.1688 326.7188,267.1688 Q326.9156,267.1688 327.0656,267.3281 Q327.225,267.4781 327.225,267.6844 Q327.225,267.8906 327.0188,268.1344 Q326.7188,268.4813 326.2406,268.6781 Q325.5938,268.95 324.8156,268.95 Q323.9063,268.95 323.1844,268.575 Q322.5938,268.275 322.1813,267.6375 Q321.7688,266.9906 321.7688,266.2219 L321.7688,265.5281 Q321.7688,264.7313 322.1344,264.0469 Q322.5094,263.3531 323.1656,262.9875 Q323.8219,262.6125 324.5625,262.6125 Q325.0031,262.6125 325.3875,262.7156 Q325.7813,262.8094 326.1094,263.025 Z " fill="#000000"/><text fill="#000000" font-family="sans-serif" font-size="8.4" lengthAdjust="spacing" textLength="24.6" x="336.75" y="268.4121">Owner</text><line style="stroke:#181818;stroke-width:0.3;" x1="297" x2="381.6" y1="275.1" y2="275.1"/><text fill="#000000" font-family="sans-serif" font-size="8.4" lengthAdjust="spacing" textLength="48.6" x="300" y="285.1043">-String name</text><text fill="#000000" font-family="sans-serif" font-size="8.4" lengthAdjust="spacing" textLength="67.8" x="300" y="294.4887">-int phoneNumber</text><text fill="#000000" font-family="sans-serif" font-size="8.4" lengthAdjust="spacing" textLength="78.6" x="300" y="303.873">-String emailAddress</text><line style="stroke:#181818;stroke-width:0.3;" x1="297" x2="381.6" y1="308.0531" y2="308.0531"/></g><!--class Agent--><g id="elem_Agent"><rect codeLine="109" fill="#F1F1F1" height="56.9531" id="Agent" rx="1.5" ry="1.5" style="stroke:#181818;stroke-width:0.3;" width="85.8" x="334.2" y="125.4"/><ellipse cx="363.45" cy="135" fill="#ADD1B2" rx="6.6" ry="6.6" style="stroke:#181818;stroke-width:0.6;"/><path d="M365.1094,132.525 Q365.2031,132.3937 365.3156,132.3281 Q365.4281,132.2625 365.5594,132.2625 Q365.7844,132.2625 365.925,132.4219 Q366.0656,132.5719 366.0656,132.9375 L366.0656,133.8094 Q366.0656,134.175 365.925,134.3344 Q365.7844,134.4938 365.5594,134.4938 Q365.3531,134.4938 365.2313,134.3719 Q365.1094,134.2594 365.0438,133.95 Q365.0156,133.7344 364.9031,133.6219 Q364.7063,133.3969 364.3406,133.2656 Q363.975,133.1344 363.6,133.1344 Q363.1406,133.1344 362.7562,133.3312 Q362.3812,133.5281 362.0813,133.9781 Q361.7906,134.4281 361.7906,135.0469 L361.7906,135.7031 Q361.7906,136.4438 362.325,136.9406 Q362.8594,137.4281 363.8156,137.4281 Q364.3781,137.4281 364.7719,137.2781 Q365.0062,137.1844 365.2594,136.9219 Q365.4188,136.7625 365.5031,136.7156 Q365.5969,136.6688 365.7188,136.6688 Q365.9156,136.6688 366.0656,136.8281 Q366.225,136.9781 366.225,137.1844 Q366.225,137.3906 366.0188,137.6344 Q365.7188,137.9813 365.2406,138.1781 Q364.5938,138.45 363.8156,138.45 Q362.9063,138.45 362.1844,138.075 Q361.5938,137.775 361.1813,137.1375 Q360.7688,136.4906 360.7688,135.7219 L360.7688,135.0281 Q360.7688,134.2313 361.1344,133.5469 Q361.5094,132.8531 362.1656,132.4875 Q362.8219,132.1125 363.5625,132.1125 Q364.0031,132.1125 364.3875,132.2156 Q364.7813,132.3094 365.1094,132.525 Z " fill="#000000"/><text fill="#000000" font-family="sans-serif" font-size="8.4" lengthAdjust="spacing" textLength="22.2" x="375.75" y="137.9121">Agent</text><line style="stroke:#181818;stroke-width:0.3;" x1="334.8" x2="419.4" y1="144.6" y2="144.6"/><text fill="#000000" font-family="sans-serif" font-size="8.4" lengthAdjust="spacing" textLength="48.6" x="337.8" y="154.6043">-String name</text><text fill="#000000" font-family="sans-serif" font-size="8.4" lengthAdjust="spacing" textLength="67.8" x="337.8" y="163.9887">-int phoneNumber</text><text fill="#000000" font-family="sans-serif" font-size="8.4" lengthAdjust="spacing" textLength="78.6" x="337.8" y="173.373">-String emailAddress</text><line style="stroke:#181818;stroke-width:0.3;" x1="334.8" x2="419.4" y1="177.5531" y2="177.5531"/></g><!--class TaxNumber--><g id="elem_TaxNumber"><rect codeLine="115" fill="#F1F1F1" height="38.1844" id="TaxNumber" rx="1.5" ry="1.5" style="stroke:#181818;stroke-width:0.3;" width="62.4" x="376.5" y="381.9"/><ellipse cx="385.5" cy="391.5" fill="#ADD1B2" rx="6.6" ry="6.6" style="stroke:#181818;stroke-width:0.6;"/><path d="M387.1594,389.025 Q387.2531,388.8938 387.3656,388.8281 Q387.4781,388.7625 387.6094,388.7625 Q387.8344,388.7625 387.975,388.9219 Q388.1156,389.0719 388.1156,389.4375 L388.1156,390.3094 Q388.1156,390.675 387.975,390.8344 Q387.8344,390.9938 387.6094,390.9938 Q387.4031,390.9938 387.2813,390.8719 Q387.1594,390.7594 387.0938,390.45 Q387.0656,390.2344 386.9531,390.1219 Q386.7562,389.8969 386.3906,389.7656 Q386.025,389.6344 385.65,389.6344 Q385.1906,389.6344 384.8063,389.8313 Q384.4313,390.0281 384.1312,390.4781 Q383.8406,390.9281 383.8406,391.5469 L383.8406,392.2031 Q383.8406,392.9437 384.375,393.4406 Q384.9094,393.9281 385.8656,393.9281 Q386.4281,393.9281 386.8219,393.7781 Q387.0563,393.6844 387.3094,393.4219 Q387.4688,393.2625 387.5531,393.2156 Q387.6469,393.1688 387.7688,393.1688 Q387.9656,393.1688 388.1156,393.3281 Q388.275,393.4781 388.275,393.6844 Q388.275,393.8906 388.0687,394.1344 Q387.7688,394.4813 387.2906,394.6781 Q386.6438,394.95 385.8656,394.95 Q384.9563,394.95 384.2344,394.575 Q383.6438,394.275 383.2313,393.6375 Q382.8187,392.9906 382.8187,392.2219 L382.8187,391.5281 Q382.8187,390.7313 383.1844,390.0469 Q383.5594,389.3531 384.2156,388.9875 Q384.8719,388.6125 385.6125,388.6125 Q386.0531,388.6125 386.4375,388.7156 Q386.8313,388.8094 387.1594,389.025 Z " fill="#000000"/><text fill="#000000" font-family="sans-serif" font-size="8.4" lengthAdjust="spacing" textLength="43.2" x="393.9" y="394.4121">TaxNumber</text><line style="stroke:#181818;stroke-width:0.3;" x1="377.1" x2="438.3" y1="401.1" y2="401.1"/><text fill="#000000" font-family="sans-serif" font-size="8.4" lengthAdjust="spacing" textLength="54.6" x="380.1" y="411.1043">-int taxNumber</text><line style="stroke:#181818;stroke-width:0.3;" x1="377.1" x2="438.3" y1="415.2844" y2="415.2844"/></g><!--class PassportCardNumber--><g id="elem_PassportCardNumber"><rect codeLine="119" fill="#F1F1F1" height="38.1844" id="PassportCardNumber" rx="1.5" ry="1.5" style="stroke:#181818;stroke-width:0.3;" width="102.6" x="210" y="381.9"/><ellipse cx="219.81" cy="391.5" fill="#ADD1B2" rx="6.6" ry="6.6" style="stroke:#181818;stroke-width:0.6;"/><path d="M221.4694,389.025 Q221.5631,388.8938 221.6756,388.8281 Q221.7881,388.7625 221.9194,388.7625 Q222.1444,388.7625 222.285,388.9219 Q222.4256,389.0719 222.4256,389.4375 L222.4256,390.3094 Q222.4256,390.675 222.285,390.8344 Q222.1444,390.9938 221.9194,390.9938 Q221.7131,390.9938 221.5913,390.8719 Q221.4694,390.7594 221.4038,390.45 Q221.3756,390.2344 221.2631,390.1219 Q221.0663,389.8969 220.7006,389.7656 Q220.335,389.6344 219.96,389.6344 Q219.5006,389.6344 219.1163,389.8313 Q218.7413,390.0281 218.4413,390.4781 Q218.1506,390.9281 218.1506,391.5469 L218.1506,392.2031 Q218.1506,392.9437 218.685,393.4406 Q219.2194,393.9281 220.1756,393.9281 Q220.7381,393.9281 221.1319,393.7781 Q221.3663,393.6844 221.6194,393.4219 Q221.7788,393.2625 221.8631,393.2156 Q221.9569,393.1688 222.0788,393.1688 Q222.2756,393.1688 222.4256,393.3281 Q222.585,393.4781 222.585,393.6844 Q222.585,393.8906 222.3788,394.1344 Q222.0788,394.4813 221.6006,394.6781 Q220.9538,394.95 220.1756,394.95 Q219.2663,394.95 218.5444,394.575 Q217.9538,394.275 217.5413,393.6375 Q217.1288,392.9906 217.1288,392.2219 L217.1288,391.5281 Q217.1288,390.7313 217.4944,390.0469 Q217.8694,389.3531 218.5256,388.9875 Q219.1819,388.6125 219.9225,388.6125 Q220.3631,388.6125 220.7475,388.7156 Q221.1413,388.8094 221.4694,389.025 Z " fill="#000000"/><text fill="#000000" font-family="sans-serif" font-size="8.4" lengthAdjust="spacing" textLength="81.6" x="228.39" y="394.4121">PassportCardNumber</text><line style="stroke:#181818;stroke-width:0.3;" x1="210.6" x2="312" y1="401.1" y2="401.1"/><text fill="#000000" font-family="sans-serif" font-size="8.4" lengthAdjust="spacing" textLength="95.4" x="213.6" y="411.1043">-int passportCardNumber</text><line style="stroke:#181818;stroke-width:0.3;" x1="210.6" x2="312" y1="415.2844" y2="415.2844"/></g><!--link CreateRequestUI to CreateRequestController--><g id="link_CreateRequestUI_CreateRequestController"><path codeLine="123" d="M628.5,33.048 C628.5,49.668 628.5,78.468 628.5,103.716 " fill="none" id="CreateRequestUI-to-CreateRequestController" style="stroke:#181818;stroke-width:0.6;stroke-dasharray:7.0,7.0;"/><polygon fill="#181818" points="628.5,106.776,630.9,101.376,628.5,103.776,626.1,101.376,628.5,106.776" style="stroke:#181818;stroke-width:0.6;"/></g><!--link Repositories to Repositories--><g id="link_Repositories_Repositories"><path codeLine="124" d="M1269.036,390.954 C1281.102,391.788 1290,395.172 1290,401.1 C1290,406.518 1282.566,409.812 1272.072,410.976 " fill="none" id="Repositories-to-Repositories" style="stroke:#181818;stroke-width:0.6;stroke-dasharray:7.0,7.0;"/><polygon fill="#181818" points="1269.036,411.246,1274.6272,413.1588,1272.0242,410.9806,1274.2025,408.3776,1269.036,411.246" style="stroke:#181818;stroke-width:0.6;"/><text fill="#000000" font-family="sans-serif" font-size="7.8" lengthAdjust="spacing" textLength="29.4" x="1293.6" y="403.9611">instance</text></g><!--link CreateRequestController to Repositories--><g id="link_CreateRequestController_Repositories"><path codeLine="125" d="M756.408,183.03 C817.056,198.516 889.788,219.984 952.5,246.6 C1031.046,279.936 1115.202,331.866 1167.15,366.03 " fill="none" id="CreateRequestController-to-Repositories" style="stroke:#181818;stroke-width:0.6;stroke-dasharray:7.0,7.0;"/><polygon fill="#181818" points="1169.754,367.746,1166.5725,362.7663,1167.2513,366.0918,1163.9257,366.7706,1169.754,367.746" style="stroke:#181818;stroke-width:0.6;"/><text fill="#000000" font-family="sans-serif" font-size="7.8" lengthAdjust="spacing" textLength="40.2" x="1096.5" y="287.2611">repositories</text></g><!--link Repositories to AgencyRepository--><g id="link_Repositories_AgencyRepository"><path codeLine="126" d="M1250.934,434.406 C1266.42,449.64 1284.726,467.652 1299.87,482.562 " fill="none" id="Repositories-to-AgencyRepository" style="stroke:#181818;stroke-width:0.6;"/><polygon fill="#181818" points="1302.084,484.734,1299.9293,479.2315,1299.9499,482.6256,1296.5558,482.6461,1302.084,484.734" style="stroke:#181818;stroke-width:0.6;"/></g><!--link Repositories to RequestRepository--><g id="link_Repositories_RequestRepository"><path codeLine="127" d="M1217.7,434.406 C1217.7,451.008 1217.7,470.916 1217.7,486.498 " fill="none" id="Repositories-to-RequestRepository" style="stroke:#181818;stroke-width:0.6;"/><polygon fill="#181818" points="1217.7,489.552,1220.1,484.152,1217.7,486.552,1215.3,484.152,1217.7,489.552" style="stroke:#181818;stroke-width:0.6;"/></g><!--link Address to State--><g id="link_Address_State"><path codeLine="128" d="M179.718,546.81 C171.03,558.444 161.334,571.428 152.94,582.666 " fill="none" id="Address-to-State" style="stroke:#181818;stroke-width:0.6;"/><polygon fill="none" points="156.21,585.3,145.668,592.404,149.484,580.272,156.21,585.3" style="stroke:#181818;stroke-width:0.6;"/></g><!--link Address to City--><g id="link_Address_City"><path codeLine="129" d="M160.272,538.734 C137.334,551.784 108.894,568.158 83.7,583.2 C82.068,584.172 80.406,585.174 78.732,586.188 " fill="none" id="Address-to-City" style="stroke:#181818;stroke-width:0.6;"/><polygon fill="none" points="80.82,589.83,68.388,592.5,76.44,582.66,80.82,589.83" style="stroke:#181818;stroke-width:0.6;"/></g><!--link Address to District--><g id="link_Address_District"><path codeLine="130" d="M213.24,546.81 C216.222,557.79 219.528,569.976 222.456,580.758 " fill="none" id="Address-to-District" style="stroke:#181818;stroke-width:0.6;"/><polygon fill="none" points="226.53,579.72,225.624,592.404,218.424,581.922,226.53,579.72" style="stroke:#181818;stroke-width:0.6;"/></g><!--reverse link Property to Residence--><g id="link_Property_Residence"><path codeLine="131" d="M772.5,446.424 C772.5,457.596 772.5,469.368 772.5,479.844 " fill="none" id="Property-backto-Residence" style="stroke:#181818;stroke-width:0.6;"/><polygon fill="none" points="768.3,446.406,772.5,434.406,776.7,446.406,768.3,446.406" style="stroke:#181818;stroke-width:0.6;"/></g><!--link Property to Address--><g id="link_Property_Address"><path codeLine="132" d="M605.094,434.406 C483.774,458.106 328.086,488.52 251.358,503.508 " fill="none" id="Property-to-Address" style="stroke:#181818;stroke-width:0.6;"/><polygon fill="#181818" points="248.208,504.12,253.9679,505.4402,251.1524,503.5449,253.0477,500.7293,248.208,504.12" style="stroke:#181818;stroke-width:0.6;"/><text fill="#000000" font-family="sans-serif" font-size="7.8" lengthAdjust="spacing" textLength="12.6" x="506.1" y="460.0611">has</text></g><!--link PhotographList to Property--><g id="link_PhotographList_Property"><path codeLine="133" d="M866.424,303.816 C850.248,320.466 826.218,345.204 806.514,365.49 " fill="none" id="PhotographList-to-Property" style="stroke:#181818;stroke-width:0.6;"/><polygon fill="#181818" points="804.378,367.686,809.8629,365.4869,806.4691,365.5349,806.4211,362.1411,804.378,367.686" style="stroke:#181818;stroke-width:0.6;"/></g><!--reverse link Residence to House--><g id="link_Residence_House"><path codeLine="134" d="M772.5,559.032 C772.5,567.234 772.5,575.568 772.5,583.092 " fill="none" id="Residence-backto-House" style="stroke:#181818;stroke-width:0.6;"/><polygon fill="none" points="768.3,558.81,772.5,546.81,776.7,558.81,768.3,558.81" style="stroke:#181818;stroke-width:0.6;"/></g><!--link Residence to AvailableEquipment--><g id="link_Residence_AvailableEquipment"><path codeLine="135" d="M1105.41,546.618 C1158.822,555.942 1213.032,567.888 1263.3,583.2 C1270.182,585.294 1277.268,588.12 1284.012,591.162 " fill="none" id="Residence-to-AvailableEquipment" style="stroke:#181818;stroke-width:0.6;"/><polygon fill="#181818" points="1286.88,592.476,1282.9739,588.0418,1284.1536,591.2243,1280.9711,592.404,1286.88,592.476" style="stroke:#181818;stroke-width:0.6;"/></g><!--link Request to Property--><g id="link_Request_Property"><path codeLine="136" d="M547.938,302.922 C586.896,319.848 646.35,345.684 694.29,366.516 " fill="none" id="Request-to-Property" style="stroke:#181818;stroke-width:0.6;"/><polygon fill="#181818" points="697.146,367.752,693.1557,363.3934,694.3962,366.5527,691.2368,367.7931,697.146,367.752" style="stroke:#181818;stroke-width:0.6;"/><text fill="#000000" font-family="sans-serif" font-size="7.8" lengthAdjust="spacing" textLength="37.8" x="656.7" y="347.8611">announces</text></g><!--reverse link House to SunExposure--><g id="link_House_SunExposure"><path codeLine="137" d="M772.5,652.38 C772.5,660.84 772.5,669.384 772.5,676.602 " fill="none" id="House-backto-SunExposure" style="stroke:#181818;stroke-width:0.6;"/><polygon fill="none" points="768.3,652.2,772.5,640.2,776.7,652.2,768.3,652.2" style="stroke:#181818;stroke-width:0.6;"/></g><!--link Request to Rent--><g id="link_Request_Rent"><path codeLine="138" d="M505.344,322.338 C504.666,340.998 503.868,362.922 503.292,378.792 " fill="none" id="Request-to-Rent" style="stroke:#181818;stroke-width:0.6;"/><polygon fill="#181818" points="503.178,381.888,505.7616,376.5734,503.2808,378.8898,500.9644,376.4089,503.178,381.888" style="stroke:#181818;stroke-width:0.6;"/><text fill="#000000" font-family="sans-serif" font-size="7.8" lengthAdjust="spacing" textLength="23.4" x="505.5" y="347.8611">can be</text></g><!--link PhotographList to Photograph--><g id="link_PhotographList_Photograph"><path codeLine="139" d="M908.58,303.684 C935.268,324.57 978.36,358.29 1005.996,379.914 " fill="none" id="PhotographList-to-Photograph" style="stroke:#181818;stroke-width:0.6;"/><polygon fill="#181818" points="1008.456,381.84,1005.6826,376.6219,1006.0935,379.9911,1002.7243,380.4019,1008.456,381.84" style="stroke:#181818;stroke-width:0.6;"/><text fill="#000000" font-family="sans-serif" font-size="7.8" lengthAdjust="spacing" textLength="12.6" x="968.1" y="347.8611">has</text><text fill="#000000" font-family="sans-serif" font-size="7.8" lengthAdjust="spacing" textLength="19.8" x="983.6663" y="375.1183">1...30</text></g><!--link CreateRequestController to Request--><g id="link_CreateRequestController_Request"><path codeLine="140" d="M584.526,201.18 C571.26,215.268 556.824,230.592 544.032,244.17 " fill="none" id="CreateRequestController-to-Request" style="stroke:#181818;stroke-width:0.6;"/><polygon fill="#181818" points="541.83,246.51,547.2786,244.2226,543.8861,244.3254,543.7833,240.9328,541.83,246.51" style="stroke:#181818;stroke-width:0.6;"/></g><!--link Owner to Property--><g id="link_Owner_Property"><path codeLine="141" d="M381.282,312.972 C387.018,316.296 392.928,319.47 398.7,322.2 C433.536,338.676 443.544,340.338 480.9,349.8 C507.216,356.466 535.086,362.538 562.746,367.98 " fill="none" id="Owner-to-Property" style="stroke:#181818;stroke-width:0.6;"/><polygon fill="#181818" points="565.77,368.568,560.9303,365.1773,562.8256,367.9929,560.0101,369.8882,565.77,368.568" style="stroke:#181818;stroke-width:0.6;"/><text fill="#000000" font-family="sans-serif" font-size="7.8" lengthAdjust="spacing" textLength="18" x="481.5" y="347.8611">owns</text></g><!--link Owner to TaxNumber--><g id="link_Owner_TaxNumber"><path codeLine="142" d="M355.86,312.96 C366.336,330.654 379.854,353.478 390.462,371.388 " fill="none" id="Owner-to-TaxNumber" style="stroke:#181818;stroke-width:0.6;"/><polygon fill="none" points="394.134,369.348,396.636,381.816,386.904,373.632,394.134,369.348" style="stroke:#181818;stroke-width:0.6;"/><text fill="#000000" font-family="sans-serif" font-size="7.8" lengthAdjust="spacing" textLength="12.6" x="378.3" y="347.8611">has</text></g><!--link Owner to PassportCardNumber--><g id="link_Owner_PassportCardNumber"><path codeLine="143" d="M320.418,312.96 C308.412,330.732 292.908,353.694 280.788,371.64 " fill="none" id="Owner-to-PassportCardNumber" style="stroke:#181818;stroke-width:0.6;"/><polygon fill="none" points="284.118,374.22,273.918,381.816,277.152,369.522,284.118,374.22" style="stroke:#181818;stroke-width:0.6;"/><text fill="#000000" font-family="sans-serif" font-size="7.8" lengthAdjust="spacing" textLength="12.6" x="300.9" y="347.8611">has</text></g><!--link Agent to PassportCardNumber--><g id="link_Agent_PassportCardNumber"><path codeLine="144" d="M334.14,180.264 C311.526,196.308 285.726,219.12 272.1,246.6 C252.708,285.702 253.626,337.386 256.86,369.786 " fill="none" id="Agent-to-PassportCardNumber" style="stroke:#181818;stroke-width:0.6;"/><polygon fill="none" points="261.042,369.39,258.252,381.798,252.696,370.362,261.042,369.39" style="stroke:#181818;stroke-width:0.6;"/><text fill="#000000" font-family="sans-serif" font-size="7.8" lengthAdjust="spacing" textLength="12.6" x="272.7" y="287.2611">has</text></g><!--link Agent to TaxNumber--><g id="link_Agent_TaxNumber"><path codeLine="145" d="M382.362,182.436 C385.662,200.652 389.82,224.976 392.7,246.6 C398.364,289.092 402.798,338.454 405.33,369.582 " fill="none" id="Agent-to-TaxNumber" style="stroke:#181818;stroke-width:0.6;"/><polygon fill="none" points="409.536,369.438,406.302,381.738,401.16,370.11,409.536,369.438" style="stroke:#181818;stroke-width:0.6;"/><text fill="#000000" font-family="sans-serif" font-size="7.8" lengthAdjust="spacing" textLength="12.6" x="401.7" y="287.2611">has</text></g><!--link Owner to Request--><g id="link_Owner_Request"><path codeLine="146" d="M377.424,255.87 C395.04,244.62 416.85,233.28 438.6,228.6 C450.33,226.074 454.89,223.188 465.6,228.6 C472.866,232.272 479.166,237.906 484.5,244.206 " fill="none" id="Owner-to-Request" style="stroke:#181818;stroke-width:0.6;"/><polygon fill="#181818" points="486.42,246.552,484.8546,240.8538,484.5189,244.2313,481.1414,243.8956,486.42,246.552" style="stroke:#181818;stroke-width:0.6;"/><text fill="#000000" font-family="sans-serif" font-size="7.8" lengthAdjust="spacing" textLength="25.8" x="439.2" y="226.6611">creates</text><text fill="#000000" font-family="sans-serif" font-size="7.8" lengthAdjust="spacing" textLength="14.4" x="468.6709" y="240.1002">1...*</text></g><!--link Agent to Request--><g id="link_Agent_Request"><path codeLine="147" d="M420.072,178.524 C437.016,189.39 455.802,203.316 470.1,219 C476.808,226.356 482.79,235.152 487.878,243.852 " fill="none" id="Agent-to-Request" style="stroke:#181818;stroke-width:0.6;"/><polygon fill="#181818" points="489.432,246.552,488.8095,240.6756,487.9316,243.9542,484.653,243.0762,489.432,246.552" style="stroke:#181818;stroke-width:0.6;"/><text fill="#000000" font-family="sans-serif" font-size="7.8" lengthAdjust="spacing" textLength="24" x="478.5" y="226.6611">revises</text></g><!--link Agent to Address--><g id="link_Agent_Address"><path codeLine="148" d="M334.11,176.076 C306.552,192.006 272.124,216.168 251.1,246.6 C217.824,294.768 211.2,310.434 199.5,367.8 C193.584,396.804 198.594,404.814 199.5,434.4 C199.926,448.32 200.778,463.614 201.648,476.964 " fill="none" id="Agent-to-Address" style="stroke:#181818;stroke-width:0.6;"/><polygon fill="#181818" points="201.846,479.958,203.8699,474.4061,201.6402,476.9651,199.0812,474.7354,201.846,479.958" style="stroke:#181818;stroke-width:0.6;"/></g><!--link Owner to Address--><g id="link_Owner_Address"><path codeLine="149" d="M343.02,313.134 C345.78,344.964 345.798,397.212 323.1,434.4 C306.582,461.454 276.774,481.062 251.148,493.89 " fill="none" id="Owner-to-Address" style="stroke:#181818;stroke-width:0.6;"/><polygon fill="#181818" points="248.364,495.264,254.2682,495.0183,251.0524,493.9327,252.1381,490.7169,248.364,495.264" style="stroke:#181818;stroke-width:0.6;"/></g><!--SRC=[rLLjJzim4FwUNs7nYMrfnRHlQ4A2mhHAYA8MVe0RNrjhgHri1oXb_ttdboHsqaf8aoRjIrFVFVVutdodVt5HKKMtf2YfrfV6ABwi3KmBAHRy3SXPfbj8oGMONGMaakMkt0d8CcT59WgeWJayrQ3DutIV_JwecKXXb2nBKFlion7DgVAIELHISoFLBYTq3QBOTP9FZVNzHXgvLhJQd3xEfoXUWtb01sUhm7lgPPUE81ok51N59j8uL16xWu8sWlPQ3dgVZU9Zu9WARP0Imd7U3o1n8X57b_HizixaNiaAbDdPc6vv6qv0HzAMg7_9FhewOl0vY0Gk3xhFrkKN8oSBx0sn9fXfYnX0h372A6ETx46w_rOr21QnWH7JPshT7XaMOhQwWZKNhGm4kqQneuzg-qnBpWxNhSaTNiDalIo1K2nnUs3S5-s7aji9Dxi9nW-gLLUA5z3l2jk7vevk8KTzLvdSCUUab0KrN8hy27dkMV6Jv8maVQ0vmrf1vxMejqjGDXzCIRdLGmKrcyEQUwhmxQuN5Ir0_vjWye6_-T3H_B27UFKpvIN546wUQbvjyQAujGTAJD9IoXAe8D38ElnFMMk88Q_edytjR7LvHJKuTAlbOaENt5Z-Mxao_sUsyeD1vltWSg9hSVEACw9M46LuqKcxnycuWiB65bM2CGNQJaCk365IgZldeJ-loaWGIDvuDP4CeXUl08UEvuaSm440wLm0c_GESOtXOIPDx9-Nf3YR-WvJu2dLpttxM7yBktjeOQvhHTCuPo_2hgg6HLW6Pu9L5D0B4RPOZK54Rgx-7SK3VVMuuAzfpj6imvzAAZEXYYNOQg2mHhrrJKRZqSMnJPt52yyZ4yavDfVl-Em8mq4Z5HrxLo2ulyM6YC72p4BUKFj-uHif5TcEI2LDBsNDgY3VtqUZRWPtSkTJC3qd6wgpTEqvG8FEMWBFv-PG97HaWwURXOWIAhoC2Y5hOUUtu_6KqKDDx6nNeqs1ysm9Xtmy-JeUZx-TdKHhEmHqj7XTiZFt7aZgdtmHkb7OfBRT6dWZrR1B0yOzaezZZbmHeljyqlXhC-6Ywgml8fs2PwuJNVFq6fzRoHy0]--></g></svg>