<?xml version="1.0" encoding="us-ascii" standalone="no"?><svg xmlns="http://www.w3.org/2000/svg" xmlns:xlink="http://www.w3.org/1999/xlink" contentStyleType="text/css" height="1377px" preserveAspectRatio="none" style="width:1356px;height:1377px;background:#FFFFFF;" version="1.1" viewBox="0 0 1356 1377" width="1356px" zoomAndPan="magnify"><defs/><g><!--class CreateRequestUI--><g id="elem_CreateRequestUI"><rect codeLine="4" fill="#F1F1F1" height="48" id="CreateRequestUI" rx="2.5" ry="2.5" style="stroke:#181818;stroke-width:0.5;" width="140" x="881.5" y="7"/><ellipse cx="896.5" cy="23" fill="#ADD1B2" rx="11" ry="11" style="stroke:#181818;stroke-width:1.0;"/><path d="M899.2656,18.875 Q899.4219,18.6563 899.6094,18.5469 Q899.7969,18.4375 900.0156,18.4375 Q900.3906,18.4375 900.625,18.7031 Q900.8594,18.9531 900.8594,19.5625 L900.8594,21.0156 Q900.8594,21.625 900.625,21.8906 Q900.3906,22.1563 900.0156,22.1563 Q899.6719,22.1563 899.4688,21.9531 Q899.2656,21.7656 899.1563,21.25 Q899.1094,20.8906 898.9219,20.7031 Q898.5938,20.3281 897.9844,20.1094 Q897.375,19.8906 896.75,19.8906 Q895.9844,19.8906 895.3438,20.2188 Q894.7188,20.5469 894.2188,21.2969 Q893.7344,22.0469 893.7344,23.0781 L893.7344,24.1719 Q893.7344,25.4063 894.625,26.2344 Q895.5156,27.0469 897.1094,27.0469 Q898.0469,27.0469 898.7031,26.7969 Q899.0938,26.6406 899.5156,26.2031 Q899.7813,25.9375 899.9219,25.8594 Q900.0781,25.7813 900.2813,25.7813 Q900.6094,25.7813 900.8594,26.0469 Q901.125,26.2969 901.125,26.6406 Q901.125,26.9844 900.7813,27.3906 Q900.2813,27.9688 899.4844,28.2969 Q898.4063,28.75 897.1094,28.75 Q895.5938,28.75 894.3906,28.125 Q893.4063,27.625 892.7188,26.5625 Q892.0313,25.4844 892.0313,24.2031 L892.0313,23.0469 Q892.0313,21.7188 892.6406,20.5781 Q893.2656,19.4219 894.3594,18.8125 Q895.4531,18.1875 896.6875,18.1875 Q897.4219,18.1875 898.0625,18.3594 Q898.7188,18.5156 899.2656,18.875 Z " fill="#000000"/><text fill="#000000" font-family="sans-serif" font-size="14" lengthAdjust="spacing" textLength="108" x="910.5" y="27.8535">CreateRequestUI</text><line style="stroke:#181818;stroke-width:0.5;" x1="882.5" x2="1020.5" y1="39" y2="39"/><line style="stroke:#181818;stroke-width:0.5;" x1="882.5" x2="1020.5" y1="47" y2="47"/></g><!--class CreateRequestController--><g id="elem_CreateRequestController"><rect codeLine="7" fill="#F1F1F1" height="63.6406" id="CreateRequestController" rx="2.5" ry="2.5" style="stroke:#181818;stroke-width:0.5;" width="616" x="643.5" y="176"/><ellipse cx="868.25" cy="192" fill="#ADD1B2" rx="11" ry="11" style="stroke:#181818;stroke-width:1.0;"/><path d="M871.0156,187.875 Q871.1719,187.6563 871.3594,187.5469 Q871.5469,187.4375 871.7656,187.4375 Q872.1406,187.4375 872.375,187.7031 Q872.6094,187.9531 872.6094,188.5625 L872.6094,190.0156 Q872.6094,190.625 872.375,190.8906 Q872.1406,191.1563 871.7656,191.1563 Q871.4219,191.1563 871.2188,190.9531 Q871.0156,190.7656 870.9063,190.25 Q870.8594,189.8906 870.6719,189.7031 Q870.3438,189.3281 869.7344,189.1094 Q869.125,188.8906 868.5,188.8906 Q867.7344,188.8906 867.0938,189.2188 Q866.4688,189.5469 865.9688,190.2969 Q865.4844,191.0469 865.4844,192.0781 L865.4844,193.1719 Q865.4844,194.4063 866.375,195.2344 Q867.2656,196.0469 868.8594,196.0469 Q869.7969,196.0469 870.4531,195.7969 Q870.8438,195.6406 871.2656,195.2031 Q871.5313,194.9375 871.6719,194.8594 Q871.8281,194.7813 872.0313,194.7813 Q872.3594,194.7813 872.6094,195.0469 Q872.875,195.2969 872.875,195.6406 Q872.875,195.9844 872.5313,196.3906 Q872.0313,196.9688 871.2344,197.2969 Q870.1563,197.75 868.8594,197.75 Q867.3438,197.75 866.1406,197.125 Q865.1563,196.625 864.4688,195.5625 Q863.7813,194.4844 863.7813,193.2031 L863.7813,192.0469 Q863.7813,190.7188 864.3906,189.5781 Q865.0156,188.4219 866.1094,187.8125 Q867.2031,187.1875 868.4375,187.1875 Q869.1719,187.1875 869.8125,187.3594 Q870.4688,187.5156 871.0156,187.875 Z " fill="#000000"/><text fill="#000000" font-family="sans-serif" font-size="14" lengthAdjust="spacing" textLength="158" x="888.75" y="196.8535">CreateRequestController</text><line style="stroke:#181818;stroke-width:0.5;" x1="644.5" x2="1258.5" y1="208" y2="208"/><line style="stroke:#181818;stroke-width:0.5;" x1="644.5" x2="1258.5" y1="216" y2="216"/><text fill="#000000" font-family="sans-serif" font-size="14" lengthAdjust="spacing" textLength="604" x="649.5" y="232.6738">+createRequestController(requestTypeRepository, propertyTypeRepository, agencyRepository)</text></g><!--class Repositories--><g id="elem_Repositories"><rect codeLine="11" fill="#F1F1F1" height="126.2031" id="Repositories" rx="2.5" ry="2.5" style="stroke:#181818;stroke-width:0.5;" width="204" x="358.5" y="361"/><ellipse cx="416.75" cy="377" fill="#ADD1B2" rx="11" ry="11" style="stroke:#181818;stroke-width:1.0;"/><path d="M419.5156,372.875 Q419.6719,372.6563 419.8594,372.5469 Q420.0469,372.4375 420.2656,372.4375 Q420.6406,372.4375 420.875,372.7031 Q421.1094,372.9531 421.1094,373.5625 L421.1094,375.0156 Q421.1094,375.625 420.875,375.8906 Q420.6406,376.1563 420.2656,376.1563 Q419.9219,376.1563 419.7188,375.9531 Q419.5156,375.7656 419.4063,375.25 Q419.3594,374.8906 419.1719,374.7031 Q418.8438,374.3281 418.2344,374.1094 Q417.625,373.8906 417,373.8906 Q416.2344,373.8906 415.5938,374.2188 Q414.9688,374.5469 414.4688,375.2969 Q413.9844,376.0469 413.9844,377.0781 L413.9844,378.1719 Q413.9844,379.4063 414.875,380.2344 Q415.7656,381.0469 417.3594,381.0469 Q418.2969,381.0469 418.9531,380.7969 Q419.3438,380.6406 419.7656,380.2031 Q420.0313,379.9375 420.1719,379.8594 Q420.3281,379.7813 420.5313,379.7813 Q420.8594,379.7813 421.1094,380.0469 Q421.375,380.2969 421.375,380.6406 Q421.375,380.9844 421.0313,381.3906 Q420.5313,381.9688 419.7344,382.2969 Q418.6563,382.75 417.3594,382.75 Q415.8438,382.75 414.6406,382.125 Q413.6563,381.625 412.9688,380.5625 Q412.2813,379.4844 412.2813,378.2031 L412.2813,377.0469 Q412.2813,375.7188 412.8906,374.5781 Q413.5156,373.4219 414.6094,372.8125 Q415.7031,372.1875 416.9375,372.1875 Q417.6719,372.1875 418.3125,372.3594 Q418.9688,372.5156 419.5156,372.875 Z " fill="#000000"/><text fill="#000000" font-family="sans-serif" font-size="14" lengthAdjust="spacing" textLength="79" x="437.25" y="381.8535">Repositories</text><line style="stroke:#181818;stroke-width:0.5;" x1="359.5" x2="561.5" y1="393" y2="393"/><text fill="#000000" font-family="sans-serif" font-size="14" lengthAdjust="spacing" textLength="84" x="364.5" y="409.6738">-Repositories</text><line style="stroke:#181818;stroke-width:0.5;" x1="359.5" x2="561.5" y1="416.6406" y2="416.6406"/><text fill="#000000" font-family="sans-serif" font-size="14" lengthAdjust="spacing" textLength="174" x="364.5" y="433.3145">+getInstance():Repositories</text><text fill="#000000" font-family="sans-serif" font-size="14" lengthAdjust="spacing" textLength="191" x="364.5" y="448.9551">+getRequestTypeRepository()</text><text fill="#000000" font-family="sans-serif" font-size="14" lengthAdjust="spacing" textLength="192" x="364.5" y="464.5957">+getPropertyTypeRepository()</text><text fill="#000000" font-family="sans-serif" font-size="14" lengthAdjust="spacing" textLength="153" x="364.5" y="480.2363">+getAgencyRepository()</text></g><!--class PropertyTypeRepository--><g id="elem_PropertyTypeRepository"><rect codeLine="19" fill="#F1F1F1" height="79.2813" id="PropertyTypeRepository" rx="2.5" ry="2.5" style="stroke:#181818;stroke-width:0.5;" width="211" x="616" y="384.5"/><ellipse cx="642.25" cy="400.5" fill="#ADD1B2" rx="11" ry="11" style="stroke:#181818;stroke-width:1.0;"/><path d="M645.0156,396.375 Q645.1719,396.1563 645.3594,396.0469 Q645.5469,395.9375 645.7656,395.9375 Q646.1406,395.9375 646.375,396.2031 Q646.6094,396.4531 646.6094,397.0625 L646.6094,398.5156 Q646.6094,399.125 646.375,399.3906 Q646.1406,399.6563 645.7656,399.6563 Q645.4219,399.6563 645.2188,399.4531 Q645.0156,399.2656 644.9063,398.75 Q644.8594,398.3906 644.6719,398.2031 Q644.3438,397.8281 643.7344,397.6094 Q643.125,397.3906 642.5,397.3906 Q641.7344,397.3906 641.0938,397.7188 Q640.4688,398.0469 639.9688,398.7969 Q639.4844,399.5469 639.4844,400.5781 L639.4844,401.6719 Q639.4844,402.9063 640.375,403.7344 Q641.2656,404.5469 642.8594,404.5469 Q643.7969,404.5469 644.4531,404.2969 Q644.8438,404.1406 645.2656,403.7031 Q645.5313,403.4375 645.6719,403.3594 Q645.8281,403.2813 646.0313,403.2813 Q646.3594,403.2813 646.6094,403.5469 Q646.875,403.7969 646.875,404.1406 Q646.875,404.4844 646.5313,404.8906 Q646.0313,405.4688 645.2344,405.7969 Q644.1563,406.25 642.8594,406.25 Q641.3438,406.25 640.1406,405.625 Q639.1563,405.125 638.4688,404.0625 Q637.7813,402.9844 637.7813,401.7031 L637.7813,400.5469 Q637.7813,399.2188 638.3906,398.0781 Q639.0156,396.9219 640.1094,396.3125 Q641.2031,395.6875 642.4375,395.6875 Q643.1719,395.6875 643.8125,395.8594 Q644.4688,396.0156 645.0156,396.375 Z " fill="#000000"/><text fill="#000000" font-family="sans-serif" font-size="14" lengthAdjust="spacing" textLength="154" x="658.75" y="405.3535">PropertyTypeRepository</text><line style="stroke:#181818;stroke-width:0.5;" x1="617" x2="826" y1="416.5" y2="416.5"/><text fill="#000000" font-family="sans-serif" font-size="14" lengthAdjust="spacing" textLength="199" x="622" y="433.1738">-propertyTypeList: List &lt;String&gt;</text><line style="stroke:#181818;stroke-width:0.5;" x1="617" x2="826" y1="440.1406" y2="440.1406"/><text fill="#000000" font-family="sans-serif" font-size="14" lengthAdjust="spacing" textLength="124" x="622" y="456.8145">+getPropertyType()</text></g><!--class AgencyTypeRepository--><g id="elem_AgencyTypeRepository"><rect codeLine="24" fill="#F1F1F1" height="79.2813" id="AgencyTypeRepository" rx="2.5" ry="2.5" style="stroke:#181818;stroke-width:0.5;" width="179" x="862" y="384.5"/><ellipse cx="877" cy="400.5" fill="#ADD1B2" rx="11" ry="11" style="stroke:#181818;stroke-width:1.0;"/><path d="M879.7656,396.375 Q879.9219,396.1563 880.1094,396.0469 Q880.2969,395.9375 880.5156,395.9375 Q880.8906,395.9375 881.125,396.2031 Q881.3594,396.4531 881.3594,397.0625 L881.3594,398.5156 Q881.3594,399.125 881.125,399.3906 Q880.8906,399.6563 880.5156,399.6563 Q880.1719,399.6563 879.9688,399.4531 Q879.7656,399.2656 879.6563,398.75 Q879.6094,398.3906 879.4219,398.2031 Q879.0938,397.8281 878.4844,397.6094 Q877.875,397.3906 877.25,397.3906 Q876.4844,397.3906 875.8438,397.7188 Q875.2188,398.0469 874.7188,398.7969 Q874.2344,399.5469 874.2344,400.5781 L874.2344,401.6719 Q874.2344,402.9063 875.125,403.7344 Q876.0156,404.5469 877.6094,404.5469 Q878.5469,404.5469 879.2031,404.2969 Q879.5938,404.1406 880.0156,403.7031 Q880.2813,403.4375 880.4219,403.3594 Q880.5781,403.2813 880.7813,403.2813 Q881.1094,403.2813 881.3594,403.5469 Q881.625,403.7969 881.625,404.1406 Q881.625,404.4844 881.2813,404.8906 Q880.7813,405.4688 879.9844,405.7969 Q878.9063,406.25 877.6094,406.25 Q876.0938,406.25 874.8906,405.625 Q873.9063,405.125 873.2188,404.0625 Q872.5313,402.9844 872.5313,401.7031 L872.5313,400.5469 Q872.5313,399.2188 873.1406,398.0781 Q873.7656,396.9219 874.8594,396.3125 Q875.9531,395.6875 877.1875,395.6875 Q877.9219,395.6875 878.5625,395.8594 Q879.2188,396.0156 879.7656,396.375 Z " fill="#000000"/><text fill="#000000" font-family="sans-serif" font-size="14" lengthAdjust="spacing" textLength="147" x="891" y="405.3535">AgencyTypeRepository</text><line style="stroke:#181818;stroke-width:0.5;" x1="863" x2="1040" y1="416.5" y2="416.5"/><text fill="#000000" font-family="sans-serif" font-size="14" lengthAdjust="spacing" textLength="166" x="868" y="433.1738">-agencyList: List&lt;Agency&gt;</text><line style="stroke:#181818;stroke-width:0.5;" x1="863" x2="1040" y1="440.1406" y2="440.1406"/><text fill="#000000" font-family="sans-serif" font-size="14" lengthAdjust="spacing" textLength="107" x="868" y="456.8145">+getAgencyList()</text></g><!--class Agency--><g id="elem_Agency"><rect codeLine="29" fill="#F1F1F1" height="141.8438" id="Agency" rx="2.5" ry="2.5" style="stroke:#181818;stroke-width:0.5;" width="209" x="918" y="547"/><ellipse cx="994.75" cy="563" fill="#ADD1B2" rx="11" ry="11" style="stroke:#181818;stroke-width:1.0;"/><path d="M997.5156,558.875 Q997.6719,558.6563 997.8594,558.5469 Q998.0469,558.4375 998.2656,558.4375 Q998.6406,558.4375 998.875,558.7031 Q999.1094,558.9531 999.1094,559.5625 L999.1094,561.0156 Q999.1094,561.625 998.875,561.8906 Q998.6406,562.1563 998.2656,562.1563 Q997.9219,562.1563 997.7188,561.9531 Q997.5156,561.7656 997.4063,561.25 Q997.3594,560.8906 997.1719,560.7031 Q996.8438,560.3281 996.2344,560.1094 Q995.625,559.8906 995,559.8906 Q994.2344,559.8906 993.5938,560.2188 Q992.9688,560.5469 992.4688,561.2969 Q991.9844,562.0469 991.9844,563.0781 L991.9844,564.1719 Q991.9844,565.4063 992.875,566.2344 Q993.7656,567.0469 995.3594,567.0469 Q996.2969,567.0469 996.9531,566.7969 Q997.3438,566.6406 997.7656,566.2031 Q998.0313,565.9375 998.1719,565.8594 Q998.3281,565.7813 998.5313,565.7813 Q998.8594,565.7813 999.1094,566.0469 Q999.375,566.2969 999.375,566.6406 Q999.375,566.9844 999.0313,567.3906 Q998.5313,567.9688 997.7344,568.2969 Q996.6563,568.75 995.3594,568.75 Q993.8438,568.75 992.6406,568.125 Q991.6563,567.625 990.9688,566.5625 Q990.2813,565.4844 990.2813,564.2031 L990.2813,563.0469 Q990.2813,561.7188 990.8906,560.5781 Q991.5156,559.4219 992.6094,558.8125 Q993.7031,558.1875 994.9375,558.1875 Q995.6719,558.1875 996.3125,558.3594 Q996.9688,558.5156 997.5156,558.875 Z " fill="#000000"/><text fill="#000000" font-family="sans-serif" font-size="14" lengthAdjust="spacing" textLength="47" x="1015.25" y="567.8535">Agency</text><line style="stroke:#181818;stroke-width:0.5;" x1="919" x2="1126" y1="579" y2="579"/><text fill="#000000" font-family="sans-serif" font-size="14" lengthAdjust="spacing" textLength="99" x="924" y="595.6738">-location: String</text><text fill="#000000" font-family="sans-serif" font-size="14" lengthAdjust="spacing" textLength="123" x="924" y="611.3145">-designation: String</text><text fill="#000000" font-family="sans-serif" font-size="14" lengthAdjust="spacing" textLength="174" x="924" y="626.9551">-requestList: List&lt;Request&gt;</text><text fill="#000000" font-family="sans-serif" font-size="14" lengthAdjust="spacing" textLength="196" x="924" y="642.5957">-employeeList: List&lt;Employee&gt;</text><line style="stroke:#181818;stroke-width:0.5;" x1="919" x2="1126" y1="649.5625" y2="649.5625"/><text fill="#000000" font-family="sans-serif" font-size="14" lengthAdjust="spacing" textLength="191" x="924" y="666.2363">+createRequest(requestType)</text><text fill="#000000" font-family="sans-serif" font-size="14" lengthAdjust="spacing" textLength="197" x="924" y="681.877">+getAgentList(selectedAgency)</text></g><!--class RequestTypeRepository--><g id="elem_RequestTypeRepository"><rect codeLine="38" fill="#F1F1F1" height="79.2813" id="RequestTypeRepository" rx="2.5" ry="2.5" style="stroke:#181818;stroke-width:0.5;" width="202" x="1147.5" y="384.5"/><ellipse cx="1170.15" cy="400.5" fill="#ADD1B2" rx="11" ry="11" style="stroke:#181818;stroke-width:1.0;"/><path d="M1172.9156,396.375 Q1173.0719,396.1563 1173.2594,396.0469 Q1173.4469,395.9375 1173.6656,395.9375 Q1174.0406,395.9375 1174.275,396.2031 Q1174.5094,396.4531 1174.5094,397.0625 L1174.5094,398.5156 Q1174.5094,399.125 1174.275,399.3906 Q1174.0406,399.6563 1173.6656,399.6563 Q1173.3219,399.6563 1173.1188,399.4531 Q1172.9156,399.2656 1172.8063,398.75 Q1172.7594,398.3906 1172.5719,398.2031 Q1172.2438,397.8281 1171.6344,397.6094 Q1171.025,397.3906 1170.4,397.3906 Q1169.6344,397.3906 1168.9938,397.7188 Q1168.3688,398.0469 1167.8688,398.7969 Q1167.3844,399.5469 1167.3844,400.5781 L1167.3844,401.6719 Q1167.3844,402.9063 1168.275,403.7344 Q1169.1656,404.5469 1170.7594,404.5469 Q1171.6969,404.5469 1172.3531,404.2969 Q1172.7438,404.1406 1173.1656,403.7031 Q1173.4313,403.4375 1173.5719,403.3594 Q1173.7281,403.2813 1173.9313,403.2813 Q1174.2594,403.2813 1174.5094,403.5469 Q1174.775,403.7969 1174.775,404.1406 Q1174.775,404.4844 1174.4313,404.8906 Q1173.9313,405.4688 1173.1344,405.7969 Q1172.0563,406.25 1170.7594,406.25 Q1169.2438,406.25 1168.0406,405.625 Q1167.0563,405.125 1166.3688,404.0625 Q1165.6813,402.9844 1165.6813,401.7031 L1165.6813,400.5469 Q1165.6813,399.2188 1166.2906,398.0781 Q1166.9156,396.9219 1168.0094,396.3125 Q1169.1031,395.6875 1170.3375,395.6875 Q1171.0719,395.6875 1171.7125,395.8594 Q1172.3688,396.0156 1172.9156,396.375 Z " fill="#000000"/><text fill="#000000" font-family="sans-serif" font-size="14" lengthAdjust="spacing" textLength="153" x="1185.85" y="405.3535">RequestTypeRepository</text><line style="stroke:#181818;stroke-width:0.5;" x1="1148.5" x2="1348.5" y1="416.5" y2="416.5"/><text fill="#000000" font-family="sans-serif" font-size="14" lengthAdjust="spacing" textLength="190" x="1153.5" y="433.1738">-requestTypeList: List&lt;String&gt;</text><line style="stroke:#181818;stroke-width:0.5;" x1="1148.5" x2="1348.5" y1="440.1406" y2="440.1406"/><text fill="#000000" font-family="sans-serif" font-size="14" lengthAdjust="spacing" textLength="123" x="1153.5" y="456.8145">+getRequestType()</text></g><!--class Request--><g id="elem_Request"><rect codeLine="43" fill="#F1F1F1" height="173.125" id="Request" rx="2.5" ry="2.5" style="stroke:#181818;stroke-width:0.5;" width="700" x="269.5" y="749"/><ellipse cx="588.75" cy="765" fill="#ADD1B2" rx="11" ry="11" style="stroke:#181818;stroke-width:1.0;"/><path d="M591.5156,760.875 Q591.6719,760.6563 591.8594,760.5469 Q592.0469,760.4375 592.2656,760.4375 Q592.6406,760.4375 592.875,760.7031 Q593.1094,760.9531 593.1094,761.5625 L593.1094,763.0156 Q593.1094,763.625 592.875,763.8906 Q592.6406,764.1563 592.2656,764.1563 Q591.9219,764.1563 591.7188,763.9531 Q591.5156,763.7656 591.4063,763.25 Q591.3594,762.8906 591.1719,762.7031 Q590.8438,762.3281 590.2344,762.1094 Q589.625,761.8906 589,761.8906 Q588.2344,761.8906 587.5938,762.2188 Q586.9688,762.5469 586.4688,763.2969 Q585.9844,764.0469 585.9844,765.0781 L585.9844,766.1719 Q585.9844,767.4063 586.875,768.2344 Q587.7656,769.0469 589.3594,769.0469 Q590.2969,769.0469 590.9531,768.7969 Q591.3438,768.6406 591.7656,768.2031 Q592.0313,767.9375 592.1719,767.8594 Q592.3281,767.7813 592.5313,767.7813 Q592.8594,767.7813 593.1094,768.0469 Q593.375,768.2969 593.375,768.6406 Q593.375,768.9844 593.0313,769.3906 Q592.5313,769.9688 591.7344,770.2969 Q590.6563,770.75 589.3594,770.75 Q587.8438,770.75 586.6406,770.125 Q585.6563,769.625 584.9688,768.5625 Q584.2813,767.4844 584.2813,766.2031 L584.2813,765.0469 Q584.2813,763.7188 584.8906,762.5781 Q585.5156,761.4219 586.6094,760.8125 Q587.7031,760.1875 588.9375,760.1875 Q589.6719,760.1875 590.3125,760.3594 Q590.9688,760.5156 591.5156,760.875 Z " fill="#000000"/><text fill="#000000" font-family="sans-serif" font-size="14" lengthAdjust="spacing" textLength="53" x="609.25" y="769.8535">Request</text><line style="stroke:#181818;stroke-width:0.5;" x1="270.5" x2="968.5" y1="781" y2="781"/><text fill="#000000" font-family="sans-serif" font-size="14" lengthAdjust="spacing" textLength="146" x="275.5" y="797.6738">-requestState: Boolean</text><text fill="#000000" font-family="sans-serif" font-size="14" lengthAdjust="spacing" textLength="37" x="275.5" y="813.3145">-date:</text><text fill="#000000" font-family="sans-serif" font-size="14" lengthAdjust="spacing" textLength="143" x="275.5" y="828.9551">-requestOwner: Owner</text><line style="stroke:#181818;stroke-width:0.5;" x1="270.5" x2="968.5" y1="835.9219" y2="835.9219"/><text fill="#000000" font-family="sans-serif" font-size="14" lengthAdjust="spacing" textLength="208" x="275.5" y="852.5957">+setPropertyType(propertyType)</text><text fill="#000000" font-family="sans-serif" font-size="14" lengthAdjust="spacing" textLength="526" x="275.5" y="868.2363">+createProperty(area, location, distanceFromTheCityCentre, price, photographList)</text><text fill="#000000" font-family="sans-serif" font-size="14" lengthAdjust="spacing" textLength="149" x="275.5" y="883.877">+addProperty(property)</text><text fill="#000000" font-family="sans-serif" font-size="14" lengthAdjust="spacing" textLength="688" x="275.5" y="899.5176">+createResidence(numberOfBedrooms, numberOfBathrooms, numberOfParkingSpaces, availableEquipment)</text><text fill="#000000" font-family="sans-serif" font-size="14" lengthAdjust="spacing" textLength="351" x="275.5" y="915.1582">+createHouse(basement, inhabitableLoft, sunExposure)</text></g><!--class Property--><g id="elem_Property"><rect codeLine="54" fill="#F1F1F1" height="126.2031" id="Property" rx="2.5" ry="2.5" style="stroke:#181818;stroke-width:0.5;" width="248" x="239.5" y="982"/><ellipse cx="332.25" cy="998" fill="#ADD1B2" rx="11" ry="11" style="stroke:#181818;stroke-width:1.0;"/><path d="M335.0156,993.875 Q335.1719,993.6563 335.3594,993.5469 Q335.5469,993.4375 335.7656,993.4375 Q336.1406,993.4375 336.375,993.7031 Q336.6094,993.9531 336.6094,994.5625 L336.6094,996.0156 Q336.6094,996.625 336.375,996.8906 Q336.1406,997.1563 335.7656,997.1563 Q335.4219,997.1563 335.2188,996.9531 Q335.0156,996.7656 334.9063,996.25 Q334.8594,995.8906 334.6719,995.7031 Q334.3438,995.3281 333.7344,995.1094 Q333.125,994.8906 332.5,994.8906 Q331.7344,994.8906 331.0938,995.2188 Q330.4688,995.5469 329.9688,996.2969 Q329.4844,997.0469 329.4844,998.0781 L329.4844,999.1719 Q329.4844,1000.4063 330.375,1001.2344 Q331.2656,1002.0469 332.8594,1002.0469 Q333.7969,1002.0469 334.4531,1001.7969 Q334.8438,1001.6406 335.2656,1001.2031 Q335.5313,1000.9375 335.6719,1000.8594 Q335.8281,1000.7813 336.0313,1000.7813 Q336.3594,1000.7813 336.6094,1001.0469 Q336.875,1001.2969 336.875,1001.6406 Q336.875,1001.9844 336.5313,1002.3906 Q336.0313,1002.9688 335.2344,1003.2969 Q334.1563,1003.75 332.8594,1003.75 Q331.3438,1003.75 330.1406,1003.125 Q329.1563,1002.625 328.4688,1001.5625 Q327.7813,1000.4844 327.7813,999.2031 L327.7813,998.0469 Q327.7813,996.7188 328.3906,995.5781 Q329.0156,994.4219 330.1094,993.8125 Q331.2031,993.1875 332.4375,993.1875 Q333.1719,993.1875 333.8125,993.3594 Q334.4688,993.5156 335.0156,993.875 Z " fill="#000000"/><text fill="#000000" font-family="sans-serif" font-size="14" lengthAdjust="spacing" textLength="54" x="352.75" y="1002.8535">Property</text><line style="stroke:#181818;stroke-width:0.5;" x1="240.5" x2="486.5" y1="1014" y2="1014"/><text fill="#000000" font-family="sans-serif" font-size="14" lengthAdjust="spacing" textLength="82" x="245.5" y="1030.6738">-area:Integer</text><text fill="#000000" font-family="sans-serif" font-size="14" lengthAdjust="spacing" textLength="99" x="245.5" y="1046.3145">-location: String</text><text fill="#000000" font-family="sans-serif" font-size="14" lengthAdjust="spacing" textLength="236" x="245.5" y="1061.9551">-distanceFromTheCityCentre: Double</text><text fill="#000000" font-family="sans-serif" font-size="14" lengthAdjust="spacing" textLength="88" x="245.5" y="1077.5957">-price: Integer</text><text fill="#000000" font-family="sans-serif" font-size="14" lengthAdjust="spacing" textLength="161" x="245.5" y="1093.2363">-photograph: List&lt;String&gt;</text><line style="stroke:#181818;stroke-width:0.5;" x1="240.5" x2="486.5" y1="1100.2031" y2="1100.2031"/></g><!--class Owner--><g id="elem_Owner"><rect codeLine="62" fill="#F1F1F1" height="79.2813" id="Owner" rx="2.5" ry="2.5" style="stroke:#181818;stroke-width:0.5;" width="204" x="765.5" y="1005.5"/><ellipse cx="842.75" cy="1021.5" fill="#ADD1B2" rx="11" ry="11" style="stroke:#181818;stroke-width:1.0;"/><path d="M845.5156,1017.375 Q845.6719,1017.1563 845.8594,1017.0469 Q846.0469,1016.9375 846.2656,1016.9375 Q846.6406,1016.9375 846.875,1017.2031 Q847.1094,1017.4531 847.1094,1018.0625 L847.1094,1019.5156 Q847.1094,1020.125 846.875,1020.3906 Q846.6406,1020.6563 846.2656,1020.6563 Q845.9219,1020.6563 845.7188,1020.4531 Q845.5156,1020.2656 845.4063,1019.75 Q845.3594,1019.3906 845.1719,1019.2031 Q844.8438,1018.8281 844.2344,1018.6094 Q843.625,1018.3906 843,1018.3906 Q842.2344,1018.3906 841.5938,1018.7188 Q840.9688,1019.0469 840.4688,1019.7969 Q839.9844,1020.5469 839.9844,1021.5781 L839.9844,1022.6719 Q839.9844,1023.9063 840.875,1024.7344 Q841.7656,1025.5469 843.3594,1025.5469 Q844.2969,1025.5469 844.9531,1025.2969 Q845.3438,1025.1406 845.7656,1024.7031 Q846.0313,1024.4375 846.1719,1024.3594 Q846.3281,1024.2813 846.5313,1024.2813 Q846.8594,1024.2813 847.1094,1024.5469 Q847.375,1024.7969 847.375,1025.1406 Q847.375,1025.4844 847.0313,1025.8906 Q846.5313,1026.4688 845.7344,1026.7969 Q844.6563,1027.25 843.3594,1027.25 Q841.8438,1027.25 840.6406,1026.625 Q839.6563,1026.125 838.9688,1025.0625 Q838.2813,1023.9844 838.2813,1022.7031 L838.2813,1021.5469 Q838.2813,1020.2188 838.8906,1019.0781 Q839.5156,1017.9219 840.6094,1017.3125 Q841.7031,1016.6875 842.9375,1016.6875 Q843.6719,1016.6875 844.3125,1016.8594 Q844.9688,1017.0156 845.5156,1017.375 Z " fill="#000000"/><text fill="#000000" font-family="sans-serif" font-size="14" lengthAdjust="spacing" textLength="41" x="863.25" y="1026.3535">Owner</text><line style="stroke:#181818;stroke-width:0.5;" x1="766.5" x2="968.5" y1="1037.5" y2="1037.5"/><text fill="#000000" font-family="sans-serif" font-size="14" lengthAdjust="spacing" textLength="85" x="771.5" y="1054.1738">-name: String</text><text fill="#000000" font-family="sans-serif" font-size="14" lengthAdjust="spacing" textLength="192" x="771.5" y="1069.8145">-passportCardNumber: Integer</text><line style="stroke:#181818;stroke-width:0.5;" x1="766.5" x2="968.5" y1="1076.7813" y2="1076.7813"/></g><!--class Residence--><g id="elem_Residence"><rect codeLine="67" fill="#F1F1F1" height="110.5625" id="Residence" rx="2.5" ry="2.5" style="stroke:#181818;stroke-width:0.5;" width="227" x="7" y="780"/><ellipse cx="82.75" cy="796" fill="#ADD1B2" rx="11" ry="11" style="stroke:#181818;stroke-width:1.0;"/><path d="M85.5156,791.875 Q85.6719,791.6563 85.8594,791.5469 Q86.0469,791.4375 86.2656,791.4375 Q86.6406,791.4375 86.875,791.7031 Q87.1094,791.9531 87.1094,792.5625 L87.1094,794.0156 Q87.1094,794.625 86.875,794.8906 Q86.6406,795.1563 86.2656,795.1563 Q85.9219,795.1563 85.7188,794.9531 Q85.5156,794.7656 85.4063,794.25 Q85.3594,793.8906 85.1719,793.7031 Q84.8438,793.3281 84.2344,793.1094 Q83.625,792.8906 83,792.8906 Q82.2344,792.8906 81.5938,793.2188 Q80.9688,793.5469 80.4688,794.2969 Q79.9844,795.0469 79.9844,796.0781 L79.9844,797.1719 Q79.9844,798.4063 80.875,799.2344 Q81.7656,800.0469 83.3594,800.0469 Q84.2969,800.0469 84.9531,799.7969 Q85.3438,799.6406 85.7656,799.2031 Q86.0313,798.9375 86.1719,798.8594 Q86.3281,798.7813 86.5313,798.7813 Q86.8594,798.7813 87.1094,799.0469 Q87.375,799.2969 87.375,799.6406 Q87.375,799.9844 87.0313,800.3906 Q86.5313,800.9688 85.7344,801.2969 Q84.6563,801.75 83.3594,801.75 Q81.8438,801.75 80.6406,801.125 Q79.6563,800.625 78.9688,799.5625 Q78.2813,798.4844 78.2813,797.2031 L78.2813,796.0469 Q78.2813,794.7188 78.8906,793.5781 Q79.5156,792.4219 80.6094,791.8125 Q81.7031,791.1875 82.9375,791.1875 Q83.6719,791.1875 84.3125,791.3594 Q84.9688,791.5156 85.5156,791.875 Z " fill="#000000"/><text fill="#000000" font-family="sans-serif" font-size="14" lengthAdjust="spacing" textLength="67" x="103.25" y="800.8535">Residence</text><line style="stroke:#181818;stroke-width:0.5;" x1="8" x2="233" y1="812" y2="812"/><text fill="#000000" font-family="sans-serif" font-size="14" lengthAdjust="spacing" textLength="184" x="13" y="828.6738">-numberOfBedrooms: Integer</text><text fill="#000000" font-family="sans-serif" font-size="14" lengthAdjust="spacing" textLength="188" x="13" y="844.3145">-numberOfBathrooms: Integer</text><text fill="#000000" font-family="sans-serif" font-size="14" lengthAdjust="spacing" textLength="215" x="13" y="859.9551">-numberOfParkingSpaces: Integer</text><text fill="#000000" font-family="sans-serif" font-size="14" lengthAdjust="spacing" textLength="173" x="13" y="875.5957">-availableEquipment: String</text><line style="stroke:#181818;stroke-width:0.5;" x1="8" x2="233" y1="882.5625" y2="882.5625"/></g><!--class House--><g id="elem_House"><rect codeLine="74" fill="#F1F1F1" height="94.9219" id="House" rx="2.5" ry="2.5" style="stroke:#181818;stroke-width:0.5;" width="169" x="36" y="570.5"/><ellipse cx="96.25" cy="586.5" fill="#ADD1B2" rx="11" ry="11" style="stroke:#181818;stroke-width:1.0;"/><path d="M99.0156,582.375 Q99.1719,582.1563 99.3594,582.0469 Q99.5469,581.9375 99.7656,581.9375 Q100.1406,581.9375 100.375,582.2031 Q100.6094,582.4531 100.6094,583.0625 L100.6094,584.5156 Q100.6094,585.125 100.375,585.3906 Q100.1406,585.6563 99.7656,585.6563 Q99.4219,585.6563 99.2188,585.4531 Q99.0156,585.2656 98.9063,584.75 Q98.8594,584.3906 98.6719,584.2031 Q98.3438,583.8281 97.7344,583.6094 Q97.125,583.3906 96.5,583.3906 Q95.7344,583.3906 95.0938,583.7188 Q94.4688,584.0469 93.9688,584.7969 Q93.4844,585.5469 93.4844,586.5781 L93.4844,587.6719 Q93.4844,588.9063 94.375,589.7344 Q95.2656,590.5469 96.8594,590.5469 Q97.7969,590.5469 98.4531,590.2969 Q98.8438,590.1406 99.2656,589.7031 Q99.5313,589.4375 99.6719,589.3594 Q99.8281,589.2813 100.0313,589.2813 Q100.3594,589.2813 100.6094,589.5469 Q100.875,589.7969 100.875,590.1406 Q100.875,590.4844 100.5313,590.8906 Q100.0313,591.4688 99.2344,591.7969 Q98.1563,592.25 96.8594,592.25 Q95.3438,592.25 94.1406,591.625 Q93.1563,591.125 92.4688,590.0625 Q91.7813,588.9844 91.7813,587.7031 L91.7813,586.5469 Q91.7813,585.2188 92.3906,584.0781 Q93.0156,582.9219 94.1094,582.3125 Q95.2031,581.6875 96.4375,581.6875 Q97.1719,581.6875 97.8125,581.8594 Q98.4688,582.0156 99.0156,582.375 Z " fill="#000000"/><text fill="#000000" font-family="sans-serif" font-size="14" lengthAdjust="spacing" textLength="40" x="116.75" y="591.3535">House</text><line style="stroke:#181818;stroke-width:0.5;" x1="37" x2="204" y1="602.5" y2="602.5"/><text fill="#000000" font-family="sans-serif" font-size="14" lengthAdjust="spacing" textLength="126" x="42" y="619.1738">-basement: boolean</text><text fill="#000000" font-family="sans-serif" font-size="14" lengthAdjust="spacing" textLength="157" x="42" y="634.8145">-inhabitableLoft: boolean</text><text fill="#000000" font-family="sans-serif" font-size="14" lengthAdjust="spacing" textLength="132" x="42" y="650.4551">-sunExposure: String</text><line style="stroke:#181818;stroke-width:0.5;" x1="37" x2="204" y1="657.4219" y2="657.4219"/></g><!--class Contacts--><g id="elem_Contacts"><rect codeLine="80" fill="#F1F1F1" height="79.2813" id="Contacts" rx="2.5" ry="2.5" style="stroke:#181818;stroke-width:0.5;" width="158" x="943.5" y="1168"/><ellipse cx="990.25" cy="1184" fill="#ADD1B2" rx="11" ry="11" style="stroke:#181818;stroke-width:1.0;"/><path d="M993.0156,1179.875 Q993.1719,1179.6563 993.3594,1179.5469 Q993.5469,1179.4375 993.7656,1179.4375 Q994.1406,1179.4375 994.375,1179.7031 Q994.6094,1179.9531 994.6094,1180.5625 L994.6094,1182.0156 Q994.6094,1182.625 994.375,1182.8906 Q994.1406,1183.1563 993.7656,1183.1563 Q993.4219,1183.1563 993.2188,1182.9531 Q993.0156,1182.7656 992.9063,1182.25 Q992.8594,1181.8906 992.6719,1181.7031 Q992.3438,1181.3281 991.7344,1181.1094 Q991.125,1180.8906 990.5,1180.8906 Q989.7344,1180.8906 989.0938,1181.2188 Q988.4688,1181.5469 987.9688,1182.2969 Q987.4844,1183.0469 987.4844,1184.0781 L987.4844,1185.1719 Q987.4844,1186.4063 988.375,1187.2344 Q989.2656,1188.0469 990.8594,1188.0469 Q991.7969,1188.0469 992.4531,1187.7969 Q992.8438,1187.6406 993.2656,1187.2031 Q993.5313,1186.9375 993.6719,1186.8594 Q993.8281,1186.7813 994.0313,1186.7813 Q994.3594,1186.7813 994.6094,1187.0469 Q994.875,1187.2969 994.875,1187.6406 Q994.875,1187.9844 994.5313,1188.3906 Q994.0313,1188.9688 993.2344,1189.2969 Q992.1563,1189.75 990.8594,1189.75 Q989.3438,1189.75 988.1406,1189.125 Q987.1563,1188.625 986.4688,1187.5625 Q985.7813,1186.4844 985.7813,1185.2031 L985.7813,1184.0469 Q985.7813,1182.7188 986.3906,1181.5781 Q987.0156,1180.4219 988.1094,1179.8125 Q989.2031,1179.1875 990.4375,1179.1875 Q991.1719,1179.1875 991.8125,1179.3594 Q992.4688,1179.5156 993.0156,1179.875 Z " fill="#000000"/><text fill="#000000" font-family="sans-serif" font-size="14" lengthAdjust="spacing" textLength="56" x="1010.75" y="1188.8535">Contacts</text><line style="stroke:#181818;stroke-width:0.5;" x1="944.5" x2="1100.5" y1="1200" y2="1200"/><text fill="#000000" font-family="sans-serif" font-size="14" lengthAdjust="spacing" textLength="146" x="949.5" y="1216.6738">-phoneNumber: Integer</text><text fill="#000000" font-family="sans-serif" font-size="14" lengthAdjust="spacing" textLength="135" x="949.5" y="1232.3145">-emailAddress: String</text><line style="stroke:#181818;stroke-width:0.5;" x1="944.5" x2="1100.5" y1="1239.2813" y2="1239.2813"/></g><!--class Employee--><g id="elem_Employee"><rect codeLine="85" fill="#F1F1F1" height="79.2813" id="Employee" rx="2.5" ry="2.5" style="stroke:#181818;stroke-width:0.5;" width="204" x="1075.5" y="1005.5"/><ellipse cx="1142.25" cy="1021.5" fill="#ADD1B2" rx="11" ry="11" style="stroke:#181818;stroke-width:1.0;"/><path d="M1145.0156,1017.375 Q1145.1719,1017.1563 1145.3594,1017.0469 Q1145.5469,1016.9375 1145.7656,1016.9375 Q1146.1406,1016.9375 1146.375,1017.2031 Q1146.6094,1017.4531 1146.6094,1018.0625 L1146.6094,1019.5156 Q1146.6094,1020.125 1146.375,1020.3906 Q1146.1406,1020.6563 1145.7656,1020.6563 Q1145.4219,1020.6563 1145.2188,1020.4531 Q1145.0156,1020.2656 1144.9063,1019.75 Q1144.8594,1019.3906 1144.6719,1019.2031 Q1144.3438,1018.8281 1143.7344,1018.6094 Q1143.125,1018.3906 1142.5,1018.3906 Q1141.7344,1018.3906 1141.0938,1018.7188 Q1140.4688,1019.0469 1139.9688,1019.7969 Q1139.4844,1020.5469 1139.4844,1021.5781 L1139.4844,1022.6719 Q1139.4844,1023.9063 1140.375,1024.7344 Q1141.2656,1025.5469 1142.8594,1025.5469 Q1143.7969,1025.5469 1144.4531,1025.2969 Q1144.8438,1025.1406 1145.2656,1024.7031 Q1145.5313,1024.4375 1145.6719,1024.3594 Q1145.8281,1024.2813 1146.0313,1024.2813 Q1146.3594,1024.2813 1146.6094,1024.5469 Q1146.875,1024.7969 1146.875,1025.1406 Q1146.875,1025.4844 1146.5313,1025.8906 Q1146.0313,1026.4688 1145.2344,1026.7969 Q1144.1563,1027.25 1142.8594,1027.25 Q1141.3438,1027.25 1140.1406,1026.625 Q1139.1563,1026.125 1138.4688,1025.0625 Q1137.7813,1023.9844 1137.7813,1022.7031 L1137.7813,1021.5469 Q1137.7813,1020.2188 1138.3906,1019.0781 Q1139.0156,1017.9219 1140.1094,1017.3125 Q1141.2031,1016.6875 1142.4375,1016.6875 Q1143.1719,1016.6875 1143.8125,1016.8594 Q1144.4688,1017.0156 1145.0156,1017.375 Z " fill="#000000"/><text fill="#000000" font-family="sans-serif" font-size="14" lengthAdjust="spacing" textLength="62" x="1162.75" y="1026.3535">Employee</text><line style="stroke:#181818;stroke-width:0.5;" x1="1076.5" x2="1278.5" y1="1037.5" y2="1037.5"/><text fill="#000000" font-family="sans-serif" font-size="14" lengthAdjust="spacing" textLength="85" x="1081.5" y="1054.1738">-name: String</text><text fill="#000000" font-family="sans-serif" font-size="14" lengthAdjust="spacing" textLength="192" x="1081.5" y="1069.8145">-passportCardNumber: Integer</text><line style="stroke:#181818;stroke-width:0.5;" x1="1076.5" x2="1278.5" y1="1076.7813" y2="1076.7813"/></g><!--class TaxNumber--><g id="elem_TaxNumber"><rect codeLine="90" fill="#F1F1F1" height="63.6406" id="TaxNumber" rx="2.5" ry="2.5" style="stroke:#181818;stroke-width:0.5;" width="104" x="970.5" y="1307"/><ellipse cx="985.5" cy="1323" fill="#ADD1B2" rx="11" ry="11" style="stroke:#181818;stroke-width:1.0;"/><path d="M988.2656,1318.875 Q988.4219,1318.6563 988.6094,1318.5469 Q988.7969,1318.4375 989.0156,1318.4375 Q989.3906,1318.4375 989.625,1318.7031 Q989.8594,1318.9531 989.8594,1319.5625 L989.8594,1321.0156 Q989.8594,1321.625 989.625,1321.8906 Q989.3906,1322.1563 989.0156,1322.1563 Q988.6719,1322.1563 988.4688,1321.9531 Q988.2656,1321.7656 988.1563,1321.25 Q988.1094,1320.8906 987.9219,1320.7031 Q987.5938,1320.3281 986.9844,1320.1094 Q986.375,1319.8906 985.75,1319.8906 Q984.9844,1319.8906 984.3438,1320.2188 Q983.7188,1320.5469 983.2188,1321.2969 Q982.7344,1322.0469 982.7344,1323.0781 L982.7344,1324.1719 Q982.7344,1325.4063 983.625,1326.2344 Q984.5156,1327.0469 986.1094,1327.0469 Q987.0469,1327.0469 987.7031,1326.7969 Q988.0938,1326.6406 988.5156,1326.2031 Q988.7813,1325.9375 988.9219,1325.8594 Q989.0781,1325.7813 989.2813,1325.7813 Q989.6094,1325.7813 989.8594,1326.0469 Q990.125,1326.2969 990.125,1326.6406 Q990.125,1326.9844 989.7813,1327.3906 Q989.2813,1327.9688 988.4844,1328.2969 Q987.4063,1328.75 986.1094,1328.75 Q984.5938,1328.75 983.3906,1328.125 Q982.4063,1327.625 981.7188,1326.5625 Q981.0313,1325.4844 981.0313,1324.2031 L981.0313,1323.0469 Q981.0313,1321.7188 981.6406,1320.5781 Q982.2656,1319.4219 983.3594,1318.8125 Q984.4531,1318.1875 985.6875,1318.1875 Q986.4219,1318.1875 987.0625,1318.3594 Q987.7188,1318.5156 988.2656,1318.875 Z " fill="#000000"/><text fill="#000000" font-family="sans-serif" font-size="14" lengthAdjust="spacing" textLength="72" x="999.5" y="1327.8535">TaxNumber</text><line style="stroke:#181818;stroke-width:0.5;" x1="971.5" x2="1073.5" y1="1339" y2="1339"/><text fill="#000000" font-family="sans-serif" font-size="14" lengthAdjust="spacing" textLength="72" x="976.5" y="1355.6738">-taxNumber</text><line style="stroke:#181818;stroke-width:0.5;" x1="971.5" x2="1073.5" y1="1362.6406" y2="1362.6406"/></g><!--link CreateRequestUI to CreateRequestController--><g id="link_CreateRequestUI_CreateRequestController"><path codeLine="94" d="M951.5,55.24 C951.5,55.24 951.5,170.97 951.5,170.97 " fill="none" id="CreateRequestUI-to-CreateRequestController" style="stroke:#181818;stroke-width:1.0;stroke-dasharray:7.0,7.0;"/><polygon fill="#181818" points="951.5,175.97,955.5,166.97,951.5,170.97,947.5,166.97,951.5,175.97" style="stroke:#181818;stroke-width:1.0;"/></g><!--link CreateRequestController to Repositories--><g id="link_CreateRequestController_Repositories"><path codeLine="96" d="M704.67,240.21 C704.67,288.22 704.67,373 704.67,373 C704.67,373 567.63,373 567.63,373 " fill="none" id="CreateRequestController-to-Repositories" style="stroke:#181818;stroke-width:1.0;stroke-dasharray:7.0,7.0;"/><polygon fill="#181818" points="562.63,373,571.63,377,567.63,373,571.63,369,562.63,373" style="stroke:#181818;stroke-width:1.0;"/><text fill="#000000" font-family="sans-serif" font-size="13" lengthAdjust="spacing" textLength="67" x="634.55" y="369.7686">repositories</text></g><!--link CreateRequestController to Agency--><g id="link_CreateRequestController_Agency"><path codeLine="97" d="M1084,240.17 C1084,240.17 1084,541.76 1084,541.76 " fill="none" id="CreateRequestController-to-Agency" style="stroke:#181818;stroke-width:1.0;stroke-dasharray:7.0,7.0;"/><polygon fill="#181818" points="1084,546.76,1088,537.76,1084,541.76,1080,537.76,1084,546.76" style="stroke:#181818;stroke-width:1.0;"/><text fill="#000000" font-family="sans-serif" font-size="13" lengthAdjust="spacing" textLength="42" x="1085" y="387.7386">agency</text></g><!--link CreateRequestController to RequestTypeRepository--><g id="link_CreateRequestController_RequestTypeRepository"><path codeLine="98" d="M1203.5,240.34 C1203.5,240.34 1203.5,379.47 1203.5,379.47 " fill="none" id="CreateRequestController-to-RequestTypeRepository" style="stroke:#181818;stroke-width:1.0;stroke-dasharray:7.0,7.0;"/><polygon fill="#181818" points="1203.5,384.47,1207.5,375.47,1203.5,379.47,1199.5,375.47,1203.5,384.47" style="stroke:#181818;stroke-width:1.0;"/><text fill="#000000" font-family="sans-serif" font-size="13" lengthAdjust="spacing" textLength="133" x="1069.5" y="306.6686">requestTypeRepository</text></g><!--link CreateRequestController to AgencyTypeRepository--><g id="link_CreateRequestController_AgencyTypeRepository"><path codeLine="99" d="M951.5,240.34 C951.5,240.34 951.5,379.47 951.5,379.47 " fill="none" id="CreateRequestController-to-AgencyTypeRepository" style="stroke:#181818;stroke-width:1.0;stroke-dasharray:7.0,7.0;"/><polygon fill="#181818" points="951.5,384.47,955.5,375.47,951.5,379.47,947.5,375.47,951.5,384.47" style="stroke:#181818;stroke-width:1.0;"/><text fill="#000000" font-family="sans-serif" font-size="13" lengthAdjust="spacing" textLength="104" x="846.5" y="306.6686">agencyRepository</text></g><!--link CreateRequestController to PropertyTypeRepository--><g id="link_CreateRequestController_PropertyTypeRepository"><path codeLine="100" d="M765.83,240.34 C765.83,240.34 765.83,379.47 765.83,379.47 " fill="none" id="CreateRequestController-to-PropertyTypeRepository" style="stroke:#181818;stroke-width:1.0;stroke-dasharray:7.0,7.0;"/><polygon fill="#181818" points="765.83,384.47,769.83,375.47,765.83,379.47,761.83,375.47,765.83,384.47" style="stroke:#181818;stroke-width:1.0;"/><text fill="#000000" font-family="sans-serif" font-size="13" lengthAdjust="spacing" textLength="137" x="627.83" y="306.6686">propertyTypeRepository</text></g><!--link Agency to Request--><g id="link_Agency_Request"><path codeLine="102" d="M943.75,689.22 C943.75,689.22 943.75,743.94 943.75,743.94 " fill="none" id="Agency-to-Request" style="stroke:#181818;stroke-width:1.0;"/><polygon fill="#181818" points="943.75,748.94,947.75,739.94,943.75,743.94,939.75,739.94,943.75,748.94" style="stroke:#181818;stroke-width:1.0;"/><text fill="#000000" font-family="sans-serif" font-size="13" lengthAdjust="spacing" textLength="50" x="892.75" y="713.3486">requests</text></g><!--link Agency to Employee--><g id="link_Agency_Employee"><path codeLine="103" d="M1101.25,689.47 C1101.25,689.47 1101.25,1000.42 1101.25,1000.42 " fill="none" id="Agency-to-Employee" style="stroke:#181818;stroke-width:1.0;"/><polygon fill="#181818" points="1101.25,1005.42,1105.25,996.42,1101.25,1000.42,1097.25,996.42,1101.25,1005.42" style="stroke:#181818;stroke-width:1.0;"/><text fill="#000000" font-family="sans-serif" font-size="13" lengthAdjust="spacing" textLength="49" x="1051.25" y="841.7086">employs</text></g><!--link AgencyTypeRepository to Agency--><g id="link_AgencyTypeRepository_Agency"><path codeLine="104" d="M979.5,463.73 C979.5,463.73 979.5,541.94 979.5,541.94 " fill="none" id="AgencyTypeRepository-to-Agency" style="stroke:#181818;stroke-width:1.0;"/><polygon fill="#181818" points="979.5,546.94,983.5,537.94,979.5,541.94,975.5,537.94,979.5,546.94" style="stroke:#181818;stroke-width:1.0;"/></g><!--link Request to Property--><g id="link_Request_Property"><path codeLine="105" d="M378.5,922.22 C378.5,922.22 378.5,976.69 378.5,976.69 " fill="none" id="Request-to-Property" style="stroke:#181818;stroke-width:1.0;"/><polygon fill="#181818" points="378.5,981.69,382.5,972.69,378.5,976.69,374.5,972.69,378.5,981.69" style="stroke:#181818;stroke-width:1.0;"/><text fill="#000000" font-family="sans-serif" font-size="13" lengthAdjust="spacing" textLength="21" x="356.5" y="946.2286">has</text></g><!--link Request to Owner--><g id="link_Request_Owner"><path codeLine="106" d="M867.5,922.22 C867.5,922.22 867.5,1000.5 867.5,1000.5 " fill="none" id="Request-to-Owner" style="stroke:#181818;stroke-width:1.0;"/><polygon fill="#181818" points="867.5,1005.5,871.5,996.5,867.5,1000.5,863.5,996.5,867.5,1005.5" style="stroke:#181818;stroke-width:1.0;"/><text fill="#000000" font-family="sans-serif" font-size="13" lengthAdjust="spacing" textLength="59" x="807.5" y="958.1286">createdBy</text></g><!--link House to Residence--><g id="link_House_Residence"><path codeLine="108" d="M120.5,665.73 C120.5,665.73 120.5,759.81 120.5,759.81 " fill="none" id="House-to-Residence" style="stroke:#181818;stroke-width:1.0;"/><polygon fill="none" points="127.5,759.81,120.5,779.81,113.5,759.81,127.5,759.81" style="stroke:#181818;stroke-width:1.0;"/></g><!--link Residence to Property--><g id="link_Residence_Property"><path codeLine="110" d="M234.15,836 C246.38,836 254.5,836 254.5,836 C254.5,836 254.5,961.73 254.5,961.73 " fill="none" id="Residence-to-Property" style="stroke:#181818;stroke-width:1.0;"/><polygon fill="none" points="261.5,961.73,254.5,981.73,247.5,961.73,261.5,961.73" style="stroke:#181818;stroke-width:1.0;"/></g><!--link Agency to Contacts--><g id="link_Agency_Contacts"><path codeLine="112" d="M1022.5,689.11 C1022.5,689.11 1022.5,1162.85 1022.5,1162.85 " fill="none" id="Agency-to-Contacts" style="stroke:#181818;stroke-width:1.0;"/><polygon fill="#181818" points="1022.5,1167.85,1026.5,1158.85,1022.5,1162.85,1018.5,1158.85,1022.5,1167.85" style="stroke:#181818;stroke-width:1.0;"/><polygon fill="#000000" points="991.5,923.2417,994.4389,914.1966,988.5611,914.1966,991.5,923.2417" style="stroke:#000000;stroke-width:1.0;"/><text fill="#000000" font-family="sans-serif" font-size="13" lengthAdjust="spacing" textLength="21" x="1000.5" y="922.7486">has</text></g><!--link Employee to Contacts--><g id="link_Employee_Contacts"><path codeLine="113" d="M1088.5,1084.75 C1088.5,1084.75 1088.5,1162.88 1088.5,1162.88 " fill="none" id="Employee-to-Contacts" style="stroke:#181818;stroke-width:1.0;"/><polygon fill="#181818" points="1088.5,1167.88,1092.5,1158.88,1088.5,1162.88,1084.5,1158.88,1088.5,1167.88" style="stroke:#181818;stroke-width:1.0;"/><polygon fill="#000000" points="1057.5,1121.0717,1060.4389,1112.0266,1054.5611,1112.0266,1057.5,1121.0717" style="stroke:#000000;stroke-width:1.0;"/><text fill="#000000" font-family="sans-serif" font-size="13" lengthAdjust="spacing" textLength="21" x="1066.5" y="1120.5786">has</text></g><!--link Owner to Contacts--><g id="link_Owner_Contacts"><path codeLine="114" d="M956.5,1084.75 C956.5,1084.75 956.5,1162.88 956.5,1162.88 " fill="none" id="Owner-to-Contacts" style="stroke:#181818;stroke-width:1.0;"/><polygon fill="#181818" points="956.5,1167.88,960.5,1158.88,956.5,1162.88,952.5,1158.88,956.5,1167.88" style="stroke:#181818;stroke-width:1.0;"/><polygon fill="#000000" points="925.5,1121.0717,928.4389,1112.0266,922.5611,1112.0266,925.5,1121.0717" style="stroke:#000000;stroke-width:1.0;"/><text fill="#000000" font-family="sans-serif" font-size="13" lengthAdjust="spacing" textLength="21" x="934.5" y="1120.5786">has</text></g><!--link Owner to TaxNumber--><g id="link_Owner_TaxNumber"><path codeLine="116" d="M854.5,1084.65 C854.5,1164.9 854.5,1339 854.5,1339 C854.5,1339 965.26,1339 965.26,1339 " fill="none" id="Owner-to-TaxNumber" style="stroke:#181818;stroke-width:1.0;"/><polygon fill="#181818" points="970.26,1339,961.26,1335,965.26,1339,961.26,1343,970.26,1339" style="stroke:#181818;stroke-width:1.0;"/><polygon fill="#000000" points="825.4963,1264.0559,824.5795,1254.5896,819.1905,1256.9364,825.4963,1264.0559" style="stroke:#000000;stroke-width:1.0;"/><text fill="#000000" font-family="sans-serif" font-size="13" lengthAdjust="spacing" textLength="21" x="832.5" y="1263.9786">has</text></g><!--link Employee to TaxNumber--><g id="link_Employee_TaxNumber"><path codeLine="117" d="M1190.5,1084.65 C1190.5,1164.9 1190.5,1339 1190.5,1339 C1190.5,1339 1079.74,1339 1079.74,1339 " fill="none" id="Employee-to-TaxNumber" style="stroke:#181818;stroke-width:1.0;"/><polygon fill="#181818" points="1074.74,1339,1083.74,1343,1079.74,1339,1083.74,1335,1074.74,1339" style="stroke:#181818;stroke-width:1.0;"/><polygon fill="#000000" points="1157.5037,1264.0559,1163.8095,1256.9364,1158.4205,1254.5896,1157.5037,1264.0559" style="stroke:#000000;stroke-width:1.0;"/><text fill="#000000" font-family="sans-serif" font-size="13" lengthAdjust="spacing" textLength="21" x="1168.5" y="1263.9786">has</text></g><!--link Repositories to Repositories--><g id="link_Repositories_Repositories"><path codeLine="119" d="M460.5,360.7 C460.5,330.56 460.5,301 460.5,301 C460.5,301 589.25,301 589.25,301 C589.25,301 589.25,517 589.25,517 C589.25,517 460.5,517 460.5,517 C460.5,517 460.5,492.06 460.5,492.06 " fill="none" id="Repositories-to-Repositories" style="stroke:#181818;stroke-width:1.0;"/><polygon fill="#181818" points="460.5,487.06,456.5,496.06,460.5,492.06,464.5,496.06,460.5,487.06" style="stroke:#181818;stroke-width:1.0;"/><text fill="#000000" font-family="sans-serif" font-size="13" lengthAdjust="spacing" textLength="49" x="564.75" y="409.3886">instance</text></g><!--SRC=[dLRHRjiW57ttL_3eQCcqPwkor6QP5gbQgwRx06BVscWsk82tPjd-VHSJOunfD-qb2VV0kOTpBn3rZV6EIjgIeg5ANMijsR7Ni2y4Fx2VG3uaoarf60Tzwe08gMkH9CCIifL0DJp0SmzAVzsVazzHP2kubg9fG9wJTwI8GwcqaKVCyW2TK4mBULgJJeeEf3w5SLe1BqvJP3KbTq46wfniPcCKK87USwKfBo1TPKlm8IOaNLdmFYfdHAy3KQcdAhxIwFEtUCkKpeZv95S7h0YlycLYdzQcN99QVoQwApinzuMQ-9BBh6v4GJKJF2DM18PAKApYOVHIDI_FnRuSGMYxHfp0szJLxXBAmqxmw- -vEJ2d2XeeD9HMuApKaLgT9rrpI-UEUclJ9QL7Sj0eCoCtGZH0kR72Z2VyxWS7cP7X2wbLK2o_l2ktxN5AId6uTeQlISbiRtwIedsiOSlqQOi-I31dWHNcgnPQL99sjTcKeQHbwVZ6T2lFOSLACEtE-_O8ykxf1aefHAlMn4MeheFGFPLu_gj3Hml0CFrEMKEF3UoUUzQrA6dAy5dq2j8ZLM3YQy9uJOzCczctuWa3gkUx5wnFBo5o98P-HQ9ippLKQ6Ay0Lyp9YCVHO-fXgE43cLaufcy2bh0YHZAPXHmseANhaEmm-jkIsNvPR1aulMQvMBjG12uw-jO-1m3Puxx4vRUEw5Eob038sCiGqQEhcE3WlYGLvebgRcVQQ67QnIjv10wOGuvQhikImbABGd6y_w_1Z_I5uiP0ZqE31uyFcJpVfE_zku4ioV0hlBV09BXiVQUX3SNsli8bzZRzczP8dVLa2uI_vUy2wRmJNoR9FuW8KtyoKsIosutqruczSf7nw8ZR9-04GrIRTnMaf5mumd3vJLLCsWuh1YtrqvvWwg6laVmLpwTnYHnFoqoKiusCJQtpKFonEcEeZPt578OWgvZuxHBE9crtx8TsUNFoXy0]--></g></svg>