<?xml version="1.0" encoding="us-ascii" standalone="no"?><svg xmlns="http://www.w3.org/2000/svg" xmlns:xlink="http://www.w3.org/1999/xlink" contentStyleType="text/css" height="561px" preserveAspectRatio="none" style="width:964px;height:561px;background:#FFFFFF;" version="1.1" viewBox="0 0 964 561" width="964px" zoomAndPan="magnify"><defs/><g><!--class RegisterAnnouncementUI--><g id="elem_RegisterAnnouncementUI"><rect codeLine="11" fill="#F1F1F1" height="48" id="RegisterAnnouncementUI" rx="2.5" ry="2.5" style="stroke:#181818;stroke-width:0.5;" width="192" x="120.5" y="83.5"/><ellipse cx="135.5" cy="99.5" fill="#ADD1B2" rx="11" ry="11" style="stroke:#181818;stroke-width:1.0;"/><path d="M138.2656,95.375 Q138.4219,95.1563 138.6094,95.0469 Q138.7969,94.9375 139.0156,94.9375 Q139.3906,94.9375 139.625,95.2031 Q139.8594,95.4531 139.8594,96.0625 L139.8594,97.5156 Q139.8594,98.125 139.625,98.3906 Q139.3906,98.6563 139.0156,98.6563 Q138.6719,98.6563 138.4688,98.4531 Q138.2656,98.2656 138.1563,97.75 Q138.1094,97.3906 137.9219,97.2031 Q137.5938,96.8281 136.9844,96.6094 Q136.375,96.3906 135.75,96.3906 Q134.9844,96.3906 134.3438,96.7188 Q133.7188,97.0469 133.2188,97.7969 Q132.7344,98.5469 132.7344,99.5781 L132.7344,100.6719 Q132.7344,101.9063 133.625,102.7344 Q134.5156,103.5469 136.1094,103.5469 Q137.0469,103.5469 137.7031,103.2969 Q138.0938,103.1406 138.5156,102.7031 Q138.7813,102.4375 138.9219,102.3594 Q139.0781,102.2813 139.2813,102.2813 Q139.6094,102.2813 139.8594,102.5469 Q140.125,102.7969 140.125,103.1406 Q140.125,103.4844 139.7813,103.8906 Q139.2813,104.4688 138.4844,104.7969 Q137.4063,105.25 136.1094,105.25 Q134.5938,105.25 133.3906,104.625 Q132.4063,104.125 131.7188,103.0625 Q131.0313,101.9844 131.0313,100.7031 L131.0313,99.5469 Q131.0313,98.2188 131.6406,97.0781 Q132.2656,95.9219 133.3594,95.3125 Q134.4531,94.6875 135.6875,94.6875 Q136.4219,94.6875 137.0625,94.8594 Q137.7188,95.0156 138.2656,95.375 Z " fill="#000000"/><text fill="#000000" font-family="sans-serif" font-size="14" lengthAdjust="spacing" textLength="160" x="149.5" y="104.3535">RegisterAnnouncementUI</text><line style="stroke:#181818;stroke-width:0.5;" x1="121.5" x2="311.5" y1="115.5" y2="115.5"/><line style="stroke:#181818;stroke-width:0.5;" x1="121.5" x2="311.5" y1="123.5" y2="123.5"/></g><!--class RegisterAnnouncementController--><g id="elem_RegisterAnnouncementController"><rect codeLine="13" fill="#F1F1F1" height="173.125" id="RegisterAnnouncementController" rx="2.5" ry="2.5" style="stroke:#181818;stroke-width:0.5;" width="419" x="7" y="167"/><ellipse cx="107.25" cy="183" fill="#ADD1B2" rx="11" ry="11" style="stroke:#181818;stroke-width:1.0;"/><path d="M110.0156,178.875 Q110.1719,178.6563 110.3594,178.5469 Q110.5469,178.4375 110.7656,178.4375 Q111.1406,178.4375 111.375,178.7031 Q111.6094,178.9531 111.6094,179.5625 L111.6094,181.0156 Q111.6094,181.625 111.375,181.8906 Q111.1406,182.1563 110.7656,182.1563 Q110.4219,182.1563 110.2188,181.9531 Q110.0156,181.7656 109.9063,181.25 Q109.8594,180.8906 109.6719,180.7031 Q109.3438,180.3281 108.7344,180.1094 Q108.125,179.8906 107.5,179.8906 Q106.7344,179.8906 106.0938,180.2188 Q105.4688,180.5469 104.9688,181.2969 Q104.4844,182.0469 104.4844,183.0781 L104.4844,184.1719 Q104.4844,185.4063 105.375,186.2344 Q106.2656,187.0469 107.8594,187.0469 Q108.7969,187.0469 109.4531,186.7969 Q109.8438,186.6406 110.2656,186.2031 Q110.5313,185.9375 110.6719,185.8594 Q110.8281,185.7813 111.0313,185.7813 Q111.3594,185.7813 111.6094,186.0469 Q111.875,186.2969 111.875,186.6406 Q111.875,186.9844 111.5313,187.3906 Q111.0313,187.9688 110.2344,188.2969 Q109.1563,188.75 107.8594,188.75 Q106.3438,188.75 105.1406,188.125 Q104.1563,187.625 103.4688,186.5625 Q102.7813,185.4844 102.7813,184.2031 L102.7813,183.0469 Q102.7813,181.7188 103.3906,180.5781 Q104.0156,179.4219 105.1094,178.8125 Q106.2031,178.1875 107.4375,178.1875 Q108.1719,178.1875 108.8125,178.3594 Q109.4688,178.5156 110.0156,178.875 Z " fill="#000000"/><text fill="#000000" font-family="sans-serif" font-size="14" lengthAdjust="spacing" textLength="210" x="127.75" y="187.8535">RegisterAnnouncementController</text><line style="stroke:#181818;stroke-width:0.5;" x1="8" x2="425" y1="199" y2="199"/><line style="stroke:#181818;stroke-width:0.5;" x1="8" x2="425" y1="207" y2="207"/><text fill="#000000" font-family="sans-serif" font-size="14" lengthAdjust="spacing" textLength="124" x="13" y="223.6738">+getPropertyType()</text><text fill="#000000" font-family="sans-serif" font-size="14" lengthAdjust="spacing" textLength="208" x="13" y="239.3145">+setPropertyType(propertyType)</text><text fill="#000000" font-family="sans-serif" font-size="14" lengthAdjust="spacing" textLength="143" x="13" y="254.9551">+getRegisteredUsers()</text><text fill="#000000" font-family="sans-serif" font-size="14" lengthAdjust="spacing" textLength="369" x="13" y="270.5957">+saveDataProperty(area, location, distance, price, photos)</text><text fill="#000000" font-family="sans-serif" font-size="14" lengthAdjust="spacing" textLength="407" x="13" y="286.2363">+saveDataResidence(bedrooms, bathrooms, parking, equipment</text><text fill="#000000" font-family="sans-serif" font-size="14" lengthAdjust="spacing" textLength="238" x="13" y="301.877">+saveDataHouse(basement, loft, sun)</text><text fill="#000000" font-family="sans-serif" font-size="14" lengthAdjust="spacing" textLength="269" x="13" y="317.5176">+saveDataComissionType(comissionType)</text><text fill="#000000" font-family="sans-serif" font-size="14" lengthAdjust="spacing" textLength="205" x="13" y="333.1582">+saveDataComission(comission)</text></g><!--class Repositories--><g id="elem_Repositories"><rect codeLine="25" fill="#F1F1F1" height="94.9219" id="Repositories" rx="2.5" ry="2.5" style="stroke:#181818;stroke-width:0.5;" width="223" x="486" y="41"/><ellipse cx="553.75" cy="57" fill="#ADD1B2" rx="11" ry="11" style="stroke:#181818;stroke-width:1.0;"/><path d="M556.5156,52.875 Q556.6719,52.6563 556.8594,52.5469 Q557.0469,52.4375 557.2656,52.4375 Q557.6406,52.4375 557.875,52.7031 Q558.1094,52.9531 558.1094,53.5625 L558.1094,55.0156 Q558.1094,55.625 557.875,55.8906 Q557.6406,56.1563 557.2656,56.1563 Q556.9219,56.1563 556.7188,55.9531 Q556.5156,55.7656 556.4063,55.25 Q556.3594,54.8906 556.1719,54.7031 Q555.8438,54.3281 555.2344,54.1094 Q554.625,53.8906 554,53.8906 Q553.2344,53.8906 552.5938,54.2188 Q551.9688,54.5469 551.4688,55.2969 Q550.9844,56.0469 550.9844,57.0781 L550.9844,58.1719 Q550.9844,59.4063 551.875,60.2344 Q552.7656,61.0469 554.3594,61.0469 Q555.2969,61.0469 555.9531,60.7969 Q556.3438,60.6406 556.7656,60.2031 Q557.0313,59.9375 557.1719,59.8594 Q557.3281,59.7813 557.5313,59.7813 Q557.8594,59.7813 558.1094,60.0469 Q558.375,60.2969 558.375,60.6406 Q558.375,60.9844 558.0313,61.3906 Q557.5313,61.9688 556.7344,62.2969 Q555.6563,62.75 554.3594,62.75 Q552.8438,62.75 551.6406,62.125 Q550.6563,61.625 549.9688,60.5625 Q549.2813,59.4844 549.2813,58.2031 L549.2813,57.0469 Q549.2813,55.7188 549.8906,54.5781 Q550.5156,53.4219 551.6094,52.8125 Q552.7031,52.1875 553.9375,52.1875 Q554.6719,52.1875 555.3125,52.3594 Q555.9688,52.5156 556.5156,52.875 Z " fill="#000000"/><text fill="#000000" font-family="sans-serif" font-size="14" lengthAdjust="spacing" textLength="79" x="574.25" y="61.8535">Repositories</text><line style="stroke:#181818;stroke-width:0.5;" x1="487" x2="708" y1="73" y2="73"/><line style="stroke:#181818;stroke-width:0.5;" x1="487" x2="708" y1="81" y2="81"/><text fill="#000000" font-family="sans-serif" font-size="14" lengthAdjust="spacing" textLength="91" x="492" y="97.6738">+getInstance()</text><text fill="#000000" font-family="sans-serif" font-size="14" lengthAdjust="spacing" textLength="192" x="492" y="113.3145">+getPropertyTypeRepository()</text><text fill="#000000" font-family="sans-serif" font-size="14" lengthAdjust="spacing" textLength="211" x="492" y="128.9551">+getRegisteredUsersRepository()</text></g><!--class PropertyTypeRepository--><g id="elem_PropertyTypeRepository"><rect codeLine="32" fill="#F1F1F1" height="63.6406" id="PropertyTypeRepository" rx="2.5" ry="2.5" style="stroke:#181818;stroke-width:0.5;" width="186" x="504.5" y="171.5"/><ellipse cx="519.5" cy="187.5" fill="#ADD1B2" rx="11" ry="11" style="stroke:#181818;stroke-width:1.0;"/><path d="M522.2656,183.375 Q522.4219,183.1563 522.6094,183.0469 Q522.7969,182.9375 523.0156,182.9375 Q523.3906,182.9375 523.625,183.2031 Q523.8594,183.4531 523.8594,184.0625 L523.8594,185.5156 Q523.8594,186.125 523.625,186.3906 Q523.3906,186.6563 523.0156,186.6563 Q522.6719,186.6563 522.4688,186.4531 Q522.2656,186.2656 522.1563,185.75 Q522.1094,185.3906 521.9219,185.2031 Q521.5938,184.8281 520.9844,184.6094 Q520.375,184.3906 519.75,184.3906 Q518.9844,184.3906 518.3438,184.7188 Q517.7188,185.0469 517.2188,185.7969 Q516.7344,186.5469 516.7344,187.5781 L516.7344,188.6719 Q516.7344,189.9063 517.625,190.7344 Q518.5156,191.5469 520.1094,191.5469 Q521.0469,191.5469 521.7031,191.2969 Q522.0938,191.1406 522.5156,190.7031 Q522.7813,190.4375 522.9219,190.3594 Q523.0781,190.2813 523.2813,190.2813 Q523.6094,190.2813 523.8594,190.5469 Q524.125,190.7969 524.125,191.1406 Q524.125,191.4844 523.7813,191.8906 Q523.2813,192.4688 522.4844,192.7969 Q521.4063,193.25 520.1094,193.25 Q518.5938,193.25 517.3906,192.625 Q516.4063,192.125 515.7188,191.0625 Q515.0313,189.9844 515.0313,188.7031 L515.0313,187.5469 Q515.0313,186.2188 515.6406,185.0781 Q516.2656,183.9219 517.3594,183.3125 Q518.4531,182.6875 519.6875,182.6875 Q520.4219,182.6875 521.0625,182.8594 Q521.7188,183.0156 522.2656,183.375 Z " fill="#000000"/><text fill="#000000" font-family="sans-serif" font-size="14" lengthAdjust="spacing" textLength="154" x="533.5" y="192.3535">PropertyTypeRepository</text><line style="stroke:#181818;stroke-width:0.5;" x1="505.5" x2="689.5" y1="203.5" y2="203.5"/><line style="stroke:#181818;stroke-width:0.5;" x1="505.5" x2="689.5" y1="211.5" y2="211.5"/><text fill="#000000" font-family="sans-serif" font-size="14" lengthAdjust="spacing" textLength="124" x="510.5" y="228.1738">+getPropertyType()</text></g><!--class RegistedUsersRepository--><g id="elem_RegistedUsersRepository"><rect codeLine="37" fill="#F1F1F1" height="63.6406" id="RegistedUsersRepository" rx="2.5" ry="2.5" style="stroke:#181818;stroke-width:0.5;" width="192" x="501.5" y="270.5"/><ellipse cx="516.5" cy="286.5" fill="#ADD1B2" rx="11" ry="11" style="stroke:#181818;stroke-width:1.0;"/><path d="M519.2656,282.375 Q519.4219,282.1563 519.6094,282.0469 Q519.7969,281.9375 520.0156,281.9375 Q520.3906,281.9375 520.625,282.2031 Q520.8594,282.4531 520.8594,283.0625 L520.8594,284.5156 Q520.8594,285.125 520.625,285.3906 Q520.3906,285.6563 520.0156,285.6563 Q519.6719,285.6563 519.4688,285.4531 Q519.2656,285.2656 519.1563,284.75 Q519.1094,284.3906 518.9219,284.2031 Q518.5938,283.8281 517.9844,283.6094 Q517.375,283.3906 516.75,283.3906 Q515.9844,283.3906 515.3438,283.7188 Q514.7188,284.0469 514.2188,284.7969 Q513.7344,285.5469 513.7344,286.5781 L513.7344,287.6719 Q513.7344,288.9063 514.625,289.7344 Q515.5156,290.5469 517.1094,290.5469 Q518.0469,290.5469 518.7031,290.2969 Q519.0938,290.1406 519.5156,289.7031 Q519.7813,289.4375 519.9219,289.3594 Q520.0781,289.2813 520.2813,289.2813 Q520.6094,289.2813 520.8594,289.5469 Q521.125,289.7969 521.125,290.1406 Q521.125,290.4844 520.7813,290.8906 Q520.2813,291.4688 519.4844,291.7969 Q518.4063,292.25 517.1094,292.25 Q515.5938,292.25 514.3906,291.625 Q513.4063,291.125 512.7188,290.0625 Q512.0313,288.9844 512.0313,287.7031 L512.0313,286.5469 Q512.0313,285.2188 512.6406,284.0781 Q513.2656,282.9219 514.3594,282.3125 Q515.4531,281.6875 516.6875,281.6875 Q517.4219,281.6875 518.0625,281.8594 Q518.7188,282.0156 519.2656,282.375 Z " fill="#000000"/><text fill="#000000" font-family="sans-serif" font-size="14" lengthAdjust="spacing" textLength="160" x="530.5" y="291.3535">RegistedUsersRepository</text><line style="stroke:#181818;stroke-width:0.5;" x1="502.5" x2="692.5" y1="302.5" y2="302.5"/><line style="stroke:#181818;stroke-width:0.5;" x1="502.5" x2="692.5" y1="310.5" y2="310.5"/><text fill="#000000" font-family="sans-serif" font-size="14" lengthAdjust="spacing" textLength="143" x="507.5" y="327.1738">+getRegisteredUsers()</text></g><!--class Announcement--><g id="elem_Announcement"><rect codeLine="42" fill="#F1F1F1" height="79.2813" id="Announcement" rx="2.5" ry="2.5" style="stroke:#181818;stroke-width:0.5;" width="165" x="780.5" y="199"/><ellipse cx="812.6" cy="215" fill="#ADD1B2" rx="11" ry="11" style="stroke:#181818;stroke-width:1.0;"/><path d="M815.3656,210.875 Q815.5219,210.6563 815.7094,210.5469 Q815.8969,210.4375 816.1156,210.4375 Q816.4906,210.4375 816.725,210.7031 Q816.9594,210.9531 816.9594,211.5625 L816.9594,213.0156 Q816.9594,213.625 816.725,213.8906 Q816.4906,214.1563 816.1156,214.1563 Q815.7719,214.1563 815.5688,213.9531 Q815.3656,213.7656 815.2563,213.25 Q815.2094,212.8906 815.0219,212.7031 Q814.6938,212.3281 814.0844,212.1094 Q813.475,211.8906 812.85,211.8906 Q812.0844,211.8906 811.4438,212.2188 Q810.8188,212.5469 810.3188,213.2969 Q809.8344,214.0469 809.8344,215.0781 L809.8344,216.1719 Q809.8344,217.4063 810.725,218.2344 Q811.6156,219.0469 813.2094,219.0469 Q814.1469,219.0469 814.8031,218.7969 Q815.1938,218.6406 815.6156,218.2031 Q815.8813,217.9375 816.0219,217.8594 Q816.1781,217.7813 816.3813,217.7813 Q816.7094,217.7813 816.9594,218.0469 Q817.225,218.2969 817.225,218.6406 Q817.225,218.9844 816.8813,219.3906 Q816.3813,219.9688 815.5844,220.2969 Q814.5063,220.75 813.2094,220.75 Q811.6938,220.75 810.4906,220.125 Q809.5063,219.625 808.8188,218.5625 Q808.1313,217.4844 808.1313,216.2031 L808.1313,215.0469 Q808.1313,213.7188 808.7406,212.5781 Q809.3656,211.4219 810.4594,210.8125 Q811.5531,210.1875 812.7875,210.1875 Q813.5219,210.1875 814.1625,210.3594 Q814.8188,210.5156 815.3656,210.875 Z " fill="#000000"/><text fill="#000000" font-family="sans-serif" font-size="14" lengthAdjust="spacing" textLength="95" x="830.4" y="219.8535">Announcement</text><line style="stroke:#181818;stroke-width:0.5;" x1="781.5" x2="944.5" y1="231" y2="231"/><line style="stroke:#181818;stroke-width:0.5;" x1="781.5" x2="944.5" y1="239" y2="239"/><text fill="#000000" font-family="sans-serif" font-size="14" lengthAdjust="spacing" textLength="153" x="786.5" y="255.6738">+createAnnouncement()</text><text fill="#000000" font-family="sans-serif" font-size="14" lengthAdjust="spacing" textLength="95" x="786.5" y="271.3145">+setDate(date)</text></g><!--class Comission--><g id="elem_Comission"><rect codeLine="48" fill="#F1F1F1" height="79.2813" id="Comission" rx="2.5" ry="2.5" style="stroke:#181818;stroke-width:0.5;" width="144" x="791" y="475"/><ellipse cx="827.15" cy="491" fill="#ADD1B2" rx="11" ry="11" style="stroke:#181818;stroke-width:1.0;"/><path d="M829.9156,486.875 Q830.0719,486.6563 830.2594,486.5469 Q830.4469,486.4375 830.6656,486.4375 Q831.0406,486.4375 831.275,486.7031 Q831.5094,486.9531 831.5094,487.5625 L831.5094,489.0156 Q831.5094,489.625 831.275,489.8906 Q831.0406,490.1563 830.6656,490.1563 Q830.3219,490.1563 830.1188,489.9531 Q829.9156,489.7656 829.8063,489.25 Q829.7594,488.8906 829.5719,488.7031 Q829.2438,488.3281 828.6344,488.1094 Q828.025,487.8906 827.4,487.8906 Q826.6344,487.8906 825.9938,488.2188 Q825.3688,488.5469 824.8688,489.2969 Q824.3844,490.0469 824.3844,491.0781 L824.3844,492.1719 Q824.3844,493.4063 825.275,494.2344 Q826.1656,495.0469 827.7594,495.0469 Q828.6969,495.0469 829.3531,494.7969 Q829.7438,494.6406 830.1656,494.2031 Q830.4313,493.9375 830.5719,493.8594 Q830.7281,493.7813 830.9313,493.7813 Q831.2594,493.7813 831.5094,494.0469 Q831.775,494.2969 831.775,494.6406 Q831.775,494.9844 831.4313,495.3906 Q830.9313,495.9688 830.1344,496.2969 Q829.0563,496.75 827.7594,496.75 Q826.2438,496.75 825.0406,496.125 Q824.0563,495.625 823.3688,494.5625 Q822.6813,493.4844 822.6813,492.2031 L822.6813,491.0469 Q822.6813,489.7188 823.2906,488.5781 Q823.9156,487.4219 825.0094,486.8125 Q826.1031,486.1875 827.3375,486.1875 Q828.0719,486.1875 828.7125,486.3594 Q829.3688,486.5156 829.9156,486.875 Z " fill="#000000"/><text fill="#000000" font-family="sans-serif" font-size="14" lengthAdjust="spacing" textLength="65" x="845.85" y="495.8535">Comission</text><line style="stroke:#181818;stroke-width:0.5;" x1="792" x2="934" y1="507" y2="507"/><text fill="#000000" font-family="sans-serif" font-size="14" lengthAdjust="spacing" textLength="90" x="797" y="523.6738">-value: double</text><text fill="#000000" font-family="sans-serif" font-size="14" lengthAdjust="spacing" textLength="132" x="797" y="539.3145">-percentage : double</text><line style="stroke:#181818;stroke-width:0.5;" x1="792" x2="934" y1="546.2813" y2="546.2813"/></g><!--class Agent--><g id="elem_Agent"><rect codeLine="54" fill="#F1F1F1" height="157.4844" id="Agent" rx="2.5" ry="2.5" style="stroke:#181818;stroke-width:0.5;" width="188" x="769" y="7"/><ellipse cx="840.25" cy="23" fill="#ADD1B2" rx="11" ry="11" style="stroke:#181818;stroke-width:1.0;"/><path d="M843.0156,18.875 Q843.1719,18.6563 843.3594,18.5469 Q843.5469,18.4375 843.7656,18.4375 Q844.1406,18.4375 844.375,18.7031 Q844.6094,18.9531 844.6094,19.5625 L844.6094,21.0156 Q844.6094,21.625 844.375,21.8906 Q844.1406,22.1563 843.7656,22.1563 Q843.4219,22.1563 843.2188,21.9531 Q843.0156,21.7656 842.9063,21.25 Q842.8594,20.8906 842.6719,20.7031 Q842.3438,20.3281 841.7344,20.1094 Q841.125,19.8906 840.5,19.8906 Q839.7344,19.8906 839.0938,20.2188 Q838.4688,20.5469 837.9688,21.2969 Q837.4844,22.0469 837.4844,23.0781 L837.4844,24.1719 Q837.4844,25.4063 838.375,26.2344 Q839.2656,27.0469 840.8594,27.0469 Q841.7969,27.0469 842.4531,26.7969 Q842.8438,26.6406 843.2656,26.2031 Q843.5313,25.9375 843.6719,25.8594 Q843.8281,25.7813 844.0313,25.7813 Q844.3594,25.7813 844.6094,26.0469 Q844.875,26.2969 844.875,26.6406 Q844.875,26.9844 844.5313,27.3906 Q844.0313,27.9688 843.2344,28.2969 Q842.1563,28.75 840.8594,28.75 Q839.3438,28.75 838.1406,28.125 Q837.1563,27.625 836.4688,26.5625 Q835.7813,25.4844 835.7813,24.2031 L835.7813,23.0469 Q835.7813,21.7188 836.3906,20.5781 Q837.0156,19.4219 838.1094,18.8125 Q839.2031,18.1875 840.4375,18.1875 Q841.1719,18.1875 841.8125,18.3594 Q842.4688,18.5156 843.0156,18.875 Z " fill="#000000"/><text fill="#000000" font-family="sans-serif" font-size="14" lengthAdjust="spacing" textLength="37" x="860.75" y="27.8535">Agent</text><line style="stroke:#181818;stroke-width:0.5;" x1="770" x2="956" y1="39" y2="39"/><text fill="#000000" font-family="sans-serif" font-size="14" lengthAdjust="spacing" textLength="85" x="775" y="55.6738">-name: String</text><text fill="#000000" font-family="sans-serif" font-size="14" lengthAdjust="spacing" textLength="176" x="775" y="71.3145">-citizenCardNumber: Integer</text><text fill="#000000" font-family="sans-serif" font-size="14" lengthAdjust="spacing" textLength="124" x="775" y="86.9551">-taxNumber: Integer</text><text fill="#000000" font-family="sans-serif" font-size="14" lengthAdjust="spacing" textLength="93" x="775" y="102.5957">-adress: String</text><text fill="#000000" font-family="sans-serif" font-size="14" lengthAdjust="spacing" textLength="83" x="775" y="118.2363">-email: String</text><text fill="#000000" font-family="sans-serif" font-size="14" lengthAdjust="spacing" textLength="146" x="775" y="133.877">-phoneNumber: Integer</text><text fill="#000000" font-family="sans-serif" font-size="14" lengthAdjust="spacing" textLength="96" x="775" y="149.5176">-agency: String</text><line style="stroke:#181818;stroke-width:0.5;" x1="770" x2="956" y1="156.4844" y2="156.4844"/></g><!--class Location--><g id="elem_Location"><rect codeLine="65" fill="#F1F1F1" height="126.2031" id="Location" rx="2.5" ry="2.5" style="stroke:#181818;stroke-width:0.5;" width="120" x="803" y="313.5"/><ellipse cx="833.3" cy="329.5" fill="#ADD1B2" rx="11" ry="11" style="stroke:#181818;stroke-width:1.0;"/><path d="M836.0656,325.375 Q836.2219,325.1563 836.4094,325.0469 Q836.5969,324.9375 836.8156,324.9375 Q837.1906,324.9375 837.425,325.2031 Q837.6594,325.4531 837.6594,326.0625 L837.6594,327.5156 Q837.6594,328.125 837.425,328.3906 Q837.1906,328.6563 836.8156,328.6563 Q836.4719,328.6563 836.2688,328.4531 Q836.0656,328.2656 835.9563,327.75 Q835.9094,327.3906 835.7219,327.2031 Q835.3938,326.8281 834.7844,326.6094 Q834.175,326.3906 833.55,326.3906 Q832.7844,326.3906 832.1438,326.7188 Q831.5188,327.0469 831.0188,327.7969 Q830.5344,328.5469 830.5344,329.5781 L830.5344,330.6719 Q830.5344,331.9063 831.425,332.7344 Q832.3156,333.5469 833.9094,333.5469 Q834.8469,333.5469 835.5031,333.2969 Q835.8938,333.1406 836.3156,332.7031 Q836.5813,332.4375 836.7219,332.3594 Q836.8781,332.2813 837.0813,332.2813 Q837.4094,332.2813 837.6594,332.5469 Q837.925,332.7969 837.925,333.1406 Q837.925,333.4844 837.5813,333.8906 Q837.0813,334.4688 836.2844,334.7969 Q835.2063,335.25 833.9094,335.25 Q832.3938,335.25 831.1906,334.625 Q830.2063,334.125 829.5188,333.0625 Q828.8313,331.9844 828.8313,330.7031 L828.8313,329.5469 Q828.8313,328.2188 829.4406,327.0781 Q830.0656,325.9219 831.1594,325.3125 Q832.2531,324.6875 833.4875,324.6875 Q834.2219,324.6875 834.8625,324.8594 Q835.5188,325.0156 836.0656,325.375 Z " fill="#000000"/><text fill="#000000" font-family="sans-serif" font-size="14" lengthAdjust="spacing" textLength="54" x="850.7" y="334.3535">Location</text><line style="stroke:#181818;stroke-width:0.5;" x1="804" x2="922" y1="345.5" y2="345.5"/><text fill="#000000" font-family="sans-serif" font-size="14" lengthAdjust="spacing" textLength="86" x="809" y="362.1738">-street: String</text><text fill="#000000" font-family="sans-serif" font-size="14" lengthAdjust="spacing" textLength="71" x="809" y="377.8145">-city: String</text><text fill="#000000" font-family="sans-serif" font-size="14" lengthAdjust="spacing" textLength="91" x="809" y="393.4551">-district: String</text><text fill="#000000" font-family="sans-serif" font-size="14" lengthAdjust="spacing" textLength="81" x="809" y="409.0957">-state: String</text><text fill="#000000" font-family="sans-serif" font-size="14" lengthAdjust="spacing" textLength="108" x="809" y="424.7363">-zipCode: Integer</text><line style="stroke:#181818;stroke-width:0.5;" x1="804" x2="922" y1="431.7031" y2="431.7031"/></g><!--link RegisterAnnouncementUI to RegisterAnnouncementController--><g id="link_RegisterAnnouncementUI_RegisterAnnouncementController"><path codeLine="76" d="M216.5,131.6 C216.5,141.59 216.5,151.59 216.5,161.59 " fill="none" id="RegisterAnnouncementUI-to-RegisterAnnouncementController" style="stroke:#181818;stroke-width:1.0;"/><polygon fill="#181818" points="216.5,166.81,220.5,157.81,216.5,161.81,212.5,157.81,216.5,166.81" style="stroke:#181818;stroke-width:1.0;"/></g><!--link RegisterAnnouncementController to Repositories--><g id="link_RegisterAnnouncementController_Repositories"><path codeLine="77" d="M416.43,166.89 C439.03,157.06 461.45,147.3 482.4,138.18 " fill="none" id="RegisterAnnouncementController-to-Repositories" style="stroke:#181818;stroke-width:1.0;stroke-dasharray:7.0,7.0;"/><polygon fill="#181818" points="487.12,136.12,477.2714,136.0515,482.5369,138.1188,480.4695,143.3844,487.12,136.12" style="stroke:#181818;stroke-width:1.0;"/></g><!--link Repositories to Announcement--><g id="link_Repositories_Announcement"><path codeLine="78" d="M682.24,136.17 C716.27,155.54 755.26,177.74 788.21,196.49 " fill="none" id="Repositories-to-Announcement" style="stroke:#181818;stroke-width:1.0;"/><polygon fill="#181818" points="792.61,199,786.7551,191.0804,788.2609,196.5331,782.8081,198.0389,792.61,199" style="stroke:#181818;stroke-width:1.0;"/></g><!--link Repositories to RegistedUsersRepository--><g id="link_Repositories_RegistedUsersRepository"><path codeLine="79" d="M487.19,136.13 C474.76,145.9 463.79,157.44 456,171 C441.83,195.67 441.83,210.33 456,235 C465.42,251.4 480.14,263.86 496.6,273.33 " fill="none" id="Repositories-to-RegistedUsersRepository" style="stroke:#181818;stroke-width:1.0;"/><polygon fill="#181818" points="501.29,275.92,495.3455,268.0674,496.9132,273.5027,491.4779,275.0704,501.29,275.92" style="stroke:#181818;stroke-width:1.0;"/></g><!--link Repositories to PropertyTypeRepository--><g id="link_Repositories_PropertyTypeRepository"><path codeLine="80" d="M597.5,136.29 C597.5,146.18 597.5,156.08 597.5,165.98 " fill="none" id="Repositories-to-PropertyTypeRepository" style="stroke:#181818;stroke-width:1.0;"/><polygon fill="#181818" points="597.5,171.16,601.5,162.16,597.5,166.16,593.5,162.16,597.5,171.16" style="stroke:#181818;stroke-width:1.0;"/></g><!--link RegisterAnnouncementController to Announcement--><g id="link_RegisterAnnouncementController_Announcement"><path codeLine="81" d="M405.78,340.09 C499.22,370.88 612.47,389.55 709,351.5 C742.94,338.12 739.97,317.59 769,295.5 C775.49,290.56 782.43,285.67 789.48,280.96 " fill="none" id="RegisterAnnouncementController-to-Announcement" style="stroke:#181818;stroke-width:1.0;"/><polygon fill="#181818" points="793.88,278.04,784.1662,279.6656,789.7088,280.797,788.5774,286.3396,793.88,278.04" style="stroke:#181818;stroke-width:1.0;"/></g><!--link RegisterAnnouncementController to RegistedUsersRepository--><g id="link_RegisterAnnouncementController_RegistedUsersRepository"><path codeLine="82" d="M426.12,280.47 C450.46,283.62 474.37,286.71 496.23,289.54 " fill="none" id="RegisterAnnouncementController-to-RegistedUsersRepository" style="stroke:#181818;stroke-width:1.0;stroke-dasharray:7.0,7.0;"/><polygon fill="#181818" points="501.44,290.21,493.0292,285.0858,496.4815,289.567,492.0003,293.0193,501.44,290.21" style="stroke:#181818;stroke-width:1.0;"/></g><!--link RegisterAnnouncementController to PropertyTypeRepository--><g id="link_RegisterAnnouncementController_PropertyTypeRepository"><path codeLine="83" d="M426.12,225.98 C451.52,222.63 476.45,219.34 499.08,216.35 " fill="none" id="RegisterAnnouncementController-to-PropertyTypeRepository" style="stroke:#181818;stroke-width:1.0;stroke-dasharray:7.0,7.0;"/><polygon fill="#181818" points="504.17,215.68,494.7224,212.8974,499.2134,216.3371,495.7737,220.828,504.17,215.68" style="stroke:#181818;stroke-width:1.0;"/></g><!--link Agent to Announcement--><g id="link_Agent_Announcement"><path codeLine="84" d="M863,164.25 C863,174.04 863,183.84 863,193.63 " fill="none" id="Agent-to-Announcement" style="stroke:#181818;stroke-width:1.0;"/><polygon fill="#181818" points="863,198.76,867,189.76,863,193.76,859,189.76,863,198.76" style="stroke:#181818;stroke-width:1.0;"/></g><!--link Announcement to Comission--><g id="link_Announcement_Comission"><path codeLine="85" d="M780.19,271.94 C763.73,282.55 748.58,296.06 739,313 C711.2,362.13 711.2,390.87 739,440 C749.72,458.94 767.39,473.6 786.07,484.7 " fill="none" id="Announcement-to-Comission" style="stroke:#181818;stroke-width:1.0;"/><polygon fill="#181818" points="790.84,487.44,785.0273,479.4894,786.5041,484.9501,781.0434,486.4269,790.84,487.44" style="stroke:#181818;stroke-width:1.0;"/></g><!--link Announcement to Location--><g id="link_Announcement_Location"><path codeLine="86" d="M863,278.01 C863,288.07 863,298.12 863,308.17 " fill="none" id="Announcement-to-Location" style="stroke:#181818;stroke-width:1.0;"/><polygon fill="#181818" points="863,313.43,867,304.43,863,308.43,859,304.43,863,313.43" style="stroke:#181818;stroke-width:1.0;"/><text fill="#000000" font-family="sans-serif" font-size="13" lengthAdjust="spacing" textLength="21" x="840.7203" y="302.6783">has</text></g><!--SRC=[XLJ1Rjim3BtxAuHUbc19iNCF1Ohii033C3Jh1oWoOmkLHK-akxb3_tsqazYoOoSvE1R9HpvIZ_v4hzQNEkX25UZHv04BK1mgI7fFgSshpc37jGCLmB3scOi3ADSf_h4-KmVjAFOuwu7h4bI9hcuEKpuCZ4daC4uJFJ47kwyOjWRzphw3-f8a3Wwi65MmMSugjGqPYpv9MeXwXimIGtZo7Yjle03FBzjhtWrw3kWSXEHVekJtEGF-6R24mFKl8RTO7iqqCfVHOTaXpoKWVI48r87r6tpLhCyP5Zg0NYc7HZVqLz89oL0Dh5GPRFkN8oEDuCz0DWK9M-mX3OW5hTHUStvwbU792BELWj-LBPlkXl1lM950DRMTD-KFygJAZyfiiB14mgjjrCIdkSW-QfbyzFCkaInZi43HTBV-sEjYEJdm3bKlPkSwYEdgJMUPlzUFaJ36kIFavRrsu5XDPuIHwsM8FP6CP72mIEKH9Ua6USgmVjEkWWULOhMNJMjDGjr89bb4rJbw5bbVVkrr8TYTx8_FZXPZMJR8RtH8VrJ57iA3sdg6J6JV-bd_dRJhD03HC1SKshgXITJgOJg1y39r5oryDotVxoVfdoaJ1m2-85qFBSsQo7wCuaHEFEhttPORJA4d8uMJPFhpeDQFjpuDrztg_d6ezVZGP1z8PEoS4zyuRaRTDwYjrvVrh_ToVutIJUWCorQU5wE83usptuAnvoxNTDU9vZy0]--></g></svg>