<?xml version="1.0" encoding="us-ascii" standalone="no"?><svg xmlns="http://www.w3.org/2000/svg" xmlns:xlink="http://www.w3.org/1999/xlink" contentStyleType="text/css" height="523px" preserveAspectRatio="none" style="width:682px;height:523px;background:#FFFFFF;" version="1.1" viewBox="0 0 682 523" width="682px" zoomAndPan="magnify"><defs/><g><text fill="#000000" font-family="sans-serif" font-size="14" font-weight="bold" lengthAdjust="spacing" textLength="284" x="200.5" y="27.6738">US009 - System Sequence Diagram (SSD)</text><rect fill="#FFFFFF" height="306.7578" style="stroke:#181818;stroke-width:1.0;" width="10" x="46" y="127.2813"/><rect fill="#FFFFFF" height="66.5703" style="stroke:#181818;stroke-width:1.0;" width="10" x="619" y="147.8047"/><rect fill="#FFFFFF" height="28.5234" style="stroke:#181818;stroke-width:1.0;" width="10" x="619" y="242.8984"/><rect fill="#FFFFFF" height="52.0469" style="stroke:#181818;stroke-width:1.0;" width="10" x="619" y="299.9453"/><rect fill="none" height="263.2344" style="stroke:#000000;stroke-width:1.5;" width="666" x="10" y="162.8047"/><rect fill="none" height="45.0469" style="stroke:#000000;stroke-width:1.5;" width="646" x="20" y="314.9453"/><rect fill="none" height="45.0469" style="stroke:#000000;stroke-width:1.5;" width="646" x="20" y="373.9922"/><line style="stroke:#181818;stroke-width:0.5;stroke-dasharray:5.0,5.0;" x1="51" x2="51" y1="117.2813" y2="443.0391"/><line style="stroke:#181818;stroke-width:0.5;stroke-dasharray:5.0,5.0;" x1="624" x2="624" y1="117.2813" y2="443.0391"/><text fill="#000000" font-family="sans-serif" font-size="14" lengthAdjust="spacing" textLength="36" x="30" y="114.3145">Client</text><ellipse cx="51" cy="50.1406" fill="#E3E3E3" rx="8" ry="8" style="stroke:#181818;stroke-width:0.5;"/><path d="M51,58.1406 L51,85.1406 M38,66.1406 L64,66.1406 M51,85.1406 L38,100.1406 M51,85.1406 L64,100.1406 " fill="none" style="stroke:#181818;stroke-width:0.5;"/><text fill="#000000" font-family="sans-serif" font-size="14" lengthAdjust="spacing" textLength="36" x="30" y="454.7129">Client</text><ellipse cx="51" cy="466.1797" fill="#E3E3E3" rx="8" ry="8" style="stroke:#181818;stroke-width:0.5;"/><path d="M51,474.1797 L51,501.1797 M38,482.1797 L64,482.1797 M51,501.1797 L38,516.1797 M51,501.1797 L64,516.1797 " fill="none" style="stroke:#181818;stroke-width:0.5;"/><rect fill="#E3E3E3" height="29.6406" rx="2.5" ry="2.5" style="stroke:#181818;stroke-width:0.5;" width="64" x="592" y="86.6406"/><text fill="#000000" font-family="sans-serif" font-size="14" lengthAdjust="spacing" textLength="50" x="599" y="106.3145">:System</text><rect fill="#E3E3E3" height="29.6406" rx="2.5" ry="2.5" style="stroke:#181818;stroke-width:0.5;" width="64" x="592" y="442.0391"/><text fill="#000000" font-family="sans-serif" font-size="14" lengthAdjust="spacing" textLength="50" x="599" y="461.7129">:System</text><rect fill="#FFFFFF" height="306.7578" style="stroke:#181818;stroke-width:1.0;" width="10" x="46" y="127.2813"/><rect fill="#FFFFFF" height="66.5703" style="stroke:#181818;stroke-width:1.0;" width="10" x="619" y="147.8047"/><rect fill="#FFFFFF" height="28.5234" style="stroke:#181818;stroke-width:1.0;" width="10" x="619" y="242.8984"/><rect fill="#FFFFFF" height="52.0469" style="stroke:#181818;stroke-width:1.0;" width="10" x="619" y="299.9453"/><polygon fill="#181818" points="607,143.8047,617,147.8047,607,151.8047,611,147.8047" style="stroke:#181818;stroke-width:1.0;"/><line style="stroke:#181818;stroke-width:1.0;" x1="56" x2="613" y1="147.8047" y2="147.8047"/><text fill="#000000" font-family="sans-serif" font-size="13" font-weight="bold" lengthAdjust="spacing" textLength="7" x="63" y="143.0498">1</text><text fill="#000000" font-family="sans-serif" font-size="13" lengthAdjust="spacing" textLength="217" x="74" y="143.0498">asks to schedule a visit to a property.</text><path d="M10,162.8047 L83,162.8047 L83,169.3281 L73,179.3281 L10,179.3281 L10,162.8047 " fill="#EEEEEE" style="stroke:#000000;stroke-width:1.5;"/><rect fill="none" height="263.2344" style="stroke:#000000;stroke-width:1.5;" width="666" x="10" y="162.8047"/><text fill="#000000" font-family="sans-serif" font-size="13" font-weight="bold" lengthAdjust="spacing" textLength="28" x="25" y="175.5732">loop</text><text fill="#000000" font-family="sans-serif" font-size="11" font-weight="bold" lengthAdjust="spacing" textLength="295" x="98" y="174.7627">[while Client wants to make a new schedule request]</text><polygon fill="#181818" points="67,210.375,57,214.375,67,218.375,63,214.375" style="stroke:#181818;stroke-width:1.0;"/><line style="stroke:#181818;stroke-width:1.0;stroke-dasharray:2.0,2.0;" x1="61" x2="623" y1="214.375" y2="214.375"/><text fill="#000000" font-family="sans-serif" font-size="13" font-weight="bold" lengthAdjust="spacing" textLength="7" x="73" y="202.3584">2</text><text fill="#000000" font-family="sans-serif" font-size="13" lengthAdjust="spacing" textLength="230" x="84" y="195.0967">shows list of available properties (sorted</text><text fill="#000000" font-family="sans-serif" font-size="13" lengthAdjust="spacing" textLength="247" x="84" y="209.6201">from the most recent entries to the oldest).</text><polygon fill="#181818" points="607,238.8984,617,242.8984,607,246.8984,611,242.8984" style="stroke:#181818;stroke-width:1.0;"/><line style="stroke:#181818;stroke-width:1.0;" x1="56" x2="613" y1="242.8984" y2="242.8984"/><text fill="#000000" font-family="sans-serif" font-size="13" font-weight="bold" lengthAdjust="spacing" textLength="7" x="63" y="238.1436">3</text><text fill="#000000" font-family="sans-serif" font-size="13" lengthAdjust="spacing" textLength="97" x="74" y="238.1436">selects property.</text><polygon fill="#181818" points="67,267.4219,57,271.4219,67,275.4219,63,271.4219" style="stroke:#181818;stroke-width:1.0;"/><line style="stroke:#181818;stroke-width:1.0;stroke-dasharray:2.0,2.0;" x1="61" x2="623" y1="271.4219" y2="271.4219"/><text fill="#000000" font-family="sans-serif" font-size="13" font-weight="bold" lengthAdjust="spacing" textLength="7" x="73" y="266.667">4</text><text fill="#000000" font-family="sans-serif" font-size="13" lengthAdjust="spacing" textLength="528" x="84" y="266.667">request data: date, time slot (newVisitStartDate and newVisitEndDate) for the property visit.</text><polygon fill="#181818" points="607,295.9453,617,299.9453,607,303.9453,611,299.9453" style="stroke:#181818;stroke-width:1.0;"/><line style="stroke:#181818;stroke-width:1.0;" x1="56" x2="613" y1="299.9453" y2="299.9453"/><text fill="#000000" font-family="sans-serif" font-size="13" font-weight="bold" lengthAdjust="spacing" textLength="7" x="63" y="295.1904">5</text><text fill="#000000" font-family="sans-serif" font-size="13" lengthAdjust="spacing" textLength="199" x="74" y="295.1904">Type request data (date, time slot)</text><path d="M20,314.9453 L81,314.9453 L81,321.4688 L71,331.4688 L20,331.4688 L20,314.9453 " fill="#EEEEEE" style="stroke:#000000;stroke-width:1.5;"/><rect fill="none" height="45.0469" style="stroke:#000000;stroke-width:1.5;" width="646" x="20" y="314.9453"/><text fill="#000000" font-family="sans-serif" font-size="13" font-weight="bold" lengthAdjust="spacing" textLength="16" x="35" y="327.7139">alt</text><text fill="#000000" font-family="sans-serif" font-size="11" font-weight="bold" lengthAdjust="spacing" textLength="132" x="96" y="326.9033">[if schedule is available]</text><polygon fill="#181818" points="67,347.9922,57,351.9922,67,355.9922,63,351.9922" style="stroke:#181818;stroke-width:1.0;"/><line style="stroke:#181818;stroke-width:1.0;stroke-dasharray:2.0,2.0;" x1="61" x2="623" y1="351.9922" y2="351.9922"/><text fill="#000000" font-family="sans-serif" font-size="13" font-weight="bold" lengthAdjust="spacing" textLength="7" x="73" y="347.2373">6</text><text fill="#000000" font-family="sans-serif" font-size="13" lengthAdjust="spacing" textLength="145" x="84" y="347.2373">Informs operation sucess</text><path d="M20,373.9922 L81,373.9922 L81,380.5156 L71,390.5156 L20,390.5156 L20,373.9922 " fill="#EEEEEE" style="stroke:#000000;stroke-width:1.5;"/><rect fill="none" height="45.0469" style="stroke:#000000;stroke-width:1.5;" width="646" x="20" y="373.9922"/><text fill="#000000" font-family="sans-serif" font-size="13" font-weight="bold" lengthAdjust="spacing" textLength="16" x="35" y="386.7607">alt</text><text fill="#000000" font-family="sans-serif" font-size="11" font-weight="bold" lengthAdjust="spacing" textLength="147" x="96" y="385.9502">[if schedule isn&#180;t available]</text><polygon fill="#181818" points="67,407.0391,57,411.0391,67,415.0391,63,411.0391" style="stroke:#181818;stroke-width:1.0;"/><line style="stroke:#181818;stroke-width:1.0;stroke-dasharray:2.0,2.0;" x1="61" x2="623" y1="411.0391" y2="411.0391"/><text fill="#000000" font-family="sans-serif" font-size="13" font-weight="bold" lengthAdjust="spacing" textLength="7" x="73" y="406.2842">7</text><text fill="#000000" font-family="sans-serif" font-size="13" lengthAdjust="spacing" textLength="166" x="84" y="406.2842">Informs overlapping schedule</text><!--SRC=[dLEzZjim3Dxz54Ic1BWSRcs6MouTEhljr8LdqJ4HMN95EaRUgqzmJtQK7SVj8K6B2h0XK-JtGyfovD1XmXRQ66BLfDWIQEgfaEj9XzKH3rJgsHCagXJ3mV-U80swE70uG8rUg2YKrLA_bKzFds0BvLcKMYZfPq-X8jWp7dBPkYptcwB0NcFesrTAjgyq9bYzUAQWAq21brxKDAN2g9GhxZ0eh7OJvfWnRSTQFg7IKbA0hVaBji-pafsL7GKqWbGDkTwq8fnOM7CCeKknewJdnn7WYZiJvQ2FiOEXOIkTnC9WmaRC5eyPBz2mmAViNNIglQZOcg2hk9qrCGu2daKXre0dP8-lLdeHmoImbfYK7Fm8jSq9j26RckNRJB82Ur9ECmtvA7fdb9l7YTJHJHytkoFaRShoBtsuxULY5nmgxlAR7a3PRfRugB2srdpFtIxLPhhFa1WSpD7FmUNO1cgx2jd8B6CQqN_u-Nhkw0zDiFwWQLFSjuXUWUjbbYpBTCQ4kstu4in2Av3bet8C87r58dSCv2W5TuSqlFtI3yH_OJrHyjXr-R-SSQuSooQlTm00]--></g></svg>