<?xml version="1.0" encoding="us-ascii" standalone="no"?><svg xmlns="http://www.w3.org/2000/svg" xmlns:xlink="http://www.w3.org/1999/xlink" contentStyleType="text/css" height="580px" preserveAspectRatio="none" style="width:682px;height:580px;background:#FFFFFF;" version="1.1" viewBox="0 0 682 580" width="682px" zoomAndPan="magnify"><defs/><g><text fill="#000000" font-family="sans-serif" font-size="14" font-weight="bold" lengthAdjust="spacing" textLength="284" x="200.5" y="27.6738">US009 - System Sequence Diagram (SSD)</text><rect fill="#FFFFFF" height="363.8047" style="stroke:#181818;stroke-width:1.0;" width="10" x="46" y="127.2813"/><rect fill="#FFFFFF" height="28.5234" style="stroke:#181818;stroke-width:1.0;" width="10" x="619" y="147.8047"/><rect fill="#FFFFFF" height="66.5703" style="stroke:#181818;stroke-width:1.0;" width="10" x="619" y="204.8516"/><rect fill="#FFFFFF" height="28.5234" style="stroke:#181818;stroke-width:1.0;" width="10" x="619" y="299.9453"/><rect fill="#FFFFFF" height="52.0469" style="stroke:#181818;stroke-width:1.0;" width="10" x="619" y="356.9922"/><rect fill="none" height="263.2344" style="stroke:#000000;stroke-width:1.5;" width="666" x="10" y="219.8516"/><rect fill="none" height="45.0469" style="stroke:#000000;stroke-width:1.5;" width="646" x="20" y="371.9922"/><rect fill="none" height="45.0469" style="stroke:#000000;stroke-width:1.5;" width="646" x="20" y="431.0391"/><line style="stroke:#181818;stroke-width:0.5;stroke-dasharray:5.0,5.0;" x1="51" x2="51" y1="117.2813" y2="500.0859"/><line style="stroke:#181818;stroke-width:0.5;stroke-dasharray:5.0,5.0;" x1="624" x2="624" y1="117.2813" y2="500.0859"/><text fill="#000000" font-family="sans-serif" font-size="14" lengthAdjust="spacing" textLength="36" x="30" y="114.3145">Client</text><ellipse cx="51" cy="50.1406" fill="#E3E3E3" rx="8" ry="8" style="stroke:#181818;stroke-width:0.5;"/><path d="M51,58.1406 L51,85.1406 M38,66.1406 L64,66.1406 M51,85.1406 L38,100.1406 M51,85.1406 L64,100.1406 " fill="none" style="stroke:#181818;stroke-width:0.5;"/><text fill="#000000" font-family="sans-serif" font-size="14" lengthAdjust="spacing" textLength="36" x="30" y="511.7598">Client</text><ellipse cx="51" cy="523.2266" fill="#E3E3E3" rx="8" ry="8" style="stroke:#181818;stroke-width:0.5;"/><path d="M51,531.2266 L51,558.2266 M38,539.2266 L64,539.2266 M51,558.2266 L38,573.2266 M51,558.2266 L64,573.2266 " fill="none" style="stroke:#181818;stroke-width:0.5;"/><rect fill="#E3E3E3" height="29.6406" rx="2.5" ry="2.5" style="stroke:#181818;stroke-width:0.5;" width="64" x="592" y="86.6406"/><text fill="#000000" font-family="sans-serif" font-size="14" lengthAdjust="spacing" textLength="50" x="599" y="106.3145">:System</text><rect fill="#E3E3E3" height="29.6406" rx="2.5" ry="2.5" style="stroke:#181818;stroke-width:0.5;" width="64" x="592" y="499.0859"/><text fill="#000000" font-family="sans-serif" font-size="14" lengthAdjust="spacing" textLength="50" x="599" y="518.7598">:System</text><rect fill="#FFFFFF" height="363.8047" style="stroke:#181818;stroke-width:1.0;" width="10" x="46" y="127.2813"/><rect fill="#FFFFFF" height="28.5234" style="stroke:#181818;stroke-width:1.0;" width="10" x="619" y="147.8047"/><rect fill="#FFFFFF" height="66.5703" style="stroke:#181818;stroke-width:1.0;" width="10" x="619" y="204.8516"/><rect fill="#FFFFFF" height="28.5234" style="stroke:#181818;stroke-width:1.0;" width="10" x="619" y="299.9453"/><rect fill="#FFFFFF" height="52.0469" style="stroke:#181818;stroke-width:1.0;" width="10" x="619" y="356.9922"/><polygon fill="#181818" points="607,143.8047,617,147.8047,607,151.8047,611,147.8047" style="stroke:#181818;stroke-width:1.0;"/><line style="stroke:#181818;stroke-width:1.0;" x1="56" x2="613" y1="147.8047" y2="147.8047"/><text fill="#000000" font-family="sans-serif" font-size="13" font-weight="bold" lengthAdjust="spacing" textLength="7" x="63" y="143.0498">1</text><text fill="#000000" font-family="sans-serif" font-size="13" lengthAdjust="spacing" textLength="217" x="74" y="143.0498">asks to schedule a visit to a property.</text><polygon fill="#181818" points="67,172.3281,57,176.3281,67,180.3281,63,176.3281" style="stroke:#181818;stroke-width:1.0;"/><line style="stroke:#181818;stroke-width:1.0;stroke-dasharray:2.0,2.0;" x1="61" x2="623" y1="176.3281" y2="176.3281"/><text fill="#000000" font-family="sans-serif" font-size="13" font-weight="bold" lengthAdjust="spacing" textLength="7" x="73" y="171.5732">2</text><text fill="#000000" font-family="sans-serif" font-size="13" lengthAdjust="spacing" textLength="283" x="84" y="171.5732">Request data (name and phone number of Client)</text><polygon fill="#181818" points="607,200.8516,617,204.8516,607,208.8516,611,204.8516" style="stroke:#181818;stroke-width:1.0;"/><line style="stroke:#181818;stroke-width:1.0;" x1="56" x2="613" y1="204.8516" y2="204.8516"/><text fill="#000000" font-family="sans-serif" font-size="13" font-weight="bold" lengthAdjust="spacing" textLength="7" x="63" y="200.0967">3</text><text fill="#000000" font-family="sans-serif" font-size="13" lengthAdjust="spacing" textLength="104" x="74" y="200.0967">Input request data</text><path d="M10,219.8516 L83,219.8516 L83,226.375 L73,236.375 L10,236.375 L10,219.8516 " fill="#EEEEEE" style="stroke:#000000;stroke-width:1.5;"/><rect fill="none" height="263.2344" style="stroke:#000000;stroke-width:1.5;" width="666" x="10" y="219.8516"/><text fill="#000000" font-family="sans-serif" font-size="13" font-weight="bold" lengthAdjust="spacing" textLength="28" x="25" y="232.6201">loop</text><text fill="#000000" font-family="sans-serif" font-size="11" font-weight="bold" lengthAdjust="spacing" textLength="295" x="98" y="231.8096">[while Client wants to make a new schedule request]</text><polygon fill="#181818" points="67,267.4219,57,271.4219,67,275.4219,63,271.4219" style="stroke:#181818;stroke-width:1.0;"/><line style="stroke:#181818;stroke-width:1.0;stroke-dasharray:2.0,2.0;" x1="61" x2="623" y1="271.4219" y2="271.4219"/><text fill="#000000" font-family="sans-serif" font-size="13" font-weight="bold" lengthAdjust="spacing" textLength="7" x="73" y="259.4053">4</text><text fill="#000000" font-family="sans-serif" font-size="13" lengthAdjust="spacing" textLength="230" x="84" y="252.1436">shows list of available properties (sorted</text><text fill="#000000" font-family="sans-serif" font-size="13" lengthAdjust="spacing" textLength="247" x="84" y="266.667">from the most recent entries to the oldest).</text><polygon fill="#181818" points="607,295.9453,617,299.9453,607,303.9453,611,299.9453" style="stroke:#181818;stroke-width:1.0;"/><line style="stroke:#181818;stroke-width:1.0;" x1="56" x2="613" y1="299.9453" y2="299.9453"/><text fill="#000000" font-family="sans-serif" font-size="13" font-weight="bold" lengthAdjust="spacing" textLength="7" x="63" y="295.1904">5</text><text fill="#000000" font-family="sans-serif" font-size="13" lengthAdjust="spacing" textLength="97" x="74" y="295.1904">selects property.</text><polygon fill="#181818" points="67,324.4688,57,328.4688,67,332.4688,63,328.4688" style="stroke:#181818;stroke-width:1.0;"/><line style="stroke:#181818;stroke-width:1.0;stroke-dasharray:2.0,2.0;" x1="61" x2="623" y1="328.4688" y2="328.4688"/><text fill="#000000" font-family="sans-serif" font-size="13" font-weight="bold" lengthAdjust="spacing" textLength="7" x="73" y="323.7139">6</text><text fill="#000000" font-family="sans-serif" font-size="13" lengthAdjust="spacing" textLength="528" x="84" y="323.7139">request data: date, time slot (newVisitStartDate and newVisitEndDate) for the property visit.</text><polygon fill="#181818" points="607,352.9922,617,356.9922,607,360.9922,611,356.9922" style="stroke:#181818;stroke-width:1.0;"/><line style="stroke:#181818;stroke-width:1.0;" x1="56" x2="613" y1="356.9922" y2="356.9922"/><text fill="#000000" font-family="sans-serif" font-size="13" font-weight="bold" lengthAdjust="spacing" textLength="7" x="63" y="352.2373">7</text><text fill="#000000" font-family="sans-serif" font-size="13" lengthAdjust="spacing" textLength="199" x="74" y="352.2373">Type request data (date, time slot)</text><path d="M20,371.9922 L81,371.9922 L81,378.5156 L71,388.5156 L20,388.5156 L20,371.9922 " fill="#EEEEEE" style="stroke:#000000;stroke-width:1.5;"/><rect fill="none" height="45.0469" style="stroke:#000000;stroke-width:1.5;" width="646" x="20" y="371.9922"/><text fill="#000000" font-family="sans-serif" font-size="13" font-weight="bold" lengthAdjust="spacing" textLength="16" x="35" y="384.7607">alt</text><text fill="#000000" font-family="sans-serif" font-size="11" font-weight="bold" lengthAdjust="spacing" textLength="132" x="96" y="383.9502">[if schedule is available]</text><polygon fill="#181818" points="67,405.0391,57,409.0391,67,413.0391,63,409.0391" style="stroke:#181818;stroke-width:1.0;"/><line style="stroke:#181818;stroke-width:1.0;stroke-dasharray:2.0,2.0;" x1="61" x2="623" y1="409.0391" y2="409.0391"/><text fill="#000000" font-family="sans-serif" font-size="13" font-weight="bold" lengthAdjust="spacing" textLength="7" x="73" y="404.2842">8</text><text fill="#000000" font-family="sans-serif" font-size="13" lengthAdjust="spacing" textLength="145" x="84" y="404.2842">Informs operation sucess</text><path d="M20,431.0391 L81,431.0391 L81,437.5625 L71,447.5625 L20,447.5625 L20,431.0391 " fill="#EEEEEE" style="stroke:#000000;stroke-width:1.5;"/><rect fill="none" height="45.0469" style="stroke:#000000;stroke-width:1.5;" width="646" x="20" y="431.0391"/><text fill="#000000" font-family="sans-serif" font-size="13" font-weight="bold" lengthAdjust="spacing" textLength="16" x="35" y="443.8076">alt</text><text fill="#000000" font-family="sans-serif" font-size="11" font-weight="bold" lengthAdjust="spacing" textLength="147" x="96" y="442.9971">[if schedule isn&#180;t available]</text><polygon fill="#181818" points="67,464.0859,57,468.0859,67,472.0859,63,468.0859" style="stroke:#181818;stroke-width:1.0;"/><line style="stroke:#181818;stroke-width:1.0;stroke-dasharray:2.0,2.0;" x1="61" x2="623" y1="468.0859" y2="468.0859"/><text fill="#000000" font-family="sans-serif" font-size="13" font-weight="bold" lengthAdjust="spacing" textLength="7" x="73" y="463.3311">9</text><text fill="#000000" font-family="sans-serif" font-size="13" lengthAdjust="spacing" textLength="166" x="84" y="463.3311">Informs overlapping schedule</text><!--SRC=[dLJDZfj03Bxp55PEGMfMUsqElMnws6jfU-h5ovWmoZ0p7PkWl5UVe4zM3uImNIsjTf50Wx6_7zk2JzP7JDX15toesnGw0aaz5Npx4h4-uP4gkJY2HBMWFxhd2ToY2OFrHsZGCHM5MD7KRzNz_KVOGNLXeGug-jcJhmaE5e-vR5jLXx8ei9VW- -w9afvh2Gas3ywIbmqWmqFFeffIeLHYQnlH2sps4-QOCHt7Mdj6eQMa0BtcDzXzcfNijUp4806uRidqgXNXRDbAZY74528bkToD03VScIW7hqWx1RqHxE5BjiW21WLXwr5xYTv0R8Cdc3n2Q62oLuv0Xbx5VrNreu-zw0GMadM1BeG8GslLsqG7WtPkDDtXAHlsD2p-hw3_CiTj61YSLMhrW6Uq3f-qzDejImnR3ad8m0_Vw2A1jAHhnLbodHNedNAQQiYVWZDAMTuLRsu4azCrvFSFwdaFz_b97q2iZejT49qS3T_pEbIYItV8a7cCS_IpDpbMGgExcetCCgOTUeUVhvT8Vsc2xGjDPR5k4Ps0RPPPMbwcCoQijk7HguME8Sj7iS43zpKnhnZ8KV9cXTJ__YKlYF_3UgRaCCRyuvXnRXpB8Lz_0000]--></g></svg>