<?xml version="1.0" encoding="us-ascii" standalone="no"?><svg xmlns="http://www.w3.org/2000/svg" xmlns:xlink="http://www.w3.org/1999/xlink" contentStyleType="text/css" height="489.5px" preserveAspectRatio="none" style="width:675px;height:489px;background:#FFFFFF;" version="1.1" viewBox="0 0 675 489" width="675.4px" zoomAndPan="magnify"><defs/><g><text fill="#000000" font-family="sans-serif" font-size="15.4" font-weight="bold" lengthAdjust="spacing" textLength="312.4" x="180.4" y="30.4412">US018 - System Sequence Diagram (SSD)</text><rect fill="#FFFFFF" height="252.1063" style="stroke:#181818;stroke-width:1.1;" width="11" x="52.8" y="140.0094"/><rect fill="#FFFFFF" height="31.3758" style="stroke:#181818;stroke-width:1.1;" width="11" x="630.3" y="162.5852"/><rect fill="#FFFFFF" height="31.3758" style="stroke:#181818;stroke-width:1.1;" width="11" x="630.3" y="225.3367"/><rect fill="#FFFFFF" height="31.3758" style="stroke:#181818;stroke-width:1.1;" width="11" x="630.3" y="288.0883"/><rect fill="#FFFFFF" height="41.2758" style="stroke:#181818;stroke-width:1.1;" width="11" x="630.3" y="350.8398"/><line style="stroke:#181818;stroke-width:0.55;stroke-dasharray:5.0,5.0;" x1="58.3" x2="58.3" y1="129.0094" y2="402.0156"/><line style="stroke:#181818;stroke-width:0.55;stroke-dasharray:5.0,5.0;" x1="635.8" x2="635.8" y1="129.0094" y2="402.0156"/><text fill="#000000" font-family="sans-serif" font-size="15.4" lengthAdjust="spacing" textLength="99" x="5.5" y="125.7459">StoreManager</text><ellipse cx="58.3" cy="55.1547" fill="#E3E3E3" rx="8.8" ry="8.8" style="stroke:#181818;stroke-width:0.55;"/><path d="M58.3,63.9547 L58.3,93.6547 M44,72.7547 L72.6,72.7547 M58.3,93.6547 L44,110.1547 M58.3,93.6547 L72.6,110.1547 " fill="none" style="stroke:#181818;stroke-width:0.55;"/><text fill="#000000" font-family="sans-serif" font-size="15.4" lengthAdjust="spacing" textLength="99" x="5.5" y="414.8568">StoreManager</text><ellipse cx="58.3" cy="427.4703" fill="#E3E3E3" rx="8.8" ry="8.8" style="stroke:#181818;stroke-width:0.55;"/><path d="M58.3,436.2703 L58.3,465.9703 M44,445.0703 L72.6,445.0703 M58.3,465.9703 L44,482.4703 M58.3,465.9703 L72.6,482.4703 " fill="none" style="stroke:#181818;stroke-width:0.55;"/><rect fill="#E3E3E3" height="32.6047" rx="2.75" ry="2.75" style="stroke:#181818;stroke-width:0.55;" width="66" x="602.8" y="95.3047"/><text fill="#000000" font-family="sans-serif" font-size="15.4" lengthAdjust="spacing" textLength="50.6" x="610.5" y="116.9459">System</text><rect fill="#E3E3E3" height="32.6047" rx="2.75" ry="2.75" style="stroke:#181818;stroke-width:0.55;" width="66" x="602.8" y="400.9156"/><text fill="#000000" font-family="sans-serif" font-size="15.4" lengthAdjust="spacing" textLength="50.6" x="610.5" y="422.5568">System</text><rect fill="#FFFFFF" height="252.1063" style="stroke:#181818;stroke-width:1.1;" width="11" x="52.8" y="140.0094"/><rect fill="#FFFFFF" height="31.3758" style="stroke:#181818;stroke-width:1.1;" width="11" x="630.3" y="162.5852"/><rect fill="#FFFFFF" height="31.3758" style="stroke:#181818;stroke-width:1.1;" width="11" x="630.3" y="225.3367"/><rect fill="#FFFFFF" height="31.3758" style="stroke:#181818;stroke-width:1.1;" width="11" x="630.3" y="288.0883"/><rect fill="#FFFFFF" height="41.2758" style="stroke:#181818;stroke-width:1.1;" width="11" x="630.3" y="350.8398"/><polygon fill="#181818" points="617.1,158.1852,628.1,162.5852,617.1,166.9852,621.5,162.5852" style="stroke:#181818;stroke-width:1.1;"/><line style="stroke:#181818;stroke-width:1.1;" x1="63.8" x2="623.7" y1="162.5852" y2="162.5852"/><text fill="#000000" font-family="sans-serif" font-size="14.3" font-weight="bold" lengthAdjust="spacing" textLength="7.7" x="71.5" y="157.3548">1</text><text fill="#000000" font-family="sans-serif" font-size="14.3" lengthAdjust="spacing" textLength="346.5" x="83.6" y="157.3548">asks to analyse the deals (on houses and apartments)</text><polygon fill="#181818" points="75.9,189.5609,64.9,193.9609,75.9,198.3609,71.5,193.9609" style="stroke:#181818;stroke-width:1.1;"/><line style="stroke:#181818;stroke-width:1.1;stroke-dasharray:2.0,2.0;" x1="69.3" x2="634.7" y1="193.9609" y2="193.9609"/><text fill="#000000" font-family="sans-serif" font-size="14.3" font-weight="bold" lengthAdjust="spacing" textLength="7.7" x="82.5" y="188.7306">2</text><text fill="#000000" font-family="sans-serif" font-size="14.3" lengthAdjust="spacing" textLength="246.4" x="94.6" y="188.7306">requests the path of the information file</text><polygon fill="#181818" points="617.1,220.9367,628.1,225.3367,617.1,229.7367,621.5,225.3367" style="stroke:#181818;stroke-width:1.1;"/><line style="stroke:#181818;stroke-width:1.1;" x1="63.8" x2="623.7" y1="225.3367" y2="225.3367"/><text fill="#000000" font-family="sans-serif" font-size="14.3" font-weight="bold" lengthAdjust="spacing" textLength="7.7" x="71.5" y="220.1063">3</text><text fill="#000000" font-family="sans-serif" font-size="14.3" lengthAdjust="spacing" textLength="234.3" x="83.6" y="220.1063">inserts the path of the information file</text><polygon fill="#181818" points="75.9,252.3125,64.9,256.7125,75.9,261.1125,71.5,256.7125" style="stroke:#181818;stroke-width:1.1;"/><line style="stroke:#181818;stroke-width:1.1;stroke-dasharray:2.0,2.0;" x1="69.3" x2="634.7" y1="256.7125" y2="256.7125"/><text fill="#000000" font-family="sans-serif" font-size="14.3" font-weight="bold" lengthAdjust="spacing" textLength="7.7" x="82.5" y="251.4821">4</text><text fill="#000000" font-family="sans-serif" font-size="14.3" lengthAdjust="spacing" textLength="528" x="94.6" y="251.4821">show the regression models and request to select one (simple-linear or multi-linear)</text><polygon fill="#181818" points="617.1,283.6883,628.1,288.0883,617.1,292.4883,621.5,288.0883" style="stroke:#181818;stroke-width:1.1;"/><line style="stroke:#181818;stroke-width:1.1;" x1="63.8" x2="623.7" y1="288.0883" y2="288.0883"/><text fill="#000000" font-family="sans-serif" font-size="14.3" font-weight="bold" lengthAdjust="spacing" textLength="7.7" x="71.5" y="282.8579">5</text><text fill="#000000" font-family="sans-serif" font-size="14.3" lengthAdjust="spacing" textLength="355.3" x="83.6" y="282.8579">selects a regression model (simple-linear or multi-linear)</text><polygon fill="#181818" points="75.9,315.0641,64.9,319.4641,75.9,323.8641,71.5,319.4641" style="stroke:#181818;stroke-width:1.1;"/><line style="stroke:#181818;stroke-width:1.1;stroke-dasharray:2.0,2.0;" x1="69.3" x2="634.7" y1="319.4641" y2="319.4641"/><text fill="#000000" font-family="sans-serif" font-size="14.3" font-weight="bold" lengthAdjust="spacing" textLength="7.7" x="82.5" y="314.2337">6</text><text fill="#000000" font-family="sans-serif" font-size="14.3" lengthAdjust="spacing" textLength="471.9" x="94.6" y="314.2337">asks for the parameters to be used (eg. area, number of bathrooms, etc...)</text><polygon fill="#181818" points="617.1,346.4398,628.1,350.8398,617.1,355.2398,621.5,350.8398" style="stroke:#181818;stroke-width:1.1;"/><line style="stroke:#181818;stroke-width:1.1;" x1="63.8" x2="623.7" y1="350.8398" y2="350.8398"/><text fill="#000000" font-family="sans-serif" font-size="14.3" font-weight="bold" lengthAdjust="spacing" textLength="7.7" x="71.5" y="345.6095">7</text><text fill="#000000" font-family="sans-serif" font-size="14.3" lengthAdjust="spacing" textLength="464.2" x="83.6" y="345.6095">inserts the parameters to be used (eg. area, number of bathrooms, etc...)</text><polygon fill="#181818" points="75.9,377.8156,64.9,382.2156,75.9,386.6156,71.5,382.2156" style="stroke:#181818;stroke-width:1.1;"/><line style="stroke:#181818;stroke-width:1.1;stroke-dasharray:2.0,2.0;" x1="69.3" x2="629.2" y1="382.2156" y2="382.2156"/><text fill="#000000" font-family="sans-serif" font-size="14.3" font-weight="bold" lengthAdjust="spacing" textLength="7.7" x="82.5" y="376.9853">8</text><text fill="#000000" font-family="sans-serif" font-size="14.3" lengthAdjust="spacing" textLength="118.8" x="94.6" y="376.9853">displays prediction</text><!--SRC=[fLBBJiD03BpdAtnCfQQ26qA84rTE4H_W9awowZw2xL3bxt7IgBG2gXRs4Et6tXdFxCZEnHuP0uGKKzLn2WJA0sLohFHOxR2bKaTFm5GfnjQVDaY7TTgxs4A3NYZBrAcrlfLtzmzGG3cAKe2ItWUA5S6BmtQwbfVboohBSD0KXx0bjdsbYQ6q3xrYD5BEZ49TvNgCkY3DRUu3bSuxCx1r-WUAv-NA8w3i13I1LVmefh4ZgCd6XJn5wD8W95Qi0IV2G55bDGD-SItaiAmpfgUYE5Bn95HKPeuUjOFKp7iNcyG1rHbZuyp22SQ6-8dXDnqk2l6rsBVFBbtQptXCBPF811TIJVvWpY9jCbB8MnGWHO9SNEWz5Tv5GWPxmJ1uTSjvzHUP1tGZ_JR8LMot2v_pOHOknbe-IOddo6m9B1qrvDHk09bm3OUyJjvlxGqufI1h8Aqscyr5kTU_x7y7kEZ2HITg9xt7KQ1dgbqr9UeJ]--></g></svg>