<?xml version="1.0" encoding="us-ascii" standalone="no"?><svg xmlns="http://www.w3.org/2000/svg" xmlns:xlink="http://www.w3.org/1999/xlink" contentStyleType="text/css" height="1865px" preserveAspectRatio="none" style="width:732px;height:1865px;background:#FFFFFF;" version="1.1" viewBox="0 0 732 1865" width="732px" zoomAndPan="magnify"><defs/><g><!--cluster RealEstate USA App--><g id="cluster_RealEstate USA App"><rect fill="none" height="1852" rx="2.5" ry="2.5" style="stroke:#181818;stroke-width:1.0;" width="543" x="183" y="7"/><text fill="#000000" font-family="sans-serif" font-size="14" font-weight="bold" lengthAdjust="spacing" textLength="138" x="385.5" y="21.6738">RealEstate USA App</text></g><g id="elem_UC1"><ellipse cx="454.6078" cy="66.2216" fill="#F1F1F1" rx="114.1078" ry="25.2216" style="stroke:#181818;stroke-width:0.5;"/><text fill="#000000" font-family="sans-serif" font-size="14" lengthAdjust="spacing" textLength="196" x="356.6078" y="69.0751">US1 - Display Listed Properties</text></g><g id="elem_UC7"><ellipse cx="454.6949" cy="150.139" fill="#F1F1F1" rx="106.1949" ry="23.639" style="stroke:#181818;stroke-width:0.5;"/><text fill="#000000" font-family="sans-serif" font-size="14" lengthAdjust="spacing" textLength="179" x="365.1949" y="152.9925">US7 - Register in the system</text></g><g id="elem_UC2"><ellipse cx="454.6944" cy="245.0389" fill="#F1F1F1" rx="168.1944" ry="36.0389" style="stroke:#181818;stroke-width:0.5;"/><text fill="#000000" font-family="sans-serif" font-size="14" lengthAdjust="spacing" textLength="309" x="300.1944" y="247.8924">US2 - Publish the Announcements on the System</text></g><g id="elem_UC4"><ellipse cx="454.6472" cy="1165.1294" fill="#F1F1F1" rx="91.1472" ry="20.6294" style="stroke:#181818;stroke-width:0.5;"/><text fill="#000000" font-family="sans-serif" font-size="14" lengthAdjust="spacing" textLength="146" x="381.6472" y="1167.983">US4 - Submit a request</text></g><g id="elem_UC5"><ellipse cx="454.4689" cy="1005.0938" fill="#F1F1F1" rx="88.4689" ry="20.0938" style="stroke:#181818;stroke-width:0.5;"/><text fill="#000000" font-family="sans-serif" font-size="14" lengthAdjust="spacing" textLength="140" x="384.4689" y="1007.9473">US5 - Register a store</text></g><g id="elem_UC8"><ellipse cx="454.3886" cy="354.7777" fill="#F1F1F1" rx="179.3886" ry="38.2777" style="stroke:#181818;stroke-width:0.5;"/><text fill="#000000" font-family="sans-serif" font-size="14" lengthAdjust="spacing" textLength="332" x="288.3886" y="357.6312">US8 - See the list of property announcement request</text></g><g id="elem_UC9"><ellipse cx="454.6981" cy="1659.8396" fill="#F1F1F1" rx="187.1981" ry="39.8396" style="stroke:#181818;stroke-width:0.5;"/><text fill="#000000" font-family="sans-serif" font-size="14" lengthAdjust="spacing" textLength="348" x="280.6981" y="1662.6931">US9 - Leave a message to the agent to schedule a visit</text></g><g id="elem_UC10"><ellipse cx="454.3258" cy="1550.1652" fill="#F1F1F1" rx="163.8258" ry="35.1652" style="stroke:#181818;stroke-width:0.5;"/><text fill="#000000" font-family="sans-serif" font-size="14" lengthAdjust="spacing" textLength="300" x="304.3258" y="1553.0187">US10 - Place an order to purchase the property</text></g><g id="elem_UC12"><ellipse cx="454.5617" cy="916.2123" fill="#F1F1F1" rx="156.5617" ry="33.7123" style="stroke:#181818;stroke-width:0.5;"/><text fill="#000000" font-family="sans-serif" font-size="14" lengthAdjust="spacing" textLength="285" x="312.0617" y="919.0658">US12 - Import information from legacy system</text></g><g id="elem_UC3"><ellipse cx="454.3387" cy="1085.0677" fill="#F1F1F1" rx="110.8387" ry="24.5677" style="stroke:#181818;stroke-width:0.5;"/><text fill="#000000" font-family="sans-serif" font-size="14" lengthAdjust="spacing" textLength="189" x="359.8387" y="1087.9213">US3 - Register the Employees</text></g><g id="elem_UC11"><ellipse cx="454.3612" cy="464.0722" fill="#F1F1F1" rx="163.3612" ry="35.0722" style="stroke:#181818;stroke-width:0.5;"/><text fill="#000000" font-family="sans-serif" font-size="14" lengthAdjust="spacing" textLength="264" x="320.3612" y="459.1055">US11 - List real estate purchase orders to</text><text fill="#000000" font-family="sans-serif" font-size="14" lengthAdjust="spacing" textLength="221" x="343.8612" y="474.7461">accept or decline a purchase order</text></g><g id="elem_UC13"><ellipse cx="454.3108" cy="1255.7622" fill="#F1F1F1" rx="164.3108" ry="35.2622" style="stroke:#181818;stroke-width:0.5;"/><text fill="#000000" font-family="sans-serif" font-size="14" lengthAdjust="spacing" textLength="301" x="303.8108" y="1258.6157">US13 - List all employees working in every store</text></g><g id="elem_UC15"><ellipse cx="454.5782" cy="568.1156" fill="#F1F1F1" rx="156.0782" ry="33.6156" style="stroke:#181818;stroke-width:0.5;"/><text fill="#000000" font-family="sans-serif" font-size="14" lengthAdjust="spacing" textLength="284" x="312.5782" y="570.9692">US15 - list all booking requests for properties</text></g><g id="elem_UC16"><ellipse cx="454.6521" cy="672.8304" fill="#F1F1F1" rx="169.6521" ry="36.3304" style="stroke:#181818;stroke-width:0.5;"/><text fill="#000000" font-family="sans-serif" font-size="14" lengthAdjust="spacing" textLength="312" x="298.6521" y="675.6839">US16 - respond to the user that schedule the visit</text></g><g id="elem_UC17"><ellipse cx="454.5169" cy="1348.8034" fill="#F1F1F1" rx="97.0169" ry="21.8034" style="stroke:#181818;stroke-width:0.5;"/><text fill="#000000" font-family="sans-serif" font-size="14" lengthAdjust="spacing" textLength="159" x="375.0169" y="1351.6569">US17 - list all deals made</text></g><g id="elem_UC18"><ellipse cx="454.5454" cy="1789.0091" fill="#F1F1F1" rx="255.5454" ry="53.5091" style="stroke:#181818;stroke-width:0.5;"/><text fill="#000000" font-family="sans-serif" font-size="14" lengthAdjust="spacing" textLength="487" x="211.0454" y="1791.8626">US18 - analyse deals (compare property sale values with the forecast values)</text></g><g id="elem_UC19"><ellipse cx="454.6382" cy="1442.9276" fill="#F1F1F1" rx="170.1382" ry="36.4276" style="stroke:#181818;stroke-width:0.5;"/><text fill="#000000" font-family="sans-serif" font-size="14" lengthAdjust="spacing" textLength="313" x="298.1382" y="1445.7812">US19 - divide the set of all stores into two subsets</text></g><g id="elem_UC20"><ellipse cx="454.6841" cy="795.8368" fill="#F1F1F1" rx="244.6841" ry="51.3368" style="stroke:#181818;stroke-width:0.5;"/><text fill="#000000" font-family="sans-serif" font-size="14" lengthAdjust="spacing" textLength="465" x="222.1841" y="798.6903">US20 - read the response for the appointment request (accept or reject it)</text></g><!--entity unUser--><g id="elem_unUser"><ellipse cx="72.5" cy="78.5" fill="#808080" rx="8" ry="8" style="stroke:#181818;stroke-width:0.5;"/><path d="M72.5,86.5 L72.5,113.5 M59.5,94.5 L85.5,94.5 M72.5,113.5 L59.5,128.5 M72.5,113.5 L85.5,128.5 " fill="none" style="stroke:#181818;stroke-width:0.5;"/><text fill="#000000" font-family="sans-serif" font-size="14" lengthAdjust="spacing" textLength="113" x="16" y="142.6738">Unregistered user</text></g><!--entity Agent--><g id="elem_Agent"><ellipse cx="72.5" cy="486.5" fill="#808080" rx="8" ry="8" style="stroke:#181818;stroke-width:0.5;"/><path d="M72.5,494.5 L72.5,521.5 M59.5,502.5 L85.5,502.5 M72.5,521.5 L59.5,536.5 M72.5,521.5 L85.5,536.5 " fill="none" style="stroke:#181818;stroke-width:0.5;"/><text fill="#000000" font-family="sans-serif" font-size="14" lengthAdjust="spacing" textLength="37" x="54" y="550.6738">Agent</text></g><!--entity Admin--><g id="elem_Admin"><ellipse cx="72.5" cy="975.5" fill="#808080" rx="8" ry="8" style="stroke:#181818;stroke-width:0.5;"/><path d="M72.5,983.5 L72.5,1010.5 M59.5,991.5 L85.5,991.5 M72.5,1010.5 L59.5,1025.5 M72.5,1010.5 L85.5,1025.5 " fill="none" style="stroke:#181818;stroke-width:0.5;"/><text fill="#000000" font-family="sans-serif" font-size="14" lengthAdjust="spacing" textLength="133" x="6" y="1039.6738">System Administrator</text></g><!--entity Owner--><g id="elem_Owner"><ellipse cx="72.5" cy="1135.5" fill="#808080" rx="8" ry="8" style="stroke:#181818;stroke-width:0.5;"/><path d="M72.5,1143.5 L72.5,1170.5 M59.5,1151.5 L85.5,1151.5 M72.5,1170.5 L59.5,1185.5 M72.5,1170.5 L85.5,1185.5 " fill="none" style="stroke:#181818;stroke-width:0.5;"/><text fill="#000000" font-family="sans-serif" font-size="14" lengthAdjust="spacing" textLength="41" x="52" y="1199.6738">Owner</text></g><!--entity NM--><g id="elem_NM"><ellipse cx="72.5" cy="1319.5" fill="#808080" rx="8" ry="8" style="stroke:#181818;stroke-width:0.5;"/><path d="M72.5,1327.5 L72.5,1354.5 M59.5,1335.5 L85.5,1335.5 M72.5,1354.5 L59.5,1369.5 M72.5,1354.5 L85.5,1369.5 " fill="none" style="stroke:#181818;stroke-width:0.5;"/><text fill="#000000" font-family="sans-serif" font-size="14" lengthAdjust="spacing" textLength="110" x="17.5" y="1383.6738">Network Manager</text></g><!--entity C--><g id="elem_C"><ellipse cx="72.5" cy="1575.5" fill="#808080" rx="8" ry="8" style="stroke:#181818;stroke-width:0.5;"/><path d="M72.5,1583.5 L72.5,1610.5 M59.5,1591.5 L85.5,1591.5 M72.5,1610.5 L59.5,1625.5 M72.5,1610.5 L85.5,1625.5 " fill="none" style="stroke:#181818;stroke-width:0.5;"/><text fill="#000000" font-family="sans-serif" font-size="14" lengthAdjust="spacing" textLength="36" x="54.5" y="1639.6738">Client</text></g><!--entity SM--><g id="elem_SM"><ellipse cx="72.5" cy="1759.5" fill="#808080" rx="8" ry="8" style="stroke:#181818;stroke-width:0.5;"/><path d="M72.5,1767.5 L72.5,1794.5 M59.5,1775.5 L85.5,1775.5 M72.5,1794.5 L59.5,1809.5 M72.5,1794.5 L85.5,1809.5 " fill="none" style="stroke:#181818;stroke-width:0.5;"/><text fill="#000000" font-family="sans-serif" font-size="14" lengthAdjust="spacing" textLength="94" x="25.5" y="1823.6738">Store Manager</text></g><!--link unUser to UC1--><g id="link_unUser_UC1"><path d="M129.16,101.85 C187.61,95.39 280.77,85.09 352.28,77.19 " fill="none" id="unUser-UC1" style="stroke:#181818;stroke-width:1.0;"/></g><!--link Agent to UC2--><g id="link_Agent_UC2"><path d="M80.41,477.59 C91.4,428.25 117.77,343.64 175,299 C207.43,273.71 248.33,259.17 288.73,251.06 " fill="none" id="Agent-UC2" style="stroke:#181818;stroke-width:1.0;"/></g><!--link Admin to UC5--><g id="link_Admin_UC5"><path d="M139.26,1005 C201.92,1005 296.7,1005 365.78,1005 " fill="none" id="Admin-UC5" style="stroke:#181818;stroke-width:1.0;"/></g><!--link Admin to UC3--><g id="link_Admin_UC3"><path d="M139.25,1031.09 C151.03,1035.15 163.28,1038.99 175,1042 C233.52,1057.03 300.39,1067.56 353.94,1074.44 " fill="none" id="Admin-UC3" style="stroke:#181818;stroke-width:1.0;"/></g><!--link Owner to UC4--><g id="link_Owner_UC4"><path d="M93.13,1165 C142.37,1165 273.6,1165 363.34,1165 " fill="none" id="Owner-UC4" style="stroke:#181818;stroke-width:1.0;"/></g><!--link unUser to UC7--><g id="link_unUser_UC7"><path d="M129.16,114.15 C189.56,120.83 287.05,131.6 359.4,139.6 " fill="none" id="unUser-UC7" style="stroke:#181818;stroke-width:1.0;"/></g><!--link NM to UC13--><g id="link_NM_UC13"><path d="M127.63,1325.5 C142.76,1319.53 159.35,1313.53 175,1309 C221.33,1295.59 273,1284.68 319.14,1276.32 " fill="none" id="NM-UC13" style="stroke:#181818;stroke-width:1.0;"/></g><!--link NM to UC17--><g id="link_NM_UC17"><path d="M127.54,1349 C187.27,1349 284.65,1349 357.44,1349 " fill="none" id="NM-UC17" style="stroke:#181818;stroke-width:1.0;"/></g><!--link NM to UC19--><g id="link_NM_UC19"><path d="M127.7,1371.8 C142.83,1377.62 159.4,1383.5 175,1388 C221.05,1401.29 272.3,1412.42 318.16,1421.11 " fill="none" id="NM-UC19" style="stroke:#181818;stroke-width:1.0;"/></g><!--link Agent to UC11--><g id="link_Agent_UC11"><path d="M91.07,513.6 C130.91,508.14 231.31,494.4 316.36,482.77 " fill="none" id="Agent-UC11" style="stroke:#181818;stroke-width:1.0;"/></g><!--link Agent to UC8--><g id="link_Agent_UC8"><path d="M91.28,490.07 C109.43,465.71 139.85,430.22 175,411 C210.16,391.78 251.05,379.11 290.5,370.78 " fill="none" id="Agent-UC8" style="stroke:#181818;stroke-width:1.0;"/></g><!--link Agent to UC15--><g id="link_Agent_UC15"><path d="M91.07,518.4 C131.86,523.99 236.13,538.25 322.4,550.06 " fill="none" id="Agent-UC15" style="stroke:#181818;stroke-width:1.0;"/></g><!--link Agent to UC16--><g id="link_Agent_UC16"><path d="M91.02,541.03 C109.19,564.97 139.82,600.14 175,619 C212.11,638.9 255.5,651.53 296.83,659.52 " fill="none" id="Agent-UC16" style="stroke:#181818;stroke-width:1.0;"/></g><!--link Agent to UC20--><g id="link_Agent_UC20"><path d="M81.38,554.17 C93.26,601.87 120.43,682.64 175,727 C196.74,744.68 222.37,757.92 249.14,767.82 " fill="none" id="Agent-UC20" style="stroke:#181818;stroke-width:1.0;"/></g><!--link C to UC9--><g id="link_C_UC9"><path d="M90.82,1607.51 C127.84,1612.86 217.95,1625.91 299.08,1637.65 " fill="none" id="C-UC9" style="stroke:#181818;stroke-width:1.0;"/></g><!--link C to UC10--><g id="link_C_UC10"><path d="M90.82,1602.49 C130.82,1596.7 232.78,1581.95 318.44,1569.55 " fill="none" id="C-UC10" style="stroke:#181818;stroke-width:1.0;"/></g><!--link SM to UC18--><g id="link_SM_UC18"><path d="M119.72,1789 C141.28,1789 168.78,1789 198.73,1789 " fill="none" id="SM-UC18" style="stroke:#181818;stroke-width:1.0;"/></g><!--link Admin to UC12--><g id="link_Admin_UC12"><path d="M139.01,978.55 C150.87,974.31 163.21,970.26 175,967 C223.21,953.68 277.09,942.89 324.52,934.72 " fill="none" id="Admin-UC12" style="stroke:#181818;stroke-width:1.0;"/></g><!--SRC=[NLJ1Rjim3BtdAuZkqXqAr4dJ9iSWws50snKDSjj5iHb7convafp26FRl8sKhDNin98jyV7nyai5ZXEZ0w_eKeT8UowYTdSrK6Ps7gxtrMEiGqMC5NK1_1If0P_UqX2-rnpv7RcgqCPscbJpSzGJHmAPgj2Kqh-Zl4Cj_PEoFTpkMIIjv-8BntVdVyAoigiUmbsSPipKwKzb-ea5V5Bcxd3lZpfMj3SBL6ohp6AAA2FlT1ZPjU_LtnjsNAj3nVbV03NpJeJMgXoTMfu9NxrhqKMD8kFjj8J8UAEDjL1AeutX224cKCVn1XCyf_BKx61rEANHZhUjiYGqr5i0D-Rjf_bpatr7-hZiqEe82Ztyw374Cl1E1ooal1O456WEN8d35Y8YfCD6Au8xG3Ztte2RqFfLR2PGreJoXEYFLQZ04cWExZq5LSWrjGdd2gZCSSjP1Pw2rdC0jAsHKIM4MdA-8FkMsdIzF7CA8cLuUoAr4O8s_DwtpaGPoTBvHx7muUjU0mLgLlPnG8ILUJ9NZSezDQroF5mCiP3ds37k5z546SB3NXM_g870BFwqgIsn9O0yLbaPRLa86PaRIOyKYbr26AcGwm1T6svfjXsVqlPXoyOac6y9aZ8DpANCSQG2IASiwSRfqId5F41v3wsoLXyil1orK_9Wk_vxEjxYNA0zJ8XLf5g1HrOMsl2y5svEkjUbfFmHVbwvfbV-m0GH5PS_ATAo9ZiFDeeuO9Ou7NpE-z6t1ngtqMLS3yO3f0Z2r96OWSRdLTx9lTw3JYpRIjlFRf8sg4ieWKaWaXZlGjew0fjS8hZ_iuF4NFLAWOsOv9ql_cytoUtnpCxmxmmESTkJPuObDkwNOqUI75pRjxYGCwKllwe2ucAod_zUYL24hh-JXKcxl9KlgOpiirvSLtzTTBhMQpIRCY_b_]--></g></svg>