<?xml version="1.0" encoding="us-ascii" standalone="no"?><svg xmlns="http://www.w3.org/2000/svg" xmlns:xlink="http://www.w3.org/1999/xlink" contentStyleType="text/css" height="685px" preserveAspectRatio="none" style="width:747px;height:685px;background:#FFFFFF;" version="1.1" viewBox="0 0 747 685" width="747px" zoomAndPan="magnify"><defs/><g><text fill="#000000" font-family="sans-serif" font-size="14" font-weight="bold" lengthAdjust="spacing" textLength="295" x="228.25" y="28.5352">US010 - System Sequence Diagram (SSD)</text><rect fill="#FFFFFF" height="466.7891" style="stroke:#181818;stroke-width:1.0;" width="10" x="51.5" y="128.9766"/><rect fill="#FFFFFF" height="86.9316" style="stroke:#181818;stroke-width:1.0;" width="10" x="460.5" y="165.5977"/><rect fill="#FFFFFF" height="171.4629" style="stroke:#181818;stroke-width:1.0;" width="10" x="460.5" y="306.1504"/><rect fill="none" height="88.9316" style="stroke:#000000;stroke-width:1.5;" width="659.5" x="10" y="267.5293"/><rect fill="none" height="57.5313" style="stroke:#000000;stroke-width:1.5;" width="498.5" x="10" y="428.082"/><rect fill="none" height="88.1523" style="stroke:#000000;stroke-width:1.5;" width="498.5" x="10" y="499.6133"/><line style="stroke:#181818;stroke-width:0.5;stroke-dasharray:5.0,5.0;" x1="56" x2="56" y1="118.9766" y2="604.7656"/><line style="stroke:#181818;stroke-width:0.5;stroke-dasharray:5.0,5.0;" x1="465.5" x2="465.5" y1="118.9766" y2="604.7656"/><text fill="#000000" font-family="sans-serif" font-size="14" lengthAdjust="spacing" textLength="67" x="20" y="116.0234">Customer</text><ellipse cx="56.5" cy="50.9883" fill="#E3E3E3" rx="8" ry="8" style="stroke:#181818;stroke-width:0.5;"/><path d="M56.5,58.9883 L56.5,85.9883 M43.5,66.9883 L69.5,66.9883 M56.5,85.9883 L43.5,100.9883 M56.5,85.9883 L69.5,100.9883 " fill="none" style="stroke:#181818;stroke-width:0.5;"/><text fill="#000000" font-family="sans-serif" font-size="14" lengthAdjust="spacing" textLength="67" x="20" y="617.3008">Customer</text><ellipse cx="56.5" cy="628.7539" fill="#E3E3E3" rx="8" ry="8" style="stroke:#181818;stroke-width:0.5;"/><path d="M56.5,636.7539 L56.5,663.7539 M43.5,644.7539 L69.5,644.7539 M56.5,663.7539 L43.5,678.7539 M56.5,663.7539 L69.5,678.7539 " fill="none" style="stroke:#181818;stroke-width:0.5;"/><rect fill="#E3E3E3" height="30.4883" rx="2.5" ry="2.5" style="stroke:#181818;stroke-width:0.5;" width="66" x="432.5" y="87.4883"/><text fill="#000000" font-family="sans-serif" font-size="14" lengthAdjust="spacing" textLength="52" x="439.5" y="108.0234">:System</text><rect fill="#E3E3E3" height="30.4883" rx="2.5" ry="2.5" style="stroke:#181818;stroke-width:0.5;" width="66" x="432.5" y="603.7656"/><text fill="#000000" font-family="sans-serif" font-size="14" lengthAdjust="spacing" textLength="52" x="439.5" y="624.3008">:System</text><rect fill="#FFFFFF" height="466.7891" style="stroke:#181818;stroke-width:1.0;" width="10" x="51.5" y="128.9766"/><rect fill="#FFFFFF" height="86.9316" style="stroke:#181818;stroke-width:1.0;" width="10" x="460.5" y="165.5977"/><rect fill="#FFFFFF" height="171.4629" style="stroke:#181818;stroke-width:1.0;" width="10" x="460.5" y="306.1504"/><polygon fill="#181818" points="448.5,161.5977,458.5,165.5977,448.5,169.5977,452.5,165.5977" style="stroke:#181818;stroke-width:1.0;"/><line style="stroke:#181818;stroke-width:1.0;" x1="61.5" x2="454.5" y1="165.5977" y2="165.5977"/><text fill="#000000" font-family="sans-serif" font-size="13" font-weight="bold" lengthAdjust="spacing" textLength="9" x="68.5" y="153.2002">1</text><text fill="#000000" font-family="sans-serif" font-size="13" lengthAdjust="spacing" textLength="363" x="81.5" y="145.5449">whilst looking at one of the properties, selects the option</text><text fill="#000000" font-family="sans-serif" font-size="13" lengthAdjust="spacing" textLength="104" x="85.5" y="160.8555">to make an offer</text><line style="stroke:#181818;stroke-width:1.0;stroke-dasharray:2.0,2.0;" x1="470.5" x2="512.5" y1="210.2188" y2="210.2188"/><line style="stroke:#181818;stroke-width:1.0;stroke-dasharray:2.0,2.0;" x1="512.5" x2="512.5" y1="210.2188" y2="223.2188"/><line style="stroke:#181818;stroke-width:1.0;stroke-dasharray:2.0,2.0;" x1="471.5" x2="512.5" y1="223.2188" y2="223.2188"/><polygon fill="#181818" points="481.5,219.2188,471.5,223.2188,481.5,227.2188,477.5,223.2188" style="stroke:#181818;stroke-width:1.0;"/><text fill="#000000" font-family="sans-serif" font-size="13" font-weight="bold" lengthAdjust="spacing" textLength="9" x="477.5" y="197.8213">2</text><text fill="#000000" font-family="sans-serif" font-size="13" lengthAdjust="spacing" textLength="250" x="490.5" y="190.166">Checks if this client already has already</text><text fill="#000000" font-family="sans-serif" font-size="13" lengthAdjust="spacing" textLength="195" x="494.5" y="205.4766">made an offer for that property</text><polygon fill="#181818" points="72.5,248.5293,62.5,252.5293,72.5,256.5293,68.5,252.5293" style="stroke:#181818;stroke-width:1.0;"/><line style="stroke:#181818;stroke-width:1.0;stroke-dasharray:2.0,2.0;" x1="66.5" x2="464.5" y1="252.5293" y2="252.5293"/><text fill="#000000" font-family="sans-serif" font-size="13" font-weight="bold" lengthAdjust="spacing" textLength="9" x="78.5" y="247.7871">3</text><text fill="#000000" font-family="sans-serif" font-size="13" lengthAdjust="spacing" textLength="277" x="91.5" y="247.7871">asks the client for the ammount of the offer</text><path d="M10,267.5293 L84,267.5293 L84,274.8398 L74,284.8398 L10,284.8398 L10,267.5293 " fill="#EEEEEE" style="stroke:#000000;stroke-width:1.5;"/><rect fill="none" height="88.9316" style="stroke:#000000;stroke-width:1.5;" width="659.5" x="10" y="267.5293"/><text fill="#000000" font-family="sans-serif" font-size="13" font-weight="bold" lengthAdjust="spacing" textLength="29" x="25" y="281.0977">loop</text><text fill="#000000" font-family="sans-serif" font-size="11" font-weight="bold" lengthAdjust="spacing" textLength="429" x="99" y="280.1641">[until the price entered is equal or lower than the base price of the property]</text><polygon fill="#181818" points="448.5,302.1504,458.5,306.1504,448.5,310.1504,452.5,306.1504" style="stroke:#181818;stroke-width:1.0;"/><line style="stroke:#181818;stroke-width:1.0;" x1="61.5" x2="454.5" y1="306.1504" y2="306.1504"/><text fill="#000000" font-family="sans-serif" font-size="13" font-weight="bold" lengthAdjust="spacing" textLength="9" x="68.5" y="301.4082">4</text><text fill="#000000" font-family="sans-serif" font-size="13" lengthAdjust="spacing" textLength="202" x="81.5" y="301.4082">enters the ammount of the offer</text><line style="stroke:#181818;stroke-width:1.0;stroke-dasharray:2.0,2.0;" x1="470.5" x2="512.5" y1="335.4609" y2="335.4609"/><line style="stroke:#181818;stroke-width:1.0;stroke-dasharray:2.0,2.0;" x1="512.5" x2="512.5" y1="335.4609" y2="348.4609"/><line style="stroke:#181818;stroke-width:1.0;stroke-dasharray:2.0,2.0;" x1="471.5" x2="512.5" y1="348.4609" y2="348.4609"/><polygon fill="#181818" points="481.5,344.4609,471.5,348.4609,481.5,352.4609,477.5,348.4609" style="stroke:#181818;stroke-width:1.0;"/><text fill="#000000" font-family="sans-serif" font-size="13" font-weight="bold" lengthAdjust="spacing" textLength="9" x="477.5" y="330.7188">5</text><text fill="#000000" font-family="sans-serif" font-size="13" lengthAdjust="spacing" textLength="167" x="490.5" y="330.7188">Checks if the price is valid</text><line style="stroke:#181818;stroke-width:1.0;stroke-dasharray:2.0,2.0;" x1="470.5" x2="512.5" y1="400.082" y2="400.082"/><line style="stroke:#181818;stroke-width:1.0;stroke-dasharray:2.0,2.0;" x1="512.5" x2="512.5" y1="400.082" y2="413.082"/><line style="stroke:#181818;stroke-width:1.0;stroke-dasharray:2.0,2.0;" x1="471.5" x2="512.5" y1="413.082" y2="413.082"/><polygon fill="#181818" points="481.5,409.082,471.5,413.082,481.5,417.082,477.5,413.082" style="stroke:#181818;stroke-width:1.0;"/><text fill="#000000" font-family="sans-serif" font-size="13" font-weight="bold" lengthAdjust="spacing" textLength="9" x="477.5" y="387.6846">6</text><text fill="#000000" font-family="sans-serif" font-size="13" lengthAdjust="spacing" textLength="242" x="490.5" y="380.0293">Checks if there are any offers made by</text><text fill="#000000" font-family="sans-serif" font-size="13" lengthAdjust="spacing" textLength="213" x="494.5" y="395.3398">other client in the same ammount</text><path d="M10,428.082 L77,428.082 L77,435.3926 L67,445.3926 L10,445.3926 L10,428.082 " fill="#EEEEEE" style="stroke:#000000;stroke-width:1.5;"/><rect fill="none" height="57.5313" style="stroke:#000000;stroke-width:1.5;" width="498.5" x="10" y="428.082"/><text fill="#000000" font-family="sans-serif" font-size="13" font-weight="bold" lengthAdjust="spacing" textLength="22" x="25" y="441.6504">opt</text><text fill="#000000" font-family="sans-serif" font-size="11" font-weight="bold" lengthAdjust="spacing" textLength="345" x="92" y="440.7168">[there is no existing offer made by another client in the same</text><text fill="#000000" font-family="sans-serif" font-size="11" font-weight="bold" lengthAdjust="spacing" textLength="57" x="96" y="453.6719">ammount]</text><polygon fill="#181818" points="72.5,473.6133,62.5,477.6133,72.5,481.6133,68.5,477.6133" style="stroke:#181818;stroke-width:1.0;"/><line style="stroke:#181818;stroke-width:1.0;stroke-dasharray:2.0,2.0;" x1="66.5" x2="464.5" y1="477.6133" y2="477.6133"/><text fill="#000000" font-family="sans-serif" font-size="13" font-weight="bold" lengthAdjust="spacing" textLength="9" x="78.5" y="472.8711">7</text><text fill="#000000" font-family="sans-serif" font-size="13" lengthAdjust="spacing" textLength="118" x="91.5" y="472.8711">gives confirmation</text><path d="M10,499.6133 L77,499.6133 L77,506.9238 L67,516.9238 L10,516.9238 L10,499.6133 " fill="#EEEEEE" style="stroke:#000000;stroke-width:1.5;"/><rect fill="none" height="88.1523" style="stroke:#000000;stroke-width:1.5;" width="498.5" x="10" y="499.6133"/><text fill="#000000" font-family="sans-serif" font-size="13" font-weight="bold" lengthAdjust="spacing" textLength="22" x="25" y="513.1816">opt</text><text fill="#000000" font-family="sans-serif" font-size="11" font-weight="bold" lengthAdjust="spacing" textLength="348" x="92" y="512.248">[there is an exiisting offer made by another client in the same</text><text fill="#000000" font-family="sans-serif" font-size="11" font-weight="bold" lengthAdjust="spacing" textLength="57" x="96" y="525.2031">ammount]</text><polygon fill="#181818" points="72.5,575.7656,62.5,579.7656,72.5,583.7656,68.5,579.7656" style="stroke:#181818;stroke-width:1.0;"/><line style="stroke:#181818;stroke-width:1.0;stroke-dasharray:2.0,2.0;" x1="66.5" x2="464.5" y1="579.7656" y2="579.7656"/><text fill="#000000" font-family="sans-serif" font-size="13" font-weight="bold" lengthAdjust="spacing" textLength="9" x="78.5" y="559.7129">8</text><text fill="#000000" font-family="sans-serif" font-size="13" lengthAdjust="spacing" textLength="346" x="91.5" y="544.4023">informs the client that there is an existing offer for the</text><text fill="#000000" font-family="sans-serif" font-size="13" lengthAdjust="spacing" textLength="331" x="95.5" y="559.7129">same property in the same ammount which will have</text><text fill="#000000" font-family="sans-serif" font-size="13" lengthAdjust="spacing" textLength="184" x="95.5" y="575.0234">priority over the client's offer</text><!--SRC=[fLFBZfn03BptLrXxII9bfCrr3hdi_W7ABHSF6B3eRhFT3HF-FcvUosnsLb62XDI0NLKk5x5ZtsD01qwyb6qGHv32G2RkNteiEsoeI9Cb25Gcz8qz5iGMAxcoRw166ycOn4bBVnIFtnxX1CKK4paew6KWNn8yCpQvxNDHF7yn1eSaVd0N2dekamHu6c9I7G4mxcUZL8bBxj4dU3Wlc0-vOZdElJnYejSM0thjOAVlcv8pN5ksCO4LwR9iJ22UG6f8BK4Vf2Sbe_WL8baTECxlfKyi7dvwI08EEmBqsbDlJBk0JL5-kLAUZknFBPLT1Cvq7A6qJ3eKsa1OJT3gJEjPgHnMhpnGgpkfLRchncaXUKEqZtnMVxf5_4go02YYSpBeyphoCaM6gUYFCTIb7hIOxMeFwn8LZ09LeFfrhsX1WQrSQTRdvy8BngtwrjdfWytCkF6-ndztUjEYYaUqN1b3lieHwF-oFwYaVFjfqHANvLpocYH_tqpcPVw8RXzYPZ2Qe1L8HNW1-iKnvG0ksrtXbE4Ud38T0J_UVSCZQRh4rnmSvkpUsR3wO6wrwGPLs_-BUryOUusXkydb7Eetz4VsDRTACRkw1Uazg_FFNRPmPMlrNnfpZovU0ckvZ1GEj9_Ycghim6y0]--></g></svg>