<?xml version="1.0" encoding="us-ascii" standalone="no"?><svg xmlns="http://www.w3.org/2000/svg" xmlns:xlink="http://www.w3.org/1999/xlink" contentStyleType="text/css" height="444px" preserveAspectRatio="none" style="width:913px;height:444px;background:#FFFFFF;" version="1.1" viewBox="0 0 913 444" width="913px" zoomAndPan="magnify"><defs/><g><text fill="#000000" font-family="sans-serif" font-size="14" font-weight="bold" lengthAdjust="spacing" textLength="351" x="283.25" y="27.6738">System Sequence Diagram (SSD) - Alternative One</text><rect fill="#FFFFFF" height="228.1875" style="stroke:#181818;stroke-width:1.0;" width="10" x="21.5" y="127.2813"/><rect fill="#FFFFFF" height="28.5234" style="stroke:#181818;stroke-width:1.0;" width="10" x="449.5" y="147.8047"/><rect fill="#FFFFFF" height="28.5234" style="stroke:#181818;stroke-width:1.0;" width="10" x="449.5" y="219.375"/><rect fill="#FFFFFF" height="70.0469" style="stroke:#181818;stroke-width:1.0;" width="10" x="449.5" y="276.4219"/><line style="stroke:#181818;stroke-width:0.5;stroke-dasharray:5.0,5.0;" x1="26" x2="26" y1="117.2813" y2="364.4688"/><line style="stroke:#181818;stroke-width:0.5;stroke-dasharray:5.0,5.0;" x1="454.5" x2="454.5" y1="117.2813" y2="364.4688"/><text fill="#000000" font-family="sans-serif" font-size="14" lengthAdjust="spacing" textLength="37" x="5" y="114.3145">Agent</text><ellipse cx="26.5" cy="50.1406" fill="#E3E3E3" rx="8" ry="8" style="stroke:#181818;stroke-width:0.5;"/><path d="M26.5,58.1406 L26.5,85.1406 M13.5,66.1406 L39.5,66.1406 M26.5,85.1406 L13.5,100.1406 M26.5,85.1406 L39.5,100.1406 " fill="none" style="stroke:#181818;stroke-width:0.5;"/><text fill="#000000" font-family="sans-serif" font-size="14" lengthAdjust="spacing" textLength="37" x="5" y="376.1426">Agent</text><ellipse cx="26.5" cy="387.6094" fill="#E3E3E3" rx="8" ry="8" style="stroke:#181818;stroke-width:0.5;"/><path d="M26.5,395.6094 L26.5,422.6094 M13.5,403.6094 L39.5,403.6094 M26.5,422.6094 L13.5,437.6094 M26.5,422.6094 L39.5,437.6094 " fill="none" style="stroke:#181818;stroke-width:0.5;"/><rect fill="#E3E3E3" height="29.6406" rx="2.5" ry="2.5" style="stroke:#181818;stroke-width:0.5;" width="64" x="422.5" y="86.6406"/><text fill="#000000" font-family="sans-serif" font-size="14" lengthAdjust="spacing" textLength="50" x="429.5" y="106.3145">:System</text><rect fill="#E3E3E3" height="29.6406" rx="2.5" ry="2.5" style="stroke:#181818;stroke-width:0.5;" width="64" x="422.5" y="363.4688"/><text fill="#000000" font-family="sans-serif" font-size="14" lengthAdjust="spacing" textLength="50" x="429.5" y="383.1426">:System</text><rect fill="#FFFFFF" height="228.1875" style="stroke:#181818;stroke-width:1.0;" width="10" x="21.5" y="127.2813"/><rect fill="#FFFFFF" height="28.5234" style="stroke:#181818;stroke-width:1.0;" width="10" x="449.5" y="147.8047"/><rect fill="#FFFFFF" height="28.5234" style="stroke:#181818;stroke-width:1.0;" width="10" x="449.5" y="219.375"/><rect fill="#FFFFFF" height="70.0469" style="stroke:#181818;stroke-width:1.0;" width="10" x="449.5" y="276.4219"/><polygon fill="#181818" points="437.5,143.8047,447.5,147.8047,437.5,151.8047,441.5,147.8047" style="stroke:#181818;stroke-width:1.0;"/><line style="stroke:#181818;stroke-width:1.0;" x1="31.5" x2="443.5" y1="147.8047" y2="147.8047"/><text fill="#000000" font-family="sans-serif" font-size="13" font-weight="bold" lengthAdjust="spacing" textLength="7" x="38.5" y="143.0498">1</text><text fill="#000000" font-family="sans-serif" font-size="13" lengthAdjust="spacing" textLength="247" x="49.5" y="143.0498">Asks to see the list of all booking requests</text><polygon fill="#181818" points="42.5,172.3281,32.5,176.3281,42.5,180.3281,38.5,176.3281" style="stroke:#181818;stroke-width:1.0;"/><line style="stroke:#181818;stroke-width:1.0;stroke-dasharray:2.0,2.0;" x1="36.5" x2="453.5" y1="176.3281" y2="176.3281"/><text fill="#000000" font-family="sans-serif" font-size="13" font-weight="bold" lengthAdjust="spacing" textLength="7" x="48.5" y="171.5732">2</text><text fill="#000000" font-family="sans-serif" font-size="13" lengthAdjust="spacing" textLength="355" x="59.5" y="171.5732">Shows the list off all booking requests and asks to select one</text><polygon fill="#181818" points="437.5,215.375,447.5,219.375,437.5,223.375,441.5,219.375" style="stroke:#181818;stroke-width:1.0;"/><line style="stroke:#181818;stroke-width:1.0;" x1="31.5" x2="443.5" y1="219.375" y2="219.375"/><text fill="#000000" font-family="sans-serif" font-size="13" font-weight="bold" lengthAdjust="spacing" textLength="7" x="38.5" y="207.3584">3</text><text fill="#000000" font-family="sans-serif" font-size="13" lengthAdjust="spacing" textLength="388" x="49.5" y="200.0967">Selects a booking request and asks to select the option to respond</text><text fill="#000000" font-family="sans-serif" font-size="13" lengthAdjust="spacing" textLength="203" x="53.5" y="214.6201">to the user that scheduled the visit.</text><polygon fill="#181818" points="42.5,243.8984,32.5,247.8984,42.5,251.8984,38.5,247.8984" style="stroke:#181818;stroke-width:1.0;"/><line style="stroke:#181818;stroke-width:1.0;stroke-dasharray:2.0,2.0;" x1="36.5" x2="453.5" y1="247.8984" y2="247.8984"/><text fill="#000000" font-family="sans-serif" font-size="13" font-weight="bold" lengthAdjust="spacing" textLength="7" x="48.5" y="243.1436">4</text><text fill="#000000" font-family="sans-serif" font-size="13" lengthAdjust="spacing" textLength="199" x="59.5" y="243.1436">Shows the booking request details</text><polygon fill="#181818" points="437.5,272.4219,447.5,276.4219,437.5,280.4219,441.5,276.4219" style="stroke:#181818;stroke-width:1.0;"/><line style="stroke:#181818;stroke-width:1.0;" x1="31.5" x2="443.5" y1="276.4219" y2="276.4219"/><text fill="#000000" font-family="sans-serif" font-size="13" font-weight="bold" lengthAdjust="spacing" textLength="7" x="38.5" y="271.667">5</text><text fill="#000000" font-family="sans-serif" font-size="13" lengthAdjust="spacing" textLength="377" x="49.5" y="271.667">Selects the option to respond to the user that scheduled the visit.</text><line style="stroke:#181818;stroke-width:1.0;stroke-dasharray:2.0,2.0;" x1="459.5" x2="501.5" y1="304.9453" y2="304.9453"/><line style="stroke:#181818;stroke-width:1.0;stroke-dasharray:2.0,2.0;" x1="501.5" x2="501.5" y1="304.9453" y2="317.9453"/><line style="stroke:#181818;stroke-width:1.0;stroke-dasharray:2.0,2.0;" x1="460.5" x2="501.5" y1="317.9453" y2="317.9453"/><polygon fill="#181818" points="470.5,313.9453,460.5,317.9453,470.5,321.9453,466.5,317.9453" style="stroke:#181818;stroke-width:1.0;"/><text fill="#000000" font-family="sans-serif" font-size="13" font-weight="bold" lengthAdjust="spacing" textLength="7" x="466.5" y="300.1904">6</text><text fill="#000000" font-family="sans-serif" font-size="13" lengthAdjust="spacing" textLength="429" x="477.5" y="300.1904">Sends the response message by email to the user that scheduled the visit</text><polygon fill="#181818" points="42.5,342.4688,32.5,346.4688,42.5,350.4688,38.5,346.4688" style="stroke:#181818;stroke-width:1.0;"/><line style="stroke:#181818;stroke-width:1.0;stroke-dasharray:2.0,2.0;" x1="36.5" x2="453.5" y1="346.4688" y2="346.4688"/><text fill="#000000" font-family="sans-serif" font-size="13" font-weight="bold" lengthAdjust="spacing" textLength="7" x="48.5" y="341.7139">7</text><text fill="#000000" font-family="sans-serif" font-size="13" lengthAdjust="spacing" textLength="158" x="59.5" y="341.7139">displays operation success</text><!--SRC=[fPCnRiCm34LtduB8r0xf0J8K293E7RnseIN65Yo9haWdyEqhst4Q16uHj9uaYlplVmAMriKE4mO87DaqYGE1ffuAkRvqQ5gigTJ14oGoYh7sjmtIeEMpYpKSqGiLXJhDhUKWIW5A-kmf6eA3mtfiVohBmpDiOU-LKaHr9uBtcCUmLuvzg2Zbir5EiDdN57K3AF0MEiy3KP6PwephC2fiTZDawfYFqwWxeTBtI07vMswmVLsixM0lhO0oIAvhG-2TAF0Hq7kecDinL1e3YCeiSrLVS6FnehVDqbVC3ig6pt8hkwuB66tslnZnUSF0yUBQqYfmDKmvpMQzUyGQORJ5dJgEOp6HT1pjntGPdtgXb0-e8AOXstkoK_tanEdBFrPnRysIelFozxIhGHwCyKYA6s2qCsw6244WaVnhG3K0XHpZ8UnlUx9EEe-3v4IKS0eblJ4PyzE2lW00]--></g></svg>