<?xml version="1.0" encoding="us-ascii" standalone="no"?><svg xmlns="http://www.w3.org/2000/svg" xmlns:xlink="http://www.w3.org/1999/xlink" contentStyleType="text/css" height="459px" preserveAspectRatio="none" style="width:928px;height:459px;background:#FFFFFF;" version="1.1" viewBox="0 0 928 459" width="928px" zoomAndPan="magnify"><defs/><g><text fill="#000000" font-family="sans-serif" font-size="14" font-weight="bold" lengthAdjust="spacing" textLength="351" x="290.75" y="27.6738">System Sequence Diagram (SSD) - Alternative One</text><rect fill="#FFFFFF" height="242.7109" style="stroke:#181818;stroke-width:1.0;" width="10" x="21.5" y="127.2813"/><rect fill="#FFFFFF" height="28.5234" style="stroke:#181818;stroke-width:1.0;" width="10" x="454.5" y="147.8047"/><rect fill="#FFFFFF" height="150.6172" style="stroke:#181818;stroke-width:1.0;" width="10" x="454.5" y="219.375"/><rect fill="#FFFFFF" height="107.5703" style="stroke:#181818;stroke-width:1.0;" width="10" x="459.5" y="262.4219"/><rect fill="#FFFFFF" height="70.0469" style="stroke:#181818;stroke-width:1.0;" width="10" x="464.5" y="290.9453"/><line style="stroke:#181818;stroke-width:0.5;stroke-dasharray:5.0,5.0;" x1="26" x2="26" y1="117.2813" y2="378.9922"/><line style="stroke:#181818;stroke-width:0.5;stroke-dasharray:5.0,5.0;" x1="459.5" x2="459.5" y1="117.2813" y2="378.9922"/><text fill="#000000" font-family="sans-serif" font-size="14" lengthAdjust="spacing" textLength="37" x="5" y="114.3145">Agent</text><ellipse cx="26.5" cy="50.1406" fill="#E3E3E3" rx="8" ry="8" style="stroke:#181818;stroke-width:0.5;"/><path d="M26.5,58.1406 L26.5,85.1406 M13.5,66.1406 L39.5,66.1406 M26.5,85.1406 L13.5,100.1406 M26.5,85.1406 L39.5,100.1406 " fill="none" style="stroke:#181818;stroke-width:0.5;"/><text fill="#000000" font-family="sans-serif" font-size="14" lengthAdjust="spacing" textLength="37" x="5" y="390.666">Agent</text><ellipse cx="26.5" cy="402.1328" fill="#E3E3E3" rx="8" ry="8" style="stroke:#181818;stroke-width:0.5;"/><path d="M26.5,410.1328 L26.5,437.1328 M13.5,418.1328 L39.5,418.1328 M26.5,437.1328 L13.5,452.1328 M26.5,437.1328 L39.5,452.1328 " fill="none" style="stroke:#181818;stroke-width:0.5;"/><rect fill="#E3E3E3" height="29.6406" rx="2.5" ry="2.5" style="stroke:#181818;stroke-width:0.5;" width="64" x="427.5" y="86.6406"/><text fill="#000000" font-family="sans-serif" font-size="14" lengthAdjust="spacing" textLength="50" x="434.5" y="106.3145">:System</text><rect fill="#E3E3E3" height="29.6406" rx="2.5" ry="2.5" style="stroke:#181818;stroke-width:0.5;" width="64" x="427.5" y="377.9922"/><text fill="#000000" font-family="sans-serif" font-size="14" lengthAdjust="spacing" textLength="50" x="434.5" y="397.666">:System</text><rect fill="#FFFFFF" height="242.7109" style="stroke:#181818;stroke-width:1.0;" width="10" x="21.5" y="127.2813"/><rect fill="#FFFFFF" height="28.5234" style="stroke:#181818;stroke-width:1.0;" width="10" x="454.5" y="147.8047"/><rect fill="#FFFFFF" height="150.6172" style="stroke:#181818;stroke-width:1.0;" width="10" x="454.5" y="219.375"/><rect fill="#FFFFFF" height="107.5703" style="stroke:#181818;stroke-width:1.0;" width="10" x="459.5" y="262.4219"/><rect fill="#FFFFFF" height="70.0469" style="stroke:#181818;stroke-width:1.0;" width="10" x="464.5" y="290.9453"/><polygon fill="#181818" points="442.5,143.8047,452.5,147.8047,442.5,151.8047,446.5,147.8047" style="stroke:#181818;stroke-width:1.0;"/><line style="stroke:#181818;stroke-width:1.0;" x1="31.5" x2="448.5" y1="147.8047" y2="147.8047"/><text fill="#000000" font-family="sans-serif" font-size="13" font-weight="bold" lengthAdjust="spacing" textLength="7" x="38.5" y="143.0498">1</text><text fill="#000000" font-family="sans-serif" font-size="13" lengthAdjust="spacing" textLength="247" x="49.5" y="143.0498">Asks to see the list of all booking requests</text><polygon fill="#181818" points="42.5,172.3281,32.5,176.3281,42.5,180.3281,38.5,176.3281" style="stroke:#181818;stroke-width:1.0;"/><line style="stroke:#181818;stroke-width:1.0;stroke-dasharray:2.0,2.0;" x1="36.5" x2="458.5" y1="176.3281" y2="176.3281"/><text fill="#000000" font-family="sans-serif" font-size="13" font-weight="bold" lengthAdjust="spacing" textLength="7" x="48.5" y="171.5732">2</text><text fill="#000000" font-family="sans-serif" font-size="13" lengthAdjust="spacing" textLength="355" x="59.5" y="171.5732">Shows the list off all booking requests and asks to select one</text><polygon fill="#181818" points="442.5,215.375,452.5,219.375,442.5,223.375,446.5,219.375" style="stroke:#181818;stroke-width:1.0;"/><line style="stroke:#181818;stroke-width:1.0;" x1="31.5" x2="448.5" y1="219.375" y2="219.375"/><text fill="#000000" font-family="sans-serif" font-size="13" font-weight="bold" lengthAdjust="spacing" textLength="7" x="38.5" y="207.3584">3</text><text fill="#000000" font-family="sans-serif" font-size="13" lengthAdjust="spacing" textLength="388" x="49.5" y="200.0967">Selects a booking request and asks to select the option to respond</text><text fill="#000000" font-family="sans-serif" font-size="13" lengthAdjust="spacing" textLength="203" x="53.5" y="214.6201">to the user that scheduled the visit.</text><polygon fill="#181818" points="447.5,258.4219,457.5,262.4219,447.5,266.4219,451.5,262.4219" style="stroke:#181818;stroke-width:1.0;"/><line style="stroke:#181818;stroke-width:1.0;" x1="31.5" x2="453.5" y1="262.4219" y2="262.4219"/><text fill="#000000" font-family="sans-serif" font-size="13" font-weight="bold" lengthAdjust="spacing" textLength="7" x="38.5" y="250.4053">4</text><text fill="#000000" font-family="sans-serif" font-size="13" lengthAdjust="spacing" textLength="388" x="49.5" y="243.1436">Selects a booking request and asks to select the option to respond</text><text fill="#000000" font-family="sans-serif" font-size="13" lengthAdjust="spacing" textLength="203" x="53.5" y="257.667">to the user that scheduled the visit.</text><polygon fill="#181818" points="452.5,286.9453,462.5,290.9453,452.5,294.9453,456.5,290.9453" style="stroke:#181818;stroke-width:1.0;"/><line style="stroke:#181818;stroke-width:1.0;" x1="31.5" x2="458.5" y1="290.9453" y2="290.9453"/><text fill="#000000" font-family="sans-serif" font-size="13" font-weight="bold" lengthAdjust="spacing" textLength="7" x="38.5" y="286.1904">5</text><text fill="#000000" font-family="sans-serif" font-size="13" lengthAdjust="spacing" textLength="377" x="49.5" y="286.1904">Selects the option to respond to the user that scheduled the visit.</text><line style="stroke:#181818;stroke-width:1.0;stroke-dasharray:2.0,2.0;" x1="474.5" x2="516.5" y1="319.4688" y2="319.4688"/><line style="stroke:#181818;stroke-width:1.0;stroke-dasharray:2.0,2.0;" x1="516.5" x2="516.5" y1="319.4688" y2="332.4688"/><line style="stroke:#181818;stroke-width:1.0;stroke-dasharray:2.0,2.0;" x1="475.5" x2="516.5" y1="332.4688" y2="332.4688"/><polygon fill="#181818" points="485.5,328.4688,475.5,332.4688,485.5,336.4688,481.5,332.4688" style="stroke:#181818;stroke-width:1.0;"/><text fill="#000000" font-family="sans-serif" font-size="13" font-weight="bold" lengthAdjust="spacing" textLength="7" x="481.5" y="314.7139">6</text><text fill="#000000" font-family="sans-serif" font-size="13" lengthAdjust="spacing" textLength="429" x="492.5" y="314.7139">Sends the response message by email to the user that scheduled the visit</text><polygon fill="#181818" points="42.5,356.9922,32.5,360.9922,42.5,364.9922,38.5,360.9922" style="stroke:#181818;stroke-width:1.0;"/><line style="stroke:#181818;stroke-width:1.0;stroke-dasharray:2.0,2.0;" x1="36.5" x2="458.5" y1="360.9922" y2="360.9922"/><text fill="#000000" font-family="sans-serif" font-size="13" font-weight="bold" lengthAdjust="spacing" textLength="7" x="48.5" y="356.2373">7</text><text fill="#000000" font-family="sans-serif" font-size="13" lengthAdjust="spacing" textLength="158" x="59.5" y="356.2373">displays operation success</text><!--SRC=[pPCnRiCm34LtduB8r0xf0J8K293E7RnsOIJ65Yo9haWdyEqhst5g56xGeaizKHJvtoSXI-DYYma318viwiI1G5D7XTnkMZGDLbHgxmaI6SLO-MM1r6Zvuc859_H2HQ5ESsdPYrA0ajuxYeRWuB0QoX_Ayl08MzXxfHHHtPdWDUOsx9HZ5uwKScoK4sps5KNT00gyXDPpJrHafZhZMemAczq46IkcS6nrPrJwR2aWV_C9ji-pjHtifH5G1ibvhGcy4mK-0NeFH-Pc62eD0uZA97DJdt53yggtpT8tp0xAcY-ob5tN1Oms-v-D-BnXu7XrRMaLk3fCEVPclQ-8DS9WYrjr78Ta8cavshVnC5nrGYa7g22c9jjvicF-xCJfqvrL_0zhyFkjhLB_l8x5orWGevru4qK80edaVmoEFL10vt_4lVVsh9FMOozv94euJYMTCHdptRlw0000]--></g></svg>