<?xml version="1.0" encoding="us-ascii" standalone="no"?><svg xmlns="http://www.w3.org/2000/svg" xmlns:xlink="http://www.w3.org/1999/xlink" contentStyleType="text/css" height="502px" preserveAspectRatio="none" style="width:346px;height:502px;background:#FFFFFF;" version="1.1" viewBox="0 0 346 502" width="346px" zoomAndPan="magnify"><defs/><g><text fill="#000000" font-family="sans-serif" font-size="14" font-weight="bold" lengthAdjust="spacing" textLength="228" x="58.25" y="27.6738">System Sequence Diagram (SSD)</text><rect fill="#FFFFFF" height="277.2344" style="stroke:#181818;stroke-width:1.0;" width="10" x="21.5" y="127.2813"/><rect fill="#FFFFFF" height="28.5234" style="stroke:#181818;stroke-width:1.0;" width="10" x="303.5" y="147.8047"/><rect fill="#FFFFFF" height="28.5234" style="stroke:#181818;stroke-width:1.0;" width="10" x="303.5" y="204.8516"/><rect fill="#FFFFFF" height="28.5234" style="stroke:#181818;stroke-width:1.0;" width="10" x="303.5" y="261.8984"/><rect fill="#FFFFFF" height="28.5234" style="stroke:#181818;stroke-width:1.0;" width="10" x="303.5" y="318.9453"/><rect fill="#FFFFFF" height="28.5234" style="stroke:#181818;stroke-width:1.0;" width="10" x="303.5" y="375.9922"/><line style="stroke:#181818;stroke-width:0.5;stroke-dasharray:5.0,5.0;" x1="26" x2="26" y1="117.2813" y2="422.5156"/><line style="stroke:#181818;stroke-width:0.5;stroke-dasharray:5.0,5.0;" x1="308.5" x2="308.5" y1="117.2813" y2="422.5156"/><text fill="#000000" font-family="sans-serif" font-size="14" lengthAdjust="spacing" textLength="37" x="5" y="114.3145">Agent</text><ellipse cx="26.5" cy="50.1406" fill="#E3E3E3" rx="8" ry="8" style="stroke:#181818;stroke-width:0.5;"/><path d="M26.5,58.1406 L26.5,85.1406 M13.5,66.1406 L39.5,66.1406 M26.5,85.1406 L13.5,100.1406 M26.5,85.1406 L39.5,100.1406 " fill="none" style="stroke:#181818;stroke-width:0.5;"/><text fill="#000000" font-family="sans-serif" font-size="14" lengthAdjust="spacing" textLength="37" x="5" y="434.1895">Agent</text><ellipse cx="26.5" cy="445.6563" fill="#E3E3E3" rx="8" ry="8" style="stroke:#181818;stroke-width:0.5;"/><path d="M26.5,453.6563 L26.5,480.6563 M13.5,461.6563 L39.5,461.6563 M26.5,480.6563 L13.5,495.6563 M26.5,480.6563 L39.5,495.6563 " fill="none" style="stroke:#181818;stroke-width:0.5;"/><rect fill="#E3E3E3" height="29.6406" rx="2.5" ry="2.5" style="stroke:#181818;stroke-width:0.5;" width="64" x="276.5" y="86.6406"/><text fill="#000000" font-family="sans-serif" font-size="14" lengthAdjust="spacing" textLength="50" x="283.5" y="106.3145">:System</text><rect fill="#E3E3E3" height="29.6406" rx="2.5" ry="2.5" style="stroke:#181818;stroke-width:0.5;" width="64" x="276.5" y="421.5156"/><text fill="#000000" font-family="sans-serif" font-size="14" lengthAdjust="spacing" textLength="50" x="283.5" y="441.1895">:System</text><rect fill="#FFFFFF" height="277.2344" style="stroke:#181818;stroke-width:1.0;" width="10" x="21.5" y="127.2813"/><rect fill="#FFFFFF" height="28.5234" style="stroke:#181818;stroke-width:1.0;" width="10" x="303.5" y="147.8047"/><rect fill="#FFFFFF" height="28.5234" style="stroke:#181818;stroke-width:1.0;" width="10" x="303.5" y="204.8516"/><rect fill="#FFFFFF" height="28.5234" style="stroke:#181818;stroke-width:1.0;" width="10" x="303.5" y="261.8984"/><rect fill="#FFFFFF" height="28.5234" style="stroke:#181818;stroke-width:1.0;" width="10" x="303.5" y="318.9453"/><rect fill="#FFFFFF" height="28.5234" style="stroke:#181818;stroke-width:1.0;" width="10" x="303.5" y="375.9922"/><polygon fill="#181818" points="291.5,143.8047,301.5,147.8047,291.5,151.8047,295.5,147.8047" style="stroke:#181818;stroke-width:1.0;"/><line style="stroke:#181818;stroke-width:1.0;" x1="31.5" x2="297.5" y1="147.8047" y2="147.8047"/><text fill="#000000" font-family="sans-serif" font-size="13" font-weight="bold" lengthAdjust="spacing" textLength="7" x="38.5" y="143.0498">1</text><text fill="#000000" font-family="sans-serif" font-size="13" lengthAdjust="spacing" textLength="242" x="49.5" y="143.0498">asks to view the available announcements</text><polygon fill="#181818" points="42.5,172.3281,32.5,176.3281,42.5,180.3281,38.5,176.3281" style="stroke:#181818;stroke-width:1.0;"/><line style="stroke:#181818;stroke-width:1.0;stroke-dasharray:2.0,2.0;" x1="36.5" x2="307.5" y1="176.3281" y2="176.3281"/><text fill="#000000" font-family="sans-serif" font-size="13" font-weight="bold" lengthAdjust="spacing" textLength="7" x="48.5" y="171.5732">2</text><text fill="#000000" font-family="sans-serif" font-size="13" lengthAdjust="spacing" textLength="155" x="59.5" y="171.5732">shows the announcements</text><polygon fill="#181818" points="291.5,200.8516,301.5,204.8516,291.5,208.8516,295.5,204.8516" style="stroke:#181818;stroke-width:1.0;"/><line style="stroke:#181818;stroke-width:1.0;" x1="31.5" x2="297.5" y1="204.8516" y2="204.8516"/><text fill="#000000" font-family="sans-serif" font-size="13" font-weight="bold" lengthAdjust="spacing" textLength="7" x="38.5" y="200.0967">3</text><text fill="#000000" font-family="sans-serif" font-size="13" lengthAdjust="spacing" textLength="199" x="49.5" y="200.0967">selects one of the announcements</text><polygon fill="#181818" points="42.5,229.375,32.5,233.375,42.5,237.375,38.5,233.375" style="stroke:#181818;stroke-width:1.0;"/><line style="stroke:#181818;stroke-width:1.0;stroke-dasharray:2.0,2.0;" x1="36.5" x2="307.5" y1="233.375" y2="233.375"/><text fill="#000000" font-family="sans-serif" font-size="13" font-weight="bold" lengthAdjust="spacing" textLength="7" x="48.5" y="228.6201">4</text><text fill="#000000" font-family="sans-serif" font-size="13" lengthAdjust="spacing" textLength="156" x="59.5" y="228.6201">requests type of comission</text><polygon fill="#181818" points="291.5,257.8984,301.5,261.8984,291.5,265.8984,295.5,261.8984" style="stroke:#181818;stroke-width:1.0;"/><line style="stroke:#181818;stroke-width:1.0;" x1="31.5" x2="297.5" y1="261.8984" y2="261.8984"/><text fill="#000000" font-family="sans-serif" font-size="13" font-weight="bold" lengthAdjust="spacing" textLength="7" x="38.5" y="257.1436">5</text><text fill="#000000" font-family="sans-serif" font-size="13" lengthAdjust="spacing" textLength="145" x="49.5" y="257.1436">inserts type of comission</text><polygon fill="#181818" points="42.5,286.4219,32.5,290.4219,42.5,294.4219,38.5,290.4219" style="stroke:#181818;stroke-width:1.0;"/><line style="stroke:#181818;stroke-width:1.0;stroke-dasharray:2.0,2.0;" x1="36.5" x2="307.5" y1="290.4219" y2="290.4219"/><text fill="#000000" font-family="sans-serif" font-size="13" font-weight="bold" lengthAdjust="spacing" textLength="7" x="48.5" y="285.667">6</text><text fill="#000000" font-family="sans-serif" font-size="13" lengthAdjust="spacing" textLength="135" x="59.5" y="285.667">requests the comission</text><polygon fill="#181818" points="291.5,314.9453,301.5,318.9453,291.5,322.9453,295.5,318.9453" style="stroke:#181818;stroke-width:1.0;"/><line style="stroke:#181818;stroke-width:1.0;" x1="31.5" x2="297.5" y1="318.9453" y2="318.9453"/><text fill="#000000" font-family="sans-serif" font-size="13" font-weight="bold" lengthAdjust="spacing" textLength="7" x="38.5" y="314.1904">7</text><text fill="#000000" font-family="sans-serif" font-size="13" lengthAdjust="spacing" textLength="102" x="49.5" y="314.1904">inserts comission</text><polygon fill="#181818" points="42.5,343.4688,32.5,347.4688,42.5,351.4688,38.5,347.4688" style="stroke:#181818;stroke-width:1.0;"/><line style="stroke:#181818;stroke-width:1.0;stroke-dasharray:2.0,2.0;" x1="36.5" x2="307.5" y1="347.4688" y2="347.4688"/><text fill="#000000" font-family="sans-serif" font-size="13" font-weight="bold" lengthAdjust="spacing" textLength="7" x="48.5" y="342.7139">8</text><text fill="#000000" font-family="sans-serif" font-size="13" lengthAdjust="spacing" textLength="235" x="59.5" y="342.7139">shows all the information for confirmation</text><polygon fill="#181818" points="291.5,371.9922,301.5,375.9922,291.5,379.9922,295.5,375.9922" style="stroke:#181818;stroke-width:1.0;"/><line style="stroke:#181818;stroke-width:1.0;" x1="31.5" x2="297.5" y1="375.9922" y2="375.9922"/><text fill="#000000" font-family="sans-serif" font-size="13" font-weight="bold" lengthAdjust="spacing" textLength="7" x="38.5" y="371.2373">9</text><text fill="#000000" font-family="sans-serif" font-size="13" lengthAdjust="spacing" textLength="138" x="49.5" y="371.2373">confirms the information</text><polygon fill="#181818" points="37.5,400.5156,27.5,404.5156,37.5,408.5156,33.5,404.5156" style="stroke:#181818;stroke-width:1.0;"/><line style="stroke:#181818;stroke-width:1.0;stroke-dasharray:2.0,2.0;" x1="31.5" x2="307.5" y1="404.5156" y2="404.5156"/><text fill="#000000" font-family="sans-serif" font-size="13" font-weight="bold" lengthAdjust="spacing" textLength="14" x="43.5" y="399.7607">10</text><text fill="#000000" font-family="sans-serif" font-size="13" lengthAdjust="spacing" textLength="144" x="61.5" y="399.7607">publishes announcement</text><!--SRC=[fPFDRi8m383lUGgBqtRW1JXCciGRz0bCS5kB_7In2-BjPzhIiG6RO3bPiVtvIzBAZbE71IF4dB9lIuu4MdfoCcSwz3jigD9Z82Za5LCJBWkanMq-S6gWnY3adB9QQNKKfGWLVVIKFC6QiJcLlrJL-jKvx3MdFcweMEmr5rYyDvHq0IWmHCxmofuxJ0gBrSWRqcCuzF4UbQPw1xQ649Plv_ahQzW9Q8Ozqm6q9S0zSi2DEM9AkJUvQ3qozi_Cyn2OriHR6dgSiRAJvuECo6lGbcwYhls4WjsgG4u4kRw7UyIhdEvS3Ad7Rc3w75c4StfGZPDGkSzvpidEzr-Vh_vJtKsNEV7hss48Wn2dEfU8QaYmo0QacgUDcNB7TKvT-quO-JdZUUsktmIMbkJRD_ANehlO6l-LJm00]--></g></svg>