<?xml version="1.0" encoding="us-ascii" standalone="no"?><svg xmlns="http://www.w3.org/2000/svg" xmlns:xlink="http://www.w3.org/1999/xlink" contentStyleType="text/css" height="518px" preserveAspectRatio="none" style="width:434px;height:518px;background:#FFFFFF;" version="1.1" viewBox="0 0 434 518" width="434px" zoomAndPan="magnify"><defs/><g><text fill="#000000" font-family="sans-serif" font-size="14" font-weight="bold" lengthAdjust="spacing" textLength="351" x="40.75" y="27.6738">System Sequence Diagram (SSD) - Alternative One</text><rect fill="#FFFFFF" height="301.8047" style="stroke:#181818;stroke-width:1.0;" width="10" x="69.5" y="127.2813"/><rect fill="#FFFFFF" height="72.0938" style="stroke:#181818;stroke-width:1.0;" width="10" x="391.5" y="147.8047"/><rect fill="#FFFFFF" height="43.0469" style="stroke:#181818;stroke-width:1.0;" width="10" x="391.5" y="248.4219"/><rect fill="#FFFFFF" height="43.0469" style="stroke:#181818;stroke-width:1.0;" width="10" x="391.5" y="319.9922"/><rect fill="#FFFFFF" height="28.5234" style="stroke:#181818;stroke-width:1.0;" width="10" x="391.5" y="391.5625"/><line style="stroke:#181818;stroke-width:0.5;stroke-dasharray:5.0,5.0;" x1="74" x2="74" y1="117.2813" y2="438.0859"/><line style="stroke:#181818;stroke-width:0.5;stroke-dasharray:5.0,5.0;" x1="396.5" x2="396.5" y1="117.2813" y2="438.0859"/><text fill="#000000" font-family="sans-serif" font-size="14" lengthAdjust="spacing" textLength="133" x="5" y="114.3145">System Administrator</text><ellipse cx="74.5" cy="50.1406" fill="#E3E3E3" rx="8" ry="8" style="stroke:#181818;stroke-width:0.5;"/><path d="M74.5,58.1406 L74.5,85.1406 M61.5,66.1406 L87.5,66.1406 M74.5,85.1406 L61.5,100.1406 M74.5,85.1406 L87.5,100.1406 " fill="none" style="stroke:#181818;stroke-width:0.5;"/><text fill="#000000" font-family="sans-serif" font-size="14" lengthAdjust="spacing" textLength="133" x="5" y="449.7598">System Administrator</text><ellipse cx="74.5" cy="461.2266" fill="#E3E3E3" rx="8" ry="8" style="stroke:#181818;stroke-width:0.5;"/><path d="M74.5,469.2266 L74.5,496.2266 M61.5,477.2266 L87.5,477.2266 M74.5,496.2266 L61.5,511.2266 M74.5,496.2266 L87.5,511.2266 " fill="none" style="stroke:#181818;stroke-width:0.5;"/><rect fill="#E3E3E3" height="29.6406" rx="2.5" ry="2.5" style="stroke:#181818;stroke-width:0.5;" width="64" x="364.5" y="86.6406"/><text fill="#000000" font-family="sans-serif" font-size="14" lengthAdjust="spacing" textLength="50" x="371.5" y="106.3145">:System</text><rect fill="#E3E3E3" height="29.6406" rx="2.5" ry="2.5" style="stroke:#181818;stroke-width:0.5;" width="64" x="364.5" y="437.0859"/><text fill="#000000" font-family="sans-serif" font-size="14" lengthAdjust="spacing" textLength="50" x="371.5" y="456.7598">:System</text><rect fill="#FFFFFF" height="301.8047" style="stroke:#181818;stroke-width:1.0;" width="10" x="69.5" y="127.2813"/><rect fill="#FFFFFF" height="72.0938" style="stroke:#181818;stroke-width:1.0;" width="10" x="391.5" y="147.8047"/><rect fill="#FFFFFF" height="43.0469" style="stroke:#181818;stroke-width:1.0;" width="10" x="391.5" y="248.4219"/><rect fill="#FFFFFF" height="43.0469" style="stroke:#181818;stroke-width:1.0;" width="10" x="391.5" y="319.9922"/><rect fill="#FFFFFF" height="28.5234" style="stroke:#181818;stroke-width:1.0;" width="10" x="391.5" y="391.5625"/><polygon fill="#181818" points="379.5,143.8047,389.5,147.8047,379.5,151.8047,383.5,147.8047" style="stroke:#181818;stroke-width:1.0;"/><line style="stroke:#181818;stroke-width:1.0;" x1="79.5" x2="385.5" y1="147.8047" y2="147.8047"/><text fill="#000000" font-family="sans-serif" font-size="13" font-weight="bold" lengthAdjust="spacing" textLength="7" x="86.5" y="143.0498">1</text><text fill="#000000" font-family="sans-serif" font-size="13" lengthAdjust="spacing" textLength="145" x="97.5" y="143.0498">register a new employee.</text><polygon fill="#181818" points="90.5,215.8984,80.5,219.8984,90.5,223.8984,86.5,219.8984" style="stroke:#181818;stroke-width:1.0;"/><line style="stroke:#181818;stroke-width:1.0;stroke-dasharray:2.0,2.0;" x1="84.5" x2="395.5" y1="219.8984" y2="219.8984"/><text fill="#000000" font-family="sans-serif" font-size="13" font-weight="bold" lengthAdjust="spacing" textLength="7" x="96.5" y="193.3584">2</text><text fill="#000000" font-family="sans-serif" font-size="13" lengthAdjust="spacing" textLength="250" x="107.5" y="171.5732">request information about employee (name,</text><text fill="#000000" font-family="sans-serif" font-size="13" lengthAdjust="spacing" textLength="256" x="107.5" y="186.0967">citizen&#180;s card number, tax number, address,</text><text fill="#000000" font-family="sans-serif" font-size="13" lengthAdjust="spacing" textLength="268" x="107.5" y="200.6201">email address, contact telephone, number and</text><text fill="#000000" font-family="sans-serif" font-size="13" lengthAdjust="spacing" textLength="169" x="107.5" y="215.1436">agency to witch is assigned).</text><polygon fill="#181818" points="379.5,244.4219,389.5,248.4219,379.5,252.4219,383.5,248.4219" style="stroke:#181818;stroke-width:1.0;"/><line style="stroke:#181818;stroke-width:1.0;" x1="79.5" x2="385.5" y1="248.4219" y2="248.4219"/><text fill="#000000" font-family="sans-serif" font-size="13" font-weight="bold" lengthAdjust="spacing" textLength="7" x="86.5" y="243.667">3</text><text fill="#000000" font-family="sans-serif" font-size="13" lengthAdjust="spacing" textLength="221" x="97.5" y="243.667">types the information about employee.</text><polygon fill="#181818" points="90.5,287.4688,80.5,291.4688,90.5,295.4688,86.5,291.4688" style="stroke:#181818;stroke-width:1.0;"/><line style="stroke:#181818;stroke-width:1.0;stroke-dasharray:2.0,2.0;" x1="84.5" x2="395.5" y1="291.4688" y2="291.4688"/><text fill="#000000" font-family="sans-serif" font-size="13" font-weight="bold" lengthAdjust="spacing" textLength="7" x="96.5" y="279.4521">4</text><text fill="#000000" font-family="sans-serif" font-size="13" lengthAdjust="spacing" textLength="270" x="107.5" y="272.1904">show a list of the role of the employee (agente,</text><text fill="#000000" font-family="sans-serif" font-size="13" lengthAdjust="spacing" textLength="235" x="107.5" y="286.7139">store manager, store network, manager).</text><polygon fill="#181818" points="379.5,315.9922,389.5,319.9922,379.5,323.9922,383.5,319.9922" style="stroke:#181818;stroke-width:1.0;"/><line style="stroke:#181818;stroke-width:1.0;" x1="79.5" x2="385.5" y1="319.9922" y2="319.9922"/><text fill="#000000" font-family="sans-serif" font-size="13" font-weight="bold" lengthAdjust="spacing" textLength="7" x="86.5" y="315.2373">5</text><text fill="#000000" font-family="sans-serif" font-size="13" lengthAdjust="spacing" textLength="182" x="97.5" y="315.2373">select the role of the employee.</text><polygon fill="#181818" points="90.5,359.0391,80.5,363.0391,90.5,367.0391,86.5,363.0391" style="stroke:#181818;stroke-width:1.0;"/><line style="stroke:#181818;stroke-width:1.0;stroke-dasharray:2.0,2.0;" x1="84.5" x2="395.5" y1="363.0391" y2="363.0391"/><text fill="#000000" font-family="sans-serif" font-size="13" font-weight="bold" lengthAdjust="spacing" textLength="7" x="96.5" y="351.0225">6</text><text fill="#000000" font-family="sans-serif" font-size="13" lengthAdjust="spacing" textLength="269" x="107.5" y="343.7607">specify the branch of the network (designation,</text><text fill="#000000" font-family="sans-serif" font-size="13" lengthAdjust="spacing" textLength="143" x="107.5" y="358.2842">location, locar manager).</text><polygon fill="#181818" points="379.5,387.5625,389.5,391.5625,379.5,395.5625,383.5,391.5625" style="stroke:#181818;stroke-width:1.0;"/><line style="stroke:#181818;stroke-width:1.0;" x1="79.5" x2="385.5" y1="391.5625" y2="391.5625"/><text fill="#000000" font-family="sans-serif" font-size="13" font-weight="bold" lengthAdjust="spacing" textLength="7" x="86.5" y="386.8076">7</text><text fill="#000000" font-family="sans-serif" font-size="13" lengthAdjust="spacing" textLength="282" x="97.5" y="386.8076">types the information about the brach of network.</text><polygon fill="#181818" points="90.5,416.0859,80.5,420.0859,90.5,424.0859,86.5,420.0859" style="stroke:#181818;stroke-width:1.0;"/><line style="stroke:#181818;stroke-width:1.0;stroke-dasharray:2.0,2.0;" x1="84.5" x2="395.5" y1="420.0859" y2="420.0859"/><text fill="#000000" font-family="sans-serif" font-size="13" font-weight="bold" lengthAdjust="spacing" textLength="7" x="96.5" y="415.3311">8</text><text fill="#000000" font-family="sans-serif" font-size="13" lengthAdjust="spacing" textLength="162" x="107.5" y="415.3311">displays operation success.</text><!--SRC=[hL8nSjim4EpvYXjLyepa1xZ8Z6USEWNRD2VmH68471ZSqGppBh_0BykHX2WNTWfDK1s0lSNk7kJYkSUC4MBYvBgS8e7cWIhPRdfq5sofrYaGP7AAt8QF0EcmIQFd5iuOXAfAlHgqdaGfGas_1c97yEAndU7xkdvvW2Cy1wNCgFwLu0TR6mwQU8WdobOxJHbsXUEvYPwzQ4OxtG4AV8zzI1DHPHBKEzyZA-oULlo2MCk5oR-Yqgsb0blN7Ho_NPK-cRlMNg4C24mZKC4yBXqRqPKPoYhjHsFQM6SkyoqAdiyfHxEP6F2K1jreOSyOwG0_sNdrVuZVtmGSvWRM50wW-7khiMaoYSnmYkZ3xS0bLXC7Ie7wBh5Hhas0t1ZSXiTk0aqmUdKTUB5ynBTCpSFZQgEXJzrz6f9EFGbeH_-mTbTYqgNHaWys0aZdvOMSx2EL-XRRR4YNuCJ-0q74sQDbj6wPT4pvShYUtsDIBCivqYyqtEUl9-VFqq9qoiWsYa9R5CE-eNakIwAplP1SgUSgVp3qFuTMzAnoYfIx33PU-e2JGEefho_8u9nzqYy4_mK0]--></g></svg>