<?xml version="1.0" encoding="us-ascii" standalone="no"?><svg xmlns="http://www.w3.org/2000/svg" xmlns:xlink="http://www.w3.org/1999/xlink" contentStyleType="text/css" height="603px" preserveAspectRatio="none" style="width:487px;height:603px;background:#FFFFFF;" version="1.1" viewBox="0 0 487 603" width="487px" zoomAndPan="magnify"><defs/><g><text fill="#000000" font-family="sans-serif" font-size="14" font-weight="bold" lengthAdjust="spacing" textLength="228" x="128.75" y="27.6738">System Sequence Diagram (SSD)</text><rect fill="#FFFFFF" height="329.3281" style="stroke:#181818;stroke-width:1.0;" width="10" x="444.5" y="176.3281"/><rect fill="#FFFFFF" height="43.0469" style="stroke:#181818;stroke-width:1.0;" width="10" x="449.5" y="204.8516"/><rect fill="#FFFFFF" height="72.0938" style="stroke:#181818;stroke-width:1.0;" width="10" x="449.5" y="276.4219"/><rect fill="#FFFFFF" height="43.0469" style="stroke:#181818;stroke-width:1.0;" width="10" x="449.5" y="377.0391"/><rect fill="#FFFFFF" height="28.5234" style="stroke:#181818;stroke-width:1.0;" width="10" x="449.5" y="448.6094"/><line style="stroke:#181818;stroke-width:0.5;stroke-dasharray:5.0,5.0;" x1="74" x2="74" y1="117.2813" y2="523.6563"/><line style="stroke:#181818;stroke-width:0.5;stroke-dasharray:5.0,5.0;" x1="449.5" x2="449.5" y1="117.2813" y2="523.6563"/><text fill="#000000" font-family="sans-serif" font-size="14" lengthAdjust="spacing" textLength="133" x="5" y="114.3145">System Administrator</text><ellipse cx="74.5" cy="50.1406" fill="#E3E3E3" rx="8" ry="8" style="stroke:#181818;stroke-width:0.5;"/><path d="M74.5,58.1406 L74.5,85.1406 M61.5,66.1406 L87.5,66.1406 M74.5,85.1406 L61.5,100.1406 M74.5,85.1406 L87.5,100.1406 " fill="none" style="stroke:#181818;stroke-width:0.5;"/><text fill="#000000" font-family="sans-serif" font-size="14" lengthAdjust="spacing" textLength="133" x="5" y="535.3301">System Administrator</text><ellipse cx="74.5" cy="546.7969" fill="#E3E3E3" rx="8" ry="8" style="stroke:#181818;stroke-width:0.5;"/><path d="M74.5,554.7969 L74.5,581.7969 M61.5,562.7969 L87.5,562.7969 M74.5,581.7969 L61.5,596.7969 M74.5,581.7969 L87.5,596.7969 " fill="none" style="stroke:#181818;stroke-width:0.5;"/><rect fill="#E3E3E3" height="29.6406" rx="2.5" ry="2.5" style="stroke:#181818;stroke-width:0.5;" width="64" x="417.5" y="86.6406"/><text fill="#000000" font-family="sans-serif" font-size="14" lengthAdjust="spacing" textLength="50" x="424.5" y="106.3145">:System</text><rect fill="#E3E3E3" height="29.6406" rx="2.5" ry="2.5" style="stroke:#181818;stroke-width:0.5;" width="64" x="417.5" y="522.6563"/><text fill="#000000" font-family="sans-serif" font-size="14" lengthAdjust="spacing" textLength="50" x="424.5" y="542.3301">:System</text><rect fill="#FFFFFF" height="329.3281" style="stroke:#181818;stroke-width:1.0;" width="10" x="444.5" y="176.3281"/><rect fill="#FFFFFF" height="43.0469" style="stroke:#181818;stroke-width:1.0;" width="10" x="449.5" y="204.8516"/><rect fill="#FFFFFF" height="72.0938" style="stroke:#181818;stroke-width:1.0;" width="10" x="449.5" y="276.4219"/><rect fill="#FFFFFF" height="43.0469" style="stroke:#181818;stroke-width:1.0;" width="10" x="449.5" y="377.0391"/><rect fill="#FFFFFF" height="28.5234" style="stroke:#181818;stroke-width:1.0;" width="10" x="449.5" y="448.6094"/><polygon fill="#181818" points="437.5,143.8047,447.5,147.8047,437.5,151.8047,441.5,147.8047" style="stroke:#181818;stroke-width:1.0;"/><line style="stroke:#181818;stroke-width:1.0;stroke-dasharray:2.0,2.0;" x1="74.5" x2="443.5" y1="147.8047" y2="147.8047"/><text fill="#000000" font-family="sans-serif" font-size="13" font-weight="bold" lengthAdjust="spacing" textLength="7" x="81.5" y="143.0498">1</text><text fill="#000000" font-family="sans-serif" font-size="13" lengthAdjust="spacing" textLength="204" x="92.5" y="143.0498">Administrator opens the application</text><polygon fill="#181818" points="85.5,172.3281,75.5,176.3281,85.5,180.3281,81.5,176.3281" style="stroke:#181818;stroke-width:1.0;"/><line style="stroke:#181818;stroke-width:1.0;" x1="79.5" x2="443.5" y1="176.3281" y2="176.3281"/><text fill="#000000" font-family="sans-serif" font-size="13" font-weight="bold" lengthAdjust="spacing" textLength="7" x="91.5" y="171.5732">2</text><text fill="#000000" font-family="sans-serif" font-size="13" lengthAdjust="spacing" textLength="293" x="102.5" y="171.5732">Administrator needs to be logged in the application</text><polygon fill="#181818" points="437.5,200.8516,447.5,204.8516,437.5,208.8516,441.5,204.8516" style="stroke:#181818;stroke-width:1.0;"/><line style="stroke:#181818;stroke-width:1.0;" x1="74.5" x2="443.5" y1="204.8516" y2="204.8516"/><text fill="#000000" font-family="sans-serif" font-size="13" font-weight="bold" lengthAdjust="spacing" textLength="7" x="81.5" y="200.0967">3</text><text fill="#000000" font-family="sans-serif" font-size="13" lengthAdjust="spacing" textLength="185" x="92.5" y="200.0967">ask to register a new employee.</text><polygon fill="#181818" points="85.5,243.8984,75.5,247.8984,85.5,251.8984,81.5,247.8984" style="stroke:#181818;stroke-width:1.0;"/><line style="stroke:#181818;stroke-width:1.0;stroke-dasharray:2.0,2.0;" x1="79.5" x2="443.5" y1="247.8984" y2="247.8984"/><text fill="#000000" font-family="sans-serif" font-size="13" font-weight="bold" lengthAdjust="spacing" textLength="7" x="91.5" y="235.8818">4</text><text fill="#000000" font-family="sans-serif" font-size="13" lengthAdjust="spacing" textLength="270" x="102.5" y="228.6201">show a list of the role of the employee (agente,</text><text fill="#000000" font-family="sans-serif" font-size="13" lengthAdjust="spacing" textLength="235" x="102.5" y="243.1436">store manager, store network, manager).</text><polygon fill="#181818" points="437.5,272.4219,447.5,276.4219,437.5,280.4219,441.5,276.4219" style="stroke:#181818;stroke-width:1.0;"/><line style="stroke:#181818;stroke-width:1.0;" x1="74.5" x2="443.5" y1="276.4219" y2="276.4219"/><text fill="#000000" font-family="sans-serif" font-size="13" font-weight="bold" lengthAdjust="spacing" textLength="7" x="81.5" y="271.667">5</text><text fill="#000000" font-family="sans-serif" font-size="13" lengthAdjust="spacing" textLength="182" x="92.5" y="271.667">select the role of the employee.</text><polygon fill="#181818" points="85.5,344.5156,75.5,348.5156,85.5,352.5156,81.5,348.5156" style="stroke:#181818;stroke-width:1.0;"/><line style="stroke:#181818;stroke-width:1.0;stroke-dasharray:2.0,2.0;" x1="79.5" x2="443.5" y1="348.5156" y2="348.5156"/><text fill="#000000" font-family="sans-serif" font-size="13" font-weight="bold" lengthAdjust="spacing" textLength="7" x="91.5" y="321.9756">6</text><text fill="#000000" font-family="sans-serif" font-size="13" lengthAdjust="spacing" textLength="250" x="102.5" y="300.1904">request information about employee (name,</text><text fill="#000000" font-family="sans-serif" font-size="13" lengthAdjust="spacing" textLength="256" x="102.5" y="314.7139">citizen&#180;s card number, tax number, address,</text><text fill="#000000" font-family="sans-serif" font-size="13" lengthAdjust="spacing" textLength="268" x="102.5" y="329.2373">email address, contact telephone, number and</text><text fill="#000000" font-family="sans-serif" font-size="13" lengthAdjust="spacing" textLength="169" x="102.5" y="343.7607">agency to witch is assigned).</text><polygon fill="#181818" points="437.5,373.0391,447.5,377.0391,437.5,381.0391,441.5,377.0391" style="stroke:#181818;stroke-width:1.0;"/><line style="stroke:#181818;stroke-width:1.0;" x1="74.5" x2="443.5" y1="377.0391" y2="377.0391"/><text fill="#000000" font-family="sans-serif" font-size="13" font-weight="bold" lengthAdjust="spacing" textLength="7" x="81.5" y="372.2842">7</text><text fill="#000000" font-family="sans-serif" font-size="13" lengthAdjust="spacing" textLength="221" x="92.5" y="372.2842">types the information about employee.</text><polygon fill="#181818" points="85.5,416.0859,75.5,420.0859,85.5,424.0859,81.5,420.0859" style="stroke:#181818;stroke-width:1.0;"/><line style="stroke:#181818;stroke-width:1.0;stroke-dasharray:2.0,2.0;" x1="79.5" x2="443.5" y1="420.0859" y2="420.0859"/><text fill="#000000" font-family="sans-serif" font-size="13" font-weight="bold" lengthAdjust="spacing" textLength="7" x="91.5" y="408.0693">8</text><text fill="#000000" font-family="sans-serif" font-size="13" lengthAdjust="spacing" textLength="331" x="102.5" y="400.8076">request to specify the branch of the network (designation,</text><text fill="#000000" font-family="sans-serif" font-size="13" lengthAdjust="spacing" textLength="143" x="102.5" y="415.3311">location, locar manager).</text><polygon fill="#181818" points="437.5,444.6094,447.5,448.6094,437.5,452.6094,441.5,448.6094" style="stroke:#181818;stroke-width:1.0;"/><line style="stroke:#181818;stroke-width:1.0;" x1="74.5" x2="443.5" y1="448.6094" y2="448.6094"/><text fill="#000000" font-family="sans-serif" font-size="13" font-weight="bold" lengthAdjust="spacing" textLength="7" x="81.5" y="443.8545">9</text><text fill="#000000" font-family="sans-serif" font-size="13" lengthAdjust="spacing" textLength="282" x="92.5" y="443.8545">types the information about the brach of network.</text><polygon fill="#181818" points="85.5,473.1328,75.5,477.1328,85.5,481.1328,81.5,477.1328" style="stroke:#181818;stroke-width:1.0;"/><line style="stroke:#181818;stroke-width:1.0;stroke-dasharray:2.0,2.0;" x1="79.5" x2="443.5" y1="477.1328" y2="477.1328"/><text fill="#000000" font-family="sans-serif" font-size="13" font-weight="bold" lengthAdjust="spacing" textLength="14" x="91.5" y="472.3779">10</text><text fill="#000000" font-family="sans-serif" font-size="13" lengthAdjust="spacing" textLength="247" x="109.5" y="472.3779">Generate a password to the new employee</text><polygon fill="#181818" points="85.5,501.6563,75.5,505.6563,85.5,509.6563,81.5,505.6563" style="stroke:#181818;stroke-width:1.0;"/><line style="stroke:#181818;stroke-width:1.0;stroke-dasharray:2.0,2.0;" x1="79.5" x2="448.5" y1="505.6563" y2="505.6563"/><text fill="#000000" font-family="sans-serif" font-size="13" font-weight="bold" lengthAdjust="spacing" textLength="14" x="91.5" y="500.9014">11</text><text fill="#000000" font-family="sans-serif" font-size="13" lengthAdjust="spacing" textLength="162" x="109.5" y="500.9014">displays operation success.</text><!--SRC=[hLHBZjim3Dtx54HM2P3a08D1WG9Jz03PTiD8Z2r4eZIYtDGzLq_GavModKyxzQ8VhMY9UX-IbfmT9ymO84IEfiin49JSKoEtauJcZ2qTok09Cfc2tFh71EdGnelZ5axeXPgckAAfXq4A1JZGQqzi25uSjZLzVJYyR9e6-nAv3qVA6fiICwpc6-zjSEoaPDJT5Q30Xv1y78WQ9IpEk8HSOFKqvOyPKzWqCyJpRdUx14_mCoJ4H2nGEW9CoJk3nKLkuBeigHxt6SlLGtF7UjvTVRr1PIAhg16E13wsBLbmlCZoAyLuSAFPlRlJe9mhQgPMgIW3AjC5Q4xTDujeTSqeEmLyg8TqyQ8uNW4XdaQDEMhBvlYA3MljEnVQmYSMjKWGa7KhRs7wP2gNcC_Rw_vcFp6_hU2oFI6lCxMeuQ_yvJfpwitnAUOm5Xxm6FloO8qnZCQCA-uhyVTl0WQpXMacjr3moor6QpE9r7GAwFnzmqGkMEMhYzH5LiZf4Y1RJQy5D4FjtyKLqu4JxQUubibkzdzSgp8acWPtsTa_5KnrIYBZJiF8Sip8AdfkoTnjM5kg3aRoMX8VpHpNA3yCm__qD-kPvCnIVkzrsUP7Oier4_LL4r48MorFvkx_rFqfMDQ_J6AT98-3r6ScJmwaDqR7PQ4WFm00]--></g></svg>