<?xml version="1.0" encoding="us-ascii" standalone="no"?><svg xmlns="http://www.w3.org/2000/svg" xmlns:xlink="http://www.w3.org/1999/xlink" contentStyleType="text/css" height="518px" preserveAspectRatio="none" style="width:468px;height:518px;background:#FFFFFF;" version="1.1" viewBox="0 0 468 518" width="468px" zoomAndPan="magnify"><defs/><g><text fill="#000000" font-family="sans-serif" font-size="14" font-weight="bold" lengthAdjust="spacing" textLength="228" x="119.25" y="27.6738">System Sequence Diagram (SSD)</text><rect fill="#FFFFFF" height="43.0469" style="stroke:#181818;stroke-width:1.0;" width="10" x="425.5" y="147.8047"/><rect fill="#FFFFFF" height="57.5703" style="stroke:#181818;stroke-width:1.0;" width="10" x="425.5" y="219.375"/><rect fill="#FFFFFF" height="43.0469" style="stroke:#181818;stroke-width:1.0;" width="10" x="425.5" y="305.4688"/><rect fill="#FFFFFF" height="43.0469" style="stroke:#181818;stroke-width:1.0;" width="10" x="425.5" y="377.0391"/><line style="stroke:#181818;stroke-width:0.5;stroke-dasharray:5.0,5.0;" x1="74" x2="74" y1="117.2813" y2="438.0859"/><line style="stroke:#181818;stroke-width:0.5;stroke-dasharray:5.0,5.0;" x1="430.5" x2="430.5" y1="117.2813" y2="438.0859"/><text fill="#000000" font-family="sans-serif" font-size="14" lengthAdjust="spacing" textLength="133" x="5" y="114.3145">System Administrator</text><ellipse cx="74.5" cy="50.1406" fill="#E3E3E3" rx="8" ry="8" style="stroke:#181818;stroke-width:0.5;"/><path d="M74.5,58.1406 L74.5,85.1406 M61.5,66.1406 L87.5,66.1406 M74.5,85.1406 L61.5,100.1406 M74.5,85.1406 L87.5,100.1406 " fill="none" style="stroke:#181818;stroke-width:0.5;"/><text fill="#000000" font-family="sans-serif" font-size="14" lengthAdjust="spacing" textLength="133" x="5" y="449.7598">System Administrator</text><ellipse cx="74.5" cy="461.2266" fill="#E3E3E3" rx="8" ry="8" style="stroke:#181818;stroke-width:0.5;"/><path d="M74.5,469.2266 L74.5,496.2266 M61.5,477.2266 L87.5,477.2266 M74.5,496.2266 L61.5,511.2266 M74.5,496.2266 L87.5,511.2266 " fill="none" style="stroke:#181818;stroke-width:0.5;"/><rect fill="#E3E3E3" height="29.6406" rx="2.5" ry="2.5" style="stroke:#181818;stroke-width:0.5;" width="64" x="398.5" y="86.6406"/><text fill="#000000" font-family="sans-serif" font-size="14" lengthAdjust="spacing" textLength="50" x="405.5" y="106.3145">:System</text><rect fill="#E3E3E3" height="29.6406" rx="2.5" ry="2.5" style="stroke:#181818;stroke-width:0.5;" width="64" x="398.5" y="437.0859"/><text fill="#000000" font-family="sans-serif" font-size="14" lengthAdjust="spacing" textLength="50" x="405.5" y="456.7598">:System</text><rect fill="#FFFFFF" height="43.0469" style="stroke:#181818;stroke-width:1.0;" width="10" x="425.5" y="147.8047"/><rect fill="#FFFFFF" height="57.5703" style="stroke:#181818;stroke-width:1.0;" width="10" x="425.5" y="219.375"/><rect fill="#FFFFFF" height="43.0469" style="stroke:#181818;stroke-width:1.0;" width="10" x="425.5" y="305.4688"/><rect fill="#FFFFFF" height="43.0469" style="stroke:#181818;stroke-width:1.0;" width="10" x="425.5" y="377.0391"/><polygon fill="#181818" points="413.5,143.8047,423.5,147.8047,413.5,151.8047,417.5,147.8047" style="stroke:#181818;stroke-width:1.0;"/><line style="stroke:#181818;stroke-width:1.0;" x1="74.5" x2="419.5" y1="147.8047" y2="147.8047"/><text fill="#000000" font-family="sans-serif" font-size="13" font-weight="bold" lengthAdjust="spacing" textLength="7" x="81.5" y="143.0498">1</text><text fill="#000000" font-family="sans-serif" font-size="13" lengthAdjust="spacing" textLength="185" x="92.5" y="143.0498">ask to register a new employee.</text><polygon fill="#181818" points="85.5,186.8516,75.5,190.8516,85.5,194.8516,81.5,190.8516" style="stroke:#181818;stroke-width:1.0;"/><line style="stroke:#181818;stroke-width:1.0;stroke-dasharray:2.0,2.0;" x1="79.5" x2="429.5" y1="190.8516" y2="190.8516"/><text fill="#000000" font-family="sans-serif" font-size="13" font-weight="bold" lengthAdjust="spacing" textLength="7" x="91.5" y="178.835">2</text><text fill="#000000" font-family="sans-serif" font-size="13" lengthAdjust="spacing" textLength="270" x="102.5" y="171.5732">show a list of the role of the employee (agente,</text><text fill="#000000" font-family="sans-serif" font-size="13" lengthAdjust="spacing" textLength="235" x="102.5" y="186.0967">store manager, store network, manager).</text><polygon fill="#181818" points="413.5,215.375,423.5,219.375,413.5,223.375,417.5,219.375" style="stroke:#181818;stroke-width:1.0;"/><line style="stroke:#181818;stroke-width:1.0;" x1="74.5" x2="419.5" y1="219.375" y2="219.375"/><text fill="#000000" font-family="sans-serif" font-size="13" font-weight="bold" lengthAdjust="spacing" textLength="7" x="81.5" y="214.6201">3</text><text fill="#000000" font-family="sans-serif" font-size="13" lengthAdjust="spacing" textLength="182" x="92.5" y="214.6201">select the role of the employee.</text><polygon fill="#181818" points="85.5,272.9453,75.5,276.9453,85.5,280.9453,81.5,276.9453" style="stroke:#181818;stroke-width:1.0;"/><line style="stroke:#181818;stroke-width:1.0;stroke-dasharray:2.0,2.0;" x1="79.5" x2="429.5" y1="276.9453" y2="276.9453"/><text fill="#000000" font-family="sans-serif" font-size="13" font-weight="bold" lengthAdjust="spacing" textLength="7" x="91.5" y="257.667">4</text><text fill="#000000" font-family="sans-serif" font-size="13" lengthAdjust="spacing" textLength="250" x="102.5" y="243.1436">request information about employee (name,</text><text fill="#000000" font-family="sans-serif" font-size="13" lengthAdjust="spacing" textLength="312" x="102.5" y="257.667">citizen&#180;s card number, tax number, physycal address,</text><text fill="#000000" font-family="sans-serif" font-size="13" lengthAdjust="spacing" textLength="276" x="102.5" y="272.1904">email , contact telephone, number and agency).</text><polygon fill="#181818" points="413.5,301.4688,423.5,305.4688,413.5,309.4688,417.5,305.4688" style="stroke:#181818;stroke-width:1.0;"/><line style="stroke:#181818;stroke-width:1.0;" x1="74.5" x2="419.5" y1="305.4688" y2="305.4688"/><text fill="#000000" font-family="sans-serif" font-size="13" font-weight="bold" lengthAdjust="spacing" textLength="7" x="81.5" y="300.7139">5</text><text fill="#000000" font-family="sans-serif" font-size="13" lengthAdjust="spacing" textLength="221" x="92.5" y="300.7139">types the information about employee.</text><polygon fill="#181818" points="85.5,344.5156,75.5,348.5156,85.5,352.5156,81.5,348.5156" style="stroke:#181818;stroke-width:1.0;"/><line style="stroke:#181818;stroke-width:1.0;stroke-dasharray:2.0,2.0;" x1="79.5" x2="429.5" y1="348.5156" y2="348.5156"/><text fill="#000000" font-family="sans-serif" font-size="13" font-weight="bold" lengthAdjust="spacing" textLength="7" x="91.5" y="336.499">6</text><text fill="#000000" font-family="sans-serif" font-size="13" lengthAdjust="spacing" textLength="287" x="102.5" y="329.2373">request to specify the company branch (id, name,</text><text fill="#000000" font-family="sans-serif" font-size="13" lengthAdjust="spacing" textLength="182" x="102.5" y="343.7607">localization, phone number, email).</text><polygon fill="#181818" points="413.5,373.0391,423.5,377.0391,413.5,381.0391,417.5,377.0391" style="stroke:#181818;stroke-width:1.0;"/><line style="stroke:#181818;stroke-width:1.0;" x1="74.5" x2="419.5" y1="377.0391" y2="377.0391"/><text fill="#000000" font-family="sans-serif" font-size="13" font-weight="bold" lengthAdjust="spacing" textLength="7" x="81.5" y="372.2842">7</text><text fill="#000000" font-family="sans-serif" font-size="13" lengthAdjust="spacing" textLength="283" x="92.5" y="372.2842">types the information about the company branch.</text><polygon fill="#181818" points="85.5,416.0859,75.5,420.0859,85.5,424.0859,81.5,420.0859" style="stroke:#181818;stroke-width:1.0;"/><line style="stroke:#181818;stroke-width:1.0;stroke-dasharray:2.0,2.0;" x1="79.5" x2="429.5" y1="420.0859" y2="420.0859"/><text fill="#000000" font-family="sans-serif" font-size="13" font-weight="bold" lengthAdjust="spacing" textLength="7" x="91.5" y="408.0693">8</text><text fill="#000000" font-family="sans-serif" font-size="13" lengthAdjust="spacing" textLength="247" x="102.5" y="400.8076">Generate a password to the new employee</text><text fill="#000000" font-family="sans-serif" font-size="13" lengthAdjust="spacing" textLength="187" x="102.5" y="415.3311">and displays operation success.</text><!--SRC=[hPHDZjim38NtFWMHLG9uSe0i2XIOeWV8jXj6OcmX4kLAT5FDkUO4FLafsp5ID5dqnojPUNpYzoWdNnmFc310Y1nDds8Wa3HIazTV1ZGNxEWenHCaCeBS-Nj1xj76g-CEpkWpDOquKUcnPA40H_ew4Xk2LuTTbM-FnzTTq-0eaSTmegHh8p71PgduQ8DZboMXxcu0CtmAWu-5gD43nHat80ji3hD-KipBfW5zRcfu-N1hug2Q2qZK_ZjrfWG8J5UWHRgV2hKDzms5Vd6hp-BoeeQh-K6vurLzl1f2F8Fq6azKy6LzyuQjfiT2BNpXh4G40LctKWlpAvDSOxgqj_tTVZxPqiE67k9byZgPfpty5L-garCsn-UO0egB37YAezoXCOO9p3XnRyG_tZCOJ1RcoROW-7rT3tt9nQ07j3PHphME0ZeFBPZ8WXL0EOO-ifhEPO1ieGPeocx_nx586IXFIJo7-ATiz4hbWOmxb-aK4uFUpGAdX6nws3gh74j4Ffhf-1g40gwnJ17yPxRVUtbC-HpmCp6bgaJz0yXPBwYjiDNu_iDHhZeWw_BWiMI8GwsgZUJH61toVWto8TzF]--></g></svg>