<?xml version="1.0" encoding="us-ascii" standalone="no"?><svg xmlns="http://www.w3.org/2000/svg" xmlns:xlink="http://www.w3.org/1999/xlink" contentStyleType="text/css" height="642px" preserveAspectRatio="none" style="width:118px;height:642px;background:#FFFFFF;" version="1.1" viewBox="0 0 118 642" width="118px" zoomAndPan="magnify"><defs/><g><!--class Store--><g id="elem_Store"><rect codeLine="12" fill="#F1F1F1" height="96.2031" id="Store" rx="2.5" ry="2.5" style="stroke:#181818;stroke-width:0.5;" width="101" x="7" y="7"/><text fill="#000000" font-family="sans-serif" font-size="14" lengthAdjust="spacing" textLength="34" x="40.5" y="24.6738">Store</text><line style="stroke:#181818;stroke-width:0.5;" x1="8" x2="107" y1="32.6406" y2="32.6406"/><text fill="#000000" font-family="sans-serif" font-size="14" lengthAdjust="spacing" textLength="73" x="13" y="49.3145">designation</text><text fill="#000000" font-family="sans-serif" font-size="14" lengthAdjust="spacing" textLength="13" x="13" y="64.9551">ID</text><text fill="#000000" font-family="sans-serif" font-size="14" lengthAdjust="spacing" textLength="89" x="13" y="80.5957">phoneNumber</text><text fill="#000000" font-family="sans-serif" font-size="14" lengthAdjust="spacing" textLength="85" x="13" y="96.2363">emailAddress</text></g><!--class State--><g id="elem_State"><rect codeLine="19" fill="#F1F1F1" height="49.2813" id="State" rx="2.5" ry="2.5" style="stroke:#181818;stroke-width:0.5;" width="79" x="18" y="461"/><text fill="#000000" font-family="sans-serif" font-size="14" lengthAdjust="spacing" textLength="33" x="41" y="478.6738">State</text><line style="stroke:#181818;stroke-width:0.5;" x1="19" x2="96" y1="486.6406" y2="486.6406"/><text fill="#000000" font-family="sans-serif" font-size="14" lengthAdjust="spacing" textLength="67" x="24" y="503.3145">stateName</text></g><!--class District--><g id="elem_District"><rect codeLine="23" fill="#F1F1F1" height="49.2813" id="District" rx="2.5" ry="2.5" style="stroke:#181818;stroke-width:0.5;" width="89" x="13" y="586"/><text fill="#000000" font-family="sans-serif" font-size="14" lengthAdjust="spacing" textLength="43" x="36" y="603.6738">District</text><line style="stroke:#181818;stroke-width:0.5;" x1="14" x2="101" y1="611.6406" y2="611.6406"/><text fill="#000000" font-family="sans-serif" font-size="14" lengthAdjust="spacing" textLength="77" x="19" y="628.3145">districtName</text></g><!--class City--><g id="elem_City"><rect codeLine="27" fill="#F1F1F1" height="49.2813" id="City" rx="2.5" ry="2.5" style="stroke:#181818;stroke-width:0.5;" width="69" x="23" y="336"/><text fill="#000000" font-family="sans-serif" font-size="14" lengthAdjust="spacing" textLength="24" x="45.5" y="353.6738">City</text><line style="stroke:#181818;stroke-width:0.5;" x1="24" x2="91" y1="361.6406" y2="361.6406"/><text fill="#000000" font-family="sans-serif" font-size="14" lengthAdjust="spacing" textLength="57" x="29" y="378.3145">cityName</text></g><!--class Address--><g id="elem_Address"><rect codeLine="31" fill="#F1F1F1" height="80.5625" id="Address" rx="2.5" ry="2.5" style="stroke:#181818;stroke-width:0.5;" width="90" x="12.5" y="179"/><text fill="#000000" font-family="sans-serif" font-size="14" lengthAdjust="spacing" textLength="52" x="31.5" y="196.6738">Address</text><line style="stroke:#181818;stroke-width:0.5;" x1="13.5" x2="101.5" y1="204.6406" y2="204.6406"/><text fill="#000000" font-family="sans-serif" font-size="14" lengthAdjust="spacing" textLength="36" x="18.5" y="221.3145">street</text><text fill="#000000" font-family="sans-serif" font-size="14" lengthAdjust="spacing" textLength="72" x="18.5" y="236.9551">postalCode</text><text fill="#000000" font-family="sans-serif" font-size="14" lengthAdjust="spacing" textLength="78" x="18.5" y="252.5957">doorNumber</text></g><!--link Address to City--><g id="link_Address_City"><path codeLine="37" d="M57.5,260.33 C57.5,284.72 57.5,315.11 57.5,335.77 " fill="none" id="Address-City" style="stroke:#181818;stroke-width:1.0;"/><polygon fill="#000000" points="62.5,303.2617,65.4389,294.2166,59.5611,294.2166,62.5,303.2617" style="stroke:#000000;stroke-width:1.0;"/><text fill="#000000" font-family="sans-serif" font-size="13" lengthAdjust="spacing" textLength="10" x="71.5" y="302.7686">in</text></g><!--link City to State--><g id="link_City_State"><path codeLine="38" d="M57.5,385.22 C57.5,407 57.5,439.1 57.5,460.86 " fill="none" id="City-State" style="stroke:#181818;stroke-width:1.0;"/><polygon fill="#000000" points="62.5,428.2617,65.4389,419.2166,59.5611,419.2166,62.5,428.2617" style="stroke:#000000;stroke-width:1.0;"/><text fill="#000000" font-family="sans-serif" font-size="13" lengthAdjust="spacing" textLength="10" x="71.5" y="427.7686">in</text></g><!--link State to District--><g id="link_State_District"><path codeLine="39" d="M57.5,510.22 C57.5,532 57.5,564.1 57.5,585.86 " fill="none" id="State-District" style="stroke:#181818;stroke-width:1.0;"/><polygon fill="#000000" points="62.5,553.2617,65.4389,544.2166,59.5611,544.2166,62.5,553.2617" style="stroke:#000000;stroke-width:1.0;"/><text fill="#000000" font-family="sans-serif" font-size="13" lengthAdjust="spacing" textLength="10" x="71.5" y="552.7686">in</text></g><!--link Store to Address--><g id="link_Store_Address"><path codeLine="40" d="M57.5,103 C57.5,127 57.5,155.87 57.5,178.75 " fill="none" id="Store-Address" style="stroke:#181818;stroke-width:1.0;"/><polygon fill="#000000" points="62.5,146.2617,65.4389,137.2166,59.5611,137.2166,62.5,146.2617" style="stroke:#000000;stroke-width:1.0;"/><text fill="#000000" font-family="sans-serif" font-size="13" lengthAdjust="spacing" textLength="39" x="71.5" y="145.7686">has an</text><text fill="#000000" font-family="sans-serif" font-size="13" lengthAdjust="spacing" textLength="7" x="49.9859" y="122.8702">1</text></g><!--SRC=[LL2xRa8n3Dtp5HPB9wHsPQY4O65XuGjCOcuiaXZ5HXMj-k_DVKBl4XyVduUkNhdSi6A6B4Lyh989hDx9wSBSq5-nevCz4a4bRrYwz7gW4ODySUdWWad9kRT45mCJgDn5Wy2zYgMu5v5FgBergto-6nsyb1D_4xmx5paGUAw-XGnp9eiIrBb10oUJIl3Ze7s1bBk2WtcF3_lXkKKfTBpdCzK1KqPEsn0ggRhVfn7QRAJzVCHCJthFsjfvcwCc-Fzen_QO3dmR_vDJuX9HYMpi9oqlxIJGQ2rIfxPDEwjWlORHVmDSuDCDSrkElQVb2DfsgRiG_MzQVQmQELjk8A82zlGV]--></g></svg>