<?xml version="1.0" encoding="us-ascii" standalone="no"?><svg xmlns="http://www.w3.org/2000/svg" xmlns:xlink="http://www.w3.org/1999/xlink" contentStyleType="text/css" height="955px" preserveAspectRatio="none" style="width:1244px;height:955px;background:#FFFFFF;" version="1.1" viewBox="0 0 1244 955" width="1244px" zoomAndPan="magnify"><defs/><g><text fill="#000000" font-family="sans-serif" font-size="14" font-weight="bold" lengthAdjust="spacing" textLength="189" x="520.5" y="22.6738">US018 - Class Diagram (CD)</text><!--class DealsAnalysisUI--><g id="elem_DealsAnalysisUI"><rect codeLine="12" fill="#F1F1F1" height="48" id="DealsAnalysisUI" rx="2.5" ry="2.5" style="stroke:#181818;stroke-width:0.5;" width="132" x="544" y="43.6406"/><ellipse cx="559" cy="59.6406" fill="#ADD1B2" rx="11" ry="11" style="stroke:#181818;stroke-width:1.0;"/><path d="M561.7656,55.5156 Q561.9219,55.2969 562.1094,55.1875 Q562.2969,55.0781 562.5156,55.0781 Q562.8906,55.0781 563.125,55.3438 Q563.3594,55.5938 563.3594,56.2031 L563.3594,57.6563 Q563.3594,58.2656 563.125,58.5313 Q562.8906,58.7969 562.5156,58.7969 Q562.1719,58.7969 561.9688,58.5938 Q561.7656,58.4063 561.6563,57.8906 Q561.6094,57.5313 561.4219,57.3438 Q561.0938,56.9688 560.4844,56.75 Q559.875,56.5313 559.25,56.5313 Q558.4844,56.5313 557.8438,56.8594 Q557.2188,57.1875 556.7188,57.9375 Q556.2344,58.6875 556.2344,59.7188 L556.2344,60.8125 Q556.2344,62.0469 557.125,62.875 Q558.0156,63.6875 559.6094,63.6875 Q560.5469,63.6875 561.2031,63.4375 Q561.5938,63.2813 562.0156,62.8438 Q562.2813,62.5781 562.4219,62.5 Q562.5781,62.4219 562.7813,62.4219 Q563.1094,62.4219 563.3594,62.6875 Q563.625,62.9375 563.625,63.2813 Q563.625,63.625 563.2813,64.0313 Q562.7813,64.6094 561.9844,64.9375 Q560.9063,65.3906 559.6094,65.3906 Q558.0938,65.3906 556.8906,64.7656 Q555.9063,64.2656 555.2188,63.2031 Q554.5313,62.125 554.5313,60.8438 L554.5313,59.6875 Q554.5313,58.3594 555.1406,57.2188 Q555.7656,56.0625 556.8594,55.4531 Q557.9531,54.8281 559.1875,54.8281 Q559.9219,54.8281 560.5625,55 Q561.2188,55.1563 561.7656,55.5156 Z " fill="#000000"/><text fill="#000000" font-family="sans-serif" font-size="14" lengthAdjust="spacing" textLength="100" x="573" y="64.4941">DealsAnalysisUI</text><line style="stroke:#181818;stroke-width:0.5;" x1="545" x2="675" y1="75.6406" y2="75.6406"/><line style="stroke:#181818;stroke-width:0.5;" x1="545" x2="675" y1="83.6406" y2="83.6406"/></g><!--class DealsAnalysisController--><g id="elem_DealsAnalysisController"><rect codeLine="15" fill="#F1F1F1" height="110.5625" id="DealsAnalysisController" rx="2.5" ry="2.5" style="stroke:#181818;stroke-width:0.5;" width="278" x="471" y="152.6406"/><ellipse cx="530.75" cy="168.6406" fill="#ADD1B2" rx="11" ry="11" style="stroke:#181818;stroke-width:1.0;"/><path d="M533.5156,164.5156 Q533.6719,164.2969 533.8594,164.1875 Q534.0469,164.0781 534.2656,164.0781 Q534.6406,164.0781 534.875,164.3438 Q535.1094,164.5938 535.1094,165.2031 L535.1094,166.6563 Q535.1094,167.2656 534.875,167.5313 Q534.6406,167.7969 534.2656,167.7969 Q533.9219,167.7969 533.7188,167.5938 Q533.5156,167.4063 533.4063,166.8906 Q533.3594,166.5313 533.1719,166.3438 Q532.8438,165.9688 532.2344,165.75 Q531.625,165.5313 531,165.5313 Q530.2344,165.5313 529.5938,165.8594 Q528.9688,166.1875 528.4688,166.9375 Q527.9844,167.6875 527.9844,168.7188 L527.9844,169.8125 Q527.9844,171.0469 528.875,171.875 Q529.7656,172.6875 531.3594,172.6875 Q532.2969,172.6875 532.9531,172.4375 Q533.3438,172.2813 533.7656,171.8438 Q534.0313,171.5781 534.1719,171.5 Q534.3281,171.4219 534.5313,171.4219 Q534.8594,171.4219 535.1094,171.6875 Q535.375,171.9375 535.375,172.2813 Q535.375,172.625 535.0313,173.0313 Q534.5313,173.6094 533.7344,173.9375 Q532.6563,174.3906 531.3594,174.3906 Q529.8438,174.3906 528.6406,173.7656 Q527.6563,173.2656 526.9688,172.2031 Q526.2813,171.125 526.2813,169.8438 L526.2813,168.6875 Q526.2813,167.3594 526.8906,166.2188 Q527.5156,165.0625 528.6094,164.4531 Q529.7031,163.8281 530.9375,163.8281 Q531.6719,163.8281 532.3125,164 Q532.9688,164.1563 533.5156,164.5156 Z " fill="#000000"/><text fill="#000000" font-family="sans-serif" font-size="14" lengthAdjust="spacing" textLength="150" x="551.25" y="173.4941">DealsAnalysisController</text><line style="stroke:#181818;stroke-width:0.5;" x1="472" x2="748" y1="184.6406" y2="184.6406"/><line style="stroke:#181818;stroke-width:0.5;" x1="472" x2="748" y1="192.6406" y2="192.6406"/><text fill="#000000" font-family="sans-serif" font-size="14" lengthAdjust="spacing" textLength="58" x="477" y="209.3145">+create()</text><text fill="#000000" font-family="sans-serif" font-size="14" lengthAdjust="spacing" textLength="209" x="477" y="224.9551">+simpleLinearRegression(option)</text><text fill="#000000" font-family="sans-serif" font-size="14" lengthAdjust="spacing" textLength="198" x="477" y="240.5957">+multiLinearRegression(option)</text><text fill="#000000" font-family="sans-serif" font-size="14" lengthAdjust="spacing" textLength="266" x="477" y="256.2363">+receiveDescriptiveStats(descriptiveStats)</text></g><!--class OrderRepository--><g id="elem_OrderRepository"><rect codeLine="22" fill="#F1F1F1" height="157.4844" id="OrderRepository" rx="2.5" ry="2.5" style="stroke:#181818;stroke-width:0.5;" width="299" x="23.5" y="689.6406"/><ellipse cx="116.25" cy="705.6406" fill="#ADD1B2" rx="11" ry="11" style="stroke:#181818;stroke-width:1.0;"/><path d="M119.0156,701.5156 Q119.1719,701.2969 119.3594,701.1875 Q119.5469,701.0781 119.7656,701.0781 Q120.1406,701.0781 120.375,701.3438 Q120.6094,701.5938 120.6094,702.2031 L120.6094,703.6563 Q120.6094,704.2656 120.375,704.5313 Q120.1406,704.7969 119.7656,704.7969 Q119.4219,704.7969 119.2188,704.5938 Q119.0156,704.4063 118.9063,703.8906 Q118.8594,703.5313 118.6719,703.3438 Q118.3438,702.9688 117.7344,702.75 Q117.125,702.5313 116.5,702.5313 Q115.7344,702.5313 115.0938,702.8594 Q114.4688,703.1875 113.9688,703.9375 Q113.4844,704.6875 113.4844,705.7188 L113.4844,706.8125 Q113.4844,708.0469 114.375,708.875 Q115.2656,709.6875 116.8594,709.6875 Q117.7969,709.6875 118.4531,709.4375 Q118.8438,709.2813 119.2656,708.8438 Q119.5313,708.5781 119.6719,708.5 Q119.8281,708.4219 120.0313,708.4219 Q120.3594,708.4219 120.6094,708.6875 Q120.875,708.9375 120.875,709.2813 Q120.875,709.625 120.5313,710.0313 Q120.0313,710.6094 119.2344,710.9375 Q118.1563,711.3906 116.8594,711.3906 Q115.3438,711.3906 114.1406,710.7656 Q113.1563,710.2656 112.4688,709.2031 Q111.7813,708.125 111.7813,706.8438 L111.7813,705.6875 Q111.7813,704.3594 112.3906,703.2188 Q113.0156,702.0625 114.1094,701.4531 Q115.2031,700.8281 116.4375,700.8281 Q117.1719,700.8281 117.8125,701 Q118.4688,701.1563 119.0156,701.5156 Z " fill="#000000"/><text fill="#000000" font-family="sans-serif" font-size="14" lengthAdjust="spacing" textLength="105" x="136.75" y="710.4941">OrderRepository</text><line style="stroke:#181818;stroke-width:0.5;" x1="24.5" x2="321.5" y1="721.6406" y2="721.6406"/><text fill="#000000" font-family="sans-serif" font-size="14" lengthAdjust="spacing" textLength="118" x="29.5" y="738.3145">-List&lt;Order&gt; order</text><line style="stroke:#181818;stroke-width:0.5;" x1="24.5" x2="321.5" y1="745.2813" y2="745.2813"/><text fill="#000000" font-family="sans-serif" font-size="14" lengthAdjust="spacing" textLength="139" x="29.5" y="761.9551">+addNewOrder(order)</text><text fill="#000000" font-family="sans-serif" font-size="14" lengthAdjust="spacing" textLength="272" x="29.5" y="777.5957">+validateOrder(announcement, orderPrice)</text><text fill="#000000" font-family="sans-serif" font-size="14" lengthAdjust="spacing" textLength="81" x="29.5" y="793.2363">+valid(order)</text><text fill="#000000" font-family="sans-serif" font-size="14" lengthAdjust="spacing" textLength="82" x="29.5" y="808.877">+getOrders()</text><text fill="#000000" font-family="sans-serif" font-size="14" lengthAdjust="spacing" textLength="287" x="29.5" y="824.5176">+getOrdersByAnnouncement(announcement)</text><text fill="#000000" font-family="sans-serif" font-size="14" lengthAdjust="spacing" textLength="76" x="29.5" y="840.1582">+add(order)</text></g><!--class Announcements--><g id="elem_Announcements"><rect codeLine="33" fill="#F1F1F1" height="94.9219" id="Announcements" rx="2.5" ry="2.5" style="stroke:#181818;stroke-width:0.5;" width="219" x="688.5" y="720.6406"/><ellipse cx="742.75" cy="736.6406" fill="#ADD1B2" rx="11" ry="11" style="stroke:#181818;stroke-width:1.0;"/><path d="M745.5156,732.5156 Q745.6719,732.2969 745.8594,732.1875 Q746.0469,732.0781 746.2656,732.0781 Q746.6406,732.0781 746.875,732.3438 Q747.1094,732.5938 747.1094,733.2031 L747.1094,734.6563 Q747.1094,735.2656 746.875,735.5313 Q746.6406,735.7969 746.2656,735.7969 Q745.9219,735.7969 745.7188,735.5938 Q745.5156,735.4063 745.4063,734.8906 Q745.3594,734.5313 745.1719,734.3438 Q744.8438,733.9688 744.2344,733.75 Q743.625,733.5313 743,733.5313 Q742.2344,733.5313 741.5938,733.8594 Q740.9688,734.1875 740.4688,734.9375 Q739.9844,735.6875 739.9844,736.7188 L739.9844,737.8125 Q739.9844,739.0469 740.875,739.875 Q741.7656,740.6875 743.3594,740.6875 Q744.2969,740.6875 744.9531,740.4375 Q745.3438,740.2813 745.7656,739.8438 Q746.0313,739.5781 746.1719,739.5 Q746.3281,739.4219 746.5313,739.4219 Q746.8594,739.4219 747.1094,739.6875 Q747.375,739.9375 747.375,740.2813 Q747.375,740.625 747.0313,741.0313 Q746.5313,741.6094 745.7344,741.9375 Q744.6563,742.3906 743.3594,742.3906 Q741.8438,742.3906 740.6406,741.7656 Q739.6563,741.2656 738.9688,740.2031 Q738.2813,739.125 738.2813,737.8438 L738.2813,736.6875 Q738.2813,735.3594 738.8906,734.2188 Q739.5156,733.0625 740.6094,732.4531 Q741.7031,731.8281 742.9375,731.8281 Q743.6719,731.8281 744.3125,732 Q744.9688,732.1563 745.5156,732.5156 Z " fill="#000000"/><text fill="#000000" font-family="sans-serif" font-size="14" lengthAdjust="spacing" textLength="102" x="763.25" y="741.4941">Announcements</text><line style="stroke:#181818;stroke-width:0.5;" x1="689.5" x2="906.5" y1="752.6406" y2="752.6406"/><line style="stroke:#181818;stroke-width:0.5;" x1="689.5" x2="906.5" y1="760.6406" y2="760.6406"/><text fill="#000000" font-family="sans-serif" font-size="14" lengthAdjust="spacing" textLength="207" x="694.5" y="777.3145">+getSimpleParameterList(option)</text><text fill="#000000" font-family="sans-serif" font-size="14" lengthAdjust="spacing" textLength="141" x="694.5" y="792.9551">+getAllParameterList()</text><text fill="#000000" font-family="sans-serif" font-size="14" lengthAdjust="spacing" textLength="176" x="694.5" y="808.5957">+getAnnouncementValues()</text></g><!--class SimpleLinear--><g id="elem_SimpleLinear"><rect codeLine="39" fill="#F1F1F1" height="360.8125" id="SimpleLinear" rx="2.5" ry="2.5" style="stroke:#181818;stroke-width:0.5;" width="259" x="380.5" y="587.6406"/><ellipse cx="464.75" cy="603.6406" fill="#ADD1B2" rx="11" ry="11" style="stroke:#181818;stroke-width:1.0;"/><path d="M467.5156,599.5156 Q467.6719,599.2969 467.8594,599.1875 Q468.0469,599.0781 468.2656,599.0781 Q468.6406,599.0781 468.875,599.3438 Q469.1094,599.5938 469.1094,600.2031 L469.1094,601.6563 Q469.1094,602.2656 468.875,602.5313 Q468.6406,602.7969 468.2656,602.7969 Q467.9219,602.7969 467.7188,602.5938 Q467.5156,602.4063 467.4063,601.8906 Q467.3594,601.5313 467.1719,601.3438 Q466.8438,600.9688 466.2344,600.75 Q465.625,600.5313 465,600.5313 Q464.2344,600.5313 463.5938,600.8594 Q462.9688,601.1875 462.4688,601.9375 Q461.9844,602.6875 461.9844,603.7188 L461.9844,604.8125 Q461.9844,606.0469 462.875,606.875 Q463.7656,607.6875 465.3594,607.6875 Q466.2969,607.6875 466.9531,607.4375 Q467.3438,607.2813 467.7656,606.8438 Q468.0313,606.5781 468.1719,606.5 Q468.3281,606.4219 468.5313,606.4219 Q468.8594,606.4219 469.1094,606.6875 Q469.375,606.9375 469.375,607.2813 Q469.375,607.625 469.0313,608.0313 Q468.5313,608.6094 467.7344,608.9375 Q466.6563,609.3906 465.3594,609.3906 Q463.8438,609.3906 462.6406,608.7656 Q461.6563,608.2656 460.9688,607.2031 Q460.2813,606.125 460.2813,604.8438 L460.2813,603.6875 Q460.2813,602.3594 460.8906,601.2188 Q461.5156,600.0625 462.6094,599.4531 Q463.7031,598.8281 464.9375,598.8281 Q465.6719,598.8281 466.3125,599 Q466.9688,599.1563 467.5156,599.5156 Z " fill="#000000"/><text fill="#000000" font-family="sans-serif" font-size="14" lengthAdjust="spacing" textLength="82" x="485.25" y="608.4941">SimpleLinear</text><line style="stroke:#181818;stroke-width:0.5;" x1="381.5" x2="638.5" y1="619.6406" y2="619.6406"/><text fill="#000000" font-family="sans-serif" font-size="14" lengthAdjust="spacing" textLength="194" x="386.5" y="636.3145">-regression: SimpleRegression</text><text fill="#000000" font-family="sans-serif" font-size="14" lengthAdjust="spacing" textLength="36" x="386.5" y="651.9551">-n: int</text><text fill="#000000" font-family="sans-serif" font-size="14" lengthAdjust="spacing" textLength="77" x="386.5" y="667.5957">-Sxx: double</text><text fill="#000000" font-family="sans-serif" font-size="14" lengthAdjust="spacing" textLength="79" x="386.5" y="683.2363">-Syy: double</text><text fill="#000000" font-family="sans-serif" font-size="14" lengthAdjust="spacing" textLength="78" x="386.5" y="698.877">-Sxy: double</text><text fill="#000000" font-family="sans-serif" font-size="14" lengthAdjust="spacing" textLength="74" x="386.5" y="714.5176">-SE: double</text><text fill="#000000" font-family="sans-serif" font-size="14" lengthAdjust="spacing" textLength="75" x="386.5" y="730.1582">-SR: double</text><text fill="#000000" font-family="sans-serif" font-size="14" lengthAdjust="spacing" textLength="87" x="386.5" y="745.7988">-avgX: double</text><text fill="#000000" font-family="sans-serif" font-size="14" lengthAdjust="spacing" textLength="88" x="386.5" y="761.4395">-avgY: double</text><text fill="#000000" font-family="sans-serif" font-size="14" lengthAdjust="spacing" textLength="90" x="386.5" y="777.0801">-slope: double</text><text fill="#000000" font-family="sans-serif" font-size="14" lengthAdjust="spacing" textLength="111" x="386.5" y="792.7207">-intercept: double</text><text fill="#000000" font-family="sans-serif" font-size="14" lengthAdjust="spacing" textLength="110" x="386.5" y="808.3613">-squareR: double</text><line style="stroke:#181818;stroke-width:0.5;" x1="381.5" x2="638.5" y1="815.3281" y2="815.3281"/><text fill="#000000" font-family="sans-serif" font-size="14" lengthAdjust="spacing" textLength="171" x="386.5" y="832.002">+getCoefficients(): double[]</text><text fill="#000000" font-family="sans-serif" font-size="14" lengthAdjust="spacing" textLength="112" x="386.5" y="847.6426">+toString(): String</text><text fill="#000000" font-family="sans-serif" font-size="14" lengthAdjust="spacing" textLength="171" x="386.5" y="863.2832">+anovaSingificanceModel()</text><text fill="#000000" font-family="sans-serif" font-size="14" lengthAdjust="spacing" textLength="247" x="386.5" y="878.9238">+calculateInterceptConfidenceInterval()</text><text fill="#000000" font-family="sans-serif" font-size="14" lengthAdjust="spacing" textLength="228" x="386.5" y="894.5645">+calculateSlopeConfidenceInterval()</text><text fill="#000000" font-family="sans-serif" font-size="14" lengthAdjust="spacing" textLength="226" x="386.5" y="910.2051">+calculateInterceptHyopthesisTest()</text><text fill="#000000" font-family="sans-serif" font-size="14" lengthAdjust="spacing" textLength="207" x="386.5" y="925.8457">+calculateSlopeHyopthesisTest()</text><text fill="#000000" font-family="sans-serif" font-size="14" lengthAdjust="spacing" textLength="170" x="386.5" y="941.4863">+generateAnalysisReport()</text></g><!--class SimpleLinearRegression--><g id="elem_SimpleLinearRegression"><rect codeLine="63" fill="#F1F1F1" height="63.6406" id="SimpleLinearRegression" rx="2.5" ry="2.5" style="stroke:#181818;stroke-width:0.5;" width="247" x="386.5" y="432.1406"/><ellipse cx="428.95" cy="448.1406" fill="#ADD1B2" rx="11" ry="11" style="stroke:#181818;stroke-width:1.0;"/><path d="M431.7156,444.0156 Q431.8719,443.7969 432.0594,443.6875 Q432.2469,443.5781 432.4656,443.5781 Q432.8406,443.5781 433.075,443.8438 Q433.3094,444.0938 433.3094,444.7031 L433.3094,446.1563 Q433.3094,446.7656 433.075,447.0313 Q432.8406,447.2969 432.4656,447.2969 Q432.1219,447.2969 431.9188,447.0938 Q431.7156,446.9063 431.6063,446.3906 Q431.5594,446.0313 431.3719,445.8438 Q431.0438,445.4688 430.4344,445.25 Q429.825,445.0313 429.2,445.0313 Q428.4344,445.0313 427.7938,445.3594 Q427.1688,445.6875 426.6688,446.4375 Q426.1844,447.1875 426.1844,448.2188 L426.1844,449.3125 Q426.1844,450.5469 427.075,451.375 Q427.9656,452.1875 429.5594,452.1875 Q430.4969,452.1875 431.1531,451.9375 Q431.5438,451.7813 431.9656,451.3438 Q432.2313,451.0781 432.3719,451 Q432.5281,450.9219 432.7313,450.9219 Q433.0594,450.9219 433.3094,451.1875 Q433.575,451.4375 433.575,451.7813 Q433.575,452.125 433.2313,452.5313 Q432.7313,453.1094 431.9344,453.4375 Q430.8563,453.8906 429.5594,453.8906 Q428.0438,453.8906 426.8406,453.2656 Q425.8563,452.7656 425.1688,451.7031 Q424.4813,450.625 424.4813,449.3438 L424.4813,448.1875 Q424.4813,446.8594 425.0906,445.7188 Q425.7156,444.5625 426.8094,443.9531 Q427.9031,443.3281 429.1375,443.3281 Q429.8719,443.3281 430.5125,443.5 Q431.1688,443.6563 431.7156,444.0156 Z " fill="#000000"/><text fill="#000000" font-family="sans-serif" font-size="14" lengthAdjust="spacing" textLength="154" x="449.05" y="452.9941">SimpleLinearRegression</text><line style="stroke:#181818;stroke-width:0.5;" x1="387.5" x2="632.5" y1="464.1406" y2="464.1406"/><line style="stroke:#181818;stroke-width:0.5;" x1="387.5" x2="632.5" y1="472.1406" y2="472.1406"/><text fill="#000000" font-family="sans-serif" font-size="14" lengthAdjust="spacing" textLength="235" x="392.5" y="488.8145">+getRegressionModel(parameterList)</text></g><!--class MultiLinearRegression--><g id="elem_MultiLinearRegression"><rect codeLine="67" fill="#F1F1F1" height="63.6406" id="MultiLinearRegression" rx="2.5" ry="2.5" style="stroke:#181818;stroke-width:0.5;" width="254" x="970" y="432.1406"/><ellipse cx="1022.25" cy="448.1406" fill="#ADD1B2" rx="11" ry="11" style="stroke:#181818;stroke-width:1.0;"/><path d="M1025.0156,444.0156 Q1025.1719,443.7969 1025.3594,443.6875 Q1025.5469,443.5781 1025.7656,443.5781 Q1026.1406,443.5781 1026.375,443.8438 Q1026.6094,444.0938 1026.6094,444.7031 L1026.6094,446.1563 Q1026.6094,446.7656 1026.375,447.0313 Q1026.1406,447.2969 1025.7656,447.2969 Q1025.4219,447.2969 1025.2188,447.0938 Q1025.0156,446.9063 1024.9063,446.3906 Q1024.8594,446.0313 1024.6719,445.8438 Q1024.3438,445.4688 1023.7344,445.25 Q1023.125,445.0313 1022.5,445.0313 Q1021.7344,445.0313 1021.0938,445.3594 Q1020.4688,445.6875 1019.9688,446.4375 Q1019.4844,447.1875 1019.4844,448.2188 L1019.4844,449.3125 Q1019.4844,450.5469 1020.375,451.375 Q1021.2656,452.1875 1022.8594,452.1875 Q1023.7969,452.1875 1024.4531,451.9375 Q1024.8438,451.7813 1025.2656,451.3438 Q1025.5313,451.0781 1025.6719,451 Q1025.8281,450.9219 1026.0313,450.9219 Q1026.3594,450.9219 1026.6094,451.1875 Q1026.875,451.4375 1026.875,451.7813 Q1026.875,452.125 1026.5313,452.5313 Q1026.0313,453.1094 1025.2344,453.4375 Q1024.1563,453.8906 1022.8594,453.8906 Q1021.3438,453.8906 1020.1406,453.2656 Q1019.1563,452.7656 1018.4688,451.7031 Q1017.7813,450.625 1017.7813,449.3438 L1017.7813,448.1875 Q1017.7813,446.8594 1018.3906,445.7188 Q1019.0156,444.5625 1020.1094,443.9531 Q1021.2031,443.3281 1022.4375,443.3281 Q1023.1719,443.3281 1023.8125,443.5 Q1024.4688,443.6563 1025.0156,444.0156 Z " fill="#000000"/><text fill="#000000" font-family="sans-serif" font-size="14" lengthAdjust="spacing" textLength="141" x="1042.75" y="452.9941">MultiLinearRegression</text><line style="stroke:#181818;stroke-width:0.5;" x1="971" x2="1223" y1="464.1406" y2="464.1406"/><line style="stroke:#181818;stroke-width:0.5;" x1="971" x2="1223" y1="472.1406" y2="472.1406"/><text fill="#000000" font-family="sans-serif" font-size="14" lengthAdjust="spacing" textLength="242" x="976" y="488.8145">+getRegressionModel(parametersList)</text></g><!--class MultiLinear--><g id="elem_MultiLinear"><rect codeLine="71" fill="#F1F1F1" height="298.25" id="MultiLinear" rx="2.5" ry="2.5" style="stroke:#181818;stroke-width:0.5;" width="280" x="957" y="619.1406"/><ellipse cx="1058.25" cy="635.1406" fill="#ADD1B2" rx="11" ry="11" style="stroke:#181818;stroke-width:1.0;"/><path d="M1061.0156,631.0156 Q1061.1719,630.7969 1061.3594,630.6875 Q1061.5469,630.5781 1061.7656,630.5781 Q1062.1406,630.5781 1062.375,630.8438 Q1062.6094,631.0938 1062.6094,631.7031 L1062.6094,633.1563 Q1062.6094,633.7656 1062.375,634.0313 Q1062.1406,634.2969 1061.7656,634.2969 Q1061.4219,634.2969 1061.2188,634.0938 Q1061.0156,633.9063 1060.9063,633.3906 Q1060.8594,633.0313 1060.6719,632.8438 Q1060.3438,632.4688 1059.7344,632.25 Q1059.125,632.0313 1058.5,632.0313 Q1057.7344,632.0313 1057.0938,632.3594 Q1056.4688,632.6875 1055.9688,633.4375 Q1055.4844,634.1875 1055.4844,635.2188 L1055.4844,636.3125 Q1055.4844,637.5469 1056.375,638.375 Q1057.2656,639.1875 1058.8594,639.1875 Q1059.7969,639.1875 1060.4531,638.9375 Q1060.8438,638.7813 1061.2656,638.3438 Q1061.5313,638.0781 1061.6719,638 Q1061.8281,637.9219 1062.0313,637.9219 Q1062.3594,637.9219 1062.6094,638.1875 Q1062.875,638.4375 1062.875,638.7813 Q1062.875,639.125 1062.5313,639.5313 Q1062.0313,640.1094 1061.2344,640.4375 Q1060.1563,640.8906 1058.8594,640.8906 Q1057.3438,640.8906 1056.1406,640.2656 Q1055.1563,639.7656 1054.4688,638.7031 Q1053.7813,637.625 1053.7813,636.3438 L1053.7813,635.1875 Q1053.7813,633.8594 1054.3906,632.7188 Q1055.0156,631.5625 1056.1094,630.9531 Q1057.2031,630.3281 1058.4375,630.3281 Q1059.1719,630.3281 1059.8125,630.5 Q1060.4688,630.6563 1061.0156,631.0156 Z " fill="#000000"/><text fill="#000000" font-family="sans-serif" font-size="14" lengthAdjust="spacing" textLength="69" x="1078.75" y="639.9941">MultiLinear</text><line style="stroke:#181818;stroke-width:0.5;" x1="958" x2="1236" y1="651.1406" y2="651.1406"/><text fill="#000000" font-family="sans-serif" font-size="14" lengthAdjust="spacing" textLength="268" x="963" y="667.8145">-regression: OLSMultipleLinearRegression</text><text fill="#000000" font-family="sans-serif" font-size="14" lengthAdjust="spacing" textLength="144" x="963" y="683.4551">-parameters: double[][]</text><text fill="#000000" font-family="sans-serif" font-size="14" lengthAdjust="spacing" textLength="36" x="963" y="699.0957">-n: int</text><text fill="#000000" font-family="sans-serif" font-size="14" lengthAdjust="spacing" textLength="73" x="963" y="714.7363">-B: double[]</text><text fill="#000000" font-family="sans-serif" font-size="14" lengthAdjust="spacing" textLength="35" x="963" y="730.377">-k: int</text><text fill="#000000" font-family="sans-serif" font-size="14" lengthAdjust="spacing" textLength="74" x="963" y="746.0176">-SE: double</text><text fill="#000000" font-family="sans-serif" font-size="14" lengthAdjust="spacing" textLength="74" x="963" y="761.6582">-ST: double</text><text fill="#000000" font-family="sans-serif" font-size="14" lengthAdjust="spacing" textLength="75" x="963" y="777.2988">-SR: double</text><text fill="#000000" font-family="sans-serif" font-size="14" lengthAdjust="spacing" textLength="110" x="963" y="792.9395">-squareR: double</text><text fill="#000000" font-family="sans-serif" font-size="14" lengthAdjust="spacing" textLength="165" x="963" y="808.5801">-squareRAdjusted: double</text><text fill="#000000" font-family="sans-serif" font-size="14" lengthAdjust="spacing" textLength="176" x="963" y="824.2207">-parametersStdErr: double[]</text><line style="stroke:#181818;stroke-width:0.5;" x1="958" x2="1236" y1="831.1875" y2="831.1875"/><text fill="#000000" font-family="sans-serif" font-size="14" lengthAdjust="spacing" textLength="47" x="963" y="847.8613">+getB()</text><text fill="#000000" font-family="sans-serif" font-size="14" lengthAdjust="spacing" textLength="171" x="963" y="863.502">+anovaSingificanceModel()</text><text fill="#000000" font-family="sans-serif" font-size="14" lengthAdjust="spacing" textLength="266" x="963" y="879.1426">+calculateCoefficientCondifenceIntervals()</text><text fill="#000000" font-family="sans-serif" font-size="14" lengthAdjust="spacing" textLength="178" x="963" y="894.7832">+calculateHypothesisTests()</text><text fill="#000000" font-family="sans-serif" font-size="14" lengthAdjust="spacing" textLength="170" x="963" y="910.4238">+generateAnalysisReport()</text></g><!--class Repositories--><g id="elem_Repositories"><rect codeLine="90" fill="#F1F1F1" height="94.9219" id="Repositories" rx="2.5" ry="2.5" style="stroke:#181818;stroke-width:0.5;" width="194" x="7" y="416.6406"/><ellipse cx="60.25" cy="432.6406" fill="#ADD1B2" rx="11" ry="11" style="stroke:#181818;stroke-width:1.0;"/><path d="M63.0156,428.5156 Q63.1719,428.2969 63.3594,428.1875 Q63.5469,428.0781 63.7656,428.0781 Q64.1406,428.0781 64.375,428.3438 Q64.6094,428.5938 64.6094,429.2031 L64.6094,430.6563 Q64.6094,431.2656 64.375,431.5313 Q64.1406,431.7969 63.7656,431.7969 Q63.4219,431.7969 63.2188,431.5938 Q63.0156,431.4063 62.9063,430.8906 Q62.8594,430.5313 62.6719,430.3438 Q62.3438,429.9688 61.7344,429.75 Q61.125,429.5313 60.5,429.5313 Q59.7344,429.5313 59.0938,429.8594 Q58.4688,430.1875 57.9688,430.9375 Q57.4844,431.6875 57.4844,432.7188 L57.4844,433.8125 Q57.4844,435.0469 58.375,435.875 Q59.2656,436.6875 60.8594,436.6875 Q61.7969,436.6875 62.4531,436.4375 Q62.8438,436.2813 63.2656,435.8438 Q63.5313,435.5781 63.6719,435.5 Q63.8281,435.4219 64.0313,435.4219 Q64.3594,435.4219 64.6094,435.6875 Q64.875,435.9375 64.875,436.2813 Q64.875,436.625 64.5313,437.0313 Q64.0313,437.6094 63.2344,437.9375 Q62.1563,438.3906 60.8594,438.3906 Q59.3438,438.3906 58.1406,437.7656 Q57.1563,437.2656 56.4688,436.2031 Q55.7813,435.125 55.7813,433.8438 L55.7813,432.6875 Q55.7813,431.3594 56.3906,430.2188 Q57.0156,429.0625 58.1094,428.4531 Q59.2031,427.8281 60.4375,427.8281 Q61.1719,427.8281 61.8125,428 Q62.4688,428.1563 63.0156,428.5156 Z " fill="#000000"/><text fill="#000000" font-family="sans-serif" font-size="14" lengthAdjust="spacing" textLength="79" x="80.75" y="437.4941">Repositories</text><line style="stroke:#181818;stroke-width:0.5;" x1="8" x2="200" y1="448.6406" y2="448.6406"/><line style="stroke:#181818;stroke-width:0.5;" x1="8" x2="200" y1="456.6406" y2="456.6406"/><text fill="#000000" font-family="sans-serif" font-size="14" lengthAdjust="spacing" textLength="94" x="13" y="473.3145">-Repositories()</text><text fill="#000000" font-family="sans-serif" font-size="14" lengthAdjust="spacing" textLength="182" x="13" y="488.9551">+getInstance() : Repositories</text><text fill="#000000" font-family="sans-serif" font-size="14" lengthAdjust="spacing" textLength="143" x="13" y="504.5957">+getOrderRepository()</text></g><!--class AnnouncementRepository--><g id="elem_AnnouncementRepository"><rect codeLine="95" fill="#F1F1F1" height="63.6406" id="AnnouncementRepository" rx="2.5" ry="2.5" style="stroke:#181818;stroke-width:0.5;" width="195" x="668.5" y="432.1406"/><ellipse cx="683.5" cy="448.1406" fill="#ADD1B2" rx="11" ry="11" style="stroke:#181818;stroke-width:1.0;"/><path d="M686.2656,444.0156 Q686.4219,443.7969 686.6094,443.6875 Q686.7969,443.5781 687.0156,443.5781 Q687.3906,443.5781 687.625,443.8438 Q687.8594,444.0938 687.8594,444.7031 L687.8594,446.1563 Q687.8594,446.7656 687.625,447.0313 Q687.3906,447.2969 687.0156,447.2969 Q686.6719,447.2969 686.4688,447.0938 Q686.2656,446.9063 686.1563,446.3906 Q686.1094,446.0313 685.9219,445.8438 Q685.5938,445.4688 684.9844,445.25 Q684.375,445.0313 683.75,445.0313 Q682.9844,445.0313 682.3438,445.3594 Q681.7188,445.6875 681.2188,446.4375 Q680.7344,447.1875 680.7344,448.2188 L680.7344,449.3125 Q680.7344,450.5469 681.625,451.375 Q682.5156,452.1875 684.1094,452.1875 Q685.0469,452.1875 685.7031,451.9375 Q686.0938,451.7813 686.5156,451.3438 Q686.7813,451.0781 686.9219,451 Q687.0781,450.9219 687.2813,450.9219 Q687.6094,450.9219 687.8594,451.1875 Q688.125,451.4375 688.125,451.7813 Q688.125,452.125 687.7813,452.5313 Q687.2813,453.1094 686.4844,453.4375 Q685.4063,453.8906 684.1094,453.8906 Q682.5938,453.8906 681.3906,453.2656 Q680.4063,452.7656 679.7188,451.7031 Q679.0313,450.625 679.0313,449.3438 L679.0313,448.1875 Q679.0313,446.8594 679.6406,445.7188 Q680.2656,444.5625 681.3594,443.9531 Q682.4531,443.3281 683.6875,443.3281 Q684.4219,443.3281 685.0625,443.5 Q685.7188,443.6563 686.2656,444.0156 Z " fill="#000000"/><text fill="#000000" font-family="sans-serif" font-size="14" lengthAdjust="spacing" textLength="163" x="697.5" y="452.9941">AnnouncementRepository</text><line style="stroke:#181818;stroke-width:0.5;" x1="669.5" x2="862.5" y1="464.1406" y2="464.1406"/><line style="stroke:#181818;stroke-width:0.5;" x1="669.5" x2="862.5" y1="472.1406" y2="472.1406"/><text fill="#000000" font-family="sans-serif" font-size="14" lengthAdjust="spacing" textLength="140" x="674.5" y="488.8145">+getAnnouncements()</text></g><!--link Repositories to OrderRepository--><g id="link_Repositories_OrderRepository"><path codeLine="99" d="M114.63,511.6706 C125.12,557.6006 141.4,628.8306 154.1,684.4206 " fill="none" id="Repositories-to-OrderRepository" style="stroke:#181818;stroke-width:1.0;"/><polygon fill="#181818" points="155.24,689.4106,157.1325,679.7453,154.1251,684.5365,149.3339,681.5291,155.24,689.4106" style="stroke:#181818;stroke-width:1.0;"/><text fill="#000000" font-family="sans-serif" font-size="13" lengthAdjust="spacing" textLength="94" x="126" y="554.4092">OrderRepository</text></g><!--link DealsAnalysisController to Repositories--><g id="link_DealsAnalysisController_Repositories"><path codeLine="100" d="M470.92,230.9706 C396.78,247.6306 306.91,276.2706 238,324.6406 C202.75,349.3806 169.07,384.2606 144.3,412.8206 " fill="none" id="DealsAnalysisController-to-Repositories" style="stroke:#181818;stroke-width:1.0;stroke-dasharray:7.0,7.0;"/><polygon fill="#181818" points="141.01,416.6306,149.9211,412.4363,144.2792,412.8475,143.8681,407.2056,141.01,416.6306" style="stroke:#181818;stroke-width:1.0;"/><text fill="#000000" font-family="sans-serif" font-size="13" lengthAdjust="spacing" textLength="67" x="239" y="337.4092">repositories</text></g><!--link DealsAnalysisController to SimpleLinearRegression--><g id="link_DealsAnalysisController_SimpleLinearRegression"><path codeLine="101" d="M566.06,263.6506 C553.22,282.0606 540.39,303.3706 532,324.6406 C518.96,357.6906 513.64,398.0606 511.47,426.6706 " fill="none" id="DealsAnalysisController-to-SimpleLinearRegression" style="stroke:#181818;stroke-width:1.0;stroke-dasharray:7.0,7.0;"/><polygon fill="#181818" points="511.1,431.8706,515.7328,423.1794,511.4573,426.8834,507.7533,422.6078,511.1,431.8706" style="stroke:#181818;stroke-width:1.0;"/><text fill="#000000" font-family="sans-serif" font-size="13" lengthAdjust="spacing" textLength="138" x="533" y="337.4092">simpleLinearRegression</text></g><!--link DealsAnalysisController to MultiLinearRegression--><g id="link_DealsAnalysisController_MultiLinearRegression"><path codeLine="102" d="M749.08,225.8206 C811.67,237.8606 884.46,258.4806 943,293.6406 C999.73,327.7106 1047.79,389.1306 1074.47,427.9306 " fill="none" id="DealsAnalysisController-to-MultiLinearRegression" style="stroke:#181818;stroke-width:1.0;stroke-dasharray:7.0,7.0;"/><polygon fill="#181818" points="1077.3,432.0806,1075.5359,422.391,1074.4838,427.9492,1068.9256,426.897,1077.3,432.0806" style="stroke:#181818;stroke-width:1.0;"/><text fill="#000000" font-family="sans-serif" font-size="13" lengthAdjust="spacing" textLength="128" x="1001" y="337.4092">multiLinearRegression</text></g><!--link DealsAnalysisController to AnnouncementRepository--><g id="link_DealsAnalysisController_AnnouncementRepository"><path codeLine="103" d="M643.66,263.9406 C674.14,313.5706 718.15,385.2306 744.24,427.7106 " fill="none" id="DealsAnalysisController-to-AnnouncementRepository" style="stroke:#181818;stroke-width:1.0;stroke-dasharray:7.0,7.0;"/><polygon fill="#181818" points="746.86,431.9806,745.5735,422.2162,744.2499,427.716,738.75,426.3924,746.86,431.9806" style="stroke:#181818;stroke-width:1.0;"/><text fill="#000000" font-family="sans-serif" font-size="13" lengthAdjust="spacing" textLength="147" x="692" y="337.4092">announcementRepository</text></g><!--link AnnouncementRepository to Announcements--><g id="link_AnnouncementRepository_Announcements"><path codeLine="104" d="M769.3,496.3206 C774.79,548.0706 785.82,652.2006 792.5,715.1906 " fill="none" id="AnnouncementRepository-to-Announcements" style="stroke:#181818;stroke-width:1.0;"/><polygon fill="#181818" points="793.05,720.4006,796.076,711.0282,792.5214,715.4286,788.1209,711.874,793.05,720.4006" style="stroke:#181818;stroke-width:1.0;"/><text fill="#000000" font-family="sans-serif" font-size="13" lengthAdjust="spacing" textLength="92" x="777" y="554.4092">announcements</text><text fill="#000000" font-family="sans-serif" font-size="13" lengthAdjust="spacing" textLength="5" x="786.9092" y="709.8332">*</text></g><!--link Repositories to Repositories--><g id="link_Repositories_Repositories"><path codeLine="105" d="M201.28,448.9406 C221.48,450.5406 236,455.6106 236,464.1406 C236,471.9406 223.87,476.8406 206.36,478.8506 " fill="none" id="Repositories-to-Repositories" style="stroke:#181818;stroke-width:1.0;"/><polygon fill="#181818" points="201.28,479.3406,210.6166,482.4756,206.2578,478.8699,209.8635,474.5112,201.28,479.3406" style="stroke:#181818;stroke-width:1.0;"/><text fill="#000000" font-family="sans-serif" font-size="13" lengthAdjust="spacing" textLength="49" x="242" y="468.9092">instance</text></g><!--link DealsAnalysisController to OrderRepository--><g id="link_DealsAnalysisController_OrderRepository"><path codeLine="106" d="M541.53,263.8906 C503.86,294.5606 456.66,333.9306 416,370.6406 C394.31,390.2306 386.76,393.4206 369,416.6406 C303.92,501.7106 246.37,610.9006 210.74,684.6306 " fill="none" id="DealsAnalysisController-to-OrderRepository" style="stroke:#181818;stroke-width:1.0;stroke-dasharray:7.0,7.0;"/><polygon fill="#181818" points="208.43,689.4306,215.9438,683.0633,210.6029,684.9275,208.7388,679.5866,208.43,689.4306" style="stroke:#181818;stroke-width:1.0;"/><text fill="#000000" font-family="sans-serif" font-size="13" lengthAdjust="spacing" textLength="91" x="417" y="383.4092">orderRepository</text></g><!--link MultiLinearRegression to MultiLinear--><g id="link_MultiLinearRegression_MultiLinear"><path codeLine="107" d="M1097,496.3206 C1097,524.8406 1097,569.2606 1097,613.9406 " fill="none" id="MultiLinearRegression-to-MultiLinear" style="stroke:#181818;stroke-width:1.0;stroke-dasharray:7.0,7.0;"/><polygon fill="#181818" points="1097,619.1106,1101,610.1106,1097,614.1106,1093,610.1106,1097,619.1106" style="stroke:#181818;stroke-width:1.0;"/></g><!--link DealsAnalysisUI to DealsAnalysisController--><g id="link_DealsAnalysisUI_DealsAnalysisController"><path codeLine="108" d="M610,91.8206 C610,107.0206 610,127.6406 610,147.2406 " fill="none" id="DealsAnalysisUI-to-DealsAnalysisController" style="stroke:#181818;stroke-width:1.0;stroke-dasharray:7.0,7.0;"/><polygon fill="#181818" points="610,152.4606,614,143.4606,610,147.4606,606,143.4606,610,152.4606" style="stroke:#181818;stroke-width:1.0;"/></g><!--link DealsAnalysisController to Announcements--><g id="link_DealsAnalysisController_Announcements"><path codeLine="109" d="M749.01,254.6706 C785.06,271.9206 821.23,294.8206 848,324.6406 C877.02,356.9606 873.56,373.8406 881,416.6406 C891.74,478.3906 891.37,496.4006 878,557.6406 C865.81,613.4906 841.28,674.2006 822.58,715.8206 " fill="none" id="DealsAnalysisController-to-Announcements" style="stroke:#181818;stroke-width:1.0;stroke-dasharray:7.0,7.0;"/><polygon fill="#181818" points="820.45,720.5406,827.8157,714.0025,822.519,715.9888,820.5328,710.6921,820.45,720.5406" style="stroke:#181818;stroke-width:1.0;"/></g><!--link SimpleLinearRegression to SimpleLinear--><g id="link_SimpleLinearRegression_SimpleLinear"><path codeLine="110" d="M510,496.3206 C510,517.9906 510,548.8606 510,582.0406 " fill="none" id="SimpleLinearRegression-to-SimpleLinear" style="stroke:#181818;stroke-width:1.0;stroke-dasharray:7.0,7.0;"/><polygon fill="#181818" points="510,587.3806,514,578.3806,510,582.3806,506,578.3806,510,587.3806" style="stroke:#181818;stroke-width:1.0;"/></g><!--SRC=[ZLRHJjim57tFLrYya6uBOczJDI6LWWGI34HWsZJjmIItmSErCzifP1F_lkiaRMmdxTgNrlSS7r_VUsptK3ypKL95bsGfXSoUb5m2CQg2g4TAcZtJ0b9JSo0ACaD5mLs2VgAvV66Y80lADKI7FSIP05ENG4h9QpiO1QKoCd84CqwrdXcZs6Dbu3AJ8cL_W1n7aM46atX8Zpz-8WcPMnuvOxImi-BvsIIAegmD0gOo4vJNckc7I_8tUXk5vb8O9Ja7XHI2d_UP0ceWdhGZpPObXolCbAexA1HepQI8PMdmg-CiAsxORWgM3TWApa1dYY6mmd9Ie-Cy24pwD6zK3gXNIisCL3Mcbv0hfitd1ZZ1ek5Ngqvedd-1bmQ8ctYtB5bHpdBSJWjH8MGbCbY2C1zQWLl5Cl3Ola01ffchuq7aj9uvUfxufCzhBVUsQOqxIw-hZgffK-fRwm0meEnU_I8YPyQvJt0WH_OhvHNOb3VLJ9q-TcicQEPrjwOTeUzVHq642TCDqjVNASbbzOZsxo9r7KPU1v7pC70N1EYg-3OCVGz2ciiIWXZc1Yg3qeJStnLLuA_Jj6ukOR5W6RErZoTh_CVFZc5aYgTE51PgVwqxAUIAfZXcE9jYcQzb3dnZYepohE9ejCjrGdYm5Ym7P3OXjDQGdDeTxKFSg5xKw8Wdm8Dx3ttt0yKjf084AEIiZxuzMyh4hZNJqTFkUBGFjlilNJCwThiUknBsaD6j3WeDT4PTUtELDfIHh3jsBzqtksjtuExJm0q9UVRCFx3n_VzyFUR2JNIM_wgqWJn0-tnJavyhDR0ebkzqqzDzRUdO7lsMiuNhDptaNzIbx2saz_9Gsx7DZSsWlTmIBzGeMGjS2criml64J3r6XmVNVxF4yFxi2NQffZZUzTfcvkMK92U3jsKQHg9jZsHoXDCzlIaQqib-vyGjvsjAnf_PtMAZPmorHf_ZtLBZ9KKjEWf4M_Ysj0Vl3e8NpbVHGJS6rMITCNPdFEoW33euNfwZ8wzmKVW_oU9R5jwQa9tZRJdQqcTBTA5_]--></g></svg>