<?xml version="1.0" encoding="us-ascii" standalone="no"?><svg xmlns="http://www.w3.org/2000/svg" xmlns:xlink="http://www.w3.org/1999/xlink" contentStyleType="text/css" height="1130px" preserveAspectRatio="none" style="width:1947px;height:1130px;background:#FFFFFF;" version="1.1" viewBox="0 0 1947 1130" width="1947px" zoomAndPan="magnify"><defs/><g><text fill="#000000" font-family="sans-serif" font-size="14" font-weight="bold" lengthAdjust="spacing" textLength="221" x="864" y="27.6738">US018 - Sequence Diagram (SD)</text><rect fill="#FFFFFF" height="913.7031" style="stroke:#181818;stroke-width:1.0;" width="10" x="48" y="127.2813"/><rect fill="#FFFFFF" height="884.1797" style="stroke:#181818;stroke-width:1.0;" width="10" x="572" y="147.8047"/><rect fill="#FFFFFF" height="399.3984" style="stroke:#181818;stroke-width:1.0;" width="10" x="827" y="274.0156"/><rect fill="#FFFFFF" height="28" style="stroke:#181818;stroke-width:1.0;" width="10" x="832" y="481.6797"/><rect fill="#FFFFFF" height="187.4297" style="stroke:#181818;stroke-width:1.0;" width="10" x="827" y="816.0313"/><rect fill="#FFFFFF" height="28.5234" style="stroke:#181818;stroke-width:1.0;" width="10" x="991" y="302.5391"/><rect fill="#FFFFFF" height="28.5234" style="stroke:#181818;stroke-width:1.0;" width="10" x="1137" y="359.5859"/><rect fill="#FFFFFF" height="28.5234" style="stroke:#181818;stroke-width:1.0;" width="10" x="1290" y="416.6328"/><rect fill="#FFFFFF" height="99.6875" style="stroke:#181818;stroke-width:1.0;" width="10" x="1417" y="545.2031"/><rect fill="#FFFFFF" height="28.5234" style="stroke:#181818;stroke-width:1.0;" width="10" x="1671" y="868.0781"/><rect fill="#FFFFFF" height="28.5234" style="stroke:#181818;stroke-width:1.0;" width="10" x="1836" y="939.4141"/><rect fill="none" height="57.1641" style="stroke:#000000;stroke-width:1.5;" width="259.5" x="1350.5" y="560.2031"/><rect fill="none" height="144.9063" style="stroke:#000000;stroke-width:1.5;" width="1204" x="736" y="831.0313"/><line style="stroke:#181818;stroke-width:0.5;stroke-dasharray:5.0,5.0;" x1="53" x2="53" y1="117.2813" y2="1049.9844"/><line style="stroke:#181818;stroke-width:0.5;stroke-dasharray:5.0,5.0;" x1="577" x2="577" y1="117.2813" y2="1049.9844"/><line style="stroke:#181818;stroke-width:0.5;stroke-dasharray:5.0,5.0;" x1="832" x2="832" y1="243.1719" y2="1049.9844"/><line style="stroke:#181818;stroke-width:0.5;stroke-dasharray:5.0,5.0;" x1="995.5" x2="995.5" y1="117.2813" y2="1049.9844"/><line style="stroke:#181818;stroke-width:0.5;stroke-dasharray:5.0,5.0;" x1="1141.5" x2="1141.5" y1="117.2813" y2="1049.9844"/><line style="stroke:#181818;stroke-width:0.5;stroke-dasharray:5.0,5.0;" x1="1294.5" x2="1294.5" y1="117.2813" y2="1049.9844"/><line style="stroke:#181818;stroke-width:0.5;stroke-dasharray:5.0,5.0;" x1="1421.5" x2="1421.5" y1="117.2813" y2="1049.9844"/><line style="stroke:#181818;stroke-width:0.5;stroke-dasharray:5.0,5.0;" x1="1572" x2="1572" y1="607.0469" y2="1049.9844"/><line style="stroke:#181818;stroke-width:0.5;stroke-dasharray:5.0,5.0;" x1="1676" x2="1676" y1="117.2813" y2="1049.9844"/><line style="stroke:#181818;stroke-width:0.5;stroke-dasharray:5.0,5.0;" x1="1841" x2="1841" y1="117.2813" y2="1049.9844"/><text fill="#000000" font-family="sans-serif" font-size="14" lengthAdjust="spacing" textLength="90" x="5" y="114.3145">StoreManager</text><ellipse cx="53" cy="50.1406" fill="#E2E2F0" rx="8" ry="8" style="stroke:#181818;stroke-width:0.5;"/><path d="M53,58.1406 L53,85.1406 M40,66.1406 L66,66.1406 M53,85.1406 L40,100.1406 M53,85.1406 L66,100.1406 " fill="none" style="stroke:#181818;stroke-width:0.5;"/><text fill="#000000" font-family="sans-serif" font-size="14" lengthAdjust="spacing" textLength="90" x="5" y="1061.6582">StoreManager</text><ellipse cx="53" cy="1073.125" fill="#E2E2F0" rx="8" ry="8" style="stroke:#181818;stroke-width:0.5;"/><path d="M53,1081.125 L53,1108.125 M40,1089.125 L66,1089.125 M53,1108.125 L40,1123.125 M53,1108.125 L66,1123.125 " fill="none" style="stroke:#181818;stroke-width:0.5;"/><rect fill="#E2E2F0" height="29.6406" rx="2.5" ry="2.5" style="stroke:#181818;stroke-width:0.5;" width="122" x="516" y="86.6406"/><text fill="#000000" font-family="sans-serif" font-size="14" lengthAdjust="spacing" textLength="108" x="523" y="106.3145">:DealsAnalyzesUI</text><rect fill="#E2E2F0" height="29.6406" rx="2.5" ry="2.5" style="stroke:#181818;stroke-width:0.5;" width="122" x="516" y="1048.9844"/><text fill="#000000" font-family="sans-serif" font-size="14" lengthAdjust="spacing" textLength="108" x="523" y="1068.6582">:DealsAnalyzesUI</text><rect fill="#E2E2F0" height="29.6406" rx="2.5" ry="2.5" style="stroke:#181818;stroke-width:0.5;" width="172" x="746" y="1048.9844"/><text fill="#000000" font-family="sans-serif" font-size="14" lengthAdjust="spacing" textLength="158" x="753" y="1068.6582">:DealsAnalyzesController</text><rect fill="#E2E2F0" height="29.6406" rx="2.5" ry="2.5" style="stroke:#181818;stroke-width:0.5;" width="97" x="947.5" y="86.6406"/><text fill="#000000" font-family="sans-serif" font-size="14" lengthAdjust="spacing" textLength="83" x="954.5" y="106.3145">:Repositories</text><rect fill="#E2E2F0" height="29.6406" rx="2.5" ry="2.5" style="stroke:#181818;stroke-width:0.5;" width="97" x="947.5" y="1048.9844"/><text fill="#000000" font-family="sans-serif" font-size="14" lengthAdjust="spacing" textLength="83" x="954.5" y="1068.6582">:Repositories</text><rect fill="#E2E2F0" height="29.6406" rx="2.5" ry="2.5" style="stroke:#181818;stroke-width:0.5;" width="175" x="1054.5" y="86.6406"/><text fill="#000000" font-family="sans-serif" font-size="14" lengthAdjust="spacing" textLength="161" x="1061.5" y="106.3145">repositories :Repositories</text><rect fill="#E2E2F0" height="29.6406" rx="2.5" ry="2.5" style="stroke:#181818;stroke-width:0.5;" width="175" x="1054.5" y="1048.9844"/><text fill="#000000" font-family="sans-serif" font-size="14" lengthAdjust="spacing" textLength="161" x="1061.5" y="1068.6582">repositories :Repositories</text><rect fill="#E2E2F0" height="29.6406" rx="2.5" ry="2.5" style="stroke:#181818;stroke-width:0.5;" width="111" x="1239.5" y="86.6406"/><text fill="#000000" font-family="sans-serif" font-size="14" lengthAdjust="spacing" textLength="97" x="1246.5" y="106.3145">:FileInformation</text><rect fill="#E2E2F0" height="29.6406" rx="2.5" ry="2.5" style="stroke:#181818;stroke-width:0.5;" width="111" x="1239.5" y="1048.9844"/><text fill="#000000" font-family="sans-serif" font-size="14" lengthAdjust="spacing" textLength="97" x="1246.5" y="1068.6582">:FileInformation</text><rect fill="#E2E2F0" height="29.6406" rx="2.5" ry="2.5" style="stroke:#181818;stroke-width:0.5;" width="123" x="1360.5" y="86.6406"/><text fill="#000000" font-family="sans-serif" font-size="14" lengthAdjust="spacing" textLength="109" x="1367.5" y="106.3145">:OrderRepository</text><rect fill="#E2E2F0" height="29.6406" rx="2.5" ry="2.5" style="stroke:#181818;stroke-width:0.5;" width="123" x="1360.5" y="1048.9844"/><text fill="#000000" font-family="sans-serif" font-size="14" lengthAdjust="spacing" textLength="109" x="1367.5" y="1068.6582">:OrderRepository</text><rect fill="#E2E2F0" height="29.6406" rx="2.5" ry="2.5" style="stroke:#181818;stroke-width:0.5;" width="55" x="1545" y="1048.9844"/><text fill="#000000" font-family="sans-serif" font-size="14" lengthAdjust="spacing" textLength="41" x="1552" y="1068.6582">:Order</text><rect fill="#E2E2F0" height="29.6406" rx="2.5" ry="2.5" style="stroke:#181818;stroke-width:0.5;" width="132" x="1610" y="86.6406"/><text fill="#000000" font-family="sans-serif" font-size="14" lengthAdjust="spacing" textLength="118" x="1617" y="106.3145">:SimpleRegression</text><rect fill="#E2E2F0" height="29.6406" rx="2.5" ry="2.5" style="stroke:#181818;stroke-width:0.5;" width="132" x="1610" y="1048.9844"/><text fill="#000000" font-family="sans-serif" font-size="14" lengthAdjust="spacing" textLength="118" x="1617" y="1068.6582">:SimpleRegression</text><rect fill="#E2E2F0" height="29.6406" rx="2.5" ry="2.5" style="stroke:#181818;stroke-width:0.5;" width="178" x="1752" y="86.6406"/><text fill="#000000" font-family="sans-serif" font-size="14" lengthAdjust="spacing" textLength="164" x="1759" y="106.3145">:MultipleLinearRegression</text><rect fill="#E2E2F0" height="29.6406" rx="2.5" ry="2.5" style="stroke:#181818;stroke-width:0.5;" width="178" x="1752" y="1048.9844"/><text fill="#000000" font-family="sans-serif" font-size="14" lengthAdjust="spacing" textLength="164" x="1759" y="1068.6582">:MultipleLinearRegression</text><rect fill="#FFFFFF" height="913.7031" style="stroke:#181818;stroke-width:1.0;" width="10" x="48" y="127.2813"/><rect fill="#FFFFFF" height="884.1797" style="stroke:#181818;stroke-width:1.0;" width="10" x="572" y="147.8047"/><rect fill="#FFFFFF" height="399.3984" style="stroke:#181818;stroke-width:1.0;" width="10" x="827" y="274.0156"/><rect fill="#FFFFFF" height="28" style="stroke:#181818;stroke-width:1.0;" width="10" x="832" y="481.6797"/><rect fill="#FFFFFF" height="187.4297" style="stroke:#181818;stroke-width:1.0;" width="10" x="827" y="816.0313"/><rect fill="#FFFFFF" height="28.5234" style="stroke:#181818;stroke-width:1.0;" width="10" x="991" y="302.5391"/><rect fill="#FFFFFF" height="28.5234" style="stroke:#181818;stroke-width:1.0;" width="10" x="1137" y="359.5859"/><rect fill="#FFFFFF" height="28.5234" style="stroke:#181818;stroke-width:1.0;" width="10" x="1290" y="416.6328"/><rect fill="#FFFFFF" height="99.6875" style="stroke:#181818;stroke-width:1.0;" width="10" x="1417" y="545.2031"/><rect fill="#FFFFFF" height="28.5234" style="stroke:#181818;stroke-width:1.0;" width="10" x="1671" y="868.0781"/><rect fill="#FFFFFF" height="28.5234" style="stroke:#181818;stroke-width:1.0;" width="10" x="1836" y="939.4141"/><polygon fill="#181818" points="560,143.8047,570,147.8047,560,151.8047,564,147.8047" style="stroke:#181818;stroke-width:1.0;"/><line style="stroke:#181818;stroke-width:1.0;" x1="58" x2="566" y1="147.8047" y2="147.8047"/><text fill="#000000" font-family="sans-serif" font-size="13" font-weight="bold" lengthAdjust="spacing" textLength="7" x="65" y="143.0498">1</text><text fill="#000000" font-family="sans-serif" font-size="13" lengthAdjust="spacing" textLength="315" x="76" y="143.0498">asks to analyse the deals (on houses and apartments)</text><polygon fill="#181818" points="69,172.3281,59,176.3281,69,180.3281,65,176.3281" style="stroke:#181818;stroke-width:1.0;"/><line style="stroke:#181818;stroke-width:1.0;stroke-dasharray:2.0,2.0;" x1="63" x2="571" y1="176.3281" y2="176.3281"/><text fill="#000000" font-family="sans-serif" font-size="13" font-weight="bold" lengthAdjust="spacing" textLength="7" x="75" y="171.5732">2</text><text fill="#000000" font-family="sans-serif" font-size="13" lengthAdjust="spacing" textLength="224" x="86" y="171.5732">requests the path of the information file</text><polygon fill="#181818" points="560,200.8516,570,204.8516,560,208.8516,564,204.8516" style="stroke:#181818;stroke-width:1.0;"/><line style="stroke:#181818;stroke-width:1.0;" x1="58" x2="566" y1="204.8516" y2="204.8516"/><text fill="#000000" font-family="sans-serif" font-size="13" font-weight="bold" lengthAdjust="spacing" textLength="7" x="65" y="200.0967">3</text><text fill="#000000" font-family="sans-serif" font-size="13" lengthAdjust="spacing" textLength="213" x="76" y="200.0967">inserts the path of the information file</text><polygon fill="#181818" points="734,229.375,744,233.375,734,237.375,738,233.375" style="stroke:#181818;stroke-width:1.0;"/><line style="stroke:#181818;stroke-width:1.0;" x1="582" x2="740" y1="233.375" y2="233.375"/><text fill="#000000" font-family="sans-serif" font-size="13" font-weight="bold" lengthAdjust="spacing" textLength="7" x="589" y="228.6201">4</text><text fill="#000000" font-family="sans-serif" font-size="13" lengthAdjust="spacing" textLength="44" x="600" y="228.6201">create()</text><rect fill="#E2E2F0" height="29.6406" rx="2.5" ry="2.5" style="stroke:#181818;stroke-width:0.5;" width="172" x="746" y="212.8516"/><text fill="#000000" font-family="sans-serif" font-size="14" lengthAdjust="spacing" textLength="158" x="753" y="232.5254">:DealsAnalyzesController</text><polygon fill="#181818" points="815,270.0156,825,274.0156,815,278.0156,819,274.0156" style="stroke:#181818;stroke-width:1.0;"/><line style="stroke:#181818;stroke-width:1.0;" x1="582" x2="821" y1="274.0156" y2="274.0156"/><text fill="#000000" font-family="sans-serif" font-size="13" font-weight="bold" lengthAdjust="spacing" textLength="7" x="589" y="269.2607">5</text><text fill="#000000" font-family="sans-serif" font-size="13" lengthAdjust="spacing" textLength="147" x="600" y="269.2607">informationFromFile(path)</text><polygon fill="#181818" points="979,298.5391,989,302.5391,979,306.5391,983,302.5391" style="stroke:#181818;stroke-width:1.0;"/><line style="stroke:#181818;stroke-width:1.0;" x1="837" x2="985" y1="302.5391" y2="302.5391"/><text fill="#000000" font-family="sans-serif" font-size="13" font-weight="bold" lengthAdjust="spacing" textLength="7" x="844" y="297.7842">6</text><text fill="#000000" font-family="sans-serif" font-size="13" lengthAdjust="spacing" textLength="67" x="855" y="297.7842">getInstance</text><polygon fill="#181818" points="848,327.0625,838,331.0625,848,335.0625,844,331.0625" style="stroke:#181818;stroke-width:1.0;"/><line style="stroke:#181818;stroke-width:1.0;stroke-dasharray:2.0,2.0;" x1="842" x2="995" y1="331.0625" y2="331.0625"/><text fill="#000000" font-family="sans-serif" font-size="13" font-weight="bold" lengthAdjust="spacing" textLength="7" x="854" y="326.3076">7</text><text fill="#000000" font-family="sans-serif" font-size="13" lengthAdjust="spacing" textLength="67" x="865" y="326.3076">repositories</text><polygon fill="#181818" points="1125,355.5859,1135,359.5859,1125,363.5859,1129,359.5859" style="stroke:#181818;stroke-width:1.0;"/><line style="stroke:#181818;stroke-width:1.0;" x1="837" x2="1131" y1="359.5859" y2="359.5859"/><text fill="#000000" font-family="sans-serif" font-size="13" font-weight="bold" lengthAdjust="spacing" textLength="7" x="844" y="354.8311">8</text><text fill="#000000" font-family="sans-serif" font-size="13" lengthAdjust="spacing" textLength="112" x="855" y="354.8311">getOrderRepository</text><polygon fill="#181818" points="848,384.1094,838,388.1094,848,392.1094,844,388.1094" style="stroke:#181818;stroke-width:1.0;"/><line style="stroke:#181818;stroke-width:1.0;stroke-dasharray:2.0,2.0;" x1="842" x2="1141" y1="388.1094" y2="388.1094"/><text fill="#000000" font-family="sans-serif" font-size="13" font-weight="bold" lengthAdjust="spacing" textLength="7" x="854" y="383.3545">9</text><text fill="#000000" font-family="sans-serif" font-size="13" lengthAdjust="spacing" textLength="94" x="865" y="383.3545">OrderRepository</text><polygon fill="#181818" points="1278,412.6328,1288,416.6328,1278,420.6328,1282,416.6328" style="stroke:#181818;stroke-width:1.0;"/><line style="stroke:#181818;stroke-width:1.0;" x1="837" x2="1284" y1="416.6328" y2="416.6328"/><text fill="#000000" font-family="sans-serif" font-size="13" font-weight="bold" lengthAdjust="spacing" textLength="14" x="844" y="411.8779">10</text><text fill="#000000" font-family="sans-serif" font-size="13" lengthAdjust="spacing" textLength="141" x="862" y="411.8779">loadDealsFromFile(path)</text><polygon fill="#181818" points="848,441.1563,838,445.1563,848,449.1563,844,445.1563" style="stroke:#181818;stroke-width:1.0;"/><line style="stroke:#181818;stroke-width:1.0;stroke-dasharray:2.0,2.0;" x1="842" x2="1294" y1="445.1563" y2="445.1563"/><text fill="#000000" font-family="sans-serif" font-size="13" font-weight="bold" lengthAdjust="spacing" textLength="14" x="854" y="440.4014">11</text><text fill="#000000" font-family="sans-serif" font-size="13" lengthAdjust="spacing" textLength="147" x="872" y="440.4014">list&lt;InformationFromFile&gt;</text><line style="stroke:#181818;stroke-width:1.0;" x1="842" x2="884" y1="473.6797" y2="473.6797"/><line style="stroke:#181818;stroke-width:1.0;" x1="884" x2="884" y1="473.6797" y2="486.6797"/><line style="stroke:#181818;stroke-width:1.0;" x1="843" x2="884" y1="486.6797" y2="486.6797"/><polygon fill="#181818" points="853,482.6797,843,486.6797,853,490.6797,849,486.6797" style="stroke:#181818;stroke-width:1.0;"/><text fill="#000000" font-family="sans-serif" font-size="13" font-weight="bold" lengthAdjust="spacing" textLength="14" x="849" y="468.9248">12</text><text fill="#000000" font-family="sans-serif" font-size="13" lengthAdjust="spacing" textLength="122" x="867" y="468.9248">fillAdvertisementInfo()</text><polygon fill="#181818" points="1405,541.2031,1415,545.2031,1405,549.2031,1409,545.2031" style="stroke:#181818;stroke-width:1.0;"/><line style="stroke:#181818;stroke-width:1.0;" x1="837" x2="1411" y1="545.2031" y2="545.2031"/><text fill="#000000" font-family="sans-serif" font-size="13" font-weight="bold" lengthAdjust="spacing" textLength="14" x="844" y="540.4482">13</text><text fill="#000000" font-family="sans-serif" font-size="13" lengthAdjust="spacing" textLength="296" x="862" y="540.4482">createOrder(list&lt;Advertisement&gt; advertisementList)</text><path d="M1350.5,560.2031 L1423.5,560.2031 L1423.5,566.7266 L1413.5,576.7266 L1350.5,576.7266 L1350.5,560.2031 " fill="#EEEEEE" style="stroke:#000000;stroke-width:1.5;"/><rect fill="none" height="57.1641" style="stroke:#000000;stroke-width:1.5;" width="259.5" x="1350.5" y="560.2031"/><text fill="#000000" font-family="sans-serif" font-size="13" font-weight="bold" lengthAdjust="spacing" textLength="28" x="1365.5" y="572.9717">loop</text><text fill="#000000" font-family="sans-serif" font-size="11" font-weight="bold" lengthAdjust="spacing" textLength="139" x="1438.5" y="572.1611">[for each announcement]</text><polygon fill="#181818" points="1533,593.25,1543,597.25,1533,601.25,1537,597.25" style="stroke:#181818;stroke-width:1.0;"/><line style="stroke:#181818;stroke-width:1.0;" x1="1427" x2="1539" y1="597.25" y2="597.25"/><text fill="#000000" font-family="sans-serif" font-size="13" font-weight="bold" lengthAdjust="spacing" textLength="14" x="1434" y="592.4951">14</text><text fill="#000000" font-family="sans-serif" font-size="13" lengthAdjust="spacing" textLength="76" x="1452" y="592.4951">createOrder()</text><rect fill="#E2E2F0" height="29.6406" rx="2.5" ry="2.5" style="stroke:#181818;stroke-width:0.5;" width="55" x="1545" y="576.7266"/><text fill="#000000" font-family="sans-serif" font-size="14" lengthAdjust="spacing" textLength="41" x="1552" y="596.4004">:Order</text><polygon fill="#181818" points="848,640.8906,838,644.8906,848,648.8906,844,644.8906" style="stroke:#181818;stroke-width:1.0;"/><line style="stroke:#181818;stroke-width:1.0;stroke-dasharray:2.0,2.0;" x1="842" x2="1421" y1="644.8906" y2="644.8906"/><text fill="#000000" font-family="sans-serif" font-size="13" font-weight="bold" lengthAdjust="spacing" textLength="14" x="854" y="640.1357">15</text><text fill="#000000" font-family="sans-serif" font-size="13" lengthAdjust="spacing" textLength="165" x="872" y="640.1357">List&lt;Order&gt; acceptedOrders</text><polygon fill="#181818" points="593,669.4141,583,673.4141,593,677.4141,589,673.4141" style="stroke:#181818;stroke-width:1.0;"/><line style="stroke:#181818;stroke-width:1.0;stroke-dasharray:2.0,2.0;" x1="587" x2="831" y1="673.4141" y2="673.4141"/><text fill="#000000" font-family="sans-serif" font-size="13" font-weight="bold" lengthAdjust="spacing" textLength="14" x="599" y="668.6592">16</text><text fill="#000000" font-family="sans-serif" font-size="13" lengthAdjust="spacing" textLength="165" x="617" y="668.6592">List&lt;Order&gt; acceptedOrders</text><polygon fill="#181818" points="69,697.9375,59,701.9375,69,705.9375,65,701.9375" style="stroke:#181818;stroke-width:1.0;"/><line style="stroke:#181818;stroke-width:1.0;stroke-dasharray:2.0,2.0;" x1="63" x2="571" y1="701.9375" y2="701.9375"/><text fill="#000000" font-family="sans-serif" font-size="13" font-weight="bold" lengthAdjust="spacing" textLength="14" x="75" y="697.1826">17</text><text fill="#000000" font-family="sans-serif" font-size="13" lengthAdjust="spacing" textLength="472" x="93" y="697.1826">shows regression models and requests to select one (simple-linear or multi-linear)</text><polygon fill="#181818" points="560,726.4609,570,730.4609,560,734.4609,564,730.4609" style="stroke:#181818;stroke-width:1.0;"/><line style="stroke:#181818;stroke-width:1.0;" x1="58" x2="566" y1="730.4609" y2="730.4609"/><text fill="#000000" font-family="sans-serif" font-size="13" font-weight="bold" lengthAdjust="spacing" textLength="14" x="65" y="725.7061">18</text><text fill="#000000" font-family="sans-serif" font-size="13" lengthAdjust="spacing" textLength="323" x="83" y="725.7061">selects a regression model (simple-linear or multi-linear)</text><polygon fill="#181818" points="69,754.9844,59,758.9844,69,762.9844,65,758.9844" style="stroke:#181818;stroke-width:1.0;"/><line style="stroke:#181818;stroke-width:1.0;stroke-dasharray:2.0,2.0;" x1="63" x2="571" y1="758.9844" y2="758.9844"/><text fill="#000000" font-family="sans-serif" font-size="13" font-weight="bold" lengthAdjust="spacing" textLength="14" x="75" y="754.2295">19</text><text fill="#000000" font-family="sans-serif" font-size="13" lengthAdjust="spacing" textLength="422" x="93" y="754.2295">asks for the parameter to be used (eg. area, number of bathrooms, etc...)</text><polygon fill="#181818" points="560,783.5078,570,787.5078,560,791.5078,564,787.5078" style="stroke:#181818;stroke-width:1.0;"/><line style="stroke:#181818;stroke-width:1.0;" x1="58" x2="566" y1="787.5078" y2="787.5078"/><text fill="#000000" font-family="sans-serif" font-size="13" font-weight="bold" lengthAdjust="spacing" textLength="14" x="65" y="782.7529">20</text><text fill="#000000" font-family="sans-serif" font-size="13" lengthAdjust="spacing" textLength="342" x="83" y="782.7529">selects a parameter (eg. area, number of bathrooms, etc...)</text><polygon fill="#181818" points="815,812.0313,825,816.0313,815,820.0313,819,816.0313" style="stroke:#181818;stroke-width:1.0;"/><line style="stroke:#181818;stroke-width:1.0;" x1="582" x2="821" y1="816.0313" y2="816.0313"/><text fill="#000000" font-family="sans-serif" font-size="13" font-weight="bold" lengthAdjust="spacing" textLength="14" x="589" y="811.2764">21</text><text fill="#000000" font-family="sans-serif" font-size="13" lengthAdjust="spacing" textLength="208" x="607" y="811.2764">getPrediction(selectedParameter(s))</text><path d="M736,831.0313 L797,831.0313 L797,837.5547 L787,847.5547 L736,847.5547 L736,831.0313 " fill="#EEEEEE" style="stroke:#000000;stroke-width:1.5;"/><rect fill="none" height="144.9063" style="stroke:#000000;stroke-width:1.5;" width="1204" x="736" y="831.0313"/><text fill="#000000" font-family="sans-serif" font-size="13" font-weight="bold" lengthAdjust="spacing" textLength="16" x="751" y="843.7998">alt</text><text fill="#000000" font-family="sans-serif" font-size="11" font-weight="bold" lengthAdjust="spacing" textLength="258" x="812" y="842.9893">[if simple-linear regression model is selected]</text><polygon fill="#181818" points="1659,864.0781,1669,868.0781,1659,872.0781,1663,868.0781" style="stroke:#181818;stroke-width:1.0;"/><line style="stroke:#181818;stroke-width:1.0;" x1="837" x2="1665" y1="868.0781" y2="868.0781"/><text fill="#000000" font-family="sans-serif" font-size="13" font-weight="bold" lengthAdjust="spacing" textLength="14" x="844" y="863.3232">22</text><text fill="#000000" font-family="sans-serif" font-size="13" lengthAdjust="spacing" textLength="213" x="862" y="863.3232">simplePrediction(selectedParameter)</text><polygon fill="#181818" points="848,892.6016,838,896.6016,848,900.6016,844,896.6016" style="stroke:#181818;stroke-width:1.0;"/><line style="stroke:#181818;stroke-width:1.0;stroke-dasharray:2.0,2.0;" x1="842" x2="1675" y1="896.6016" y2="896.6016"/><text fill="#000000" font-family="sans-serif" font-size="13" font-weight="bold" lengthAdjust="spacing" textLength="14" x="854" y="891.8467">23</text><text fill="#000000" font-family="sans-serif" font-size="13" lengthAdjust="spacing" textLength="56" x="872" y="891.8467">prediction</text><line style="stroke:#000000;stroke-width:1.0;stroke-dasharray:2.0,2.0;" x1="736" x2="1940" y1="905.6016" y2="905.6016"/><text fill="#000000" font-family="sans-serif" font-size="11" font-weight="bold" lengthAdjust="spacing" textLength="248" x="741" y="915.5596">[if multi-linear regression model is selected]</text><polygon fill="#181818" points="1824,935.4141,1834,939.4141,1824,943.4141,1828,939.4141" style="stroke:#181818;stroke-width:1.0;"/><line style="stroke:#181818;stroke-width:1.0;" x1="837" x2="1830" y1="939.4141" y2="939.4141"/><text fill="#000000" font-family="sans-serif" font-size="13" font-weight="bold" lengthAdjust="spacing" textLength="14" x="844" y="934.6592">24</text><text fill="#000000" font-family="sans-serif" font-size="13" lengthAdjust="spacing" textLength="218" x="862" y="934.6592">multiPrediction(selectedParameter(s))</text><polygon fill="#181818" points="848,963.9375,838,967.9375,848,971.9375,844,967.9375" style="stroke:#181818;stroke-width:1.0;"/><line style="stroke:#181818;stroke-width:1.0;stroke-dasharray:2.0,2.0;" x1="842" x2="1840" y1="967.9375" y2="967.9375"/><text fill="#000000" font-family="sans-serif" font-size="13" font-weight="bold" lengthAdjust="spacing" textLength="14" x="854" y="963.1826">25</text><text fill="#000000" font-family="sans-serif" font-size="13" lengthAdjust="spacing" textLength="56" x="872" y="963.1826">prediction</text><polygon fill="#181818" points="593,999.4609,583,1003.4609,593,1007.4609,589,1003.4609" style="stroke:#181818;stroke-width:1.0;"/><line style="stroke:#181818;stroke-width:1.0;stroke-dasharray:2.0,2.0;" x1="587" x2="831" y1="1003.4609" y2="1003.4609"/><text fill="#000000" font-family="sans-serif" font-size="13" font-weight="bold" lengthAdjust="spacing" textLength="14" x="599" y="998.7061">26</text><text fill="#000000" font-family="sans-serif" font-size="13" lengthAdjust="spacing" textLength="56" x="617" y="998.7061">prediction</text><polygon fill="#181818" points="69,1027.9844,59,1031.9844,69,1035.9844,65,1031.9844" style="stroke:#181818;stroke-width:1.0;"/><line style="stroke:#181818;stroke-width:1.0;stroke-dasharray:2.0,2.0;" x1="63" x2="576" y1="1031.9844" y2="1031.9844"/><text fill="#000000" font-family="sans-serif" font-size="13" font-weight="bold" lengthAdjust="spacing" textLength="14" x="75" y="1027.2295">27</text><text fill="#000000" font-family="sans-serif" font-size="13" lengthAdjust="spacing" textLength="130" x="93" y="1027.2295">displays the prediction</text><!--SRC=[bLPjRzem4FwUNt7Qfr0Lj7sRK5MfQiU41A9ArX_W9WTOS-pCDfswNxyxku6G5yRo0H5yz_ZntNEF4GTlzA5wHPjuwHN2I_xvorUOGew_3gWBX2SfTbPKaEPFaqGKtbZ8wGFNGeiTMX0EydMIrC9wMSXQQ0-Vvayeb7lGGht_GVUo_CHHtr-Mbw8UZVRMA8KsH3_-o5QTy0nhuoJjBT65cEpRy-OynhP2e9_0ontGXLIur5jZA-6bqI5ikUYUPsDBj4Uuzn2roOQ2ub8tFvTLhJ33dKNdcctoBi3weBoak9NKA6mdUhtA4gw_V1CUGyc1ddmDqtikxPnYVZhm1WGNr27uFKB95ORKQDYRWwEQ25s2u5qhrDvD0iOHb3i47my1tqsd4Tco5fnt0R8MVWzc6xxBK-5WIuLiPpUqf7Pehyaz9bCQPxC2RcxcK5WaSkbaQ7tUXbbOKt4xKzxc57uyNf3KyMT- -1U6OY7DOOT-gPqNfFgpg2D0q1jqde31fOeWRGMUnL8hHd4Q7fmSU7JqDamdg7cKJiIw1DHYr8Dg62qNSr16b65KHmfyHefdPvHJG9FEtotxNRiVuzP5RAZ5_fDqr4FvHXAJ3bdK39sEaEiheBNFk3msMQF2KCuq7E5iqtiGxTSL1OnG8DT8b34rK060Dj_JI6fp8CrnOgzqcomGECr1P319K9VZTMR2pE4kH1Evei3QOnbUHsN9rDfBF6UC5Wjz0I_vPpL75zesu_RcDtjqOtjGcH9LzAoJ1HbmgB3mO3H2weAnJbLmJA2ILkoX7- -J8J-AsOJQs-bgj610X9UlFroNUndzZMvAz7Gh4irN1BBS4bBSpK1GysuXthJiWAyqGTQOojq2-c8scmrmXJRP4_IrUCD-IURoRB6K1SzU6l6nV6xGKpTfEQVo8BTmNfLUrQI31kP_F3SdZKRaItn6fYZF-YwJPw4fyPZr4RCVs19Z5uVaXdpaTjyldtXu28a7tTVpY7DrlNl737S-33oqSELXEmVk8RAF3FIdcPOkz5M3N4fNA_7-SUUF8_3_ZUGl]--></g></svg>