<?xml version="1.0" encoding="us-ascii" standalone="no"?><svg xmlns="http://www.w3.org/2000/svg" xmlns:xlink="http://www.w3.org/1999/xlink" contentStyleType="text/css" height="989px" preserveAspectRatio="none" style="width:274px;height:989px;background:#FFFFFF;" version="1.1" viewBox="0 0 274 989" width="274px" zoomAndPan="magnify"><defs/><g><!--class Announcement--><g id="elem_Announcement"><rect codeLine="18" fill="#F1F1F1" height="96.2031" id="Announcement" rx="2.5" ry="2.5" style="stroke:#181818;stroke-width:0.5;" width="119" x="116" y="212"/><text fill="#000000" font-family="sans-serif" font-size="14" lengthAdjust="spacing" textLength="95" x="128" y="229.6738">Announcement</text><line style="stroke:#181818;stroke-width:0.5;" x1="117" x2="234" y1="237.6406" y2="237.6406"/><text fill="#000000" font-family="sans-serif" font-size="14" lengthAdjust="spacing" textLength="11" x="122" y="254.3145">id</text><text fill="#000000" font-family="sans-serif" font-size="14" lengthAdjust="spacing" textLength="98" x="122" y="269.9551">publicationDate</text><text fill="#000000" font-family="sans-serif" font-size="14" lengthAdjust="spacing" textLength="107" x="122" y="285.5957">Agent_comission</text><text fill="#000000" font-family="sans-serif" font-size="14" lengthAdjust="spacing" textLength="94" x="122" y="301.2363">comissionType</text></g><!--class Request--><g id="elem_Request"><rect codeLine="25" fill="#F1F1F1" height="111.8438" id="Request" rx="2.5" ry="2.5" style="stroke:#181818;stroke-width:0.5;" width="97" x="127" y="384"/><text fill="#000000" font-family="sans-serif" font-size="14" lengthAdjust="spacing" textLength="53" x="149" y="401.6738">Request</text><line style="stroke:#181818;stroke-width:0.5;" x1="128" x2="223" y1="409.6406" y2="409.6406"/><text fill="#000000" font-family="sans-serif" font-size="14" lengthAdjust="spacing" textLength="80" x="133" y="426.3145">requestType</text><text fill="#000000" font-family="sans-serif" font-size="14" lengthAdjust="spacing" textLength="85" x="133" y="441.9551">propertyType</text><text fill="#000000" font-family="sans-serif" font-size="14" lengthAdjust="spacing" textLength="46" x="133" y="457.5957">agency</text><text fill="#000000" font-family="sans-serif" font-size="14" lengthAdjust="spacing" textLength="36" x="133" y="473.2363">agent</text><text fill="#000000" font-family="sans-serif" font-size="14" lengthAdjust="spacing" textLength="31" x="133" y="488.877">price</text></g><!--class Property--><g id="elem_Property"><rect codeLine="33" fill="#F1F1F1" height="111.8438" id="Property" rx="2.5" ry="2.5" style="stroke:#181818;stroke-width:0.5;" width="165" x="93" y="572"/><text fill="#000000" font-family="sans-serif" font-size="14" lengthAdjust="spacing" textLength="54" x="148.5" y="589.6738">Property</text><line style="stroke:#181818;stroke-width:0.5;" x1="94" x2="257" y1="597.6406" y2="597.6406"/><text fill="#000000" font-family="sans-serif" font-size="14" lengthAdjust="spacing" textLength="54" x="99" y="614.3145">Location</text><text fill="#000000" font-family="sans-serif" font-size="14" lengthAdjust="spacing" textLength="29" x="99" y="629.9551">area</text><text fill="#000000" font-family="sans-serif" font-size="14" lengthAdjust="spacing" textLength="153" x="99" y="645.5957">distanceFromCityCenter</text><text fill="#000000" font-family="sans-serif" font-size="14" lengthAdjust="spacing" textLength="38" x="99" y="661.2363">owner</text><text fill="#000000" font-family="sans-serif" font-size="14" lengthAdjust="spacing" textLength="43" x="99" y="676.877">photos</text></g><!--class Building--><g id="elem_Building"><rect codeLine="41" fill="#F1F1F1" height="96.2031" id="Building" rx="2.5" ry="2.5" style="stroke:#181818;stroke-width:0.5;" width="181" x="13" y="745"/><text fill="#000000" font-family="sans-serif" font-size="14" lengthAdjust="spacing" textLength="50" x="78.5" y="762.6738">Building</text><line style="stroke:#181818;stroke-width:0.5;" x1="14" x2="193" y1="770.6406" y2="770.6406"/><text fill="#000000" font-family="sans-serif" font-size="14" lengthAdjust="spacing" textLength="127" x="19" y="787.3145">numberOfBedrooms</text><text fill="#000000" font-family="sans-serif" font-size="14" lengthAdjust="spacing" textLength="131" x="19" y="802.9551">numberOfBathrooms</text><text fill="#000000" font-family="sans-serif" font-size="14" lengthAdjust="spacing" textLength="169" x="19" y="818.5957">numberOfParkingSpacings</text><text fill="#000000" font-family="sans-serif" font-size="14" lengthAdjust="spacing" textLength="66" x="19" y="834.2363">equipment</text></g><!--class Land--><g id="elem_Land"><rect codeLine="48" fill="#F1F1F1" height="33.6406" id="Land" rx="2.5" ry="2.5" style="stroke:#181818;stroke-width:0.5;" width="38" x="229.5" y="776"/><text fill="#000000" font-family="sans-serif" font-size="14" lengthAdjust="spacing" textLength="32" x="232.5" y="793.6738">Land</text><line style="stroke:#181818;stroke-width:0.5;" x1="230.5" x2="266.5" y1="801.6406" y2="801.6406"/></g><!--class Apartment--><g id="elem_Apartment"><rect codeLine="51" fill="#F1F1F1" height="33.6406" id="Apartment" rx="2.5" ry="2.5" style="stroke:#181818;stroke-width:0.5;" width="71" x="7" y="925.5"/><text fill="#000000" font-family="sans-serif" font-size="14" lengthAdjust="spacing" textLength="65" x="10" y="943.1738">Apartment</text><line style="stroke:#181818;stroke-width:0.5;" x1="8" x2="77" y1="951.1406" y2="951.1406"/></g><!--class House--><g id="elem_House"><rect codeLine="55" fill="#F1F1F1" height="80.5625" id="House" rx="2.5" ry="2.5" style="stroke:#181818;stroke-width:0.5;" width="105" x="113" y="902"/><text fill="#000000" font-family="sans-serif" font-size="14" lengthAdjust="spacing" textLength="40" x="145.5" y="919.6738">House</text><line style="stroke:#181818;stroke-width:0.5;" x1="114" x2="217" y1="927.6406" y2="927.6406"/><text fill="#000000" font-family="sans-serif" font-size="14" lengthAdjust="spacing" textLength="62" x="119" y="944.3145">basement</text><text fill="#000000" font-family="sans-serif" font-size="14" lengthAdjust="spacing" textLength="93" x="119" y="959.9551">inhabitableLoft</text><text fill="#000000" font-family="sans-serif" font-size="14" lengthAdjust="spacing" textLength="82" x="119" y="975.5957">sunExposure</text></g><!--class Legacy_System_Files--><g id="elem_Legacy_System_Files"><rect codeLine="61" fill="#F1F1F1" height="33.6406" id="Legacy_System_Files" rx="2.5" ry="2.5" style="stroke:#181818;stroke-width:0.5;" width="144" x="103.5" y="102"/><text fill="#000000" font-family="sans-serif" font-size="14" lengthAdjust="spacing" textLength="138" x="106.5" y="119.6738">Legacy_System_Files</text><line style="stroke:#181818;stroke-width:0.5;" x1="104.5" x2="246.5" y1="127.6406" y2="127.6406"/></g><!--class System_Administrator--><g id="elem_System_Administrator"><rect fill="#F1F1F1" height="33.6406" id="System_Administrator" rx="2.5" ry="2.5" style="stroke:#181818;stroke-width:0.5;" width="143" x="104" y="7"/><text fill="#000000" font-family="sans-serif" font-size="14" lengthAdjust="spacing" textLength="137" x="107" y="24.6738">System_Administrator</text><line style="stroke:#181818;stroke-width:0.5;" x1="105" x2="246" y1="32.6406" y2="32.6406"/></g><!--link System_Administrator to Legacy_System_Files--><g id="link_System_Administrator_Legacy_System_Files"><path codeLine="65" d="M175.5,41.2 C175.5,56.67 175.5,80.06 175.5,96.96 " fill="none" id="System_Administrator-to-Legacy_System_Files" style="stroke:#181818;stroke-width:1.0;"/><polygon fill="#181818" points="175.5,101.99,179.5,92.99,175.5,96.99,171.5,92.99,175.5,101.99" style="stroke:#181818;stroke-width:1.0;"/></g><!--link Legacy_System_Files to Announcement--><g id="link_Legacy_System_Files_Announcement"><path codeLine="66" d="M175.5,136.22 C175.5,153.47 175.5,181.66 175.5,206.68 " fill="none" id="Legacy_System_Files-to-Announcement" style="stroke:#181818;stroke-width:1.0;"/><polygon fill="#181818" points="175.5,211.97,179.5,202.97,175.5,206.97,171.5,202.97,175.5,211.97" style="stroke:#181818;stroke-width:1.0;"/><text fill="#000000" font-family="sans-serif" font-size="13" lengthAdjust="spacing" textLength="49" x="176.5" y="178.7686">contains</text><text fill="#000000" font-family="sans-serif" font-size="13" lengthAdjust="spacing" textLength="7" x="167.4281" y="155.5411">1</text><text fill="#000000" font-family="sans-serif" font-size="13" lengthAdjust="spacing" textLength="20" x="153.9688" y="201.3366">0..*</text></g><!--link Property to Building--><g id="link_Property_Building"><path codeLine="68" d="M151.12,684.18 C145.15,697.71 138.7,712.32 132.53,726.28 " fill="none" id="Property-to-Building" style="stroke:#181818;stroke-width:1.0;"/><polygon fill="none" points="138.85,729.3,124.36,744.76,126.04,723.64,138.85,729.3" style="stroke:#181818;stroke-width:1.0;"/></g><!--link Property to Land--><g id="link_Property_Land"><path codeLine="69" d="M200.21,684.18 C211.07,708.42 223.48,736.12 233,757.38 " fill="none" id="Property-to-Land" style="stroke:#181818;stroke-width:1.0;"/><polygon fill="none" points="239.46,754.68,241.24,775.79,226.68,760.4,239.46,754.68" style="stroke:#181818;stroke-width:1.0;"/></g><!--link Building to Apartment--><g id="link_Building_Apartment"><path codeLine="70" d="M84.03,841.08 C75.23,862.36 65.01,887.08 56.91,906.66 " fill="none" id="Building-to-Apartment" style="stroke:#181818;stroke-width:1.0;"/><polygon fill="none" points="63.36,909.37,49.25,925.17,50.43,904.02,63.36,909.37" style="stroke:#181818;stroke-width:1.0;"/></g><!--link Building to House--><g id="link_Building_House"><path codeLine="71" d="M123.29,841.08 C128.88,854.37 135.03,869 140.86,882.88 " fill="none" id="Building-to-House" style="stroke:#181818;stroke-width:1.0;"/><polygon fill="none" points="147.51,880.65,148.81,901.8,134.61,886.07,147.51,880.65" style="stroke:#181818;stroke-width:1.0;"/></g><!--link Request to Property--><g id="link_Request_Property"><path codeLine="72" d="M175.5,496.05 C175.5,518.26 175.5,543.95 175.5,566.67 " fill="none" id="Request-to-Property" style="stroke:#181818;stroke-width:1.0;"/><polygon fill="#181818" points="175.5,571.77,179.5,562.77,175.5,566.77,171.5,562.77,175.5,571.77" style="stroke:#181818;stroke-width:1.0;"/><text fill="#000000" font-family="sans-serif" font-size="13" lengthAdjust="spacing" textLength="49" x="176.5" y="538.7686">contains</text></g><!--link Announcement to Request--><g id="link_Announcement_Request"><path codeLine="73" d="M175.5,308.23 C175.5,329.87 175.5,355.77 175.5,378.79 " fill="none" id="Announcement-to-Request" style="stroke:#181818;stroke-width:1.0;"/><polygon fill="#181818" points="175.5,383.97,179.5,374.97,175.5,378.97,171.5,374.97,175.5,383.97" style="stroke:#181818;stroke-width:1.0;"/><text fill="#000000" font-family="sans-serif" font-size="13" lengthAdjust="spacing" textLength="49" x="176.5" y="350.7686">contains</text></g><!--SRC=[RLB1Rjim3BtpAuHS0Wn8qLrtA92sApOWnO9bzq2M69ke9ReIZSxpzk-ZdSHnYbuiwV7naNvaVg7Os6I32HpPLOa36aajGfuYZNKljiITT3MQX4viBEiv8LVMynl5qXnidH5WMUD1ZB19L5PYF0rPn15cIQwsEQz54XMju7V7SKT_qDm2LEJHE4fEYuptW5Anpweh9Dh38mTBqJopnrh1KSbiQoi7Ji7qi3HcvJ6xHCrOTVaFu4XQnyXjT1WmIW_aeMcBcfmTQ8zM4DQbHlQE0-Kyf4wtNrs3CEdynDSMiqgausMCDeaRJDAD3pKikcuyH2FaPjdR4x673HzhWqremLDMRnq-wHGUIBe7pSK4_1RrsrGid2yYzotLNZtl8RQXmFJZS8y-COTy0QnKryZM9Xr0kTEHwf51kwTcCEEYkx7HzvVdMgSb0qDzlQ3VkCtOGs7pQ2LGh6n1OeiQDtmGo6ty-hlXtARPRs-mjAxRxxei6FPFL6CsOoKuGMiVAAe7oGedirhTVPG27yaiFYz6_kBsvkRJuchCvelHtH9T65sWi_DA_ditMVWE7Xo0S-m8JIwymqSVuBGDOmUJrApiLJi3wPmmR-q_]--></g></svg>