<?xml version="1.0" encoding="us-ascii" standalone="no"?><svg xmlns="http://www.w3.org/2000/svg" xmlns:xlink="http://www.w3.org/1999/xlink" contentStyleType="text/css" height="760px" preserveAspectRatio="none" style="width:729px;height:760px;background:#FFFFFF;" version="1.1" viewBox="0 0 729 760" width="729px" zoomAndPan="magnify"><defs/><g><text fill="#000000" font-family="sans-serif" font-size="14" font-weight="bold" lengthAdjust="spacing" textLength="284" x="223.75" y="27.6738">System Sequence Diagram (SSD) - US011</text><rect fill="#FFFFFF" height="544.1875" style="stroke:#181818;stroke-width:1.0;" width="10" x="36.5" y="127.2813"/><rect fill="#FFFFFF" height="28.5234" style="stroke:#181818;stroke-width:1.0;" width="10" x="427.5" y="147.8047"/><rect fill="#FFFFFF" height="52.0469" style="stroke:#181818;stroke-width:1.0;" width="10" x="427.5" y="204.8516"/><rect fill="#FFFFFF" height="28.5234" style="stroke:#181818;stroke-width:1.0;" width="10" x="427.5" y="285.4219"/><rect fill="#FFFFFF" height="313" style="stroke:#181818;stroke-width:1.0;" width="10" x="427.5" y="342.4688"/><rect fill="none" height="443.6172" style="stroke:#000000;stroke-width:1.5;" width="712.5" x="10" y="219.8516"/><rect fill="none" height="130.0938" style="stroke:#000000;stroke-width:1.5;" width="332" x="380.5" y="440.5156"/><rect fill="none" height="99.5703" style="stroke:#000000;stroke-width:1.5;" width="312" x="390.5" y="464.0391"/><line style="stroke:#181818;stroke-width:0.5;stroke-dasharray:5.0,5.0;" x1="41" x2="41" y1="117.2813" y2="680.4688"/><line style="stroke:#181818;stroke-width:0.5;stroke-dasharray:5.0,5.0;" x1="432.5" x2="432.5" y1="117.2813" y2="680.4688"/><text fill="#000000" font-family="sans-serif" font-size="14" lengthAdjust="spacing" textLength="37" x="20" y="114.3145">Agent</text><ellipse cx="41.5" cy="50.1406" fill="#E3E3E3" rx="8" ry="8" style="stroke:#181818;stroke-width:0.5;"/><path d="M41.5,58.1406 L41.5,85.1406 M28.5,66.1406 L54.5,66.1406 M41.5,85.1406 L28.5,100.1406 M41.5,85.1406 L54.5,100.1406 " fill="none" style="stroke:#181818;stroke-width:0.5;"/><text fill="#000000" font-family="sans-serif" font-size="14" lengthAdjust="spacing" textLength="37" x="20" y="692.1426">Agent</text><ellipse cx="41.5" cy="703.6094" fill="#E3E3E3" rx="8" ry="8" style="stroke:#181818;stroke-width:0.5;"/><path d="M41.5,711.6094 L41.5,738.6094 M28.5,719.6094 L54.5,719.6094 M41.5,738.6094 L28.5,753.6094 M41.5,738.6094 L54.5,753.6094 " fill="none" style="stroke:#181818;stroke-width:0.5;"/><rect fill="#E3E3E3" height="29.6406" rx="2.5" ry="2.5" style="stroke:#181818;stroke-width:0.5;" width="64" x="400.5" y="86.6406"/><text fill="#000000" font-family="sans-serif" font-size="14" lengthAdjust="spacing" textLength="50" x="407.5" y="106.3145">:System</text><rect fill="#E3E3E3" height="29.6406" rx="2.5" ry="2.5" style="stroke:#181818;stroke-width:0.5;" width="64" x="400.5" y="679.4688"/><text fill="#000000" font-family="sans-serif" font-size="14" lengthAdjust="spacing" textLength="50" x="407.5" y="699.1426">:System</text><rect fill="#FFFFFF" height="544.1875" style="stroke:#181818;stroke-width:1.0;" width="10" x="36.5" y="127.2813"/><rect fill="#FFFFFF" height="28.5234" style="stroke:#181818;stroke-width:1.0;" width="10" x="427.5" y="147.8047"/><rect fill="#FFFFFF" height="52.0469" style="stroke:#181818;stroke-width:1.0;" width="10" x="427.5" y="204.8516"/><rect fill="#FFFFFF" height="28.5234" style="stroke:#181818;stroke-width:1.0;" width="10" x="427.5" y="285.4219"/><rect fill="#FFFFFF" height="313" style="stroke:#181818;stroke-width:1.0;" width="10" x="427.5" y="342.4688"/><polygon fill="#181818" points="415.5,143.8047,425.5,147.8047,415.5,151.8047,419.5,147.8047" style="stroke:#181818;stroke-width:1.0;"/><line style="stroke:#181818;stroke-width:1.0;" x1="46.5" x2="421.5" y1="147.8047" y2="147.8047"/><text fill="#000000" font-family="sans-serif" font-size="13" font-weight="bold" lengthAdjust="spacing" textLength="7" x="53.5" y="143.0498">1</text><text fill="#000000" font-family="sans-serif" font-size="13" lengthAdjust="spacing" textLength="349" x="64.5" y="143.0498">requests to see the properties that are available for purchase</text><polygon fill="#181818" points="57.5,172.3281,47.5,176.3281,57.5,180.3281,53.5,176.3281" style="stroke:#181818;stroke-width:1.0;"/><line style="stroke:#181818;stroke-width:1.0;stroke-dasharray:2.0,2.0;" x1="51.5" x2="431.5" y1="176.3281" y2="176.3281"/><text fill="#000000" font-family="sans-serif" font-size="13" font-weight="bold" lengthAdjust="spacing" textLength="7" x="63.5" y="171.5732">2</text><text fill="#000000" font-family="sans-serif" font-size="13" lengthAdjust="spacing" textLength="309" x="74.5" y="171.5732">shows the available properties and asks to select one</text><polygon fill="#181818" points="415.5,200.8516,425.5,204.8516,415.5,208.8516,419.5,204.8516" style="stroke:#181818;stroke-width:1.0;"/><line style="stroke:#181818;stroke-width:1.0;" x1="46.5" x2="421.5" y1="204.8516" y2="204.8516"/><text fill="#000000" font-family="sans-serif" font-size="13" font-weight="bold" lengthAdjust="spacing" textLength="7" x="53.5" y="200.0967">3</text><text fill="#000000" font-family="sans-serif" font-size="13" lengthAdjust="spacing" textLength="104" x="64.5" y="200.0967">selects a property</text><path d="M10,219.8516 L71,219.8516 L71,226.375 L61,236.375 L10,236.375 L10,219.8516 " fill="#EEEEEE" style="stroke:#000000;stroke-width:1.5;"/><rect fill="none" height="443.6172" style="stroke:#000000;stroke-width:1.5;" width="712.5" x="10" y="219.8516"/><text fill="#000000" font-family="sans-serif" font-size="13" font-weight="bold" lengthAdjust="spacing" textLength="16" x="25" y="232.6201">alt</text><text fill="#000000" font-family="sans-serif" font-size="11" font-weight="bold" lengthAdjust="spacing" textLength="172" x="86" y="231.8096">[if that exists purchase orders]</text><polygon fill="#181818" points="57.5,252.8984,47.5,256.8984,57.5,260.8984,53.5,256.8984" style="stroke:#181818;stroke-width:1.0;"/><line style="stroke:#181818;stroke-width:1.0;stroke-dasharray:2.0,2.0;" x1="51.5" x2="431.5" y1="256.8984" y2="256.8984"/><text fill="#000000" font-family="sans-serif" font-size="13" font-weight="bold" lengthAdjust="spacing" textLength="7" x="63.5" y="252.1436">4</text><text fill="#000000" font-family="sans-serif" font-size="13" lengthAdjust="spacing" textLength="346" x="74.5" y="252.1436">displays the list of purchase orders for the selected property</text><polygon fill="#181818" points="415.5,281.4219,425.5,285.4219,415.5,289.4219,419.5,285.4219" style="stroke:#181818;stroke-width:1.0;"/><line style="stroke:#181818;stroke-width:1.0;" x1="46.5" x2="421.5" y1="285.4219" y2="285.4219"/><text fill="#000000" font-family="sans-serif" font-size="13" font-weight="bold" lengthAdjust="spacing" textLength="7" x="53.5" y="280.667">5</text><text fill="#000000" font-family="sans-serif" font-size="13" lengthAdjust="spacing" textLength="143" x="64.5" y="280.667">selects a purchase order</text><polygon fill="#181818" points="57.5,309.9453,47.5,313.9453,57.5,317.9453,53.5,313.9453" style="stroke:#181818;stroke-width:1.0;"/><line style="stroke:#181818;stroke-width:1.0;stroke-dasharray:2.0,2.0;" x1="51.5" x2="431.5" y1="313.9453" y2="313.9453"/><text fill="#000000" font-family="sans-serif" font-size="13" font-weight="bold" lengthAdjust="spacing" textLength="7" x="63.5" y="309.1904">6</text><text fill="#000000" font-family="sans-serif" font-size="13" lengthAdjust="spacing" textLength="209" x="74.5" y="309.1904">asks for decision (accept or decline)</text><polygon fill="#181818" points="415.5,338.4688,425.5,342.4688,415.5,346.4688,419.5,342.4688" style="stroke:#181818;stroke-width:1.0;"/><line style="stroke:#181818;stroke-width:1.0;" x1="46.5" x2="421.5" y1="342.4688" y2="342.4688"/><text fill="#000000" font-family="sans-serif" font-size="13" font-weight="bold" lengthAdjust="spacing" textLength="7" x="53.5" y="337.7139">7</text><text fill="#000000" font-family="sans-serif" font-size="13" lengthAdjust="spacing" textLength="224" x="64.5" y="337.7139">Makes the decision (accept or decline)</text><line style="stroke:#181818;stroke-width:1.0;" x1="437.5" x2="479.5" y1="370.9922" y2="370.9922"/><line style="stroke:#181818;stroke-width:1.0;" x1="479.5" x2="479.5" y1="370.9922" y2="383.9922"/><line style="stroke:#181818;stroke-width:1.0;" x1="438.5" x2="479.5" y1="383.9922" y2="383.9922"/><polygon fill="#181818" points="448.5,379.9922,438.5,383.9922,448.5,387.9922,444.5,383.9922" style="stroke:#181818;stroke-width:1.0;"/><text fill="#000000" font-family="sans-serif" font-size="13" font-weight="bold" lengthAdjust="spacing" textLength="7" x="444.5" y="366.2373">8</text><text fill="#000000" font-family="sans-serif" font-size="13" lengthAdjust="spacing" textLength="183" x="455.5" y="366.2373">Update purchase order decision</text><line style="stroke:#181818;stroke-width:1.0;" x1="437.5" x2="479.5" y1="412.5156" y2="412.5156"/><line style="stroke:#181818;stroke-width:1.0;" x1="479.5" x2="479.5" y1="412.5156" y2="425.5156"/><line style="stroke:#181818;stroke-width:1.0;" x1="438.5" x2="479.5" y1="425.5156" y2="425.5156"/><polygon fill="#181818" points="448.5,421.5156,438.5,425.5156,448.5,429.5156,444.5,425.5156" style="stroke:#181818;stroke-width:1.0;"/><text fill="#000000" font-family="sans-serif" font-size="13" font-weight="bold" lengthAdjust="spacing" textLength="7" x="444.5" y="407.7607">9</text><text fill="#000000" font-family="sans-serif" font-size="13" lengthAdjust="spacing" textLength="137" x="455.5" y="407.7607">Send email to the client</text><path d="M380.5,440.5156 L445.5,440.5156 L445.5,447.0391 L435.5,457.0391 L380.5,457.0391 L380.5,440.5156 " fill="#EEEEEE" style="stroke:#000000;stroke-width:1.5;"/><rect fill="none" height="130.0938" style="stroke:#000000;stroke-width:1.5;" width="332" x="380.5" y="440.5156"/><text fill="#000000" font-family="sans-serif" font-size="13" font-weight="bold" lengthAdjust="spacing" textLength="20" x="395.5" y="453.2842">opt</text><text fill="#000000" font-family="sans-serif" font-size="11" font-weight="bold" lengthAdjust="spacing" textLength="165" x="460.5" y="452.4736">[if the decision was accepted]</text><path d="M390.5,464.0391 L463.5,464.0391 L463.5,470.5625 L453.5,480.5625 L390.5,480.5625 L390.5,464.0391 " fill="#EEEEEE" style="stroke:#000000;stroke-width:1.5;"/><rect fill="none" height="99.5703" style="stroke:#000000;stroke-width:1.5;" width="312" x="390.5" y="464.0391"/><text fill="#000000" font-family="sans-serif" font-size="13" font-weight="bold" lengthAdjust="spacing" textLength="28" x="405.5" y="476.8076">loop</text><text fill="#000000" font-family="sans-serif" font-size="11" font-weight="bold" lengthAdjust="spacing" textLength="162" x="478.5" y="475.9971">[propertie's other proposals]</text><line style="stroke:#181818;stroke-width:1.0;" x1="437.5" x2="479.5" y1="501.0859" y2="501.0859"/><line style="stroke:#181818;stroke-width:1.0;" x1="479.5" x2="479.5" y1="501.0859" y2="514.0859"/><line style="stroke:#181818;stroke-width:1.0;" x1="438.5" x2="479.5" y1="514.0859" y2="514.0859"/><polygon fill="#181818" points="448.5,510.0859,438.5,514.0859,448.5,518.0859,444.5,514.0859" style="stroke:#181818;stroke-width:1.0;"/><text fill="#000000" font-family="sans-serif" font-size="13" font-weight="bold" lengthAdjust="spacing" textLength="14" x="444.5" y="496.3311">10</text><text fill="#000000" font-family="sans-serif" font-size="13" lengthAdjust="spacing" textLength="228" x="462.5" y="496.3311">Decline purchase order for that property</text><line style="stroke:#181818;stroke-width:1.0;" x1="437.5" x2="479.5" y1="542.6094" y2="542.6094"/><line style="stroke:#181818;stroke-width:1.0;" x1="479.5" x2="479.5" y1="542.6094" y2="555.6094"/><line style="stroke:#181818;stroke-width:1.0;" x1="438.5" x2="479.5" y1="555.6094" y2="555.6094"/><polygon fill="#181818" points="448.5,551.6094,438.5,555.6094,448.5,559.6094,444.5,555.6094" style="stroke:#181818;stroke-width:1.0;"/><text fill="#000000" font-family="sans-serif" font-size="13" font-weight="bold" lengthAdjust="spacing" textLength="14" x="444.5" y="537.8545">11</text><text fill="#000000" font-family="sans-serif" font-size="13" lengthAdjust="spacing" textLength="117" x="462.5" y="537.8545">Email sent declining</text><polygon fill="#181818" points="57.5,594.1328,47.5,598.1328,57.5,602.1328,53.5,598.1328" style="stroke:#181818;stroke-width:1.0;"/><line style="stroke:#181818;stroke-width:1.0;stroke-dasharray:2.0,2.0;" x1="51.5" x2="426.5" y1="598.1328" y2="598.1328"/><text fill="#000000" font-family="sans-serif" font-size="13" font-weight="bold" lengthAdjust="spacing" textLength="14" x="63.5" y="593.3779">12</text><text fill="#000000" font-family="sans-serif" font-size="13" lengthAdjust="spacing" textLength="109" x="81.5" y="593.3779">Operation success</text><line style="stroke:#000000;stroke-width:1.0;stroke-dasharray:2.0,2.0;" x1="10" x2="722.5" y1="607.1328" y2="607.1328"/><text fill="#000000" font-family="sans-serif" font-size="11" font-weight="bold" lengthAdjust="spacing" textLength="171" x="15" y="617.0908">[if there's no purchase orders]</text><polygon fill="#181818" points="57.5,651.4688,47.5,655.4688,57.5,659.4688,53.5,655.4688" style="stroke:#181818;stroke-width:1.0;"/><line style="stroke:#181818;stroke-width:1.0;stroke-dasharray:2.0,2.0;" x1="51.5" x2="431.5" y1="655.4688" y2="655.4688"/><text fill="#000000" font-family="sans-serif" font-size="13" font-weight="bold" lengthAdjust="spacing" textLength="14" x="63.5" y="643.4521">13</text><text fill="#000000" font-family="sans-serif" font-size="13" lengthAdjust="spacing" textLength="116" x="81.5" y="636.1904">shows an empty list</text><text fill="#000000" font-family="sans-serif" font-size="13" lengthAdjust="spacing" textLength="132" x="81.5" y="650.7139">and the operation ends</text><!--SRC=[bLGxZzim3DxzAuWilHi2zDOC1GhangA3SLiNditOGcHHbUHB_UzBMNwcSNBr94ialuT8-RCo5XqsqB3XedRS40JNKkQd4ul56IlAGwS971K1JQMN0Rx6aY_AL712xIdBWWeIcdS-K0Cv_Mx950H7XLKCVyhpupFiuIt_-lAIPTW6DctpJaxMHM07k-yLcR03zF3QMCqTKIP8GHNAeWcmEwJIVKHQzgdg0mFDAHd8D_x1_jj8w20YX98F7WA3bxDG4rZ7bWI3PBV60EW8y0ELndVHSX9QjdL5ZNueFE6D1EBcWB0Ni0du8FxmnVSWSy4579fIX9m7DbeC1ZO3IaatSMwgIhbIRopUfU1DjjEX3g1EIJRzKT6OKIkmAydvTVosqb9vgx5BOhLK0ZvTr-gzZEU9BvKtw6x8dhv7-bU8dtHXGr9_Cv5oIONoYWqyOL6G5MdzdbQ6dgygtQ3_2Vu_y4p9kRjG_oTcKV_DbZ5yRSw4zJ0z9-bJQgI1OwD6ca98vdG6PZlqqKB1HKOqYQ1oJL4pstaCldXWINJz3djvHxPxRa7gc5ov5fLQJDhvtzQwK-or5-T5q-2sF6dhHB5WtbZzR3VGJo608NhXMp72zy98tid1AnUr6tuySeyU63HoFJPqQV1-cVYknBlWYO0mzlU6R5Br5m00]--></g></svg>