<?xml version="1.0" encoding="us-ascii" standalone="no"?><svg xmlns="http://www.w3.org/2000/svg" xmlns:xlink="http://www.w3.org/1999/xlink" contentStyleType="text/css" height="727px" preserveAspectRatio="none" style="width:729px;height:727px;background:#FFFFFF;" version="1.1" viewBox="0 0 729 727" width="729px" zoomAndPan="magnify"><defs/><g><text fill="#000000" font-family="sans-serif" font-size="14" font-weight="bold" lengthAdjust="spacing" textLength="284" x="228.75" y="27.6738">System Sequence Diagram (SSD) - US011</text><rect fill="#FFFFFF" height="510.6641" style="stroke:#181818;stroke-width:1.0;" width="10" x="46.5" y="127.2813"/><rect fill="#FFFFFF" height="75.5703" style="stroke:#181818;stroke-width:1.0;" width="10" x="412.5" y="147.8047"/><rect fill="#FFFFFF" height="28.5234" style="stroke:#181818;stroke-width:1.0;" width="10" x="412.5" y="251.8984"/><rect fill="#FFFFFF" height="313" style="stroke:#181818;stroke-width:1.0;" width="10" x="412.5" y="308.9453"/><rect fill="none" height="443.6172" style="stroke:#000000;stroke-width:1.5;" width="702.5" x="20" y="186.3281"/><rect fill="none" height="130.0938" style="stroke:#000000;stroke-width:1.5;" width="347" x="365.5" y="406.9922"/><rect fill="none" height="99.5703" style="stroke:#000000;stroke-width:1.5;" width="327" x="375.5" y="430.5156"/><line style="stroke:#181818;stroke-width:0.5;stroke-dasharray:5.0,5.0;" x1="51" x2="51" y1="117.2813" y2="646.9453"/><line style="stroke:#181818;stroke-width:0.5;stroke-dasharray:5.0,5.0;" x1="417.5" x2="417.5" y1="117.2813" y2="646.9453"/><text fill="#000000" font-family="sans-serif" font-size="14" lengthAdjust="spacing" textLength="37" x="30" y="114.3145">Agent</text><ellipse cx="51.5" cy="50.1406" fill="#E3E3E3" rx="8" ry="8" style="stroke:#181818;stroke-width:0.5;"/><path d="M51.5,58.1406 L51.5,85.1406 M38.5,66.1406 L64.5,66.1406 M51.5,85.1406 L38.5,100.1406 M51.5,85.1406 L64.5,100.1406 " fill="none" style="stroke:#181818;stroke-width:0.5;"/><text fill="#000000" font-family="sans-serif" font-size="14" lengthAdjust="spacing" textLength="37" x="30" y="658.6191">Agent</text><ellipse cx="51.5" cy="670.0859" fill="#E3E3E3" rx="8" ry="8" style="stroke:#181818;stroke-width:0.5;"/><path d="M51.5,678.0859 L51.5,705.0859 M38.5,686.0859 L64.5,686.0859 M51.5,705.0859 L38.5,720.0859 M51.5,705.0859 L64.5,720.0859 " fill="none" style="stroke:#181818;stroke-width:0.5;"/><rect fill="#E3E3E3" height="29.6406" rx="2.5" ry="2.5" style="stroke:#181818;stroke-width:0.5;" width="64" x="385.5" y="86.6406"/><text fill="#000000" font-family="sans-serif" font-size="14" lengthAdjust="spacing" textLength="50" x="392.5" y="106.3145">:System</text><rect fill="#E3E3E3" height="29.6406" rx="2.5" ry="2.5" style="stroke:#181818;stroke-width:0.5;" width="64" x="385.5" y="645.9453"/><text fill="#000000" font-family="sans-serif" font-size="14" lengthAdjust="spacing" textLength="50" x="392.5" y="665.6191">:System</text><rect fill="#FFFFFF" height="510.6641" style="stroke:#181818;stroke-width:1.0;" width="10" x="46.5" y="127.2813"/><rect fill="#FFFFFF" height="75.5703" style="stroke:#181818;stroke-width:1.0;" width="10" x="412.5" y="147.8047"/><rect fill="#FFFFFF" height="28.5234" style="stroke:#181818;stroke-width:1.0;" width="10" x="412.5" y="251.8984"/><rect fill="#FFFFFF" height="313" style="stroke:#181818;stroke-width:1.0;" width="10" x="412.5" y="308.9453"/><polygon fill="#181818" points="400.5,143.8047,410.5,147.8047,400.5,151.8047,404.5,147.8047" style="stroke:#181818;stroke-width:1.0;"/><line style="stroke:#181818;stroke-width:1.0;" x1="56.5" x2="406.5" y1="147.8047" y2="147.8047"/><text fill="#000000" font-family="sans-serif" font-size="13" font-weight="bold" lengthAdjust="spacing" textLength="7" x="63.5" y="143.0498">1</text><text fill="#000000" font-family="sans-serif" font-size="13" lengthAdjust="spacing" textLength="239" x="74.5" y="143.0498">requests properties available for purchase</text><path d="M20,186.3281 L81,186.3281 L81,192.8516 L71,202.8516 L20,202.8516 L20,186.3281 " fill="#EEEEEE" style="stroke:#000000;stroke-width:1.5;"/><rect fill="none" height="443.6172" style="stroke:#000000;stroke-width:1.5;" width="702.5" x="20" y="186.3281"/><text fill="#000000" font-family="sans-serif" font-size="13" font-weight="bold" lengthAdjust="spacing" textLength="16" x="35" y="199.0967">alt</text><text fill="#000000" font-family="sans-serif" font-size="11" font-weight="bold" lengthAdjust="spacing" textLength="129" x="96" y="198.2861">[if purchase orders &gt; 0]</text><polygon fill="#181818" points="67.5,219.375,57.5,223.375,67.5,227.375,63.5,223.375" style="stroke:#181818;stroke-width:1.0;"/><line style="stroke:#181818;stroke-width:1.0;stroke-dasharray:2.0,2.0;" x1="61.5" x2="416.5" y1="223.375" y2="223.375"/><text fill="#000000" font-family="sans-serif" font-size="13" font-weight="bold" lengthAdjust="spacing" textLength="7" x="73.5" y="218.6201">2</text><text fill="#000000" font-family="sans-serif" font-size="13" lengthAdjust="spacing" textLength="321" x="84.5" y="218.6201">displays the list of purchase orders grouped by property</text><polygon fill="#181818" points="400.5,247.8984,410.5,251.8984,400.5,255.8984,404.5,251.8984" style="stroke:#181818;stroke-width:1.0;"/><line style="stroke:#181818;stroke-width:1.0;" x1="56.5" x2="406.5" y1="251.8984" y2="251.8984"/><text fill="#000000" font-family="sans-serif" font-size="13" font-weight="bold" lengthAdjust="spacing" textLength="7" x="63.5" y="247.1436">3</text><text fill="#000000" font-family="sans-serif" font-size="13" lengthAdjust="spacing" textLength="237" x="74.5" y="247.1436">selects purchase order (without decision)</text><polygon fill="#181818" points="67.5,276.4219,57.5,280.4219,67.5,284.4219,63.5,280.4219" style="stroke:#181818;stroke-width:1.0;"/><line style="stroke:#181818;stroke-width:1.0;stroke-dasharray:2.0,2.0;" x1="61.5" x2="416.5" y1="280.4219" y2="280.4219"/><text fill="#000000" font-family="sans-serif" font-size="13" font-weight="bold" lengthAdjust="spacing" textLength="7" x="73.5" y="275.667">4</text><text fill="#000000" font-family="sans-serif" font-size="13" lengthAdjust="spacing" textLength="144" x="84.5" y="275.667">Asks to make a decision</text><polygon fill="#181818" points="400.5,304.9453,410.5,308.9453,400.5,312.9453,404.5,308.9453" style="stroke:#181818;stroke-width:1.0;"/><line style="stroke:#181818;stroke-width:1.0;" x1="56.5" x2="406.5" y1="308.9453" y2="308.9453"/><text fill="#000000" font-family="sans-serif" font-size="13" font-weight="bold" lengthAdjust="spacing" textLength="7" x="63.5" y="304.1904">5</text><text fill="#000000" font-family="sans-serif" font-size="13" lengthAdjust="spacing" textLength="153" x="74.5" y="304.1904">Accept or decline decision</text><line style="stroke:#181818;stroke-width:1.0;" x1="422.5" x2="464.5" y1="337.4688" y2="337.4688"/><line style="stroke:#181818;stroke-width:1.0;" x1="464.5" x2="464.5" y1="337.4688" y2="350.4688"/><line style="stroke:#181818;stroke-width:1.0;" x1="423.5" x2="464.5" y1="350.4688" y2="350.4688"/><polygon fill="#181818" points="433.5,346.4688,423.5,350.4688,433.5,354.4688,429.5,350.4688" style="stroke:#181818;stroke-width:1.0;"/><text fill="#000000" font-family="sans-serif" font-size="13" font-weight="bold" lengthAdjust="spacing" textLength="7" x="429.5" y="332.7139">6</text><text fill="#000000" font-family="sans-serif" font-size="13" lengthAdjust="spacing" textLength="183" x="440.5" y="332.7139">Update purchase order decision</text><line style="stroke:#181818;stroke-width:1.0;" x1="422.5" x2="464.5" y1="378.9922" y2="378.9922"/><line style="stroke:#181818;stroke-width:1.0;" x1="464.5" x2="464.5" y1="378.9922" y2="391.9922"/><line style="stroke:#181818;stroke-width:1.0;" x1="423.5" x2="464.5" y1="391.9922" y2="391.9922"/><polygon fill="#181818" points="433.5,387.9922,423.5,391.9922,433.5,395.9922,429.5,391.9922" style="stroke:#181818;stroke-width:1.0;"/><text fill="#000000" font-family="sans-serif" font-size="13" font-weight="bold" lengthAdjust="spacing" textLength="7" x="429.5" y="374.2373">7</text><text fill="#000000" font-family="sans-serif" font-size="13" lengthAdjust="spacing" textLength="160" x="440.5" y="374.2373">Send email to the costumer</text><path d="M365.5,406.9922 L426.5,406.9922 L426.5,413.5156 L416.5,423.5156 L365.5,423.5156 L365.5,406.9922 " fill="#EEEEEE" style="stroke:#000000;stroke-width:1.5;"/><rect fill="none" height="130.0938" style="stroke:#000000;stroke-width:1.5;" width="347" x="365.5" y="406.9922"/><text fill="#000000" font-family="sans-serif" font-size="13" font-weight="bold" lengthAdjust="spacing" textLength="16" x="380.5" y="419.7607">alt</text><text fill="#000000" font-family="sans-serif" font-size="11" font-weight="bold" lengthAdjust="spacing" textLength="165" x="441.5" y="418.9502">[if the decision was accepted]</text><path d="M375.5,430.5156 L448.5,430.5156 L448.5,437.0391 L438.5,447.0391 L375.5,447.0391 L375.5,430.5156 " fill="#EEEEEE" style="stroke:#000000;stroke-width:1.5;"/><rect fill="none" height="99.5703" style="stroke:#000000;stroke-width:1.5;" width="327" x="375.5" y="430.5156"/><text fill="#000000" font-family="sans-serif" font-size="13" font-weight="bold" lengthAdjust="spacing" textLength="28" x="390.5" y="443.2842">loop</text><text fill="#000000" font-family="sans-serif" font-size="11" font-weight="bold" lengthAdjust="spacing" textLength="162" x="463.5" y="442.4736">[propertie's other proposals]</text><line style="stroke:#181818;stroke-width:1.0;" x1="422.5" x2="464.5" y1="467.5625" y2="467.5625"/><line style="stroke:#181818;stroke-width:1.0;" x1="464.5" x2="464.5" y1="467.5625" y2="480.5625"/><line style="stroke:#181818;stroke-width:1.0;" x1="423.5" x2="464.5" y1="480.5625" y2="480.5625"/><polygon fill="#181818" points="433.5,476.5625,423.5,480.5625,433.5,484.5625,429.5,480.5625" style="stroke:#181818;stroke-width:1.0;"/><text fill="#000000" font-family="sans-serif" font-size="13" font-weight="bold" lengthAdjust="spacing" textLength="7" x="429.5" y="462.8076">8</text><text fill="#000000" font-family="sans-serif" font-size="13" lengthAdjust="spacing" textLength="250" x="440.5" y="462.8076">Decline the purchase order for that property</text><line style="stroke:#181818;stroke-width:1.0;" x1="422.5" x2="464.5" y1="509.0859" y2="509.0859"/><line style="stroke:#181818;stroke-width:1.0;" x1="464.5" x2="464.5" y1="509.0859" y2="522.0859"/><line style="stroke:#181818;stroke-width:1.0;" x1="423.5" x2="464.5" y1="522.0859" y2="522.0859"/><polygon fill="#181818" points="433.5,518.0859,423.5,522.0859,433.5,526.0859,429.5,522.0859" style="stroke:#181818;stroke-width:1.0;"/><text fill="#000000" font-family="sans-serif" font-size="13" font-weight="bold" lengthAdjust="spacing" textLength="7" x="429.5" y="504.3311">9</text><text fill="#000000" font-family="sans-serif" font-size="13" lengthAdjust="spacing" textLength="137" x="440.5" y="504.3311">Message sent declining</text><polygon fill="#181818" points="67.5,560.6094,57.5,564.6094,67.5,568.6094,63.5,564.6094" style="stroke:#181818;stroke-width:1.0;"/><line style="stroke:#181818;stroke-width:1.0;stroke-dasharray:2.0,2.0;" x1="61.5" x2="411.5" y1="564.6094" y2="564.6094"/><text fill="#000000" font-family="sans-serif" font-size="13" font-weight="bold" lengthAdjust="spacing" textLength="14" x="73.5" y="559.8545">10</text><text fill="#000000" font-family="sans-serif" font-size="13" lengthAdjust="spacing" textLength="190" x="91.5" y="559.8545">Informs of the operation Success</text><line style="stroke:#000000;stroke-width:1.0;stroke-dasharray:2.0,2.0;" x1="20" x2="722.5" y1="573.6094" y2="573.6094"/><text fill="#000000" font-family="sans-serif" font-size="11" font-weight="bold" lengthAdjust="spacing" textLength="129" x="25" y="583.5674">[if purchase orders = 0]</text><polygon fill="#181818" points="67.5,617.9453,57.5,621.9453,67.5,625.9453,63.5,621.9453" style="stroke:#181818;stroke-width:1.0;"/><line style="stroke:#181818;stroke-width:1.0;stroke-dasharray:2.0,2.0;" x1="61.5" x2="416.5" y1="621.9453" y2="621.9453"/><text fill="#000000" font-family="sans-serif" font-size="13" font-weight="bold" lengthAdjust="spacing" textLength="14" x="73.5" y="609.9287">11</text><text fill="#000000" font-family="sans-serif" font-size="13" lengthAdjust="spacing" textLength="238" x="91.5" y="602.667">Informs that there are no purchase orders</text><text fill="#000000" font-family="sans-serif" font-size="13" lengthAdjust="spacing" textLength="148" x="91.5" y="617.1904">and of the operation's end</text><!--SRC=[bLInRjim4Dtr5GSlJGO3oMgW0GouGuTEGhOkP-ei4QP8bdUAeR_lKR5bMxBTXe00IRnxVE_naRotFcB25jhWWsbIQ0aaTLJmE1FHxB6cKdf7aCW8-jfT5d23LJXONyCE7LDHY1KjBNiMQg6aFnrvGx2nMEVofxBSFCCItikNrzUYm4w2xzej9Nqt4X8irZLvMG0o_6YZ2prHeIk9DJQY5rYiFg67Yi_NeTL-eD2vfG0TfozOlfq8hLI4Kc9XY2b4Kc1Ym0-q3hVAUwSKOfTCWtm4oMF4Foq85yE548S-TEuhe0Em4x2xSH92gYWnlC7BTLqUHmLB5JCAMq5bEJhi6QGXS9O5mXolJg6BLC6sFn7ip_WLpUGzchlYTDDX9gT1uGaBU3fOQK8d2ceis-2V_zFWEyhNl5VL0LhS4-28EkbzfEw-XBKn5DNAb66TzNI6_nhb2yptMENoYIipt7lj9VaAgDLCPT5vjqrWwTfyT2PnofCdN3ZeES513bKtWZi6zXj3qCOq_0ciX_b-12zeROx-v3KdqdBifK6vaRa7WB-8MMySJP6Ne_jwkrotgXNd7rSVz-FoqokVblFno5mp8vHiKDcfEyp5d1sGtcYtpkVtV3xdvVzSUt0Zcwo1rSU7AV9lZxhBKugwDLSYvvaUVVWB]--></g></svg>