<?xml version="1.0" encoding="us-ascii" standalone="no"?><svg xmlns="http://www.w3.org/2000/svg" xmlns:xlink="http://www.w3.org/1999/xlink" contentStyleType="text/css" height="703px" preserveAspectRatio="none" style="width:722px;height:703px;background:#FFFFFF;" version="1.1" viewBox="0 0 722 703" width="722px" zoomAndPan="magnify"><defs/><g><text fill="#000000" font-family="sans-serif" font-size="14" font-weight="bold" lengthAdjust="spacing" textLength="284" x="220.25" y="27.6738">System Sequence Diagram (SSD) - US011</text><rect fill="#FFFFFF" height="487.1406" style="stroke:#181818;stroke-width:1.0;" width="10" x="36.5" y="127.2813"/><rect fill="#FFFFFF" height="52.0469" style="stroke:#181818;stroke-width:1.0;" width="10" x="427.5" y="147.8047"/><rect fill="#FFFFFF" height="28.5234" style="stroke:#181818;stroke-width:1.0;" width="10" x="427.5" y="228.375"/><rect fill="#FFFFFF" height="313" style="stroke:#181818;stroke-width:1.0;" width="10" x="427.5" y="285.4219"/><rect fill="none" height="443.6172" style="stroke:#000000;stroke-width:1.5;" width="705.5" x="10" y="162.8047"/><rect fill="none" height="130.0938" style="stroke:#000000;stroke-width:1.5;" width="325" x="380.5" y="383.4688"/><rect fill="none" height="99.5703" style="stroke:#000000;stroke-width:1.5;" width="305" x="390.5" y="406.9922"/><line style="stroke:#181818;stroke-width:0.5;stroke-dasharray:5.0,5.0;" x1="41" x2="41" y1="117.2813" y2="623.4219"/><line style="stroke:#181818;stroke-width:0.5;stroke-dasharray:5.0,5.0;" x1="432.5" x2="432.5" y1="117.2813" y2="623.4219"/><text fill="#000000" font-family="sans-serif" font-size="14" lengthAdjust="spacing" textLength="37" x="20" y="114.3145">Agent</text><ellipse cx="41.5" cy="50.1406" fill="#E3E3E3" rx="8" ry="8" style="stroke:#181818;stroke-width:0.5;"/><path d="M41.5,58.1406 L41.5,85.1406 M28.5,66.1406 L54.5,66.1406 M41.5,85.1406 L28.5,100.1406 M41.5,85.1406 L54.5,100.1406 " fill="none" style="stroke:#181818;stroke-width:0.5;"/><text fill="#000000" font-family="sans-serif" font-size="14" lengthAdjust="spacing" textLength="37" x="20" y="635.0957">Agent</text><ellipse cx="41.5" cy="646.5625" fill="#E3E3E3" rx="8" ry="8" style="stroke:#181818;stroke-width:0.5;"/><path d="M41.5,654.5625 L41.5,681.5625 M28.5,662.5625 L54.5,662.5625 M41.5,681.5625 L28.5,696.5625 M41.5,681.5625 L54.5,696.5625 " fill="none" style="stroke:#181818;stroke-width:0.5;"/><rect fill="#E3E3E3" height="29.6406" rx="2.5" ry="2.5" style="stroke:#181818;stroke-width:0.5;" width="64" x="400.5" y="86.6406"/><text fill="#000000" font-family="sans-serif" font-size="14" lengthAdjust="spacing" textLength="50" x="407.5" y="106.3145">:System</text><rect fill="#E3E3E3" height="29.6406" rx="2.5" ry="2.5" style="stroke:#181818;stroke-width:0.5;" width="64" x="400.5" y="622.4219"/><text fill="#000000" font-family="sans-serif" font-size="14" lengthAdjust="spacing" textLength="50" x="407.5" y="642.0957">:System</text><rect fill="#FFFFFF" height="487.1406" style="stroke:#181818;stroke-width:1.0;" width="10" x="36.5" y="127.2813"/><rect fill="#FFFFFF" height="52.0469" style="stroke:#181818;stroke-width:1.0;" width="10" x="427.5" y="147.8047"/><rect fill="#FFFFFF" height="28.5234" style="stroke:#181818;stroke-width:1.0;" width="10" x="427.5" y="228.375"/><rect fill="#FFFFFF" height="313" style="stroke:#181818;stroke-width:1.0;" width="10" x="427.5" y="285.4219"/><polygon fill="#181818" points="415.5,143.8047,425.5,147.8047,415.5,151.8047,419.5,147.8047" style="stroke:#181818;stroke-width:1.0;"/><line style="stroke:#181818;stroke-width:1.0;" x1="46.5" x2="421.5" y1="147.8047" y2="147.8047"/><text fill="#000000" font-family="sans-serif" font-size="13" font-weight="bold" lengthAdjust="spacing" textLength="7" x="53.5" y="143.0498">1</text><text fill="#000000" font-family="sans-serif" font-size="13" lengthAdjust="spacing" textLength="327" x="64.5" y="143.0498">requests to see properties that are available for purchase</text><path d="M10,162.8047 L71,162.8047 L71,169.3281 L61,179.3281 L10,179.3281 L10,162.8047 " fill="#EEEEEE" style="stroke:#000000;stroke-width:1.5;"/><rect fill="none" height="443.6172" style="stroke:#000000;stroke-width:1.5;" width="705.5" x="10" y="162.8047"/><text fill="#000000" font-family="sans-serif" font-size="13" font-weight="bold" lengthAdjust="spacing" textLength="16" x="25" y="175.5732">alt</text><text fill="#000000" font-family="sans-serif" font-size="11" font-weight="bold" lengthAdjust="spacing" textLength="172" x="86" y="174.7627">[if that exists purchase orders]</text><polygon fill="#181818" points="57.5,195.8516,47.5,199.8516,57.5,203.8516,53.5,199.8516" style="stroke:#181818;stroke-width:1.0;"/><line style="stroke:#181818;stroke-width:1.0;stroke-dasharray:2.0,2.0;" x1="51.5" x2="431.5" y1="199.8516" y2="199.8516"/><text fill="#000000" font-family="sans-serif" font-size="13" font-weight="bold" lengthAdjust="spacing" textLength="7" x="63.5" y="195.0967">2</text><text fill="#000000" font-family="sans-serif" font-size="13" lengthAdjust="spacing" textLength="346" x="74.5" y="195.0967">displays the list of purchase orders for the selected property</text><polygon fill="#181818" points="415.5,224.375,425.5,228.375,415.5,232.375,419.5,228.375" style="stroke:#181818;stroke-width:1.0;"/><line style="stroke:#181818;stroke-width:1.0;" x1="46.5" x2="421.5" y1="228.375" y2="228.375"/><text fill="#000000" font-family="sans-serif" font-size="13" font-weight="bold" lengthAdjust="spacing" textLength="7" x="53.5" y="223.6201">3</text><text fill="#000000" font-family="sans-serif" font-size="13" lengthAdjust="spacing" textLength="143" x="64.5" y="223.6201">selects a purchase order</text><polygon fill="#181818" points="57.5,252.8984,47.5,256.8984,57.5,260.8984,53.5,256.8984" style="stroke:#181818;stroke-width:1.0;"/><line style="stroke:#181818;stroke-width:1.0;stroke-dasharray:2.0,2.0;" x1="51.5" x2="431.5" y1="256.8984" y2="256.8984"/><text fill="#000000" font-family="sans-serif" font-size="13" font-weight="bold" lengthAdjust="spacing" textLength="7" x="63.5" y="252.1436">4</text><text fill="#000000" font-family="sans-serif" font-size="13" lengthAdjust="spacing" textLength="209" x="74.5" y="252.1436">asks for decision (accept or decline)</text><polygon fill="#181818" points="415.5,281.4219,425.5,285.4219,415.5,289.4219,419.5,285.4219" style="stroke:#181818;stroke-width:1.0;"/><line style="stroke:#181818;stroke-width:1.0;" x1="46.5" x2="421.5" y1="285.4219" y2="285.4219"/><text fill="#000000" font-family="sans-serif" font-size="13" font-weight="bold" lengthAdjust="spacing" textLength="7" x="53.5" y="280.667">5</text><text fill="#000000" font-family="sans-serif" font-size="13" lengthAdjust="spacing" textLength="224" x="64.5" y="280.667">Makes the decision (accept or decline)</text><line style="stroke:#181818;stroke-width:1.0;" x1="437.5" x2="479.5" y1="313.9453" y2="313.9453"/><line style="stroke:#181818;stroke-width:1.0;" x1="479.5" x2="479.5" y1="313.9453" y2="326.9453"/><line style="stroke:#181818;stroke-width:1.0;" x1="438.5" x2="479.5" y1="326.9453" y2="326.9453"/><polygon fill="#181818" points="448.5,322.9453,438.5,326.9453,448.5,330.9453,444.5,326.9453" style="stroke:#181818;stroke-width:1.0;"/><text fill="#000000" font-family="sans-serif" font-size="13" font-weight="bold" lengthAdjust="spacing" textLength="7" x="444.5" y="309.1904">6</text><text fill="#000000" font-family="sans-serif" font-size="13" lengthAdjust="spacing" textLength="183" x="455.5" y="309.1904">Update purchase order decision</text><line style="stroke:#181818;stroke-width:1.0;" x1="437.5" x2="479.5" y1="355.4688" y2="355.4688"/><line style="stroke:#181818;stroke-width:1.0;" x1="479.5" x2="479.5" y1="355.4688" y2="368.4688"/><line style="stroke:#181818;stroke-width:1.0;" x1="438.5" x2="479.5" y1="368.4688" y2="368.4688"/><polygon fill="#181818" points="448.5,364.4688,438.5,368.4688,448.5,372.4688,444.5,368.4688" style="stroke:#181818;stroke-width:1.0;"/><text fill="#000000" font-family="sans-serif" font-size="13" font-weight="bold" lengthAdjust="spacing" textLength="7" x="444.5" y="350.7139">7</text><text fill="#000000" font-family="sans-serif" font-size="13" lengthAdjust="spacing" textLength="137" x="455.5" y="350.7139">Send email to the client</text><path d="M380.5,383.4688 L445.5,383.4688 L445.5,389.9922 L435.5,399.9922 L380.5,399.9922 L380.5,383.4688 " fill="#EEEEEE" style="stroke:#000000;stroke-width:1.5;"/><rect fill="none" height="130.0938" style="stroke:#000000;stroke-width:1.5;" width="325" x="380.5" y="383.4688"/><text fill="#000000" font-family="sans-serif" font-size="13" font-weight="bold" lengthAdjust="spacing" textLength="20" x="395.5" y="396.2373">opt</text><text fill="#000000" font-family="sans-serif" font-size="11" font-weight="bold" lengthAdjust="spacing" textLength="165" x="460.5" y="395.4268">[if the decision was accepted]</text><path d="M390.5,406.9922 L463.5,406.9922 L463.5,413.5156 L453.5,423.5156 L390.5,423.5156 L390.5,406.9922 " fill="#EEEEEE" style="stroke:#000000;stroke-width:1.5;"/><rect fill="none" height="99.5703" style="stroke:#000000;stroke-width:1.5;" width="305" x="390.5" y="406.9922"/><text fill="#000000" font-family="sans-serif" font-size="13" font-weight="bold" lengthAdjust="spacing" textLength="28" x="405.5" y="419.7607">loop</text><text fill="#000000" font-family="sans-serif" font-size="11" font-weight="bold" lengthAdjust="spacing" textLength="162" x="478.5" y="418.9502">[propertie's other proposals]</text><line style="stroke:#181818;stroke-width:1.0;" x1="437.5" x2="479.5" y1="444.0391" y2="444.0391"/><line style="stroke:#181818;stroke-width:1.0;" x1="479.5" x2="479.5" y1="444.0391" y2="457.0391"/><line style="stroke:#181818;stroke-width:1.0;" x1="438.5" x2="479.5" y1="457.0391" y2="457.0391"/><polygon fill="#181818" points="448.5,453.0391,438.5,457.0391,448.5,461.0391,444.5,457.0391" style="stroke:#181818;stroke-width:1.0;"/><text fill="#000000" font-family="sans-serif" font-size="13" font-weight="bold" lengthAdjust="spacing" textLength="7" x="444.5" y="439.2842">8</text><text fill="#000000" font-family="sans-serif" font-size="13" lengthAdjust="spacing" textLength="228" x="455.5" y="439.2842">Decline purchase order for that property</text><line style="stroke:#181818;stroke-width:1.0;" x1="437.5" x2="479.5" y1="485.5625" y2="485.5625"/><line style="stroke:#181818;stroke-width:1.0;" x1="479.5" x2="479.5" y1="485.5625" y2="498.5625"/><line style="stroke:#181818;stroke-width:1.0;" x1="438.5" x2="479.5" y1="498.5625" y2="498.5625"/><polygon fill="#181818" points="448.5,494.5625,438.5,498.5625,448.5,502.5625,444.5,498.5625" style="stroke:#181818;stroke-width:1.0;"/><text fill="#000000" font-family="sans-serif" font-size="13" font-weight="bold" lengthAdjust="spacing" textLength="7" x="444.5" y="480.8076">9</text><text fill="#000000" font-family="sans-serif" font-size="13" lengthAdjust="spacing" textLength="117" x="455.5" y="480.8076">Email sent declining</text><polygon fill="#181818" points="57.5,537.0859,47.5,541.0859,57.5,545.0859,53.5,541.0859" style="stroke:#181818;stroke-width:1.0;"/><line style="stroke:#181818;stroke-width:1.0;stroke-dasharray:2.0,2.0;" x1="51.5" x2="426.5" y1="541.0859" y2="541.0859"/><text fill="#000000" font-family="sans-serif" font-size="13" font-weight="bold" lengthAdjust="spacing" textLength="14" x="63.5" y="536.3311">10</text><text fill="#000000" font-family="sans-serif" font-size="13" lengthAdjust="spacing" textLength="109" x="81.5" y="536.3311">Operation success</text><line style="stroke:#000000;stroke-width:1.0;stroke-dasharray:2.0,2.0;" x1="10" x2="715.5" y1="550.0859" y2="550.0859"/><text fill="#000000" font-family="sans-serif" font-size="11" font-weight="bold" lengthAdjust="spacing" textLength="171" x="15" y="560.0439">[if there's no purchase orders]</text><polygon fill="#181818" points="57.5,594.4219,47.5,598.4219,57.5,602.4219,53.5,598.4219" style="stroke:#181818;stroke-width:1.0;"/><line style="stroke:#181818;stroke-width:1.0;stroke-dasharray:2.0,2.0;" x1="51.5" x2="431.5" y1="598.4219" y2="598.4219"/><text fill="#000000" font-family="sans-serif" font-size="13" font-weight="bold" lengthAdjust="spacing" textLength="14" x="63.5" y="586.4053">11</text><text fill="#000000" font-family="sans-serif" font-size="13" lengthAdjust="spacing" textLength="198" x="81.5" y="579.1436">Informs that there are no purchase</text><text fill="#000000" font-family="sans-serif" font-size="13" lengthAdjust="spacing" textLength="332" x="81.5" y="593.667">orders for the selected property and of the operation's end</text><!--SRC=[bLGzRzim4DtrAmvUaWm6cjL3WGBEqA7e86JBSg7ECc6AP7bKKltx7aLzEh6TSfB8uxlt7X_99sqz1coWSTQfOt0DGGmj5JojU5GdhAcCdI48f2BQsYmB-8YLUzUsXWCQfgA8EaffsN6a1ahwqv9L17kDTIg_Bylz0spXkVps-5WKs4Pds-QLWdohw09iVjHaumQGuQdnndL4XNIAMccFDi9cbw7xYlpPRzLl66dUKe2CyG-stqT2En4Xb3WoH0SiQpuuJu9FCdF421W8y0srmLVHSH1AlWtgY3o0fZ7r6md0Og29e0yPZFxgr6f401Sg2hokJsDWjnMY4-aTL9gzmIuH8p221EvmZjKpJEjCHew7gb5GDtUfw2hXpttAU0nurl6BBboGX7pAb2jIchMpS8zAaHTf_PpHbXxEa3wX_mN-l_14sRchhVvFp0B_sLUfV6tErElczf9i1TH8pb8G4qqX9CcV6pi_v6YXu5r2dqLGjQPedFDpbkyOd6mC_OnZkPcNCxSWjS-kd8lA4PCuVupM5R2dNXoBfi5jUIJM6yM2UMBrSpb0luK0nkG5js84zy98Nfx1gv2qMtVxobrkyTEAu6Pu3dh8_b5OWhxOMxSFKCxNvUDp8sUXjfBvCTcJ4_y0]--></g></svg>