<?xml version="1.0" encoding="us-ascii" standalone="no"?><svg xmlns="http://www.w3.org/2000/svg" xmlns:xlink="http://www.w3.org/1999/xlink" contentStyleType="text/css" height="503px" preserveAspectRatio="none" style="width:426px;height:503px;background:#FFFFFF;" version="1.1" viewBox="0 0 426 503" width="426px" zoomAndPan="magnify"><defs/><g><text fill="#000000" font-family="sans-serif" font-size="14" font-weight="bold" lengthAdjust="spacing" textLength="228" x="98.25" y="27.6738">System Sequence Diagram (SSD)</text><rect fill="#FFFFFF" height="43.0469" style="stroke:#181818;stroke-width:1.0;" width="10" x="383.5" y="147.8047"/><rect fill="#FFFFFF" height="28.5234" style="stroke:#181818;stroke-width:1.0;" width="10" x="383.5" y="219.375"/><rect fill="#FFFFFF" height="57.5703" style="stroke:#181818;stroke-width:1.0;" width="10" x="383.5" y="276.4219"/><rect fill="#FFFFFF" height="43.0469" style="stroke:#181818;stroke-width:1.0;" width="10" x="383.5" y="362.5156"/><line style="stroke:#181818;stroke-width:0.5;stroke-dasharray:5.0,5.0;" x1="74" x2="74" y1="117.2813" y2="423.5625"/><line style="stroke:#181818;stroke-width:0.5;stroke-dasharray:5.0,5.0;" x1="388.5" x2="388.5" y1="117.2813" y2="423.5625"/><text fill="#000000" font-family="sans-serif" font-size="14" lengthAdjust="spacing" textLength="133" x="5" y="114.3145">System Administrator</text><ellipse cx="74.5" cy="50.1406" fill="#E3E3E3" rx="8" ry="8" style="stroke:#181818;stroke-width:0.5;"/><path d="M74.5,58.1406 L74.5,85.1406 M61.5,66.1406 L87.5,66.1406 M74.5,85.1406 L61.5,100.1406 M74.5,85.1406 L87.5,100.1406 " fill="none" style="stroke:#181818;stroke-width:0.5;"/><text fill="#000000" font-family="sans-serif" font-size="14" lengthAdjust="spacing" textLength="133" x="5" y="435.2363">System Administrator</text><ellipse cx="74.5" cy="446.7031" fill="#E3E3E3" rx="8" ry="8" style="stroke:#181818;stroke-width:0.5;"/><path d="M74.5,454.7031 L74.5,481.7031 M61.5,462.7031 L87.5,462.7031 M74.5,481.7031 L61.5,496.7031 M74.5,481.7031 L87.5,496.7031 " fill="none" style="stroke:#181818;stroke-width:0.5;"/><rect fill="#E3E3E3" height="29.6406" rx="2.5" ry="2.5" style="stroke:#181818;stroke-width:0.5;" width="64" x="356.5" y="86.6406"/><text fill="#000000" font-family="sans-serif" font-size="14" lengthAdjust="spacing" textLength="50" x="363.5" y="106.3145">:System</text><rect fill="#E3E3E3" height="29.6406" rx="2.5" ry="2.5" style="stroke:#181818;stroke-width:0.5;" width="64" x="356.5" y="422.5625"/><text fill="#000000" font-family="sans-serif" font-size="14" lengthAdjust="spacing" textLength="50" x="363.5" y="442.2363">:System</text><rect fill="#FFFFFF" height="43.0469" style="stroke:#181818;stroke-width:1.0;" width="10" x="383.5" y="147.8047"/><rect fill="#FFFFFF" height="28.5234" style="stroke:#181818;stroke-width:1.0;" width="10" x="383.5" y="219.375"/><rect fill="#FFFFFF" height="57.5703" style="stroke:#181818;stroke-width:1.0;" width="10" x="383.5" y="276.4219"/><rect fill="#FFFFFF" height="43.0469" style="stroke:#181818;stroke-width:1.0;" width="10" x="383.5" y="362.5156"/><polygon fill="#181818" points="371.5,143.8047,381.5,147.8047,371.5,151.8047,375.5,147.8047" style="stroke:#181818;stroke-width:1.0;"/><line style="stroke:#181818;stroke-width:1.0;" x1="74.5" x2="377.5" y1="147.8047" y2="147.8047"/><text fill="#000000" font-family="sans-serif" font-size="13" font-weight="bold" lengthAdjust="spacing" textLength="7" x="81.5" y="143.0498">1</text><text fill="#000000" font-family="sans-serif" font-size="13" lengthAdjust="spacing" textLength="185" x="92.5" y="143.0498">ask to register a new employee.</text><polygon fill="#181818" points="85.5,186.8516,75.5,190.8516,85.5,194.8516,81.5,190.8516" style="stroke:#181818;stroke-width:1.0;"/><line style="stroke:#181818;stroke-width:1.0;stroke-dasharray:2.0,2.0;" x1="79.5" x2="387.5" y1="190.8516" y2="190.8516"/><text fill="#000000" font-family="sans-serif" font-size="13" font-weight="bold" lengthAdjust="spacing" textLength="7" x="91.5" y="178.835">2</text><text fill="#000000" font-family="sans-serif" font-size="13" lengthAdjust="spacing" textLength="270" x="102.5" y="171.5732">show a list of the role of the employee (agente,</text><text fill="#000000" font-family="sans-serif" font-size="13" lengthAdjust="spacing" textLength="235" x="102.5" y="186.0967">store manager, store network, manager).</text><polygon fill="#181818" points="371.5,215.375,381.5,219.375,371.5,223.375,375.5,219.375" style="stroke:#181818;stroke-width:1.0;"/><line style="stroke:#181818;stroke-width:1.0;" x1="74.5" x2="377.5" y1="219.375" y2="219.375"/><text fill="#000000" font-family="sans-serif" font-size="13" font-weight="bold" lengthAdjust="spacing" textLength="7" x="81.5" y="214.6201">3</text><text fill="#000000" font-family="sans-serif" font-size="13" lengthAdjust="spacing" textLength="182" x="92.5" y="214.6201">select the role of the employee.</text><polygon fill="#181818" points="85.5,243.8984,75.5,247.8984,85.5,251.8984,81.5,247.8984" style="stroke:#181818;stroke-width:1.0;"/><line style="stroke:#181818;stroke-width:1.0;stroke-dasharray:2.0,2.0;" x1="79.5" x2="387.5" y1="247.8984" y2="247.8984"/><text fill="#000000" font-family="sans-serif" font-size="13" font-weight="bold" lengthAdjust="spacing" textLength="7" x="91.5" y="243.1436">4</text><text fill="#000000" font-family="sans-serif" font-size="13" lengthAdjust="spacing" textLength="136" x="102.5" y="243.1436">show a list of agencies.</text><polygon fill="#181818" points="371.5,272.4219,381.5,276.4219,371.5,280.4219,375.5,276.4219" style="stroke:#181818;stroke-width:1.0;"/><line style="stroke:#181818;stroke-width:1.0;" x1="74.5" x2="377.5" y1="276.4219" y2="276.4219"/><text fill="#000000" font-family="sans-serif" font-size="13" font-weight="bold" lengthAdjust="spacing" textLength="7" x="81.5" y="271.667">5</text><text fill="#000000" font-family="sans-serif" font-size="13" lengthAdjust="spacing" textLength="107" x="92.5" y="271.667">select the agency.</text><polygon fill="#181818" points="85.5,329.9922,75.5,333.9922,85.5,337.9922,81.5,333.9922" style="stroke:#181818;stroke-width:1.0;"/><line style="stroke:#181818;stroke-width:1.0;stroke-dasharray:2.0,2.0;" x1="79.5" x2="387.5" y1="333.9922" y2="333.9922"/><text fill="#000000" font-family="sans-serif" font-size="13" font-weight="bold" lengthAdjust="spacing" textLength="7" x="91.5" y="314.7139">6</text><text fill="#000000" font-family="sans-serif" font-size="13" lengthAdjust="spacing" textLength="250" x="102.5" y="300.1904">request information about employee (name,</text><text fill="#000000" font-family="sans-serif" font-size="13" lengthAdjust="spacing" textLength="256" x="102.5" y="314.7139">citizen&#180;s card number, tax number, address,</text><text fill="#000000" font-family="sans-serif" font-size="13" lengthAdjust="spacing" textLength="204" x="102.5" y="329.2373">email , phone number and agency).</text><polygon fill="#181818" points="371.5,358.5156,381.5,362.5156,371.5,366.5156,375.5,362.5156" style="stroke:#181818;stroke-width:1.0;"/><line style="stroke:#181818;stroke-width:1.0;" x1="74.5" x2="377.5" y1="362.5156" y2="362.5156"/><text fill="#000000" font-family="sans-serif" font-size="13" font-weight="bold" lengthAdjust="spacing" textLength="7" x="81.5" y="357.7607">7</text><text fill="#000000" font-family="sans-serif" font-size="13" lengthAdjust="spacing" textLength="221" x="92.5" y="357.7607">types the information about employee.</text><polygon fill="#181818" points="85.5,401.5625,75.5,405.5625,85.5,409.5625,81.5,405.5625" style="stroke:#181818;stroke-width:1.0;"/><line style="stroke:#181818;stroke-width:1.0;stroke-dasharray:2.0,2.0;" x1="79.5" x2="387.5" y1="405.5625" y2="405.5625"/><text fill="#000000" font-family="sans-serif" font-size="13" font-weight="bold" lengthAdjust="spacing" textLength="7" x="91.5" y="393.5459">8</text><text fill="#000000" font-family="sans-serif" font-size="13" lengthAdjust="spacing" textLength="247" x="102.5" y="386.2842">Generate a password to the new employee</text><text fill="#000000" font-family="sans-serif" font-size="13" lengthAdjust="spacing" textLength="187" x="102.5" y="400.8076">and displays operation success.</text><!--SRC=[bLDBZjim3Dtx54HM4y2J0sHHeC0KFO2ttN0anX5YKQv8D_MSQqxGavNo9qs199ZHYfOU7zyZQJa5xZ5ZX9WukMDEaK3pG9LSNdfq9sofqR4ZoEGKkUsk0N94dyw1MpXW9rHL6jIWpIXA4HhwEH0xWfU0RO4_DStBjgfmqCH3VALiiTEKORDaVFKnS13DQBSRG85liU_II5HPGGqkzCWAc_sCdn1pM5LWPqN3yvTLnDum9z1a-bjZfWm8J6UW1RgR4ar6-8LA_x6Lix0y6-65V6- -qzbuEYE4T00zMdkI6L_YbHkUh7kiLCCF5dD4497jAjSmVpBfEULJlTvlTtDbJpS5tRGdrDbaxcfuuEz3tee35qXsQqlkQFk8lebhl31zjkkvx9Ef2dn8EQA6n82lQT2hXZF6gTqkQ7WZ_lCku31xcFUj1iNVbnYzpoHIu1GnT513VqnC2m2G_I9vk_lqM7JiIIRNz-K-thq7C_fEJBcaeFsZ8hP3lgnugNQzssQiUF11-Wv7WTINhA931kVC-hzHtBJt5m00]--></g></svg>