<?xml version="1.0" encoding="us-ascii" standalone="no"?><svg xmlns="http://www.w3.org/2000/svg" xmlns:xlink="http://www.w3.org/1999/xlink" contentStyleType="text/css" height="1109px" preserveAspectRatio="none" style="width:718px;height:1109px;background:#FFFFFF;" version="1.1" viewBox="0 0 718 1109" width="718px" zoomAndPan="magnify"><defs/><g><text fill="#000000" font-family="sans-serif" font-size="14" font-weight="bold" lengthAdjust="spacing" textLength="288" x="216.75" y="27.6738">System Sequence Diagram (SSD) - US 004</text><rect fill="#FFFFFF" height="893.5156" style="stroke:#181818;stroke-width:1.0;" width="10" x="48.5" y="127.2813"/><rect fill="#FFFFFF" height="28.5234" style="stroke:#181818;stroke-width:1.0;" width="10" x="655.5" y="147.8047"/><rect fill="#FFFFFF" height="28.5234" style="stroke:#181818;stroke-width:1.0;" width="10" x="655.5" y="204.8516"/><rect fill="#FFFFFF" height="28.5234" style="stroke:#181818;stroke-width:1.0;" width="10" x="655.5" y="261.8984"/><rect fill="#FFFFFF" height="28.5234" style="stroke:#181818;stroke-width:1.0;" width="10" x="655.5" y="318.9453"/><rect fill="#FFFFFF" height="28.5234" style="stroke:#181818;stroke-width:1.0;" width="10" x="655.5" y="375.9922"/><rect fill="#FFFFFF" height="73.5703" style="stroke:#181818;stroke-width:1.0;" width="10" x="655.5" y="456.5625"/><rect fill="#FFFFFF" height="52.0469" style="stroke:#181818;stroke-width:1.0;" width="10" x="655.5" y="558.6563"/><rect fill="#FFFFFF" height="42.5234" style="stroke:#181818;stroke-width:1.0;" width="10" x="655.5" y="639.2266"/><rect fill="#FFFFFF" height="52.0469" style="stroke:#181818;stroke-width:1.0;" width="10" x="655.5" y="710.2734"/><rect fill="#FFFFFF" height="42.8125" style="stroke:#181818;stroke-width:1.0;" width="10" x="655.5" y="790.8438"/><rect fill="#FFFFFF" height="35.5234" style="stroke:#181818;stroke-width:1.0;" width="10" x="655.5" y="862.1797"/><rect fill="#FFFFFF" height="28.5234" style="stroke:#181818;stroke-width:1.0;" width="10" x="655.5" y="926.2266"/><rect fill="#FFFFFF" height="28.5234" style="stroke:#181818;stroke-width:1.0;" width="10" x="655.5" y="983.2734"/><rect fill="none" height="45.0469" style="stroke:#000000;stroke-width:1.5;" width="682.5" x="20" y="419.5156"/><rect fill="none" height="175.6641" style="stroke:#000000;stroke-width:1.5;" width="702.5" x="10" y="478.5625"/><rect fill="none" height="73.5703" style="stroke:#000000;stroke-width:1.5;" width="682.5" x="20" y="573.6563"/><rect fill="none" height="144.9063" style="stroke:#000000;stroke-width:1.5;" width="682.5" x="20" y="725.2734"/><line style="stroke:#181818;stroke-width:0.5;stroke-dasharray:5.0,5.0;" x1="53" x2="53" y1="117.2813" y2="1029.7969"/><line style="stroke:#181818;stroke-width:0.5;stroke-dasharray:5.0,5.0;" x1="660.5" x2="660.5" y1="117.2813" y2="1029.7969"/><text fill="#000000" font-family="sans-serif" font-size="14" lengthAdjust="spacing" textLength="41" x="30" y="114.3145">Owner</text><ellipse cx="53.5" cy="50.1406" fill="#E3E3E3" rx="8" ry="8" style="stroke:#181818;stroke-width:0.5;"/><path d="M53.5,58.1406 L53.5,85.1406 M40.5,66.1406 L66.5,66.1406 M53.5,85.1406 L40.5,100.1406 M53.5,85.1406 L66.5,100.1406 " fill="none" style="stroke:#181818;stroke-width:0.5;"/><text fill="#000000" font-family="sans-serif" font-size="14" lengthAdjust="spacing" textLength="41" x="30" y="1041.4707">Owner</text><ellipse cx="53.5" cy="1052.9375" fill="#E3E3E3" rx="8" ry="8" style="stroke:#181818;stroke-width:0.5;"/><path d="M53.5,1060.9375 L53.5,1087.9375 M40.5,1068.9375 L66.5,1068.9375 M53.5,1087.9375 L40.5,1102.9375 M53.5,1087.9375 L66.5,1102.9375 " fill="none" style="stroke:#181818;stroke-width:0.5;"/><rect fill="#E3E3E3" height="29.6406" rx="2.5" ry="2.5" style="stroke:#181818;stroke-width:0.5;" width="64" x="628.5" y="86.6406"/><text fill="#000000" font-family="sans-serif" font-size="14" lengthAdjust="spacing" textLength="50" x="635.5" y="106.3145">:System</text><rect fill="#E3E3E3" height="29.6406" rx="2.5" ry="2.5" style="stroke:#181818;stroke-width:0.5;" width="64" x="628.5" y="1028.7969"/><text fill="#000000" font-family="sans-serif" font-size="14" lengthAdjust="spacing" textLength="50" x="635.5" y="1048.4707">:System</text><rect fill="#FFFFFF" height="893.5156" style="stroke:#181818;stroke-width:1.0;" width="10" x="48.5" y="127.2813"/><rect fill="#FFFFFF" height="28.5234" style="stroke:#181818;stroke-width:1.0;" width="10" x="655.5" y="147.8047"/><rect fill="#FFFFFF" height="28.5234" style="stroke:#181818;stroke-width:1.0;" width="10" x="655.5" y="204.8516"/><rect fill="#FFFFFF" height="28.5234" style="stroke:#181818;stroke-width:1.0;" width="10" x="655.5" y="261.8984"/><rect fill="#FFFFFF" height="28.5234" style="stroke:#181818;stroke-width:1.0;" width="10" x="655.5" y="318.9453"/><rect fill="#FFFFFF" height="28.5234" style="stroke:#181818;stroke-width:1.0;" width="10" x="655.5" y="375.9922"/><rect fill="#FFFFFF" height="73.5703" style="stroke:#181818;stroke-width:1.0;" width="10" x="655.5" y="456.5625"/><rect fill="#FFFFFF" height="52.0469" style="stroke:#181818;stroke-width:1.0;" width="10" x="655.5" y="558.6563"/><rect fill="#FFFFFF" height="42.5234" style="stroke:#181818;stroke-width:1.0;" width="10" x="655.5" y="639.2266"/><rect fill="#FFFFFF" height="52.0469" style="stroke:#181818;stroke-width:1.0;" width="10" x="655.5" y="710.2734"/><rect fill="#FFFFFF" height="42.8125" style="stroke:#181818;stroke-width:1.0;" width="10" x="655.5" y="790.8438"/><rect fill="#FFFFFF" height="35.5234" style="stroke:#181818;stroke-width:1.0;" width="10" x="655.5" y="862.1797"/><rect fill="#FFFFFF" height="28.5234" style="stroke:#181818;stroke-width:1.0;" width="10" x="655.5" y="926.2266"/><rect fill="#FFFFFF" height="28.5234" style="stroke:#181818;stroke-width:1.0;" width="10" x="655.5" y="983.2734"/><polygon fill="#181818" points="643.5,143.8047,653.5,147.8047,643.5,151.8047,647.5,147.8047" style="stroke:#181818;stroke-width:1.0;"/><line style="stroke:#181818;stroke-width:1.0;" x1="58.5" x2="649.5" y1="147.8047" y2="147.8047"/><text fill="#000000" font-family="sans-serif" font-size="13" font-weight="bold" lengthAdjust="spacing" textLength="7" x="65.5" y="143.0498">1</text><text fill="#000000" font-family="sans-serif" font-size="13" lengthAdjust="spacing" textLength="168" x="76.5" y="143.0498">asks to create a new request</text><polygon fill="#181818" points="69.5,172.3281,59.5,176.3281,69.5,180.3281,65.5,176.3281" style="stroke:#181818;stroke-width:1.0;"/><line style="stroke:#181818;stroke-width:1.0;stroke-dasharray:2.0,2.0;" x1="63.5" x2="659.5" y1="176.3281" y2="176.3281"/><text fill="#000000" font-family="sans-serif" font-size="13" font-weight="bold" lengthAdjust="spacing" textLength="7" x="75.5" y="171.5732">2</text><text fill="#000000" font-family="sans-serif" font-size="13" lengthAdjust="spacing" textLength="240" x="86.5" y="171.5732">shows agency list and asks to select one</text><polygon fill="#181818" points="643.5,200.8516,653.5,204.8516,643.5,208.8516,647.5,204.8516" style="stroke:#181818;stroke-width:1.0;"/><line style="stroke:#181818;stroke-width:1.0;" x1="58.5" x2="649.5" y1="204.8516" y2="204.8516"/><text fill="#000000" font-family="sans-serif" font-size="13" font-weight="bold" lengthAdjust="spacing" textLength="7" x="65.5" y="200.0967">3</text><text fill="#000000" font-family="sans-serif" font-size="13" lengthAdjust="spacing" textLength="106" x="76.5" y="200.0967">selects an agency</text><polygon fill="#181818" points="69.5,229.375,59.5,233.375,69.5,237.375,65.5,233.375" style="stroke:#181818;stroke-width:1.0;"/><line style="stroke:#181818;stroke-width:1.0;stroke-dasharray:2.0,2.0;" x1="63.5" x2="659.5" y1="233.375" y2="233.375"/><text fill="#000000" font-family="sans-serif" font-size="13" font-weight="bold" lengthAdjust="spacing" textLength="7" x="75.5" y="228.6201">4</text><text fill="#000000" font-family="sans-serif" font-size="13" lengthAdjust="spacing" textLength="237" x="86.5" y="228.6201">shows agents list and asks to select one</text><polygon fill="#181818" points="643.5,257.8984,653.5,261.8984,643.5,265.8984,647.5,261.8984" style="stroke:#181818;stroke-width:1.0;"/><line style="stroke:#181818;stroke-width:1.0;" x1="58.5" x2="649.5" y1="261.8984" y2="261.8984"/><text fill="#000000" font-family="sans-serif" font-size="13" font-weight="bold" lengthAdjust="spacing" textLength="7" x="65.5" y="257.1436">5</text><text fill="#000000" font-family="sans-serif" font-size="13" lengthAdjust="spacing" textLength="96" x="76.5" y="257.1436">selects an agent</text><polygon fill="#181818" points="69.5,286.4219,59.5,290.4219,69.5,294.4219,65.5,290.4219" style="stroke:#181818;stroke-width:1.0;"/><line style="stroke:#181818;stroke-width:1.0;stroke-dasharray:2.0,2.0;" x1="63.5" x2="659.5" y1="290.4219" y2="290.4219"/><text fill="#000000" font-family="sans-serif" font-size="13" font-weight="bold" lengthAdjust="spacing" textLength="7" x="75.5" y="285.667">6</text><text fill="#000000" font-family="sans-serif" font-size="13" lengthAdjust="spacing" textLength="288" x="86.5" y="285.667">shows type of property list and asks to select one</text><polygon fill="#181818" points="643.5,314.9453,653.5,318.9453,643.5,322.9453,647.5,318.9453" style="stroke:#181818;stroke-width:1.0;"/><line style="stroke:#181818;stroke-width:1.0;" x1="58.5" x2="649.5" y1="318.9453" y2="318.9453"/><text fill="#000000" font-family="sans-serif" font-size="13" font-weight="bold" lengthAdjust="spacing" textLength="7" x="65.5" y="314.1904">7</text><text fill="#000000" font-family="sans-serif" font-size="13" lengthAdjust="spacing" textLength="158" x="76.5" y="314.1904">selects the type of property</text><polygon fill="#181818" points="69.5,343.4688,59.5,347.4688,69.5,351.4688,65.5,347.4688" style="stroke:#181818;stroke-width:1.0;"/><line style="stroke:#181818;stroke-width:1.0;stroke-dasharray:2.0,2.0;" x1="63.5" x2="659.5" y1="347.4688" y2="347.4688"/><text fill="#000000" font-family="sans-serif" font-size="13" font-weight="bold" lengthAdjust="spacing" textLength="7" x="75.5" y="342.7139">8</text><text fill="#000000" font-family="sans-serif" font-size="13" lengthAdjust="spacing" textLength="372" x="86.5" y="342.7139">requests data (area (m2), location, distance from the city centre)</text><polygon fill="#181818" points="643.5,371.9922,653.5,375.9922,643.5,379.9922,647.5,375.9922" style="stroke:#181818;stroke-width:1.0;"/><line style="stroke:#181818;stroke-width:1.0;" x1="58.5" x2="649.5" y1="375.9922" y2="375.9922"/><text fill="#000000" font-family="sans-serif" font-size="13" font-weight="bold" lengthAdjust="spacing" textLength="7" x="65.5" y="371.2373">9</text><text fill="#000000" font-family="sans-serif" font-size="13" lengthAdjust="spacing" textLength="68" x="76.5" y="371.2373">inserts data</text><polygon fill="#181818" points="69.5,400.5156,59.5,404.5156,69.5,408.5156,65.5,404.5156" style="stroke:#181818;stroke-width:1.0;"/><line style="stroke:#181818;stroke-width:1.0;stroke-dasharray:2.0,2.0;" x1="63.5" x2="659.5" y1="404.5156" y2="404.5156"/><text fill="#000000" font-family="sans-serif" font-size="13" font-weight="bold" lengthAdjust="spacing" textLength="14" x="75.5" y="399.7607">10</text><text fill="#000000" font-family="sans-serif" font-size="13" lengthAdjust="spacing" textLength="140" x="93.5" y="399.7607">asks for property photos</text><path d="M20,419.5156 L93,419.5156 L93,426.0391 L83,436.0391 L20,436.0391 L20,419.5156 " fill="#EEEEEE" style="stroke:#000000;stroke-width:1.5;"/><rect fill="none" height="45.0469" style="stroke:#000000;stroke-width:1.5;" width="682.5" x="20" y="419.5156"/><text fill="#000000" font-family="sans-serif" font-size="13" font-weight="bold" lengthAdjust="spacing" textLength="28" x="35" y="432.2842">loop</text><text fill="#000000" font-family="sans-serif" font-size="11" font-weight="bold" lengthAdjust="spacing" textLength="217" x="108" y="431.4736">[at least 1 photo and at most 30 photos]</text><polygon fill="#181818" points="643.5,452.5625,653.5,456.5625,643.5,460.5625,647.5,456.5625" style="stroke:#181818;stroke-width:1.0;"/><line style="stroke:#181818;stroke-width:1.0;" x1="58.5" x2="649.5" y1="456.5625" y2="456.5625"/><text fill="#000000" font-family="sans-serif" font-size="13" font-weight="bold" lengthAdjust="spacing" textLength="14" x="65.5" y="451.8076">11</text><text fill="#000000" font-family="sans-serif" font-size="13" lengthAdjust="spacing" textLength="166" x="83.5" y="451.8076">inserts property photos (URI)</text><path d="M10,478.5625 L75,478.5625 L75,485.0859 L65,495.0859 L10,495.0859 L10,478.5625 " fill="#EEEEEE" style="stroke:#000000;stroke-width:1.5;"/><rect fill="none" height="175.6641" style="stroke:#000000;stroke-width:1.5;" width="702.5" x="10" y="478.5625"/><text fill="#000000" font-family="sans-serif" font-size="13" font-weight="bold" lengthAdjust="spacing" textLength="20" x="25" y="491.3311">opt</text><text fill="#000000" font-family="sans-serif" font-size="11" font-weight="bold" lengthAdjust="spacing" textLength="184" x="90" y="490.5205">[Property is Apartment or House]</text><polygon fill="#181818" points="69.5,526.1328,59.5,530.1328,69.5,534.1328,65.5,530.1328" style="stroke:#181818;stroke-width:1.0;"/><line style="stroke:#181818;stroke-width:1.0;stroke-dasharray:2.0,2.0;" x1="63.5" x2="659.5" y1="530.1328" y2="530.1328"/><text fill="#000000" font-family="sans-serif" font-size="13" font-weight="bold" lengthAdjust="spacing" textLength="14" x="75.5" y="518.1162">12</text><text fill="#000000" font-family="sans-serif" font-size="13" lengthAdjust="spacing" textLength="339" x="93.5" y="510.8545">requests data (number of bedrooms, number of bathrooms,</text><text fill="#000000" font-family="sans-serif" font-size="13" lengthAdjust="spacing" textLength="295" x="93.5" y="525.3779">number of parking spaces and available equipment)</text><polygon fill="#181818" points="643.5,554.6563,653.5,558.6563,643.5,562.6563,647.5,558.6563" style="stroke:#181818;stroke-width:1.0;"/><line style="stroke:#181818;stroke-width:1.0;" x1="58.5" x2="649.5" y1="558.6563" y2="558.6563"/><text fill="#000000" font-family="sans-serif" font-size="13" font-weight="bold" lengthAdjust="spacing" textLength="14" x="65.5" y="553.9014">13</text><text fill="#000000" font-family="sans-serif" font-size="13" lengthAdjust="spacing" textLength="68" x="83.5" y="553.9014">inserts data</text><path d="M20,573.6563 L85,573.6563 L85,580.1797 L75,590.1797 L20,590.1797 L20,573.6563 " fill="#EEEEEE" style="stroke:#000000;stroke-width:1.5;"/><rect fill="none" height="73.5703" style="stroke:#000000;stroke-width:1.5;" width="682.5" x="20" y="573.6563"/><text fill="#000000" font-family="sans-serif" font-size="13" font-weight="bold" lengthAdjust="spacing" textLength="20" x="35" y="586.4248">opt</text><text fill="#000000" font-family="sans-serif" font-size="11" font-weight="bold" lengthAdjust="spacing" textLength="116" x="100" y="585.6143">[Property is a House]</text><polygon fill="#181818" points="69.5,606.7031,59.5,610.7031,69.5,614.7031,65.5,610.7031" style="stroke:#181818;stroke-width:1.0;"/><line style="stroke:#181818;stroke-width:1.0;stroke-dasharray:2.0,2.0;" x1="63.5" x2="659.5" y1="610.7031" y2="610.7031"/><text fill="#000000" font-family="sans-serif" font-size="13" font-weight="bold" lengthAdjust="spacing" textLength="14" x="75.5" y="605.9482">14</text><text fill="#000000" font-family="sans-serif" font-size="13" lengthAdjust="spacing" textLength="467" x="93.5" y="605.9482">requests data (existence of a basement and/or inhabitable loft and sun exposure)</text><polygon fill="#181818" points="643.5,635.2266,653.5,639.2266,643.5,643.2266,647.5,639.2266" style="stroke:#181818;stroke-width:1.0;"/><line style="stroke:#181818;stroke-width:1.0;" x1="58.5" x2="649.5" y1="639.2266" y2="639.2266"/><text fill="#000000" font-family="sans-serif" font-size="13" font-weight="bold" lengthAdjust="spacing" textLength="14" x="65.5" y="634.4717">15</text><text fill="#000000" font-family="sans-serif" font-size="13" lengthAdjust="spacing" textLength="68" x="83.5" y="634.4717">inserts data</text><polygon fill="#181818" points="69.5,677.75,59.5,681.75,69.5,685.75,65.5,681.75" style="stroke:#181818;stroke-width:1.0;"/><line style="stroke:#181818;stroke-width:1.0;stroke-dasharray:2.0,2.0;" x1="63.5" x2="659.5" y1="681.75" y2="681.75"/><text fill="#000000" font-family="sans-serif" font-size="13" font-weight="bold" lengthAdjust="spacing" textLength="14" x="75.5" y="676.9951">16</text><text fill="#000000" font-family="sans-serif" font-size="13" lengthAdjust="spacing" textLength="316" x="93.5" y="676.9951">shows the type of operation list and asks to select one</text><polygon fill="#181818" points="643.5,706.2734,653.5,710.2734,643.5,714.2734,647.5,710.2734" style="stroke:#181818;stroke-width:1.0;"/><line style="stroke:#181818;stroke-width:1.0;" x1="58.5" x2="649.5" y1="710.2734" y2="710.2734"/><text fill="#000000" font-family="sans-serif" font-size="13" font-weight="bold" lengthAdjust="spacing" textLength="14" x="65.5" y="705.5186">17</text><text fill="#000000" font-family="sans-serif" font-size="13" lengthAdjust="spacing" textLength="139" x="83.5" y="705.5186">inserts type of operation</text><path d="M20,725.2734 L81,725.2734 L81,731.7969 L71,741.7969 L20,741.7969 L20,725.2734 " fill="#EEEEEE" style="stroke:#000000;stroke-width:1.5;"/><rect fill="none" height="144.9063" style="stroke:#000000;stroke-width:1.5;" width="682.5" x="20" y="725.2734"/><text fill="#000000" font-family="sans-serif" font-size="13" font-weight="bold" lengthAdjust="spacing" textLength="16" x="35" y="738.042">alt</text><text fill="#000000" font-family="sans-serif" font-size="11" font-weight="bold" lengthAdjust="spacing" textLength="210" x="96" y="737.2314">[the owner intends to rent a property]</text><polygon fill="#181818" points="69.5,758.3203,59.5,762.3203,69.5,766.3203,65.5,762.3203" style="stroke:#181818;stroke-width:1.0;"/><line style="stroke:#181818;stroke-width:1.0;stroke-dasharray:2.0,2.0;" x1="63.5" x2="659.5" y1="762.3203" y2="762.3203"/><text fill="#000000" font-family="sans-serif" font-size="13" font-weight="bold" lengthAdjust="spacing" textLength="14" x="75.5" y="757.5654">18</text><text fill="#000000" font-family="sans-serif" font-size="13" lengthAdjust="spacing" textLength="318" x="93.5" y="757.5654">asks for the contract duration and the price (per month)</text><polygon fill="#181818" points="643.5,786.8438,653.5,790.8438,643.5,794.8438,647.5,790.8438" style="stroke:#181818;stroke-width:1.0;"/><line style="stroke:#181818;stroke-width:1.0;" x1="58.5" x2="649.5" y1="790.8438" y2="790.8438"/><text fill="#000000" font-family="sans-serif" font-size="13" font-weight="bold" lengthAdjust="spacing" textLength="14" x="65.5" y="786.0889">19</text><text fill="#000000" font-family="sans-serif" font-size="13" lengthAdjust="spacing" textLength="75" x="83.5" y="786.0889">submits data</text><line style="stroke:#000000;stroke-width:1.0;stroke-dasharray:2.0,2.0;" x1="20" x2="702.5" y1="799.8438" y2="799.8438"/><text fill="#000000" font-family="sans-serif" font-size="11" font-weight="bold" lengthAdjust="spacing" textLength="207" x="25" y="809.8018">[the owner intends to sell a property]</text><polygon fill="#181818" points="69.5,829.6563,59.5,833.6563,69.5,837.6563,65.5,833.6563" style="stroke:#181818;stroke-width:1.0;"/><line style="stroke:#181818;stroke-width:1.0;stroke-dasharray:2.0,2.0;" x1="63.5" x2="659.5" y1="833.6563" y2="833.6563"/><text fill="#000000" font-family="sans-serif" font-size="13" font-weight="bold" lengthAdjust="spacing" textLength="14" x="75.5" y="828.9014">20</text><text fill="#000000" font-family="sans-serif" font-size="13" lengthAdjust="spacing" textLength="151" x="93.5" y="828.9014">asks for the property price</text><polygon fill="#181818" points="643.5,858.1797,653.5,862.1797,643.5,866.1797,647.5,862.1797" style="stroke:#181818;stroke-width:1.0;"/><line style="stroke:#181818;stroke-width:1.0;" x1="58.5" x2="649.5" y1="862.1797" y2="862.1797"/><text fill="#000000" font-family="sans-serif" font-size="13" font-weight="bold" lengthAdjust="spacing" textLength="14" x="65.5" y="857.4248">21</text><text fill="#000000" font-family="sans-serif" font-size="13" lengthAdjust="spacing" textLength="75" x="83.5" y="857.4248">submits data</text><polygon fill="#181818" points="69.5,893.7031,59.5,897.7031,69.5,901.7031,65.5,897.7031" style="stroke:#181818;stroke-width:1.0;"/><line style="stroke:#181818;stroke-width:1.0;stroke-dasharray:2.0,2.0;" x1="63.5" x2="659.5" y1="897.7031" y2="897.7031"/><text fill="#000000" font-family="sans-serif" font-size="13" font-weight="bold" lengthAdjust="spacing" textLength="14" x="75.5" y="892.9482">22</text><text fill="#000000" font-family="sans-serif" font-size="13" lengthAdjust="spacing" textLength="555" x="93.5" y="892.9482">requests data (name, passport number, tax number, address, email address, telephone number)</text><polygon fill="#181818" points="643.5,922.2266,653.5,926.2266,643.5,930.2266,647.5,926.2266" style="stroke:#181818;stroke-width:1.0;"/><line style="stroke:#181818;stroke-width:1.0;" x1="58.5" x2="649.5" y1="926.2266" y2="926.2266"/><text fill="#000000" font-family="sans-serif" font-size="13" font-weight="bold" lengthAdjust="spacing" textLength="14" x="65.5" y="921.4717">23</text><text fill="#000000" font-family="sans-serif" font-size="13" lengthAdjust="spacing" textLength="68" x="83.5" y="921.4717">Inserts data</text><polygon fill="#181818" points="69.5,950.75,59.5,954.75,69.5,958.75,65.5,954.75" style="stroke:#181818;stroke-width:1.0;"/><line style="stroke:#181818;stroke-width:1.0;stroke-dasharray:2.0,2.0;" x1="63.5" x2="659.5" y1="954.75" y2="954.75"/><text fill="#000000" font-family="sans-serif" font-size="13" font-weight="bold" lengthAdjust="spacing" textLength="14" x="75.5" y="949.9951">24</text><text fill="#000000" font-family="sans-serif" font-size="13" lengthAdjust="spacing" textLength="447" x="93.5" y="949.9951">shows requested data, selected property movement and asks for confirmation</text><polygon fill="#181818" points="643.5,979.2734,653.5,983.2734,643.5,987.2734,647.5,983.2734" style="stroke:#181818;stroke-width:1.0;"/><line style="stroke:#181818;stroke-width:1.0;" x1="58.5" x2="649.5" y1="983.2734" y2="983.2734"/><text fill="#000000" font-family="sans-serif" font-size="13" font-weight="bold" lengthAdjust="spacing" textLength="14" x="65.5" y="978.5186">25</text><text fill="#000000" font-family="sans-serif" font-size="13" lengthAdjust="spacing" textLength="71" x="83.5" y="978.5186">confirm data</text><polygon fill="#181818" points="69.5,1007.7969,59.5,1011.7969,69.5,1015.7969,65.5,1011.7969" style="stroke:#181818;stroke-width:1.0;"/><line style="stroke:#181818;stroke-width:1.0;stroke-dasharray:2.0,2.0;" x1="63.5" x2="659.5" y1="1011.7969" y2="1011.7969"/><text fill="#000000" font-family="sans-serif" font-size="13" font-weight="bold" lengthAdjust="spacing" textLength="14" x="75.5" y="1007.042">26</text><text fill="#000000" font-family="sans-serif" font-size="13" lengthAdjust="spacing" textLength="147" x="93.5" y="1007.042">shows operation success</text><!--SRC=[jLLDRzim3BtxLn0z9K2ATH-d7WOCw64zRLZGsowCpSH2BD6JwARvzwDanyxQUd7MnIVPbiZt7lcei3MkHeyMB3lEIy-MG7n3MUZ_r9XlSKDBsLS4dd91jwcEDuGI2zuPju4rLe6oJ8perkK-25bOqg-6N4vmPt0Jjy-MoxivNCF34cvkFcKPDiAkiIlokiw5FLnzspdoLu01qYhJF69oKwCJkBfj0wVVxJATCuyerEtFG9-qXElF1o2tUc0RG1XoJt4lWgETCb9yGTAHFimXBdHF5-9QexLXRvKrxmAeC2xVGsM20BgYJn6eKgM07QKO1RqQ-YN4zfp6TLteD-3IC9V2DIBNQLoohmbu3RNdchnSG3afwKMM0TWvIdQT4Q10GPYXTWtCx8Vv0YhEKGox1HGA7sDthzKwANTkb5Mk4dcQP-THC2uesZPVDbxuLw0cyTPgdLxNkcJXyBVy5NCDA50HQWdUjoVQKeYE0_tsyUOGvWJWPrbXzl3ZVZvEW5oHZVtZMk3x8Pm9y2LwtwgSeEo-SXFdo_IQjNCbjiAA2izimmAElg6KtSUVRlYi6RTncWMTV1HQHHxHLBZIgQRnJHtnlAcuC9K-FkSyWJGzQLEcaQjaK5a6IW8gaNSged4bhemaDXMlM_U5nW4zrHoQsBON81Ph_kTYV4OSEJWgaQps_mR50U-B59tbAaa8E1qqJfKiKZwVD1ncoZ_vCqq8rk6W9w5eEcwHLlnJUwDLcsdyU1zBUMObGhEovdGbz8v-dQ4gMZrdU8hCOFs8FRi8u4F7J7OzMbgeZKEesKjd-0K8FlLhB0fFGOrFLfqzl8esbGunHztECojmFyaBfox9ZWuLASwYwtHzxSMs_DXxUgY7DjRQU7lKp9E1TqUd0Hz7FjWrDBaEpx4Bw3S0]--></g></svg>