<?xml version="1.0" encoding="us-ascii" standalone="no"?><svg xmlns="http://www.w3.org/2000/svg" xmlns:xlink="http://www.w3.org/1999/xlink" contentStyleType="text/css" height="517px" preserveAspectRatio="none" style="width:650px;height:517px;background:#FFFFFF;" version="1.1" viewBox="0 0 650 517" width="650px" zoomAndPan="magnify"><defs/><g><text fill="#000000" font-family="sans-serif" font-size="14" font-weight="bold" lengthAdjust="spacing" textLength="228" x="210.25" y="27.6738">System Sequence Diagram (SSD)</text><rect fill="#FFFFFF" height="28.5234" style="stroke:#181818;stroke-width:1.0;" width="10" x="607.5" y="147.8047"/><rect fill="#FFFFFF" height="28.5234" style="stroke:#181818;stroke-width:1.0;" width="10" x="607.5" y="204.8516"/><rect fill="#FFFFFF" height="43.0469" style="stroke:#181818;stroke-width:1.0;" width="10" x="607.5" y="261.8984"/><rect fill="#FFFFFF" height="28.5234" style="stroke:#181818;stroke-width:1.0;" width="10" x="607.5" y="333.4688"/><rect fill="#FFFFFF" height="28.5234" style="stroke:#181818;stroke-width:1.0;" width="10" x="607.5" y="390.5156"/><line style="stroke:#181818;stroke-width:0.5;stroke-dasharray:5.0,5.0;" x1="74" x2="74" y1="117.2813" y2="437.0391"/><line style="stroke:#181818;stroke-width:0.5;stroke-dasharray:5.0,5.0;" x1="612.5" x2="612.5" y1="117.2813" y2="437.0391"/><text fill="#000000" font-family="sans-serif" font-size="14" lengthAdjust="spacing" textLength="133" x="5" y="114.3145">System Administrator</text><ellipse cx="74.5" cy="50.1406" fill="#E3E3E3" rx="8" ry="8" style="stroke:#181818;stroke-width:0.5;"/><path d="M74.5,58.1406 L74.5,85.1406 M61.5,66.1406 L87.5,66.1406 M74.5,85.1406 L61.5,100.1406 M74.5,85.1406 L87.5,100.1406 " fill="none" style="stroke:#181818;stroke-width:0.5;"/><text fill="#000000" font-family="sans-serif" font-size="14" lengthAdjust="spacing" textLength="133" x="5" y="448.7129">System Administrator</text><ellipse cx="74.5" cy="460.1797" fill="#E3E3E3" rx="8" ry="8" style="stroke:#181818;stroke-width:0.5;"/><path d="M74.5,468.1797 L74.5,495.1797 M61.5,476.1797 L87.5,476.1797 M74.5,495.1797 L61.5,510.1797 M74.5,495.1797 L87.5,510.1797 " fill="none" style="stroke:#181818;stroke-width:0.5;"/><rect fill="#E3E3E3" height="29.6406" rx="2.5" ry="2.5" style="stroke:#181818;stroke-width:0.5;" width="64" x="580.5" y="86.6406"/><text fill="#000000" font-family="sans-serif" font-size="14" lengthAdjust="spacing" textLength="50" x="587.5" y="106.3145">:System</text><rect fill="#E3E3E3" height="29.6406" rx="2.5" ry="2.5" style="stroke:#181818;stroke-width:0.5;" width="64" x="580.5" y="436.0391"/><text fill="#000000" font-family="sans-serif" font-size="14" lengthAdjust="spacing" textLength="50" x="587.5" y="455.7129">:System</text><rect fill="#FFFFFF" height="28.5234" style="stroke:#181818;stroke-width:1.0;" width="10" x="607.5" y="147.8047"/><rect fill="#FFFFFF" height="28.5234" style="stroke:#181818;stroke-width:1.0;" width="10" x="607.5" y="204.8516"/><rect fill="#FFFFFF" height="43.0469" style="stroke:#181818;stroke-width:1.0;" width="10" x="607.5" y="261.8984"/><rect fill="#FFFFFF" height="28.5234" style="stroke:#181818;stroke-width:1.0;" width="10" x="607.5" y="333.4688"/><rect fill="#FFFFFF" height="28.5234" style="stroke:#181818;stroke-width:1.0;" width="10" x="607.5" y="390.5156"/><polygon fill="#181818" points="595.5,143.8047,605.5,147.8047,595.5,151.8047,599.5,147.8047" style="stroke:#181818;stroke-width:1.0;"/><line style="stroke:#181818;stroke-width:1.0;" x1="74.5" x2="601.5" y1="147.8047" y2="147.8047"/><text fill="#000000" font-family="sans-serif" font-size="13" font-weight="bold" lengthAdjust="spacing" textLength="7" x="81.5" y="143.0498">1</text><text fill="#000000" font-family="sans-serif" font-size="13" lengthAdjust="spacing" textLength="185" x="92.5" y="143.0498">ask to register a new employee.</text><polygon fill="#181818" points="85.5,172.3281,75.5,176.3281,85.5,180.3281,81.5,176.3281" style="stroke:#181818;stroke-width:1.0;"/><line style="stroke:#181818;stroke-width:1.0;stroke-dasharray:2.0,2.0;" x1="79.5" x2="611.5" y1="176.3281" y2="176.3281"/><text fill="#000000" font-family="sans-serif" font-size="13" font-weight="bold" lengthAdjust="spacing" textLength="7" x="91.5" y="171.5732">2</text><text fill="#000000" font-family="sans-serif" font-size="13" lengthAdjust="spacing" textLength="498" x="102.5" y="171.5732">show a list of the role of the employee (agent, store manager, store network manager).</text><polygon fill="#181818" points="595.5,200.8516,605.5,204.8516,595.5,208.8516,599.5,204.8516" style="stroke:#181818;stroke-width:1.0;"/><line style="stroke:#181818;stroke-width:1.0;" x1="74.5" x2="601.5" y1="204.8516" y2="204.8516"/><text fill="#000000" font-family="sans-serif" font-size="13" font-weight="bold" lengthAdjust="spacing" textLength="7" x="81.5" y="200.0967">3</text><text fill="#000000" font-family="sans-serif" font-size="13" lengthAdjust="spacing" textLength="182" x="92.5" y="200.0967">select the role of the employee.</text><polygon fill="#181818" points="85.5,229.375,75.5,233.375,85.5,237.375,81.5,233.375" style="stroke:#181818;stroke-width:1.0;"/><line style="stroke:#181818;stroke-width:1.0;stroke-dasharray:2.0,2.0;" x1="79.5" x2="611.5" y1="233.375" y2="233.375"/><text fill="#000000" font-family="sans-serif" font-size="13" font-weight="bold" lengthAdjust="spacing" textLength="7" x="91.5" y="228.6201">4</text><text fill="#000000" font-family="sans-serif" font-size="13" lengthAdjust="spacing" textLength="136" x="102.5" y="228.6201">show a list of agencies.</text><polygon fill="#181818" points="595.5,257.8984,605.5,261.8984,595.5,265.8984,599.5,261.8984" style="stroke:#181818;stroke-width:1.0;"/><line style="stroke:#181818;stroke-width:1.0;" x1="74.5" x2="601.5" y1="261.8984" y2="261.8984"/><text fill="#000000" font-family="sans-serif" font-size="13" font-weight="bold" lengthAdjust="spacing" textLength="7" x="81.5" y="257.1436">5</text><text fill="#000000" font-family="sans-serif" font-size="13" lengthAdjust="spacing" textLength="107" x="92.5" y="257.1436">select the agency.</text><polygon fill="#181818" points="85.5,300.9453,75.5,304.9453,85.5,308.9453,81.5,304.9453" style="stroke:#181818;stroke-width:1.0;"/><line style="stroke:#181818;stroke-width:1.0;stroke-dasharray:2.0,2.0;" x1="79.5" x2="611.5" y1="304.9453" y2="304.9453"/><text fill="#000000" font-family="sans-serif" font-size="13" font-weight="bold" lengthAdjust="spacing" textLength="7" x="91.5" y="292.9287">6</text><text fill="#000000" font-family="sans-serif" font-size="13" lengthAdjust="spacing" textLength="445" x="102.5" y="285.667">request information about employee (employeeName, passaportCardNumber,</text><text fill="#000000" font-family="sans-serif" font-size="13" lengthAdjust="spacing" textLength="489" x="102.5" y="300.1904">employeeTaxNumber, employeeAddress, employeeEmail , employeePhoneNumber).</text><polygon fill="#181818" points="595.5,329.4688,605.5,333.4688,595.5,337.4688,599.5,333.4688" style="stroke:#181818;stroke-width:1.0;"/><line style="stroke:#181818;stroke-width:1.0;" x1="74.5" x2="601.5" y1="333.4688" y2="333.4688"/><text fill="#000000" font-family="sans-serif" font-size="13" font-weight="bold" lengthAdjust="spacing" textLength="7" x="81.5" y="328.7139">7</text><text fill="#000000" font-family="sans-serif" font-size="13" lengthAdjust="spacing" textLength="221" x="92.5" y="328.7139">types the information about employee.</text><polygon fill="#181818" points="85.5,357.9922,75.5,361.9922,85.5,365.9922,81.5,361.9922" style="stroke:#181818;stroke-width:1.0;"/><line style="stroke:#181818;stroke-width:1.0;stroke-dasharray:2.0,2.0;" x1="79.5" x2="611.5" y1="361.9922" y2="361.9922"/><text fill="#000000" font-family="sans-serif" font-size="13" font-weight="bold" lengthAdjust="spacing" textLength="7" x="91.5" y="357.2373">8</text><text fill="#000000" font-family="sans-serif" font-size="13" lengthAdjust="spacing" textLength="167" x="102.5" y="357.2373">Ask to confirm the operation.</text><polygon fill="#181818" points="595.5,386.5156,605.5,390.5156,595.5,394.5156,599.5,390.5156" style="stroke:#181818;stroke-width:1.0;"/><line style="stroke:#181818;stroke-width:1.0;" x1="74.5" x2="601.5" y1="390.5156" y2="390.5156"/><text fill="#000000" font-family="sans-serif" font-size="13" font-weight="bold" lengthAdjust="spacing" textLength="7" x="81.5" y="385.7607">9</text><text fill="#000000" font-family="sans-serif" font-size="13" lengthAdjust="spacing" textLength="55" x="92.5" y="385.7607">Confirms.</text><polygon fill="#181818" points="85.5,415.0391,75.5,419.0391,85.5,423.0391,81.5,419.0391" style="stroke:#181818;stroke-width:1.0;"/><line style="stroke:#181818;stroke-width:1.0;stroke-dasharray:2.0,2.0;" x1="79.5" x2="611.5" y1="419.0391" y2="419.0391"/><text fill="#000000" font-family="sans-serif" font-size="13" font-weight="bold" lengthAdjust="spacing" textLength="14" x="91.5" y="414.2842">10</text><text fill="#000000" font-family="sans-serif" font-size="13" lengthAdjust="spacing" textLength="482" x="109.5" y="414.2842">Send a generated password to the employeeEmail and displays operation success.</text><!--SRC=[bLBBRkCm3BpxAuYS6Y3D1-ImGD3sMXJm7djX9IOHOebUaMxMVx-q7UM1ROh69ueUZMQ6b7r8BMQC43cnssME19exgkJqfqMtnotLsZS4cPnYsZQN0DcXvqD8MzXW8rHL6jIWTIzA4Mhwqr5o1Cy1jmFyeQwVvrM5dNBguWTbgvroXjdnnjh7a89eHklE00LUOjjmJrJPWnfSQ34fp5OJVaHCPLM1VGKDZx-AY9LXzg1i-hV6J1aG4Xs0Zj3bUD5aX4zKkc8RlYFBen6Uo5Vccm_6qnWXy0PqP_6m6J_MXHiUBBsa2n2pGn0nsJcNOo8zSDwNzdmvlUhfIp5VMXDgR2ett__6suzy3UfT85cME6ve-uc-aQi_CTsRU1vsoLI5jE4SKGCdm0_kz2BiKhrYf8KjhmYsdFK9ityTrsq1xwc0VkFVqYojjVUPHCwDbuYXWVFvRSU9fblpvTt3qhub6REuRUBkYQsdvNQSDY77aPrRoYFtEUplHtTJyTF4AbT4zwYhANdR9nlz88dyE1HRUZzeljpKAMaqj0_IDjZBsGP8vvpDvLh5_tx-0G00]--></g></svg>