<?xml version="1.0" encoding="us-ascii" standalone="no"?><svg xmlns="http://www.w3.org/2000/svg" xmlns:xlink="http://www.w3.org/1999/xlink" contentStyleType="text/css" height="875px" preserveAspectRatio="none" style="width:794px;height:875px;background:#FFFFFF;" version="1.1" viewBox="0 0 794 875" width="794px" zoomAndPan="magnify"><defs/><g><text fill="#000000" font-family="sans-serif" font-size="14" font-weight="bold" lengthAdjust="spacing" textLength="351" x="223.75" y="27.6738">System Sequence Diagram (SSD) - Alternative One</text><rect fill="#FFFFFF" height="659.0391" style="stroke:#181818;stroke-width:1.0;" width="10" x="94.5" y="127.2813"/><rect fill="#FFFFFF" height="28.5234" style="stroke:#181818;stroke-width:1.0;" width="10" x="478.5" y="147.8047"/><rect fill="#FFFFFF" height="28.5234" style="stroke:#181818;stroke-width:1.0;" width="10" x="478.5" y="233.8984"/><rect fill="#FFFFFF" height="28.5234" style="stroke:#181818;stroke-width:1.0;" width="10" x="478.5" y="290.9453"/><rect fill="#FFFFFF" height="28.5234" style="stroke:#181818;stroke-width:1.0;" width="10" x="478.5" y="371.5156"/><rect fill="#FFFFFF" height="28.5234" style="stroke:#181818;stroke-width:1.0;" width="10" x="478.5" y="428.5625"/><rect fill="#FFFFFF" height="28.5234" style="stroke:#181818;stroke-width:1.0;" width="10" x="478.5" y="509.1328"/><rect fill="#FFFFFF" height="28.5234" style="stroke:#181818;stroke-width:1.0;" width="10" x="478.5" y="566.1797"/><rect fill="#FFFFFF" height="140.0938" style="stroke:#181818;stroke-width:1.0;" width="10" x="478.5" y="637.2266"/><rect fill="none" height="275.2344" style="stroke:#000000;stroke-width:1.5;" width="525.5" x="10" y="334.4688"/><rect fill="none" height="130.6172" style="stroke:#000000;stroke-width:1.5;" width="505.5" x="20" y="472.0859"/><line style="stroke:#181818;stroke-width:0.5;stroke-dasharray:5.0,5.0;" x1="99" x2="99" y1="117.2813" y2="795.3203"/><line style="stroke:#181818;stroke-width:0.5;stroke-dasharray:5.0,5.0;" x1="483.5" x2="483.5" y1="117.2813" y2="795.3203"/><text fill="#000000" font-family="sans-serif" font-size="14" lengthAdjust="spacing" textLength="133" x="30" y="114.3145">System Administrator</text><ellipse cx="99.5" cy="50.1406" fill="#E3E3E3" rx="8" ry="8" style="stroke:#181818;stroke-width:0.5;"/><path d="M99.5,58.1406 L99.5,85.1406 M86.5,66.1406 L112.5,66.1406 M99.5,85.1406 L86.5,100.1406 M99.5,85.1406 L112.5,100.1406 " fill="none" style="stroke:#181818;stroke-width:0.5;"/><text fill="#000000" font-family="sans-serif" font-size="14" lengthAdjust="spacing" textLength="133" x="30" y="806.9941">System Administrator</text><ellipse cx="99.5" cy="818.4609" fill="#E3E3E3" rx="8" ry="8" style="stroke:#181818;stroke-width:0.5;"/><path d="M99.5,826.4609 L99.5,853.4609 M86.5,834.4609 L112.5,834.4609 M99.5,853.4609 L86.5,868.4609 M99.5,853.4609 L112.5,868.4609 " fill="none" style="stroke:#181818;stroke-width:0.5;"/><rect fill="#E3E3E3" height="29.6406" rx="2.5" ry="2.5" style="stroke:#181818;stroke-width:0.5;" width="64" x="451.5" y="86.6406"/><text fill="#000000" font-family="sans-serif" font-size="14" lengthAdjust="spacing" textLength="50" x="458.5" y="106.3145">:System</text><rect fill="#E3E3E3" height="29.6406" rx="2.5" ry="2.5" style="stroke:#181818;stroke-width:0.5;" width="64" x="451.5" y="794.3203"/><text fill="#000000" font-family="sans-serif" font-size="14" lengthAdjust="spacing" textLength="50" x="458.5" y="813.9941">:System</text><rect fill="#FFFFFF" height="659.0391" style="stroke:#181818;stroke-width:1.0;" width="10" x="94.5" y="127.2813"/><rect fill="#FFFFFF" height="28.5234" style="stroke:#181818;stroke-width:1.0;" width="10" x="478.5" y="147.8047"/><rect fill="#FFFFFF" height="28.5234" style="stroke:#181818;stroke-width:1.0;" width="10" x="478.5" y="233.8984"/><rect fill="#FFFFFF" height="28.5234" style="stroke:#181818;stroke-width:1.0;" width="10" x="478.5" y="290.9453"/><rect fill="#FFFFFF" height="28.5234" style="stroke:#181818;stroke-width:1.0;" width="10" x="478.5" y="371.5156"/><rect fill="#FFFFFF" height="28.5234" style="stroke:#181818;stroke-width:1.0;" width="10" x="478.5" y="428.5625"/><rect fill="#FFFFFF" height="28.5234" style="stroke:#181818;stroke-width:1.0;" width="10" x="478.5" y="509.1328"/><rect fill="#FFFFFF" height="28.5234" style="stroke:#181818;stroke-width:1.0;" width="10" x="478.5" y="566.1797"/><rect fill="#FFFFFF" height="140.0938" style="stroke:#181818;stroke-width:1.0;" width="10" x="478.5" y="637.2266"/><polygon fill="#181818" points="466.5,143.8047,476.5,147.8047,466.5,151.8047,470.5,147.8047" style="stroke:#181818;stroke-width:1.0;"/><line style="stroke:#181818;stroke-width:1.0;" x1="104.5" x2="472.5" y1="147.8047" y2="147.8047"/><text fill="#000000" font-family="sans-serif" font-size="13" font-weight="bold" lengthAdjust="spacing" textLength="7" x="111.5" y="143.0498">1</text><text fill="#000000" font-family="sans-serif" font-size="13" lengthAdjust="spacing" textLength="190" x="122.5" y="143.0498">Asks to register a new employee</text><polygon fill="#181818" points="115.5,172.3281,105.5,176.3281,115.5,180.3281,111.5,176.3281" style="stroke:#181818;stroke-width:1.0;"/><line style="stroke:#181818;stroke-width:1.0;stroke-dasharray:2.0,2.0;" x1="109.5" x2="482.5" y1="176.3281" y2="176.3281"/><text fill="#000000" font-family="sans-serif" font-size="13" font-weight="bold" lengthAdjust="spacing" textLength="7" x="121.5" y="171.5732">2</text><text fill="#000000" font-family="sans-serif" font-size="13" lengthAdjust="spacing" textLength="84" x="132.5" y="171.5732">Requests data</text><polygon fill="#181818" points="466.5,229.8984,476.5,233.8984,466.5,237.8984,470.5,233.8984" style="stroke:#181818;stroke-width:1.0;"/><line style="stroke:#181818;stroke-width:1.0;" x1="104.5" x2="472.5" y1="233.8984" y2="233.8984"/><text fill="#000000" font-family="sans-serif" font-size="13" font-weight="bold" lengthAdjust="spacing" textLength="7" x="111.5" y="214.6201">3</text><text fill="#000000" font-family="sans-serif" font-size="13" lengthAdjust="spacing" textLength="344" x="122.5" y="200.0967">Types requested data (the name, the citizen's card number,</text><text fill="#000000" font-family="sans-serif" font-size="13" lengthAdjust="spacing" textLength="278" x="126.5" y="214.6201">the tax number, the address, the email address,</text><text fill="#000000" font-family="sans-serif" font-size="13" lengthAdjust="spacing" textLength="273" x="122.5" y="229.1436">the contact, telephone number and the agency)</text><polygon fill="#181818" points="115.5,258.4219,105.5,262.4219,115.5,266.4219,111.5,262.4219" style="stroke:#181818;stroke-width:1.0;"/><line style="stroke:#181818;stroke-width:1.0;stroke-dasharray:2.0,2.0;" x1="109.5" x2="482.5" y1="262.4219" y2="262.4219"/><text fill="#000000" font-family="sans-serif" font-size="13" font-weight="bold" lengthAdjust="spacing" textLength="7" x="121.5" y="257.667">4</text><text fill="#000000" font-family="sans-serif" font-size="13" lengthAdjust="spacing" textLength="236" x="132.5" y="257.667">Shows user roles and asks to select one</text><polygon fill="#181818" points="466.5,286.9453,476.5,290.9453,466.5,294.9453,470.5,290.9453" style="stroke:#181818;stroke-width:1.0;"/><line style="stroke:#181818;stroke-width:1.0;" x1="104.5" x2="472.5" y1="290.9453" y2="290.9453"/><text fill="#000000" font-family="sans-serif" font-size="13" font-weight="bold" lengthAdjust="spacing" textLength="7" x="111.5" y="286.1904">5</text><text fill="#000000" font-family="sans-serif" font-size="13" lengthAdjust="spacing" textLength="116" x="122.5" y="286.1904">Selects an user role</text><polygon fill="#181818" points="115.5,315.4688,105.5,319.4688,115.5,323.4688,111.5,319.4688" style="stroke:#181818;stroke-width:1.0;"/><line style="stroke:#181818;stroke-width:1.0;stroke-dasharray:2.0,2.0;" x1="109.5" x2="482.5" y1="319.4688" y2="319.4688"/><text fill="#000000" font-family="sans-serif" font-size="13" font-weight="bold" lengthAdjust="spacing" textLength="7" x="121.5" y="314.7139">6</text><text fill="#000000" font-family="sans-serif" font-size="13" lengthAdjust="spacing" textLength="58" x="132.5" y="314.7139">return role</text><path d="M10,334.4688 L71,334.4688 L71,340.9922 L61,350.9922 L10,350.9922 L10,334.4688 " fill="#EEEEEE" style="stroke:#000000;stroke-width:1.5;"/><rect fill="none" height="275.2344" style="stroke:#000000;stroke-width:1.5;" width="525.5" x="10" y="334.4688"/><text fill="#000000" font-family="sans-serif" font-size="13" font-weight="bold" lengthAdjust="spacing" textLength="16" x="25" y="347.2373">alt</text><text fill="#000000" font-family="sans-serif" font-size="11" font-weight="bold" lengthAdjust="spacing" textLength="240" x="86" y="346.4268">[Is selected role not System Administrator]</text><polygon fill="#181818" points="466.5,367.5156,476.5,371.5156,466.5,375.5156,470.5,371.5156" style="stroke:#181818;stroke-width:1.0;"/><line style="stroke:#181818;stroke-width:1.0;" x1="104.5" x2="472.5" y1="371.5156" y2="371.5156"/><text fill="#000000" font-family="sans-serif" font-size="13" font-weight="bold" lengthAdjust="spacing" textLength="7" x="111.5" y="366.7607">7</text><text fill="#000000" font-family="sans-serif" font-size="13" lengthAdjust="spacing" textLength="148" x="122.5" y="366.7607">Asks to select an agency</text><polygon fill="#181818" points="115.5,396.0391,105.5,400.0391,115.5,404.0391,111.5,400.0391" style="stroke:#181818;stroke-width:1.0;"/><line style="stroke:#181818;stroke-width:1.0;stroke-dasharray:2.0,2.0;" x1="109.5" x2="482.5" y1="400.0391" y2="400.0391"/><text fill="#000000" font-family="sans-serif" font-size="13" font-weight="bold" lengthAdjust="spacing" textLength="7" x="121.5" y="395.2842">8</text><text fill="#000000" font-family="sans-serif" font-size="13" lengthAdjust="spacing" textLength="288" x="132.5" y="395.2842">Shows the list of agencies and asks to select one</text><polygon fill="#181818" points="466.5,424.5625,476.5,428.5625,466.5,432.5625,470.5,428.5625" style="stroke:#181818;stroke-width:1.0;"/><line style="stroke:#181818;stroke-width:1.0;" x1="104.5" x2="472.5" y1="428.5625" y2="428.5625"/><text fill="#000000" font-family="sans-serif" font-size="13" font-weight="bold" lengthAdjust="spacing" textLength="7" x="111.5" y="423.8076">9</text><text fill="#000000" font-family="sans-serif" font-size="13" lengthAdjust="spacing" textLength="130" x="122.5" y="423.8076">Selects a user agency</text><polygon fill="#181818" points="115.5,453.0859,105.5,457.0859,115.5,461.0859,111.5,457.0859" style="stroke:#181818;stroke-width:1.0;"/><line style="stroke:#181818;stroke-width:1.0;stroke-dasharray:2.0,2.0;" x1="109.5" x2="482.5" y1="457.0859" y2="457.0859"/><text fill="#000000" font-family="sans-serif" font-size="13" font-weight="bold" lengthAdjust="spacing" textLength="14" x="121.5" y="452.3311">10</text><text fill="#000000" font-family="sans-serif" font-size="13" lengthAdjust="spacing" textLength="79" x="139.5" y="452.3311">return agency</text><path d="M20,472.0859 L81,472.0859 L81,478.6094 L71,488.6094 L20,488.6094 L20,472.0859 " fill="#EEEEEE" style="stroke:#000000;stroke-width:1.5;"/><rect fill="none" height="130.6172" style="stroke:#000000;stroke-width:1.5;" width="505.5" x="20" y="472.0859"/><text fill="#000000" font-family="sans-serif" font-size="13" font-weight="bold" lengthAdjust="spacing" textLength="16" x="35" y="484.8545">alt</text><text fill="#000000" font-family="sans-serif" font-size="11" font-weight="bold" lengthAdjust="spacing" textLength="150" x="96" y="484.0439">[Is Agent or StoreManager]</text><polygon fill="#181818" points="466.5,505.1328,476.5,509.1328,466.5,513.1328,470.5,509.1328" style="stroke:#181818;stroke-width:1.0;"/><line style="stroke:#181818;stroke-width:1.0;" x1="104.5" x2="472.5" y1="509.1328" y2="509.1328"/><text fill="#000000" font-family="sans-serif" font-size="13" font-weight="bold" lengthAdjust="spacing" textLength="14" x="111.5" y="504.3779">11</text><text fill="#000000" font-family="sans-serif" font-size="13" lengthAdjust="spacing" textLength="171" x="129.5" y="504.3779">Asks to list all agency Stores</text><polygon fill="#181818" points="115.5,533.6563,105.5,537.6563,115.5,541.6563,111.5,537.6563" style="stroke:#181818;stroke-width:1.0;"/><line style="stroke:#181818;stroke-width:1.0;stroke-dasharray:2.0,2.0;" x1="109.5" x2="482.5" y1="537.6563" y2="537.6563"/><text fill="#000000" font-family="sans-serif" font-size="13" font-weight="bold" lengthAdjust="spacing" textLength="14" x="121.5" y="532.9014">12</text><text fill="#000000" font-family="sans-serif" font-size="13" lengthAdjust="spacing" textLength="215" x="139.5" y="532.9014">Lists the stores and asks to pick one</text><polygon fill="#181818" points="466.5,562.1797,476.5,566.1797,466.5,570.1797,470.5,566.1797" style="stroke:#181818;stroke-width:1.0;"/><line style="stroke:#181818;stroke-width:1.0;" x1="104.5" x2="472.5" y1="566.1797" y2="566.1797"/><text fill="#000000" font-family="sans-serif" font-size="13" font-weight="bold" lengthAdjust="spacing" textLength="14" x="111.5" y="561.4248">13</text><text fill="#000000" font-family="sans-serif" font-size="13" lengthAdjust="spacing" textLength="88" x="129.5" y="561.4248">Selects a store</text><polygon fill="#181818" points="115.5,590.7031,105.5,594.7031,115.5,598.7031,111.5,594.7031" style="stroke:#181818;stroke-width:1.0;"/><line style="stroke:#181818;stroke-width:1.0;stroke-dasharray:2.0,2.0;" x1="109.5" x2="482.5" y1="594.7031" y2="594.7031"/><text fill="#000000" font-family="sans-serif" font-size="13" font-weight="bold" lengthAdjust="spacing" textLength="14" x="121.5" y="589.9482">14</text><text fill="#000000" font-family="sans-serif" font-size="13" lengthAdjust="spacing" textLength="71" x="139.5" y="589.9482">Return store</text><polygon fill="#181818" points="466.5,633.2266,476.5,637.2266,466.5,641.2266,470.5,637.2266" style="stroke:#181818;stroke-width:1.0;"/><line style="stroke:#181818;stroke-width:1.0;" x1="104.5" x2="472.5" y1="637.2266" y2="637.2266"/><text fill="#000000" font-family="sans-serif" font-size="13" font-weight="bold" lengthAdjust="spacing" textLength="14" x="111.5" y="632.4717">15</text><text fill="#000000" font-family="sans-serif" font-size="13" lengthAdjust="spacing" textLength="135" x="129.5" y="632.4717">Asks to save employee</text><line style="stroke:#181818;stroke-width:1.0;stroke-dasharray:2.0,2.0;" x1="488.5" x2="530.5" y1="665.75" y2="665.75"/><line style="stroke:#181818;stroke-width:1.0;stroke-dasharray:2.0,2.0;" x1="530.5" x2="530.5" y1="665.75" y2="678.75"/><line style="stroke:#181818;stroke-width:1.0;stroke-dasharray:2.0,2.0;" x1="489.5" x2="530.5" y1="678.75" y2="678.75"/><polygon fill="#181818" points="499.5,674.75,489.5,678.75,499.5,682.75,495.5,678.75" style="stroke:#181818;stroke-width:1.0;"/><text fill="#000000" font-family="sans-serif" font-size="13" font-weight="bold" lengthAdjust="spacing" textLength="14" x="495.5" y="660.9951">16</text><text fill="#000000" font-family="sans-serif" font-size="13" lengthAdjust="spacing" textLength="274" x="513.5" y="660.9951">Generate a new password to the new employee</text><polygon fill="#181818" points="115.5,703.2734,105.5,707.2734,115.5,711.2734,111.5,707.2734" style="stroke:#181818;stroke-width:1.0;"/><line style="stroke:#181818;stroke-width:1.0;stroke-dasharray:2.0,2.0;" x1="109.5" x2="477.5" y1="707.2734" y2="707.2734"/><text fill="#000000" font-family="sans-serif" font-size="13" font-weight="bold" lengthAdjust="spacing" textLength="14" x="121.5" y="702.5186">17</text><text fill="#000000" font-family="sans-serif" font-size="13" lengthAdjust="spacing" textLength="105" x="139.5" y="702.5186">Employee created</text><line style="stroke:#181818;stroke-width:1.0;stroke-dasharray:2.0,2.0;" x1="488.5" x2="530.5" y1="735.7969" y2="735.7969"/><line style="stroke:#181818;stroke-width:1.0;stroke-dasharray:2.0,2.0;" x1="530.5" x2="530.5" y1="735.7969" y2="748.7969"/><line style="stroke:#181818;stroke-width:1.0;stroke-dasharray:2.0,2.0;" x1="489.5" x2="530.5" y1="748.7969" y2="748.7969"/><polygon fill="#181818" points="499.5,744.7969,489.5,748.7969,499.5,752.7969,495.5,748.7969" style="stroke:#181818;stroke-width:1.0;"/><text fill="#000000" font-family="sans-serif" font-size="13" font-weight="bold" lengthAdjust="spacing" textLength="14" x="495.5" y="731.042">18</text><text fill="#000000" font-family="sans-serif" font-size="13" lengthAdjust="spacing" textLength="214" x="513.5" y="731.042">Sends an email to the new employee</text><polygon fill="#181818" points="115.5,773.3203,105.5,777.3203,115.5,781.3203,111.5,777.3203" style="stroke:#181818;stroke-width:1.0;"/><line style="stroke:#181818;stroke-width:1.0;stroke-dasharray:2.0,2.0;" x1="109.5" x2="482.5" y1="777.3203" y2="777.3203"/><text fill="#000000" font-family="sans-serif" font-size="13" font-weight="bold" lengthAdjust="spacing" textLength="14" x="121.5" y="772.5654">19</text><text fill="#000000" font-family="sans-serif" font-size="13" lengthAdjust="spacing" textLength="190" x="139.5" y="772.5654">Informs of the operation Success</text><!--SRC=[fLJDZjCm4BxdAKQzi2jjNw07f4gBq4eW9C9nBuCpJQqwus1FMihJCxQJjj2oPE5IEVPyF_FLdhYpt6F03ZhFtco3xmWa35J5qqcFPeSjrN9q186C8BVkiY1kiV47ooriq4MgAh6YfVKn2dLGqxU1s10yMcnJ-LrTFzx34jPEA32AtHDyOeNX89w7xYi5NHln0HOZnxhfBDie0NLt0HZXNTSxVoIgr89OOtjaWSMgrEUAiinCTez2PqWrhM3vTdAvWdNSHH2l7RQgH04Gc0v04-h4Cn6FoAMId0XNy3cr6oL2Wu9LGx_3Rcf_EVOKLJb3gSbOk9Cj0MD73v1MnehzGVmcWi7GG0dguPdpeU3tQIT_OzC4Yh5yK8VMdRUUETDv5lMc5UIettgcaG2GcyBHwjzsl9_RUBtrXmX3L8RWdRQJU70CDQg84L2LkP7K6P5OpfnphGII8N21NCjLw0IUukX9qqvrm5xWrcrx-RACVQd9ajRhmaefEnK2lobu-t-nNQHMGdkTgJ6s4NGjEEQsrdFr5A3MUEWZiWB-4bDk4fqRkGioplK57snwK2cjc86_PDHRi_kdYrN8vh_h74x1N4iHDrN-UVcwu9xcJPJ5DCbMy9wOGYeh0wd760zU9u3ovGbnEQHkUpyjJI0bQlwaL6i3-SMLYJ5JO0LFlF6XY-aQ9u3lar_h6Uh169qvD_Bw2G00]--></g></svg>