<?xml version="1.0" encoding="us-ascii" standalone="no"?><svg xmlns="http://www.w3.org/2000/svg" xmlns:xlink="http://www.w3.org/1999/xlink" contentStyleType="text/css" height="662px" preserveAspectRatio="none" style="width:571px;height:662px;background:#FFFFFF;" version="1.1" viewBox="0 0 571 662" width="571px" zoomAndPan="magnify"><defs/><g><text fill="#000000" font-family="sans-serif" font-size="14" font-weight="bold" lengthAdjust="spacing" textLength="156" x="200.5" y="22.6738">Domain Model - US007</text><!--class Address--><g id="elem_Address"><rect codeLine="14" fill="#F1F1F1" height="96.2031" id="Address" rx="2.5" ry="2.5" style="stroke:#181818;stroke-width:0.5;" width="100" x="115.5" y="449.6406"/><text fill="#000000" font-family="sans-serif" font-size="14" lengthAdjust="spacing" textLength="52" x="139.5" y="467.3145">Address</text><line style="stroke:#181818;stroke-width:0.5;" x1="116.5" x2="214.5" y1="475.2813" y2="475.2813"/><text fill="#000000" font-family="sans-serif" font-size="14" lengthAdjust="spacing" textLength="78" x="121.5" y="491.9551">doorNumber</text><text fill="#000000" font-family="sans-serif" font-size="14" lengthAdjust="spacing" textLength="77" x="121.5" y="507.5957">floorNumber</text><text fill="#000000" font-family="sans-serif" font-size="14" lengthAdjust="spacing" textLength="51" x="121.5" y="523.2363">zipCode</text><text fill="#000000" font-family="sans-serif" font-size="14" lengthAdjust="spacing" textLength="88" x="121.5" y="538.877">streetAddress</text></g><!--class State--><g id="elem_State"><rect codeLine="21" fill="#F1F1F1" height="49.2813" id="State" rx="2.5" ry="2.5" style="stroke:#181818;stroke-width:0.5;" width="79" x="7" y="606.6406"/><text fill="#000000" font-family="sans-serif" font-size="14" lengthAdjust="spacing" textLength="33" x="30" y="624.3145">State</text><line style="stroke:#181818;stroke-width:0.5;" x1="8" x2="85" y1="632.2813" y2="632.2813"/><text fill="#000000" font-family="sans-serif" font-size="14" lengthAdjust="spacing" textLength="67" x="13" y="648.9551">stateName</text></g><!--class District--><g id="elem_District"><rect codeLine="25" fill="#F1F1F1" height="49.2813" id="District" rx="2.5" ry="2.5" style="stroke:#181818;stroke-width:0.5;" width="89" x="121" y="606.6406"/><text fill="#000000" font-family="sans-serif" font-size="14" lengthAdjust="spacing" textLength="43" x="144" y="624.3145">District</text><line style="stroke:#181818;stroke-width:0.5;" x1="122" x2="209" y1="632.2813" y2="632.2813"/><text fill="#000000" font-family="sans-serif" font-size="14" lengthAdjust="spacing" textLength="77" x="127" y="648.9551">districtName</text></g><!--class City--><g id="elem_City"><rect codeLine="29" fill="#F1F1F1" height="49.2813" id="City" rx="2.5" ry="2.5" style="stroke:#181818;stroke-width:0.5;" width="69" x="245" y="606.6406"/><text fill="#000000" font-family="sans-serif" font-size="14" lengthAdjust="spacing" textLength="24" x="267.5" y="624.3145">City</text><line style="stroke:#181818;stroke-width:0.5;" x1="246" x2="313" y1="632.2813" y2="632.2813"/><text fill="#000000" font-family="sans-serif" font-size="14" lengthAdjust="spacing" textLength="57" x="251" y="648.9551">cityName</text></g><!--class UnregisteredUser--><g id="elem_UnregisteredUser"><rect codeLine="33" fill="#F1F1F1" height="96.2031" id="UnregisteredUser" rx="2.5" ry="2.5" style="stroke:#181818;stroke-width:0.5;" width="124" x="201.5" y="43.6406"/><text fill="#000000" font-family="sans-serif" font-size="14" lengthAdjust="spacing" textLength="110" x="208.5" y="61.3145">UnregisteredUser</text><line style="stroke:#181818;stroke-width:0.5;" x1="202.5" x2="324.5" y1="69.2813" y2="69.2813"/><text fill="#000000" font-family="sans-serif" font-size="14" lengthAdjust="spacing" textLength="35" x="207.5" y="85.9551">name</text><text fill="#000000" font-family="sans-serif" font-size="14" lengthAdjust="spacing" textLength="85" x="207.5" y="101.5957">emailAddress</text><text fill="#000000" font-family="sans-serif" font-size="14" lengthAdjust="spacing" textLength="112" x="207.5" y="117.2363">telephoneNumber</text><text fill="#000000" font-family="sans-serif" font-size="14" lengthAdjust="spacing" textLength="60" x="207.5" y="132.877">password</text></g><!--class User--><g id="elem_User"><rect codeLine="40" fill="#F1F1F1" height="80.5625" id="User" rx="2.5" ry="2.5" style="stroke:#181818;stroke-width:0.5;" width="124" x="275.5" y="292.6406"/><text fill="#000000" font-family="sans-serif" font-size="14" lengthAdjust="spacing" textLength="29" x="323" y="310.3145">User</text><line style="stroke:#181818;stroke-width:0.5;" x1="276.5" x2="398.5" y1="318.2813" y2="318.2813"/><text fill="#000000" font-family="sans-serif" font-size="14" lengthAdjust="spacing" textLength="35" x="281.5" y="334.9551">name</text><text fill="#000000" font-family="sans-serif" font-size="14" lengthAdjust="spacing" textLength="85" x="281.5" y="350.5957">emailAddress</text><text fill="#000000" font-family="sans-serif" font-size="14" lengthAdjust="spacing" textLength="112" x="281.5" y="366.2363">telephoneNumber</text></g><!--class PassportCardNumber--><g id="elem_PassportCardNumber"><rect codeLine="46" fill="#F1F1F1" height="49.2813" id="PassportCardNumber" rx="2.5" ry="2.5" style="stroke:#181818;stroke-width:0.5;" width="147" x="417" y="473.1406"/><text fill="#000000" font-family="sans-serif" font-size="14" lengthAdjust="spacing" textLength="136" x="422.5" y="490.8145">PassportCardNumber</text><line style="stroke:#181818;stroke-width:0.5;" x1="418" x2="563" y1="498.7813" y2="498.7813"/><text fill="#000000" font-family="sans-serif" font-size="14" lengthAdjust="spacing" textLength="135" x="423" y="515.4551">passportCardNumber</text></g><!--class TaxNumber--><g id="elem_TaxNumber"><rect codeLine="50" fill="#F1F1F1" height="49.2813" id="TaxNumber" rx="2.5" ry="2.5" style="stroke:#181818;stroke-width:0.5;" width="79" x="268" y="473.1406"/><text fill="#000000" font-family="sans-serif" font-size="14" lengthAdjust="spacing" textLength="72" x="271.5" y="490.8145">TaxNumber</text><line style="stroke:#181818;stroke-width:0.5;" x1="269" x2="346" y1="498.7813" y2="498.7813"/><text fill="#000000" font-family="sans-serif" font-size="14" lengthAdjust="spacing" textLength="67" x="274" y="515.4551">taxNumber</text></g><!--link Address to State--><g id="link_Address_State"><path codeLine="54" d="M122.87,545.7406 C109.31,560.7406 94.46,577.1406 81.5,591.4606 " fill="none" id="Address-to-State" style="stroke:#181818;stroke-width:1.0;"/><polygon fill="none" points="86.44,596.4406,67.83,606.5706,76.06,587.0406,86.44,596.4406" style="stroke:#181818;stroke-width:1.0;"/></g><!--link Address to City--><g id="link_Address_City"><path codeLine="55" d="M206.33,545.7406 C219.19,560.5706 233.25,576.7906 245.57,591.0006 " fill="none" id="Address-to-City" style="stroke:#181818;stroke-width:1.0;"/><polygon fill="none" points="251.25,586.8706,259.07,606.5706,240.68,596.0406,251.25,586.8706" style="stroke:#181818;stroke-width:1.0;"/></g><!--link Address to District--><g id="link_Address_District"><path codeLine="56" d="M165.5,545.7406 C165.5,558.9606 165.5,573.2806 165.5,586.3006 " fill="none" id="Address-to-District" style="stroke:#181818;stroke-width:1.0;"/><polygon fill="none" points="172.5,586.5706,165.5,606.5706,158.5,586.5706,172.5,586.5706" style="stroke:#181818;stroke-width:1.0;"/></g><!--link UnregisteredUser to User--><g id="link_UnregisteredUser_User"><path codeLine="57" d="M278.03,139.6706 C291.8,184.2206 312.24,250.3706 325.21,292.3606 " fill="none" id="UnregisteredUser-User" style="stroke:#181818;stroke-width:1.0;"/><polygon fill="#000000" points="307.9761,213.6795,308.1137,204.1699,302.4979,205.9052,307.9761,213.6795" style="stroke:#000000;stroke-width:1.0;"/><text fill="#000000" font-family="sans-serif" font-size="13" lengthAdjust="spacing" textLength="150" x="315.5" y="213.4092">after registration becomes</text></g><!--link UnregisteredUser to Address--><g id="link_UnregisteredUser_Address"><path codeLine="58" d="M239.15,139.9606 C224.83,169.8106 207.6,209.6006 197.5,246.6406 C178.69,315.6606 170.85,398.5006 167.65,449.3406 " fill="none" id="UnregisteredUser-Address" style="stroke:#181818;stroke-width:1.0;"/><text fill="#000000" font-family="sans-serif" font-size="13" lengthAdjust="spacing" textLength="21" x="198.5" y="259.4092">has</text></g><!--link User to Address--><g id="link_User_Address"><path codeLine="59" d="M295.42,373.8906 C271.26,396.7206 240.76,425.5306 215.39,449.5006 " fill="none" id="User-Address" style="stroke:#181818;stroke-width:1.0;"/><text fill="#000000" font-family="sans-serif" font-size="13" lengthAdjust="spacing" textLength="21" x="262.5" y="416.4092">has</text></g><!--link UnregisteredUser to TaxNumber--><g id="link_UnregisteredUser_TaxNumber"><path codeLine="60" d="M249.19,139.7906 C231.95,204.8806 209.29,324.9606 243.5,419.6406 C250.88,440.0806 266.32,458.9106 280.18,472.8406 " fill="none" id="UnregisteredUser-TaxNumber" style="stroke:#181818;stroke-width:1.0;"/><text fill="#000000" font-family="sans-serif" font-size="13" lengthAdjust="spacing" textLength="21" x="230.5" y="259.4092">has</text></g><!--link UnregisteredUser to PassportCardNumber--><g id="link_UnregisteredUser_PassportCardNumber"><path codeLine="61" d="M325.77,106.5206 C375.11,121.0606 441.11,149.2106 474.5,200.6406 C530.69,287.1806 508.68,419.7306 496.49,473.1406 " fill="none" id="UnregisteredUser-PassportCardNumber" style="stroke:#181818;stroke-width:1.0;"/><text fill="#000000" font-family="sans-serif" font-size="13" lengthAdjust="spacing" textLength="21" x="501.5" y="259.4092">has</text></g><!--link User to TaxNumber--><g id="link_User_TaxNumber"><path codeLine="62" d="M330.16,373.8906 C324.44,404.9006 316.68,446.9306 311.88,472.8906 " fill="none" id="User-TaxNumber" style="stroke:#181818;stroke-width:1.0;"/><text fill="#000000" font-family="sans-serif" font-size="13" lengthAdjust="spacing" textLength="21" x="324.5" y="416.4092">has</text></g><!--link User to PassportCardNumber--><g id="link_User_PassportCardNumber"><path codeLine="63" d="M374.93,373.8906 C404.12,404.9006 443.69,446.9306 468.14,472.8906 " fill="none" id="User-PassportCardNumber" style="stroke:#181818;stroke-width:1.0;"/><text fill="#000000" font-family="sans-serif" font-size="13" lengthAdjust="spacing" textLength="21" x="414.5" y="416.4092">has</text></g><!--SRC=[ZPB1Ri8m38RlVWhVTgh4RT8EI0WkEmnDwdY0aBXjH9fKZX63Rk- -j52W3BHTKkl__TcncxYnlb6iQgo33xhYK1CARmdYsMcKtgYISjaxGYOjofVkEY5MoeITzIKMoaK2U79K24f0jcKbQ6n7sU3X2j9EnJWJORlU2htgu7Dx89m0LDOGQiiwDUdZcgGA9WA8bNI5HQYLzVWM33dCS9LF9iy0VJsS6SCKOmic15vkwpKn5EuI7smpJnn4OI8vPSFtWEUYXDhafizIrNHn5ZOXLakgV8h6_jpAlWMTph6-yanb8eZ9h29n2xxpAOtWXlP2ZfegU3fTiadWBh2vgl9FyWoyfwC9B7F5vkYrVTcnTid_K9z3cWnXvvuQOPPzJO_R6KlTs6DbM1JSJfxih1y4Nr0LISQZpwfx6hWcdTvUnEazSFYl2QrKX0VglORdmHudtLdMJPzVHVu2Vm00]--></g></svg>