<?xml version="1.0" encoding="us-ascii" standalone="no"?><svg xmlns="http://www.w3.org/2000/svg" xmlns:xlink="http://www.w3.org/1999/xlink" contentStyleType="text/css" height="489px" preserveAspectRatio="none" style="width:548px;height:489px;background:#FFFFFF;" version="1.1" viewBox="0 0 548 489" width="548px" zoomAndPan="magnify"><defs/><g><text fill="#000000" font-family="sans-serif" font-size="14" font-weight="bold" lengthAdjust="spacing" textLength="295" x="128" y="28.5352">US001 - System Sequence Diagram (SSD)</text><rect fill="#FFFFFF" height="270.1055" style="stroke:#181818;stroke-width:1.0;" width="10" x="80" y="128.9766"/><rect fill="#FFFFFF" height="29.3105" style="stroke:#181818;stroke-width:1.0;" width="10" x="494" y="150.2871"/><rect fill="#FFFFFF" height="29.3105" style="stroke:#181818;stroke-width:1.0;" width="10" x="494" y="248.5293"/><rect fill="#FFFFFF" height="44.6211" style="stroke:#181818;stroke-width:1.0;" width="10" x="494" y="338.4609"/><rect fill="none" height="91.2422" style="stroke:#000000;stroke-width:1.5;" width="532" x="10" y="194.5977"/><rect fill="none" height="91.2422" style="stroke:#000000;stroke-width:1.5;" width="532" x="10" y="299.8398"/><line style="stroke:#181818;stroke-width:0.5;stroke-dasharray:5.0,5.0;" x1="85" x2="85" y1="118.9766" y2="408.082"/><line style="stroke:#181818;stroke-width:0.5;stroke-dasharray:5.0,5.0;" x1="499" x2="499" y1="118.9766" y2="408.082"/><text fill="#000000" font-family="sans-serif" font-size="14" lengthAdjust="spacing" textLength="124" x="20" y="116.0234">Unregistered User</text><ellipse cx="85" cy="50.9883" fill="#E3E3E3" rx="8" ry="8" style="stroke:#181818;stroke-width:0.5;"/><path d="M85,58.9883 L85,85.9883 M72,66.9883 L98,66.9883 M85,85.9883 L72,100.9883 M85,85.9883 L98,100.9883 " fill="none" style="stroke:#181818;stroke-width:0.5;"/><text fill="#000000" font-family="sans-serif" font-size="14" lengthAdjust="spacing" textLength="124" x="20" y="420.6172">Unregistered User</text><ellipse cx="85" cy="432.0703" fill="#E3E3E3" rx="8" ry="8" style="stroke:#181818;stroke-width:0.5;"/><path d="M85,440.0703 L85,467.0703 M72,448.0703 L98,448.0703 M85,467.0703 L72,482.0703 M85,467.0703 L98,482.0703 " fill="none" style="stroke:#181818;stroke-width:0.5;"/><rect fill="#E3E3E3" height="30.4883" rx="2.5" ry="2.5" style="stroke:#181818;stroke-width:0.5;" width="66" x="466" y="87.4883"/><text fill="#000000" font-family="sans-serif" font-size="14" lengthAdjust="spacing" textLength="52" x="473" y="108.0234">:System</text><rect fill="#E3E3E3" height="30.4883" rx="2.5" ry="2.5" style="stroke:#181818;stroke-width:0.5;" width="66" x="466" y="407.082"/><text fill="#000000" font-family="sans-serif" font-size="14" lengthAdjust="spacing" textLength="52" x="473" y="427.6172">:System</text><rect fill="#FFFFFF" height="270.1055" style="stroke:#181818;stroke-width:1.0;" width="10" x="80" y="128.9766"/><rect fill="#FFFFFF" height="29.3105" style="stroke:#181818;stroke-width:1.0;" width="10" x="494" y="150.2871"/><rect fill="#FFFFFF" height="29.3105" style="stroke:#181818;stroke-width:1.0;" width="10" x="494" y="248.5293"/><rect fill="#FFFFFF" height="44.6211" style="stroke:#181818;stroke-width:1.0;" width="10" x="494" y="338.4609"/><polygon fill="#181818" points="482,146.2871,492,150.2871,482,154.2871,486,150.2871" style="stroke:#181818;stroke-width:1.0;"/><line style="stroke:#181818;stroke-width:1.0;" x1="90" x2="488" y1="150.2871" y2="150.2871"/><text fill="#000000" font-family="sans-serif" font-size="13" font-weight="bold" lengthAdjust="spacing" textLength="9" x="97" y="145.5449">1</text><text fill="#000000" font-family="sans-serif" font-size="13" lengthAdjust="spacing" textLength="163" x="110" y="145.5449">asks to display properties</text><polygon fill="#181818" points="101,175.5977,91,179.5977,101,183.5977,97,179.5977" style="stroke:#181818;stroke-width:1.0;"/><line style="stroke:#181818;stroke-width:1.0;stroke-dasharray:2.0,2.0;" x1="95" x2="498" y1="179.5977" y2="179.5977"/><text fill="#000000" font-family="sans-serif" font-size="13" font-weight="bold" lengthAdjust="spacing" textLength="9" x="107" y="174.8555">2</text><text fill="#000000" font-family="sans-serif" font-size="13" lengthAdjust="spacing" textLength="251" x="120" y="174.8555">requests specific (type of property) data</text><path d="M10,194.5977 L77,194.5977 L77,201.9082 L67,211.9082 L10,211.9082 L10,194.5977 " fill="#EEEEEE" style="stroke:#000000;stroke-width:1.5;"/><rect fill="none" height="91.2422" style="stroke:#000000;stroke-width:1.5;" width="532" x="10" y="194.5977"/><text fill="#000000" font-family="sans-serif" font-size="13" font-weight="bold" lengthAdjust="spacing" textLength="22" x="25" y="208.166">opt</text><text fill="#000000" font-family="sans-serif" font-size="11" font-weight="bold" lengthAdjust="spacing" textLength="80" x="92" y="207.2324">[data is given]</text><polygon fill="#181818" points="482,244.5293,492,248.5293,482,252.5293,486,248.5293" style="stroke:#181818;stroke-width:1.0;"/><line style="stroke:#181818;stroke-width:1.0;" x1="90" x2="488" y1="248.5293" y2="248.5293"/><text fill="#000000" font-family="sans-serif" font-size="13" font-weight="bold" lengthAdjust="spacing" textLength="9" x="97" y="236.1318">3</text><text fill="#000000" font-family="sans-serif" font-size="13" lengthAdjust="spacing" textLength="368" x="110" y="228.4766">types requested data (type of business (renting or buying),</text><text fill="#000000" font-family="sans-serif" font-size="13" lengthAdjust="spacing" textLength="222" x="110" y="243.7871">type of property, number of rooms)</text><polygon fill="#181818" points="101,273.8398,91,277.8398,101,281.8398,97,277.8398" style="stroke:#181818;stroke-width:1.0;"/><line style="stroke:#181818;stroke-width:1.0;stroke-dasharray:2.0,2.0;" x1="95" x2="498" y1="277.8398" y2="277.8398"/><text fill="#000000" font-family="sans-serif" font-size="13" font-weight="bold" lengthAdjust="spacing" textLength="9" x="107" y="273.0977">4</text><text fill="#000000" font-family="sans-serif" font-size="13" lengthAdjust="spacing" textLength="325" x="120" y="273.0977">shows list of properties that correspond to the data</text><path d="M10,299.8398 L77,299.8398 L77,307.1504 L67,317.1504 L10,317.1504 L10,299.8398 " fill="#EEEEEE" style="stroke:#000000;stroke-width:1.5;"/><rect fill="none" height="91.2422" style="stroke:#000000;stroke-width:1.5;" width="532" x="10" y="299.8398"/><text fill="#000000" font-family="sans-serif" font-size="13" font-weight="bold" lengthAdjust="spacing" textLength="22" x="25" y="313.4082">opt</text><text fill="#000000" font-family="sans-serif" font-size="11" font-weight="bold" lengthAdjust="spacing" textLength="98" x="92" y="312.4746">[no data is given]</text><polygon fill="#181818" points="482,334.4609,492,338.4609,482,342.4609,486,338.4609" style="stroke:#181818;stroke-width:1.0;"/><line style="stroke:#181818;stroke-width:1.0;" x1="90" x2="488" y1="338.4609" y2="338.4609"/><text fill="#000000" font-family="sans-serif" font-size="13" font-weight="bold" lengthAdjust="spacing" textLength="9" x="97" y="333.7188">5</text><text fill="#000000" font-family="sans-serif" font-size="13" lengthAdjust="spacing" textLength="232" x="110" y="333.7188">decides not to type the required data</text><polygon fill="#181818" points="101,379.082,91,383.082,101,387.082,97,383.082" style="stroke:#181818;stroke-width:1.0;"/><line style="stroke:#181818;stroke-width:1.0;stroke-dasharray:2.0,2.0;" x1="95" x2="498" y1="383.082" y2="383.082"/><text fill="#000000" font-family="sans-serif" font-size="13" font-weight="bold" lengthAdjust="spacing" textLength="9" x="107" y="370.6846">6</text><text fill="#000000" font-family="sans-serif" font-size="13" lengthAdjust="spacing" textLength="362" x="120" y="363.0293">allows the client to sort through all properties that are on</text><text fill="#000000" font-family="sans-serif" font-size="13" lengthAdjust="spacing" textLength="91" x="120" y="378.3398">sale or renting</text><!--SRC=[dPF1Rjim38RlVWeYfmHeWEoQGo_j6nYvxSB8Z2t45ZMIRk6t7-N4Rj4kmp1TB5la_-l_2Eirfeo20moSE7J20u79I9Mk9nd35LkgRUe9X89XQllF1TfXm-ynjN31NgcgB9gNdkh3uGViePxKQ82QVesK0i5hnBQqRUlwTLTLE1gdSJYJ-3uO2snEIQYDtYNKm4b9De0ABwEQNqygTxKOOiPai3dUvEUAstQMYMzezD5IWQ_b3VRFowMEtdPLC8OcQkvnWYoSoVL9vvvLQj66-xeBx5rhrJqw7W-ffg2PGhp405kRCW5V5k5f1mqQpZeDVPNdRFCnH8Kslb5wVF6YgukXSvhRLhVpg36HAco5afNPEDZpEFbkzmG_qzTRFS5j1kMRC0-w-v_usl6xGk-Z-wJjAC4wD0WiGfevDGMuTVGt4fIQQiQH-5-9D8wySRF4DXkKYCMbC8foHxGcU1ZjSJpi-vAlQ8O-EjTYeop-z3zdRBjIyIqsYfDEpbpH_meVmtqYg-6Vm_y6]--></g></svg>