<?xml version="1.0" encoding="us-ascii" standalone="no"?><svg xmlns="http://www.w3.org/2000/svg" xmlns:xlink="http://www.w3.org/1999/xlink" contentStyleType="text/css" height="1128px" preserveAspectRatio="none" style="width:1235px;height:1128px;background:#FFFFFF;" version="1.1" viewBox="0 0 1235 1128" width="1235.2px" zoomAndPan="magnify"><defs/><g><!--class RegisterEmployeeUI--><g id="elem_RegisterEmployeeUI"><rect codeLine="10" fill="#F1F1F1" height="100.9625" id="RegisterEmployeeUI" rx="2" ry="2" style="stroke:#181818;stroke-width:0.4000000000000001;" width="279.2" x="771.2" y="562.4"/><ellipse cx="856.6" cy="575.2" fill="#ADD1B2" rx="8.8" ry="8.8" style="stroke:#181818;stroke-width:0.8000000000000002;"/><path d="M858.8125,571.9 Q858.9375,571.725 859.0875,571.6375 Q859.2375,571.55 859.4125,571.55 Q859.7125,571.55 859.9,571.7625 Q860.0875,571.9625 860.0875,572.45 L860.0875,573.6125 Q860.0875,574.1 859.9,574.3125 Q859.7125,574.525 859.4125,574.525 Q859.1375,574.525 858.975,574.3625 Q858.8125,574.2125 858.725,573.8 Q858.6875,573.5125 858.5375,573.3625 Q858.275,573.0625 857.7875,572.8875 Q857.3,572.7125 856.8,572.7125 Q856.1875,572.7125 855.675,572.975 Q855.175,573.2375 854.775,573.8375 Q854.3875,574.4375 854.3875,575.2625 L854.3875,576.1375 Q854.3875,577.125 855.1,577.7875 Q855.8125,578.4375 857.0875,578.4375 Q857.8375,578.4375 858.3625,578.2375 Q858.675,578.1125 859.0125,577.7625 Q859.225,577.55 859.3375,577.4875 Q859.4625,577.425 859.625,577.425 Q859.8875,577.425 860.0875,577.6375 Q860.3,577.8375 860.3,578.1125 Q860.3,578.3875 860.025,578.7125 Q859.625,579.175 858.9875,579.4375 Q858.125,579.8 857.0875,579.8 Q855.875,579.8 854.9125,579.3 Q854.125,578.9 853.575,578.05 Q853.025,577.1875 853.025,576.1625 L853.025,575.2375 Q853.025,574.175 853.5125,573.2625 Q854.0125,572.3375 854.8875,571.85 Q855.7625,571.35 856.75,571.35 Q857.3375,571.35 857.85,571.4875 Q858.375,571.6125 858.8125,571.9 Z " fill="#000000"/><text fill="#000000" font-family="sans-serif" font-size="11.2" lengthAdjust="spacing" textLength="101.6" x="873" y="579.0828">RegisterEmployeeUI</text><line style="stroke:#181818;stroke-width:0.4000000000000001;" x1="772" x2="1049.6" y1="588" y2="588"/><line style="stroke:#181818;stroke-width:0.4000000000000001;" x1="772" x2="1049.6" y1="594.4" y2="594.4"/><text fill="#000000" font-family="sans-serif" font-size="11.2" lengthAdjust="spacing" textLength="236" x="776" y="607.7391">-keepBaseData(name,passport's card number,</text><text fill="#000000" font-family="sans-serif" font-size="11.2" lengthAdjust="spacing" textLength="266.4" x="779.2" y="620.2516">tax number, address,  email, contact, phone number)</text><text fill="#000000" font-family="sans-serif" font-size="11.2" lengthAdjust="spacing" textLength="79.2" x="776" y="632.7641">-keepRole(role)</text><text fill="#000000" font-family="sans-serif" font-size="11.2" lengthAdjust="spacing" textLength="111.2" x="776" y="645.2766">-keepAgency(agency)</text><text fill="#000000" font-family="sans-serif" font-size="11.2" lengthAdjust="spacing" textLength="89.6" x="776" y="657.7891">-keepStore(store)</text></g><!--class RegisterEmployeeController--><g id="elem_RegisterEmployeeController"><rect codeLine="16" fill="#F1F1F1" height="88.45" id="RegisterEmployeeController" rx="2" ry="2" style="stroke:#181818;stroke-width:0.4000000000000001;" width="167.2" x="799.2" y="711.2"/><ellipse cx="811.2" cy="724" fill="#ADD1B2" rx="8.8" ry="8.8" style="stroke:#181818;stroke-width:0.8000000000000002;"/><path d="M813.4125,720.7 Q813.5375,720.525 813.6875,720.4375 Q813.8375,720.35 814.0125,720.35 Q814.3125,720.35 814.5,720.5625 Q814.6875,720.7625 814.6875,721.25 L814.6875,722.4125 Q814.6875,722.9 814.5,723.1125 Q814.3125,723.325 814.0125,723.325 Q813.7375,723.325 813.575,723.1625 Q813.4125,723.0125 813.325,722.6 Q813.2875,722.3125 813.1375,722.1625 Q812.875,721.8625 812.3875,721.6875 Q811.9,721.5125 811.4,721.5125 Q810.7875,721.5125 810.275,721.775 Q809.775,722.0375 809.375,722.6375 Q808.9875,723.2375 808.9875,724.0625 L808.9875,724.9375 Q808.9875,725.925 809.7,726.5875 Q810.4125,727.2375 811.6875,727.2375 Q812.4375,727.2375 812.9625,727.0375 Q813.275,726.9125 813.6125,726.5625 Q813.825,726.35 813.9375,726.2875 Q814.0625,726.225 814.225,726.225 Q814.4875,726.225 814.6875,726.4375 Q814.9,726.6375 814.9,726.9125 Q814.9,727.1875 814.625,727.5125 Q814.225,727.975 813.5875,728.2375 Q812.725,728.6 811.6875,728.6 Q810.475,728.6 809.5125,728.1 Q808.725,727.7 808.175,726.85 Q807.625,725.9875 807.625,724.9625 L807.625,724.0375 Q807.625,722.975 808.1125,722.0625 Q808.6125,721.1375 809.4875,720.65 Q810.3625,720.15 811.35,720.15 Q811.9375,720.15 812.45,720.2875 Q812.975,720.4125 813.4125,720.7 Z " fill="#000000"/><text fill="#000000" font-family="sans-serif" font-size="11.2" lengthAdjust="spacing" textLength="141.6" x="822.4" y="727.8828">RegisterEmployeeController</text><line style="stroke:#181818;stroke-width:0.4000000000000001;" x1="800" x2="965.6" y1="736.8" y2="736.8"/><line style="stroke:#181818;stroke-width:0.4000000000000001;" x1="800" x2="965.6" y1="743.2" y2="743.2"/><text fill="#000000" font-family="sans-serif" font-size="11.2" lengthAdjust="spacing" textLength="76.8" x="804" y="756.5391">+getAgencies()</text><text fill="#000000" font-family="sans-serif" font-size="11.2" lengthAdjust="spacing" textLength="108.8" x="804" y="769.0516">+getEmployeeRoles()</text><text fill="#000000" font-family="sans-serif" font-size="11.2" lengthAdjust="spacing" textLength="63.2" x="804" y="781.5641">+getStores()</text><text fill="#000000" font-family="sans-serif" font-size="11.2" lengthAdjust="spacing" textLength="124.8" x="804" y="794.0766">+registerEmployee(data)</text></g><!--class Repositories--><g id="elem_Repositories"><rect codeLine="24" fill="#F1F1F1" height="88.45" id="Repositories" rx="2" ry="2" style="stroke:#181818;stroke-width:0.4000000000000001;" width="132" x="424" y="711.2"/><ellipse cx="455.44" cy="724" fill="#ADD1B2" rx="8.8" ry="8.8" style="stroke:#181818;stroke-width:0.8000000000000002;"/><path d="M457.6525,720.7 Q457.7775,720.525 457.9275,720.4375 Q458.0775,720.35 458.2525,720.35 Q458.5525,720.35 458.74,720.5625 Q458.9275,720.7625 458.9275,721.25 L458.9275,722.4125 Q458.9275,722.9 458.74,723.1125 Q458.5525,723.325 458.2525,723.325 Q457.9775,723.325 457.815,723.1625 Q457.6525,723.0125 457.565,722.6 Q457.5275,722.3125 457.3775,722.1625 Q457.115,721.8625 456.6275,721.6875 Q456.14,721.5125 455.64,721.5125 Q455.0275,721.5125 454.515,721.775 Q454.015,722.0375 453.615,722.6375 Q453.2275,723.2375 453.2275,724.0625 L453.2275,724.9375 Q453.2275,725.925 453.94,726.5875 Q454.6525,727.2375 455.9275,727.2375 Q456.6775,727.2375 457.2025,727.0375 Q457.515,726.9125 457.8525,726.5625 Q458.065,726.35 458.1775,726.2875 Q458.3025,726.225 458.465,726.225 Q458.7275,726.225 458.9275,726.4375 Q459.14,726.6375 459.14,726.9125 Q459.14,727.1875 458.865,727.5125 Q458.465,727.975 457.8275,728.2375 Q456.965,728.6 455.9275,728.6 Q454.715,728.6 453.7525,728.1 Q452.965,727.7 452.415,726.85 Q451.865,725.9875 451.865,724.9625 L451.865,724.0375 Q451.865,722.975 452.3525,722.0625 Q452.8525,721.1375 453.7275,720.65 Q454.6025,720.15 455.59,720.15 Q456.1775,720.15 456.69,720.2875 Q457.215,720.4125 457.6525,720.7 Z " fill="#000000"/><text fill="#000000" font-family="sans-serif" font-size="11.2" lengthAdjust="spacing" textLength="63.2" x="470.96" y="727.8828">Repositories</text><line style="stroke:#181818;stroke-width:0.4000000000000001;" x1="424.8" x2="555.2" y1="736.8" y2="736.8"/><line style="stroke:#181818;stroke-width:0.4000000000000001;" x1="424.8" x2="555.2" y1="743.2" y2="743.2"/><text fill="#000000" font-family="sans-serif" font-size="11.2" lengthAdjust="spacing" text-decoration="underline" textLength="72.8" x="428.8" y="756.5391">+getInstance()</text><text fill="#000000" font-family="sans-serif" font-size="11.2" lengthAdjust="spacing" textLength="122.4" x="428.8" y="769.0516">+getAgencyRepository()</text><text fill="#000000" font-family="sans-serif" font-size="11.2" lengthAdjust="spacing" textLength="108" x="428.8" y="781.5641">+getRoleRepository()</text><text fill="#000000" font-family="sans-serif" font-size="11.2" lengthAdjust="spacing" textLength="112" x="428.8" y="794.0766">+getStoreRepository()</text></g><!--class AgencyRepository--><g id="elem_AgencyRepository"><rect codeLine="32" fill="#F1F1F1" height="50.9125" id="AgencyRepository" rx="2" ry="2" style="stroke:#181818;stroke-width:0.4000000000000001;" width="117.6" x="359.2" y="587.2"/><ellipse cx="371.2" cy="600" fill="#ADD1B2" rx="8.8" ry="8.8" style="stroke:#181818;stroke-width:0.8000000000000002;"/><path d="M373.4125,596.7 Q373.5375,596.525 373.6875,596.4375 Q373.8375,596.35 374.0125,596.35 Q374.3125,596.35 374.5,596.5625 Q374.6875,596.7625 374.6875,597.25 L374.6875,598.4125 Q374.6875,598.9 374.5,599.1125 Q374.3125,599.325 374.0125,599.325 Q373.7375,599.325 373.575,599.1625 Q373.4125,599.0125 373.325,598.6 Q373.2875,598.3125 373.1375,598.1625 Q372.875,597.8625 372.3875,597.6875 Q371.9,597.5125 371.4,597.5125 Q370.7875,597.5125 370.275,597.775 Q369.775,598.0375 369.375,598.6375 Q368.9875,599.2375 368.9875,600.0625 L368.9875,600.9375 Q368.9875,601.925 369.7,602.5875 Q370.4125,603.2375 371.6875,603.2375 Q372.4375,603.2375 372.9625,603.0375 Q373.275,602.9125 373.6125,602.5625 Q373.825,602.35 373.9375,602.2875 Q374.0625,602.225 374.225,602.225 Q374.4875,602.225 374.6875,602.4375 Q374.9,602.6375 374.9,602.9125 Q374.9,603.1875 374.625,603.5125 Q374.225,603.975 373.5875,604.2375 Q372.725,604.6 371.6875,604.6 Q370.475,604.6 369.5125,604.1 Q368.725,603.7 368.175,602.85 Q367.625,601.9875 367.625,600.9625 L367.625,600.0375 Q367.625,598.975 368.1125,598.0625 Q368.6125,597.1375 369.4875,596.65 Q370.3625,596.15 371.35,596.15 Q371.9375,596.15 372.45,596.2875 Q372.975,596.4125 373.4125,596.7 Z " fill="#000000"/><text fill="#000000" font-family="sans-serif" font-size="11.2" lengthAdjust="spacing" textLength="92" x="382.4" y="603.8828">AgencyRepository</text><line style="stroke:#181818;stroke-width:0.4000000000000001;" x1="360" x2="476" y1="612.8" y2="612.8"/><line style="stroke:#181818;stroke-width:0.4000000000000001;" x1="360" x2="476" y1="619.2" y2="619.2"/><text fill="#000000" font-family="sans-serif" font-size="11.2" lengthAdjust="spacing" textLength="42.4" x="364" y="632.5391">+getAll()</text></g><!--class RoleRepository--><g id="elem_RoleRepository"><rect codeLine="37" fill="#F1F1F1" height="50.9125" id="RoleRepository" rx="2" ry="2" style="stroke:#181818;stroke-width:0.4000000000000001;" width="118.4" x="372.4" y="5.6"/><ellipse cx="391.24" cy="18.4" fill="#ADD1B2" rx="8.8" ry="8.8" style="stroke:#181818;stroke-width:0.8000000000000002;"/><path d="M393.4525,15.1 Q393.5775,14.925 393.7275,14.8375 Q393.8775,14.75 394.0525,14.75 Q394.3525,14.75 394.54,14.9625 Q394.7275,15.1625 394.7275,15.65 L394.7275,16.8125 Q394.7275,17.3 394.54,17.5125 Q394.3525,17.725 394.0525,17.725 Q393.7775,17.725 393.615,17.5625 Q393.4525,17.4125 393.365,17 Q393.3275,16.7125 393.1775,16.5625 Q392.915,16.2625 392.4275,16.0875 Q391.94,15.9125 391.44,15.9125 Q390.8275,15.9125 390.315,16.175 Q389.815,16.4375 389.415,17.0375 Q389.0275,17.6375 389.0275,18.4625 L389.0275,19.3375 Q389.0275,20.325 389.74,20.9875 Q390.4525,21.6375 391.7275,21.6375 Q392.4775,21.6375 393.0025,21.4375 Q393.315,21.3125 393.6525,20.9625 Q393.865,20.75 393.9775,20.6875 Q394.1025,20.625 394.265,20.625 Q394.5275,20.625 394.7275,20.8375 Q394.94,21.0375 394.94,21.3125 Q394.94,21.5875 394.665,21.9125 Q394.265,22.375 393.6275,22.6375 Q392.765,23 391.7275,23 Q390.515,23 389.5525,22.5 Q388.765,22.1 388.215,21.25 Q387.665,20.3875 387.665,19.3625 L387.665,18.4375 Q387.665,17.375 388.1525,16.4625 Q388.6525,15.5375 389.5275,15.05 Q390.4025,14.55 391.39,14.55 Q391.9775,14.55 392.49,14.6875 Q393.015,14.8125 393.4525,15.1 Z " fill="#000000"/><text fill="#000000" font-family="sans-serif" font-size="11.2" lengthAdjust="spacing" textLength="77.6" x="403.96" y="22.2828">RoleRepository</text><line style="stroke:#181818;stroke-width:0.4000000000000001;" x1="373.2" x2="490" y1="31.2" y2="31.2"/><line style="stroke:#181818;stroke-width:0.4000000000000001;" x1="373.2" x2="490" y1="37.6" y2="37.6"/><text fill="#000000" font-family="sans-serif" font-size="11.2" lengthAdjust="spacing" textLength="108.8" x="377.2" y="50.9391">+getEmployeeRoles()</text></g><!--class StoreRepository--><g id="elem_StoreRepository"><rect codeLine="41" fill="#F1F1F1" height="50.9125" id="StoreRepository" rx="2" ry="2" style="stroke:#181818;stroke-width:0.4000000000000001;" width="147.2" x="538.8" y="848"/><ellipse cx="568.8" cy="860.8" fill="#ADD1B2" rx="8.8" ry="8.8" style="stroke:#181818;stroke-width:0.8000000000000002;"/><path d="M571.0125,857.5 Q571.1375,857.325 571.2875,857.2375 Q571.4375,857.15 571.6125,857.15 Q571.9125,857.15 572.1,857.3625 Q572.2875,857.5625 572.2875,858.05 L572.2875,859.2125 Q572.2875,859.7 572.1,859.9125 Q571.9125,860.125 571.6125,860.125 Q571.3375,860.125 571.175,859.9625 Q571.0125,859.8125 570.925,859.4 Q570.8875,859.1125 570.7375,858.9625 Q570.475,858.6625 569.9875,858.4875 Q569.5,858.3125 569,858.3125 Q568.3875,858.3125 567.875,858.575 Q567.375,858.8375 566.975,859.4375 Q566.5875,860.0375 566.5875,860.8625 L566.5875,861.7375 Q566.5875,862.725 567.3,863.3875 Q568.0125,864.0375 569.2875,864.0375 Q570.0375,864.0375 570.5625,863.8375 Q570.875,863.7125 571.2125,863.3625 Q571.425,863.15 571.5375,863.0875 Q571.6625,863.025 571.825,863.025 Q572.0875,863.025 572.2875,863.2375 Q572.5,863.4375 572.5,863.7125 Q572.5,863.9875 572.225,864.3125 Q571.825,864.775 571.1875,865.0375 Q570.325,865.4 569.2875,865.4 Q568.075,865.4 567.1125,864.9 Q566.325,864.5 565.775,863.65 Q565.225,862.7875 565.225,861.7625 L565.225,860.8375 Q565.225,859.775 565.7125,858.8625 Q566.2125,857.9375 567.0875,857.45 Q567.9625,856.95 568.95,856.95 Q569.5375,856.95 570.05,857.0875 Q570.575,857.2125 571.0125,857.5 Z " fill="#000000"/><text fill="#000000" font-family="sans-serif" font-size="11.2" lengthAdjust="spacing" textLength="81.6" x="584" y="864.6828">StoreRepository</text><line style="stroke:#181818;stroke-width:0.4000000000000001;" x1="539.6" x2="685.2" y1="873.6" y2="873.6"/><line style="stroke:#181818;stroke-width:0.4000000000000001;" x1="539.6" x2="685.2" y1="880" y2="880"/><text fill="#000000" font-family="sans-serif" font-size="11.2" lengthAdjust="spacing" textLength="137.6" x="543.6" y="893.3391">+getAgencyStores(agency)</text></g><!--class PasswordGenerator--><g id="elem_PasswordGenerator"><rect codeLine="45" fill="#F1F1F1" height="50.9125" id="PasswordGenerator" rx="2" ry="2" style="stroke:#181818;stroke-width:0.4000000000000001;" width="126.4" x="384.4" y="848"/><ellipse cx="396.4" cy="860.8" fill="#ADD1B2" rx="8.8" ry="8.8" style="stroke:#181818;stroke-width:0.8000000000000002;"/><path d="M398.6125,857.5 Q398.7375,857.325 398.8875,857.2375 Q399.0375,857.15 399.2125,857.15 Q399.5125,857.15 399.7,857.3625 Q399.8875,857.5625 399.8875,858.05 L399.8875,859.2125 Q399.8875,859.7 399.7,859.9125 Q399.5125,860.125 399.2125,860.125 Q398.9375,860.125 398.775,859.9625 Q398.6125,859.8125 398.525,859.4 Q398.4875,859.1125 398.3375,858.9625 Q398.075,858.6625 397.5875,858.4875 Q397.1,858.3125 396.6,858.3125 Q395.9875,858.3125 395.475,858.575 Q394.975,858.8375 394.575,859.4375 Q394.1875,860.0375 394.1875,860.8625 L394.1875,861.7375 Q394.1875,862.725 394.9,863.3875 Q395.6125,864.0375 396.8875,864.0375 Q397.6375,864.0375 398.1625,863.8375 Q398.475,863.7125 398.8125,863.3625 Q399.025,863.15 399.1375,863.0875 Q399.2625,863.025 399.425,863.025 Q399.6875,863.025 399.8875,863.2375 Q400.1,863.4375 400.1,863.7125 Q400.1,863.9875 399.825,864.3125 Q399.425,864.775 398.7875,865.0375 Q397.925,865.4 396.8875,865.4 Q395.675,865.4 394.7125,864.9 Q393.925,864.5 393.375,863.65 Q392.825,862.7875 392.825,861.7625 L392.825,860.8375 Q392.825,859.775 393.3125,858.8625 Q393.8125,857.9375 394.6875,857.45 Q395.5625,856.95 396.55,856.95 Q397.1375,856.95 397.65,857.0875 Q398.175,857.2125 398.6125,857.5 Z " fill="#000000"/><text fill="#000000" font-family="sans-serif" font-size="11.2" lengthAdjust="spacing" textLength="100.8" x="407.6" y="864.6828">PasswordGenerator</text><line style="stroke:#181818;stroke-width:0.4000000000000001;" x1="385.2" x2="510" y1="873.6" y2="873.6"/><line style="stroke:#181818;stroke-width:0.4000000000000001;" x1="385.2" x2="510" y1="880" y2="880"/><text fill="#000000" font-family="sans-serif" font-size="11.2" lengthAdjust="spacing" textLength="60" x="389.2" y="893.3391">+generate()</text></g><!--class User--><g id="elem_User"><rect codeLine="49" fill="#F1F1F1" height="125.9875" id="User" rx="2" ry="2" style="stroke:#181818;stroke-width:0.4000000000000001;" width="149.6" x="239.2" y="216"/><ellipse cx="299" cy="228.8" fill="#ADD1B2" rx="8.8" ry="8.8" style="stroke:#181818;stroke-width:0.8000000000000002;"/><path d="M301.2125,225.5 Q301.3375,225.325 301.4875,225.2375 Q301.6375,225.15 301.8125,225.15 Q302.1125,225.15 302.3,225.3625 Q302.4875,225.5625 302.4875,226.05 L302.4875,227.2125 Q302.4875,227.7 302.3,227.9125 Q302.1125,228.125 301.8125,228.125 Q301.5375,228.125 301.375,227.9625 Q301.2125,227.8125 301.125,227.4 Q301.0875,227.1125 300.9375,226.9625 Q300.675,226.6625 300.1875,226.4875 Q299.7,226.3125 299.2,226.3125 Q298.5875,226.3125 298.075,226.575 Q297.575,226.8375 297.175,227.4375 Q296.7875,228.0375 296.7875,228.8625 L296.7875,229.7375 Q296.7875,230.725 297.5,231.3875 Q298.2125,232.0375 299.4875,232.0375 Q300.2375,232.0375 300.7625,231.8375 Q301.075,231.7125 301.4125,231.3625 Q301.625,231.15 301.7375,231.0875 Q301.8625,231.025 302.025,231.025 Q302.2875,231.025 302.4875,231.2375 Q302.7,231.4375 302.7,231.7125 Q302.7,231.9875 302.425,232.3125 Q302.025,232.775 301.3875,233.0375 Q300.525,233.4 299.4875,233.4 Q298.275,233.4 297.3125,232.9 Q296.525,232.5 295.975,231.65 Q295.425,230.7875 295.425,229.7625 L295.425,228.8375 Q295.425,227.775 295.9125,226.8625 Q296.4125,225.9375 297.2875,225.45 Q298.1625,224.95 299.15,224.95 Q299.7375,224.95 300.25,225.0875 Q300.775,225.2125 301.2125,225.5 Z " fill="#000000"/><text fill="#000000" font-family="sans-serif" font-size="11.2" lengthAdjust="spacing" textLength="23.2" x="315.4" y="232.6828">User</text><line style="stroke:#181818;stroke-width:0.4000000000000001;" x1="240" x2="388" y1="241.6" y2="241.6"/><text fill="#000000" font-family="sans-serif" font-size="11.2" lengthAdjust="spacing" textLength="32" x="244" y="254.9391">-name</text><text fill="#000000" font-family="sans-serif" font-size="11.2" lengthAdjust="spacing" textLength="30.4" x="244" y="267.4516">-email</text><text fill="#000000" font-family="sans-serif" font-size="11.2" lengthAdjust="spacing" textLength="77.6" x="244" y="279.9641">-phone number</text><text fill="#000000" font-family="sans-serif" font-size="11.2" lengthAdjust="spacing" textLength="52" x="244" y="292.4766">-password</text><line style="stroke:#181818;stroke-width:0.4000000000000001;" x1="240" x2="388" y1="298.05" y2="298.05"/><text fill="#000000" font-family="sans-serif" font-size="11.2" lengthAdjust="spacing" textLength="140" x="244" y="311.3891">+User(data, role, password)</text><text fill="#000000" font-family="sans-serif" font-size="11.2" lengthAdjust="spacing" textLength="40.8" x="244" y="323.9016">+email()</text><text fill="#000000" font-family="sans-serif" font-size="11.2" lengthAdjust="spacing" textLength="62.4" x="244" y="336.4141">+password()</text></g><!--class Passport--><g id="elem_Passport"><rect codeLine="60" fill="#F1F1F1" height="50.9125" id="Passport" rx="2" ry="2" style="stroke:#181818;stroke-width:0.4000000000000001;" width="70.4" x="393.2" y="110.8"/><ellipse cx="405.2" cy="123.6" fill="#ADD1B2" rx="8.8" ry="8.8" style="stroke:#181818;stroke-width:0.8000000000000002;"/><path d="M407.4125,120.3 Q407.5375,120.125 407.6875,120.0375 Q407.8375,119.95 408.0125,119.95 Q408.3125,119.95 408.5,120.1625 Q408.6875,120.3625 408.6875,120.85 L408.6875,122.0125 Q408.6875,122.5 408.5,122.7125 Q408.3125,122.925 408.0125,122.925 Q407.7375,122.925 407.575,122.7625 Q407.4125,122.6125 407.325,122.2 Q407.2875,121.9125 407.1375,121.7625 Q406.875,121.4625 406.3875,121.2875 Q405.9,121.1125 405.4,121.1125 Q404.7875,121.1125 404.275,121.375 Q403.775,121.6375 403.375,122.2375 Q402.9875,122.8375 402.9875,123.6625 L402.9875,124.5375 Q402.9875,125.525 403.7,126.1875 Q404.4125,126.8375 405.6875,126.8375 Q406.4375,126.8375 406.9625,126.6375 Q407.275,126.5125 407.6125,126.1625 Q407.825,125.95 407.9375,125.8875 Q408.0625,125.825 408.225,125.825 Q408.4875,125.825 408.6875,126.0375 Q408.9,126.2375 408.9,126.5125 Q408.9,126.7875 408.625,127.1125 Q408.225,127.575 407.5875,127.8375 Q406.725,128.2 405.6875,128.2 Q404.475,128.2 403.5125,127.7 Q402.725,127.3 402.175,126.45 Q401.625,125.5875 401.625,124.5625 L401.625,123.6375 Q401.625,122.575 402.1125,121.6625 Q402.6125,120.7375 403.4875,120.25 Q404.3625,119.75 405.35,119.75 Q405.9375,119.75 406.45,119.8875 Q406.975,120.0125 407.4125,120.3 Z " fill="#000000"/><text fill="#000000" font-family="sans-serif" font-size="11.2" lengthAdjust="spacing" textLength="44.8" x="416.4" y="127.4828">Passport</text><line style="stroke:#181818;stroke-width:0.4000000000000001;" x1="394" x2="462.8" y1="136.4" y2="136.4"/><text fill="#000000" font-family="sans-serif" font-size="11.2" lengthAdjust="spacing" textLength="42.4" x="398" y="149.7391">-number</text><line style="stroke:#181818;stroke-width:0.4000000000000001;" x1="394" x2="462.8" y1="155.3125" y2="155.3125"/></g><!--class TaxNumber--><g id="elem_TaxNumber"><rect codeLine="64" fill="#F1F1F1" height="50.9125" id="TaxNumber" rx="2" ry="2" style="stroke:#181818;stroke-width:0.4000000000000001;" width="83.2" x="180.4" y="110.8"/><ellipse cx="192.4" cy="123.6" fill="#ADD1B2" rx="8.8" ry="8.8" style="stroke:#181818;stroke-width:0.8000000000000002;"/><path d="M194.6125,120.3 Q194.7375,120.125 194.8875,120.0375 Q195.0375,119.95 195.2125,119.95 Q195.5125,119.95 195.7,120.1625 Q195.8875,120.3625 195.8875,120.85 L195.8875,122.0125 Q195.8875,122.5 195.7,122.7125 Q195.5125,122.925 195.2125,122.925 Q194.9375,122.925 194.775,122.7625 Q194.6125,122.6125 194.525,122.2 Q194.4875,121.9125 194.3375,121.7625 Q194.075,121.4625 193.5875,121.2875 Q193.1,121.1125 192.6,121.1125 Q191.9875,121.1125 191.475,121.375 Q190.975,121.6375 190.575,122.2375 Q190.1875,122.8375 190.1875,123.6625 L190.1875,124.5375 Q190.1875,125.525 190.9,126.1875 Q191.6125,126.8375 192.8875,126.8375 Q193.6375,126.8375 194.1625,126.6375 Q194.475,126.5125 194.8125,126.1625 Q195.025,125.95 195.1375,125.8875 Q195.2625,125.825 195.425,125.825 Q195.6875,125.825 195.8875,126.0375 Q196.1,126.2375 196.1,126.5125 Q196.1,126.7875 195.825,127.1125 Q195.425,127.575 194.7875,127.8375 Q193.925,128.2 192.8875,128.2 Q191.675,128.2 190.7125,127.7 Q189.925,127.3 189.375,126.45 Q188.825,125.5875 188.825,124.5625 L188.825,123.6375 Q188.825,122.575 189.3125,121.6625 Q189.8125,120.7375 190.6875,120.25 Q191.5625,119.75 192.55,119.75 Q193.1375,119.75 193.65,119.8875 Q194.175,120.0125 194.6125,120.3 Z " fill="#000000"/><text fill="#000000" font-family="sans-serif" font-size="11.2" lengthAdjust="spacing" textLength="57.6" x="203.6" y="127.4828">TaxNumber</text><line style="stroke:#181818;stroke-width:0.4000000000000001;" x1="181.2" x2="262.8" y1="136.4" y2="136.4"/><text fill="#000000" font-family="sans-serif" font-size="11.2" lengthAdjust="spacing" textLength="42.4" x="185.2" y="149.7391">-number</text><line style="stroke:#181818;stroke-width:0.4000000000000001;" x1="181.2" x2="262.8" y1="155.3125" y2="155.3125"/></g><!--class Adress--><g id="elem_Adress"><rect codeLine="68" fill="#F1F1F1" height="100.9625" id="Adress" rx="2" ry="2" style="stroke:#181818;stroke-width:0.4000000000000001;" width="60.8" x="417.2" y="228.4"/><ellipse cx="429.2" cy="241.2" fill="#ADD1B2" rx="8.8" ry="8.8" style="stroke:#181818;stroke-width:0.8000000000000002;"/><path d="M431.4125,237.9 Q431.5375,237.725 431.6875,237.6375 Q431.8375,237.55 432.0125,237.55 Q432.3125,237.55 432.5,237.7625 Q432.6875,237.9625 432.6875,238.45 L432.6875,239.6125 Q432.6875,240.1 432.5,240.3125 Q432.3125,240.525 432.0125,240.525 Q431.7375,240.525 431.575,240.3625 Q431.4125,240.2125 431.325,239.8 Q431.2875,239.5125 431.1375,239.3625 Q430.875,239.0625 430.3875,238.8875 Q429.9,238.7125 429.4,238.7125 Q428.7875,238.7125 428.275,238.975 Q427.775,239.2375 427.375,239.8375 Q426.9875,240.4375 426.9875,241.2625 L426.9875,242.1375 Q426.9875,243.125 427.7,243.7875 Q428.4125,244.4375 429.6875,244.4375 Q430.4375,244.4375 430.9625,244.2375 Q431.275,244.1125 431.6125,243.7625 Q431.825,243.55 431.9375,243.4875 Q432.0625,243.425 432.225,243.425 Q432.4875,243.425 432.6875,243.6375 Q432.9,243.8375 432.9,244.1125 Q432.9,244.3875 432.625,244.7125 Q432.225,245.175 431.5875,245.4375 Q430.725,245.8 429.6875,245.8 Q428.475,245.8 427.5125,245.3 Q426.725,244.9 426.175,244.05 Q425.625,243.1875 425.625,242.1625 L425.625,241.2375 Q425.625,240.175 426.1125,239.2625 Q426.6125,238.3375 427.4875,237.85 Q428.3625,237.35 429.35,237.35 Q429.9375,237.35 430.45,237.4875 Q430.975,237.6125 431.4125,237.9 Z " fill="#000000"/><text fill="#000000" font-family="sans-serif" font-size="11.2" lengthAdjust="spacing" textLength="35.2" x="440.4" y="245.0828">Adress</text><line style="stroke:#181818;stroke-width:0.4000000000000001;" x1="418" x2="477.2" y1="254" y2="254"/><text fill="#000000" font-family="sans-serif" font-size="11.2" lengthAdjust="spacing" textLength="32.8" x="422" y="267.3391">-street</text><text fill="#000000" font-family="sans-serif" font-size="11.2" lengthAdjust="spacing" textLength="20.8" x="422" y="279.8516">-city</text><text fill="#000000" font-family="sans-serif" font-size="11.2" lengthAdjust="spacing" textLength="36.8" x="422" y="292.3641">-district</text><text fill="#000000" font-family="sans-serif" font-size="11.2" lengthAdjust="spacing" textLength="28.8" x="422" y="304.8766">-state</text><text fill="#000000" font-family="sans-serif" font-size="11.2" lengthAdjust="spacing" textLength="42.4" x="422" y="317.3891">-zipcode</text><line style="stroke:#181818;stroke-width:0.4000000000000001;" x1="418" x2="477.2" y1="322.9625" y2="322.9625"/></g><!--class Agency--><g id="elem_Agency"><rect codeLine="76" fill="#F1F1F1" height="75.9375" id="Agency" rx="2" ry="2" style="stroke:#181818;stroke-width:0.4000000000000001;" width="87.2" x="185.6" y="574.8"/><ellipse cx="208.4" cy="587.6" fill="#ADD1B2" rx="8.8" ry="8.8" style="stroke:#181818;stroke-width:0.8000000000000002;"/><path d="M210.6125,584.3 Q210.7375,584.125 210.8875,584.0375 Q211.0375,583.95 211.2125,583.95 Q211.5125,583.95 211.7,584.1625 Q211.8875,584.3625 211.8875,584.85 L211.8875,586.0125 Q211.8875,586.5 211.7,586.7125 Q211.5125,586.925 211.2125,586.925 Q210.9375,586.925 210.775,586.7625 Q210.6125,586.6125 210.525,586.2 Q210.4875,585.9125 210.3375,585.7625 Q210.075,585.4625 209.5875,585.2875 Q209.1,585.1125 208.6,585.1125 Q207.9875,585.1125 207.475,585.375 Q206.975,585.6375 206.575,586.2375 Q206.1875,586.8375 206.1875,587.6625 L206.1875,588.5375 Q206.1875,589.525 206.9,590.1875 Q207.6125,590.8375 208.8875,590.8375 Q209.6375,590.8375 210.1625,590.6375 Q210.475,590.5125 210.8125,590.1625 Q211.025,589.95 211.1375,589.8875 Q211.2625,589.825 211.425,589.825 Q211.6875,589.825 211.8875,590.0375 Q212.1,590.2375 212.1,590.5125 Q212.1,590.7875 211.825,591.1125 Q211.425,591.575 210.7875,591.8375 Q209.925,592.2 208.8875,592.2 Q207.675,592.2 206.7125,591.7 Q205.925,591.3 205.375,590.45 Q204.825,589.5875 204.825,588.5625 L204.825,587.6375 Q204.825,586.575 205.3125,585.6625 Q205.8125,584.7375 206.6875,584.25 Q207.5625,583.75 208.55,583.75 Q209.1375,583.75 209.65,583.8875 Q210.175,584.0125 210.6125,584.3 Z " fill="#000000"/><text fill="#000000" font-family="sans-serif" font-size="11.2" lengthAdjust="spacing" textLength="37.6" x="222" y="591.4828">Agency</text><line style="stroke:#181818;stroke-width:0.4000000000000001;" x1="186.4" x2="272" y1="600.4" y2="600.4"/><text fill="#000000" font-family="sans-serif" font-size="11.2" lengthAdjust="spacing" textLength="62.4" x="190.4" y="613.7391">-designation</text><text fill="#000000" font-family="sans-serif" font-size="11.2" lengthAdjust="spacing" textLength="30.4" x="190.4" y="626.2516">-email</text><text fill="#000000" font-family="sans-serif" font-size="11.2" lengthAdjust="spacing" textLength="77.6" x="190.4" y="638.7641">-phone number</text><line style="stroke:#181818;stroke-width:0.4000000000000001;" x1="186.4" x2="272" y1="644.3375" y2="644.3375"/></g><!--class Agent--><g id="elem_Agent"><rect codeLine="82" fill="#F1F1F1" height="38.4" id="Agent" rx="2" ry="2" style="stroke:#181818;stroke-width:0.4000000000000001;" width="55.2" x="476" y="972.4"/><ellipse cx="488" cy="985.2" fill="#ADD1B2" rx="8.8" ry="8.8" style="stroke:#181818;stroke-width:0.8000000000000002;"/><path d="M490.2125,981.9 Q490.3375,981.725 490.4875,981.6375 Q490.6375,981.55 490.8125,981.55 Q491.1125,981.55 491.3,981.7625 Q491.4875,981.9625 491.4875,982.45 L491.4875,983.6125 Q491.4875,984.1 491.3,984.3125 Q491.1125,984.525 490.8125,984.525 Q490.5375,984.525 490.375,984.3625 Q490.2125,984.2125 490.125,983.8 Q490.0875,983.5125 489.9375,983.3625 Q489.675,983.0625 489.1875,982.8875 Q488.7,982.7125 488.2,982.7125 Q487.5875,982.7125 487.075,982.975 Q486.575,983.2375 486.175,983.8375 Q485.7875,984.4375 485.7875,985.2625 L485.7875,986.1375 Q485.7875,987.125 486.5,987.7875 Q487.2125,988.4375 488.4875,988.4375 Q489.2375,988.4375 489.7625,988.2375 Q490.075,988.1125 490.4125,987.7625 Q490.625,987.55 490.7375,987.4875 Q490.8625,987.425 491.025,987.425 Q491.2875,987.425 491.4875,987.6375 Q491.7,987.8375 491.7,988.1125 Q491.7,988.3875 491.425,988.7125 Q491.025,989.175 490.3875,989.4375 Q489.525,989.8 488.4875,989.8 Q487.275,989.8 486.3125,989.3 Q485.525,988.9 484.975,988.05 Q484.425,987.1875 484.425,986.1625 L484.425,985.2375 Q484.425,984.175 484.9125,983.2625 Q485.4125,982.3375 486.2875,981.85 Q487.1625,981.35 488.15,981.35 Q488.7375,981.35 489.25,981.4875 Q489.775,981.6125 490.2125,981.9 Z " fill="#000000"/><text fill="#000000" font-family="sans-serif" font-size="11.2" lengthAdjust="spacing" textLength="29.6" x="499.2" y="989.0828">Agent</text><line style="stroke:#181818;stroke-width:0.4000000000000001;" x1="476.8" x2="530.4" y1="998" y2="998"/><line style="stroke:#181818;stroke-width:0.4000000000000001;" x1="476.8" x2="530.4" y1="1004.4" y2="1004.4"/></g><!--class Store--><g id="elem_Store"><rect codeLine="85" fill="#F1F1F1" height="88.45" id="Store" rx="2" ry="2" style="stroke:#181818;stroke-width:0.4000000000000001;" width="72" x="375.6" y="947.2"/><ellipse cx="396.24" cy="960" fill="#ADD1B2" rx="8.8" ry="8.8" style="stroke:#181818;stroke-width:0.8000000000000002;"/><path d="M398.4525,956.7 Q398.5775,956.525 398.7275,956.4375 Q398.8775,956.35 399.0525,956.35 Q399.3525,956.35 399.54,956.5625 Q399.7275,956.7625 399.7275,957.25 L399.7275,958.4125 Q399.7275,958.9 399.54,959.1125 Q399.3525,959.325 399.0525,959.325 Q398.7775,959.325 398.615,959.1625 Q398.4525,959.0125 398.365,958.6 Q398.3275,958.3125 398.1775,958.1625 Q397.915,957.8625 397.4275,957.6875 Q396.94,957.5125 396.44,957.5125 Q395.8275,957.5125 395.315,957.775 Q394.815,958.0375 394.415,958.6375 Q394.0275,959.2375 394.0275,960.0625 L394.0275,960.9375 Q394.0275,961.925 394.74,962.5875 Q395.4525,963.2375 396.7275,963.2375 Q397.4775,963.2375 398.0025,963.0375 Q398.315,962.9125 398.6525,962.5625 Q398.865,962.35 398.9775,962.2875 Q399.1025,962.225 399.265,962.225 Q399.5275,962.225 399.7275,962.4375 Q399.94,962.6375 399.94,962.9125 Q399.94,963.1875 399.665,963.5125 Q399.265,963.975 398.6275,964.2375 Q397.765,964.6 396.7275,964.6 Q395.515,964.6 394.5525,964.1 Q393.765,963.7 393.215,962.85 Q392.665,961.9875 392.665,960.9625 L392.665,960.0375 Q392.665,958.975 393.1525,958.0625 Q393.6525,957.1375 394.5275,956.65 Q395.4025,956.15 396.39,956.15 Q396.9775,956.15 397.49,956.2875 Q398.015,956.4125 398.4525,956.7 Z " fill="#000000"/><text fill="#000000" font-family="sans-serif" font-size="11.2" lengthAdjust="spacing" textLength="27.2" x="409.36" y="963.8828">Store</text><line style="stroke:#181818;stroke-width:0.4000000000000001;" x1="376.4" x2="446.8" y1="972.8" y2="972.8"/><text fill="#000000" font-family="sans-serif" font-size="11.2" lengthAdjust="spacing" textLength="32" x="380.4" y="986.1391">-name</text><text fill="#000000" font-family="sans-serif" font-size="11.2" lengthAdjust="spacing" textLength="62.4" x="380.4" y="998.6516">-designation</text><text fill="#000000" font-family="sans-serif" font-size="11.2" lengthAdjust="spacing" textLength="54.4" x="380.4" y="1011.1641">-telephone</text><text fill="#000000" font-family="sans-serif" font-size="11.2" lengthAdjust="spacing" textLength="30.4" x="380.4" y="1023.6766">-email</text><line style="stroke:#181818;stroke-width:0.4000000000000001;" x1="376.4" x2="446.8" y1="1029.25" y2="1029.25"/></g><!--class Role--><g id="elem_Role"><rect codeLine="92" fill="#F1F1F1" height="63.425" id="Role" rx="2" ry="2" style="stroke:#181818;stroke-width:0.4000000000000001;" width="73.6" x="291.6" y="104.8"/><ellipse cx="314.76" cy="117.6" fill="#ADD1B2" rx="8.8" ry="8.8" style="stroke:#181818;stroke-width:0.8000000000000002;"/><path d="M316.9725,114.3 Q317.0975,114.125 317.2475,114.0375 Q317.3975,113.95 317.5725,113.95 Q317.8725,113.95 318.06,114.1625 Q318.2475,114.3625 318.2475,114.85 L318.2475,116.0125 Q318.2475,116.5 318.06,116.7125 Q317.8725,116.925 317.5725,116.925 Q317.2975,116.925 317.135,116.7625 Q316.9725,116.6125 316.885,116.2 Q316.8475,115.9125 316.6975,115.7625 Q316.435,115.4625 315.9475,115.2875 Q315.46,115.1125 314.96,115.1125 Q314.3475,115.1125 313.835,115.375 Q313.335,115.6375 312.935,116.2375 Q312.5475,116.8375 312.5475,117.6625 L312.5475,118.5375 Q312.5475,119.525 313.26,120.1875 Q313.9725,120.8375 315.2475,120.8375 Q315.9975,120.8375 316.5225,120.6375 Q316.835,120.5125 317.1725,120.1625 Q317.385,119.95 317.4975,119.8875 Q317.6225,119.825 317.785,119.825 Q318.0475,119.825 318.2475,120.0375 Q318.46,120.2375 318.46,120.5125 Q318.46,120.7875 318.185,121.1125 Q317.785,121.575 317.1475,121.8375 Q316.285,122.2 315.2475,122.2 Q314.035,122.2 313.0725,121.7 Q312.285,121.3 311.735,120.45 Q311.185,119.5875 311.185,118.5625 L311.185,117.6375 Q311.185,116.575 311.6725,115.6625 Q312.1725,114.7375 313.0475,114.25 Q313.9225,113.75 314.91,113.75 Q315.4975,113.75 316.01,113.8875 Q316.535,114.0125 316.9725,114.3 Z " fill="#000000"/><text fill="#000000" font-family="sans-serif" font-size="11.2" lengthAdjust="spacing" textLength="23.2" x="328.44" y="121.4828">Role</text><line style="stroke:#181818;stroke-width:0.4000000000000001;" x1="292.4" x2="364.4" y1="130.4" y2="130.4"/><text fill="#000000" font-family="sans-serif" font-size="11.2" lengthAdjust="spacing" textLength="59.2" x="296.4" y="143.7391">-description</text><text fill="#000000" font-family="sans-serif" font-size="11.2" lengthAdjust="spacing" textLength="64" x="296.4" y="156.2516">-permissions</text><line style="stroke:#181818;stroke-width:0.4000000000000001;" x1="292.4" x2="364.4" y1="161.825" y2="161.825"/></g><!--class UserRepository--><g id="elem_UserRepository"><rect codeLine="97" fill="#F1F1F1" height="50.9125" id="UserRepository" rx="2" ry="2" style="stroke:#181818;stroke-width:0.4000000000000001;" width="103.2" x="252.8" y="848"/><ellipse cx="264.8" cy="860.8" fill="#ADD1B2" rx="8.8" ry="8.8" style="stroke:#181818;stroke-width:0.8000000000000002;"/><path d="M267.0125,857.5 Q267.1375,857.325 267.2875,857.2375 Q267.4375,857.15 267.6125,857.15 Q267.9125,857.15 268.1,857.3625 Q268.2875,857.5625 268.2875,858.05 L268.2875,859.2125 Q268.2875,859.7 268.1,859.9125 Q267.9125,860.125 267.6125,860.125 Q267.3375,860.125 267.175,859.9625 Q267.0125,859.8125 266.925,859.4 Q266.8875,859.1125 266.7375,858.9625 Q266.475,858.6625 265.9875,858.4875 Q265.5,858.3125 265,858.3125 Q264.3875,858.3125 263.875,858.575 Q263.375,858.8375 262.975,859.4375 Q262.5875,860.0375 262.5875,860.8625 L262.5875,861.7375 Q262.5875,862.725 263.3,863.3875 Q264.0125,864.0375 265.2875,864.0375 Q266.0375,864.0375 266.5625,863.8375 Q266.875,863.7125 267.2125,863.3625 Q267.425,863.15 267.5375,863.0875 Q267.6625,863.025 267.825,863.025 Q268.0875,863.025 268.2875,863.2375 Q268.5,863.4375 268.5,863.7125 Q268.5,863.9875 268.225,864.3125 Q267.825,864.775 267.1875,865.0375 Q266.325,865.4 265.2875,865.4 Q264.075,865.4 263.1125,864.9 Q262.325,864.5 261.775,863.65 Q261.225,862.7875 261.225,861.7625 L261.225,860.8375 Q261.225,859.775 261.7125,858.8625 Q262.2125,857.9375 263.0875,857.45 Q263.9625,856.95 264.95,856.95 Q265.5375,856.95 266.05,857.0875 Q266.575,857.2125 267.0125,857.5 Z " fill="#000000"/><text fill="#000000" font-family="sans-serif" font-size="11.2" lengthAdjust="spacing" textLength="77.6" x="276" y="864.6828">UserRepository</text><line style="stroke:#181818;stroke-width:0.4000000000000001;" x1="253.6" x2="355.2" y1="873.6" y2="873.6"/><line style="stroke:#181818;stroke-width:0.4000000000000001;" x1="253.6" x2="355.2" y1="880" y2="880"/><text fill="#000000" font-family="sans-serif" font-size="11.2" lengthAdjust="spacing" textLength="60.8" x="257.6" y="893.3391">+save(user)</text></g><!--class SystemAdministrator--><g id="elem_SystemAdministrator"><rect codeLine="101" fill="#F1F1F1" height="38.4" id="SystemAdministrator" rx="2" ry="2" style="stroke:#181818;stroke-width:0.4000000000000001;" width="128.8" x="5.6" y="259.6"/><ellipse cx="17.6" cy="272.4" fill="#ADD1B2" rx="8.8" ry="8.8" style="stroke:#181818;stroke-width:0.8000000000000002;"/><path d="M19.8125,269.1 Q19.9375,268.925 20.0875,268.8375 Q20.2375,268.75 20.4125,268.75 Q20.7125,268.75 20.9,268.9625 Q21.0875,269.1625 21.0875,269.65 L21.0875,270.8125 Q21.0875,271.3 20.9,271.5125 Q20.7125,271.725 20.4125,271.725 Q20.1375,271.725 19.975,271.5625 Q19.8125,271.4125 19.725,271 Q19.6875,270.7125 19.5375,270.5625 Q19.275,270.2625 18.7875,270.0875 Q18.3,269.9125 17.8,269.9125 Q17.1875,269.9125 16.675,270.175 Q16.175,270.4375 15.775,271.0375 Q15.3875,271.6375 15.3875,272.4625 L15.3875,273.3375 Q15.3875,274.325 16.1,274.9875 Q16.8125,275.6375 18.0875,275.6375 Q18.8375,275.6375 19.3625,275.4375 Q19.675,275.3125 20.0125,274.9625 Q20.225,274.75 20.3375,274.6875 Q20.4625,274.625 20.625,274.625 Q20.8875,274.625 21.0875,274.8375 Q21.3,275.0375 21.3,275.3125 Q21.3,275.5875 21.025,275.9125 Q20.625,276.375 19.9875,276.6375 Q19.125,277 18.0875,277 Q16.875,277 15.9125,276.5 Q15.125,276.1 14.575,275.25 Q14.025,274.3875 14.025,273.3625 L14.025,272.4375 Q14.025,271.375 14.5125,270.4625 Q15.0125,269.5375 15.8875,269.05 Q16.7625,268.55 17.75,268.55 Q18.3375,268.55 18.85,268.6875 Q19.375,268.8125 19.8125,269.1 Z " fill="#000000"/><text fill="#000000" font-family="sans-serif" font-size="11.2" lengthAdjust="spacing" textLength="103.2" x="28.8" y="276.2828">SystemAdministrator</text><line style="stroke:#181818;stroke-width:0.4000000000000001;" x1="6.4" x2="133.6" y1="285.2" y2="285.2"/><line style="stroke:#181818;stroke-width:0.4000000000000001;" x1="6.4" x2="133.6" y1="291.6" y2="291.6"/></g><!--class StoreManager--><g id="elem_StoreManager"><rect codeLine="104" fill="#F1F1F1" height="38.4" id="StoreManager" rx="2" ry="2" style="stroke:#181818;stroke-width:0.4000000000000001;" width="97.6" x="559.6" y="972.4"/><ellipse cx="571.6" cy="985.2" fill="#ADD1B2" rx="8.8" ry="8.8" style="stroke:#181818;stroke-width:0.8000000000000002;"/><path d="M573.8125,981.9 Q573.9375,981.725 574.0875,981.6375 Q574.2375,981.55 574.4125,981.55 Q574.7125,981.55 574.9,981.7625 Q575.0875,981.9625 575.0875,982.45 L575.0875,983.6125 Q575.0875,984.1 574.9,984.3125 Q574.7125,984.525 574.4125,984.525 Q574.1375,984.525 573.975,984.3625 Q573.8125,984.2125 573.725,983.8 Q573.6875,983.5125 573.5375,983.3625 Q573.275,983.0625 572.7875,982.8875 Q572.3,982.7125 571.8,982.7125 Q571.1875,982.7125 570.675,982.975 Q570.175,983.2375 569.775,983.8375 Q569.3875,984.4375 569.3875,985.2625 L569.3875,986.1375 Q569.3875,987.125 570.1,987.7875 Q570.8125,988.4375 572.0875,988.4375 Q572.8375,988.4375 573.3625,988.2375 Q573.675,988.1125 574.0125,987.7625 Q574.225,987.55 574.3375,987.4875 Q574.4625,987.425 574.625,987.425 Q574.8875,987.425 575.0875,987.6375 Q575.3,987.8375 575.3,988.1125 Q575.3,988.3875 575.025,988.7125 Q574.625,989.175 573.9875,989.4375 Q573.125,989.8 572.0875,989.8 Q570.875,989.8 569.9125,989.3 Q569.125,988.9 568.575,988.05 Q568.025,987.1875 568.025,986.1625 L568.025,985.2375 Q568.025,984.175 568.5125,983.2625 Q569.0125,982.3375 569.8875,981.85 Q570.7625,981.35 571.75,981.35 Q572.3375,981.35 572.85,981.4875 Q573.375,981.6125 573.8125,981.9 Z " fill="#000000"/><text fill="#000000" font-family="sans-serif" font-size="11.2" lengthAdjust="spacing" textLength="72" x="582.8" y="989.0828">StoreManager</text><line style="stroke:#181818;stroke-width:0.4000000000000001;" x1="560.4" x2="656.4" y1="998" y2="998"/><line style="stroke:#181818;stroke-width:0.4000000000000001;" x1="560.4" x2="656.4" y1="1004.4" y2="1004.4"/></g><!--class StoreNetworkManager--><g id="elem_StoreNetworkManager"><rect codeLine="107" fill="#F1F1F1" height="38.4" id="StoreNetworkManager" rx="2" ry="2" style="stroke:#181818;stroke-width:0.4000000000000001;" width="137.6" x="135.6" y="389.6"/><ellipse cx="147.6" cy="402.4" fill="#ADD1B2" rx="8.8" ry="8.8" style="stroke:#181818;stroke-width:0.8000000000000002;"/><path d="M149.8125,399.1 Q149.9375,398.925 150.0875,398.8375 Q150.2375,398.75 150.4125,398.75 Q150.7125,398.75 150.9,398.9625 Q151.0875,399.1625 151.0875,399.65 L151.0875,400.8125 Q151.0875,401.3 150.9,401.5125 Q150.7125,401.725 150.4125,401.725 Q150.1375,401.725 149.975,401.5625 Q149.8125,401.4125 149.725,401 Q149.6875,400.7125 149.5375,400.5625 Q149.275,400.2625 148.7875,400.0875 Q148.3,399.9125 147.8,399.9125 Q147.1875,399.9125 146.675,400.175 Q146.175,400.4375 145.775,401.0375 Q145.3875,401.6375 145.3875,402.4625 L145.3875,403.3375 Q145.3875,404.325 146.1,404.9875 Q146.8125,405.6375 148.0875,405.6375 Q148.8375,405.6375 149.3625,405.4375 Q149.675,405.3125 150.0125,404.9625 Q150.225,404.75 150.3375,404.6875 Q150.4625,404.625 150.625,404.625 Q150.8875,404.625 151.0875,404.8375 Q151.3,405.0375 151.3,405.3125 Q151.3,405.5875 151.025,405.9125 Q150.625,406.375 149.9875,406.6375 Q149.125,407 148.0875,407 Q146.875,407 145.9125,406.5 Q145.125,406.1 144.575,405.25 Q144.025,404.3875 144.025,403.3625 L144.025,402.4375 Q144.025,401.375 144.5125,400.4625 Q145.0125,399.5375 145.8875,399.05 Q146.7625,398.55 147.75,398.55 Q148.3375,398.55 148.85,398.6875 Q149.375,398.8125 149.8125,399.1 Z " fill="#000000"/><text fill="#000000" font-family="sans-serif" font-size="11.2" lengthAdjust="spacing" textLength="112" x="158.8" y="406.2828">StoreNetworkManager</text><line style="stroke:#181818;stroke-width:0.4000000000000001;" x1="136.4" x2="272.4" y1="415.2" y2="415.2"/><line style="stroke:#181818;stroke-width:0.4000000000000001;" x1="136.4" x2="272.4" y1="421.6" y2="421.6"/></g><!--class Employee--><g id="elem_Employee"><rect codeLine="110" fill="#F1F1F1" height="38.4" id="Employee" rx="2" ry="2" style="stroke:#181818;stroke-width:0.4000000000000001;" width="75.2" x="32.4" y="389.6"/><ellipse cx="44.4" cy="402.4" fill="#ADD1B2" rx="8.8" ry="8.8" style="stroke:#181818;stroke-width:0.8000000000000002;"/><path d="M46.6125,399.1 Q46.7375,398.925 46.8875,398.8375 Q47.0375,398.75 47.2125,398.75 Q47.5125,398.75 47.7,398.9625 Q47.8875,399.1625 47.8875,399.65 L47.8875,400.8125 Q47.8875,401.3 47.7,401.5125 Q47.5125,401.725 47.2125,401.725 Q46.9375,401.725 46.775,401.5625 Q46.6125,401.4125 46.525,401 Q46.4875,400.7125 46.3375,400.5625 Q46.075,400.2625 45.5875,400.0875 Q45.1,399.9125 44.6,399.9125 Q43.9875,399.9125 43.475,400.175 Q42.975,400.4375 42.575,401.0375 Q42.1875,401.6375 42.1875,402.4625 L42.1875,403.3375 Q42.1875,404.325 42.9,404.9875 Q43.6125,405.6375 44.8875,405.6375 Q45.6375,405.6375 46.1625,405.4375 Q46.475,405.3125 46.8125,404.9625 Q47.025,404.75 47.1375,404.6875 Q47.2625,404.625 47.425,404.625 Q47.6875,404.625 47.8875,404.8375 Q48.1,405.0375 48.1,405.3125 Q48.1,405.5875 47.825,405.9125 Q47.425,406.375 46.7875,406.6375 Q45.925,407 44.8875,407 Q43.675,407 42.7125,406.5 Q41.925,406.1 41.375,405.25 Q40.825,404.3875 40.825,403.3625 L40.825,402.4375 Q40.825,401.375 41.3125,400.4625 Q41.8125,399.5375 42.6875,399.05 Q43.5625,398.55 44.55,398.55 Q45.1375,398.55 45.65,398.6875 Q46.175,398.8125 46.6125,399.1 Z " fill="#000000"/><text fill="#000000" font-family="sans-serif" font-size="11.2" lengthAdjust="spacing" textLength="49.6" x="55.6" y="406.2828">Employee</text><line style="stroke:#181818;stroke-width:0.4000000000000001;" x1="33.2" x2="106.8" y1="415.2" y2="415.2"/><line style="stroke:#181818;stroke-width:0.4000000000000001;" x1="33.2" x2="106.8" y1="421.6" y2="421.6"/></g><!--class EmailService--><g id="elem_EmailService"><rect codeLine="114" fill="#F1F1F1" height="63.425" id="EmailService" rx="2" ry="2" style="stroke:#181818;stroke-width:0.4000000000000001;" width="235.2" x="994.8" y="724"/><ellipse cx="1076.6" cy="736.8" fill="#ADD1B2" rx="8.8" ry="8.8" style="stroke:#181818;stroke-width:0.8000000000000002;"/><path d="M1078.8125,733.5 Q1078.9375,733.325 1079.0875,733.2375 Q1079.2375,733.15 1079.4125,733.15 Q1079.7125,733.15 1079.9,733.3625 Q1080.0875,733.5625 1080.0875,734.05 L1080.0875,735.2125 Q1080.0875,735.7 1079.9,735.9125 Q1079.7125,736.125 1079.4125,736.125 Q1079.1375,736.125 1078.975,735.9625 Q1078.8125,735.8125 1078.725,735.4 Q1078.6875,735.1125 1078.5375,734.9625 Q1078.275,734.6625 1077.7875,734.4875 Q1077.3,734.3125 1076.8,734.3125 Q1076.1875,734.3125 1075.675,734.575 Q1075.175,734.8375 1074.775,735.4375 Q1074.3875,736.0375 1074.3875,736.8625 L1074.3875,737.7375 Q1074.3875,738.725 1075.1,739.3875 Q1075.8125,740.0375 1077.0875,740.0375 Q1077.8375,740.0375 1078.3625,739.8375 Q1078.675,739.7125 1079.0125,739.3625 Q1079.225,739.15 1079.3375,739.0875 Q1079.4625,739.025 1079.625,739.025 Q1079.8875,739.025 1080.0875,739.2375 Q1080.3,739.4375 1080.3,739.7125 Q1080.3,739.9875 1080.025,740.3125 Q1079.625,740.775 1078.9875,741.0375 Q1078.125,741.4 1077.0875,741.4 Q1075.875,741.4 1074.9125,740.9 Q1074.125,740.5 1073.575,739.65 Q1073.025,738.7875 1073.025,737.7625 L1073.025,736.8375 Q1073.025,735.775 1073.5125,734.8625 Q1074.0125,733.9375 1074.8875,733.45 Q1075.7625,732.95 1076.75,732.95 Q1077.3375,732.95 1077.85,733.0875 Q1078.375,733.2125 1078.8125,733.5 Z " fill="#000000"/><text fill="#000000" font-family="sans-serif" font-size="11.2" lengthAdjust="spacing" textLength="64.8" x="1093" y="740.6828">EmailService</text><line style="stroke:#181818;stroke-width:0.4000000000000001;" x1="995.6" x2="1229.2" y1="749.6" y2="749.6"/><line style="stroke:#181818;stroke-width:0.4000000000000001;" x1="995.6" x2="1229.2" y1="756" y2="756"/><text fill="#000000" font-family="sans-serif" font-size="11.2" lengthAdjust="spacing" textLength="64" x="999.6" y="769.3391">-sendEmail()</text><text fill="#000000" font-family="sans-serif" font-size="11.2" lengthAdjust="spacing" textLength="225.6" x="999.6" y="781.8516">+sendRegisteredUserEmail(email, password)</text></g><!--class StoreEmployee--><g id="elem_StoreEmployee"><rect codeLine="118" fill="#F1F1F1" height="38.4" id="StoreEmployee" rx="2" ry="2" style="stroke:#181818;stroke-width:0.4000000000000001;" width="102.4" x="406" y="1084"/><ellipse cx="418" cy="1096.8" fill="#ADD1B2" rx="8.8" ry="8.8" style="stroke:#181818;stroke-width:0.8000000000000002;"/><path d="M420.2125,1093.5 Q420.3375,1093.325 420.4875,1093.2375 Q420.6375,1093.15 420.8125,1093.15 Q421.1125,1093.15 421.3,1093.3625 Q421.4875,1093.5625 421.4875,1094.05 L421.4875,1095.2125 Q421.4875,1095.7 421.3,1095.9125 Q421.1125,1096.125 420.8125,1096.125 Q420.5375,1096.125 420.375,1095.9625 Q420.2125,1095.8125 420.125,1095.4 Q420.0875,1095.1125 419.9375,1094.9625 Q419.675,1094.6625 419.1875,1094.4875 Q418.7,1094.3125 418.2,1094.3125 Q417.5875,1094.3125 417.075,1094.575 Q416.575,1094.8375 416.175,1095.4375 Q415.7875,1096.0375 415.7875,1096.8625 L415.7875,1097.7375 Q415.7875,1098.725 416.5,1099.3875 Q417.2125,1100.0375 418.4875,1100.0375 Q419.2375,1100.0375 419.7625,1099.8375 Q420.075,1099.7125 420.4125,1099.3625 Q420.625,1099.15 420.7375,1099.0875 Q420.8625,1099.025 421.025,1099.025 Q421.2875,1099.025 421.4875,1099.2375 Q421.7,1099.4375 421.7,1099.7125 Q421.7,1099.9875 421.425,1100.3125 Q421.025,1100.775 420.3875,1101.0375 Q419.525,1101.4 418.4875,1101.4 Q417.275,1101.4 416.3125,1100.9 Q415.525,1100.5 414.975,1099.65 Q414.425,1098.7875 414.425,1097.7625 L414.425,1096.8375 Q414.425,1095.775 414.9125,1094.8625 Q415.4125,1093.9375 416.2875,1093.45 Q417.1625,1092.95 418.15,1092.95 Q418.7375,1092.95 419.25,1093.0875 Q419.775,1093.2125 420.2125,1093.5 Z " fill="#000000"/><text fill="#000000" font-family="sans-serif" font-size="11.2" lengthAdjust="spacing" textLength="76.8" x="429.2" y="1100.6828">StoreEmployee</text><line style="stroke:#181818;stroke-width:0.4000000000000001;" x1="406.8" x2="507.6" y1="1109.6" y2="1109.6"/><line style="stroke:#181818;stroke-width:0.4000000000000001;" x1="406.8" x2="507.6" y1="1116" y2="1116"/></g><!--class AgencyEmployee--><g id="elem_AgencyEmployee"><rect codeLine="121" fill="#F1F1F1" height="38.4" id="AgencyEmployee" rx="2" ry="2" style="stroke:#181818;stroke-width:0.4000000000000001;" width="112.8" x="116.8" y="476"/><ellipse cx="128.8" cy="488.8" fill="#ADD1B2" rx="8.8" ry="8.8" style="stroke:#181818;stroke-width:0.8000000000000002;"/><path d="M131.0125,485.5 Q131.1375,485.325 131.2875,485.2375 Q131.4375,485.15 131.6125,485.15 Q131.9125,485.15 132.1,485.3625 Q132.2875,485.5625 132.2875,486.05 L132.2875,487.2125 Q132.2875,487.7 132.1,487.9125 Q131.9125,488.125 131.6125,488.125 Q131.3375,488.125 131.175,487.9625 Q131.0125,487.8125 130.925,487.4 Q130.8875,487.1125 130.7375,486.9625 Q130.475,486.6625 129.9875,486.4875 Q129.5,486.3125 129,486.3125 Q128.3875,486.3125 127.875,486.575 Q127.375,486.8375 126.975,487.4375 Q126.5875,488.0375 126.5875,488.8625 L126.5875,489.7375 Q126.5875,490.725 127.3,491.3875 Q128.0125,492.0375 129.2875,492.0375 Q130.0375,492.0375 130.5625,491.8375 Q130.875,491.7125 131.2125,491.3625 Q131.425,491.15 131.5375,491.0875 Q131.6625,491.025 131.825,491.025 Q132.0875,491.025 132.2875,491.2375 Q132.5,491.4375 132.5,491.7125 Q132.5,491.9875 132.225,492.3125 Q131.825,492.775 131.1875,493.0375 Q130.325,493.4 129.2875,493.4 Q128.075,493.4 127.1125,492.9 Q126.325,492.5 125.775,491.65 Q125.225,490.7875 125.225,489.7625 L125.225,488.8375 Q125.225,487.775 125.7125,486.8625 Q126.2125,485.9375 127.0875,485.45 Q127.9625,484.95 128.95,484.95 Q129.5375,484.95 130.05,485.0875 Q130.575,485.2125 131.0125,485.5 Z " fill="#000000"/><text fill="#000000" font-family="sans-serif" font-size="11.2" lengthAdjust="spacing" textLength="87.2" x="140" y="492.6828">AgencyEmployee</text><line style="stroke:#181818;stroke-width:0.4000000000000001;" x1="117.6" x2="228.8" y1="501.6" y2="501.6"/><line style="stroke:#181818;stroke-width:0.4000000000000001;" x1="117.6" x2="228.8" y1="508" y2="508"/></g><!--link RegisterEmployeeUI to RegisterEmployeeController--><g id="link_RegisterEmployeeUI_RegisterEmployeeController"><path codeLine="126" d="M882.8,663.344 C882.8,663.344 882.8,707.056 882.8,707.056 " fill="none" id="RegisterEmployeeUI-to-RegisterEmployeeController" style="stroke:#181818;stroke-width:0.8000000000000002;stroke-dasharray:7.0,7.0;"/><polygon fill="#181818" points="882.8,711.056,886,703.856,882.8,707.056,879.6,703.856,882.8,711.056" style="stroke:#181818;stroke-width:0.8000000000000002;"/></g><!--reverse link Repositories to RegisterEmployeeController--><g id="link_Repositories_RegisterEmployeeController"><path codeLine="128" d="M560.192,756 C560.192,756 798.864,756 798.864,756 " fill="none" id="Repositories-backto-RegisterEmployeeController" style="stroke:#181818;stroke-width:0.8000000000000002;stroke-dasharray:7.0,7.0;"/><polygon fill="#181818" points="556.192,756,563.392,759.2,560.192,756,563.392,752.8,556.192,756" style="stroke:#181818;stroke-width:0.8000000000000002;"/></g><!--link RegisterEmployeeController to EmailService--><g id="link_RegisterEmployeeController_EmailService"><path codeLine="130" d="M966.664,756 C966.664,756 990.536,756 990.536,756 " fill="none" id="RegisterEmployeeController-to-EmailService" style="stroke:#181818;stroke-width:0.8000000000000002;stroke-dasharray:7.0,7.0;"/><polygon fill="#181818" points="994.536,756,987.336,752.8,990.536,756,987.336,759.2,994.536,756" style="stroke:#181818;stroke-width:0.8000000000000002;"/></g><!--reverse link AgencyRepository to Repositories--><g id="link_AgencyRepository_Repositories"><path codeLine="132" d="M450.4,642.664 C450.4,642.664 450.4,711.144 450.4,711.144 " fill="none" id="AgencyRepository-backto-Repositories" style="stroke:#181818;stroke-width:0.8000000000000002;stroke-dasharray:7.0,7.0;"/><polygon fill="#181818" points="450.4,638.664,447.2206,645.8731,450.4114,642.664,453.6206,645.8548,450.4,638.664" style="stroke:#181818;stroke-width:0.8000000000000002;"/></g><!--reverse link RoleRepository to Repositories--><g id="link_RoleRepository_Repositories"><path codeLine="133" d="M484.4,60.984 C484.4,60.984 484.4,710.976 484.4,710.976 " fill="none" id="RoleRepository-backto-Repositories" style="stroke:#181818;stroke-width:0.8000000000000002;stroke-dasharray:7.0,7.0;"/><polygon fill="#181818" points="484.4,56.984,481.2,64.184,484.4,60.984,487.6,64.184,484.4,56.984" style="stroke:#181818;stroke-width:0.8000000000000002;"/></g><!--link Repositories to StoreRepository--><g id="link_Repositories_StoreRepository"><path codeLine="134" d="M547.4,800.208 C547.4,800.208 547.4,843.76 547.4,843.76 " fill="none" id="Repositories-to-StoreRepository" style="stroke:#181818;stroke-width:0.8000000000000002;stroke-dasharray:7.0,7.0;"/><polygon fill="#181818" points="547.4,847.76,550.6,840.56,547.4,843.76,544.2,840.56,547.4,847.76" style="stroke:#181818;stroke-width:0.8000000000000002;"/></g><!--link Repositories to PasswordGenerator--><g id="link_Repositories_PasswordGenerator"><path codeLine="135" d="M467.4,800.208 C467.4,800.208 467.4,843.76 467.4,843.76 " fill="none" id="Repositories-to-PasswordGenerator" style="stroke:#181818;stroke-width:0.8000000000000002;stroke-dasharray:7.0,7.0;"/><polygon fill="#181818" points="467.4,847.76,470.6,840.56,467.4,843.76,464.2,840.56,467.4,847.76" style="stroke:#181818;stroke-width:0.8000000000000002;"/></g><!--link Repositories to UserRepository--><g id="link_Repositories_UserRepository"><path codeLine="136" d="M423.944,756 C381.896,756 335.296,756 335.296,756 C335.296,756 335.296,843.792 335.296,843.792 " fill="none" id="Repositories-to-UserRepository" style="stroke:#181818;stroke-width:0.8000000000000002;stroke-dasharray:7.0,7.0;"/><polygon fill="#181818" points="335.296,847.792,338.496,840.592,335.296,843.792,332.096,840.592,335.296,847.792" style="stroke:#181818;stroke-width:0.8000000000000002;"/></g><!--reverse link Agency to AgencyRepository--><g id="link_Agency_AgencyRepository"><path codeLine="139" d="M276.992,612.8 C276.992,612.8 359.072,612.8 359.072,612.8 " fill="none" id="Agency-backto-AgencyRepository" style="stroke:#181818;stroke-width:0.8000000000000002;stroke-dasharray:7.0,7.0;"/><polygon fill="#181818" points="272.992,612.8,280.192,616,276.992,612.8,280.192,609.6,272.992,612.8" style="stroke:#181818;stroke-width:0.8000000000000002;"/></g><!--link RoleRepository to Role--><g id="link_RoleRepository_Role"><path codeLine="140" d="M380.6,56.984 C380.6,79.296 380.6,108 380.6,108 C380.6,108 369.224,108 369.224,108 " fill="none" id="RoleRepository-to-Role" style="stroke:#181818;stroke-width:0.8000000000000002;stroke-dasharray:7.0,7.0;"/><polygon fill="#181818" points="365.224,108,372.424,111.2,369.224,108,372.424,104.8,365.224,108" style="stroke:#181818;stroke-width:0.8000000000000002;"/></g><!--link StoreRepository to Store--><g id="link_StoreRepository_Store"><path codeLine="141" d="M549.2,899.288 C549.2,924.76 549.2,960 549.2,960 C549.2,960 451.752,960 451.752,960 " fill="none" id="StoreRepository-to-Store" style="stroke:#181818;stroke-width:0.8000000000000002;stroke-dasharray:7.0,7.0;"/><polygon fill="#181818" points="447.752,960,454.952,963.2,451.752,960,454.952,956.8,447.752,960" style="stroke:#181818;stroke-width:0.8000000000000002;"/></g><!--link UserRepository to User--><g id="link_UserRepository_User"><path codeLine="143" d="M293.904,847.656 C293.904,847.656 293.904,345.728 293.904,345.728 " fill="none" id="UserRepository-to-User" style="stroke:#181818;stroke-width:0.8000000000000002;stroke-dasharray:7.0,7.0;"/><polygon fill="#181818" points="293.904,341.728,290.704,348.928,293.904,345.728,297.104,348.928,293.904,341.728" style="stroke:#181818;stroke-width:0.8000000000000002;"/></g><!--reverse link User to Agent--><g id="link_User_Agent"><path codeLine="144" d="M314.6,357.608 C314.6,357.608 314.6,824 314.6,824 C314.6,824 521,824 521,824 C521,824 521,928.352 521,972.376 " fill="none" id="User-backto-Agent" style="stroke:#181818;stroke-width:0.8000000000000002;"/><polygon fill="none" points="309,357.608,314.6,341.608,320.2,357.608,309,357.608" style="stroke:#181818;stroke-width:0.8000000000000002;"/></g><!--link SystemAdministrator to Employee--><g id="link_SystemAdministrator_Employee"><path codeLine="145" d="M57.464,298.264 C57.464,298.264 57.464,373.416 57.464,373.416 " fill="none" id="SystemAdministrator-to-Employee" style="stroke:#181818;stroke-width:0.8000000000000002;"/><polygon fill="none" points="63.064,373.416,57.464,389.416,51.864,373.416,63.064,373.416" style="stroke:#181818;stroke-width:0.8000000000000002;"/></g><!--reverse link Employee to AgencyEmployee--><g id="link_Employee_AgencyEmployee"><path codeLine="147" d="M123.704,408.8 C123.704,408.8 125.6,408.8 125.6,408.8 C125.6,408.8 125.6,450.336 125.6,475.808 " fill="none" id="Employee-backto-AgencyEmployee" style="stroke:#181818;stroke-width:0.8000000000000002;"/><polygon fill="none" points="123.704,414.4,107.704,408.8,123.704,403.2,123.704,414.4" style="stroke:#181818;stroke-width:0.8000000000000002;"/></g><!--link AgencyEmployee to Agency--><g id="link_AgencyEmployee_Agency"><path codeLine="148" d="M207.6,514.616 C207.6,514.616 207.6,570.8 207.6,570.8 " fill="none" id="AgencyEmployee-to-Agency" style="stroke:#181818;stroke-width:0.8000000000000002;stroke-dasharray:7.0,7.0;"/><polygon fill="#181818" points="207.6,574.8,210.8,567.6,207.6,570.8,204.4,567.6,207.6,574.8" style="stroke:#181818;stroke-width:0.8000000000000002;"/></g><!--reverse link Store to StoreEmployee--><g id="link_Store_StoreEmployee"><path codeLine="149" d="M426.8,1040.024 C426.8,1040.024 426.8,1083.944 426.8,1083.944 " fill="none" id="Store-backto-StoreEmployee" style="stroke:#181818;stroke-width:0.8000000000000002;stroke-dasharray:7.0,7.0;"/><polygon fill="#181818" points="426.8,1036.024,423.6,1043.224,426.8,1040.024,430,1043.224,426.8,1036.024" style="stroke:#181818;stroke-width:0.8000000000000002;"/></g><!--link Agent to StoreEmployee--><g id="link_Agent_StoreEmployee"><path codeLine="150" d="M492.2,1011.04 C492.2,1011.04 492.2,1067.984 492.2,1067.984 " fill="none" id="Agent-to-StoreEmployee" style="stroke:#181818;stroke-width:0.8000000000000002;"/><polygon fill="none" points="497.8,1067.984,492.2,1083.984,486.6,1067.984,497.8,1067.984" style="stroke:#181818;stroke-width:0.8000000000000002;"/></g><!--link StoreManager to StoreEmployee--><g id="link_StoreManager_StoreEmployee"><path codeLine="151" d="M608.4,1011.04 C608.4,1043.016 608.4,1103.2 608.4,1103.2 C608.4,1103.2 524.6,1103.2 524.6,1103.2 " fill="none" id="StoreManager-to-StoreEmployee" style="stroke:#181818;stroke-width:0.8000000000000002;"/><polygon fill="none" points="524.6,1108.8,508.6,1103.2,524.6,1097.6,524.6,1108.8" style="stroke:#181818;stroke-width:0.8000000000000002;"/></g><!--link StoreNetworkManager to AgencyEmployee--><g id="link_StoreNetworkManager_AgencyEmployee"><path codeLine="152" d="M182.6,428.192 C182.6,428.192 182.6,459.872 182.6,459.872 " fill="none" id="StoreNetworkManager-to-AgencyEmployee" style="stroke:#181818;stroke-width:0.8000000000000002;"/><polygon fill="none" points="188.2,459.872,182.6,475.872,177,459.872,188.2,459.872" style="stroke:#181818;stroke-width:0.8000000000000002;"/></g><!--reverse link AgencyEmployee to StoreEmployee--><g id="link_AgencyEmployee_StoreEmployee"><path codeLine="154" d="M151.2,530.4 C151.2,530.4 151.2,1103.2 151.2,1103.2 C151.2,1103.2 318.872,1103.2 405.984,1103.2 " fill="none" id="AgencyEmployee-backto-StoreEmployee" style="stroke:#181818;stroke-width:0.8000000000000002;"/><polygon fill="none" points="145.6,530.4,151.2,514.4,156.8,530.4,145.6,530.4" style="stroke:#181818;stroke-width:0.8000000000000002;"/></g><!--reverse link User to Employee--><g id="link_User_Employee"><path codeLine="156" d="M223.168,320 C223.168,320 82.536,320 82.536,320 C82.536,320 82.536,363.416 82.536,389.528 " fill="none" id="User-backto-Employee" style="stroke:#181818;stroke-width:0.8000000000000002;"/><polygon fill="none" points="223.168,314.4,239.168,320,223.168,325.6,223.168,314.4" style="stroke:#181818;stroke-width:0.8000000000000002;"/></g><!--link User to Adress--><g id="link_User_Adress"><path codeLine="158" d="M389,279.2 C389,279.2 413.016,279.2 413.016,279.2 " fill="none" id="User-to-Adress" style="stroke:#181818;stroke-width:0.8000000000000002;stroke-dasharray:7.0,7.0;"/><polygon fill="#181818" points="417.016,279.2,409.816,276,413.016,279.2,409.816,282.4,417.016,279.2" style="stroke:#181818;stroke-width:0.8000000000000002;"/></g><!--reverse link Role to User--><g id="link_Role_User"><path codeLine="159" d="M328.4,172 C328.4,172 328.4,215.76 328.4,215.76 " fill="none" id="Role-backto-User" style="stroke:#181818;stroke-width:0.8000000000000002;stroke-dasharray:7.0,7.0;"/><polygon fill="#181818" points="328.4,168,325.2,175.2,328.4,172,331.6,175.2,328.4,168" style="stroke:#181818;stroke-width:0.8000000000000002;"/></g><!--reverse link Passport to User--><g id="link_Passport_User"><path codeLine="160" d="M405.2,166.2 C405.2,166.2 405.2,222.4 405.2,222.4 C405.2,222.4 398.576,222.4 388.896,222.4 " fill="none" id="Passport-backto-User" style="stroke:#181818;stroke-width:0.8000000000000002;stroke-dasharray:7.0,7.0;"/><polygon fill="#181818" points="405.2,162.2,402,169.4,405.2,166.2,408.4,169.4,405.2,162.2" style="stroke:#181818;stroke-width:0.8000000000000002;"/></g><!--reverse link TaxNumber to User--><g id="link_TaxNumber_User"><path codeLine="161" d="M251.4,166.184 C251.4,166.184 251.4,215.912 251.4,215.912 " fill="none" id="TaxNumber-backto-User" style="stroke:#181818;stroke-width:0.8000000000000002;stroke-dasharray:7.0,7.0;"/><polygon fill="#181818" points="251.4,162.184,248.2,169.384,251.4,166.184,254.6,169.384,251.4,162.184" style="stroke:#181818;stroke-width:0.8000000000000002;"/></g><!--reverse link Store to Agent--><g id="link_Store_Agent"><path codeLine="162" d="M451.696,992 C451.696,992 475.856,992 475.856,992 " fill="none" id="Store-backto-Agent" style="stroke:#181818;stroke-width:0.8000000000000002;stroke-dasharray:7.0,7.0;"/><polygon fill="#181818" points="447.696,992,454.896,995.2,451.696,992,454.896,988.8,447.696,992" style="stroke:#181818;stroke-width:0.8000000000000002;"/></g><!--reverse link Agency to Store--><g id="link_Agency_Store"><path codeLine="164" d="M276.816,644.8 C276.816,644.8 380,644.8 380,644.8 C380,644.8 380,853.304 380,946.968 " fill="none" id="Agency-backto-Store" style="stroke:#181818;stroke-width:0.8000000000000002;stroke-dasharray:7.0,7.0;"/><polygon fill="#181818" points="272.816,644.8,280.016,648,276.816,644.8,280.016,641.6,272.816,644.8" style="stroke:#181818;stroke-width:0.8000000000000002;"/></g><!--SRC=[VLPRRziW57xdL_0MHqkY_O0fKhPLKnzMLStwjXU6JnqK6omWRTtBVzy1334uxOl9kN_dgYpCKSYUQTRHJad53rfrGAq-0JbBUiQFh86z7LgW6hXbiccd2kR0QlKaP4CVM6kcabP8i4CFL6bxK6HnMQB8n8Itp9YTjLhyErcuvahknGlGhuGiMdYmr2ggHNEmj1OEYr2IU1Dw1uqm5lHLrxTg0BY_fgzaJOy0_NTcu2Uph9AiWrMFsZs6NHZAcQwfF7N_GA_-IchPSwGegsiDngmeXOw9TaKHYMNShcX_K196lUKOuKwrK6dyHCQk0Sc7YladClTMQQYC-ox9-mUuVs0SzDI2HlnVQ0FM-n9WgcMWewOBcfZUTw1quR6gCVSbmOWfPA-CG0DqweEy6ikiuE_EqRL4GdA8ZaCcoMI8V1TzplKmClOvREa9GuyXshPQJk1bdcCLogoJUX4ogzembYNs8HdTukT9wVeNID0CbKOpJy7K_RtndLXJDppu-770Tpe6ZXmTeXTduMk-ecuaLadcQkJDVRKYDwlHxJYS8M9mdeH_sFEDPrsKxlp0Uf6n6i3Y3oxiW4-Dyw05jrw4-U7x8dgkQYYxuyrhCAAHp2_N1mbdPWvjtevfmN9l5bhmdfBdhEynFjUY7orwq9qm1WcJTwNekM6FK9sCMyepc04NeTlLdP2k16EZSwo_cSJncFDlm69xZXV4SHJT04-OcCmUzAFW8Gi3ihvAtNPKN7Me7VmW6w_BUKJUfnWcaOf6vH92Bfo_pMRxoNMPcqmkpyRTMcz-lXIV6_YZZ1RJCZYBoQNPd7fKAAz0eODAs-82b1hRSkNd2hFrdgla4uGLd9sdM8GW8CLPyjL55YdlJm98I36bCIm9IxDUd_gtaNDfKDVhjssQjOWlzNsqJl92l3a3poTfuzEA42EIjsq-S2HRZO_anOfujHm7AQ87qALEcPGl2HaFshU0E33zZK1EeDArJ9ppYKoiS92G3FyRVCQncbxBA_m7]--></g></svg>