<?xml version="1.0" encoding="us-ascii" standalone="no"?><svg xmlns="http://www.w3.org/2000/svg" xmlns:xlink="http://www.w3.org/1999/xlink" contentStyleType="text/css" height="1027px" preserveAspectRatio="none" style="width:1099px;height:1027px;background:#FFFFFF;" version="1.1" viewBox="0 0 1099 1027" width="1099px" zoomAndPan="magnify"><defs/><g><!--class OrderDecisionUI--><g id="elem_OrderDecisionUI"><rect codeLine="6" fill="#F1F1F1" height="48" id="OrderDecisionUI" rx="2.5" ry="2.5" style="stroke:#181818;stroke-width:0.5;" width="135" x="166.5" y="7"/><ellipse cx="181.5" cy="23" fill="#C2C2C2" rx="11" ry="11" style="stroke:#181818;stroke-width:1.0;"/><path d="M184.2656,18.875 Q184.4219,18.6563 184.6094,18.5469 Q184.7969,18.4375 185.0156,18.4375 Q185.3906,18.4375 185.625,18.7031 Q185.8594,18.9531 185.8594,19.5625 L185.8594,21.0156 Q185.8594,21.625 185.625,21.8906 Q185.3906,22.1563 185.0156,22.1563 Q184.6719,22.1563 184.4688,21.9531 Q184.2656,21.7656 184.1563,21.25 Q184.1094,20.8906 183.9219,20.7031 Q183.5938,20.3281 182.9844,20.1094 Q182.375,19.8906 181.75,19.8906 Q180.9844,19.8906 180.3438,20.2188 Q179.7188,20.5469 179.2188,21.2969 Q178.7344,22.0469 178.7344,23.0781 L178.7344,24.1719 Q178.7344,25.4063 179.625,26.2344 Q180.5156,27.0469 182.1094,27.0469 Q183.0469,27.0469 183.7031,26.7969 Q184.0938,26.6406 184.5156,26.2031 Q184.7813,25.9375 184.9219,25.8594 Q185.0781,25.7813 185.2813,25.7813 Q185.6094,25.7813 185.8594,26.0469 Q186.125,26.2969 186.125,26.6406 Q186.125,26.9844 185.7813,27.3906 Q185.2813,27.9688 184.4844,28.2969 Q183.4063,28.75 182.1094,28.75 Q180.5938,28.75 179.3906,28.125 Q178.4063,27.625 177.7188,26.5625 Q177.0313,25.4844 177.0313,24.2031 L177.0313,23.0469 Q177.0313,21.7188 177.6406,20.5781 Q178.2656,19.4219 179.3594,18.8125 Q180.4531,18.1875 181.6875,18.1875 Q182.4219,18.1875 183.0625,18.3594 Q183.7188,18.5156 184.2656,18.875 Z " fill="#000000"/><text fill="#000000" font-family="sans-serif" font-size="14" lengthAdjust="spacing" textLength="103" x="195.5" y="27.8535">OrderDecisionUI</text><line style="stroke:#181818;stroke-width:0.5;" x1="167.5" x2="300.5" y1="39" y2="39"/><line style="stroke:#181818;stroke-width:0.5;" x1="167.5" x2="300.5" y1="47" y2="47"/></g><!--class Agent--><g id="elem_Agent"><rect codeLine="9" fill="#F1F1F1" height="126.2031" id="Agent" rx="2.5" ry="2.5" style="stroke:#181818;stroke-width:0.5;" width="362" x="7" y="381"/><ellipse cx="165.25" cy="397" fill="#C2C2C2" rx="11" ry="11" style="stroke:#181818;stroke-width:1.0;"/><path d="M168.0156,392.875 Q168.1719,392.6563 168.3594,392.5469 Q168.5469,392.4375 168.7656,392.4375 Q169.1406,392.4375 169.375,392.7031 Q169.6094,392.9531 169.6094,393.5625 L169.6094,395.0156 Q169.6094,395.625 169.375,395.8906 Q169.1406,396.1563 168.7656,396.1563 Q168.4219,396.1563 168.2188,395.9531 Q168.0156,395.7656 167.9063,395.25 Q167.8594,394.8906 167.6719,394.7031 Q167.3438,394.3281 166.7344,394.1094 Q166.125,393.8906 165.5,393.8906 Q164.7344,393.8906 164.0938,394.2188 Q163.4688,394.5469 162.9688,395.2969 Q162.4844,396.0469 162.4844,397.0781 L162.4844,398.1719 Q162.4844,399.4063 163.375,400.2344 Q164.2656,401.0469 165.8594,401.0469 Q166.7969,401.0469 167.4531,400.7969 Q167.8438,400.6406 168.2656,400.2031 Q168.5313,399.9375 168.6719,399.8594 Q168.8281,399.7813 169.0313,399.7813 Q169.3594,399.7813 169.6094,400.0469 Q169.875,400.2969 169.875,400.6406 Q169.875,400.9844 169.5313,401.3906 Q169.0313,401.9688 168.2344,402.2969 Q167.1563,402.75 165.8594,402.75 Q164.3438,402.75 163.1406,402.125 Q162.1563,401.625 161.4688,400.5625 Q160.7813,399.4844 160.7813,398.2031 L160.7813,397.0469 Q160.7813,395.7188 161.3906,394.5781 Q162.0156,393.4219 163.1094,392.8125 Q164.2031,392.1875 165.4375,392.1875 Q166.1719,392.1875 166.8125,392.3594 Q167.4688,392.5156 168.0156,392.875 Z " fill="#000000"/><text fill="#000000" font-family="sans-serif" font-size="14" lengthAdjust="spacing" textLength="37" x="185.75" y="401.8535">Agent</text><line style="stroke:#181818;stroke-width:0.5;" x1="8" x2="368" y1="413" y2="413"/><rect fill="none" height="6" style="stroke:#595959;stroke-width:1.0;" width="6" x="15" y="423.3203"/><text fill="#000000" font-family="sans-serif" font-size="14" lengthAdjust="spacing" textLength="76" x="27" y="429.6738">String name</text><rect fill="none" height="6" style="stroke:#595959;stroke-width:1.0;" width="6" x="15" y="438.9609"/><text fill="#000000" font-family="sans-serif" font-size="14" lengthAdjust="spacing" textLength="130" x="27" y="445.3145">String phoneNumber</text><rect fill="none" height="6" style="stroke:#595959;stroke-width:1.0;" width="6" x="15" y="454.6016"/><text fill="#000000" font-family="sans-serif" font-size="14" lengthAdjust="spacing" textLength="126" x="27" y="460.9551">String emailAddress</text><line style="stroke:#181818;stroke-width:0.5;" x1="8" x2="368" y1="467.9219" y2="467.9219"/><ellipse cx="18" cy="481.2422" fill="#A6A6A6" rx="3" ry="3" style="stroke:#545454;stroke-width:1.0;"/><text fill="#000000" font-family="sans-serif" font-size="14" lengthAdjust="spacing" textLength="172" x="27" y="484.5957">requestsToSeeProperties()</text><ellipse cx="18" cy="496.8828" fill="#A6A6A6" rx="3" ry="3" style="stroke:#545454;stroke-width:1.0;"/><text fill="#000000" font-family="sans-serif" font-size="14" lengthAdjust="spacing" textLength="336" x="27" y="500.2363">makeDecision(propertyCode, orderNumber, decision)</text></g><!--class OrderDecisionController--><g id="elem_OrderDecisionController"><rect codeLine="17" fill="#F1F1F1" height="173.125" id="OrderDecisionController" rx="2.5" ry="2.5" style="stroke:#181818;stroke-width:0.5;" width="461" x="253.5" y="178"/><ellipse cx="403.25" cy="194" fill="#C2C2C2" rx="11" ry="11" style="stroke:#181818;stroke-width:1.0;"/><path d="M406.0156,189.875 Q406.1719,189.6563 406.3594,189.5469 Q406.5469,189.4375 406.7656,189.4375 Q407.1406,189.4375 407.375,189.7031 Q407.6094,189.9531 407.6094,190.5625 L407.6094,192.0156 Q407.6094,192.625 407.375,192.8906 Q407.1406,193.1563 406.7656,193.1563 Q406.4219,193.1563 406.2188,192.9531 Q406.0156,192.7656 405.9063,192.25 Q405.8594,191.8906 405.6719,191.7031 Q405.3438,191.3281 404.7344,191.1094 Q404.125,190.8906 403.5,190.8906 Q402.7344,190.8906 402.0938,191.2188 Q401.4688,191.5469 400.9688,192.2969 Q400.4844,193.0469 400.4844,194.0781 L400.4844,195.1719 Q400.4844,196.4063 401.375,197.2344 Q402.2656,198.0469 403.8594,198.0469 Q404.7969,198.0469 405.4531,197.7969 Q405.8438,197.6406 406.2656,197.2031 Q406.5313,196.9375 406.6719,196.8594 Q406.8281,196.7813 407.0313,196.7813 Q407.3594,196.7813 407.6094,197.0469 Q407.875,197.2969 407.875,197.6406 Q407.875,197.9844 407.5313,198.3906 Q407.0313,198.9688 406.2344,199.2969 Q405.1563,199.75 403.8594,199.75 Q402.3438,199.75 401.1406,199.125 Q400.1563,198.625 399.4688,197.5625 Q398.7813,196.4844 398.7813,195.2031 L398.7813,194.0469 Q398.7813,192.7188 399.3906,191.5781 Q400.0156,190.4219 401.1094,189.8125 Q402.2031,189.1875 403.4375,189.1875 Q404.1719,189.1875 404.8125,189.3594 Q405.4688,189.5156 406.0156,189.875 Z " fill="#000000"/><text fill="#000000" font-family="sans-serif" font-size="14" lengthAdjust="spacing" textLength="153" x="423.75" y="198.8535">OrderDecisionController</text><line style="stroke:#181818;stroke-width:0.5;" x1="254.5" x2="713.5" y1="210" y2="210"/><rect fill="none" height="6" style="stroke:#595959;stroke-width:1.0;" width="6" x="261.5" y="220.3203"/><text fill="#000000" font-family="sans-serif" font-size="14" lengthAdjust="spacing" textLength="161" x="273.5" y="226.6738">repositories: Repositories</text><rect fill="none" height="6" style="stroke:#595959;stroke-width:1.0;" width="6" x="261.5" y="235.9609"/><text fill="#000000" font-family="sans-serif" font-size="14" lengthAdjust="spacing" textLength="215" x="273.5" y="242.3145">orderRepository: OrderRepository</text><line style="stroke:#181818;stroke-width:0.5;" x1="254.5" x2="713.5" y1="249.2813" y2="249.2813"/><ellipse cx="264.5" cy="262.6016" fill="#A6A6A6" rx="3" ry="3" style="stroke:#545454;stroke-width:1.0;"/><text fill="#000000" font-family="sans-serif" font-size="14" lengthAdjust="spacing" textLength="50" x="273.5" y="265.9551">create()</text><ellipse cx="264.5" cy="278.2422" fill="#A6A6A6" rx="3" ry="3" style="stroke:#545454;stroke-width:1.0;"/><text fill="#000000" font-family="sans-serif" font-size="14" lengthAdjust="spacing" textLength="89" x="273.5" y="281.5957">getOrderList()</text><ellipse cx="264.5" cy="293.8828" fill="#A6A6A6" rx="3" ry="3" style="stroke:#545454;stroke-width:1.0;"/><text fill="#000000" font-family="sans-serif" font-size="14" lengthAdjust="spacing" textLength="135" x="273.5" y="297.2363">getOrderRepository()</text><ellipse cx="264.5" cy="309.5234" fill="#A6A6A6" rx="3" ry="3" style="stroke:#545454;stroke-width:1.0;"/><text fill="#000000" font-family="sans-serif" font-size="14" lengthAdjust="spacing" textLength="435" x="273.5" y="312.877">getOrderByPropertyCodeOrderNumber(propertyCode, orderNumber)</text><ellipse cx="264.5" cy="325.1641" fill="#A6A6A6" rx="3" ry="3" style="stroke:#545454;stroke-width:1.0;"/><text fill="#000000" font-family="sans-serif" font-size="14" lengthAdjust="spacing" textLength="336" x="273.5" y="328.5176">makeDecision(propertyCode, orderNumber, decision)</text><ellipse cx="264.5" cy="340.8047" fill="#A6A6A6" rx="3" ry="3" style="stroke:#545454;stroke-width:1.0;"/><text fill="#000000" font-family="sans-serif" font-size="14" lengthAdjust="spacing" textLength="282" x="273.5" y="344.1582">getUndecidedPropertyOrders(propertyCode)</text></g><!--class Repositories--><g id="elem_Repositories"><rect codeLine="29" fill="#F1F1F1" height="94.9219" id="Repositories" rx="2.5" ry="2.5" style="stroke:#181818;stroke-width:0.5;" width="274" x="347" y="537"/><ellipse cx="440.25" cy="553" fill="#C2C2C2" rx="11" ry="11" style="stroke:#181818;stroke-width:1.0;"/><path d="M443.0156,548.875 Q443.1719,548.6563 443.3594,548.5469 Q443.5469,548.4375 443.7656,548.4375 Q444.1406,548.4375 444.375,548.7031 Q444.6094,548.9531 444.6094,549.5625 L444.6094,551.0156 Q444.6094,551.625 444.375,551.8906 Q444.1406,552.1563 443.7656,552.1563 Q443.4219,552.1563 443.2188,551.9531 Q443.0156,551.7656 442.9063,551.25 Q442.8594,550.8906 442.6719,550.7031 Q442.3438,550.3281 441.7344,550.1094 Q441.125,549.8906 440.5,549.8906 Q439.7344,549.8906 439.0938,550.2188 Q438.4688,550.5469 437.9688,551.2969 Q437.4844,552.0469 437.4844,553.0781 L437.4844,554.1719 Q437.4844,555.4063 438.375,556.2344 Q439.2656,557.0469 440.8594,557.0469 Q441.7969,557.0469 442.4531,556.7969 Q442.8438,556.6406 443.2656,556.2031 Q443.5313,555.9375 443.6719,555.8594 Q443.8281,555.7813 444.0313,555.7813 Q444.3594,555.7813 444.6094,556.0469 Q444.875,556.2969 444.875,556.6406 Q444.875,556.9844 444.5313,557.3906 Q444.0313,557.9688 443.2344,558.2969 Q442.1563,558.75 440.8594,558.75 Q439.3438,558.75 438.1406,558.125 Q437.1563,557.625 436.4688,556.5625 Q435.7813,555.4844 435.7813,554.2031 L435.7813,553.0469 Q435.7813,551.7188 436.3906,550.5781 Q437.0156,549.4219 438.1094,548.8125 Q439.2031,548.1875 440.4375,548.1875 Q441.1719,548.1875 441.8125,548.3594 Q442.4688,548.5156 443.0156,548.875 Z " fill="#000000"/><text fill="#000000" font-family="sans-serif" font-size="14" lengthAdjust="spacing" textLength="79" x="460.75" y="557.8535">Repositories</text><line style="stroke:#181818;stroke-width:0.5;" x1="348" x2="620" y1="569" y2="569"/><line style="stroke:#181818;stroke-width:0.5;" x1="348" x2="620" y1="577" y2="577"/><rect fill="#808080" height="6" style="stroke:#595959;stroke-width:1.0;" width="6" x="355" y="587.3203"/><text fill="#000000" font-family="sans-serif" font-size="14" lengthAdjust="spacing" textLength="89" x="367" y="593.6738">Repositories()</text><ellipse cx="358" cy="605.9609" fill="#A6A6A6" rx="3" ry="3" style="stroke:#545454;stroke-width:1.0;"/><text fill="#000000" font-family="sans-serif" font-size="14" lengthAdjust="spacing" textLength="170" x="367" y="609.3145">getInstance(): Repositories</text><ellipse cx="358" cy="621.6016" fill="#A6A6A6" rx="3" ry="3" style="stroke:#545454;stroke-width:1.0;"/><text fill="#000000" font-family="sans-serif" font-size="14" lengthAdjust="spacing" textLength="248" x="367" y="624.9551">getOrderRepository(): OrderRepository</text></g><!--class OrderRepository--><g id="elem_OrderRepository"><rect codeLine="35" fill="#F1F1F1" height="94.9219" id="OrderRepository" rx="2.5" ry="2.5" style="stroke:#181818;stroke-width:0.5;" width="506" x="236" y="708"/><ellipse cx="432.25" cy="724" fill="#C2C2C2" rx="11" ry="11" style="stroke:#181818;stroke-width:1.0;"/><path d="M435.0156,719.875 Q435.1719,719.6563 435.3594,719.5469 Q435.5469,719.4375 435.7656,719.4375 Q436.1406,719.4375 436.375,719.7031 Q436.6094,719.9531 436.6094,720.5625 L436.6094,722.0156 Q436.6094,722.625 436.375,722.8906 Q436.1406,723.1563 435.7656,723.1563 Q435.4219,723.1563 435.2188,722.9531 Q435.0156,722.7656 434.9063,722.25 Q434.8594,721.8906 434.6719,721.7031 Q434.3438,721.3281 433.7344,721.1094 Q433.125,720.8906 432.5,720.8906 Q431.7344,720.8906 431.0938,721.2188 Q430.4688,721.5469 429.9688,722.2969 Q429.4844,723.0469 429.4844,724.0781 L429.4844,725.1719 Q429.4844,726.4063 430.375,727.2344 Q431.2656,728.0469 432.8594,728.0469 Q433.7969,728.0469 434.4531,727.7969 Q434.8438,727.6406 435.2656,727.2031 Q435.5313,726.9375 435.6719,726.8594 Q435.8281,726.7813 436.0313,726.7813 Q436.3594,726.7813 436.6094,727.0469 Q436.875,727.2969 436.875,727.6406 Q436.875,727.9844 436.5313,728.3906 Q436.0313,728.9688 435.2344,729.2969 Q434.1563,729.75 432.8594,729.75 Q431.3438,729.75 430.1406,729.125 Q429.1563,728.625 428.4688,727.5625 Q427.7813,726.4844 427.7813,725.2031 L427.7813,724.0469 Q427.7813,722.7188 428.3906,721.5781 Q429.0156,720.4219 430.1094,719.8125 Q431.2031,719.1875 432.4375,719.1875 Q433.1719,719.1875 433.8125,719.3594 Q434.4688,719.5156 435.0156,719.875 Z " fill="#000000"/><text fill="#000000" font-family="sans-serif" font-size="14" lengthAdjust="spacing" textLength="105" x="452.75" y="728.8535">OrderRepository</text><line style="stroke:#181818;stroke-width:0.5;" x1="237" x2="741" y1="740" y2="740"/><line style="stroke:#181818;stroke-width:0.5;" x1="237" x2="741" y1="748" y2="748"/><ellipse cx="247" cy="761.3203" fill="#A6A6A6" rx="3" ry="3" style="stroke:#545454;stroke-width:1.0;"/><text fill="#000000" font-family="sans-serif" font-size="14" lengthAdjust="spacing" textLength="157" x="256" y="764.6738">getOrders(): List&lt;Order&gt;</text><ellipse cx="247" cy="776.9609" fill="#A6A6A6" rx="3" ry="3" style="stroke:#545454;stroke-width:1.0;"/><text fill="#000000" font-family="sans-serif" font-size="14" lengthAdjust="spacing" textLength="480" x="256" y="780.3145">getOrderByPropertyCodeOrderNumber(propertyCode, orderNumber): Order</text><ellipse cx="247" cy="792.6016" fill="#A6A6A6" rx="3" ry="3" style="stroke:#545454;stroke-width:1.0;"/><text fill="#000000" font-family="sans-serif" font-size="14" lengthAdjust="spacing" textLength="419" x="256" y="795.9551">getUndecidedPropertyOrders(propertyCode): List&lt;PropertyOrder&gt;</text></g><!--class Order--><g id="elem_Order"><rect codeLine="41" fill="#F1F1F1" height="141.8438" id="Order" rx="2.5" ry="2.5" style="stroke:#181818;stroke-width:0.5;" width="176" x="124" y="879"/><ellipse cx="189.25" cy="895" fill="#C2C2C2" rx="11" ry="11" style="stroke:#181818;stroke-width:1.0;"/><path d="M192.0156,890.875 Q192.1719,890.6563 192.3594,890.5469 Q192.5469,890.4375 192.7656,890.4375 Q193.1406,890.4375 193.375,890.7031 Q193.6094,890.9531 193.6094,891.5625 L193.6094,893.0156 Q193.6094,893.625 193.375,893.8906 Q193.1406,894.1563 192.7656,894.1563 Q192.4219,894.1563 192.2188,893.9531 Q192.0156,893.7656 191.9063,893.25 Q191.8594,892.8906 191.6719,892.7031 Q191.3438,892.3281 190.7344,892.1094 Q190.125,891.8906 189.5,891.8906 Q188.7344,891.8906 188.0938,892.2188 Q187.4688,892.5469 186.9688,893.2969 Q186.4844,894.0469 186.4844,895.0781 L186.4844,896.1719 Q186.4844,897.4063 187.375,898.2344 Q188.2656,899.0469 189.8594,899.0469 Q190.7969,899.0469 191.4531,898.7969 Q191.8438,898.6406 192.2656,898.2031 Q192.5313,897.9375 192.6719,897.8594 Q192.8281,897.7813 193.0313,897.7813 Q193.3594,897.7813 193.6094,898.0469 Q193.875,898.2969 193.875,898.6406 Q193.875,898.9844 193.5313,899.3906 Q193.0313,899.9688 192.2344,900.2969 Q191.1563,900.75 189.8594,900.75 Q188.3438,900.75 187.1406,900.125 Q186.1563,899.625 185.4688,898.5625 Q184.7813,897.4844 184.7813,896.2031 L184.7813,895.0469 Q184.7813,893.7188 185.3906,892.5781 Q186.0156,891.4219 187.1094,890.8125 Q188.2031,890.1875 189.4375,890.1875 Q190.1719,890.1875 190.8125,890.3594 Q191.4688,890.5156 192.0156,890.875 Z " fill="#000000"/><text fill="#000000" font-family="sans-serif" font-size="14" lengthAdjust="spacing" textLength="37" x="209.75" y="899.8535">Order</text><line style="stroke:#181818;stroke-width:0.5;" x1="125" x2="299" y1="911" y2="911"/><rect fill="none" height="6" style="stroke:#595959;stroke-width:1.0;" width="6" x="132" y="921.3203"/><text fill="#000000" font-family="sans-serif" font-size="14" lengthAdjust="spacing" textLength="115" x="144" y="927.6738">String ownerName</text><rect fill="none" height="6" style="stroke:#595959;stroke-width:1.0;" width="6" x="132" y="936.9609"/><text fill="#000000" font-family="sans-serif" font-size="14" lengthAdjust="spacing" textLength="102" x="144" y="943.3145">int orderNumber</text><rect fill="none" height="6" style="stroke:#595959;stroke-width:1.0;" width="6" x="132" y="952.6016"/><text fill="#000000" font-family="sans-serif" font-size="14" lengthAdjust="spacing" textLength="93" x="144" y="958.9551">String decision</text><line style="stroke:#181818;stroke-width:0.5;" x1="125" x2="299" y1="965.9219" y2="965.9219"/><ellipse cx="135" cy="979.2422" fill="#A6A6A6" rx="3" ry="3" style="stroke:#545454;stroke-width:1.0;"/><text fill="#000000" font-family="sans-serif" font-size="14" lengthAdjust="spacing" textLength="150" x="144" y="982.5957">makeDecision(decision)</text><ellipse cx="135" cy="994.8828" fill="#A6A6A6" rx="3" ry="3" style="stroke:#545454;stroke-width:1.0;"/><text fill="#000000" font-family="sans-serif" font-size="14" lengthAdjust="spacing" textLength="111" x="144" y="998.2363">getOwnerName():</text><ellipse cx="135" cy="1010.5234" fill="#A6A6A6" rx="3" ry="3" style="stroke:#545454;stroke-width:1.0;"/><text fill="#000000" font-family="sans-serif" font-size="14" lengthAdjust="spacing" textLength="120" x="144" y="1013.877">getOrderNumber():</text></g><!--class EmailService--><g id="elem_EmailService"><rect codeLine="50" fill="#F1F1F1" height="79.2813" id="EmailService" rx="2.5" ry="2.5" style="stroke:#181818;stroke-width:0.5;" width="357" x="735.5" y="545"/><ellipse cx="869.25" cy="561" fill="#C2C2C2" rx="11" ry="11" style="stroke:#181818;stroke-width:1.0;"/><path d="M872.0156,556.875 Q872.1719,556.6563 872.3594,556.5469 Q872.5469,556.4375 872.7656,556.4375 Q873.1406,556.4375 873.375,556.7031 Q873.6094,556.9531 873.6094,557.5625 L873.6094,559.0156 Q873.6094,559.625 873.375,559.8906 Q873.1406,560.1563 872.7656,560.1563 Q872.4219,560.1563 872.2188,559.9531 Q872.0156,559.7656 871.9063,559.25 Q871.8594,558.8906 871.6719,558.7031 Q871.3438,558.3281 870.7344,558.1094 Q870.125,557.8906 869.5,557.8906 Q868.7344,557.8906 868.0938,558.2188 Q867.4688,558.5469 866.9688,559.2969 Q866.4844,560.0469 866.4844,561.0781 L866.4844,562.1719 Q866.4844,563.4063 867.375,564.2344 Q868.2656,565.0469 869.8594,565.0469 Q870.7969,565.0469 871.4531,564.7969 Q871.8438,564.6406 872.2656,564.2031 Q872.5313,563.9375 872.6719,563.8594 Q872.8281,563.7813 873.0313,563.7813 Q873.3594,563.7813 873.6094,564.0469 Q873.875,564.2969 873.875,564.6406 Q873.875,564.9844 873.5313,565.3906 Q873.0313,565.9688 872.2344,566.2969 Q871.1563,566.75 869.8594,566.75 Q868.3438,566.75 867.1406,566.125 Q866.1563,565.625 865.4688,564.5625 Q864.7813,563.4844 864.7813,562.2031 L864.7813,561.0469 Q864.7813,559.7188 865.3906,558.5781 Q866.0156,557.4219 867.1094,556.8125 Q868.2031,556.1875 869.4375,556.1875 Q870.1719,556.1875 870.8125,556.3594 Q871.4688,556.5156 872.0156,556.875 Z " fill="#000000"/><text fill="#000000" font-family="sans-serif" font-size="14" lengthAdjust="spacing" textLength="81" x="889.75" y="565.8535">EmailService</text><line style="stroke:#181818;stroke-width:0.5;" x1="736.5" x2="1091.5" y1="577" y2="577"/><line style="stroke:#181818;stroke-width:0.5;" x1="736.5" x2="1091.5" y1="585" y2="585"/><ellipse cx="746.5" cy="598.3203" fill="#A6A6A6" rx="3" ry="3" style="stroke:#545454;stroke-width:1.0;"/><text fill="#000000" font-family="sans-serif" font-size="14" lengthAdjust="spacing" textLength="328" x="755.5" y="601.6738">sendRejectedOrderEmail(clientName, orderNumber)</text><ellipse cx="746.5" cy="613.9609" fill="#A6A6A6" rx="3" ry="3" style="stroke:#545454;stroke-width:1.0;"/><text fill="#000000" font-family="sans-serif" font-size="14" lengthAdjust="spacing" textLength="331" x="755.5" y="617.3145">sendAcceptedOrderEmail(clientName, orderNumber)</text></g><!--link OrderDecisionUI to OrderDecisionController--><g id="link_OrderDecisionUI_OrderDecisionController"><path codeLine="55" d="M258.88,55.04 C288.86,82.8 340.99,131.07 387.54,174.18 " fill="none" id="OrderDecisionUI-to-OrderDecisionController" style="stroke:#181818;stroke-width:1.0;stroke-dasharray:7.0,7.0;"/><polygon fill="#181818" points="391.46,177.8,387.5745,168.75,387.7915,174.4027,382.1388,174.6196,391.46,177.8" style="stroke:#181818;stroke-width:1.0;"/></g><!--link OrderDecisionController to Repositories--><g id="link_OrderDecisionController_Repositories"><path codeLine="57" d="M484,351.14 C484,408.64 484,482.55 484,531.39 " fill="none" id="OrderDecisionController-to-Repositories" style="stroke:#181818;stroke-width:1.0;"/><polygon fill="#181818" points="484,536.63,488,527.63,484,531.63,480,527.63,484,536.63" style="stroke:#181818;stroke-width:1.0;"/></g><!--link OrderDecisionController to EmailService--><g id="link_OrderDecisionController_EmailService"><path codeLine="58" d="M599.8,351.14 C683.29,412.88 792.33,493.52 857.56,541.76 " fill="none" id="OrderDecisionController-to-EmailService" style="stroke:#181818;stroke-width:1.0;"/><polygon fill="#181818" points="861.79,544.89,856.936,536.3204,857.7712,541.9152,852.1763,542.7505,861.79,544.89" style="stroke:#181818;stroke-width:1.0;"/></g><!--link Repositories to Repositories--><g id="link_Repositories_Repositories"><path codeLine="59" d="M621.3,570.17 C641.98,572.38 656,577.16 656,584.5 C656,591.21 644.29,595.78 626.48,598.2 " fill="none" id="Repositories-to-Repositories" style="stroke:#181818;stroke-width:1.0;"/><polygon fill="#181818" points="621.3,598.83,630.7154,601.7196,626.2638,598.2292,629.7541,593.7775,621.3,598.83" style="stroke:#181818;stroke-width:1.0;"/><text fill="#000000" font-family="sans-serif" font-size="13" lengthAdjust="spacing" textLength="49" x="662" y="589.2686">instance</text></g><!--link Repositories to OrderRepository--><g id="link_Repositories_OrderRepository"><path codeLine="60" d="M485.38,632.13 C486.03,654.02 486.8,680.18 487.47,702.69 " fill="none" id="Repositories-to-OrderRepository" style="stroke:#181818;stroke-width:1.0;"/><polygon fill="#181818" points="487.62,707.73,491.3353,698.6088,487.4629,702.7325,483.3393,698.8601,487.62,707.73" style="stroke:#181818;stroke-width:1.0;"/><text fill="#000000" font-family="sans-serif" font-size="13" lengthAdjust="spacing" textLength="91" x="488" y="674.7686">orderRepository</text><text fill="#000000" font-family="sans-serif" font-size="13" lengthAdjust="spacing" textLength="7" x="479.8728" y="697.158">1</text></g><!--link OrderRepository to Order--><g id="link_OrderRepository_Order"><path codeLine="61" d="M421.95,803.1 C386.65,827.63 342.82,858.09 304.35,884.82 " fill="none" id="OrderRepository-to-Order" style="stroke:#181818;stroke-width:1.0;"/><polygon fill="#181818" points="300.17,887.73,309.8409,885.8661,304.2722,884.8713,305.267,879.3026,300.17,887.73" style="stroke:#181818;stroke-width:1.0;"/><text fill="#000000" font-family="sans-serif" font-size="13" lengthAdjust="spacing" textLength="36" x="377" y="845.7686">orders</text><text fill="#000000" font-family="sans-serif" font-size="13" lengthAdjust="spacing" textLength="5" x="307.962" y="879.5749">*</text></g><!--link OrderDecisionUI to Agent--><g id="link_OrderDecisionUI_Agent"><path codeLine="62" d="M231.4,55.27 C224.58,116.17 206.03,281.95 195.52,375.83 " fill="none" id="OrderDecisionUI-to-Agent" style="stroke:#181818;stroke-width:1.0;stroke-dasharray:7.0,7.0;"/><polygon fill="#181818" points="194.96,380.8,199.9375,372.3015,195.5169,375.8311,191.9872,371.4105,194.96,380.8" style="stroke:#181818;stroke-width:1.0;"/></g><!--link Agent to Order--><g id="link_Agent_Order"><path codeLine="64" d="M190.95,507.05 C195.36,599.59 203.64,773.54 208.4,873.38 " fill="none" id="Agent-to-Order" style="stroke:#181818;stroke-width:1.0;"/><polygon fill="#181818" points="208.65,878.67,212.2087,869.4865,208.4074,873.6759,204.2181,869.8747,208.65,878.67" style="stroke:#181818;stroke-width:1.0;"/><text fill="#000000" font-family="sans-serif" font-size="13" lengthAdjust="spacing" textLength="193" x="201" y="674.7686">makeDecision (accept or decline)</text></g><!--SRC=[fLHDRzim3BthLmWz9LipeDTW291sEnGObg9PVu0ciOuMMV94fOLHxBzFaYrRSjnY7xuO8X_9noTIU9IwOPRLj3RQy8CrDL1dJq1my3IC7ra5UzSge1QuOxfIEG0FJ9XdgIlwo1Jc7YKrkBO1sXZLXWCXN354khC2x2VW4gNH3xVqXVnAhcq5shqGwh_LtjcGLhCQ2aDpC1g-dkhlO0ixr4oghH0M4AFZlOMV9q27tymUuCwQ1goJW8jbvwxP4HADHTEvsniZu9AQGB6hSKb5ZrcEF8iMRensrYW5blRKBJG6fJFMLrlJ- -pK-MFwmTokktoZWNG4kGNc8D6jm4NO5ubkQXj3fvxhzYxhR3VszNh7_onFAloWWqs0IALZMIoIP6Bc-YG5SrlMqgr6Fu7SQp8ZwwmQvzgMbpWw-j935Wp1GUoFyRZvVrrxBd-dKy-XW6mcJT1oPSopzZM7lP7QvJGAQBgycIi_lzTTokkLATNeM_VcWTZdi8vxi4-IGv8MGOjx-E6V4H0nBe8MN4c_zY7nt1o6e2tdqFnXa6SmVM5M7rQRrtPsWiwMUUM3YY5x2vYtIug9dcIXQohxAPxWFF3Ywk9iBDTqyboGAI96lkiZ4nxdLOWlB27n5mDJK7xtTC6Yu3vJc93mU2_9Rm00]--></g></svg>