<?xml version="1.0" encoding="us-ascii" standalone="no"?><svg xmlns="http://www.w3.org/2000/svg" xmlns:xlink="http://www.w3.org/1999/xlink" contentStyleType="text/css" height="1482px" preserveAspectRatio="none" style="width:1564px;height:1482px;background:#FFFFFF;" version="1.1" viewBox="0 0 1564 1482" width="1564px" zoomAndPan="magnify"><defs/><g><rect fill="#FFFFFF" height="1302.25" style="stroke:#181818;stroke-width:1.0;" width="10" x="36.5" y="90.6406"/><rect fill="#FFFFFF" height="335.3984" style="stroke:#181818;stroke-width:1.0;" width="10" x="307.5" y="125.6875"/><rect fill="#FFFFFF" height="28.5234" style="stroke:#181818;stroke-width:1.0;" width="10" x="307.5" y="489.6094"/><rect fill="#FFFFFF" height="830.2344" style="stroke:#181818;stroke-width:1.0;" width="10" x="307.5" y="546.6563"/><rect fill="#FFFFFF" height="230.3047" style="stroke:#181818;stroke-width:1.0;" width="10" x="659.5" y="164.2109"/><rect fill="#FFFFFF" height="715.8516" style="stroke:#181818;stroke-width:1.0;" width="10" x="659.5" y="575.1797"/><rect fill="#FFFFFF" height="28.5234" style="stroke:#181818;stroke-width:1.0;" width="10" x="811.5" y="194.8516"/><rect fill="#FFFFFF" height="28.5234" style="stroke:#181818;stroke-width:1.0;" width="10" x="918.5" y="251.8984"/><rect fill="#FFFFFF" height="28.5234" style="stroke:#181818;stroke-width:1.0;" width="10" x="1095.5" y="337.4688"/><rect fill="#FFFFFF" height="28.5234" style="stroke:#181818;stroke-width:1.0;" width="10" x="1095.5" y="603.7031"/><rect fill="#FFFFFF" height="28.5234" style="stroke:#181818;stroke-width:1.0;" width="10" x="1095.5" y="983.7969"/><rect fill="#FFFFFF" height="28.5234" style="stroke:#181818;stroke-width:1.0;" width="10" x="1212" y="660.75"/><rect fill="#FFFFFF" height="28.5234" style="stroke:#181818;stroke-width:1.0;" width="10" x="1212" y="717.7969"/><rect fill="#FFFFFF" height="28.5234" style="stroke:#181818;stroke-width:1.0;" width="10" x="1212" y="774.8438"/><rect fill="#FFFFFF" height="28.5234" style="stroke:#181818;stroke-width:1.0;" width="10" x="1343" y="1105.8906"/><rect fill="#FFFFFF" height="28.5234" style="stroke:#181818;stroke-width:1.0;" width="10" x="1343" y="1162.9375"/><rect fill="#FFFFFF" height="28.5234" style="stroke:#181818;stroke-width:1.0;" width="10" x="1475" y="855.4141"/><rect fill="#FFFFFF" height="28.5234" style="stroke:#181818;stroke-width:1.0;" width="10" x="1475" y="926.75"/><rect fill="#FFFFFF" height="28.5234" style="stroke:#181818;stroke-width:1.0;" width="10" x="1475" y="1219.9844"/><rect fill="none" height="975.375" style="stroke:#000000;stroke-width:1.5;" width="1547.5" x="10" y="409.5156"/><rect fill="none" height="445.1406" style="stroke:#000000;stroke-width:1.5;" width="988.5" x="559" y="818.3672"/><rect fill="none" height="187.6641" style="stroke:#000000;stroke-width:1.5;" width="968.5" x="569" y="1068.8438"/><line style="stroke:#181818;stroke-width:0.5;stroke-dasharray:5.0,5.0;" x1="41" x2="41" y1="80.6406" y2="1401.8906"/><line style="stroke:#181818;stroke-width:0.5;stroke-dasharray:5.0,5.0;" x1="312" x2="312" y1="80.6406" y2="1401.8906"/><line style="stroke:#181818;stroke-width:0.5;stroke-dasharray:5.0,5.0;" x1="664" x2="664" y1="164.0078" y2="1401.8906"/><line style="stroke:#181818;stroke-width:0.5;stroke-dasharray:5.0,5.0;" x1="816" x2="816" y1="80.6406" y2="1401.8906"/><line style="stroke:#181818;stroke-width:0.5;stroke-dasharray:5.0,5.0;" x1="923" x2="923" y1="80.6406" y2="1401.8906"/><line style="stroke:#181818;stroke-width:0.5;stroke-dasharray:5.0,5.0;" x1="1100.5" x2="1100.5" y1="80.6406" y2="1401.8906"/><line style="stroke:#181818;stroke-width:0.5;stroke-dasharray:5.0,5.0;" x1="1216.5" x2="1216.5" y1="80.6406" y2="1401.8906"/><line style="stroke:#181818;stroke-width:0.5;stroke-dasharray:5.0,5.0;" x1="1347.5" x2="1347.5" y1="80.6406" y2="1401.8906"/><line style="stroke:#181818;stroke-width:0.5;stroke-dasharray:5.0,5.0;" x1="1479.5" x2="1479.5" y1="80.6406" y2="1401.8906"/><text fill="#000000" font-family="sans-serif" font-size="14" lengthAdjust="spacing" textLength="37" x="20" y="77.6738">Agent</text><ellipse cx="41.5" cy="13.5" fill="#E3E3E3" rx="8" ry="8" style="stroke:#181818;stroke-width:0.5;"/><path d="M41.5,21.5 L41.5,48.5 M28.5,29.5 L54.5,29.5 M41.5,48.5 L28.5,63.5 M41.5,48.5 L54.5,63.5 " fill="none" style="stroke:#181818;stroke-width:0.5;"/><text fill="#000000" font-family="sans-serif" font-size="14" lengthAdjust="spacing" textLength="37" x="20" y="1413.5645">Agent</text><ellipse cx="41.5" cy="1425.0313" fill="#E3E3E3" rx="8" ry="8" style="stroke:#181818;stroke-width:0.5;"/><path d="M41.5,1433.0313 L41.5,1460.0313 M28.5,1441.0313 L54.5,1441.0313 M41.5,1460.0313 L28.5,1475.0313 M41.5,1460.0313 L54.5,1475.0313 " fill="none" style="stroke:#181818;stroke-width:0.5;"/><rect fill="#E3E3E3" height="29.6406" rx="2.5" ry="2.5" style="stroke:#181818;stroke-width:0.5;" width="121" x="252" y="50"/><text fill="#000000" font-family="sans-serif" font-size="14" lengthAdjust="spacing" textLength="107" x="259" y="69.6738">:OrderDecisionUI</text><rect fill="#E3E3E3" height="29.6406" rx="2.5" ry="2.5" style="stroke:#181818;stroke-width:0.5;" width="121" x="252" y="1400.8906"/><text fill="#000000" font-family="sans-serif" font-size="14" lengthAdjust="spacing" textLength="107" x="259" y="1420.5645">:OrderDecisionUI</text><rect fill="#E3E3E3" height="29.6406" rx="2.5" ry="2.5" style="stroke:#181818;stroke-width:0.5;" width="171" x="579" y="1400.8906"/><text fill="#000000" font-family="sans-serif" font-size="14" lengthAdjust="spacing" textLength="157" x="586" y="1420.5645">:OrderDecisionController</text><rect fill="#E3E3E3" height="29.6406" rx="2.5" ry="2.5" style="stroke:#181818;stroke-width:0.5;" width="97" x="768" y="50"/><text fill="#000000" font-family="sans-serif" font-size="14" lengthAdjust="spacing" textLength="83" x="775" y="69.6738">:Repositories</text><rect fill="#E3E3E3" height="29.6406" rx="2.5" ry="2.5" style="stroke:#181818;stroke-width:0.5;" width="97" x="768" y="1400.8906"/><text fill="#000000" font-family="sans-serif" font-size="14" lengthAdjust="spacing" textLength="83" x="775" y="1420.5645">:Repositories</text><rect fill="#E3E3E3" height="45.2813" rx="2.5" ry="2.5" style="stroke:#181818;stroke-width:0.5;" width="97" x="875" y="34.3594"/><text fill="#000000" font-family="sans-serif" font-size="14" lengthAdjust="spacing" textLength="74" x="886.5" y="54.0332">repositories</text><text fill="#000000" font-family="sans-serif" font-size="14" lengthAdjust="spacing" textLength="83" x="882" y="69.6738">:Repositories</text><rect fill="#E3E3E3" height="45.2813" rx="2.5" ry="2.5" style="stroke:#181818;stroke-width:0.5;" width="97" x="875" y="1400.8906"/><text fill="#000000" font-family="sans-serif" font-size="14" lengthAdjust="spacing" textLength="74" x="886.5" y="1420.5645">repositories</text><text fill="#000000" font-family="sans-serif" font-size="14" lengthAdjust="spacing" textLength="83" x="882" y="1436.2051">:Repositories</text><rect fill="#E3E3E3" height="45.2813" rx="2.5" ry="2.5" style="stroke:#181818;stroke-width:0.5;" width="120" x="1040.5" y="34.3594"/><text fill="#000000" font-family="sans-serif" font-size="14" lengthAdjust="spacing" textLength="106" x="1047.5" y="54.0332">orderRepository:</text><text fill="#000000" font-family="sans-serif" font-size="14" lengthAdjust="spacing" textLength="105" x="1048" y="69.6738">OrderRepository</text><rect fill="#E3E3E3" height="45.2813" rx="2.5" ry="2.5" style="stroke:#181818;stroke-width:0.5;" width="120" x="1040.5" y="1400.8906"/><text fill="#000000" font-family="sans-serif" font-size="14" lengthAdjust="spacing" textLength="106" x="1047.5" y="1420.5645">orderRepository:</text><text fill="#000000" font-family="sans-serif" font-size="14" lengthAdjust="spacing" textLength="105" x="1048" y="1436.2051">OrderRepository</text><rect fill="#E3E3E3" height="29.6406" rx="2.5" ry="2.5" style="stroke:#181818;stroke-width:0.5;" width="93" x="1170.5" y="50"/><text fill="#000000" font-family="sans-serif" font-size="14" lengthAdjust="spacing" textLength="79" x="1177.5" y="69.6738">order: Order</text><rect fill="#E3E3E3" height="29.6406" rx="2.5" ry="2.5" style="stroke:#181818;stroke-width:0.5;" width="93" x="1170.5" y="1400.8906"/><text fill="#000000" font-family="sans-serif" font-size="14" lengthAdjust="spacing" textLength="79" x="1177.5" y="1420.5645">order: Order</text><rect fill="#E3E3E3" height="29.6406" rx="2.5" ry="2.5" style="stroke:#181818;stroke-width:0.5;" width="149" x="1273.5" y="50"/><text fill="#000000" font-family="sans-serif" font-size="14" lengthAdjust="spacing" textLength="135" x="1280.5" y="69.6738">propertyOrder: Order</text><rect fill="#E3E3E3" height="29.6406" rx="2.5" ry="2.5" style="stroke:#181818;stroke-width:0.5;" width="149" x="1273.5" y="1400.8906"/><text fill="#000000" font-family="sans-serif" font-size="14" lengthAdjust="spacing" textLength="135" x="1280.5" y="1420.5645">propertyOrder: Order</text><rect fill="#E3E3E3" height="29.6406" rx="2.5" ry="2.5" style="stroke:#181818;stroke-width:0.5;" width="95" x="1432.5" y="50"/><text fill="#000000" font-family="sans-serif" font-size="14" lengthAdjust="spacing" textLength="81" x="1439.5" y="69.6738">EmailService</text><rect fill="#E3E3E3" height="29.6406" rx="2.5" ry="2.5" style="stroke:#181818;stroke-width:0.5;" width="95" x="1432.5" y="1400.8906"/><text fill="#000000" font-family="sans-serif" font-size="14" lengthAdjust="spacing" textLength="81" x="1439.5" y="1420.5645">EmailService</text><rect fill="#FFFFFF" height="1302.25" style="stroke:#181818;stroke-width:1.0;" width="10" x="36.5" y="90.6406"/><rect fill="#FFFFFF" height="335.3984" style="stroke:#181818;stroke-width:1.0;" width="10" x="307.5" y="125.6875"/><rect fill="#FFFFFF" height="28.5234" style="stroke:#181818;stroke-width:1.0;" width="10" x="307.5" y="489.6094"/><rect fill="#FFFFFF" height="830.2344" style="stroke:#181818;stroke-width:1.0;" width="10" x="307.5" y="546.6563"/><rect fill="#FFFFFF" height="230.3047" style="stroke:#181818;stroke-width:1.0;" width="10" x="659.5" y="164.2109"/><rect fill="#FFFFFF" height="715.8516" style="stroke:#181818;stroke-width:1.0;" width="10" x="659.5" y="575.1797"/><rect fill="#FFFFFF" height="28.5234" style="stroke:#181818;stroke-width:1.0;" width="10" x="811.5" y="194.8516"/><rect fill="#FFFFFF" height="28.5234" style="stroke:#181818;stroke-width:1.0;" width="10" x="918.5" y="251.8984"/><rect fill="#FFFFFF" height="28.5234" style="stroke:#181818;stroke-width:1.0;" width="10" x="1095.5" y="337.4688"/><rect fill="#FFFFFF" height="28.5234" style="stroke:#181818;stroke-width:1.0;" width="10" x="1095.5" y="603.7031"/><rect fill="#FFFFFF" height="28.5234" style="stroke:#181818;stroke-width:1.0;" width="10" x="1095.5" y="983.7969"/><rect fill="#FFFFFF" height="28.5234" style="stroke:#181818;stroke-width:1.0;" width="10" x="1212" y="660.75"/><rect fill="#FFFFFF" height="28.5234" style="stroke:#181818;stroke-width:1.0;" width="10" x="1212" y="717.7969"/><rect fill="#FFFFFF" height="28.5234" style="stroke:#181818;stroke-width:1.0;" width="10" x="1212" y="774.8438"/><rect fill="#FFFFFF" height="28.5234" style="stroke:#181818;stroke-width:1.0;" width="10" x="1343" y="1105.8906"/><rect fill="#FFFFFF" height="28.5234" style="stroke:#181818;stroke-width:1.0;" width="10" x="1343" y="1162.9375"/><rect fill="#FFFFFF" height="28.5234" style="stroke:#181818;stroke-width:1.0;" width="10" x="1475" y="855.4141"/><rect fill="#FFFFFF" height="28.5234" style="stroke:#181818;stroke-width:1.0;" width="10" x="1475" y="926.75"/><rect fill="#FFFFFF" height="28.5234" style="stroke:#181818;stroke-width:1.0;" width="10" x="1475" y="1219.9844"/><polygon fill="#181818" points="295.5,121.6875,305.5,125.6875,295.5,129.6875,299.5,125.6875" style="stroke:#181818;stroke-width:1.0;"/><line style="stroke:#181818;stroke-width:1.0;" x1="46.5" x2="301.5" y1="125.6875" y2="125.6875"/><text fill="#000000" font-family="sans-serif" font-size="13" font-weight="bold" lengthAdjust="spacing" textLength="7" x="53.5" y="113.6709">1</text><text fill="#000000" font-family="sans-serif" font-size="13" lengthAdjust="spacing" textLength="151" x="64.5" y="106.4092">requests to see properties</text><text fill="#000000" font-family="sans-serif" font-size="13" lengthAdjust="spacing" textLength="124" x="64.5" y="120.9326">available for purchase</text><polygon fill="#181818" points="567,150.2109,577,154.2109,567,158.2109,571,154.2109" style="stroke:#181818;stroke-width:1.0;"/><line style="stroke:#181818;stroke-width:1.0;" x1="317.5" x2="573" y1="154.2109" y2="154.2109"/><text fill="#000000" font-family="sans-serif" font-size="13" font-weight="bold" lengthAdjust="spacing" textLength="7" x="324.5" y="149.4561">2</text><text fill="#000000" font-family="sans-serif" font-size="13" lengthAdjust="spacing" textLength="36" x="335.5" y="149.4561">create</text><rect fill="#E3E3E3" height="29.6406" rx="2.5" ry="2.5" style="stroke:#181818;stroke-width:0.5;" width="171" x="579" y="133.6875"/><text fill="#000000" font-family="sans-serif" font-size="14" lengthAdjust="spacing" textLength="157" x="586" y="153.3613">:OrderDecisionController</text><polygon fill="#181818" points="799.5,190.8516,809.5,194.8516,799.5,198.8516,803.5,194.8516" style="stroke:#181818;stroke-width:1.0;"/><line style="stroke:#181818;stroke-width:1.0;" x1="669.5" x2="805.5" y1="194.8516" y2="194.8516"/><text fill="#000000" font-family="sans-serif" font-size="13" font-weight="bold" lengthAdjust="spacing" textLength="7" x="676.5" y="190.0967">3</text><text fill="#000000" font-family="sans-serif" font-size="13" lengthAdjust="spacing" textLength="75" x="687.5" y="190.0967">getInstance()</text><polygon fill="#181818" points="680.5,219.375,670.5,223.375,680.5,227.375,676.5,223.375" style="stroke:#181818;stroke-width:1.0;"/><line style="stroke:#181818;stroke-width:1.0;stroke-dasharray:2.0,2.0;" x1="674.5" x2="815.5" y1="223.375" y2="223.375"/><text fill="#000000" font-family="sans-serif" font-size="13" font-weight="bold" lengthAdjust="spacing" textLength="7" x="686.5" y="218.6201">4</text><text fill="#000000" font-family="sans-serif" font-size="13" lengthAdjust="spacing" textLength="67" x="697.5" y="218.6201">repositories</text><polygon fill="#181818" points="906.5,247.8984,916.5,251.8984,906.5,255.8984,910.5,251.8984" style="stroke:#181818;stroke-width:1.0;"/><line style="stroke:#181818;stroke-width:1.0;" x1="669.5" x2="912.5" y1="251.8984" y2="251.8984"/><text fill="#000000" font-family="sans-serif" font-size="13" font-weight="bold" lengthAdjust="spacing" textLength="7" x="676.5" y="247.1436">5</text><text fill="#000000" font-family="sans-serif" font-size="13" lengthAdjust="spacing" textLength="120" x="687.5" y="247.1436">getOrderRepository()</text><polygon fill="#181818" points="680.5,276.4219,670.5,280.4219,680.5,284.4219,676.5,280.4219" style="stroke:#181818;stroke-width:1.0;"/><line style="stroke:#181818;stroke-width:1.0;stroke-dasharray:2.0,2.0;" x1="674.5" x2="922.5" y1="280.4219" y2="280.4219"/><text fill="#000000" font-family="sans-serif" font-size="13" font-weight="bold" lengthAdjust="spacing" textLength="7" x="686.5" y="275.667">6</text><text fill="#000000" font-family="sans-serif" font-size="13" lengthAdjust="spacing" textLength="91" x="697.5" y="275.667">orderRepository</text><polygon fill="#181818" points="647.5,304.9453,657.5,308.9453,647.5,312.9453,651.5,308.9453" style="stroke:#181818;stroke-width:1.0;"/><line style="stroke:#181818;stroke-width:1.0;" x1="317.5" x2="653.5" y1="308.9453" y2="308.9453"/><text fill="#000000" font-family="sans-serif" font-size="13" font-weight="bold" lengthAdjust="spacing" textLength="7" x="324.5" y="304.1904">7</text><text fill="#000000" font-family="sans-serif" font-size="13" lengthAdjust="spacing" textLength="79" x="335.5" y="304.1904">getOrderList()</text><polygon fill="#181818" points="1083.5,333.4688,1093.5,337.4688,1083.5,341.4688,1087.5,337.4688" style="stroke:#181818;stroke-width:1.0;"/><line style="stroke:#181818;stroke-width:1.0;" x1="669.5" x2="1089.5" y1="337.4688" y2="337.4688"/><text fill="#000000" font-family="sans-serif" font-size="13" font-weight="bold" lengthAdjust="spacing" textLength="7" x="676.5" y="332.7139">8</text><text fill="#000000" font-family="sans-serif" font-size="13" lengthAdjust="spacing" textLength="65" x="687.5" y="332.7139">getOrders()</text><polygon fill="#181818" points="680.5,361.9922,670.5,365.9922,680.5,369.9922,676.5,365.9922" style="stroke:#181818;stroke-width:1.0;"/><line style="stroke:#181818;stroke-width:1.0;stroke-dasharray:2.0,2.0;" x1="674.5" x2="1099.5" y1="365.9922" y2="365.9922"/><text fill="#000000" font-family="sans-serif" font-size="13" font-weight="bold" lengthAdjust="spacing" textLength="7" x="686.5" y="361.2373">9</text><text fill="#000000" font-family="sans-serif" font-size="13" lengthAdjust="spacing" textLength="36" x="697.5" y="361.2373">orders</text><polygon fill="#181818" points="328.5,390.5156,318.5,394.5156,328.5,398.5156,324.5,394.5156" style="stroke:#181818;stroke-width:1.0;"/><line style="stroke:#181818;stroke-width:1.0;stroke-dasharray:2.0,2.0;" x1="322.5" x2="663.5" y1="394.5156" y2="394.5156"/><text fill="#000000" font-family="sans-serif" font-size="13" font-weight="bold" lengthAdjust="spacing" textLength="14" x="334.5" y="389.7607">10</text><text fill="#000000" font-family="sans-serif" font-size="13" lengthAdjust="spacing" textLength="36" x="352.5" y="389.7607">orders</text><path d="M10,409.5156 L71,409.5156 L71,416.0391 L61,426.0391 L10,426.0391 L10,409.5156 " fill="#EEEEEE" style="stroke:#000000;stroke-width:1.5;"/><rect fill="none" height="975.375" style="stroke:#000000;stroke-width:1.5;" width="1547.5" x="10" y="409.5156"/><text fill="#000000" font-family="sans-serif" font-size="13" font-weight="bold" lengthAdjust="spacing" textLength="16" x="25" y="422.2842">alt</text><text fill="#000000" font-family="sans-serif" font-size="11" font-weight="bold" lengthAdjust="spacing" textLength="172" x="86" y="421.4736">[if that exists purchase orders]</text><polygon fill="#181818" points="57.5,457.0859,47.5,461.0859,57.5,465.0859,53.5,461.0859" style="stroke:#181818;stroke-width:1.0;"/><line style="stroke:#181818;stroke-width:1.0;stroke-dasharray:2.0,2.0;" x1="51.5" x2="311.5" y1="461.0859" y2="461.0859"/><text fill="#000000" font-family="sans-serif" font-size="13" font-weight="bold" lengthAdjust="spacing" textLength="14" x="63.5" y="449.0693">11</text><text fill="#000000" font-family="sans-serif" font-size="13" lengthAdjust="spacing" textLength="162" x="81.5" y="441.8076">displays the list of purchase</text><text fill="#000000" font-family="sans-serif" font-size="13" lengthAdjust="spacing" textLength="155" x="81.5" y="456.3311">orders grouped by property</text><polygon fill="#181818" points="295.5,485.6094,305.5,489.6094,295.5,493.6094,299.5,489.6094" style="stroke:#181818;stroke-width:1.0;"/><line style="stroke:#181818;stroke-width:1.0;" x1="46.5" x2="301.5" y1="489.6094" y2="489.6094"/><text fill="#000000" font-family="sans-serif" font-size="13" font-weight="bold" lengthAdjust="spacing" textLength="14" x="53.5" y="484.8545">12</text><text fill="#000000" font-family="sans-serif" font-size="13" lengthAdjust="spacing" textLength="136" x="71.5" y="484.8545">select a purchase order</text><polygon fill="#181818" points="57.5,514.1328,47.5,518.1328,57.5,522.1328,53.5,518.1328" style="stroke:#181818;stroke-width:1.0;"/><line style="stroke:#181818;stroke-width:1.0;stroke-dasharray:2.0,2.0;" x1="51.5" x2="311.5" y1="518.1328" y2="518.1328"/><text fill="#000000" font-family="sans-serif" font-size="13" font-weight="bold" lengthAdjust="spacing" textLength="14" x="63.5" y="513.3779">13</text><text fill="#000000" font-family="sans-serif" font-size="13" lengthAdjust="spacing" textLength="209" x="81.5" y="513.3779">asks for decision (accept or decline)</text><polygon fill="#181818" points="295.5,542.6563,305.5,546.6563,295.5,550.6563,299.5,546.6563" style="stroke:#181818;stroke-width:1.0;"/><line style="stroke:#181818;stroke-width:1.0;" x1="46.5" x2="301.5" y1="546.6563" y2="546.6563"/><text fill="#000000" font-family="sans-serif" font-size="13" font-weight="bold" lengthAdjust="spacing" textLength="14" x="53.5" y="541.9014">14</text><text fill="#000000" font-family="sans-serif" font-size="13" lengthAdjust="spacing" textLength="224" x="71.5" y="541.9014">makes the decision (accept or decline)</text><polygon fill="#181818" points="647.5,571.1797,657.5,575.1797,647.5,579.1797,651.5,575.1797" style="stroke:#181818;stroke-width:1.0;"/><line style="stroke:#181818;stroke-width:1.0;" x1="317.5" x2="653.5" y1="575.1797" y2="575.1797"/><text fill="#000000" font-family="sans-serif" font-size="13" font-weight="bold" lengthAdjust="spacing" textLength="14" x="324.5" y="570.4248">15</text><text fill="#000000" font-family="sans-serif" font-size="13" lengthAdjust="spacing" textLength="305" x="342.5" y="570.4248">makeDecision(propertyCode, orderNumber, decision)</text><polygon fill="#181818" points="1083.5,599.7031,1093.5,603.7031,1083.5,607.7031,1087.5,603.7031" style="stroke:#181818;stroke-width:1.0;"/><line style="stroke:#181818;stroke-width:1.0;" x1="669.5" x2="1089.5" y1="603.7031" y2="603.7031"/><text fill="#000000" font-family="sans-serif" font-size="13" font-weight="bold" lengthAdjust="spacing" textLength="14" x="676.5" y="598.9482">16</text><text fill="#000000" font-family="sans-serif" font-size="13" lengthAdjust="spacing" textLength="389" x="694.5" y="598.9482">getOrderByPropertyCodeOrderNumber(propertyCode, orderNumber)</text><polygon fill="#181818" points="680.5,628.2266,670.5,632.2266,680.5,636.2266,676.5,632.2266" style="stroke:#181818;stroke-width:1.0;"/><line style="stroke:#181818;stroke-width:1.0;stroke-dasharray:2.0,2.0;" x1="674.5" x2="1099.5" y1="632.2266" y2="632.2266"/><text fill="#000000" font-family="sans-serif" font-size="13" font-weight="bold" lengthAdjust="spacing" textLength="14" x="686.5" y="627.4717">17</text><text fill="#000000" font-family="sans-serif" font-size="13" lengthAdjust="spacing" textLength="66" x="704.5" y="627.4717">return order</text><polygon fill="#181818" points="1200,656.75,1210,660.75,1200,664.75,1204,660.75" style="stroke:#181818;stroke-width:1.0;"/><line style="stroke:#181818;stroke-width:1.0;" x1="669.5" x2="1206" y1="660.75" y2="660.75"/><text fill="#000000" font-family="sans-serif" font-size="13" font-weight="bold" lengthAdjust="spacing" textLength="14" x="676.5" y="655.9951">18</text><text fill="#000000" font-family="sans-serif" font-size="13" lengthAdjust="spacing" textLength="138" x="694.5" y="655.9951">makeDecision(decision)</text><polygon fill="#181818" points="680.5,685.2734,670.5,689.2734,680.5,693.2734,676.5,689.2734" style="stroke:#181818;stroke-width:1.0;"/><line style="stroke:#181818;stroke-width:1.0;stroke-dasharray:2.0,2.0;" x1="674.5" x2="1216" y1="689.2734" y2="689.2734"/><text fill="#000000" font-family="sans-serif" font-size="13" font-weight="bold" lengthAdjust="spacing" textLength="14" x="686.5" y="684.5186">19</text><text fill="#000000" font-family="sans-serif" font-size="13" lengthAdjust="spacing" textLength="85" x="704.5" y="684.5186">return decision</text><polygon fill="#181818" points="1200,713.7969,1210,717.7969,1200,721.7969,1204,717.7969" style="stroke:#181818;stroke-width:1.0;"/><line style="stroke:#181818;stroke-width:1.0;" x1="669.5" x2="1206" y1="717.7969" y2="717.7969"/><text fill="#000000" font-family="sans-serif" font-size="13" font-weight="bold" lengthAdjust="spacing" textLength="14" x="676.5" y="713.042">20</text><text fill="#000000" font-family="sans-serif" font-size="13" lengthAdjust="spacing" textLength="97" x="694.5" y="713.042">getOwnerName()</text><polygon fill="#181818" points="680.5,742.3203,670.5,746.3203,680.5,750.3203,676.5,746.3203" style="stroke:#181818;stroke-width:1.0;"/><line style="stroke:#181818;stroke-width:1.0;stroke-dasharray:2.0,2.0;" x1="674.5" x2="1216" y1="746.3203" y2="746.3203"/><text fill="#000000" font-family="sans-serif" font-size="13" font-weight="bold" lengthAdjust="spacing" textLength="14" x="686.5" y="741.5654">21</text><text fill="#000000" font-family="sans-serif" font-size="13" lengthAdjust="spacing" textLength="65" x="704.5" y="741.5654">clientName</text><polygon fill="#181818" points="1200,770.8438,1210,774.8438,1200,778.8438,1204,774.8438" style="stroke:#181818;stroke-width:1.0;"/><line style="stroke:#181818;stroke-width:1.0;" x1="669.5" x2="1206" y1="774.8438" y2="774.8438"/><text fill="#000000" font-family="sans-serif" font-size="13" font-weight="bold" lengthAdjust="spacing" textLength="14" x="676.5" y="770.0889">22</text><text fill="#000000" font-family="sans-serif" font-size="13" lengthAdjust="spacing" textLength="103" x="694.5" y="770.0889">getOrderNumber()</text><polygon fill="#181818" points="680.5,799.3672,670.5,803.3672,680.5,807.3672,676.5,803.3672" style="stroke:#181818;stroke-width:1.0;"/><line style="stroke:#181818;stroke-width:1.0;stroke-dasharray:2.0,2.0;" x1="674.5" x2="1216" y1="803.3672" y2="803.3672"/><text fill="#000000" font-family="sans-serif" font-size="13" font-weight="bold" lengthAdjust="spacing" textLength="14" x="686.5" y="798.6123">23</text><text fill="#000000" font-family="sans-serif" font-size="13" lengthAdjust="spacing" textLength="74" x="704.5" y="798.6123">orderNumber</text><path d="M559,818.3672 L620,818.3672 L620,824.8906 L610,834.8906 L559,834.8906 L559,818.3672 " fill="#EEEEEE" style="stroke:#000000;stroke-width:1.5;"/><rect fill="none" height="445.1406" style="stroke:#000000;stroke-width:1.5;" width="988.5" x="559" y="818.3672"/><text fill="#000000" font-family="sans-serif" font-size="13" font-weight="bold" lengthAdjust="spacing" textLength="16" x="574" y="831.1357">alt</text><text fill="#000000" font-family="sans-serif" font-size="11" font-weight="bold" lengthAdjust="spacing" textLength="81" x="635" y="830.3252">[rejects order]</text><polygon fill="#181818" points="1463,851.4141,1473,855.4141,1463,859.4141,1467,855.4141" style="stroke:#181818;stroke-width:1.0;"/><line style="stroke:#181818;stroke-width:1.0;" x1="669.5" x2="1469" y1="855.4141" y2="855.4141"/><text fill="#000000" font-family="sans-serif" font-size="13" font-weight="bold" lengthAdjust="spacing" textLength="14" x="676.5" y="850.6592">24</text><text fill="#000000" font-family="sans-serif" font-size="13" lengthAdjust="spacing" textLength="299" x="694.5" y="850.6592">sendRejectedOrderEmail(clientName, orderNumber)</text><polygon fill="#181818" points="680.5,879.9375,670.5,883.9375,680.5,887.9375,676.5,883.9375" style="stroke:#181818;stroke-width:1.0;"/><line style="stroke:#181818;stroke-width:1.0;stroke-dasharray:2.0,2.0;" x1="674.5" x2="1479" y1="883.9375" y2="883.9375"/><text fill="#000000" font-family="sans-serif" font-size="13" font-weight="bold" lengthAdjust="spacing" textLength="14" x="686.5" y="879.1826">25</text><text fill="#000000" font-family="sans-serif" font-size="13" lengthAdjust="spacing" textLength="4" x="704.5" y="879.1826">&#160;</text><line style="stroke:#000000;stroke-width:1.0;stroke-dasharray:2.0,2.0;" x1="559" x2="1547.5" y1="892.9375" y2="892.9375"/><text fill="#000000" font-family="sans-serif" font-size="11" font-weight="bold" lengthAdjust="spacing" textLength="85" x="564" y="902.8955">[accepts order]</text><polygon fill="#181818" points="1463,922.75,1473,926.75,1463,930.75,1467,926.75" style="stroke:#181818;stroke-width:1.0;"/><line style="stroke:#181818;stroke-width:1.0;" x1="669.5" x2="1469" y1="926.75" y2="926.75"/><text fill="#000000" font-family="sans-serif" font-size="13" font-weight="bold" lengthAdjust="spacing" textLength="14" x="676.5" y="921.9951">26</text><text fill="#000000" font-family="sans-serif" font-size="13" lengthAdjust="spacing" textLength="303" x="694.5" y="921.9951">sendAcceptedOrderEmail(clientName, orderNumber)</text><polygon fill="#181818" points="680.5,951.2734,670.5,955.2734,680.5,959.2734,676.5,955.2734" style="stroke:#181818;stroke-width:1.0;"/><line style="stroke:#181818;stroke-width:1.0;stroke-dasharray:2.0,2.0;" x1="674.5" x2="1479" y1="955.2734" y2="955.2734"/><text fill="#000000" font-family="sans-serif" font-size="13" font-weight="bold" lengthAdjust="spacing" textLength="14" x="686.5" y="950.5186">27</text><text fill="#000000" font-family="sans-serif" font-size="13" lengthAdjust="spacing" textLength="4" x="704.5" y="950.5186">&#160;</text><polygon fill="#181818" points="1083.5,979.7969,1093.5,983.7969,1083.5,987.7969,1087.5,983.7969" style="stroke:#181818;stroke-width:1.0;"/><line style="stroke:#181818;stroke-width:1.0;" x1="669.5" x2="1089.5" y1="983.7969" y2="983.7969"/><text fill="#000000" font-family="sans-serif" font-size="13" font-weight="bold" lengthAdjust="spacing" textLength="14" x="676.5" y="979.042">28</text><text fill="#000000" font-family="sans-serif" font-size="13" lengthAdjust="spacing" textLength="252" x="694.5" y="979.042">getUndecidedPropertyOrders(propertyCode)</text><polygon fill="#181818" points="680.5,1008.3203,670.5,1012.3203,680.5,1016.3203,676.5,1012.3203" style="stroke:#181818;stroke-width:1.0;"/><line style="stroke:#181818;stroke-width:1.0;" x1="674.5" x2="1099.5" y1="1012.3203" y2="1012.3203"/><text fill="#000000" font-family="sans-serif" font-size="13" font-weight="bold" lengthAdjust="spacing" textLength="14" x="686.5" y="1007.5654">29</text><text fill="#000000" font-family="sans-serif" font-size="13" lengthAdjust="spacing" textLength="86" x="704.5" y="1007.5654">propertyOrders</text><line style="stroke:#181818;stroke-width:1.0;stroke-dasharray:2.0,2.0;" x1="669.5" x2="711.5" y1="1040.8438" y2="1040.8438"/><line style="stroke:#181818;stroke-width:1.0;stroke-dasharray:2.0,2.0;" x1="711.5" x2="711.5" y1="1040.8438" y2="1053.8438"/><line style="stroke:#181818;stroke-width:1.0;stroke-dasharray:2.0,2.0;" x1="670.5" x2="711.5" y1="1053.8438" y2="1053.8438"/><polygon fill="#181818" points="680.5,1049.8438,670.5,1053.8438,680.5,1057.8438,676.5,1053.8438" style="stroke:#181818;stroke-width:1.0;"/><text fill="#000000" font-family="sans-serif" font-size="13" font-weight="bold" lengthAdjust="spacing" textLength="14" x="676.5" y="1036.0889">30</text><text fill="#000000" font-family="sans-serif" font-size="13" lengthAdjust="spacing" textLength="110" x="694.5" y="1036.0889">sortPropertyOrders</text><path d="M569,1068.8438 L642,1068.8438 L642,1075.3672 L632,1085.3672 L569,1085.3672 L569,1068.8438 " fill="#EEEEEE" style="stroke:#000000;stroke-width:1.5;"/><rect fill="none" height="187.6641" style="stroke:#000000;stroke-width:1.5;" width="968.5" x="569" y="1068.8438"/><text fill="#000000" font-family="sans-serif" font-size="13" font-weight="bold" lengthAdjust="spacing" textLength="28" x="584" y="1081.6123">loop</text><text fill="#000000" font-family="sans-serif" font-size="11" font-weight="bold" lengthAdjust="spacing" textLength="191" x="657" y="1080.8018">[propertyOrder in propertyOrders]</text><polygon fill="#181818" points="1331,1101.8906,1341,1105.8906,1331,1109.8906,1335,1105.8906" style="stroke:#181818;stroke-width:1.0;"/><line style="stroke:#181818;stroke-width:1.0;" x1="669.5" x2="1337" y1="1105.8906" y2="1105.8906"/><text fill="#000000" font-family="sans-serif" font-size="13" font-weight="bold" lengthAdjust="spacing" textLength="14" x="676.5" y="1101.1357">31</text><text fill="#000000" font-family="sans-serif" font-size="13" lengthAdjust="spacing" textLength="40" x="694.5" y="1101.1357">reject()</text><polygon fill="#181818" points="680.5,1130.4141,670.5,1134.4141,680.5,1138.4141,676.5,1134.4141" style="stroke:#181818;stroke-width:1.0;"/><line style="stroke:#181818;stroke-width:1.0;stroke-dasharray:2.0,2.0;" x1="674.5" x2="1347" y1="1134.4141" y2="1134.4141"/><text fill="#000000" font-family="sans-serif" font-size="13" font-weight="bold" lengthAdjust="spacing" textLength="14" x="686.5" y="1129.6592">32</text><text fill="#000000" font-family="sans-serif" font-size="13" lengthAdjust="spacing" textLength="4" x="704.5" y="1129.6592">&#160;</text><polygon fill="#181818" points="1331,1158.9375,1341,1162.9375,1331,1166.9375,1335,1162.9375" style="stroke:#181818;stroke-width:1.0;"/><line style="stroke:#181818;stroke-width:1.0;" x1="669.5" x2="1337" y1="1162.9375" y2="1162.9375"/><text fill="#000000" font-family="sans-serif" font-size="13" font-weight="bold" lengthAdjust="spacing" textLength="14" x="676.5" y="1158.1826">33</text><text fill="#000000" font-family="sans-serif" font-size="13" lengthAdjust="spacing" textLength="97" x="694.5" y="1158.1826">getOwnerName()</text><polygon fill="#181818" points="680.5,1187.4609,670.5,1191.4609,680.5,1195.4609,676.5,1191.4609" style="stroke:#181818;stroke-width:1.0;"/><line style="stroke:#181818;stroke-width:1.0;stroke-dasharray:2.0,2.0;" x1="674.5" x2="1347" y1="1191.4609" y2="1191.4609"/><text fill="#000000" font-family="sans-serif" font-size="13" font-weight="bold" lengthAdjust="spacing" textLength="14" x="686.5" y="1186.7061">34</text><text fill="#000000" font-family="sans-serif" font-size="13" lengthAdjust="spacing" textLength="65" x="704.5" y="1186.7061">clientName</text><polygon fill="#181818" points="1463,1215.9844,1473,1219.9844,1463,1223.9844,1467,1219.9844" style="stroke:#181818;stroke-width:1.0;"/><line style="stroke:#181818;stroke-width:1.0;" x1="669.5" x2="1469" y1="1219.9844" y2="1219.9844"/><text fill="#000000" font-family="sans-serif" font-size="13" font-weight="bold" lengthAdjust="spacing" textLength="14" x="676.5" y="1215.2295">35</text><text fill="#000000" font-family="sans-serif" font-size="13" lengthAdjust="spacing" textLength="299" x="694.5" y="1215.2295">sendRejectedOrderEmail(clientName, orderNumber)</text><polygon fill="#181818" points="680.5,1244.5078,670.5,1248.5078,680.5,1252.5078,676.5,1248.5078" style="stroke:#181818;stroke-width:1.0;"/><line style="stroke:#181818;stroke-width:1.0;stroke-dasharray:2.0,2.0;" x1="674.5" x2="1479" y1="1248.5078" y2="1248.5078"/><text fill="#000000" font-family="sans-serif" font-size="13" font-weight="bold" lengthAdjust="spacing" textLength="14" x="686.5" y="1243.7529">36</text><text fill="#000000" font-family="sans-serif" font-size="13" lengthAdjust="spacing" textLength="4" x="704.5" y="1243.7529">&#160;</text><polygon fill="#181818" points="328.5,1287.0313,318.5,1291.0313,328.5,1295.0313,324.5,1291.0313" style="stroke:#181818;stroke-width:1.0;"/><line style="stroke:#181818;stroke-width:1.0;stroke-dasharray:2.0,2.0;" x1="322.5" x2="663.5" y1="1291.0313" y2="1291.0313"/><text fill="#000000" font-family="sans-serif" font-size="13" font-weight="bold" lengthAdjust="spacing" textLength="14" x="334.5" y="1286.2764">37</text><text fill="#000000" font-family="sans-serif" font-size="13" lengthAdjust="spacing" textLength="4" x="352.5" y="1286.2764">&#160;</text><polygon fill="#181818" points="57.5,1315.5547,47.5,1319.5547,57.5,1323.5547,53.5,1319.5547" style="stroke:#181818;stroke-width:1.0;"/><line style="stroke:#181818;stroke-width:1.0;stroke-dasharray:2.0,2.0;" x1="51.5" x2="306.5" y1="1319.5547" y2="1319.5547"/><text fill="#000000" font-family="sans-serif" font-size="13" font-weight="bold" lengthAdjust="spacing" textLength="14" x="63.5" y="1314.7998">38</text><text fill="#000000" font-family="sans-serif" font-size="13" lengthAdjust="spacing" textLength="106" x="81.5" y="1314.7998">operation success</text><line style="stroke:#000000;stroke-width:1.0;stroke-dasharray:2.0,2.0;" x1="10" x2="1557.5" y1="1328.5547" y2="1328.5547"/><text fill="#000000" font-family="sans-serif" font-size="11" font-weight="bold" lengthAdjust="spacing" textLength="171" x="15" y="1338.5127">[if there's no purchase orders]</text><polygon fill="#181818" points="57.5,1372.8906,47.5,1376.8906,57.5,1380.8906,53.5,1376.8906" style="stroke:#181818;stroke-width:1.0;"/><line style="stroke:#181818;stroke-width:1.0;stroke-dasharray:2.0,2.0;" x1="51.5" x2="311.5" y1="1376.8906" y2="1376.8906"/><text fill="#000000" font-family="sans-serif" font-size="13" font-weight="bold" lengthAdjust="spacing" textLength="14" x="63.5" y="1364.874">39</text><text fill="#000000" font-family="sans-serif" font-size="13" lengthAdjust="spacing" textLength="116" x="81.5" y="1357.6123">shows an empty list</text><text fill="#000000" font-family="sans-serif" font-size="13" lengthAdjust="spacing" textLength="132" x="81.5" y="1372.1357">and the operation ends</text><!--SRC=[pLR9Rjim4BthAmQvn0dY7p2A0cwIGu2qDhBSVA6biSrQ8bMIIgA_xv3QQSfHRl599kUzUPo5Gtta8cUAPP198UE3aXc2KGL6kjt9MNnaUtmsPOgWC3PCxDE-WJwmHBvpiOSTIpL64IkC54MsHHL5bmUU8EoaD5lv4R7OI0KNopqASm5Cm_BkTqGiXiSyPyB0nMAb4bHt67FDfNXzS5Ql3-UCRgKmIgOfAcTy-_Bqw9a_OIur9zSSjRDf5yfdRaz3UeSGrKDin2d1-d7vCaH8AwdZNMp4QhZYSDvQW69HsNJMGvjSoHoLALU-xReojY7cRyoW2sq4zACFcF-a8CA2ylUlG6qq60aQ4MewEXPi17jZF6NRrEPBGLwe-C0edvQZPQLKk0LY8quRw-jhueqLqcuqj7MPS4lsP_zPJ23sHB17yo0qrLQCiwiMqrA54jPQXHZdjJfxv2vtBIJ1QTIDQ9llIgMNmP1OLnpjieDsShmw2Idgy5sKEz-FN1loUYBH4zPJgqCY_KfiBNoUHZhKseD13B9LofhIwu5xmAf6M6g0xy0Sc07yuBP0c_9hS6qyYCzMz08IhlEKbLJB1uIKG21t7MmZAY3ibInoJ61RDjLU-YAegFr6qPZILGVCqp7U3Aqife_QDL1ItqymOt6CESbpQoaNU3L1GSQEM9tjKw8ptLaJDNVbh0d1hKpmfZhJ7tTLtxHkhaRR-FDI-rMkUmvM7VsuOzzTi9JE5AL2KoXHfoUQNfVrCRpuZ0LXrT6xpu221XeM4N1Tn-rTK2XOXhEl-AJiqmoriCdkkYpLAUbT8Y5mq6ylSUSSsuPM-9TQIFSpqzTqdz6qUKRrncEq_IQI9mV0nF6uxLbtp53D39Jt-JnlF-RpaUsU-bC3fDSCL2ttXLCi7U3xdEBJndqLjd8JJDRzjuKUTEnegKoQ86tr35ulEfeyIGRJfERIKfdr25ygPJvq1boCUc-7VDqcLU5IUtGJsMkBzR0lWWVnCKCl8xq_V4USzngu1IPA-FwjvzfF97KVDX-z1qNu7N4oZ6t2cR6pKnVKbvgo7hcsTgyDL7YfGSZJnyOfapx8TmrC06QvAQlt1ZsPHU96TEU7n19-EDeZMlmF]--></g></svg>