<?xml version="1.0" encoding="us-ascii" standalone="no"?><svg xmlns="http://www.w3.org/2000/svg" xmlns:xlink="http://www.w3.org/1999/xlink" contentStyleType="text/css" height="1027.8px" preserveAspectRatio="none" style="width:917px;height:1027px;background:#FFFFFF;" version="1.1" viewBox="0 0 917 1027" width="917.1px" zoomAndPan="magnify"><defs/><g><text fill="#000000" font-family="sans-serif" font-size="12.6" font-weight="bold" lengthAdjust="spacing" textLength="139.5" x="382.725" y="20.4064">US011 - Class Diagram</text><!--class OrderRepository--><g id="elem_OrderRepository"><rect codeLine="7" fill="#F1F1F1" height="141.7359" id="OrderRepository" rx="2.25" ry="2.25" style="stroke:#181818;stroke-width:0.45;" width="274.5" x="6.3" y="599.9766"/><ellipse cx="92.475" cy="614.3766" fill="#C2C2C2" rx="9.9" ry="9.9" style="stroke:#181818;stroke-width:0.9;"/><path d="M94.9641,610.6641 Q95.1047,610.4672 95.2734,610.3688 Q95.4422,610.2703 95.6391,610.2703 Q95.9766,610.2703 96.1875,610.5094 Q96.3984,610.7344 96.3984,611.2828 L96.3984,612.5906 Q96.3984,613.1391 96.1875,613.3781 Q95.9766,613.6172 95.6391,613.6172 Q95.3297,613.6172 95.1469,613.4344 Q94.9641,613.2656 94.8656,612.8016 Q94.8234,612.4781 94.6547,612.3094 Q94.3594,611.9719 93.8109,611.775 Q93.2625,611.5781 92.7,611.5781 Q92.0109,611.5781 91.4344,611.8734 Q90.8719,612.1688 90.4219,612.8438 Q89.9859,613.5188 89.9859,614.4469 L89.9859,615.4313 Q89.9859,616.5422 90.7875,617.2875 Q91.5891,618.0188 93.0234,618.0188 Q93.8672,618.0188 94.4578,617.7938 Q94.8094,617.6531 95.1891,617.2594 Q95.4281,617.0203 95.5547,616.95 Q95.6953,616.8797 95.8781,616.8797 Q96.1734,616.8797 96.3984,617.1188 Q96.6375,617.3438 96.6375,617.6531 Q96.6375,617.9625 96.3281,618.3281 Q95.8781,618.8484 95.1609,619.1438 Q94.1906,619.5516 93.0234,619.5516 Q91.6594,619.5516 90.5766,618.9891 Q89.6906,618.5391 89.0719,617.5828 Q88.4531,616.6125 88.4531,615.4594 L88.4531,614.4188 Q88.4531,613.2234 89.0016,612.1969 Q89.5641,611.1563 90.5484,610.6078 Q91.5328,610.0453 92.6438,610.0453 Q93.3047,610.0453 93.8813,610.2 Q94.4719,610.3406 94.9641,610.6641 Z " fill="#000000"/><text fill="#000000" font-family="sans-serif" font-size="12.6" lengthAdjust="spacing" textLength="94.5" x="110.925" y="618.7447">OrderRepository</text><line style="stroke:#181818;stroke-width:0.45;" x1="7.2" x2="279.9" y1="628.7766" y2="628.7766"/><rect fill="none" height="5.4" style="stroke:#595959;stroke-width:0.9;" width="5.4" x="13.5" y="638.0648"/><text fill="#000000" font-family="sans-serif" font-size="12.6" lengthAdjust="spacing" textLength="101.7" x="24.3" y="643.783">List&lt;Order&gt; order</text><line style="stroke:#181818;stroke-width:0.45;" x1="7.2" x2="279.9" y1="650.0531" y2="650.0531"/><ellipse cx="16.2" cy="662.0414" fill="#A6A6A6" rx="2.7" ry="2.7" style="stroke:#545454;stroke-width:0.9;"/><text fill="#000000" font-family="sans-serif" font-size="12.6" lengthAdjust="spacing" textLength="117.9" x="24.3" y="665.0596">addNewOrder(order)</text><ellipse cx="16.2" cy="676.118" fill="#A6A6A6" rx="2.7" ry="2.7" style="stroke:#545454;stroke-width:0.9;"/><text fill="#000000" font-family="sans-serif" font-size="12.6" lengthAdjust="spacing" textLength="237.6" x="24.3" y="679.1361">validateOrder(announcement, orderPrice)</text><ellipse cx="16.2" cy="690.1945" fill="#A6A6A6" rx="2.7" ry="2.7" style="stroke:#545454;stroke-width:0.9;"/><text fill="#000000" font-family="sans-serif" font-size="12.6" lengthAdjust="spacing" textLength="65.7" x="24.3" y="693.2127">valid(order)</text><ellipse cx="16.2" cy="704.2711" fill="#A6A6A6" rx="2.7" ry="2.7" style="stroke:#545454;stroke-width:0.9;"/><text fill="#000000" font-family="sans-serif" font-size="12.6" lengthAdjust="spacing" textLength="66.6" x="24.3" y="707.2893">getOrders()</text><ellipse cx="16.2" cy="718.3477" fill="#A6A6A6" rx="2.7" ry="2.7" style="stroke:#545454;stroke-width:0.9;"/><text fill="#000000" font-family="sans-serif" font-size="12.6" lengthAdjust="spacing" textLength="251.1" x="24.3" y="721.3658">getOrdersByAnnouncement(announcement)</text><ellipse cx="16.2" cy="732.4242" fill="#A6A6A6" rx="2.7" ry="2.7" style="stroke:#545454;stroke-width:0.9;"/><text fill="#000000" font-family="sans-serif" font-size="12.6" lengthAdjust="spacing" textLength="61.2" x="24.3" y="735.4424">add(order)</text></g><!--class Order--><g id="elem_Order"><rect codeLine="17" fill="#F1F1F1" height="226.1953" id="Order" rx="2.25" ry="2.25" style="stroke:#181818;stroke-width:0.45;" width="219.6" x="33.75" y="796.1766"/><ellipse cx="123.075" cy="810.5766" fill="#C2C2C2" rx="9.9" ry="9.9" style="stroke:#181818;stroke-width:0.9;"/><path d="M125.5641,806.8641 Q125.7047,806.6672 125.8734,806.5688 Q126.0422,806.4703 126.2391,806.4703 Q126.5766,806.4703 126.7875,806.7094 Q126.9984,806.9344 126.9984,807.4828 L126.9984,808.7906 Q126.9984,809.3391 126.7875,809.5781 Q126.5766,809.8172 126.2391,809.8172 Q125.9297,809.8172 125.7469,809.6344 Q125.5641,809.4656 125.4656,809.0016 Q125.4234,808.6781 125.2547,808.5094 Q124.9594,808.1719 124.4109,807.975 Q123.8625,807.7781 123.3,807.7781 Q122.6109,807.7781 122.0344,808.0734 Q121.4719,808.3688 121.0219,809.0438 Q120.5859,809.7188 120.5859,810.6469 L120.5859,811.6313 Q120.5859,812.7422 121.3875,813.4875 Q122.1891,814.2188 123.6234,814.2188 Q124.4672,814.2188 125.0578,813.9938 Q125.4094,813.8531 125.7891,813.4594 Q126.0281,813.2203 126.1547,813.15 Q126.2953,813.0797 126.4781,813.0797 Q126.7734,813.0797 126.9984,813.3188 Q127.2375,813.5438 127.2375,813.8531 Q127.2375,814.1625 126.9281,814.5281 Q126.4781,815.0484 125.7609,815.3438 Q124.7906,815.7516 123.6234,815.7516 Q122.2594,815.7516 121.1766,815.1891 Q120.2906,814.7391 119.6719,813.7828 Q119.0531,812.8125 119.0531,811.6594 L119.0531,810.6188 Q119.0531,809.4234 119.6016,808.3969 Q120.1641,807.3563 121.1484,806.8078 Q122.1328,806.2453 123.2438,806.2453 Q123.9047,806.2453 124.4813,806.4 Q125.0719,806.5406 125.5641,806.8641 Z " fill="#000000"/><text fill="#000000" font-family="sans-serif" font-size="12.6" lengthAdjust="spacing" textLength="33.3" x="141.525" y="814.9447">Order</text><line style="stroke:#181818;stroke-width:0.45;" x1="34.65" x2="252.45" y1="824.9766" y2="824.9766"/><rect fill="none" height="5.4" style="stroke:#595959;stroke-width:0.9;" width="5.4" x="40.95" y="834.2648"/><text fill="#000000" font-family="sans-serif" font-size="12.6" lengthAdjust="spacing" textLength="34.2" x="51.75" y="839.983">status</text><rect fill="none" height="5.4" style="stroke:#595959;stroke-width:0.9;" width="5.4" x="40.95" y="848.3414"/><text fill="#000000" font-family="sans-serif" font-size="12.6" lengthAdjust="spacing" textLength="101.7" x="51.75" y="854.0596">double orderPrice</text><rect fill="none" height="5.4" style="stroke:#595959;stroke-width:0.9;" width="5.4" x="40.95" y="862.418"/><text fill="#000000" font-family="sans-serif" font-size="12.6" lengthAdjust="spacing" textLength="66.6" x="51.75" y="868.1361">String email</text><rect fill="none" height="5.4" style="stroke:#595959;stroke-width:0.9;" width="5.4" x="40.95" y="876.4945"/><text fill="#000000" font-family="sans-serif" font-size="12.6" lengthAdjust="spacing" textLength="59.4" x="51.75" y="882.2127">int orderID</text><line style="stroke:#181818;stroke-width:0.45;" x1="34.65" x2="252.45" y1="888.4828" y2="888.4828"/><ellipse cx="43.65" cy="900.4711" fill="#A6A6A6" rx="2.7" ry="2.7" style="stroke:#545454;stroke-width:0.9;"/><text fill="#000000" font-family="sans-serif" font-size="12.6" lengthAdjust="spacing" textLength="112.5" x="51.75" y="903.4893">getAnnouncement()</text><ellipse cx="43.65" cy="914.5477" fill="#A6A6A6" rx="2.7" ry="2.7" style="stroke:#545454;stroke-width:0.9;"/><text fill="#000000" font-family="sans-serif" font-size="12.6" lengthAdjust="spacing" textLength="196.2" x="51.75" y="917.5658">setAnnouncement(announcement)</text><ellipse cx="43.65" cy="928.6242" fill="#A6A6A6" rx="2.7" ry="2.7" style="stroke:#545454;stroke-width:0.9;"/><text fill="#000000" font-family="sans-serif" font-size="12.6" lengthAdjust="spacing" textLength="89.1" x="51.75" y="931.6424">getOrderPrice()</text><ellipse cx="43.65" cy="942.7008" fill="#A6A6A6" rx="2.7" ry="2.7" style="stroke:#545454;stroke-width:0.9;"/><text fill="#000000" font-family="sans-serif" font-size="12.6" lengthAdjust="spacing" textLength="147.6" x="51.75" y="945.7189">setOrderPrice(orderPrice)</text><ellipse cx="43.65" cy="956.7773" fill="#A6A6A6" rx="2.7" ry="2.7" style="stroke:#545454;stroke-width:0.9;"/><text fill="#000000" font-family="sans-serif" font-size="12.6" lengthAdjust="spacing" textLength="57.6" x="51.75" y="959.7955">getEmail()</text><ellipse cx="43.65" cy="970.8539" fill="#A6A6A6" rx="2.7" ry="2.7" style="stroke:#545454;stroke-width:0.9;"/><text fill="#000000" font-family="sans-serif" font-size="12.6" lengthAdjust="spacing" textLength="86.4" x="51.75" y="973.8721">setEmail(email)</text><ellipse cx="43.65" cy="984.9305" fill="#A6A6A6" rx="2.7" ry="2.7" style="stroke:#545454;stroke-width:0.9;"/><text fill="#000000" font-family="sans-serif" font-size="12.6" lengthAdjust="spacing" textLength="63" x="51.75" y="987.9486">getStatus()</text><ellipse cx="43.65" cy="999.007" fill="#A6A6A6" rx="2.7" ry="2.7" style="stroke:#545454;stroke-width:0.9;"/><text fill="#000000" font-family="sans-serif" font-size="12.6" lengthAdjust="spacing" textLength="96.3" x="51.75" y="1002.0252">setStatus(status)</text><ellipse cx="43.65" cy="1013.0836" fill="#A6A6A6" rx="2.7" ry="2.7" style="stroke:#545454;stroke-width:0.9;"/><text fill="#000000" font-family="sans-serif" font-size="12.6" lengthAdjust="spacing" textLength="72" x="51.75" y="1016.1018">getOrderID()</text></g><!--class Announcement--><g id="elem_Announcement"><rect codeLine="33" fill="#F1F1F1" height="141.7359" id="Announcement" rx="2.25" ry="2.25" style="stroke:#181818;stroke-width:0.45;" width="198" x="399.15" y="838.4766"/><ellipse cx="451.575" cy="852.8766" fill="#C2C2C2" rx="9.9" ry="9.9" style="stroke:#181818;stroke-width:0.9;"/><path d="M454.0641,849.1641 Q454.2047,848.9672 454.3734,848.8688 Q454.5422,848.7703 454.7391,848.7703 Q455.0766,848.7703 455.2875,849.0094 Q455.4984,849.2344 455.4984,849.7828 L455.4984,851.0906 Q455.4984,851.6391 455.2875,851.8781 Q455.0766,852.1172 454.7391,852.1172 Q454.4297,852.1172 454.2469,851.9344 Q454.0641,851.7656 453.9656,851.3016 Q453.9234,850.9781 453.7547,850.8094 Q453.4594,850.4719 452.9109,850.275 Q452.3625,850.0781 451.8,850.0781 Q451.1109,850.0781 450.5344,850.3734 Q449.9719,850.6688 449.5219,851.3438 Q449.0859,852.0188 449.0859,852.9469 L449.0859,853.9313 Q449.0859,855.0422 449.8875,855.7875 Q450.6891,856.5188 452.1234,856.5188 Q452.9672,856.5188 453.5578,856.2938 Q453.9094,856.1531 454.2891,855.7594 Q454.5281,855.5203 454.6547,855.45 Q454.7953,855.3797 454.9781,855.3797 Q455.2734,855.3797 455.4984,855.6188 Q455.7375,855.8438 455.7375,856.1531 Q455.7375,856.4625 455.4281,856.8281 Q454.9781,857.3484 454.2609,857.6438 Q453.2906,858.0516 452.1234,858.0516 Q450.7594,858.0516 449.6766,857.4891 Q448.7906,857.0391 448.1719,856.0828 Q447.5531,855.1125 447.5531,853.9594 L447.5531,852.9188 Q447.5531,851.7234 448.1016,850.6969 Q448.6641,849.6563 449.6484,849.1078 Q450.6328,848.5453 451.7438,848.5453 Q452.4047,848.5453 452.9813,848.7 Q453.5719,848.8406 454.0641,849.1641 Z " fill="#000000"/><text fill="#000000" font-family="sans-serif" font-size="12.6" lengthAdjust="spacing" textLength="85.5" x="470.025" y="857.2447">Announcement</text><line style="stroke:#181818;stroke-width:0.45;" x1="400.05" x2="596.25" y1="867.2766" y2="867.2766"/><rect fill="none" height="5.4" style="stroke:#595959;stroke-width:0.9;" width="5.4" x="406.35" y="876.5648"/><text fill="#000000" font-family="sans-serif" font-size="12.6" lengthAdjust="spacing" textLength="134.1" x="417.15" y="882.283">LocalDate creationDate</text><rect fill="none" height="5.4" style="stroke:#595959;stroke-width:0.9;" width="5.4" x="406.35" y="890.6414"/><text fill="#000000" font-family="sans-serif" font-size="12.6" lengthAdjust="spacing" textLength="113.4" x="417.15" y="896.3596">int announcementID</text><line style="stroke:#181818;stroke-width:0.45;" x1="400.05" x2="596.25" y1="902.6297" y2="902.6297"/><ellipse cx="409.05" cy="914.618" fill="#A6A6A6" rx="2.7" ry="2.7" style="stroke:#545454;stroke-width:0.9;"/><text fill="#000000" font-family="sans-serif" font-size="12.6" lengthAdjust="spacing" textLength="55.8" x="417.15" y="917.6361">getPrice()</text><ellipse cx="409.05" cy="928.6945" fill="#A6A6A6" rx="2.7" ry="2.7" style="stroke:#545454;stroke-width:0.9;"/><text fill="#000000" font-family="sans-serif" font-size="12.6" lengthAdjust="spacing" textLength="82.8" x="417.15" y="931.7127">setPrice(price)</text><ellipse cx="409.05" cy="942.7711" fill="#A6A6A6" rx="2.7" ry="2.7" style="stroke:#545454;stroke-width:0.9;"/><text fill="#000000" font-family="sans-serif" font-size="12.6" lengthAdjust="spacing" textLength="102.6" x="417.15" y="945.7893">getCreationDate()</text><ellipse cx="409.05" cy="956.8477" fill="#A6A6A6" rx="2.7" ry="2.7" style="stroke:#545454;stroke-width:0.9;"/><text fill="#000000" font-family="sans-serif" font-size="12.6" lengthAdjust="spacing" textLength="174.6" x="417.15" y="959.8658">setCreationDate(creationDate)</text><ellipse cx="409.05" cy="970.9242" fill="#A6A6A6" rx="2.7" ry="2.7" style="stroke:#545454;stroke-width:0.9;"/><text fill="#000000" font-family="sans-serif" font-size="12.6" lengthAdjust="spacing" textLength="124.2" x="417.15" y="973.9424">getAnnouncementID()</text></g><!--class OrderDecisionController--><g id="elem_OrderDecisionController"><rect codeLine="43" fill="#F1F1F1" height="183.9656" id="OrderDecisionController" rx="2.25" ry="2.25" style="stroke:#181818;stroke-width:0.45;" width="560.7" x="257.4" y="193.1766"/><ellipse cx="465.075" cy="207.5766" fill="#C2C2C2" rx="9.9" ry="9.9" style="stroke:#181818;stroke-width:0.9;"/><path d="M467.5641,203.8641 Q467.7047,203.6672 467.8734,203.5688 Q468.0422,203.4703 468.2391,203.4703 Q468.5766,203.4703 468.7875,203.7094 Q468.9984,203.9344 468.9984,204.4828 L468.9984,205.7906 Q468.9984,206.3391 468.7875,206.5781 Q468.5766,206.8172 468.2391,206.8172 Q467.9297,206.8172 467.7469,206.6344 Q467.5641,206.4656 467.4656,206.0016 Q467.4234,205.6781 467.2547,205.5094 Q466.9594,205.1719 466.4109,204.975 Q465.8625,204.7781 465.3,204.7781 Q464.6109,204.7781 464.0344,205.0734 Q463.4719,205.3688 463.0219,206.0438 Q462.5859,206.7188 462.5859,207.6469 L462.5859,208.6313 Q462.5859,209.7422 463.3875,210.4875 Q464.1891,211.2188 465.6234,211.2188 Q466.4672,211.2188 467.0578,210.9938 Q467.4094,210.8531 467.7891,210.4594 Q468.0281,210.2203 468.1547,210.15 Q468.2953,210.0797 468.4781,210.0797 Q468.7734,210.0797 468.9984,210.3188 Q469.2375,210.5438 469.2375,210.8531 Q469.2375,211.1625 468.9281,211.5281 Q468.4781,212.0484 467.7609,212.3438 Q466.7906,212.7516 465.6234,212.7516 Q464.2594,212.7516 463.1766,212.1891 Q462.2906,211.7391 461.6719,210.7828 Q461.0531,209.8125 461.0531,208.6594 L461.0531,207.6188 Q461.0531,206.4234 461.6016,205.3969 Q462.1641,204.3563 463.1484,203.8078 Q464.1328,203.2453 465.2438,203.2453 Q465.9047,203.2453 466.4813,203.4 Q467.0719,203.5406 467.5641,203.8641 Z " fill="#000000"/><text fill="#000000" font-family="sans-serif" font-size="12.6" lengthAdjust="spacing" textLength="137.7" x="483.525" y="211.9447">OrderDecisionController</text><line style="stroke:#181818;stroke-width:0.45;" x1="258.3" x2="817.2" y1="221.9766" y2="221.9766"/><rect fill="none" height="5.4" style="stroke:#595959;stroke-width:0.9;" width="5.4" x="264.6" y="231.2648"/><text fill="#000000" font-family="sans-serif" font-size="12.6" lengthAdjust="spacing" textLength="193.5" x="275.4" y="236.983">orderRepository: OrderRepository</text><rect fill="none" height="5.4" style="stroke:#595959;stroke-width:0.9;" width="5.4" x="264.6" y="245.3414"/><text fill="#000000" font-family="sans-serif" font-size="12.6" lengthAdjust="spacing" textLength="299.7" x="275.4" y="251.0596">announcementRepository: AnnouncementRepository</text><rect fill="none" height="5.4" style="stroke:#595959;stroke-width:0.9;" width="5.4" x="264.6" y="259.418"/><text fill="#000000" font-family="sans-serif" font-size="12.6" lengthAdjust="spacing" textLength="152.1" x="275.4" y="265.1361">emailService: EmailService</text><line style="stroke:#181818;stroke-width:0.45;" x1="258.3" x2="817.2" y1="271.4063" y2="271.4063"/><ellipse cx="267.3" cy="283.3945" fill="#A6A6A6" rx="2.7" ry="2.7" style="stroke:#545454;stroke-width:0.9;"/><text fill="#000000" font-family="sans-serif" font-size="12.6" lengthAdjust="spacing" textLength="338.4" x="275.4" y="286.4127">getAnnouncementListSortedByDate(): List&lt;Announcement&gt;</text><ellipse cx="267.3" cy="297.4711" fill="#A6A6A6" rx="2.7" ry="2.7" style="stroke:#545454;stroke-width:0.9;"/><text fill="#000000" font-family="sans-serif" font-size="12.6" lengthAdjust="spacing" textLength="360.9" x="275.4" y="300.4893">getOrderListSortedByPrice(orderList: List&lt;Order&gt;): List&lt;Order&gt;</text><ellipse cx="267.3" cy="311.5477" fill="#A6A6A6" rx="2.7" ry="2.7" style="stroke:#545454;stroke-width:0.9;"/><text fill="#000000" font-family="sans-serif" font-size="12.6" lengthAdjust="spacing" textLength="537.3" x="275.4" y="314.5658">getOrdersByAnnouncement(announcement: Announcement, orders: List&lt;Order&gt;): List&lt;Order&gt;</text><ellipse cx="267.3" cy="325.6242" fill="#A6A6A6" rx="2.7" ry="2.7" style="stroke:#545454;stroke-width:0.9;"/><text fill="#000000" font-family="sans-serif" font-size="12.6" lengthAdjust="spacing" textLength="235.8" x="275.4" y="328.6424">acceptPurchaseOrder(order: Order): void</text><ellipse cx="267.3" cy="339.7008" fill="#A6A6A6" rx="2.7" ry="2.7" style="stroke:#545454;stroke-width:0.9;"/><text fill="#000000" font-family="sans-serif" font-size="12.6" lengthAdjust="spacing" textLength="238.5" x="275.4" y="342.7189">declinePurchaseOrder(order: Order): void</text><ellipse cx="267.3" cy="353.7773" fill="#A6A6A6" rx="2.7" ry="2.7" style="stroke:#545454;stroke-width:0.9;"/><text fill="#000000" font-family="sans-serif" font-size="12.6" lengthAdjust="spacing" textLength="154.8" x="275.4" y="356.7955">getAllOrders(): List&lt;Order&gt;</text><rect fill="#808080" height="5.4" style="stroke:#595959;stroke-width:0.9;" width="5.4" x="264.6" y="365.1539"/><text fill="#000000" font-family="sans-serif" font-size="12.6" lengthAdjust="spacing" textLength="278.1" x="275.4" y="370.8721">declineOtherOrders(acceptedOrder: Order): void</text></g><!--class AnnouncementRepository--><g id="elem_AnnouncementRepository"><rect codeLine="56" fill="#F1F1F1" height="113.5828" id="AnnouncementRepository" rx="2.25" ry="2.25" style="stroke:#181818;stroke-width:0.45;" width="371.7" x="312.3" y="613.9266"/><ellipse cx="420.975" cy="628.3266" fill="#C2C2C2" rx="9.9" ry="9.9" style="stroke:#181818;stroke-width:0.9;"/><path d="M423.4641,624.6141 Q423.6047,624.4172 423.7734,624.3188 Q423.9422,624.2203 424.1391,624.2203 Q424.4766,624.2203 424.6875,624.4594 Q424.8984,624.6844 424.8984,625.2328 L424.8984,626.5406 Q424.8984,627.0891 424.6875,627.3281 Q424.4766,627.5672 424.1391,627.5672 Q423.8297,627.5672 423.6469,627.3844 Q423.4641,627.2156 423.3656,626.7516 Q423.3234,626.4281 423.1547,626.2594 Q422.8594,625.9219 422.3109,625.725 Q421.7625,625.5281 421.2,625.5281 Q420.5109,625.5281 419.9344,625.8234 Q419.3719,626.1188 418.9219,626.7938 Q418.4859,627.4688 418.4859,628.3969 L418.4859,629.3813 Q418.4859,630.4922 419.2875,631.2375 Q420.0891,631.9688 421.5234,631.9688 Q422.3672,631.9688 422.9578,631.7438 Q423.3094,631.6031 423.6891,631.2094 Q423.9281,630.9703 424.0547,630.9 Q424.1953,630.8297 424.3781,630.8297 Q424.6734,630.8297 424.8984,631.0688 Q425.1375,631.2938 425.1375,631.6031 Q425.1375,631.9125 424.8281,632.2781 Q424.3781,632.7984 423.6609,633.0938 Q422.6906,633.5016 421.5234,633.5016 Q420.1594,633.5016 419.0766,632.9391 Q418.1906,632.4891 417.5719,631.5328 Q416.9531,630.5625 416.9531,629.4094 L416.9531,628.3688 Q416.9531,627.1734 417.5016,626.1469 Q418.0641,625.1063 419.0484,624.5578 Q420.0328,623.9953 421.1438,623.9953 Q421.8047,623.9953 422.3813,624.15 Q422.9719,624.2906 423.4641,624.6141 Z " fill="#000000"/><text fill="#000000" font-family="sans-serif" font-size="12.6" lengthAdjust="spacing" textLength="146.7" x="439.425" y="632.6947">AnnouncementRepository</text><line style="stroke:#181818;stroke-width:0.45;" x1="313.2" x2="683.1" y1="642.7266" y2="642.7266"/><rect fill="none" height="5.4" style="stroke:#595959;stroke-width:0.9;" width="5.4" x="319.5" y="652.0148"/><text fill="#000000" font-family="sans-serif" font-size="12.6" lengthAdjust="spacing" textLength="237.6" x="330.3" y="657.733">announcementsList: List&lt;Announcement&gt;</text><line style="stroke:#181818;stroke-width:0.45;" x1="313.2" x2="683.1" y1="664.0031" y2="664.0031"/><ellipse cx="322.2" cy="675.9914" fill="#A6A6A6" rx="2.7" ry="2.7" style="stroke:#545454;stroke-width:0.9;"/><text fill="#000000" font-family="sans-serif" font-size="12.6" lengthAdjust="spacing" textLength="347.4" x="330.3" y="679.0096">addNewAnnouncement(announcement: Announcement): void</text><ellipse cx="322.2" cy="690.068" fill="#A6A6A6" rx="2.7" ry="2.7" style="stroke:#545454;stroke-width:0.9;"/><text fill="#000000" font-family="sans-serif" font-size="12.6" lengthAdjust="spacing" textLength="344.7" x="330.3" y="693.0861">removeAnnouncement(announcement: Announcement): void</text><ellipse cx="322.2" cy="704.1445" fill="#A6A6A6" rx="2.7" ry="2.7" style="stroke:#545454;stroke-width:0.9;"/><text fill="#000000" font-family="sans-serif" font-size="12.6" lengthAdjust="spacing" textLength="265.5" x="330.3" y="707.1627">getAnnouncementsList(): List&lt;Announcement&gt;</text><ellipse cx="322.2" cy="718.2211" fill="#A6A6A6" rx="2.7" ry="2.7" style="stroke:#545454;stroke-width:0.9;"/><text fill="#000000" font-family="sans-serif" font-size="12.6" lengthAdjust="spacing" textLength="348.3" x="330.3" y="721.2393">getAnnouncementByID(announcementID: int): Announcement</text></g><!--class EmailService--><g id="elem_EmailService"><rect codeLine="64" fill="#F1F1F1" height="57.2766" id="EmailService" rx="2.25" ry="2.25" style="stroke:#181818;stroke-width:0.45;" width="311.4" x="599.85" y="452.8266"/><ellipse cx="715.275" cy="467.2266" fill="#C2C2C2" rx="9.9" ry="9.9" style="stroke:#181818;stroke-width:0.9;"/><path d="M717.7641,463.5141 Q717.9047,463.3172 718.0734,463.2188 Q718.2422,463.1203 718.4391,463.1203 Q718.7766,463.1203 718.9875,463.3594 Q719.1984,463.5844 719.1984,464.1328 L719.1984,465.4406 Q719.1984,465.9891 718.9875,466.2281 Q718.7766,466.4672 718.4391,466.4672 Q718.1297,466.4672 717.9469,466.2844 Q717.7641,466.1156 717.6656,465.6516 Q717.6234,465.3281 717.4547,465.1594 Q717.1594,464.8219 716.6109,464.625 Q716.0625,464.4281 715.5,464.4281 Q714.8109,464.4281 714.2344,464.7234 Q713.6719,465.0188 713.2219,465.6938 Q712.7859,466.3688 712.7859,467.2969 L712.7859,468.2813 Q712.7859,469.3922 713.5875,470.1375 Q714.3891,470.8688 715.8234,470.8688 Q716.6672,470.8688 717.2578,470.6438 Q717.6094,470.5031 717.9891,470.1094 Q718.2281,469.8703 718.3547,469.8 Q718.4953,469.7297 718.6781,469.7297 Q718.9734,469.7297 719.1984,469.9688 Q719.4375,470.1938 719.4375,470.5031 Q719.4375,470.8125 719.1281,471.1781 Q718.6781,471.6984 717.9609,471.9938 Q716.9906,472.4016 715.8234,472.4016 Q714.4594,472.4016 713.3766,471.8391 Q712.4906,471.3891 711.8719,470.4328 Q711.2531,469.4625 711.2531,468.3094 L711.2531,467.2688 Q711.2531,466.0734 711.8016,465.0469 Q712.3641,464.0063 713.3484,463.4578 Q714.3328,462.8953 715.4438,462.8953 Q716.1047,462.8953 716.6813,463.05 Q717.2719,463.1906 717.7641,463.5141 Z " fill="#000000"/><text fill="#000000" font-family="sans-serif" font-size="12.6" lengthAdjust="spacing" textLength="72.9" x="733.725" y="471.5947">EmailService</text><line style="stroke:#181818;stroke-width:0.45;" x1="600.75" x2="910.35" y1="481.6266" y2="481.6266"/><line style="stroke:#181818;stroke-width:0.45;" x1="600.75" x2="910.35" y1="488.8266" y2="488.8266"/><ellipse cx="609.75" cy="500.8148" fill="#A6A6A6" rx="2.7" ry="2.7" style="stroke:#545454;stroke-width:0.9;"/><text fill="#000000" font-family="sans-serif" font-size="12.6" lengthAdjust="spacing" textLength="288" x="617.85" y="503.833">sendMessage(email: String, message: String): void</text></g><!--class Repositories--><g id="elem_Repositories"><rect codeLine="68" fill="#F1F1F1" height="99.5063" id="Repositories" rx="2.25" ry="2.25" style="stroke:#181818;stroke-width:0.45;" width="354.6" x="142.65" y="431.6766"/><ellipse cx="280.575" cy="446.0766" fill="#C2C2C2" rx="9.9" ry="9.9" style="stroke:#181818;stroke-width:0.9;"/><path d="M283.0641,442.3641 Q283.2047,442.1672 283.3734,442.0688 Q283.5422,441.9703 283.7391,441.9703 Q284.0766,441.9703 284.2875,442.2094 Q284.4984,442.4344 284.4984,442.9828 L284.4984,444.2906 Q284.4984,444.8391 284.2875,445.0781 Q284.0766,445.3172 283.7391,445.3172 Q283.4297,445.3172 283.2469,445.1344 Q283.0641,444.9656 282.9656,444.5016 Q282.9234,444.1781 282.7547,444.0094 Q282.4594,443.6719 281.9109,443.475 Q281.3625,443.2781 280.8,443.2781 Q280.1109,443.2781 279.5344,443.5734 Q278.9719,443.8688 278.5219,444.5438 Q278.0859,445.2188 278.0859,446.1469 L278.0859,447.1313 Q278.0859,448.2422 278.8875,448.9875 Q279.6891,449.7188 281.1234,449.7188 Q281.9672,449.7188 282.5578,449.4938 Q282.9094,449.3531 283.2891,448.9594 Q283.5281,448.7203 283.6547,448.65 Q283.7953,448.5797 283.9781,448.5797 Q284.2734,448.5797 284.4984,448.8188 Q284.7375,449.0438 284.7375,449.3531 Q284.7375,449.6625 284.4281,450.0281 Q283.9781,450.5484 283.2609,450.8438 Q282.2906,451.2516 281.1234,451.2516 Q279.7594,451.2516 278.6766,450.6891 Q277.7906,450.2391 277.1719,449.2828 Q276.5531,448.3125 276.5531,447.1594 L276.5531,446.1188 Q276.5531,444.9234 277.1016,443.8969 Q277.6641,442.8563 278.6484,442.3078 Q279.6328,441.7453 280.7438,441.7453 Q281.4047,441.7453 281.9813,441.9 Q282.5719,442.0406 283.0641,442.3641 Z " fill="#000000"/><text fill="#000000" font-family="sans-serif" font-size="12.6" lengthAdjust="spacing" textLength="71.1" x="299.025" y="450.4447">Repositories</text><line style="stroke:#181818;stroke-width:0.45;" x1="143.55" x2="496.35" y1="460.4766" y2="460.4766"/><rect fill="none" height="5.4" style="stroke:#595959;stroke-width:0.9;" width="5.4" x="149.85" y="469.7648"/><text fill="#000000" font-family="sans-serif" font-size="12.6" lengthAdjust="spacing" textLength="71.1" x="160.65" y="475.483">Repositories</text><line style="stroke:#181818;stroke-width:0.45;" x1="143.55" x2="496.35" y1="481.7531" y2="481.7531"/><ellipse cx="152.55" cy="493.7414" fill="#A6A6A6" rx="2.7" ry="2.7" style="stroke:#545454;stroke-width:0.9;"/><text fill="#000000" font-family="sans-serif" font-size="12.6" lengthAdjust="spacing" textLength="156.6" x="160.65" y="496.7596">getInstance() : Repositories</text><ellipse cx="152.55" cy="507.818" fill="#A6A6A6" rx="2.7" ry="2.7" style="stroke:#545454;stroke-width:0.9;"/><text fill="#000000" font-family="sans-serif" font-size="12.6" lengthAdjust="spacing" textLength="226.8" x="160.65" y="510.8361">getOrderRepository() : OrderRepository</text><ellipse cx="152.55" cy="521.8945" fill="#A6A6A6" rx="2.7" ry="2.7" style="stroke:#545454;stroke-width:0.9;"/><text fill="#000000" font-family="sans-serif" font-size="12.6" lengthAdjust="spacing" textLength="331.2" x="160.65" y="524.9127">getAnnouncementRepository() : AnnouncementRepository</text></g><!--class OrderDecisionUI--><g id="elem_OrderDecisionUI"><rect fill="#F1F1F1" height="43.2" id="OrderDecisionUI" rx="2.25" ry="2.25" style="stroke:#181818;stroke-width:0.45;" width="121.5" x="477" y="39.2766"/><ellipse cx="490.5" cy="53.6766" fill="#C2C2C2" rx="9.9" ry="9.9" style="stroke:#181818;stroke-width:0.9;"/><path d="M492.9891,49.9641 Q493.1297,49.7672 493.2984,49.6688 Q493.4672,49.5703 493.6641,49.5703 Q494.0016,49.5703 494.2125,49.8094 Q494.4234,50.0344 494.4234,50.5828 L494.4234,51.8906 Q494.4234,52.4391 494.2125,52.6781 Q494.0016,52.9172 493.6641,52.9172 Q493.3547,52.9172 493.1719,52.7344 Q492.9891,52.5656 492.8906,52.1016 Q492.8484,51.7781 492.6797,51.6094 Q492.3844,51.2719 491.8359,51.075 Q491.2875,50.8781 490.725,50.8781 Q490.0359,50.8781 489.4594,51.1734 Q488.8969,51.4688 488.4469,52.1438 Q488.0109,52.8188 488.0109,53.7469 L488.0109,54.7313 Q488.0109,55.8422 488.8125,56.5875 Q489.6141,57.3188 491.0484,57.3188 Q491.8922,57.3188 492.4828,57.0938 Q492.8344,56.9531 493.2141,56.5594 Q493.4531,56.3203 493.5797,56.25 Q493.7203,56.1797 493.9031,56.1797 Q494.1984,56.1797 494.4234,56.4188 Q494.6625,56.6438 494.6625,56.9531 Q494.6625,57.2625 494.3531,57.6281 Q493.9031,58.1484 493.1859,58.4438 Q492.2156,58.8516 491.0484,58.8516 Q489.6844,58.8516 488.6016,58.2891 Q487.7156,57.8391 487.0969,56.8828 Q486.4781,55.9125 486.4781,54.7594 L486.4781,53.7188 Q486.4781,52.5234 487.0266,51.4969 Q487.5891,50.4563 488.5734,49.9078 Q489.5578,49.3453 490.6688,49.3453 Q491.3297,49.3453 491.9063,49.5 Q492.4969,49.6406 492.9891,49.9641 Z " fill="#000000"/><text fill="#000000" font-family="sans-serif" font-size="12.6" lengthAdjust="spacing" textLength="92.7" x="503.1" y="58.0447">OrderDecisionUI</text><line style="stroke:#181818;stroke-width:0.45;" x1="477.9" x2="597.6" y1="68.0766" y2="68.0766"/><line style="stroke:#181818;stroke-width:0.45;" x1="477.9" x2="597.6" y1="75.2766" y2="75.2766"/></g><!--link OrderRepository to Order--><g id="link_OrderRepository_Order"><path codeLine="76" d="M143.55,741.5826 C143.55,757.1616 143.55,774.0816 143.55,790.9746 " fill="none" id="OrderRepository-to-Order" style="stroke:#181818;stroke-width:0.9;"/><polygon fill="#181818" points="143.55,795.7356,147.15,787.6356,143.55,791.2356,139.95,787.6356,143.55,795.7356" style="stroke:#181818;stroke-width:0.9;"/></g><!--link OrderDecisionController to Repositories--><g id="link_OrderDecisionController_Repositories"><path codeLine="77" d="M435.861,377.0286 C416.142,394.6686 396.117,412.5876 378.378,428.4546 " fill="none" id="OrderDecisionController-to-Repositories" style="stroke:#181818;stroke-width:0.9;"/><polygon fill="#181818" points="374.868,431.5956,383.3028,428.8708,378.2192,428.5923,378.4976,423.5088,374.868,431.5956" style="stroke:#181818;stroke-width:0.9;"/></g><!--link Repositories to Repositories--><g id="link_Repositories_Repositories"><path codeLine="78" d="M497.412,469.5126 C516.483,471.8436 528.75,475.8846 528.75,481.6266 C528.75,486.8736 518.499,490.7076 502.173,493.1016 " fill="none" id="Repositories-to-Repositories" style="stroke:#181818;stroke-width:0.9;"/><polygon fill="#181818" points="497.412,493.7406,505.9148,496.2449,501.873,493.1492,504.9687,489.1073,497.412,493.7406" style="stroke:#181818;stroke-width:0.9;"/><text fill="#000000" font-family="sans-serif" font-size="11.7" lengthAdjust="spacing" textLength="44.1" x="534.15" y="485.9183">instance</text></g><!--link Repositories to OrderRepository--><g id="link_Repositories_OrderRepository"><path codeLine="79" d="M273.6,531.7116 C254.997,551.4576 233.163,574.6326 212.751,596.2956 " fill="none" id="Repositories-to-OrderRepository" style="stroke:#181818;stroke-width:0.9;"/><polygon fill="#181818" points="209.484,599.7516,217.6637,596.3365,212.5746,596.4807,212.4303,591.3916,209.484,599.7516" style="stroke:#181818;stroke-width:0.9;"/><text fill="#000000" font-family="sans-serif" font-size="11.7" lengthAdjust="spacing" textLength="81.9" x="248.85" y="570.0683">orderRepository</text><text fill="#000000" font-family="sans-serif" font-size="11.7" lengthAdjust="spacing" textLength="6.3" x="209.1681" y="590.3892">1</text></g><!--link Repositories to AnnouncementRepository--><g id="link_Repositories_AnnouncementRepository"><path codeLine="80" d="M366.768,531.7116 C389.664,555.7596 417.411,584.9106 441.495,610.2096 " fill="none" id="Repositories-to-AnnouncementRepository" style="stroke:#181818;stroke-width:0.9;"/><polygon fill="#181818" points="444.717,613.5936,441.7533,605.2397,441.6197,610.3291,436.5302,610.1955,444.717,613.5936" style="stroke:#181818;stroke-width:0.9;"/><text fill="#000000" font-family="sans-serif" font-size="11.7" lengthAdjust="spacing" textLength="132.3" x="405.45" y="570.0683">announcementRepository</text><text fill="#000000" font-family="sans-serif" font-size="11.7" lengthAdjust="spacing" textLength="6.3" x="431.8746" y="604.279">1</text></g><!--link AnnouncementRepository to Announcement--><g id="link_AnnouncementRepository_Announcement"><path codeLine="81" d="M498.15,727.6236 C498.15,759.2856 498.15,799.2546 498.15,833.5446 " fill="none" id="AnnouncementRepository-to-Announcement" style="stroke:#181818;stroke-width:0.9;"/><polygon fill="#181818" points="498.15,838.1256,501.75,830.0256,498.15,833.6256,494.55,830.0256,498.15,838.1256" style="stroke:#181818;stroke-width:0.9;"/></g><!--link OrderDecisionUI to OrderDecisionController--><g id="link_OrderDecisionUI_OrderDecisionController"><path codeLine="82" d="M537.75,82.6926 C537.75,107.0916 537.75,149.1396 537.75,188.5236 " fill="none" id="OrderDecisionUI-to-OrderDecisionController" style="stroke:#181818;stroke-width:0.9;stroke-dasharray:7.0,7.0;"/><polygon fill="#181818" points="537.75,193.0686,541.35,184.9686,537.75,188.5686,534.15,184.9686,537.75,193.0686" style="stroke:#181818;stroke-width:0.9;"/></g><!--link OrderDecisionController to EmailService--><g id="link_OrderDecisionController_EmailService"><path codeLine="83" d="M639.639,377.0286 C668.853,403.1646 698.742,429.9036 720.855,449.6856 " fill="none" id="OrderDecisionController-to-EmailService" style="stroke:#181818;stroke-width:0.9;"/><polygon fill="#181818" points="724.329,452.7996,720.6839,444.7197,720.9721,449.8027,715.889,450.0909,724.329,452.7996" style="stroke:#181818;stroke-width:0.9;"/></g><!--SRC=[dLLDRzim3BtxLmWzDMWzB5TZAD0sFGJObc91Vu0cSubGMJ8a9OKnxBzFNsuesMcxvHBeyP4YdqZQF7FPKqqxqYcfs5wh3eZL1wZCgwMdx9dkO6i70KG3irJk12QOFMtL2vSxyeiAWos2Ix133wHNOl27odBheZnjFo-Nf2RtWXf3Lfpk7BkgM3XkT0lw1_JASAlqG7vNnFrgyfKR-oKORuZoVm6_8hHjlyDBC5m6V94CHofuIor44vLI7II33gIzZW4UDMUGiVC0Ex31rrnEaBlX5iNBWYzEUOtX_cIrlLPaBBK7GzAfLOUVJfjJPWdVMksrXOvoaI0kRUIjLwV4ieJ694o1poKw5XKknPu8dUhbl1vyIjWX0Y5JHDk6CZ4l8R7-CetrwX8fXhC_jO9YLApSqnAcWLgkf3yWSN2PMAD9YH7eYyBkKLJCpd1yzMB-6V9IGdKhODmuhtibhLP2e7PGUUCtvIGa6guDiszdyUGKtcGB-kWARSW3EirdxeTjgxI5zcw8AZHn037ffdWvx8JQniCD7jz5Tlg7qSgBJ5DitezD6OFUFXuqsrC3Q5KaZPtJKV4siLjWVbTzbEwL4s9S5DFhwp7Wnkv19rxC2DhDJDZPtfzPY5WPWqIUUwAu93yeR5wVXauTuRzSYwOAIRxNIHY-6zm4vRFS-FbUv9UU5CEDdNJoWolRRs2C-uZ5tTIadNfDkWYFmEG5NbNdO4AuEeCySkLoNaktogJVBAIP9HIJ77WpqtrLr5zud9bmbsrLVZJh-YPUK9tREfwHfOeFf30IBtkiiU0vuiNoOlBHRifjDkzsfiERCqkkEiFtuRA6o8f-MfFwqwZ7L8at5SesPLNz1G00]--></g></svg>