<?xml version="1.0" encoding="us-ascii" standalone="no"?><svg xmlns="http://www.w3.org/2000/svg" xmlns:xlink="http://www.w3.org/1999/xlink" contentStyleType="text/css" height="417px" preserveAspectRatio="none" style="width:460px;height:417px;background:#FFFFFF;" version="1.1" viewBox="0 0 460 417" width="460px" zoomAndPan="magnify"><defs/><g><text fill="#000000" font-family="sans-serif" font-size="14" font-weight="bold" lengthAdjust="spacing" textLength="284" x="87" y="27.6738">US017 - System Sequence Diagram (SSD)</text><rect fill="#FFFFFF" height="201.1875" style="stroke:#181818;stroke-width:1.0;" width="10" x="58" y="127.2813"/><rect fill="#FFFFFF" height="43.0469" style="stroke:#181818;stroke-width:1.0;" width="10" x="417" y="147.8047"/><rect fill="#FFFFFF" height="28.5234" style="stroke:#181818;stroke-width:1.0;" width="10" x="417" y="219.375"/><rect fill="#FFFFFF" height="43.0469" style="stroke:#181818;stroke-width:1.0;" width="10" x="417" y="276.4219"/><line style="stroke:#181818;stroke-width:0.5;stroke-dasharray:5.0,5.0;" x1="63" x2="63" y1="117.2813" y2="337.4688"/><line style="stroke:#181818;stroke-width:0.5;stroke-dasharray:5.0,5.0;" x1="422" x2="422" y1="117.2813" y2="337.4688"/><text fill="#000000" font-family="sans-serif" font-size="14" lengthAdjust="spacing" textLength="110" x="5" y="114.3145">Network Manager</text><ellipse cx="63" cy="50.1406" fill="#E3E3E3" rx="8" ry="8" style="stroke:#181818;stroke-width:0.5;"/><path d="M63,58.1406 L63,85.1406 M50,66.1406 L76,66.1406 M63,85.1406 L50,100.1406 M63,85.1406 L76,100.1406 " fill="none" style="stroke:#181818;stroke-width:0.5;"/><text fill="#000000" font-family="sans-serif" font-size="14" lengthAdjust="spacing" textLength="110" x="5" y="349.1426">Network Manager</text><ellipse cx="63" cy="360.6094" fill="#E3E3E3" rx="8" ry="8" style="stroke:#181818;stroke-width:0.5;"/><path d="M63,368.6094 L63,395.6094 M50,376.6094 L76,376.6094 M63,395.6094 L50,410.6094 M63,395.6094 L76,410.6094 " fill="none" style="stroke:#181818;stroke-width:0.5;"/><rect fill="#E3E3E3" height="29.6406" rx="2.5" ry="2.5" style="stroke:#181818;stroke-width:0.5;" width="64" x="390" y="86.6406"/><text fill="#000000" font-family="sans-serif" font-size="14" lengthAdjust="spacing" textLength="50" x="397" y="106.3145">:System</text><rect fill="#E3E3E3" height="29.6406" rx="2.5" ry="2.5" style="stroke:#181818;stroke-width:0.5;" width="64" x="390" y="336.4688"/><text fill="#000000" font-family="sans-serif" font-size="14" lengthAdjust="spacing" textLength="50" x="397" y="356.1426">:System</text><rect fill="#FFFFFF" height="201.1875" style="stroke:#181818;stroke-width:1.0;" width="10" x="58" y="127.2813"/><rect fill="#FFFFFF" height="43.0469" style="stroke:#181818;stroke-width:1.0;" width="10" x="417" y="147.8047"/><rect fill="#FFFFFF" height="28.5234" style="stroke:#181818;stroke-width:1.0;" width="10" x="417" y="219.375"/><rect fill="#FFFFFF" height="43.0469" style="stroke:#181818;stroke-width:1.0;" width="10" x="417" y="276.4219"/><polygon fill="#181818" points="405,143.8047,415,147.8047,405,151.8047,409,147.8047" style="stroke:#181818;stroke-width:1.0;"/><line style="stroke:#181818;stroke-width:1.0;" x1="68" x2="411" y1="147.8047" y2="147.8047"/><text fill="#000000" font-family="sans-serif" font-size="13" font-weight="bold" lengthAdjust="spacing" textLength="7" x="75" y="143.0498">1</text><text fill="#000000" font-family="sans-serif" font-size="13" lengthAdjust="spacing" textLength="174" x="86" y="143.0498">asks to list all the deals made</text><polygon fill="#181818" points="79,186.8516,69,190.8516,79,194.8516,75,190.8516" style="stroke:#181818;stroke-width:1.0;"/><line style="stroke:#181818;stroke-width:1.0;stroke-dasharray:2.0,2.0;" x1="73" x2="421" y1="190.8516" y2="190.8516"/><text fill="#000000" font-family="sans-serif" font-size="13" font-weight="bold" lengthAdjust="spacing" textLength="7" x="85" y="178.835">2</text><text fill="#000000" font-family="sans-serif" font-size="13" lengthAdjust="spacing" textLength="252" x="96" y="171.5732">shows the list and asks to select one of the</text><text fill="#000000" font-family="sans-serif" font-size="13" lengthAdjust="spacing" textLength="269" x="96" y="186.0967">sorting methods (Bubble Sort or Insertion Sort)</text><polygon fill="#181818" points="405,215.375,415,219.375,405,223.375,409,219.375" style="stroke:#181818;stroke-width:1.0;"/><line style="stroke:#181818;stroke-width:1.0;" x1="68" x2="411" y1="219.375" y2="219.375"/><text fill="#000000" font-family="sans-serif" font-size="13" font-weight="bold" lengthAdjust="spacing" textLength="7" x="75" y="214.6201">3</text><text fill="#000000" font-family="sans-serif" font-size="13" lengthAdjust="spacing" textLength="154" x="86" y="214.6201">selects the sorting method</text><polygon fill="#181818" points="79,243.8984,69,247.8984,79,251.8984,75,247.8984" style="stroke:#181818;stroke-width:1.0;"/><line style="stroke:#181818;stroke-width:1.0;stroke-dasharray:2.0,2.0;" x1="73" x2="421" y1="247.8984" y2="247.8984"/><text fill="#000000" font-family="sans-serif" font-size="13" font-weight="bold" lengthAdjust="spacing" textLength="7" x="85" y="243.1436">4</text><text fill="#000000" font-family="sans-serif" font-size="13" lengthAdjust="spacing" textLength="314" x="96" y="243.1436">asks for the order of sorting (ascending or descending)</text><polygon fill="#181818" points="405,272.4219,415,276.4219,405,280.4219,409,276.4219" style="stroke:#181818;stroke-width:1.0;"/><line style="stroke:#181818;stroke-width:1.0;" x1="68" x2="411" y1="276.4219" y2="276.4219"/><text fill="#000000" font-family="sans-serif" font-size="13" font-weight="bold" lengthAdjust="spacing" textLength="7" x="75" y="271.667">5</text><text fill="#000000" font-family="sans-serif" font-size="13" lengthAdjust="spacing" textLength="310" x="86" y="271.667">selects the order of sorting (ascending or descending)</text><polygon fill="#181818" points="79,315.4688,69,319.4688,79,323.4688,75,319.4688" style="stroke:#181818;stroke-width:1.0;"/><line style="stroke:#181818;stroke-width:1.0;stroke-dasharray:2.0,2.0;" x1="73" x2="421" y1="319.4688" y2="319.4688"/><text fill="#000000" font-family="sans-serif" font-size="13" font-weight="bold" lengthAdjust="spacing" textLength="7" x="85" y="307.4521">6</text><text fill="#000000" font-family="sans-serif" font-size="13" lengthAdjust="spacing" textLength="284" x="96" y="300.1904">shows the list of all the deals made sorted by the</text><text fill="#000000" font-family="sans-serif" font-size="13" lengthAdjust="spacing" textLength="240" x="96" y="314.7139">selected sorting method and sorting order</text><!--SRC=[dL4xRy8m4DxpAqvCC22rKoM63XLB1rYYRbqkyP5OSNnWNuhuzxtO11NwK5jFv_Fdxt4NE-lt6B27dZtNRU2UGC90HRoyxB7kiA5IJeuWK2te6_SH45iqVBI-WHswI4KXLXJwKjxTFy0IobCKwg6amq2-9bXRRCPlyx9SBue21s4_z1K5hMlX0BCjoP531nlqAXncW16scqBLnDPsZrvWjigqwIsNwRjzGw4HN82UxGQMZvE1bKAx2CBWR1H0vq1Q0aDg6deqbFzSI2PME9yppL8PbNUbiVaO4qNcy-OY4Cdfd80z0UyIvDL7LlSwevwaPHDX_ZHKbOwfr3vewcSVIH7iKsUHTTNSLtPkScMvxELQveT8jt6IzvqQ6Lau60gZzubkZh4cRyPI8OQcsxzz_bNXLnbkLgBidxUS1Cb0TPeMarnfvtfqQQ5JAxdzBkex]--></g></svg>