<?xml version="1.0" encoding="us-ascii" standalone="no"?><svg xmlns="http://www.w3.org/2000/svg" xmlns:xlink="http://www.w3.org/1999/xlink" contentStyleType="text/css" height="432px" preserveAspectRatio="none" style="width:480px;height:432px;background:#FFFFFF;" version="1.1" viewBox="0 0 480 432" width="480px" zoomAndPan="magnify"><defs/><g><text fill="#000000" font-family="sans-serif" font-size="14" font-weight="bold" lengthAdjust="spacing" textLength="284" x="97" y="27.6738">US017 - System Sequence Diagram (SSD)</text><rect fill="#FFFFFF" height="215.7109" style="stroke:#181818;stroke-width:1.0;" width="10" x="58" y="127.2813"/><rect fill="#FFFFFF" height="43.0469" style="stroke:#181818;stroke-width:1.0;" width="10" x="437" y="147.8047"/><rect fill="#FFFFFF" height="43.0469" style="stroke:#181818;stroke-width:1.0;" width="10" x="437" y="219.375"/><rect fill="#FFFFFF" height="43.0469" style="stroke:#181818;stroke-width:1.0;" width="10" x="437" y="290.9453"/><line style="stroke:#181818;stroke-width:0.5;stroke-dasharray:5.0,5.0;" x1="63" x2="63" y1="117.2813" y2="351.9922"/><line style="stroke:#181818;stroke-width:0.5;stroke-dasharray:5.0,5.0;" x1="442" x2="442" y1="117.2813" y2="351.9922"/><text fill="#000000" font-family="sans-serif" font-size="14" lengthAdjust="spacing" textLength="110" x="5" y="114.3145">Network Manager</text><ellipse cx="63" cy="50.1406" fill="#E3E3E3" rx="8" ry="8" style="stroke:#181818;stroke-width:0.5;"/><path d="M63,58.1406 L63,85.1406 M50,66.1406 L76,66.1406 M63,85.1406 L50,100.1406 M63,85.1406 L76,100.1406 " fill="none" style="stroke:#181818;stroke-width:0.5;"/><text fill="#000000" font-family="sans-serif" font-size="14" lengthAdjust="spacing" textLength="110" x="5" y="363.666">Network Manager</text><ellipse cx="63" cy="375.1328" fill="#E3E3E3" rx="8" ry="8" style="stroke:#181818;stroke-width:0.5;"/><path d="M63,383.1328 L63,410.1328 M50,391.1328 L76,391.1328 M63,410.1328 L50,425.1328 M63,410.1328 L76,425.1328 " fill="none" style="stroke:#181818;stroke-width:0.5;"/><rect fill="#E3E3E3" height="29.6406" rx="2.5" ry="2.5" style="stroke:#181818;stroke-width:0.5;" width="64" x="410" y="86.6406"/><text fill="#000000" font-family="sans-serif" font-size="14" lengthAdjust="spacing" textLength="50" x="417" y="106.3145">:System</text><rect fill="#E3E3E3" height="29.6406" rx="2.5" ry="2.5" style="stroke:#181818;stroke-width:0.5;" width="64" x="410" y="350.9922"/><text fill="#000000" font-family="sans-serif" font-size="14" lengthAdjust="spacing" textLength="50" x="417" y="370.666">:System</text><rect fill="#FFFFFF" height="215.7109" style="stroke:#181818;stroke-width:1.0;" width="10" x="58" y="127.2813"/><rect fill="#FFFFFF" height="43.0469" style="stroke:#181818;stroke-width:1.0;" width="10" x="437" y="147.8047"/><rect fill="#FFFFFF" height="43.0469" style="stroke:#181818;stroke-width:1.0;" width="10" x="437" y="219.375"/><rect fill="#FFFFFF" height="43.0469" style="stroke:#181818;stroke-width:1.0;" width="10" x="437" y="290.9453"/><polygon fill="#181818" points="425,143.8047,435,147.8047,425,151.8047,429,147.8047" style="stroke:#181818;stroke-width:1.0;"/><line style="stroke:#181818;stroke-width:1.0;" x1="68" x2="431" y1="147.8047" y2="147.8047"/><text fill="#000000" font-family="sans-serif" font-size="13" font-weight="bold" lengthAdjust="spacing" textLength="7" x="75" y="143.0498">1</text><text fill="#000000" font-family="sans-serif" font-size="13" lengthAdjust="spacing" textLength="255" x="86" y="143.0498">asks to display the list of all the deals made</text><polygon fill="#181818" points="79,186.8516,69,190.8516,79,194.8516,75,190.8516" style="stroke:#181818;stroke-width:1.0;"/><line style="stroke:#181818;stroke-width:1.0;stroke-dasharray:2.0,2.0;" x1="73" x2="441" y1="190.8516" y2="190.8516"/><text fill="#000000" font-family="sans-serif" font-size="13" font-weight="bold" lengthAdjust="spacing" textLength="7" x="85" y="178.835">2</text><text fill="#000000" font-family="sans-serif" font-size="13" lengthAdjust="spacing" textLength="229" x="96" y="171.5732">shows the two different sorting methods</text><text fill="#000000" font-family="sans-serif" font-size="13" lengthAdjust="spacing" textLength="132" x="96" y="186.0967">and asks to select one</text><polygon fill="#181818" points="425,215.375,435,219.375,425,223.375,429,219.375" style="stroke:#181818;stroke-width:1.0;"/><line style="stroke:#181818;stroke-width:1.0;" x1="68" x2="431" y1="219.375" y2="219.375"/><text fill="#000000" font-family="sans-serif" font-size="13" font-weight="bold" lengthAdjust="spacing" textLength="7" x="75" y="214.6201">3</text><text fill="#000000" font-family="sans-serif" font-size="13" lengthAdjust="spacing" textLength="154" x="86" y="214.6201">selects the sorting method</text><polygon fill="#181818" points="79,258.4219,69,262.4219,79,266.4219,75,262.4219" style="stroke:#181818;stroke-width:1.0;"/><line style="stroke:#181818;stroke-width:1.0;stroke-dasharray:2.0,2.0;" x1="73" x2="441" y1="262.4219" y2="262.4219"/><text fill="#000000" font-family="sans-serif" font-size="13" font-weight="bold" lengthAdjust="spacing" textLength="7" x="85" y="250.4053">4</text><text fill="#000000" font-family="sans-serif" font-size="13" lengthAdjust="spacing" textLength="307" x="96" y="243.1436">asks for the order that the Network Manager wants to</text><text fill="#000000" font-family="sans-serif" font-size="13" lengthAdjust="spacing" textLength="334" x="96" y="257.667">sort the property by their areas (ascending or descending)</text><polygon fill="#181818" points="425,286.9453,435,290.9453,425,294.9453,429,290.9453" style="stroke:#181818;stroke-width:1.0;"/><line style="stroke:#181818;stroke-width:1.0;" x1="68" x2="431" y1="290.9453" y2="290.9453"/><text fill="#000000" font-family="sans-serif" font-size="13" font-weight="bold" lengthAdjust="spacing" textLength="7" x="75" y="286.1904">5</text><text fill="#000000" font-family="sans-serif" font-size="13" lengthAdjust="spacing" textLength="310" x="86" y="286.1904">selects the order of sorting (ascending or descending)</text><polygon fill="#181818" points="79,329.9922,69,333.9922,79,337.9922,75,333.9922" style="stroke:#181818;stroke-width:1.0;"/><line style="stroke:#181818;stroke-width:1.0;stroke-dasharray:2.0,2.0;" x1="73" x2="441" y1="333.9922" y2="333.9922"/><text fill="#000000" font-family="sans-serif" font-size="13" font-weight="bold" lengthAdjust="spacing" textLength="7" x="85" y="321.9756">6</text><text fill="#000000" font-family="sans-serif" font-size="13" lengthAdjust="spacing" textLength="284" x="96" y="314.7139">shows the list of all the deals made sorted by the</text><text fill="#000000" font-family="sans-serif" font-size="13" lengthAdjust="spacing" textLength="197" x="96" y="329.2373">selected sorting method and order</text><!--SRC=[dLAzReCm4DvvYbEcP8ZKJfKoTCgQBAXRbWi-mCBOn3wAUFkU3QHDrBHLFPtntVTtX4RR3Zssq3hhYjgxbe1zJrculdHOD5XHpgCXy5GmsifyRGWrAZTeMq699b2MiMPfVSkVdbzW2_aOc5h8wTAJBGZs6giujixp_IRBi6Td-_PCNkg2dOVLaNXmle43MY7sAy00nqCcRAmBtQ5bMEqcsFGsbMbSloDJRCv0pl40szT5m4vQcm3iGEdG6Ho1QmAZ0uCh0Or9TqNY0LfKD45SCHSIcC-CkXK2eTb92cu82KB42qLPaYTH6foebcnQujgf02UBLbsb13AIA3WxqmdzTuHtHgQfYUqM_mVHzuAJX5BoZYZEAueLShhURG06oJpfFTd8btewxphoFC8v9Qaze2VPnXf3GLP5JGAkQBbj_kjmqYOxMgp-ml0dzv_hUlm7949Iiy7eFQcIBxUXGzneKld8uWS0]--></g></svg>