<?xml version="1.0" encoding="us-ascii" standalone="no"?><svg xmlns="http://www.w3.org/2000/svg" xmlns:xlink="http://www.w3.org/1999/xlink" contentStyleType="text/css" height="1492px" preserveAspectRatio="none" style="width:863px;height:1492px;background:#FFFFFF;" version="1.1" viewBox="0 0 863 1492" width="863px" zoomAndPan="magnify"><defs/><g><text fill="#000000" font-family="sans-serif" font-size="14" font-weight="bold" lengthAdjust="spacing" textLength="156" x="346.59" y="22.6738">Domain Model - US011</text><!--class Property--><g id="elem_Property"><rect codeLine="51" fill="#F1F1F1" height="127.4844" id="Property" rx="2.5" ry="2.5" style="stroke:#181818;stroke-width:0.5;" width="190" x="430.68" y="811.6406"/><text fill="#000000" font-family="sans-serif" font-size="14" lengthAdjust="spacing" textLength="54" x="498.68" y="829.3145">Property</text><line style="stroke:#181818;stroke-width:0.5;" x1="431.68" x2="619.68" y1="837.2813" y2="837.2813"/><text fill="#000000" font-family="sans-serif" font-size="14" lengthAdjust="spacing" textLength="29" x="436.68" y="853.9551">area</text><text fill="#000000" font-family="sans-serif" font-size="14" lengthAdjust="spacing" textLength="31" x="436.68" y="869.5957">price</text><text fill="#000000" font-family="sans-serif" font-size="14" lengthAdjust="spacing" textLength="178" x="436.68" y="885.2363">distanceFromTheCityCenter</text><text fill="#000000" font-family="sans-serif" font-size="14" lengthAdjust="spacing" textLength="29" x="436.68" y="900.877">area</text><text fill="#000000" font-family="sans-serif" font-size="14" lengthAdjust="spacing" textLength="178" x="436.68" y="916.5176">distanceFromTheCityCentre</text><text fill="#000000" font-family="sans-serif" font-size="14" lengthAdjust="spacing" textLength="31" x="436.68" y="932.1582">price</text></g><!--class Employee--><g id="elem_Employee"><rect codeLine="21" fill="#F1F1F1" height="80.5625" id="Employee" rx="2.5" ry="2.5" style="stroke:#181818;stroke-width:0.5;" width="101" x="94.18" y="153.6406"/><text fill="#000000" font-family="sans-serif" font-size="14" lengthAdjust="spacing" textLength="62" x="113.68" y="171.3145">Employee</text><line style="stroke:#181818;stroke-width:0.5;" x1="95.18" x2="194.18" y1="179.2813" y2="179.2813"/><text fill="#000000" font-family="sans-serif" font-size="14" lengthAdjust="spacing" textLength="35" x="100.18" y="195.9551">name</text><text fill="#000000" font-family="sans-serif" font-size="14" lengthAdjust="spacing" textLength="89" x="100.18" y="211.5957">phoneNumber</text><text fill="#000000" font-family="sans-serif" font-size="14" lengthAdjust="spacing" textLength="85" x="100.18" y="227.2363">emailAddress</text></g><!--class Agent--><g id="elem_Agent"><rect codeLine="27" fill="#F1F1F1" height="33.6406" id="Agent" rx="2.5" ry="2.5" style="stroke:#181818;stroke-width:0.5;" width="43" x="455.18" y="43.6406"/><text fill="#000000" font-family="sans-serif" font-size="14" lengthAdjust="spacing" textLength="37" x="458.18" y="61.3145">Agent</text><line style="stroke:#181818;stroke-width:0.5;" x1="456.18" x2="497.18" y1="69.2813" y2="69.2813"/></g><!--class Order--><g id="elem_Order"><rect codeLine="30" fill="#F1F1F1" height="80.5625" id="Order" rx="2.5" ry="2.5" style="stroke:#181818;stroke-width:0.5;" width="95" x="761.18" y="459.1406"/><text fill="#000000" font-family="sans-serif" font-size="14" lengthAdjust="spacing" textLength="37" x="790.18" y="476.8145">Order</text><line style="stroke:#181818;stroke-width:0.5;" x1="762.18" x2="855.18" y1="484.7813" y2="484.7813"/><text fill="#000000" font-family="sans-serif" font-size="14" lengthAdjust="spacing" textLength="83" x="767.18" y="501.4551">orderNumber</text><text fill="#000000" font-family="sans-serif" font-size="14" lengthAdjust="spacing" textLength="67" x="767.18" y="517.0957">clientEmail</text><text fill="#000000" font-family="sans-serif" font-size="14" lengthAdjust="spacing" textLength="31" x="767.18" y="532.7363">price</text></g><!--class Customer--><g id="elem_Customer"><rect codeLine="37" fill="#F1F1F1" height="80.5625" id="Customer" rx="2.5" ry="2.5" style="stroke:#181818;stroke-width:0.5;" width="101" x="282.18" y="153.6406"/><text fill="#000000" font-family="sans-serif" font-size="14" lengthAdjust="spacing" textLength="61" x="302.18" y="171.3145">Customer</text><line style="stroke:#181818;stroke-width:0.5;" x1="283.18" x2="382.18" y1="179.2813" y2="179.2813"/><text fill="#000000" font-family="sans-serif" font-size="14" lengthAdjust="spacing" textLength="35" x="288.18" y="195.9551">name</text><text fill="#000000" font-family="sans-serif" font-size="14" lengthAdjust="spacing" textLength="89" x="288.18" y="211.5957">phoneNumber</text><text fill="#000000" font-family="sans-serif" font-size="14" lengthAdjust="spacing" textLength="85" x="288.18" y="227.2363">emailAddress</text></g><!--class Announcement--><g id="elem_Announcement"><rect codeLine="43" fill="#F1F1F1" height="111.8438" id="Announcement" rx="2.5" ry="2.5" style="stroke:#181818;stroke-width:0.5;" width="117" x="667.18" y="623.6406"/><text fill="#000000" font-family="sans-serif" font-size="14" lengthAdjust="spacing" textLength="95" x="678.18" y="641.3145">Announcement</text><line style="stroke:#181818;stroke-width:0.5;" x1="668.18" x2="783.18" y1="649.2813" y2="649.2813"/><text fill="#000000" font-family="sans-serif" font-size="14" lengthAdjust="spacing" textLength="59" x="673.18" y="665.9551">localDate</text><text fill="#000000" font-family="sans-serif" font-size="14" lengthAdjust="spacing" textLength="53" x="673.18" y="681.5957">property</text><text fill="#000000" font-family="sans-serif" font-size="14" lengthAdjust="spacing" textLength="105" x="673.18" y="697.2363">commissionType</text><text fill="#000000" font-family="sans-serif" font-size="14" lengthAdjust="spacing" textLength="73" x="673.18" y="712.877">commission</text><text fill="#000000" font-family="sans-serif" font-size="14" lengthAdjust="spacing" textLength="80" x="673.18" y="728.5176">requestType</text></g><!--class Residence--><g id="elem_Residence"><rect codeLine="57" fill="#F1F1F1" height="96.2031" id="Residence" rx="2.5" ry="2.5" style="stroke:#181818;stroke-width:0.5;" width="170" x="430.68" y="451.6406"/><text fill="#000000" font-family="sans-serif" font-size="14" lengthAdjust="spacing" textLength="67" x="482.18" y="469.3145">Residence</text><line style="stroke:#181818;stroke-width:0.5;" x1="431.68" x2="599.68" y1="477.2813" y2="477.2813"/><text fill="#000000" font-family="sans-serif" font-size="14" lengthAdjust="spacing" textLength="127" x="436.68" y="493.9551">numberOfBedrooms</text><text fill="#000000" font-family="sans-serif" font-size="14" lengthAdjust="spacing" textLength="131" x="436.68" y="509.5957">numberOfBathrooms</text><text fill="#000000" font-family="sans-serif" font-size="14" lengthAdjust="spacing" textLength="158" x="436.68" y="525.2363">numberOfParkingSpaces</text><text fill="#000000" font-family="sans-serif" font-size="14" lengthAdjust="spacing" textLength="123" x="436.68" y="540.877">availableEquipment</text></g><!--class House--><g id="elem_House"><rect codeLine="64" fill="#F1F1F1" height="64.9219" id="House" rx="2.5" ry="2.5" style="stroke:#181818;stroke-width:0.5;" width="158" x="463.68" y="310.6406"/><text fill="#000000" font-family="sans-serif" font-size="14" lengthAdjust="spacing" textLength="40" x="522.68" y="328.3145">House</text><line style="stroke:#181818;stroke-width:0.5;" x1="464.68" x2="620.68" y1="336.2813" y2="336.2813"/><text fill="#000000" font-family="sans-serif" font-size="14" lengthAdjust="spacing" textLength="146" x="469.68" y="352.9551">existenceOfABasement</text><text fill="#000000" font-family="sans-serif" font-size="14" lengthAdjust="spacing" textLength="93" x="469.68" y="368.5957">inhabitableLoft</text></g><!--class SunExposure--><g id="elem_SunExposure"><rect codeLine="69" fill="#F1F1F1" height="49.2813" id="SunExposure" rx="2.5" ry="2.5" style="stroke:#181818;stroke-width:0.5;" width="90" x="635.68" y="475.1406"/><text fill="#000000" font-family="sans-serif" font-size="14" lengthAdjust="spacing" textLength="84" x="638.68" y="492.8145">SunExposure</text><line style="stroke:#181818;stroke-width:0.5;" x1="636.68" x2="724.68" y1="500.7813" y2="500.7813"/><text fill="#000000" font-family="sans-serif" font-size="14" lengthAdjust="spacing" textLength="54" x="641.68" y="517.4551">direction</text></g><!--class PropertyType--><g id="elem_PropertyType"><rect codeLine="73" fill="#F1F1F1" height="49.2813" id="PropertyType" rx="2.5" ry="2.5" style="stroke:#181818;stroke-width:0.5;" width="97" x="477.18" y="1038.1406"/><text fill="#000000" font-family="sans-serif" font-size="14" lengthAdjust="spacing" textLength="86" x="482.68" y="1055.8145">PropertyType</text><line style="stroke:#181818;stroke-width:0.5;" x1="478.18" x2="573.18" y1="1063.7813" y2="1063.7813"/><text fill="#000000" font-family="sans-serif" font-size="14" lengthAdjust="spacing" textLength="85" x="483.18" y="1080.4551">propertyType</text></g><!--class PassportCardNumber--><g id="elem_PassportCardNumber"><rect codeLine="104" fill="#F1F1F1" height="64.9219" id="PassportCardNumber" rx="2.5" ry="2.5" style="stroke:#181818;stroke-width:0.5;" width="147" x="71.18" y="310.6406"/><text fill="#000000" font-family="sans-serif" font-size="14" lengthAdjust="spacing" textLength="136" x="76.68" y="328.3145">PassportCardNumber</text><line style="stroke:#181818;stroke-width:0.5;" x1="72.18" x2="217.18" y1="336.2813" y2="336.2813"/><text fill="#000000" font-family="sans-serif" font-size="14" lengthAdjust="spacing" textLength="135" x="77.18" y="352.9551">passportCardNumber</text><text fill="#000000" font-family="sans-serif" font-size="14" lengthAdjust="spacing" textLength="135" x="77.18" y="368.5957">passportCardNumber</text></g><!--class District--><g id="elem_District"><rect codeLine="81" fill="#F1F1F1" height="49.2813" id="District" rx="2.5" ry="2.5" style="stroke:#181818;stroke-width:0.5;" width="89" x="343.18" y="1311.6406"/><text fill="#000000" font-family="sans-serif" font-size="14" lengthAdjust="spacing" textLength="43" x="366.18" y="1329.3145">District</text><line style="stroke:#181818;stroke-width:0.5;" x1="344.18" x2="431.18" y1="1337.2813" y2="1337.2813"/><text fill="#000000" font-family="sans-serif" font-size="14" lengthAdjust="spacing" textLength="77" x="349.18" y="1353.9551">districtName</text></g><!--class State--><g id="elem_State"><rect codeLine="85" fill="#F1F1F1" height="49.2813" id="State" rx="2.5" ry="2.5" style="stroke:#181818;stroke-width:0.5;" width="43" x="366.18" y="1436.6406"/><text fill="#000000" font-family="sans-serif" font-size="14" lengthAdjust="spacing" textLength="33" x="371.18" y="1454.3145">State</text><line style="stroke:#181818;stroke-width:0.5;" x1="367.18" x2="408.18" y1="1462.2813" y2="1462.2813"/><text fill="#000000" font-family="sans-serif" font-size="14" lengthAdjust="spacing" textLength="31" x="372.18" y="1478.9551">state</text></g><!--class City--><g id="elem_City"><rect codeLine="89" fill="#F1F1F1" height="49.2813" id="City" rx="2.5" ry="2.5" style="stroke:#181818;stroke-width:0.5;" width="69" x="353.18" y="1186.6406"/><text fill="#000000" font-family="sans-serif" font-size="14" lengthAdjust="spacing" textLength="24" x="375.68" y="1204.3145">City</text><line style="stroke:#181818;stroke-width:0.5;" x1="354.18" x2="421.18" y1="1212.2813" y2="1212.2813"/><text fill="#000000" font-family="sans-serif" font-size="14" lengthAdjust="spacing" textLength="57" x="359.18" y="1228.9551">cityName</text></g><!--class Address--><g id="elem_Address"><rect codeLine="93" fill="#F1F1F1" height="96.2031" id="Address" rx="2.5" ry="2.5" style="stroke:#181818;stroke-width:0.5;" width="90" x="342.68" y="1014.6406"/><text fill="#000000" font-family="sans-serif" font-size="14" lengthAdjust="spacing" textLength="52" x="361.68" y="1032.3145">Address</text><line style="stroke:#181818;stroke-width:0.5;" x1="343.68" x2="431.68" y1="1040.2813" y2="1040.2813"/><text fill="#000000" font-family="sans-serif" font-size="14" lengthAdjust="spacing" textLength="78" x="348.68" y="1056.9551">doorNumber</text><text fill="#000000" font-family="sans-serif" font-size="14" lengthAdjust="spacing" textLength="77" x="348.68" y="1072.5957">floorNumber</text><text fill="#000000" font-family="sans-serif" font-size="14" lengthAdjust="spacing" textLength="36" x="348.68" y="1088.2363">street</text><text fill="#000000" font-family="sans-serif" font-size="14" lengthAdjust="spacing" textLength="72" x="348.68" y="1103.877">postalCode</text></g><!--class TaxNumber--><g id="elem_TaxNumber"><rect codeLine="100" fill="#F1F1F1" height="49.2813" id="TaxNumber" rx="2.5" ry="2.5" style="stroke:#181818;stroke-width:0.5;" width="79" x="103.18" y="475.1406"/><text fill="#000000" font-family="sans-serif" font-size="14" lengthAdjust="spacing" textLength="72" x="106.68" y="492.8145">TaxNumber</text><line style="stroke:#181818;stroke-width:0.5;" x1="104.18" x2="181.18" y1="500.7813" y2="500.7813"/><text fill="#000000" font-family="sans-serif" font-size="14" lengthAdjust="spacing" textLength="67" x="109.18" y="517.4551">taxNumber</text></g><!--link Announcement to Property--><g id="link_Announcement_Property"><path codeLine="108" d="M668.64,735.8306 C644.27,759.4006 615.71,787.0306 590.55,811.3806 " fill="none" id="Announcement-Property" style="stroke:#181818;stroke-width:1.0;"/><polygon fill="#000000" points="639.0865,777.379,647.6307,773.2019,643.5437,768.9775,639.0865,777.379" style="stroke:#000000;stroke-width:1.0;"/><text fill="#000000" font-family="sans-serif" font-size="13" lengthAdjust="spacing" textLength="63" x="651.68" y="778.4092">announces</text><text fill="#000000" font-family="sans-serif" font-size="13" lengthAdjust="spacing" textLength="7" x="654.2617" y="755.3419">1</text><text fill="#000000" font-family="sans-serif" font-size="13" lengthAdjust="spacing" textLength="7" x="590.6459" y="800.9698">1</text></g><!--link Order to Announcement--><g id="link_Order_Announcement"><path codeLine="109" d="M790.26,540.1406 C778.85,564.6206 764.02,596.4306 751.45,623.3806 " fill="none" id="Order-Announcement" style="stroke:#181818;stroke-width:1.0;"/><polygon fill="#000000" points="774.5672,590.434,781.053,583.4781,775.7257,580.9943,774.5672,590.434" style="stroke:#000000;stroke-width:1.0;"/><text fill="#000000" font-family="sans-serif" font-size="13" lengthAdjust="spacing" textLength="14" x="785.68" y="590.4092">on</text><text fill="#000000" font-family="sans-serif" font-size="13" lengthAdjust="spacing" textLength="5" x="781.9259" y="559.5561">*</text><text fill="#000000" font-family="sans-serif" font-size="13" lengthAdjust="spacing" textLength="7" x="747.4425" y="612.6943">1</text></g><!--link Agent to Order--><g id="link_Agent_Order"><path codeLine="110" d="M498.54,72.9906 C554.4,103.2206 702.88,191.5906 772.68,310.6406 C799.66,356.6506 806.96,418.8706 808.65,458.8806 " fill="none" id="Agent-Order" style="stroke:#181818;stroke-width:1.0;"/><polygon fill="#000000" points="760.8121,276.7998,757.437,267.9083,752.8552,271.5902,760.8121,276.7998" style="stroke:#000000;stroke-width:1.0;"/><text fill="#000000" font-family="sans-serif" font-size="13" lengthAdjust="spacing" textLength="52" x="766.68" y="277.4092">analyzes</text><text fill="#000000" font-family="sans-serif" font-size="13" lengthAdjust="spacing" textLength="7" x="506.3065" y="72.5328">1</text><text fill="#000000" font-family="sans-serif" font-size="13" lengthAdjust="spacing" textLength="5" x="803.2152" y="448.523">*</text></g><!--link Agent to Employee--><g id="link_Agent_Employee"><path codeLine="111" d="M455.15,70.1706 C407.24,89.1506 290.03,135.5706 214.12,165.6306 " fill="none" id="Agent-to-Employee" style="stroke:#181818;stroke-width:1.0;"/><polygon fill="none" points="216.48,172.2306,195.31,173.0906,211.33,159.2106,216.48,172.2306" style="stroke:#181818;stroke-width:1.0;"/><text fill="#000000" font-family="sans-serif" font-size="13" lengthAdjust="spacing" textLength="21" x="361.68" y="120.4092">is a</text></g><!--link Residence to Property--><g id="link_Residence_Property"><path codeLine="112" d="M516.95,547.9406 C518.58,609.0406 521.46,716.3906 523.46,791.1906 " fill="none" id="Residence-to-Property" style="stroke:#181818;stroke-width:1.0;"/><polygon fill="none" points="530.46,791.1806,524,811.3606,516.47,791.5506,530.46,791.1806" style="stroke:#181818;stroke-width:1.0;"/><text fill="#000000" font-family="sans-serif" font-size="13" lengthAdjust="spacing" textLength="21" x="523.68" y="684.4092">is a</text></g><!--link House to Residence--><g id="link_House_Residence"><path codeLine="113" d="M537.15,375.7806 C534.32,391.9606 530.77,412.3106 527.37,431.7606 " fill="none" id="House-to-Residence" style="stroke:#181818;stroke-width:1.0;"/><polygon fill="none" points="534.26,433.0006,523.92,451.5006,520.47,430.5906,534.26,433.0006" style="stroke:#181818;stroke-width:1.0;"/><text fill="#000000" font-family="sans-serif" font-size="13" lengthAdjust="spacing" textLength="21" x="532.68" y="418.4092">is a</text></g><!--link House to SunExposure--><g id="link_House_SunExposure"><path codeLine="114" d="M570.94,375.7806 C597.28,405.2606 635.95,448.5606 659.66,475.1106 " fill="none" id="House-SunExposure" style="stroke:#181818;stroke-width:1.0;"/><polygon fill="#000000" points="620.0108,417.6314,616.1773,408.9277,611.7935,412.8432,620.0108,417.6314" style="stroke:#000000;stroke-width:1.0;"/><text fill="#000000" font-family="sans-serif" font-size="13" lengthAdjust="spacing" textLength="21" x="625.68" y="418.4092">has</text></g><!--link Customer to TaxNumber--><g id="link_Customer_TaxNumber"><path codeLine="115" d="M313.56,234.8606 C295.11,272.1206 265.64,328.9206 235.68,375.6406 C212.56,411.7006 182.01,450.7306 162.35,474.9306 " fill="none" id="Customer-TaxNumber" style="stroke:#181818;stroke-width:1.0;"/><polygon fill="#000000" points="277.0152,347.6331,284.3226,341.5459,279.3491,338.4133,277.0152,347.6331" style="stroke:#000000;stroke-width:1.0;"/><text fill="#000000" font-family="sans-serif" font-size="13" lengthAdjust="spacing" textLength="21" x="288.68" y="347.9092">has</text><text fill="#000000" font-family="sans-serif" font-size="13" lengthAdjust="spacing" textLength="7" x="159.6957" y="464.2097">1</text></g><!--link Customer to PassportCardNumber--><g id="link_Customer_PassportCardNumber"><path codeLine="116" d="M282.07,225.7406 C264.1,237.2706 244.03,250.9306 226.68,264.6406 C208.85,278.7306 190.34,295.9606 175.43,310.6006 " fill="none" id="Customer-PassportCardNumber" style="stroke:#181818;stroke-width:1.0;"/><polygon fill="#000000" points="227.7676,276.0157,236.6752,272.6833,233.0152,268.0839,227.7676,276.0157" style="stroke:#000000;stroke-width:1.0;"/><text fill="#000000" font-family="sans-serif" font-size="13" lengthAdjust="spacing" textLength="21" x="240.68" y="277.4092">has</text><text fill="#000000" font-family="sans-serif" font-size="13" lengthAdjust="spacing" textLength="7" x="174.3909" y="299.7856">1</text></g><!--link Employee to TaxNumber--><g id="link_Employee_TaxNumber"><path codeLine="117" d="M94.06,225.7906 C65.86,245.9806 33.35,275.2106 17.68,310.6406 C6,337.0606 6.52,348.9906 17.68,375.6406 C35.44,418.0406 75.74,453.2206 105.81,474.9406 " fill="none" id="Employee-TaxNumber" style="stroke:#181818;stroke-width:1.0;"/><polygon fill="#000000" points="22.9155,348.3968,25.4251,339.2233,19.5538,339.5002,22.9155,348.3968" style="stroke:#000000;stroke-width:1.0;"/><text fill="#000000" font-family="sans-serif" font-size="13" lengthAdjust="spacing" textLength="21" x="31.68" y="347.9092">has</text><text fill="#000000" font-family="sans-serif" font-size="13" lengthAdjust="spacing" textLength="7" x="87.9606" y="464.2223">1</text></g><!--link Employee to PassportCardNumber--><g id="link_Employee_PassportCardNumber"><path codeLine="118" d="M144.68,234.9206 C144.68,258.5606 144.68,288.1406 144.68,310.2406 " fill="none" id="Employee-PassportCardNumber" style="stroke:#181818;stroke-width:1.0;"/><polygon fill="#000000" points="149.68,277.9023,152.6189,268.8573,146.7411,268.8573,149.68,277.9023" style="stroke:#000000;stroke-width:1.0;"/><text fill="#000000" font-family="sans-serif" font-size="13" lengthAdjust="spacing" textLength="21" x="158.68" y="277.4092">has</text><text fill="#000000" font-family="sans-serif" font-size="13" lengthAdjust="spacing" textLength="7" x="136.9581" y="299.8418">1</text></g><!--link Property to Address--><g id="link_Property_Address"><path codeLine="119" d="M479.15,938.6806 C460.69,963.5106 439.81,991.5706 422.67,1014.6106 " fill="none" id="Property-Address" style="stroke:#181818;stroke-width:1.0;"/><polygon fill="#000000" points="458.6958,980.9142,466.4523,975.4108,461.7362,971.9027,458.6958,980.9142" style="stroke:#000000;stroke-width:1.0;"/><text fill="#000000" font-family="sans-serif" font-size="13" lengthAdjust="spacing" textLength="21" x="470.68" y="981.4092">has</text></g><!--link Address to City--><g id="link_Address_City"><path codeLine="120" d="M387.68,1110.8006 C387.68,1136.0606 387.68,1166.0806 387.68,1186.4606 " fill="none" id="Address-City" style="stroke:#181818;stroke-width:1.0;"/><polygon fill="#000000" points="392.68,1153.9023,395.6189,1144.8573,389.7411,1144.8573,392.68,1153.9023" style="stroke:#000000;stroke-width:1.0;"/><text fill="#000000" font-family="sans-serif" font-size="13" lengthAdjust="spacing" textLength="21" x="401.68" y="1153.4092">has</text></g><!--link City to District--><g id="link_City_District"><path codeLine="121" d="M387.68,1235.8606 C387.68,1257.6406 387.68,1289.7406 387.68,1311.5006 " fill="none" id="City-District" style="stroke:#181818;stroke-width:1.0;"/><polygon fill="#000000" points="392.68,1278.9023,395.6189,1269.8573,389.7411,1269.8573,392.68,1278.9023" style="stroke:#000000;stroke-width:1.0;"/><text fill="#000000" font-family="sans-serif" font-size="13" lengthAdjust="spacing" textLength="24" x="401.68" y="1278.4092">is in</text></g><!--link District to State--><g id="link_District_State"><path codeLine="122" d="M387.68,1360.8606 C387.68,1382.6406 387.68,1414.7406 387.68,1436.5006 " fill="none" id="District-State" style="stroke:#181818;stroke-width:1.0;"/><polygon fill="#000000" points="392.68,1403.9023,395.6189,1394.8573,389.7411,1394.8573,392.68,1403.9023" style="stroke:#000000;stroke-width:1.0;"/><text fill="#000000" font-family="sans-serif" font-size="13" lengthAdjust="spacing" textLength="24" x="401.68" y="1403.4092">is in</text></g><!--link Customer to Address--><g id="link_Customer_Address"><path codeLine="123" d="M351.76,234.7006 C364.03,263.7406 377.68,304.5106 377.68,342.1406 C377.68,342.1406 377.68,342.1406 377.68,876.1406 C377.68,923.2306 380.93,976.9406 383.73,1014.4106 " fill="none" id="Customer-Address" style="stroke:#181818;stroke-width:1.0;"/><polygon fill="#000000" points="382.8848,590.8981,385.4507,581.7403,379.5778,581.9811,382.8848,590.8981" style="stroke:#000000;stroke-width:1.0;"/><text fill="#000000" font-family="sans-serif" font-size="13" lengthAdjust="spacing" textLength="21" x="391.68" y="590.4092">has</text></g><!--link Property to PropertyType--><g id="link_Property_PropertyType"><path codeLine="124" d="M525.68,938.6806 C525.68,972.7606 525.68,1012.9506 525.68,1037.8606 " fill="none" id="Property-PropertyType" style="stroke:#181818;stroke-width:1.0;"/><polygon fill="#000000" points="530.68,981.9023,533.6189,972.8573,527.7411,972.8573,530.68,981.9023" style="stroke:#000000;stroke-width:1.0;"/><text fill="#000000" font-family="sans-serif" font-size="13" lengthAdjust="spacing" textLength="21" x="539.68" y="981.4092">has</text><text fill="#000000" font-family="sans-serif" font-size="13" lengthAdjust="spacing" textLength="7" x="517.7831" y="1027.5166">1</text></g><!--link Customer to Order--><g id="link_Customer_Order"><path codeLine="125" d="M383.28,206.3806 C446.94,222.2106 557.74,255.4706 638.68,310.6406 C698.31,351.2906 751.31,417.0106 781.7,459.0006 " fill="none" id="Customer-Order" style="stroke:#181818;stroke-width:1.0;"/><polygon fill="#000000" points="719.9027,346.0798,713.8375,338.7542,710.69,343.7183,719.9027,346.0798" style="stroke:#000000;stroke-width:1.0;"/><text fill="#000000" font-family="sans-serif" font-size="13" lengthAdjust="spacing" textLength="39" x="724.68" y="347.9092">makes</text><text fill="#000000" font-family="sans-serif" font-size="13" lengthAdjust="spacing" textLength="5" x="771.4489" y="448.3689">*</text></g><!--SRC=[dLJBRjim4BplLn2v52WWeBdcOC1nNBH0cmHr-W5hQMqHeKY5fDeeQlwzI-f19gdHeXTBuixiOtPeTozrYnORqHXjojgQXeIt7O5R8YsMztYadUyL2KkbHtrKES3LM9cVKX_50PNB8whNdAvlIHZhQmFmJj712s-4bSVQYqg6VD9eo4YbGkVMtbkvxpnzBetUoISI7m1gMP4efIsvV7nlYBDM3i1BpyrTcGQb5bzDHKeKullkm_avGCmdRgrfoVf-0BI4q5fP4bJIyJGbVUIvxshQIDzlI7koy3ppjashJ4yqWCQ6eAsDfkkksJE6k9fQLvKbvn9XVUGCG_g-iHNP0KnuJCHIISPi0trgXD4JVDCvpqkm_rvFQzFn34qigqo9wWezCwU1eJHD8vrZbUzu4zadM7heoFbu_7n2g1CIMKgTZxnlv7WbZEJEOxytXqkgh36DImVewvSdjsXvySSTcumSu0-U4FUAjW-TRCD4AVydqpdEJO_SK2XpSrXVeejZWzGrxgKFp2_ca95sdTu-jiPrbgd9RM-63H8CYsIl1E6VblsxGLkDcs3acxE4l-86MHe_HEt2stNOPEh9yte6SE6HJeEm0vJy-n8zxPkJ6JFxvw3IErSWyi0pUbGRTdwYtk7ZtA-VN_zdhDnXukpyJ1H5VCpYYGk14yI95KJ3YxFt2-u5_qAi16yWtf8fMO2Ef908LVyKyuoGelYrMYuX0wGJ28lNE1pYMISn7hqoKXFqLIpt1iTg33NdspUtlaXu4l5MnWMwT5sSp9P1_fPjcP6XaocMsFpDeU2ZrAmSyRCbHmtuBt85or5G8bWnY-KplYwLjv6R8DoPFubKY7oz3Tx7tS9l]--></g></svg>