<?xml version="1.0" encoding="us-ascii" standalone="no"?><svg xmlns="http://www.w3.org/2000/svg" xmlns:xlink="http://www.w3.org/1999/xlink" contentStyleType="text/css" height="331.8px" preserveAspectRatio="none" style="width:492px;height:331px;background:#FFFFFF;" version="1.1" viewBox="0 0 492 331" width="492.1px" zoomAndPan="magnify"><defs/><g><text fill="#000000" font-family="sans-serif" font-size="9.8" font-weight="bold" lengthAdjust="spacing" textLength="205.1" x="142.8" y="19.3717">System Sequence Diagram (SSD) - USS005</text><rect fill="#FFFFFF" height="180.3977" style="stroke:#181818;stroke-width:0.6999999999999998;" width="7" x="53.2" y="89.0969"/><rect fill="#FFFFFF" height="19.9664" style="stroke:#181818;stroke-width:0.6999999999999998;" width="7" x="462" y="103.4633"/><rect fill="#FFFFFF" height="19.9664" style="stroke:#181818;stroke-width:0.6999999999999998;" width="7" x="462" y="143.3961"/><rect fill="#FFFFFF" height="19.9664" style="stroke:#181818;stroke-width:0.6999999999999998;" width="7" x="462" y="183.3289"/><rect fill="#FFFFFF" height="19.9664" style="stroke:#181818;stroke-width:0.6999999999999998;" width="7" x="462" y="223.2617"/><line style="stroke:#181818;stroke-width:0.3499999999999999;stroke-dasharray:5.0,5.0;" x1="56.7" x2="56.7" y1="82.0969" y2="275.7945"/><line style="stroke:#181818;stroke-width:0.3499999999999999;stroke-dasharray:5.0,5.0;" x1="465.5" x2="465.5" y1="82.0969" y2="275.7945"/><text fill="#000000" font-family="sans-serif" font-size="9.8" lengthAdjust="spacing" textLength="102.2" x="3.5" y="80.0201">Organization Employee</text><ellipse cx="56.7" cy="35.0984" fill="#E3E3E3" rx="5.6" ry="5.6" style="stroke:#181818;stroke-width:0.3499999999999999;"/><path d="M56.7,40.6984 L56.7,59.5984 M47.6,46.2984 L65.8,46.2984 M56.7,59.5984 L47.6,70.0984 M56.7,59.5984 L65.8,70.0984 " fill="none" style="stroke:#181818;stroke-width:0.3499999999999999;"/><text fill="#000000" font-family="sans-serif" font-size="9.8" lengthAdjust="spacing" textLength="102.2" x="3.5" y="283.9662">Organization Employee</text><ellipse cx="56.7" cy="291.993" fill="#E3E3E3" rx="5.6" ry="5.6" style="stroke:#181818;stroke-width:0.3499999999999999;"/><path d="M56.7,297.593 L56.7,316.493 M47.6,303.193 L65.8,303.193 M56.7,316.493 L47.6,326.993 M56.7,316.493 L65.8,326.993 " fill="none" style="stroke:#181818;stroke-width:0.3499999999999999;"/><rect fill="#E3E3E3" height="20.7484" rx="1.75" ry="1.75" style="stroke:#181818;stroke-width:0.3499999999999999;" width="44.8" x="443.1" y="60.6484"/><text fill="#000000" font-family="sans-serif" font-size="9.8" lengthAdjust="spacing" textLength="35" x="448" y="74.4201">:System</text><rect fill="#E3E3E3" height="20.7484" rx="1.75" ry="1.75" style="stroke:#181818;stroke-width:0.3499999999999999;" width="44.8" x="443.1" y="275.0945"/><text fill="#000000" font-family="sans-serif" font-size="9.8" lengthAdjust="spacing" textLength="35" x="448" y="288.8662">:System</text><rect fill="#FFFFFF" height="180.3977" style="stroke:#181818;stroke-width:0.6999999999999998;" width="7" x="53.2" y="89.0969"/><rect fill="#FFFFFF" height="19.9664" style="stroke:#181818;stroke-width:0.6999999999999998;" width="7" x="462" y="103.4633"/><rect fill="#FFFFFF" height="19.9664" style="stroke:#181818;stroke-width:0.6999999999999998;" width="7" x="462" y="143.3961"/><rect fill="#FFFFFF" height="19.9664" style="stroke:#181818;stroke-width:0.6999999999999998;" width="7" x="462" y="183.3289"/><rect fill="#FFFFFF" height="19.9664" style="stroke:#181818;stroke-width:0.6999999999999998;" width="7" x="462" y="223.2617"/><polygon fill="#181818" points="453.6,100.6633,460.6,103.4633,453.6,106.2633,456.4,103.4633" style="stroke:#181818;stroke-width:0.6999999999999998;"/><line style="stroke:#181818;stroke-width:0.6999999999999998;" x1="60.2" x2="457.8" y1="103.4633" y2="103.4633"/><text fill="#000000" font-family="sans-serif" font-size="9.1" font-weight="bold" lengthAdjust="spacing" textLength="4.9" x="65.1" y="100.1349">1</text><text fill="#000000" font-family="sans-serif" font-size="9.1" lengthAdjust="spacing" textLength="93.8" x="72.8" y="100.1349">asks to register a store</text><polygon fill="#181818" points="67.9,120.6297,60.9,123.4297,67.9,126.2297,65.1,123.4297" style="stroke:#181818;stroke-width:0.6999999999999998;"/><line style="stroke:#181818;stroke-width:0.6999999999999998;stroke-dasharray:2.0,2.0;" x1="63.7" x2="464.8" y1="123.4297" y2="123.4297"/><text fill="#000000" font-family="sans-serif" font-size="9.1" font-weight="bold" lengthAdjust="spacing" textLength="4.9" x="72.1" y="120.1013">2</text><text fill="#000000" font-family="sans-serif" font-size="9.1" lengthAdjust="spacing" textLength="126" x="79.8" y="120.1013">requests data for store address</text><polygon fill="#181818" points="453.6,140.5961,460.6,143.3961,453.6,146.1961,456.4,143.3961" style="stroke:#181818;stroke-width:0.6999999999999998;"/><line style="stroke:#181818;stroke-width:0.6999999999999998;" x1="60.2" x2="457.8" y1="143.3961" y2="143.3961"/><text fill="#000000" font-family="sans-serif" font-size="9.1" font-weight="bold" lengthAdjust="spacing" textLength="4.9" x="65.1" y="140.0677">3</text><text fill="#000000" font-family="sans-serif" font-size="9.1" lengthAdjust="spacing" textLength="380.8" x="72.8" y="140.0677">types requested data (street address, doorNumber, floorNumber, zipCode, state, district, city )</text><polygon fill="#181818" points="67.9,160.5625,60.9,163.3625,67.9,166.1625,65.1,163.3625" style="stroke:#181818;stroke-width:0.6999999999999998;"/><line style="stroke:#181818;stroke-width:0.6999999999999998;stroke-dasharray:2.0,2.0;" x1="63.7" x2="464.8" y1="163.3625" y2="163.3625"/><text fill="#000000" font-family="sans-serif" font-size="9.1" font-weight="bold" lengthAdjust="spacing" textLength="4.9" x="72.1" y="160.0341">4</text><text fill="#000000" font-family="sans-serif" font-size="9.1" lengthAdjust="spacing" textLength="75.6" x="79.8" y="160.0341">asks for store data</text><polygon fill="#181818" points="453.6,180.5289,460.6,183.3289,453.6,186.1289,456.4,183.3289" style="stroke:#181818;stroke-width:0.6999999999999998;"/><line style="stroke:#181818;stroke-width:0.6999999999999998;" x1="60.2" x2="457.8" y1="183.3289" y2="183.3289"/><text fill="#000000" font-family="sans-serif" font-size="9.1" font-weight="bold" lengthAdjust="spacing" textLength="4.9" x="65.1" y="180.0005">5</text><text fill="#000000" font-family="sans-serif" font-size="9.1" lengthAdjust="spacing" textLength="299.6" x="72.8" y="180.0005">types requested store data (ID, designation, emailAddress, phoneNumber)</text><polygon fill="#181818" points="67.9,200.4953,60.9,203.2953,67.9,206.0953,65.1,203.2953" style="stroke:#181818;stroke-width:0.6999999999999998;"/><line style="stroke:#181818;stroke-width:0.6999999999999998;stroke-dasharray:2.0,2.0;" x1="63.7" x2="464.8" y1="203.2953" y2="203.2953"/><text fill="#000000" font-family="sans-serif" font-size="9.1" font-weight="bold" lengthAdjust="spacing" textLength="4.9" x="72.1" y="199.9669">6</text><text fill="#000000" font-family="sans-serif" font-size="9.1" lengthAdjust="spacing" textLength="224.7" x="79.8" y="199.9669">shows store preview and asks for confirmed submission</text><polygon fill="#181818" points="453.6,220.4617,460.6,223.2617,453.6,226.0617,456.4,223.2617" style="stroke:#181818;stroke-width:0.6999999999999998;"/><line style="stroke:#181818;stroke-width:0.6999999999999998;" x1="60.2" x2="457.8" y1="223.2617" y2="223.2617"/><text fill="#000000" font-family="sans-serif" font-size="9.1" font-weight="bold" lengthAdjust="spacing" textLength="4.9" x="65.1" y="219.9333">7</text><text fill="#000000" font-family="sans-serif" font-size="9.1" lengthAdjust="spacing" textLength="83.3" x="72.8" y="219.9333">confirms submission</text><polygon fill="#181818" points="67.9,240.4281,60.9,243.2281,67.9,246.0281,65.1,243.2281" style="stroke:#181818;stroke-width:0.6999999999999998;"/><line style="stroke:#181818;stroke-width:0.6999999999999998;stroke-dasharray:2.0,2.0;" x1="63.7" x2="464.8" y1="243.2281" y2="243.2281"/><text fill="#000000" font-family="sans-serif" font-size="9.1" font-weight="bold" lengthAdjust="spacing" textLength="4.9" x="72.1" y="239.8997">8</text><text fill="#000000" font-family="sans-serif" font-size="9.1" lengthAdjust="spacing" textLength="73.5" x="79.8" y="239.8997">registers the store</text><polygon fill="#181818" points="67.9,260.3945,60.9,263.1945,67.9,265.9945,65.1,263.1945" style="stroke:#181818;stroke-width:0.6999999999999998;"/><line style="stroke:#181818;stroke-width:0.6999999999999998;stroke-dasharray:2.0,2.0;" x1="63.7" x2="464.8" y1="263.1945" y2="263.1945"/><text fill="#000000" font-family="sans-serif" font-size="9.1" font-weight="bold" lengthAdjust="spacing" textLength="4.9" x="72.1" y="259.8661">9</text><text fill="#000000" font-family="sans-serif" font-size="9.1" lengthAdjust="spacing" textLength="110.6" x="79.8" y="259.8661">displays operation success</text><!--SRC=[dPE_Zjim3CPtFmMHAGSum2rTCXGecWwtj8FH1-19Z4t4-bEHli3tz6NiE0dQov3J9ChaZzydqNBWcB5WW91YSbr9WK3BG9LSlcHq1sofqR4dAEGKOzlV9aY7FXqvjh37NgYgbDLIcr6K0ZJqPw3e27QCxIbztJIx9zZ0xwPvVlvILJXeYaDufM9xfwd0wbTfCV8xAgS8FqBkqqYq0fHBK5bhPSSPey9gE_UQCkRjXE8tLBgML61hYM3pTL6ujRA3W2Pprx8T5K0G4q9JnGMqaE6ypkKR8rseMsEONr41ZugmDpiJ2j3xGY9JjQSFeHzgqp6JB5JoCtOjMeXqWTRWKoe_fqkiOT_V1E-SloTFjQcmTfPe1WixhS6nZl3q6OlJTLsTdHGzPkj_LrSIh5zs9fE4spWDG0qKaFjlYzNSfKYplK-fbouTvTmm5tfZEW96VtNbKjnp2ITLmsjW4HFnyBET8V8lu-5fcYVInhEZcw6y8-K-oDuzzpWAf4nb_h5aSEx-HFu5]--></g></svg>