<?xml version="1.0" encoding="us-ascii" standalone="no"?><svg xmlns="http://www.w3.org/2000/svg" xmlns:xlink="http://www.w3.org/1999/xlink" contentStyleType="text/css" height="504px" preserveAspectRatio="none" style="width:564px;height:504px;background:#FFFFFF;" version="1.1" viewBox="0 0 564 504" width="564px" zoomAndPan="magnify"><defs/><g><text fill="#000000" font-family="sans-serif" font-size="14" font-weight="bold" lengthAdjust="spacing" textLength="295" x="136" y="28.5352">US001 - System Sequence Diagram (SSD)</text><rect fill="#FFFFFF" height="285.416" style="stroke:#181818;stroke-width:1.0;" width="10" x="80" y="128.9766"/><rect fill="#FFFFFF" height="44.6211" style="stroke:#181818;stroke-width:1.0;" width="10" x="510" y="150.2871"/><rect fill="#FFFFFF" height="29.3105" style="stroke:#181818;stroke-width:1.0;" width="10" x="510" y="263.8398"/><rect fill="#FFFFFF" height="44.6211" style="stroke:#181818;stroke-width:1.0;" width="10" x="510" y="353.7715"/><rect fill="none" height="91.2422" style="stroke:#000000;stroke-width:1.5;" width="548" x="10" y="209.9082"/><rect fill="none" height="91.2422" style="stroke:#000000;stroke-width:1.5;" width="548" x="10" y="315.1504"/><line style="stroke:#181818;stroke-width:0.5;stroke-dasharray:5.0,5.0;" x1="85" x2="85" y1="118.9766" y2="423.3926"/><line style="stroke:#181818;stroke-width:0.5;stroke-dasharray:5.0,5.0;" x1="515" x2="515" y1="118.9766" y2="423.3926"/><text fill="#000000" font-family="sans-serif" font-size="14" lengthAdjust="spacing" textLength="124" x="20" y="116.0234">Unregistered User</text><ellipse cx="85" cy="50.9883" fill="#E3E3E3" rx="8" ry="8" style="stroke:#181818;stroke-width:0.5;"/><path d="M85,58.9883 L85,85.9883 M72,66.9883 L98,66.9883 M85,85.9883 L72,100.9883 M85,85.9883 L98,100.9883 " fill="none" style="stroke:#181818;stroke-width:0.5;"/><text fill="#000000" font-family="sans-serif" font-size="14" lengthAdjust="spacing" textLength="124" x="20" y="435.9277">Unregistered User</text><ellipse cx="85" cy="447.3809" fill="#E3E3E3" rx="8" ry="8" style="stroke:#181818;stroke-width:0.5;"/><path d="M85,455.3809 L85,482.3809 M72,463.3809 L98,463.3809 M85,482.3809 L72,497.3809 M85,482.3809 L98,497.3809 " fill="none" style="stroke:#181818;stroke-width:0.5;"/><rect fill="#E3E3E3" height="30.4883" rx="2.5" ry="2.5" style="stroke:#181818;stroke-width:0.5;" width="66" x="482" y="87.4883"/><text fill="#000000" font-family="sans-serif" font-size="14" lengthAdjust="spacing" textLength="52" x="489" y="108.0234">:System</text><rect fill="#E3E3E3" height="30.4883" rx="2.5" ry="2.5" style="stroke:#181818;stroke-width:0.5;" width="66" x="482" y="422.3926"/><text fill="#000000" font-family="sans-serif" font-size="14" lengthAdjust="spacing" textLength="52" x="489" y="442.9277">:System</text><rect fill="#FFFFFF" height="285.416" style="stroke:#181818;stroke-width:1.0;" width="10" x="80" y="128.9766"/><rect fill="#FFFFFF" height="44.6211" style="stroke:#181818;stroke-width:1.0;" width="10" x="510" y="150.2871"/><rect fill="#FFFFFF" height="29.3105" style="stroke:#181818;stroke-width:1.0;" width="10" x="510" y="263.8398"/><rect fill="#FFFFFF" height="44.6211" style="stroke:#181818;stroke-width:1.0;" width="10" x="510" y="353.7715"/><polygon fill="#181818" points="498,146.2871,508,150.2871,498,154.2871,502,150.2871" style="stroke:#181818;stroke-width:1.0;"/><line style="stroke:#181818;stroke-width:1.0;" x1="90" x2="504" y1="150.2871" y2="150.2871"/><text fill="#000000" font-family="sans-serif" font-size="13" font-weight="bold" lengthAdjust="spacing" textLength="9" x="97" y="145.5449">1</text><text fill="#000000" font-family="sans-serif" font-size="13" lengthAdjust="spacing" textLength="163" x="110" y="145.5449">asks to display properties</text><polygon fill="#181818" points="101,190.9082,91,194.9082,101,198.9082,97,194.9082" style="stroke:#181818;stroke-width:1.0;"/><line style="stroke:#181818;stroke-width:1.0;stroke-dasharray:2.0,2.0;" x1="95" x2="514" y1="194.9082" y2="194.9082"/><text fill="#000000" font-family="sans-serif" font-size="13" font-weight="bold" lengthAdjust="spacing" textLength="9" x="107" y="182.5107">2</text><text fill="#000000" font-family="sans-serif" font-size="13" lengthAdjust="spacing" textLength="379" x="120" y="174.8555">asks if the user wants to filter the specific (type of property)</text><text fill="#000000" font-family="sans-serif" font-size="13" lengthAdjust="spacing" textLength="69" x="120" y="190.166">data or not</text><path d="M10,209.9082 L77,209.9082 L77,217.2188 L67,227.2188 L10,227.2188 L10,209.9082 " fill="#EEEEEE" style="stroke:#000000;stroke-width:1.5;"/><rect fill="none" height="91.2422" style="stroke:#000000;stroke-width:1.5;" width="548" x="10" y="209.9082"/><text fill="#000000" font-family="sans-serif" font-size="13" font-weight="bold" lengthAdjust="spacing" textLength="22" x="25" y="223.4766">opt</text><text fill="#000000" font-family="sans-serif" font-size="11" font-weight="bold" lengthAdjust="spacing" textLength="80" x="92" y="222.543">[data is given]</text><polygon fill="#181818" points="498,259.8398,508,263.8398,498,267.8398,502,263.8398" style="stroke:#181818;stroke-width:1.0;"/><line style="stroke:#181818;stroke-width:1.0;" x1="90" x2="504" y1="263.8398" y2="263.8398"/><text fill="#000000" font-family="sans-serif" font-size="13" font-weight="bold" lengthAdjust="spacing" textLength="9" x="97" y="251.4424">3</text><text fill="#000000" font-family="sans-serif" font-size="13" lengthAdjust="spacing" textLength="368" x="110" y="243.7871">types requested data (type of business (renting or buying),</text><text fill="#000000" font-family="sans-serif" font-size="13" lengthAdjust="spacing" textLength="222" x="110" y="259.0977">type of property, number of rooms)</text><polygon fill="#181818" points="101,289.1504,91,293.1504,101,297.1504,97,293.1504" style="stroke:#181818;stroke-width:1.0;"/><line style="stroke:#181818;stroke-width:1.0;stroke-dasharray:2.0,2.0;" x1="95" x2="514" y1="293.1504" y2="293.1504"/><text fill="#000000" font-family="sans-serif" font-size="13" font-weight="bold" lengthAdjust="spacing" textLength="9" x="107" y="288.4082">4</text><text fill="#000000" font-family="sans-serif" font-size="13" lengthAdjust="spacing" textLength="325" x="120" y="288.4082">shows list of properties that correspond to the data</text><path d="M10,315.1504 L77,315.1504 L77,322.4609 L67,332.4609 L10,332.4609 L10,315.1504 " fill="#EEEEEE" style="stroke:#000000;stroke-width:1.5;"/><rect fill="none" height="91.2422" style="stroke:#000000;stroke-width:1.5;" width="548" x="10" y="315.1504"/><text fill="#000000" font-family="sans-serif" font-size="13" font-weight="bold" lengthAdjust="spacing" textLength="22" x="25" y="328.7188">opt</text><text fill="#000000" font-family="sans-serif" font-size="11" font-weight="bold" lengthAdjust="spacing" textLength="98" x="92" y="327.7852">[no data is given]</text><polygon fill="#181818" points="498,349.7715,508,353.7715,498,357.7715,502,353.7715" style="stroke:#181818;stroke-width:1.0;"/><line style="stroke:#181818;stroke-width:1.0;" x1="90" x2="504" y1="353.7715" y2="353.7715"/><text fill="#000000" font-family="sans-serif" font-size="13" font-weight="bold" lengthAdjust="spacing" textLength="9" x="97" y="349.0293">5</text><text fill="#000000" font-family="sans-serif" font-size="13" lengthAdjust="spacing" textLength="232" x="110" y="349.0293">decides not to type the required data</text><polygon fill="#181818" points="101,394.3926,91,398.3926,101,402.3926,97,398.3926" style="stroke:#181818;stroke-width:1.0;"/><line style="stroke:#181818;stroke-width:1.0;stroke-dasharray:2.0,2.0;" x1="95" x2="514" y1="398.3926" y2="398.3926"/><text fill="#000000" font-family="sans-serif" font-size="13" font-weight="bold" lengthAdjust="spacing" textLength="9" x="107" y="385.9951">6</text><text fill="#000000" font-family="sans-serif" font-size="13" lengthAdjust="spacing" textLength="362" x="120" y="378.3398">allows the client to sort through all properties that are on</text><text fill="#000000" font-family="sans-serif" font-size="13" lengthAdjust="spacing" textLength="316" x="120" y="393.6504">sale or renting ordered by most recent (by default)</text><!--SRC=[dPEnRkCm38PtFmMHAGOQe5qxt79z0oDR5qQYRI6of8fK0x_zKNRY5jVBeQWNopRv_-H7ayyk9CmumHH3D6EE4u7aGWrlNnAQCmxKoUm9CXd1CFZF0JoYZHSN1kZHCpMDED7GO_Vu-0G7w6OMcg2ZjqB14Bmu76hQlkjUsgR18Z6KwKHPpqPYXjqnP1gSPcMoS6JAEq26tuL5oykDkeepBc4Gs3slyal4Ubnat3iAVQGqeDVj2Gw_RaKzQzgPGI9OnydZ32d7HAfFlEHiKZTjk5vNWODgRRfNDTU3Z0H52uUB5hdezyvhFyi7JcHSxmpiPKu4iR-PpYsy1ek2e1H2bCNCqfSQOX9OmXp3uDuft6-lEh1EJTdh6xkcRRwdmYuGC-mp1QaJLEDJcVNKFcWjVzVt0EkawhiSuyJjJo3n62yCNWVyILk1AnmKC35duXI3hTWghrhp7HGKx8eZnEyIiGhVgfdoNGngYzMbCdBvYcZhu6vh__a7lA_zLKtZdNAjDXoptdM_oZ3MY2zjOrRIGPapwkxe63ucOfSzECsweufCDx1gxlNPKe_5IxiLzMz0Vm00]--></g></svg>