<?xml version="1.0" encoding="us-ascii" standalone="no"?><svg xmlns="http://www.w3.org/2000/svg" xmlns:xlink="http://www.w3.org/1999/xlink" contentStyleType="text/css" height="1186px" preserveAspectRatio="none" style="width:595px;height:1186px;background:#FFFFFF;" version="1.1" viewBox="0 0 595 1186" width="595px" zoomAndPan="magnify"><defs/><g><!--cluster RealEstate USA App--><g id="cluster_RealEstate USA App"><rect fill="none" height="1173" rx="2.5" ry="2.5" style="stroke:#181818;stroke-width:1.0;" width="406" x="183" y="7"/><text fill="#000000" font-family="sans-serif" font-size="14" font-weight="bold" lengthAdjust="spacing" textLength="138" x="317" y="21.6738">RealEstate USA App</text></g><g id="elem_UC1"><ellipse cx="386.1078" cy="66.2216" fill="#F1F1F1" rx="114.1078" ry="25.2216" style="stroke:#181818;stroke-width:0.5;"/><text fill="#000000" font-family="sans-serif" font-size="14" lengthAdjust="spacing" textLength="196" x="288.1078" y="69.0751">US1 - Display Listed Properties</text></g><g id="elem_UC7"><ellipse cx="386.1949" cy="150.139" fill="#F1F1F1" rx="106.1949" ry="23.639" style="stroke:#181818;stroke-width:0.5;"/><text fill="#000000" font-family="sans-serif" font-size="14" lengthAdjust="spacing" textLength="179" x="296.6949" y="152.9925">US7 - Register in the system</text></g><g id="elem_UC2"><ellipse cx="386.1944" cy="245.0389" fill="#F1F1F1" rx="168.1944" ry="36.0389" style="stroke:#181818;stroke-width:0.5;"/><text fill="#000000" font-family="sans-serif" font-size="14" lengthAdjust="spacing" textLength="309" x="231.6944" y="247.8924">US2 - Publish the Announcements on the System</text></g><g id="elem_UC4"><ellipse cx="386.1472" cy="817.1294" fill="#F1F1F1" rx="91.1472" ry="20.6294" style="stroke:#181818;stroke-width:0.5;"/><text fill="#000000" font-family="sans-serif" font-size="14" lengthAdjust="spacing" textLength="146" x="313.1472" y="819.983">US4 - Submit a request</text></g><g id="elem_UC5"><ellipse cx="385.9689" cy="657.0938" fill="#F1F1F1" rx="88.4689" ry="20.0938" style="stroke:#181818;stroke-width:0.5;"/><text fill="#000000" font-family="sans-serif" font-size="14" lengthAdjust="spacing" textLength="140" x="315.9689" y="659.9473">US5 - Register a store</text></g><g id="elem_UC8"><ellipse cx="385.8886" cy="354.7777" fill="#F1F1F1" rx="179.3886" ry="38.2777" style="stroke:#181818;stroke-width:0.5;"/><text fill="#000000" font-family="sans-serif" font-size="14" lengthAdjust="spacing" textLength="332" x="219.8886" y="357.6312">US8 - See the list of property announcement request</text></g><g id="elem_UC9"><ellipse cx="386.1981" cy="1018.8396" fill="#F1F1F1" rx="187.1981" ry="39.8396" style="stroke:#181818;stroke-width:0.5;"/><text fill="#000000" font-family="sans-serif" font-size="14" lengthAdjust="spacing" textLength="348" x="212.1981" y="1021.6931">US9 - Leave a message to the agent to schedule a visit</text></g><g id="elem_UC10"><ellipse cx="385.8258" cy="1129.1652" fill="#F1F1F1" rx="163.8258" ry="35.1652" style="stroke:#181818;stroke-width:0.5;"/><text fill="#000000" font-family="sans-serif" font-size="14" lengthAdjust="spacing" textLength="300" x="235.8258" y="1132.0187">US10 - Place an order to purchase the property</text></g><g id="elem_UC12"><ellipse cx="386.0617" cy="568.2123" fill="#F1F1F1" rx="156.5617" ry="33.7123" style="stroke:#181818;stroke-width:0.5;"/><text fill="#000000" font-family="sans-serif" font-size="14" lengthAdjust="spacing" textLength="285" x="243.5617" y="571.0658">US12 - Import information from legacy system</text></g><g id="elem_UC3"><ellipse cx="385.8387" cy="737.0677" fill="#F1F1F1" rx="110.8387" ry="24.5677" style="stroke:#181818;stroke-width:0.5;"/><text fill="#000000" font-family="sans-serif" font-size="14" lengthAdjust="spacing" textLength="189" x="291.3387" y="739.9213">US3 - Register the Employees</text></g><g id="elem_UC11"><ellipse cx="385.8612" cy="464.0722" fill="#F1F1F1" rx="163.3612" ry="35.0722" style="stroke:#181818;stroke-width:0.5;"/><text fill="#000000" font-family="sans-serif" font-size="14" lengthAdjust="spacing" textLength="264" x="251.8612" y="459.1055">US11 - List real estate purchase orders to</text><text fill="#000000" font-family="sans-serif" font-size="14" lengthAdjust="spacing" textLength="221" x="275.3612" y="474.7461">accept or decline a purchase order</text></g><g id="elem_UC13"><ellipse cx="385.8108" cy="907.7622" fill="#F1F1F1" rx="164.3108" ry="35.2622" style="stroke:#181818;stroke-width:0.5;"/><text fill="#000000" font-family="sans-serif" font-size="14" lengthAdjust="spacing" textLength="301" x="235.3108" y="910.6157">US13 - List all employees working in every store</text></g><!--entity unUser--><g id="elem_unUser"><ellipse cx="72.5" cy="78.5" fill="#808080" rx="8" ry="8" style="stroke:#181818;stroke-width:0.5;"/><path d="M72.5,86.5 L72.5,113.5 M59.5,94.5 L85.5,94.5 M72.5,113.5 L59.5,128.5 M72.5,113.5 L85.5,128.5 " fill="none" style="stroke:#181818;stroke-width:0.5;"/><text fill="#000000" font-family="sans-serif" font-size="14" lengthAdjust="spacing" textLength="113" x="16" y="142.6738">Unregistered user</text></g><!--entity Agent--><g id="elem_Agent"><ellipse cx="72.5" cy="325.5" fill="#808080" rx="8" ry="8" style="stroke:#181818;stroke-width:0.5;"/><path d="M72.5,333.5 L72.5,360.5 M59.5,341.5 L85.5,341.5 M72.5,360.5 L59.5,375.5 M72.5,360.5 L85.5,375.5 " fill="none" style="stroke:#181818;stroke-width:0.5;"/><text fill="#000000" font-family="sans-serif" font-size="14" lengthAdjust="spacing" textLength="37" x="54" y="389.6738">Agent</text></g><!--entity Admin--><g id="elem_Admin"><ellipse cx="72.5" cy="627.5" fill="#808080" rx="8" ry="8" style="stroke:#181818;stroke-width:0.5;"/><path d="M72.5,635.5 L72.5,662.5 M59.5,643.5 L85.5,643.5 M72.5,662.5 L59.5,677.5 M72.5,662.5 L85.5,677.5 " fill="none" style="stroke:#181818;stroke-width:0.5;"/><text fill="#000000" font-family="sans-serif" font-size="14" lengthAdjust="spacing" textLength="133" x="6" y="691.6738">System Administrator</text></g><!--entity Owner--><g id="elem_Owner"><ellipse cx="72.5" cy="777.5" fill="#808080" rx="8" ry="8" style="stroke:#181818;stroke-width:0.5;"/><path d="M72.5,785.5 L72.5,812.5 M59.5,793.5 L85.5,793.5 M72.5,812.5 L59.5,827.5 M72.5,812.5 L85.5,827.5 " fill="none" style="stroke:#181818;stroke-width:0.5;"/><text fill="#000000" font-family="sans-serif" font-size="14" lengthAdjust="spacing" textLength="41" x="52" y="841.6738">Owner</text></g><!--entity NM--><g id="elem_NM"><ellipse cx="72.5" cy="888.5" fill="#808080" rx="8" ry="8" style="stroke:#181818;stroke-width:0.5;"/><path d="M72.5,896.5 L72.5,923.5 M59.5,904.5 L85.5,904.5 M72.5,923.5 L59.5,938.5 M72.5,923.5 L85.5,938.5 " fill="none" style="stroke:#181818;stroke-width:0.5;"/><text fill="#000000" font-family="sans-serif" font-size="14" lengthAdjust="spacing" textLength="110" x="17.5" y="952.6738">Network Manager</text></g><!--entity C--><g id="elem_C"><ellipse cx="72.5" cy="1044.5" fill="#808080" rx="8" ry="8" style="stroke:#181818;stroke-width:0.5;"/><path d="M72.5,1052.5 L72.5,1079.5 M59.5,1060.5 L85.5,1060.5 M72.5,1079.5 L59.5,1094.5 M72.5,1079.5 L85.5,1094.5 " fill="none" style="stroke:#181818;stroke-width:0.5;"/><text fill="#000000" font-family="sans-serif" font-size="14" lengthAdjust="spacing" textLength="36" x="54.5" y="1108.6738">Client</text></g><!--link unUser to UC1--><g id="link_unUser_UC1"><path d="M129.19,100.49 C173.38,94.53 236.2,86.06 288.52,79.01 " fill="none" id="unUser-UC1" style="stroke:#181818;stroke-width:1.0;"/></g><!--link Agent to UC2--><g id="link_Agent_UC2"><path d="M91.16,343.45 C110.89,330.97 144.14,311.25 175,299 C203.69,287.61 235.55,277.98 265.6,270.14 " fill="none" id="Agent-UC2" style="stroke:#181818;stroke-width:1.0;"/></g><!--link Admin to UC5--><g id="link_Admin_UC5"><path d="M139.18,657 C185.14,657 247.05,657 297.24,657 " fill="none" id="Admin-UC5" style="stroke:#181818;stroke-width:1.0;"/></g><!--link Admin to UC3--><g id="link_Admin_UC3"><path d="M139.1,682.51 C150.95,686.66 163.27,690.68 175,694 C214.84,705.27 259.71,714.87 297.72,722.12 " fill="none" id="Admin-UC3" style="stroke:#181818;stroke-width:1.0;"/></g><!--link Owner to UC4--><g id="link_Owner_UC4"><path d="M93.46,807.64 C133.48,808.93 225.67,811.89 295.75,814.13 " fill="none" id="Owner-UC4" style="stroke:#181818;stroke-width:1.0;"/></g><!--link unUser to UC7--><g id="link_unUser_UC7"><path d="M129.19,115.51 C175.21,121.71 241.45,130.65 295,137.86 " fill="none" id="unUser-UC7" style="stroke:#181818;stroke-width:1.0;"/></g><!--link NM to UC13--><g id="link_NM_UC13"><path d="M127.76,916.26 C154.6,915.4 188.57,914.31 222.95,913.2 " fill="none" id="NM-UC13" style="stroke:#181818;stroke-width:1.0;"/></g><!--link Agent to UC11--><g id="link_Agent_UC11"><path d="M91.15,366.58 C110.87,379.07 144.11,398.82 175,411 C204.21,422.52 236.7,432.16 267.23,439.93 " fill="none" id="Agent-UC11" style="stroke:#181818;stroke-width:1.0;"/></g><!--link Agent to UC8--><g id="link_Agent_UC8"><path d="M91.14,355 C114.76,355 159.19,355 206.49,355 " fill="none" id="Agent-UC8" style="stroke:#181818;stroke-width:1.0;"/></g><!--link C to UC9--><g id="link_C_UC9"><path d="M90.69,1070.96 C119.84,1065.82 181.58,1054.92 241.03,1044.42 " fill="none" id="C-UC9" style="stroke:#181818;stroke-width:1.0;"/></g><!--link C to UC10--><g id="link_C_UC10"><path d="M90.69,1077.04 C122.77,1082.7 194.35,1095.34 258.88,1106.73 " fill="none" id="C-UC10" style="stroke:#181818;stroke-width:1.0;"/></g><!--link Admin to UC12--><g id="link_Admin_UC12"><path d="M139.17,631.11 C151.01,626.81 163.31,622.59 175,619 C207.45,609.02 243.21,599.73 275.87,591.88 " fill="none" id="Admin-UC12" style="stroke:#181818;stroke-width:1.0;"/></g><!--SRC=[NLFBRkCm3BpdAuZq7A3E0ssEGRQ70cstgE7RNbYPSOIL9Qyafp0M- -zBoNOGzgR7S3WaXuPE4Q83hvjpX5fxKb4xkrYWYix3ihAU6XqYUQgX3-INW05wM_4HxXfFmumyD6HZ_iqd-LaEJD72eMwrPJQF_3fYqul4_looKvfyafzl5B-S_mslQB6PO6-l4dCqUfPod7uMgIwqZI5OVX2Qfn0n4bJb0GvTj_oxIBKf3FnTbGMiu8SEdS41NbBjDRnxrv6FcaAchOw5Y7ZWY8-fJy3rn3D1o2LFy0S1NpFylVyqEfmpz62jwwsYbcK7S6DyUHk_5l5RZY_xprP7GF3qfwSG9-1M07UtkX02juScu4u07nCZKKxCiYAu4tHZpGFWZRnlwHu5ovvPNWWlnBbQ2e4dbBoLI35xWYz1dQdkJO9STD0pqLvEu3vroA1Yc0NdQvRFiLtlrJb14kCiRnx8lMH8FNvkE-SZ3-JaV8l9rt3ohWL33Qf1JgYGBTxSTYwbUsexumQw6c0ZqoNF9AzmVz00ZVQwwiqLX5J2BujAKSSDzb2JCjgcJaZWh4XwhDZCAT1mXbaEf7NGjacsemlvGKovO9d_5lE-hbQZSyS5pJUkUbp1VDk96yUE6vXlMqd3ZkQz6natWhAG6TWYn_6qlvvuM3TvYlL_]--></g></svg>