<?xml version="1.0" encoding="us-ascii" standalone="no"?><svg xmlns="http://www.w3.org/2000/svg" xmlns:xlink="http://www.w3.org/1999/xlink" contentStyleType="text/css" height="1056px" preserveAspectRatio="none" style="width:1784px;height:1056px;background:#FFFFFF;" version="1.1" viewBox="0 0 1784 1056" width="1784px" zoomAndPan="magnify"><defs/><g><rect fill="#FFFFFF" height="905.7375" style="stroke:#181818;stroke-width:0.8000000000000002;" width="8" x="55.6" y="72.5125"/><rect fill="#FFFFFF" height="296.0313" style="stroke:#181818;stroke-width:0.8000000000000002;" width="8" x="538" y="88.9313"/><rect fill="#FFFFFF" height="22.8188" style="stroke:#181818;stroke-width:0.8000000000000002;" width="8" x="538" y="407.7813"/><rect fill="#FFFFFF" height="114.0938" style="stroke:#181818;stroke-width:0.8000000000000002;" width="8" x="538" y="453.4188"/><rect fill="#FFFFFF" height="114.0938" style="stroke:#181818;stroke-width:0.8000000000000002;" width="8" x="538" y="590.3313"/><rect fill="#FFFFFF" height="114.0938" style="stroke:#181818;stroke-width:0.8000000000000002;" width="8" x="538" y="727.2438"/><rect fill="#FFFFFF" height="114.0938" style="stroke:#181818;stroke-width:0.8000000000000002;" width="8" x="538" y="864.1563"/><rect fill="#FFFFFF" height="242.3938" style="stroke:#181818;stroke-width:0.8000000000000002;" width="8" x="997.2" y="119.75"/><rect fill="#FFFFFF" height="68.4563" style="stroke:#181818;stroke-width:0.8000000000000002;" width="8" x="997.2" y="476.2375"/><rect fill="#FFFFFF" height="68.4563" style="stroke:#181818;stroke-width:0.8000000000000002;" width="8" x="997.2" y="613.15"/><rect fill="#FFFFFF" height="68.4563" style="stroke:#181818;stroke-width:0.8000000000000002;" width="8" x="997.2" y="750.0625"/><rect fill="#FFFFFF" height="68.4563" style="stroke:#181818;stroke-width:0.8000000000000002;" width="8" x="997.2" y="886.975"/><rect fill="#FFFFFF" height="22.8188" style="stroke:#181818;stroke-width:0.8000000000000002;" width="8" x="1110.8" y="156.775"/><rect fill="#FFFFFF" height="22.8188" style="stroke:#181818;stroke-width:0.8000000000000002;" width="8" x="1196.4" y="202.4125"/><rect fill="#FFFFFF" height="22.8188" style="stroke:#181818;stroke-width:0.8000000000000002;" width="8" x="1196.4" y="248.05"/><rect fill="#FFFFFF" height="22.8188" style="stroke:#181818;stroke-width:0.8000000000000002;" width="8" x="1196.4" y="293.6875"/><rect fill="#FFFFFF" height="22.8188" style="stroke:#181818;stroke-width:0.8000000000000002;" width="8" x="1196.4" y="339.325"/><rect fill="#FFFFFF" height="22.8188" style="stroke:#181818;stroke-width:0.8000000000000002;" width="8" x="1303.6" y="635.9688"/><rect fill="#FFFFFF" height="22.8188" style="stroke:#181818;stroke-width:0.8000000000000002;" width="8" x="1303.6" y="772.8813"/><rect fill="#FFFFFF" height="22.8188" style="stroke:#181818;stroke-width:0.8000000000000002;" width="8" x="1303.6" y="909.7938"/><rect fill="#FFFFFF" height="22.8188" style="stroke:#181818;stroke-width:0.8000000000000002;" width="8" x="1698" y="499.0563"/><line style="stroke:#181818;stroke-width:0.4000000000000001;stroke-dasharray:5.0,5.0;" x1="59.2" x2="59.2" y1="64.5125" y2="992.65"/><line style="stroke:#181818;stroke-width:0.4000000000000001;stroke-dasharray:5.0,5.0;" x1="541.6" x2="541.6" y1="64.5125" y2="992.65"/><line style="stroke:#181818;stroke-width:0.4000000000000001;stroke-dasharray:5.0,5.0;" x1="1000.8" x2="1000.8" y1="125.8438" y2="992.65"/><line style="stroke:#181818;stroke-width:0.4000000000000001;stroke-dasharray:5.0,5.0;" x1="1114.4" x2="1114.4" y1="64.5125" y2="992.65"/><line style="stroke:#181818;stroke-width:0.4000000000000001;stroke-dasharray:5.0,5.0;" x1="1200" x2="1200" y1="64.5125" y2="992.65"/><line style="stroke:#181818;stroke-width:0.4000000000000001;stroke-dasharray:5.0,5.0;" x1="1307.6" x2="1307.6" y1="64.5125" y2="992.65"/><line style="stroke:#181818;stroke-width:0.4000000000000001;stroke-dasharray:5.0,5.0;" x1="1410.8" x2="1410.8" y1="64.5125" y2="992.65"/><line style="stroke:#181818;stroke-width:0.4000000000000001;stroke-dasharray:5.0,5.0;" x1="1518" x2="1518" y1="64.5125" y2="992.65"/><line style="stroke:#181818;stroke-width:0.4000000000000001;stroke-dasharray:5.0,5.0;" x1="1622" x2="1622" y1="64.5125" y2="992.65"/><line style="stroke:#181818;stroke-width:0.4000000000000001;stroke-dasharray:5.0,5.0;" x1="1702" x2="1702" y1="64.5125" y2="992.65"/><line style="stroke:#181818;stroke-width:0.4000000000000001;stroke-dasharray:5.0,5.0;" x1="1758.8" x2="1758.8" y1="64.5125" y2="992.65"/><text fill="#000000" font-family="sans-serif" font-size="11.2" lengthAdjust="spacing" textLength="106.4" x="4" y="62.1391">System Administrator</text><ellipse cx="59.6" cy="10.8" fill="#E3E3E3" rx="6.4" ry="6.4" style="stroke:#181818;stroke-width:0.4000000000000001;"/><path d="M59.6,17.2 L59.6,38.8 M49.2,23.6 L70,23.6 M59.6,38.8 L49.2,50.8 M59.6,38.8 L70,50.8 " fill="none" style="stroke:#181818;stroke-width:0.4000000000000001;"/><text fill="#000000" font-family="sans-serif" font-size="11.2" lengthAdjust="spacing" textLength="106.4" x="4" y="1001.9891">System Administrator</text><ellipse cx="59.6" cy="1011.1625" fill="#E3E3E3" rx="6.4" ry="6.4" style="stroke:#181818;stroke-width:0.4000000000000001;"/><path d="M59.6,1017.5625 L59.6,1039.1625 M49.2,1023.9625 L70,1023.9625 M59.6,1039.1625 L49.2,1051.1625 M59.6,1039.1625 L70,1051.1625 " fill="none" style="stroke:#181818;stroke-width:0.4000000000000001;"/><rect fill="#E3E3E3" height="23.7125" rx="2" ry="2" style="stroke:#181818;stroke-width:0.4000000000000001;" width="93.6" x="495.2" y="40"/><text fill="#000000" font-family="sans-serif" font-size="11.2" lengthAdjust="spacing" textLength="82.4" x="500.8" y="55.7391">:RegisterStoreUI</text><rect fill="#E3E3E3" height="23.7125" rx="2" ry="2" style="stroke:#181818;stroke-width:0.4000000000000001;" width="93.6" x="495.2" y="991.85"/><text fill="#000000" font-family="sans-serif" font-size="11.2" lengthAdjust="spacing" textLength="82.4" x="500.8" y="1007.5891">:RegisterStoreUI</text><rect fill="#E3E3E3" height="36.225" rx="2" ry="2" style="stroke:#181818;stroke-width:0.4000000000000001;" width="133.6" x="934.4" y="991.85"/><text fill="#000000" font-family="sans-serif" font-size="11.2" lengthAdjust="spacing" textLength="47.2" x="977.6" y="1007.5891">controller</text><text fill="#000000" font-family="sans-serif" font-size="11.2" lengthAdjust="spacing" textLength="122.4" x="940" y="1020.1016">:RegisterStoreController</text><rect fill="#E3E3E3" height="23.7125" rx="2" ry="2" style="stroke:#181818;stroke-width:0.4000000000000001;" width="77.6" x="1076" y="40"/><text fill="#000000" font-family="sans-serif" font-size="11.2" lengthAdjust="spacing" textLength="66.4" x="1081.6" y="55.7391">:Repositories</text><rect fill="#E3E3E3" height="23.7125" rx="2" ry="2" style="stroke:#181818;stroke-width:0.4000000000000001;" width="77.6" x="1076" y="991.85"/><text fill="#000000" font-family="sans-serif" font-size="11.2" lengthAdjust="spacing" textLength="66.4" x="1081.6" y="1007.5891">:Repositories</text><rect fill="#E3E3E3" height="36.225" rx="2" ry="2" style="stroke:#181818;stroke-width:0.4000000000000001;" width="77.6" x="1161.6" y="27.4875"/><text fill="#000000" font-family="sans-serif" font-size="11.2" lengthAdjust="spacing" textLength="59.2" x="1170.8" y="43.2266">repositories</text><text fill="#000000" font-family="sans-serif" font-size="11.2" lengthAdjust="spacing" textLength="66.4" x="1167.2" y="55.7391">:Repositories</text><rect fill="#E3E3E3" height="36.225" rx="2" ry="2" style="stroke:#181818;stroke-width:0.4000000000000001;" width="77.6" x="1161.6" y="991.85"/><text fill="#000000" font-family="sans-serif" font-size="11.2" lengthAdjust="spacing" textLength="59.2" x="1170.8" y="1007.5891">repositories</text><text fill="#000000" font-family="sans-serif" font-size="11.2" lengthAdjust="spacing" textLength="66.4" x="1167.2" y="1020.1016">:Repositories</text><rect fill="#E3E3E3" height="36.225" rx="2" ry="2" style="stroke:#181818;stroke-width:0.4000000000000001;" width="96" x="1259.6" y="27.4875"/><text fill="#000000" font-family="sans-serif" font-size="11.2" lengthAdjust="spacing" textLength="84.8" x="1265.2" y="43.2266">StoreRepository:</text><text fill="#000000" font-family="sans-serif" font-size="11.2" lengthAdjust="spacing" textLength="81.6" x="1266.8" y="55.7391">StoreRepository</text><rect fill="#E3E3E3" height="36.225" rx="2" ry="2" style="stroke:#181818;stroke-width:0.4000000000000001;" width="96" x="1259.6" y="991.85"/><text fill="#000000" font-family="sans-serif" font-size="11.2" lengthAdjust="spacing" textLength="84.8" x="1265.2" y="1007.5891">StoreRepository:</text><text fill="#000000" font-family="sans-serif" font-size="11.2" lengthAdjust="spacing" textLength="81.6" x="1266.8" y="1020.1016">StoreRepository</text><rect fill="#E3E3E3" height="36.225" rx="2" ry="2" style="stroke:#181818;stroke-width:0.4000000000000001;" width="95.2" x="1363.6" y="27.4875"/><text fill="#000000" font-family="sans-serif" font-size="11.2" lengthAdjust="spacing" textLength="84" x="1369.2" y="43.2266">StateRepository:</text><text fill="#000000" font-family="sans-serif" font-size="11.2" lengthAdjust="spacing" textLength="80.8" x="1370.8" y="55.7391">StateRepository</text><rect fill="#E3E3E3" height="36.225" rx="2" ry="2" style="stroke:#181818;stroke-width:0.4000000000000001;" width="95.2" x="1363.6" y="991.85"/><text fill="#000000" font-family="sans-serif" font-size="11.2" lengthAdjust="spacing" textLength="84" x="1369.2" y="1007.5891">StateRepository:</text><text fill="#000000" font-family="sans-serif" font-size="11.2" lengthAdjust="spacing" textLength="80.8" x="1370.8" y="1020.1016">StateRepository</text><rect fill="#E3E3E3" height="36.225" rx="2" ry="2" style="stroke:#181818;stroke-width:0.4000000000000001;" width="103.2" x="1466.8" y="27.4875"/><text fill="#000000" font-family="sans-serif" font-size="11.2" lengthAdjust="spacing" textLength="92" x="1472.4" y="43.2266">DistrictRepository:</text><text fill="#000000" font-family="sans-serif" font-size="11.2" lengthAdjust="spacing" textLength="88.8" x="1474" y="55.7391">DistrictRepository</text><rect fill="#E3E3E3" height="36.225" rx="2" ry="2" style="stroke:#181818;stroke-width:0.4000000000000001;" width="103.2" x="1466.8" y="991.85"/><text fill="#000000" font-family="sans-serif" font-size="11.2" lengthAdjust="spacing" textLength="92" x="1472.4" y="1007.5891">DistrictRepository:</text><text fill="#000000" font-family="sans-serif" font-size="11.2" lengthAdjust="spacing" textLength="88.8" x="1474" y="1020.1016">DistrictRepository</text><rect fill="#E3E3E3" height="36.225" rx="2" ry="2" style="stroke:#181818;stroke-width:0.4000000000000001;" width="88" x="1578" y="27.4875"/><text fill="#000000" font-family="sans-serif" font-size="11.2" lengthAdjust="spacing" textLength="76.8" x="1583.6" y="43.2266">CityRepository:</text><text fill="#000000" font-family="sans-serif" font-size="11.2" lengthAdjust="spacing" textLength="73.6" x="1585.2" y="55.7391">CityRepository</text><rect fill="#E3E3E3" height="36.225" rx="2" ry="2" style="stroke:#181818;stroke-width:0.4000000000000001;" width="88" x="1578" y="991.85"/><text fill="#000000" font-family="sans-serif" font-size="11.2" lengthAdjust="spacing" textLength="76.8" x="1583.6" y="1007.5891">CityRepository:</text><text fill="#000000" font-family="sans-serif" font-size="11.2" lengthAdjust="spacing" textLength="73.6" x="1585.2" y="1020.1016">CityRepository</text><rect fill="#E3E3E3" height="36.225" rx="2" ry="2" style="stroke:#181818;stroke-width:0.4000000000000001;" width="56" x="1674" y="27.4875"/><text fill="#000000" font-family="sans-serif" font-size="11.2" lengthAdjust="spacing" textLength="44.8" x="1679.6" y="43.2266">Address:</text><text fill="#000000" font-family="sans-serif" font-size="11.2" lengthAdjust="spacing" textLength="41.6" x="1681.2" y="55.7391">Address</text><rect fill="#E3E3E3" height="36.225" rx="2" ry="2" style="stroke:#181818;stroke-width:0.4000000000000001;" width="56" x="1674" y="991.85"/><text fill="#000000" font-family="sans-serif" font-size="11.2" lengthAdjust="spacing" textLength="44.8" x="1679.6" y="1007.5891">Address:</text><text fill="#000000" font-family="sans-serif" font-size="11.2" lengthAdjust="spacing" textLength="41.6" x="1681.2" y="1020.1016">Address</text><rect fill="#E3E3E3" height="36.225" rx="2" ry="2" style="stroke:#181818;stroke-width:0.4000000000000001;" width="41.6" x="1738" y="27.4875"/><text fill="#000000" font-family="sans-serif" font-size="11.2" lengthAdjust="spacing" textLength="25.6" x="1746" y="43.2266">store</text><text fill="#000000" font-family="sans-serif" font-size="11.2" lengthAdjust="spacing" textLength="30.4" x="1743.6" y="55.7391">:Store</text><rect fill="#E3E3E3" height="36.225" rx="2" ry="2" style="stroke:#181818;stroke-width:0.4000000000000001;" width="41.6" x="1738" y="991.85"/><text fill="#000000" font-family="sans-serif" font-size="11.2" lengthAdjust="spacing" textLength="25.6" x="1746" y="1007.5891">store</text><text fill="#000000" font-family="sans-serif" font-size="11.2" lengthAdjust="spacing" textLength="30.4" x="1743.6" y="1020.1016">:Store</text><rect fill="#FFFFFF" height="905.7375" style="stroke:#181818;stroke-width:0.8000000000000002;" width="8" x="55.6" y="72.5125"/><rect fill="#FFFFFF" height="296.0313" style="stroke:#181818;stroke-width:0.8000000000000002;" width="8" x="538" y="88.9313"/><rect fill="#FFFFFF" height="22.8188" style="stroke:#181818;stroke-width:0.8000000000000002;" width="8" x="538" y="407.7813"/><rect fill="#FFFFFF" height="114.0938" style="stroke:#181818;stroke-width:0.8000000000000002;" width="8" x="538" y="453.4188"/><rect fill="#FFFFFF" height="114.0938" style="stroke:#181818;stroke-width:0.8000000000000002;" width="8" x="538" y="590.3313"/><rect fill="#FFFFFF" height="114.0938" style="stroke:#181818;stroke-width:0.8000000000000002;" width="8" x="538" y="727.2438"/><rect fill="#FFFFFF" height="114.0938" style="stroke:#181818;stroke-width:0.8000000000000002;" width="8" x="538" y="864.1563"/><rect fill="#FFFFFF" height="242.3938" style="stroke:#181818;stroke-width:0.8000000000000002;" width="8" x="997.2" y="119.75"/><rect fill="#FFFFFF" height="68.4563" style="stroke:#181818;stroke-width:0.8000000000000002;" width="8" x="997.2" y="476.2375"/><rect fill="#FFFFFF" height="68.4563" style="stroke:#181818;stroke-width:0.8000000000000002;" width="8" x="997.2" y="613.15"/><rect fill="#FFFFFF" height="68.4563" style="stroke:#181818;stroke-width:0.8000000000000002;" width="8" x="997.2" y="750.0625"/><rect fill="#FFFFFF" height="68.4563" style="stroke:#181818;stroke-width:0.8000000000000002;" width="8" x="997.2" y="886.975"/><rect fill="#FFFFFF" height="22.8188" style="stroke:#181818;stroke-width:0.8000000000000002;" width="8" x="1110.8" y="156.775"/><rect fill="#FFFFFF" height="22.8188" style="stroke:#181818;stroke-width:0.8000000000000002;" width="8" x="1196.4" y="202.4125"/><rect fill="#FFFFFF" height="22.8188" style="stroke:#181818;stroke-width:0.8000000000000002;" width="8" x="1196.4" y="248.05"/><rect fill="#FFFFFF" height="22.8188" style="stroke:#181818;stroke-width:0.8000000000000002;" width="8" x="1196.4" y="293.6875"/><rect fill="#FFFFFF" height="22.8188" style="stroke:#181818;stroke-width:0.8000000000000002;" width="8" x="1196.4" y="339.325"/><rect fill="#FFFFFF" height="22.8188" style="stroke:#181818;stroke-width:0.8000000000000002;" width="8" x="1303.6" y="635.9688"/><rect fill="#FFFFFF" height="22.8188" style="stroke:#181818;stroke-width:0.8000000000000002;" width="8" x="1303.6" y="772.8813"/><rect fill="#FFFFFF" height="22.8188" style="stroke:#181818;stroke-width:0.8000000000000002;" width="8" x="1303.6" y="909.7938"/><rect fill="#FFFFFF" height="22.8188" style="stroke:#181818;stroke-width:0.8000000000000002;" width="8" x="1698" y="499.0563"/><polygon fill="#181818" points="528.4,85.7313,536.4,88.9313,528.4,92.1313,531.6,88.9313" style="stroke:#181818;stroke-width:0.8000000000000002;"/><line style="stroke:#181818;stroke-width:0.8000000000000002;" x1="63.6" x2="533.2" y1="88.9313" y2="88.9313"/><text fill="#000000" font-family="sans-serif" font-size="10.4" font-weight="bold" lengthAdjust="spacing" textLength="5.6" x="69.2" y="85.1273">1</text><text fill="#000000" font-family="sans-serif" font-size="10.4" lengthAdjust="spacing" textLength="107.2" x="78" y="85.1273">asks to register a store</text><polygon fill="#181818" points="924.8,108.55,932.8,111.75,924.8,114.95,928,111.75" style="stroke:#181818;stroke-width:0.8000000000000002;"/><line style="stroke:#181818;stroke-width:0.8000000000000002;" x1="546" x2="929.6" y1="111.75" y2="111.75"/><text fill="#000000" font-family="sans-serif" font-size="10.4" font-weight="bold" lengthAdjust="spacing" textLength="5.6" x="551.6" y="107.9461">2</text><text fill="#000000" font-family="sans-serif" font-size="10.4" lengthAdjust="spacing" textLength="28.8" x="560.4" y="107.9461">create</text><rect fill="#E3E3E3" height="36.225" rx="2" ry="2" style="stroke:#181818;stroke-width:0.4000000000000001;" width="133.6" x="934.4" y="95.3313"/><text fill="#000000" font-family="sans-serif" font-size="11.2" lengthAdjust="spacing" textLength="47.2" x="977.6" y="111.0703">controller</text><text fill="#000000" font-family="sans-serif" font-size="11.2" lengthAdjust="spacing" textLength="122.4" x="940" y="123.5828">:RegisterStoreController</text><polygon fill="#181818" points="1101.2,153.575,1109.2,156.775,1101.2,159.975,1104.4,156.775" style="stroke:#181818;stroke-width:0.8000000000000002;"/><line style="stroke:#181818;stroke-width:0.8000000000000002;" x1="1005.2" x2="1106" y1="156.775" y2="156.775"/><text fill="#000000" font-family="sans-serif" font-size="10.4" font-weight="bold" lengthAdjust="spacing" textLength="5.6" x="1010.8" y="152.9711">3</text><text fill="#000000" font-family="sans-serif" font-size="10.4" lengthAdjust="spacing" textLength="60" x="1019.6" y="152.9711">getInstance()</text><polygon fill="#181818" points="1014,176.3938,1006,179.5938,1014,182.7938,1010.8,179.5938" style="stroke:#181818;stroke-width:0.8000000000000002;"/><line style="stroke:#181818;stroke-width:0.8000000000000002;stroke-dasharray:2.0,2.0;" x1="1009.2" x2="1114" y1="179.5938" y2="179.5938"/><text fill="#000000" font-family="sans-serif" font-size="10.4" font-weight="bold" lengthAdjust="spacing" textLength="5.6" x="1018.8" y="175.7898">4</text><text fill="#000000" font-family="sans-serif" font-size="10.4" lengthAdjust="spacing" textLength="53.6" x="1027.6" y="175.7898">repositories</text><polygon fill="#181818" points="1186.8,199.2125,1194.8,202.4125,1186.8,205.6125,1190,202.4125" style="stroke:#181818;stroke-width:0.8000000000000002;"/><line style="stroke:#181818;stroke-width:0.8000000000000002;" x1="1005.2" x2="1191.6" y1="202.4125" y2="202.4125"/><text fill="#000000" font-family="sans-serif" font-size="10.4" font-weight="bold" lengthAdjust="spacing" textLength="5.6" x="1010.8" y="198.6086">5</text><text fill="#000000" font-family="sans-serif" font-size="10.4" lengthAdjust="spacing" textLength="98.4" x="1019.6" y="198.6086">getStoreRepository();</text><polygon fill="#181818" points="1014,222.0313,1006,225.2313,1014,228.4313,1010.8,225.2313" style="stroke:#181818;stroke-width:0.8000000000000002;"/><line style="stroke:#181818;stroke-width:0.8000000000000002;stroke-dasharray:2.0,2.0;" x1="1009.2" x2="1199.6" y1="225.2313" y2="225.2313"/><text fill="#000000" font-family="sans-serif" font-size="10.4" font-weight="bold" lengthAdjust="spacing" textLength="5.6" x="1018.8" y="221.4273">6</text><text fill="#000000" font-family="sans-serif" font-size="10.4" lengthAdjust="spacing" textLength="72.8" x="1027.6" y="221.4273">storeRepository</text><polygon fill="#181818" points="1186.8,244.85,1194.8,248.05,1186.8,251.25,1190,248.05" style="stroke:#181818;stroke-width:0.8000000000000002;"/><line style="stroke:#181818;stroke-width:0.8000000000000002;" x1="1005.2" x2="1191.6" y1="248.05" y2="248.05"/><text fill="#000000" font-family="sans-serif" font-size="10.4" font-weight="bold" lengthAdjust="spacing" textLength="5.6" x="1010.8" y="244.2461">7</text><text fill="#000000" font-family="sans-serif" font-size="10.4" lengthAdjust="spacing" textLength="98.4" x="1019.6" y="244.2461">getStateRepository();</text><polygon fill="#181818" points="1014,267.6688,1006,270.8688,1014,274.0688,1010.8,270.8688" style="stroke:#181818;stroke-width:0.8000000000000002;"/><line style="stroke:#181818;stroke-width:0.8000000000000002;stroke-dasharray:2.0,2.0;" x1="1009.2" x2="1199.6" y1="270.8688" y2="270.8688"/><text fill="#000000" font-family="sans-serif" font-size="10.4" font-weight="bold" lengthAdjust="spacing" textLength="5.6" x="1018.8" y="267.0648">8</text><text fill="#000000" font-family="sans-serif" font-size="10.4" lengthAdjust="spacing" textLength="72.8" x="1027.6" y="267.0648">stateRepository</text><polygon fill="#181818" points="1186.8,290.4875,1194.8,293.6875,1186.8,296.8875,1190,293.6875" style="stroke:#181818;stroke-width:0.8000000000000002;"/><line style="stroke:#181818;stroke-width:0.8000000000000002;" x1="1005.2" x2="1191.6" y1="293.6875" y2="293.6875"/><text fill="#000000" font-family="sans-serif" font-size="10.4" font-weight="bold" lengthAdjust="spacing" textLength="5.6" x="1010.8" y="289.8836">9</text><text fill="#000000" font-family="sans-serif" font-size="10.4" lengthAdjust="spacing" textLength="106.4" x="1019.6" y="289.8836">getDistrictRepository();</text><polygon fill="#181818" points="1014,313.3063,1006,316.5063,1014,319.7063,1010.8,316.5063" style="stroke:#181818;stroke-width:0.8000000000000002;"/><line style="stroke:#181818;stroke-width:0.8000000000000002;stroke-dasharray:2.0,2.0;" x1="1009.2" x2="1199.6" y1="316.5063" y2="316.5063"/><text fill="#000000" font-family="sans-serif" font-size="10.4" font-weight="bold" lengthAdjust="spacing" textLength="11.2" x="1018.8" y="312.7023">10</text><text fill="#000000" font-family="sans-serif" font-size="10.4" lengthAdjust="spacing" textLength="80.8" x="1033.2" y="312.7023">districtRepository</text><polygon fill="#181818" points="1186.8,336.125,1194.8,339.325,1186.8,342.525,1190,339.325" style="stroke:#181818;stroke-width:0.8000000000000002;"/><line style="stroke:#181818;stroke-width:0.8000000000000002;" x1="1005.2" x2="1191.6" y1="339.325" y2="339.325"/><text fill="#000000" font-family="sans-serif" font-size="10.4" font-weight="bold" lengthAdjust="spacing" textLength="11.2" x="1010.8" y="335.5211">11</text><text fill="#000000" font-family="sans-serif" font-size="10.4" lengthAdjust="spacing" textLength="92" x="1025.2" y="335.5211">getCityRepository();</text><polygon fill="#181818" points="1010,358.9438,1002,362.1438,1010,365.3438,1006.8,362.1438" style="stroke:#181818;stroke-width:0.8000000000000002;"/><line style="stroke:#181818;stroke-width:0.8000000000000002;stroke-dasharray:2.0,2.0;" x1="1005.2" x2="1199.6" y1="362.1438" y2="362.1438"/><text fill="#000000" font-family="sans-serif" font-size="10.4" font-weight="bold" lengthAdjust="spacing" textLength="11.2" x="1014.8" y="358.3398">12</text><text fill="#000000" font-family="sans-serif" font-size="10.4" lengthAdjust="spacing" textLength="66.4" x="1029.2" y="358.3398">cityRepository</text><polygon fill="#181818" points="72.4,381.7625,64.4,384.9625,72.4,388.1625,69.2,384.9625" style="stroke:#181818;stroke-width:0.8000000000000002;"/><line style="stroke:#181818;stroke-width:0.8000000000000002;stroke-dasharray:2.0,2.0;" x1="67.6" x2="541.2" y1="384.9625" y2="384.9625"/><text fill="#000000" font-family="sans-serif" font-size="10.4" font-weight="bold" lengthAdjust="spacing" textLength="11.2" x="77.2" y="381.1586">13</text><text fill="#000000" font-family="sans-serif" font-size="10.4" lengthAdjust="spacing" textLength="440.8" x="91.6" y="381.1586">requests address data (street address, doorNumber, floorNumber, zipCode, state, district, city )</text><polygon fill="#181818" points="528.4,404.5813,536.4,407.7813,528.4,410.9813,531.6,407.7813" style="stroke:#181818;stroke-width:0.8000000000000002;"/><line style="stroke:#181818;stroke-width:0.8000000000000002;" x1="63.6" x2="533.2" y1="407.7813" y2="407.7813"/><text fill="#000000" font-family="sans-serif" font-size="10.4" font-weight="bold" lengthAdjust="spacing" textLength="11.2" x="69.2" y="403.9773">14</text><text fill="#000000" font-family="sans-serif" font-size="10.4" lengthAdjust="spacing" textLength="97.6" x="83.6" y="403.9773">types requested data</text><polygon fill="#181818" points="72.4,427.4,64.4,430.6,72.4,433.8,69.2,430.6" style="stroke:#181818;stroke-width:0.8000000000000002;"/><line style="stroke:#181818;stroke-width:0.8000000000000002;stroke-dasharray:2.0,2.0;" x1="67.6" x2="541.2" y1="430.6" y2="430.6"/><text fill="#000000" font-family="sans-serif" font-size="10.4" font-weight="bold" lengthAdjust="spacing" textLength="11.2" x="77.2" y="426.7961">15</text><text fill="#000000" font-family="sans-serif" font-size="10.4" lengthAdjust="spacing" textLength="213.6" x="91.6" y="426.7961">shows store address data and asks to confirm</text><polygon fill="#181818" points="528.4,450.2188,536.4,453.4188,528.4,456.6188,531.6,453.4188" style="stroke:#181818;stroke-width:0.8000000000000002;"/><line style="stroke:#181818;stroke-width:0.8000000000000002;" x1="63.6" x2="533.2" y1="453.4188" y2="453.4188"/><text fill="#000000" font-family="sans-serif" font-size="10.4" font-weight="bold" lengthAdjust="spacing" textLength="11.2" x="69.2" y="449.6148">16</text><text fill="#000000" font-family="sans-serif" font-size="10.4" lengthAdjust="spacing" textLength="60" x="83.6" y="449.6148">submits data</text><polygon fill="#181818" points="987.6,473.0375,995.6,476.2375,987.6,479.4375,990.8,476.2375" style="stroke:#181818;stroke-width:0.8000000000000002;"/><line style="stroke:#181818;stroke-width:0.8000000000000002;" x1="546" x2="992.4" y1="476.2375" y2="476.2375"/><text fill="#000000" font-family="sans-serif" font-size="10.4" font-weight="bold" lengthAdjust="spacing" textLength="11.2" x="551.6" y="472.4336">17</text><text fill="#000000" font-family="sans-serif" font-size="10.4" lengthAdjust="spacing" textLength="421.6" x="566" y="472.4336">createStoreAddress(streetAddress, doorNumber, floorNumber, zipCode, state, district, city)</text><polygon fill="#181818" points="1688.4,495.8563,1696.4,499.0563,1688.4,502.2563,1691.6,499.0563" style="stroke:#181818;stroke-width:0.8000000000000002;"/><line style="stroke:#181818;stroke-width:0.8000000000000002;" x1="1005.2" x2="1693.2" y1="499.0563" y2="499.0563"/><text fill="#000000" font-family="sans-serif" font-size="10.4" font-weight="bold" lengthAdjust="spacing" textLength="11.2" x="1010.8" y="495.2523">18</text><text fill="#000000" font-family="sans-serif" font-size="10.4" lengthAdjust="spacing" textLength="368" x="1025.2" y="495.2523">Address(streetAddress, doorNumber, floorNumber, zipCode, state, district, city)</text><polygon fill="#181818" points="1014,518.675,1006,521.875,1014,525.075,1010.8,521.875" style="stroke:#181818;stroke-width:0.8000000000000002;"/><line style="stroke:#181818;stroke-width:0.8000000000000002;stroke-dasharray:2.0,2.0;" x1="1009.2" x2="1701.2" y1="521.875" y2="521.875"/><text fill="#000000" font-family="sans-serif" font-size="10.4" font-weight="bold" lengthAdjust="spacing" textLength="11.2" x="1018.8" y="518.0711">19</text><text fill="#000000" font-family="sans-serif" font-size="10.4" lengthAdjust="spacing" textLength="68" x="1033.2" y="518.0711">address object</text><polygon fill="#181818" points="554.8,541.4938,546.8,544.6938,554.8,547.8938,551.6,544.6938" style="stroke:#181818;stroke-width:0.8000000000000002;"/><line style="stroke:#181818;stroke-width:0.8000000000000002;" x1="550" x2="1000.4" y1="544.6938" y2="544.6938"/><text fill="#000000" font-family="sans-serif" font-size="10.4" font-weight="bold" lengthAdjust="spacing" textLength="11.2" x="559.6" y="540.8898">20</text><text fill="#000000" font-family="sans-serif" font-size="10.4" lengthAdjust="spacing" textLength="36.8" x="574" y="540.8898">address</text><polygon fill="#181818" points="72.4,564.3125,64.4,567.5125,72.4,570.7125,69.2,567.5125" style="stroke:#181818;stroke-width:0.8000000000000002;"/><line style="stroke:#181818;stroke-width:0.8000000000000002;stroke-dasharray:2.0,2.0;" x1="67.6" x2="541.2" y1="567.5125" y2="567.5125"/><text fill="#000000" font-family="sans-serif" font-size="10.4" font-weight="bold" lengthAdjust="spacing" textLength="11.2" x="77.2" y="563.7086">21</text><text fill="#000000" font-family="sans-serif" font-size="10.4" lengthAdjust="spacing" textLength="308" x="91.6" y="563.7086">requests store data (ID, designation, emailAddress, phoneNumber)</text><polygon fill="#181818" points="528.4,587.1313,536.4,590.3313,528.4,593.5313,531.6,590.3313" style="stroke:#181818;stroke-width:0.8000000000000002;"/><line style="stroke:#181818;stroke-width:0.8000000000000002;" x1="63.6" x2="533.2" y1="590.3313" y2="590.3313"/><text fill="#000000" font-family="sans-serif" font-size="10.4" font-weight="bold" lengthAdjust="spacing" textLength="11.2" x="69.2" y="586.5273">22</text><text fill="#000000" font-family="sans-serif" font-size="10.4" lengthAdjust="spacing" textLength="312.8" x="83.6" y="586.5273">types requested data(ID, designation, emailAddress, phoneNumber)</text><polygon fill="#181818" points="987.6,609.95,995.6,613.15,987.6,616.35,990.8,613.15" style="stroke:#181818;stroke-width:0.8000000000000002;"/><line style="stroke:#181818;stroke-width:0.8000000000000002;" x1="546" x2="992.4" y1="613.15" y2="613.15"/><text fill="#000000" font-family="sans-serif" font-size="10.4" font-weight="bold" lengthAdjust="spacing" textLength="11.2" x="551.6" y="609.3461">23</text><text fill="#000000" font-family="sans-serif" font-size="10.4" lengthAdjust="spacing" textLength="268.8" x="566" y="609.3461">createStore(ID, designation, emailAddress, phoneNumber)</text><polygon fill="#181818" points="1294,632.7688,1302,635.9688,1294,639.1688,1297.2,635.9688" style="stroke:#181818;stroke-width:0.8000000000000002;"/><line style="stroke:#181818;stroke-width:0.8000000000000002;" x1="1005.2" x2="1298.8" y1="635.9688" y2="635.9688"/><text fill="#000000" font-family="sans-serif" font-size="10.4" font-weight="bold" lengthAdjust="spacing" textLength="11.2" x="1010.8" y="632.1648">24</text><text fill="#000000" font-family="sans-serif" font-size="10.4" lengthAdjust="spacing" textLength="268.8" x="1025.2" y="632.1648">createStore(ID, designation, emailAddress, phoneNumber)</text><polygon fill="#181818" points="1014,655.5875,1006,658.7875,1014,661.9875,1010.8,658.7875" style="stroke:#181818;stroke-width:0.8000000000000002;"/><line style="stroke:#181818;stroke-width:0.8000000000000002;stroke-dasharray:2.0,2.0;" x1="1009.2" x2="1306.8" y1="658.7875" y2="658.7875"/><text fill="#000000" font-family="sans-serif" font-size="10.4" font-weight="bold" lengthAdjust="spacing" textLength="11.2" x="1018.8" y="654.9836">25</text><text fill="#000000" font-family="sans-serif" font-size="10.4" lengthAdjust="spacing" textLength="23.2" x="1033.2" y="654.9836">store</text><polygon fill="#181818" points="554.8,678.4063,546.8,681.6063,554.8,684.8063,551.6,681.6063" style="stroke:#181818;stroke-width:0.8000000000000002;"/><line style="stroke:#181818;stroke-width:0.8000000000000002;" x1="550" x2="1000.4" y1="681.6063" y2="681.6063"/><text fill="#000000" font-family="sans-serif" font-size="10.4" font-weight="bold" lengthAdjust="spacing" textLength="11.2" x="559.6" y="677.8023">26</text><text fill="#000000" font-family="sans-serif" font-size="10.4" lengthAdjust="spacing" textLength="23.2" x="574" y="677.8023">store</text><polygon fill="#181818" points="72.4,701.225,64.4,704.425,72.4,707.625,69.2,704.425" style="stroke:#181818;stroke-width:0.8000000000000002;"/><line style="stroke:#181818;stroke-width:0.8000000000000002;stroke-dasharray:2.0,2.0;" x1="67.6" x2="541.2" y1="704.425" y2="704.425"/><text fill="#000000" font-family="sans-serif" font-size="10.4" font-weight="bold" lengthAdjust="spacing" textLength="11.2" x="77.2" y="700.6211">27</text><text fill="#000000" font-family="sans-serif" font-size="10.4" lengthAdjust="spacing" textLength="173.6" x="91.6" y="700.6211">shows store data and asks to confirm</text><polygon fill="#181818" points="528.4,724.0438,536.4,727.2438,528.4,730.4438,531.6,727.2438" style="stroke:#181818;stroke-width:0.8000000000000002;"/><line style="stroke:#181818;stroke-width:0.8000000000000002;" x1="63.6" x2="533.2" y1="727.2438" y2="727.2438"/><text fill="#000000" font-family="sans-serif" font-size="10.4" font-weight="bold" lengthAdjust="spacing" textLength="11.2" x="69.2" y="723.4398">28</text><text fill="#000000" font-family="sans-serif" font-size="10.4" lengthAdjust="spacing" textLength="60" x="83.6" y="723.4398">submits data</text><polygon fill="#181818" points="987.6,746.8625,995.6,750.0625,987.6,753.2625,990.8,750.0625" style="stroke:#181818;stroke-width:0.8000000000000002;"/><line style="stroke:#181818;stroke-width:0.8000000000000002;" x1="546" x2="992.4" y1="750.0625" y2="750.0625"/><text fill="#000000" font-family="sans-serif" font-size="10.4" font-weight="bold" lengthAdjust="spacing" textLength="11.2" x="551.6" y="746.2586">29</text><text fill="#000000" font-family="sans-serif" font-size="10.4" lengthAdjust="spacing" textLength="180.8" x="566" y="746.2586">registerAddressAtStore(store, address)</text><polygon fill="#181818" points="1294,769.6813,1302,772.8813,1294,776.0813,1297.2,772.8813" style="stroke:#181818;stroke-width:0.8000000000000002;"/><line style="stroke:#181818;stroke-width:0.8000000000000002;" x1="1005.2" x2="1298.8" y1="772.8813" y2="772.8813"/><text fill="#000000" font-family="sans-serif" font-size="10.4" font-weight="bold" lengthAdjust="spacing" textLength="11.2" x="1010.8" y="769.0773">30</text><text fill="#000000" font-family="sans-serif" font-size="10.4" lengthAdjust="spacing" textLength="96" x="1025.2" y="769.0773">setAddress(address)</text><polygon fill="#181818" points="1014,792.5,1006,795.7,1014,798.9,1010.8,795.7" style="stroke:#181818;stroke-width:0.8000000000000002;"/><line style="stroke:#181818;stroke-width:0.8000000000000002;stroke-dasharray:2.0,2.0;" x1="1009.2" x2="1306.8" y1="795.7" y2="795.7"/><text fill="#000000" font-family="sans-serif" font-size="10.4" font-weight="bold" lengthAdjust="spacing" textLength="11.2" x="1018.8" y="791.8961">31</text><text fill="#000000" font-family="sans-serif" font-size="10.4" lengthAdjust="spacing" textLength="36" x="1033.2" y="791.8961">boolean</text><polygon fill="#181818" points="554.8,815.3188,546.8,818.5188,554.8,821.7188,551.6,818.5188" style="stroke:#181818;stroke-width:0.8000000000000002;"/><line style="stroke:#181818;stroke-width:0.8000000000000002;stroke-dasharray:2.0,2.0;" x1="550" x2="1000.4" y1="818.5188" y2="818.5188"/><text fill="#000000" font-family="sans-serif" font-size="10.4" font-weight="bold" lengthAdjust="spacing" textLength="11.2" x="559.6" y="814.7148">32</text><text fill="#000000" font-family="sans-serif" font-size="10.4" lengthAdjust="spacing" textLength="36" x="574" y="814.7148">boolean</text><polygon fill="#181818" points="72.4,838.1375,64.4,841.3375,72.4,844.5375,69.2,841.3375" style="stroke:#181818;stroke-width:0.8000000000000002;"/><line style="stroke:#181818;stroke-width:0.8000000000000002;stroke-dasharray:2.0,2.0;" x1="67.6" x2="541.2" y1="841.3375" y2="841.3375"/><text fill="#000000" font-family="sans-serif" font-size="10.4" font-weight="bold" lengthAdjust="spacing" textLength="11.2" x="77.2" y="837.5336">33</text><text fill="#000000" font-family="sans-serif" font-size="10.4" lengthAdjust="spacing" textLength="173.6" x="91.6" y="837.5336">shows store data and asks to confirm</text><polygon fill="#181818" points="528.4,860.9563,536.4,864.1563,528.4,867.3563,531.6,864.1563" style="stroke:#181818;stroke-width:0.8000000000000002;"/><line style="stroke:#181818;stroke-width:0.8000000000000002;" x1="63.6" x2="533.2" y1="864.1563" y2="864.1563"/><text fill="#000000" font-family="sans-serif" font-size="10.4" font-weight="bold" lengthAdjust="spacing" textLength="11.2" x="69.2" y="860.3523">34</text><text fill="#000000" font-family="sans-serif" font-size="10.4" lengthAdjust="spacing" textLength="60" x="83.6" y="860.3523">submits data</text><polygon fill="#181818" points="987.6,883.775,995.6,886.975,987.6,890.175,990.8,886.975" style="stroke:#181818;stroke-width:0.8000000000000002;"/><line style="stroke:#181818;stroke-width:0.8000000000000002;" x1="546" x2="992.4" y1="886.975" y2="886.975"/><text fill="#000000" font-family="sans-serif" font-size="10.4" font-weight="bold" lengthAdjust="spacing" textLength="11.2" x="551.6" y="883.1711">35</text><text fill="#000000" font-family="sans-serif" font-size="10.4" lengthAdjust="spacing" textLength="88.8" x="566" y="883.1711">registerStore(store)</text><polygon fill="#181818" points="1294,906.5938,1302,909.7938,1294,912.9938,1297.2,909.7938" style="stroke:#181818;stroke-width:0.8000000000000002;"/><line style="stroke:#181818;stroke-width:0.8000000000000002;" x1="1005.2" x2="1298.8" y1="909.7938" y2="909.7938"/><text fill="#000000" font-family="sans-serif" font-size="10.4" font-weight="bold" lengthAdjust="spacing" textLength="11.2" x="1010.8" y="905.9898">36</text><text fill="#000000" font-family="sans-serif" font-size="10.4" lengthAdjust="spacing" textLength="88.8" x="1025.2" y="905.9898">registerStore(store)</text><polygon fill="#181818" points="1014,929.4125,1006,932.6125,1014,935.8125,1010.8,932.6125" style="stroke:#181818;stroke-width:0.8000000000000002;"/><line style="stroke:#181818;stroke-width:0.8000000000000002;stroke-dasharray:2.0,2.0;" x1="1009.2" x2="1306.8" y1="932.6125" y2="932.6125"/><text fill="#000000" font-family="sans-serif" font-size="10.4" font-weight="bold" lengthAdjust="spacing" textLength="11.2" x="1018.8" y="928.8086">37</text><text fill="#000000" font-family="sans-serif" font-size="10.4" lengthAdjust="spacing" textLength="36" x="1033.2" y="928.8086">boolean</text><polygon fill="#181818" points="554.8,952.2313,546.8,955.4313,554.8,958.6313,551.6,955.4313" style="stroke:#181818;stroke-width:0.8000000000000002;"/><line style="stroke:#181818;stroke-width:0.8000000000000002;stroke-dasharray:2.0,2.0;" x1="550" x2="1000.4" y1="955.4313" y2="955.4313"/><text fill="#000000" font-family="sans-serif" font-size="10.4" font-weight="bold" lengthAdjust="spacing" textLength="11.2" x="559.6" y="951.6273">38</text><text fill="#000000" font-family="sans-serif" font-size="10.4" lengthAdjust="spacing" textLength="36" x="574" y="951.6273">boolean</text><polygon fill="#181818" points="68.4,975.05,60.4,978.25,68.4,981.45,65.2,978.25" style="stroke:#181818;stroke-width:0.8000000000000002;"/><line style="stroke:#181818;stroke-width:0.8000000000000002;stroke-dasharray:2.0,2.0;" x1="63.6" x2="541.2" y1="978.25" y2="978.25"/><text fill="#000000" font-family="sans-serif" font-size="10.4" font-weight="bold" lengthAdjust="spacing" textLength="11.2" x="73.2" y="974.4461">39</text><text fill="#000000" font-family="sans-serif" font-size="10.4" lengthAdjust="spacing" textLength="126.4" x="87.6" y="974.4461">displays operation success</text><!--SRC=[tLTHRzem47xFhx3w0bJq3p2fKjHE4rAtLgHzgpGPvm2lYPtPPXtzzRlOIOX3887IJHel1VlkyztvkyzN_S95HXLDIIg5P2ibKo16hI7GrKv6sGjTGcGs2H05p52nJEe6UaLZ-Sh5aYneeY48wDf8iKxde89WiE8na8MKPYv_1vGPgSX5jD46KXB6AHTS6qLnzO9GJSBRhm626ivuHeKX5vCPBD42L8Gcy3IrLazJtuX9OPHC4b3FmdUugNQiO_GuktcStUqSaKdDqPo3jcRLmYRYUQwOZU-YQXxso0R0mrtuw7lOQBQuasVHM77n-MjD26gQ4DvA0U6j-H2tUR4vCnxAxg85sbtsiMwusNWu_eB5y9Ty_p2E5MYDZiKtHm3tFHZuLnHcMS8PDLoA2BVnZxN-7ZuyD4nfbXKMU35xt7Qzs5ef46Rh-QIHGJMNw7CKXVSDBwcMLF0tY- -LuhvrmmArRnq0nc3gFWvaziKlfiw9WvQMG5ig1Nd3yL_82DjP0Ia- -8DSNMCVaGdQlcXY97Qswnj2YNQ-fNM5WNqN34ZjWm1NY9F3JH3WvngqqIIcXfAXWWLWJHcCIGoQAPxbuOy9uM8XLKeJyYpy7GDi9V2w4dyvNYlglZ6fpIYe1p1W2lB8R5St8xik-_to4iDpba7WcLMfbShWxPQVOZD7R946n5w2cGgDmiXWE6g5g0vgqvPMZ_pJTjhLDg-yvblbQOU9uU3H7UdcGcRJQoZJSFJfS9fM0VVcbU_M4y4IweRqTILZ3-WHFId2zrJn8yBtPVUyuUzgyVapY7Vr_hn9-8_1-HDW_cDpTF2rlLOrQ1SxwXwiGlImX02cN4Jjab9zivFGc2oIseytdjt86BNH4cTSLNziqo2ZVP7b4bpVgYkvsMIWoyWWjY6rgrqJnKjDh-IhTltePqT5NBqME78jk4fF2LElvoaldeb-uRMAEfauHRVAL8mDHVt3TvQ_GyBxlXL569ZoNmsl7A5QhSgO_DOfhrdEV-1ytzKv1m-evU_6YyAu0_E8ZdFCTFqslRNJ1L-AOaI0bFAaAd2saW9SKS_MKIUVsKdlVbG_-VpJERtdVXipGJLZVMIOVQO4Bzn6Z2r3HoT6dQP7dzzeX-DFB2-cds3_Uw5kCBVwlwAu-T2DaaCRxhYKXrqAT3Fp81Dr9RF37aTqtUfX5isbJ83kpjB7yAPAfYn-7z1zbNaVEpeOqfib9pEbHf2py-B8C_vdOk1GaILqWwz-1ku_RBnBnjeUw_rqQEpKfuJRhy4V]--></g></svg>