<?xml version="1.0" encoding="us-ascii" standalone="no"?><svg xmlns="http://www.w3.org/2000/svg" xmlns:xlink="http://www.w3.org/1999/xlink" contentStyleType="text/css" height="1197px" preserveAspectRatio="none" style="width:1306px;height:1197px;background:#FFFFFF;" version="1.1" viewBox="0 0 1306 1197" width="1306px" zoomAndPan="magnify"><defs/><g><!--class Address--><g id="elem_Address"><rect codeLine="11" fill="#F1F1F1" height="157.4844" id="Address" rx="2.5" ry="2.5" style="stroke:#181818;stroke-width:0.5;" width="146" x="373.5" y="754"/><ellipse cx="416.4" cy="770" fill="#ADD1B2" rx="11" ry="11" style="stroke:#181818;stroke-width:1.0;"/><path d="M418.4,766.5 Q418.6031,766 418.8375,765.75 Q419.0719,765.5 419.3375,765.5 Q419.8063,765.5 420.1031,765.7813 Q420.4,766.0625 420.4,766.7188 L420.4,768.2813 Q420.4,768.9375 420.1188,769.2188 Q419.8375,769.5 419.4,769.5 Q419.0094,769.5 418.7594,769.3281 Q418.5094,769.1563 418.4,768.7031 Q418.3531,768.3906 418.1813,768.2188 Q417.8688,767.8906 417.3063,767.7031 Q416.7438,767.5 416.1813,767.5 Q415.4781,767.5 414.8844,767.7813 Q414.3063,768.0625 413.8531,768.6875 Q413.4,769.3125 413.4,770.1719 L413.4,771.0938 Q413.4,772.125 414.2438,772.8125 Q415.0875,773.5 416.5875,773.5 Q417.4781,773.5 418.1031,773.2969 Q418.4625,773.1875 418.8688,772.8281 Q419.1344,772.625 419.275,772.5625 Q419.4156,772.5 419.5875,772.5 Q419.9156,772.5 420.15,772.7656 Q420.4,773.0156 420.4,773.375 Q420.4,773.7188 420.0563,774.125 Q419.5563,774.7188 418.7594,775.0469 Q417.7125,775.5 416.4313,775.5 Q414.9313,775.5 413.7281,774.9063 Q412.7594,774.4375 412.0719,773.4219 Q411.4,772.4063 411.4,771.2031 L411.4,770.1094 Q411.4,768.8594 411.9938,767.7656 Q412.6031,766.6719 413.65,766.0938 Q414.7125,765.5 415.9,765.5 Q416.6188,765.5 417.2438,765.75 Q417.8688,766 418.4,766.5 Z " fill="#000000"/><text fill="#000000" font-family="sans-serif" font-size="14" lengthAdjust="spacing" textLength="52" x="436.6" y="774.8535">Address</text><line style="stroke:#181818;stroke-width:0.5;" x1="374.5" x2="518.5" y1="786" y2="786"/><text fill="#000000" font-family="sans-serif" font-size="14" lengthAdjust="spacing" textLength="134" x="379.5" y="802.6738">-String streetAddress</text><text fill="#000000" font-family="sans-serif" font-size="14" lengthAdjust="spacing" textLength="102" x="379.5" y="818.3145">-int doorNumber</text><text fill="#000000" font-family="sans-serif" font-size="14" lengthAdjust="spacing" textLength="101" x="379.5" y="833.9551">-int floorNumber</text><text fill="#000000" font-family="sans-serif" font-size="14" lengthAdjust="spacing" textLength="97" x="379.5" y="849.5957">-String zipCode</text><text fill="#000000" font-family="sans-serif" font-size="14" lengthAdjust="spacing" textLength="54" x="379.5" y="865.2363">-City city</text><text fill="#000000" font-family="sans-serif" font-size="14" lengthAdjust="spacing" textLength="93" x="379.5" y="880.877">-District district</text><text fill="#000000" font-family="sans-serif" font-size="14" lengthAdjust="spacing" textLength="73" x="379.5" y="896.5176">-State state</text><line style="stroke:#181818;stroke-width:0.5;" x1="374.5" x2="518.5" y1="903.4844" y2="903.4844"/></g><!--class City--><g id="elem_City"><rect codeLine="21" fill="#F1F1F1" height="63.6406" id="City" rx="2.5" ry="2.5" style="stroke:#181818;stroke-width:0.5;" width="93" x="371" y="1127"/><ellipse cx="402.65" cy="1143" fill="#ADD1B2" rx="11" ry="11" style="stroke:#181818;stroke-width:1.0;"/><path d="M404.65,1139.5 Q404.8531,1139 405.0875,1138.75 Q405.3219,1138.5 405.5875,1138.5 Q406.0563,1138.5 406.3531,1138.7813 Q406.65,1139.0625 406.65,1139.7188 L406.65,1141.2813 Q406.65,1141.9375 406.3688,1142.2188 Q406.0875,1142.5 405.65,1142.5 Q405.2594,1142.5 405.0094,1142.3281 Q404.7594,1142.1563 404.65,1141.7031 Q404.6031,1141.3906 404.4313,1141.2188 Q404.1188,1140.8906 403.5563,1140.7031 Q402.9938,1140.5 402.4313,1140.5 Q401.7281,1140.5 401.1344,1140.7813 Q400.5563,1141.0625 400.1031,1141.6875 Q399.65,1142.3125 399.65,1143.1719 L399.65,1144.0938 Q399.65,1145.125 400.4938,1145.8125 Q401.3375,1146.5 402.8375,1146.5 Q403.7281,1146.5 404.3531,1146.2969 Q404.7125,1146.1875 405.1188,1145.8281 Q405.3844,1145.625 405.525,1145.5625 Q405.6656,1145.5 405.8375,1145.5 Q406.1656,1145.5 406.4,1145.7656 Q406.65,1146.0156 406.65,1146.375 Q406.65,1146.7188 406.3063,1147.125 Q405.8063,1147.7188 405.0094,1148.0469 Q403.9625,1148.5 402.6813,1148.5 Q401.1813,1148.5 399.9781,1147.9063 Q399.0094,1147.4375 398.3219,1146.4219 Q397.65,1145.4063 397.65,1144.2031 L397.65,1143.1094 Q397.65,1141.8594 398.2438,1140.7656 Q398.8531,1139.6719 399.9,1139.0938 Q400.9625,1138.5 402.15,1138.5 Q402.8688,1138.5 403.4938,1138.75 Q404.1188,1139 404.65,1139.5 Z " fill="#000000"/><text fill="#000000" font-family="sans-serif" font-size="14" lengthAdjust="spacing" textLength="24" x="420.35" y="1147.8535">City</text><line style="stroke:#181818;stroke-width:0.5;" x1="372" x2="463" y1="1159" y2="1159"/><text fill="#000000" font-family="sans-serif" font-size="14" lengthAdjust="spacing" textLength="81" x="377" y="1175.6738">-String name</text><line style="stroke:#181818;stroke-width:0.5;" x1="372" x2="463" y1="1182.6406" y2="1182.6406"/></g><!--class District--><g id="elem_District"><rect codeLine="25" fill="#F1F1F1" height="63.6406" id="District" rx="2.5" ry="2.5" style="stroke:#181818;stroke-width:0.5;" width="93" x="664" y="1127"/><ellipse cx="687.1" cy="1143" fill="#ADD1B2" rx="11" ry="11" style="stroke:#181818;stroke-width:1.0;"/><path d="M689.1,1139.5 Q689.3031,1139 689.5375,1138.75 Q689.7719,1138.5 690.0375,1138.5 Q690.5063,1138.5 690.8031,1138.7813 Q691.1,1139.0625 691.1,1139.7188 L691.1,1141.2813 Q691.1,1141.9375 690.8188,1142.2188 Q690.5375,1142.5 690.1,1142.5 Q689.7094,1142.5 689.4594,1142.3281 Q689.2094,1142.1563 689.1,1141.7031 Q689.0531,1141.3906 688.8813,1141.2188 Q688.5688,1140.8906 688.0063,1140.7031 Q687.4438,1140.5 686.8813,1140.5 Q686.1781,1140.5 685.5844,1140.7813 Q685.0063,1141.0625 684.5531,1141.6875 Q684.1,1142.3125 684.1,1143.1719 L684.1,1144.0938 Q684.1,1145.125 684.9438,1145.8125 Q685.7875,1146.5 687.2875,1146.5 Q688.1781,1146.5 688.8031,1146.2969 Q689.1625,1146.1875 689.5688,1145.8281 Q689.8344,1145.625 689.975,1145.5625 Q690.1156,1145.5 690.2875,1145.5 Q690.6156,1145.5 690.85,1145.7656 Q691.1,1146.0156 691.1,1146.375 Q691.1,1146.7188 690.7563,1147.125 Q690.2563,1147.7188 689.4594,1148.0469 Q688.4125,1148.5 687.1313,1148.5 Q685.6313,1148.5 684.4281,1147.9063 Q683.4594,1147.4375 682.7719,1146.4219 Q682.1,1145.4063 682.1,1144.2031 L682.1,1143.1094 Q682.1,1141.8594 682.6938,1140.7656 Q683.3031,1139.6719 684.35,1139.0938 Q685.4125,1138.5 686.6,1138.5 Q687.3188,1138.5 687.9438,1138.75 Q688.5688,1139 689.1,1139.5 Z " fill="#000000"/><text fill="#000000" font-family="sans-serif" font-size="14" lengthAdjust="spacing" textLength="43" x="702.9" y="1147.8535">District</text><line style="stroke:#181818;stroke-width:0.5;" x1="665" x2="756" y1="1159" y2="1159"/><text fill="#000000" font-family="sans-serif" font-size="14" lengthAdjust="spacing" textLength="81" x="670" y="1175.6738">-String name</text><line style="stroke:#181818;stroke-width:0.5;" x1="665" x2="756" y1="1182.6406" y2="1182.6406"/></g><!--class State--><g id="elem_State"><rect codeLine="29" fill="#F1F1F1" height="63.6406" id="State" rx="2.5" ry="2.5" style="stroke:#181818;stroke-width:0.5;" width="93" x="84" y="1127"/><ellipse cx="111.6" cy="1143" fill="#ADD1B2" rx="11" ry="11" style="stroke:#181818;stroke-width:1.0;"/><path d="M113.6,1139.5 Q113.8031,1139 114.0375,1138.75 Q114.2719,1138.5 114.5375,1138.5 Q115.0063,1138.5 115.3031,1138.7813 Q115.6,1139.0625 115.6,1139.7188 L115.6,1141.2813 Q115.6,1141.9375 115.3188,1142.2188 Q115.0375,1142.5 114.6,1142.5 Q114.2094,1142.5 113.9594,1142.3281 Q113.7094,1142.1563 113.6,1141.7031 Q113.5531,1141.3906 113.3813,1141.2188 Q113.0688,1140.8906 112.5063,1140.7031 Q111.9438,1140.5 111.3813,1140.5 Q110.6781,1140.5 110.0844,1140.7813 Q109.5063,1141.0625 109.0531,1141.6875 Q108.6,1142.3125 108.6,1143.1719 L108.6,1144.0938 Q108.6,1145.125 109.4438,1145.8125 Q110.2875,1146.5 111.7875,1146.5 Q112.6781,1146.5 113.3031,1146.2969 Q113.6625,1146.1875 114.0688,1145.8281 Q114.3344,1145.625 114.475,1145.5625 Q114.6156,1145.5 114.7875,1145.5 Q115.1156,1145.5 115.35,1145.7656 Q115.6,1146.0156 115.6,1146.375 Q115.6,1146.7188 115.2563,1147.125 Q114.7563,1147.7188 113.9594,1148.0469 Q112.9125,1148.5 111.6313,1148.5 Q110.1313,1148.5 108.9281,1147.9063 Q107.9594,1147.4375 107.2719,1146.4219 Q106.6,1145.4063 106.6,1144.2031 L106.6,1143.1094 Q106.6,1141.8594 107.1938,1140.7656 Q107.8031,1139.6719 108.85,1139.0938 Q109.9125,1138.5 111.1,1138.5 Q111.8188,1138.5 112.4438,1138.75 Q113.0688,1139 113.6,1139.5 Z " fill="#000000"/><text fill="#000000" font-family="sans-serif" font-size="14" lengthAdjust="spacing" textLength="33" x="128.4" y="1147.8535">State</text><line style="stroke:#181818;stroke-width:0.5;" x1="85" x2="176" y1="1159" y2="1159"/><text fill="#000000" font-family="sans-serif" font-size="14" lengthAdjust="spacing" textLength="81" x="90" y="1175.6738">-String name</text><line style="stroke:#181818;stroke-width:0.5;" x1="85" x2="176" y1="1182.6406" y2="1182.6406"/></g><!--class Store--><g id="elem_Store"><rect codeLine="33" fill="#F1F1F1" height="173.125" id="Store" rx="2.5" ry="2.5" style="stroke:#181818;stroke-width:0.5;" width="407" x="255" y="505"/><ellipse cx="437.25" cy="521" fill="#ADD1B2" rx="11" ry="11" style="stroke:#181818;stroke-width:1.0;"/><path d="M439.25,517.5 Q439.4531,517 439.6875,516.75 Q439.9219,516.5 440.1875,516.5 Q440.6563,516.5 440.9531,516.7813 Q441.25,517.0625 441.25,517.7188 L441.25,519.2813 Q441.25,519.9375 440.9688,520.2188 Q440.6875,520.5 440.25,520.5 Q439.8594,520.5 439.6094,520.3281 Q439.3594,520.1563 439.25,519.7031 Q439.2031,519.3906 439.0313,519.2188 Q438.7188,518.8906 438.1563,518.7031 Q437.5938,518.5 437.0313,518.5 Q436.3281,518.5 435.7344,518.7813 Q435.1563,519.0625 434.7031,519.6875 Q434.25,520.3125 434.25,521.1719 L434.25,522.0938 Q434.25,523.125 435.0938,523.8125 Q435.9375,524.5 437.4375,524.5 Q438.3281,524.5 438.9531,524.2969 Q439.3125,524.1875 439.7188,523.8281 Q439.9844,523.625 440.125,523.5625 Q440.2656,523.5 440.4375,523.5 Q440.7656,523.5 441,523.7656 Q441.25,524.0156 441.25,524.375 Q441.25,524.7188 440.9063,525.125 Q440.4063,525.7188 439.6094,526.0469 Q438.5625,526.5 437.2813,526.5 Q435.7813,526.5 434.5781,525.9063 Q433.6094,525.4375 432.9219,524.4219 Q432.25,523.4063 432.25,522.2031 L432.25,521.1094 Q432.25,519.8594 432.8438,518.7656 Q433.4531,517.6719 434.5,517.0938 Q435.5625,516.5 436.75,516.5 Q437.4688,516.5 438.0938,516.75 Q438.7188,517 439.25,517.5 Z " fill="#000000"/><text fill="#000000" font-family="sans-serif" font-size="14" lengthAdjust="spacing" textLength="34" x="457.75" y="525.8535">Store</text><line style="stroke:#181818;stroke-width:0.5;" x1="256" x2="661" y1="537" y2="537"/><text fill="#000000" font-family="sans-serif" font-size="14" lengthAdjust="spacing" textLength="59" x="261" y="553.6738">-String ID</text><text fill="#000000" font-family="sans-serif" font-size="14" lengthAdjust="spacing" textLength="119" x="261" y="569.3145">-String designation</text><text fill="#000000" font-family="sans-serif" font-size="14" lengthAdjust="spacing" textLength="57" x="261" y="584.9551">-Address</text><text fill="#000000" font-family="sans-serif" font-size="14" lengthAdjust="spacing" textLength="131" x="261" y="600.5957">-String emailAddress</text><text fill="#000000" font-family="sans-serif" font-size="14" lengthAdjust="spacing" textLength="135" x="261" y="616.2363">-String phoneNumber</text><line style="stroke:#181818;stroke-width:0.5;" x1="256" x2="661" y1="623.2031" y2="623.2031"/><text fill="#000000" font-family="sans-serif" font-size="14" lengthAdjust="spacing" textLength="395" x="261" y="639.877">+Store(ID, designation, address, emailAddress, phoneNumber)</text><text fill="#000000" font-family="sans-serif" font-size="14" lengthAdjust="spacing" textLength="336" x="261" y="655.5176">+Store(ID, designation, emailAddress, phoneNumber)</text><text fill="#000000" font-family="sans-serif" font-size="14" lengthAdjust="spacing" textLength="140" x="261" y="671.1582">+setAddress(address)</text></g><!--class Organization--><g id="elem_Organization"><rect codeLine="45" fill="#F1F1F1" height="94.9219" id="Organization" rx="2.5" ry="2.5" style="stroke:#181818;stroke-width:0.5;" width="236" x="1063.5" y="785"/><ellipse cx="1137.25" cy="801" fill="#ADD1B2" rx="11" ry="11" style="stroke:#181818;stroke-width:1.0;"/><path d="M1139.25,797.5 Q1139.4531,797 1139.6875,796.75 Q1139.9219,796.5 1140.1875,796.5 Q1140.6563,796.5 1140.9531,796.7813 Q1141.25,797.0625 1141.25,797.7188 L1141.25,799.2813 Q1141.25,799.9375 1140.9688,800.2188 Q1140.6875,800.5 1140.25,800.5 Q1139.8594,800.5 1139.6094,800.3281 Q1139.3594,800.1563 1139.25,799.7031 Q1139.2031,799.3906 1139.0313,799.2188 Q1138.7188,798.8906 1138.1563,798.7031 Q1137.5938,798.5 1137.0313,798.5 Q1136.3281,798.5 1135.7344,798.7813 Q1135.1563,799.0625 1134.7031,799.6875 Q1134.25,800.3125 1134.25,801.1719 L1134.25,802.0938 Q1134.25,803.125 1135.0938,803.8125 Q1135.9375,804.5 1137.4375,804.5 Q1138.3281,804.5 1138.9531,804.2969 Q1139.3125,804.1875 1139.7188,803.8281 Q1139.9844,803.625 1140.125,803.5625 Q1140.2656,803.5 1140.4375,803.5 Q1140.7656,803.5 1141,803.7656 Q1141.25,804.0156 1141.25,804.375 Q1141.25,804.7188 1140.9063,805.125 Q1140.4063,805.7188 1139.6094,806.0469 Q1138.5625,806.5 1137.2813,806.5 Q1135.7813,806.5 1134.5781,805.9063 Q1133.6094,805.4375 1132.9219,804.4219 Q1132.25,803.4063 1132.25,802.2031 L1132.25,801.1094 Q1132.25,799.8594 1132.8438,798.7656 Q1133.4531,797.6719 1134.5,797.0938 Q1135.5625,796.5 1136.75,796.5 Q1137.4688,796.5 1138.0938,796.75 Q1138.7188,797 1139.25,797.5 Z " fill="#000000"/><text fill="#000000" font-family="sans-serif" font-size="14" lengthAdjust="spacing" textLength="80" x="1157.75" y="805.8535">Organization</text><line style="stroke:#181818;stroke-width:0.5;" x1="1064.5" x2="1298.5" y1="817" y2="817"/><text fill="#000000" font-family="sans-serif" font-size="14" lengthAdjust="spacing" textLength="81" x="1069.5" y="833.6738">-String name</text><line style="stroke:#181818;stroke-width:0.5;" x1="1064.5" x2="1298.5" y1="840.6406" y2="840.6406"/><text fill="#000000" font-family="sans-serif" font-size="14" lengthAdjust="spacing" textLength="224" x="1069.5" y="857.3145">-checkIfStoreExists(store) : boolean</text><text fill="#000000" font-family="sans-serif" font-size="14" lengthAdjust="spacing" textLength="133" x="1069.5" y="872.9551">+Organization(name)</text></g><!--class StoreRepository--><g id="elem_StoreRepository"><rect codeLine="52" fill="#F1F1F1" height="173.125" id="StoreRepository" rx="2.5" ry="2.5" style="stroke:#181818;stroke-width:0.5;" width="490" x="527.5" y="256"/><ellipse cx="717.25" cy="272" fill="#ADD1B2" rx="11" ry="11" style="stroke:#181818;stroke-width:1.0;"/><path d="M719.25,268.5 Q719.4531,268 719.6875,267.75 Q719.9219,267.5 720.1875,267.5 Q720.6563,267.5 720.9531,267.7813 Q721.25,268.0625 721.25,268.7188 L721.25,270.2813 Q721.25,270.9375 720.9688,271.2188 Q720.6875,271.5 720.25,271.5 Q719.8594,271.5 719.6094,271.3281 Q719.3594,271.1563 719.25,270.7031 Q719.2031,270.3906 719.0313,270.2188 Q718.7188,269.8906 718.1563,269.7031 Q717.5938,269.5 717.0313,269.5 Q716.3281,269.5 715.7344,269.7813 Q715.1563,270.0625 714.7031,270.6875 Q714.25,271.3125 714.25,272.1719 L714.25,273.0938 Q714.25,274.125 715.0938,274.8125 Q715.9375,275.5 717.4375,275.5 Q718.3281,275.5 718.9531,275.2969 Q719.3125,275.1875 719.7188,274.8281 Q719.9844,274.625 720.125,274.5625 Q720.2656,274.5 720.4375,274.5 Q720.7656,274.5 721,274.7656 Q721.25,275.0156 721.25,275.375 Q721.25,275.7188 720.9063,276.125 Q720.4063,276.7188 719.6094,277.0469 Q718.5625,277.5 717.2813,277.5 Q715.7813,277.5 714.5781,276.9063 Q713.6094,276.4375 712.9219,275.4219 Q712.25,274.4063 712.25,273.2031 L712.25,272.1094 Q712.25,270.8594 712.8438,269.7656 Q713.4531,268.6719 714.5,268.0938 Q715.5625,267.5 716.75,267.5 Q717.4688,267.5 718.0938,267.75 Q718.7188,268 719.25,268.5 Z " fill="#000000"/><text fill="#000000" font-family="sans-serif" font-size="14" lengthAdjust="spacing" textLength="102" x="737.75" y="276.8535">StoreRepository</text><line style="stroke:#181818;stroke-width:0.5;" x1="528.5" x2="1016.5" y1="288" y2="288"/><text fill="#000000" font-family="sans-serif" font-size="14" lengthAdjust="spacing" textLength="120" x="533.5" y="304.6738">-List&lt;Store&gt; stores</text><line style="stroke:#181818;stroke-width:0.5;" x1="528.5" x2="1016.5" y1="311.6406" y2="311.6406"/><text fill="#000000" font-family="sans-serif" font-size="14" lengthAdjust="spacing" textLength="160" x="533.5" y="328.3145">-getStores() : List&lt;Store&gt;</text><text fill="#000000" font-family="sans-serif" font-size="14" lengthAdjust="spacing" textLength="157" x="533.5" y="343.9551">-getStoreByID(ID) : Store</text><text fill="#000000" font-family="sans-serif" font-size="14" lengthAdjust="spacing" textLength="310" x="533.5" y="359.5957">-getStoreByPhoneNumber(phoneNumber) : Store</text><text fill="#000000" font-family="sans-serif" font-size="14" lengthAdjust="spacing" textLength="198" x="533.5" y="375.2363">-getStoreByEmail(email) : Store</text><text fill="#000000" font-family="sans-serif" font-size="14" lengthAdjust="spacing" textLength="192" x="533.5" y="390.877">-registerStore(store) : boolean</text><text fill="#000000" font-family="sans-serif" font-size="14" lengthAdjust="spacing" textLength="419" x="533.5" y="406.5176">-createStore(ID, designation, emailAddress, phoneNumber) : Store</text><text fill="#000000" font-family="sans-serif" font-size="14" lengthAdjust="spacing" textLength="478" x="533.5" y="422.1582">-createStore(ID, designation, address, emailAddress, phoneNumber) : Store</text></g><!--class StateRepository--><g id="elem_StateRepository"><rect codeLine="63" fill="#F1F1F1" height="63.6406" id="StateRepository" rx="2.5" ry="2.5" style="stroke:#181818;stroke-width:0.5;" width="247" x="7" y="987"/><ellipse cx="75.75" cy="1003" fill="#ADD1B2" rx="11" ry="11" style="stroke:#181818;stroke-width:1.0;"/><path d="M77.75,999.5 Q77.9531,999 78.1875,998.75 Q78.4219,998.5 78.6875,998.5 Q79.1563,998.5 79.4531,998.7813 Q79.75,999.0625 79.75,999.7188 L79.75,1001.2813 Q79.75,1001.9375 79.4688,1002.2188 Q79.1875,1002.5 78.75,1002.5 Q78.3594,1002.5 78.1094,1002.3281 Q77.8594,1002.1563 77.75,1001.7031 Q77.7031,1001.3906 77.5313,1001.2188 Q77.2188,1000.8906 76.6563,1000.7031 Q76.0938,1000.5 75.5313,1000.5 Q74.8281,1000.5 74.2344,1000.7813 Q73.6563,1001.0625 73.2031,1001.6875 Q72.75,1002.3125 72.75,1003.1719 L72.75,1004.0938 Q72.75,1005.125 73.5938,1005.8125 Q74.4375,1006.5 75.9375,1006.5 Q76.8281,1006.5 77.4531,1006.2969 Q77.8125,1006.1875 78.2188,1005.8281 Q78.4844,1005.625 78.625,1005.5625 Q78.7656,1005.5 78.9375,1005.5 Q79.2656,1005.5 79.5,1005.7656 Q79.75,1006.0156 79.75,1006.375 Q79.75,1006.7188 79.4063,1007.125 Q78.9063,1007.7188 78.1094,1008.0469 Q77.0625,1008.5 75.7813,1008.5 Q74.2813,1008.5 73.0781,1007.9063 Q72.1094,1007.4375 71.4219,1006.4219 Q70.75,1005.4063 70.75,1004.2031 L70.75,1003.1094 Q70.75,1001.8594 71.3438,1000.7656 Q71.9531,999.6719 73,999.0938 Q74.0625,998.5 75.25,998.5 Q75.9688,998.5 76.5938,998.75 Q77.2188,999 77.75,999.5 Z " fill="#000000"/><text fill="#000000" font-family="sans-serif" font-size="14" lengthAdjust="spacing" textLength="101" x="96.25" y="1007.8535">StateRepository</text><line style="stroke:#181818;stroke-width:0.5;" x1="8" x2="253" y1="1019" y2="1019"/><line style="stroke:#181818;stroke-width:0.5;" x1="8" x2="253" y1="1027" y2="1027"/><text fill="#000000" font-family="sans-serif" font-size="14" lengthAdjust="spacing" textLength="235" x="13" y="1043.6738">+getStateByName(stateName) : State</text></g><!--class DistrictRepository--><g id="elem_DistrictRepository"><rect codeLine="67" fill="#F1F1F1" height="63.6406" id="DistrictRepository" rx="2.5" ry="2.5" style="stroke:#181818;stroke-width:0.5;" width="277" x="572" y="987"/><ellipse cx="650.75" cy="1003" fill="#ADD1B2" rx="11" ry="11" style="stroke:#181818;stroke-width:1.0;"/><path d="M652.75,999.5 Q652.9531,999 653.1875,998.75 Q653.4219,998.5 653.6875,998.5 Q654.1563,998.5 654.4531,998.7813 Q654.75,999.0625 654.75,999.7188 L654.75,1001.2813 Q654.75,1001.9375 654.4688,1002.2188 Q654.1875,1002.5 653.75,1002.5 Q653.3594,1002.5 653.1094,1002.3281 Q652.8594,1002.1563 652.75,1001.7031 Q652.7031,1001.3906 652.5313,1001.2188 Q652.2188,1000.8906 651.6563,1000.7031 Q651.0938,1000.5 650.5313,1000.5 Q649.8281,1000.5 649.2344,1000.7813 Q648.6563,1001.0625 648.2031,1001.6875 Q647.75,1002.3125 647.75,1003.1719 L647.75,1004.0938 Q647.75,1005.125 648.5938,1005.8125 Q649.4375,1006.5 650.9375,1006.5 Q651.8281,1006.5 652.4531,1006.2969 Q652.8125,1006.1875 653.2188,1005.8281 Q653.4844,1005.625 653.625,1005.5625 Q653.7656,1005.5 653.9375,1005.5 Q654.2656,1005.5 654.5,1005.7656 Q654.75,1006.0156 654.75,1006.375 Q654.75,1006.7188 654.4063,1007.125 Q653.9063,1007.7188 653.1094,1008.0469 Q652.0625,1008.5 650.7813,1008.5 Q649.2813,1008.5 648.0781,1007.9063 Q647.1094,1007.4375 646.4219,1006.4219 Q645.75,1005.4063 645.75,1004.2031 L645.75,1003.1094 Q645.75,1001.8594 646.3438,1000.7656 Q646.9531,999.6719 648,999.0938 Q649.0625,998.5 650.25,998.5 Q650.9688,998.5 651.5938,998.75 Q652.2188,999 652.75,999.5 Z " fill="#000000"/><text fill="#000000" font-family="sans-serif" font-size="14" lengthAdjust="spacing" textLength="111" x="671.25" y="1007.8535">DistrictRepository</text><line style="stroke:#181818;stroke-width:0.5;" x1="573" x2="848" y1="1019" y2="1019"/><line style="stroke:#181818;stroke-width:0.5;" x1="573" x2="848" y1="1027" y2="1027"/><text fill="#000000" font-family="sans-serif" font-size="14" lengthAdjust="spacing" textLength="265" x="578" y="1043.6738">+getDistrictByName(districtName) : District</text></g><!--class CityRepository--><g id="elem_CityRepository"><rect codeLine="71" fill="#F1F1F1" height="63.6406" id="CityRepository" rx="2.5" ry="2.5" style="stroke:#181818;stroke-width:0.5;" width="219" x="308" y="987"/><ellipse cx="367.25" cy="1003" fill="#ADD1B2" rx="11" ry="11" style="stroke:#181818;stroke-width:1.0;"/><path d="M369.25,999.5 Q369.4531,999 369.6875,998.75 Q369.9219,998.5 370.1875,998.5 Q370.6563,998.5 370.9531,998.7813 Q371.25,999.0625 371.25,999.7188 L371.25,1001.2813 Q371.25,1001.9375 370.9688,1002.2188 Q370.6875,1002.5 370.25,1002.5 Q369.8594,1002.5 369.6094,1002.3281 Q369.3594,1002.1563 369.25,1001.7031 Q369.2031,1001.3906 369.0313,1001.2188 Q368.7188,1000.8906 368.1563,1000.7031 Q367.5938,1000.5 367.0313,1000.5 Q366.3281,1000.5 365.7344,1000.7813 Q365.1563,1001.0625 364.7031,1001.6875 Q364.25,1002.3125 364.25,1003.1719 L364.25,1004.0938 Q364.25,1005.125 365.0938,1005.8125 Q365.9375,1006.5 367.4375,1006.5 Q368.3281,1006.5 368.9531,1006.2969 Q369.3125,1006.1875 369.7188,1005.8281 Q369.9844,1005.625 370.125,1005.5625 Q370.2656,1005.5 370.4375,1005.5 Q370.7656,1005.5 371,1005.7656 Q371.25,1006.0156 371.25,1006.375 Q371.25,1006.7188 370.9063,1007.125 Q370.4063,1007.7188 369.6094,1008.0469 Q368.5625,1008.5 367.2813,1008.5 Q365.7813,1008.5 364.5781,1007.9063 Q363.6094,1007.4375 362.9219,1006.4219 Q362.25,1005.4063 362.25,1004.2031 L362.25,1003.1094 Q362.25,1001.8594 362.8438,1000.7656 Q363.4531,999.6719 364.5,999.0938 Q365.5625,998.5 366.75,998.5 Q367.4688,998.5 368.0938,998.75 Q368.7188,999 369.25,999.5 Z " fill="#000000"/><text fill="#000000" font-family="sans-serif" font-size="14" lengthAdjust="spacing" textLength="92" x="387.75" y="1007.8535">CityRepository</text><line style="stroke:#181818;stroke-width:0.5;" x1="309" x2="526" y1="1019" y2="1019"/><line style="stroke:#181818;stroke-width:0.5;" x1="309" x2="526" y1="1027" y2="1027"/><text fill="#000000" font-family="sans-serif" font-size="14" lengthAdjust="spacing" textLength="207" x="314" y="1043.6738">+getCityByName(cityName) : City</text></g><!--class Repositories--><g id="elem_Repositories"><rect codeLine="75" fill="#F1F1F1" height="141.8438" id="Repositories" rx="2.5" ry="2.5" style="stroke:#181818;stroke-width:0.5;" width="194" x="219.5" y="271.5"/><ellipse cx="272.75" cy="287.5" fill="#ADD1B2" rx="11" ry="11" style="stroke:#181818;stroke-width:1.0;"/><path d="M274.75,284 Q274.9531,283.5 275.1875,283.25 Q275.4219,283 275.6875,283 Q276.1563,283 276.4531,283.2813 Q276.75,283.5625 276.75,284.2188 L276.75,285.7813 Q276.75,286.4375 276.4688,286.7188 Q276.1875,287 275.75,287 Q275.3594,287 275.1094,286.8281 Q274.8594,286.6563 274.75,286.2031 Q274.7031,285.8906 274.5313,285.7188 Q274.2188,285.3906 273.6563,285.2031 Q273.0938,285 272.5313,285 Q271.8281,285 271.2344,285.2813 Q270.6563,285.5625 270.2031,286.1875 Q269.75,286.8125 269.75,287.6719 L269.75,288.5938 Q269.75,289.625 270.5938,290.3125 Q271.4375,291 272.9375,291 Q273.8281,291 274.4531,290.7969 Q274.8125,290.6875 275.2188,290.3281 Q275.4844,290.125 275.625,290.0625 Q275.7656,290 275.9375,290 Q276.2656,290 276.5,290.2656 Q276.75,290.5156 276.75,290.875 Q276.75,291.2188 276.4063,291.625 Q275.9063,292.2188 275.1094,292.5469 Q274.0625,293 272.7813,293 Q271.2813,293 270.0781,292.4063 Q269.1094,291.9375 268.4219,290.9219 Q267.75,289.9063 267.75,288.7031 L267.75,287.6094 Q267.75,286.3594 268.3438,285.2656 Q268.9531,284.1719 270,283.5938 Q271.0625,283 272.25,283 Q272.9688,283 273.5938,283.25 Q274.2188,283.5 274.75,284 Z " fill="#000000"/><text fill="#000000" font-family="sans-serif" font-size="14" lengthAdjust="spacing" textLength="79" x="293.25" y="292.3535">Repositories</text><line style="stroke:#181818;stroke-width:0.5;" x1="220.5" x2="412.5" y1="303.5" y2="303.5"/><line style="stroke:#181818;stroke-width:0.5;" x1="220.5" x2="412.5" y1="311.5" y2="311.5"/><text fill="#000000" font-family="sans-serif" font-size="14" lengthAdjust="spacing" textLength="94" x="225.5" y="328.1738">-Repositories()</text><text fill="#000000" font-family="sans-serif" font-size="14" lengthAdjust="spacing" textLength="182" x="225.5" y="343.8145">+getInstance() : Repositories</text><text fill="#000000" font-family="sans-serif" font-size="14" lengthAdjust="spacing" textLength="140" x="225.5" y="359.4551">+getStoreRepository()</text><text fill="#000000" font-family="sans-serif" font-size="14" lengthAdjust="spacing" textLength="139" x="225.5" y="375.0957">+getStateRepository()</text><text fill="#000000" font-family="sans-serif" font-size="14" lengthAdjust="spacing" textLength="149" x="225.5" y="390.7363">+getDistrictRepository()</text><text fill="#000000" font-family="sans-serif" font-size="14" lengthAdjust="spacing" textLength="130" x="225.5" y="406.377">+getCityRepository()</text></g><!--class RegisterStoreController--><g id="elem_RegisterStoreController"><rect codeLine="84" fill="#F1F1F1" height="173.125" id="RegisterStoreController" rx="2.5" ry="2.5" style="stroke:#181818;stroke-width:0.5;" width="652" x="446.5" y="7"/><ellipse cx="693.75" cy="23" fill="#ADD1B2" rx="11" ry="11" style="stroke:#181818;stroke-width:1.0;"/><path d="M695.75,19.5 Q695.9531,19 696.1875,18.75 Q696.4219,18.5 696.6875,18.5 Q697.1563,18.5 697.4531,18.7813 Q697.75,19.0625 697.75,19.7188 L697.75,21.2813 Q697.75,21.9375 697.4688,22.2188 Q697.1875,22.5 696.75,22.5 Q696.3594,22.5 696.1094,22.3281 Q695.8594,22.1563 695.75,21.7031 Q695.7031,21.3906 695.5313,21.2188 Q695.2188,20.8906 694.6563,20.7031 Q694.0938,20.5 693.5313,20.5 Q692.8281,20.5 692.2344,20.7813 Q691.6563,21.0625 691.2031,21.6875 Q690.75,22.3125 690.75,23.1719 L690.75,24.0938 Q690.75,25.125 691.5938,25.8125 Q692.4375,26.5 693.9375,26.5 Q694.8281,26.5 695.4531,26.2969 Q695.8125,26.1875 696.2188,25.8281 Q696.4844,25.625 696.625,25.5625 Q696.7656,25.5 696.9375,25.5 Q697.2656,25.5 697.5,25.7656 Q697.75,26.0156 697.75,26.375 Q697.75,26.7188 697.4063,27.125 Q696.9063,27.7188 696.1094,28.0469 Q695.0625,28.5 693.7813,28.5 Q692.2813,28.5 691.0781,27.9063 Q690.1094,27.4375 689.4219,26.4219 Q688.75,25.4063 688.75,24.2031 L688.75,23.1094 Q688.75,21.8594 689.3438,20.7656 Q689.9531,19.6719 691,19.0938 Q692.0625,18.5 693.25,18.5 Q693.9688,18.5 694.5938,18.75 Q695.2188,19 695.75,19.5 Z " fill="#000000"/><text fill="#000000" font-family="sans-serif" font-size="14" lengthAdjust="spacing" textLength="149" x="714.25" y="27.8535">RegisterStoreController</text><line style="stroke:#181818;stroke-width:0.5;" x1="447.5" x2="1097.5" y1="39" y2="39"/><line style="stroke:#181818;stroke-width:0.5;" x1="447.5" x2="1097.5" y1="47" y2="47"/><text fill="#000000" font-family="sans-serif" font-size="14" lengthAdjust="spacing" textLength="312" x="452.5" y="63.6738">+RegisterStoreController(organizationRepository)</text><text fill="#000000" font-family="sans-serif" font-size="14" lengthAdjust="spacing" textLength="163" x="452.5" y="79.3145">+getStores() : List&lt;Store&gt;</text><text fill="#000000" font-family="sans-serif" font-size="14" lengthAdjust="spacing" textLength="422" x="452.5" y="94.9551">+createStore(ID, designation, emailAddress, phoneNumber) : Store</text><text fill="#000000" font-family="sans-serif" font-size="14" lengthAdjust="spacing" textLength="481" x="452.5" y="110.5957">+createStore(ID, designation, address, emailAddress, phoneNumber) : Store</text><text fill="#000000" font-family="sans-serif" font-size="14" lengthAdjust="spacing" textLength="242" x="452.5" y="126.2363">+registerStore(store) : void or boolean</text><text fill="#000000" font-family="sans-serif" font-size="14" lengthAdjust="spacing" textLength="294" x="452.5" y="141.877">+registerAddressAtStore(store, address) : void</text><text fill="#000000" font-family="sans-serif" font-size="14" lengthAdjust="spacing" textLength="640" x="452.5" y="157.5176">-createStoreAddress(streetAddress, doorNumber, floorNumber, zipCode, state, district, city) : Address</text><text fill="#000000" font-family="sans-serif" font-size="14" lengthAdjust="spacing" textLength="247" x="452.5" y="173.1582">-getSystemAdministratorFromSession()</text></g><!--class RegisterStoreUI--><g id="elem_RegisterStoreUI"><rect codeLine="95" fill="#F1F1F1" height="48" id="RegisterStoreUI" rx="2.5" ry="2.5" style="stroke:#181818;stroke-width:0.5;" width="131" x="280" y="69.5"/><ellipse cx="295" cy="85.5" fill="#ADD1B2" rx="11" ry="11" style="stroke:#181818;stroke-width:1.0;"/><path d="M297,82 Q297.2031,81.5 297.4375,81.25 Q297.6719,81 297.9375,81 Q298.4063,81 298.7031,81.2813 Q299,81.5625 299,82.2188 L299,83.7813 Q299,84.4375 298.7188,84.7188 Q298.4375,85 298,85 Q297.6094,85 297.3594,84.8281 Q297.1094,84.6563 297,84.2031 Q296.9531,83.8906 296.7813,83.7188 Q296.4688,83.3906 295.9063,83.2031 Q295.3438,83 294.7813,83 Q294.0781,83 293.4844,83.2813 Q292.9063,83.5625 292.4531,84.1875 Q292,84.8125 292,85.6719 L292,86.5938 Q292,87.625 292.8438,88.3125 Q293.6875,89 295.1875,89 Q296.0781,89 296.7031,88.7969 Q297.0625,88.6875 297.4688,88.3281 Q297.7344,88.125 297.875,88.0625 Q298.0156,88 298.1875,88 Q298.5156,88 298.75,88.2656 Q299,88.5156 299,88.875 Q299,89.2188 298.6563,89.625 Q298.1563,90.2188 297.3594,90.5469 Q296.3125,91 295.0313,91 Q293.5313,91 292.3281,90.4063 Q291.3594,89.9375 290.6719,88.9219 Q290,87.9063 290,86.7031 L290,85.6094 Q290,84.3594 290.5938,83.2656 Q291.2031,82.1719 292.25,81.5938 Q293.3125,81 294.5,81 Q295.2188,81 295.8438,81.25 Q296.4688,81.5 297,82 Z " fill="#000000"/><text fill="#000000" font-family="sans-serif" font-size="14" lengthAdjust="spacing" textLength="99" x="309" y="90.3535">RegisterStoreUI</text><line style="stroke:#181818;stroke-width:0.5;" x1="281" x2="410" y1="101.5" y2="101.5"/><line style="stroke:#181818;stroke-width:0.5;" x1="281" x2="410" y1="109.5" y2="109.5"/></g><!--class OrganizationRepository--><g id="elem_OrganizationRepository"><rect fill="#F1F1F1" height="48" id="OrganizationRepository" rx="2.5" ry="2.5" style="stroke:#181818;stroke-width:0.5;" width="180" x="997.5" y="567.5"/><ellipse cx="1012.5" cy="583.5" fill="#ADD1B2" rx="11" ry="11" style="stroke:#181818;stroke-width:1.0;"/><path d="M1014.5,580 Q1014.7031,579.5 1014.9375,579.25 Q1015.1719,579 1015.4375,579 Q1015.9063,579 1016.2031,579.2813 Q1016.5,579.5625 1016.5,580.2188 L1016.5,581.7813 Q1016.5,582.4375 1016.2188,582.7188 Q1015.9375,583 1015.5,583 Q1015.1094,583 1014.8594,582.8281 Q1014.6094,582.6563 1014.5,582.2031 Q1014.4531,581.8906 1014.2813,581.7188 Q1013.9688,581.3906 1013.4063,581.2031 Q1012.8438,581 1012.2813,581 Q1011.5781,581 1010.9844,581.2813 Q1010.4063,581.5625 1009.9531,582.1875 Q1009.5,582.8125 1009.5,583.6719 L1009.5,584.5938 Q1009.5,585.625 1010.3438,586.3125 Q1011.1875,587 1012.6875,587 Q1013.5781,587 1014.2031,586.7969 Q1014.5625,586.6875 1014.9688,586.3281 Q1015.2344,586.125 1015.375,586.0625 Q1015.5156,586 1015.6875,586 Q1016.0156,586 1016.25,586.2656 Q1016.5,586.5156 1016.5,586.875 Q1016.5,587.2188 1016.1563,587.625 Q1015.6563,588.2188 1014.8594,588.5469 Q1013.8125,589 1012.5313,589 Q1011.0313,589 1009.8281,588.4063 Q1008.8594,587.9375 1008.1719,586.9219 Q1007.5,585.9063 1007.5,584.7031 L1007.5,583.6094 Q1007.5,582.3594 1008.0938,581.2656 Q1008.7031,580.1719 1009.75,579.5938 Q1010.8125,579 1012,579 Q1012.7188,579 1013.3438,579.25 Q1013.9688,579.5 1014.5,580 Z " fill="#000000"/><text fill="#000000" font-family="sans-serif" font-size="14" lengthAdjust="spacing" textLength="148" x="1026.5" y="588.3535">OrganizationRepository</text><line style="stroke:#181818;stroke-width:0.5;" x1="998.5" x2="1176.5" y1="599.5" y2="599.5"/><line style="stroke:#181818;stroke-width:0.5;" x1="998.5" x2="1176.5" y1="607.5" y2="607.5"/></g><!--link Repositories to Repositories--><g id="link_Repositories_Repositories"><path codeLine="98" d="M413.78,320.07 C433.98,322.43 448.5,329.91 448.5,342.5 C448.5,354.01 436.37,361.25 418.86,364.21 " fill="none" id="Repositories-to-Repositories" style="stroke:#181818;stroke-width:1.0;"/><polygon fill="#181818" points="413.78,364.93,423.2596,367.6017,418.7286,364.2149,422.1154,359.6839,413.78,364.93" style="stroke:#181818;stroke-width:1.0;"/><text fill="#000000" font-family="sans-serif" font-size="13" lengthAdjust="spacing" textLength="49" x="454.5" y="347.2686">instance</text></g><!--link RegisterStoreUI to RegisterStoreController--><g id="link_RegisterStoreUI_RegisterStoreController"><path codeLine="101" d="M411.25,93.5 C421.33,93.5 431.55,93.5 441.11,93.5 " fill="none" id="RegisterStoreUI-to-RegisterStoreController" style="stroke:#181818;stroke-width:1.0;stroke-dasharray:7.0,7.0;"/><polygon fill="#181818" points="446.34,93.5,437.34,89.5,441.34,93.5,437.34,97.5,446.34,93.5" style="stroke:#181818;stroke-width:1.0;"/></g><!--link RegisterStoreController to Repositories--><g id="link_RegisterStoreController_Repositories"><path codeLine="103" d="M614.61,180.02 C549.53,215.28 476,255.1 418.26,286.38 " fill="none" id="RegisterStoreController-to-Repositories" style="stroke:#181818;stroke-width:1.0;stroke-dasharray:7.0,7.0;"/><polygon fill="#181818" points="413.78,288.81,423.5984,288.0365,418.1755,286.4267,419.7852,281.0038,413.78,288.81" style="stroke:#181818;stroke-width:1.0;"/><text fill="#000000" font-family="sans-serif" font-size="13" lengthAdjust="spacing" textLength="67" x="559.5" y="222.7686">repositories</text></g><!--link Repositories to StoreRepository--><g id="link_Repositories_StoreRepository"><path codeLine="105" d="M413.62,342.5 C443.41,342.5 468.5,342.5 468.5,342.5 C468.5,342.5 492.9,342.5 522.15,342.5 " fill="none" id="Repositories-to-StoreRepository" style="stroke:#181818;stroke-width:1.0;"/><polygon fill="#181818" points="527.27,342.5,518.27,338.5,522.27,342.5,518.27,346.5,527.27,342.5" style="stroke:#181818;stroke-width:1.0;"/><text fill="#000000" font-family="sans-serif" font-size="13" lengthAdjust="spacing" textLength="7" x="512.8858" y="340.0667">1</text></g><!--link Repositories to StateRepository--><g id="link_Repositories_StateRepository"><path codeLine="106" d="M272.75,413.68 C257.67,437.87 244.5,459 244.5,459 C244.5,459 228.5,505 228.5,505 C228.5,505 159.82,864.53 137.45,981.62 " fill="none" id="Repositories-to-StateRepository" style="stroke:#181818;stroke-width:1.0;"/><polygon fill="#181818" points="136.48,986.68,142.1042,978.5949,137.4221,981.7696,134.2475,977.0875,136.48,986.68" style="stroke:#181818;stroke-width:1.0;"/><text fill="#000000" font-family="sans-serif" font-size="13" lengthAdjust="spacing" textLength="7" x="129.9915" y="976.4298">1</text></g><!--link Repositories to DistrictRepository--><g id="link_Repositories_DistrictRepository"><path codeLine="107" d="M413.78,386.78 C521.3,434.62 679.5,505 679.5,505 C679.5,505 701.23,864.53 708.3,981.62 " fill="none" id="Repositories-to-DistrictRepository" style="stroke:#181818;stroke-width:1.0;"/><polygon fill="#181818" points="708.61,986.68,712.0622,977.456,708.3097,981.689,704.0767,977.9365,708.61,986.68" style="stroke:#181818;stroke-width:1.0;"/><text fill="#000000" font-family="sans-serif" font-size="13" lengthAdjust="spacing" textLength="7" x="700.4983" y="976.4298">1</text></g><!--link Repositories to CityRepository--><g id="link_Repositories_CityRepository"><path codeLine="108" d="M282.08,413.87 C260.79,457.39 237.5,505 237.5,505 C237.5,505 234.5,941 234.5,941 C234.5,941 234.5,957 234.5,957 C234.5,957 276.1,970.87 319.63,985.38 " fill="none" id="Repositories-to-CityRepository" style="stroke:#181818;stroke-width:1.0;"/><polygon fill="#181818" points="324.39,986.96,317.1228,980.3126,319.648,985.3746,314.5861,987.8998,324.39,986.96" style="stroke:#181818;stroke-width:1.0;"/><text fill="#000000" font-family="sans-serif" font-size="13" lengthAdjust="spacing" textLength="7" x="296.2566" y="976.2851">1</text></g><!--link RegisterStoreController to Store--><g id="link_RegisterStoreController_Store"><path codeLine="110" d="M469.86,180.1 C333.05,218.79 201.5,256 201.5,256 C201.5,256 201.5,429 201.5,429 C201.5,429 257.85,464.41 317.78,502.07 " fill="none" id="RegisterStoreController-to-Store" style="stroke:#181818;stroke-width:1.0;stroke-dasharray:7.0,7.0;"/><polygon fill="#181818" points="322.1,504.78,316.6152,496.5997,317.8688,502.1159,312.3527,503.3696,322.1,504.78" style="stroke:#181818;stroke-width:1.0;"/></g><!--link RegisterStoreController to OrganizationRepository--><g id="link_RegisterStoreController_OrganizationRepository"><path codeLine="111" d="M911.56,180.22 C974.26,218.87 1034.5,256 1034.5,256 C1034.5,256 1070.21,481.38 1083.01,562.14 " fill="none" id="RegisterStoreController-to-OrganizationRepository" style="stroke:#181818;stroke-width:1.0;stroke-dasharray:7.0,7.0;"/><polygon fill="#181818" points="1083.82,567.24,1086.3575,557.7236,1083.0351,562.302,1078.4567,558.9796,1083.82,567.24" style="stroke:#181818;stroke-width:1.0;"/><text fill="#000000" font-family="sans-serif" font-size="13" lengthAdjust="spacing" textLength="132" x="1063.5" y="347.2686">organizationRepository</text></g><!--link RegisterStoreController to StoreRepository--><g id="link_RegisterStoreController_StoreRepository"><path codeLine="112" d="M772.5,180.2 C772.5,202.99 772.5,227.7 772.5,250.75 " fill="none" id="RegisterStoreController-to-StoreRepository" style="stroke:#181818;stroke-width:1.0;stroke-dasharray:7.0,7.0;"/><polygon fill="#181818" points="772.5,255.96,776.5,246.96,772.5,250.96,768.5,246.96,772.5,255.96" style="stroke:#181818;stroke-width:1.0;"/><text fill="#000000" font-family="sans-serif" font-size="13" lengthAdjust="spacing" textLength="93" x="773.5" y="222.7686">StoreRepository</text></g><!--link Repositories to OrganizationRepository--><g id="link_Repositories_OrganizationRepository"><path codeLine="114" d="M413.57,386.5 C461.63,407.79 509.5,429 509.5,429 C509.5,429 734.5,459 734.5,459 C734.5,459 918.48,527.54 1020.8,565.65 " fill="none" id="Repositories-to-OrganizationRepository" style="stroke:#181818;stroke-width:1.0;"/><polygon fill="#181818" points="1025.61,567.44,1018.5691,560.5534,1020.9237,565.6969,1015.7801,568.0515,1025.61,567.44" style="stroke:#181818;stroke-width:1.0;"/><text fill="#000000" font-family="sans-serif" font-size="13" lengthAdjust="spacing" textLength="7" x="1001.0364" y="556.9315">1</text></g><!--link OrganizationRepository to Organization--><g id="link_OrganizationRepository_Organization"><path codeLine="116" d="M1096.68,615.85 C1111.54,653.63 1141.2,729.04 1161.2,779.9 " fill="none" id="OrganizationRepository-to-Organization" style="stroke:#181818;stroke-width:1.0;"/><polygon fill="#181818" points="1163.11,784.74,1163.544,774.9007,1161.2826,780.0859,1156.0974,777.8245,1163.11,784.74" style="stroke:#181818;stroke-width:1.0;"/><text fill="#000000" font-family="sans-serif" font-size="13" lengthAdjust="spacing" textLength="5" x="1154.9112" y="774.1695">*</text></g><!--link RegisterStoreController to Organization--><g id="link_RegisterStoreController_Organization"><path codeLine="118" d="M1001.47,180.1 C1104.98,218.79 1204.5,256 1204.5,256 C1204.5,256 1204.5,429 1204.5,429 C1204.5,429 1195.5,678 1195.5,678 C1195.5,678 1190.3,734.99 1186.24,779.52 " fill="none" id="RegisterStoreController-to-Organization" style="stroke:#181818;stroke-width:1.0;stroke-dasharray:7.0,7.0;"/><polygon fill="#181818" points="1185.78,784.61,1190.5873,776.0141,1186.2378,779.631,1182.6209,775.2815,1185.78,784.61" style="stroke:#181818;stroke-width:1.0;"/><text fill="#000000" font-family="sans-serif" font-size="13" lengthAdjust="spacing" textLength="70" x="1203.5" y="471.7686">organization</text><text fill="#000000" font-family="sans-serif" font-size="13" lengthAdjust="spacing" textLength="7" x="1178.8946" y="774.3608">1</text></g><!--link StoreRepository to Store--><g id="link_StoreRepository_Store"><path codeLine="120" d="M663.56,429.2 C633.72,452.66 601.33,478.15 571.28,501.78 " fill="none" id="StoreRepository-to-Store" style="stroke:#181818;stroke-width:1.0;"/><polygon fill="#181818" points="567.25,504.96,576.7985,502.5464,571.1821,501.8715,571.857,496.2551,567.25,504.96" style="stroke:#181818;stroke-width:1.0;"/><text fill="#000000" font-family="sans-serif" font-size="13" lengthAdjust="spacing" textLength="29" x="626.5" y="471.7686">store</text><text fill="#000000" font-family="sans-serif" font-size="13" lengthAdjust="spacing" textLength="7" x="646.8972" y="449.038">1</text><text fill="#000000" font-family="sans-serif" font-size="13" lengthAdjust="spacing" textLength="5" x="572.0449" y="494.1237">*</text></g><!--link StateRepository to State--><g id="link_StateRepository_State"><path codeLine="121" d="M130.5,1051.31 C130.5,1072.22 130.5,1099.79 130.5,1121.66 " fill="none" id="StateRepository-to-State" style="stroke:#181818;stroke-width:1.0;"/><polygon fill="#181818" points="130.5,1126.81,134.5,1117.81,130.5,1121.81,126.5,1117.81,130.5,1126.81" style="stroke:#181818;stroke-width:1.0;"/><text fill="#000000" font-family="sans-serif" font-size="13" lengthAdjust="spacing" textLength="29" x="131.5" y="1093.7686">state</text><text fill="#000000" font-family="sans-serif" font-size="13" lengthAdjust="spacing" textLength="7" x="122.8547" y="1070.4077">1</text><text fill="#000000" font-family="sans-serif" font-size="13" lengthAdjust="spacing" textLength="5" x="124.9531" y="1116.1023">*</text></g><!--link DistrictRepository to District--><g id="link_DistrictRepository_District"><path codeLine="122" d="M710.5,1051.31 C710.5,1072.22 710.5,1099.79 710.5,1121.66 " fill="none" id="DistrictRepository-to-District" style="stroke:#181818;stroke-width:1.0;"/><polygon fill="#181818" points="710.5,1126.81,714.5,1117.81,710.5,1121.81,706.5,1117.81,710.5,1126.81" style="stroke:#181818;stroke-width:1.0;"/><text fill="#000000" font-family="sans-serif" font-size="13" lengthAdjust="spacing" textLength="39" x="711.5" y="1093.7686">district</text><text fill="#000000" font-family="sans-serif" font-size="13" lengthAdjust="spacing" textLength="7" x="702.8547" y="1070.4077">1</text><text fill="#000000" font-family="sans-serif" font-size="13" lengthAdjust="spacing" textLength="5" x="704.9531" y="1116.1023">*</text></g><!--link CityRepository to City--><g id="link_CityRepository_City"><path codeLine="123" d="M417.5,1051.31 C417.5,1072.22 417.5,1099.79 417.5,1121.66 " fill="none" id="CityRepository-to-City" style="stroke:#181818;stroke-width:1.0;"/><polygon fill="#181818" points="417.5,1126.81,421.5,1117.81,417.5,1121.81,413.5,1117.81,417.5,1126.81" style="stroke:#181818;stroke-width:1.0;"/><text fill="#000000" font-family="sans-serif" font-size="13" lengthAdjust="spacing" textLength="21" x="418.5" y="1093.7686">city</text><text fill="#000000" font-family="sans-serif" font-size="13" lengthAdjust="spacing" textLength="7" x="409.8547" y="1070.4077">1</text><text fill="#000000" font-family="sans-serif" font-size="13" lengthAdjust="spacing" textLength="5" x="411.9531" y="1116.1023">*</text></g><!--link Store to Address--><g id="link_Store_Address"><path codeLine="125" d="M454.2,678.11 C453.05,701.02 451.81,725.75 450.67,748.51 " fill="none" id="Store-to-Address" style="stroke:#181818;stroke-width:1.0;"/><polygon fill="#181818" points="450.41,753.65,454.867,744.8673,450.6668,748.6566,446.8775,744.4564,450.41,753.65" style="stroke:#181818;stroke-width:1.0;"/><text fill="#000000" font-family="sans-serif" font-size="13" lengthAdjust="spacing" textLength="46" x="453.5" y="720.7686">address</text></g><!--link Address to StateRepository--><g id="link_Address_StateRepository"><path codeLine="126" d="M373.21,876.29 C316.82,909.22 239.98,954.08 187.98,984.44 " fill="none" id="Address-to-StateRepository" style="stroke:#181818;stroke-width:1.0;"/><polygon fill="#181818" points="183.66,986.96,193.4473,985.8601,187.9737,984.4318,189.4021,978.9582,183.66,986.96" style="stroke:#181818;stroke-width:1.0;"/><text fill="#000000" font-family="sans-serif" font-size="13" lengthAdjust="spacing" textLength="58" x="261.5" y="953.7686">state from</text></g><!--link Address to DistrictRepository--><g id="link_Address_DistrictRepository"><path codeLine="127" d="M519.62,885.7 C566.83,919.4 619.5,957 619.5,957 C619.5,957 639.03,970.09 659.99,984.14 " fill="none" id="Address-to-DistrictRepository" style="stroke:#181818;stroke-width:1.0;"/><polygon fill="#181818" points="664.2,986.96,658.9634,978.6187,660.0508,984.17,654.4994,985.2574,664.2,986.96" style="stroke:#181818;stroke-width:1.0;"/><text fill="#000000" font-family="sans-serif" font-size="13" lengthAdjust="spacing" textLength="68" x="620.5" y="953.7686">district from</text></g><!--link Address to CityRepository--><g id="link_Address_CityRepository"><path codeLine="128" d="M434.29,911.21 C430.43,935.72 426.36,961.64 423.19,981.8 " fill="none" id="Address-to-CityRepository" style="stroke:#181818;stroke-width:1.0;"/><polygon fill="#181818" points="422.4,986.8,427.74,978.5245,423.171,981.8598,419.8357,977.2908,422.4,986.8" style="stroke:#181818;stroke-width:1.0;"/><text fill="#000000" font-family="sans-serif" font-size="13" lengthAdjust="spacing" textLength="50" x="430.5" y="953.7686">city from</text></g><!--SRC=[hLPVRziW47_dKw2-n5xTQdkDfaffqacHfdPQjWz0RUAWs11XsisjzjrtWB41E-ucDG-EpVtkTyVzuLWqHyPFH98QruAB_215JR6IJnGDaXF9ZwIaEzLM54kQAyBBoWSq1rA8NuoNU4-gnfTKZ5FLdYW-YQhL7sWn8HHI2UHfvHLfcfLIaZq-ARhD1T-n5ue_8hIew5vX9R1avK7XWcbtcE086HsyAWf9uVyLOVXTxO02l6gKf5HrCYjX7BI5aFTFzIELmzg-wXTnmF72JcjHKBksPgh5EJpivuQ11PPhV-oBqoIAWd5ueZ_EGwqQUiT9xSaTrnp64Cy3XAGk2BY3R3VXTq4RLd9YmcS5GOGSZDQ4LPEIqq5msWNGI2wjuMIxoNps31EhdWLacK-GpXEygTVq-KqwO-aGZWTP4ivU35SS5HCukv8VQ7xSxeqBTxyX3qtIwFSKB_6Z41KblBFc4oQQ8KKBM6_8C_r1ccEYu956wVXEJw9XyDRsBdm56v-Dy0ORIox09LLckKcqRGyMoM_RxGQ2fK7cUoJ-DaGgyQDsLk5E1penuOv1afRW29KsHPEHWHXA2hNvtrcCJCso_4CnzNHXommfUEqIQJOEajls7hAOc5xLRvOXQ5pNc9CaJjZnk7F0KJbnU0oCAi9GQKb7eqyOHw6N1_LUbT7-i0iMatHWt7BO5y-fAIOVv0SXg51VEugSBng7n9U6MqnIttklajQ2Aocg2WvS5uKpyaHuRJSmfz4sfflcybrAy_BzIjFIdMcgPy4A68lHiUF07V5AULgzSQS-RYLtG0RZCFF6OEQFlyoDlCoEiAoVRfaPVTfEE1Pq0bhmhruLDUCQJC3i5xXIx02aZyfpDV1p2xa7KL3MLpTXcIynwmePQMIeVdrphceYh5TkroC3qc-EaJSNdoxYe_mC9kYOISouTIPXOG_DR0NsOijg3l4msJ-mx-d6UjjQG1A79jfGjwDf7n0wuvjH-n2gpOSXDX9j3otivKYJEf_qp5v3pagx4ULzedYV6k-SianBExjHbFO8gQ-2o-uoE4v-0EwlaylXGXdD2nzkBgDBUnsrxXgHkmeltS60t8gMnivshk4zT6i0dF1rS6iCZ_oqRbdONm00]--></g></svg>