<?xml version="1.0" encoding="us-ascii" standalone="no"?><svg xmlns="http://www.w3.org/2000/svg" xmlns:xlink="http://www.w3.org/1999/xlink" contentStyleType="text/css" height="466.65px" preserveAspectRatio="none" style="width:857px;height:466px;background:#FFFFFF;" version="1.1" viewBox="0 0 857 466" width="857.05px" zoomAndPan="magnify"><defs/><g><rect fill="#FFFFFF" height="356.5974" style="stroke:#181818;stroke-width:0.61;" width="6.1" x="43.31" y="55.2908"/><rect fill="#FFFFFF" height="334.9281" style="stroke:#181818;stroke-width:0.61;" width="6.1" x="267.79" y="67.8101"/><rect fill="#FFFFFF" height="121.7951" style="stroke:#181818;stroke-width:0.61;" width="6.1" x="378.81" y="110.0002"/><rect fill="#FFFFFF" height="17.3993" style="stroke:#181818;stroke-width:0.61;" width="6.1" x="378.81" y="249.1945"/><rect fill="#FFFFFF" height="52.1979" style="stroke:#181818;stroke-width:0.61;" width="6.1" x="378.81" y="298.3424"/><rect fill="#FFFFFF" height="17.3993" style="stroke:#181818;stroke-width:0.61;" width="6.1" x="378.81" y="367.9396"/><rect fill="#FFFFFF" height="17.3993" style="stroke:#181818;stroke-width:0.61;" width="6.1" x="466.65" y="127.3995"/><rect fill="#FFFFFF" height="17.3993" style="stroke:#181818;stroke-width:0.61;" width="6.1" x="555.71" y="162.198"/><rect fill="#FFFFFF" height="17.3993" style="stroke:#181818;stroke-width:0.61;" width="6.1" x="651.785" y="196.9966"/><rect fill="#FFFFFF" height="17.3993" style="stroke:#181818;stroke-width:0.61;" width="6.1" x="799.405" y="315.7417"/><rect fill="none" height="131.8744" style="stroke:#000000;stroke-width:0.915;" width="847.595" x="6.1" y="275.7438"/><line style="stroke:#181818;stroke-width:0.305;stroke-dasharray:5.0,5.0;" x1="46.36" x2="46.36" y1="49.1908" y2="417.9882"/><line style="stroke:#181818;stroke-width:0.305;stroke-dasharray:5.0,5.0;" x1="270.535" x2="270.535" y1="49.1908" y2="417.9882"/><line style="stroke:#181818;stroke-width:0.305;stroke-dasharray:5.0,5.0;" x1="381.555" x2="381.555" y1="91.1855" y2="417.9882"/><line style="stroke:#181818;stroke-width:0.305;stroke-dasharray:5.0,5.0;" x1="469.395" x2="469.395" y1="49.1908" y2="417.9882"/><line style="stroke:#181818;stroke-width:0.305;stroke-dasharray:5.0,5.0;" x1="558.455" x2="558.455" y1="49.1908" y2="417.9882"/><line style="stroke:#181818;stroke-width:0.305;stroke-dasharray:5.0,5.0;" x1="654.835" x2="654.835" y1="49.1908" y2="417.9882"/><line style="stroke:#181818;stroke-width:0.305;stroke-dasharray:5.0,5.0;" x1="724.375" x2="724.375" y1="49.1908" y2="417.9882"/><line style="stroke:#181818;stroke-width:0.305;stroke-dasharray:5.0,5.0;" x1="802.455" x2="802.455" y1="49.1908" y2="417.9882"/><text fill="#000000" font-family="sans-serif" font-size="8.54" lengthAdjust="spacing" textLength="64.66" x="12.2" y="47.381">NetworkManager</text><ellipse cx="46.36" cy="8.235" fill="#E2E2F0" rx="4.88" ry="4.88" style="stroke:#181818;stroke-width:0.305;"/><path d="M46.36,13.115 L46.36,29.585 M38.43,17.995 L54.29,17.995 M46.36,29.585 L38.43,38.735 M46.36,29.585 L54.29,38.735 " fill="none" style="stroke:#181818;stroke-width:0.305;"/><text fill="#000000" font-family="sans-serif" font-size="8.54" lengthAdjust="spacing" textLength="64.66" x="12.2" y="425.1092">NetworkManager</text><ellipse cx="46.36" cy="432.104" fill="#E2E2F0" rx="4.88" ry="4.88" style="stroke:#181818;stroke-width:0.305;"/><path d="M46.36,436.984 L46.36,453.454 M38.43,441.864 L54.29,441.864 M46.36,453.454 L38.43,462.604 M46.36,453.454 L54.29,462.604 " fill="none" style="stroke:#181818;stroke-width:0.305;"/><rect fill="#E2E2F0" height="18.0808" rx="1.525" ry="1.525" style="stroke:#181818;stroke-width:0.305;" width="73.81" x="233.935" y="30.5"/><text fill="#000000" font-family="sans-serif" font-size="8.54" lengthAdjust="spacing" textLength="65.27" x="238.205" y="42.501">:ListEmployeesUI</text><rect fill="#E2E2F0" height="18.0808" rx="1.525" ry="1.525" style="stroke:#181818;stroke-width:0.305;" width="73.81" x="233.935" y="417.3782"/><text fill="#000000" font-family="sans-serif" font-size="8.54" lengthAdjust="spacing" textLength="65.27" x="238.205" y="429.3792">:ListEmployeesUI</text><rect fill="#E2E2F0" height="18.0808" rx="1.525" ry="1.525" style="stroke:#181818;stroke-width:0.305;" width="104.31" x="329.705" y="417.3782"/><text fill="#000000" font-family="sans-serif" font-size="8.54" lengthAdjust="spacing" textLength="95.77" x="333.975" y="429.3792">:ListEmployeesController</text><rect fill="#E2E2F0" height="18.0808" rx="1.525" ry="1.525" style="stroke:#181818;stroke-width:0.305;" width="59.17" x="440.115" y="30.5"/><text fill="#000000" font-family="sans-serif" font-size="8.54" lengthAdjust="spacing" textLength="50.63" x="444.385" y="42.501">:Repositories</text><rect fill="#E2E2F0" height="18.0808" rx="1.525" ry="1.525" style="stroke:#181818;stroke-width:0.305;" width="59.17" x="440.115" y="417.3782"/><text fill="#000000" font-family="sans-serif" font-size="8.54" lengthAdjust="spacing" textLength="50.63" x="444.385" y="429.3792">:Repositories</text><rect fill="#E2E2F0" height="18.0808" rx="1.525" ry="1.525" style="stroke:#181818;stroke-width:0.305;" width="106.75" x="505.385" y="30.5"/><text fill="#000000" font-family="sans-serif" font-size="8.54" lengthAdjust="spacing" textLength="98.21" x="509.655" y="42.501">repositories :Repositories</text><rect fill="#E2E2F0" height="18.0808" rx="1.525" ry="1.525" style="stroke:#181818;stroke-width:0.305;" width="106.75" x="505.385" y="417.3782"/><text fill="#000000" font-family="sans-serif" font-size="8.54" lengthAdjust="spacing" textLength="98.21" x="509.655" y="429.3792">repositories :Repositories</text><rect fill="#E2E2F0" height="18.0808" rx="1.525" ry="1.525" style="stroke:#181818;stroke-width:0.305;" width="73.2" x="618.235" y="30.5"/><text fill="#000000" font-family="sans-serif" font-size="8.54" lengthAdjust="spacing" textLength="64.66" x="622.505" y="42.501">:StoreRepository</text><rect fill="#E2E2F0" height="18.0808" rx="1.525" ry="1.525" style="stroke:#181818;stroke-width:0.305;" width="73.2" x="618.235" y="417.3782"/><text fill="#000000" font-family="sans-serif" font-size="8.54" lengthAdjust="spacing" textLength="64.66" x="622.505" y="429.3792">:StoreRepository</text><rect fill="#E2E2F0" height="18.0808" rx="1.525" ry="1.525" style="stroke:#181818;stroke-width:0.305;" width="53.68" x="697.535" y="30.5"/><text fill="#000000" font-family="sans-serif" font-size="8.54" lengthAdjust="spacing" textLength="45.14" x="701.805" y="42.501">store :Store</text><rect fill="#E2E2F0" height="18.0808" rx="1.525" ry="1.525" style="stroke:#181818;stroke-width:0.305;" width="53.68" x="697.535" y="417.3782"/><text fill="#000000" font-family="sans-serif" font-size="8.54" lengthAdjust="spacing" textLength="45.14" x="701.805" y="429.3792">store :Store</text><rect fill="#E2E2F0" height="18.0808" rx="1.525" ry="1.525" style="stroke:#181818;stroke-width:0.305;" width="90.28" x="757.315" y="30.5"/><text fill="#000000" font-family="sans-serif" font-size="8.54" lengthAdjust="spacing" textLength="81.74" x="761.585" y="42.501">:EmployeeRepository</text><rect fill="#E2E2F0" height="18.0808" rx="1.525" ry="1.525" style="stroke:#181818;stroke-width:0.305;" width="90.28" x="757.315" y="417.3782"/><text fill="#000000" font-family="sans-serif" font-size="8.54" lengthAdjust="spacing" textLength="81.74" x="761.585" y="429.3792">:EmployeeRepository</text><rect fill="#FFFFFF" height="356.5974" style="stroke:#181818;stroke-width:0.61;" width="6.1" x="43.31" y="55.2908"/><rect fill="#FFFFFF" height="334.9281" style="stroke:#181818;stroke-width:0.61;" width="6.1" x="267.79" y="67.8101"/><rect fill="#FFFFFF" height="121.7951" style="stroke:#181818;stroke-width:0.61;" width="6.1" x="378.81" y="110.0002"/><rect fill="#FFFFFF" height="17.3993" style="stroke:#181818;stroke-width:0.61;" width="6.1" x="378.81" y="249.1945"/><rect fill="#FFFFFF" height="52.1979" style="stroke:#181818;stroke-width:0.61;" width="6.1" x="378.81" y="298.3424"/><rect fill="#FFFFFF" height="17.3993" style="stroke:#181818;stroke-width:0.61;" width="6.1" x="378.81" y="367.9396"/><rect fill="#FFFFFF" height="17.3993" style="stroke:#181818;stroke-width:0.61;" width="6.1" x="466.65" y="127.3995"/><rect fill="#FFFFFF" height="17.3993" style="stroke:#181818;stroke-width:0.61;" width="6.1" x="555.71" y="162.198"/><rect fill="#FFFFFF" height="17.3993" style="stroke:#181818;stroke-width:0.61;" width="6.1" x="651.785" y="196.9966"/><rect fill="#FFFFFF" height="17.3993" style="stroke:#181818;stroke-width:0.61;" width="6.1" x="799.405" y="315.7417"/><polygon fill="#181818" points="260.47,65.3701,266.57,67.8101,260.47,70.2501,262.91,67.8101" style="stroke:#181818;stroke-width:0.61;"/><line style="stroke:#181818;stroke-width:0.61;" x1="49.41" x2="264.13" y1="67.8101" y2="67.8101"/><text fill="#000000" font-family="sans-serif" font-size="7.93" font-weight="bold" lengthAdjust="spacing" textLength="4.27" x="53.68" y="64.9096">1</text><text fill="#000000" font-family="sans-serif" font-size="7.93" lengthAdjust="spacing" textLength="179.34" x="60.39" y="64.9096">asks to list all Employees working in every Agency</text><polygon fill="#181818" points="322.385,82.7694,328.485,85.2094,322.385,87.6494,324.825,85.2094" style="stroke:#181818;stroke-width:0.61;"/><line style="stroke:#181818;stroke-width:0.61;" x1="273.89" x2="326.045" y1="85.2094" y2="85.2094"/><text fill="#000000" font-family="sans-serif" font-size="7.93" font-weight="bold" lengthAdjust="spacing" textLength="4.27" x="278.16" y="82.3089">2</text><text fill="#000000" font-family="sans-serif" font-size="7.93" lengthAdjust="spacing" textLength="21.96" x="284.87" y="82.3089">create</text><rect fill="#E2E2F0" height="18.0808" rx="1.525" ry="1.525" style="stroke:#181818;stroke-width:0.305;" width="104.31" x="329.705" y="72.6901"/><text fill="#000000" font-family="sans-serif" font-size="8.54" lengthAdjust="spacing" textLength="95.77" x="333.975" y="84.6911">:ListEmployeesController</text><polygon fill="#181818" points="371.49,107.5602,377.59,110.0002,371.49,112.4402,373.93,110.0002" style="stroke:#181818;stroke-width:0.61;"/><line style="stroke:#181818;stroke-width:0.61;" x1="273.89" x2="375.15" y1="110.0002" y2="110.0002"/><text fill="#000000" font-family="sans-serif" font-size="7.93" font-weight="bold" lengthAdjust="spacing" textLength="4.27" x="278.16" y="107.0997">3</text><text fill="#000000" font-family="sans-serif" font-size="7.93" lengthAdjust="spacing" textLength="48.19" x="284.87" y="107.0997">getAllStores()</text><polygon fill="#181818" points="459.33,124.9595,465.43,127.3995,459.33,129.8395,461.77,127.3995" style="stroke:#181818;stroke-width:0.61;"/><line style="stroke:#181818;stroke-width:0.61;" x1="384.91" x2="462.99" y1="127.3995" y2="127.3995"/><text fill="#000000" font-family="sans-serif" font-size="7.93" font-weight="bold" lengthAdjust="spacing" textLength="4.27" x="389.18" y="124.499">4</text><text fill="#000000" font-family="sans-serif" font-size="7.93" lengthAdjust="spacing" textLength="45.75" x="395.89" y="124.499">getInstance()</text><polygon fill="#181818" points="391.62,142.3588,385.52,144.7987,391.62,147.2388,389.18,144.7987" style="stroke:#181818;stroke-width:0.61;"/><line style="stroke:#181818;stroke-width:0.61;stroke-dasharray:2.0,2.0;" x1="387.96" x2="469.09" y1="144.7987" y2="144.7987"/><text fill="#000000" font-family="sans-serif" font-size="7.93" font-weight="bold" lengthAdjust="spacing" textLength="4.27" x="395.28" y="141.8983">5</text><text fill="#000000" font-family="sans-serif" font-size="7.93" lengthAdjust="spacing" textLength="40.87" x="401.99" y="141.8983">repositories</text><polygon fill="#181818" points="548.39,159.758,554.49,162.198,548.39,164.638,550.83,162.198" style="stroke:#181818;stroke-width:0.61;"/><line style="stroke:#181818;stroke-width:0.61;" x1="384.91" x2="552.05" y1="162.198" y2="162.198"/><text fill="#000000" font-family="sans-serif" font-size="7.93" font-weight="bold" lengthAdjust="spacing" textLength="4.27" x="389.18" y="159.2976">6</text><text fill="#000000" font-family="sans-serif" font-size="7.93" lengthAdjust="spacing" textLength="72.59" x="395.89" y="159.2976">getStoreRepository()</text><polygon fill="#181818" points="391.62,177.1573,385.52,179.5973,391.62,182.0373,389.18,179.5973" style="stroke:#181818;stroke-width:0.61;"/><line style="stroke:#181818;stroke-width:0.61;stroke-dasharray:2.0,2.0;" x1="387.96" x2="558.15" y1="179.5973" y2="179.5973"/><text fill="#000000" font-family="sans-serif" font-size="7.93" font-weight="bold" lengthAdjust="spacing" textLength="4.27" x="395.28" y="176.6969">7</text><text fill="#000000" font-family="sans-serif" font-size="7.93" lengthAdjust="spacing" textLength="55.51" x="401.99" y="176.6969">storeRepository</text><polygon fill="#181818" points="644.465,194.5566,650.565,196.9966,644.465,199.4366,646.905,196.9966" style="stroke:#181818;stroke-width:0.61;"/><line style="stroke:#181818;stroke-width:0.61;" x1="384.91" x2="648.125" y1="196.9966" y2="196.9966"/><text fill="#000000" font-family="sans-serif" font-size="7.93" font-weight="bold" lengthAdjust="spacing" textLength="4.27" x="389.18" y="194.0962">8</text><text fill="#000000" font-family="sans-serif" font-size="7.93" lengthAdjust="spacing" textLength="47.58" x="395.89" y="194.0962">getStoreList()</text><polygon fill="#181818" points="391.62,211.9559,385.52,214.3959,391.62,216.8359,389.18,214.3959" style="stroke:#181818;stroke-width:0.61;"/><line style="stroke:#181818;stroke-width:0.61;stroke-dasharray:2.0,2.0;" x1="387.96" x2="654.225" y1="214.3959" y2="214.3959"/><text fill="#000000" font-family="sans-serif" font-size="7.93" font-weight="bold" lengthAdjust="spacing" textLength="4.27" x="395.28" y="211.4955">9</text><text fill="#000000" font-family="sans-serif" font-size="7.93" lengthAdjust="spacing" textLength="30.5" x="401.99" y="211.4955">storeList</text><polygon fill="#181818" points="280.6,229.3552,274.5,231.7952,280.6,234.2352,278.16,231.7952" style="stroke:#181818;stroke-width:0.61;"/><line style="stroke:#181818;stroke-width:0.61;stroke-dasharray:2.0,2.0;" x1="276.94" x2="381.25" y1="231.7952" y2="231.7952"/><text fill="#000000" font-family="sans-serif" font-size="7.93" font-weight="bold" lengthAdjust="spacing" textLength="8.54" x="284.26" y="228.8948">10</text><text fill="#000000" font-family="sans-serif" font-size="7.93" lengthAdjust="spacing" textLength="30.5" x="295.24" y="228.8948">storeList</text><polygon fill="#181818" points="371.49,246.7545,377.59,249.1945,371.49,251.6345,373.93,249.1945" style="stroke:#181818;stroke-width:0.61;"/><line style="stroke:#181818;stroke-width:0.61;" x1="273.89" x2="375.15" y1="249.1945" y2="249.1945"/><text fill="#000000" font-family="sans-serif" font-size="7.93" font-weight="bold" lengthAdjust="spacing" textLength="8.54" x="278.16" y="246.2941">11</text><text fill="#000000" font-family="sans-serif" font-size="7.93" lengthAdjust="spacing" textLength="48.8" x="289.14" y="246.2941">sort(storeList)</text><polygon fill="#181818" points="280.6,264.1538,274.5,266.5938,280.6,269.0338,278.16,266.5938" style="stroke:#181818;stroke-width:0.61;"/><line style="stroke:#181818;stroke-width:0.61;stroke-dasharray:2.0,2.0;" x1="276.94" x2="381.25" y1="266.5938" y2="266.5938"/><text fill="#000000" font-family="sans-serif" font-size="7.93" font-weight="bold" lengthAdjust="spacing" textLength="8.54" x="284.26" y="263.6933">12</text><text fill="#000000" font-family="sans-serif" font-size="7.93" lengthAdjust="spacing" textLength="53.68" x="295.24" y="263.6933">sortedStoreList</text><path d="M6.1,275.7438 L50.63,275.7438 L50.63,279.7231 L44.53,285.8231 L6.1,285.8231 L6.1,275.7438 " fill="#EEEEEE" style="stroke:#000000;stroke-width:0.915;"/><rect fill="none" height="131.8744" style="stroke:#000000;stroke-width:0.915;" width="847.595" x="6.1" y="275.7438"/><text fill="#000000" font-family="sans-serif" font-size="7.93" font-weight="bold" lengthAdjust="spacing" textLength="17.08" x="15.25" y="283.5326">loop</text><text fill="#000000" font-family="sans-serif" font-size="6.71" font-weight="bold" lengthAdjust="spacing" textLength="93.33" x="59.78" y="283.0382">[for each store in storeList]</text><polygon fill="#181818" points="371.49,295.9024,377.59,298.3424,371.49,300.7824,373.93,298.3424" style="stroke:#181818;stroke-width:0.61;"/><line style="stroke:#181818;stroke-width:0.61;" x1="273.89" x2="375.15" y1="298.3424" y2="298.3424"/><text fill="#000000" font-family="sans-serif" font-size="7.93" font-weight="bold" lengthAdjust="spacing" textLength="8.54" x="278.16" y="295.4419">13</text><text fill="#000000" font-family="sans-serif" font-size="7.93" lengthAdjust="spacing" textLength="82.35" x="289.14" y="295.4419">getAllEmployees(store)</text><polygon fill="#181818" points="792.085,313.3017,798.185,315.7417,792.085,318.1817,794.525,315.7417" style="stroke:#181818;stroke-width:0.61;"/><line style="stroke:#181818;stroke-width:0.61;" x1="384.91" x2="795.745" y1="315.7417" y2="315.7417"/><text fill="#000000" font-family="sans-serif" font-size="7.93" font-weight="bold" lengthAdjust="spacing" textLength="8.54" x="389.18" y="312.8412">14</text><text fill="#000000" font-family="sans-serif" font-size="7.93" lengthAdjust="spacing" textLength="71.37" x="400.16" y="312.8412">getAgentsList(store)</text><polygon fill="#181818" points="391.62,330.701,385.52,333.141,391.62,335.581,389.18,333.141" style="stroke:#181818;stroke-width:0.61;"/><line style="stroke:#181818;stroke-width:0.61;stroke-dasharray:2.0,2.0;" x1="387.96" x2="801.845" y1="333.141" y2="333.141"/><text fill="#000000" font-family="sans-serif" font-size="7.93" font-weight="bold" lengthAdjust="spacing" textLength="8.54" x="395.28" y="330.2405">15</text><text fill="#000000" font-family="sans-serif" font-size="7.93" lengthAdjust="spacing" textLength="36.6" x="406.26" y="330.2405">agentsList</text><polygon fill="#181818" points="280.6,348.1003,274.5,350.5403,280.6,352.9803,278.16,350.5403" style="stroke:#181818;stroke-width:0.61;"/><line style="stroke:#181818;stroke-width:0.61;" x1="276.94" x2="381.25" y1="350.5403" y2="350.5403"/><text fill="#000000" font-family="sans-serif" font-size="7.93" font-weight="bold" lengthAdjust="spacing" textLength="8.54" x="284.26" y="347.6398">16</text><text fill="#000000" font-family="sans-serif" font-size="7.93" lengthAdjust="spacing" textLength="36.6" x="295.24" y="347.6398">agentsList</text><polygon fill="#181818" points="371.49,365.4996,377.59,367.9396,371.49,370.3796,373.93,367.9396" style="stroke:#181818;stroke-width:0.61;"/><line style="stroke:#181818;stroke-width:0.61;" x1="273.89" x2="375.15" y1="367.9396" y2="367.9396"/><text fill="#000000" font-family="sans-serif" font-size="7.93" font-weight="bold" lengthAdjust="spacing" textLength="8.54" x="278.16" y="365.0391">17</text><text fill="#000000" font-family="sans-serif" font-size="7.93" lengthAdjust="spacing" textLength="71.37" x="289.14" y="365.0391">getsortedAgentList()</text><polygon fill="#181818" points="280.6,382.8989,274.5,385.3389,280.6,387.7789,278.16,385.3389" style="stroke:#181818;stroke-width:0.61;"/><line style="stroke:#181818;stroke-width:0.61;stroke-dasharray:2.0,2.0;" x1="276.94" x2="381.25" y1="385.3389" y2="385.3389"/><text fill="#000000" font-family="sans-serif" font-size="7.93" font-weight="bold" lengthAdjust="spacing" textLength="8.54" x="284.26" y="382.4384">18</text><text fill="#000000" font-family="sans-serif" font-size="7.93" lengthAdjust="spacing" textLength="55.51" x="295.24" y="382.4384">sortedAgentList</text><polygon fill="#181818" points="56.12,400.2982,50.02,402.7382,56.12,405.1782,53.68,402.7382" style="stroke:#181818;stroke-width:0.61;"/><line style="stroke:#181818;stroke-width:0.61;stroke-dasharray:2.0,2.0;" x1="52.46" x2="270.23" y1="402.7382" y2="402.7382"/><text fill="#000000" font-family="sans-serif" font-size="7.93" font-weight="bold" lengthAdjust="spacing" textLength="8.54" x="59.78" y="399.8377">19</text><text fill="#000000" font-family="sans-serif" font-size="7.93" lengthAdjust="spacing" textLength="192.76" x="70.76" y="399.8377">shows storeID and sorted list of agents by alphabetical</text><!--SRC=[ZLJBJiCm4BpxArOz0L9_e49827g8r0TgwGUuwT9663ko3IX_p_g1YPq4yAcDTyRZcVNoTwla-ziHDUErLHfc6xIVIh-kkUHdr3FW1ZPhrd9jcxffkRGmMwmQOvTlhL0TeZbKlkXG_LRqeAJLIeZ8-F2yMx6YVeUjCWrfQD3uejtoQPlNw5u9305kksJTqpwcoYuHxv-tksLUQrmf18IlyxyAlkyRZL0krq-hBNC-DX_SehEDRTOmloDlO45LhmQi0a6-01S2aZdW36_a6He9-86wW_ipohhxeI9p6T0Y8g9pxjtSBA3MI9l5nWBEQE-5yEBDrRNVJaJ1U8ZB_NCufzxZAcaibpL6M0RrSK1lUVJjV1xX_N1ItGbp_E1eX_975q6DAV3vZYe8B2Qd61CHMcJi_huXVfIuxfro8VJEj1UHodppJBbHy526ZY64-2iuJx6VlL7QNYNiYFuSEZoMy7ZQ_tsuKAg55neOj749Qbtx3cKFEpFrVH3wBv7zfFmx2sJqJApnKHLKWypYuuHYPRb5OfvOi_8Yl152xsIywWZ9mCCfZq88_d9JRLWGJEIOADYaY3u33Il7SAW8Vr6V9gHPFGANfyWOffTwYVU3OqUZhBtm8zACv88LHxYvXVB4tEfzfidu1G00]--></g></svg>