<?xml version="1.0" encoding="us-ascii" standalone="no"?><svg xmlns="http://www.w3.org/2000/svg" xmlns:xlink="http://www.w3.org/1999/xlink" contentStyleType="text/css" height="516px" preserveAspectRatio="none" style="width:308px;height:516px;background:#FFFFFF;" version="1.1" viewBox="0 0 308 516" width="308px" zoomAndPan="magnify"><defs/><g><!--class SystemAdministrator--><g id="elem_SystemAdministrator"><rect codeLine="11" fill="#F1F1F1" height="33.6406" id="SystemAdministrator" rx="2.5" ry="2.5" style="stroke:#181818;stroke-width:0.5;" width="135" x="7" y="53.5"/><text fill="#000000" font-family="sans-serif" font-size="14" lengthAdjust="spacing" textLength="129" x="10" y="71.1738">SystemAdministrator</text><line style="stroke:#181818;stroke-width:0.5;" x1="8" x2="141" y1="79.1406" y2="79.1406"/></g><!--class employeeAddress--><g id="elem_employeeAddress"><rect codeLine="14" fill="#F1F1F1" height="127.4844" id="employeeAddress" rx="2.5" ry="2.5" style="stroke:#181818;stroke-width:0.5;" width="119" x="182" y="7"/><text fill="#000000" font-family="sans-serif" font-size="14" lengthAdjust="spacing" textLength="113" x="185" y="24.6738">employeeAddress</text><line style="stroke:#181818;stroke-width:0.5;" x1="183" x2="300" y1="32.6406" y2="32.6406"/><text fill="#000000" font-family="sans-serif" font-size="14" lengthAdjust="spacing" textLength="36" x="188" y="49.3145">street</text><text fill="#000000" font-family="sans-serif" font-size="14" lengthAdjust="spacing" textLength="78" x="188" y="64.9551">doorNumber</text><text fill="#000000" font-family="sans-serif" font-size="14" lengthAdjust="spacing" textLength="21" x="188" y="80.5957">city</text><text fill="#000000" font-family="sans-serif" font-size="14" lengthAdjust="spacing" textLength="31" x="188" y="96.2363">state</text><text fill="#000000" font-family="sans-serif" font-size="14" lengthAdjust="spacing" textLength="51" x="188" y="111.877">zipCode</text><text fill="#000000" font-family="sans-serif" font-size="14" lengthAdjust="spacing" textLength="47" x="188" y="127.5176">country</text></g><!--class Employee--><g id="elem_Employee"><rect codeLine="24" fill="#F1F1F1" height="127.4844" id="Employee" rx="2.5" ry="2.5" style="stroke:#181818;stroke-width:0.5;" width="163" x="107" y="210"/><text fill="#000000" font-family="sans-serif" font-size="14" lengthAdjust="spacing" textLength="62" x="157.5" y="227.6738">Employee</text><line style="stroke:#181818;stroke-width:0.5;" x1="108" x2="269" y1="235.6406" y2="235.6406"/><text fill="#000000" font-family="sans-serif" font-size="14" lengthAdjust="spacing" textLength="97" x="113" y="252.3145">employeeName</text><text fill="#000000" font-family="sans-serif" font-size="14" lengthAdjust="spacing" textLength="95" x="113" y="267.9551">employeeEmail</text><text fill="#000000" font-family="sans-serif" font-size="14" lengthAdjust="spacing" textLength="151" x="113" y="283.5957">employeePhoneNumber</text><text fill="#000000" font-family="sans-serif" font-size="14" lengthAdjust="spacing" textLength="133" x="113" y="299.2363">employeeTaxNumber</text><text fill="#000000" font-family="sans-serif" font-size="14" lengthAdjust="spacing" textLength="108" x="113" y="314.877">employeeAgency</text><text fill="#000000" font-family="sans-serif" font-size="14" lengthAdjust="spacing" textLength="135" x="113" y="330.5176">passportCardNumber</text></g><!--class Store--><g id="elem_Store"><rect codeLine="34" fill="#F1F1F1" height="96.2031" id="Store" rx="2.5" ry="2.5" style="stroke:#181818;stroke-width:0.5;" width="134" x="61.5" y="413"/><text fill="#000000" font-family="sans-serif" font-size="14" lengthAdjust="spacing" textLength="34" x="111.5" y="430.6738">Store</text><line style="stroke:#181818;stroke-width:0.5;" x1="62.5" x2="194.5" y1="438.6406" y2="438.6406"/><text fill="#000000" font-family="sans-serif" font-size="14" lengthAdjust="spacing" textLength="68" x="67.5" y="455.3145">storeName</text><text fill="#000000" font-family="sans-serif" font-size="14" lengthAdjust="spacing" textLength="86" x="67.5" y="470.9551">storeLocation</text><text fill="#000000" font-family="sans-serif" font-size="14" lengthAdjust="spacing" textLength="122" x="67.5" y="486.5957">storePhoneNumber</text><text fill="#000000" font-family="sans-serif" font-size="14" lengthAdjust="spacing" textLength="66" x="67.5" y="502.2363">storeEmail</text></g><!--class Role--><g id="elem_Role"><rect codeLine="41" fill="#F1F1F1" height="33.6406" id="Role" rx="2.5" ry="2.5" style="stroke:#181818;stroke-width:0.5;" width="35" x="231" y="444"/><text fill="#000000" font-family="sans-serif" font-size="14" lengthAdjust="spacing" textLength="29" x="234" y="461.6738">Role</text><line style="stroke:#181818;stroke-width:0.5;" x1="232" x2="265" y1="469.6406" y2="469.6406"/></g><!--link SystemAdministrator to Employee--><g id="link_SystemAdministrator_Employee"><path codeLine="45" d="M68.44,87.57 C61.14,109.65 51.63,150.06 66.5,180 C75.72,198.57 90.65,214.41 106.95,227.46 " fill="none" id="SystemAdministrator-Employee" style="stroke:#181818;stroke-width:1.0;"/><polygon fill="#000000" points="70.1729,167.441,69.7401,176.9418,75.4071,175.3817,70.1729,167.441" style="stroke:#000000;stroke-width:1.0;"/><text fill="#000000" font-family="sans-serif" font-size="13" lengthAdjust="spacing" textLength="64" x="80.5" y="176.7686">registed by</text><text fill="#000000" font-family="sans-serif" font-size="13" lengthAdjust="spacing" textLength="7" x="58.5122" y="106.8452">1</text><text fill="#000000" font-family="sans-serif" font-size="13" lengthAdjust="spacing" textLength="24" x="74.9105" y="220.6721">0...*</text></g><!--link SystemAdministrator to Employee--><g id="link_SystemAdministrator_Employee"><path codeLine="46" d="M90.45,87.63 C107.07,105.17 132.96,134.64 149.5,164 C154.32,172.55 158.72,181.8 162.69,191.18 " fill="none" id="SystemAdministrator-to-Employee" style="stroke:#181818;stroke-width:1.0;"/><polygon fill="none" points="169.21,188.62,170.01,209.8,156.18,193.74,169.21,188.62" style="stroke:#181818;stroke-width:1.0;"/><text fill="#000000" font-family="sans-serif" font-size="13" lengthAdjust="spacing" textLength="28" x="157.5" y="176.7686">is an</text></g><!--link employeeAddress to Employee--><g id="link_employeeAddress_Employee"><path codeLine="47" d="M230.19,134.06 C227.07,149.18 223.45,165.24 219.5,180 C218.56,183.5 217.57,187.06 216.53,190.64 " fill="none" id="employeeAddress-to-Employee" style="stroke:#181818;stroke-width:1.0;"/><polygon fill="none" points="223.19,192.79,210.65,209.87,209.8,188.7,223.19,192.79" style="stroke:#181818;stroke-width:1.0;"/></g><!--link Employee to Store--><g id="link_Employee_Store"><path codeLine="49" d="M150.55,337.02 C145.85,346.79 141.62,356.98 138.5,367 C133.97,381.58 131.42,397.99 130,412.92 " fill="none" id="Employee-Store" style="stroke:#181818;stroke-width:1.0;"/><polygon fill="#000000" points="142.1933,380.088,147.3939,372.1253,141.7204,370.5892,142.1933,380.088" style="stroke:#000000;stroke-width:1.0;"/><text fill="#000000" font-family="sans-serif" font-size="13" lengthAdjust="spacing" textLength="52" x="152.5" y="379.7686">works for</text><text fill="#000000" font-family="sans-serif" font-size="13" lengthAdjust="spacing" textLength="7" x="138.4983" y="357.3856">1</text><text fill="#000000" font-family="sans-serif" font-size="13" lengthAdjust="spacing" textLength="7" x="122.6938" y="402.279">1</text></g><!--link Employee to Role--><g id="link_Employee_Role"><path codeLine="50" d="M208.73,337.04 C220.98,374.91 235.66,420.31 243.3,443.94 " fill="none" id="Employee-Role" style="stroke:#181818;stroke-width:1.0;"/><polygon fill="#000000" points="228.0385,380.0191,228.0517,370.5086,222.459,372.3172,228.0385,380.0191" style="stroke:#000000;stroke-width:1.0;"/><text fill="#000000" font-family="sans-serif" font-size="13" lengthAdjust="spacing" textLength="21" x="235.5" y="379.7686">has</text><text fill="#000000" font-family="sans-serif" font-size="13" lengthAdjust="spacing" textLength="24" x="185.733" y="357.408">0...*</text><text fill="#000000" font-family="sans-serif" font-size="13" lengthAdjust="spacing" textLength="24" x="213.1725" y="433.2944">1...*</text></g><!--SRC=[RLB1JiCm3BtxAwnUa90sZUk4a2R40GaXnFW1B_7QQ4bS9PwW3FwTj1sZG-kboVFpizzhyyx5bX8531B5D4a2ewOzGpvLMZ8xgdcjdMTCR9HYxQU4t92LTnTht9BF35T_9UyYQzSoIj96uChpLb45awiRHUjwEITn8cOyvRnIJMwpLtuq4jVkat41ZRECnYLJPW_dm4NIPW0OUd3TPUMmii55bpMHIZh0zs-LG-kbOrvPcpZd0nGAiu8LIS_xiE44ncbNO5A6JzVUYsKmie-QkbxcgFDmrC43O7b-PPyfy1dm4CZvC-IbaSZ7KLFyZJukeAkQe-a6g2rpsnBWFILxPFxjiouskNTJNiCIm-b938t1zhVfv04ObpjbyogUXwZWGePOtLIpMRMOp-VNrSd-ilm9TQ6mnKs7jnSRPxElkqc3oqWH_ds7SnB0ATvnwaqr6bpYkwHTncsHlPkGngrwuhXUxsI93UN2WXy0]--></g></svg>