<?xml version="1.0" encoding="us-ascii" standalone="no"?><svg xmlns="http://www.w3.org/2000/svg" xmlns:xlink="http://www.w3.org/1999/xlink" contentStyleType="text/css" height="595px" preserveAspectRatio="none" style="width:517px;height:595px;background:#FFFFFF;" version="1.1" viewBox="0 0 517 595" width="517px" zoomAndPan="magnify"><defs/><g><!--class Employee--><g id="elem_Employee"><rect codeLine="11" fill="#F1F1F1" height="127.4844" id="Employee" rx="2.5" ry="2.5" style="stroke:#181818;stroke-width:0.5;" width="147" x="211" y="195"/><text fill="#000000" font-family="sans-serif" font-size="14" lengthAdjust="spacing" textLength="62" x="253.5" y="212.6738">Employee</text><line style="stroke:#181818;stroke-width:0.5;" x1="212" x2="357" y1="220.6406" y2="220.6406"/><text fill="#000000" font-family="sans-serif" font-size="14" lengthAdjust="spacing" textLength="33" x="217" y="237.3145">email</text><text fill="#000000" font-family="sans-serif" font-size="14" lengthAdjust="spacing" textLength="89" x="217" y="252.9551">phoneNumber</text><text fill="#000000" font-family="sans-serif" font-size="14" lengthAdjust="spacing" textLength="46" x="217" y="268.5957">agency</text><text fill="#000000" font-family="sans-serif" font-size="14" lengthAdjust="spacing" textLength="35" x="217" y="284.2363">name</text><text fill="#000000" font-family="sans-serif" font-size="14" lengthAdjust="spacing" textLength="135" x="217" y="299.877">passportCardNumber</text><text fill="#000000" font-family="sans-serif" font-size="14" lengthAdjust="spacing" textLength="67" x="217" y="315.5176">taxNumber</text></g><!--class Address--><g id="elem_Address"><rect codeLine="21" fill="#F1F1F1" height="111.8438" id="Address" rx="2.5" ry="2.5" style="stroke:#181818;stroke-width:0.5;" width="62" x="253.5" y="7"/><text fill="#000000" font-family="sans-serif" font-size="14" lengthAdjust="spacing" textLength="52" x="258.5" y="24.6738">Address</text><line style="stroke:#181818;stroke-width:0.5;" x1="254.5" x2="314.5" y1="32.6406" y2="32.6406"/><text fill="#000000" font-family="sans-serif" font-size="14" lengthAdjust="spacing" textLength="24" x="259.5" y="49.3145">City</text><text fill="#000000" font-family="sans-serif" font-size="14" lengthAdjust="spacing" textLength="38" x="259.5" y="64.9551">Street</text><text fill="#000000" font-family="sans-serif" font-size="14" lengthAdjust="spacing" textLength="43" x="259.5" y="80.5957">District</text><text fill="#000000" font-family="sans-serif" font-size="14" lengthAdjust="spacing" textLength="33" x="259.5" y="96.2363">State</text><text fill="#000000" font-family="sans-serif" font-size="14" lengthAdjust="spacing" textLength="50" x="259.5" y="111.877">Zipcode</text></g><!--class Role--><g id="elem_Role"><rect codeLine="29" fill="#F1F1F1" height="64.9219" id="Role" rx="2.5" ry="2.5" style="stroke:#181818;stroke-width:0.5;" width="87" x="7" y="398"/><text fill="#000000" font-family="sans-serif" font-size="14" lengthAdjust="spacing" textLength="29" x="36" y="415.6738">Role</text><line style="stroke:#181818;stroke-width:0.5;" x1="8" x2="93" y1="423.6406" y2="423.6406"/><text fill="#000000" font-family="sans-serif" font-size="14" lengthAdjust="spacing" textLength="69" x="13" y="440.3145">description</text><text fill="#000000" font-family="sans-serif" font-size="14" lengthAdjust="spacing" textLength="75" x="13" y="455.9551">permissions</text></g><!--class Store--><g id="elem_Store"><rect codeLine="34" fill="#F1F1F1" height="64.9219" id="Store" rx="2.5" ry="2.5" style="stroke:#181818;stroke-width:0.5;" width="85" x="129" y="398"/><text fill="#000000" font-family="sans-serif" font-size="14" lengthAdjust="spacing" textLength="34" x="154.5" y="415.6738">Store</text><line style="stroke:#181818;stroke-width:0.5;" x1="130" x2="213" y1="423.6406" y2="423.6406"/><text fill="#000000" font-family="sans-serif" font-size="14" lengthAdjust="spacing" textLength="35" x="135" y="440.3145">name</text><text fill="#000000" font-family="sans-serif" font-size="14" lengthAdjust="spacing" textLength="73" x="135" y="455.9551">designation</text></g><!--class Password--><g id="elem_Password"><rect codeLine="40" fill="#F1F1F1" height="49.2813" id="Password" rx="2.5" ry="2.5" style="stroke:#181818;stroke-width:0.5;" width="72" x="277.5" y="539"/><text fill="#000000" font-family="sans-serif" font-size="14" lengthAdjust="spacing" textLength="61" x="283" y="556.6738">Password</text><line style="stroke:#181818;stroke-width:0.5;" x1="278.5" x2="348.5" y1="564.6406" y2="564.6406"/><text fill="#000000" font-family="sans-serif" font-size="14" lengthAdjust="spacing" textLength="60" x="283.5" y="581.3145">password</text></g><!--class SystemAdministrator--><g id="elem_SystemAdministrator"><rect fill="#F1F1F1" height="33.6406" id="SystemAdministrator" rx="2.5" ry="2.5" style="stroke:#181818;stroke-width:0.5;" width="135" x="375" y="413.5"/><text fill="#000000" font-family="sans-serif" font-size="14" lengthAdjust="spacing" textLength="129" x="378" y="431.1738">SystemAdministrator</text><line style="stroke:#181818;stroke-width:0.5;" x1="376" x2="509" y1="439.1406" y2="439.1406"/></g><!--link Address to Employee--><g id="link_Address_Employee"><path codeLine="44" d="M284.5,119.19 C284.5,136.41 284.5,155.79 284.5,174.48 " fill="none" id="Address-to-Employee" style="stroke:#181818;stroke-width:1.0;"/><polygon fill="none" points="291.5,174.74,284.5,194.74,277.5,174.74,291.5,174.74" style="stroke:#181818;stroke-width:1.0;"/><text fill="#000000" font-family="sans-serif" font-size="13" lengthAdjust="spacing" textLength="39" x="285.5" y="161.7686">has an</text></g><!--link SystemAdministrator to Employee--><g id="link_SystemAdministrator_Employee"><path codeLine="45" d="M435.47,413.26 C427.85,396.76 414.6,371.01 398.5,352 C386.64,338 372.43,324.55 358.14,312.46 " fill="none" id="SystemAdministrator-Employee" style="stroke:#181818;stroke-width:1.0;"/><polygon fill="#000000" points="412.4566,356.2946,415.6304,365.26,420.294,361.6823,412.4566,356.2946" style="stroke:#000000;stroke-width:1.0;"/><text fill="#000000" font-family="sans-serif" font-size="13" lengthAdjust="spacing" textLength="39" x="424.5" y="364.7686">registe</text><text fill="#000000" font-family="sans-serif" font-size="13" lengthAdjust="spacing" textLength="7" x="424.8503" y="402.8478">1</text><text fill="#000000" font-family="sans-serif" font-size="13" lengthAdjust="spacing" textLength="24" x="366.0349" y="314.5595">0...*</text></g><!--link Employee to SystemAdministrator--><g id="link_Employee_SystemAdministrator"><path codeLine="46" d="M314.18,322.12 C323.49,338.13 334.73,354.59 347.5,368 C360.43,381.57 376.91,393.57 392.51,403.28 " fill="none" id="Employee-to-SystemAdministrator" style="stroke:#181818;stroke-width:1.0;"/><polygon fill="none" points="396.09,397.26,409.82,413.41,389.02,409.35,396.09,397.26" style="stroke:#181818;stroke-width:1.0;"/><polygon fill="#000000" points="349.0277,356.664,353.1944,365.2133,357.4238,361.1314,349.0277,356.664" style="stroke:#000000;stroke-width:1.0;"/><text fill="#000000" font-family="sans-serif" font-size="13" lengthAdjust="spacing" textLength="28" x="361.5" y="364.7686">is an</text></g><!--link Employee to Password--><g id="link_Employee_Password"><path codeLine="47" d="M289.7,322.33 C293.12,362.57 297.81,415.88 302.5,463 C305.08,488.94 308.41,518.64 310.73,538.79 " fill="none" id="Employee-Password" style="stroke:#181818;stroke-width:1.0;"/><polygon fill="#000000" points="307.0165,425.7852,304.966,435.072,310.8163,434.5037,307.0165,425.7852" style="stroke:#000000;stroke-width:1.0;"/><text fill="#000000" font-family="sans-serif" font-size="13" lengthAdjust="spacing" textLength="40" x="316.5" y="435.2686">sent to</text><text fill="#000000" font-family="sans-serif" font-size="13" lengthAdjust="spacing" textLength="7" x="282.8966" y="342.2905">1</text><text fill="#000000" font-family="sans-serif" font-size="13" lengthAdjust="spacing" textLength="7" x="302.0449" y="528.069">1</text></g><!--reverse link Employee to Store--><g id="link_Employee_Store"><path codeLine="48" d="M200.41,338.15 C197.19,342.67 194.19,347.3 191.5,352 C183.49,365.99 178.63,383.21 175.71,397.87 " fill="none" id="Employee-backto-Store" style="stroke:#181818;stroke-width:1.0;"/><polygon fill="none" points="195.03,333.66,212.9,322.26,206.04,342.31,195.03,333.66" style="stroke:#181818;stroke-width:1.0;"/><polygon fill="#000000" points="194.589,364.8821,200.7618,357.647,195.3302,355.4005,194.589,364.8821" style="stroke:#000000;stroke-width:1.0;"/><text fill="#000000" font-family="sans-serif" font-size="13" lengthAdjust="spacing" textLength="52" x="205.5" y="364.7686">works for</text><text fill="#000000" font-family="sans-serif" font-size="13" lengthAdjust="spacing" textLength="7" x="197.2166" y="342.2124">1</text><text fill="#000000" font-family="sans-serif" font-size="13" lengthAdjust="spacing" textLength="7" x="168.8653" y="387.0353">1</text></g><!--reverse link Employee to Role--><g id="link_Employee_Role"><path codeLine="49" d="M193.68,315.1 C175.74,326.84 157.28,339.48 140.5,352 C121.49,366.18 101.4,383.26 85.03,397.77 " fill="none" id="Employee-backto-Role" style="stroke:#181818;stroke-width:1.0;"/><polygon fill="none" points="190.04,309.11,210.64,304.15,197.63,320.88,190.04,309.11" style="stroke:#181818;stroke-width:1.0;"/><polygon fill="#000000" points="141.5209,363.2894,150.4988,360.1512,146.9396,355.4734,141.5209,363.2894" style="stroke:#000000;stroke-width:1.0;"/><text fill="#000000" font-family="sans-serif" font-size="13" lengthAdjust="spacing" textLength="21" x="154.5" y="364.7686">has</text><text fill="#000000" font-family="sans-serif" font-size="13" lengthAdjust="spacing" textLength="7" x="196.0249" y="305.7251">1</text><text fill="#000000" font-family="sans-serif" font-size="13" lengthAdjust="spacing" textLength="7" x="84.4299" y="387.4063">1</text></g><!--link SystemAdministrator to Password--><g id="link_SystemAdministrator_Password"><path codeLine="50" d="M426.68,447.56 C404.21,470.38 362.89,512.34 336.88,538.76 " fill="none" id="SystemAdministrator-Password" style="stroke:#181818;stroke-width:1.0;"/><polygon fill="#000000" points="383.9919,504.8245,392.4322,500.4414,388.244,496.3174,383.9919,504.8245" style="stroke:#000000;stroke-width:1.0;"/><text fill="#000000" font-family="sans-serif" font-size="13" lengthAdjust="spacing" textLength="33" x="396.5" y="505.7686">give a</text></g><!--SRC=[RL9DRzim3BthLn2-51ZWeBq6HO2Wss6NOQXlkx4IOnFH5oIcdRVslq-MNSS3ueDCMe_lFJuudzb7JEZ01H_qa88Za7GXbTURYFgCFNKoMe94Mj3tTWl80vhmnhw74zfCwkvwPTcJZ94W91c2khDq4f00YVj1mF14ny5loBJ5d8yYYLykGjzry1t_8RXN0ni2pKaNxLexAfGcAwNg37npqOQH2FugA0yvP5khE0HFFoxkXLBjop9UZxNqw6Z658POJ3vXCXkeuE-bKn-VEaTZ4fNtBFF4CbDraeYabbyv5_zQbkyeiyOlZZeOkZ8z1qipYw6i4yUQHRL3oN7EfSrNU2SXBVZLTndatkCw-B76yRCSRo6PnMTSsedkSuEsVJ-iiUrXm0peLJTc8NSqZlsq1nPLQ1wQjctkTxlTbsOpaQWl48A3MiEld3Sezi0JEpnUeJFfGxDQtKCcN_-F_r6FxpEk1h270ZrdE1LRXvkmATPvcyFDPTfsezZpAm4MfFe7]--></g></svg>