<?xml version="1.0" encoding="us-ascii" standalone="no"?><svg xmlns="http://www.w3.org/2000/svg" xmlns:xlink="http://www.w3.org/1999/xlink" contentStyleType="text/css" height="439px" preserveAspectRatio="none" style="width:222px;height:439px;background:#FFFFFF;" version="1.1" viewBox="0 0 222 439" width="222px" zoomAndPan="magnify"><defs/><g><!--class SystemAdministrator--><g id="elem_SystemAdministrator"><rect codeLine="11" fill="#F1F1F1" height="33.6406" id="SystemAdministrator" rx="2.5" ry="2.5" style="stroke:#181818;stroke-width:0.5;" width="135" x="66.5" y="7"/><text fill="#000000" font-family="sans-serif" font-size="14" lengthAdjust="spacing" textLength="129" x="69.5" y="24.6738">SystemAdministrator</text><line style="stroke:#181818;stroke-width:0.5;" x1="67.5" x2="200.5" y1="32.6406" y2="32.6406"/></g><!--class Employee--><g id="elem_Employee"><rect codeLine="16" fill="#F1F1F1" height="143.125" id="Employee" rx="2.5" ry="2.5" style="stroke:#181818;stroke-width:0.5;" width="163" x="52.5" y="117"/><text fill="#000000" font-family="sans-serif" font-size="14" lengthAdjust="spacing" textLength="62" x="103" y="134.6738">Employee</text><line style="stroke:#181818;stroke-width:0.5;" x1="53.5" x2="214.5" y1="142.6406" y2="142.6406"/><text fill="#000000" font-family="sans-serif" font-size="14" lengthAdjust="spacing" textLength="97" x="58.5" y="159.3145">employeeName</text><text fill="#000000" font-family="sans-serif" font-size="14" lengthAdjust="spacing" textLength="113" x="58.5" y="174.9551">employeeAddress</text><text fill="#000000" font-family="sans-serif" font-size="14" lengthAdjust="spacing" textLength="95" x="58.5" y="190.5957">employeeEmail</text><text fill="#000000" font-family="sans-serif" font-size="14" lengthAdjust="spacing" textLength="151" x="58.5" y="206.2363">employeePhoneNumber</text><text fill="#000000" font-family="sans-serif" font-size="14" lengthAdjust="spacing" textLength="133" x="58.5" y="221.877">employeeTaxNumber</text><text fill="#000000" font-family="sans-serif" font-size="14" lengthAdjust="spacing" textLength="108" x="58.5" y="237.5176">employeeAgency</text><text fill="#000000" font-family="sans-serif" font-size="14" lengthAdjust="spacing" textLength="135" x="58.5" y="253.1582">passportCardNumber</text></g><!--class Store--><g id="elem_Store"><rect codeLine="27" fill="#F1F1F1" height="96.2031" id="Store" rx="2.5" ry="2.5" style="stroke:#181818;stroke-width:0.5;" width="134" x="7" y="336"/><text fill="#000000" font-family="sans-serif" font-size="14" lengthAdjust="spacing" textLength="34" x="57" y="353.6738">Store</text><line style="stroke:#181818;stroke-width:0.5;" x1="8" x2="140" y1="361.6406" y2="361.6406"/><text fill="#000000" font-family="sans-serif" font-size="14" lengthAdjust="spacing" textLength="68" x="13" y="378.3145">storeName</text><text fill="#000000" font-family="sans-serif" font-size="14" lengthAdjust="spacing" textLength="86" x="13" y="393.9551">storeLocation</text><text fill="#000000" font-family="sans-serif" font-size="14" lengthAdjust="spacing" textLength="122" x="13" y="409.5957">storePhoneNumber</text><text fill="#000000" font-family="sans-serif" font-size="14" lengthAdjust="spacing" textLength="66" x="13" y="425.2363">storeEmail</text></g><!--class Role--><g id="elem_Role"><rect codeLine="34" fill="#F1F1F1" height="33.6406" id="Role" rx="2.5" ry="2.5" style="stroke:#181818;stroke-width:0.5;" width="35" x="176.5" y="367"/><text fill="#000000" font-family="sans-serif" font-size="14" lengthAdjust="spacing" textLength="29" x="179.5" y="384.6738">Role</text><line style="stroke:#181818;stroke-width:0.5;" x1="177.5" x2="210.5" y1="392.6406" y2="392.6406"/></g><!--link SystemAdministrator to Employee--><g id="link_SystemAdministrator_Employee"><path codeLine="38" d="M101.34,41.01 C89.89,48.43 78.33,58.43 72,71 C68.8,77.35 70.06,80.16 72,87 C74.85,97.06 79.03,107.1 83.89,116.73 " fill="none" id="SystemAdministrator-Employee" style="stroke:#181818;stroke-width:1.0;"/><polygon fill="#000000" points="78.1228,74.3894,73.2277,82.5435,78.9555,83.8635,78.1228,74.3894" style="stroke:#000000;stroke-width:1.0;"/><text fill="#000000" font-family="sans-serif" font-size="13" lengthAdjust="spacing" textLength="64" x="86" y="83.7686">registed by</text><text fill="#000000" font-family="sans-serif" font-size="13" lengthAdjust="spacing" textLength="7" x="83.266" y="60.2668">1</text><text fill="#000000" font-family="sans-serif" font-size="13" lengthAdjust="spacing" textLength="24" x="53.4849" y="106.3959">0...*</text></g><!--link SystemAdministrator to Employee--><g id="link_SystemAdministrator_Employee"><path codeLine="39" d="M143.37,41.01 C147.85,49.6 152.72,60.53 155,71 C156.81,79.3 157.48,87.96 157.34,96.65 " fill="none" id="SystemAdministrator-to-Employee" style="stroke:#181818;stroke-width:1.0;"/><polygon fill="none" points="164.3,97.44,155.69,116.8,150.35,96.3,164.3,97.44" style="stroke:#181818;stroke-width:1.0;"/><text fill="#000000" font-family="sans-serif" font-size="13" lengthAdjust="spacing" textLength="28" x="159" y="83.7686">is an</text></g><!--link Employee to Store--><g id="link_Employee_Store"><path codeLine="41" d="M95.01,260.16 C90.74,269.97 86.9,280.09 84,290 C79.76,304.5 77.28,320.73 75.85,335.53 " fill="none" id="Employee-Store" style="stroke:#181818;stroke-width:1.0;"/><polygon fill="#000000" points="87.7681,303.1076,92.8449,295.0654,87.1483,293.6172,87.7681,303.1076" style="stroke:#000000;stroke-width:1.0;"/><text fill="#000000" font-family="sans-serif" font-size="13" lengthAdjust="spacing" textLength="52" x="98" y="302.7686">works for</text><text fill="#000000" font-family="sans-serif" font-size="13" lengthAdjust="spacing" textLength="7" x="83.6282" y="280.0609">1</text><text fill="#000000" font-family="sans-serif" font-size="13" lengthAdjust="spacing" textLength="7" x="68.6077" y="325.1749">1</text></g><!--link Employee to Role--><g id="link_Employee_Role"><path codeLine="42" d="M155.92,260.18 C167.9,298.83 181.74,343.48 188.99,366.84 " fill="none" id="Employee-Role" style="stroke:#181818;stroke-width:1.0;"/><polygon fill="#000000" points="176.4807,303.0374,176.6092,293.5277,170.995,295.2684,176.4807,303.0374" style="stroke:#000000;stroke-width:1.0;"/><text fill="#000000" font-family="sans-serif" font-size="13" lengthAdjust="spacing" textLength="21" x="184" y="302.7686">has</text><text fill="#000000" font-family="sans-serif" font-size="13" lengthAdjust="spacing" textLength="24" x="132.943" y="280.083">0...*</text><text fill="#000000" font-family="sans-serif" font-size="13" lengthAdjust="spacing" textLength="24" x="158.9302" y="356.1588">1...*</text></g><!--SRC=[RL51QiCm4Bph5OilWO93SWqbO4eFXH9AtGzif8qj8ccDf92wQVvUsKuT6wABfDdPsT4e7BLhqAC5ouvbxTaIH7yY4SPAW_A85PMnDGIUP4HNcIaXrAZuh5q51pI1nE9UCjfHR1i2zh5ciJ1qY10PlAxg24ftSfhTH4mQ3A68qUlzATARP5Vg7uALgBKYaDhBDBi_MqgIAWWX-Xuesn395ifgfqFq6DbVXBYEzLVR66w9u28WBRfTTsXf1XHAUGfXXhrQr6Q6VDJiQ7UoU_8p_0k_7w15HKwsFTGaBqsAumMzkZ7l7ijacYuYT5jlh3-ziyGXfkusdTm3WxdhlyOdcoJHQJv81B9rbkVPQhbSFcLZ99lqhrMYa89z2yyF6_FyTpjfq07G2J66EkYki-496pYpFmOufCRjX3JCxOY3WSxh1ceCYIN-0000]--></g></svg>