<?xml version="1.0" encoding="us-ascii" standalone="no"?><svg xmlns="http://www.w3.org/2000/svg" xmlns:xlink="http://www.w3.org/1999/xlink" contentStyleType="text/css" height="769px" preserveAspectRatio="none" style="width:662px;height:769px;background:#FFFFFF;" version="1.1" viewBox="0 0 662 769" width="662px" zoomAndPan="magnify"><defs/><g><!--class User--><g id="elem_User"><rect codeLine="10" fill="#F1F1F1" height="96.2031" id="User" rx="2.5" ry="2.5" style="stroke:#181818;stroke-width:0.5;" width="104" x="407" y="479"/><text fill="#000000" font-family="sans-serif" font-size="14" lengthAdjust="spacing" textLength="29" x="444.5" y="496.6738">User</text><line style="stroke:#181818;stroke-width:0.5;" x1="408" x2="510" y1="504.6406" y2="504.6406"/><text fill="#000000" font-family="sans-serif" font-size="14" lengthAdjust="spacing" textLength="35" x="413" y="521.3145">name</text><text fill="#000000" font-family="sans-serif" font-size="14" lengthAdjust="spacing" textLength="33" x="413" y="536.9551">email</text><text fill="#000000" font-family="sans-serif" font-size="14" lengthAdjust="spacing" textLength="92" x="413" y="552.5957">phone number</text><text fill="#000000" font-family="sans-serif" font-size="14" lengthAdjust="spacing" textLength="60" x="413" y="568.2363">password</text></g><!--class Passport--><g id="elem_Passport"><rect codeLine="16" fill="#F1F1F1" height="49.2813" id="Passport" rx="2.5" ry="2.5" style="stroke:#181818;stroke-width:0.5;" width="62" x="480" y="682.5"/><text fill="#000000" font-family="sans-serif" font-size="14" lengthAdjust="spacing" textLength="56" x="483" y="700.1738">Passport</text><line style="stroke:#181818;stroke-width:0.5;" x1="481" x2="541" y1="708.1406" y2="708.1406"/><text fill="#000000" font-family="sans-serif" font-size="14" lengthAdjust="spacing" textLength="48" x="486" y="724.8145">number</text></g><!--class TaxNumber--><g id="elem_TaxNumber"><rect codeLine="19" fill="#F1F1F1" height="49.2813" id="TaxNumber" rx="2.5" ry="2.5" style="stroke:#181818;stroke-width:0.5;" width="78" x="367" y="682.5"/><text fill="#000000" font-family="sans-serif" font-size="14" lengthAdjust="spacing" textLength="72" x="370" y="700.1738">TaxNumber</text><line style="stroke:#181818;stroke-width:0.5;" x1="368" x2="444" y1="708.1406" y2="708.1406"/><text fill="#000000" font-family="sans-serif" font-size="14" lengthAdjust="spacing" textLength="48" x="373" y="724.8145">number</text></g><!--class Adress--><g id="elem_Adress"><rect codeLine="22" fill="#F1F1F1" height="111.8438" id="Adress" rx="2.5" ry="2.5" style="stroke:#181818;stroke-width:0.5;" width="60" x="240" y="651"/><text fill="#000000" font-family="sans-serif" font-size="14" lengthAdjust="spacing" textLength="44" x="248" y="668.6738">Adress</text><line style="stroke:#181818;stroke-width:0.5;" x1="241" x2="299" y1="676.6406" y2="676.6406"/><text fill="#000000" font-family="sans-serif" font-size="14" lengthAdjust="spacing" textLength="36" x="246" y="693.3145">street</text><text fill="#000000" font-family="sans-serif" font-size="14" lengthAdjust="spacing" textLength="21" x="246" y="708.9551">city</text><text fill="#000000" font-family="sans-serif" font-size="14" lengthAdjust="spacing" textLength="41" x="246" y="724.5957">district</text><text fill="#000000" font-family="sans-serif" font-size="14" lengthAdjust="spacing" textLength="31" x="246" y="740.2363">state</text><text fill="#000000" font-family="sans-serif" font-size="14" lengthAdjust="spacing" textLength="48" x="246" y="755.877">zipcode</text></g><!--class Agency--><g id="elem_Agency"><rect codeLine="30" fill="#F1F1F1" height="80.5625" id="Agency" rx="2.5" ry="2.5" style="stroke:#181818;stroke-width:0.5;" width="104" x="7" y="14.5"/><text fill="#000000" font-family="sans-serif" font-size="14" lengthAdjust="spacing" textLength="47" x="35.5" y="32.1738">Agency</text><line style="stroke:#181818;stroke-width:0.5;" x1="8" x2="110" y1="40.1406" y2="40.1406"/><text fill="#000000" font-family="sans-serif" font-size="14" lengthAdjust="spacing" textLength="73" x="13" y="56.8145">designation</text><text fill="#000000" font-family="sans-serif" font-size="14" lengthAdjust="spacing" textLength="33" x="13" y="72.4551">email</text><text fill="#000000" font-family="sans-serif" font-size="14" lengthAdjust="spacing" textLength="92" x="13" y="88.0957">phone number</text></g><!--class Agent--><g id="elem_Agent"><rect codeLine="35" fill="#F1F1F1" height="33.6406" id="Agent" rx="2.5" ry="2.5" style="stroke:#181818;stroke-width:0.5;" width="43" x="366.5" y="38"/><text fill="#000000" font-family="sans-serif" font-size="14" lengthAdjust="spacing" textLength="37" x="369.5" y="55.6738">Agent</text><line style="stroke:#181818;stroke-width:0.5;" x1="367.5" x2="408.5" y1="63.6406" y2="63.6406"/></g><!--class Store--><g id="elem_Store"><rect codeLine="38" fill="#F1F1F1" height="96.2031" id="Store" rx="2.5" ry="2.5" style="stroke:#181818;stroke-width:0.5;" width="85" x="192.5" y="7"/><text fill="#000000" font-family="sans-serif" font-size="14" lengthAdjust="spacing" textLength="34" x="218" y="24.6738">Store</text><line style="stroke:#181818;stroke-width:0.5;" x1="193.5" x2="276.5" y1="32.6406" y2="32.6406"/><text fill="#000000" font-family="sans-serif" font-size="14" lengthAdjust="spacing" textLength="35" x="198.5" y="49.3145">name</text><text fill="#000000" font-family="sans-serif" font-size="14" lengthAdjust="spacing" textLength="73" x="198.5" y="64.9551">designation</text><text fill="#000000" font-family="sans-serif" font-size="14" lengthAdjust="spacing" textLength="63" x="198.5" y="80.5957">telephone</text><text fill="#000000" font-family="sans-serif" font-size="14" lengthAdjust="spacing" textLength="33" x="198.5" y="96.2363">email</text></g><!--class Role--><g id="elem_Role"><rect codeLine="44" fill="#F1F1F1" height="64.9219" id="Role" rx="2.5" ry="2.5" style="stroke:#181818;stroke-width:0.5;" width="87" x="238.5" y="494.5"/><text fill="#000000" font-family="sans-serif" font-size="14" lengthAdjust="spacing" textLength="29" x="267.5" y="512.1738">Role</text><line style="stroke:#181818;stroke-width:0.5;" x1="239.5" x2="324.5" y1="520.1406" y2="520.1406"/><text fill="#000000" font-family="sans-serif" font-size="14" lengthAdjust="spacing" textLength="69" x="244.5" y="536.8145">description</text><text fill="#000000" font-family="sans-serif" font-size="14" lengthAdjust="spacing" textLength="75" x="244.5" y="552.4551">permissions</text></g><!--class SystemAdministrator--><g id="elem_SystemAdministrator"><rect codeLine="48" fill="#F1F1F1" height="33.6406" id="SystemAdministrator" rx="2.5" ry="2.5" style="stroke:#181818;stroke-width:0.5;" width="135" x="390.5" y="274"/><text fill="#000000" font-family="sans-serif" font-size="14" lengthAdjust="spacing" textLength="129" x="393.5" y="291.6738">SystemAdministrator</text><line style="stroke:#181818;stroke-width:0.5;" x1="391.5" x2="524.5" y1="299.6406" y2="299.6406"/></g><!--class StoreManager--><g id="elem_StoreManager"><rect codeLine="50" fill="#F1F1F1" height="33.6406" id="StoreManager" rx="2.5" ry="2.5" style="stroke:#181818;stroke-width:0.5;" width="96" x="378" y="179"/><text fill="#000000" font-family="sans-serif" font-size="14" lengthAdjust="spacing" textLength="90" x="381" y="196.6738">StoreManager</text><line style="stroke:#181818;stroke-width:0.5;" x1="379" x2="473" y1="204.6406" y2="204.6406"/></g><!--class StoreNetworkManager--><g id="elem_StoreNetworkManager"><rect codeLine="52" fill="#F1F1F1" height="33.6406" id="StoreNetworkManager" rx="2.5" ry="2.5" style="stroke:#181818;stroke-width:0.5;" width="146" x="509" y="179"/><text fill="#000000" font-family="sans-serif" font-size="14" lengthAdjust="spacing" textLength="140" x="512" y="196.6738">StoreNetworkManager</text><line style="stroke:#181818;stroke-width:0.5;" x1="510" x2="654" y1="204.6406" y2="204.6406"/></g><!--class Employee--><g id="elem_Employee"><rect codeLine="54" fill="#F1F1F1" height="33.6406" id="Employee" rx="2.5" ry="2.5" style="stroke:#181818;stroke-width:0.5;" width="68" x="424" y="384"/><text fill="#000000" font-family="sans-serif" font-size="14" lengthAdjust="spacing" textLength="62" x="427" y="401.6738">Employee</text><line style="stroke:#181818;stroke-width:0.5;" x1="425" x2="491" y1="409.6406" y2="409.6406"/></g><!--class StoreEmployee--><g id="elem_StoreEmployee"><rect codeLine="57" fill="#F1F1F1" height="33.6406" id="StoreEmployee" rx="2.5" ry="2.5" style="stroke:#181818;stroke-width:0.5;" width="102" x="241" y="179"/><text fill="#000000" font-family="sans-serif" font-size="14" lengthAdjust="spacing" textLength="96" x="244" y="196.6738">StoreEmployee</text><line style="stroke:#181818;stroke-width:0.5;" x1="242" x2="342" y1="204.6406" y2="204.6406"/></g><!--class AgencyEmployee--><g id="elem_AgencyEmployee"><rect codeLine="60" fill="#F1F1F1" height="33.6406" id="AgencyEmployee" rx="2.5" ry="2.5" style="stroke:#181818;stroke-width:0.5;" width="115" x="239.5" y="274"/><text fill="#000000" font-family="sans-serif" font-size="14" lengthAdjust="spacing" textLength="109" x="242.5" y="291.6738">AgencyEmployee</text><line style="stroke:#181818;stroke-width:0.5;" x1="240.5" x2="353.5" y1="299.6406" y2="299.6406"/></g><!--link User to Passport--><g id="link_User_Passport"><path codeLine="63" d="M472.8,575.23 C482.85,609.63 496.04,654.8 504,682.05 " fill="none" id="User-Passport" style="stroke:#181818;stroke-width:1.0;"/><polygon fill="#000000" points="491.4018,618.0612,491.687,608.5549,486.0448,610.2028,491.4018,618.0612" style="stroke:#000000;stroke-width:1.0;"/><text fill="#000000" font-family="sans-serif" font-size="13" lengthAdjust="spacing" textLength="32" x="499" y="617.7686">has a</text><text fill="#000000" font-family="sans-serif" font-size="13" lengthAdjust="spacing" textLength="7" x="467.3128" y="595.134">1</text><text fill="#000000" font-family="sans-serif" font-size="13" lengthAdjust="spacing" textLength="7" x="494.3094" y="671.6624">1</text></g><!--link User to TaxNumber--><g id="link_User_TaxNumber"><path codeLine="64" d="M436.99,575.06 C432.95,584.82 429.05,595.14 426,605 C417.97,630.96 412.42,661.7 409.24,682.39 " fill="none" id="User-TaxNumber" style="stroke:#181818;stroke-width:1.0;"/><polygon fill="#000000" points="429.7484,618.1025,434.8579,610.0811,429.1672,608.6097,429.7484,618.1025" style="stroke:#000000;stroke-width:1.0;"/><text fill="#000000" font-family="sans-serif" font-size="13" lengthAdjust="spacing" textLength="32" x="440" y="617.7686">has a</text><text fill="#000000" font-family="sans-serif" font-size="13" lengthAdjust="spacing" textLength="7" x="426.2432" y="594.939">1</text><text fill="#000000" font-family="sans-serif" font-size="13" lengthAdjust="spacing" textLength="7" x="402.1701" y="671.6959">1</text></g><!--link User to Adress--><g id="link_User_Adress"><path codeLine="65" d="M406.77,566.37 C391.56,578.24 375.23,591.7 361,605 C339.45,625.15 317.25,649.7 300.17,669.55 " fill="none" id="User-Adress" style="stroke:#181818;stroke-width:1.0;"/><polygon fill="#000000" points="362.4073,616.7392,370.9505,612.5602,366.8626,608.3367,362.4073,616.7392" style="stroke:#000000;stroke-width:1.0;"/><text fill="#000000" font-family="sans-serif" font-size="13" lengthAdjust="spacing" textLength="39" x="375" y="617.7686">has an</text><text fill="#000000" font-family="sans-serif" font-size="13" lengthAdjust="spacing" textLength="7" x="391.933" y="568.7131">1</text><text fill="#000000" font-family="sans-serif" font-size="13" lengthAdjust="spacing" textLength="7" x="307.9562" y="657.1181">1</text></g><!--link Role to User--><g id="link_Role_User"><path codeLine="66" d="M325.75,527 C350.32,527 381.14,527 406.94,527 " fill="none" id="Role-User" style="stroke:#181818;stroke-width:1.0;"/><polygon fill="#000000" points="342.75,516.2617,351.7951,519.2006,351.7951,513.3228,342.75,516.2617" style="stroke:#000000;stroke-width:1.0;"/><text fill="#000000" font-family="sans-serif" font-size="13" lengthAdjust="spacing" textLength="32" x="356.75" y="520.7686">has a</text><text fill="#000000" font-family="sans-serif" font-size="13" lengthAdjust="spacing" textLength="7" x="333.5758" y="523.659">1</text><text fill="#000000" font-family="sans-serif" font-size="13" lengthAdjust="spacing" textLength="7" x="392.1269" y="523.8067">1</text></g><!--link Agency to Store--><g id="link_Agency_Store"><path codeLine="67" d="M111.33,55 C137.17,55 167.95,55 192.33,55 " fill="none" id="Agency-Store" style="stroke:#181818;stroke-width:1.0;"/><polygon fill="#000000" points="138.25,44.2617,129.2049,41.3228,129.2049,47.2006,138.25,44.2617" style="stroke:#000000;stroke-width:1.0;"/><text fill="#000000" font-family="sans-serif" font-size="13" lengthAdjust="spacing" textLength="32" x="142.25" y="48.7686">has a</text><text fill="#000000" font-family="sans-serif" font-size="13" lengthAdjust="spacing" textLength="7" x="118.8322" y="51.8925">1</text><text fill="#000000" font-family="sans-serif" font-size="13" lengthAdjust="spacing" textLength="7" x="177.3945" y="51.593">1</text></g><!--link SystemAdministrator to Employee--><g id="link_SystemAdministrator_Employee"><path codeLine="68" d="M458,308.4 C458,323 458,344.87 458,363.58 " fill="none" id="SystemAdministrator-to-Employee" style="stroke:#181818;stroke-width:1.0;"/><polygon fill="none" points="465,363.8,458,383.8,451,363.8,465,363.8" style="stroke:#181818;stroke-width:1.0;"/></g><!--link Agent to StoreEmployee--><g id="link_Agent_StoreEmployee"><path codeLine="69" d="M384.6,72.11 C379.85,91.77 369.75,125.31 352,149 C347.25,155.34 341.4,161.25 335.24,166.58 " fill="none" id="Agent-to-StoreEmployee" style="stroke:#181818;stroke-width:1.0;"/><polygon fill="none" points="339.35,172.24,319.23,178.88,330.82,161.14,339.35,172.24" style="stroke:#181818;stroke-width:1.0;"/></g><!--reverse link StoreEmployee to StoreManager--><g id="link_StoreEmployee_StoreManager"><path codeLine="70" d="M363.08,196 C367.96,196 372.84,196 377.71,196 " fill="none" id="StoreEmployee-backto-StoreManager" style="stroke:#181818;stroke-width:1.0;"/><polygon fill="none" points="363.04,203,343.04,196,363.04,189,363.04,203" style="stroke:#181818;stroke-width:1.0;"/></g><!--link Agency to AgencyEmployee--><g id="link_Agency_AgencyEmployee"><path codeLine="72" d="M85.07,95.56 C108.33,129.11 144.56,177.32 183,213 C209.26,237.37 243.88,259.62 268.06,273.86 " fill="none" id="Agency-AgencyEmployee" style="stroke:#181818;stroke-width:1.0;"/><polygon fill="#000000" points="184.4189,192.7724,188.8462,201.1896,192.9482,196.9797,184.4189,192.7724" style="stroke:#000000;stroke-width:1.0;"/><text fill="#000000" font-family="sans-serif" font-size="13" lengthAdjust="spacing" textLength="25" x="197" y="200.7686">runs</text><text fill="#000000" font-family="sans-serif" font-size="13" lengthAdjust="spacing" textLength="7" x="81.526" y="114.6848">1</text><text fill="#000000" font-family="sans-serif" font-size="13" lengthAdjust="spacing" textLength="7" x="249.5033" y="263.1859">1</text></g><!--link StoreEmployee to Store--><g id="link_StoreEmployee_Store"><path codeLine="73" d="M285.3,178.83 C281.66,170.01 277.07,158.91 273,149 C266.9,134.16 260.28,117.97 254.3,103.33 " fill="none" id="StoreEmployee-Store" style="stroke:#181818;stroke-width:1.0;"/><polygon fill="#000000" points="276.1009,136.6364,276.8177,146.1199,282.2551,143.8874,276.1009,136.6364" style="stroke:#000000;stroke-width:1.0;"/><text fill="#000000" font-family="sans-serif" font-size="13" lengthAdjust="spacing" textLength="60" x="287" y="145.7686">belongs to</text><text fill="#000000" font-family="sans-serif" font-size="13" lengthAdjust="spacing" textLength="7" x="274.6663" y="168.1452">1</text><text fill="#000000" font-family="sans-serif" font-size="13" lengthAdjust="spacing" textLength="7" x="249.5219" y="122.9019">1</text></g><!--link Store to Agent--><g id="link_Store_Agent"><path codeLine="74" d="M277.62,55 C306.44,55 343.31,55 366.29,55 " fill="none" id="Store-Agent" style="stroke:#181818;stroke-width:1.0;"/><polygon fill="#000000" points="305,44.2617,295.9549,41.3228,295.9549,47.2006,305,44.2617" style="stroke:#000000;stroke-width:1.0;"/><text fill="#000000" font-family="sans-serif" font-size="13" lengthAdjust="spacing" textLength="39" x="309" y="48.7686">has an</text><text fill="#000000" font-family="sans-serif" font-size="13" lengthAdjust="spacing" textLength="7" x="285.5469" y="51.593">1</text><text fill="#000000" font-family="sans-serif" font-size="13" lengthAdjust="spacing" textLength="5" x="353.5731" y="50.678">*</text></g><!--link StoreNetworkManager to AgencyEmployee--><g id="link_StoreNetworkManager_AgencyEmployee"><path codeLine="75" d="M532.68,213.09 C486.45,228.18 416.91,250.87 365.34,267.7 " fill="none" id="StoreNetworkManager-to-AgencyEmployee" style="stroke:#181818;stroke-width:1.0;"/><polygon fill="none" points="367.38,274.4,346.19,273.95,363.03,261.09,367.38,274.4" style="stroke:#181818;stroke-width:1.0;"/></g><!--link Employee to User--><g id="link_Employee_User"><path codeLine="76" d="M458.13,418.21 C458.22,428.83 458.33,443.5 458.46,458.61 " fill="none" id="Employee-to-User" style="stroke:#181818;stroke-width:1.0;"/><polygon fill="none" points="465.46,458.71,458.62,478.76,451.46,458.82,465.46,458.71" style="stroke:#181818;stroke-width:1.0;"/></g><!--link AgencyEmployee to Employee--><g id="link_AgencyEmployee_Employee"><path codeLine="77" d="M321.1,308.17 C346.43,325.16 386.72,352.19 417.05,372.53 " fill="none" id="AgencyEmployee-to-Employee" style="stroke:#181818;stroke-width:1.0;"/><polygon fill="none" points="421.29,366.94,434,383.9,413.49,378.57,421.29,366.94" style="stroke:#181818;stroke-width:1.0;"/></g><!--link StoreEmployee to AgencyEmployee--><g id="link_StoreEmployee_AgencyEmployee"><path codeLine="78" d="M292.87,213.2 C293.47,224.4 294.3,239.76 295.05,253.8 " fill="none" id="StoreEmployee-to-AgencyEmployee" style="stroke:#181818;stroke-width:1.0;"/><polygon fill="none" points="302.06,253.64,296.14,273.99,288.08,254.39,302.06,253.64" style="stroke:#181818;stroke-width:1.0;"/></g><!--link Store to Adress--><g id="link_Store_Adress"><path codeLine="80" d="M208.97,103.08 C196.83,129.32 185,163.07 185,195 C185,195 185,195 185,528 C185,580.4 215.36,633.74 239.79,668.19 " fill="none" id="Store-Adress" style="stroke:#181818;stroke-width:1.0;"/><polygon fill="#000000" points="190.2723,351.2543,192.7143,342.0626,186.8452,342.3827,190.2723,351.2543" style="stroke:#000000;stroke-width:1.0;"/><text fill="#000000" font-family="sans-serif" font-size="13" lengthAdjust="spacing" textLength="32" x="199" y="350.7686">has a</text><text fill="#000000" font-family="sans-serif" font-size="13" lengthAdjust="spacing" textLength="7" x="197.6328" y="122.962">1</text><text fill="#000000" font-family="sans-serif" font-size="13" lengthAdjust="spacing" textLength="7" x="224.9946" y="655.4436">1</text></g><!--SRC=[TLBBRjim4BplLonyB12WkGQ50Hzww2514BSVG9CRYJ1V8DT8bJJ_NegK5D6FYoXnPcTtPvIEsWKHXKNhdPTzz9QGuuaWBKWGyYWwslDW22D95gupQqBgXV9lsdNuAamYM47IY9Hsp54VJao_f7Tx_Kxu7Q3NYb3gABDKURV4lLS9eDJWdqGHFy09Iq1MQ0EXzuxGdUo18eJCUVDHmUV4VywFu2EFDPKo8x_5twToSmdjLAHyV43YICGWDG-WTFxIalEbO89t7QHNb6lceewS77AHegGx9rXxTst4pnL_76iHsBEFDE-s5c4oL2GckLdXnHkg_MJKeL03HQjJogzfeUs7n6HtocethY1ocz9srVLHk1pbnVKJSJRpU8d-jC7uWSRkRSKAE3EcHKgCc_iDtjsLOuxf0NkHKE3sWh74TPjIOvjmrn0ClN8bZQPzIKoX5KxKNJ-HoYvVh6iEvgR_jeiHKDEibzXw0Ot5cJ8Easaj2SviEXkxeWyOJowD4pLctnZ_GCQxBY7xQLF6pRT6jVvoYsC_u5hiPQTsEbXQ5t3q-Np-rfvstckAbN8pJjp-1m00]--></g></svg>