<?xml version="1.0" encoding="us-ascii" standalone="no"?><svg xmlns="http://www.w3.org/2000/svg" xmlns:xlink="http://www.w3.org/1999/xlink" contentStyleType="text/css" height="417px" preserveAspectRatio="none" style="width:452px;height:417px;background:#FFFFFF;" version="1.1" viewBox="0 0 452 417" width="452px" zoomAndPan="magnify"><defs/><g><text fill="#000000" font-family="sans-serif" font-size="14" font-weight="bold" lengthAdjust="spacing" textLength="288" x="81.25" y="27.6738">System Sequence Diagram (SSD) - US 007</text><rect fill="#FFFFFF" height="201.1875" style="stroke:#181818;stroke-width:1.0;" width="10" x="59.5" y="127.2813"/><rect fill="#FFFFFF" height="43.0469" style="stroke:#181818;stroke-width:1.0;" width="10" x="409.5" y="147.8047"/><rect fill="#FFFFFF" height="43.0469" style="stroke:#181818;stroke-width:1.0;" width="10" x="409.5" y="219.375"/><rect fill="#FFFFFF" height="28.5234" style="stroke:#181818;stroke-width:1.0;" width="10" x="409.5" y="290.9453"/><line style="stroke:#181818;stroke-width:0.5;stroke-dasharray:5.0,5.0;" x1="64" x2="64" y1="117.2813" y2="337.4688"/><line style="stroke:#181818;stroke-width:0.5;stroke-dasharray:5.0,5.0;" x1="414.5" x2="414.5" y1="117.2813" y2="337.4688"/><text fill="#000000" font-family="sans-serif" font-size="14" lengthAdjust="spacing" textLength="113" x="5" y="114.3145">Unregistered user</text><ellipse cx="64.5" cy="50.1406" fill="#E3E3E3" rx="8" ry="8" style="stroke:#181818;stroke-width:0.5;"/><path d="M64.5,58.1406 L64.5,85.1406 M51.5,66.1406 L77.5,66.1406 M64.5,85.1406 L51.5,100.1406 M64.5,85.1406 L77.5,100.1406 " fill="none" style="stroke:#181818;stroke-width:0.5;"/><text fill="#000000" font-family="sans-serif" font-size="14" lengthAdjust="spacing" textLength="113" x="5" y="349.1426">Unregistered user</text><ellipse cx="64.5" cy="360.6094" fill="#E3E3E3" rx="8" ry="8" style="stroke:#181818;stroke-width:0.5;"/><path d="M64.5,368.6094 L64.5,395.6094 M51.5,376.6094 L77.5,376.6094 M64.5,395.6094 L51.5,410.6094 M64.5,395.6094 L77.5,410.6094 " fill="none" style="stroke:#181818;stroke-width:0.5;"/><rect fill="#E3E3E3" height="29.6406" rx="2.5" ry="2.5" style="stroke:#181818;stroke-width:0.5;" width="64" x="382.5" y="86.6406"/><text fill="#000000" font-family="sans-serif" font-size="14" lengthAdjust="spacing" textLength="50" x="389.5" y="106.3145">:System</text><rect fill="#E3E3E3" height="29.6406" rx="2.5" ry="2.5" style="stroke:#181818;stroke-width:0.5;" width="64" x="382.5" y="336.4688"/><text fill="#000000" font-family="sans-serif" font-size="14" lengthAdjust="spacing" textLength="50" x="389.5" y="356.1426">:System</text><rect fill="#FFFFFF" height="201.1875" style="stroke:#181818;stroke-width:1.0;" width="10" x="59.5" y="127.2813"/><rect fill="#FFFFFF" height="43.0469" style="stroke:#181818;stroke-width:1.0;" width="10" x="409.5" y="147.8047"/><rect fill="#FFFFFF" height="43.0469" style="stroke:#181818;stroke-width:1.0;" width="10" x="409.5" y="219.375"/><rect fill="#FFFFFF" height="28.5234" style="stroke:#181818;stroke-width:1.0;" width="10" x="409.5" y="290.9453"/><polygon fill="#181818" points="397.5,143.8047,407.5,147.8047,397.5,151.8047,401.5,147.8047" style="stroke:#181818;stroke-width:1.0;"/><line style="stroke:#181818;stroke-width:1.0;" x1="69.5" x2="403.5" y1="147.8047" y2="147.8047"/><text fill="#000000" font-family="sans-serif" font-size="13" font-weight="bold" lengthAdjust="spacing" textLength="7" x="76.5" y="143.0498">1</text><text fill="#000000" font-family="sans-serif" font-size="13" lengthAdjust="spacing" textLength="173" x="87.5" y="143.0498">asks to register in the system</text><polygon fill="#181818" points="80.5,186.8516,70.5,190.8516,80.5,194.8516,76.5,190.8516" style="stroke:#181818;stroke-width:1.0;"/><line style="stroke:#181818;stroke-width:1.0;stroke-dasharray:2.0,2.0;" x1="74.5" x2="413.5" y1="190.8516" y2="190.8516"/><text fill="#000000" font-family="sans-serif" font-size="13" font-weight="bold" lengthAdjust="spacing" textLength="7" x="86.5" y="178.835">2</text><text fill="#000000" font-family="sans-serif" font-size="13" lengthAdjust="spacing" textLength="301" x="97.5" y="171.5732">requests data (name, passport number, tax number,</text><text fill="#000000" font-family="sans-serif" font-size="13" lengthAdjust="spacing" textLength="271" x="97.5" y="186.0967">address, email address and telephone number)</text><polygon fill="#181818" points="397.5,215.375,407.5,219.375,397.5,223.375,401.5,219.375" style="stroke:#181818;stroke-width:1.0;"/><line style="stroke:#181818;stroke-width:1.0;" x1="69.5" x2="403.5" y1="219.375" y2="219.375"/><text fill="#000000" font-family="sans-serif" font-size="13" font-weight="bold" lengthAdjust="spacing" textLength="7" x="76.5" y="214.6201">3</text><text fill="#000000" font-family="sans-serif" font-size="13" lengthAdjust="spacing" textLength="68" x="87.5" y="214.6201">inserts data</text><polygon fill="#181818" points="80.5,258.4219,70.5,262.4219,80.5,266.4219,76.5,262.4219" style="stroke:#181818;stroke-width:1.0;"/><line style="stroke:#181818;stroke-width:1.0;stroke-dasharray:2.0,2.0;" x1="74.5" x2="413.5" y1="262.4219" y2="262.4219"/><text fill="#000000" font-family="sans-serif" font-size="13" font-weight="bold" lengthAdjust="spacing" textLength="7" x="86.5" y="250.4053">4</text><text fill="#000000" font-family="sans-serif" font-size="13" lengthAdjust="spacing" textLength="216" x="97.5" y="243.1436">shows the role types (owner or client)</text><text fill="#000000" font-family="sans-serif" font-size="13" lengthAdjust="spacing" textLength="132" x="97.5" y="257.667">and asks to select one</text><polygon fill="#181818" points="397.5,286.9453,407.5,290.9453,397.5,294.9453,401.5,290.9453" style="stroke:#181818;stroke-width:1.0;"/><line style="stroke:#181818;stroke-width:1.0;" x1="69.5" x2="403.5" y1="290.9453" y2="290.9453"/><text fill="#000000" font-family="sans-serif" font-size="13" font-weight="bold" lengthAdjust="spacing" textLength="7" x="76.5" y="286.1904">5</text><text fill="#000000" font-family="sans-serif" font-size="13" lengthAdjust="spacing" textLength="89" x="87.5" y="286.1904">selects the role</text><polygon fill="#181818" points="80.5,315.4688,70.5,319.4688,80.5,323.4688,76.5,319.4688" style="stroke:#181818;stroke-width:1.0;"/><line style="stroke:#181818;stroke-width:1.0;stroke-dasharray:2.0,2.0;" x1="74.5" x2="413.5" y1="319.4688" y2="319.4688"/><text fill="#000000" font-family="sans-serif" font-size="13" font-weight="bold" lengthAdjust="spacing" textLength="7" x="86.5" y="314.7139">6</text><text fill="#000000" font-family="sans-serif" font-size="13" lengthAdjust="spacing" textLength="259" x="97.5" y="314.7139">shows confirmation of successful registration</text><!--SRC=[fLBBRjj03BphAmO-sO0D-1R0Xvxo1u9lkJ0hMbfOuYfBggx_FjJ3hj4qHP7iYI9dXpEZrNEKdZ9rw9AaqEJKCImFNEXzqbCuKysbNLj6vc0aTVi8q8QgT8bIuqIjSb5OD8UMLpNkKFBRm18Opv7g4Ruko-SDTZYMsE-VYe86Ip9qhvoz3fOoLaV9N4U_dhd2e9nN8CNmq3rwi_3r5aFiIGohmxnlGixbo1P_al77cmNy_Dd5xiTDzC5PpWfBk44G1TOmTAOUxz_fbtLJSpmBoSxvFkmuEAC7egQeo0XheOwt7h9gdx9XJc8Ber_t-aMegZAhRi4TnHRB9qWg6BVSDqbuWMyc6HN_LTq_BKVnpgBhEmQrIHUTmih9tu5TUrQiqqLywdytj975DgChbt_BMTr6CBYFB-kVANvl_jp3_-WFIKunTsGn2T89EeJWcP-6TdaJUHfzelOT]--></g></svg>