<?xml version="1.0" encoding="us-ascii" standalone="no"?><svg xmlns="http://www.w3.org/2000/svg" xmlns:xlink="http://www.w3.org/1999/xlink" contentStyleType="text/css" height="478px" preserveAspectRatio="none" style="width:527px;height:478px;background:#FFFFFF;" version="1.1" viewBox="0 0 527 478" width="527px" zoomAndPan="magnify"><defs/><g><text fill="#000000" font-family="sans-serif" font-size="14" font-weight="bold" lengthAdjust="spacing" textLength="288" x="120.75" y="27.6738">System Sequence Diagram (SSD) - US 007</text><rect fill="#FFFFFF" height="262" style="stroke:#181818;stroke-width:1.0;" width="10" x="84.5" y="127.2813"/><rect fill="#FFFFFF" height="43.0469" style="stroke:#181818;stroke-width:1.0;" width="10" x="463.5" y="147.8047"/><rect fill="#FFFFFF" height="52.0469" style="stroke:#181818;stroke-width:1.0;" width="10" x="463.5" y="219.375"/><rect fill="#FFFFFF" height="28.5234" style="stroke:#181818;stroke-width:1.0;" width="10" x="463.5" y="337.7578"/><rect fill="none" height="146.9063" style="stroke:#000000;stroke-width:1.5;" width="510.5" x="10" y="234.375"/><rect fill="none" height="73.5703" style="stroke:#000000;stroke-width:1.5;" width="490.5" x="20" y="300.7109"/><line style="stroke:#181818;stroke-width:0.5;stroke-dasharray:5.0,5.0;" x1="89" x2="89" y1="117.2813" y2="398.2813"/><line style="stroke:#181818;stroke-width:0.5;stroke-dasharray:5.0,5.0;" x1="468.5" x2="468.5" y1="117.2813" y2="398.2813"/><text fill="#000000" font-family="sans-serif" font-size="14" lengthAdjust="spacing" textLength="113" x="30" y="114.3145">Unregistered user</text><ellipse cx="89.5" cy="50.1406" fill="#E3E3E3" rx="8" ry="8" style="stroke:#181818;stroke-width:0.5;"/><path d="M89.5,58.1406 L89.5,85.1406 M76.5,66.1406 L102.5,66.1406 M89.5,85.1406 L76.5,100.1406 M89.5,85.1406 L102.5,100.1406 " fill="none" style="stroke:#181818;stroke-width:0.5;"/><text fill="#000000" font-family="sans-serif" font-size="14" lengthAdjust="spacing" textLength="113" x="30" y="409.9551">Unregistered user</text><ellipse cx="89.5" cy="421.4219" fill="#E3E3E3" rx="8" ry="8" style="stroke:#181818;stroke-width:0.5;"/><path d="M89.5,429.4219 L89.5,456.4219 M76.5,437.4219 L102.5,437.4219 M89.5,456.4219 L76.5,471.4219 M89.5,456.4219 L102.5,471.4219 " fill="none" style="stroke:#181818;stroke-width:0.5;"/><rect fill="#E3E3E3" height="29.6406" rx="2.5" ry="2.5" style="stroke:#181818;stroke-width:0.5;" width="64" x="436.5" y="86.6406"/><text fill="#000000" font-family="sans-serif" font-size="14" lengthAdjust="spacing" textLength="50" x="443.5" y="106.3145">:System</text><rect fill="#E3E3E3" height="29.6406" rx="2.5" ry="2.5" style="stroke:#181818;stroke-width:0.5;" width="64" x="436.5" y="397.2813"/><text fill="#000000" font-family="sans-serif" font-size="14" lengthAdjust="spacing" textLength="50" x="443.5" y="416.9551">:System</text><rect fill="#FFFFFF" height="262" style="stroke:#181818;stroke-width:1.0;" width="10" x="84.5" y="127.2813"/><rect fill="#FFFFFF" height="43.0469" style="stroke:#181818;stroke-width:1.0;" width="10" x="463.5" y="147.8047"/><rect fill="#FFFFFF" height="52.0469" style="stroke:#181818;stroke-width:1.0;" width="10" x="463.5" y="219.375"/><rect fill="#FFFFFF" height="28.5234" style="stroke:#181818;stroke-width:1.0;" width="10" x="463.5" y="337.7578"/><polygon fill="#181818" points="451.5,143.8047,461.5,147.8047,451.5,151.8047,455.5,147.8047" style="stroke:#181818;stroke-width:1.0;"/><line style="stroke:#181818;stroke-width:1.0;" x1="94.5" x2="457.5" y1="147.8047" y2="147.8047"/><text fill="#000000" font-family="sans-serif" font-size="13" font-weight="bold" lengthAdjust="spacing" textLength="7" x="101.5" y="143.0498">1</text><text fill="#000000" font-family="sans-serif" font-size="13" lengthAdjust="spacing" textLength="173" x="112.5" y="143.0498">asks to register in the system</text><polygon fill="#181818" points="105.5,186.8516,95.5,190.8516,105.5,194.8516,101.5,190.8516" style="stroke:#181818;stroke-width:1.0;"/><line style="stroke:#181818;stroke-width:1.0;stroke-dasharray:2.0,2.0;" x1="99.5" x2="467.5" y1="190.8516" y2="190.8516"/><text fill="#000000" font-family="sans-serif" font-size="13" font-weight="bold" lengthAdjust="spacing" textLength="7" x="111.5" y="178.835">2</text><text fill="#000000" font-family="sans-serif" font-size="13" lengthAdjust="spacing" textLength="330" x="122.5" y="171.5732">requests data (name, passport card number, tax number,</text><text fill="#000000" font-family="sans-serif" font-size="13" lengthAdjust="spacing" textLength="334" x="122.5" y="186.0967">address, email address, telephone number and password)</text><polygon fill="#181818" points="451.5,215.375,461.5,219.375,451.5,223.375,455.5,219.375" style="stroke:#181818;stroke-width:1.0;"/><line style="stroke:#181818;stroke-width:1.0;" x1="94.5" x2="457.5" y1="219.375" y2="219.375"/><text fill="#000000" font-family="sans-serif" font-size="13" font-weight="bold" lengthAdjust="spacing" textLength="7" x="101.5" y="214.6201">3</text><text fill="#000000" font-family="sans-serif" font-size="13" lengthAdjust="spacing" textLength="68" x="112.5" y="214.6201">inserts data</text><path d="M10,234.375 L71,234.375 L71,240.8984 L61,250.8984 L10,250.8984 L10,234.375 " fill="#EEEEEE" style="stroke:#000000;stroke-width:1.5;"/><rect fill="none" height="146.9063" style="stroke:#000000;stroke-width:1.5;" width="510.5" x="10" y="234.375"/><text fill="#000000" font-family="sans-serif" font-size="13" font-weight="bold" lengthAdjust="spacing" textLength="16" x="25" y="247.1436">alt</text><text fill="#000000" font-family="sans-serif" font-size="11" font-weight="bold" lengthAdjust="spacing" textLength="89" x="86" y="246.333">[valid operation]</text><polygon fill="#181818" points="105.5,267.4219,95.5,271.4219,105.5,275.4219,101.5,271.4219" style="stroke:#181818;stroke-width:1.0;"/><line style="stroke:#181818;stroke-width:1.0;stroke-dasharray:2.0,2.0;" x1="99.5" x2="467.5" y1="271.4219" y2="271.4219"/><text fill="#000000" font-family="sans-serif" font-size="13" font-weight="bold" lengthAdjust="spacing" textLength="7" x="111.5" y="266.667">4</text><text fill="#000000" font-family="sans-serif" font-size="13" lengthAdjust="spacing" textLength="147" x="122.5" y="266.667">shows operation success</text><line style="stroke:#000000;stroke-width:1.0;stroke-dasharray:2.0,2.0;" x1="10" x2="520.5" y1="280.4219" y2="280.4219"/><text fill="#000000" font-family="sans-serif" font-size="11" font-weight="bold" lengthAdjust="spacing" textLength="99" x="15" y="290.3799">[invalid operation]</text><path d="M20,300.7109 L93,300.7109 L93,307.2344 L83,317.2344 L20,317.2344 L20,300.7109 " fill="#EEEEEE" style="stroke:#000000;stroke-width:1.5;"/><rect fill="none" height="73.5703" style="stroke:#000000;stroke-width:1.5;" width="490.5" x="20" y="300.7109"/><text fill="#000000" font-family="sans-serif" font-size="13" font-weight="bold" lengthAdjust="spacing" textLength="28" x="35" y="313.4795">loop</text><text fill="#000000" font-family="sans-serif" font-size="11" font-weight="bold" lengthAdjust="spacing" textLength="187" x="108" y="312.6689">[while the inserted data is wrong]</text><polygon fill="#181818" points="105.5,333.7578,95.5,337.7578,105.5,341.7578,101.5,337.7578" style="stroke:#181818;stroke-width:1.0;"/><line style="stroke:#181818;stroke-width:1.0;stroke-dasharray:2.0,2.0;" x1="99.5" x2="462.5" y1="337.7578" y2="337.7578"/><text fill="#000000" font-family="sans-serif" font-size="13" font-weight="bold" lengthAdjust="spacing" textLength="7" x="111.5" y="333.0029">5</text><text fill="#000000" font-family="sans-serif" font-size="13" lengthAdjust="spacing" textLength="180" x="122.5" y="333.0029">asks to reinsert the invalid data</text><polygon fill="#181818" points="456.5,362.2813,466.5,366.2813,456.5,370.2813,460.5,366.2813" style="stroke:#181818;stroke-width:1.0;"/><line style="stroke:#181818;stroke-width:1.0;" x1="94.5" x2="462.5" y1="366.2813" y2="366.2813"/><text fill="#000000" font-family="sans-serif" font-size="13" font-weight="bold" lengthAdjust="spacing" textLength="7" x="101.5" y="361.5264">6</text><text fill="#000000" font-family="sans-serif" font-size="13" lengthAdjust="spacing" textLength="253" x="112.5" y="361.5264">reinserts the data that the system asked for</text><!--SRC=[ZLBBJiD03BpdAwoUG6gbtf1wuCGVHBrnCRicMJMnmzeXyFSuZvQAbiAU76SyCpjhFIJkC6CBhR24EajBOBcdGaz_EWm7hAYqpuOWKp3agZa7Q8rHXiGLl6AZL1IMpA7bfngrKD9RJnm8dX9M8_okB9_kOGFx4hRRXwB0teJxzeMory4amshFcQhauvaYz4fv1QZGdtNttYnStb987RB1QZVhJSYv7DdIEnfTJXRWvsSNDez7qpjdEIYOm142YS5g0fsfn_aJ_I8tDSUpa6oSxq9ZvumUY9f2H4EuOsnfxI6hTf8D0kO8SnnhCFmurS-CCMPINGErc1euVHerrDN2j601EKw4W-HuFxcATDNipGGIUsUnUVM-KwynUCScHP2ECbeIdgblPw2r3Fez0jg7u7UvvPLyjTpJLR56f8EXJhvrunlDpdrrfeIJmf25g__u-dxrcMEXcqL_3UBlB8zyEX5Ejgn6EzkeKTeTlqg-6GB77yKby0i0]--></g></svg>