<?xml version="1.0" encoding="us-ascii" standalone="no"?><svg xmlns="http://www.w3.org/2000/svg" xmlns:xlink="http://www.w3.org/1999/xlink" contentStyleType="text/css" height="1404px" preserveAspectRatio="none" style="width:725px;height:1404px;background:#FFFFFF;" version="1.1" viewBox="0 0 725 1404" width="725px" zoomAndPan="magnify"><defs/><g><!--class ShowLegacyDataUI--><g id="elem_ShowLegacyDataUI"><rect codeLine="11" fill="#F1F1F1" height="48" id="ShowLegacyDataUI" rx="2.5" ry="2.5" style="stroke:#181818;stroke-width:0.5;" width="154" x="285.5" y="7"/><ellipse cx="300.5" cy="23" fill="#ADD1B2" rx="11" ry="11" style="stroke:#181818;stroke-width:1.0;"/><path d="M302.5,19.5 Q302.7031,19 302.9375,18.75 Q303.1719,18.5 303.4375,18.5 Q303.9063,18.5 304.2031,18.7813 Q304.5,19.0625 304.5,19.7188 L304.5,21.2813 Q304.5,21.9375 304.2188,22.2188 Q303.9375,22.5 303.5,22.5 Q303.1094,22.5 302.8594,22.3281 Q302.6094,22.1563 302.5,21.7031 Q302.4531,21.3906 302.2813,21.2188 Q301.9688,20.8906 301.4063,20.7031 Q300.8438,20.5 300.2813,20.5 Q299.5781,20.5 298.9844,20.7813 Q298.4063,21.0625 297.9531,21.6875 Q297.5,22.3125 297.5,23.1719 L297.5,24.0938 Q297.5,25.125 298.3438,25.8125 Q299.1875,26.5 300.6875,26.5 Q301.5781,26.5 302.2031,26.2969 Q302.5625,26.1875 302.9688,25.8281 Q303.2344,25.625 303.375,25.5625 Q303.5156,25.5 303.6875,25.5 Q304.0156,25.5 304.25,25.7656 Q304.5,26.0156 304.5,26.375 Q304.5,26.7188 304.1563,27.125 Q303.6563,27.7188 302.8594,28.0469 Q301.8125,28.5 300.5313,28.5 Q299.0313,28.5 297.8281,27.9063 Q296.8594,27.4375 296.1719,26.4219 Q295.5,25.4063 295.5,24.2031 L295.5,23.1094 Q295.5,21.8594 296.0938,20.7656 Q296.7031,19.6719 297.75,19.0938 Q298.8125,18.5 300,18.5 Q300.7188,18.5 301.3438,18.75 Q301.9688,19 302.5,19.5 Z " fill="#000000"/><text fill="#000000" font-family="sans-serif" font-size="14" lengthAdjust="spacing" textLength="122" x="314.5" y="27.8535">ShowLegacyDataUI</text><line style="stroke:#181818;stroke-width:0.5;" x1="286.5" x2="438.5" y1="39" y2="39"/><line style="stroke:#181818;stroke-width:0.5;" x1="286.5" x2="438.5" y1="47" y2="47"/></g><!--class ShowLegacyDataController--><g id="elem_ShowLegacyDataController"><rect codeLine="14" fill="#F1F1F1" height="63.6406" id="ShowLegacyDataController" rx="2.5" ry="2.5" style="stroke:#181818;stroke-width:0.5;" width="268" x="228.5" y="116"/><ellipse cx="272.3" cy="132" fill="#ADD1B2" rx="11" ry="11" style="stroke:#181818;stroke-width:1.0;"/><path d="M274.3,128.5 Q274.5031,128 274.7375,127.75 Q274.9719,127.5 275.2375,127.5 Q275.7063,127.5 276.0031,127.7813 Q276.3,128.0625 276.3,128.7188 L276.3,130.2813 Q276.3,130.9375 276.0188,131.2188 Q275.7375,131.5 275.3,131.5 Q274.9094,131.5 274.6594,131.3281 Q274.4094,131.1563 274.3,130.7031 Q274.2531,130.3906 274.0813,130.2188 Q273.7688,129.8906 273.2063,129.7031 Q272.6438,129.5 272.0813,129.5 Q271.3781,129.5 270.7844,129.7813 Q270.2063,130.0625 269.7531,130.6875 Q269.3,131.3125 269.3,132.1719 L269.3,133.0938 Q269.3,134.125 270.1438,134.8125 Q270.9875,135.5 272.4875,135.5 Q273.3781,135.5 274.0031,135.2969 Q274.3625,135.1875 274.7688,134.8281 Q275.0344,134.625 275.175,134.5625 Q275.3156,134.5 275.4875,134.5 Q275.8156,134.5 276.05,134.7656 Q276.3,135.0156 276.3,135.375 Q276.3,135.7188 275.9563,136.125 Q275.4563,136.7188 274.6594,137.0469 Q273.6125,137.5 272.3313,137.5 Q270.8313,137.5 269.6281,136.9063 Q268.6594,136.4375 267.9719,135.4219 Q267.3,134.4063 267.3,133.2031 L267.3,132.1094 Q267.3,130.8594 267.8938,129.7656 Q268.5031,128.6719 269.55,128.0938 Q270.6125,127.5 271.8,127.5 Q272.5188,127.5 273.1438,127.75 Q273.7688,128 274.3,128.5 Z " fill="#000000"/><text fill="#000000" font-family="sans-serif" font-size="14" lengthAdjust="spacing" textLength="172" x="292.7" y="136.8535">ShowLegacyDataController</text><line style="stroke:#181818;stroke-width:0.5;" x1="229.5" x2="495.5" y1="148" y2="148"/><line style="stroke:#181818;stroke-width:0.5;" x1="229.5" x2="495.5" y1="156" y2="156"/><text fill="#000000" font-family="sans-serif" font-size="14" lengthAdjust="spacing" textLength="256" x="234.5" y="172.6738">+importInformationFromFile(String path);</text></g><!--class AgencyRepository--><g id="elem_AgencyRepository"><rect codeLine="18" fill="#F1F1F1" height="126.2031" id="AgencyRepository" rx="2.5" ry="2.5" style="stroke:#181818;stroke-width:0.5;" width="711" x="7" y="412"/><ellipse cx="300.75" cy="428" fill="#ADD1B2" rx="11" ry="11" style="stroke:#181818;stroke-width:1.0;"/><path d="M302.75,424.5 Q302.9531,424 303.1875,423.75 Q303.4219,423.5 303.6875,423.5 Q304.1563,423.5 304.4531,423.7813 Q304.75,424.0625 304.75,424.7188 L304.75,426.2813 Q304.75,426.9375 304.4688,427.2188 Q304.1875,427.5 303.75,427.5 Q303.3594,427.5 303.1094,427.3281 Q302.8594,427.1563 302.75,426.7031 Q302.7031,426.3906 302.5313,426.2188 Q302.2188,425.8906 301.6563,425.7031 Q301.0938,425.5 300.5313,425.5 Q299.8281,425.5 299.2344,425.7813 Q298.6563,426.0625 298.2031,426.6875 Q297.75,427.3125 297.75,428.1719 L297.75,429.0938 Q297.75,430.125 298.5938,430.8125 Q299.4375,431.5 300.9375,431.5 Q301.8281,431.5 302.4531,431.2969 Q302.8125,431.1875 303.2188,430.8281 Q303.4844,430.625 303.625,430.5625 Q303.7656,430.5 303.9375,430.5 Q304.2656,430.5 304.5,430.7656 Q304.75,431.0156 304.75,431.375 Q304.75,431.7188 304.4063,432.125 Q303.9063,432.7188 303.1094,433.0469 Q302.0625,433.5 300.7813,433.5 Q299.2813,433.5 298.0781,432.9063 Q297.1094,432.4375 296.4219,431.4219 Q295.75,430.4063 295.75,429.2031 L295.75,428.1094 Q295.75,426.8594 296.3438,425.7656 Q296.9531,424.6719 298,424.0938 Q299.0625,423.5 300.25,423.5 Q300.9688,423.5 301.5938,423.75 Q302.2188,424 302.75,424.5 Z " fill="#000000"/><text fill="#000000" font-family="sans-serif" font-size="14" lengthAdjust="spacing" textLength="115" x="321.25" y="432.8535">AgencyRepository</text><line style="stroke:#181818;stroke-width:0.5;" x1="8" x2="717" y1="444" y2="444"/><line style="stroke:#181818;stroke-width:0.5;" x1="8" x2="717" y1="452" y2="452"/><text fill="#000000" font-family="sans-serif" font-size="14" lengthAdjust="spacing" textLength="197" x="13" y="468.6738">-List&lt;Agency&gt; getAgencyList();</text><text fill="#000000" font-family="sans-serif" font-size="14" lengthAdjust="spacing" textLength="276" x="13" y="484.3145">-List&lt;Agency&gt; addAgency(Agency agency);</text><text fill="#000000" font-family="sans-serif" font-size="14" lengthAdjust="spacing" textLength="212" x="13" y="499.9551">-validateAgency(Agency agency);</text><text fill="#000000" font-family="sans-serif" font-size="14" lengthAdjust="spacing" textLength="699" x="13" y="515.5957">-Agency CreateAgency(int id, String designation, Address address, String emailAddress, String phoneNumber);</text><text fill="#000000" font-family="sans-serif" font-size="14" lengthAdjust="spacing" textLength="137" x="13" y="531.2363">+AgencyRepository();</text></g><!--class Repositories--><g id="elem_Repositories"><rect codeLine="26" fill="#F1F1F1" height="94.9219" id="Repositories" rx="2.5" ry="2.5" style="stroke:#181818;stroke-width:0.5;" width="254" x="235.5" y="256"/><ellipse cx="318.75" cy="272" fill="#ADD1B2" rx="11" ry="11" style="stroke:#181818;stroke-width:1.0;"/><path d="M320.75,268.5 Q320.9531,268 321.1875,267.75 Q321.4219,267.5 321.6875,267.5 Q322.1563,267.5 322.4531,267.7813 Q322.75,268.0625 322.75,268.7188 L322.75,270.2813 Q322.75,270.9375 322.4688,271.2188 Q322.1875,271.5 321.75,271.5 Q321.3594,271.5 321.1094,271.3281 Q320.8594,271.1563 320.75,270.7031 Q320.7031,270.3906 320.5313,270.2188 Q320.2188,269.8906 319.6563,269.7031 Q319.0938,269.5 318.5313,269.5 Q317.8281,269.5 317.2344,269.7813 Q316.6563,270.0625 316.2031,270.6875 Q315.75,271.3125 315.75,272.1719 L315.75,273.0938 Q315.75,274.125 316.5938,274.8125 Q317.4375,275.5 318.9375,275.5 Q319.8281,275.5 320.4531,275.2969 Q320.8125,275.1875 321.2188,274.8281 Q321.4844,274.625 321.625,274.5625 Q321.7656,274.5 321.9375,274.5 Q322.2656,274.5 322.5,274.7656 Q322.75,275.0156 322.75,275.375 Q322.75,275.7188 322.4063,276.125 Q321.9063,276.7188 321.1094,277.0469 Q320.0625,277.5 318.7813,277.5 Q317.2813,277.5 316.0781,276.9063 Q315.1094,276.4375 314.4219,275.4219 Q313.75,274.4063 313.75,273.2031 L313.75,272.1094 Q313.75,270.8594 314.3438,269.7656 Q314.9531,268.6719 316,268.0938 Q317.0625,267.5 318.25,267.5 Q318.9688,267.5 319.5938,267.75 Q320.2188,268 320.75,268.5 Z " fill="#000000"/><text fill="#000000" font-family="sans-serif" font-size="14" lengthAdjust="spacing" textLength="79" x="339.25" y="276.8535">Repositories</text><line style="stroke:#181818;stroke-width:0.5;" x1="236.5" x2="488.5" y1="288" y2="288"/><text fill="#000000" font-family="sans-serif" font-size="14" lengthAdjust="spacing" textLength="242" x="241.5" y="304.6738">-AgencyRepository agencyRepository;</text><line style="stroke:#181818;stroke-width:0.5;" x1="236.5" x2="488.5" y1="311.6406" y2="311.6406"/><text fill="#000000" font-family="sans-serif" font-size="14" lengthAdjust="spacing" textLength="157" x="241.5" y="328.3145">+getAgencyRepository();</text><text fill="#000000" font-family="sans-serif" font-size="14" lengthAdjust="spacing" textLength="95" x="241.5" y="343.9551">+getInstance();</text></g><!--class Announcement--><g id="elem_Announcement"><rect codeLine="33" fill="#F1F1F1" height="439.0156" id="Announcement" rx="2.5" ry="2.5" style="stroke:#181818;stroke-width:0.5;" width="311" x="207" y="958"/><ellipse cx="310.75" cy="974" fill="#ADD1B2" rx="11" ry="11" style="stroke:#181818;stroke-width:1.0;"/><path d="M312.75,970.5 Q312.9531,970 313.1875,969.75 Q313.4219,969.5 313.6875,969.5 Q314.1563,969.5 314.4531,969.7813 Q314.75,970.0625 314.75,970.7188 L314.75,972.2813 Q314.75,972.9375 314.4688,973.2188 Q314.1875,973.5 313.75,973.5 Q313.3594,973.5 313.1094,973.3281 Q312.8594,973.1563 312.75,972.7031 Q312.7031,972.3906 312.5313,972.2188 Q312.2188,971.8906 311.6563,971.7031 Q311.0938,971.5 310.5313,971.5 Q309.8281,971.5 309.2344,971.7813 Q308.6563,972.0625 308.2031,972.6875 Q307.75,973.3125 307.75,974.1719 L307.75,975.0938 Q307.75,976.125 308.5938,976.8125 Q309.4375,977.5 310.9375,977.5 Q311.8281,977.5 312.4531,977.2969 Q312.8125,977.1875 313.2188,976.8281 Q313.4844,976.625 313.625,976.5625 Q313.7656,976.5 313.9375,976.5 Q314.2656,976.5 314.5,976.7656 Q314.75,977.0156 314.75,977.375 Q314.75,977.7188 314.4063,978.125 Q313.9063,978.7188 313.1094,979.0469 Q312.0625,979.5 310.7813,979.5 Q309.2813,979.5 308.0781,978.9063 Q307.1094,978.4375 306.4219,977.4219 Q305.75,976.4063 305.75,975.2031 L305.75,974.1094 Q305.75,972.8594 306.3438,971.7656 Q306.9531,970.6719 308,970.0938 Q309.0625,969.5 310.25,969.5 Q310.9688,969.5 311.5938,969.75 Q312.2188,970 312.75,970.5 Z " fill="#000000"/><text fill="#000000" font-family="sans-serif" font-size="14" lengthAdjust="spacing" textLength="95" x="331.25" y="978.8535">Announcement</text><line style="stroke:#181818;stroke-width:0.5;" x1="208" x2="517" y1="990" y2="990"/><text fill="#000000" font-family="sans-serif" font-size="14" lengthAdjust="spacing" textLength="120" x="213" y="1006.6738">-Property property;</text><text fill="#000000" font-family="sans-serif" font-size="14" lengthAdjust="spacing" textLength="105" x="213" y="1022.3145">-LocalDate date;</text><text fill="#000000" font-family="sans-serif" font-size="14" lengthAdjust="spacing" textLength="129" x="213" y="1037.9551">-double commission;</text><text fill="#000000" font-family="sans-serif" font-size="14" lengthAdjust="spacing" textLength="178" x="213" y="1053.5957">-RequestType requestType;</text><text fill="#000000" font-family="sans-serif" font-size="14" lengthAdjust="spacing" textLength="87" x="213" y="1069.2363">-double price;</text><text fill="#000000" font-family="sans-serif" font-size="14" lengthAdjust="spacing" textLength="92" x="213" y="1084.877">-Owner owner;</text><text fill="#000000" font-family="sans-serif" font-size="14" lengthAdjust="spacing" textLength="79" x="213" y="1100.5176">-Store store;</text><line style="stroke:#181818;stroke-width:0.5;" x1="208" x2="517" y1="1107.4844" y2="1107.4844"/><text fill="#000000" font-family="sans-serif" font-size="14" lengthAdjust="spacing" textLength="72" x="213" y="1124.1582">+getDate();</text><text fill="#000000" font-family="sans-serif" font-size="14" lengthAdjust="spacing" textLength="96" x="213" y="1139.7988">+getProperty();</text><text fill="#000000" font-family="sans-serif" font-size="14" lengthAdjust="spacing" textLength="118" x="213" y="1155.4395">+getCommission();</text><text fill="#000000" font-family="sans-serif" font-size="14" lengthAdjust="spacing" textLength="150" x="213" y="1171.0801">+getCommissionType();</text><text fill="#000000" font-family="sans-serif" font-size="14" lengthAdjust="spacing" textLength="127" x="213" y="1186.7207">+getRequestType();</text><text fill="#000000" font-family="sans-serif" font-size="14" lengthAdjust="spacing" textLength="74" x="213" y="1202.3613">+getPrice();</text><text fill="#000000" font-family="sans-serif" font-size="14" lengthAdjust="spacing" textLength="83" x="213" y="1218.002">+getOwner();</text><text fill="#000000" font-family="sans-serif" font-size="14" lengthAdjust="spacing" textLength="79" x="213" y="1233.6426">+getAgent();</text><text fill="#000000" font-family="sans-serif" font-size="14" lengthAdjust="spacing" textLength="76" x="213" y="1249.2832">+getStore();</text><text fill="#000000" font-family="sans-serif" font-size="14" lengthAdjust="spacing" textLength="171" x="213" y="1264.9238">+setDate (LocalDate date);</text><text fill="#000000" font-family="sans-serif" font-size="14" lengthAdjust="spacing" textLength="210" x="213" y="1280.5645">+setProperty (Property property);</text><text fill="#000000" font-family="sans-serif" font-size="14" lengthAdjust="spacing" textLength="241" x="213" y="1296.2051">+setCommission (double commission);</text><text fill="#000000" font-family="sans-serif" font-size="14" lengthAdjust="spacing" textLength="299" x="213" y="1311.8457">+setCommissionType (String commissionType);</text><text fill="#000000" font-family="sans-serif" font-size="14" lengthAdjust="spacing" textLength="299" x="213" y="1327.4863">+setRequestType (RequestType requestType);</text><text fill="#000000" font-family="sans-serif" font-size="14" lengthAdjust="spacing" textLength="162" x="213" y="1343.127">+setPrices (double price);</text><text fill="#000000" font-family="sans-serif" font-size="14" lengthAdjust="spacing" textLength="169" x="213" y="1358.7676">+setOwner (Owner owner);</text><text fill="#000000" font-family="sans-serif" font-size="14" lengthAdjust="spacing" textLength="159" x="213" y="1374.4082">+setAgent (Agent agent);</text><text fill="#000000" font-family="sans-serif" font-size="14" lengthAdjust="spacing" textLength="149" x="213" y="1390.0488">+setStore (Store store);</text></g><!--class Agency--><g id="elem_Agency"><rect codeLine="61" fill="#F1F1F1" height="282.6094" id="Agency" rx="2.5" ry="2.5" style="stroke:#181818;stroke-width:0.5;" width="277" x="224" y="599"/><ellipse cx="334.75" cy="615" fill="#ADD1B2" rx="11" ry="11" style="stroke:#181818;stroke-width:1.0;"/><path d="M336.75,611.5 Q336.9531,611 337.1875,610.75 Q337.4219,610.5 337.6875,610.5 Q338.1563,610.5 338.4531,610.7813 Q338.75,611.0625 338.75,611.7188 L338.75,613.2813 Q338.75,613.9375 338.4688,614.2188 Q338.1875,614.5 337.75,614.5 Q337.3594,614.5 337.1094,614.3281 Q336.8594,614.1563 336.75,613.7031 Q336.7031,613.3906 336.5313,613.2188 Q336.2188,612.8906 335.6563,612.7031 Q335.0938,612.5 334.5313,612.5 Q333.8281,612.5 333.2344,612.7813 Q332.6563,613.0625 332.2031,613.6875 Q331.75,614.3125 331.75,615.1719 L331.75,616.0938 Q331.75,617.125 332.5938,617.8125 Q333.4375,618.5 334.9375,618.5 Q335.8281,618.5 336.4531,618.2969 Q336.8125,618.1875 337.2188,617.8281 Q337.4844,617.625 337.625,617.5625 Q337.7656,617.5 337.9375,617.5 Q338.2656,617.5 338.5,617.7656 Q338.75,618.0156 338.75,618.375 Q338.75,618.7188 338.4063,619.125 Q337.9063,619.7188 337.1094,620.0469 Q336.0625,620.5 334.7813,620.5 Q333.2813,620.5 332.0781,619.9063 Q331.1094,619.4375 330.4219,618.4219 Q329.75,617.4063 329.75,616.2031 L329.75,615.1094 Q329.75,613.8594 330.3438,612.7656 Q330.9531,611.6719 332,611.0938 Q333.0625,610.5 334.25,610.5 Q334.9688,610.5 335.5938,610.75 Q336.2188,611 336.75,611.5 Z " fill="#000000"/><text fill="#000000" font-family="sans-serif" font-size="14" lengthAdjust="spacing" textLength="47" x="355.25" y="619.8535">Agency</text><line style="stroke:#181818;stroke-width:0.5;" x1="225" x2="500" y1="631" y2="631"/><text fill="#000000" font-family="sans-serif" font-size="14" lengthAdjust="spacing" textLength="39" x="230" y="647.6738">-int id;</text><text fill="#000000" font-family="sans-serif" font-size="14" lengthAdjust="spacing" textLength="123" x="230" y="663.3145">-String designation;</text><text fill="#000000" font-family="sans-serif" font-size="14" lengthAdjust="spacing" textLength="116" x="230" y="678.9551">-Address address;</text><text fill="#000000" font-family="sans-serif" font-size="14" lengthAdjust="spacing" textLength="135" x="230" y="694.5957">-String emailAddress;</text><text fill="#000000" font-family="sans-serif" font-size="14" lengthAdjust="spacing" textLength="139" x="230" y="710.2363">-String phoneNumber;</text><text fill="#000000" font-family="sans-serif" font-size="14" lengthAdjust="spacing" textLength="45" x="230" y="725.877">+getID;</text><text fill="#000000" font-family="sans-serif" font-size="14" lengthAdjust="spacing" textLength="107" x="230" y="741.5176">+getDesignation;</text><text fill="#000000" font-family="sans-serif" font-size="14" lengthAdjust="spacing" textLength="84" x="230" y="757.1582">+getAddress;</text><text fill="#000000" font-family="sans-serif" font-size="14" lengthAdjust="spacing" textLength="118" x="230" y="772.7988">+getEmailAddress;</text><text fill="#000000" font-family="sans-serif" font-size="14" lengthAdjust="spacing" textLength="122" x="230" y="788.4395">+getPhoneNumber;</text><line style="stroke:#181818;stroke-width:0.5;" x1="225" x2="500" y1="795.4063" y2="795.4063"/><text fill="#000000" font-family="sans-serif" font-size="14" lengthAdjust="spacing" textLength="204" x="230" y="812.0801">+setAddress (Address address);</text><text fill="#000000" font-family="sans-serif" font-size="14" lengthAdjust="spacing" textLength="234" x="230" y="827.7207">+setDesignation (String designation);</text><text fill="#000000" font-family="sans-serif" font-size="14" lengthAdjust="spacing" textLength="257" x="230" y="843.3613">+setEmailAddress (String emailAddress);</text><text fill="#000000" font-family="sans-serif" font-size="14" lengthAdjust="spacing" textLength="88" x="230" y="859.002">+setID (int id);</text><text fill="#000000" font-family="sans-serif" font-size="14" lengthAdjust="spacing" textLength="265" x="230" y="874.6426">+setPhoneNumber (String phoneNumber);</text></g><!--link ShowLegacyDataUI to ShowLegacyDataController--><g id="link_ShowLegacyDataUI_ShowLegacyDataController"><path codeLine="79" d="M362.5,55.27 C362.5,71.23 362.5,92.72 362.5,110.88 " fill="none" id="ShowLegacyDataUI-to-ShowLegacyDataController" style="stroke:#181818;stroke-width:1.0;stroke-dasharray:7.0,7.0;"/><polygon fill="#181818" points="362.5,115.91,366.5,106.91,362.5,110.91,358.5,106.91,362.5,115.91" style="stroke:#181818;stroke-width:1.0;"/></g><!--link ShowLegacyDataController to Repositories--><g id="link_ShowLegacyDataController_Repositories"><path codeLine="80" d="M362.5,180.06 C362.5,200.26 362.5,227.1 362.5,250.5 " fill="none" id="ShowLegacyDataController-to-Repositories" style="stroke:#181818;stroke-width:1.0;stroke-dasharray:7.0,7.0;"/><polygon fill="#181818" points="362.5,255.74,366.5,246.74,362.5,250.74,358.5,246.74,362.5,255.74" style="stroke:#181818;stroke-width:1.0;"/><text fill="#000000" font-family="sans-serif" font-size="13" lengthAdjust="spacing" textLength="67" x="363.5" y="222.7686">repositories</text></g><!--link Repositories to AgencyRepository--><g id="link_Repositories_AgencyRepository"><path codeLine="81" d="M362.5,351.27 C362.5,368.37 362.5,388.08 362.5,406.63 " fill="none" id="Repositories-to-AgencyRepository" style="stroke:#181818;stroke-width:1.0;"/><polygon fill="#181818" points="362.5,411.83,366.5,402.83,362.5,406.83,358.5,402.83,362.5,411.83" style="stroke:#181818;stroke-width:1.0;"/></g><!--link AgencyRepository to Agency--><g id="link_AgencyRepository_Agency"><path codeLine="82" d="M362.5,538.11 C362.5,554.94 362.5,573.9 362.5,593.27 " fill="none" id="AgencyRepository-to-Agency" style="stroke:#181818;stroke-width:1.0;"/><polygon fill="#181818" points="362.5,598.75,366.5,589.75,362.5,593.75,358.5,589.75,362.5,598.75" style="stroke:#181818;stroke-width:1.0;"/><text fill="#000000" font-family="sans-serif" font-size="13" lengthAdjust="spacing" textLength="7" x="355.0953" y="558.0035">1</text><text fill="#000000" font-family="sans-serif" font-size="13" lengthAdjust="spacing" textLength="24" x="337.8438" y="588.4088">0...*</text></g><!--link Agency to Announcement--><g id="link_Agency_Announcement"><path codeLine="83" d="M362.5,882.13 C362.5,904.73 362.5,928.59 362.5,952.56 " fill="none" id="Agency-to-Announcement" style="stroke:#181818;stroke-width:1.0;"/><polygon fill="#181818" points="362.5,957.68,366.5,948.68,362.5,952.68,358.5,948.68,362.5,957.68" style="stroke:#181818;stroke-width:1.0;"/><text fill="#000000" font-family="sans-serif" font-size="13" lengthAdjust="spacing" textLength="21" x="363.5" y="924.7686">has</text><text fill="#000000" font-family="sans-serif" font-size="13" lengthAdjust="spacing" textLength="7" x="355.3195" y="901.5859">1</text><text fill="#000000" font-family="sans-serif" font-size="13" lengthAdjust="spacing" textLength="20" x="342.1406" y="947.3063">0..*</text></g><!--SRC=[TLJBRjim4BppAnQ-H6bY8xssHG0ZRW03GLl4xGSmr4OY8f4gIJTGZVvx-P35bMnV979c7yDTSg_icrGTDxo5LYijQgDR16Vso3BJSV76Azovla4mA1nNLKCDRCrB_IvL1Q-yiPHff4BNTmYTRlgmOLTdI6sSPiHBDDpQjND6lkmTReLME_aNuOwngmPV7JWDHbQrWr86EL8hng8Fx6hz_eGL5_s6E_vhUs3_pbCFMZcZcmRDWTt8jlCIjkfLcvQ7S8- -38-omMBdDVXZTTpLrvzph7M5IlJFs6ahdJRzWIsVf7LV4duF5Rgq36ZXFQSqBykqBD8FUFm5kp-yaILtU8aVW0U3sKWg1xAyXK5iYLPMAfxZ5jPbQT0hvka_6c7BPREUWLsj5NxRjozeVAwR-IaBMe8HbcWFHrtPTf2S0HzlhCeqPC2tolfR9N18SIopKdhlqHQLEp00MFumkaFZUkY6nUS8Fsd16zzMX52xX9Lw_-Blgz1jAwtrnKZmC_xUetK_mxqpUJtnwOmK0_BzNQ417Ru9s7dP23Py8n3KXyn1-R0zYYJGmwZYB1WK489ed8ILWkwZDB8FjNLa7vKUzpQfX69QgioEbIrEQfoDic8eJkfxpYoM-VYAn0JEvhGbnON-KA6-37RC7tkLsTIlWhGjSx50KAHVk9ykSwcj1UdkwNjFLp2zjkDbcB-uXCzUtSIOlhm9GLvVn6CJjvkytipIfAwJI17uEe-VBiz9S3lw-f9CzLvd4v9px2CvBh6aUKTJUbXYkzt0CBK8I2IE_jE9vFin7_2mMjrV7Eti4X6zw0I3J_wovIsRSClb_Sd4PoS3R_5n4IqNTwlLwiDYy1Zi9cmWoMJpkMjk6ViF]--></g></svg>