<?xml version="1.0" encoding="us-ascii" standalone="no"?><svg xmlns="http://www.w3.org/2000/svg" xmlns:xlink="http://www.w3.org/1999/xlink" contentStyleType="text/css" height="417px" preserveAspectRatio="none" style="width:545px;height:417px;background:#FFFFFF;" version="1.1" viewBox="0 0 545 417" width="545px" zoomAndPan="magnify"><defs/><g><text fill="#000000" font-family="sans-serif" font-size="14" font-weight="bold" lengthAdjust="spacing" textLength="293" x="125" y="27.6738">System Sequence Diagram (SSD) - USS005</text><rect fill="#FFFFFF" height="200.6641" style="stroke:#181818;stroke-width:1.0;" width="10" x="76" y="127.2813"/><rect fill="#FFFFFF" height="28.5234" style="stroke:#181818;stroke-width:1.0;" width="10" x="502" y="147.8047"/><rect fill="#FFFFFF" height="28.5234" style="stroke:#181818;stroke-width:1.0;" width="10" x="502" y="204.8516"/><rect fill="#FFFFFF" height="28.5234" style="stroke:#181818;stroke-width:1.0;" width="10" x="502" y="261.8984"/><line style="stroke:#181818;stroke-width:0.5;stroke-dasharray:5.0,5.0;" x1="81" x2="81" y1="117.2813" y2="336.9453"/><line style="stroke:#181818;stroke-width:0.5;stroke-dasharray:5.0,5.0;" x1="507" x2="507" y1="117.2813" y2="336.9453"/><text fill="#000000" font-family="sans-serif" font-size="14" lengthAdjust="spacing" textLength="146" x="5" y="114.3145">Organization Employee</text><ellipse cx="81" cy="50.1406" fill="#E3E3E3" rx="8" ry="8" style="stroke:#181818;stroke-width:0.5;"/><path d="M81,58.1406 L81,85.1406 M68,66.1406 L94,66.1406 M81,85.1406 L68,100.1406 M81,85.1406 L94,100.1406 " fill="none" style="stroke:#181818;stroke-width:0.5;"/><text fill="#000000" font-family="sans-serif" font-size="14" lengthAdjust="spacing" textLength="146" x="5" y="348.6191">Organization Employee</text><ellipse cx="81" cy="360.0859" fill="#E3E3E3" rx="8" ry="8" style="stroke:#181818;stroke-width:0.5;"/><path d="M81,368.0859 L81,395.0859 M68,376.0859 L94,376.0859 M81,395.0859 L68,410.0859 M81,395.0859 L94,410.0859 " fill="none" style="stroke:#181818;stroke-width:0.5;"/><rect fill="#E3E3E3" height="29.6406" rx="2.5" ry="2.5" style="stroke:#181818;stroke-width:0.5;" width="64" x="475" y="86.6406"/><text fill="#000000" font-family="sans-serif" font-size="14" lengthAdjust="spacing" textLength="50" x="482" y="106.3145">:System</text><rect fill="#E3E3E3" height="29.6406" rx="2.5" ry="2.5" style="stroke:#181818;stroke-width:0.5;" width="64" x="475" y="335.9453"/><text fill="#000000" font-family="sans-serif" font-size="14" lengthAdjust="spacing" textLength="50" x="482" y="355.6191">:System</text><rect fill="#FFFFFF" height="200.6641" style="stroke:#181818;stroke-width:1.0;" width="10" x="76" y="127.2813"/><rect fill="#FFFFFF" height="28.5234" style="stroke:#181818;stroke-width:1.0;" width="10" x="502" y="147.8047"/><rect fill="#FFFFFF" height="28.5234" style="stroke:#181818;stroke-width:1.0;" width="10" x="502" y="204.8516"/><rect fill="#FFFFFF" height="28.5234" style="stroke:#181818;stroke-width:1.0;" width="10" x="502" y="261.8984"/><polygon fill="#181818" points="490,143.8047,500,147.8047,490,151.8047,494,147.8047" style="stroke:#181818;stroke-width:1.0;"/><line style="stroke:#181818;stroke-width:1.0;" x1="86" x2="496" y1="147.8047" y2="147.8047"/><text fill="#000000" font-family="sans-serif" font-size="13" font-weight="bold" lengthAdjust="spacing" textLength="7" x="93" y="143.0498">1</text><text fill="#000000" font-family="sans-serif" font-size="13" lengthAdjust="spacing" textLength="134" x="104" y="143.0498">asks to register a store</text><polygon fill="#181818" points="97,172.3281,87,176.3281,97,180.3281,93,176.3281" style="stroke:#181818;stroke-width:1.0;"/><line style="stroke:#181818;stroke-width:1.0;stroke-dasharray:2.0,2.0;" x1="91" x2="506" y1="176.3281" y2="176.3281"/><text fill="#000000" font-family="sans-serif" font-size="13" font-weight="bold" lengthAdjust="spacing" textLength="7" x="103" y="171.5732">2</text><text fill="#000000" font-family="sans-serif" font-size="13" lengthAdjust="spacing" textLength="130" x="114" y="171.5732">requests data for store</text><polygon fill="#181818" points="490,200.8516,500,204.8516,490,208.8516,494,204.8516" style="stroke:#181818;stroke-width:1.0;"/><line style="stroke:#181818;stroke-width:1.0;" x1="86" x2="496" y1="204.8516" y2="204.8516"/><text fill="#000000" font-family="sans-serif" font-size="13" font-weight="bold" lengthAdjust="spacing" textLength="7" x="93" y="200.0967">3</text><text fill="#000000" font-family="sans-serif" font-size="13" lengthAdjust="spacing" textLength="386" x="104" y="200.0967">types requested data (location, designation, email adress, contact)</text><polygon fill="#181818" points="97,229.375,87,233.375,97,237.375,93,233.375" style="stroke:#181818;stroke-width:1.0;"/><line style="stroke:#181818;stroke-width:1.0;stroke-dasharray:2.0,2.0;" x1="91" x2="506" y1="233.375" y2="233.375"/><text fill="#000000" font-family="sans-serif" font-size="13" font-weight="bold" lengthAdjust="spacing" textLength="7" x="103" y="228.6201">4</text><text fill="#000000" font-family="sans-serif" font-size="13" lengthAdjust="spacing" textLength="311" x="114" y="228.6201">shows store preview and asks for confirmed submition</text><polygon fill="#181818" points="490,257.8984,500,261.8984,490,265.8984,494,261.8984" style="stroke:#181818;stroke-width:1.0;"/><line style="stroke:#181818;stroke-width:1.0;" x1="86" x2="496" y1="261.8984" y2="261.8984"/><text fill="#000000" font-family="sans-serif" font-size="13" font-weight="bold" lengthAdjust="spacing" textLength="7" x="93" y="257.1436">5</text><text fill="#000000" font-family="sans-serif" font-size="13" lengthAdjust="spacing" textLength="109" x="104" y="257.1436">confirms submition</text><polygon fill="#181818" points="97,286.4219,87,290.4219,97,294.4219,93,290.4219" style="stroke:#181818;stroke-width:1.0;"/><line style="stroke:#181818;stroke-width:1.0;stroke-dasharray:2.0,2.0;" x1="91" x2="506" y1="290.4219" y2="290.4219"/><text fill="#000000" font-family="sans-serif" font-size="13" font-weight="bold" lengthAdjust="spacing" textLength="7" x="103" y="285.667">6</text><text fill="#000000" font-family="sans-serif" font-size="13" lengthAdjust="spacing" textLength="105" x="114" y="285.667">registers the store</text><polygon fill="#181818" points="97,314.9453,87,318.9453,97,322.9453,93,318.9453" style="stroke:#181818;stroke-width:1.0;"/><line style="stroke:#181818;stroke-width:1.0;stroke-dasharray:2.0,2.0;" x1="91" x2="506" y1="318.9453" y2="318.9453"/><text fill="#000000" font-family="sans-serif" font-size="13" font-weight="bold" lengthAdjust="spacing" textLength="7" x="103" y="314.1904">7</text><text fill="#000000" font-family="sans-serif" font-size="13" lengthAdjust="spacing" textLength="158" x="114" y="314.1904">displays operation success</text><!--SRC=[dPBFRi8m3CRlVGgB4qWWSTc5mqxil4Er1p2fQIsQf8jTKFVqC_t7D84cbbESs3z__X8vSMWmeGSVGtHLYfv0KqkPp3SDkXEMb6jN4oHoYg6iVoP8XKMyS2ZXYBLGbYchfUQTA7d8wREbu0ZsZEKrVPdd-nLiu2FFjzkNBCDMOsZzWPBjdSO4Y_TKOk0lL8u1tdnJnuve0IXpa5bhPSSD1eN5RkZLPmpR7iLdLBgLP61hYc3pEYdSMTb9GADDLx8T9K0G4q9znGoQo32kiNnZf9cwCuRDAofGe28SRPmRgg2xiBkQj6j89XeL0svPHzUxiZQMS1d6W3no3LWa4bc3Yq6jqUe_ygMA5naaGvFep7G13CLWqNKQWnyvULCaxS7pjV_JiuqC-OLuskdXjUpfAlhRvSUWWgMfiHE83QNXqqdhd7dvWFSD]--></g></svg>