<?xml version="1.0" encoding="us-ascii" standalone="no"?><svg xmlns="http://www.w3.org/2000/svg" xmlns:xlink="http://www.w3.org/1999/xlink" contentStyleType="text/css" height="601px" preserveAspectRatio="none" style="width:964px;height:601px;background:#FFFFFF;" version="1.1" viewBox="0 0 964 601" width="964px" zoomAndPan="magnify"><defs/><g><!--class RegisterAnnouncementUI--><g id="elem_RegisterAnnouncementUI"><rect codeLine="11" fill="#F1F1F1" height="48" id="RegisterAnnouncementUI" rx="2.5" ry="2.5" style="stroke:#181818;stroke-width:0.5;" width="192" x="120.5" y="7"/><ellipse cx="135.5" cy="23" fill="#ADD1B2" rx="11" ry="11" style="stroke:#181818;stroke-width:1.0;"/><path d="M138.2656,18.875 Q138.4219,18.6563 138.6094,18.5469 Q138.7969,18.4375 139.0156,18.4375 Q139.3906,18.4375 139.625,18.7031 Q139.8594,18.9531 139.8594,19.5625 L139.8594,21.0156 Q139.8594,21.625 139.625,21.8906 Q139.3906,22.1563 139.0156,22.1563 Q138.6719,22.1563 138.4688,21.9531 Q138.2656,21.7656 138.1563,21.25 Q138.1094,20.8906 137.9219,20.7031 Q137.5938,20.3281 136.9844,20.1094 Q136.375,19.8906 135.75,19.8906 Q134.9844,19.8906 134.3438,20.2188 Q133.7188,20.5469 133.2188,21.2969 Q132.7344,22.0469 132.7344,23.0781 L132.7344,24.1719 Q132.7344,25.4063 133.625,26.2344 Q134.5156,27.0469 136.1094,27.0469 Q137.0469,27.0469 137.7031,26.7969 Q138.0938,26.6406 138.5156,26.2031 Q138.7813,25.9375 138.9219,25.8594 Q139.0781,25.7813 139.2813,25.7813 Q139.6094,25.7813 139.8594,26.0469 Q140.125,26.2969 140.125,26.6406 Q140.125,26.9844 139.7813,27.3906 Q139.2813,27.9688 138.4844,28.2969 Q137.4063,28.75 136.1094,28.75 Q134.5938,28.75 133.3906,28.125 Q132.4063,27.625 131.7188,26.5625 Q131.0313,25.4844 131.0313,24.2031 L131.0313,23.0469 Q131.0313,21.7188 131.6406,20.5781 Q132.2656,19.4219 133.3594,18.8125 Q134.4531,18.1875 135.6875,18.1875 Q136.4219,18.1875 137.0625,18.3594 Q137.7188,18.5156 138.2656,18.875 Z " fill="#000000"/><text fill="#000000" font-family="sans-serif" font-size="14" lengthAdjust="spacing" textLength="160" x="149.5" y="27.8535">RegisterAnnouncementUI</text><line style="stroke:#181818;stroke-width:0.5;" x1="121.5" x2="311.5" y1="39" y2="39"/><line style="stroke:#181818;stroke-width:0.5;" x1="121.5" x2="311.5" y1="47" y2="47"/></g><!--class RegisterAnnouncementController--><g id="elem_RegisterAnnouncementController"><rect codeLine="13" fill="#F1F1F1" height="392.0938" id="RegisterAnnouncementController" rx="2.5" ry="2.5" style="stroke:#181818;stroke-width:0.5;" width="419" x="7" y="90"/><ellipse cx="107.25" cy="106" fill="#ADD1B2" rx="11" ry="11" style="stroke:#181818;stroke-width:1.0;"/><path d="M110.0156,101.875 Q110.1719,101.6563 110.3594,101.5469 Q110.5469,101.4375 110.7656,101.4375 Q111.1406,101.4375 111.375,101.7031 Q111.6094,101.9531 111.6094,102.5625 L111.6094,104.0156 Q111.6094,104.625 111.375,104.8906 Q111.1406,105.1563 110.7656,105.1563 Q110.4219,105.1563 110.2188,104.9531 Q110.0156,104.7656 109.9063,104.25 Q109.8594,103.8906 109.6719,103.7031 Q109.3438,103.3281 108.7344,103.1094 Q108.125,102.8906 107.5,102.8906 Q106.7344,102.8906 106.0938,103.2188 Q105.4688,103.5469 104.9688,104.2969 Q104.4844,105.0469 104.4844,106.0781 L104.4844,107.1719 Q104.4844,108.4063 105.375,109.2344 Q106.2656,110.0469 107.8594,110.0469 Q108.7969,110.0469 109.4531,109.7969 Q109.8438,109.6406 110.2656,109.2031 Q110.5313,108.9375 110.6719,108.8594 Q110.8281,108.7813 111.0313,108.7813 Q111.3594,108.7813 111.6094,109.0469 Q111.875,109.2969 111.875,109.6406 Q111.875,109.9844 111.5313,110.3906 Q111.0313,110.9688 110.2344,111.2969 Q109.1563,111.75 107.8594,111.75 Q106.3438,111.75 105.1406,111.125 Q104.1563,110.625 103.4688,109.5625 Q102.7813,108.4844 102.7813,107.2031 L102.7813,106.0469 Q102.7813,104.7188 103.3906,103.5781 Q104.0156,102.4219 105.1094,101.8125 Q106.2031,101.1875 107.4375,101.1875 Q108.1719,101.1875 108.8125,101.3594 Q109.4688,101.5156 110.0156,101.875 Z " fill="#000000"/><text fill="#000000" font-family="sans-serif" font-size="14" lengthAdjust="spacing" textLength="210" x="127.75" y="110.8535">RegisterAnnouncementController</text><line style="stroke:#181818;stroke-width:0.5;" x1="8" x2="425" y1="122" y2="122"/><text fill="#000000" font-family="sans-serif" font-size="14" lengthAdjust="spacing" textLength="34" x="13" y="138.6738">-area</text><text fill="#000000" font-family="sans-serif" font-size="14" lengthAdjust="spacing" textLength="54" x="13" y="154.3145">-location</text><text fill="#000000" font-family="sans-serif" font-size="14" lengthAdjust="spacing" textLength="58" x="13" y="169.9551">-distance</text><text fill="#000000" font-family="sans-serif" font-size="14" lengthAdjust="spacing" textLength="36" x="13" y="185.5957">-price</text><text fill="#000000" font-family="sans-serif" font-size="14" lengthAdjust="spacing" textLength="48" x="13" y="201.2363">-photos</text><text fill="#000000" font-family="sans-serif" font-size="14" lengthAdjust="spacing" textLength="68" x="13" y="216.877">-bedrooms</text><text fill="#000000" font-family="sans-serif" font-size="14" lengthAdjust="spacing" textLength="72" x="13" y="232.5176">-bathrooms</text><text fill="#000000" font-family="sans-serif" font-size="14" lengthAdjust="spacing" textLength="52" x="13" y="248.1582">-parking</text><text fill="#000000" font-family="sans-serif" font-size="14" lengthAdjust="spacing" textLength="71" x="13" y="263.7988">-equipment</text><text fill="#000000" font-family="sans-serif" font-size="14" lengthAdjust="spacing" textLength="67" x="13" y="279.4395">-basement</text><text fill="#000000" font-family="sans-serif" font-size="14" lengthAdjust="spacing" textLength="24" x="13" y="295.0801">-loft</text><text fill="#000000" font-family="sans-serif" font-size="14" lengthAdjust="spacing" textLength="28" x="13" y="310.7207">-sun</text><text fill="#000000" font-family="sans-serif" font-size="14" lengthAdjust="spacing" textLength="99" x="13" y="326.3613">-comissionType</text><text fill="#000000" font-family="sans-serif" font-size="14" lengthAdjust="spacing" textLength="67" x="13" y="342.002">-comission</text><line style="stroke:#181818;stroke-width:0.5;" x1="8" x2="425" y1="348.9688" y2="348.9688"/><text fill="#000000" font-family="sans-serif" font-size="14" lengthAdjust="spacing" textLength="124" x="13" y="365.6426">+getPropertyType()</text><text fill="#000000" font-family="sans-serif" font-size="14" lengthAdjust="spacing" textLength="208" x="13" y="381.2832">+setPropertyType(propertyType)</text><text fill="#000000" font-family="sans-serif" font-size="14" lengthAdjust="spacing" textLength="143" x="13" y="396.9238">+getRegisteredUsers()</text><text fill="#000000" font-family="sans-serif" font-size="14" lengthAdjust="spacing" textLength="369" x="13" y="412.5645">+saveDataProperty(area, location, distance, price, photos)</text><text fill="#000000" font-family="sans-serif" font-size="14" lengthAdjust="spacing" textLength="407" x="13" y="428.2051">+saveDataResidence(bedrooms, bathrooms, parking, equipment</text><text fill="#000000" font-family="sans-serif" font-size="14" lengthAdjust="spacing" textLength="238" x="13" y="443.8457">+saveDataHouse(basement, loft, sun)</text><text fill="#000000" font-family="sans-serif" font-size="14" lengthAdjust="spacing" textLength="269" x="13" y="459.4863">+saveDataComissionType(comissionType)</text><text fill="#000000" font-family="sans-serif" font-size="14" lengthAdjust="spacing" textLength="205" x="13" y="475.127">+saveDataComission(comission)</text></g><!--class Repositories--><g id="elem_Repositories"><rect codeLine="39" fill="#F1F1F1" height="94.9219" id="Repositories" rx="2.5" ry="2.5" style="stroke:#181818;stroke-width:0.5;" width="223" x="486" y="73.5"/><ellipse cx="553.75" cy="89.5" fill="#ADD1B2" rx="11" ry="11" style="stroke:#181818;stroke-width:1.0;"/><path d="M556.5156,85.375 Q556.6719,85.1563 556.8594,85.0469 Q557.0469,84.9375 557.2656,84.9375 Q557.6406,84.9375 557.875,85.2031 Q558.1094,85.4531 558.1094,86.0625 L558.1094,87.5156 Q558.1094,88.125 557.875,88.3906 Q557.6406,88.6563 557.2656,88.6563 Q556.9219,88.6563 556.7188,88.4531 Q556.5156,88.2656 556.4063,87.75 Q556.3594,87.3906 556.1719,87.2031 Q555.8438,86.8281 555.2344,86.6094 Q554.625,86.3906 554,86.3906 Q553.2344,86.3906 552.5938,86.7188 Q551.9688,87.0469 551.4688,87.7969 Q550.9844,88.5469 550.9844,89.5781 L550.9844,90.6719 Q550.9844,91.9063 551.875,92.7344 Q552.7656,93.5469 554.3594,93.5469 Q555.2969,93.5469 555.9531,93.2969 Q556.3438,93.1406 556.7656,92.7031 Q557.0313,92.4375 557.1719,92.3594 Q557.3281,92.2813 557.5313,92.2813 Q557.8594,92.2813 558.1094,92.5469 Q558.375,92.7969 558.375,93.1406 Q558.375,93.4844 558.0313,93.8906 Q557.5313,94.4688 556.7344,94.7969 Q555.6563,95.25 554.3594,95.25 Q552.8438,95.25 551.6406,94.625 Q550.6563,94.125 549.9688,93.0625 Q549.2813,91.9844 549.2813,90.7031 L549.2813,89.5469 Q549.2813,88.2188 549.8906,87.0781 Q550.5156,85.9219 551.6094,85.3125 Q552.7031,84.6875 553.9375,84.6875 Q554.6719,84.6875 555.3125,84.8594 Q555.9688,85.0156 556.5156,85.375 Z " fill="#000000"/><text fill="#000000" font-family="sans-serif" font-size="14" lengthAdjust="spacing" textLength="79" x="574.25" y="94.3535">Repositories</text><line style="stroke:#181818;stroke-width:0.5;" x1="487" x2="708" y1="105.5" y2="105.5"/><line style="stroke:#181818;stroke-width:0.5;" x1="487" x2="708" y1="113.5" y2="113.5"/><text fill="#000000" font-family="sans-serif" font-size="14" lengthAdjust="spacing" textLength="91" x="492" y="130.1738">+getInstance()</text><text fill="#000000" font-family="sans-serif" font-size="14" lengthAdjust="spacing" textLength="192" x="492" y="145.8145">+getPropertyTypeRepository()</text><text fill="#000000" font-family="sans-serif" font-size="14" lengthAdjust="spacing" textLength="211" x="492" y="161.4551">+getRegisteredUsersRepository()</text></g><!--class PropertyTypeRepository--><g id="elem_PropertyTypeRepository"><rect codeLine="46" fill="#F1F1F1" height="63.6406" id="PropertyTypeRepository" rx="2.5" ry="2.5" style="stroke:#181818;stroke-width:0.5;" width="186" x="504.5" y="204"/><ellipse cx="519.5" cy="220" fill="#ADD1B2" rx="11" ry="11" style="stroke:#181818;stroke-width:1.0;"/><path d="M522.2656,215.875 Q522.4219,215.6563 522.6094,215.5469 Q522.7969,215.4375 523.0156,215.4375 Q523.3906,215.4375 523.625,215.7031 Q523.8594,215.9531 523.8594,216.5625 L523.8594,218.0156 Q523.8594,218.625 523.625,218.8906 Q523.3906,219.1563 523.0156,219.1563 Q522.6719,219.1563 522.4688,218.9531 Q522.2656,218.7656 522.1563,218.25 Q522.1094,217.8906 521.9219,217.7031 Q521.5938,217.3281 520.9844,217.1094 Q520.375,216.8906 519.75,216.8906 Q518.9844,216.8906 518.3438,217.2188 Q517.7188,217.5469 517.2188,218.2969 Q516.7344,219.0469 516.7344,220.0781 L516.7344,221.1719 Q516.7344,222.4063 517.625,223.2344 Q518.5156,224.0469 520.1094,224.0469 Q521.0469,224.0469 521.7031,223.7969 Q522.0938,223.6406 522.5156,223.2031 Q522.7813,222.9375 522.9219,222.8594 Q523.0781,222.7813 523.2813,222.7813 Q523.6094,222.7813 523.8594,223.0469 Q524.125,223.2969 524.125,223.6406 Q524.125,223.9844 523.7813,224.3906 Q523.2813,224.9688 522.4844,225.2969 Q521.4063,225.75 520.1094,225.75 Q518.5938,225.75 517.3906,225.125 Q516.4063,224.625 515.7188,223.5625 Q515.0313,222.4844 515.0313,221.2031 L515.0313,220.0469 Q515.0313,218.7188 515.6406,217.5781 Q516.2656,216.4219 517.3594,215.8125 Q518.4531,215.1875 519.6875,215.1875 Q520.4219,215.1875 521.0625,215.3594 Q521.7188,215.5156 522.2656,215.875 Z " fill="#000000"/><text fill="#000000" font-family="sans-serif" font-size="14" lengthAdjust="spacing" textLength="154" x="533.5" y="224.8535">PropertyTypeRepository</text><line style="stroke:#181818;stroke-width:0.5;" x1="505.5" x2="689.5" y1="236" y2="236"/><line style="stroke:#181818;stroke-width:0.5;" x1="505.5" x2="689.5" y1="244" y2="244"/><text fill="#000000" font-family="sans-serif" font-size="14" lengthAdjust="spacing" textLength="124" x="510.5" y="260.6738">+getPropertyType()</text></g><!--class RegistedUsersRepository--><g id="elem_RegistedUsersRepository"><rect codeLine="51" fill="#F1F1F1" height="63.6406" id="RegistedUsersRepository" rx="2.5" ry="2.5" style="stroke:#181818;stroke-width:0.5;" width="192" x="501.5" y="303"/><ellipse cx="516.5" cy="319" fill="#ADD1B2" rx="11" ry="11" style="stroke:#181818;stroke-width:1.0;"/><path d="M519.2656,314.875 Q519.4219,314.6563 519.6094,314.5469 Q519.7969,314.4375 520.0156,314.4375 Q520.3906,314.4375 520.625,314.7031 Q520.8594,314.9531 520.8594,315.5625 L520.8594,317.0156 Q520.8594,317.625 520.625,317.8906 Q520.3906,318.1563 520.0156,318.1563 Q519.6719,318.1563 519.4688,317.9531 Q519.2656,317.7656 519.1563,317.25 Q519.1094,316.8906 518.9219,316.7031 Q518.5938,316.3281 517.9844,316.1094 Q517.375,315.8906 516.75,315.8906 Q515.9844,315.8906 515.3438,316.2188 Q514.7188,316.5469 514.2188,317.2969 Q513.7344,318.0469 513.7344,319.0781 L513.7344,320.1719 Q513.7344,321.4063 514.625,322.2344 Q515.5156,323.0469 517.1094,323.0469 Q518.0469,323.0469 518.7031,322.7969 Q519.0938,322.6406 519.5156,322.2031 Q519.7813,321.9375 519.9219,321.8594 Q520.0781,321.7813 520.2813,321.7813 Q520.6094,321.7813 520.8594,322.0469 Q521.125,322.2969 521.125,322.6406 Q521.125,322.9844 520.7813,323.3906 Q520.2813,323.9688 519.4844,324.2969 Q518.4063,324.75 517.1094,324.75 Q515.5938,324.75 514.3906,324.125 Q513.4063,323.625 512.7188,322.5625 Q512.0313,321.4844 512.0313,320.2031 L512.0313,319.0469 Q512.0313,317.7188 512.6406,316.5781 Q513.2656,315.4219 514.3594,314.8125 Q515.4531,314.1875 516.6875,314.1875 Q517.4219,314.1875 518.0625,314.3594 Q518.7188,314.5156 519.2656,314.875 Z " fill="#000000"/><text fill="#000000" font-family="sans-serif" font-size="14" lengthAdjust="spacing" textLength="160" x="530.5" y="323.8535">RegistedUsersRepository</text><line style="stroke:#181818;stroke-width:0.5;" x1="502.5" x2="692.5" y1="335" y2="335"/><line style="stroke:#181818;stroke-width:0.5;" x1="502.5" x2="692.5" y1="343" y2="343"/><text fill="#000000" font-family="sans-serif" font-size="14" lengthAdjust="spacing" textLength="143" x="507.5" y="359.6738">+getRegisteredUsers()</text></g><!--class Announcement--><g id="elem_Announcement"><rect codeLine="56" fill="#F1F1F1" height="94.9219" id="Announcement" rx="2.5" ry="2.5" style="stroke:#181818;stroke-width:0.5;" width="165" x="780.5" y="223.5"/><ellipse cx="812.6" cy="239.5" fill="#ADD1B2" rx="11" ry="11" style="stroke:#181818;stroke-width:1.0;"/><path d="M815.3656,235.375 Q815.5219,235.1563 815.7094,235.0469 Q815.8969,234.9375 816.1156,234.9375 Q816.4906,234.9375 816.725,235.2031 Q816.9594,235.4531 816.9594,236.0625 L816.9594,237.5156 Q816.9594,238.125 816.725,238.3906 Q816.4906,238.6563 816.1156,238.6563 Q815.7719,238.6563 815.5688,238.4531 Q815.3656,238.2656 815.2563,237.75 Q815.2094,237.3906 815.0219,237.2031 Q814.6938,236.8281 814.0844,236.6094 Q813.475,236.3906 812.85,236.3906 Q812.0844,236.3906 811.4438,236.7188 Q810.8188,237.0469 810.3188,237.7969 Q809.8344,238.5469 809.8344,239.5781 L809.8344,240.6719 Q809.8344,241.9063 810.725,242.7344 Q811.6156,243.5469 813.2094,243.5469 Q814.1469,243.5469 814.8031,243.2969 Q815.1938,243.1406 815.6156,242.7031 Q815.8813,242.4375 816.0219,242.3594 Q816.1781,242.2813 816.3813,242.2813 Q816.7094,242.2813 816.9594,242.5469 Q817.225,242.7969 817.225,243.1406 Q817.225,243.4844 816.8813,243.8906 Q816.3813,244.4688 815.5844,244.7969 Q814.5063,245.25 813.2094,245.25 Q811.6938,245.25 810.4906,244.625 Q809.5063,244.125 808.8188,243.0625 Q808.1313,241.9844 808.1313,240.7031 L808.1313,239.5469 Q808.1313,238.2188 808.7406,237.0781 Q809.3656,235.9219 810.4594,235.3125 Q811.5531,234.6875 812.7875,234.6875 Q813.5219,234.6875 814.1625,234.8594 Q814.8188,235.0156 815.3656,235.375 Z " fill="#000000"/><text fill="#000000" font-family="sans-serif" font-size="14" lengthAdjust="spacing" textLength="95" x="830.4" y="244.3535">Announcement</text><line style="stroke:#181818;stroke-width:0.5;" x1="781.5" x2="944.5" y1="255.5" y2="255.5"/><text fill="#000000" font-family="sans-serif" font-size="14" lengthAdjust="spacing" textLength="33" x="786.5" y="272.1738">-date</text><line style="stroke:#181818;stroke-width:0.5;" x1="781.5" x2="944.5" y1="279.1406" y2="279.1406"/><text fill="#000000" font-family="sans-serif" font-size="14" lengthAdjust="spacing" textLength="153" x="786.5" y="295.8145">+createAnnouncement()</text><text fill="#000000" font-family="sans-serif" font-size="14" lengthAdjust="spacing" textLength="95" x="786.5" y="311.4551">+setDate(date)</text></g><!--class Comission--><g id="elem_Comission"><rect codeLine="63" fill="#F1F1F1" height="79.2813" id="Comission" rx="2.5" ry="2.5" style="stroke:#181818;stroke-width:0.5;" width="144" x="791" y="515.5"/><ellipse cx="827.15" cy="531.5" fill="#ADD1B2" rx="11" ry="11" style="stroke:#181818;stroke-width:1.0;"/><path d="M829.9156,527.375 Q830.0719,527.1563 830.2594,527.0469 Q830.4469,526.9375 830.6656,526.9375 Q831.0406,526.9375 831.275,527.2031 Q831.5094,527.4531 831.5094,528.0625 L831.5094,529.5156 Q831.5094,530.125 831.275,530.3906 Q831.0406,530.6563 830.6656,530.6563 Q830.3219,530.6563 830.1188,530.4531 Q829.9156,530.2656 829.8063,529.75 Q829.7594,529.3906 829.5719,529.2031 Q829.2438,528.8281 828.6344,528.6094 Q828.025,528.3906 827.4,528.3906 Q826.6344,528.3906 825.9938,528.7188 Q825.3688,529.0469 824.8688,529.7969 Q824.3844,530.5469 824.3844,531.5781 L824.3844,532.6719 Q824.3844,533.9063 825.275,534.7344 Q826.1656,535.5469 827.7594,535.5469 Q828.6969,535.5469 829.3531,535.2969 Q829.7438,535.1406 830.1656,534.7031 Q830.4313,534.4375 830.5719,534.3594 Q830.7281,534.2813 830.9313,534.2813 Q831.2594,534.2813 831.5094,534.5469 Q831.775,534.7969 831.775,535.1406 Q831.775,535.4844 831.4313,535.8906 Q830.9313,536.4688 830.1344,536.7969 Q829.0563,537.25 827.7594,537.25 Q826.2438,537.25 825.0406,536.625 Q824.0563,536.125 823.3688,535.0625 Q822.6813,533.9844 822.6813,532.7031 L822.6813,531.5469 Q822.6813,530.2188 823.2906,529.0781 Q823.9156,527.9219 825.0094,527.3125 Q826.1031,526.6875 827.3375,526.6875 Q828.0719,526.6875 828.7125,526.8594 Q829.3688,527.0156 829.9156,527.375 Z " fill="#000000"/><text fill="#000000" font-family="sans-serif" font-size="14" lengthAdjust="spacing" textLength="65" x="845.85" y="536.3535">Comission</text><line style="stroke:#181818;stroke-width:0.5;" x1="792" x2="934" y1="547.5" y2="547.5"/><text fill="#000000" font-family="sans-serif" font-size="14" lengthAdjust="spacing" textLength="90" x="797" y="564.1738">-value: double</text><text fill="#000000" font-family="sans-serif" font-size="14" lengthAdjust="spacing" textLength="132" x="797" y="579.8145">-percentage : double</text><line style="stroke:#181818;stroke-width:0.5;" x1="792" x2="934" y1="586.7813" y2="586.7813"/></g><!--class Agent--><g id="elem_Agent"><rect codeLine="69" fill="#F1F1F1" height="157.4844" id="Agent" rx="2.5" ry="2.5" style="stroke:#181818;stroke-width:0.5;" width="188" x="769" y="31.5"/><ellipse cx="840.25" cy="47.5" fill="#ADD1B2" rx="11" ry="11" style="stroke:#181818;stroke-width:1.0;"/><path d="M843.0156,43.375 Q843.1719,43.1563 843.3594,43.0469 Q843.5469,42.9375 843.7656,42.9375 Q844.1406,42.9375 844.375,43.2031 Q844.6094,43.4531 844.6094,44.0625 L844.6094,45.5156 Q844.6094,46.125 844.375,46.3906 Q844.1406,46.6563 843.7656,46.6563 Q843.4219,46.6563 843.2188,46.4531 Q843.0156,46.2656 842.9063,45.75 Q842.8594,45.3906 842.6719,45.2031 Q842.3438,44.8281 841.7344,44.6094 Q841.125,44.3906 840.5,44.3906 Q839.7344,44.3906 839.0938,44.7188 Q838.4688,45.0469 837.9688,45.7969 Q837.4844,46.5469 837.4844,47.5781 L837.4844,48.6719 Q837.4844,49.9063 838.375,50.7344 Q839.2656,51.5469 840.8594,51.5469 Q841.7969,51.5469 842.4531,51.2969 Q842.8438,51.1406 843.2656,50.7031 Q843.5313,50.4375 843.6719,50.3594 Q843.8281,50.2813 844.0313,50.2813 Q844.3594,50.2813 844.6094,50.5469 Q844.875,50.7969 844.875,51.1406 Q844.875,51.4844 844.5313,51.8906 Q844.0313,52.4688 843.2344,52.7969 Q842.1563,53.25 840.8594,53.25 Q839.3438,53.25 838.1406,52.625 Q837.1563,52.125 836.4688,51.0625 Q835.7813,49.9844 835.7813,48.7031 L835.7813,47.5469 Q835.7813,46.2188 836.3906,45.0781 Q837.0156,43.9219 838.1094,43.3125 Q839.2031,42.6875 840.4375,42.6875 Q841.1719,42.6875 841.8125,42.8594 Q842.4688,43.0156 843.0156,43.375 Z " fill="#000000"/><text fill="#000000" font-family="sans-serif" font-size="14" lengthAdjust="spacing" textLength="37" x="860.75" y="52.3535">Agent</text><line style="stroke:#181818;stroke-width:0.5;" x1="770" x2="956" y1="63.5" y2="63.5"/><text fill="#000000" font-family="sans-serif" font-size="14" lengthAdjust="spacing" textLength="85" x="775" y="80.1738">-name: String</text><text fill="#000000" font-family="sans-serif" font-size="14" lengthAdjust="spacing" textLength="176" x="775" y="95.8145">-citizenCardNumber: Integer</text><text fill="#000000" font-family="sans-serif" font-size="14" lengthAdjust="spacing" textLength="124" x="775" y="111.4551">-taxNumber: Integer</text><text fill="#000000" font-family="sans-serif" font-size="14" lengthAdjust="spacing" textLength="93" x="775" y="127.0957">-adress: String</text><text fill="#000000" font-family="sans-serif" font-size="14" lengthAdjust="spacing" textLength="83" x="775" y="142.7363">-email: String</text><text fill="#000000" font-family="sans-serif" font-size="14" lengthAdjust="spacing" textLength="146" x="775" y="158.377">-phoneNumber: Integer</text><text fill="#000000" font-family="sans-serif" font-size="14" lengthAdjust="spacing" textLength="96" x="775" y="174.0176">-agency: String</text><line style="stroke:#181818;stroke-width:0.5;" x1="770" x2="956" y1="180.9844" y2="180.9844"/></g><!--class Location--><g id="elem_Location"><rect codeLine="80" fill="#F1F1F1" height="126.2031" id="Location" rx="2.5" ry="2.5" style="stroke:#181818;stroke-width:0.5;" width="120" x="803" y="354"/><ellipse cx="833.3" cy="370" fill="#ADD1B2" rx="11" ry="11" style="stroke:#181818;stroke-width:1.0;"/><path d="M836.0656,365.875 Q836.2219,365.6563 836.4094,365.5469 Q836.5969,365.4375 836.8156,365.4375 Q837.1906,365.4375 837.425,365.7031 Q837.6594,365.9531 837.6594,366.5625 L837.6594,368.0156 Q837.6594,368.625 837.425,368.8906 Q837.1906,369.1563 836.8156,369.1563 Q836.4719,369.1563 836.2688,368.9531 Q836.0656,368.7656 835.9563,368.25 Q835.9094,367.8906 835.7219,367.7031 Q835.3938,367.3281 834.7844,367.1094 Q834.175,366.8906 833.55,366.8906 Q832.7844,366.8906 832.1438,367.2188 Q831.5188,367.5469 831.0188,368.2969 Q830.5344,369.0469 830.5344,370.0781 L830.5344,371.1719 Q830.5344,372.4063 831.425,373.2344 Q832.3156,374.0469 833.9094,374.0469 Q834.8469,374.0469 835.5031,373.7969 Q835.8938,373.6406 836.3156,373.2031 Q836.5813,372.9375 836.7219,372.8594 Q836.8781,372.7813 837.0813,372.7813 Q837.4094,372.7813 837.6594,373.0469 Q837.925,373.2969 837.925,373.6406 Q837.925,373.9844 837.5813,374.3906 Q837.0813,374.9688 836.2844,375.2969 Q835.2063,375.75 833.9094,375.75 Q832.3938,375.75 831.1906,375.125 Q830.2063,374.625 829.5188,373.5625 Q828.8313,372.4844 828.8313,371.2031 L828.8313,370.0469 Q828.8313,368.7188 829.4406,367.5781 Q830.0656,366.4219 831.1594,365.8125 Q832.2531,365.1875 833.4875,365.1875 Q834.2219,365.1875 834.8625,365.3594 Q835.5188,365.5156 836.0656,365.875 Z " fill="#000000"/><text fill="#000000" font-family="sans-serif" font-size="14" lengthAdjust="spacing" textLength="54" x="850.7" y="374.8535">Location</text><line style="stroke:#181818;stroke-width:0.5;" x1="804" x2="922" y1="386" y2="386"/><text fill="#000000" font-family="sans-serif" font-size="14" lengthAdjust="spacing" textLength="86" x="809" y="402.6738">-street: String</text><text fill="#000000" font-family="sans-serif" font-size="14" lengthAdjust="spacing" textLength="71" x="809" y="418.3145">-city: String</text><text fill="#000000" font-family="sans-serif" font-size="14" lengthAdjust="spacing" textLength="91" x="809" y="433.9551">-district: String</text><text fill="#000000" font-family="sans-serif" font-size="14" lengthAdjust="spacing" textLength="81" x="809" y="449.5957">-state: String</text><text fill="#000000" font-family="sans-serif" font-size="14" lengthAdjust="spacing" textLength="108" x="809" y="465.2363">-zipCode: Integer</text><line style="stroke:#181818;stroke-width:0.5;" x1="804" x2="922" y1="472.2031" y2="472.2031"/></g><!--link RegisterAnnouncementUI to RegisterAnnouncementController--><g id="link_RegisterAnnouncementUI_RegisterAnnouncementController"><path codeLine="91" d="M216.5,55.33 C216.5,65.11 216.5,74.88 216.5,84.66 " fill="none" id="RegisterAnnouncementUI-to-RegisterAnnouncementController" style="stroke:#181818;stroke-width:1.0;"/><polygon fill="#181818" points="216.5,89.77,220.5,80.77,216.5,84.77,212.5,80.77,216.5,89.77" style="stroke:#181818;stroke-width:1.0;"/></g><!--link RegisterAnnouncementController to Repositories--><g id="link_RegisterAnnouncementController_Repositories"><path codeLine="92" d="M426.12,195.17 C445.28,186.83 464.18,178.61 482.02,170.84 " fill="none" id="RegisterAnnouncementController-to-Repositories" style="stroke:#181818;stroke-width:1.0;stroke-dasharray:7.0,7.0;"/><polygon fill="#181818" points="487.02,168.66,477.1716,168.5657,482.4317,170.6468,480.3505,175.9069,487.02,168.66" style="stroke:#181818;stroke-width:1.0;"/></g><!--link Repositories to Announcement--><g id="link_Repositories_Announcement"><path codeLine="93" d="M682.24,168.67 C712.11,185.67 745.8,204.85 775.88,221.97 " fill="none" id="Repositories-to-Announcement" style="stroke:#181818;stroke-width:1.0;"/><polygon fill="#181818" points="780.29,224.48,774.466,216.5377,775.9505,221.9962,770.492,223.4808,780.29,224.48" style="stroke:#181818;stroke-width:1.0;"/></g><!--link Repositories to RegistedUsersRepository--><g id="link_Repositories_RegistedUsersRepository"><path codeLine="94" d="M487.19,168.63 C474.76,178.4 463.79,189.94 456,203.5 C441.83,228.17 441.83,242.83 456,267.5 C465.42,283.9 480.14,296.36 496.6,305.83 " fill="none" id="Repositories-to-RegistedUsersRepository" style="stroke:#181818;stroke-width:1.0;"/><polygon fill="#181818" points="501.29,308.42,495.3455,300.5674,496.9132,306.0027,491.4779,307.5704,501.29,308.42" style="stroke:#181818;stroke-width:1.0;"/></g><!--link Repositories to PropertyTypeRepository--><g id="link_Repositories_PropertyTypeRepository"><path codeLine="95" d="M597.5,168.79 C597.5,178.68 597.5,188.58 597.5,198.48 " fill="none" id="Repositories-to-PropertyTypeRepository" style="stroke:#181818;stroke-width:1.0;"/><polygon fill="#181818" points="597.5,203.66,601.5,194.66,597.5,198.66,593.5,194.66,597.5,203.66" style="stroke:#181818;stroke-width:1.0;"/></g><!--link RegisterAnnouncementController to Announcement--><g id="link_RegisterAnnouncementController_Announcement"><path codeLine="96" d="M426.02,376 C514.77,401.98 618.48,415.75 709,384 C741.22,372.7 741.66,356.46 769,336 C775.33,331.26 781.97,326.41 788.66,321.59 " fill="none" id="RegisterAnnouncementController-to-Announcement" style="stroke:#181818;stroke-width:1.0;"/><polygon fill="#181818" points="792.83,318.6,783.1867,320.6019,788.7691,321.517,787.8539,327.0993,792.83,318.6" style="stroke:#181818;stroke-width:1.0;"/></g><!--link RegisterAnnouncementController to RegistedUsersRepository--><g id="link_RegisterAnnouncementController_RegistedUsersRepository"><path codeLine="97" d="M426.12,312.97 C450.46,316.12 474.37,319.21 496.23,322.04 " fill="none" id="RegisterAnnouncementController-to-RegistedUsersRepository" style="stroke:#181818;stroke-width:1.0;stroke-dasharray:7.0,7.0;"/><polygon fill="#181818" points="501.44,322.71,493.0292,317.5858,496.4815,322.067,492.0003,325.5193,501.44,322.71" style="stroke:#181818;stroke-width:1.0;"/></g><!--link RegisterAnnouncementController to PropertyTypeRepository--><g id="link_RegisterAnnouncementController_PropertyTypeRepository"><path codeLine="98" d="M426.12,258.48 C451.52,255.13 476.45,251.84 499.08,248.85 " fill="none" id="RegisterAnnouncementController-to-PropertyTypeRepository" style="stroke:#181818;stroke-width:1.0;stroke-dasharray:7.0,7.0;"/><polygon fill="#181818" points="504.17,248.18,494.7224,245.3974,499.2134,248.8371,495.7737,253.328,504.17,248.18" style="stroke:#181818;stroke-width:1.0;"/></g><!--link Agent to Announcement--><g id="link_Agent_Announcement"><path codeLine="99" d="M863,188.71 C863,198.5 863,208.29 863,218.08 " fill="none" id="Agent-to-Announcement" style="stroke:#181818;stroke-width:1.0;"/><polygon fill="#181818" points="863,223.2,867,214.2,863,218.2,859,214.2,863,223.2" style="stroke:#181818;stroke-width:1.0;"/></g><!--link Announcement to Comission--><g id="link_Announcement_Comission"><path codeLine="100" d="M780.33,309.41 C763.76,321.12 748.52,335.72 739,353.5 C712.34,403.25 711.2,431.37 739,480.5 C749.72,499.44 767.39,514.1 786.07,525.2 " fill="none" id="Announcement-to-Comission" style="stroke:#181818;stroke-width:1.0;"/><polygon fill="#181818" points="790.84,527.94,785.0273,519.9894,786.5041,525.4501,781.0434,526.9269,790.84,527.94" style="stroke:#181818;stroke-width:1.0;"/></g><!--link Announcement to Location--><g id="link_Announcement_Location"><path codeLine="101" d="M863,318.65 C863,328.68 863,338.71 863,348.74 " fill="none" id="Announcement-to-Location" style="stroke:#181818;stroke-width:1.0;"/><polygon fill="#181818" points="863,353.98,867,344.98,863,348.98,859,344.98,863,353.98" style="stroke:#181818;stroke-width:1.0;"/><text fill="#000000" font-family="sans-serif" font-size="13" lengthAdjust="spacing" textLength="21" x="840.7203" y="343.2344">has</text></g><!--SRC=[XLJ1Rjim3BtxAuHUvg19iNCF1Ohqi033CBJh1oWoOmkLHK-Ykxb3_tsq7SkouoGzfAB8HpqzF-gBVzEsaawMeaIBgd1OWY1NGp9cAgdUP0ulr1WG3XH9cvkum1Somp_Qvk8WZOypHbkWfW9HeMdQO2c7ZZ294if8xn-9dDxN13k5zaL_WFYQ90OE90Y5qtb18jCj6OqsIJg8U8PSUmBtQ2tMLa49bbvtbx9RjEJG6739lqJmtqOwaFtAe99TzoxA62iPrKULqs5P8A7lrtl8768vH9AAAEJByHNpFe3VjQvQ1aEfXp4oU3YkV7qyNc6flMSslrYnsLONtkP0FnrMuAXfQz9Ll-rdsrKKh09oq0QoLm_E1x1yXoT9SkYGjkginQ3CMWogh4Md2F_hr9Z1dy7h3BWi7GHQYo0EOtfXrc8gIe1_mzepz2XHU_o1VrcQsJ7RMADqejYvoh5gbNoEHgdGQqAdmHzjqMgqi_rTqzMYu07Lf6TrdTI4yvQxH2VFlkldpD7ptX7ozBi6S3m6W_apIRsvRXL_Q8Au9Z8KImXfMnkr2v8ElTwbgU5UP5ZlpJ0gu1HtuhT4XCJ89u-8M5aozeMVW65Wb2P-1EnMkkn7NUx1tOkT9SXvShiyoR-B-p9puFsq5vHIc-aM-zR2SWFcfPfGpNot7T_lm_DmfEp90T09wMQwqmuCJygiZer5i_j-w6gB6Ona-E0aMNxXnERXskjsEItk7gQkZuEs-yGiy-Gv6yxhplZy2hNDvlJyotUvkqJfAlGCoywU9rB4GPiSfs2UkIcalmcc-Gy0]--></g></svg>