<?xml version="1.0" encoding="us-ascii" standalone="no"?><svg xmlns="http://www.w3.org/2000/svg" xmlns:xlink="http://www.w3.org/1999/xlink" contentStyleType="text/css" height="502px" preserveAspectRatio="none" style="width:321px;height:502px;background:#FFFFFF;" version="1.1" viewBox="0 0 321 502" width="321px" zoomAndPan="magnify"><defs/><g><text fill="#000000" font-family="sans-serif" font-size="14" font-weight="bold" lengthAdjust="spacing" textLength="293" x="10" y="27.6738">System Sequence Diagram (SSD) - USS006</text><rect fill="#FFFFFF" height="286.2344" style="stroke:#181818;stroke-width:1.0;" width="10" x="71.25" y="127.2813"/><rect fill="#FFFFFF" height="28.5234" style="stroke:#181818;stroke-width:1.0;" width="10" x="270.25" y="147.8047"/><rect fill="#FFFFFF" height="28.5234" style="stroke:#181818;stroke-width:1.0;" width="10" x="270.25" y="204.8516"/><rect fill="#FFFFFF" height="28.5234" style="stroke:#181818;stroke-width:1.0;" width="10" x="270.25" y="261.8984"/><rect fill="#FFFFFF" height="28.5234" style="stroke:#181818;stroke-width:1.0;" width="10" x="270.25" y="318.9453"/><rect fill="#FFFFFF" height="28.5234" style="stroke:#181818;stroke-width:1.0;" width="10" x="270.25" y="375.9922"/><line style="stroke:#181818;stroke-width:0.5;stroke-dasharray:5.0,5.0;" x1="75.75" x2="75.75" y1="117.2813" y2="422.5156"/><line style="stroke:#181818;stroke-width:0.5;stroke-dasharray:5.0,5.0;" x1="275.25" x2="275.25" y1="117.2813" y2="422.5156"/><text fill="#000000" font-family="sans-serif" font-size="14" lengthAdjust="spacing" textLength="133" x="6.75" y="114.3145">System Administrator</text><ellipse cx="76.25" cy="50.1406" fill="#E3E3E3" rx="8" ry="8" style="stroke:#181818;stroke-width:0.5;"/><path d="M76.25,58.1406 L76.25,85.1406 M63.25,66.1406 L89.25,66.1406 M76.25,85.1406 L63.25,100.1406 M76.25,85.1406 L89.25,100.1406 " fill="none" style="stroke:#181818;stroke-width:0.5;"/><text fill="#000000" font-family="sans-serif" font-size="14" lengthAdjust="spacing" textLength="133" x="6.75" y="434.1895">System Administrator</text><ellipse cx="76.25" cy="445.6563" fill="#E3E3E3" rx="8" ry="8" style="stroke:#181818;stroke-width:0.5;"/><path d="M76.25,453.6563 L76.25,480.6563 M63.25,461.6563 L89.25,461.6563 M76.25,480.6563 L63.25,495.6563 M76.25,480.6563 L89.25,495.6563 " fill="none" style="stroke:#181818;stroke-width:0.5;"/><rect fill="#E3E3E3" height="29.6406" rx="2.5" ry="2.5" style="stroke:#181818;stroke-width:0.5;" width="64" x="243.25" y="86.6406"/><text fill="#000000" font-family="sans-serif" font-size="14" lengthAdjust="spacing" textLength="50" x="250.25" y="106.3145">:System</text><rect fill="#E3E3E3" height="29.6406" rx="2.5" ry="2.5" style="stroke:#181818;stroke-width:0.5;" width="64" x="243.25" y="421.5156"/><text fill="#000000" font-family="sans-serif" font-size="14" lengthAdjust="spacing" textLength="50" x="250.25" y="441.1895">:System</text><rect fill="#FFFFFF" height="286.2344" style="stroke:#181818;stroke-width:1.0;" width="10" x="71.25" y="127.2813"/><rect fill="#FFFFFF" height="28.5234" style="stroke:#181818;stroke-width:1.0;" width="10" x="270.25" y="147.8047"/><rect fill="#FFFFFF" height="28.5234" style="stroke:#181818;stroke-width:1.0;" width="10" x="270.25" y="204.8516"/><rect fill="#FFFFFF" height="28.5234" style="stroke:#181818;stroke-width:1.0;" width="10" x="270.25" y="261.8984"/><rect fill="#FFFFFF" height="28.5234" style="stroke:#181818;stroke-width:1.0;" width="10" x="270.25" y="318.9453"/><rect fill="#FFFFFF" height="28.5234" style="stroke:#181818;stroke-width:1.0;" width="10" x="270.25" y="375.9922"/><polygon fill="#181818" points="258.25,143.8047,268.25,147.8047,258.25,151.8047,262.25,147.8047" style="stroke:#181818;stroke-width:1.0;"/><line style="stroke:#181818;stroke-width:1.0;" x1="81.25" x2="264.25" y1="147.8047" y2="147.8047"/><text fill="#000000" font-family="sans-serif" font-size="13" font-weight="bold" lengthAdjust="spacing" textLength="7" x="88.25" y="143.0498">1</text><text fill="#000000" font-family="sans-serif" font-size="13" lengthAdjust="spacing" textLength="150" x="99.25" y="143.0498">asks to register a location</text><polygon fill="#181818" points="92.25,172.3281,82.25,176.3281,92.25,180.3281,88.25,176.3281" style="stroke:#181818;stroke-width:1.0;"/><line style="stroke:#181818;stroke-width:1.0;stroke-dasharray:2.0,2.0;" x1="86.25" x2="274.25" y1="176.3281" y2="176.3281"/><text fill="#000000" font-family="sans-serif" font-size="13" font-weight="bold" lengthAdjust="spacing" textLength="7" x="98.25" y="171.5732">2</text><text fill="#000000" font-family="sans-serif" font-size="13" lengthAdjust="spacing" textLength="120" x="109.25" y="171.5732">requests data (state)</text><polygon fill="#181818" points="258.25,200.8516,268.25,204.8516,258.25,208.8516,262.25,204.8516" style="stroke:#181818;stroke-width:1.0;"/><line style="stroke:#181818;stroke-width:1.0;" x1="81.25" x2="264.25" y1="204.8516" y2="204.8516"/><text fill="#000000" font-family="sans-serif" font-size="13" font-weight="bold" lengthAdjust="spacing" textLength="7" x="88.25" y="200.0967">3</text><text fill="#000000" font-family="sans-serif" font-size="13" lengthAdjust="spacing" textLength="129" x="99.25" y="200.0967">inserts requested data</text><polygon fill="#181818" points="92.25,229.375,82.25,233.375,92.25,237.375,88.25,233.375" style="stroke:#181818;stroke-width:1.0;"/><line style="stroke:#181818;stroke-width:1.0;stroke-dasharray:2.0,2.0;" x1="86.25" x2="274.25" y1="233.375" y2="233.375"/><text fill="#000000" font-family="sans-serif" font-size="13" font-weight="bold" lengthAdjust="spacing" textLength="7" x="98.25" y="228.6201">4</text><text fill="#000000" font-family="sans-serif" font-size="13" lengthAdjust="spacing" textLength="130" x="109.25" y="228.6201">requests data (district)</text><polygon fill="#181818" points="258.25,257.8984,268.25,261.8984,258.25,265.8984,262.25,261.8984" style="stroke:#181818;stroke-width:1.0;"/><line style="stroke:#181818;stroke-width:1.0;" x1="81.25" x2="264.25" y1="261.8984" y2="261.8984"/><text fill="#000000" font-family="sans-serif" font-size="13" font-weight="bold" lengthAdjust="spacing" textLength="7" x="88.25" y="257.1436">5</text><text fill="#000000" font-family="sans-serif" font-size="13" lengthAdjust="spacing" textLength="129" x="99.25" y="257.1436">inserts requested data</text><polygon fill="#181818" points="92.25,286.4219,82.25,290.4219,92.25,294.4219,88.25,290.4219" style="stroke:#181818;stroke-width:1.0;"/><line style="stroke:#181818;stroke-width:1.0;stroke-dasharray:2.0,2.0;" x1="86.25" x2="274.25" y1="290.4219" y2="290.4219"/><text fill="#000000" font-family="sans-serif" font-size="13" font-weight="bold" lengthAdjust="spacing" textLength="7" x="98.25" y="285.667">6</text><text fill="#000000" font-family="sans-serif" font-size="13" lengthAdjust="spacing" textLength="112" x="109.25" y="285.667">requests data (city)</text><polygon fill="#181818" points="258.25,314.9453,268.25,318.9453,258.25,322.9453,262.25,318.9453" style="stroke:#181818;stroke-width:1.0;"/><line style="stroke:#181818;stroke-width:1.0;" x1="81.25" x2="264.25" y1="318.9453" y2="318.9453"/><text fill="#000000" font-family="sans-serif" font-size="13" font-weight="bold" lengthAdjust="spacing" textLength="7" x="88.25" y="314.1904">7</text><text fill="#000000" font-family="sans-serif" font-size="13" lengthAdjust="spacing" textLength="129" x="99.25" y="314.1904">inserts requested data</text><polygon fill="#181818" points="92.25,343.4688,82.25,347.4688,92.25,351.4688,88.25,347.4688" style="stroke:#181818;stroke-width:1.0;"/><line style="stroke:#181818;stroke-width:1.0;stroke-dasharray:2.0,2.0;" x1="86.25" x2="274.25" y1="347.4688" y2="347.4688"/><text fill="#000000" font-family="sans-serif" font-size="13" font-weight="bold" lengthAdjust="spacing" textLength="7" x="98.25" y="342.7139">8</text><text fill="#000000" font-family="sans-serif" font-size="13" lengthAdjust="spacing" textLength="149" x="109.25" y="342.7139">asks for data confirmation</text><polygon fill="#181818" points="258.25,371.9922,268.25,375.9922,258.25,379.9922,262.25,375.9922" style="stroke:#181818;stroke-width:1.0;"/><line style="stroke:#181818;stroke-width:1.0;" x1="81.25" x2="264.25" y1="375.9922" y2="375.9922"/><text fill="#000000" font-family="sans-serif" font-size="13" font-weight="bold" lengthAdjust="spacing" textLength="7" x="88.25" y="371.2373">9</text><text fill="#000000" font-family="sans-serif" font-size="13" lengthAdjust="spacing" textLength="128" x="99.25" y="371.2373">confirms data inserted</text><polygon fill="#181818" points="92.25,400.5156,82.25,404.5156,92.25,408.5156,88.25,404.5156" style="stroke:#181818;stroke-width:1.0;"/><line style="stroke:#181818;stroke-width:1.0;stroke-dasharray:2.0,2.0;" x1="86.25" x2="274.25" y1="404.5156" y2="404.5156"/><text fill="#000000" font-family="sans-serif" font-size="13" font-weight="bold" lengthAdjust="spacing" textLength="14" x="98.25" y="399.7607">10</text><text fill="#000000" font-family="sans-serif" font-size="13" lengthAdjust="spacing" textLength="147" x="116.25" y="399.7607">shows operation success</text><!--SRC=[pP9BQWCn38RtFeN8Aba4ikeYYq8XDp0zW68h4v6nFRKq3NFxEiuqZv8sq0VKAsFz-lp9M7OSEymO8AIOt3QdGA2v9oEdIeTkXmrP7Lg2J4unDkrbGBReqvvZ0njiXOnHrXArWoW5iFJIKtG4AyRc49zQkvh179wjNImUZC5UK-p3cdBPEqqP9cFhamySMJHZEPq0oiYyEZT5GjbnXr5XiZmcBi8Log-eTBFRG5at2Z1_V9zWMM0x0Krb-gRKAGD2cnmgfrZxFznmX9x1C3_1hkzO5c9v7L41Zuem5IsKMMttT9DwJvMZK2wy4Ko-ad_NqXzAxFJVYphMuKl9ln2zArb_qwPigwHBSSCvd3_JDzzpv8oZ7wN9_q1Jjcala3hArGsaTuv4Fd5y0m00]--></g></svg>