<?xml version="1.0" encoding="us-ascii" standalone="no"?><svg xmlns="http://www.w3.org/2000/svg" xmlns:xlink="http://www.w3.org/1999/xlink" contentStyleType="text/css" height="575px" preserveAspectRatio="none" style="width:1362px;height:575px;background:#FFFFFF;" version="1.1" viewBox="0 0 1362 575" width="1362px" zoomAndPan="magnify"><defs/><g><!--class Property--><g id="elem_Property"><rect codeLine="11" fill="#F1F1F1" height="110.5625" id="Property" rx="2.5" ry="2.5" style="stroke:#181818;stroke-width:0.5;" width="154" x="1201.5" y="209"/><ellipse cx="1247.25" cy="225" fill="#ADD1B2" rx="11" ry="11" style="stroke:#181818;stroke-width:1.0;"/><path d="M1250.0156,220.875 Q1250.1719,220.6563 1250.3594,220.5469 Q1250.5469,220.4375 1250.7656,220.4375 Q1251.1406,220.4375 1251.375,220.7031 Q1251.6094,220.9531 1251.6094,221.5625 L1251.6094,223.0156 Q1251.6094,223.625 1251.375,223.8906 Q1251.1406,224.1563 1250.7656,224.1563 Q1250.4219,224.1563 1250.2188,223.9531 Q1250.0156,223.7656 1249.9063,223.25 Q1249.8594,222.8906 1249.6719,222.7031 Q1249.3438,222.3281 1248.7344,222.1094 Q1248.125,221.8906 1247.5,221.8906 Q1246.7344,221.8906 1246.0938,222.2188 Q1245.4688,222.5469 1244.9688,223.2969 Q1244.4844,224.0469 1244.4844,225.0781 L1244.4844,226.1719 Q1244.4844,227.4063 1245.375,228.2344 Q1246.2656,229.0469 1247.8594,229.0469 Q1248.7969,229.0469 1249.4531,228.7969 Q1249.8438,228.6406 1250.2656,228.2031 Q1250.5313,227.9375 1250.6719,227.8594 Q1250.8281,227.7813 1251.0313,227.7813 Q1251.3594,227.7813 1251.6094,228.0469 Q1251.875,228.2969 1251.875,228.6406 Q1251.875,228.9844 1251.5313,229.3906 Q1251.0313,229.9688 1250.2344,230.2969 Q1249.1563,230.75 1247.8594,230.75 Q1246.3438,230.75 1245.1406,230.125 Q1244.1563,229.625 1243.4688,228.5625 Q1242.7813,227.4844 1242.7813,226.2031 L1242.7813,225.0469 Q1242.7813,223.7188 1243.3906,222.5781 Q1244.0156,221.4219 1245.1094,220.8125 Q1246.2031,220.1875 1247.4375,220.1875 Q1248.1719,220.1875 1248.8125,220.3594 Q1249.4688,220.5156 1250.0156,220.875 Z " fill="#000000"/><text fill="#000000" font-family="sans-serif" font-size="14" lengthAdjust="spacing" textLength="54" x="1267.75" y="229.8535">Property</text><line style="stroke:#181818;stroke-width:0.5;" x1="1202.5" x2="1354.5" y1="241" y2="241"/><text fill="#000000" font-family="sans-serif" font-size="14" lengthAdjust="spacing" textLength="67" x="1207.5" y="257.6738">-float price</text><text fill="#000000" font-family="sans-serif" font-size="14" lengthAdjust="spacing" textLength="142" x="1207.5" y="273.3145">-String typeOfProperty</text><line style="stroke:#181818;stroke-width:0.5;" x1="1202.5" x2="1354.5" y1="280.2813" y2="280.2813"/><text fill="#000000" font-family="sans-serif" font-size="14" lengthAdjust="spacing" textLength="70" x="1207.5" y="296.9551">+getPrice()</text><text fill="#000000" font-family="sans-serif" font-size="14" lengthAdjust="spacing" textLength="139" x="1207.5" y="312.5957">+getTypeOfProperty()</text></g><!--class Announcement--><g id="elem_Announcement"><rect codeLine="18" fill="#F1F1F1" height="110.5625" id="Announcement" rx="2.5" ry="2.5" style="stroke:#181818;stroke-width:0.5;" width="127" x="1215" y="419"/><ellipse cx="1230" cy="435" fill="#ADD1B2" rx="11" ry="11" style="stroke:#181818;stroke-width:1.0;"/><path d="M1232.7656,430.875 Q1232.9219,430.6563 1233.1094,430.5469 Q1233.2969,430.4375 1233.5156,430.4375 Q1233.8906,430.4375 1234.125,430.7031 Q1234.3594,430.9531 1234.3594,431.5625 L1234.3594,433.0156 Q1234.3594,433.625 1234.125,433.8906 Q1233.8906,434.1563 1233.5156,434.1563 Q1233.1719,434.1563 1232.9688,433.9531 Q1232.7656,433.7656 1232.6563,433.25 Q1232.6094,432.8906 1232.4219,432.7031 Q1232.0938,432.3281 1231.4844,432.1094 Q1230.875,431.8906 1230.25,431.8906 Q1229.4844,431.8906 1228.8438,432.2188 Q1228.2188,432.5469 1227.7188,433.2969 Q1227.2344,434.0469 1227.2344,435.0781 L1227.2344,436.1719 Q1227.2344,437.4063 1228.125,438.2344 Q1229.0156,439.0469 1230.6094,439.0469 Q1231.5469,439.0469 1232.2031,438.7969 Q1232.5938,438.6406 1233.0156,438.2031 Q1233.2813,437.9375 1233.4219,437.8594 Q1233.5781,437.7813 1233.7813,437.7813 Q1234.1094,437.7813 1234.3594,438.0469 Q1234.625,438.2969 1234.625,438.6406 Q1234.625,438.9844 1234.2813,439.3906 Q1233.7813,439.9688 1232.9844,440.2969 Q1231.9063,440.75 1230.6094,440.75 Q1229.0938,440.75 1227.8906,440.125 Q1226.9063,439.625 1226.2188,438.5625 Q1225.5313,437.4844 1225.5313,436.2031 L1225.5313,435.0469 Q1225.5313,433.7188 1226.1406,432.5781 Q1226.7656,431.4219 1227.8594,430.8125 Q1228.9531,430.1875 1230.1875,430.1875 Q1230.9219,430.1875 1231.5625,430.3594 Q1232.2188,430.5156 1232.7656,430.875 Z " fill="#000000"/><text fill="#000000" font-family="sans-serif" font-size="14" lengthAdjust="spacing" textLength="95" x="1244" y="439.8535">Announcement</text><line style="stroke:#181818;stroke-width:0.5;" x1="1216" x2="1341" y1="451" y2="451"/><text fill="#000000" font-family="sans-serif" font-size="14" lengthAdjust="spacing" textLength="67" x="1221" y="467.6738">-String city</text><text fill="#000000" font-family="sans-serif" font-size="14" lengthAdjust="spacing" textLength="77" x="1221" y="483.3145">-String state</text><line style="stroke:#181818;stroke-width:0.5;" x1="1216" x2="1341" y1="490.2813" y2="490.2813"/><text fill="#000000" font-family="sans-serif" font-size="14" lengthAdjust="spacing" textLength="62" x="1221" y="506.9551">+getCity()</text><text fill="#000000" font-family="sans-serif" font-size="14" lengthAdjust="spacing" textLength="71" x="1221" y="522.5957">+getState()</text></g><!--class ScheduleVisitUI--><g id="elem_ScheduleVisitUI"><rect codeLine="26" fill="#F1F1F1" height="48" id="ScheduleVisitUI" rx="2.5" ry="2.5" style="stroke:#181818;stroke-width:0.5;" width="129" x="7" y="54"/><ellipse cx="22" cy="70" fill="#ADD1B2" rx="11" ry="11" style="stroke:#181818;stroke-width:1.0;"/><path d="M24.7656,65.875 Q24.9219,65.6563 25.1094,65.5469 Q25.2969,65.4375 25.5156,65.4375 Q25.8906,65.4375 26.125,65.7031 Q26.3594,65.9531 26.3594,66.5625 L26.3594,68.0156 Q26.3594,68.625 26.125,68.8906 Q25.8906,69.1563 25.5156,69.1563 Q25.1719,69.1563 24.9688,68.9531 Q24.7656,68.7656 24.6563,68.25 Q24.6094,67.8906 24.4219,67.7031 Q24.0938,67.3281 23.4844,67.1094 Q22.875,66.8906 22.25,66.8906 Q21.4844,66.8906 20.8438,67.2188 Q20.2188,67.5469 19.7188,68.2969 Q19.2344,69.0469 19.2344,70.0781 L19.2344,71.1719 Q19.2344,72.4063 20.125,73.2344 Q21.0156,74.0469 22.6094,74.0469 Q23.5469,74.0469 24.2031,73.7969 Q24.5938,73.6406 25.0156,73.2031 Q25.2813,72.9375 25.4219,72.8594 Q25.5781,72.7813 25.7813,72.7813 Q26.1094,72.7813 26.3594,73.0469 Q26.625,73.2969 26.625,73.6406 Q26.625,73.9844 26.2813,74.3906 Q25.7813,74.9688 24.9844,75.2969 Q23.9063,75.75 22.6094,75.75 Q21.0938,75.75 19.8906,75.125 Q18.9063,74.625 18.2188,73.5625 Q17.5313,72.4844 17.5313,71.2031 L17.5313,70.0469 Q17.5313,68.7188 18.1406,67.5781 Q18.7656,66.4219 19.8594,65.8125 Q20.9531,65.1875 22.1875,65.1875 Q22.9219,65.1875 23.5625,65.3594 Q24.2188,65.5156 24.7656,65.875 Z " fill="#000000"/><text fill="#000000" font-family="sans-serif" font-size="14" lengthAdjust="spacing" textLength="97" x="36" y="74.8535">ScheduleVisitUI</text><line style="stroke:#181818;stroke-width:0.5;" x1="8" x2="135" y1="86" y2="86"/><line style="stroke:#181818;stroke-width:0.5;" x1="8" x2="135" y1="94" y2="94"/></g><!--class MessageRepository--><g id="elem_MessageRepository"><rect codeLine="29" fill="#F1F1F1" height="48" id="MessageRepository" rx="2.5" ry="2.5" style="stroke:#181818;stroke-width:0.5;" width="157" x="23" y="450.5"/><ellipse cx="38" cy="466.5" fill="#ADD1B2" rx="11" ry="11" style="stroke:#181818;stroke-width:1.0;"/><path d="M40.7656,462.375 Q40.9219,462.1563 41.1094,462.0469 Q41.2969,461.9375 41.5156,461.9375 Q41.8906,461.9375 42.125,462.2031 Q42.3594,462.4531 42.3594,463.0625 L42.3594,464.5156 Q42.3594,465.125 42.125,465.3906 Q41.8906,465.6563 41.5156,465.6563 Q41.1719,465.6563 40.9688,465.4531 Q40.7656,465.2656 40.6563,464.75 Q40.6094,464.3906 40.4219,464.2031 Q40.0938,463.8281 39.4844,463.6094 Q38.875,463.3906 38.25,463.3906 Q37.4844,463.3906 36.8438,463.7188 Q36.2188,464.0469 35.7188,464.7969 Q35.2344,465.5469 35.2344,466.5781 L35.2344,467.6719 Q35.2344,468.9063 36.125,469.7344 Q37.0156,470.5469 38.6094,470.5469 Q39.5469,470.5469 40.2031,470.2969 Q40.5938,470.1406 41.0156,469.7031 Q41.2813,469.4375 41.4219,469.3594 Q41.5781,469.2813 41.7813,469.2813 Q42.1094,469.2813 42.3594,469.5469 Q42.625,469.7969 42.625,470.1406 Q42.625,470.4844 42.2813,470.8906 Q41.7813,471.4688 40.9844,471.7969 Q39.9063,472.25 38.6094,472.25 Q37.0938,472.25 35.8906,471.625 Q34.9063,471.125 34.2188,470.0625 Q33.5313,468.9844 33.5313,467.7031 L33.5313,466.5469 Q33.5313,465.2188 34.1406,464.0781 Q34.7656,462.9219 35.8594,462.3125 Q36.9531,461.6875 38.1875,461.6875 Q38.9219,461.6875 39.5625,461.8594 Q40.2188,462.0156 40.7656,462.375 Z " fill="#000000"/><text fill="#000000" font-family="sans-serif" font-size="14" lengthAdjust="spacing" textLength="125" x="52" y="471.3535">MessageRepository</text><line style="stroke:#181818;stroke-width:0.5;" x1="24" x2="179" y1="482.5" y2="482.5"/><line style="stroke:#181818;stroke-width:0.5;" x1="24" x2="179" y1="490.5" y2="490.5"/></g><!--class UserRepository--><g id="elem_UserRepository"><rect codeLine="32" fill="#F1F1F1" height="48" id="UserRepository" rx="2.5" ry="2.5" style="stroke:#181818;stroke-width:0.5;" width="129" x="339" y="450.5"/><ellipse cx="354" cy="466.5" fill="#ADD1B2" rx="11" ry="11" style="stroke:#181818;stroke-width:1.0;"/><path d="M356.7656,462.375 Q356.9219,462.1563 357.1094,462.0469 Q357.2969,461.9375 357.5156,461.9375 Q357.8906,461.9375 358.125,462.2031 Q358.3594,462.4531 358.3594,463.0625 L358.3594,464.5156 Q358.3594,465.125 358.125,465.3906 Q357.8906,465.6563 357.5156,465.6563 Q357.1719,465.6563 356.9688,465.4531 Q356.7656,465.2656 356.6563,464.75 Q356.6094,464.3906 356.4219,464.2031 Q356.0938,463.8281 355.4844,463.6094 Q354.875,463.3906 354.25,463.3906 Q353.4844,463.3906 352.8438,463.7188 Q352.2188,464.0469 351.7188,464.7969 Q351.2344,465.5469 351.2344,466.5781 L351.2344,467.6719 Q351.2344,468.9063 352.125,469.7344 Q353.0156,470.5469 354.6094,470.5469 Q355.5469,470.5469 356.2031,470.2969 Q356.5938,470.1406 357.0156,469.7031 Q357.2813,469.4375 357.4219,469.3594 Q357.5781,469.2813 357.7813,469.2813 Q358.1094,469.2813 358.3594,469.5469 Q358.625,469.7969 358.625,470.1406 Q358.625,470.4844 358.2813,470.8906 Q357.7813,471.4688 356.9844,471.7969 Q355.9063,472.25 354.6094,472.25 Q353.0938,472.25 351.8906,471.625 Q350.9063,471.125 350.2188,470.0625 Q349.5313,468.9844 349.5313,467.7031 L349.5313,466.5469 Q349.5313,465.2188 350.1406,464.0781 Q350.7656,462.9219 351.8594,462.3125 Q352.9531,461.6875 354.1875,461.6875 Q354.9219,461.6875 355.5625,461.8594 Q356.2188,462.0156 356.7656,462.375 Z " fill="#000000"/><text fill="#000000" font-family="sans-serif" font-size="14" lengthAdjust="spacing" textLength="97" x="368" y="471.3535">UserRepository</text><line style="stroke:#181818;stroke-width:0.5;" x1="340" x2="467" y1="482.5" y2="482.5"/><line style="stroke:#181818;stroke-width:0.5;" x1="340" x2="467" y1="490.5" y2="490.5"/></g><!--class ScheduleVisitController--><g id="elem_ScheduleVisitController"><rect codeLine="35" fill="#F1F1F1" height="141.8438" id="ScheduleVisitController" rx="2.5" ry="2.5" style="stroke:#181818;stroke-width:0.5;" width="465" x="171" y="7"/><ellipse cx="325.75" cy="23" fill="#ADD1B2" rx="11" ry="11" style="stroke:#181818;stroke-width:1.0;"/><path d="M328.5156,18.875 Q328.6719,18.6563 328.8594,18.5469 Q329.0469,18.4375 329.2656,18.4375 Q329.6406,18.4375 329.875,18.7031 Q330.1094,18.9531 330.1094,19.5625 L330.1094,21.0156 Q330.1094,21.625 329.875,21.8906 Q329.6406,22.1563 329.2656,22.1563 Q328.9219,22.1563 328.7188,21.9531 Q328.5156,21.7656 328.4063,21.25 Q328.3594,20.8906 328.1719,20.7031 Q327.8438,20.3281 327.2344,20.1094 Q326.625,19.8906 326,19.8906 Q325.2344,19.8906 324.5938,20.2188 Q323.9688,20.5469 323.4688,21.2969 Q322.9844,22.0469 322.9844,23.0781 L322.9844,24.1719 Q322.9844,25.4063 323.875,26.2344 Q324.7656,27.0469 326.3594,27.0469 Q327.2969,27.0469 327.9531,26.7969 Q328.3438,26.6406 328.7656,26.2031 Q329.0313,25.9375 329.1719,25.8594 Q329.3281,25.7813 329.5313,25.7813 Q329.8594,25.7813 330.1094,26.0469 Q330.375,26.2969 330.375,26.6406 Q330.375,26.9844 330.0313,27.3906 Q329.5313,27.9688 328.7344,28.2969 Q327.6563,28.75 326.3594,28.75 Q324.8438,28.75 323.6406,28.125 Q322.6563,27.625 321.9688,26.5625 Q321.2813,25.4844 321.2813,24.2031 L321.2813,23.0469 Q321.2813,21.7188 321.8906,20.5781 Q322.5156,19.4219 323.6094,18.8125 Q324.7031,18.1875 325.9375,18.1875 Q326.6719,18.1875 327.3125,18.3594 Q327.9688,18.5156 328.5156,18.875 Z " fill="#000000"/><text fill="#000000" font-family="sans-serif" font-size="14" lengthAdjust="spacing" textLength="147" x="346.25" y="27.8535">ScheduleVisitController</text><line style="stroke:#181818;stroke-width:0.5;" x1="172" x2="635" y1="39" y2="39"/><line style="stroke:#181818;stroke-width:0.5;" x1="172" x2="635" y1="47" y2="47"/><text fill="#000000" font-family="sans-serif" font-size="14" lengthAdjust="spacing" textLength="360" x="177" y="63.6738">+DisplayPropertiesController(announcementsRepository)</text><text fill="#000000" font-family="sans-serif" font-size="14" lengthAdjust="spacing" textLength="453" x="177" y="79.3145">+displayProperties(number of rooms, type of business, type of property)</text><text fill="#000000" font-family="sans-serif" font-size="14" lengthAdjust="spacing" textLength="140" x="177" y="94.9551">+getAnnouncements()</text><text fill="#000000" font-family="sans-serif" font-size="14" lengthAdjust="spacing" textLength="131" x="177" y="110.5957">+sortPropertiesCity()</text><text fill="#000000" font-family="sans-serif" font-size="14" lengthAdjust="spacing" textLength="139" x="177" y="126.2363">+sortPropertiesPrice()</text><text fill="#000000" font-family="sans-serif" font-size="14" lengthAdjust="spacing" textLength="140" x="177" y="141.877">+sortPropertiesState()</text></g><!--class Repositories--><g id="elem_Repositories"><rect codeLine="45" fill="#F1F1F1" height="94.9219" id="Repositories" rx="2.5" ry="2.5" style="stroke:#181818;stroke-width:0.5;" width="220" x="293.5" y="217"/><ellipse cx="359.75" cy="233" fill="#ADD1B2" rx="11" ry="11" style="stroke:#181818;stroke-width:1.0;"/><path d="M362.5156,228.875 Q362.6719,228.6563 362.8594,228.5469 Q363.0469,228.4375 363.2656,228.4375 Q363.6406,228.4375 363.875,228.7031 Q364.1094,228.9531 364.1094,229.5625 L364.1094,231.0156 Q364.1094,231.625 363.875,231.8906 Q363.6406,232.1563 363.2656,232.1563 Q362.9219,232.1563 362.7188,231.9531 Q362.5156,231.7656 362.4063,231.25 Q362.3594,230.8906 362.1719,230.7031 Q361.8438,230.3281 361.2344,230.1094 Q360.625,229.8906 360,229.8906 Q359.2344,229.8906 358.5938,230.2188 Q357.9688,230.5469 357.4688,231.2969 Q356.9844,232.0469 356.9844,233.0781 L356.9844,234.1719 Q356.9844,235.4063 357.875,236.2344 Q358.7656,237.0469 360.3594,237.0469 Q361.2969,237.0469 361.9531,236.7969 Q362.3438,236.6406 362.7656,236.2031 Q363.0313,235.9375 363.1719,235.8594 Q363.3281,235.7813 363.5313,235.7813 Q363.8594,235.7813 364.1094,236.0469 Q364.375,236.2969 364.375,236.6406 Q364.375,236.9844 364.0313,237.3906 Q363.5313,237.9688 362.7344,238.2969 Q361.6563,238.75 360.3594,238.75 Q358.8438,238.75 357.6406,238.125 Q356.6563,237.625 355.9688,236.5625 Q355.2813,235.4844 355.2813,234.2031 L355.2813,233.0469 Q355.2813,231.7188 355.8906,230.5781 Q356.5156,229.4219 357.6094,228.8125 Q358.7031,228.1875 359.9375,228.1875 Q360.6719,228.1875 361.3125,228.3594 Q361.9688,228.5156 362.5156,228.875 Z " fill="#000000"/><text fill="#000000" font-family="sans-serif" font-size="14" lengthAdjust="spacing" textLength="79" x="380.25" y="237.8535">Repositories</text><line style="stroke:#181818;stroke-width:0.5;" x1="294.5" x2="512.5" y1="249" y2="249"/><line style="stroke:#181818;stroke-width:0.5;" x1="294.5" x2="512.5" y1="257" y2="257"/><text fill="#000000" font-family="sans-serif" font-size="14" lengthAdjust="spacing" textLength="94" x="299.5" y="273.6738">-Repositories()</text><text fill="#000000" font-family="sans-serif" font-size="14" lengthAdjust="spacing" textLength="178" x="299.5" y="289.3145">+getInstance(): Repositories</text><text fill="#000000" font-family="sans-serif" font-size="14" lengthAdjust="spacing" textLength="208" x="299.5" y="304.9551">+getAnnouncementsRepository()</text></g><!--class AnnouncementsRepository--><g id="elem_AnnouncementsRepository"><rect codeLine="51" fill="#F1F1F1" height="188.7656" id="AnnouncementsRepository" rx="2.5" ry="2.5" style="stroke:#181818;stroke-width:0.5;" width="581" x="599" y="380"/><ellipse cx="800.25" cy="396" fill="#ADD1B2" rx="11" ry="11" style="stroke:#181818;stroke-width:1.0;"/><path d="M803.0156,391.875 Q803.1719,391.6563 803.3594,391.5469 Q803.5469,391.4375 803.7656,391.4375 Q804.1406,391.4375 804.375,391.7031 Q804.6094,391.9531 804.6094,392.5625 L804.6094,394.0156 Q804.6094,394.625 804.375,394.8906 Q804.1406,395.1563 803.7656,395.1563 Q803.4219,395.1563 803.2188,394.9531 Q803.0156,394.7656 802.9063,394.25 Q802.8594,393.8906 802.6719,393.7031 Q802.3438,393.3281 801.7344,393.1094 Q801.125,392.8906 800.5,392.8906 Q799.7344,392.8906 799.0938,393.2188 Q798.4688,393.5469 797.9688,394.2969 Q797.4844,395.0469 797.4844,396.0781 L797.4844,397.1719 Q797.4844,398.4063 798.375,399.2344 Q799.2656,400.0469 800.8594,400.0469 Q801.7969,400.0469 802.4531,399.7969 Q802.8438,399.6406 803.2656,399.2031 Q803.5313,398.9375 803.6719,398.8594 Q803.8281,398.7813 804.0313,398.7813 Q804.3594,398.7813 804.6094,399.0469 Q804.875,399.2969 804.875,399.6406 Q804.875,399.9844 804.5313,400.3906 Q804.0313,400.9688 803.2344,401.2969 Q802.1563,401.75 800.8594,401.75 Q799.3438,401.75 798.1406,401.125 Q797.1563,400.625 796.4688,399.5625 Q795.7813,398.4844 795.7813,397.2031 L795.7813,396.0469 Q795.7813,394.7188 796.3906,393.5781 Q797.0156,392.4219 798.1094,391.8125 Q799.2031,391.1875 800.4375,391.1875 Q801.1719,391.1875 801.8125,391.3594 Q802.4688,391.5156 803.0156,391.875 Z " fill="#000000"/><text fill="#000000" font-family="sans-serif" font-size="14" lengthAdjust="spacing" textLength="170" x="820.75" y="400.8535">AnnouncementsRepository</text><line style="stroke:#181818;stroke-width:0.5;" x1="600" x2="1179" y1="412" y2="412"/><text fill="#000000" font-family="sans-serif" font-size="14" lengthAdjust="spacing" textLength="277" x="605" y="428.6738">-ArrayList&lt;Announcement&gt; announcements</text><line style="stroke:#181818;stroke-width:0.5;" x1="600" x2="1179" y1="435.6406" y2="435.6406"/><text fill="#000000" font-family="sans-serif" font-size="14" lengthAdjust="spacing" textLength="569" x="605" y="452.3145">+getAnnouncementByCharacteristics(number of rooms, type of business, type of property)</text><text fill="#000000" font-family="sans-serif" font-size="14" lengthAdjust="spacing" textLength="133" x="605" y="467.9551">+getAnnouncement()</text><text fill="#000000" font-family="sans-serif" font-size="14" lengthAdjust="spacing" textLength="197" x="605" y="483.5957">+sortPropertiesCityAscending()</text><text fill="#000000" font-family="sans-serif" font-size="14" lengthAdjust="spacing" textLength="206" x="605" y="499.2363">+sortPropertiesCityDescending()</text><text fill="#000000" font-family="sans-serif" font-size="14" lengthAdjust="spacing" textLength="205" x="605" y="514.877">+sortPropertiesPriceAscending()</text><text fill="#000000" font-family="sans-serif" font-size="14" lengthAdjust="spacing" textLength="214" x="605" y="530.5176">+sortPropertiesPriceDescending()</text><text fill="#000000" font-family="sans-serif" font-size="14" lengthAdjust="spacing" textLength="206" x="605" y="546.1582">+sortPropertiesStateAscending()</text><text fill="#000000" font-family="sans-serif" font-size="14" lengthAdjust="spacing" textLength="215" x="605" y="561.7988">+sortPropertiesStateDescending()</text></g><!--class Message--><g id="elem_Message"><rect codeLine="63" fill="#F1F1F1" height="48" id="Message" rx="2.5" ry="2.5" style="stroke:#181818;stroke-width:0.5;" width="89" x="215" y="450.5"/><ellipse cx="230" cy="466.5" fill="#ADD1B2" rx="11" ry="11" style="stroke:#181818;stroke-width:1.0;"/><path d="M232.7656,462.375 Q232.9219,462.1563 233.1094,462.0469 Q233.2969,461.9375 233.5156,461.9375 Q233.8906,461.9375 234.125,462.2031 Q234.3594,462.4531 234.3594,463.0625 L234.3594,464.5156 Q234.3594,465.125 234.125,465.3906 Q233.8906,465.6563 233.5156,465.6563 Q233.1719,465.6563 232.9688,465.4531 Q232.7656,465.2656 232.6563,464.75 Q232.6094,464.3906 232.4219,464.2031 Q232.0938,463.8281 231.4844,463.6094 Q230.875,463.3906 230.25,463.3906 Q229.4844,463.3906 228.8438,463.7188 Q228.2188,464.0469 227.7188,464.7969 Q227.2344,465.5469 227.2344,466.5781 L227.2344,467.6719 Q227.2344,468.9063 228.125,469.7344 Q229.0156,470.5469 230.6094,470.5469 Q231.5469,470.5469 232.2031,470.2969 Q232.5938,470.1406 233.0156,469.7031 Q233.2813,469.4375 233.4219,469.3594 Q233.5781,469.2813 233.7813,469.2813 Q234.1094,469.2813 234.3594,469.5469 Q234.625,469.7969 234.625,470.1406 Q234.625,470.4844 234.2813,470.8906 Q233.7813,471.4688 232.9844,471.7969 Q231.9063,472.25 230.6094,472.25 Q229.0938,472.25 227.8906,471.625 Q226.9063,471.125 226.2188,470.0625 Q225.5313,468.9844 225.5313,467.7031 L225.5313,466.5469 Q225.5313,465.2188 226.1406,464.0781 Q226.7656,462.9219 227.8594,462.3125 Q228.9531,461.6875 230.1875,461.6875 Q230.9219,461.6875 231.5625,461.8594 Q232.2188,462.0156 232.7656,462.375 Z " fill="#000000"/><text fill="#000000" font-family="sans-serif" font-size="14" lengthAdjust="spacing" textLength="57" x="244" y="471.3535">Message</text><line style="stroke:#181818;stroke-width:0.5;" x1="216" x2="303" y1="482.5" y2="482.5"/><line style="stroke:#181818;stroke-width:0.5;" x1="216" x2="303" y1="490.5" y2="490.5"/></g><!--class User--><g id="elem_User"><rect codeLine="66" fill="#F1F1F1" height="48" id="User" rx="2.5" ry="2.5" style="stroke:#181818;stroke-width:0.5;" width="61" x="503" y="450.5"/><ellipse cx="518" cy="466.5" fill="#ADD1B2" rx="11" ry="11" style="stroke:#181818;stroke-width:1.0;"/><path d="M520.7656,462.375 Q520.9219,462.1563 521.1094,462.0469 Q521.2969,461.9375 521.5156,461.9375 Q521.8906,461.9375 522.125,462.2031 Q522.3594,462.4531 522.3594,463.0625 L522.3594,464.5156 Q522.3594,465.125 522.125,465.3906 Q521.8906,465.6563 521.5156,465.6563 Q521.1719,465.6563 520.9688,465.4531 Q520.7656,465.2656 520.6563,464.75 Q520.6094,464.3906 520.4219,464.2031 Q520.0938,463.8281 519.4844,463.6094 Q518.875,463.3906 518.25,463.3906 Q517.4844,463.3906 516.8438,463.7188 Q516.2188,464.0469 515.7188,464.7969 Q515.2344,465.5469 515.2344,466.5781 L515.2344,467.6719 Q515.2344,468.9063 516.125,469.7344 Q517.0156,470.5469 518.6094,470.5469 Q519.5469,470.5469 520.2031,470.2969 Q520.5938,470.1406 521.0156,469.7031 Q521.2813,469.4375 521.4219,469.3594 Q521.5781,469.2813 521.7813,469.2813 Q522.1094,469.2813 522.3594,469.5469 Q522.625,469.7969 522.625,470.1406 Q522.625,470.4844 522.2813,470.8906 Q521.7813,471.4688 520.9844,471.7969 Q519.9063,472.25 518.6094,472.25 Q517.0938,472.25 515.8906,471.625 Q514.9063,471.125 514.2188,470.0625 Q513.5313,468.9844 513.5313,467.7031 L513.5313,466.5469 Q513.5313,465.2188 514.1406,464.0781 Q514.7656,462.9219 515.8594,462.3125 Q516.9531,461.6875 518.1875,461.6875 Q518.9219,461.6875 519.5625,461.8594 Q520.2188,462.0156 520.7656,462.375 Z " fill="#000000"/><text fill="#000000" font-family="sans-serif" font-size="14" lengthAdjust="spacing" textLength="29" x="532" y="471.3535">User</text><line style="stroke:#181818;stroke-width:0.5;" x1="504" x2="563" y1="482.5" y2="482.5"/><line style="stroke:#181818;stroke-width:0.5;" x1="504" x2="563" y1="490.5" y2="490.5"/></g><!--link ScheduleVisitUI to ScheduleVisitController--><g id="link_ScheduleVisitUI_ScheduleVisitController"><path codeLine="70" d="M136.02,78 C145.88,78 155.74,78 165.6,78 " fill="none" id="ScheduleVisitUI-to-ScheduleVisitController" style="stroke:#181818;stroke-width:1.0;"/><polygon fill="#181818" points="170.76,78,161.76,74,165.76,78,161.76,82,170.76,78" style="stroke:#181818;stroke-width:1.0;"/></g><!--link ScheduleVisitController to Repositories--><g id="link_ScheduleVisitController_Repositories"><path codeLine="72" d="M403.5,149.01 C403.5,169.79 403.5,192.17 403.5,211.59 " fill="none" id="ScheduleVisitController-to-Repositories" style="stroke:#181818;stroke-width:1.0;"/><polygon fill="#181818" points="403.5,216.98,407.5,207.98,403.5,211.98,399.5,207.98,403.5,216.98" style="stroke:#181818;stroke-width:1.0;"/></g><!--link Repositories to AnnouncementsRepository--><g id="link_Repositories_AnnouncementsRepository"><path codeLine="74" d="M512.27,312.05 C557.76,331.52 612.4,354.91 665.8,377.76 " fill="none" id="Repositories-to-AnnouncementsRepository" style="stroke:#181818;stroke-width:1.0;"/><polygon fill="#181818" points="670.63,379.83,663.9334,372.6081,666.0343,377.8604,660.782,379.9613,670.63,379.83" style="stroke:#181818;stroke-width:1.0;"/></g><!--link Repositories to UserRepository--><g id="link_Repositories_UserRepository"><path codeLine="75" d="M403.5,312.18 C403.5,353 403.5,410.94 403.5,445.13 " fill="none" id="Repositories-to-UserRepository" style="stroke:#181818;stroke-width:1.0;"/><polygon fill="#181818" points="403.5,450.41,407.5,441.41,403.5,445.41,399.5,441.41,403.5,450.41" style="stroke:#181818;stroke-width:1.0;"/></g><!--link Repositories to MessageRepository--><g id="link_Repositories_MessageRepository"><path codeLine="76" d="M307.46,312.07 C271.65,331.16 231.47,354.72 197.5,380 C170.9,399.79 144.17,426.52 125.69,446.33 " fill="none" id="Repositories-to-MessageRepository" style="stroke:#181818;stroke-width:1.0;"/><polygon fill="#181818" points="122.11,450.2,131.1676,446.3321,125.5144,446.5381,125.3085,440.885,122.11,450.2" style="stroke:#181818;stroke-width:1.0;"/></g><!--reverse link MessageRepository to Message--><g id="link_MessageRepository_Message"><path codeLine="78" d="M185.34,474.5 C195.19,474.5 205.04,474.5 214.89,474.5 " fill="none" id="MessageRepository-backto-Message" style="stroke:#181818;stroke-width:1.0;"/><polygon fill="#181818" points="180.19,474.5,189.19,478.5,185.19,474.5,189.19,470.5,180.19,474.5" style="stroke:#181818;stroke-width:1.0;"/></g><!--reverse link UserRepository to User--><g id="link_UserRepository_User"><path codeLine="80" d="M473.39,474.5 C483.23,474.5 493.07,474.5 502.91,474.5 " fill="none" id="UserRepository-backto-User" style="stroke:#181818;stroke-width:1.0;"/><polygon fill="#181818" points="468.25,474.5,477.25,478.5,473.25,474.5,477.25,470.5,468.25,474.5" style="stroke:#181818;stroke-width:1.0;"/></g><!--reverse link AnnouncementsRepository to Announcement--><g id="link_AnnouncementsRepository_Announcement"><path codeLine="82" d="M1185.24,474.5 C1195.06,474.5 1204.88,474.5 1214.7,474.5 " fill="none" id="AnnouncementsRepository-backto-Announcement" style="stroke:#181818;stroke-width:1.0;"/><polygon fill="#181818" points="1180.11,474.5,1189.11,478.5,1185.11,474.5,1189.11,470.5,1180.11,474.5" style="stroke:#181818;stroke-width:1.0;"/></g><!--link Property to Announcement--><g id="link_Property_Announcement"><path codeLine="84" d="M1278.5,320.15 C1278.5,348.94 1278.5,384.29 1278.5,413.8 " fill="none" id="Property-to-Announcement" style="stroke:#181818;stroke-width:1.0;"/><polygon fill="#181818" points="1278.5,418.85,1282.5,409.85,1278.5,413.85,1274.5,409.85,1278.5,418.85" style="stroke:#181818;stroke-width:1.0;"/></g><!--SRC=[hLJ1Rfmm4BtxAtpBLYbIprKKYMukAxLgL9hUlMO0AyP6da4LNVNVQxEmsCkIN7fZviqyZzyRSuUlodJ2YPQtrbZPEDi29zS3Mv1Eo5THGq631kv0aZ2rZWkm4QNzhKpDAw4nHhGoG4C7lBDw2C4jp3goB0Aa5eWvaLF7dk0WhIdK7-2V6BlJK14dovsg6-Ab2jCeQnWRU_Ypinqu6auigxGLn3kd9B2iy5n-kd3QzsekOlSrq7Ces7qOltyci4_-dNbpOsnl9BHWw7IXaygJp06I81Xfzcfi3fz5I9w99gP2Db3s6dufLFHoE2rdV0D4h_8FwAo7h1iYx0N1tGGIkhqrvApMu4xi_abXfyKmtKO1BkXEHDV1XTVFN5vtxKpV7i5nMt5dROiV-TcoYXzxz0PYbEacvSvtZpN3e0TwdwDn9fNIxCMEDBtMyJArHxqZSJXfVp3U4XFOFYVLw-4M1ROynrZyB7TE35yLqaDSyyWJMLV7V1dsZLzlIU1ygvB_IThRokOemPH-Bs_3Jx2DZnRax-1l4OncvU_W2S7r6xZQ_35aLo-7PuzRstzLkm0yyqt9Bh0u6k4DszU5wPjSuwltpDWgnH-okOwnb3108SFOnaIX88OOc_zSgtly0m00]--></g></svg>