<?xml version="1.0" encoding="us-ascii" standalone="no"?><svg xmlns="http://www.w3.org/2000/svg" xmlns:xlink="http://www.w3.org/1999/xlink" contentStyleType="text/css" height="1398px" preserveAspectRatio="none" style="width:1475px;height:1398px;background:#FFFFFF;" version="1.1" viewBox="0 0 1475 1398" width="1475px" zoomAndPan="magnify"><defs/><g><text fill="#000000" font-family="sans-serif" font-size="14" font-weight="bold" lengthAdjust="spacing" textLength="156" x="652.5" y="22.6738">Domain Model - US004</text><!--class Owner--><g id="elem_Owner"><rect codeLine="14" fill="#F1F1F1" height="80.5625" id="Owner" rx="2.5" ry="2.5" style="stroke:#181818;stroke-width:0.5;" width="101" x="518.5" y="43.6406"/><text fill="#000000" font-family="sans-serif" font-size="14" lengthAdjust="spacing" textLength="41" x="548.5" y="61.3145">Owner</text><line style="stroke:#181818;stroke-width:0.5;" x1="519.5" x2="618.5" y1="69.2813" y2="69.2813"/><text fill="#000000" font-family="sans-serif" font-size="14" lengthAdjust="spacing" textLength="35" x="524.5" y="85.9551">name</text><text fill="#000000" font-family="sans-serif" font-size="14" lengthAdjust="spacing" textLength="85" x="524.5" y="101.5957">emailAddress</text><text fill="#000000" font-family="sans-serif" font-size="14" lengthAdjust="spacing" textLength="89" x="524.5" y="117.2363">phoneNumber</text></g><!--class Agent--><g id="elem_Agent"><rect codeLine="20" fill="#F1F1F1" height="96.2031" id="Agent" rx="2.5" ry="2.5" style="stroke:#181818;stroke-width:0.5;" width="116" x="511" y="262.6406"/><text fill="#000000" font-family="sans-serif" font-size="14" lengthAdjust="spacing" textLength="37" x="550.5" y="280.3145">Agent</text><line style="stroke:#181818;stroke-width:0.5;" x1="512" x2="626" y1="288.2813" y2="288.2813"/><text fill="#000000" font-family="sans-serif" font-size="14" lengthAdjust="spacing" textLength="35" x="517" y="304.9551">name</text><text fill="#000000" font-family="sans-serif" font-size="14" lengthAdjust="spacing" textLength="104" x="517" y="320.5957">passportNumber</text><text fill="#000000" font-family="sans-serif" font-size="14" lengthAdjust="spacing" textLength="85" x="517" y="336.2363">emailAddress</text><text fill="#000000" font-family="sans-serif" font-size="14" lengthAdjust="spacing" textLength="89" x="517" y="351.877">phoneNumber</text></g><!--class CompanyBranch--><g id="elem_CompanyBranch"><rect codeLine="27" fill="#F1F1F1" height="96.2031" id="CompanyBranch" rx="2.5" ry="2.5" style="stroke:#181818;stroke-width:0.5;" width="111" x="402.5" y="747.6406"/><text fill="#000000" font-family="sans-serif" font-size="14" lengthAdjust="spacing" textLength="105" x="405.5" y="765.3145">CompanyBranch</text><line style="stroke:#181818;stroke-width:0.5;" x1="403.5" x2="512.5" y1="773.2813" y2="773.2813"/><text fill="#000000" font-family="sans-serif" font-size="14" lengthAdjust="spacing" textLength="13" x="408.5" y="789.9551">ID</text><text fill="#000000" font-family="sans-serif" font-size="14" lengthAdjust="spacing" textLength="73" x="408.5" y="805.5957">designation</text><text fill="#000000" font-family="sans-serif" font-size="14" lengthAdjust="spacing" textLength="85" x="408.5" y="821.2363">emailAddress</text><text fill="#000000" font-family="sans-serif" font-size="14" lengthAdjust="spacing" textLength="89" x="408.5" y="836.877">phoneNumber</text></g><!--class Address--><g id="elem_Address"><rect codeLine="34" fill="#F1F1F1" height="96.2031" id="Address" rx="2.5" ry="2.5" style="stroke:#181818;stroke-width:0.5;" width="90" x="7" y="575.6406"/><text fill="#000000" font-family="sans-serif" font-size="14" lengthAdjust="spacing" textLength="52" x="26" y="593.3145">Address</text><line style="stroke:#181818;stroke-width:0.5;" x1="8" x2="96" y1="601.2813" y2="601.2813"/><text fill="#000000" font-family="sans-serif" font-size="14" lengthAdjust="spacing" textLength="78" x="13" y="617.9551">doorNumber</text><text fill="#000000" font-family="sans-serif" font-size="14" lengthAdjust="spacing" textLength="77" x="13" y="633.5957">floorNumber</text><text fill="#000000" font-family="sans-serif" font-size="14" lengthAdjust="spacing" textLength="36" x="13" y="649.2363">street</text><text fill="#000000" font-family="sans-serif" font-size="14" lengthAdjust="spacing" textLength="72" x="13" y="664.877">postalCode</text></g><!--class Request--><g id="elem_Request"><rect codeLine="41" fill="#F1F1F1" height="49.2813" id="Request" rx="2.5" ry="2.5" style="stroke:#181818;stroke-width:0.5;" width="59" x="957.5" y="599.1406"/><text fill="#000000" font-family="sans-serif" font-size="14" lengthAdjust="spacing" textLength="53" x="960.5" y="616.8145">Request</text><line style="stroke:#181818;stroke-width:0.5;" x1="958.5" x2="1015.5" y1="624.7813" y2="624.7813"/><text fill="#000000" font-family="sans-serif" font-size="14" lengthAdjust="spacing" textLength="28" x="963.5" y="641.4551">date</text></g><!--class Property--><g id="elem_Property"><rect codeLine="45" fill="#F1F1F1" height="80.5625" id="Property" rx="2.5" ry="2.5" style="stroke:#181818;stroke-width:0.5;" width="190" x="1190" y="755.1406"/><text fill="#000000" font-family="sans-serif" font-size="14" lengthAdjust="spacing" textLength="54" x="1258" y="772.8145">Property</text><line style="stroke:#181818;stroke-width:0.5;" x1="1191" x2="1379" y1="780.7813" y2="780.7813"/><text fill="#000000" font-family="sans-serif" font-size="14" lengthAdjust="spacing" textLength="29" x="1196" y="797.4551">area</text><text fill="#000000" font-family="sans-serif" font-size="14" lengthAdjust="spacing" textLength="178" x="1196" y="813.0957">distanceFromTheCityCentre</text><text fill="#000000" font-family="sans-serif" font-size="14" lengthAdjust="spacing" textLength="31" x="1196" y="828.7363">price</text></g><!--class Residence--><g id="elem_Residence"><rect codeLine="51" fill="#F1F1F1" height="96.2031" id="Residence" rx="2.5" ry="2.5" style="stroke:#181818;stroke-width:0.5;" width="170" x="1200" y="575.6406"/><text fill="#000000" font-family="sans-serif" font-size="14" lengthAdjust="spacing" textLength="67" x="1251.5" y="593.3145">Residence</text><line style="stroke:#181818;stroke-width:0.5;" x1="1201" x2="1369" y1="601.2813" y2="601.2813"/><text fill="#000000" font-family="sans-serif" font-size="14" lengthAdjust="spacing" textLength="127" x="1206" y="617.9551">numberOfBedrooms</text><text fill="#000000" font-family="sans-serif" font-size="14" lengthAdjust="spacing" textLength="131" x="1206" y="633.5957">numberOfBathrooms</text><text fill="#000000" font-family="sans-serif" font-size="14" lengthAdjust="spacing" textLength="158" x="1206" y="649.2363">numberOfParkingSpaces</text><text fill="#000000" font-family="sans-serif" font-size="14" lengthAdjust="spacing" textLength="123" x="1206" y="664.877">availableEquipment</text></g><!--class House--><g id="elem_House"><rect codeLine="58" fill="#F1F1F1" height="64.9219" id="House" rx="2.5" ry="2.5" style="stroke:#181818;stroke-width:0.5;" width="158" x="1206" y="434.6406"/><text fill="#000000" font-family="sans-serif" font-size="14" lengthAdjust="spacing" textLength="40" x="1265" y="452.3145">House</text><line style="stroke:#181818;stroke-width:0.5;" x1="1207" x2="1363" y1="460.2813" y2="460.2813"/><text fill="#000000" font-family="sans-serif" font-size="14" lengthAdjust="spacing" textLength="146" x="1212" y="476.9551">existenceOfABasement</text><text fill="#000000" font-family="sans-serif" font-size="14" lengthAdjust="spacing" textLength="93" x="1212" y="492.5957">inhabitableLoft</text></g><!--class Photographs--><g id="elem_Photographs"><rect codeLine="63" fill="#F1F1F1" height="64.9219" id="Photographs" rx="2.5" ry="2.5" style="stroke:#181818;stroke-width:0.5;" width="156" x="1266" y="1029.6406"/><text fill="#000000" font-family="sans-serif" font-size="14" lengthAdjust="spacing" textLength="81" x="1303.5" y="1047.3145">Photographs</text><line style="stroke:#181818;stroke-width:0.5;" x1="1267" x2="1421" y1="1055.2813" y2="1055.2813"/><text fill="#000000" font-family="sans-serif" font-size="14" lengthAdjust="spacing" textLength="144" x="1272" y="1071.9551">numberOfPhotographs</text><text fill="#000000" font-family="sans-serif" font-size="14" lengthAdjust="spacing" textLength="22" x="1272" y="1087.5957">URI</text></g><!--class TaxNumber--><g id="elem_TaxNumber"><rect codeLine="68" fill="#F1F1F1" height="49.2813" id="TaxNumber" rx="2.5" ry="2.5" style="stroke:#181818;stroke-width:0.5;" width="79" x="842.5" y="599.1406"/><text fill="#000000" font-family="sans-serif" font-size="14" lengthAdjust="spacing" textLength="72" x="846" y="616.8145">TaxNumber</text><line style="stroke:#181818;stroke-width:0.5;" x1="843.5" x2="920.5" y1="624.7813" y2="624.7813"/><text fill="#000000" font-family="sans-serif" font-size="14" lengthAdjust="spacing" textLength="67" x="848.5" y="641.4551">taxNumber</text></g><!--class SunExposure--><g id="elem_SunExposure"><rect codeLine="73" fill="#F1F1F1" height="49.2813" id="SunExposure" rx="2.5" ry="2.5" style="stroke:#181818;stroke-width:0.5;" width="90" x="1075" y="599.1406"/><text fill="#000000" font-family="sans-serif" font-size="14" lengthAdjust="spacing" textLength="84" x="1078" y="616.8145">SunExposure</text><line style="stroke:#181818;stroke-width:0.5;" x1="1076" x2="1164" y1="624.7813" y2="624.7813"/><text fill="#000000" font-family="sans-serif" font-size="14" lengthAdjust="spacing" textLength="54" x="1081" y="641.4551">direction</text></g><!--class PropertyType--><g id="elem_PropertyType"><rect codeLine="77" fill="#F1F1F1" height="49.2813" id="PropertyType" rx="2.5" ry="2.5" style="stroke:#181818;stroke-width:0.5;" width="97" x="1176.5" y="919.6406"/><text fill="#000000" font-family="sans-serif" font-size="14" lengthAdjust="spacing" textLength="86" x="1182" y="937.3145">PropertyType</text><line style="stroke:#181818;stroke-width:0.5;" x1="1177.5" x2="1272.5" y1="945.2813" y2="945.2813"/><text fill="#000000" font-family="sans-serif" font-size="14" lengthAdjust="spacing" textLength="85" x="1182.5" y="961.9551">propertyType</text></g><!--class PassportCardNumber--><g id="elem_PassportCardNumber"><rect codeLine="81" fill="#F1F1F1" height="49.2813" id="PassportCardNumber" rx="2.5" ry="2.5" style="stroke:#181818;stroke-width:0.5;" width="147" x="250.5" y="599.1406"/><text fill="#000000" font-family="sans-serif" font-size="14" lengthAdjust="spacing" textLength="136" x="256" y="616.8145">PassportCardNumber</text><line style="stroke:#181818;stroke-width:0.5;" x1="251.5" x2="396.5" y1="624.7813" y2="624.7813"/><text fill="#000000" font-family="sans-serif" font-size="14" lengthAdjust="spacing" textLength="135" x="256.5" y="641.4551">passportCardNumber</text></g><!--class District--><g id="elem_District"><rect codeLine="85" fill="#F1F1F1" height="49.2813" id="District" rx="2.5" ry="2.5" style="stroke:#181818;stroke-width:0.5;" width="89" x="7.5" y="1155.6406"/><text fill="#000000" font-family="sans-serif" font-size="14" lengthAdjust="spacing" textLength="43" x="30.5" y="1173.3145">District</text><line style="stroke:#181818;stroke-width:0.5;" x1="8.5" x2="95.5" y1="1181.2813" y2="1181.2813"/><text fill="#000000" font-family="sans-serif" font-size="14" lengthAdjust="spacing" textLength="77" x="13.5" y="1197.9551">districtName</text></g><!--class State--><g id="elem_State"><rect codeLine="89" fill="#F1F1F1" height="49.2813" id="State" rx="2.5" ry="2.5" style="stroke:#181818;stroke-width:0.5;" width="43" x="30.5" y="1342.6406"/><text fill="#000000" font-family="sans-serif" font-size="14" lengthAdjust="spacing" textLength="33" x="35.5" y="1360.3145">State</text><line style="stroke:#181818;stroke-width:0.5;" x1="31.5" x2="72.5" y1="1368.2813" y2="1368.2813"/><text fill="#000000" font-family="sans-serif" font-size="14" lengthAdjust="spacing" textLength="31" x="36.5" y="1384.9551">state</text></g><!--class City--><g id="elem_City"><rect codeLine="93" fill="#F1F1F1" height="49.2813" id="City" rx="2.5" ry="2.5" style="stroke:#181818;stroke-width:0.5;" width="69" x="17.5" y="919.6406"/><text fill="#000000" font-family="sans-serif" font-size="14" lengthAdjust="spacing" textLength="24" x="40" y="937.3145">City</text><line style="stroke:#181818;stroke-width:0.5;" x1="18.5" x2="85.5" y1="945.2813" y2="945.2813"/><text fill="#000000" font-family="sans-serif" font-size="14" lengthAdjust="spacing" textLength="57" x="23.5" y="961.9551">cityName</text></g><!--class Comission--><g id="elem_Comission"><rect codeLine="97" fill="#F1F1F1" height="49.2813" id="Comission" rx="2.5" ry="2.5" style="stroke:#181818;stroke-width:0.5;" width="84" x="479" y="599.1406"/><text fill="#000000" font-family="sans-serif" font-size="14" lengthAdjust="spacing" textLength="65" x="488.5" y="616.8145">Comission</text><line style="stroke:#181818;stroke-width:0.5;" x1="480" x2="562" y1="624.7813" y2="624.7813"/><text fill="#000000" font-family="sans-serif" font-size="14" lengthAdjust="spacing" textLength="72" x="485" y="641.4551">percentage</text></g><!--class Rent--><g id="elem_Rent"><rect codeLine="101" fill="#F1F1F1" height="49.2813" id="Rent" rx="2.5" ry="2.5" style="stroke:#181818;stroke-width:0.5;" width="117" x="670.5" y="442.6406"/><text fill="#000000" font-family="sans-serif" font-size="14" lengthAdjust="spacing" textLength="30" x="714" y="460.3145">Rent</text><line style="stroke:#181818;stroke-width:0.5;" x1="671.5" x2="786.5" y1="468.2813" y2="468.2813"/><text fill="#000000" font-family="sans-serif" font-size="14" lengthAdjust="spacing" textLength="105" x="676.5" y="484.9551">contractDuration</text></g><!--class RequestType--><g id="elem_RequestType"><rect codeLine="105" fill="#F1F1F1" height="49.2813" id="RequestType" rx="2.5" ry="2.5" style="stroke:#181818;stroke-width:0.5;" width="163" x="731.5" y="771.1406"/><text fill="#000000" font-family="sans-serif" font-size="14" lengthAdjust="spacing" textLength="85" x="770.5" y="788.8145">RequestType</text><line style="stroke:#181818;stroke-width:0.5;" x1="732.5" x2="893.5" y1="796.7813" y2="796.7813"/><text fill="#000000" font-family="sans-serif" font-size="14" lengthAdjust="spacing" textLength="151" x="737.5" y="813.4551">requestTypeDescription</text></g><!--link Owner to PassportCardNumber--><g id="link_Owner_PassportCardNumber"><path codeLine="109" d="M518.31,121.0006 C443.26,177.5806 305.68,295.5506 252,434.6406 C229.22,493.6606 274.65,563.2006 303.22,598.8806 " fill="none" id="Owner-PassportCardNumber" style="stroke:#181818;stroke-width:1.0;"/><polygon fill="#000000" points="364.9478,315.4618,371.3402,308.4199,365.9803,306.0074,364.9478,315.4618" style="stroke:#000000;stroke-width:1.0;"/><text fill="#000000" font-family="sans-serif" font-size="13" lengthAdjust="spacing" textLength="21" x="376" y="315.4092">has</text><text fill="#000000" font-family="sans-serif" font-size="13" lengthAdjust="spacing" textLength="7" x="503.3508" y="123.2254">1</text><text fill="#000000" font-family="sans-serif" font-size="13" lengthAdjust="spacing" textLength="7" x="289.9983" y="588.5417">1</text></g><!--link Owner to TaxNumber--><g id="link_Owner_TaxNumber"><path codeLine="110" d="M619.56,106.6906 C716.79,151.2806 927.51,264.0106 1010,434.6406 C1022.57,460.6506 1021.32,473.0606 1010,499.6406 C999.67,523.8806 946.03,570.6206 911.55,598.9806 " fill="none" id="Owner-TaxNumber" style="stroke:#181818;stroke-width:1.0;"/><polygon fill="#000000" points="968.5507,315.2028,966.4642,305.9239,961.4087,308.9225,968.5507,315.2028" style="stroke:#000000;stroke-width:1.0;"/><text fill="#000000" font-family="sans-serif" font-size="13" lengthAdjust="spacing" textLength="21" x="975" y="315.4092">has</text><text fill="#000000" font-family="sans-serif" font-size="13" lengthAdjust="spacing" textLength="7" x="627.5001" y="106.8137">1</text><text fill="#000000" font-family="sans-serif" font-size="13" lengthAdjust="spacing" textLength="7" x="911.5509" y="588.2731">1</text></g><!--link Owner to CompanyBranch--><g id="link_Owner_CompanyBranch"><path codeLine="111" d="M518.46,87.4906 C407.02,94.0506 150,117.3506 150,192.6406 C150,192.6406 150,192.6406 150,624.6406 C150,738.5506 313.47,776.7106 402.22,789.0406 " fill="none" id="Owner-CompanyBranch" style="stroke:#181818;stroke-width:1.0;"/><polygon fill="#000000" points="154.1827,401.8351,158.5606,393.3921,152.7618,392.4313,154.1827,401.8351" style="stroke:#000000;stroke-width:1.0;"/><text fill="#000000" font-family="sans-serif" font-size="13" lengthAdjust="spacing" textLength="42" x="164" y="401.4092">selects</text><text fill="#000000" font-family="sans-serif" font-size="13" lengthAdjust="spacing" textLength="7" x="503.5229" y="100.8499">1</text><text fill="#000000" font-family="sans-serif" font-size="13" lengthAdjust="spacing" textLength="7" x="387.6248" y="785.0872">1</text></g><!--link Owner to Address--><g id="link_Owner_Address"><path codeLine="112" d="M518.04,85.1306 C388.53,86.4906 57,99.0906 57,192.6406 C57,192.6406 57,192.6406 57,468.1406 C57,504.1006 55.63,544.7506 54.32,575.3206 " fill="none" id="Owner-Address" style="stroke:#181818;stroke-width:1.0;"/><polygon fill="#000000" points="58.5639,314.5346,66.9148,309.9835,62.6449,305.9441,58.5639,314.5346" style="stroke:#000000;stroke-width:1.0;"/><text fill="#000000" font-family="sans-serif" font-size="13" lengthAdjust="spacing" textLength="21" x="71" y="315.4092">has</text><text fill="#000000" font-family="sans-serif" font-size="13" lengthAdjust="spacing" textLength="7" x="503.3816" y="82.1216">1</text><text fill="#000000" font-family="sans-serif" font-size="13" lengthAdjust="spacing" textLength="7" x="47.1467" y="564.9876">1</text></g><!--link Owner to Request--><g id="link_Owner_Request"><path codeLine="113" d="M619.55,89.1306 C761.42,100.9906 1153,138.6106 1153,192.6406 C1153,192.6406 1153,192.6406 1153,468.1406 C1153,504.9506 1064.42,570.4206 1016.68,603.0406 " fill="none" id="Owner-Request" style="stroke:#181818;stroke-width:1.0;"/><text fill="#000000" font-family="sans-serif" font-size="13" lengthAdjust="spacing" textLength="46" x="1154" y="315.4092">submits</text><text fill="#000000" font-family="sans-serif" font-size="13" lengthAdjust="spacing" textLength="7" x="627.4886" y="86.6745">1</text><text fill="#000000" font-family="sans-serif" font-size="13" lengthAdjust="spacing" textLength="24" x="1024.6253" y="595.571">0...*</text></g><!--link Owner to Agent--><g id="link_Owner_Agent"><path codeLine="114" d="M569,124.7606 C569,163.1506 569,221.4106 569,262.2406 " fill="none" id="Owner-Agent" style="stroke:#181818;stroke-width:1.0;"/><polygon fill="#000000" points="574,198.9023,576.9389,189.8573,571.0611,189.8573,574,198.9023" style="stroke:#000000;stroke-width:1.0;"/><text fill="#000000" font-family="sans-serif" font-size="13" lengthAdjust="spacing" textLength="42" x="583" y="198.4092">selects</text><text fill="#000000" font-family="sans-serif" font-size="13" lengthAdjust="spacing" textLength="7" x="561.4641" y="143.8946">1</text><text fill="#000000" font-family="sans-serif" font-size="13" lengthAdjust="spacing" textLength="7" x="561.4859" y="251.8958">1</text></g><!--link Owner to Property--><g id="link_Owner_Property"><path codeLine="115" d="M619.55,86.1506 C803,90.4806 1423,111.1506 1423,192.6406 C1423,192.6406 1423,192.6406 1423,624.6406 C1423,678.2406 1381.14,724.3706 1343.52,754.9906 " fill="none" id="Owner-Property" style="stroke:#181818;stroke-width:1.0;"/><polygon fill="#000000" points="1431.6726,400.2953,1427.0231,391.9987,1423.0345,396.3161,1431.6726,400.2953" style="stroke:#000000;stroke-width:1.0;"/><text fill="#000000" font-family="sans-serif" font-size="13" lengthAdjust="spacing" textLength="30" x="1437" y="401.4092">owns</text></g><!--link Agent to CompanyBranch--><g id="link_Agent_CompanyBranch"><path codeLine="117" d="M583.49,358.8906 C602.63,430.3506 628.72,568.4906 581,671.6406 C566.04,703.9806 538.74,732.6406 513.65,754.1406 " fill="none" id="Agent-CompanyBranch" style="stroke:#181818;stroke-width:1.0;"/><polygon fill="#000000" points="612.13,542.8261,616.5979,534.4303,610.8098,533.4076,612.13,542.8261" style="stroke:#000000;stroke-width:1.0;"/><text fill="#000000" font-family="sans-serif" font-size="13" lengthAdjust="spacing" textLength="52" x="622" y="542.4092">works for</text><text fill="#000000" font-family="sans-serif" font-size="13" lengthAdjust="spacing" textLength="7" x="578.0355" y="378.4512">1</text><text fill="#000000" font-family="sans-serif" font-size="13" lengthAdjust="spacing" textLength="7" x="521.5983" y="745.4135">1</text></g><!--link Agent to Address--><g id="link_Agent_Address"><path codeLine="118" d="M510.7,346.7106 C406.65,409.3006 191.11,538.9606 97.28,595.4006 " fill="none" id="Agent-Address" style="stroke:#181818;stroke-width:1.0;"/><polygon fill="#000000" points="362.7155,469.9797,371.9812,467.8356,368.9513,462.7988,362.7155,469.9797" style="stroke:#000000;stroke-width:1.0;"/><text fill="#000000" font-family="sans-serif" font-size="13" lengthAdjust="spacing" textLength="21" x="376" y="471.9092">has</text><text fill="#000000" font-family="sans-serif" font-size="13" lengthAdjust="spacing" textLength="7" x="496.1681" y="348.0416">1</text><text fill="#000000" font-family="sans-serif" font-size="13" lengthAdjust="spacing" textLength="7" x="105.0543" y="587.5783">1</text></g><!--link Agent to PassportCardNumber--><g id="link_Agent_PassportCardNumber"><path codeLine="119" d="M531.79,358.8706 C478.65,426.3306 382.99,547.7606 342.7,598.9106 " fill="none" id="Agent-PassportCardNumber" style="stroke:#181818;stroke-width:1.0;"/><polygon fill="#000000" points="472.906,471.3301,480.8118,466.0434,476.1945,462.4061,472.906,471.3301" style="stroke:#000000;stroke-width:1.0;"/><text fill="#000000" font-family="sans-serif" font-size="13" lengthAdjust="spacing" textLength="21" x="485" y="471.9092">has</text><text fill="#000000" font-family="sans-serif" font-size="13" lengthAdjust="spacing" textLength="7" x="518.8107" y="378.7746">1</text><text fill="#000000" font-family="sans-serif" font-size="13" lengthAdjust="spacing" textLength="7" x="339.595" y="588.5794">1</text></g><!--link Agent to TaxNumber--><g id="link_Agent_TaxNumber"><path codeLine="120" d="M627.17,329.0806 C679.91,347.5806 756.58,381.5606 805,434.6406 C849.21,483.1106 869.83,560.3906 877.79,599.0306 " fill="none" id="Agent-TaxNumber" style="stroke:#181818;stroke-width:1.0;"/><polygon fill="#000000" points="853.4019,471.0666,849.4016,462.4383,845.094,466.4375,853.4019,471.0666" style="stroke:#000000;stroke-width:1.0;"/><text fill="#000000" font-family="sans-serif" font-size="13" lengthAdjust="spacing" textLength="21" x="859" y="471.9092">has</text><text fill="#000000" font-family="sans-serif" font-size="13" lengthAdjust="spacing" textLength="7" x="635.0715" y="328.3354">1</text><text fill="#000000" font-family="sans-serif" font-size="13" lengthAdjust="spacing" textLength="7" x="868.7179" y="588.3365">1</text></g><!--link Agent to Request--><g id="link_Agent_Request"><path codeLine="121" d="M627.25,320.2606 C697.44,333.4406 815.13,364.8506 889,434.6406 C938.9,481.7806 968.11,560.0106 980.29,599.0206 " fill="none" id="Agent-Request" style="stroke:#181818;stroke-width:1.0;"/><polygon fill="#000000" points="945.9242,470.5009,940.6465,462.589,937.004,467.2022,945.9242,470.5009" style="stroke:#000000;stroke-width:1.0;"/><text fill="#000000" font-family="sans-serif" font-size="13" lengthAdjust="spacing" textLength="50" x="951" y="471.9092">validates</text></g><!--link Agent to Comission--><g id="link_Agent_Comission"><path codeLine="122" d="M560.63,358.9006 C556.66,381.7606 551.93,409.6006 548,434.6406 C538.73,493.6006 529.07,563.1706 524.21,598.8706 " fill="none" id="Agent-Comission" style="stroke:#181818;stroke-width:1.0;"/><text fill="#000000" font-family="sans-serif" font-size="13" lengthAdjust="spacing" textLength="41" x="549" y="471.9092">defines</text></g><!--link Residence to Property--><g id="link_Residence_Property"><path codeLine="124" d="M1285,671.9906 C1285,691.4906 1285,714.3006 1285,734.9306 " fill="none" id="Residence-to-Property" style="stroke:#181818;stroke-width:1.0;"/><polygon fill="none" points="1292,735.0106,1285,755.0106,1278,735.0106,1292,735.0106" style="stroke:#181818;stroke-width:1.0;"/><text fill="#000000" font-family="sans-serif" font-size="13" lengthAdjust="spacing" textLength="21" x="1286" y="714.4092">is a</text></g><!--link House to Residence--><g id="link_House_Residence"><path codeLine="125" d="M1285,499.7806 C1285,515.8806 1285,536.0906 1285,555.4506 " fill="none" id="House-to-Residence" style="stroke:#181818;stroke-width:1.0;"/><polygon fill="none" points="1292,555.5006,1285,575.5006,1278,555.5006,1292,555.5006" style="stroke:#181818;stroke-width:1.0;"/><text fill="#000000" font-family="sans-serif" font-size="13" lengthAdjust="spacing" textLength="21" x="1286" y="542.4092">is a</text></g><!--link House to SunExposure--><g id="link_House_SunExposure"><path codeLine="126" d="M1251.21,499.7806 C1219.72,529.2606 1173.48,572.5606 1145.13,599.1106 " fill="none" id="House-SunExposure" style="stroke:#181818;stroke-width:1.0;"/></g><!--link Property to PropertyType--><g id="link_Property_PropertyType"><path codeLine="128" d="M1268.76,836.2906 C1257.87,862.8906 1243.87,897.0506 1234.68,919.5006 " fill="none" id="Property-PropertyType" style="stroke:#181818;stroke-width:1.0;"/><polygon fill="#000000" points="1256.105,886.5293,1262.2528,879.2729,1256.8135,877.0452,1256.105,886.5293" style="stroke:#000000;stroke-width:1.0;"/><text fill="#000000" font-family="sans-serif" font-size="13" lengthAdjust="spacing" textLength="32" x="1267" y="886.4092">has a</text><text fill="#000000" font-family="sans-serif" font-size="13" lengthAdjust="spacing" textLength="7" x="1258.7373" y="855.4292">1</text><text fill="#000000" font-family="sans-serif" font-size="13" lengthAdjust="spacing" textLength="7" x="1229.3409" y="908.7985">1</text></g><!--link Property to Photographs--><g id="link_Property_Photographs"><path codeLine="129" d="M1297.71,836.4006 C1301.29,848.3106 1305.02,861.4406 1308,873.6406 C1321.28,927.8906 1332.67,991.9606 1338.91,1029.4106 " fill="none" id="Property-Photographs" style="stroke:#181818;stroke-width:1.0;"/><polygon fill="#000000" points="1334.0438,949.2922,1335.0297,939.8329,1329.2814,941.0599,1334.0438,949.2922" style="stroke:#000000;stroke-width:1.0;"/><text fill="#000000" font-family="sans-serif" font-size="13" lengthAdjust="spacing" textLength="21" x="1342" y="948.9092">has</text><text fill="#000000" font-family="sans-serif" font-size="13" lengthAdjust="spacing" textLength="7" x="1292.1203" y="855.556">1</text><text fill="#000000" font-family="sans-serif" font-size="13" lengthAdjust="spacing" textLength="33" x="1301.4571" y="1019.0469">1...30</text></g><!--link Address to City--><g id="link_Address_City"><path codeLine="131" d="M52,671.9806 C52,741.1206 52,867.1806 52,919.4506 " fill="none" id="Address-City" style="stroke:#181818;stroke-width:1.0;"/><polygon fill="#000000" points="57,800.9023,59.9389,791.8573,54.0611,791.8573,57,800.9023" style="stroke:#000000;stroke-width:1.0;"/><text fill="#000000" font-family="sans-serif" font-size="13" lengthAdjust="spacing" textLength="32" x="66" y="800.4092">has a</text></g><!--link City to District--><g id="link_City_District"><path codeLine="132" d="M52,968.8606 C52,1013.7106 52,1110.4506 52,1155.3506 " fill="none" id="City-District" style="stroke:#181818;stroke-width:1.0;"/><polygon fill="#000000" points="57,1067.4023,59.9389,1058.3573,54.0611,1058.3573,57,1067.4023" style="stroke:#000000;stroke-width:1.0;"/><text fill="#000000" font-family="sans-serif" font-size="13" lengthAdjust="spacing" textLength="24" x="66" y="1066.9092">is in</text></g><!--link District to State--><g id="link_District_State"><path codeLine="133" d="M52,1204.9506 C52,1240.4706 52,1306.9606 52,1342.4206 " fill="none" id="District-State" style="stroke:#181818;stroke-width:1.0;"/><polygon fill="#000000" points="57,1278.9023,59.9389,1269.8573,54.0611,1269.8573,57,1278.9023" style="stroke:#000000;stroke-width:1.0;"/><text fill="#000000" font-family="sans-serif" font-size="13" lengthAdjust="spacing" textLength="24" x="66" y="1278.4092">is in</text></g><!--link Request to RequestType--><g id="link_Request_RequestType"><path codeLine="135" d="M962.59,648.5606 C955.03,655.9606 946.67,664.1406 939,671.6406 C903.59,706.2606 862.54,746.3206 837.17,771.0706 " fill="none" id="Request-RequestType" style="stroke:#181818;stroke-width:1.0;"/><polygon fill="#000000" points="908.4232,713.3961,916.9473,709.1782,912.8401,704.9734,908.4232,713.3961" style="stroke:#000000;stroke-width:1.0;"/><text fill="#000000" font-family="sans-serif" font-size="13" lengthAdjust="spacing" textLength="32" x="921" y="714.4092">has a</text><text fill="#000000" font-family="sans-serif" font-size="13" lengthAdjust="spacing" textLength="7" x="948.7869" y="668.1392">1</text><text fill="#000000" font-family="sans-serif" font-size="13" lengthAdjust="spacing" textLength="7" x="835.7251" y="760.3873">1</text></g><!--link Request to Property--><g id="link_Request_Property"><path codeLine="136" d="M1016.68,645.1306 C1029.26,653.6006 1044.19,663.3506 1058,671.6406 C1107,701.0506 1163.5,731.6806 1207.87,755.0106 " fill="none" id="Request-Property" style="stroke:#181818;stroke-width:1.0;"/><polygon fill="#000000" points="1147.3351,712.3938,1140.9573,705.3386,1138.0284,710.4348,1147.3351,712.3938" style="stroke:#000000;stroke-width:1.0;"/><text fill="#000000" font-family="sans-serif" font-size="13" lengthAdjust="spacing" textLength="63" x="1152" y="714.4092">announces</text><text fill="#000000" font-family="sans-serif" font-size="13" lengthAdjust="spacing" textLength="7" x="1024.3529" y="646.278">1</text><text fill="#000000" font-family="sans-serif" font-size="13" lengthAdjust="spacing" textLength="7" x="1186.5078" y="744.3807">1</text></g><!--link Rent to RequestType--><g id="link_Rent_RequestType"><path codeLine="137" d="M732.9,491.8706 C739.4,530.0706 753.49,607.4306 771,671.6406 C780.56,706.6906 794.71,746.3006 803.89,770.8806 " fill="none" id="Rent-RequestType" style="stroke:#181818;stroke-width:1.0;"/><polygon fill="#000000" points="774.7671,619.0567,774.1493,628.5472,779.8456,627.0978,774.7671,619.0567" style="stroke:#000000;stroke-width:1.0;"/><text fill="#000000" font-family="sans-serif" font-size="13" lengthAdjust="spacing" textLength="39" x="785" y="628.4092">can be</text></g><!--SRC=[ZPNDRjim383lV0eXbm43KcJOJiDGe4qwhC3M5atx08nDsq9joQNafbcsTn_bsB7S6DikiKn-_1STzwHDZOoLggonIS6s8kMv8N17JOt94-QqzhkI55FYqUHb3BW2KxlL9bSPbeu0tfMKUUMjOfqNNgKwM6bh839AIdJkmdlMcyRJTMBDMlyajG0eT4egqPn8aFPSaIziwW2yzfB2obQeZVfXKohLN3sk5ujF0Aq_TRirn7imM16GOEL5cZ8v1tLX3TqqrOOOVlVqHKx6TtGjWjgoxvX_6ozjLQFPNJAQfDZ3zGfISZets5Rw7y4FoZsardAdpChXx3mJUQYjyrWkfTZ1z9wU6tAIUOe-4j-nhOdzRW_8X91giJG9VPMXFXIqr7wtb7fPQcMTZDmvQREGqeeszcrsIIbRMxb1WBuOI-wGPPZvMgu7ES0NgHSt9LqzDxgk9CxW_vjjdFYcLqaeXBdDBYxHKGjfK-16-s3vtMQHqLrXlSqPwy8DQKL2UBo_7kW7V3sqRG- -FmPjfrutvkfLEjcmv35SnvFEFUng0UheBMAw2x94JljOzObiu5TIhVGvJAaxtOHxTjIllGnlBsCUpJ1CQG-9_8vfkMtQEKbQWX8dqZfPoNY4uIBB4dd6nAyQnd61tOqvrCV3oufSmhhkuNPzrEp3JCtdy_PvMhNwh0fqwdm2FavXacaVewqHp54fmvXsrst8TC3PukpixFsihoouQZQLzkuD5lo4DP-85UBqanUrtPgWWmFUsKzdlRNyv5HcMVWHFfdtAV6Nhfx2frqzC44_LF-2fGwVWx7-U6s4I2dJHbOLZlikoA_pk0NQAOHsNG-gWNoZYpSAuEWX6dIyKbtYAAczGGChS_oucCKBVomK-bQsjUWsnzvJ-nha_Q8TSfH_XdCuYeA-NRH82NtJecoZ_OX2J81Hiz0OsqXlN4kE1z8vIj2e3QalyY62Fm00]--></g></svg>