<?xml version="1.0" encoding="us-ascii" standalone="no"?><svg xmlns="http://www.w3.org/2000/svg" xmlns:xlink="http://www.w3.org/1999/xlink" contentStyleType="text/css" height="1038px" preserveAspectRatio="none" style="width:594px;height:1038px;background:#FFFFFF;" version="1.1" viewBox="0 0 594 1038" width="594px" zoomAndPan="magnify"><defs/><g><text fill="#000000" font-family="sans-serif" font-size="14" font-weight="bold" lengthAdjust="spacing" textLength="288" x="154.75" y="27.6738">System Sequence Diagram (SSD) - US 004</text><rect fill="#FFFFFF" height="822.1797" style="stroke:#181818;stroke-width:1.0;" width="10" x="48.5" y="127.2813"/><rect fill="#FFFFFF" height="28.5234" style="stroke:#181818;stroke-width:1.0;" width="10" x="531.5" y="147.8047"/><rect fill="#FFFFFF" height="28.5234" style="stroke:#181818;stroke-width:1.0;" width="10" x="531.5" y="204.8516"/><rect fill="#FFFFFF" height="28.5234" style="stroke:#181818;stroke-width:1.0;" width="10" x="531.5" y="261.8984"/><rect fill="#FFFFFF" height="52.0469" style="stroke:#181818;stroke-width:1.0;" width="10" x="531.5" y="318.9453"/><rect fill="#FFFFFF" height="35.5234" style="stroke:#181818;stroke-width:1.0;" width="10" x="531.5" y="399.5156"/><rect fill="#FFFFFF" height="52.0469" style="stroke:#181818;stroke-width:1.0;" width="10" x="531.5" y="463.5625"/><rect fill="#FFFFFF" height="73.5703" style="stroke:#181818;stroke-width:1.0;" width="10" x="531.5" y="544.1328"/><rect fill="#FFFFFF" height="52.0469" style="stroke:#181818;stroke-width:1.0;" width="10" x="531.5" y="646.2266"/><rect fill="#FFFFFF" height="42.5234" style="stroke:#181818;stroke-width:1.0;" width="10" x="531.5" y="726.7969"/><rect fill="#FFFFFF" height="28.5234" style="stroke:#181818;stroke-width:1.0;" width="10" x="531.5" y="797.8438"/><rect fill="#FFFFFF" height="28.5234" style="stroke:#181818;stroke-width:1.0;" width="10" x="531.5" y="911.9375"/><rect fill="none" height="73.5703" style="stroke:#000000;stroke-width:1.5;" width="558.5" x="20" y="333.9453"/><rect fill="none" height="73.5703" style="stroke:#000000;stroke-width:1.5;" width="558.5" x="20" y="478.5625"/><rect fill="none" height="175.6641" style="stroke:#000000;stroke-width:1.5;" width="578.5" x="10" y="566.1328"/><rect fill="none" height="73.5703" style="stroke:#000000;stroke-width:1.5;" width="558.5" x="20" y="661.2266"/><line style="stroke:#181818;stroke-width:0.5;stroke-dasharray:5.0,5.0;" x1="53" x2="53" y1="117.2813" y2="958.4609"/><line style="stroke:#181818;stroke-width:0.5;stroke-dasharray:5.0,5.0;" x1="536.5" x2="536.5" y1="117.2813" y2="958.4609"/><text fill="#000000" font-family="sans-serif" font-size="14" lengthAdjust="spacing" textLength="41" x="30" y="114.3145">Owner</text><ellipse cx="53.5" cy="50.1406" fill="#E3E3E3" rx="8" ry="8" style="stroke:#181818;stroke-width:0.5;"/><path d="M53.5,58.1406 L53.5,85.1406 M40.5,66.1406 L66.5,66.1406 M53.5,85.1406 L40.5,100.1406 M53.5,85.1406 L66.5,100.1406 " fill="none" style="stroke:#181818;stroke-width:0.5;"/><text fill="#000000" font-family="sans-serif" font-size="14" lengthAdjust="spacing" textLength="41" x="30" y="970.1348">Owner</text><ellipse cx="53.5" cy="981.6016" fill="#E3E3E3" rx="8" ry="8" style="stroke:#181818;stroke-width:0.5;"/><path d="M53.5,989.6016 L53.5,1016.6016 M40.5,997.6016 L66.5,997.6016 M53.5,1016.6016 L40.5,1031.6016 M53.5,1016.6016 L66.5,1031.6016 " fill="none" style="stroke:#181818;stroke-width:0.5;"/><rect fill="#E3E3E3" height="29.6406" rx="2.5" ry="2.5" style="stroke:#181818;stroke-width:0.5;" width="64" x="504.5" y="86.6406"/><text fill="#000000" font-family="sans-serif" font-size="14" lengthAdjust="spacing" textLength="50" x="511.5" y="106.3145">:System</text><rect fill="#E3E3E3" height="29.6406" rx="2.5" ry="2.5" style="stroke:#181818;stroke-width:0.5;" width="64" x="504.5" y="957.4609"/><text fill="#000000" font-family="sans-serif" font-size="14" lengthAdjust="spacing" textLength="50" x="511.5" y="977.1348">:System</text><rect fill="#FFFFFF" height="822.1797" style="stroke:#181818;stroke-width:1.0;" width="10" x="48.5" y="127.2813"/><rect fill="#FFFFFF" height="28.5234" style="stroke:#181818;stroke-width:1.0;" width="10" x="531.5" y="147.8047"/><rect fill="#FFFFFF" height="28.5234" style="stroke:#181818;stroke-width:1.0;" width="10" x="531.5" y="204.8516"/><rect fill="#FFFFFF" height="28.5234" style="stroke:#181818;stroke-width:1.0;" width="10" x="531.5" y="261.8984"/><rect fill="#FFFFFF" height="52.0469" style="stroke:#181818;stroke-width:1.0;" width="10" x="531.5" y="318.9453"/><rect fill="#FFFFFF" height="35.5234" style="stroke:#181818;stroke-width:1.0;" width="10" x="531.5" y="399.5156"/><rect fill="#FFFFFF" height="52.0469" style="stroke:#181818;stroke-width:1.0;" width="10" x="531.5" y="463.5625"/><rect fill="#FFFFFF" height="73.5703" style="stroke:#181818;stroke-width:1.0;" width="10" x="531.5" y="544.1328"/><rect fill="#FFFFFF" height="52.0469" style="stroke:#181818;stroke-width:1.0;" width="10" x="531.5" y="646.2266"/><rect fill="#FFFFFF" height="42.5234" style="stroke:#181818;stroke-width:1.0;" width="10" x="531.5" y="726.7969"/><rect fill="#FFFFFF" height="28.5234" style="stroke:#181818;stroke-width:1.0;" width="10" x="531.5" y="797.8438"/><rect fill="#FFFFFF" height="28.5234" style="stroke:#181818;stroke-width:1.0;" width="10" x="531.5" y="911.9375"/><polygon fill="#181818" points="519.5,143.8047,529.5,147.8047,519.5,151.8047,523.5,147.8047" style="stroke:#181818;stroke-width:1.0;"/><line style="stroke:#181818;stroke-width:1.0;" x1="58.5" x2="525.5" y1="147.8047" y2="147.8047"/><text fill="#000000" font-family="sans-serif" font-size="13" font-weight="bold" lengthAdjust="spacing" textLength="7" x="65.5" y="143.0498">1</text><text fill="#000000" font-family="sans-serif" font-size="13" lengthAdjust="spacing" textLength="168" x="76.5" y="143.0498">asks to create a new request</text><polygon fill="#181818" points="69.5,172.3281,59.5,176.3281,69.5,180.3281,65.5,176.3281" style="stroke:#181818;stroke-width:1.0;"/><line style="stroke:#181818;stroke-width:1.0;stroke-dasharray:2.0,2.0;" x1="63.5" x2="535.5" y1="176.3281" y2="176.3281"/><text fill="#000000" font-family="sans-serif" font-size="13" font-weight="bold" lengthAdjust="spacing" textLength="7" x="75.5" y="171.5732">2</text><text fill="#000000" font-family="sans-serif" font-size="13" lengthAdjust="spacing" textLength="310" x="86.5" y="171.5732">shows the type of property list and asks to select one</text><polygon fill="#181818" points="519.5,200.8516,529.5,204.8516,519.5,208.8516,523.5,204.8516" style="stroke:#181818;stroke-width:1.0;"/><line style="stroke:#181818;stroke-width:1.0;" x1="58.5" x2="525.5" y1="204.8516" y2="204.8516"/><text fill="#000000" font-family="sans-serif" font-size="13" font-weight="bold" lengthAdjust="spacing" textLength="7" x="65.5" y="200.0967">3</text><text fill="#000000" font-family="sans-serif" font-size="13" lengthAdjust="spacing" textLength="147" x="76.5" y="200.0967">selects a type of property</text><polygon fill="#181818" points="69.5,229.375,59.5,233.375,69.5,237.375,65.5,233.375" style="stroke:#181818;stroke-width:1.0;"/><line style="stroke:#181818;stroke-width:1.0;stroke-dasharray:2.0,2.0;" x1="63.5" x2="535.5" y1="233.375" y2="233.375"/><text fill="#000000" font-family="sans-serif" font-size="13" font-weight="bold" lengthAdjust="spacing" textLength="7" x="75.5" y="228.6201">4</text><text fill="#000000" font-family="sans-serif" font-size="13" lengthAdjust="spacing" textLength="349" x="86.5" y="228.6201">requests data(area, location, price, distanceFromCityCentre)</text><polygon fill="#181818" points="519.5,257.8984,529.5,261.8984,519.5,265.8984,523.5,261.8984" style="stroke:#181818;stroke-width:1.0;"/><line style="stroke:#181818;stroke-width:1.0;" x1="58.5" x2="525.5" y1="261.8984" y2="261.8984"/><text fill="#000000" font-family="sans-serif" font-size="13" font-weight="bold" lengthAdjust="spacing" textLength="7" x="65.5" y="257.1436">5</text><text fill="#000000" font-family="sans-serif" font-size="13" lengthAdjust="spacing" textLength="68" x="76.5" y="257.1436">inserts data</text><polygon fill="#181818" points="69.5,286.4219,59.5,290.4219,69.5,294.4219,65.5,290.4219" style="stroke:#181818;stroke-width:1.0;"/><line style="stroke:#181818;stroke-width:1.0;stroke-dasharray:2.0,2.0;" x1="63.5" x2="535.5" y1="290.4219" y2="290.4219"/><text fill="#000000" font-family="sans-serif" font-size="13" font-weight="bold" lengthAdjust="spacing" textLength="7" x="75.5" y="285.667">6</text><text fill="#000000" font-family="sans-serif" font-size="13" lengthAdjust="spacing" textLength="366" x="86.5" y="285.667">requests the number of photos that the owner intends to submit</text><polygon fill="#181818" points="519.5,314.9453,529.5,318.9453,519.5,322.9453,523.5,318.9453" style="stroke:#181818;stroke-width:1.0;"/><line style="stroke:#181818;stroke-width:1.0;" x1="58.5" x2="525.5" y1="318.9453" y2="318.9453"/><text fill="#000000" font-family="sans-serif" font-size="13" font-weight="bold" lengthAdjust="spacing" textLength="7" x="65.5" y="314.1904">7</text><text fill="#000000" font-family="sans-serif" font-size="13" lengthAdjust="spacing" textLength="165" x="76.5" y="314.1904">inserts the number of photos</text><path d="M20,333.9453 L93,333.9453 L93,340.4688 L83,350.4688 L20,350.4688 L20,333.9453 " fill="#EEEEEE" style="stroke:#000000;stroke-width:1.5;"/><rect fill="none" height="73.5703" style="stroke:#000000;stroke-width:1.5;" width="558.5" x="20" y="333.9453"/><text fill="#000000" font-family="sans-serif" font-size="13" font-weight="bold" lengthAdjust="spacing" textLength="28" x="35" y="346.7139">loop</text><text fill="#000000" font-family="sans-serif" font-size="11" font-weight="bold" lengthAdjust="spacing" textLength="227" x="108" y="345.9033">[from 1 to the number of photos defined]</text><polygon fill="#181818" points="69.5,366.9922,59.5,370.9922,69.5,374.9922,65.5,370.9922" style="stroke:#181818;stroke-width:1.0;"/><line style="stroke:#181818;stroke-width:1.0;stroke-dasharray:2.0,2.0;" x1="63.5" x2="535.5" y1="370.9922" y2="370.9922"/><text fill="#000000" font-family="sans-serif" font-size="13" font-weight="bold" lengthAdjust="spacing" textLength="7" x="75.5" y="366.2373">8</text><text fill="#000000" font-family="sans-serif" font-size="13" lengthAdjust="spacing" textLength="136" x="86.5" y="366.2373">asks for the photos URI</text><polygon fill="#181818" points="519.5,395.5156,529.5,399.5156,519.5,403.5156,523.5,399.5156" style="stroke:#181818;stroke-width:1.0;"/><line style="stroke:#181818;stroke-width:1.0;" x1="58.5" x2="525.5" y1="399.5156" y2="399.5156"/><text fill="#000000" font-family="sans-serif" font-size="13" font-weight="bold" lengthAdjust="spacing" textLength="7" x="65.5" y="394.7607">9</text><text fill="#000000" font-family="sans-serif" font-size="13" lengthAdjust="spacing" textLength="107" x="76.5" y="394.7607">inserts photos URI</text><polygon fill="#181818" points="69.5,431.0391,59.5,435.0391,69.5,439.0391,65.5,435.0391" style="stroke:#181818;stroke-width:1.0;"/><line style="stroke:#181818;stroke-width:1.0;stroke-dasharray:2.0,2.0;" x1="63.5" x2="535.5" y1="435.0391" y2="435.0391"/><text fill="#000000" font-family="sans-serif" font-size="13" font-weight="bold" lengthAdjust="spacing" textLength="14" x="75.5" y="430.2842">10</text><text fill="#000000" font-family="sans-serif" font-size="13" lengthAdjust="spacing" textLength="277" x="93.5" y="430.2842">shows type of request list an asks to select one</text><polygon fill="#181818" points="519.5,459.5625,529.5,463.5625,519.5,467.5625,523.5,463.5625" style="stroke:#181818;stroke-width:1.0;"/><line style="stroke:#181818;stroke-width:1.0;" x1="58.5" x2="525.5" y1="463.5625" y2="463.5625"/><text fill="#000000" font-family="sans-serif" font-size="13" font-weight="bold" lengthAdjust="spacing" textLength="14" x="65.5" y="458.8076">11</text><text fill="#000000" font-family="sans-serif" font-size="13" lengthAdjust="spacing" textLength="154" x="83.5" y="458.8076">selects the type of request</text><path d="M20,478.5625 L85,478.5625 L85,485.0859 L75,495.0859 L20,495.0859 L20,478.5625 " fill="#EEEEEE" style="stroke:#000000;stroke-width:1.5;"/><rect fill="none" height="73.5703" style="stroke:#000000;stroke-width:1.5;" width="558.5" x="20" y="478.5625"/><text fill="#000000" font-family="sans-serif" font-size="13" font-weight="bold" lengthAdjust="spacing" textLength="20" x="35" y="491.3311">opt</text><text fill="#000000" font-family="sans-serif" font-size="11" font-weight="bold" lengthAdjust="spacing" textLength="93" x="100" y="490.5205">[Rent a Property]</text><polygon fill="#181818" points="69.5,511.6094,59.5,515.6094,69.5,519.6094,65.5,515.6094" style="stroke:#181818;stroke-width:1.0;"/><line style="stroke:#181818;stroke-width:1.0;stroke-dasharray:2.0,2.0;" x1="63.5" x2="535.5" y1="515.6094" y2="515.6094"/><text fill="#000000" font-family="sans-serif" font-size="13" font-weight="bold" lengthAdjust="spacing" textLength="14" x="75.5" y="510.8545">12</text><text fill="#000000" font-family="sans-serif" font-size="13" lengthAdjust="spacing" textLength="188" x="93.5" y="510.8545">requests data (contract duration)</text><polygon fill="#181818" points="519.5,540.1328,529.5,544.1328,519.5,548.1328,523.5,544.1328" style="stroke:#181818;stroke-width:1.0;"/><line style="stroke:#181818;stroke-width:1.0;" x1="58.5" x2="525.5" y1="544.1328" y2="544.1328"/><text fill="#000000" font-family="sans-serif" font-size="13" font-weight="bold" lengthAdjust="spacing" textLength="14" x="65.5" y="539.3779">13</text><text fill="#000000" font-family="sans-serif" font-size="13" lengthAdjust="spacing" textLength="68" x="83.5" y="539.3779">inserts data</text><path d="M10,566.1328 L75,566.1328 L75,572.6563 L65,582.6563 L10,582.6563 L10,566.1328 " fill="#EEEEEE" style="stroke:#000000;stroke-width:1.5;"/><rect fill="none" height="175.6641" style="stroke:#000000;stroke-width:1.5;" width="578.5" x="10" y="566.1328"/><text fill="#000000" font-family="sans-serif" font-size="13" font-weight="bold" lengthAdjust="spacing" textLength="20" x="25" y="578.9014">opt</text><text fill="#000000" font-family="sans-serif" font-size="11" font-weight="bold" lengthAdjust="spacing" textLength="184" x="90" y="578.0908">[Property is Apartment or House]</text><polygon fill="#181818" points="69.5,613.7031,59.5,617.7031,69.5,621.7031,65.5,617.7031" style="stroke:#181818;stroke-width:1.0;"/><line style="stroke:#181818;stroke-width:1.0;stroke-dasharray:2.0,2.0;" x1="63.5" x2="535.5" y1="617.7031" y2="617.7031"/><text fill="#000000" font-family="sans-serif" font-size="13" font-weight="bold" lengthAdjust="spacing" textLength="14" x="75.5" y="605.6865">14</text><text fill="#000000" font-family="sans-serif" font-size="13" lengthAdjust="spacing" textLength="339" x="93.5" y="598.4248">requests data (number of bedrooms, number of bathrooms,</text><text fill="#000000" font-family="sans-serif" font-size="13" lengthAdjust="spacing" textLength="295" x="93.5" y="612.9482">number of parking spaces and available equipment)</text><polygon fill="#181818" points="519.5,642.2266,529.5,646.2266,519.5,650.2266,523.5,646.2266" style="stroke:#181818;stroke-width:1.0;"/><line style="stroke:#181818;stroke-width:1.0;" x1="58.5" x2="525.5" y1="646.2266" y2="646.2266"/><text fill="#000000" font-family="sans-serif" font-size="13" font-weight="bold" lengthAdjust="spacing" textLength="14" x="65.5" y="641.4717">15</text><text fill="#000000" font-family="sans-serif" font-size="13" lengthAdjust="spacing" textLength="68" x="83.5" y="641.4717">inserts data</text><path d="M20,661.2266 L85,661.2266 L85,667.75 L75,677.75 L20,677.75 L20,661.2266 " fill="#EEEEEE" style="stroke:#000000;stroke-width:1.5;"/><rect fill="none" height="73.5703" style="stroke:#000000;stroke-width:1.5;" width="558.5" x="20" y="661.2266"/><text fill="#000000" font-family="sans-serif" font-size="13" font-weight="bold" lengthAdjust="spacing" textLength="20" x="35" y="673.9951">opt</text><text fill="#000000" font-family="sans-serif" font-size="11" font-weight="bold" lengthAdjust="spacing" textLength="116" x="100" y="673.1846">[Property is a House]</text><polygon fill="#181818" points="69.5,694.2734,59.5,698.2734,69.5,702.2734,65.5,698.2734" style="stroke:#181818;stroke-width:1.0;"/><line style="stroke:#181818;stroke-width:1.0;stroke-dasharray:2.0,2.0;" x1="63.5" x2="535.5" y1="698.2734" y2="698.2734"/><text fill="#000000" font-family="sans-serif" font-size="13" font-weight="bold" lengthAdjust="spacing" textLength="14" x="75.5" y="693.5186">16</text><text fill="#000000" font-family="sans-serif" font-size="13" lengthAdjust="spacing" textLength="431" x="93.5" y="693.5186">requests data (existence of a basement, inhabitable loft and sun exposure)</text><polygon fill="#181818" points="519.5,722.7969,529.5,726.7969,519.5,730.7969,523.5,726.7969" style="stroke:#181818;stroke-width:1.0;"/><line style="stroke:#181818;stroke-width:1.0;" x1="58.5" x2="525.5" y1="726.7969" y2="726.7969"/><text fill="#000000" font-family="sans-serif" font-size="13" font-weight="bold" lengthAdjust="spacing" textLength="14" x="65.5" y="722.042">17</text><text fill="#000000" font-family="sans-serif" font-size="13" lengthAdjust="spacing" textLength="68" x="83.5" y="722.042">inserts data</text><polygon fill="#181818" points="69.5,765.3203,59.5,769.3203,69.5,773.3203,65.5,769.3203" style="stroke:#181818;stroke-width:1.0;"/><line style="stroke:#181818;stroke-width:1.0;stroke-dasharray:2.0,2.0;" x1="63.5" x2="535.5" y1="769.3203" y2="769.3203"/><text fill="#000000" font-family="sans-serif" font-size="13" font-weight="bold" lengthAdjust="spacing" textLength="14" x="75.5" y="764.5654">18</text><text fill="#000000" font-family="sans-serif" font-size="13" lengthAdjust="spacing" textLength="250" x="93.5" y="764.5654">shows agencies list and asks to select one</text><polygon fill="#181818" points="519.5,793.8438,529.5,797.8438,519.5,801.8438,523.5,797.8438" style="stroke:#181818;stroke-width:1.0;"/><line style="stroke:#181818;stroke-width:1.0;" x1="58.5" x2="525.5" y1="797.8438" y2="797.8438"/><text fill="#000000" font-family="sans-serif" font-size="13" font-weight="bold" lengthAdjust="spacing" textLength="14" x="65.5" y="793.0889">19</text><text fill="#000000" font-family="sans-serif" font-size="13" lengthAdjust="spacing" textLength="106" x="83.5" y="793.0889">selects an agency</text><polygon fill="#181818" points="69.5,822.3672,59.5,826.3672,69.5,830.3672,65.5,826.3672" style="stroke:#181818;stroke-width:1.0;"/><line style="stroke:#181818;stroke-width:1.0;stroke-dasharray:2.0,2.0;" x1="63.5" x2="535.5" y1="826.3672" y2="826.3672"/><text fill="#000000" font-family="sans-serif" font-size="13" font-weight="bold" lengthAdjust="spacing" textLength="14" x="75.5" y="821.6123">20</text><text fill="#000000" font-family="sans-serif" font-size="13" lengthAdjust="spacing" textLength="237" x="93.5" y="821.6123">shows branch list and asks to select one</text><polygon fill="#181818" points="524.5,850.8906,534.5,854.8906,524.5,858.8906,528.5,854.8906" style="stroke:#181818;stroke-width:1.0;"/><line style="stroke:#181818;stroke-width:1.0;" x1="58.5" x2="530.5" y1="854.8906" y2="854.8906"/><text fill="#000000" font-family="sans-serif" font-size="13" font-weight="bold" lengthAdjust="spacing" textLength="14" x="65.5" y="850.1357">21</text><text fill="#000000" font-family="sans-serif" font-size="13" lengthAdjust="spacing" textLength="96" x="83.5" y="850.1357">selects a branch</text><polygon fill="#181818" points="69.5,879.4141,59.5,883.4141,69.5,887.4141,65.5,883.4141" style="stroke:#181818;stroke-width:1.0;"/><line style="stroke:#181818;stroke-width:1.0;stroke-dasharray:2.0,2.0;" x1="63.5" x2="535.5" y1="883.4141" y2="883.4141"/><text fill="#000000" font-family="sans-serif" font-size="13" font-weight="bold" lengthAdjust="spacing" textLength="14" x="75.5" y="878.6592">22</text><text fill="#000000" font-family="sans-serif" font-size="13" lengthAdjust="spacing" textLength="237" x="93.5" y="878.6592">shows agents list and asks to select one</text><polygon fill="#181818" points="519.5,907.9375,529.5,911.9375,519.5,915.9375,523.5,911.9375" style="stroke:#181818;stroke-width:1.0;"/><line style="stroke:#181818;stroke-width:1.0;" x1="58.5" x2="525.5" y1="911.9375" y2="911.9375"/><text fill="#000000" font-family="sans-serif" font-size="13" font-weight="bold" lengthAdjust="spacing" textLength="14" x="65.5" y="907.1826">23</text><text fill="#000000" font-family="sans-serif" font-size="13" lengthAdjust="spacing" textLength="96" x="83.5" y="907.1826">selects an agent</text><polygon fill="#181818" points="69.5,936.4609,59.5,940.4609,69.5,944.4609,65.5,940.4609" style="stroke:#181818;stroke-width:1.0;"/><line style="stroke:#181818;stroke-width:1.0;stroke-dasharray:2.0,2.0;" x1="63.5" x2="535.5" y1="940.4609" y2="940.4609"/><text fill="#000000" font-family="sans-serif" font-size="13" font-weight="bold" lengthAdjust="spacing" textLength="14" x="75.5" y="935.7061">24</text><text fill="#000000" font-family="sans-serif" font-size="13" lengthAdjust="spacing" textLength="147" x="93.5" y="935.7061">shows operation success</text><!--SRC=[jLN1Rjim3BtxAuYSKY05Ec2d70OCBORjjA56RxlGCXCBiKLFeflwxqTPJfPbQTC4iq-2HJw-HprHOMDTYnuRQDYngJmt1E8xoi9-fqMpmJNbqjS4deoWMzU70Q72ahVMhM65TQ0i4oiQclT1g86SVdNa3C63nNKCd-VvmmtSmbCETtSVimmxOTSr1NbT6s4Fi-zRHtu6661OPLf7hB4jEe7PCW4FssavvDbd51hZCz1lMCBjfnsHfIPi0WY3yHHZ4HnjLP7o2v9ozZWxuFXppBzLg8IvLCcyLQXAczMt1Bo2rdDBNdgeRH10L-wh1QgrQS2E4bn99wlyIpSb1kLvNEGoigF202KApb75Bw1cWsBPBHJJ6bf0gRHHZ-cBMk3UIdzFJZpTN4ZPkg3yKgKhISQc9ZiCYYiMZZzHXXqUmgqJScNgRbSqLgwaUQhM6xHhvXPMsY3u44kVP5hIoZegNzKvk6Ab9e_POyxJuxSh1Hm3d4pNLfqpykYlyH1s7lv_5ZwyAUSl7BS2Z-e_TVwFlnn_pjmmDwosLL0eEpyOV287xtiQkUv8WWtmESwg9fBNC_xANQ3tKlzZfO9Apzo4nO6z2fHg_FdJ7RWE_IPEtg1JcaAQEyzeQonq0Yk-RIENYPfmh1ql4qmlQhFXQL0Xg0e3HR8BBLzXOMNGKFCgZTFGEQ2NbaCtsLZQ7-hv6wCFeZDMEpx1k7S9lR_cIIgy3l5gaaSeGR-ZBp9XLwvwfwD3Xs6W9Z9wJS9h77u3]--></g></svg>