<?xml version="1.0" encoding="us-ascii" standalone="no"?><svg xmlns="http://www.w3.org/2000/svg" xmlns:xlink="http://www.w3.org/1999/xlink" contentStyleType="text/css" height="1209px" preserveAspectRatio="none" style="width:594px;height:1209px;background:#FFFFFF;" version="1.1" viewBox="0 0 594 1209" width="594px" zoomAndPan="magnify"><defs/><g><text fill="#000000" font-family="sans-serif" font-size="14" font-weight="bold" lengthAdjust="spacing" textLength="288" x="154.75" y="27.6738">System Sequence Diagram (SSD) - US 004</text><rect fill="#FFFFFF" height="993.3203" style="stroke:#181818;stroke-width:1.0;" width="10" x="48.5" y="127.2813"/><rect fill="#FFFFFF" height="28.5234" style="stroke:#181818;stroke-width:1.0;" width="10" x="531.5" y="147.8047"/><rect fill="#FFFFFF" height="28.5234" style="stroke:#181818;stroke-width:1.0;" width="10" x="531.5" y="204.8516"/><rect fill="#FFFFFF" height="28.5234" style="stroke:#181818;stroke-width:1.0;" width="10" x="531.5" y="261.8984"/><rect fill="#FFFFFF" height="28.5234" style="stroke:#181818;stroke-width:1.0;" width="10" x="531.5" y="318.9453"/><rect fill="#FFFFFF" height="28.5234" style="stroke:#181818;stroke-width:1.0;" width="10" x="531.5" y="375.9922"/><rect fill="#FFFFFF" height="28.5234" style="stroke:#181818;stroke-width:1.0;" width="10" x="531.5" y="433.0391"/><rect fill="#FFFFFF" height="28.5234" style="stroke:#181818;stroke-width:1.0;" width="10" x="531.5" y="490.0859"/><rect fill="#FFFFFF" height="52.0469" style="stroke:#181818;stroke-width:1.0;" width="10" x="531.5" y="547.1328"/><rect fill="#FFFFFF" height="35.5234" style="stroke:#181818;stroke-width:1.0;" width="10" x="531.5" y="627.7031"/><rect fill="#FFFFFF" height="52.0469" style="stroke:#181818;stroke-width:1.0;" width="10" x="531.5" y="691.75"/><rect fill="#FFFFFF" height="73.5703" style="stroke:#181818;stroke-width:1.0;" width="10" x="531.5" y="772.3203"/><rect fill="#FFFFFF" height="52.0469" style="stroke:#181818;stroke-width:1.0;" width="10" x="531.5" y="874.4141"/><rect fill="#FFFFFF" height="42.5234" style="stroke:#181818;stroke-width:1.0;" width="10" x="531.5" y="954.9844"/><rect fill="#FFFFFF" height="28.5234" style="stroke:#181818;stroke-width:1.0;" width="10" x="531.5" y="1026.0313"/><rect fill="#FFFFFF" height="28.5234" style="stroke:#181818;stroke-width:1.0;" width="10" x="531.5" y="1083.0781"/><rect fill="none" height="73.5703" style="stroke:#000000;stroke-width:1.5;" width="558.5" x="20" y="562.1328"/><rect fill="none" height="73.5703" style="stroke:#000000;stroke-width:1.5;" width="558.5" x="20" y="706.75"/><rect fill="none" height="175.6641" style="stroke:#000000;stroke-width:1.5;" width="578.5" x="10" y="794.3203"/><rect fill="none" height="73.5703" style="stroke:#000000;stroke-width:1.5;" width="558.5" x="20" y="889.4141"/><line style="stroke:#181818;stroke-width:0.5;stroke-dasharray:5.0,5.0;" x1="53" x2="53" y1="117.2813" y2="1129.6016"/><line style="stroke:#181818;stroke-width:0.5;stroke-dasharray:5.0,5.0;" x1="536.5" x2="536.5" y1="117.2813" y2="1129.6016"/><text fill="#000000" font-family="sans-serif" font-size="14" lengthAdjust="spacing" textLength="41" x="30" y="114.3145">Owner</text><ellipse cx="53.5" cy="50.1406" fill="#E3E3E3" rx="8" ry="8" style="stroke:#181818;stroke-width:0.5;"/><path d="M53.5,58.1406 L53.5,85.1406 M40.5,66.1406 L66.5,66.1406 M53.5,85.1406 L40.5,100.1406 M53.5,85.1406 L66.5,100.1406 " fill="none" style="stroke:#181818;stroke-width:0.5;"/><text fill="#000000" font-family="sans-serif" font-size="14" lengthAdjust="spacing" textLength="41" x="30" y="1141.2754">Owner</text><ellipse cx="53.5" cy="1152.7422" fill="#E3E3E3" rx="8" ry="8" style="stroke:#181818;stroke-width:0.5;"/><path d="M53.5,1160.7422 L53.5,1187.7422 M40.5,1168.7422 L66.5,1168.7422 M53.5,1187.7422 L40.5,1202.7422 M53.5,1187.7422 L66.5,1202.7422 " fill="none" style="stroke:#181818;stroke-width:0.5;"/><rect fill="#E3E3E3" height="29.6406" rx="2.5" ry="2.5" style="stroke:#181818;stroke-width:0.5;" width="64" x="504.5" y="86.6406"/><text fill="#000000" font-family="sans-serif" font-size="14" lengthAdjust="spacing" textLength="50" x="511.5" y="106.3145">:System</text><rect fill="#E3E3E3" height="29.6406" rx="2.5" ry="2.5" style="stroke:#181818;stroke-width:0.5;" width="64" x="504.5" y="1128.6016"/><text fill="#000000" font-family="sans-serif" font-size="14" lengthAdjust="spacing" textLength="50" x="511.5" y="1148.2754">:System</text><rect fill="#FFFFFF" height="993.3203" style="stroke:#181818;stroke-width:1.0;" width="10" x="48.5" y="127.2813"/><rect fill="#FFFFFF" height="28.5234" style="stroke:#181818;stroke-width:1.0;" width="10" x="531.5" y="147.8047"/><rect fill="#FFFFFF" height="28.5234" style="stroke:#181818;stroke-width:1.0;" width="10" x="531.5" y="204.8516"/><rect fill="#FFFFFF" height="28.5234" style="stroke:#181818;stroke-width:1.0;" width="10" x="531.5" y="261.8984"/><rect fill="#FFFFFF" height="28.5234" style="stroke:#181818;stroke-width:1.0;" width="10" x="531.5" y="318.9453"/><rect fill="#FFFFFF" height="28.5234" style="stroke:#181818;stroke-width:1.0;" width="10" x="531.5" y="375.9922"/><rect fill="#FFFFFF" height="28.5234" style="stroke:#181818;stroke-width:1.0;" width="10" x="531.5" y="433.0391"/><rect fill="#FFFFFF" height="28.5234" style="stroke:#181818;stroke-width:1.0;" width="10" x="531.5" y="490.0859"/><rect fill="#FFFFFF" height="52.0469" style="stroke:#181818;stroke-width:1.0;" width="10" x="531.5" y="547.1328"/><rect fill="#FFFFFF" height="35.5234" style="stroke:#181818;stroke-width:1.0;" width="10" x="531.5" y="627.7031"/><rect fill="#FFFFFF" height="52.0469" style="stroke:#181818;stroke-width:1.0;" width="10" x="531.5" y="691.75"/><rect fill="#FFFFFF" height="73.5703" style="stroke:#181818;stroke-width:1.0;" width="10" x="531.5" y="772.3203"/><rect fill="#FFFFFF" height="52.0469" style="stroke:#181818;stroke-width:1.0;" width="10" x="531.5" y="874.4141"/><rect fill="#FFFFFF" height="42.5234" style="stroke:#181818;stroke-width:1.0;" width="10" x="531.5" y="954.9844"/><rect fill="#FFFFFF" height="28.5234" style="stroke:#181818;stroke-width:1.0;" width="10" x="531.5" y="1026.0313"/><rect fill="#FFFFFF" height="28.5234" style="stroke:#181818;stroke-width:1.0;" width="10" x="531.5" y="1083.0781"/><polygon fill="#181818" points="519.5,143.8047,529.5,147.8047,519.5,151.8047,523.5,147.8047" style="stroke:#181818;stroke-width:1.0;"/><line style="stroke:#181818;stroke-width:1.0;" x1="58.5" x2="525.5" y1="147.8047" y2="147.8047"/><text fill="#000000" font-family="sans-serif" font-size="13" font-weight="bold" lengthAdjust="spacing" textLength="7" x="65.5" y="143.0498">1</text><text fill="#000000" font-family="sans-serif" font-size="13" lengthAdjust="spacing" textLength="168" x="76.5" y="143.0498">asks to create a new request</text><polygon fill="#181818" points="69.5,172.3281,59.5,176.3281,69.5,180.3281,65.5,176.3281" style="stroke:#181818;stroke-width:1.0;"/><line style="stroke:#181818;stroke-width:1.0;stroke-dasharray:2.0,2.0;" x1="63.5" x2="535.5" y1="176.3281" y2="176.3281"/><text fill="#000000" font-family="sans-serif" font-size="13" font-weight="bold" lengthAdjust="spacing" textLength="7" x="75.5" y="171.5732">2</text><text fill="#000000" font-family="sans-serif" font-size="13" lengthAdjust="spacing" textLength="310" x="86.5" y="171.5732">shows the type of property list and asks to select one</text><polygon fill="#181818" points="519.5,200.8516,529.5,204.8516,519.5,208.8516,523.5,204.8516" style="stroke:#181818;stroke-width:1.0;"/><line style="stroke:#181818;stroke-width:1.0;" x1="58.5" x2="525.5" y1="204.8516" y2="204.8516"/><text fill="#000000" font-family="sans-serif" font-size="13" font-weight="bold" lengthAdjust="spacing" textLength="7" x="65.5" y="200.0967">3</text><text fill="#000000" font-family="sans-serif" font-size="13" lengthAdjust="spacing" textLength="147" x="76.5" y="200.0967">selects a type of property</text><polygon fill="#181818" points="69.5,229.375,59.5,233.375,69.5,237.375,65.5,233.375" style="stroke:#181818;stroke-width:1.0;"/><line style="stroke:#181818;stroke-width:1.0;stroke-dasharray:2.0,2.0;" x1="63.5" x2="535.5" y1="233.375" y2="233.375"/><text fill="#000000" font-family="sans-serif" font-size="13" font-weight="bold" lengthAdjust="spacing" textLength="7" x="75.5" y="228.6201">4</text><text fill="#000000" font-family="sans-serif" font-size="13" lengthAdjust="spacing" textLength="292" x="86.5" y="228.6201">requests data(area distanceFromCityCentre, price)</text><polygon fill="#181818" points="519.5,257.8984,529.5,261.8984,519.5,265.8984,523.5,261.8984" style="stroke:#181818;stroke-width:1.0;"/><line style="stroke:#181818;stroke-width:1.0;" x1="58.5" x2="525.5" y1="261.8984" y2="261.8984"/><text fill="#000000" font-family="sans-serif" font-size="13" font-weight="bold" lengthAdjust="spacing" textLength="7" x="65.5" y="257.1436">5</text><text fill="#000000" font-family="sans-serif" font-size="13" lengthAdjust="spacing" textLength="68" x="76.5" y="257.1436">inserts data</text><polygon fill="#181818" points="69.5,286.4219,59.5,290.4219,69.5,294.4219,65.5,290.4219" style="stroke:#181818;stroke-width:1.0;"/><line style="stroke:#181818;stroke-width:1.0;stroke-dasharray:2.0,2.0;" x1="63.5" x2="535.5" y1="290.4219" y2="290.4219"/><text fill="#000000" font-family="sans-serif" font-size="13" font-weight="bold" lengthAdjust="spacing" textLength="7" x="75.5" y="285.667">6</text><text fill="#000000" font-family="sans-serif" font-size="13" lengthAdjust="spacing" textLength="248" x="86.5" y="285.667">shows list of states and asks to select one</text><polygon fill="#181818" points="519.5,314.9453,529.5,318.9453,519.5,322.9453,523.5,318.9453" style="stroke:#181818;stroke-width:1.0;"/><line style="stroke:#181818;stroke-width:1.0;" x1="58.5" x2="525.5" y1="318.9453" y2="318.9453"/><text fill="#000000" font-family="sans-serif" font-size="13" font-weight="bold" lengthAdjust="spacing" textLength="7" x="65.5" y="314.1904">7</text><text fill="#000000" font-family="sans-serif" font-size="13" lengthAdjust="spacing" textLength="86" x="76.5" y="314.1904">selects a state</text><polygon fill="#181818" points="69.5,343.4688,59.5,347.4688,69.5,351.4688,65.5,347.4688" style="stroke:#181818;stroke-width:1.0;"/><line style="stroke:#181818;stroke-width:1.0;stroke-dasharray:2.0,2.0;" x1="63.5" x2="535.5" y1="347.4688" y2="347.4688"/><text fill="#000000" font-family="sans-serif" font-size="13" font-weight="bold" lengthAdjust="spacing" textLength="7" x="75.5" y="342.7139">8</text><text fill="#000000" font-family="sans-serif" font-size="13" lengthAdjust="spacing" textLength="258" x="86.5" y="342.7139">shows list of districts and asks to select one</text><polygon fill="#181818" points="519.5,371.9922,529.5,375.9922,519.5,379.9922,523.5,375.9922" style="stroke:#181818;stroke-width:1.0;"/><line style="stroke:#181818;stroke-width:1.0;" x1="58.5" x2="525.5" y1="375.9922" y2="375.9922"/><text fill="#000000" font-family="sans-serif" font-size="13" font-weight="bold" lengthAdjust="spacing" textLength="7" x="65.5" y="371.2373">9</text><text fill="#000000" font-family="sans-serif" font-size="13" lengthAdjust="spacing" textLength="96" x="76.5" y="371.2373">selects a district</text><polygon fill="#181818" points="69.5,400.5156,59.5,404.5156,69.5,408.5156,65.5,404.5156" style="stroke:#181818;stroke-width:1.0;"/><line style="stroke:#181818;stroke-width:1.0;stroke-dasharray:2.0,2.0;" x1="63.5" x2="535.5" y1="404.5156" y2="404.5156"/><text fill="#000000" font-family="sans-serif" font-size="13" font-weight="bold" lengthAdjust="spacing" textLength="14" x="75.5" y="399.7607">10</text><text fill="#000000" font-family="sans-serif" font-size="13" lengthAdjust="spacing" textLength="236" x="93.5" y="399.7607">show list of cities and asks to select one</text><polygon fill="#181818" points="519.5,429.0391,529.5,433.0391,519.5,437.0391,523.5,433.0391" style="stroke:#181818;stroke-width:1.0;"/><line style="stroke:#181818;stroke-width:1.0;" x1="58.5" x2="525.5" y1="433.0391" y2="433.0391"/><text fill="#000000" font-family="sans-serif" font-size="13" font-weight="bold" lengthAdjust="spacing" textLength="14" x="65.5" y="428.2842">11</text><text fill="#000000" font-family="sans-serif" font-size="13" lengthAdjust="spacing" textLength="78" x="83.5" y="428.2842">selects a city</text><polygon fill="#181818" points="69.5,457.5625,59.5,461.5625,69.5,465.5625,65.5,461.5625" style="stroke:#181818;stroke-width:1.0;"/><line style="stroke:#181818;stroke-width:1.0;stroke-dasharray:2.0,2.0;" x1="63.5" x2="535.5" y1="461.5625" y2="461.5625"/><text fill="#000000" font-family="sans-serif" font-size="13" font-weight="bold" lengthAdjust="spacing" textLength="14" x="75.5" y="456.8076">12</text><text fill="#000000" font-family="sans-serif" font-size="13" lengthAdjust="spacing" textLength="333" x="93.5" y="456.8076">requests data (door number, floor number, street address)</text><polygon fill="#181818" points="519.5,486.0859,529.5,490.0859,519.5,494.0859,523.5,490.0859" style="stroke:#181818;stroke-width:1.0;"/><line style="stroke:#181818;stroke-width:1.0;" x1="58.5" x2="525.5" y1="490.0859" y2="490.0859"/><text fill="#000000" font-family="sans-serif" font-size="13" font-weight="bold" lengthAdjust="spacing" textLength="14" x="65.5" y="485.3311">13</text><text fill="#000000" font-family="sans-serif" font-size="13" lengthAdjust="spacing" textLength="68" x="83.5" y="485.3311">inserts data</text><polygon fill="#181818" points="69.5,514.6094,59.5,518.6094,69.5,522.6094,65.5,518.6094" style="stroke:#181818;stroke-width:1.0;"/><line style="stroke:#181818;stroke-width:1.0;stroke-dasharray:2.0,2.0;" x1="63.5" x2="535.5" y1="518.6094" y2="518.6094"/><text fill="#000000" font-family="sans-serif" font-size="13" font-weight="bold" lengthAdjust="spacing" textLength="14" x="75.5" y="513.8545">14</text><text fill="#000000" font-family="sans-serif" font-size="13" lengthAdjust="spacing" textLength="366" x="93.5" y="513.8545">requests the number of photos that the owner intends to submit</text><polygon fill="#181818" points="519.5,543.1328,529.5,547.1328,519.5,551.1328,523.5,547.1328" style="stroke:#181818;stroke-width:1.0;"/><line style="stroke:#181818;stroke-width:1.0;" x1="58.5" x2="525.5" y1="547.1328" y2="547.1328"/><text fill="#000000" font-family="sans-serif" font-size="13" font-weight="bold" lengthAdjust="spacing" textLength="14" x="65.5" y="542.3779">15</text><text fill="#000000" font-family="sans-serif" font-size="13" lengthAdjust="spacing" textLength="165" x="83.5" y="542.3779">inserts the number of photos</text><path d="M20,562.1328 L93,562.1328 L93,568.6563 L83,578.6563 L20,578.6563 L20,562.1328 " fill="#EEEEEE" style="stroke:#000000;stroke-width:1.5;"/><rect fill="none" height="73.5703" style="stroke:#000000;stroke-width:1.5;" width="558.5" x="20" y="562.1328"/><text fill="#000000" font-family="sans-serif" font-size="13" font-weight="bold" lengthAdjust="spacing" textLength="28" x="35" y="574.9014">loop</text><text fill="#000000" font-family="sans-serif" font-size="11" font-weight="bold" lengthAdjust="spacing" textLength="227" x="108" y="574.0908">[from 1 to the number of photos defined]</text><polygon fill="#181818" points="69.5,595.1797,59.5,599.1797,69.5,603.1797,65.5,599.1797" style="stroke:#181818;stroke-width:1.0;"/><line style="stroke:#181818;stroke-width:1.0;stroke-dasharray:2.0,2.0;" x1="63.5" x2="535.5" y1="599.1797" y2="599.1797"/><text fill="#000000" font-family="sans-serif" font-size="13" font-weight="bold" lengthAdjust="spacing" textLength="14" x="75.5" y="594.4248">16</text><text fill="#000000" font-family="sans-serif" font-size="13" lengthAdjust="spacing" textLength="136" x="93.5" y="594.4248">asks for the photos URI</text><polygon fill="#181818" points="519.5,623.7031,529.5,627.7031,519.5,631.7031,523.5,627.7031" style="stroke:#181818;stroke-width:1.0;"/><line style="stroke:#181818;stroke-width:1.0;" x1="58.5" x2="525.5" y1="627.7031" y2="627.7031"/><text fill="#000000" font-family="sans-serif" font-size="13" font-weight="bold" lengthAdjust="spacing" textLength="14" x="65.5" y="622.9482">17</text><text fill="#000000" font-family="sans-serif" font-size="13" lengthAdjust="spacing" textLength="107" x="83.5" y="622.9482">inserts photos URI</text><polygon fill="#181818" points="69.5,659.2266,59.5,663.2266,69.5,667.2266,65.5,663.2266" style="stroke:#181818;stroke-width:1.0;"/><line style="stroke:#181818;stroke-width:1.0;stroke-dasharray:2.0,2.0;" x1="63.5" x2="535.5" y1="663.2266" y2="663.2266"/><text fill="#000000" font-family="sans-serif" font-size="13" font-weight="bold" lengthAdjust="spacing" textLength="14" x="75.5" y="658.4717">18</text><text fill="#000000" font-family="sans-serif" font-size="13" lengthAdjust="spacing" textLength="284" x="93.5" y="658.4717">shows type of request list and asks to select one</text><polygon fill="#181818" points="519.5,687.75,529.5,691.75,519.5,695.75,523.5,691.75" style="stroke:#181818;stroke-width:1.0;"/><line style="stroke:#181818;stroke-width:1.0;" x1="58.5" x2="525.5" y1="691.75" y2="691.75"/><text fill="#000000" font-family="sans-serif" font-size="13" font-weight="bold" lengthAdjust="spacing" textLength="14" x="65.5" y="686.9951">19</text><text fill="#000000" font-family="sans-serif" font-size="13" lengthAdjust="spacing" textLength="154" x="83.5" y="686.9951">selects the type of request</text><path d="M20,706.75 L85,706.75 L85,713.2734 L75,723.2734 L20,723.2734 L20,706.75 " fill="#EEEEEE" style="stroke:#000000;stroke-width:1.5;"/><rect fill="none" height="73.5703" style="stroke:#000000;stroke-width:1.5;" width="558.5" x="20" y="706.75"/><text fill="#000000" font-family="sans-serif" font-size="13" font-weight="bold" lengthAdjust="spacing" textLength="20" x="35" y="719.5186">opt</text><text fill="#000000" font-family="sans-serif" font-size="11" font-weight="bold" lengthAdjust="spacing" textLength="93" x="100" y="718.708">[Rent a Property]</text><polygon fill="#181818" points="69.5,739.7969,59.5,743.7969,69.5,747.7969,65.5,743.7969" style="stroke:#181818;stroke-width:1.0;"/><line style="stroke:#181818;stroke-width:1.0;stroke-dasharray:2.0,2.0;" x1="63.5" x2="535.5" y1="743.7969" y2="743.7969"/><text fill="#000000" font-family="sans-serif" font-size="13" font-weight="bold" lengthAdjust="spacing" textLength="14" x="75.5" y="739.042">20</text><text fill="#000000" font-family="sans-serif" font-size="13" lengthAdjust="spacing" textLength="188" x="93.5" y="739.042">requests data (contract duration)</text><polygon fill="#181818" points="519.5,768.3203,529.5,772.3203,519.5,776.3203,523.5,772.3203" style="stroke:#181818;stroke-width:1.0;"/><line style="stroke:#181818;stroke-width:1.0;" x1="58.5" x2="525.5" y1="772.3203" y2="772.3203"/><text fill="#000000" font-family="sans-serif" font-size="13" font-weight="bold" lengthAdjust="spacing" textLength="14" x="65.5" y="767.5654">21</text><text fill="#000000" font-family="sans-serif" font-size="13" lengthAdjust="spacing" textLength="68" x="83.5" y="767.5654">inserts data</text><path d="M10,794.3203 L75,794.3203 L75,800.8438 L65,810.8438 L10,810.8438 L10,794.3203 " fill="#EEEEEE" style="stroke:#000000;stroke-width:1.5;"/><rect fill="none" height="175.6641" style="stroke:#000000;stroke-width:1.5;" width="578.5" x="10" y="794.3203"/><text fill="#000000" font-family="sans-serif" font-size="13" font-weight="bold" lengthAdjust="spacing" textLength="20" x="25" y="807.0889">opt</text><text fill="#000000" font-family="sans-serif" font-size="11" font-weight="bold" lengthAdjust="spacing" textLength="184" x="90" y="806.2783">[Property is Apartment or House]</text><polygon fill="#181818" points="69.5,841.8906,59.5,845.8906,69.5,849.8906,65.5,845.8906" style="stroke:#181818;stroke-width:1.0;"/><line style="stroke:#181818;stroke-width:1.0;stroke-dasharray:2.0,2.0;" x1="63.5" x2="535.5" y1="845.8906" y2="845.8906"/><text fill="#000000" font-family="sans-serif" font-size="13" font-weight="bold" lengthAdjust="spacing" textLength="14" x="75.5" y="833.874">22</text><text fill="#000000" font-family="sans-serif" font-size="13" lengthAdjust="spacing" textLength="339" x="93.5" y="826.6123">requests data (number of bedrooms, number of bathrooms,</text><text fill="#000000" font-family="sans-serif" font-size="13" lengthAdjust="spacing" textLength="295" x="93.5" y="841.1357">number of parking spaces and available equipment)</text><polygon fill="#181818" points="519.5,870.4141,529.5,874.4141,519.5,878.4141,523.5,874.4141" style="stroke:#181818;stroke-width:1.0;"/><line style="stroke:#181818;stroke-width:1.0;" x1="58.5" x2="525.5" y1="874.4141" y2="874.4141"/><text fill="#000000" font-family="sans-serif" font-size="13" font-weight="bold" lengthAdjust="spacing" textLength="14" x="65.5" y="869.6592">23</text><text fill="#000000" font-family="sans-serif" font-size="13" lengthAdjust="spacing" textLength="68" x="83.5" y="869.6592">inserts data</text><path d="M20,889.4141 L85,889.4141 L85,895.9375 L75,905.9375 L20,905.9375 L20,889.4141 " fill="#EEEEEE" style="stroke:#000000;stroke-width:1.5;"/><rect fill="none" height="73.5703" style="stroke:#000000;stroke-width:1.5;" width="558.5" x="20" y="889.4141"/><text fill="#000000" font-family="sans-serif" font-size="13" font-weight="bold" lengthAdjust="spacing" textLength="20" x="35" y="902.1826">opt</text><text fill="#000000" font-family="sans-serif" font-size="11" font-weight="bold" lengthAdjust="spacing" textLength="116" x="100" y="901.3721">[Property is a House]</text><polygon fill="#181818" points="69.5,922.4609,59.5,926.4609,69.5,930.4609,65.5,926.4609" style="stroke:#181818;stroke-width:1.0;"/><line style="stroke:#181818;stroke-width:1.0;stroke-dasharray:2.0,2.0;" x1="63.5" x2="535.5" y1="926.4609" y2="926.4609"/><text fill="#000000" font-family="sans-serif" font-size="13" font-weight="bold" lengthAdjust="spacing" textLength="14" x="75.5" y="921.7061">24</text><text fill="#000000" font-family="sans-serif" font-size="13" lengthAdjust="spacing" textLength="431" x="93.5" y="921.7061">requests data (existence of a basement, inhabitable loft and sun exposure)</text><polygon fill="#181818" points="519.5,950.9844,529.5,954.9844,519.5,958.9844,523.5,954.9844" style="stroke:#181818;stroke-width:1.0;"/><line style="stroke:#181818;stroke-width:1.0;" x1="58.5" x2="525.5" y1="954.9844" y2="954.9844"/><text fill="#000000" font-family="sans-serif" font-size="13" font-weight="bold" lengthAdjust="spacing" textLength="14" x="65.5" y="950.2295">25</text><text fill="#000000" font-family="sans-serif" font-size="13" lengthAdjust="spacing" textLength="68" x="83.5" y="950.2295">inserts data</text><polygon fill="#181818" points="69.5,993.5078,59.5,997.5078,69.5,1001.5078,65.5,997.5078" style="stroke:#181818;stroke-width:1.0;"/><line style="stroke:#181818;stroke-width:1.0;stroke-dasharray:2.0,2.0;" x1="63.5" x2="535.5" y1="997.5078" y2="997.5078"/><text fill="#000000" font-family="sans-serif" font-size="13" font-weight="bold" lengthAdjust="spacing" textLength="14" x="75.5" y="992.7529">26</text><text fill="#000000" font-family="sans-serif" font-size="13" lengthAdjust="spacing" textLength="250" x="93.5" y="992.7529">shows agencies list and asks to select one</text><polygon fill="#181818" points="519.5,1022.0313,529.5,1026.0313,519.5,1030.0313,523.5,1026.0313" style="stroke:#181818;stroke-width:1.0;"/><line style="stroke:#181818;stroke-width:1.0;" x1="58.5" x2="525.5" y1="1026.0313" y2="1026.0313"/><text fill="#000000" font-family="sans-serif" font-size="13" font-weight="bold" lengthAdjust="spacing" textLength="14" x="65.5" y="1021.2764">27</text><text fill="#000000" font-family="sans-serif" font-size="13" lengthAdjust="spacing" textLength="106" x="83.5" y="1021.2764">selects an agency</text><polygon fill="#181818" points="69.5,1050.5547,59.5,1054.5547,69.5,1058.5547,65.5,1054.5547" style="stroke:#181818;stroke-width:1.0;"/><line style="stroke:#181818;stroke-width:1.0;stroke-dasharray:2.0,2.0;" x1="63.5" x2="535.5" y1="1054.5547" y2="1054.5547"/><text fill="#000000" font-family="sans-serif" font-size="13" font-weight="bold" lengthAdjust="spacing" textLength="14" x="75.5" y="1049.7998">28</text><text fill="#000000" font-family="sans-serif" font-size="13" lengthAdjust="spacing" textLength="237" x="93.5" y="1049.7998">shows agents list and asks to select one</text><polygon fill="#181818" points="519.5,1079.0781,529.5,1083.0781,519.5,1087.0781,523.5,1083.0781" style="stroke:#181818;stroke-width:1.0;"/><line style="stroke:#181818;stroke-width:1.0;" x1="58.5" x2="525.5" y1="1083.0781" y2="1083.0781"/><text fill="#000000" font-family="sans-serif" font-size="13" font-weight="bold" lengthAdjust="spacing" textLength="14" x="65.5" y="1078.3232">29</text><text fill="#000000" font-family="sans-serif" font-size="13" lengthAdjust="spacing" textLength="96" x="83.5" y="1078.3232">selects an agent</text><polygon fill="#181818" points="69.5,1107.6016,59.5,1111.6016,69.5,1115.6016,65.5,1111.6016" style="stroke:#181818;stroke-width:1.0;"/><line style="stroke:#181818;stroke-width:1.0;stroke-dasharray:2.0,2.0;" x1="63.5" x2="535.5" y1="1111.6016" y2="1111.6016"/><text fill="#000000" font-family="sans-serif" font-size="13" font-weight="bold" lengthAdjust="spacing" textLength="14" x="75.5" y="1106.8467">30</text><text fill="#000000" font-family="sans-serif" font-size="13" lengthAdjust="spacing" textLength="147" x="93.5" y="1106.8467">shows operation success</text><!--SRC=[lLPDRzim3BtxLn0vfK0ATC1EEGmOMWpRQKEDtdPX93eMOakUH3VrlnybErwMfSkInij9aSN7nySFAMoCRT1Z3RMpJfNUrGJiMyh2-AL1jS4rvTnL19uKerrN-mT2YTfjZLr3WLMWB6F3SZJl0bCDEVreoIg21uFhU7oUvmytS0jFETpTlSyoRDdPjbwHbxLYvs7sTMl9pm03f5KcVjWeqw1bc2rxuFIvNoOxyunCm_aCv9UMSFjXHsGf1fi0x41vYcSHB6qb8k4NkBSPSNR0SNEmlnMe7dCf8RkjG9KYLjSGk08Qxnhot45b0WDQFNeBL8beu2prS9gEUlcJRcyOXEUXa_F83X46qCWuHmaUj914ISedIVYzuUwUB7jQY0EZwEPCdiO68TN3No9ZKaoY4qfCuThQ9TItq8fQYInyTMOxuFF9ZToKONDzoGJrBIK6S-saY_kUNa1HxV-Ja8caGRJs5CB_AxMHOMpQdapggDAnYvl8wOjBnurbihgNirtLXY-aUSpNNsYBK0qKqfBmBhe-obHJOIpfL-DCPL28uD5wi7bw_79X08S0Hyr5gbE3SfXVGn8cc97xe_ZqH7SDmwECFAdrRx-DrDEbhPnCIW45tNfau-n49JoA6hdkI889y35UXdKaBqd-xDf0_qhzLosjI7ldwh3OgwyLSZbiVhTxPOT-4w_s8C-0tQHvHbFXIgvumJTDv3AH28Unuta1qulKMNfxI20e4GQAP1VYliILuHH3vOg-5aDhWLuQ5rfFKoVrTCl8YykgEDidU4_O7hsxv5QCbZmXguiUOh52KZDA4fMKQNYDmqy0]--></g></svg>