<?xml version="1.0" encoding="us-ascii" standalone="no"?><svg xmlns="http://www.w3.org/2000/svg" xmlns:xlink="http://www.w3.org/1999/xlink" contentStyleType="text/css" height="1082px" preserveAspectRatio="none" style="width:630px;height:1082px;background:#FFFFFF;" version="1.1" viewBox="0 0 630 1082" width="630px" zoomAndPan="magnify"><defs/><g><text fill="#000000" font-family="sans-serif" font-size="14" font-weight="bold" lengthAdjust="spacing" textLength="288" x="172.75" y="27.6738">System Sequence Diagram (SSD) - US 004</text><rect fill="#FFFFFF" height="865.75" style="stroke:#181818;stroke-width:1.0;" width="10" x="48.5" y="127.2813"/><rect fill="#FFFFFF" height="28.5234" style="stroke:#181818;stroke-width:1.0;" width="10" x="567.5" y="147.8047"/><rect fill="#FFFFFF" height="43.0469" style="stroke:#181818;stroke-width:1.0;" width="10" x="567.5" y="204.8516"/><rect fill="#FFFFFF" height="28.5234" style="stroke:#181818;stroke-width:1.0;" width="10" x="567.5" y="276.4219"/><rect fill="#FFFFFF" height="43.0469" style="stroke:#181818;stroke-width:1.0;" width="10" x="567.5" y="333.4688"/><rect fill="#FFFFFF" height="52.0469" style="stroke:#181818;stroke-width:1.0;" width="10" x="567.5" y="405.0391"/><rect fill="#FFFFFF" height="59.0469" style="stroke:#181818;stroke-width:1.0;" width="10" x="567.5" y="485.6094"/><rect fill="#FFFFFF" height="73.5703" style="stroke:#181818;stroke-width:1.0;" width="10" x="567.5" y="573.1797"/><rect fill="#FFFFFF" height="52.0469" style="stroke:#181818;stroke-width:1.0;" width="10" x="567.5" y="675.2734"/><rect fill="#FFFFFF" height="42.5234" style="stroke:#181818;stroke-width:1.0;" width="10" x="567.5" y="755.8438"/><rect fill="#FFFFFF" height="28.5234" style="stroke:#181818;stroke-width:1.0;" width="10" x="567.5" y="826.8906"/><rect fill="#FFFFFF" height="43.0469" style="stroke:#181818;stroke-width:1.0;" width="10" x="567.5" y="883.9375"/><rect fill="#FFFFFF" height="28.5234" style="stroke:#181818;stroke-width:1.0;" width="10" x="567.5" y="955.5078"/><rect fill="none" height="73.5703" style="stroke:#000000;stroke-width:1.5;" width="594.5" x="20" y="420.0391"/><rect fill="none" height="73.5703" style="stroke:#000000;stroke-width:1.5;" width="594.5" x="20" y="507.6094"/><rect fill="none" height="175.6641" style="stroke:#000000;stroke-width:1.5;" width="614.5" x="10" y="595.1797"/><rect fill="none" height="73.5703" style="stroke:#000000;stroke-width:1.5;" width="594.5" x="20" y="690.2734"/><line style="stroke:#181818;stroke-width:0.5;stroke-dasharray:5.0,5.0;" x1="53" x2="53" y1="117.2813" y2="1002.0313"/><line style="stroke:#181818;stroke-width:0.5;stroke-dasharray:5.0,5.0;" x1="572.5" x2="572.5" y1="117.2813" y2="1002.0313"/><text fill="#000000" font-family="sans-serif" font-size="14" lengthAdjust="spacing" textLength="41" x="30" y="114.3145">Owner</text><ellipse cx="53.5" cy="50.1406" fill="#E3E3E3" rx="8" ry="8" style="stroke:#181818;stroke-width:0.5;"/><path d="M53.5,58.1406 L53.5,85.1406 M40.5,66.1406 L66.5,66.1406 M53.5,85.1406 L40.5,100.1406 M53.5,85.1406 L66.5,100.1406 " fill="none" style="stroke:#181818;stroke-width:0.5;"/><text fill="#000000" font-family="sans-serif" font-size="14" lengthAdjust="spacing" textLength="41" x="30" y="1013.7051">Owner</text><ellipse cx="53.5" cy="1025.1719" fill="#E3E3E3" rx="8" ry="8" style="stroke:#181818;stroke-width:0.5;"/><path d="M53.5,1033.1719 L53.5,1060.1719 M40.5,1041.1719 L66.5,1041.1719 M53.5,1060.1719 L40.5,1075.1719 M53.5,1060.1719 L66.5,1075.1719 " fill="none" style="stroke:#181818;stroke-width:0.5;"/><rect fill="#E3E3E3" height="29.6406" rx="2.5" ry="2.5" style="stroke:#181818;stroke-width:0.5;" width="64" x="540.5" y="86.6406"/><text fill="#000000" font-family="sans-serif" font-size="14" lengthAdjust="spacing" textLength="50" x="547.5" y="106.3145">:System</text><rect fill="#E3E3E3" height="29.6406" rx="2.5" ry="2.5" style="stroke:#181818;stroke-width:0.5;" width="64" x="540.5" y="1001.0313"/><text fill="#000000" font-family="sans-serif" font-size="14" lengthAdjust="spacing" textLength="50" x="547.5" y="1020.7051">:System</text><rect fill="#FFFFFF" height="865.75" style="stroke:#181818;stroke-width:1.0;" width="10" x="48.5" y="127.2813"/><rect fill="#FFFFFF" height="28.5234" style="stroke:#181818;stroke-width:1.0;" width="10" x="567.5" y="147.8047"/><rect fill="#FFFFFF" height="43.0469" style="stroke:#181818;stroke-width:1.0;" width="10" x="567.5" y="204.8516"/><rect fill="#FFFFFF" height="28.5234" style="stroke:#181818;stroke-width:1.0;" width="10" x="567.5" y="276.4219"/><rect fill="#FFFFFF" height="43.0469" style="stroke:#181818;stroke-width:1.0;" width="10" x="567.5" y="333.4688"/><rect fill="#FFFFFF" height="52.0469" style="stroke:#181818;stroke-width:1.0;" width="10" x="567.5" y="405.0391"/><rect fill="#FFFFFF" height="59.0469" style="stroke:#181818;stroke-width:1.0;" width="10" x="567.5" y="485.6094"/><rect fill="#FFFFFF" height="73.5703" style="stroke:#181818;stroke-width:1.0;" width="10" x="567.5" y="573.1797"/><rect fill="#FFFFFF" height="52.0469" style="stroke:#181818;stroke-width:1.0;" width="10" x="567.5" y="675.2734"/><rect fill="#FFFFFF" height="42.5234" style="stroke:#181818;stroke-width:1.0;" width="10" x="567.5" y="755.8438"/><rect fill="#FFFFFF" height="28.5234" style="stroke:#181818;stroke-width:1.0;" width="10" x="567.5" y="826.8906"/><rect fill="#FFFFFF" height="43.0469" style="stroke:#181818;stroke-width:1.0;" width="10" x="567.5" y="883.9375"/><rect fill="#FFFFFF" height="28.5234" style="stroke:#181818;stroke-width:1.0;" width="10" x="567.5" y="955.5078"/><polygon fill="#181818" points="555.5,143.8047,565.5,147.8047,555.5,151.8047,559.5,147.8047" style="stroke:#181818;stroke-width:1.0;"/><line style="stroke:#181818;stroke-width:1.0;" x1="58.5" x2="561.5" y1="147.8047" y2="147.8047"/><text fill="#000000" font-family="sans-serif" font-size="13" font-weight="bold" lengthAdjust="spacing" textLength="7" x="65.5" y="143.0498">1</text><text fill="#000000" font-family="sans-serif" font-size="13" lengthAdjust="spacing" textLength="168" x="76.5" y="143.0498">asks to create a new request</text><polygon fill="#181818" points="69.5,172.3281,59.5,176.3281,69.5,180.3281,65.5,176.3281" style="stroke:#181818;stroke-width:1.0;"/><line style="stroke:#181818;stroke-width:1.0;stroke-dasharray:2.0,2.0;" x1="63.5" x2="571.5" y1="176.3281" y2="176.3281"/><text fill="#000000" font-family="sans-serif" font-size="13" font-weight="bold" lengthAdjust="spacing" textLength="7" x="75.5" y="171.5732">2</text><text fill="#000000" font-family="sans-serif" font-size="13" lengthAdjust="spacing" textLength="284" x="86.5" y="171.5732">shows type of request list and asks to select one</text><polygon fill="#181818" points="555.5,200.8516,565.5,204.8516,555.5,208.8516,559.5,204.8516" style="stroke:#181818;stroke-width:1.0;"/><line style="stroke:#181818;stroke-width:1.0;" x1="58.5" x2="561.5" y1="204.8516" y2="204.8516"/><text fill="#000000" font-family="sans-serif" font-size="13" font-weight="bold" lengthAdjust="spacing" textLength="7" x="65.5" y="200.0967">3</text><text fill="#000000" font-family="sans-serif" font-size="13" lengthAdjust="spacing" textLength="143" x="76.5" y="200.0967">selects a type of request</text><polygon fill="#181818" points="69.5,243.8984,59.5,247.8984,69.5,251.8984,65.5,247.8984" style="stroke:#181818;stroke-width:1.0;"/><line style="stroke:#181818;stroke-width:1.0;stroke-dasharray:2.0,2.0;" x1="63.5" x2="571.5" y1="247.8984" y2="247.8984"/><text fill="#000000" font-family="sans-serif" font-size="13" font-weight="bold" lengthAdjust="spacing" textLength="7" x="75.5" y="235.8818">4</text><text fill="#000000" font-family="sans-serif" font-size="13" lengthAdjust="spacing" textLength="152" x="86.5" y="228.6201">shows list of property type</text><text fill="#000000" font-family="sans-serif" font-size="13" lengthAdjust="spacing" textLength="132" x="86.5" y="243.1436">and asks to select one</text><polygon fill="#181818" points="555.5,272.4219,565.5,276.4219,555.5,280.4219,559.5,276.4219" style="stroke:#181818;stroke-width:1.0;"/><line style="stroke:#181818;stroke-width:1.0;" x1="58.5" x2="561.5" y1="276.4219" y2="276.4219"/><text fill="#000000" font-family="sans-serif" font-size="13" font-weight="bold" lengthAdjust="spacing" textLength="7" x="65.5" y="271.667">5</text><text fill="#000000" font-family="sans-serif" font-size="13" lengthAdjust="spacing" textLength="136" x="76.5" y="271.667">selects type of property</text><polygon fill="#181818" points="69.5,300.9453,59.5,304.9453,69.5,308.9453,65.5,304.9453" style="stroke:#181818;stroke-width:1.0;"/><line style="stroke:#181818;stroke-width:1.0;stroke-dasharray:2.0,2.0;" x1="63.5" x2="571.5" y1="304.9453" y2="304.9453"/><text fill="#000000" font-family="sans-serif" font-size="13" font-weight="bold" lengthAdjust="spacing" textLength="7" x="75.5" y="300.1904">6</text><text fill="#000000" font-family="sans-serif" font-size="13" lengthAdjust="spacing" textLength="380" x="86.5" y="300.1904">requests data(area(m^2), location, price, distanceFromCityCentre)</text><polygon fill="#181818" points="555.5,329.4688,565.5,333.4688,555.5,337.4688,559.5,333.4688" style="stroke:#181818;stroke-width:1.0;"/><line style="stroke:#181818;stroke-width:1.0;" x1="58.5" x2="561.5" y1="333.4688" y2="333.4688"/><text fill="#000000" font-family="sans-serif" font-size="13" font-weight="bold" lengthAdjust="spacing" textLength="7" x="65.5" y="328.7139">7</text><text fill="#000000" font-family="sans-serif" font-size="13" lengthAdjust="spacing" textLength="68" x="76.5" y="328.7139">inserts data</text><polygon fill="#181818" points="69.5,372.5156,59.5,376.5156,69.5,380.5156,65.5,376.5156" style="stroke:#181818;stroke-width:1.0;"/><line style="stroke:#181818;stroke-width:1.0;stroke-dasharray:2.0,2.0;" x1="63.5" x2="571.5" y1="376.5156" y2="376.5156"/><text fill="#000000" font-family="sans-serif" font-size="13" font-weight="bold" lengthAdjust="spacing" textLength="7" x="75.5" y="364.499">8</text><text fill="#000000" font-family="sans-serif" font-size="13" lengthAdjust="spacing" textLength="176" x="86.5" y="357.2373">requests the number of photos</text><text fill="#000000" font-family="sans-serif" font-size="13" lengthAdjust="spacing" textLength="186" x="86.5" y="371.7607">that the owner intends to submit</text><polygon fill="#181818" points="555.5,401.0391,565.5,405.0391,555.5,409.0391,559.5,405.0391" style="stroke:#181818;stroke-width:1.0;"/><line style="stroke:#181818;stroke-width:1.0;" x1="58.5" x2="561.5" y1="405.0391" y2="405.0391"/><text fill="#000000" font-family="sans-serif" font-size="13" font-weight="bold" lengthAdjust="spacing" textLength="7" x="65.5" y="400.2842">9</text><text fill="#000000" font-family="sans-serif" font-size="13" lengthAdjust="spacing" textLength="165" x="76.5" y="400.2842">inserts the number of photos</text><path d="M20,420.0391 L93,420.0391 L93,426.5625 L83,436.5625 L20,436.5625 L20,420.0391 " fill="#EEEEEE" style="stroke:#000000;stroke-width:1.5;"/><rect fill="none" height="73.5703" style="stroke:#000000;stroke-width:1.5;" width="594.5" x="20" y="420.0391"/><text fill="#000000" font-family="sans-serif" font-size="13" font-weight="bold" lengthAdjust="spacing" textLength="28" x="35" y="432.8076">loop</text><text fill="#000000" font-family="sans-serif" font-size="11" font-weight="bold" lengthAdjust="spacing" textLength="227" x="108" y="431.9971">[from 1 to the number of photos defined]</text><polygon fill="#181818" points="69.5,453.0859,59.5,457.0859,69.5,461.0859,65.5,457.0859" style="stroke:#181818;stroke-width:1.0;"/><line style="stroke:#181818;stroke-width:1.0;stroke-dasharray:2.0,2.0;" x1="63.5" x2="571.5" y1="457.0859" y2="457.0859"/><text fill="#000000" font-family="sans-serif" font-size="13" font-weight="bold" lengthAdjust="spacing" textLength="14" x="75.5" y="452.3311">10</text><text fill="#000000" font-family="sans-serif" font-size="13" lengthAdjust="spacing" textLength="136" x="93.5" y="452.3311">asks for the photos URI</text><polygon fill="#181818" points="555.5,481.6094,565.5,485.6094,555.5,489.6094,559.5,485.6094" style="stroke:#181818;stroke-width:1.0;"/><line style="stroke:#181818;stroke-width:1.0;" x1="58.5" x2="561.5" y1="485.6094" y2="485.6094"/><text fill="#000000" font-family="sans-serif" font-size="13" font-weight="bold" lengthAdjust="spacing" textLength="14" x="65.5" y="480.8545">11</text><text fill="#000000" font-family="sans-serif" font-size="13" lengthAdjust="spacing" textLength="107" x="83.5" y="480.8545">inserts photos URI</text><path d="M20,507.6094 L85,507.6094 L85,514.1328 L75,524.1328 L20,524.1328 L20,507.6094 " fill="#EEEEEE" style="stroke:#000000;stroke-width:1.5;"/><rect fill="none" height="73.5703" style="stroke:#000000;stroke-width:1.5;" width="594.5" x="20" y="507.6094"/><text fill="#000000" font-family="sans-serif" font-size="13" font-weight="bold" lengthAdjust="spacing" textLength="20" x="35" y="520.3779">opt</text><text fill="#000000" font-family="sans-serif" font-size="11" font-weight="bold" lengthAdjust="spacing" textLength="93" x="100" y="519.5674">[Rent a Property]</text><polygon fill="#181818" points="69.5,540.6563,59.5,544.6563,69.5,548.6563,65.5,544.6563" style="stroke:#181818;stroke-width:1.0;"/><line style="stroke:#181818;stroke-width:1.0;stroke-dasharray:2.0,2.0;" x1="63.5" x2="571.5" y1="544.6563" y2="544.6563"/><text fill="#000000" font-family="sans-serif" font-size="13" font-weight="bold" lengthAdjust="spacing" textLength="14" x="75.5" y="539.9014">12</text><text fill="#000000" font-family="sans-serif" font-size="13" lengthAdjust="spacing" textLength="188" x="93.5" y="539.9014">requests data (contract duration)</text><polygon fill="#181818" points="555.5,569.1797,565.5,573.1797,555.5,577.1797,559.5,573.1797" style="stroke:#181818;stroke-width:1.0;"/><line style="stroke:#181818;stroke-width:1.0;" x1="58.5" x2="561.5" y1="573.1797" y2="573.1797"/><text fill="#000000" font-family="sans-serif" font-size="13" font-weight="bold" lengthAdjust="spacing" textLength="14" x="65.5" y="568.4248">13</text><text fill="#000000" font-family="sans-serif" font-size="13" lengthAdjust="spacing" textLength="68" x="83.5" y="568.4248">inserts data</text><path d="M10,595.1797 L75,595.1797 L75,601.7031 L65,611.7031 L10,611.7031 L10,595.1797 " fill="#EEEEEE" style="stroke:#000000;stroke-width:1.5;"/><rect fill="none" height="175.6641" style="stroke:#000000;stroke-width:1.5;" width="614.5" x="10" y="595.1797"/><text fill="#000000" font-family="sans-serif" font-size="13" font-weight="bold" lengthAdjust="spacing" textLength="20" x="25" y="607.9482">opt</text><text fill="#000000" font-family="sans-serif" font-size="11" font-weight="bold" lengthAdjust="spacing" textLength="184" x="90" y="607.1377">[Property is Apartment or House]</text><polygon fill="#181818" points="69.5,642.75,59.5,646.75,69.5,650.75,65.5,646.75" style="stroke:#181818;stroke-width:1.0;"/><line style="stroke:#181818;stroke-width:1.0;stroke-dasharray:2.0,2.0;" x1="63.5" x2="571.5" y1="646.75" y2="646.75"/><text fill="#000000" font-family="sans-serif" font-size="13" font-weight="bold" lengthAdjust="spacing" textLength="14" x="75.5" y="634.7334">14</text><text fill="#000000" font-family="sans-serif" font-size="13" lengthAdjust="spacing" textLength="339" x="93.5" y="627.4717">requests data (number of bedrooms, number of bathrooms,</text><text fill="#000000" font-family="sans-serif" font-size="13" lengthAdjust="spacing" textLength="295" x="93.5" y="641.9951">number of parking spaces and available equipment)</text><polygon fill="#181818" points="555.5,671.2734,565.5,675.2734,555.5,679.2734,559.5,675.2734" style="stroke:#181818;stroke-width:1.0;"/><line style="stroke:#181818;stroke-width:1.0;" x1="58.5" x2="561.5" y1="675.2734" y2="675.2734"/><text fill="#000000" font-family="sans-serif" font-size="13" font-weight="bold" lengthAdjust="spacing" textLength="14" x="65.5" y="670.5186">15</text><text fill="#000000" font-family="sans-serif" font-size="13" lengthAdjust="spacing" textLength="68" x="83.5" y="670.5186">inserts data</text><path d="M20,690.2734 L85,690.2734 L85,696.7969 L75,706.7969 L20,706.7969 L20,690.2734 " fill="#EEEEEE" style="stroke:#000000;stroke-width:1.5;"/><rect fill="none" height="73.5703" style="stroke:#000000;stroke-width:1.5;" width="594.5" x="20" y="690.2734"/><text fill="#000000" font-family="sans-serif" font-size="13" font-weight="bold" lengthAdjust="spacing" textLength="20" x="35" y="703.042">opt</text><text fill="#000000" font-family="sans-serif" font-size="11" font-weight="bold" lengthAdjust="spacing" textLength="116" x="100" y="702.2314">[Property is a House]</text><polygon fill="#181818" points="69.5,723.3203,59.5,727.3203,69.5,731.3203,65.5,727.3203" style="stroke:#181818;stroke-width:1.0;"/><line style="stroke:#181818;stroke-width:1.0;stroke-dasharray:2.0,2.0;" x1="63.5" x2="571.5" y1="727.3203" y2="727.3203"/><text fill="#000000" font-family="sans-serif" font-size="13" font-weight="bold" lengthAdjust="spacing" textLength="14" x="75.5" y="722.5654">16</text><text fill="#000000" font-family="sans-serif" font-size="13" lengthAdjust="spacing" textLength="467" x="93.5" y="722.5654">requests data (existence of a basement and/or inhabitable loft and sun exposure)</text><polygon fill="#181818" points="555.5,751.8438,565.5,755.8438,555.5,759.8438,559.5,755.8438" style="stroke:#181818;stroke-width:1.0;"/><line style="stroke:#181818;stroke-width:1.0;" x1="58.5" x2="561.5" y1="755.8438" y2="755.8438"/><text fill="#000000" font-family="sans-serif" font-size="13" font-weight="bold" lengthAdjust="spacing" textLength="14" x="65.5" y="751.0889">17</text><text fill="#000000" font-family="sans-serif" font-size="13" lengthAdjust="spacing" textLength="68" x="83.5" y="751.0889">inserts data</text><polygon fill="#181818" points="69.5,794.3672,59.5,798.3672,69.5,802.3672,65.5,798.3672" style="stroke:#181818;stroke-width:1.0;"/><line style="stroke:#181818;stroke-width:1.0;stroke-dasharray:2.0,2.0;" x1="63.5" x2="571.5" y1="798.3672" y2="798.3672"/><text fill="#000000" font-family="sans-serif" font-size="13" font-weight="bold" lengthAdjust="spacing" textLength="14" x="75.5" y="793.6123">18</text><text fill="#000000" font-family="sans-serif" font-size="13" lengthAdjust="spacing" textLength="240" x="93.5" y="793.6123">shows agency list and asks to select one</text><polygon fill="#181818" points="555.5,822.8906,565.5,826.8906,555.5,830.8906,559.5,826.8906" style="stroke:#181818;stroke-width:1.0;"/><line style="stroke:#181818;stroke-width:1.0;" x1="58.5" x2="561.5" y1="826.8906" y2="826.8906"/><text fill="#000000" font-family="sans-serif" font-size="13" font-weight="bold" lengthAdjust="spacing" textLength="14" x="65.5" y="822.1357">19</text><text fill="#000000" font-family="sans-serif" font-size="13" lengthAdjust="spacing" textLength="88" x="83.5" y="822.1357">selects agency</text><polygon fill="#181818" points="69.5,851.4141,59.5,855.4141,69.5,859.4141,65.5,855.4141" style="stroke:#181818;stroke-width:1.0;"/><line style="stroke:#181818;stroke-width:1.0;stroke-dasharray:2.0,2.0;" x1="63.5" x2="571.5" y1="855.4141" y2="855.4141"/><text fill="#000000" font-family="sans-serif" font-size="13" font-weight="bold" lengthAdjust="spacing" textLength="14" x="75.5" y="850.6592">20</text><text fill="#000000" font-family="sans-serif" font-size="13" lengthAdjust="spacing" textLength="230" x="93.5" y="850.6592">shows agent list and asks to select one</text><polygon fill="#181818" points="555.5,879.9375,565.5,883.9375,555.5,887.9375,559.5,883.9375" style="stroke:#181818;stroke-width:1.0;"/><line style="stroke:#181818;stroke-width:1.0;" x1="58.5" x2="561.5" y1="883.9375" y2="883.9375"/><text fill="#000000" font-family="sans-serif" font-size="13" font-weight="bold" lengthAdjust="spacing" textLength="14" x="65.5" y="879.1826">21</text><text fill="#000000" font-family="sans-serif" font-size="13" lengthAdjust="spacing" textLength="78" x="83.5" y="879.1826">selects agent</text><polygon fill="#181818" points="69.5,922.9844,59.5,926.9844,69.5,930.9844,65.5,926.9844" style="stroke:#181818;stroke-width:1.0;"/><line style="stroke:#181818;stroke-width:1.0;stroke-dasharray:2.0,2.0;" x1="63.5" x2="571.5" y1="926.9844" y2="926.9844"/><text fill="#000000" font-family="sans-serif" font-size="13" font-weight="bold" lengthAdjust="spacing" textLength="14" x="75.5" y="914.9678">22</text><text fill="#000000" font-family="sans-serif" font-size="13" lengthAdjust="spacing" textLength="232" x="93.5" y="907.7061">shows all the data related to the request</text><text fill="#000000" font-family="sans-serif" font-size="13" lengthAdjust="spacing" textLength="114" x="93.5" y="922.2295">and asks to confirm</text><polygon fill="#181818" points="555.5,951.5078,565.5,955.5078,555.5,959.5078,559.5,955.5078" style="stroke:#181818;stroke-width:1.0;"/><line style="stroke:#181818;stroke-width:1.0;" x1="58.5" x2="561.5" y1="955.5078" y2="955.5078"/><text fill="#000000" font-family="sans-serif" font-size="13" font-weight="bold" lengthAdjust="spacing" textLength="14" x="65.5" y="950.7529">23</text><text fill="#000000" font-family="sans-serif" font-size="13" lengthAdjust="spacing" textLength="78" x="83.5" y="950.7529">confirms data</text><polygon fill="#181818" points="69.5,980.0313,59.5,984.0313,69.5,988.0313,65.5,984.0313" style="stroke:#181818;stroke-width:1.0;"/><line style="stroke:#181818;stroke-width:1.0;stroke-dasharray:2.0,2.0;" x1="63.5" x2="571.5" y1="984.0313" y2="984.0313"/><text fill="#000000" font-family="sans-serif" font-size="13" font-weight="bold" lengthAdjust="spacing" textLength="14" x="75.5" y="979.2764">24</text><text fill="#000000" font-family="sans-serif" font-size="13" lengthAdjust="spacing" textLength="147" x="93.5" y="979.2764">shows operation success</text><!--SRC=[jPLBRzim3CVl_XH4JWcGODsmKmu3XXR3TjhGeBTY06tJiH1Rz2IwQRxzQFdHBCsxgm-148b__lWGvLV6LkYmX98j9xdZaa1SJP4VTYfCLhYaXMmA0aU9e5qMsmTyZYclZLr2XeMdA18ZUdInyK8bBEXFJJOXk3EuR8wF5ukx2SpWOG4tDv-Z26jXMvSnELqdmWv6FzUMt0ZGGrX5waTCOYgq0gDvAnosssMmCqyer9sFGB-mXDcN7cIk1YiFmf0uQiuYM5fhHChd9PWCChqkT5ydCLErLdQkKVDQrJOL0MUz2XH6Vz2cWozFXQOCs58GIsclZzUihPrNo1qNLu86C5Mf75VaPDFAFjh_oTgJzZxsenvZxMBqaABW6BLEu_BtfyaK2avG3DkfYfk4ff1gFAXjzKrRzjR8vfQiE9fS1cwiLyxMsmlN9SaTW2KdQBiuP21dOQ_fbHmbx74mC5R8fcsowxWq4bq7lCzRTBWp2kOACiqKV6nSxsLDAJEMqjPWJwIXIJAzdOrrP_Dm_-C0_t7y7VEzp9gdTi6LmBrMLw_2hxwnedFw1yO9QrEeEgIr2-qpYTxQ8ATPUqWm7husawjiu3LntxbkfkEvxG_Zbnh5b3hcqa-twXQZvDsVZtQhdEXMpIpsEhV9jxFe2Ks1iSvarJTLmpCPCAxBnS5Kx6O0TyC-8svwriiTtWoD1pLGJo676ii7RYvHZh6H4531MJjlVMs1dYlszTkcmEaQ3uk3irPVIvjitk4j2Bg74Oy2oVlmo3KuHH6cIAYseq8DqtukzG_flo-JNkJCkFB2szjPdQhioRUpwUOmFhJB4hrK_W36Nm00]--></g></svg>