<?xml version="1.0" encoding="us-ascii" standalone="no"?><svg xmlns="http://www.w3.org/2000/svg" xmlns:xlink="http://www.w3.org/1999/xlink" contentStyleType="text/css" height="1197px" preserveAspectRatio="none" style="width:614px;height:1197px;background:#FFFFFF;" version="1.1" viewBox="0 0 614 1197" width="614px" zoomAndPan="magnify"><defs/><g><text fill="#000000" font-family="sans-serif" font-size="14" font-weight="bold" lengthAdjust="spacing" textLength="228" x="194.75" y="27.6738">System Sequence Diagram (SSD)</text><rect fill="#FFFFFF" height="981.3203" style="stroke:#181818;stroke-width:1.0;" width="10" x="48.5" y="127.2813"/><rect fill="#FFFFFF" height="28.5234" style="stroke:#181818;stroke-width:1.0;" width="10" x="551.5" y="147.8047"/><rect fill="#FFFFFF" height="28.5234" style="stroke:#181818;stroke-width:1.0;" width="10" x="551.5" y="204.8516"/><rect fill="#FFFFFF" height="28.5234" style="stroke:#181818;stroke-width:1.0;" width="10" x="551.5" y="261.8984"/><rect fill="#FFFFFF" height="28.5234" style="stroke:#181818;stroke-width:1.0;" width="10" x="551.5" y="318.9453"/><rect fill="#FFFFFF" height="28.5234" style="stroke:#181818;stroke-width:1.0;" width="10" x="551.5" y="375.9922"/><rect fill="#FFFFFF" height="35.5234" style="stroke:#181818;stroke-width:1.0;" width="10" x="551.5" y="456.5625"/><rect fill="#FFFFFF" height="52.0469" style="stroke:#181818;stroke-width:1.0;" width="10" x="551.5" y="520.6094"/><rect fill="#FFFFFF" height="59.0469" style="stroke:#181818;stroke-width:1.0;" width="10" x="551.5" y="615.7031"/><rect fill="#FFFFFF" height="35.5234" style="stroke:#181818;stroke-width:1.0;" width="10" x="551.5" y="703.2734"/><rect fill="#FFFFFF" height="52.0469" style="stroke:#181818;stroke-width:1.0;" width="10" x="551.5" y="767.3203"/><rect fill="#FFFFFF" height="52.0469" style="stroke:#181818;stroke-width:1.0;" width="10" x="551.5" y="847.8906"/><rect fill="#FFFFFF" height="42.5234" style="stroke:#181818;stroke-width:1.0;" width="10" x="551.5" y="928.4609"/><rect fill="#FFFFFF" height="28.5234" style="stroke:#181818;stroke-width:1.0;" width="10" x="551.5" y="1014.0313"/><rect fill="#FFFFFF" height="28.5234" style="stroke:#181818;stroke-width:1.0;" width="10" x="551.5" y="1071.0781"/><rect fill="none" height="45.0469" style="stroke:#000000;stroke-width:1.5;" width="578.5" x="20" y="419.5156"/><rect fill="none" height="88.0938" style="stroke:#000000;stroke-width:1.5;" width="578.5" x="20" y="535.6094"/><rect fill="none" height="73.5703" style="stroke:#000000;stroke-width:1.5;" width="578.5" x="20" y="637.7031"/><rect fill="none" height="161.1406" style="stroke:#000000;stroke-width:1.5;" width="598.5" x="10" y="782.3203"/><rect fill="none" height="73.5703" style="stroke:#000000;stroke-width:1.5;" width="578.5" x="20" y="862.8906"/><line style="stroke:#181818;stroke-width:0.5;stroke-dasharray:5.0,5.0;" x1="53" x2="53" y1="117.2813" y2="1117.6016"/><line style="stroke:#181818;stroke-width:0.5;stroke-dasharray:5.0,5.0;" x1="556.5" x2="556.5" y1="117.2813" y2="1117.6016"/><text fill="#000000" font-family="sans-serif" font-size="14" lengthAdjust="spacing" textLength="41" x="30" y="114.3145">Owner</text><ellipse cx="53.5" cy="50.1406" fill="#E3E3E3" rx="8" ry="8" style="stroke:#181818;stroke-width:0.5;"/><path d="M53.5,58.1406 L53.5,85.1406 M40.5,66.1406 L66.5,66.1406 M53.5,85.1406 L40.5,100.1406 M53.5,85.1406 L66.5,100.1406 " fill="none" style="stroke:#181818;stroke-width:0.5;"/><text fill="#000000" font-family="sans-serif" font-size="14" lengthAdjust="spacing" textLength="41" x="30" y="1129.2754">Owner</text><ellipse cx="53.5" cy="1140.7422" fill="#E3E3E3" rx="8" ry="8" style="stroke:#181818;stroke-width:0.5;"/><path d="M53.5,1148.7422 L53.5,1175.7422 M40.5,1156.7422 L66.5,1156.7422 M53.5,1175.7422 L40.5,1190.7422 M53.5,1175.7422 L66.5,1190.7422 " fill="none" style="stroke:#181818;stroke-width:0.5;"/><rect fill="#E3E3E3" height="29.6406" rx="2.5" ry="2.5" style="stroke:#181818;stroke-width:0.5;" width="64" x="524.5" y="86.6406"/><text fill="#000000" font-family="sans-serif" font-size="14" lengthAdjust="spacing" textLength="50" x="531.5" y="106.3145">:System</text><rect fill="#E3E3E3" height="29.6406" rx="2.5" ry="2.5" style="stroke:#181818;stroke-width:0.5;" width="64" x="524.5" y="1116.6016"/><text fill="#000000" font-family="sans-serif" font-size="14" lengthAdjust="spacing" textLength="50" x="531.5" y="1136.2754">:System</text><rect fill="#FFFFFF" height="981.3203" style="stroke:#181818;stroke-width:1.0;" width="10" x="48.5" y="127.2813"/><rect fill="#FFFFFF" height="28.5234" style="stroke:#181818;stroke-width:1.0;" width="10" x="551.5" y="147.8047"/><rect fill="#FFFFFF" height="28.5234" style="stroke:#181818;stroke-width:1.0;" width="10" x="551.5" y="204.8516"/><rect fill="#FFFFFF" height="28.5234" style="stroke:#181818;stroke-width:1.0;" width="10" x="551.5" y="261.8984"/><rect fill="#FFFFFF" height="28.5234" style="stroke:#181818;stroke-width:1.0;" width="10" x="551.5" y="318.9453"/><rect fill="#FFFFFF" height="28.5234" style="stroke:#181818;stroke-width:1.0;" width="10" x="551.5" y="375.9922"/><rect fill="#FFFFFF" height="35.5234" style="stroke:#181818;stroke-width:1.0;" width="10" x="551.5" y="456.5625"/><rect fill="#FFFFFF" height="52.0469" style="stroke:#181818;stroke-width:1.0;" width="10" x="551.5" y="520.6094"/><rect fill="#FFFFFF" height="59.0469" style="stroke:#181818;stroke-width:1.0;" width="10" x="551.5" y="615.7031"/><rect fill="#FFFFFF" height="35.5234" style="stroke:#181818;stroke-width:1.0;" width="10" x="551.5" y="703.2734"/><rect fill="#FFFFFF" height="52.0469" style="stroke:#181818;stroke-width:1.0;" width="10" x="551.5" y="767.3203"/><rect fill="#FFFFFF" height="52.0469" style="stroke:#181818;stroke-width:1.0;" width="10" x="551.5" y="847.8906"/><rect fill="#FFFFFF" height="42.5234" style="stroke:#181818;stroke-width:1.0;" width="10" x="551.5" y="928.4609"/><rect fill="#FFFFFF" height="28.5234" style="stroke:#181818;stroke-width:1.0;" width="10" x="551.5" y="1014.0313"/><rect fill="#FFFFFF" height="28.5234" style="stroke:#181818;stroke-width:1.0;" width="10" x="551.5" y="1071.0781"/><polygon fill="#181818" points="539.5,143.8047,549.5,147.8047,539.5,151.8047,543.5,147.8047" style="stroke:#181818;stroke-width:1.0;"/><line style="stroke:#181818;stroke-width:1.0;" x1="58.5" x2="545.5" y1="147.8047" y2="147.8047"/><text fill="#000000" font-family="sans-serif" font-size="13" font-weight="bold" lengthAdjust="spacing" textLength="7" x="65.5" y="143.0498">1</text><text fill="#000000" font-family="sans-serif" font-size="13" lengthAdjust="spacing" textLength="168" x="76.5" y="143.0498">asks to create a new request</text><polygon fill="#181818" points="69.5,172.3281,59.5,176.3281,69.5,180.3281,65.5,176.3281" style="stroke:#181818;stroke-width:1.0;"/><line style="stroke:#181818;stroke-width:1.0;stroke-dasharray:2.0,2.0;" x1="63.5" x2="555.5" y1="176.3281" y2="176.3281"/><text fill="#000000" font-family="sans-serif" font-size="13" font-weight="bold" lengthAdjust="spacing" textLength="7" x="75.5" y="171.5732">2</text><text fill="#000000" font-family="sans-serif" font-size="13" lengthAdjust="spacing" textLength="240" x="86.5" y="171.5732">shows agency list and asks to select one</text><polygon fill="#181818" points="539.5,200.8516,549.5,204.8516,539.5,208.8516,543.5,204.8516" style="stroke:#181818;stroke-width:1.0;"/><line style="stroke:#181818;stroke-width:1.0;" x1="58.5" x2="545.5" y1="204.8516" y2="204.8516"/><text fill="#000000" font-family="sans-serif" font-size="13" font-weight="bold" lengthAdjust="spacing" textLength="7" x="65.5" y="200.0967">3</text><text fill="#000000" font-family="sans-serif" font-size="13" lengthAdjust="spacing" textLength="106" x="76.5" y="200.0967">selects an agency</text><polygon fill="#181818" points="69.5,229.375,59.5,233.375,69.5,237.375,65.5,233.375" style="stroke:#181818;stroke-width:1.0;"/><line style="stroke:#181818;stroke-width:1.0;stroke-dasharray:2.0,2.0;" x1="63.5" x2="555.5" y1="233.375" y2="233.375"/><text fill="#000000" font-family="sans-serif" font-size="13" font-weight="bold" lengthAdjust="spacing" textLength="7" x="75.5" y="228.6201">4</text><text fill="#000000" font-family="sans-serif" font-size="13" lengthAdjust="spacing" textLength="237" x="86.5" y="228.6201">shows agents list and asks to select one</text><polygon fill="#181818" points="539.5,257.8984,549.5,261.8984,539.5,265.8984,543.5,261.8984" style="stroke:#181818;stroke-width:1.0;"/><line style="stroke:#181818;stroke-width:1.0;" x1="58.5" x2="545.5" y1="261.8984" y2="261.8984"/><text fill="#000000" font-family="sans-serif" font-size="13" font-weight="bold" lengthAdjust="spacing" textLength="7" x="65.5" y="257.1436">5</text><text fill="#000000" font-family="sans-serif" font-size="13" lengthAdjust="spacing" textLength="96" x="76.5" y="257.1436">selects an agent</text><polygon fill="#181818" points="69.5,286.4219,59.5,290.4219,69.5,294.4219,65.5,290.4219" style="stroke:#181818;stroke-width:1.0;"/><line style="stroke:#181818;stroke-width:1.0;stroke-dasharray:2.0,2.0;" x1="63.5" x2="555.5" y1="290.4219" y2="290.4219"/><text fill="#000000" font-family="sans-serif" font-size="13" font-weight="bold" lengthAdjust="spacing" textLength="7" x="75.5" y="285.667">6</text><text fill="#000000" font-family="sans-serif" font-size="13" lengthAdjust="spacing" textLength="191" x="86.5" y="285.667">ask to select the type of property</text><polygon fill="#181818" points="539.5,314.9453,549.5,318.9453,539.5,322.9453,543.5,318.9453" style="stroke:#181818;stroke-width:1.0;"/><line style="stroke:#181818;stroke-width:1.0;" x1="58.5" x2="545.5" y1="318.9453" y2="318.9453"/><text fill="#000000" font-family="sans-serif" font-size="13" font-weight="bold" lengthAdjust="spacing" textLength="7" x="65.5" y="314.1904">7</text><text fill="#000000" font-family="sans-serif" font-size="13" lengthAdjust="spacing" textLength="158" x="76.5" y="314.1904">selects the type of property</text><polygon fill="#181818" points="69.5,343.4688,59.5,347.4688,69.5,351.4688,65.5,347.4688" style="stroke:#181818;stroke-width:1.0;"/><line style="stroke:#181818;stroke-width:1.0;stroke-dasharray:2.0,2.0;" x1="63.5" x2="555.5" y1="347.4688" y2="347.4688"/><text fill="#000000" font-family="sans-serif" font-size="13" font-weight="bold" lengthAdjust="spacing" textLength="7" x="75.5" y="342.7139">8</text><text fill="#000000" font-family="sans-serif" font-size="13" lengthAdjust="spacing" textLength="79" x="86.5" y="342.7139">requests data</text><polygon fill="#181818" points="539.5,371.9922,549.5,375.9922,539.5,379.9922,543.5,375.9922" style="stroke:#181818;stroke-width:1.0;"/><line style="stroke:#181818;stroke-width:1.0;" x1="58.5" x2="545.5" y1="375.9922" y2="375.9922"/><text fill="#000000" font-family="sans-serif" font-size="13" font-weight="bold" lengthAdjust="spacing" textLength="7" x="65.5" y="371.2373">9</text><text fill="#000000" font-family="sans-serif" font-size="13" lengthAdjust="spacing" textLength="361" x="76.5" y="371.2373">inserts data (area (m2), location, distance from the city centre)</text><polygon fill="#181818" points="69.5,400.5156,59.5,404.5156,69.5,408.5156,65.5,404.5156" style="stroke:#181818;stroke-width:1.0;"/><line style="stroke:#181818;stroke-width:1.0;stroke-dasharray:2.0,2.0;" x1="63.5" x2="555.5" y1="404.5156" y2="404.5156"/><text fill="#000000" font-family="sans-serif" font-size="13" font-weight="bold" lengthAdjust="spacing" textLength="14" x="75.5" y="399.7607">10</text><text fill="#000000" font-family="sans-serif" font-size="13" lengthAdjust="spacing" textLength="140" x="93.5" y="399.7607">asks for property photos</text><path d="M20,419.5156 L93,419.5156 L93,426.0391 L83,436.0391 L20,436.0391 L20,419.5156 " fill="#EEEEEE" style="stroke:#000000;stroke-width:1.5;"/><rect fill="none" height="45.0469" style="stroke:#000000;stroke-width:1.5;" width="578.5" x="20" y="419.5156"/><text fill="#000000" font-family="sans-serif" font-size="13" font-weight="bold" lengthAdjust="spacing" textLength="28" x="35" y="432.2842">loop</text><text fill="#000000" font-family="sans-serif" font-size="11" font-weight="bold" lengthAdjust="spacing" textLength="217" x="108" y="431.4736">[at least 1 photo and at most 30 photos]</text><polygon fill="#181818" points="539.5,452.5625,549.5,456.5625,539.5,460.5625,543.5,456.5625" style="stroke:#181818;stroke-width:1.0;"/><line style="stroke:#181818;stroke-width:1.0;" x1="58.5" x2="545.5" y1="456.5625" y2="456.5625"/><text fill="#000000" font-family="sans-serif" font-size="13" font-weight="bold" lengthAdjust="spacing" textLength="14" x="65.5" y="451.8076">11</text><text fill="#000000" font-family="sans-serif" font-size="13" lengthAdjust="spacing" textLength="166" x="83.5" y="451.8076">inserts property photos (URI)</text><polygon fill="#181818" points="69.5,488.0859,59.5,492.0859,69.5,496.0859,65.5,492.0859" style="stroke:#181818;stroke-width:1.0;"/><line style="stroke:#181818;stroke-width:1.0;stroke-dasharray:2.0,2.0;" x1="63.5" x2="555.5" y1="492.0859" y2="492.0859"/><text fill="#000000" font-family="sans-serif" font-size="13" font-weight="bold" lengthAdjust="spacing" textLength="14" x="75.5" y="487.3311">12</text><text fill="#000000" font-family="sans-serif" font-size="13" lengthAdjust="spacing" textLength="233" x="93.5" y="487.3311">ask for the type of business (rent or sell)</text><polygon fill="#181818" points="539.5,516.6094,549.5,520.6094,539.5,524.6094,543.5,520.6094" style="stroke:#181818;stroke-width:1.0;"/><line style="stroke:#181818;stroke-width:1.0;" x1="58.5" x2="545.5" y1="520.6094" y2="520.6094"/><text fill="#000000" font-family="sans-serif" font-size="13" font-weight="bold" lengthAdjust="spacing" textLength="14" x="65.5" y="515.8545">13</text><text fill="#000000" font-family="sans-serif" font-size="13" lengthAdjust="spacing" textLength="138" x="83.5" y="515.8545">inserts type of business</text><path d="M20,535.6094 L85,535.6094 L85,542.1328 L75,552.1328 L20,552.1328 L20,535.6094 " fill="#EEEEEE" style="stroke:#000000;stroke-width:1.5;"/><rect fill="none" height="88.0938" style="stroke:#000000;stroke-width:1.5;" width="578.5" x="20" y="535.6094"/><text fill="#000000" font-family="sans-serif" font-size="13" font-weight="bold" lengthAdjust="spacing" textLength="20" x="35" y="548.3779">opt</text><text fill="#000000" font-family="sans-serif" font-size="11" font-weight="bold" lengthAdjust="spacing" textLength="184" x="100" y="547.5674">[Property is Apartment or House]</text><polygon fill="#181818" points="69.5,568.6563,59.5,572.6563,69.5,576.6563,65.5,572.6563" style="stroke:#181818;stroke-width:1.0;"/><line style="stroke:#181818;stroke-width:1.0;stroke-dasharray:2.0,2.0;" x1="63.5" x2="555.5" y1="572.6563" y2="572.6563"/><text fill="#000000" font-family="sans-serif" font-size="13" font-weight="bold" lengthAdjust="spacing" textLength="14" x="75.5" y="567.9014">14</text><text fill="#000000" font-family="sans-serif" font-size="13" lengthAdjust="spacing" textLength="79" x="93.5" y="567.9014">requests data</text><polygon fill="#181818" points="539.5,611.7031,549.5,615.7031,539.5,619.7031,543.5,615.7031" style="stroke:#181818;stroke-width:1.0;"/><line style="stroke:#181818;stroke-width:1.0;" x1="58.5" x2="545.5" y1="615.7031" y2="615.7031"/><text fill="#000000" font-family="sans-serif" font-size="13" font-weight="bold" lengthAdjust="spacing" textLength="14" x="65.5" y="603.6865">15</text><text fill="#000000" font-family="sans-serif" font-size="13" lengthAdjust="spacing" textLength="389" x="83.5" y="596.4248">inserts data (number of number of bedrooms, number of bathrooms,</text><text fill="#000000" font-family="sans-serif" font-size="13" lengthAdjust="spacing" textLength="302" x="83.5" y="610.9482">number of parking spaces and available equipement)</text><path d="M20,637.7031 L85,637.7031 L85,644.2266 L75,654.2266 L20,654.2266 L20,637.7031 " fill="#EEEEEE" style="stroke:#000000;stroke-width:1.5;"/><rect fill="none" height="73.5703" style="stroke:#000000;stroke-width:1.5;" width="578.5" x="20" y="637.7031"/><text fill="#000000" font-family="sans-serif" font-size="13" font-weight="bold" lengthAdjust="spacing" textLength="20" x="35" y="650.4717">opt</text><text fill="#000000" font-family="sans-serif" font-size="11" font-weight="bold" lengthAdjust="spacing" textLength="116" x="100" y="649.6611">[Property is a House]</text><polygon fill="#181818" points="69.5,670.75,59.5,674.75,69.5,678.75,65.5,674.75" style="stroke:#181818;stroke-width:1.0;"/><line style="stroke:#181818;stroke-width:1.0;stroke-dasharray:2.0,2.0;" x1="63.5" x2="555.5" y1="674.75" y2="674.75"/><text fill="#000000" font-family="sans-serif" font-size="13" font-weight="bold" lengthAdjust="spacing" textLength="14" x="75.5" y="669.9951">16</text><text fill="#000000" font-family="sans-serif" font-size="13" lengthAdjust="spacing" textLength="79" x="93.5" y="669.9951">requests data</text><polygon fill="#181818" points="539.5,699.2734,549.5,703.2734,539.5,707.2734,543.5,703.2734" style="stroke:#181818;stroke-width:1.0;"/><line style="stroke:#181818;stroke-width:1.0;" x1="58.5" x2="545.5" y1="703.2734" y2="703.2734"/><text fill="#000000" font-family="sans-serif" font-size="13" font-weight="bold" lengthAdjust="spacing" textLength="14" x="65.5" y="698.5186">17</text><text fill="#000000" font-family="sans-serif" font-size="13" lengthAdjust="spacing" textLength="456" x="83.5" y="698.5186">inserts data (existence of a basement and/or inhabitable loft and sun exposure)</text><polygon fill="#181818" points="69.5,734.7969,59.5,738.7969,69.5,742.7969,65.5,738.7969" style="stroke:#181818;stroke-width:1.0;"/><line style="stroke:#181818;stroke-width:1.0;stroke-dasharray:2.0,2.0;" x1="63.5" x2="555.5" y1="738.7969" y2="738.7969"/><text fill="#000000" font-family="sans-serif" font-size="13" font-weight="bold" lengthAdjust="spacing" textLength="14" x="75.5" y="734.042">18</text><text fill="#000000" font-family="sans-serif" font-size="13" lengthAdjust="spacing" textLength="238" x="93.5" y="734.042">request the type of operation (sell or rent)</text><polygon fill="#181818" points="539.5,763.3203,549.5,767.3203,539.5,771.3203,543.5,767.3203" style="stroke:#181818;stroke-width:1.0;"/><line style="stroke:#181818;stroke-width:1.0;" x1="58.5" x2="545.5" y1="767.3203" y2="767.3203"/><text fill="#000000" font-family="sans-serif" font-size="13" font-weight="bold" lengthAdjust="spacing" textLength="14" x="65.5" y="762.5654">19</text><text fill="#000000" font-family="sans-serif" font-size="13" lengthAdjust="spacing" textLength="139" x="83.5" y="762.5654">inserts type of operation</text><path d="M10,782.3203 L71,782.3203 L71,788.8438 L61,798.8438 L10,798.8438 L10,782.3203 " fill="#EEEEEE" style="stroke:#000000;stroke-width:1.5;"/><rect fill="none" height="161.1406" style="stroke:#000000;stroke-width:1.5;" width="598.5" x="10" y="782.3203"/><text fill="#000000" font-family="sans-serif" font-size="13" font-weight="bold" lengthAdjust="spacing" textLength="16" x="25" y="795.0889">alt</text><text fill="#000000" font-family="sans-serif" font-size="11" font-weight="bold" lengthAdjust="spacing" textLength="210" x="86" y="794.2783">[the owner intends to rent a property]</text><polygon fill="#181818" points="69.5,815.3672,59.5,819.3672,69.5,823.3672,65.5,819.3672" style="stroke:#181818;stroke-width:1.0;"/><line style="stroke:#181818;stroke-width:1.0;stroke-dasharray:2.0,2.0;" x1="63.5" x2="555.5" y1="819.3672" y2="819.3672"/><text fill="#000000" font-family="sans-serif" font-size="13" font-weight="bold" lengthAdjust="spacing" textLength="14" x="75.5" y="814.6123">20</text><text fill="#000000" font-family="sans-serif" font-size="13" lengthAdjust="spacing" textLength="318" x="93.5" y="814.6123">asks for the contract duration and the price (per month)</text><polygon fill="#181818" points="539.5,843.8906,549.5,847.8906,539.5,851.8906,543.5,847.8906" style="stroke:#181818;stroke-width:1.0;"/><line style="stroke:#181818;stroke-width:1.0;" x1="58.5" x2="545.5" y1="847.8906" y2="847.8906"/><text fill="#000000" font-family="sans-serif" font-size="13" font-weight="bold" lengthAdjust="spacing" textLength="14" x="65.5" y="843.1357">21</text><text fill="#000000" font-family="sans-serif" font-size="13" lengthAdjust="spacing" textLength="75" x="83.5" y="843.1357">submits data</text><path d="M20,862.8906 L81,862.8906 L81,869.4141 L71,879.4141 L20,879.4141 L20,862.8906 " fill="#EEEEEE" style="stroke:#000000;stroke-width:1.5;"/><rect fill="none" height="73.5703" style="stroke:#000000;stroke-width:1.5;" width="578.5" x="20" y="862.8906"/><text fill="#000000" font-family="sans-serif" font-size="13" font-weight="bold" lengthAdjust="spacing" textLength="16" x="35" y="875.6592">alt</text><text fill="#000000" font-family="sans-serif" font-size="11" font-weight="bold" lengthAdjust="spacing" textLength="207" x="96" y="874.8486">[the owner intends to sell a property]</text><polygon fill="#181818" points="69.5,895.9375,59.5,899.9375,69.5,903.9375,65.5,899.9375" style="stroke:#181818;stroke-width:1.0;"/><line style="stroke:#181818;stroke-width:1.0;stroke-dasharray:2.0,2.0;" x1="63.5" x2="555.5" y1="899.9375" y2="899.9375"/><text fill="#000000" font-family="sans-serif" font-size="13" font-weight="bold" lengthAdjust="spacing" textLength="14" x="75.5" y="895.1826">22</text><text fill="#000000" font-family="sans-serif" font-size="13" lengthAdjust="spacing" textLength="151" x="93.5" y="895.1826">asks for the property price</text><polygon fill="#181818" points="539.5,924.4609,549.5,928.4609,539.5,932.4609,543.5,928.4609" style="stroke:#181818;stroke-width:1.0;"/><line style="stroke:#181818;stroke-width:1.0;" x1="58.5" x2="545.5" y1="928.4609" y2="928.4609"/><text fill="#000000" font-family="sans-serif" font-size="13" font-weight="bold" lengthAdjust="spacing" textLength="14" x="65.5" y="923.7061">23</text><text fill="#000000" font-family="sans-serif" font-size="13" lengthAdjust="spacing" textLength="75" x="83.5" y="923.7061">submits data</text><polygon fill="#181818" points="69.5,966.9844,59.5,970.9844,69.5,974.9844,65.5,970.9844" style="stroke:#181818;stroke-width:1.0;"/><line style="stroke:#181818;stroke-width:1.0;stroke-dasharray:2.0,2.0;" x1="63.5" x2="555.5" y1="970.9844" y2="970.9844"/><text fill="#000000" font-family="sans-serif" font-size="13" font-weight="bold" lengthAdjust="spacing" textLength="14" x="75.5" y="966.2295">24</text><text fill="#000000" font-family="sans-serif" font-size="13" lengthAdjust="spacing" textLength="79" x="93.5" y="966.2295">requests data</text><polygon fill="#181818" points="539.5,1010.0313,549.5,1014.0313,539.5,1018.0313,543.5,1014.0313" style="stroke:#181818;stroke-width:1.0;"/><line style="stroke:#181818;stroke-width:1.0;" x1="58.5" x2="545.5" y1="1014.0313" y2="1014.0313"/><text fill="#000000" font-family="sans-serif" font-size="13" font-weight="bold" lengthAdjust="spacing" textLength="14" x="65.5" y="1002.0146">25</text><text fill="#000000" font-family="sans-serif" font-size="13" lengthAdjust="spacing" textLength="366" x="83.5" y="994.7529">Inserts their name, citizen's card number, tax number, address,</text><text fill="#000000" font-family="sans-serif" font-size="13" lengthAdjust="spacing" textLength="192" x="83.5" y="1009.2764">email address, telephone number</text><polygon fill="#181818" points="69.5,1038.5547,59.5,1042.5547,69.5,1046.5547,65.5,1042.5547" style="stroke:#181818;stroke-width:1.0;"/><line style="stroke:#181818;stroke-width:1.0;stroke-dasharray:2.0,2.0;" x1="63.5" x2="555.5" y1="1042.5547" y2="1042.5547"/><text fill="#000000" font-family="sans-serif" font-size="13" font-weight="bold" lengthAdjust="spacing" textLength="14" x="75.5" y="1037.7998">26</text><text fill="#000000" font-family="sans-serif" font-size="13" lengthAdjust="spacing" textLength="319" x="93.5" y="1037.7998">shows requested data and selected property movement</text><polygon fill="#181818" points="539.5,1067.0781,549.5,1071.0781,539.5,1075.0781,543.5,1071.0781" style="stroke:#181818;stroke-width:1.0;"/><line style="stroke:#181818;stroke-width:1.0;" x1="58.5" x2="545.5" y1="1071.0781" y2="1071.0781"/><text fill="#000000" font-family="sans-serif" font-size="13" font-weight="bold" lengthAdjust="spacing" textLength="14" x="65.5" y="1066.3232">27</text><text fill="#000000" font-family="sans-serif" font-size="13" lengthAdjust="spacing" textLength="75" x="83.5" y="1066.3232">submits data</text><polygon fill="#181818" points="69.5,1095.6016,59.5,1099.6016,69.5,1103.6016,65.5,1099.6016" style="stroke:#181818;stroke-width:1.0;"/><line style="stroke:#181818;stroke-width:1.0;stroke-dasharray:2.0,2.0;" x1="63.5" x2="555.5" y1="1099.6016" y2="1099.6016"/><text fill="#000000" font-family="sans-serif" font-size="13" font-weight="bold" lengthAdjust="spacing" textLength="14" x="75.5" y="1094.8467">28</text><text fill="#000000" font-family="sans-serif" font-size="13" lengthAdjust="spacing" textLength="147" x="93.5" y="1094.8467">shows operation success</text><!--SRC=[lLRBRjim4BphAnQvr0OSz7NBeK2179fJYngzzRAcrXPXYLIvgpZkrtT9qRBZ-W4xJNKYAEvmPXyZyTAw5WCsq7ZdJHLyGo2XeuA7DosQ9IveAkkQ890HT8jwzm1NMFgLTGkOOyrK5695ZqxNBDJ0b7vrv0p1lSL5F3wQJk_7HO6TUDSrCmgwDk83t7nTEGetW0nfLIYyM6DRT08tTprUUjqlKvnzHA5ylW1zqX9kFstklzE09ODuC87YMGH7AnMYj5XIo02pmONyP8XRHUjXxrIiNp5eFfnPGsrP05qvNC5KQuB0EqeO9Hs4_fjY7wUuBaE_W9V2l1Ql8-awnKiPx12GIjjhtHBuERJ1jnHaVHsZWqW3aKiobpk1eKJ1uZ8srh5Ut8V22BN1ODHy64-WzWR5UZU1Kck1iV_dEbo9jh6o1gFP33GkZXVwS38PvZeg6yNGLbuydo9TUzy22jI4sXJl-uY-EKIdNlS-ljl0d56vTokCVdn_61yNGAuyfIG9sItZh6FhY1KtQ790tsgnw_4nSMV8xgCMnsZwLk3RHfbb-1njfyaCllWkEjf_QP_U3IFdxMf6PV2-uSdk7agLDt-wxRRINaOJPZLiuhx2ZsXhdAaPAqdRKbHrfc27CeBxQJYVXnUaWPvqOj8NGqMXgkN4EmfwgnMnhiAPbQIgzlFUvxXpG4-jvoxEr5KTcVa_wyYOWZJ6C8gj61iY32cylYK7s3pzTN-hJu7MgVWokNOQ0tnkb1TRHN8ShsQZaL1sMKzCMdpJ1gk97Yb-_0EGQdoX6tUpnkxM_63SKO4fgNi2psdPcb2aNlnZlhjZyBnbNgFn7pQDKP4DuB2XIVmwsD_atZ0O36KU-ma8FWrhBCkWZXR7dngTyEs6wDTHpTbHFdlwD-BKdqHMHMK_bMd8qgTNTuOIDFunpMRn6brpbk9sEhap9bly0HP_0000]--></g></svg>