<?xml version="1.0" encoding="us-ascii" standalone="no"?><svg xmlns="http://www.w3.org/2000/svg" xmlns:xlink="http://www.w3.org/1999/xlink" contentStyleType="text/css" height="820px" preserveAspectRatio="none" style="width:614px;height:820px;background:#FFFFFF;" version="1.1" viewBox="0 0 614 820" width="614px" zoomAndPan="magnify"><defs/><g><text fill="#000000" font-family="sans-serif" font-size="14" font-weight="bold" lengthAdjust="spacing" textLength="331" x="143.25" y="27.6738">System Sequence Diagram (SSD) - Sell Property</text><rect fill="#FFFFFF" height="604.5156" style="stroke:#181818;stroke-width:1.0;" width="10" x="48.5" y="127.2813"/><rect fill="#FFFFFF" height="28.5234" style="stroke:#181818;stroke-width:1.0;" width="10" x="551.5" y="147.8047"/><rect fill="#FFFFFF" height="28.5234" style="stroke:#181818;stroke-width:1.0;" width="10" x="551.5" y="204.8516"/><rect fill="#FFFFFF" height="28.5234" style="stroke:#181818;stroke-width:1.0;" width="10" x="551.5" y="261.8984"/><rect fill="#FFFFFF" height="28.5234" style="stroke:#181818;stroke-width:1.0;" width="10" x="551.5" y="318.9453"/><rect fill="#FFFFFF" height="28.5234" style="stroke:#181818;stroke-width:1.0;" width="10" x="551.5" y="375.9922"/><rect fill="#FFFFFF" height="52.0469" style="stroke:#181818;stroke-width:1.0;" width="10" x="551.5" y="542.6563"/><rect fill="#FFFFFF" height="42.5234" style="stroke:#181818;stroke-width:1.0;" width="10" x="551.5" y="623.2266"/><rect fill="#FFFFFF" height="28.5234" style="stroke:#181818;stroke-width:1.0;" width="10" x="551.5" y="694.2734"/><rect fill="none" height="175.6641" style="stroke:#000000;stroke-width:1.5;" width="598.5" x="10" y="462.5625"/><rect fill="none" height="73.5703" style="stroke:#000000;stroke-width:1.5;" width="578.5" x="20" y="557.6563"/><line style="stroke:#181818;stroke-width:0.5;stroke-dasharray:5.0,5.0;" x1="53" x2="53" y1="117.2813" y2="740.7969"/><line style="stroke:#181818;stroke-width:0.5;stroke-dasharray:5.0,5.0;" x1="556.5" x2="556.5" y1="117.2813" y2="740.7969"/><text fill="#000000" font-family="sans-serif" font-size="14" lengthAdjust="spacing" textLength="41" x="30" y="114.3145">Owner</text><ellipse cx="53.5" cy="50.1406" fill="#E3E3E3" rx="8" ry="8" style="stroke:#181818;stroke-width:0.5;"/><path d="M53.5,58.1406 L53.5,85.1406 M40.5,66.1406 L66.5,66.1406 M53.5,85.1406 L40.5,100.1406 M53.5,85.1406 L66.5,100.1406 " fill="none" style="stroke:#181818;stroke-width:0.5;"/><text fill="#000000" font-family="sans-serif" font-size="14" lengthAdjust="spacing" textLength="41" x="30" y="752.4707">Owner</text><ellipse cx="53.5" cy="763.9375" fill="#E3E3E3" rx="8" ry="8" style="stroke:#181818;stroke-width:0.5;"/><path d="M53.5,771.9375 L53.5,798.9375 M40.5,779.9375 L66.5,779.9375 M53.5,798.9375 L40.5,813.9375 M53.5,798.9375 L66.5,813.9375 " fill="none" style="stroke:#181818;stroke-width:0.5;"/><rect fill="#E3E3E3" height="29.6406" rx="2.5" ry="2.5" style="stroke:#181818;stroke-width:0.5;" width="64" x="524.5" y="86.6406"/><text fill="#000000" font-family="sans-serif" font-size="14" lengthAdjust="spacing" textLength="50" x="531.5" y="106.3145">:System</text><rect fill="#E3E3E3" height="29.6406" rx="2.5" ry="2.5" style="stroke:#181818;stroke-width:0.5;" width="64" x="524.5" y="739.7969"/><text fill="#000000" font-family="sans-serif" font-size="14" lengthAdjust="spacing" textLength="50" x="531.5" y="759.4707">:System</text><rect fill="#FFFFFF" height="604.5156" style="stroke:#181818;stroke-width:1.0;" width="10" x="48.5" y="127.2813"/><rect fill="#FFFFFF" height="28.5234" style="stroke:#181818;stroke-width:1.0;" width="10" x="551.5" y="147.8047"/><rect fill="#FFFFFF" height="28.5234" style="stroke:#181818;stroke-width:1.0;" width="10" x="551.5" y="204.8516"/><rect fill="#FFFFFF" height="28.5234" style="stroke:#181818;stroke-width:1.0;" width="10" x="551.5" y="261.8984"/><rect fill="#FFFFFF" height="28.5234" style="stroke:#181818;stroke-width:1.0;" width="10" x="551.5" y="318.9453"/><rect fill="#FFFFFF" height="28.5234" style="stroke:#181818;stroke-width:1.0;" width="10" x="551.5" y="375.9922"/><rect fill="#FFFFFF" height="52.0469" style="stroke:#181818;stroke-width:1.0;" width="10" x="551.5" y="542.6563"/><rect fill="#FFFFFF" height="42.5234" style="stroke:#181818;stroke-width:1.0;" width="10" x="551.5" y="623.2266"/><rect fill="#FFFFFF" height="28.5234" style="stroke:#181818;stroke-width:1.0;" width="10" x="551.5" y="694.2734"/><polygon fill="#181818" points="539.5,143.8047,549.5,147.8047,539.5,151.8047,543.5,147.8047" style="stroke:#181818;stroke-width:1.0;"/><line style="stroke:#181818;stroke-width:1.0;" x1="58.5" x2="545.5" y1="147.8047" y2="147.8047"/><text fill="#000000" font-family="sans-serif" font-size="13" font-weight="bold" lengthAdjust="spacing" textLength="7" x="65.5" y="143.0498">1</text><text fill="#000000" font-family="sans-serif" font-size="13" lengthAdjust="spacing" textLength="180" x="76.5" y="143.0498">asks to sell or rent his property</text><polygon fill="#181818" points="69.5,172.3281,59.5,176.3281,69.5,180.3281,65.5,176.3281" style="stroke:#181818;stroke-width:1.0;"/><line style="stroke:#181818;stroke-width:1.0;stroke-dasharray:2.0,2.0;" x1="63.5" x2="555.5" y1="176.3281" y2="176.3281"/><text fill="#000000" font-family="sans-serif" font-size="13" font-weight="bold" lengthAdjust="spacing" textLength="7" x="75.5" y="171.5732">2</text><text fill="#000000" font-family="sans-serif" font-size="13" lengthAdjust="spacing" textLength="411" x="86.5" y="171.5732">shows a list of options (sell or rent the property) and asks to select one</text><polygon fill="#181818" points="539.5,200.8516,549.5,204.8516,539.5,208.8516,543.5,204.8516" style="stroke:#181818;stroke-width:1.0;"/><line style="stroke:#181818;stroke-width:1.0;" x1="58.5" x2="545.5" y1="204.8516" y2="204.8516"/><text fill="#000000" font-family="sans-serif" font-size="13" font-weight="bold" lengthAdjust="spacing" textLength="7" x="65.5" y="200.0967">3</text><text fill="#000000" font-family="sans-serif" font-size="13" lengthAdjust="spacing" textLength="127" x="76.5" y="200.0967">selects the sell option</text><polygon fill="#181818" points="69.5,229.375,59.5,233.375,69.5,237.375,65.5,233.375" style="stroke:#181818;stroke-width:1.0;"/><line style="stroke:#181818;stroke-width:1.0;stroke-dasharray:2.0,2.0;" x1="63.5" x2="555.5" y1="233.375" y2="233.375"/><text fill="#000000" font-family="sans-serif" font-size="13" font-weight="bold" lengthAdjust="spacing" textLength="7" x="75.5" y="228.6201">4</text><text fill="#000000" font-family="sans-serif" font-size="13" lengthAdjust="spacing" textLength="240" x="86.5" y="228.6201">shows agency list and asks to select one</text><polygon fill="#181818" points="539.5,257.8984,549.5,261.8984,539.5,265.8984,543.5,261.8984" style="stroke:#181818;stroke-width:1.0;"/><line style="stroke:#181818;stroke-width:1.0;" x1="58.5" x2="545.5" y1="261.8984" y2="261.8984"/><text fill="#000000" font-family="sans-serif" font-size="13" font-weight="bold" lengthAdjust="spacing" textLength="7" x="65.5" y="257.1436">5</text><text fill="#000000" font-family="sans-serif" font-size="13" lengthAdjust="spacing" textLength="106" x="76.5" y="257.1436">selects an agency</text><polygon fill="#181818" points="69.5,286.4219,59.5,290.4219,69.5,294.4219,65.5,290.4219" style="stroke:#181818;stroke-width:1.0;"/><line style="stroke:#181818;stroke-width:1.0;stroke-dasharray:2.0,2.0;" x1="63.5" x2="555.5" y1="290.4219" y2="290.4219"/><text fill="#000000" font-family="sans-serif" font-size="13" font-weight="bold" lengthAdjust="spacing" textLength="7" x="75.5" y="285.667">6</text><text fill="#000000" font-family="sans-serif" font-size="13" lengthAdjust="spacing" textLength="237" x="86.5" y="285.667">shows agents list and asks to select one</text><polygon fill="#181818" points="539.5,314.9453,549.5,318.9453,539.5,322.9453,543.5,318.9453" style="stroke:#181818;stroke-width:1.0;"/><line style="stroke:#181818;stroke-width:1.0;" x1="58.5" x2="545.5" y1="318.9453" y2="318.9453"/><text fill="#000000" font-family="sans-serif" font-size="13" font-weight="bold" lengthAdjust="spacing" textLength="7" x="65.5" y="314.1904">7</text><text fill="#000000" font-family="sans-serif" font-size="13" lengthAdjust="spacing" textLength="96" x="76.5" y="314.1904">selects an agent</text><polygon fill="#181818" points="69.5,343.4688,59.5,347.4688,69.5,351.4688,65.5,347.4688" style="stroke:#181818;stroke-width:1.0;"/><line style="stroke:#181818;stroke-width:1.0;stroke-dasharray:2.0,2.0;" x1="63.5" x2="555.5" y1="347.4688" y2="347.4688"/><text fill="#000000" font-family="sans-serif" font-size="13" font-weight="bold" lengthAdjust="spacing" textLength="7" x="75.5" y="342.7139">8</text><text fill="#000000" font-family="sans-serif" font-size="13" lengthAdjust="spacing" textLength="354" x="86.5" y="342.7139">asks to select the type of property (house, apartment or land)</text><polygon fill="#181818" points="539.5,371.9922,549.5,375.9922,539.5,379.9922,543.5,375.9922" style="stroke:#181818;stroke-width:1.0;"/><line style="stroke:#181818;stroke-width:1.0;" x1="58.5" x2="545.5" y1="375.9922" y2="375.9922"/><text fill="#000000" font-family="sans-serif" font-size="13" font-weight="bold" lengthAdjust="spacing" textLength="7" x="65.5" y="371.2373">9</text><text fill="#000000" font-family="sans-serif" font-size="13" lengthAdjust="spacing" textLength="158" x="76.5" y="371.2373">selects the type of property</text><polygon fill="#181818" points="69.5,400.5156,59.5,404.5156,69.5,408.5156,65.5,404.5156" style="stroke:#181818;stroke-width:1.0;"/><line style="stroke:#181818;stroke-width:1.0;stroke-dasharray:2.0,2.0;" x1="63.5" x2="555.5" y1="404.5156" y2="404.5156"/><text fill="#000000" font-family="sans-serif" font-size="13" font-weight="bold" lengthAdjust="spacing" textLength="14" x="75.5" y="399.7607">10</text><text fill="#000000" font-family="sans-serif" font-size="13" lengthAdjust="spacing" textLength="79" x="93.5" y="399.7607">requests data</text><polygon fill="#181818" points="544.5,443.5625,554.5,447.5625,544.5,451.5625,548.5,447.5625" style="stroke:#181818;stroke-width:1.0;"/><line style="stroke:#181818;stroke-width:1.0;" x1="58.5" x2="550.5" y1="447.5625" y2="447.5625"/><text fill="#000000" font-family="sans-serif" font-size="13" font-weight="bold" lengthAdjust="spacing" textLength="14" x="65.5" y="435.5459">11</text><text fill="#000000" font-family="sans-serif" font-size="13" lengthAdjust="spacing" textLength="361" x="83.5" y="428.2842">inserts data (area (m2), location, distance from the city centre,</text><text fill="#000000" font-family="sans-serif" font-size="13" lengthAdjust="spacing" textLength="168" x="83.5" y="442.8076">some photographs and price)</text><path d="M10,462.5625 L71,462.5625 L71,469.0859 L61,479.0859 L10,479.0859 L10,462.5625 " fill="#EEEEEE" style="stroke:#000000;stroke-width:1.5;"/><rect fill="none" height="175.6641" style="stroke:#000000;stroke-width:1.5;" width="598.5" x="10" y="462.5625"/><text fill="#000000" font-family="sans-serif" font-size="13" font-weight="bold" lengthAdjust="spacing" textLength="16" x="25" y="475.3311">alt</text><text fill="#000000" font-family="sans-serif" font-size="11" font-weight="bold" lengthAdjust="spacing" textLength="190" x="86" y="474.5205">[Property is Apartament or House]</text><polygon fill="#181818" points="69.5,495.6094,59.5,499.6094,69.5,503.6094,65.5,499.6094" style="stroke:#181818;stroke-width:1.0;"/><line style="stroke:#181818;stroke-width:1.0;stroke-dasharray:2.0,2.0;" x1="63.5" x2="555.5" y1="499.6094" y2="499.6094"/><text fill="#000000" font-family="sans-serif" font-size="13" font-weight="bold" lengthAdjust="spacing" textLength="14" x="75.5" y="494.8545">12</text><text fill="#000000" font-family="sans-serif" font-size="13" lengthAdjust="spacing" textLength="79" x="93.5" y="494.8545">requests data</text><polygon fill="#181818" points="539.5,538.6563,549.5,542.6563,539.5,546.6563,543.5,542.6563" style="stroke:#181818;stroke-width:1.0;"/><line style="stroke:#181818;stroke-width:1.0;" x1="58.5" x2="545.5" y1="542.6563" y2="542.6563"/><text fill="#000000" font-family="sans-serif" font-size="13" font-weight="bold" lengthAdjust="spacing" textLength="14" x="65.5" y="530.6396">13</text><text fill="#000000" font-family="sans-serif" font-size="13" lengthAdjust="spacing" textLength="389" x="83.5" y="523.3779">inserts data (number of number of bedrooms, number of bathrooms,</text><text fill="#000000" font-family="sans-serif" font-size="13" lengthAdjust="spacing" textLength="302" x="83.5" y="537.9014">number of parking spaces and available equipement)</text><path d="M20,557.6563 L81,557.6563 L81,564.1797 L71,574.1797 L20,574.1797 L20,557.6563 " fill="#EEEEEE" style="stroke:#000000;stroke-width:1.5;"/><rect fill="none" height="73.5703" style="stroke:#000000;stroke-width:1.5;" width="578.5" x="20" y="557.6563"/><text fill="#000000" font-family="sans-serif" font-size="13" font-weight="bold" lengthAdjust="spacing" textLength="16" x="35" y="570.4248">alt</text><text fill="#000000" font-family="sans-serif" font-size="11" font-weight="bold" lengthAdjust="spacing" textLength="116" x="96" y="569.6143">[Property is a House]</text><polygon fill="#181818" points="69.5,590.7031,59.5,594.7031,69.5,598.7031,65.5,594.7031" style="stroke:#181818;stroke-width:1.0;"/><line style="stroke:#181818;stroke-width:1.0;stroke-dasharray:2.0,2.0;" x1="63.5" x2="555.5" y1="594.7031" y2="594.7031"/><text fill="#000000" font-family="sans-serif" font-size="13" font-weight="bold" lengthAdjust="spacing" textLength="14" x="75.5" y="589.9482">14</text><text fill="#000000" font-family="sans-serif" font-size="13" lengthAdjust="spacing" textLength="79" x="93.5" y="589.9482">requests data</text><polygon fill="#181818" points="539.5,619.2266,549.5,623.2266,539.5,627.2266,543.5,623.2266" style="stroke:#181818;stroke-width:1.0;"/><line style="stroke:#181818;stroke-width:1.0;" x1="58.5" x2="545.5" y1="623.2266" y2="623.2266"/><text fill="#000000" font-family="sans-serif" font-size="13" font-weight="bold" lengthAdjust="spacing" textLength="14" x="65.5" y="618.4717">15</text><text fill="#000000" font-family="sans-serif" font-size="13" lengthAdjust="spacing" textLength="456" x="83.5" y="618.4717">inserts data (existence of a basement and/or inhabitable loft and sun exposure)</text><polygon fill="#181818" points="69.5,661.75,59.5,665.75,69.5,669.75,65.5,665.75" style="stroke:#181818;stroke-width:1.0;"/><line style="stroke:#181818;stroke-width:1.0;stroke-dasharray:2.0,2.0;" x1="63.5" x2="555.5" y1="665.75" y2="665.75"/><text fill="#000000" font-family="sans-serif" font-size="13" font-weight="bold" lengthAdjust="spacing" textLength="14" x="75.5" y="660.9951">16</text><text fill="#000000" font-family="sans-serif" font-size="13" lengthAdjust="spacing" textLength="319" x="93.5" y="660.9951">shows requested data and selected property movement</text><polygon fill="#181818" points="539.5,690.2734,549.5,694.2734,539.5,698.2734,543.5,694.2734" style="stroke:#181818;stroke-width:1.0;"/><line style="stroke:#181818;stroke-width:1.0;" x1="58.5" x2="545.5" y1="694.2734" y2="694.2734"/><text fill="#000000" font-family="sans-serif" font-size="13" font-weight="bold" lengthAdjust="spacing" textLength="14" x="65.5" y="689.5186">17</text><text fill="#000000" font-family="sans-serif" font-size="13" lengthAdjust="spacing" textLength="75" x="83.5" y="689.5186">submits data</text><polygon fill="#181818" points="69.5,718.7969,59.5,722.7969,69.5,726.7969,65.5,722.7969" style="stroke:#181818;stroke-width:1.0;"/><line style="stroke:#181818;stroke-width:1.0;stroke-dasharray:2.0,2.0;" x1="63.5" x2="555.5" y1="722.7969" y2="722.7969"/><text fill="#000000" font-family="sans-serif" font-size="13" font-weight="bold" lengthAdjust="spacing" textLength="14" x="75.5" y="718.042">18</text><text fill="#000000" font-family="sans-serif" font-size="13" lengthAdjust="spacing" textLength="140" x="93.5" y="718.042">shows operation sucess</text><!--SRC=[jLHDZnen3BtFhx0uWGIgr2E7IfNsq5ihSTsBcJ5CH2P9Omyi_xvECWoKbbteTkU0J3wUttkEpJlZ0aRieFFErstq7O74dYeUTmBMEzpIIewM858jwBRsyW2tsFY3SLlOe6MgAZ6YHrT75kfWHJzxSZN1ay5jEZvThPvciD0DQ-57z86Y7AiAU_6kxzOKDQx5HvXyFpYA4q2675MQJanj0Zg1oRBWv-qIvdjcZqB3-Ghqoo4ilfpuBFN2Za4yS2AWUI8fNciOmebCkZTYdS1X-0QSXK8MxAKwu0yC2DQmWD-03sAyOvZ-ba9Q6bFC05rpoKHz1UyePsdehyd_L5BkSKOkgNBYV-M_rJeTYuZ_oGxT0FqENWhpKRpaOLfN19BxSWoKAd-gBqnRtpFD0TEZxLBvzHbOfJ-xGVRj2b_d62a-mZscTcH5R52mUeYBSQnfoqsOOYJzxJxFvc1zZUdTpQ7H6c5gzerEaaowDcf6hVgZcl7iE0sOq7hnEWj2oxcW8PgQYYzePPm9e2tvDTc79_- -9KyVaFVAixX7OXb7oV9pjAOcUj_n_78DfHqMdzrvMQdlqbHadQ1KbE8UZSMrJaVbQG8bOREtwtZj2buxSRSRxtI4NhJ0UPghFbJXd2KaRP-qFiQrk3QI1Lg_AUtAlGDw2PxxI7Te1I3NbBzZyEfu64HIKpZcbBbhg3ctO-VtcUc3aw9VT-RIljkiRz9B179tA9e-0xx1u1S0]--></g></svg>