<?xml version="1.0" encoding="us-ascii" standalone="no"?><svg xmlns="http://www.w3.org/2000/svg" xmlns:xlink="http://www.w3.org/1999/xlink" contentStyleType="text/css" height="1181px" preserveAspectRatio="none" style="width:630px;height:1181px;background:#FFFFFF;" version="1.1" viewBox="0 0 630 1181" width="630px" zoomAndPan="magnify"><defs/><g><text fill="#000000" font-family="sans-serif" font-size="14" font-weight="bold" lengthAdjust="spacing" textLength="228" x="202.75" y="27.6738">System Sequence Diagram (SSD)</text><rect fill="#FFFFFF" height="965.0859" style="stroke:#181818;stroke-width:1.0;" width="10" x="48.5" y="127.2813"/><rect fill="#FFFFFF" height="28.5234" style="stroke:#181818;stroke-width:1.0;" width="10" x="567.5" y="147.8047"/><rect fill="#FFFFFF" height="28.5234" style="stroke:#181818;stroke-width:1.0;" width="10" x="567.5" y="204.8516"/><rect fill="#FFFFFF" height="28.5234" style="stroke:#181818;stroke-width:1.0;" width="10" x="567.5" y="261.8984"/><rect fill="#FFFFFF" height="28.5234" style="stroke:#181818;stroke-width:1.0;" width="10" x="567.5" y="318.9453"/><rect fill="#FFFFFF" height="28.5234" style="stroke:#181818;stroke-width:1.0;" width="10" x="567.5" y="375.9922"/><rect fill="#FFFFFF" height="35.5234" style="stroke:#181818;stroke-width:1.0;" width="10" x="567.5" y="456.5625"/><rect fill="#FFFFFF" height="66.5703" style="stroke:#181818;stroke-width:1.0;" width="10" x="567.5" y="520.6094"/><rect fill="#FFFFFF" height="52.0469" style="stroke:#181818;stroke-width:1.0;" width="10" x="567.5" y="615.7031"/><rect fill="#FFFFFF" height="42.5234" style="stroke:#181818;stroke-width:1.0;" width="10" x="567.5" y="696.2734"/><rect fill="#FFFFFF" height="52.0469" style="stroke:#181818;stroke-width:1.0;" width="10" x="567.5" y="767.3203"/><rect fill="#FFFFFF" height="42.8125" style="stroke:#181818;stroke-width:1.0;" width="10" x="567.5" y="847.8906"/><rect fill="#FFFFFF" height="50.0469" style="stroke:#181818;stroke-width:1.0;" width="10" x="567.5" y="919.2266"/><rect fill="#FFFFFF" height="28.5234" style="stroke:#181818;stroke-width:1.0;" width="10" x="567.5" y="997.7969"/><rect fill="#FFFFFF" height="28.5234" style="stroke:#181818;stroke-width:1.0;" width="10" x="567.5" y="1054.8438"/><rect fill="none" height="45.0469" style="stroke:#000000;stroke-width:1.5;" width="594.5" x="20" y="419.5156"/><rect fill="none" height="175.6641" style="stroke:#000000;stroke-width:1.5;" width="614.5" x="10" y="535.6094"/><rect fill="none" height="73.5703" style="stroke:#000000;stroke-width:1.5;" width="594.5" x="20" y="630.7031"/><rect fill="none" height="144.9063" style="stroke:#000000;stroke-width:1.5;" width="594.5" x="20" y="782.3203"/><line style="stroke:#181818;stroke-width:0.5;stroke-dasharray:5.0,5.0;" x1="53" x2="53" y1="117.2813" y2="1101.3672"/><line style="stroke:#181818;stroke-width:0.5;stroke-dasharray:5.0,5.0;" x1="572.5" x2="572.5" y1="117.2813" y2="1101.3672"/><text fill="#000000" font-family="sans-serif" font-size="14" lengthAdjust="spacing" textLength="41" x="30" y="114.3145">Owner</text><ellipse cx="53.5" cy="50.1406" fill="#E3E3E3" rx="8" ry="8" style="stroke:#181818;stroke-width:0.5;"/><path d="M53.5,58.1406 L53.5,85.1406 M40.5,66.1406 L66.5,66.1406 M53.5,85.1406 L40.5,100.1406 M53.5,85.1406 L66.5,100.1406 " fill="none" style="stroke:#181818;stroke-width:0.5;"/><text fill="#000000" font-family="sans-serif" font-size="14" lengthAdjust="spacing" textLength="41" x="30" y="1113.041">Owner</text><ellipse cx="53.5" cy="1124.5078" fill="#E3E3E3" rx="8" ry="8" style="stroke:#181818;stroke-width:0.5;"/><path d="M53.5,1132.5078 L53.5,1159.5078 M40.5,1140.5078 L66.5,1140.5078 M53.5,1159.5078 L40.5,1174.5078 M53.5,1159.5078 L66.5,1174.5078 " fill="none" style="stroke:#181818;stroke-width:0.5;"/><rect fill="#E3E3E3" height="29.6406" rx="2.5" ry="2.5" style="stroke:#181818;stroke-width:0.5;" width="64" x="540.5" y="86.6406"/><text fill="#000000" font-family="sans-serif" font-size="14" lengthAdjust="spacing" textLength="50" x="547.5" y="106.3145">:System</text><rect fill="#E3E3E3" height="29.6406" rx="2.5" ry="2.5" style="stroke:#181818;stroke-width:0.5;" width="64" x="540.5" y="1100.3672"/><text fill="#000000" font-family="sans-serif" font-size="14" lengthAdjust="spacing" textLength="50" x="547.5" y="1120.041">:System</text><rect fill="#FFFFFF" height="965.0859" style="stroke:#181818;stroke-width:1.0;" width="10" x="48.5" y="127.2813"/><rect fill="#FFFFFF" height="28.5234" style="stroke:#181818;stroke-width:1.0;" width="10" x="567.5" y="147.8047"/><rect fill="#FFFFFF" height="28.5234" style="stroke:#181818;stroke-width:1.0;" width="10" x="567.5" y="204.8516"/><rect fill="#FFFFFF" height="28.5234" style="stroke:#181818;stroke-width:1.0;" width="10" x="567.5" y="261.8984"/><rect fill="#FFFFFF" height="28.5234" style="stroke:#181818;stroke-width:1.0;" width="10" x="567.5" y="318.9453"/><rect fill="#FFFFFF" height="28.5234" style="stroke:#181818;stroke-width:1.0;" width="10" x="567.5" y="375.9922"/><rect fill="#FFFFFF" height="35.5234" style="stroke:#181818;stroke-width:1.0;" width="10" x="567.5" y="456.5625"/><rect fill="#FFFFFF" height="66.5703" style="stroke:#181818;stroke-width:1.0;" width="10" x="567.5" y="520.6094"/><rect fill="#FFFFFF" height="52.0469" style="stroke:#181818;stroke-width:1.0;" width="10" x="567.5" y="615.7031"/><rect fill="#FFFFFF" height="42.5234" style="stroke:#181818;stroke-width:1.0;" width="10" x="567.5" y="696.2734"/><rect fill="#FFFFFF" height="52.0469" style="stroke:#181818;stroke-width:1.0;" width="10" x="567.5" y="767.3203"/><rect fill="#FFFFFF" height="42.8125" style="stroke:#181818;stroke-width:1.0;" width="10" x="567.5" y="847.8906"/><rect fill="#FFFFFF" height="50.0469" style="stroke:#181818;stroke-width:1.0;" width="10" x="567.5" y="919.2266"/><rect fill="#FFFFFF" height="28.5234" style="stroke:#181818;stroke-width:1.0;" width="10" x="567.5" y="997.7969"/><rect fill="#FFFFFF" height="28.5234" style="stroke:#181818;stroke-width:1.0;" width="10" x="567.5" y="1054.8438"/><polygon fill="#181818" points="555.5,143.8047,565.5,147.8047,555.5,151.8047,559.5,147.8047" style="stroke:#181818;stroke-width:1.0;"/><line style="stroke:#181818;stroke-width:1.0;" x1="58.5" x2="561.5" y1="147.8047" y2="147.8047"/><text fill="#000000" font-family="sans-serif" font-size="13" font-weight="bold" lengthAdjust="spacing" textLength="7" x="65.5" y="143.0498">1</text><text fill="#000000" font-family="sans-serif" font-size="13" lengthAdjust="spacing" textLength="168" x="76.5" y="143.0498">asks to create a new request</text><polygon fill="#181818" points="69.5,172.3281,59.5,176.3281,69.5,180.3281,65.5,176.3281" style="stroke:#181818;stroke-width:1.0;"/><line style="stroke:#181818;stroke-width:1.0;stroke-dasharray:2.0,2.0;" x1="63.5" x2="571.5" y1="176.3281" y2="176.3281"/><text fill="#000000" font-family="sans-serif" font-size="13" font-weight="bold" lengthAdjust="spacing" textLength="7" x="75.5" y="171.5732">2</text><text fill="#000000" font-family="sans-serif" font-size="13" lengthAdjust="spacing" textLength="240" x="86.5" y="171.5732">shows agency list and asks to select one</text><polygon fill="#181818" points="555.5,200.8516,565.5,204.8516,555.5,208.8516,559.5,204.8516" style="stroke:#181818;stroke-width:1.0;"/><line style="stroke:#181818;stroke-width:1.0;" x1="58.5" x2="561.5" y1="204.8516" y2="204.8516"/><text fill="#000000" font-family="sans-serif" font-size="13" font-weight="bold" lengthAdjust="spacing" textLength="7" x="65.5" y="200.0967">3</text><text fill="#000000" font-family="sans-serif" font-size="13" lengthAdjust="spacing" textLength="106" x="76.5" y="200.0967">selects an agency</text><polygon fill="#181818" points="69.5,229.375,59.5,233.375,69.5,237.375,65.5,233.375" style="stroke:#181818;stroke-width:1.0;"/><line style="stroke:#181818;stroke-width:1.0;stroke-dasharray:2.0,2.0;" x1="63.5" x2="571.5" y1="233.375" y2="233.375"/><text fill="#000000" font-family="sans-serif" font-size="13" font-weight="bold" lengthAdjust="spacing" textLength="7" x="75.5" y="228.6201">4</text><text fill="#000000" font-family="sans-serif" font-size="13" lengthAdjust="spacing" textLength="237" x="86.5" y="228.6201">shows agents list and asks to select one</text><polygon fill="#181818" points="555.5,257.8984,565.5,261.8984,555.5,265.8984,559.5,261.8984" style="stroke:#181818;stroke-width:1.0;"/><line style="stroke:#181818;stroke-width:1.0;" x1="58.5" x2="561.5" y1="261.8984" y2="261.8984"/><text fill="#000000" font-family="sans-serif" font-size="13" font-weight="bold" lengthAdjust="spacing" textLength="7" x="65.5" y="257.1436">5</text><text fill="#000000" font-family="sans-serif" font-size="13" lengthAdjust="spacing" textLength="96" x="76.5" y="257.1436">selects an agent</text><polygon fill="#181818" points="69.5,286.4219,59.5,290.4219,69.5,294.4219,65.5,290.4219" style="stroke:#181818;stroke-width:1.0;"/><line style="stroke:#181818;stroke-width:1.0;stroke-dasharray:2.0,2.0;" x1="63.5" x2="571.5" y1="290.4219" y2="290.4219"/><text fill="#000000" font-family="sans-serif" font-size="13" font-weight="bold" lengthAdjust="spacing" textLength="7" x="75.5" y="285.667">6</text><text fill="#000000" font-family="sans-serif" font-size="13" lengthAdjust="spacing" textLength="191" x="86.5" y="285.667">ask to select the type of property</text><polygon fill="#181818" points="555.5,314.9453,565.5,318.9453,555.5,322.9453,559.5,318.9453" style="stroke:#181818;stroke-width:1.0;"/><line style="stroke:#181818;stroke-width:1.0;" x1="58.5" x2="561.5" y1="318.9453" y2="318.9453"/><text fill="#000000" font-family="sans-serif" font-size="13" font-weight="bold" lengthAdjust="spacing" textLength="7" x="65.5" y="314.1904">7</text><text fill="#000000" font-family="sans-serif" font-size="13" lengthAdjust="spacing" textLength="158" x="76.5" y="314.1904">selects the type of property</text><polygon fill="#181818" points="69.5,343.4688,59.5,347.4688,69.5,351.4688,65.5,347.4688" style="stroke:#181818;stroke-width:1.0;"/><line style="stroke:#181818;stroke-width:1.0;stroke-dasharray:2.0,2.0;" x1="63.5" x2="571.5" y1="347.4688" y2="347.4688"/><text fill="#000000" font-family="sans-serif" font-size="13" font-weight="bold" lengthAdjust="spacing" textLength="7" x="75.5" y="342.7139">8</text><text fill="#000000" font-family="sans-serif" font-size="13" lengthAdjust="spacing" textLength="372" x="86.5" y="342.7139">requests data (area (m2), location, distance from the city centre)</text><polygon fill="#181818" points="555.5,371.9922,565.5,375.9922,555.5,379.9922,559.5,375.9922" style="stroke:#181818;stroke-width:1.0;"/><line style="stroke:#181818;stroke-width:1.0;" x1="58.5" x2="561.5" y1="375.9922" y2="375.9922"/><text fill="#000000" font-family="sans-serif" font-size="13" font-weight="bold" lengthAdjust="spacing" textLength="7" x="65.5" y="371.2373">9</text><text fill="#000000" font-family="sans-serif" font-size="13" lengthAdjust="spacing" textLength="68" x="76.5" y="371.2373">inserts data</text><polygon fill="#181818" points="69.5,400.5156,59.5,404.5156,69.5,408.5156,65.5,404.5156" style="stroke:#181818;stroke-width:1.0;"/><line style="stroke:#181818;stroke-width:1.0;stroke-dasharray:2.0,2.0;" x1="63.5" x2="571.5" y1="404.5156" y2="404.5156"/><text fill="#000000" font-family="sans-serif" font-size="13" font-weight="bold" lengthAdjust="spacing" textLength="14" x="75.5" y="399.7607">10</text><text fill="#000000" font-family="sans-serif" font-size="13" lengthAdjust="spacing" textLength="140" x="93.5" y="399.7607">asks for property photos</text><path d="M20,419.5156 L93,419.5156 L93,426.0391 L83,436.0391 L20,436.0391 L20,419.5156 " fill="#EEEEEE" style="stroke:#000000;stroke-width:1.5;"/><rect fill="none" height="45.0469" style="stroke:#000000;stroke-width:1.5;" width="594.5" x="20" y="419.5156"/><text fill="#000000" font-family="sans-serif" font-size="13" font-weight="bold" lengthAdjust="spacing" textLength="28" x="35" y="432.2842">loop</text><text fill="#000000" font-family="sans-serif" font-size="11" font-weight="bold" lengthAdjust="spacing" textLength="217" x="108" y="431.4736">[at least 1 photo and at most 30 photos]</text><polygon fill="#181818" points="555.5,452.5625,565.5,456.5625,555.5,460.5625,559.5,456.5625" style="stroke:#181818;stroke-width:1.0;"/><line style="stroke:#181818;stroke-width:1.0;" x1="58.5" x2="561.5" y1="456.5625" y2="456.5625"/><text fill="#000000" font-family="sans-serif" font-size="13" font-weight="bold" lengthAdjust="spacing" textLength="14" x="65.5" y="451.8076">11</text><text fill="#000000" font-family="sans-serif" font-size="13" lengthAdjust="spacing" textLength="166" x="83.5" y="451.8076">inserts property photos (URI)</text><polygon fill="#181818" points="69.5,488.0859,59.5,492.0859,69.5,496.0859,65.5,492.0859" style="stroke:#181818;stroke-width:1.0;"/><line style="stroke:#181818;stroke-width:1.0;stroke-dasharray:2.0,2.0;" x1="63.5" x2="571.5" y1="492.0859" y2="492.0859"/><text fill="#000000" font-family="sans-serif" font-size="13" font-weight="bold" lengthAdjust="spacing" textLength="14" x="75.5" y="487.3311">12</text><text fill="#000000" font-family="sans-serif" font-size="13" lengthAdjust="spacing" textLength="233" x="93.5" y="487.3311">ask for the type of business (rent or sell)</text><polygon fill="#181818" points="555.5,516.6094,565.5,520.6094,555.5,524.6094,559.5,520.6094" style="stroke:#181818;stroke-width:1.0;"/><line style="stroke:#181818;stroke-width:1.0;" x1="58.5" x2="561.5" y1="520.6094" y2="520.6094"/><text fill="#000000" font-family="sans-serif" font-size="13" font-weight="bold" lengthAdjust="spacing" textLength="14" x="65.5" y="515.8545">13</text><text fill="#000000" font-family="sans-serif" font-size="13" lengthAdjust="spacing" textLength="138" x="83.5" y="515.8545">inserts type of business</text><path d="M10,535.6094 L75,535.6094 L75,542.1328 L65,552.1328 L10,552.1328 L10,535.6094 " fill="#EEEEEE" style="stroke:#000000;stroke-width:1.5;"/><rect fill="none" height="175.6641" style="stroke:#000000;stroke-width:1.5;" width="614.5" x="10" y="535.6094"/><text fill="#000000" font-family="sans-serif" font-size="13" font-weight="bold" lengthAdjust="spacing" textLength="20" x="25" y="548.3779">opt</text><text fill="#000000" font-family="sans-serif" font-size="11" font-weight="bold" lengthAdjust="spacing" textLength="184" x="90" y="547.5674">[Property is Apartment or House]</text><polygon fill="#181818" points="69.5,583.1797,59.5,587.1797,69.5,591.1797,65.5,587.1797" style="stroke:#181818;stroke-width:1.0;"/><line style="stroke:#181818;stroke-width:1.0;stroke-dasharray:2.0,2.0;" x1="63.5" x2="571.5" y1="587.1797" y2="587.1797"/><text fill="#000000" font-family="sans-serif" font-size="13" font-weight="bold" lengthAdjust="spacing" textLength="14" x="75.5" y="575.1631">14</text><text fill="#000000" font-family="sans-serif" font-size="13" lengthAdjust="spacing" textLength="339" x="93.5" y="567.9014">requests data (number of bedrooms, number of bathrooms,</text><text fill="#000000" font-family="sans-serif" font-size="13" lengthAdjust="spacing" textLength="295" x="93.5" y="582.4248">number of parking spaces and available equipment)</text><polygon fill="#181818" points="555.5,611.7031,565.5,615.7031,555.5,619.7031,559.5,615.7031" style="stroke:#181818;stroke-width:1.0;"/><line style="stroke:#181818;stroke-width:1.0;" x1="58.5" x2="561.5" y1="615.7031" y2="615.7031"/><text fill="#000000" font-family="sans-serif" font-size="13" font-weight="bold" lengthAdjust="spacing" textLength="14" x="65.5" y="610.9482">15</text><text fill="#000000" font-family="sans-serif" font-size="13" lengthAdjust="spacing" textLength="68" x="83.5" y="610.9482">inserts data</text><path d="M20,630.7031 L85,630.7031 L85,637.2266 L75,647.2266 L20,647.2266 L20,630.7031 " fill="#EEEEEE" style="stroke:#000000;stroke-width:1.5;"/><rect fill="none" height="73.5703" style="stroke:#000000;stroke-width:1.5;" width="594.5" x="20" y="630.7031"/><text fill="#000000" font-family="sans-serif" font-size="13" font-weight="bold" lengthAdjust="spacing" textLength="20" x="35" y="643.4717">opt</text><text fill="#000000" font-family="sans-serif" font-size="11" font-weight="bold" lengthAdjust="spacing" textLength="116" x="100" y="642.6611">[Property is a House]</text><polygon fill="#181818" points="69.5,663.75,59.5,667.75,69.5,671.75,65.5,667.75" style="stroke:#181818;stroke-width:1.0;"/><line style="stroke:#181818;stroke-width:1.0;stroke-dasharray:2.0,2.0;" x1="63.5" x2="571.5" y1="667.75" y2="667.75"/><text fill="#000000" font-family="sans-serif" font-size="13" font-weight="bold" lengthAdjust="spacing" textLength="14" x="75.5" y="662.9951">16</text><text fill="#000000" font-family="sans-serif" font-size="13" lengthAdjust="spacing" textLength="467" x="93.5" y="662.9951">requests data (existence of a basement and/or inhabitable loft and sun exposure)</text><polygon fill="#181818" points="555.5,692.2734,565.5,696.2734,555.5,700.2734,559.5,696.2734" style="stroke:#181818;stroke-width:1.0;"/><line style="stroke:#181818;stroke-width:1.0;" x1="58.5" x2="561.5" y1="696.2734" y2="696.2734"/><text fill="#000000" font-family="sans-serif" font-size="13" font-weight="bold" lengthAdjust="spacing" textLength="14" x="65.5" y="691.5186">17</text><text fill="#000000" font-family="sans-serif" font-size="13" lengthAdjust="spacing" textLength="68" x="83.5" y="691.5186">inserts data</text><polygon fill="#181818" points="69.5,734.7969,59.5,738.7969,69.5,742.7969,65.5,738.7969" style="stroke:#181818;stroke-width:1.0;"/><line style="stroke:#181818;stroke-width:1.0;stroke-dasharray:2.0,2.0;" x1="63.5" x2="571.5" y1="738.7969" y2="738.7969"/><text fill="#000000" font-family="sans-serif" font-size="13" font-weight="bold" lengthAdjust="spacing" textLength="14" x="75.5" y="734.042">18</text><text fill="#000000" font-family="sans-serif" font-size="13" lengthAdjust="spacing" textLength="238" x="93.5" y="734.042">request the type of operation (sell or rent)</text><polygon fill="#181818" points="555.5,763.3203,565.5,767.3203,555.5,771.3203,559.5,767.3203" style="stroke:#181818;stroke-width:1.0;"/><line style="stroke:#181818;stroke-width:1.0;" x1="58.5" x2="561.5" y1="767.3203" y2="767.3203"/><text fill="#000000" font-family="sans-serif" font-size="13" font-weight="bold" lengthAdjust="spacing" textLength="14" x="65.5" y="762.5654">19</text><text fill="#000000" font-family="sans-serif" font-size="13" lengthAdjust="spacing" textLength="139" x="83.5" y="762.5654">inserts type of operation</text><path d="M20,782.3203 L81,782.3203 L81,788.8438 L71,798.8438 L20,798.8438 L20,782.3203 " fill="#EEEEEE" style="stroke:#000000;stroke-width:1.5;"/><rect fill="none" height="144.9063" style="stroke:#000000;stroke-width:1.5;" width="594.5" x="20" y="782.3203"/><text fill="#000000" font-family="sans-serif" font-size="13" font-weight="bold" lengthAdjust="spacing" textLength="16" x="35" y="795.0889">alt</text><text fill="#000000" font-family="sans-serif" font-size="11" font-weight="bold" lengthAdjust="spacing" textLength="210" x="96" y="794.2783">[the owner intends to rent a property]</text><polygon fill="#181818" points="69.5,815.3672,59.5,819.3672,69.5,823.3672,65.5,819.3672" style="stroke:#181818;stroke-width:1.0;"/><line style="stroke:#181818;stroke-width:1.0;stroke-dasharray:2.0,2.0;" x1="63.5" x2="571.5" y1="819.3672" y2="819.3672"/><text fill="#000000" font-family="sans-serif" font-size="13" font-weight="bold" lengthAdjust="spacing" textLength="14" x="75.5" y="814.6123">20</text><text fill="#000000" font-family="sans-serif" font-size="13" lengthAdjust="spacing" textLength="318" x="93.5" y="814.6123">asks for the contract duration and the price (per month)</text><polygon fill="#181818" points="555.5,843.8906,565.5,847.8906,555.5,851.8906,559.5,847.8906" style="stroke:#181818;stroke-width:1.0;"/><line style="stroke:#181818;stroke-width:1.0;" x1="58.5" x2="561.5" y1="847.8906" y2="847.8906"/><text fill="#000000" font-family="sans-serif" font-size="13" font-weight="bold" lengthAdjust="spacing" textLength="14" x="65.5" y="843.1357">21</text><text fill="#000000" font-family="sans-serif" font-size="13" lengthAdjust="spacing" textLength="75" x="83.5" y="843.1357">submits data</text><line style="stroke:#000000;stroke-width:1.0;stroke-dasharray:2.0,2.0;" x1="20" x2="614.5" y1="856.8906" y2="856.8906"/><text fill="#000000" font-family="sans-serif" font-size="11" font-weight="bold" lengthAdjust="spacing" textLength="207" x="25" y="866.8486">[the owner intends to sell a property]</text><polygon fill="#181818" points="69.5,886.7031,59.5,890.7031,69.5,894.7031,65.5,890.7031" style="stroke:#181818;stroke-width:1.0;"/><line style="stroke:#181818;stroke-width:1.0;stroke-dasharray:2.0,2.0;" x1="63.5" x2="571.5" y1="890.7031" y2="890.7031"/><text fill="#000000" font-family="sans-serif" font-size="13" font-weight="bold" lengthAdjust="spacing" textLength="14" x="75.5" y="885.9482">22</text><text fill="#000000" font-family="sans-serif" font-size="13" lengthAdjust="spacing" textLength="151" x="93.5" y="885.9482">asks for the property price</text><polygon fill="#181818" points="555.5,915.2266,565.5,919.2266,555.5,923.2266,559.5,919.2266" style="stroke:#181818;stroke-width:1.0;"/><line style="stroke:#181818;stroke-width:1.0;" x1="58.5" x2="561.5" y1="919.2266" y2="919.2266"/><text fill="#000000" font-family="sans-serif" font-size="13" font-weight="bold" lengthAdjust="spacing" textLength="14" x="65.5" y="914.4717">23</text><text fill="#000000" font-family="sans-serif" font-size="13" lengthAdjust="spacing" textLength="75" x="83.5" y="914.4717">submits data</text><polygon fill="#181818" points="69.5,965.2734,59.5,969.2734,69.5,973.2734,65.5,969.2734" style="stroke:#181818;stroke-width:1.0;"/><line style="stroke:#181818;stroke-width:1.0;stroke-dasharray:2.0,2.0;" x1="63.5" x2="571.5" y1="969.2734" y2="969.2734"/><text fill="#000000" font-family="sans-serif" font-size="13" font-weight="bold" lengthAdjust="spacing" textLength="14" x="75.5" y="957.2568">24</text><text fill="#000000" font-family="sans-serif" font-size="13" lengthAdjust="spacing" textLength="381" x="93.5" y="949.9951">requests data (name, citizen's card number, tax number, address,</text><text fill="#000000" font-family="sans-serif" font-size="13" lengthAdjust="spacing" textLength="196" x="93.5" y="964.5186">email address, telephone number)</text><polygon fill="#181818" points="555.5,993.7969,565.5,997.7969,555.5,1001.7969,559.5,997.7969" style="stroke:#181818;stroke-width:1.0;"/><line style="stroke:#181818;stroke-width:1.0;" x1="58.5" x2="561.5" y1="997.7969" y2="997.7969"/><text fill="#000000" font-family="sans-serif" font-size="13" font-weight="bold" lengthAdjust="spacing" textLength="14" x="65.5" y="993.042">25</text><text fill="#000000" font-family="sans-serif" font-size="13" lengthAdjust="spacing" textLength="68" x="83.5" y="993.042">Inserts data</text><polygon fill="#181818" points="69.5,1022.3203,59.5,1026.3203,69.5,1030.3203,65.5,1026.3203" style="stroke:#181818;stroke-width:1.0;"/><line style="stroke:#181818;stroke-width:1.0;stroke-dasharray:2.0,2.0;" x1="63.5" x2="571.5" y1="1026.3203" y2="1026.3203"/><text fill="#000000" font-family="sans-serif" font-size="13" font-weight="bold" lengthAdjust="spacing" textLength="14" x="75.5" y="1021.5654">26</text><text fill="#000000" font-family="sans-serif" font-size="13" lengthAdjust="spacing" textLength="447" x="93.5" y="1021.5654">shows requested data, selected property movement and asks for confirmation</text><polygon fill="#181818" points="555.5,1050.8438,565.5,1054.8438,555.5,1058.8438,559.5,1054.8438" style="stroke:#181818;stroke-width:1.0;"/><line style="stroke:#181818;stroke-width:1.0;" x1="58.5" x2="561.5" y1="1054.8438" y2="1054.8438"/><text fill="#000000" font-family="sans-serif" font-size="13" font-weight="bold" lengthAdjust="spacing" textLength="14" x="65.5" y="1050.0889">27</text><text fill="#000000" font-family="sans-serif" font-size="13" lengthAdjust="spacing" textLength="71" x="83.5" y="1050.0889">confirm data</text><polygon fill="#181818" points="69.5,1079.3672,59.5,1083.3672,69.5,1087.3672,65.5,1083.3672" style="stroke:#181818;stroke-width:1.0;"/><line style="stroke:#181818;stroke-width:1.0;stroke-dasharray:2.0,2.0;" x1="63.5" x2="571.5" y1="1083.3672" y2="1083.3672"/><text fill="#000000" font-family="sans-serif" font-size="13" font-weight="bold" lengthAdjust="spacing" textLength="14" x="75.5" y="1078.6123">28</text><text fill="#000000" font-family="sans-serif" font-size="13" lengthAdjust="spacing" textLength="147" x="93.5" y="1078.6123">shows operation success</text><!--SRC=[jLPDRzim3BtxLn2zB05IxElMmu01FQod3GjssuMHcLY8BNaYtJJxzQDanKcpVBPeJee-7j-Zo2VpqheM0pRGUETD5Nn38A6ZWeUL5iqI5pILTKqGo0YwHRsxWIii_Sgw1SonPYeAiQ9RfsiMQc1AVpfoXk3UuY9k7qsdz-EYm4wywveP1HqRyG5klgySXHj0XZGg55wiiIqwWPkx7YyjzyDqpZwYKDvVWFxI46w_REBVwO4bWtWmWU9U14Sh5QAqMDAH0MQ32_cN8MuLhOUzKx5-nQ3vS6ODjMK1TEKGWgdM185tb31AEWZzFyN-dEAw3FqANWhpLhoEfEiKBsMmGq0gBQzrI-3dq0RVKf3ronWTH1g8N9EvN0aC9Gh22BLAODHy6a-WzWR5UZU1KXEAiOZdsY4fjh6o1gCf2JGkhfDW7IlRFbvn_A8F9vDXhgsoKGnjvSNpgVYrzosWG4seHV6nFz4NXsZNwzpd3nkOCuJteiBery-7yN41vCfJIfAGtMkSTMmTiU86pIlegbvsFJucxWpPVTJY64tV2lpOABCCNwFjD9d1Dzz5HxkyV7fBIu6f3DutF86TEPGgJ_vssscDk8p-oUgrnFtbFAAjSQO-glYsZNnULMTmgNpSrto1Q7hI_aWchs9GLJAb1AgGzvf4wogSMKbgQZ_lhOax1_JKUkvY1xs1iA7yJjLX5lAi3cCkKj_3A1PWB8EGqlyYal-XvfQl-w0-7RHEqrScgqwrZy_TyMf_I0xbrPpq99HTbXFJ7bVQOFMgHeeVdtsfhbJ6tQonvzEldmA75QQaxYay9sPhFP5xyIQ4DsLoSQjZGvFu4DY_vDun60nbxlK923uDOopBe0uKUvuQRUljXEXhfcRgAE-zyYOUBcg4SnyDMHQL2MUIdrZzEoIzyOz3Gs_lHGjiRaEpKzGN4yz7BoD-dFcsKxap9fly0HR_0000]--></g></svg>