<?xml version="1.0" encoding="us-ascii" standalone="no"?><svg xmlns="http://www.w3.org/2000/svg" xmlns:xlink="http://www.w3.org/1999/xlink" contentStyleType="text/css" height="1056px" preserveAspectRatio="none" style="width:882px;height:1056px;background:#FFFFFF;" version="1.1" viewBox="0 0 882 1056" width="882px" zoomAndPan="magnify"><defs/><g><text fill="#000000" font-family="sans-serif" font-size="14" font-weight="bold" lengthAdjust="spacing" textLength="228" x="328.75" y="27.6738">System Sequence Diagram (SSD)</text><rect fill="#FFFFFF" height="839.1797" style="stroke:#181818;stroke-width:1.0;" width="10" x="56.5" y="127.2813"/><rect fill="#FFFFFF" height="28.5234" style="stroke:#181818;stroke-width:1.0;" width="10" x="809.5" y="147.8047"/><rect fill="#FFFFFF" height="111.0938" style="stroke:#181818;stroke-width:1.0;" width="10" x="809.5" y="204.8516"/><rect fill="#FFFFFF" height="28.5234" style="stroke:#181818;stroke-width:1.0;" width="10" x="809.5" y="344.4688"/><rect fill="#FFFFFF" height="28.5234" style="stroke:#181818;stroke-width:1.0;" width="10" x="809.5" y="401.5156"/><rect fill="#FFFFFF" height="52.0469" style="stroke:#181818;stroke-width:1.0;" width="10" x="809.5" y="458.5625"/><rect fill="#FFFFFF" height="52.0469" style="stroke:#181818;stroke-width:1.0;" width="10" x="809.5" y="626.7031"/><rect fill="#FFFFFF" height="42.5234" style="stroke:#181818;stroke-width:1.0;" width="10" x="809.5" y="794.8438"/><rect fill="#FFFFFF" height="28.5234" style="stroke:#181818;stroke-width:1.0;" width="10" x="809.5" y="865.8906"/><rect fill="#FFFFFF" height="28.5234" style="stroke:#181818;stroke-width:1.0;" width="10" x="809.5" y="922.9375"/><rect fill="none" height="45.0469" style="stroke:#000000;stroke-width:1.5;" width="826.5" x="30" y="219.8516"/><rect fill="none" height="680.5625" style="stroke:#000000;stroke-width:1.5;" width="866.5" x="10" y="278.8984"/><rect fill="none" height="73.5703" style="stroke:#000000;stroke-width:1.5;" width="826.5" x="30" y="473.5625"/><rect fill="none" height="248.7109" style="stroke:#000000;stroke-width:1.5;" width="846.5" x="20" y="561.1328"/><rect fill="none" height="73.5703" style="stroke:#000000;stroke-width:1.5;" width="826.5" x="30" y="641.7031"/><rect fill="none" height="73.5703" style="stroke:#000000;stroke-width:1.5;" width="826.5" x="30" y="729.2734"/><line style="stroke:#181818;stroke-width:0.5;stroke-dasharray:5.0,5.0;" x1="61" x2="61" y1="117.2813" y2="976.4609"/><line style="stroke:#181818;stroke-width:0.5;stroke-dasharray:5.0,5.0;" x1="814.5" x2="814.5" y1="117.2813" y2="976.4609"/><text fill="#000000" font-family="sans-serif" font-size="14" lengthAdjust="spacing" textLength="37" x="40" y="114.3145">Agent</text><ellipse cx="61.5" cy="50.1406" fill="#E3E3E3" rx="8" ry="8" style="stroke:#181818;stroke-width:0.5;"/><path d="M61.5,58.1406 L61.5,85.1406 M48.5,66.1406 L74.5,66.1406 M61.5,85.1406 L48.5,100.1406 M61.5,85.1406 L74.5,100.1406 " fill="none" style="stroke:#181818;stroke-width:0.5;"/><text fill="#000000" font-family="sans-serif" font-size="14" lengthAdjust="spacing" textLength="37" x="40" y="988.1348">Agent</text><ellipse cx="61.5" cy="999.6016" fill="#E3E3E3" rx="8" ry="8" style="stroke:#181818;stroke-width:0.5;"/><path d="M61.5,1007.6016 L61.5,1034.6016 M48.5,1015.6016 L74.5,1015.6016 M61.5,1034.6016 L48.5,1049.6016 M61.5,1034.6016 L74.5,1049.6016 " fill="none" style="stroke:#181818;stroke-width:0.5;"/><rect fill="#E3E3E3" height="29.6406" rx="2.5" ry="2.5" style="stroke:#181818;stroke-width:0.5;" width="64" x="782.5" y="86.6406"/><text fill="#000000" font-family="sans-serif" font-size="14" lengthAdjust="spacing" textLength="50" x="789.5" y="106.3145">:System</text><rect fill="#E3E3E3" height="29.6406" rx="2.5" ry="2.5" style="stroke:#181818;stroke-width:0.5;" width="64" x="782.5" y="975.4609"/><text fill="#000000" font-family="sans-serif" font-size="14" lengthAdjust="spacing" textLength="50" x="789.5" y="995.1348">:System</text><rect fill="#FFFFFF" height="839.1797" style="stroke:#181818;stroke-width:1.0;" width="10" x="56.5" y="127.2813"/><rect fill="#FFFFFF" height="28.5234" style="stroke:#181818;stroke-width:1.0;" width="10" x="809.5" y="147.8047"/><rect fill="#FFFFFF" height="111.0938" style="stroke:#181818;stroke-width:1.0;" width="10" x="809.5" y="204.8516"/><rect fill="#FFFFFF" height="28.5234" style="stroke:#181818;stroke-width:1.0;" width="10" x="809.5" y="344.4688"/><rect fill="#FFFFFF" height="28.5234" style="stroke:#181818;stroke-width:1.0;" width="10" x="809.5" y="401.5156"/><rect fill="#FFFFFF" height="52.0469" style="stroke:#181818;stroke-width:1.0;" width="10" x="809.5" y="458.5625"/><rect fill="#FFFFFF" height="52.0469" style="stroke:#181818;stroke-width:1.0;" width="10" x="809.5" y="626.7031"/><rect fill="#FFFFFF" height="42.5234" style="stroke:#181818;stroke-width:1.0;" width="10" x="809.5" y="794.8438"/><rect fill="#FFFFFF" height="28.5234" style="stroke:#181818;stroke-width:1.0;" width="10" x="809.5" y="865.8906"/><rect fill="#FFFFFF" height="28.5234" style="stroke:#181818;stroke-width:1.0;" width="10" x="809.5" y="922.9375"/><polygon fill="#181818" points="797.5,143.8047,807.5,147.8047,797.5,151.8047,801.5,147.8047" style="stroke:#181818;stroke-width:1.0;"/><line style="stroke:#181818;stroke-width:1.0;" x1="66.5" x2="803.5" y1="147.8047" y2="147.8047"/><text fill="#000000" font-family="sans-serif" font-size="13" font-weight="bold" lengthAdjust="spacing" textLength="7" x="73.5" y="143.0498">1</text><text fill="#000000" font-family="sans-serif" font-size="13" lengthAdjust="spacing" textLength="217" x="84.5" y="143.0498">asks to register a new announcement</text><polygon fill="#181818" points="77.5,172.3281,67.5,176.3281,77.5,180.3281,73.5,176.3281" style="stroke:#181818;stroke-width:1.0;"/><line style="stroke:#181818;stroke-width:1.0;stroke-dasharray:2.0,2.0;" x1="71.5" x2="813.5" y1="176.3281" y2="176.3281"/><text fill="#000000" font-family="sans-serif" font-size="13" font-weight="bold" lengthAdjust="spacing" textLength="7" x="83.5" y="171.5732">2</text><text fill="#000000" font-family="sans-serif" font-size="13" lengthAdjust="spacing" textLength="123" x="94.5" y="171.5732">requests owner email</text><polygon fill="#181818" points="797.5,200.8516,807.5,204.8516,797.5,208.8516,801.5,204.8516" style="stroke:#181818;stroke-width:1.0;"/><line style="stroke:#181818;stroke-width:1.0;" x1="66.5" x2="803.5" y1="204.8516" y2="204.8516"/><text fill="#000000" font-family="sans-serif" font-size="13" font-weight="bold" lengthAdjust="spacing" textLength="7" x="73.5" y="200.0967">3</text><text fill="#000000" font-family="sans-serif" font-size="13" lengthAdjust="spacing" textLength="105" x="84.5" y="200.0967">types owner email</text><path d="M30,219.8516 L91,219.8516 L91,226.375 L81,236.375 L30,236.375 L30,219.8516 " fill="#EEEEEE" style="stroke:#000000;stroke-width:1.5;"/><rect fill="none" height="45.0469" style="stroke:#000000;stroke-width:1.5;" width="826.5" x="30" y="219.8516"/><text fill="#000000" font-family="sans-serif" font-size="13" font-weight="bold" lengthAdjust="spacing" textLength="16" x="45" y="232.6201">alt</text><text fill="#000000" font-family="sans-serif" font-size="11" font-weight="bold" lengthAdjust="spacing" textLength="115" x="106" y="231.8096">[owner not registed]</text><polygon fill="#181818" points="77.5,252.8984,67.5,256.8984,77.5,260.8984,73.5,256.8984" style="stroke:#181818;stroke-width:1.0;"/><line style="stroke:#181818;stroke-width:1.0;stroke-dasharray:2.0,2.0;" x1="71.5" x2="808.5" y1="256.8984" y2="256.8984"/><text fill="#000000" font-family="sans-serif" font-size="13" font-weight="bold" lengthAdjust="spacing" textLength="7" x="83.5" y="252.1436">4</text><text fill="#000000" font-family="sans-serif" font-size="13" lengthAdjust="spacing" textLength="106" x="94.5" y="252.1436">owner not registed</text><path d="M10,278.8984 L71,278.8984 L71,285.4219 L61,295.4219 L10,295.4219 L10,278.8984 " fill="#EEEEEE" style="stroke:#000000;stroke-width:1.5;"/><rect fill="none" height="680.5625" style="stroke:#000000;stroke-width:1.5;" width="866.5" x="10" y="278.8984"/><text fill="#000000" font-family="sans-serif" font-size="13" font-weight="bold" lengthAdjust="spacing" textLength="16" x="25" y="291.667">alt</text><text fill="#000000" font-family="sans-serif" font-size="11" font-weight="bold" lengthAdjust="spacing" textLength="94" x="86" y="290.8564">[owner registed]</text><polygon fill="#181818" points="77.5,311.9453,67.5,315.9453,77.5,319.9453,73.5,315.9453" style="stroke:#181818;stroke-width:1.0;"/><line style="stroke:#181818;stroke-width:1.0;stroke-dasharray:2.0,2.0;" x1="71.5" x2="813.5" y1="315.9453" y2="315.9453"/><text fill="#000000" font-family="sans-serif" font-size="13" font-weight="bold" lengthAdjust="spacing" textLength="7" x="83.5" y="311.1904">5</text><text fill="#000000" font-family="sans-serif" font-size="13" lengthAdjust="spacing" textLength="144" x="94.5" y="311.1904">requests type of property</text><polygon fill="#181818" points="797.5,340.4688,807.5,344.4688,797.5,348.4688,801.5,344.4688" style="stroke:#181818;stroke-width:1.0;"/><line style="stroke:#181818;stroke-width:1.0;" x1="66.5" x2="803.5" y1="344.4688" y2="344.4688"/><text fill="#000000" font-family="sans-serif" font-size="13" font-weight="bold" lengthAdjust="spacing" textLength="7" x="73.5" y="339.7139">6</text><text fill="#000000" font-family="sans-serif" font-size="13" lengthAdjust="spacing" textLength="328" x="84.5" y="339.7139">selects one of the types given (apartment, house or land)</text><polygon fill="#181818" points="77.5,368.9922,67.5,372.9922,77.5,376.9922,73.5,372.9922" style="stroke:#181818;stroke-width:1.0;"/><line style="stroke:#181818;stroke-width:1.0;stroke-dasharray:2.0,2.0;" x1="71.5" x2="813.5" y1="372.9922" y2="372.9922"/><text fill="#000000" font-family="sans-serif" font-size="13" font-weight="bold" lengthAdjust="spacing" textLength="7" x="83.5" y="368.2373">7</text><text fill="#000000" font-family="sans-serif" font-size="13" lengthAdjust="spacing" textLength="79" x="94.5" y="368.2373">requests data</text><polygon fill="#181818" points="797.5,397.5156,807.5,401.5156,797.5,405.5156,801.5,401.5156" style="stroke:#181818;stroke-width:1.0;"/><line style="stroke:#181818;stroke-width:1.0;" x1="66.5" x2="803.5" y1="401.5156" y2="401.5156"/><text fill="#000000" font-family="sans-serif" font-size="13" font-weight="bold" lengthAdjust="spacing" textLength="7" x="73.5" y="396.7607">8</text><text fill="#000000" font-family="sans-serif" font-size="13" lengthAdjust="spacing" textLength="713" x="84.5" y="396.7607">types the requested data (area in m2, street adress, city, state, floor number, door number, distance from city center, price)</text><polygon fill="#181818" points="77.5,426.0391,67.5,430.0391,77.5,434.0391,73.5,430.0391" style="stroke:#181818;stroke-width:1.0;"/><line style="stroke:#181818;stroke-width:1.0;stroke-dasharray:2.0,2.0;" x1="71.5" x2="813.5" y1="430.0391" y2="430.0391"/><text fill="#000000" font-family="sans-serif" font-size="13" font-weight="bold" lengthAdjust="spacing" textLength="7" x="83.5" y="425.2842">9</text><text fill="#000000" font-family="sans-serif" font-size="13" lengthAdjust="spacing" textLength="154" x="94.5" y="425.2842">requests number of photos</text><polygon fill="#181818" points="797.5,454.5625,807.5,458.5625,797.5,462.5625,801.5,458.5625" style="stroke:#181818;stroke-width:1.0;"/><line style="stroke:#181818;stroke-width:1.0;" x1="66.5" x2="803.5" y1="458.5625" y2="458.5625"/><text fill="#000000" font-family="sans-serif" font-size="13" font-weight="bold" lengthAdjust="spacing" textLength="14" x="73.5" y="453.8076">10</text><text fill="#000000" font-family="sans-serif" font-size="13" lengthAdjust="spacing" textLength="143" x="91.5" y="453.8076">inserts number of photos</text><path d="M30,473.5625 L103,473.5625 L103,480.0859 L93,490.0859 L30,490.0859 L30,473.5625 " fill="#EEEEEE" style="stroke:#000000;stroke-width:1.5;"/><rect fill="none" height="73.5703" style="stroke:#000000;stroke-width:1.5;" width="826.5" x="30" y="473.5625"/><text fill="#000000" font-family="sans-serif" font-size="13" font-weight="bold" lengthAdjust="spacing" textLength="28" x="45" y="486.3311">loop</text><text fill="#000000" font-family="sans-serif" font-size="11" font-weight="bold" lengthAdjust="spacing" textLength="151" x="118" y="485.5205">[while i &lt; numberOfPhotos]</text><polygon fill="#181818" points="77.5,506.6094,67.5,510.6094,77.5,514.6094,73.5,510.6094" style="stroke:#181818;stroke-width:1.0;"/><line style="stroke:#181818;stroke-width:1.0;stroke-dasharray:2.0,2.0;" x1="71.5" x2="813.5" y1="510.6094" y2="510.6094"/><text fill="#000000" font-family="sans-serif" font-size="13" font-weight="bold" lengthAdjust="spacing" textLength="14" x="83.5" y="505.8545">11</text><text fill="#000000" font-family="sans-serif" font-size="13" lengthAdjust="spacing" textLength="104" x="101.5" y="505.8545">requests photo uri</text><polygon fill="#181818" points="802.5,535.1328,812.5,539.1328,802.5,543.1328,806.5,539.1328" style="stroke:#181818;stroke-width:1.0;"/><line style="stroke:#181818;stroke-width:1.0;" x1="66.5" x2="808.5" y1="539.1328" y2="539.1328"/><text fill="#000000" font-family="sans-serif" font-size="13" font-weight="bold" lengthAdjust="spacing" textLength="14" x="73.5" y="534.3779">12</text><text fill="#000000" font-family="sans-serif" font-size="13" lengthAdjust="spacing" textLength="93" x="91.5" y="534.3779">inserts photo uri</text><path d="M20,561.1328 L85,561.1328 L85,567.6563 L75,577.6563 L20,577.6563 L20,561.1328 " fill="#EEEEEE" style="stroke:#000000;stroke-width:1.5;"/><rect fill="none" height="248.7109" style="stroke:#000000;stroke-width:1.5;" width="846.5" x="20" y="561.1328"/><text fill="#000000" font-family="sans-serif" font-size="13" font-weight="bold" lengthAdjust="spacing" textLength="20" x="35" y="573.9014">opt</text><text fill="#000000" font-family="sans-serif" font-size="11" font-weight="bold" lengthAdjust="spacing" textLength="185" x="100" y="573.0908">[property is an Apartment/House]</text><polygon fill="#181818" points="77.5,594.1797,67.5,598.1797,77.5,602.1797,73.5,598.1797" style="stroke:#181818;stroke-width:1.0;"/><line style="stroke:#181818;stroke-width:1.0;stroke-dasharray:2.0,2.0;" x1="71.5" x2="813.5" y1="598.1797" y2="598.1797"/><text fill="#000000" font-family="sans-serif" font-size="13" font-weight="bold" lengthAdjust="spacing" textLength="14" x="83.5" y="593.4248">13</text><text fill="#000000" font-family="sans-serif" font-size="13" lengthAdjust="spacing" textLength="79" x="101.5" y="593.4248">requests data</text><polygon fill="#181818" points="797.5,622.7031,807.5,626.7031,797.5,630.7031,801.5,626.7031" style="stroke:#181818;stroke-width:1.0;"/><line style="stroke:#181818;stroke-width:1.0;" x1="66.5" x2="803.5" y1="626.7031" y2="626.7031"/><text fill="#000000" font-family="sans-serif" font-size="13" font-weight="bold" lengthAdjust="spacing" textLength="14" x="73.5" y="621.9482">14</text><text fill="#000000" font-family="sans-serif" font-size="13" lengthAdjust="spacing" textLength="460" x="91.5" y="621.9482">types the requested data (number of bedrooms and bathrooms, parking spaces)</text><path d="M30,641.7031 L103,641.7031 L103,648.2266 L93,658.2266 L30,658.2266 L30,641.7031 " fill="#EEEEEE" style="stroke:#000000;stroke-width:1.5;"/><rect fill="none" height="73.5703" style="stroke:#000000;stroke-width:1.5;" width="826.5" x="30" y="641.7031"/><text fill="#000000" font-family="sans-serif" font-size="13" font-weight="bold" lengthAdjust="spacing" textLength="28" x="45" y="654.4717">loop</text><text fill="#000000" font-family="sans-serif" font-size="11" font-weight="bold" lengthAdjust="spacing" textLength="182" x="118" y="653.6611">[while !(availableEquipment == 0)]</text><polygon fill="#181818" points="77.5,674.75,67.5,678.75,77.5,682.75,73.5,678.75" style="stroke:#181818;stroke-width:1.0;"/><line style="stroke:#181818;stroke-width:1.0;stroke-dasharray:2.0,2.0;" x1="71.5" x2="813.5" y1="678.75" y2="678.75"/><text fill="#000000" font-family="sans-serif" font-size="13" font-weight="bold" lengthAdjust="spacing" textLength="14" x="83.5" y="673.9951">15</text><text fill="#000000" font-family="sans-serif" font-size="13" lengthAdjust="spacing" textLength="167" x="101.5" y="673.9951">requests available equipment</text><polygon fill="#181818" points="802.5,703.2734,812.5,707.2734,802.5,711.2734,806.5,707.2734" style="stroke:#181818;stroke-width:1.0;"/><line style="stroke:#181818;stroke-width:1.0;" x1="66.5" x2="808.5" y1="707.2734" y2="707.2734"/><text fill="#000000" font-family="sans-serif" font-size="13" font-weight="bold" lengthAdjust="spacing" textLength="14" x="73.5" y="702.5186">16</text><text fill="#000000" font-family="sans-serif" font-size="13" lengthAdjust="spacing" textLength="149" x="91.5" y="702.5186">types available equipment</text><path d="M30,729.2734 L95,729.2734 L95,735.7969 L85,745.7969 L30,745.7969 L30,729.2734 " fill="#EEEEEE" style="stroke:#000000;stroke-width:1.5;"/><rect fill="none" height="73.5703" style="stroke:#000000;stroke-width:1.5;" width="826.5" x="30" y="729.2734"/><text fill="#000000" font-family="sans-serif" font-size="13" font-weight="bold" lengthAdjust="spacing" textLength="20" x="45" y="742.042">opt</text><text fill="#000000" font-family="sans-serif" font-size="11" font-weight="bold" lengthAdjust="spacing" textLength="116" x="110" y="741.2314">[property is a House]</text><polygon fill="#181818" points="77.5,762.3203,67.5,766.3203,77.5,770.3203,73.5,766.3203" style="stroke:#181818;stroke-width:1.0;"/><line style="stroke:#181818;stroke-width:1.0;stroke-dasharray:2.0,2.0;" x1="71.5" x2="813.5" y1="766.3203" y2="766.3203"/><text fill="#000000" font-family="sans-serif" font-size="13" font-weight="bold" lengthAdjust="spacing" textLength="14" x="83.5" y="761.5654">17</text><text fill="#000000" font-family="sans-serif" font-size="13" lengthAdjust="spacing" textLength="79" x="101.5" y="761.5654">requests data</text><polygon fill="#181818" points="797.5,790.8438,807.5,794.8438,797.5,798.8438,801.5,794.8438" style="stroke:#181818;stroke-width:1.0;"/><line style="stroke:#181818;stroke-width:1.0;" x1="66.5" x2="803.5" y1="794.8438" y2="794.8438"/><text fill="#000000" font-family="sans-serif" font-size="13" font-weight="bold" lengthAdjust="spacing" textLength="14" x="73.5" y="790.0889">18</text><text fill="#000000" font-family="sans-serif" font-size="13" lengthAdjust="spacing" textLength="496" x="91.5" y="790.0889">types the requested data (existence of a basement and inhabitable loft, sun exposure)</text><polygon fill="#181818" points="77.5,833.3672,67.5,837.3672,77.5,841.3672,73.5,837.3672" style="stroke:#181818;stroke-width:1.0;"/><line style="stroke:#181818;stroke-width:1.0;stroke-dasharray:2.0,2.0;" x1="71.5" x2="813.5" y1="837.3672" y2="837.3672"/><text fill="#000000" font-family="sans-serif" font-size="13" font-weight="bold" lengthAdjust="spacing" textLength="14" x="83.5" y="832.6123">19</text><text fill="#000000" font-family="sans-serif" font-size="13" lengthAdjust="spacing" textLength="79" x="101.5" y="832.6123">requests data</text><polygon fill="#181818" points="797.5,861.8906,807.5,865.8906,797.5,869.8906,801.5,865.8906" style="stroke:#181818;stroke-width:1.0;"/><line style="stroke:#181818;stroke-width:1.0;" x1="66.5" x2="803.5" y1="865.8906" y2="865.8906"/><text fill="#000000" font-family="sans-serif" font-size="13" font-weight="bold" lengthAdjust="spacing" textLength="14" x="73.5" y="861.1357">20</text><text fill="#000000" font-family="sans-serif" font-size="13" lengthAdjust="spacing" textLength="212" x="91.5" y="861.1357">types comission type and comission</text><polygon fill="#181818" points="77.5,890.4141,67.5,894.4141,77.5,898.4141,73.5,894.4141" style="stroke:#181818;stroke-width:1.0;"/><line style="stroke:#181818;stroke-width:1.0;stroke-dasharray:2.0,2.0;" x1="71.5" x2="813.5" y1="894.4141" y2="894.4141"/><text fill="#000000" font-family="sans-serif" font-size="13" font-weight="bold" lengthAdjust="spacing" textLength="14" x="83.5" y="889.6592">21</text><text fill="#000000" font-family="sans-serif" font-size="13" lengthAdjust="spacing" textLength="168" x="101.5" y="889.6592">presents all the data inserted</text><polygon fill="#181818" points="797.5,918.9375,807.5,922.9375,797.5,926.9375,801.5,922.9375" style="stroke:#181818;stroke-width:1.0;"/><line style="stroke:#181818;stroke-width:1.0;" x1="66.5" x2="803.5" y1="922.9375" y2="922.9375"/><text fill="#000000" font-family="sans-serif" font-size="13" font-weight="bold" lengthAdjust="spacing" textLength="14" x="73.5" y="918.1826">22</text><text fill="#000000" font-family="sans-serif" font-size="13" lengthAdjust="spacing" textLength="128" x="91.5" y="918.1826">confirms inserted data</text><polygon fill="#181818" points="77.5,947.4609,67.5,951.4609,77.5,955.4609,73.5,951.4609" style="stroke:#181818;stroke-width:1.0;"/><line style="stroke:#181818;stroke-width:1.0;stroke-dasharray:2.0,2.0;" x1="71.5" x2="813.5" y1="951.4609" y2="951.4609"/><text fill="#000000" font-family="sans-serif" font-size="13" font-weight="bold" lengthAdjust="spacing" textLength="14" x="83.5" y="946.7061">23</text><text fill="#000000" font-family="sans-serif" font-size="13" lengthAdjust="spacing" textLength="378" x="101.5" y="946.7061">publishes announcement and sends sms notification to the owner</text><!--SRC=[lLPDRzim3BtxLt0zDK2A3JiMsu027R3R1kGNC3Pj4x4bLwIRvj-FaZ-ITccQjC1yaYpo-Jq-Ih9is7KOi8NMEv_NmRS46dhAP5xfCDzWHIlTDGI1SaLNDOS1KcFXj-mgAB4HoZ9bjT3LJfHQMD53Joudk6UiOlZrQdM_o3BirRk-NLEmSQu-mDLTHKwl00NIA3DuvPmxT0fNjmDUMXw6AOyVKMcCpy2UD8IR7zFtRorX8w3Uk5Tihm8WEDe2EkTx8zREgJFSX0_ZCqBT6Ee0VsjW9ajKm6-TGLABt0m91Ht5-PUNxZewadyq6niT8vtNIKanh1rXzreekI92lSHy7lIMuiWRV0bTy1q5tLqeMwYn9ZBXBg5eJMCbAdua1zSORO-cBA7slLXGW0PTiVY0IGKglikTo6v4eIB16C502EoW_Re4qK2aW4KWaINahBluqk2NK3RUg0yzleJYsSJAZN5JbBRZKXRaHY0kTO5pEgNrbCu1FvbJU_LoeMPsOeQ-1cDoEjZMR7kRuTiOzBlySn1oCU643ttWTp9zaH_xEz8SPhxJkKc1nNOyt4tDzVbNxArzztomhKwGlxIzziLVKn6yRoFn0jQeTPfPYs3OnEDMx6WcMUm_S-3Gfsjyj2C5rmtzVEYvYvhX-tVuiZX3ypdQPtYW2Vz3fJY9zzpNezx22qFV57Y-iMyekjHWUeg7RTpzvZ6QiPBkeEGoknhNhAaEZI_j39JU0JrrNlf0YpFbnN9PWVPxOfxyL_6vRrc4lHkkZAXlVdMcaYCyEpjgRMIMDqsgRwhgS21CLzZPvqZkNSd1jjYKVw3-8bBzkc6fOnyV_5OaoKQs413xXjt7N7AEcahY4_bq0Rz6Uhgk3rR6Fvs_]--></g></svg>