<?xml version="1.0" encoding="us-ascii" standalone="no"?><svg xmlns="http://www.w3.org/2000/svg" xmlns:xlink="http://www.w3.org/1999/xlink" contentStyleType="text/css" height="751px" preserveAspectRatio="none" style="width:1258px;height:751px;background:#FFFFFF;" version="1.1" viewBox="0 0 1258 751" width="1258px" zoomAndPan="magnify"><defs/><g><rect fill="#FFFFFF" height="562.5391" style="stroke:#181818;stroke-width:1.0;" width="10" x="69.5" y="90.6406"/><rect fill="#FFFFFF" height="256.7109" style="stroke:#181818;stroke-width:1.0;" width="10" x="314.5" y="111.1641"/><rect fill="#FFFFFF" height="256.7813" style="stroke:#181818;stroke-width:1.0;" width="10" x="314.5" y="396.3984"/><rect fill="#FFFFFF" height="199.6641" style="stroke:#181818;stroke-width:1.0;" width="10" x="559.5" y="139.6875"/><rect fill="#FFFFFF" height="127.6875" style="stroke:#181818;stroke-width:1.0;" width="10" x="559.5" y="489.9688"/><rect fill="#FFFFFF" height="28.5234" style="stroke:#181818;stroke-width:1.0;" width="10" x="713" y="168.2109"/><rect fill="#FFFFFF" height="28.5234" style="stroke:#181818;stroke-width:1.0;" width="10" x="820" y="225.2578"/><rect fill="#FFFFFF" height="28.5234" style="stroke:#181818;stroke-width:1.0;" width="10" x="959.5" y="282.3047"/><rect fill="#FFFFFF" height="30" style="stroke:#181818;stroke-width:1.0;" width="10" x="1082.5" y="587.6563"/><rect fill="#FFFFFF" height="30.6406" style="stroke:#181818;stroke-width:1.0;" width="10" x="1181" y="528.4922"/><rect fill="none" height="214.2578" style="stroke:#000000;stroke-width:1.5;" width="1013" x="239.5" y="411.3984"/><line style="stroke:#181818;stroke-width:0.5;stroke-dasharray:5.0,5.0;" x1="74" x2="74" y1="80.6406" y2="671.1797"/><line style="stroke:#181818;stroke-width:0.5;stroke-dasharray:5.0,5.0;" x1="319.5" x2="319.5" y1="80.6406" y2="671.1797"/><line style="stroke:#181818;stroke-width:0.5;stroke-dasharray:5.0,5.0;" x1="564.5" x2="564.5" y1="80.6406" y2="671.1797"/><line style="stroke:#181818;stroke-width:0.5;stroke-dasharray:5.0,5.0;" x1="717.5" x2="717.5" y1="80.6406" y2="671.1797"/><line style="stroke:#181818;stroke-width:0.5;stroke-dasharray:5.0,5.0;" x1="824.5" x2="824.5" y1="80.6406" y2="671.1797"/><line style="stroke:#181818;stroke-width:0.5;stroke-dasharray:5.0,5.0;" x1="964.5" x2="964.5" y1="80.6406" y2="671.1797"/><line style="stroke:#181818;stroke-width:0.5;stroke-dasharray:5.0,5.0;" x1="1087.5" x2="1087.5" y1="80.6406" y2="671.1797"/><line style="stroke:#181818;stroke-width:0.5;stroke-dasharray:5.0,5.0;" x1="1185.5" x2="1185.5" y1="528.2891" y2="671.1797"/><text fill="#000000" font-family="sans-serif" font-size="14" lengthAdjust="spacing" textLength="133" x="5" y="77.6738">System Administrator</text><ellipse cx="74.5" cy="13.5" fill="#E3E3E3" rx="8" ry="8" style="stroke:#181818;stroke-width:0.5;"/><path d="M74.5,21.5 L74.5,48.5 M61.5,29.5 L87.5,29.5 M74.5,48.5 L61.5,63.5 M74.5,48.5 L87.5,63.5 " fill="none" style="stroke:#181818;stroke-width:0.5;"/><text fill="#000000" font-family="sans-serif" font-size="14" lengthAdjust="spacing" textLength="133" x="5" y="682.8535">System Administrator</text><ellipse cx="74.5" cy="694.3203" fill="#E3E3E3" rx="8" ry="8" style="stroke:#181818;stroke-width:0.5;"/><path d="M74.5,702.3203 L74.5,729.3203 M61.5,710.3203 L87.5,710.3203 M74.5,729.3203 L61.5,744.3203 M74.5,729.3203 L87.5,744.3203 " fill="none" style="stroke:#181818;stroke-width:0.5;"/><rect fill="#E3E3E3" height="29.6406" rx="2.5" ry="2.5" style="stroke:#181818;stroke-width:0.5;" width="140" x="249.5" y="50"/><text fill="#000000" font-family="sans-serif" font-size="14" lengthAdjust="spacing" textLength="126" x="256.5" y="69.6738">:ShowLegacyDataUI</text><rect fill="#E3E3E3" height="29.6406" rx="2.5" ry="2.5" style="stroke:#181818;stroke-width:0.5;" width="140" x="249.5" y="670.1797"/><text fill="#000000" font-family="sans-serif" font-size="14" lengthAdjust="spacing" textLength="126" x="256.5" y="689.8535">:ShowLegacyDataUI</text><rect fill="#E3E3E3" height="29.6406" rx="2.5" ry="2.5" style="stroke:#181818;stroke-width:0.5;" width="190" x="469.5" y="50"/><text fill="#000000" font-family="sans-serif" font-size="14" lengthAdjust="spacing" textLength="176" x="476.5" y="69.6738">:ShowLegacyDataController</text><rect fill="#E3E3E3" height="29.6406" rx="2.5" ry="2.5" style="stroke:#181818;stroke-width:0.5;" width="190" x="469.5" y="670.1797"/><text fill="#000000" font-family="sans-serif" font-size="14" lengthAdjust="spacing" textLength="176" x="476.5" y="689.8535">:ShowLegacyDataController</text><rect fill="#E3E3E3" height="29.6406" rx="2.5" ry="2.5" style="stroke:#181818;stroke-width:0.5;" width="97" x="669.5" y="50"/><text fill="#000000" font-family="sans-serif" font-size="14" lengthAdjust="spacing" textLength="83" x="676.5" y="69.6738">:Repositories</text><rect fill="#E3E3E3" height="29.6406" rx="2.5" ry="2.5" style="stroke:#181818;stroke-width:0.5;" width="97" x="669.5" y="670.1797"/><text fill="#000000" font-family="sans-serif" font-size="14" lengthAdjust="spacing" textLength="83" x="676.5" y="689.8535">:Repositories</text><rect fill="#E3E3E3" height="45.2813" rx="2.5" ry="2.5" style="stroke:#181818;stroke-width:0.5;" width="97" x="776.5" y="34.3594"/><text fill="#000000" font-family="sans-serif" font-size="14" lengthAdjust="spacing" textLength="74" x="788" y="54.0332">repositories</text><text fill="#000000" font-family="sans-serif" font-size="14" lengthAdjust="spacing" textLength="83" x="783.5" y="69.6738">:Repositories</text><rect fill="#E3E3E3" height="45.2813" rx="2.5" ry="2.5" style="stroke:#181818;stroke-width:0.5;" width="97" x="776.5" y="670.1797"/><text fill="#000000" font-family="sans-serif" font-size="14" lengthAdjust="spacing" textLength="74" x="788" y="689.8535">repositories</text><text fill="#000000" font-family="sans-serif" font-size="14" lengthAdjust="spacing" textLength="83" x="783.5" y="705.4941">:Repositories</text><rect fill="#E3E3E3" height="29.6406" rx="2.5" ry="2.5" style="stroke:#181818;stroke-width:0.5;" width="162" x="883.5" y="50"/><text fill="#000000" font-family="sans-serif" font-size="14" lengthAdjust="spacing" textLength="148" x="890.5" y="69.6738">:LegacyDataRepository</text><rect fill="#E3E3E3" height="29.6406" rx="2.5" ry="2.5" style="stroke:#181818;stroke-width:0.5;" width="162" x="883.5" y="670.1797"/><text fill="#000000" font-family="sans-serif" font-size="14" lengthAdjust="spacing" textLength="148" x="890.5" y="689.8535">:LegacyDataRepository</text><rect fill="#E3E3E3" height="29.6406" rx="2.5" ry="2.5" style="stroke:#181818;stroke-width:0.5;" width="64" x="1055.5" y="50"/><text fill="#000000" font-family="sans-serif" font-size="14" lengthAdjust="spacing" textLength="50" x="1062.5" y="69.6738">:agency</text><rect fill="#E3E3E3" height="29.6406" rx="2.5" ry="2.5" style="stroke:#181818;stroke-width:0.5;" width="64" x="1055.5" y="670.1797"/><text fill="#000000" font-family="sans-serif" font-size="14" lengthAdjust="spacing" textLength="50" x="1062.5" y="689.8535">:agency</text><rect fill="#E3E3E3" height="29.6406" rx="2.5" ry="2.5" style="stroke:#181818;stroke-width:0.5;" width="113" x="1129.5" y="670.1797"/><text fill="#000000" font-family="sans-serif" font-size="14" lengthAdjust="spacing" textLength="99" x="1136.5" y="689.8535">:Announcement</text><rect fill="#FFFFFF" height="562.5391" style="stroke:#181818;stroke-width:1.0;" width="10" x="69.5" y="90.6406"/><rect fill="#FFFFFF" height="256.7109" style="stroke:#181818;stroke-width:1.0;" width="10" x="314.5" y="111.1641"/><rect fill="#FFFFFF" height="256.7813" style="stroke:#181818;stroke-width:1.0;" width="10" x="314.5" y="396.3984"/><rect fill="#FFFFFF" height="199.6641" style="stroke:#181818;stroke-width:1.0;" width="10" x="559.5" y="139.6875"/><rect fill="#FFFFFF" height="127.6875" style="stroke:#181818;stroke-width:1.0;" width="10" x="559.5" y="489.9688"/><rect fill="#FFFFFF" height="28.5234" style="stroke:#181818;stroke-width:1.0;" width="10" x="713" y="168.2109"/><rect fill="#FFFFFF" height="28.5234" style="stroke:#181818;stroke-width:1.0;" width="10" x="820" y="225.2578"/><rect fill="#FFFFFF" height="28.5234" style="stroke:#181818;stroke-width:1.0;" width="10" x="959.5" y="282.3047"/><rect fill="#FFFFFF" height="30" style="stroke:#181818;stroke-width:1.0;" width="10" x="1082.5" y="587.6563"/><rect fill="#FFFFFF" height="30.6406" style="stroke:#181818;stroke-width:1.0;" width="10" x="1181" y="528.4922"/><polygon fill="#181818" points="302.5,107.1641,312.5,111.1641,302.5,115.1641,306.5,111.1641" style="stroke:#181818;stroke-width:1.0;"/><line style="stroke:#181818;stroke-width:1.0;stroke-dasharray:2.0,2.0;" x1="79.5" x2="308.5" y1="111.1641" y2="111.1641"/><text fill="#000000" font-family="sans-serif" font-size="13" font-weight="bold" lengthAdjust="spacing" textLength="7" x="86.5" y="106.4092">1</text><text fill="#000000" font-family="sans-serif" font-size="13" lengthAdjust="spacing" textLength="205" x="97.5" y="106.4092">Asks to show LegacyDataFiles List</text><polygon fill="#181818" points="547.5,135.6875,557.5,139.6875,547.5,143.6875,551.5,139.6875" style="stroke:#181818;stroke-width:1.0;"/><line style="stroke:#181818;stroke-width:1.0;stroke-dasharray:2.0,2.0;" x1="324.5" x2="553.5" y1="139.6875" y2="139.6875"/><text fill="#000000" font-family="sans-serif" font-size="13" font-weight="bold" lengthAdjust="spacing" textLength="7" x="331.5" y="134.9326">2</text><text fill="#000000" font-family="sans-serif" font-size="13" lengthAdjust="spacing" textLength="205" x="342.5" y="134.9326">Asks to show LegacyDataFiles List</text><polygon fill="#181818" points="701,164.2109,711,168.2109,701,172.2109,705,168.2109" style="stroke:#181818;stroke-width:1.0;"/><line style="stroke:#181818;stroke-width:1.0;stroke-dasharray:2.0,2.0;" x1="569.5" x2="707" y1="168.2109" y2="168.2109"/><text fill="#000000" font-family="sans-serif" font-size="13" font-weight="bold" lengthAdjust="spacing" textLength="7" x="576.5" y="163.4561">3</text><text fill="#000000" font-family="sans-serif" font-size="13" lengthAdjust="spacing" textLength="67" x="587.5" y="163.4561">getInstance</text><polygon fill="#181818" points="580.5,192.7344,570.5,196.7344,580.5,200.7344,576.5,196.7344" style="stroke:#181818;stroke-width:1.0;"/><line style="stroke:#181818;stroke-width:1.0;stroke-dasharray:2.0,2.0;" x1="574.5" x2="717" y1="196.7344" y2="196.7344"/><text fill="#000000" font-family="sans-serif" font-size="13" font-weight="bold" lengthAdjust="spacing" textLength="7" x="586.5" y="191.9795">4</text><text fill="#000000" font-family="sans-serif" font-size="13" lengthAdjust="spacing" textLength="67" x="597.5" y="191.9795">repositories</text><polygon fill="#181818" points="808,221.2578,818,225.2578,808,229.2578,812,225.2578" style="stroke:#181818;stroke-width:1.0;"/><line style="stroke:#181818;stroke-width:1.0;stroke-dasharray:2.0,2.0;" x1="569.5" x2="814" y1="225.2578" y2="225.2578"/><text fill="#000000" font-family="sans-serif" font-size="13" font-weight="bold" lengthAdjust="spacing" textLength="7" x="576.5" y="220.5029">5</text><text fill="#000000" font-family="sans-serif" font-size="13" lengthAdjust="spacing" textLength="165" x="587.5" y="220.5029">show LegacyDataRepository</text><polygon fill="#181818" points="580.5,249.7813,570.5,253.7813,580.5,257.7813,576.5,253.7813" style="stroke:#181818;stroke-width:1.0;"/><line style="stroke:#181818;stroke-width:1.0;stroke-dasharray:2.0,2.0;" x1="574.5" x2="824" y1="253.7813" y2="253.7813"/><text fill="#000000" font-family="sans-serif" font-size="13" font-weight="bold" lengthAdjust="spacing" textLength="7" x="586.5" y="249.0264">6</text><text fill="#000000" font-family="sans-serif" font-size="13" lengthAdjust="spacing" textLength="131" x="597.5" y="249.0264">LegacyDataRepository</text><polygon fill="#181818" points="947.5,278.3047,957.5,282.3047,947.5,286.3047,951.5,282.3047" style="stroke:#181818;stroke-width:1.0;"/><line style="stroke:#181818;stroke-width:1.0;stroke-dasharray:2.0,2.0;" x1="569.5" x2="953.5" y1="282.3047" y2="282.3047"/><text fill="#000000" font-family="sans-serif" font-size="13" font-weight="bold" lengthAdjust="spacing" textLength="7" x="576.5" y="277.5498">7</text><text fill="#000000" font-family="sans-serif" font-size="13" lengthAdjust="spacing" textLength="108" x="587.5" y="277.5498">getLegacyDataList</text><polygon fill="#181818" points="580.5,306.8281,570.5,310.8281,580.5,314.8281,576.5,310.8281" style="stroke:#181818;stroke-width:1.0;"/><line style="stroke:#181818;stroke-width:1.0;stroke-dasharray:2.0,2.0;" x1="574.5" x2="963.5" y1="310.8281" y2="310.8281"/><text fill="#000000" font-family="sans-serif" font-size="13" font-weight="bold" lengthAdjust="spacing" textLength="7" x="586.5" y="306.0732">8</text><text fill="#000000" font-family="sans-serif" font-size="13" lengthAdjust="spacing" textLength="90" x="597.5" y="306.0732">LegacyDataList</text><polygon fill="#181818" points="335.5,335.3516,325.5,339.3516,335.5,343.3516,331.5,339.3516" style="stroke:#181818;stroke-width:1.0;"/><line style="stroke:#181818;stroke-width:1.0;stroke-dasharray:2.0,2.0;" x1="329.5" x2="563.5" y1="339.3516" y2="339.3516"/><text fill="#000000" font-family="sans-serif" font-size="13" font-weight="bold" lengthAdjust="spacing" textLength="7" x="341.5" y="334.5967">9</text><text fill="#000000" font-family="sans-serif" font-size="13" lengthAdjust="spacing" textLength="90" x="352.5" y="334.5967">LegacyDataList</text><polygon fill="#181818" points="90.5,363.875,80.5,367.875,90.5,371.875,86.5,367.875" style="stroke:#181818;stroke-width:1.0;"/><line style="stroke:#181818;stroke-width:1.0;stroke-dasharray:2.0,2.0;" x1="84.5" x2="318.5" y1="367.875" y2="367.875"/><text fill="#000000" font-family="sans-serif" font-size="13" font-weight="bold" lengthAdjust="spacing" textLength="14" x="96.5" y="363.1201">10</text><text fill="#000000" font-family="sans-serif" font-size="13" lengthAdjust="spacing" textLength="90" x="114.5" y="363.1201">LegacyDataList</text><polygon fill="#181818" points="302.5,392.3984,312.5,396.3984,302.5,400.3984,306.5,396.3984" style="stroke:#181818;stroke-width:1.0;"/><line style="stroke:#181818;stroke-width:1.0;stroke-dasharray:2.0,2.0;" x1="79.5" x2="308.5" y1="396.3984" y2="396.3984"/><text fill="#000000" font-family="sans-serif" font-size="13" font-weight="bold" lengthAdjust="spacing" textLength="14" x="86.5" y="391.6436">11</text><text fill="#000000" font-family="sans-serif" font-size="13" lengthAdjust="spacing" textLength="165" x="104.5" y="391.6436">Shows selected LegacyData</text><path d="M239.5,411.3984 L312.5,411.3984 L312.5,417.9219 L302.5,427.9219 L239.5,427.9219 L239.5,411.3984 " fill="#EEEEEE" style="stroke:#000000;stroke-width:1.5;"/><rect fill="none" height="214.2578" style="stroke:#000000;stroke-width:1.5;" width="1013" x="239.5" y="411.3984"/><text fill="#000000" font-family="sans-serif" font-size="13" font-weight="bold" lengthAdjust="spacing" textLength="28" x="254.5" y="424.167">loop</text><text fill="#000000" font-family="sans-serif" font-size="11" font-weight="bold" lengthAdjust="spacing" textLength="190" x="327.5" y="423.3564">[while (LegacyData.hasNextLine())]</text><line style="stroke:#181818;stroke-width:1.0;stroke-dasharray:2.0,2.0;" x1="324.5" x2="366.5" y1="448.4453" y2="448.4453"/><line style="stroke:#181818;stroke-width:1.0;stroke-dasharray:2.0,2.0;" x1="366.5" x2="366.5" y1="448.4453" y2="461.4453"/><line style="stroke:#181818;stroke-width:1.0;stroke-dasharray:2.0,2.0;" x1="325.5" x2="366.5" y1="461.4453" y2="461.4453"/><polygon fill="#181818" points="335.5,457.4453,325.5,461.4453,335.5,465.4453,331.5,461.4453" style="stroke:#181818;stroke-width:1.0;"/><text fill="#000000" font-family="sans-serif" font-size="13" font-weight="bold" lengthAdjust="spacing" textLength="14" x="331.5" y="443.6904">12</text><text fill="#000000" font-family="sans-serif" font-size="13" lengthAdjust="spacing" textLength="88" x="349.5" y="443.6904">create Request</text><polygon fill="#181818" points="547.5,485.9688,557.5,489.9688,547.5,493.9688,551.5,489.9688" style="stroke:#181818;stroke-width:1.0;"/><line style="stroke:#181818;stroke-width:1.0;stroke-dasharray:2.0,2.0;" x1="324.5" x2="553.5" y1="489.9688" y2="489.9688"/><text fill="#000000" font-family="sans-serif" font-size="13" font-weight="bold" lengthAdjust="spacing" textLength="14" x="331.5" y="485.2139">13</text><text fill="#000000" font-family="sans-serif" font-size="13" lengthAdjust="spacing" textLength="127" x="349.5" y="485.2139">create Announcement</text><polygon fill="#181818" points="1117.5,514.4922,1127.5,518.4922,1117.5,522.4922,1121.5,518.4922" style="stroke:#181818;stroke-width:1.0;"/><line style="stroke:#181818;stroke-width:1.0;stroke-dasharray:2.0,2.0;" x1="569.5" x2="1123.5" y1="518.4922" y2="518.4922"/><text fill="#000000" font-family="sans-serif" font-size="13" font-weight="bold" lengthAdjust="spacing" textLength="14" x="576.5" y="513.7373">14</text><text fill="#000000" font-family="sans-serif" font-size="13" lengthAdjust="spacing" textLength="36" x="594.5" y="513.7373">create</text><rect fill="#E3E3E3" height="29.6406" rx="2.5" ry="2.5" style="stroke:#181818;stroke-width:0.5;" width="113" x="1129.5" y="497.9688"/><text fill="#000000" font-family="sans-serif" font-size="14" lengthAdjust="spacing" textLength="99" x="1136.5" y="517.6426">:Announcement</text><polygon fill="#181818" points="580.5,555.1328,570.5,559.1328,580.5,563.1328,576.5,559.1328" style="stroke:#181818;stroke-width:1.0;"/><line style="stroke:#181818;stroke-width:1.0;stroke-dasharray:2.0,2.0;" x1="574.5" x2="1185" y1="559.1328" y2="559.1328"/><text fill="#000000" font-family="sans-serif" font-size="13" font-weight="bold" lengthAdjust="spacing" textLength="14" x="586.5" y="554.3779">15</text><text fill="#000000" font-family="sans-serif" font-size="13" lengthAdjust="spacing" textLength="87" x="604.5" y="554.3779">Announcement</text><polygon fill="#181818" points="1070.5,583.6563,1080.5,587.6563,1070.5,591.6563,1074.5,587.6563" style="stroke:#181818;stroke-width:1.0;"/><line style="stroke:#181818;stroke-width:1.0;stroke-dasharray:2.0,2.0;" x1="569.5" x2="1076.5" y1="587.6563" y2="587.6563"/><text fill="#000000" font-family="sans-serif" font-size="13" font-weight="bold" lengthAdjust="spacing" textLength="14" x="576.5" y="582.9014">16</text><text fill="#000000" font-family="sans-serif" font-size="13" lengthAdjust="spacing" textLength="108" x="594.5" y="582.9014">addAnnouncement</text><polygon fill="#181818" points="85.5,649.1797,75.5,653.1797,85.5,657.1797,81.5,653.1797" style="stroke:#181818;stroke-width:1.0;"/><line style="stroke:#181818;stroke-width:1.0;stroke-dasharray:2.0,2.0;" x1="79.5" x2="318.5" y1="653.1797" y2="653.1797"/><text fill="#000000" font-family="sans-serif" font-size="13" font-weight="bold" lengthAdjust="spacing" textLength="14" x="91.5" y="648.4248">17</text><text fill="#000000" font-family="sans-serif" font-size="13" lengthAdjust="spacing" textLength="125" x="109.5" y="648.4248">Show operation result</text><!--SRC=[dLN1Rjim3BthAuXSrXReFY270K6B0G6o7PhrjeigixOGM_GaUMd-VhJSof9JDSLyQaM-foVoaN47RNffPGST6LADfGx1sm65Yv5UgeEiSUzFBO95vQMfspJ1DRAYepOrFClMeH1oy6I6xWcj45yQNI4y4_adUX5IURAmsf-SnmusLQUDTjvAFbs1TB2v_o6Or6kbUsayhDRxXeuxhAKwtKil7xSXxN7xOTOT6M-fRN4YlVlri5laFs1FJlEj6bt8IG_oN9j4Vfjpf2qYrxEYY3e5J1i32mJNsQWfP_fp4TyOGuDHsA7nKy6I0o60Fown_YizXbg6a_7ZV-3szXjN3jQmSGS7dhXnT8HPv7VTeeCTDsJ6HJOkUJnaaf5hhEj_ieMMnED0D3AcnMNc6ltMEFQRObETasGzYs7-Cff4gIq1AhnC6aNQNEJYsNEdCtJaBsgm1T4NgHFnzgBusNbJVMVsqAdt52TcJUC9qxjgyyxdEWkKKMLmwUUeSYVDvXmDVywH04T3YsminYNYm67BEmwh1FlnD70fY7g0OyEEXwiPzhMHxYU- -9qsU7LzBKIcyqrek5fPdCptPy35MnVJzffvFlSNPYohRug-kOci1QBoNMaaMmb5HDA0SbBKEUr09fHLzOaNlwxCuesX8eNO6nPD5VfvjkqcGuqU0UgHVx8q6HuuDxJps2pj9PPF7bUo4Fy0]--></g></svg>