<?xml version="1.0" encoding="us-ascii" standalone="no"?><svg xmlns="http://www.w3.org/2000/svg" xmlns:xlink="http://www.w3.org/1999/xlink" contentStyleType="text/css" height="1059px" preserveAspectRatio="none" style="width:490px;height:1059px;background:#FFFFFF;" version="1.1" viewBox="0 0 490 1059" width="490px" zoomAndPan="magnify"><defs/><g><!--class ShowLegacyDataUI--><g id="elem_ShowLegacyDataUI"><rect codeLine="11" fill="#F1F1F1" height="79.2813" id="ShowLegacyDataUI" rx="2.5" ry="2.5" style="stroke:#181818;stroke-width:0.5;" width="164" x="195.5" y="7"/><ellipse cx="215" cy="23" fill="#ADD1B2" rx="11" ry="11" style="stroke:#181818;stroke-width:1.0;"/><path d="M217,19.5 Q217.2031,19 217.4375,18.75 Q217.6719,18.5 217.9375,18.5 Q218.4063,18.5 218.7031,18.7813 Q219,19.0625 219,19.7188 L219,21.2813 Q219,21.9375 218.7188,22.2188 Q218.4375,22.5 218,22.5 Q217.6094,22.5 217.3594,22.3281 Q217.1094,22.1563 217,21.7031 Q216.9531,21.3906 216.7813,21.2188 Q216.4688,20.8906 215.9063,20.7031 Q215.3438,20.5 214.7813,20.5 Q214.0781,20.5 213.4844,20.7813 Q212.9063,21.0625 212.4531,21.6875 Q212,22.3125 212,23.1719 L212,24.0938 Q212,25.125 212.8438,25.8125 Q213.6875,26.5 215.1875,26.5 Q216.0781,26.5 216.7031,26.2969 Q217.0625,26.1875 217.4688,25.8281 Q217.7344,25.625 217.875,25.5625 Q218.0156,25.5 218.1875,25.5 Q218.5156,25.5 218.75,25.7656 Q219,26.0156 219,26.375 Q219,26.7188 218.6563,27.125 Q218.1563,27.7188 217.3594,28.0469 Q216.3125,28.5 215.0313,28.5 Q213.5313,28.5 212.3281,27.9063 Q211.3594,27.4375 210.6719,26.4219 Q210,25.4063 210,24.2031 L210,23.1094 Q210,21.8594 210.5938,20.7656 Q211.2031,19.6719 212.25,19.0938 Q213.3125,18.5 214.5,18.5 Q215.2188,18.5 215.8438,18.75 Q216.4688,19 217,19.5 Z " fill="#000000"/><text fill="#000000" font-family="sans-serif" font-size="14" lengthAdjust="spacing" textLength="122" x="230" y="27.8535">ShowLegacyDataUI</text><line style="stroke:#181818;stroke-width:0.5;" x1="196.5" x2="358.5" y1="39" y2="39"/><line style="stroke:#181818;stroke-width:0.5;" x1="196.5" x2="358.5" y1="47" y2="47"/><text fill="#000000" font-family="sans-serif" font-size="14" lengthAdjust="spacing" textLength="152" x="201.5" y="63.6738">+showLegacyDataList();</text><text fill="#000000" font-family="sans-serif" font-size="14" lengthAdjust="spacing" textLength="148" x="201.5" y="79.3145">+addAnnouncements();</text></g><!--class ShowLegacyDataController--><g id="elem_ShowLegacyDataController"><rect codeLine="16" fill="#F1F1F1" height="94.9219" id="ShowLegacyDataController" rx="2.5" ry="2.5" style="stroke:#181818;stroke-width:0.5;" width="204" x="175.5" y="147"/><ellipse cx="190.5" cy="163" fill="#ADD1B2" rx="11" ry="11" style="stroke:#181818;stroke-width:1.0;"/><path d="M192.5,159.5 Q192.7031,159 192.9375,158.75 Q193.1719,158.5 193.4375,158.5 Q193.9063,158.5 194.2031,158.7813 Q194.5,159.0625 194.5,159.7188 L194.5,161.2813 Q194.5,161.9375 194.2188,162.2188 Q193.9375,162.5 193.5,162.5 Q193.1094,162.5 192.8594,162.3281 Q192.6094,162.1563 192.5,161.7031 Q192.4531,161.3906 192.2813,161.2188 Q191.9688,160.8906 191.4063,160.7031 Q190.8438,160.5 190.2813,160.5 Q189.5781,160.5 188.9844,160.7813 Q188.4063,161.0625 187.9531,161.6875 Q187.5,162.3125 187.5,163.1719 L187.5,164.0938 Q187.5,165.125 188.3438,165.8125 Q189.1875,166.5 190.6875,166.5 Q191.5781,166.5 192.2031,166.2969 Q192.5625,166.1875 192.9688,165.8281 Q193.2344,165.625 193.375,165.5625 Q193.5156,165.5 193.6875,165.5 Q194.0156,165.5 194.25,165.7656 Q194.5,166.0156 194.5,166.375 Q194.5,166.7188 194.1563,167.125 Q193.6563,167.7188 192.8594,168.0469 Q191.8125,168.5 190.5313,168.5 Q189.0313,168.5 187.8281,167.9063 Q186.8594,167.4375 186.1719,166.4219 Q185.5,165.4063 185.5,164.2031 L185.5,163.1094 Q185.5,161.8594 186.0938,160.7656 Q186.7031,159.6719 187.75,159.0938 Q188.8125,158.5 190,158.5 Q190.7188,158.5 191.3438,158.75 Q191.9688,159 192.5,159.5 Z " fill="#000000"/><text fill="#000000" font-family="sans-serif" font-size="14" lengthAdjust="spacing" textLength="172" x="204.5" y="167.8535">ShowLegacyDataController</text><line style="stroke:#181818;stroke-width:0.5;" x1="176.5" x2="378.5" y1="179" y2="179"/><line style="stroke:#181818;stroke-width:0.5;" x1="176.5" x2="378.5" y1="187" y2="187"/><text fill="#000000" font-family="sans-serif" font-size="14" lengthAdjust="spacing" textLength="152" x="181.5" y="203.6738">+showLegacyDataList();</text><text fill="#000000" font-family="sans-serif" font-size="14" lengthAdjust="spacing" textLength="164" x="181.5" y="219.3145">+createAnnouncements();</text><text fill="#000000" font-family="sans-serif" font-size="14" lengthAdjust="spacing" textLength="148" x="181.5" y="234.9551">+addAnnouncements();</text></g><!--class AgencyRepository--><g id="elem_AgencyRepository"><rect codeLine="22" fill="#F1F1F1" height="110.5625" id="AgencyRepository" rx="2.5" ry="2.5" style="stroke:#181818;stroke-width:0.5;" width="223" x="49" y="490"/><ellipse cx="98.75" cy="506" fill="#ADD1B2" rx="11" ry="11" style="stroke:#181818;stroke-width:1.0;"/><path d="M100.75,502.5 Q100.9531,502 101.1875,501.75 Q101.4219,501.5 101.6875,501.5 Q102.1563,501.5 102.4531,501.7813 Q102.75,502.0625 102.75,502.7188 L102.75,504.2813 Q102.75,504.9375 102.4688,505.2188 Q102.1875,505.5 101.75,505.5 Q101.3594,505.5 101.1094,505.3281 Q100.8594,505.1563 100.75,504.7031 Q100.7031,504.3906 100.5313,504.2188 Q100.2188,503.8906 99.6563,503.7031 Q99.0938,503.5 98.5313,503.5 Q97.8281,503.5 97.2344,503.7813 Q96.6563,504.0625 96.2031,504.6875 Q95.75,505.3125 95.75,506.1719 L95.75,507.0938 Q95.75,508.125 96.5938,508.8125 Q97.4375,509.5 98.9375,509.5 Q99.8281,509.5 100.4531,509.2969 Q100.8125,509.1875 101.2188,508.8281 Q101.4844,508.625 101.625,508.5625 Q101.7656,508.5 101.9375,508.5 Q102.2656,508.5 102.5,508.7656 Q102.75,509.0156 102.75,509.375 Q102.75,509.7188 102.4063,510.125 Q101.9063,510.7188 101.1094,511.0469 Q100.0625,511.5 98.7813,511.5 Q97.2813,511.5 96.0781,510.9063 Q95.1094,510.4375 94.4219,509.4219 Q93.75,508.4063 93.75,507.2031 L93.75,506.1094 Q93.75,504.8594 94.3438,503.7656 Q94.9531,502.6719 96,502.0938 Q97.0625,501.5 98.25,501.5 Q98.9688,501.5 99.5938,501.75 Q100.2188,502 100.75,502.5 Z " fill="#000000"/><text fill="#000000" font-family="sans-serif" font-size="14" lengthAdjust="spacing" textLength="115" x="119.25" y="510.8535">AgencyRepository</text><line style="stroke:#181818;stroke-width:0.5;" x1="50" x2="271" y1="522" y2="522"/><text fill="#000000" font-family="sans-serif" font-size="14" lengthAdjust="spacing" textLength="211" x="55" y="538.6738">-ArrayList&lt;Agency&gt; listOfAgency;</text><line style="stroke:#181818;stroke-width:0.5;" x1="50" x2="271" y1="545.6406" y2="545.6406"/><text fill="#000000" font-family="sans-serif" font-size="14" lengthAdjust="spacing" textLength="137" x="55" y="562.3145">+AgencyRepository();</text><text fill="#000000" font-family="sans-serif" font-size="14" lengthAdjust="spacing" textLength="166" x="55" y="577.9551">+getListOfAnnoucement();</text><text fill="#000000" font-family="sans-serif" font-size="14" lengthAdjust="spacing" textLength="190" x="55" y="593.5957">+addAgency(Agency agency);</text></g><!--class Repositories--><g id="elem_Repositories"><rect codeLine="29" fill="#F1F1F1" height="110.5625" id="Repositories" rx="2.5" ry="2.5" style="stroke:#181818;stroke-width:0.5;" width="254" x="150.5" y="318"/><ellipse cx="233.75" cy="334" fill="#ADD1B2" rx="11" ry="11" style="stroke:#181818;stroke-width:1.0;"/><path d="M235.75,330.5 Q235.9531,330 236.1875,329.75 Q236.4219,329.5 236.6875,329.5 Q237.1563,329.5 237.4531,329.7813 Q237.75,330.0625 237.75,330.7188 L237.75,332.2813 Q237.75,332.9375 237.4688,333.2188 Q237.1875,333.5 236.75,333.5 Q236.3594,333.5 236.1094,333.3281 Q235.8594,333.1563 235.75,332.7031 Q235.7031,332.3906 235.5313,332.2188 Q235.2188,331.8906 234.6563,331.7031 Q234.0938,331.5 233.5313,331.5 Q232.8281,331.5 232.2344,331.7813 Q231.6563,332.0625 231.2031,332.6875 Q230.75,333.3125 230.75,334.1719 L230.75,335.0938 Q230.75,336.125 231.5938,336.8125 Q232.4375,337.5 233.9375,337.5 Q234.8281,337.5 235.4531,337.2969 Q235.8125,337.1875 236.2188,336.8281 Q236.4844,336.625 236.625,336.5625 Q236.7656,336.5 236.9375,336.5 Q237.2656,336.5 237.5,336.7656 Q237.75,337.0156 237.75,337.375 Q237.75,337.7188 237.4063,338.125 Q236.9063,338.7188 236.1094,339.0469 Q235.0625,339.5 233.7813,339.5 Q232.2813,339.5 231.0781,338.9063 Q230.1094,338.4375 229.4219,337.4219 Q228.75,336.4063 228.75,335.2031 L228.75,334.1094 Q228.75,332.8594 229.3438,331.7656 Q229.9531,330.6719 231,330.0938 Q232.0625,329.5 233.25,329.5 Q233.9688,329.5 234.5938,329.75 Q235.2188,330 235.75,330.5 Z " fill="#000000"/><text fill="#000000" font-family="sans-serif" font-size="14" lengthAdjust="spacing" textLength="79" x="254.25" y="338.8535">Repositories</text><line style="stroke:#181818;stroke-width:0.5;" x1="151.5" x2="403.5" y1="350" y2="350"/><text fill="#000000" font-family="sans-serif" font-size="14" lengthAdjust="spacing" textLength="242" x="156.5" y="366.6738">-AgencyRepository agencyRepository;</text><line style="stroke:#181818;stroke-width:0.5;" x1="151.5" x2="403.5" y1="373.6406" y2="373.6406"/><text fill="#000000" font-family="sans-serif" font-size="14" lengthAdjust="spacing" textLength="157" x="156.5" y="390.3145">+getAgencyRepository();</text><text fill="#000000" font-family="sans-serif" font-size="14" lengthAdjust="spacing" textLength="186" x="156.5" y="405.9551">+getLegacyDataRepository();</text><text fill="#000000" font-family="sans-serif" font-size="14" lengthAdjust="spacing" textLength="95" x="156.5" y="421.5957">+getInstance();</text></g><!--class LegacyDataRepository--><g id="elem_LegacyDataRepository"><rect codeLine="36" fill="#F1F1F1" height="63.6406" id="LegacyDataRepository" rx="2.5" ry="2.5" style="stroke:#181818;stroke-width:0.5;" width="176" x="307.5" y="513.5"/><ellipse cx="322.5" cy="529.5" fill="#ADD1B2" rx="11" ry="11" style="stroke:#181818;stroke-width:1.0;"/><path d="M324.5,526 Q324.7031,525.5 324.9375,525.25 Q325.1719,525 325.4375,525 Q325.9063,525 326.2031,525.2813 Q326.5,525.5625 326.5,526.2188 L326.5,527.7813 Q326.5,528.4375 326.2188,528.7188 Q325.9375,529 325.5,529 Q325.1094,529 324.8594,528.8281 Q324.6094,528.6563 324.5,528.2031 Q324.4531,527.8906 324.2813,527.7188 Q323.9688,527.3906 323.4063,527.2031 Q322.8438,527 322.2813,527 Q321.5781,527 320.9844,527.2813 Q320.4063,527.5625 319.9531,528.1875 Q319.5,528.8125 319.5,529.6719 L319.5,530.5938 Q319.5,531.625 320.3438,532.3125 Q321.1875,533 322.6875,533 Q323.5781,533 324.2031,532.7969 Q324.5625,532.6875 324.9688,532.3281 Q325.2344,532.125 325.375,532.0625 Q325.5156,532 325.6875,532 Q326.0156,532 326.25,532.2656 Q326.5,532.5156 326.5,532.875 Q326.5,533.2188 326.1563,533.625 Q325.6563,534.2188 324.8594,534.5469 Q323.8125,535 322.5313,535 Q321.0313,535 319.8281,534.4063 Q318.8594,533.9375 318.1719,532.9219 Q317.5,531.9063 317.5,530.7031 L317.5,529.6094 Q317.5,528.3594 318.0938,527.2656 Q318.7031,526.1719 319.75,525.5938 Q320.8125,525 322,525 Q322.7188,525 323.3438,525.25 Q323.9688,525.5 324.5,526 Z " fill="#000000"/><text fill="#000000" font-family="sans-serif" font-size="14" lengthAdjust="spacing" textLength="144" x="336.5" y="534.3535">LegacyDataRepository</text><line style="stroke:#181818;stroke-width:0.5;" x1="308.5" x2="482.5" y1="545.5" y2="545.5"/><line style="stroke:#181818;stroke-width:0.5;" x1="308.5" x2="482.5" y1="553.5" y2="553.5"/><text fill="#000000" font-family="sans-serif" font-size="14" lengthAdjust="spacing" textLength="126" x="313.5" y="570.1738">+getAvaiableFiles();</text></g><!--class Announcement--><g id="elem_Announcement"><rect codeLine="41" fill="#F1F1F1" height="110.5625" id="Announcement" rx="2.5" ry="2.5" style="stroke:#181818;stroke-width:0.5;" width="212" x="54.5" y="942"/><ellipse cx="108.75" cy="958" fill="#ADD1B2" rx="11" ry="11" style="stroke:#181818;stroke-width:1.0;"/><path d="M110.75,954.5 Q110.9531,954 111.1875,953.75 Q111.4219,953.5 111.6875,953.5 Q112.1563,953.5 112.4531,953.7813 Q112.75,954.0625 112.75,954.7188 L112.75,956.2813 Q112.75,956.9375 112.4688,957.2188 Q112.1875,957.5 111.75,957.5 Q111.3594,957.5 111.1094,957.3281 Q110.8594,957.1563 110.75,956.7031 Q110.7031,956.3906 110.5313,956.2188 Q110.2188,955.8906 109.6563,955.7031 Q109.0938,955.5 108.5313,955.5 Q107.8281,955.5 107.2344,955.7813 Q106.6563,956.0625 106.2031,956.6875 Q105.75,957.3125 105.75,958.1719 L105.75,959.0938 Q105.75,960.125 106.5938,960.8125 Q107.4375,961.5 108.9375,961.5 Q109.8281,961.5 110.4531,961.2969 Q110.8125,961.1875 111.2188,960.8281 Q111.4844,960.625 111.625,960.5625 Q111.7656,960.5 111.9375,960.5 Q112.2656,960.5 112.5,960.7656 Q112.75,961.0156 112.75,961.375 Q112.75,961.7188 112.4063,962.125 Q111.9063,962.7188 111.1094,963.0469 Q110.0625,963.5 108.7813,963.5 Q107.2813,963.5 106.0781,962.9063 Q105.1094,962.4375 104.4219,961.4219 Q103.75,960.4063 103.75,959.2031 L103.75,958.1094 Q103.75,956.8594 104.3438,955.7656 Q104.9531,954.6719 106,954.0938 Q107.0625,953.5 108.25,953.5 Q108.9688,953.5 109.5938,953.75 Q110.2188,954 110.75,954.5 Z " fill="#000000"/><text fill="#000000" font-family="sans-serif" font-size="14" lengthAdjust="spacing" textLength="95" x="129.25" y="962.8535">Announcement</text><line style="stroke:#181818;stroke-width:0.5;" x1="55.5" x2="265.5" y1="974" y2="974"/><text fill="#000000" font-family="sans-serif" font-size="14" lengthAdjust="spacing" textLength="114" x="60.5" y="990.6738">-Request request;</text><text fill="#000000" font-family="sans-serif" font-size="14" lengthAdjust="spacing" textLength="118" x="60.5" y="1006.3145">-double comission;</text><text fill="#000000" font-family="sans-serif" font-size="14" lengthAdjust="spacing" textLength="141" x="60.5" y="1021.9551">-Date publicationDate;</text><text fill="#000000" font-family="sans-serif" font-size="14" lengthAdjust="spacing" textLength="200" x="60.5" y="1037.5957">-ComissionType comissionType</text><line style="stroke:#181818;stroke-width:0.5;" x1="55.5" x2="265.5" y1="1044.5625" y2="1044.5625"/></g><!--class Agency--><g id="elem_Agency"><rect codeLine="48" fill="#F1F1F1" height="204.4063" id="Agency" rx="2.5" ry="2.5" style="stroke:#181818;stroke-width:0.5;" width="307" x="7" y="662"/><ellipse cx="132.75" cy="678" fill="#ADD1B2" rx="11" ry="11" style="stroke:#181818;stroke-width:1.0;"/><path d="M134.75,674.5 Q134.9531,674 135.1875,673.75 Q135.4219,673.5 135.6875,673.5 Q136.1563,673.5 136.4531,673.7813 Q136.75,674.0625 136.75,674.7188 L136.75,676.2813 Q136.75,676.9375 136.4688,677.2188 Q136.1875,677.5 135.75,677.5 Q135.3594,677.5 135.1094,677.3281 Q134.8594,677.1563 134.75,676.7031 Q134.7031,676.3906 134.5313,676.2188 Q134.2188,675.8906 133.6563,675.7031 Q133.0938,675.5 132.5313,675.5 Q131.8281,675.5 131.2344,675.7813 Q130.6563,676.0625 130.2031,676.6875 Q129.75,677.3125 129.75,678.1719 L129.75,679.0938 Q129.75,680.125 130.5938,680.8125 Q131.4375,681.5 132.9375,681.5 Q133.8281,681.5 134.4531,681.2969 Q134.8125,681.1875 135.2188,680.8281 Q135.4844,680.625 135.625,680.5625 Q135.7656,680.5 135.9375,680.5 Q136.2656,680.5 136.5,680.7656 Q136.75,681.0156 136.75,681.375 Q136.75,681.7188 136.4063,682.125 Q135.9063,682.7188 135.1094,683.0469 Q134.0625,683.5 132.7813,683.5 Q131.2813,683.5 130.0781,682.9063 Q129.1094,682.4375 128.4219,681.4219 Q127.75,680.4063 127.75,679.2031 L127.75,678.1094 Q127.75,676.8594 128.3438,675.7656 Q128.9531,674.6719 130,674.0938 Q131.0625,673.5 132.25,673.5 Q132.9688,673.5 133.5938,673.75 Q134.2188,674 134.75,674.5 Z " fill="#000000"/><text fill="#000000" font-family="sans-serif" font-size="14" lengthAdjust="spacing" textLength="47" x="153.25" y="682.8535">Agency</text><line style="stroke:#181818;stroke-width:0.5;" x1="8" x2="313" y1="694" y2="694"/><text fill="#000000" font-family="sans-serif" font-size="14" lengthAdjust="spacing" textLength="35" x="13" y="710.6738">-int id</text><text fill="#000000" font-family="sans-serif" font-size="14" lengthAdjust="spacing" textLength="119" x="13" y="726.3145">-String designation</text><text fill="#000000" font-family="sans-serif" font-size="14" lengthAdjust="spacing" textLength="95" x="13" y="741.9551">-String location</text><text fill="#000000" font-family="sans-serif" font-size="14" lengthAdjust="spacing" textLength="79" x="13" y="757.5957">-String email</text><text fill="#000000" font-family="sans-serif" font-size="14" lengthAdjust="spacing" textLength="109" x="13" y="773.2363">-intphoneNumber</text><text fill="#000000" font-family="sans-serif" font-size="14" lengthAdjust="spacing" textLength="211" x="13" y="788.877">-ArrayList&lt;Employee&gt; employees</text><text fill="#000000" font-family="sans-serif" font-size="14" lengthAdjust="spacing" textLength="189" x="13" y="804.5176">-ArrayList&lt;Request&gt; requests</text><text fill="#000000" font-family="sans-serif" font-size="14" lengthAdjust="spacing" textLength="295" x="13" y="820.1582">-ArrayList&lt;Announcement&gt; listOfAnnoucement</text><line style="stroke:#181818;stroke-width:0.5;" x1="8" x2="313" y1="827.125" y2="827.125"/><text fill="#000000" font-family="sans-serif" font-size="14" lengthAdjust="spacing" textLength="137" x="13" y="843.7988">+addAnnouncement()</text><text fill="#000000" font-family="sans-serif" font-size="14" lengthAdjust="spacing" textLength="95" x="13" y="859.4395">+addRequest()</text></g><!--link ShowLegacyDataUI to ShowLegacyDataController--><g id="link_ShowLegacyDataUI_ShowLegacyDataController"><path codeLine="61" d="M277.5,86.24 C277.5,103.23 277.5,123.42 277.5,141.67 " fill="none" id="ShowLegacyDataUI-to-ShowLegacyDataController" style="stroke:#181818;stroke-width:1.0;stroke-dasharray:7.0,7.0;"/><polygon fill="#181818" points="277.5,146.77,281.5,137.77,277.5,141.77,273.5,137.77,277.5,146.77" style="stroke:#181818;stroke-width:1.0;"/></g><!--link ShowLegacyDataController to Repositories--><g id="link_ShowLegacyDataController_Repositories"><path codeLine="62" d="M277.5,242 C277.5,263.62 277.5,289.59 277.5,312.65 " fill="none" id="ShowLegacyDataController-to-Repositories" style="stroke:#181818;stroke-width:1.0;stroke-dasharray:7.0,7.0;"/><polygon fill="#181818" points="277.5,317.83,281.5,308.83,277.5,312.83,273.5,308.83,277.5,317.83" style="stroke:#181818;stroke-width:1.0;"/><text fill="#000000" font-family="sans-serif" font-size="13" lengthAdjust="spacing" textLength="67" x="278.5" y="284.7686">repositories</text></g><!--link Repositories to AgencyRepository--><g id="link_Repositories_AgencyRepository"><path codeLine="63" d="M239.84,429.22 C227.42,447.27 213.55,467.41 200.93,485.75 " fill="none" id="Repositories-to-AgencyRepository" style="stroke:#181818;stroke-width:1.0;"/><polygon fill="#181818" points="198.09,489.88,206.4849,484.7297,200.9226,485.7598,199.8926,480.1975,198.09,489.88" style="stroke:#181818;stroke-width:1.0;"/></g><!--link Repositories to LegacyDataRepository--><g id="link_Repositories_LegacyDataRepository"><path codeLine="64" d="M315.49,429.22 C333.63,455.36 354.81,485.88 370.83,508.96 " fill="none" id="Repositories-to-LegacyDataRepository" style="stroke:#181818;stroke-width:1.0;"/><polygon fill="#181818" points="373.76,513.17,371.9189,503.4948,370.911,509.0611,365.3446,508.0532,373.76,513.17" style="stroke:#181818;stroke-width:1.0;"/></g><!--link AgencyRepository to Agency--><g id="link_AgencyRepository_Agency"><path codeLine="65" d="M160.5,601.13 C160.5,618.08 160.5,637.37 160.5,656.58 " fill="none" id="AgencyRepository-to-Agency" style="stroke:#181818;stroke-width:1.0;"/><polygon fill="#181818" points="160.5,662,164.5,653,160.5,657,156.5,653,160.5,662" style="stroke:#181818;stroke-width:1.0;"/><text fill="#000000" font-family="sans-serif" font-size="13" lengthAdjust="spacing" textLength="7" x="153.0953" y="620.1957">1</text><text fill="#000000" font-family="sans-serif" font-size="13" lengthAdjust="spacing" textLength="24" x="135.5438" y="651.0873">0...*</text></g><!--link Agency to Announcement--><g id="link_Agency_Announcement"><path codeLine="66" d="M160.5,866.2 C160.5,890.31 160.5,915.27 160.5,936.81 " fill="none" id="Agency-to-Announcement" style="stroke:#181818;stroke-width:1.0;"/><polygon fill="#181818" points="160.5,941.92,164.5,932.92,160.5,936.92,156.5,932.92,160.5,941.92" style="stroke:#181818;stroke-width:1.0;"/><text fill="#000000" font-family="sans-serif" font-size="13" lengthAdjust="spacing" textLength="21" x="161.5" y="908.7686">has</text><text fill="#000000" font-family="sans-serif" font-size="13" lengthAdjust="spacing" textLength="7" x="153.232" y="886.3337">1</text><text fill="#000000" font-family="sans-serif" font-size="13" lengthAdjust="spacing" textLength="20" x="139.1563" y="931.3439">0..*</text></g><!--SRC=[VLF1Rjim3BthAuHSagwmqLtNmK3GhK20O0EQxGCKcR65og8hqIkyOFy-oKfinqvwald8zqZHJqltgamjhAXuXGPbQR42JhO1DcHg8Lz50JjgDN0BaeGfzBZ0bIB7TsKAVX3QZJDQ6Q2s1bwZRaF0bbUIQ0dPY2MrS6vDPDM-8TX8D3lr5_W3OqiD1-A4tAgY99whC8v2mrZ7uRiItxTG2Db-4oH-Ruxitbr0M-LeTVV8xaMUhut1naYem90BuB_hCazeoABMO6_BIGk2OARuSPjr0KQsBr2ZKuIsFR9aRQreW-hNcCpybXpzFCJ82quvNPS2Q1lBGg_Ogc_V4LRnuA8xnaFqKWfS662YVs8CG6ntSun-DVFSnZXl7GaNExX6ECOMVuGIUmtFIiDvR-V5ZLRgPtw1jmOSUMzsvoDBScmyaqkib7FU7nxoBRmDFQoa29O9iOUVpYM_WXFbE9h-g2FZd2VA45Tvzxdp3lMcpy6fmdIY0UvnZN8EGYMKZeXNgaiqyAEfzc0ZDlp_xrMjiGN8F2L-kMd9wTxP-UApWl6UUYSD5kdAfnPTtVNmITyZVXFJfyNJDBlvKDYjHCSQMuv_yTCF8Rl89KasUoJpYciMOZCVBpulkkh5GvgcdnOdtLFTHJOaHmln4vR2CVOV]--></g></svg>