<?xml version="1.0" encoding="us-ascii" standalone="no"?><svg xmlns="http://www.w3.org/2000/svg" xmlns:xlink="http://www.w3.org/1999/xlink" contentStyleType="text/css" height="1184px" preserveAspectRatio="none" style="width:689px;height:1184px;background:#FFFFFF;" version="1.1" viewBox="0 0 689 1184" width="689px" zoomAndPan="magnify"><defs/><g><!--class RespondBookingRequestUI--><g id="elem_RespondBookingRequestUI"><rect codeLine="11" fill="#F1F1F1" height="48" id="RespondBookingRequestUI" rx="2.5" ry="2.5" style="stroke:#181818;stroke-width:0.5;" width="205" x="113" y="7"/><ellipse cx="128" cy="23" fill="#ADD1B2" rx="11" ry="11" style="stroke:#181818;stroke-width:1.0;"/><path d="M130,19.5 Q130.2031,19 130.4375,18.75 Q130.6719,18.5 130.9375,18.5 Q131.4063,18.5 131.7031,18.7813 Q132,19.0625 132,19.7188 L132,21.2813 Q132,21.9375 131.7188,22.2188 Q131.4375,22.5 131,22.5 Q130.6094,22.5 130.3594,22.3281 Q130.1094,22.1563 130,21.7031 Q129.9531,21.3906 129.7813,21.2188 Q129.4688,20.8906 128.9063,20.7031 Q128.3438,20.5 127.7813,20.5 Q127.0781,20.5 126.4844,20.7813 Q125.9063,21.0625 125.4531,21.6875 Q125,22.3125 125,23.1719 L125,24.0938 Q125,25.125 125.8438,25.8125 Q126.6875,26.5 128.1875,26.5 Q129.0781,26.5 129.7031,26.2969 Q130.0625,26.1875 130.4688,25.8281 Q130.7344,25.625 130.875,25.5625 Q131.0156,25.5 131.1875,25.5 Q131.5156,25.5 131.75,25.7656 Q132,26.0156 132,26.375 Q132,26.7188 131.6563,27.125 Q131.1563,27.7188 130.3594,28.0469 Q129.3125,28.5 128.0313,28.5 Q126.5313,28.5 125.3281,27.9063 Q124.3594,27.4375 123.6719,26.4219 Q123,25.4063 123,24.2031 L123,23.1094 Q123,21.8594 123.5938,20.7656 Q124.2031,19.6719 125.25,19.0938 Q126.3125,18.5 127.5,18.5 Q128.2188,18.5 128.8438,18.75 Q129.4688,19 130,19.5 Z " fill="#000000"/><text fill="#000000" font-family="sans-serif" font-size="14" lengthAdjust="spacing" textLength="173" x="142" y="27.8535">RespondBookingRequestUI</text><line style="stroke:#181818;stroke-width:0.5;" x1="114" x2="317" y1="39" y2="39"/><line style="stroke:#181818;stroke-width:0.5;" x1="114" x2="317" y1="47" y2="47"/></g><!--class RespondBookingRequestController--><g id="elem_RespondBookingRequestController"><rect codeLine="14" fill="#F1F1F1" height="220.0469" id="RespondBookingRequestController" rx="2.5" ry="2.5" style="stroke:#181818;stroke-width:0.5;" width="417" x="7" y="116"/><ellipse cx="99.75" cy="132" fill="#ADD1B2" rx="11" ry="11" style="stroke:#181818;stroke-width:1.0;"/><path d="M101.75,128.5 Q101.9531,128 102.1875,127.75 Q102.4219,127.5 102.6875,127.5 Q103.1563,127.5 103.4531,127.7813 Q103.75,128.0625 103.75,128.7188 L103.75,130.2813 Q103.75,130.9375 103.4688,131.2188 Q103.1875,131.5 102.75,131.5 Q102.3594,131.5 102.1094,131.3281 Q101.8594,131.1563 101.75,130.7031 Q101.7031,130.3906 101.5313,130.2188 Q101.2188,129.8906 100.6563,129.7031 Q100.0938,129.5 99.5313,129.5 Q98.8281,129.5 98.2344,129.7813 Q97.6563,130.0625 97.2031,130.6875 Q96.75,131.3125 96.75,132.1719 L96.75,133.0938 Q96.75,134.125 97.5938,134.8125 Q98.4375,135.5 99.9375,135.5 Q100.8281,135.5 101.4531,135.2969 Q101.8125,135.1875 102.2188,134.8281 Q102.4844,134.625 102.625,134.5625 Q102.7656,134.5 102.9375,134.5 Q103.2656,134.5 103.5,134.7656 Q103.75,135.0156 103.75,135.375 Q103.75,135.7188 103.4063,136.125 Q102.9063,136.7188 102.1094,137.0469 Q101.0625,137.5 99.7813,137.5 Q98.2813,137.5 97.0781,136.9063 Q96.1094,136.4375 95.4219,135.4219 Q94.75,134.4063 94.75,133.2031 L94.75,132.1094 Q94.75,130.8594 95.3438,129.7656 Q95.9531,128.6719 97,128.0938 Q98.0625,127.5 99.25,127.5 Q99.9688,127.5 100.5938,127.75 Q101.2188,128 101.75,128.5 Z " fill="#000000"/><text fill="#000000" font-family="sans-serif" font-size="14" lengthAdjust="spacing" textLength="223" x="120.25" y="136.8535">RespondBookingRequestController</text><line style="stroke:#181818;stroke-width:0.5;" x1="8" x2="423" y1="148" y2="148"/><line style="stroke:#181818;stroke-width:0.5;" x1="8" x2="423" y1="156" y2="156"/><text fill="#000000" font-family="sans-serif" font-size="14" lengthAdjust="spacing" textLength="405" x="13" y="172.6738">-List&lt;Message&gt; getListOfBookingRequestByAgent(Agent agent)</text><text fill="#000000" font-family="sans-serif" font-size="14" lengthAdjust="spacing" textLength="123" x="13" y="188.3145">+getCurrentAgent()</text><text fill="#000000" font-family="sans-serif" font-size="14" lengthAdjust="spacing" textLength="136" x="13" y="203.9551">+getCurrentSession()</text><text fill="#000000" font-family="sans-serif" font-size="14" lengthAdjust="spacing" textLength="226" x="13" y="219.5957">+getClientEmail(Message message)</text><text fill="#000000" font-family="sans-serif" font-size="14" lengthAdjust="spacing" textLength="186" x="13" y="235.2363">+getAgentEmail(Agent agent)</text><text fill="#000000" font-family="sans-serif" font-size="14" lengthAdjust="spacing" textLength="188" x="13" y="250.877">+getAgentName(Agent agent)</text><text fill="#000000" font-family="sans-serif" font-size="14" lengthAdjust="spacing" textLength="193" x="13" y="266.5176">+getAgentPhone(Agent agent)</text><text fill="#000000" font-family="sans-serif" font-size="14" lengthAdjust="spacing" textLength="251" x="13" y="282.1582">+getAnnouncement(Message message)</text><text fill="#000000" font-family="sans-serif" font-size="14" lengthAdjust="spacing" textLength="317" x="13" y="297.7988">+getPropertyType(Announcement announcement)</text><text fill="#000000" font-family="sans-serif" font-size="14" lengthAdjust="spacing" textLength="283" x="13" y="313.4395">+getAddress(Announcement announcement)</text><text fill="#000000" font-family="sans-serif" font-size="14" lengthAdjust="spacing" textLength="224" x="13" y="329.0801">+replyMessage(Message message)</text></g><!--class Repositories--><g id="elem_Repositories"><rect codeLine="29" fill="#F1F1F1" height="126.2031" id="Repositories" rx="2.5" ry="2.5" style="stroke:#181818;stroke-width:0.5;" width="350" x="40.5" y="412"/><ellipse cx="171.75" cy="428" fill="#ADD1B2" rx="11" ry="11" style="stroke:#181818;stroke-width:1.0;"/><path d="M173.75,424.5 Q173.9531,424 174.1875,423.75 Q174.4219,423.5 174.6875,423.5 Q175.1563,423.5 175.4531,423.7813 Q175.75,424.0625 175.75,424.7188 L175.75,426.2813 Q175.75,426.9375 175.4688,427.2188 Q175.1875,427.5 174.75,427.5 Q174.3594,427.5 174.1094,427.3281 Q173.8594,427.1563 173.75,426.7031 Q173.7031,426.3906 173.5313,426.2188 Q173.2188,425.8906 172.6563,425.7031 Q172.0938,425.5 171.5313,425.5 Q170.8281,425.5 170.2344,425.7813 Q169.6563,426.0625 169.2031,426.6875 Q168.75,427.3125 168.75,428.1719 L168.75,429.0938 Q168.75,430.125 169.5938,430.8125 Q170.4375,431.5 171.9375,431.5 Q172.8281,431.5 173.4531,431.2969 Q173.8125,431.1875 174.2188,430.8281 Q174.4844,430.625 174.625,430.5625 Q174.7656,430.5 174.9375,430.5 Q175.2656,430.5 175.5,430.7656 Q175.75,431.0156 175.75,431.375 Q175.75,431.7188 175.4063,432.125 Q174.9063,432.7188 174.1094,433.0469 Q173.0625,433.5 171.7813,433.5 Q170.2813,433.5 169.0781,432.9063 Q168.1094,432.4375 167.4219,431.4219 Q166.75,430.4063 166.75,429.2031 L166.75,428.1094 Q166.75,426.8594 167.3438,425.7656 Q167.9531,424.6719 169,424.0938 Q170.0625,423.5 171.25,423.5 Q171.9688,423.5 172.5938,423.75 Q173.2188,424 173.75,424.5 Z " fill="#000000"/><text fill="#000000" font-family="sans-serif" font-size="14" lengthAdjust="spacing" textLength="79" x="192.25" y="432.8535">Repositories</text><line style="stroke:#181818;stroke-width:0.5;" x1="41.5" x2="389.5" y1="444" y2="444"/><text fill="#000000" font-family="sans-serif" font-size="14" lengthAdjust="spacing" textLength="338" x="46.5" y="460.6738">-AnnouncementRepository announcementRepository;</text><text fill="#000000" font-family="sans-serif" font-size="14" lengthAdjust="spacing" textLength="263" x="46.5" y="476.3145">-MessageRepository messageRepository;</text><line style="stroke:#181818;stroke-width:0.5;" x1="41.5" x2="389.5" y1="483.2813" y2="483.2813"/><text fill="#000000" font-family="sans-serif" font-size="14" lengthAdjust="spacing" textLength="205" x="46.5" y="499.9551">+getAnnouncementRepository();</text><text fill="#000000" font-family="sans-serif" font-size="14" lengthAdjust="spacing" textLength="167" x="46.5" y="515.5957">+getMessageRepository();</text><text fill="#000000" font-family="sans-serif" font-size="14" lengthAdjust="spacing" textLength="95" x="46.5" y="531.2363">+getInstance();</text></g><!--class Message--><g id="elem_Message"><rect codeLine="37" fill="#F1F1F1" height="298.25" id="Message" rx="2.5" ry="2.5" style="stroke:#181818;stroke-width:0.5;" width="377" x="187" y="879"/><ellipse cx="342.75" cy="895" fill="#ADD1B2" rx="11" ry="11" style="stroke:#181818;stroke-width:1.0;"/><path d="M344.75,891.5 Q344.9531,891 345.1875,890.75 Q345.4219,890.5 345.6875,890.5 Q346.1563,890.5 346.4531,890.7813 Q346.75,891.0625 346.75,891.7188 L346.75,893.2813 Q346.75,893.9375 346.4688,894.2188 Q346.1875,894.5 345.75,894.5 Q345.3594,894.5 345.1094,894.3281 Q344.8594,894.1563 344.75,893.7031 Q344.7031,893.3906 344.5313,893.2188 Q344.2188,892.8906 343.6563,892.7031 Q343.0938,892.5 342.5313,892.5 Q341.8281,892.5 341.2344,892.7813 Q340.6563,893.0625 340.2031,893.6875 Q339.75,894.3125 339.75,895.1719 L339.75,896.0938 Q339.75,897.125 340.5938,897.8125 Q341.4375,898.5 342.9375,898.5 Q343.8281,898.5 344.4531,898.2969 Q344.8125,898.1875 345.2188,897.8281 Q345.4844,897.625 345.625,897.5625 Q345.7656,897.5 345.9375,897.5 Q346.2656,897.5 346.5,897.7656 Q346.75,898.0156 346.75,898.375 Q346.75,898.7188 346.4063,899.125 Q345.9063,899.7188 345.1094,900.0469 Q344.0625,900.5 342.7813,900.5 Q341.2813,900.5 340.0781,899.9063 Q339.1094,899.4375 338.4219,898.4219 Q337.75,897.4063 337.75,896.2031 L337.75,895.1094 Q337.75,893.8594 338.3438,892.7656 Q338.9531,891.6719 340,891.0938 Q341.0625,890.5 342.25,890.5 Q342.9688,890.5 343.5938,890.75 Q344.2188,891 344.75,891.5 Z " fill="#000000"/><text fill="#000000" font-family="sans-serif" font-size="14" lengthAdjust="spacing" textLength="57" x="363.25" y="899.8535">Message</text><line style="stroke:#181818;stroke-width:0.5;" x1="188" x2="563" y1="911" y2="911"/><text fill="#000000" font-family="sans-serif" font-size="14" lengthAdjust="spacing" textLength="161" x="193" y="927.6738">-boolean CheckVisitTime;</text><text fill="#000000" font-family="sans-serif" font-size="14" lengthAdjust="spacing" textLength="126" x="193" y="943.3145">-boolean checkDay;</text><text fill="#000000" font-family="sans-serif" font-size="14" lengthAdjust="spacing" textLength="140" x="193" y="958.9551">-boolean checkMonth;</text><text fill="#000000" font-family="sans-serif" font-size="14" lengthAdjust="spacing" textLength="131" x="193" y="974.5957">-boolean checkYear;</text><text fill="#000000" font-family="sans-serif" font-size="14" lengthAdjust="spacing" textLength="131" x="193" y="990.2363">-boolean checkHour;</text><text fill="#000000" font-family="sans-serif" font-size="14" lengthAdjust="spacing" textLength="165" x="193" y="1005.877">-boolean checkIfValidVisit;</text><line style="stroke:#181818;stroke-width:0.5;" x1="188" x2="563" y1="1012.8438" y2="1012.8438"/><text fill="#000000" font-family="sans-serif" font-size="14" lengthAdjust="spacing" textLength="155" x="193" y="1029.5176">+getNewVisitStartTime();</text><text fill="#000000" font-family="sans-serif" font-size="14" lengthAdjust="spacing" textLength="365" x="193" y="1045.1582">+setNewVisitStartTime(LocalDateTime newVisitStartTime);</text><text fill="#000000" font-family="sans-serif" font-size="14" lengthAdjust="spacing" textLength="150" x="193" y="1060.7988">+getNewVisitEndTime();</text><text fill="#000000" font-family="sans-serif" font-size="14" lengthAdjust="spacing" textLength="355" x="193" y="1076.4395">+setNewVisitEndTime(LocalDateTime newVisitEndTime);</text><text fill="#000000" font-family="sans-serif" font-size="14" lengthAdjust="spacing" textLength="83" x="193" y="1092.0801">+getPhone();</text><text fill="#000000" font-family="sans-serif" font-size="14" lengthAdjust="spacing" textLength="141" x="193" y="1107.7207">+setPhone(int phone);</text><text fill="#000000" font-family="sans-serif" font-size="14" lengthAdjust="spacing" textLength="137" x="193" y="1123.3613">+getAnnouncement();</text><text fill="#000000" font-family="sans-serif" font-size="14" lengthAdjust="spacing" textLength="329" x="193" y="1139.002">+setAnnouncement(Announcement announcement);</text><text fill="#000000" font-family="sans-serif" font-size="14" lengthAdjust="spacing" textLength="79" x="193" y="1154.6426">+getAgent();</text><text fill="#000000" font-family="sans-serif" font-size="14" lengthAdjust="spacing" textLength="78" x="193" y="1170.2832">+getClient();</text></g><!--class MessageRepository--><g id="elem_MessageRepository"><rect codeLine="57" fill="#F1F1F1" height="188.7656" id="MessageRepository" rx="2.5" ry="2.5" style="stroke:#181818;stroke-width:0.5;" width="271" x="80" y="614"/><ellipse cx="148.75" cy="630" fill="#ADD1B2" rx="11" ry="11" style="stroke:#181818;stroke-width:1.0;"/><path d="M150.75,626.5 Q150.9531,626 151.1875,625.75 Q151.4219,625.5 151.6875,625.5 Q152.1563,625.5 152.4531,625.7813 Q152.75,626.0625 152.75,626.7188 L152.75,628.2813 Q152.75,628.9375 152.4688,629.2188 Q152.1875,629.5 151.75,629.5 Q151.3594,629.5 151.1094,629.3281 Q150.8594,629.1563 150.75,628.7031 Q150.7031,628.3906 150.5313,628.2188 Q150.2188,627.8906 149.6563,627.7031 Q149.0938,627.5 148.5313,627.5 Q147.8281,627.5 147.2344,627.7813 Q146.6563,628.0625 146.2031,628.6875 Q145.75,629.3125 145.75,630.1719 L145.75,631.0938 Q145.75,632.125 146.5938,632.8125 Q147.4375,633.5 148.9375,633.5 Q149.8281,633.5 150.4531,633.2969 Q150.8125,633.1875 151.2188,632.8281 Q151.4844,632.625 151.625,632.5625 Q151.7656,632.5 151.9375,632.5 Q152.2656,632.5 152.5,632.7656 Q152.75,633.0156 152.75,633.375 Q152.75,633.7188 152.4063,634.125 Q151.9063,634.7188 151.1094,635.0469 Q150.0625,635.5 148.7813,635.5 Q147.2813,635.5 146.0781,634.9063 Q145.1094,634.4375 144.4219,633.4219 Q143.75,632.4063 143.75,631.2031 L143.75,630.1094 Q143.75,628.8594 144.3438,627.7656 Q144.9531,626.6719 146,626.0938 Q147.0625,625.5 148.25,625.5 Q148.9688,625.5 149.5938,625.75 Q150.2188,626 150.75,626.5 Z " fill="#000000"/><text fill="#000000" font-family="sans-serif" font-size="14" lengthAdjust="spacing" textLength="125" x="169.25" y="634.8535">MessageRepository</text><line style="stroke:#181818;stroke-width:0.5;" x1="81" x2="350" y1="646" y2="646"/><text fill="#000000" font-family="sans-serif" font-size="14" lengthAdjust="spacing" textLength="88" x="86" y="662.6738">-boolean add;</text><text fill="#000000" font-family="sans-serif" font-size="14" lengthAdjust="spacing" textLength="148" x="86" y="678.3145">-boolean addComplete;</text><text fill="#000000" font-family="sans-serif" font-size="14" lengthAdjust="spacing" textLength="151" x="86" y="693.9551">-Message addMessage;</text><text fill="#000000" font-family="sans-serif" font-size="14" lengthAdjust="spacing" textLength="174" x="86" y="709.5957">-Message removeMessage;</text><text fill="#000000" font-family="sans-serif" font-size="14" lengthAdjust="spacing" textLength="227" x="86" y="725.2363">-List&lt;Message&gt; getMessageSorted;</text><line style="stroke:#181818;stroke-width:0.5;" x1="81" x2="350" y1="732.2031" y2="732.2031"/><text fill="#000000" font-family="sans-serif" font-size="14" lengthAdjust="spacing" textLength="217" x="86" y="748.877">-List&lt;Message&gt; getMessageList();</text><text fill="#000000" font-family="sans-serif" font-size="14" lengthAdjust="spacing" textLength="252" x="86" y="764.5176">+getRequestAssignedList(Agent agent);</text><text fill="#000000" font-family="sans-serif" font-size="14" lengthAdjust="spacing" textLength="196" x="86" y="780.1582">+getClient(Message message);</text><text fill="#000000" font-family="sans-serif" font-size="14" lengthAdjust="spacing" textLength="259" x="86" y="795.7988">+getAnnouncement (Message message);</text></g><!--class Agent--><g id="elem_Agent"><rect codeLine="69" fill="#F1F1F1" height="188.7656" id="Agent" rx="2.5" ry="2.5" style="stroke:#181818;stroke-width:0.5;" width="296" x="386.5" y="614"/><ellipse cx="511.75" cy="630" fill="#ADD1B2" rx="11" ry="11" style="stroke:#181818;stroke-width:1.0;"/><path d="M513.75,626.5 Q513.9531,626 514.1875,625.75 Q514.4219,625.5 514.6875,625.5 Q515.1563,625.5 515.4531,625.7813 Q515.75,626.0625 515.75,626.7188 L515.75,628.2813 Q515.75,628.9375 515.4688,629.2188 Q515.1875,629.5 514.75,629.5 Q514.3594,629.5 514.1094,629.3281 Q513.8594,629.1563 513.75,628.7031 Q513.7031,628.3906 513.5313,628.2188 Q513.2188,627.8906 512.6563,627.7031 Q512.0938,627.5 511.5313,627.5 Q510.8281,627.5 510.2344,627.7813 Q509.6563,628.0625 509.2031,628.6875 Q508.75,629.3125 508.75,630.1719 L508.75,631.0938 Q508.75,632.125 509.5938,632.8125 Q510.4375,633.5 511.9375,633.5 Q512.8281,633.5 513.4531,633.2969 Q513.8125,633.1875 514.2188,632.8281 Q514.4844,632.625 514.625,632.5625 Q514.7656,632.5 514.9375,632.5 Q515.2656,632.5 515.5,632.7656 Q515.75,633.0156 515.75,633.375 Q515.75,633.7188 515.4063,634.125 Q514.9063,634.7188 514.1094,635.0469 Q513.0625,635.5 511.7813,635.5 Q510.2813,635.5 509.0781,634.9063 Q508.1094,634.4375 507.4219,633.4219 Q506.75,632.4063 506.75,631.2031 L506.75,630.1094 Q506.75,628.8594 507.3438,627.7656 Q507.9531,626.6719 509,626.0938 Q510.0625,625.5 511.25,625.5 Q511.9688,625.5 512.5938,625.75 Q513.2188,626 513.75,626.5 Z " fill="#000000"/><text fill="#000000" font-family="sans-serif" font-size="14" lengthAdjust="spacing" textLength="37" x="532.25" y="634.8535">Agent</text><line style="stroke:#181818;stroke-width:0.5;" x1="387.5" x2="681.5" y1="646" y2="646"/><text fill="#000000" font-family="sans-serif" font-size="14" lengthAdjust="spacing" textLength="85" x="392.5" y="662.6738">-Strind name;</text><text fill="#000000" font-family="sans-serif" font-size="14" lengthAdjust="spacing" textLength="139" x="392.5" y="678.3145">-String phoneNumber;</text><text fill="#000000" font-family="sans-serif" font-size="14" lengthAdjust="spacing" textLength="132" x="392.5" y="693.9551">-StringEmailAddress;</text><text fill="#000000" font-family="sans-serif" font-size="14" lengthAdjust="spacing" textLength="152" x="392.5" y="709.5957">-TaxNumber taxNumber;</text><text fill="#000000" font-family="sans-serif" font-size="14" lengthAdjust="spacing" textLength="284" x="392.5" y="725.2363">-PassportCardNumber passportCardNumber;</text><text fill="#000000" font-family="sans-serif" font-size="14" lengthAdjust="spacing" textLength="116" x="392.5" y="740.877">-Address address;</text><text fill="#000000" font-family="sans-serif" font-size="14" lengthAdjust="spacing" textLength="66" x="392.5" y="756.5176">-Role role;</text><text fill="#000000" font-family="sans-serif" font-size="14" lengthAdjust="spacing" textLength="106" x="392.5" y="772.1582">-Agency agency;</text><text fill="#000000" font-family="sans-serif" font-size="14" lengthAdjust="spacing" textLength="79" x="392.5" y="787.7988">-Store store;</text><line style="stroke:#181818;stroke-width:0.5;" x1="387.5" x2="681.5" y1="794.7656" y2="794.7656"/></g><!--link RespondBookingRequestUI to RespondBookingRequestController--><g id="link_RespondBookingRequestUI_RespondBookingRequestController"><path codeLine="83" d="M215.5,55.28 C215.5,69.76 215.5,89.57 215.5,110.56 " fill="none" id="RespondBookingRequestUI-to-RespondBookingRequestController" style="stroke:#181818;stroke-width:1.0;stroke-dasharray:7.0,7.0;"/><polygon fill="#181818" points="215.5,115.63,219.5,106.63,215.5,110.63,211.5,106.63,215.5,115.63" style="stroke:#181818;stroke-width:1.0;"/></g><!--link RespondBookingRequestController to Repositories--><g id="link_RespondBookingRequestController_Repositories"><path codeLine="84" d="M215.5,336.06 C215.5,360.1 215.5,384.89 215.5,406.71 " fill="none" id="RespondBookingRequestController-to-Repositories" style="stroke:#181818;stroke-width:1.0;stroke-dasharray:7.0,7.0;"/><polygon fill="#181818" points="215.5,411.9,219.5,402.9,215.5,406.9,211.5,402.9,215.5,411.9" style="stroke:#181818;stroke-width:1.0;"/><text fill="#000000" font-family="sans-serif" font-size="13" lengthAdjust="spacing" textLength="67" x="216.5" y="378.7686">repositories</text></g><!--link Repositories to MessageRepository--><g id="link_Repositories_MessageRepository"><path codeLine="85" d="M215.5,538.04 C215.5,559.79 215.5,584.8 215.5,608.81 " fill="none" id="Repositories-to-MessageRepository" style="stroke:#181818;stroke-width:1.0;"/><polygon fill="#181818" points="215.5,613.92,219.5,604.92,215.5,608.92,211.5,604.92,215.5,613.92" style="stroke:#181818;stroke-width:1.0;"/><text fill="#000000" font-family="sans-serif" font-size="13" lengthAdjust="spacing" textLength="32" x="216.5" y="580.7686">has a</text></g><!--link Agent to Message--><g id="link_Agent_Message"><path codeLine="87" d="M487.65,803.04 C476.44,825.43 464.18,849.91 452.02,874.2 " fill="none" id="Agent-to-Message" style="stroke:#181818;stroke-width:1.0;"/><polygon fill="#181818" points="449.75,878.74,457.3606,872.4887,451.9918,874.2707,450.2098,868.9019,449.75,878.74" style="stroke:#181818;stroke-width:1.0;"/><text fill="#000000" font-family="sans-serif" font-size="13" lengthAdjust="spacing" textLength="46" x="470.5" y="845.7686">sends a</text></g><!--link MessageRepository to Message--><g id="link_MessageRepository_Message"><path codeLine="88" d="M262.64,803.04 C273.92,825.43 286.26,849.91 298.5,874.2 " fill="none" id="MessageRepository-to-Message" style="stroke:#181818;stroke-width:1.0;"/><polygon fill="#181818" points="300.78,878.74,300.2951,868.9031,298.5268,874.2765,293.1535,872.5081,300.78,878.74" style="stroke:#181818;stroke-width:1.0;"/><text fill="#000000" font-family="sans-serif" font-size="13" lengthAdjust="spacing" textLength="7" x="289.7468" y="868.4584">1</text></g><!--SRC=[XLNVJzim47xtNs7nGgkfQ7kb4r8fIAi43566j4SJNnCBnyviPon3-zzt_f4cQL9uSNFVT_Vvx3jVJ-sBK1KphAIbLZehZ2w1EbC3wPYAPIyiXwrh9503cMCgbtq7Mp2kNuNAwOv9ssUaKE2Q2cYbPUCDSZf1QkCqwKLbabcxSiw8vzh19jDgA_u2_Kp8gOITeqvJ8_B2KIvyEa8hGa8CVG1RQSKljKQn_05-rM3TZyqR-VUknrehPxIKODx8uaPOz_KMhCKpNz0Sd0U-xuOHbyqg1-LcOQNChtFo2PtNjJ5eH7O0RL4IKsr1AH2xBfcGixGPBUDlT0WAaHzj4e0xLi8HwhxGQefJIjSgWzBdDhdflT4L6DSyObbcVNVAUaPIuznWxBjk1YhPf9t6Es9HzbMfj1LE6m4MIz2Nt5FDGBo3bsIHb7kkvI6o7Dr0nytcaHt9jCH6MMpw3BozxwJaZUa-Qos1ARek87jv4XZxA4fOTaJcYIlM74Ats7V58VWJc3d4lkbwX6rsJqmA7lQBQTx1Qx2sZfcGGiZVJX4tEcFoYZdm5bM7_7meUAtub5mBJuibDad5bam2qH3OBvN_ce-BqteEiEETjknwlwrPV62fOiEITGNk5OznlXnOQrrM4folusWaf6-F-ntQ1lHXwRC76YZrR-ZmOsfRd8F0O_PfpAnmPEGAUDYe_vu7PpnyMEFhf1C- -qQEkdWLMvouYbF5GlC6AuyLkglBPp1xC8obzFuHV6H_eWDrxHUYzwXTuP7MpF14LoC8_PAElxkazw3z7mqkdiNaiYQSEcj20je0jNwDbIL7PZuzExluQDgJ3_YaqSqcUexLx4mou1QBYt67OKJ1y724n6lkEPrJ2ufxRXpbtKw-dBIkXFm7]--></g></svg>