<?xml version="1.0" encoding="us-ascii" standalone="no"?><svg xmlns="http://www.w3.org/2000/svg" xmlns:xlink="http://www.w3.org/1999/xlink" contentStyleType="text/css" height="1177px" preserveAspectRatio="none" style="width:1809px;height:1177px;background:#FFFFFF;" version="1.1" viewBox="0 0 1809 1177" width="1809px" zoomAndPan="magnify"><defs/><g><rect fill="#FFFFFF" height="997.3203" style="stroke:#181818;stroke-width:1.0;" width="10" x="91" y="90.6406"/><rect fill="#FFFFFF" height="311.875" style="stroke:#181818;stroke-width:1.0;" width="10" x="526" y="111.1641"/><rect fill="#FFFFFF" height="28.5234" style="stroke:#181818;stroke-width:1.0;" width="10" x="526" y="451.5625"/><rect fill="#FFFFFF" height="28.5234" style="stroke:#181818;stroke-width:1.0;" width="10" x="526" y="508.6094"/><rect fill="#FFFFFF" height="489.7813" style="stroke:#181818;stroke-width:1.0;" width="10" x="526" y="589.1797"/><rect fill="#FFFFFF" height="199.6641" style="stroke:#181818;stroke-width:1.0;" width="10" x="850" y="180.3281"/><rect fill="#FFFFFF" height="432.7344" style="stroke:#181818;stroke-width:1.0;" width="10" x="850" y="617.7031"/><rect fill="#FFFFFF" height="28.5234" style="stroke:#181818;stroke-width:1.0;" width="10" x="1029" y="208.8516"/><rect fill="#FFFFFF" height="28.5234" style="stroke:#181818;stroke-width:1.0;" width="10" x="1136" y="265.8984"/><rect fill="#FFFFFF" height="28.5234" style="stroke:#181818;stroke-width:1.0;" width="10" x="1266" y="646.2266"/><rect fill="#FFFFFF" height="28.5234" style="stroke:#181818;stroke-width:1.0;" width="10" x="1266" y="831.6563"/><rect fill="#FFFFFF" height="28.5234" style="stroke:#181818;stroke-width:1.0;" width="10" x="1266" y="986.3906"/><rect fill="#FFFFFF" height="28.5234" style="stroke:#181818;stroke-width:1.0;" width="10" x="1383" y="322.9453"/><rect fill="#FFFFFF" height="28.5234" style="stroke:#181818;stroke-width:1.0;" width="10" x="1643.5" y="703.2734"/><rect fill="#FFFFFF" height="28.5234" style="stroke:#181818;stroke-width:1.0;" width="10" x="1643.5" y="888.7031"/><rect fill="none" height="470.7813" style="stroke:#000000;stroke-width:1.5;" width="1792.5" x="10" y="552.1328"/><line style="stroke:#181818;stroke-width:0.5;stroke-dasharray:5.0,5.0;" x1="96" x2="96" y1="80.6406" y2="1096.9609"/><line style="stroke:#181818;stroke-width:0.5;stroke-dasharray:5.0,5.0;" x1="530.5" x2="530.5" y1="80.6406" y2="1096.9609"/><line style="stroke:#181818;stroke-width:0.5;stroke-dasharray:5.0,5.0;" x1="854.5" x2="854.5" y1="149.4844" y2="1096.9609"/><line style="stroke:#181818;stroke-width:0.5;stroke-dasharray:5.0,5.0;" x1="1033.5" x2="1033.5" y1="80.6406" y2="1096.9609"/><line style="stroke:#181818;stroke-width:0.5;stroke-dasharray:5.0,5.0;" x1="1140.5" x2="1140.5" y1="80.6406" y2="1096.9609"/><line style="stroke:#181818;stroke-width:0.5;stroke-dasharray:5.0,5.0;" x1="1270.5" x2="1270.5" y1="80.6406" y2="1096.9609"/><line style="stroke:#181818;stroke-width:0.5;stroke-dasharray:5.0,5.0;" x1="1387.5" x2="1387.5" y1="80.6406" y2="1096.9609"/><line style="stroke:#181818;stroke-width:0.5;stroke-dasharray:5.0,5.0;" x1="1501.5" x2="1501.5" y1="80.6406" y2="1096.9609"/><line style="stroke:#181818;stroke-width:0.5;stroke-dasharray:5.0,5.0;" x1="1648.5" x2="1648.5" y1="80.6406" y2="1096.9609"/><line style="stroke:#181818;stroke-width:0.5;stroke-dasharray:5.0,5.0;" x1="1759.5" x2="1759.5" y1="955.5469" y2="1096.9609"/><text fill="#000000" font-family="sans-serif" font-size="14" lengthAdjust="spacing" textLength="146" x="20" y="77.6738">Organization Employee</text><ellipse cx="96" cy="13.5" fill="#E3E3E3" rx="8" ry="8" style="stroke:#181818;stroke-width:0.5;"/><path d="M96,21.5 L96,48.5 M83,29.5 L109,29.5 M96,48.5 L83,63.5 M96,48.5 L109,63.5 " fill="none" style="stroke:#181818;stroke-width:0.5;"/><text fill="#000000" font-family="sans-serif" font-size="14" lengthAdjust="spacing" textLength="146" x="20" y="1108.6348">Organization Employee</text><ellipse cx="96" cy="1120.1016" fill="#E3E3E3" rx="8" ry="8" style="stroke:#181818;stroke-width:0.5;"/><path d="M96,1128.1016 L96,1155.1016 M83,1136.1016 L109,1136.1016 M96,1155.1016 L83,1170.1016 M96,1155.1016 L109,1170.1016 " fill="none" style="stroke:#181818;stroke-width:0.5;"/><rect fill="#E3E3E3" height="29.6406" rx="2.5" ry="2.5" style="stroke:#181818;stroke-width:0.5;" width="187" x="437.5" y="50"/><text fill="#000000" font-family="sans-serif" font-size="14" lengthAdjust="spacing" textLength="173" x="444.5" y="69.6738">RespondBookingRequestUI</text><rect fill="#E3E3E3" height="29.6406" rx="2.5" ry="2.5" style="stroke:#181818;stroke-width:0.5;" width="187" x="437.5" y="1095.9609"/><text fill="#000000" font-family="sans-serif" font-size="14" lengthAdjust="spacing" textLength="173" x="444.5" y="1115.6348">RespondBookingRequestUI</text><rect fill="#E3E3E3" height="29.6406" rx="2.5" ry="2.5" style="stroke:#181818;stroke-width:0.5;" width="241" x="734.5" y="1095.9609"/><text fill="#000000" font-family="sans-serif" font-size="14" lengthAdjust="spacing" textLength="227" x="741.5" y="1115.6348">:RespondBookingRequestController</text><rect fill="#E3E3E3" height="29.6406" rx="2.5" ry="2.5" style="stroke:#181818;stroke-width:0.5;" width="97" x="985.5" y="50"/><text fill="#000000" font-family="sans-serif" font-size="14" lengthAdjust="spacing" textLength="83" x="992.5" y="69.6738">:Repositories</text><rect fill="#E3E3E3" height="29.6406" rx="2.5" ry="2.5" style="stroke:#181818;stroke-width:0.5;" width="97" x="985.5" y="1095.9609"/><text fill="#000000" font-family="sans-serif" font-size="14" lengthAdjust="spacing" textLength="83" x="992.5" y="1115.6348">:Repositories</text><rect fill="#E3E3E3" height="45.2813" rx="2.5" ry="2.5" style="stroke:#181818;stroke-width:0.5;" width="97" x="1092.5" y="34.3594"/><text fill="#000000" font-family="sans-serif" font-size="14" lengthAdjust="spacing" textLength="74" x="1104" y="54.0332">repositories</text><text fill="#000000" font-family="sans-serif" font-size="14" lengthAdjust="spacing" textLength="83" x="1099.5" y="69.6738">:Repositories</text><rect fill="#E3E3E3" height="45.2813" rx="2.5" ry="2.5" style="stroke:#181818;stroke-width:0.5;" width="97" x="1092.5" y="1095.9609"/><text fill="#000000" font-family="sans-serif" font-size="14" lengthAdjust="spacing" textLength="74" x="1104" y="1115.6348">repositories</text><text fill="#000000" font-family="sans-serif" font-size="14" lengthAdjust="spacing" textLength="83" x="1099.5" y="1131.2754">:Repositories</text><rect fill="#E3E3E3" height="45.2813" rx="2.5" ry="2.5" style="stroke:#181818;stroke-width:0.5;" width="143" x="1199.5" y="34.3594"/><text fill="#000000" font-family="sans-serif" font-size="14" lengthAdjust="spacing" textLength="129" x="1206.5" y="54.0332">MessageRepository:</text><text fill="#000000" font-family="sans-serif" font-size="14" lengthAdjust="spacing" textLength="125" x="1208.5" y="69.6738">MessageRepository</text><rect fill="#E3E3E3" height="45.2813" rx="2.5" ry="2.5" style="stroke:#181818;stroke-width:0.5;" width="143" x="1199.5" y="1095.9609"/><text fill="#000000" font-family="sans-serif" font-size="14" lengthAdjust="spacing" textLength="129" x="1206.5" y="1115.6348">MessageRepository:</text><text fill="#000000" font-family="sans-serif" font-size="14" lengthAdjust="spacing" textLength="125" x="1208.5" y="1131.2754">MessageRepository</text><rect fill="#E3E3E3" height="29.6406" rx="2.5" ry="2.5" style="stroke:#181818;stroke-width:0.5;" width="71" x="1352.5" y="50"/><text fill="#000000" font-family="sans-serif" font-size="14" lengthAdjust="spacing" textLength="57" x="1359.5" y="69.6738">Message</text><rect fill="#E3E3E3" height="29.6406" rx="2.5" ry="2.5" style="stroke:#181818;stroke-width:0.5;" width="71" x="1352.5" y="1095.9609"/><text fill="#000000" font-family="sans-serif" font-size="14" lengthAdjust="spacing" textLength="57" x="1359.5" y="1115.6348">Message</text><rect fill="#E3E3E3" height="45.2813" rx="2.5" ry="2.5" style="stroke:#181818;stroke-width:0.5;" width="136" x="1433.5" y="34.3594"/><text fill="#000000" font-family="sans-serif" font-size="14" lengthAdjust="spacing" textLength="122" x="1440.5" y="54.0332">bookingRepository:</text><text fill="#000000" font-family="sans-serif" font-size="14" lengthAdjust="spacing" textLength="119" x="1442" y="69.6738">BookingRepository</text><rect fill="#E3E3E3" height="45.2813" rx="2.5" ry="2.5" style="stroke:#181818;stroke-width:0.5;" width="136" x="1433.5" y="1095.9609"/><text fill="#000000" font-family="sans-serif" font-size="14" lengthAdjust="spacing" textLength="122" x="1440.5" y="1115.6348">bookingRepository:</text><text fill="#000000" font-family="sans-serif" font-size="14" lengthAdjust="spacing" textLength="119" x="1442" y="1131.2754">BookingRepository</text><rect fill="#E3E3E3" height="29.6406" rx="2.5" ry="2.5" style="stroke:#181818;stroke-width:0.5;" width="138" x="1579.5" y="50"/><text fill="#000000" font-family="sans-serif" font-size="14" lengthAdjust="spacing" textLength="124" x="1586.5" y="69.6738">SendEmailMessage</text><rect fill="#E3E3E3" height="29.6406" rx="2.5" ry="2.5" style="stroke:#181818;stroke-width:0.5;" width="138" x="1579.5" y="1095.9609"/><text fill="#000000" font-family="sans-serif" font-size="14" lengthAdjust="spacing" textLength="124" x="1586.5" y="1115.6348">SendEmailMessage</text><rect fill="#E3E3E3" height="29.6406" rx="2.5" ry="2.5" style="stroke:#181818;stroke-width:0.5;" width="65" x="1727.5" y="1095.9609"/><text fill="#000000" font-family="sans-serif" font-size="14" lengthAdjust="spacing" textLength="51" x="1734.5" y="1115.6348">Booking</text><rect fill="#FFFFFF" height="997.3203" style="stroke:#181818;stroke-width:1.0;" width="10" x="91" y="90.6406"/><rect fill="#FFFFFF" height="311.875" style="stroke:#181818;stroke-width:1.0;" width="10" x="526" y="111.1641"/><rect fill="#FFFFFF" height="28.5234" style="stroke:#181818;stroke-width:1.0;" width="10" x="526" y="451.5625"/><rect fill="#FFFFFF" height="28.5234" style="stroke:#181818;stroke-width:1.0;" width="10" x="526" y="508.6094"/><rect fill="#FFFFFF" height="489.7813" style="stroke:#181818;stroke-width:1.0;" width="10" x="526" y="589.1797"/><rect fill="#FFFFFF" height="199.6641" style="stroke:#181818;stroke-width:1.0;" width="10" x="850" y="180.3281"/><rect fill="#FFFFFF" height="432.7344" style="stroke:#181818;stroke-width:1.0;" width="10" x="850" y="617.7031"/><rect fill="#FFFFFF" height="28.5234" style="stroke:#181818;stroke-width:1.0;" width="10" x="1029" y="208.8516"/><rect fill="#FFFFFF" height="28.5234" style="stroke:#181818;stroke-width:1.0;" width="10" x="1136" y="265.8984"/><rect fill="#FFFFFF" height="28.5234" style="stroke:#181818;stroke-width:1.0;" width="10" x="1266" y="646.2266"/><rect fill="#FFFFFF" height="28.5234" style="stroke:#181818;stroke-width:1.0;" width="10" x="1266" y="831.6563"/><rect fill="#FFFFFF" height="28.5234" style="stroke:#181818;stroke-width:1.0;" width="10" x="1266" y="986.3906"/><rect fill="#FFFFFF" height="28.5234" style="stroke:#181818;stroke-width:1.0;" width="10" x="1383" y="322.9453"/><rect fill="#FFFFFF" height="28.5234" style="stroke:#181818;stroke-width:1.0;" width="10" x="1643.5" y="703.2734"/><rect fill="#FFFFFF" height="28.5234" style="stroke:#181818;stroke-width:1.0;" width="10" x="1643.5" y="888.7031"/><polygon fill="#181818" points="514,107.1641,524,111.1641,514,115.1641,518,111.1641" style="stroke:#181818;stroke-width:1.0;"/><line style="stroke:#181818;stroke-width:1.0;" x1="101" x2="520" y1="111.1641" y2="111.1641"/><text fill="#000000" font-family="sans-serif" font-size="13" font-weight="bold" lengthAdjust="spacing" textLength="7" x="108" y="106.4092">1</text><text fill="#000000" font-family="sans-serif" font-size="13" lengthAdjust="spacing" textLength="247" x="119" y="106.4092">Asks to see the list of all booking requests</text><polygon fill="#181818" points="722.5,135.6875,732.5,139.6875,722.5,143.6875,726.5,139.6875" style="stroke:#181818;stroke-width:1.0;"/><line style="stroke:#181818;stroke-width:1.0;" x1="536" x2="728.5" y1="139.6875" y2="139.6875"/><text fill="#000000" font-family="sans-serif" font-size="13" font-weight="bold" lengthAdjust="spacing" textLength="7" x="543" y="134.9326">2</text><text fill="#000000" font-family="sans-serif" font-size="13" lengthAdjust="spacing" textLength="36" x="554" y="134.9326">create</text><rect fill="#E3E3E3" height="29.6406" rx="2.5" ry="2.5" style="stroke:#181818;stroke-width:0.5;" width="241" x="734.5" y="119.1641"/><text fill="#000000" font-family="sans-serif" font-size="14" lengthAdjust="spacing" textLength="227" x="741.5" y="138.8379">:RespondBookingRequestController</text><polygon fill="#181818" points="838,176.3281,848,180.3281,838,184.3281,842,180.3281" style="stroke:#181818;stroke-width:1.0;"/><line style="stroke:#181818;stroke-width:1.0;" x1="536" x2="844" y1="180.3281" y2="180.3281"/><text fill="#000000" font-family="sans-serif" font-size="13" font-weight="bold" lengthAdjust="spacing" textLength="7" x="543" y="175.5732">3</text><text fill="#000000" font-family="sans-serif" font-size="13" lengthAdjust="spacing" textLength="121" x="554" y="175.5732">getBookingRequest()</text><polygon fill="#181818" points="1017,204.8516,1027,208.8516,1017,212.8516,1021,208.8516" style="stroke:#181818;stroke-width:1.0;"/><line style="stroke:#181818;stroke-width:1.0;" x1="860" x2="1023" y1="208.8516" y2="208.8516"/><text fill="#000000" font-family="sans-serif" font-size="13" font-weight="bold" lengthAdjust="spacing" textLength="7" x="867" y="204.0967">4</text><text fill="#000000" font-family="sans-serif" font-size="13" lengthAdjust="spacing" textLength="75" x="878" y="204.0967">getInstance()</text><polygon fill="#181818" points="871,233.375,861,237.375,871,241.375,867,237.375" style="stroke:#181818;stroke-width:1.0;"/><line style="stroke:#181818;stroke-width:1.0;stroke-dasharray:2.0,2.0;" x1="865" x2="1033" y1="237.375" y2="237.375"/><text fill="#000000" font-family="sans-serif" font-size="13" font-weight="bold" lengthAdjust="spacing" textLength="7" x="877" y="232.6201">5</text><text fill="#000000" font-family="sans-serif" font-size="13" lengthAdjust="spacing" textLength="67" x="888" y="232.6201">repositories</text><polygon fill="#181818" points="1124,261.8984,1134,265.8984,1124,269.8984,1128,265.8984" style="stroke:#181818;stroke-width:1.0;"/><line style="stroke:#181818;stroke-width:1.0;" x1="860" x2="1130" y1="265.8984" y2="265.8984"/><text fill="#000000" font-family="sans-serif" font-size="13" font-weight="bold" lengthAdjust="spacing" textLength="7" x="867" y="261.1436">6</text><text fill="#000000" font-family="sans-serif" font-size="13" lengthAdjust="spacing" textLength="141" x="878" y="261.1436">getMessageRepository()</text><polygon fill="#181818" points="871,290.4219,861,294.4219,871,298.4219,867,294.4219" style="stroke:#181818;stroke-width:1.0;"/><line style="stroke:#181818;stroke-width:1.0;stroke-dasharray:2.0,2.0;" x1="865" x2="1140" y1="294.4219" y2="294.4219"/><text fill="#000000" font-family="sans-serif" font-size="13" font-weight="bold" lengthAdjust="spacing" textLength="7" x="877" y="289.667">7</text><text fill="#000000" font-family="sans-serif" font-size="13" lengthAdjust="spacing" textLength="115" x="888" y="289.667">MessageRepository</text><polygon fill="#181818" points="1371,318.9453,1381,322.9453,1371,326.9453,1375,322.9453" style="stroke:#181818;stroke-width:1.0;"/><line style="stroke:#181818;stroke-width:1.0;" x1="860" x2="1377" y1="322.9453" y2="322.9453"/><text fill="#000000" font-family="sans-serif" font-size="13" font-weight="bold" lengthAdjust="spacing" textLength="7" x="867" y="318.1904">8</text><text fill="#000000" font-family="sans-serif" font-size="13" lengthAdjust="spacing" textLength="79" x="878" y="318.1904">getMessage()</text><polygon fill="#181818" points="871,347.4688,861,351.4688,871,355.4688,867,351.4688" style="stroke:#181818;stroke-width:1.0;"/><line style="stroke:#181818;stroke-width:1.0;stroke-dasharray:2.0,2.0;" x1="865" x2="1387" y1="351.4688" y2="351.4688"/><text fill="#000000" font-family="sans-serif" font-size="13" font-weight="bold" lengthAdjust="spacing" textLength="7" x="877" y="346.7139">9</text><text fill="#000000" font-family="sans-serif" font-size="13" lengthAdjust="spacing" textLength="114" x="888" y="346.7139">bookingRequestList</text><polygon fill="#181818" points="547,375.9922,537,379.9922,547,383.9922,543,379.9922" style="stroke:#181818;stroke-width:1.0;"/><line style="stroke:#181818;stroke-width:1.0;stroke-dasharray:2.0,2.0;" x1="541" x2="854" y1="379.9922" y2="379.9922"/><text fill="#000000" font-family="sans-serif" font-size="13" font-weight="bold" lengthAdjust="spacing" textLength="14" x="553" y="375.2373">10</text><text fill="#000000" font-family="sans-serif" font-size="13" lengthAdjust="spacing" textLength="114" x="571" y="375.2373">bookingRequestList</text><polygon fill="#181818" points="112,419.0391,102,423.0391,112,427.0391,108,423.0391" style="stroke:#181818;stroke-width:1.0;"/><line style="stroke:#181818;stroke-width:1.0;stroke-dasharray:2.0,2.0;" x1="106" x2="530" y1="423.0391" y2="423.0391"/><text fill="#000000" font-family="sans-serif" font-size="13" font-weight="bold" lengthAdjust="spacing" textLength="14" x="118" y="411.0225">11</text><text fill="#000000" font-family="sans-serif" font-size="13" lengthAdjust="spacing" textLength="244" x="136" y="403.7607">Shows the list off all booking requests and</text><text fill="#000000" font-family="sans-serif" font-size="13" lengthAdjust="spacing" textLength="132" x="140" y="418.2842">and asks to sleect one</text><polygon fill="#181818" points="514,447.5625,524,451.5625,514,455.5625,518,451.5625" style="stroke:#181818;stroke-width:1.0;"/><line style="stroke:#181818;stroke-width:1.0;" x1="101" x2="520" y1="451.5625" y2="451.5625"/><text fill="#000000" font-family="sans-serif" font-size="13" font-weight="bold" lengthAdjust="spacing" textLength="14" x="108" y="446.8076">12</text><text fill="#000000" font-family="sans-serif" font-size="13" lengthAdjust="spacing" textLength="388" x="126" y="446.8076">Selects a booking request and asks to select the option to respond</text><polygon fill="#181818" points="112,476.0859,102,480.0859,112,484.0859,108,480.0859" style="stroke:#181818;stroke-width:1.0;"/><line style="stroke:#181818;stroke-width:1.0;stroke-dasharray:2.0,2.0;" x1="106" x2="530" y1="480.0859" y2="480.0859"/><text fill="#000000" font-family="sans-serif" font-size="13" font-weight="bold" lengthAdjust="spacing" textLength="14" x="118" y="475.3311">13</text><text fill="#000000" font-family="sans-serif" font-size="13" lengthAdjust="spacing" textLength="266" x="136" y="475.3311">Asks to accept or decline the booking request</text><polygon fill="#181818" points="514,504.6094,524,508.6094,514,512.6094,518,508.6094" style="stroke:#181818;stroke-width:1.0;"/><line style="stroke:#181818;stroke-width:1.0;" x1="101" x2="520" y1="508.6094" y2="508.6094"/><text fill="#000000" font-family="sans-serif" font-size="13" font-weight="bold" lengthAdjust="spacing" textLength="14" x="108" y="503.8545">14</text><text fill="#000000" font-family="sans-serif" font-size="13" lengthAdjust="spacing" textLength="115" x="126" y="503.8545">Accepts or declines</text><polygon fill="#181818" points="112,533.1328,102,537.1328,112,541.1328,108,537.1328" style="stroke:#181818;stroke-width:1.0;"/><line style="stroke:#181818;stroke-width:1.0;stroke-dasharray:2.0,2.0;" x1="106" x2="530" y1="537.1328" y2="537.1328"/><text fill="#000000" font-family="sans-serif" font-size="13" font-weight="bold" lengthAdjust="spacing" textLength="14" x="118" y="532.3779">15</text><text fill="#000000" font-family="sans-serif" font-size="13" lengthAdjust="spacing" textLength="246" x="136" y="532.3779">Informs about the success of the operation</text><path d="M10,552.1328 L71,552.1328 L71,558.6563 L61,568.6563 L10,568.6563 L10,552.1328 " fill="#EEEEEE" style="stroke:#000000;stroke-width:1.5;"/><rect fill="none" height="470.7813" style="stroke:#000000;stroke-width:1.5;" width="1792.5" x="10" y="552.1328"/><text fill="#000000" font-family="sans-serif" font-size="13" font-weight="bold" lengthAdjust="spacing" textLength="16" x="25" y="564.9014">alt</text><text fill="#000000" font-family="sans-serif" font-size="11" font-weight="bold" lengthAdjust="spacing" textLength="206" x="86" y="564.0908">[if the booking request was rejected]</text><polygon fill="#181818" points="514,585.1797,524,589.1797,514,593.1797,518,589.1797" style="stroke:#181818;stroke-width:1.0;"/><line style="stroke:#181818;stroke-width:1.0;" x1="101" x2="520" y1="589.1797" y2="589.1797"/><text fill="#000000" font-family="sans-serif" font-size="13" font-weight="bold" lengthAdjust="spacing" textLength="14" x="108" y="584.4248">16</text><text fill="#000000" font-family="sans-serif" font-size="13" lengthAdjust="spacing" textLength="147" x="126" y="584.4248">Rejected booking request</text><polygon fill="#181818" points="838,613.7031,848,617.7031,838,621.7031,842,617.7031" style="stroke:#181818;stroke-width:1.0;"/><line style="stroke:#181818;stroke-width:1.0;" x1="536" x2="844" y1="617.7031" y2="617.7031"/><text fill="#000000" font-family="sans-serif" font-size="13" font-weight="bold" lengthAdjust="spacing" textLength="14" x="543" y="612.9482">17</text><text fill="#000000" font-family="sans-serif" font-size="13" lengthAdjust="spacing" textLength="268" x="561" y="612.9482">sendEmailBookingRequestRejected(requestId)</text><polygon fill="#181818" points="1254,642.2266,1264,646.2266,1254,650.2266,1258,646.2266" style="stroke:#181818;stroke-width:1.0;"/><line style="stroke:#181818;stroke-width:1.0;" x1="860" x2="1260" y1="646.2266" y2="646.2266"/><text fill="#000000" font-family="sans-serif" font-size="13" font-weight="bold" lengthAdjust="spacing" textLength="14" x="867" y="641.4717">18</text><text fill="#000000" font-family="sans-serif" font-size="13" lengthAdjust="spacing" textLength="200" x="885" y="641.4717">getBookingRequestById(requestId)</text><polygon fill="#181818" points="871,670.75,861,674.75,871,678.75,867,674.75" style="stroke:#181818;stroke-width:1.0;"/><line style="stroke:#181818;stroke-width:1.0;stroke-dasharray:2.0,2.0;" x1="865" x2="1270" y1="674.75" y2="674.75"/><text fill="#000000" font-family="sans-serif" font-size="13" font-weight="bold" lengthAdjust="spacing" textLength="14" x="877" y="669.9951">19</text><text fill="#000000" font-family="sans-serif" font-size="13" lengthAdjust="spacing" textLength="93" x="895" y="669.9951">bookingRequest</text><polygon fill="#181818" points="1631.5,699.2734,1641.5,703.2734,1631.5,707.2734,1635.5,703.2734" style="stroke:#181818;stroke-width:1.0;"/><line style="stroke:#181818;stroke-width:1.0;" x1="860" x2="1637.5" y1="703.2734" y2="703.2734"/><text fill="#000000" font-family="sans-serif" font-size="13" font-weight="bold" lengthAdjust="spacing" textLength="14" x="867" y="698.5186">20</text><text fill="#000000" font-family="sans-serif" font-size="13" lengthAdjust="spacing" textLength="308" x="885" y="698.5186">sendEmailBookingRequestRejected(bookingRequest)</text><polygon fill="#181818" points="871,727.7969,861,731.7969,871,735.7969,867,731.7969" style="stroke:#181818;stroke-width:1.0;"/><line style="stroke:#181818;stroke-width:1.0;stroke-dasharray:2.0,2.0;" x1="865" x2="1647.5" y1="731.7969" y2="731.7969"/><text fill="#000000" font-family="sans-serif" font-size="13" font-weight="bold" lengthAdjust="spacing" textLength="14" x="877" y="727.042">21</text><text fill="#000000" font-family="sans-serif" font-size="13" lengthAdjust="spacing" textLength="4" x="895" y="727.042">&#160;</text><line style="stroke:#000000;stroke-width:1.0;stroke-dasharray:2.0,2.0;" x1="10" x2="1802.5" y1="740.7969" y2="740.7969"/><text fill="#000000" font-family="sans-serif" font-size="11" font-weight="bold" lengthAdjust="spacing" textLength="210" x="15" y="750.7549">[if the booking request was accepted]</text><polygon fill="#181818" points="514,770.6094,524,774.6094,514,778.6094,518,774.6094" style="stroke:#181818;stroke-width:1.0;"/><line style="stroke:#181818;stroke-width:1.0;" x1="101" x2="520" y1="774.6094" y2="774.6094"/><text fill="#000000" font-family="sans-serif" font-size="13" font-weight="bold" lengthAdjust="spacing" textLength="14" x="108" y="769.8545">22</text><text fill="#000000" font-family="sans-serif" font-size="13" lengthAdjust="spacing" textLength="151" x="126" y="769.8545">Accepted booking request</text><polygon fill="#181818" points="838,799.1328,848,803.1328,838,807.1328,842,803.1328" style="stroke:#181818;stroke-width:1.0;"/><line style="stroke:#181818;stroke-width:1.0;" x1="536" x2="844" y1="803.1328" y2="803.1328"/><text fill="#000000" font-family="sans-serif" font-size="13" font-weight="bold" lengthAdjust="spacing" textLength="14" x="543" y="798.3779">23</text><text fill="#000000" font-family="sans-serif" font-size="13" lengthAdjust="spacing" textLength="272" x="561" y="798.3779">sendEmailBookingRequestAccepted(requestId)</text><polygon fill="#181818" points="1254,827.6563,1264,831.6563,1254,835.6563,1258,831.6563" style="stroke:#181818;stroke-width:1.0;"/><line style="stroke:#181818;stroke-width:1.0;" x1="860" x2="1260" y1="831.6563" y2="831.6563"/><text fill="#000000" font-family="sans-serif" font-size="13" font-weight="bold" lengthAdjust="spacing" textLength="14" x="867" y="826.9014">24</text><text fill="#000000" font-family="sans-serif" font-size="13" lengthAdjust="spacing" textLength="200" x="885" y="826.9014">getBookingRequestById(requestId)</text><polygon fill="#181818" points="871,856.1797,861,860.1797,871,864.1797,867,860.1797" style="stroke:#181818;stroke-width:1.0;"/><line style="stroke:#181818;stroke-width:1.0;stroke-dasharray:2.0,2.0;" x1="865" x2="1270" y1="860.1797" y2="860.1797"/><text fill="#000000" font-family="sans-serif" font-size="13" font-weight="bold" lengthAdjust="spacing" textLength="14" x="877" y="855.4248">25</text><text fill="#000000" font-family="sans-serif" font-size="13" lengthAdjust="spacing" textLength="53" x="895" y="855.4248">message</text><polygon fill="#181818" points="1631.5,884.7031,1641.5,888.7031,1631.5,892.7031,1635.5,888.7031" style="stroke:#181818;stroke-width:1.0;"/><line style="stroke:#181818;stroke-width:1.0;" x1="860" x2="1637.5" y1="888.7031" y2="888.7031"/><text fill="#000000" font-family="sans-serif" font-size="13" font-weight="bold" lengthAdjust="spacing" textLength="14" x="867" y="883.9482">26</text><text fill="#000000" font-family="sans-serif" font-size="13" lengthAdjust="spacing" textLength="312" x="885" y="883.9482">sendEmailBookingRequestAccepted(bookingRequest)</text><polygon fill="#181818" points="871,913.2266,861,917.2266,871,921.2266,867,917.2266" style="stroke:#181818;stroke-width:1.0;"/><line style="stroke:#181818;stroke-width:1.0;stroke-dasharray:2.0,2.0;" x1="865" x2="1647.5" y1="917.2266" y2="917.2266"/><text fill="#000000" font-family="sans-serif" font-size="13" font-weight="bold" lengthAdjust="spacing" textLength="14" x="877" y="912.4717">27</text><text fill="#000000" font-family="sans-serif" font-size="13" lengthAdjust="spacing" textLength="4" x="895" y="912.4717">&#160;</text><polygon fill="#181818" points="1715.5,941.75,1725.5,945.75,1715.5,949.75,1719.5,945.75" style="stroke:#181818;stroke-width:1.0;"/><line style="stroke:#181818;stroke-width:1.0;" x1="860" x2="1721.5" y1="945.75" y2="945.75"/><text fill="#000000" font-family="sans-serif" font-size="13" font-weight="bold" lengthAdjust="spacing" textLength="14" x="867" y="940.9951">28</text><text fill="#000000" font-family="sans-serif" font-size="13" lengthAdjust="spacing" textLength="137" x="885" y="940.9951">create(bookingRequest)</text><rect fill="#E3E3E3" height="29.6406" rx="2.5" ry="2.5" style="stroke:#181818;stroke-width:0.5;" width="65" x="1727.5" y="925.2266"/><text fill="#000000" font-family="sans-serif" font-size="14" lengthAdjust="spacing" textLength="51" x="1734.5" y="944.9004">Booking</text><polygon fill="#181818" points="1254,982.3906,1264,986.3906,1254,990.3906,1258,986.3906" style="stroke:#181818;stroke-width:1.0;"/><line style="stroke:#181818;stroke-width:1.0;" x1="860" x2="1260" y1="986.3906" y2="986.3906"/><text fill="#000000" font-family="sans-serif" font-size="13" font-weight="bold" lengthAdjust="spacing" textLength="14" x="867" y="981.6357">29</text><text fill="#000000" font-family="sans-serif" font-size="13" lengthAdjust="spacing" textLength="79" x="885" y="981.6357">save(booking)</text><polygon fill="#181818" points="871,1010.9141,861,1014.9141,871,1018.9141,867,1014.9141" style="stroke:#181818;stroke-width:1.0;"/><line style="stroke:#181818;stroke-width:1.0;stroke-dasharray:2.0,2.0;" x1="865" x2="1270" y1="1014.9141" y2="1014.9141"/><text fill="#000000" font-family="sans-serif" font-size="13" font-weight="bold" lengthAdjust="spacing" textLength="14" x="877" y="1010.1592">30</text><text fill="#000000" font-family="sans-serif" font-size="13" lengthAdjust="spacing" textLength="4" x="895" y="1010.1592">&#160;</text><polygon fill="#181818" points="547,1046.4375,537,1050.4375,547,1054.4375,543,1050.4375" style="stroke:#181818;stroke-width:1.0;"/><line style="stroke:#181818;stroke-width:1.0;stroke-dasharray:2.0,2.0;" x1="541" x2="854" y1="1050.4375" y2="1050.4375"/><text fill="#000000" font-family="sans-serif" font-size="13" font-weight="bold" lengthAdjust="spacing" textLength="14" x="553" y="1045.6826">31</text><text fill="#000000" font-family="sans-serif" font-size="13" lengthAdjust="spacing" textLength="4" x="571" y="1045.6826">&#160;</text><polygon fill="#181818" points="112,1074.9609,102,1078.9609,112,1082.9609,108,1078.9609" style="stroke:#181818;stroke-width:1.0;"/><line style="stroke:#181818;stroke-width:1.0;stroke-dasharray:2.0,2.0;" x1="106" x2="530" y1="1078.9609" y2="1078.9609"/><text fill="#000000" font-family="sans-serif" font-size="13" font-weight="bold" lengthAdjust="spacing" textLength="14" x="118" y="1074.2061">32</text><text fill="#000000" font-family="sans-serif" font-size="13" lengthAdjust="spacing" textLength="246" x="136" y="1074.2061">Informs about the success of the operation</text><!--SRC=[hLR9SXiX4Btp5Ls-U2dh1tHmbUpue2gxafBico-8QKd4Cp01P4Vv-W2pmO2MfCn54dI_VjsyRgJVkQYfeXLKKaYsLR92C6g7HFSdDMNlT8DBioyH5393nQOC3VIM5lAJYmsiQQcH4BepKkog5If2BhUyG5XBQLRoDw7CI0KNtzM62lw76Yu5F5PrAVU85q0rpBuz4ujgEECr5GOk5gXhAOfxAMsypG9_xL2RrxatVft7jjEiyOCKHicoHEMT7buMJubRBJMtp3XgRzDlx9VS9MlJYLrKuF4cKe0VJxENsECPjRPL792dRoBPyxx9RXOeD8qDLbtsGQJxyPvtJtQ9ko3-GGtwYo3GBli39dUstZ25cNxNO2Hej4hP8fHS6v1he6K9RMYh4bzvFI3qkFREo2K4ou9EBBOBCUqTeQ26mfN2DIeK36-XGCqKhvrYRW6uM4jLqHBUH7nYa6q5P_OasYvsYZRVcDJcceG4Bfb2nymBOypipc_Vt5XkZHavO68DDcXYvLt5WVeQ-4ZHaLiUnQ9bnDU0puMslSTm11j1vvIRMBkLYp9fSt7tC0WwSI_mty9rYRccQ39997ui9TzBsHmyu40wRPmZpFEe7TKMAc9xZ6FNY3cQ7TPaKCegaicJxQ1ZL0-2DsoxnZm16W2c-ekQSBcLdphixNnp0nM5wp_tGRkXKA9z840A99cuhlV7usI9fVMmO6Fy6DTRUKxIjxJRLCsq9ybyoMRLpItA6DQMehBCMCb5CyL6mSaPp6SUI0T8EaybeZ7taylckvAx9Y6ziq1QkndQv8VDh2A7ID3I05_dQCEddUeAVzfQOK7S6d5Uj6T9lYH3F1fk6aNnM55UnYEk0xngWUR5THisLTkekO87AXsTz_jvZ9dfjl3T6lfis3tSSTu-xR0GC2Iyx78VniAfSiJnhaSb6GFwqoJAGByjQS0uYm1e_tuTaqQZVIUDl9XpmkZRwHmvT33Zg_k2suVJ2e1JAgX6a_Iq1Fv30tqD4Wt0IGqS5m6Seu6ES4ig-EkI9tJmNbo6zAFt6lC_S0N7wfzaa2jw8sHHXEoyIbFtuHtxoX7x5m00]--></g></svg>