<?xml version="1.0" encoding="us-ascii" standalone="no"?><svg xmlns="http://www.w3.org/2000/svg" xmlns:xlink="http://www.w3.org/1999/xlink" contentStyleType="text/css" height="776.7px" preserveAspectRatio="none" style="width:1414px;height:776px;background:#FFFFFF;" version="1.1" viewBox="0 0 1414 776" width="1414.8px" zoomAndPan="magnify"><defs/><g><rect fill="#FFFFFF" height="615.3117" style="stroke:#181818;stroke-width:0.9;" width="9" x="68.4" y="81.5766"/><rect fill="#FFFFFF" height="280.6875" style="stroke:#181818;stroke-width:0.9;" width="9" x="459.9" y="100.0477"/><rect fill="#FFFFFF" height="25.6711" style="stroke:#181818;stroke-width:0.9;" width="9" x="459.9" y="406.4063"/><rect fill="#FFFFFF" height="231.0398" style="stroke:#181818;stroke-width:0.9;" width="9" x="459.9" y="457.7484"/><rect fill="#FFFFFF" height="179.6977" style="stroke:#181818;stroke-width:0.9;" width="9" x="661.5" y="162.2953"/><rect fill="#FFFFFF" height="25.6711" style="stroke:#181818;stroke-width:0.9;" width="9" x="822.6" y="187.9664"/><rect fill="#FFFFFF" height="25.6711" style="stroke:#181818;stroke-width:0.9;" width="9" x="918.9" y="239.3086"/><rect fill="#FFFFFF" height="25.6711" style="stroke:#181818;stroke-width:0.9;" width="9" x="1035.9" y="509.0906"/><rect fill="#FFFFFF" height="25.6711" style="stroke:#181818;stroke-width:0.9;" width="9" x="1035.9" y="611.775"/><rect fill="#FFFFFF" height="25.6711" style="stroke:#181818;stroke-width:0.9;" width="9" x="1141.2" y="290.6508"/><rect fill="#FFFFFF" height="25.6711" style="stroke:#181818;stroke-width:0.9;" width="9" x="1359.45" y="560.4328"/><line style="stroke:#181818;stroke-width:0.45;stroke-dasharray:5.0,5.0;" x1="72.9" x2="72.9" y1="72.5766" y2="704.9883"/><line style="stroke:#181818;stroke-width:0.45;stroke-dasharray:5.0,5.0;" x1="463.95" x2="463.95" y1="72.5766" y2="704.9883"/><line style="stroke:#181818;stroke-width:0.45;stroke-dasharray:5.0,5.0;" x1="665.55" x2="665.55" y1="134.5359" y2="704.9883"/><line style="stroke:#181818;stroke-width:0.45;stroke-dasharray:5.0,5.0;" x1="826.65" x2="826.65" y1="72.5766" y2="704.9883"/><line style="stroke:#181818;stroke-width:0.45;stroke-dasharray:5.0,5.0;" x1="922.95" x2="922.95" y1="72.5766" y2="704.9883"/><line style="stroke:#181818;stroke-width:0.45;stroke-dasharray:5.0,5.0;" x1="1039.95" x2="1039.95" y1="72.5766" y2="704.9883"/><line style="stroke:#181818;stroke-width:0.45;stroke-dasharray:5.0,5.0;" x1="1145.25" x2="1145.25" y1="72.5766" y2="704.9883"/><line style="stroke:#181818;stroke-width:0.45;stroke-dasharray:5.0,5.0;" x1="1247.85" x2="1247.85" y1="72.5766" y2="704.9883"/><line style="stroke:#181818;stroke-width:0.45;stroke-dasharray:5.0,5.0;" x1="1363.95" x2="1363.95" y1="72.5766" y2="704.9883"/><text fill="#000000" font-family="sans-serif" font-size="12.6" lengthAdjust="spacing" textLength="131.4" x="4.5" y="69.9064">Organization Employee</text><ellipse cx="72.9" cy="12.15" fill="#E3E3E3" rx="7.2" ry="7.2" style="stroke:#181818;stroke-width:0.45;"/><path d="M72.9,19.35 L72.9,43.65 M61.2,26.55 L84.6,26.55 M72.9,43.65 L61.2,57.15 M72.9,43.65 L84.6,57.15 " fill="none" style="stroke:#181818;stroke-width:0.45;"/><text fill="#000000" font-family="sans-serif" font-size="12.6" lengthAdjust="spacing" textLength="131.4" x="4.5" y="715.4947">Organization Employee</text><ellipse cx="72.9" cy="725.8148" fill="#E3E3E3" rx="7.2" ry="7.2" style="stroke:#181818;stroke-width:0.45;"/><path d="M72.9,733.0148 L72.9,757.3148 M61.2,740.2148 L84.6,740.2148 M72.9,757.3148 L61.2,770.8148 M72.9,757.3148 L84.6,770.8148 " fill="none" style="stroke:#181818;stroke-width:0.45;"/><rect fill="#E3E3E3" height="26.6766" rx="2.25" ry="2.25" style="stroke:#181818;stroke-width:0.45;" width="168.3" x="380.25" y="45"/><text fill="#000000" font-family="sans-serif" font-size="12.6" lengthAdjust="spacing" textLength="155.7" x="386.55" y="62.7064">RespondBookingRequestUI</text><rect fill="#E3E3E3" height="26.6766" rx="2.25" ry="2.25" style="stroke:#181818;stroke-width:0.45;" width="168.3" x="380.25" y="704.0883"/><text fill="#000000" font-family="sans-serif" font-size="12.6" lengthAdjust="spacing" textLength="155.7" x="386.55" y="721.7947">RespondBookingRequestUI</text><rect fill="#E3E3E3" height="26.6766" rx="2.25" ry="2.25" style="stroke:#181818;stroke-width:0.45;" width="216.9" x="557.55" y="704.0883"/><text fill="#000000" font-family="sans-serif" font-size="12.6" lengthAdjust="spacing" textLength="204.3" x="563.85" y="721.7947">:RespondBookingRequestController</text><rect fill="#E3E3E3" height="26.6766" rx="2.25" ry="2.25" style="stroke:#181818;stroke-width:0.45;" width="87.3" x="783.45" y="45"/><text fill="#000000" font-family="sans-serif" font-size="12.6" lengthAdjust="spacing" textLength="74.7" x="789.75" y="62.7064">:Repositories</text><rect fill="#E3E3E3" height="26.6766" rx="2.25" ry="2.25" style="stroke:#181818;stroke-width:0.45;" width="87.3" x="783.45" y="704.0883"/><text fill="#000000" font-family="sans-serif" font-size="12.6" lengthAdjust="spacing" textLength="74.7" x="789.75" y="721.7947">:Repositories</text><rect fill="#E3E3E3" height="40.7531" rx="2.25" ry="2.25" style="stroke:#181818;stroke-width:0.45;" width="87.3" x="879.75" y="30.9234"/><text fill="#000000" font-family="sans-serif" font-size="12.6" lengthAdjust="spacing" textLength="66.6" x="890.1" y="48.6299">repositories</text><text fill="#000000" font-family="sans-serif" font-size="12.6" lengthAdjust="spacing" textLength="74.7" x="886.05" y="62.7064">:Repositories</text><rect fill="#E3E3E3" height="40.7531" rx="2.25" ry="2.25" style="stroke:#181818;stroke-width:0.45;" width="87.3" x="879.75" y="704.0883"/><text fill="#000000" font-family="sans-serif" font-size="12.6" lengthAdjust="spacing" textLength="66.6" x="890.1" y="721.7947">repositories</text><text fill="#000000" font-family="sans-serif" font-size="12.6" lengthAdjust="spacing" textLength="74.7" x="886.05" y="735.8713">:Repositories</text><rect fill="#E3E3E3" height="40.7531" rx="2.25" ry="2.25" style="stroke:#181818;stroke-width:0.45;" width="128.7" x="976.05" y="30.9234"/><text fill="#000000" font-family="sans-serif" font-size="12.6" lengthAdjust="spacing" textLength="116.1" x="982.35" y="48.6299">MessageRepository:</text><text fill="#000000" font-family="sans-serif" font-size="12.6" lengthAdjust="spacing" textLength="112.5" x="984.15" y="62.7064">MessageRepository</text><rect fill="#E3E3E3" height="40.7531" rx="2.25" ry="2.25" style="stroke:#181818;stroke-width:0.45;" width="128.7" x="976.05" y="704.0883"/><text fill="#000000" font-family="sans-serif" font-size="12.6" lengthAdjust="spacing" textLength="116.1" x="982.35" y="721.7947">MessageRepository:</text><text fill="#000000" font-family="sans-serif" font-size="12.6" lengthAdjust="spacing" textLength="112.5" x="984.15" y="735.8713">MessageRepository</text><rect fill="#E3E3E3" height="26.6766" rx="2.25" ry="2.25" style="stroke:#181818;stroke-width:0.45;" width="63.9" x="1113.75" y="45"/><text fill="#000000" font-family="sans-serif" font-size="12.6" lengthAdjust="spacing" textLength="51.3" x="1120.05" y="62.7064">Message</text><rect fill="#E3E3E3" height="26.6766" rx="2.25" ry="2.25" style="stroke:#181818;stroke-width:0.45;" width="63.9" x="1113.75" y="704.0883"/><text fill="#000000" font-family="sans-serif" font-size="12.6" lengthAdjust="spacing" textLength="51.3" x="1120.05" y="721.7947">Message</text><rect fill="#E3E3E3" height="40.7531" rx="2.25" ry="2.25" style="stroke:#181818;stroke-width:0.45;" width="122.4" x="1186.65" y="30.9234"/><text fill="#000000" font-family="sans-serif" font-size="12.6" lengthAdjust="spacing" textLength="109.8" x="1192.95" y="48.6299">bookingRepository:</text><text fill="#000000" font-family="sans-serif" font-size="12.6" lengthAdjust="spacing" textLength="107.1" x="1194.3" y="62.7064">BookingRepository</text><rect fill="#E3E3E3" height="40.7531" rx="2.25" ry="2.25" style="stroke:#181818;stroke-width:0.45;" width="122.4" x="1186.65" y="704.0883"/><text fill="#000000" font-family="sans-serif" font-size="12.6" lengthAdjust="spacing" textLength="109.8" x="1192.95" y="721.7947">bookingRepository:</text><text fill="#000000" font-family="sans-serif" font-size="12.6" lengthAdjust="spacing" textLength="107.1" x="1194.3" y="735.8713">BookingRepository</text><rect fill="#E3E3E3" height="26.6766" rx="2.25" ry="2.25" style="stroke:#181818;stroke-width:0.45;" width="91.8" x="1318.05" y="45"/><text fill="#000000" font-family="sans-serif" font-size="12.6" lengthAdjust="spacing" textLength="79.2" x="1324.35" y="62.7064">replyMessage</text><rect fill="#E3E3E3" height="26.6766" rx="2.25" ry="2.25" style="stroke:#181818;stroke-width:0.45;" width="91.8" x="1318.05" y="704.0883"/><text fill="#000000" font-family="sans-serif" font-size="12.6" lengthAdjust="spacing" textLength="79.2" x="1324.35" y="721.7947">replyMessage</text><rect fill="#FFFFFF" height="615.3117" style="stroke:#181818;stroke-width:0.9;" width="9" x="68.4" y="81.5766"/><rect fill="#FFFFFF" height="280.6875" style="stroke:#181818;stroke-width:0.9;" width="9" x="459.9" y="100.0477"/><rect fill="#FFFFFF" height="25.6711" style="stroke:#181818;stroke-width:0.9;" width="9" x="459.9" y="406.4063"/><rect fill="#FFFFFF" height="231.0398" style="stroke:#181818;stroke-width:0.9;" width="9" x="459.9" y="457.7484"/><rect fill="#FFFFFF" height="179.6977" style="stroke:#181818;stroke-width:0.9;" width="9" x="661.5" y="162.2953"/><rect fill="#FFFFFF" height="25.6711" style="stroke:#181818;stroke-width:0.9;" width="9" x="822.6" y="187.9664"/><rect fill="#FFFFFF" height="25.6711" style="stroke:#181818;stroke-width:0.9;" width="9" x="918.9" y="239.3086"/><rect fill="#FFFFFF" height="25.6711" style="stroke:#181818;stroke-width:0.9;" width="9" x="1035.9" y="509.0906"/><rect fill="#FFFFFF" height="25.6711" style="stroke:#181818;stroke-width:0.9;" width="9" x="1035.9" y="611.775"/><rect fill="#FFFFFF" height="25.6711" style="stroke:#181818;stroke-width:0.9;" width="9" x="1141.2" y="290.6508"/><rect fill="#FFFFFF" height="25.6711" style="stroke:#181818;stroke-width:0.9;" width="9" x="1359.45" y="560.4328"/><polygon fill="#181818" points="449.1,96.4477,458.1,100.0477,449.1,103.6477,452.7,100.0477" style="stroke:#181818;stroke-width:0.9;"/><line style="stroke:#181818;stroke-width:0.9;" x1="77.4" x2="454.5" y1="100.0477" y2="100.0477"/><text fill="#000000" font-family="sans-serif" font-size="11.7" font-weight="bold" lengthAdjust="spacing" textLength="6.3" x="83.7" y="95.7683">1</text><text fill="#000000" font-family="sans-serif" font-size="11.7" lengthAdjust="spacing" textLength="222.3" x="93.6" y="95.7683">Asks to see the list of all booking requests</text><polygon fill="#181818" points="546.75,122.1188,555.75,125.7188,546.75,129.3188,550.35,125.7188" style="stroke:#181818;stroke-width:0.9;"/><line style="stroke:#181818;stroke-width:0.9;" x1="468.9" x2="552.15" y1="125.7188" y2="125.7188"/><text fill="#000000" font-family="sans-serif" font-size="11.7" font-weight="bold" lengthAdjust="spacing" textLength="6.3" x="475.2" y="121.4394">2</text><text fill="#000000" font-family="sans-serif" font-size="11.7" lengthAdjust="spacing" textLength="32.4" x="485.1" y="121.4394">create</text><rect fill="#E3E3E3" height="26.6766" rx="2.25" ry="2.25" style="stroke:#181818;stroke-width:0.45;" width="216.9" x="557.55" y="107.2477"/><text fill="#000000" font-family="sans-serif" font-size="12.6" lengthAdjust="spacing" textLength="204.3" x="563.85" y="124.9541">:RespondBookingRequestController</text><polygon fill="#181818" points="650.7,158.6953,659.7,162.2953,650.7,165.8953,654.3,162.2953" style="stroke:#181818;stroke-width:0.9;"/><line style="stroke:#181818;stroke-width:0.9;" x1="468.9" x2="656.1" y1="162.2953" y2="162.2953"/><text fill="#000000" font-family="sans-serif" font-size="11.7" font-weight="bold" lengthAdjust="spacing" textLength="6.3" x="475.2" y="158.0159">3</text><text fill="#000000" font-family="sans-serif" font-size="11.7" lengthAdjust="spacing" textLength="71.1" x="485.1" y="158.0159">getMessage()</text><polygon fill="#181818" points="811.8,184.3664,820.8,187.9664,811.8,191.5664,815.4,187.9664" style="stroke:#181818;stroke-width:0.9;"/><line style="stroke:#181818;stroke-width:0.9;" x1="670.5" x2="817.2" y1="187.9664" y2="187.9664"/><text fill="#000000" font-family="sans-serif" font-size="11.7" font-weight="bold" lengthAdjust="spacing" textLength="6.3" x="676.8" y="183.687">4</text><text fill="#000000" font-family="sans-serif" font-size="11.7" lengthAdjust="spacing" textLength="67.5" x="686.7" y="183.687">getInstance()</text><polygon fill="#181818" points="680.4,210.0375,671.4,213.6375,680.4,217.2375,676.8,213.6375" style="stroke:#181818;stroke-width:0.9;"/><line style="stroke:#181818;stroke-width:0.9;stroke-dasharray:2.0,2.0;" x1="675" x2="826.2" y1="213.6375" y2="213.6375"/><text fill="#000000" font-family="sans-serif" font-size="11.7" font-weight="bold" lengthAdjust="spacing" textLength="6.3" x="685.8" y="209.3581">5</text><text fill="#000000" font-family="sans-serif" font-size="11.7" lengthAdjust="spacing" textLength="60.3" x="695.7" y="209.3581">repositories</text><polygon fill="#181818" points="908.1,235.7086,917.1,239.3086,908.1,242.9086,911.7,239.3086" style="stroke:#181818;stroke-width:0.9;"/><line style="stroke:#181818;stroke-width:0.9;" x1="670.5" x2="913.5" y1="239.3086" y2="239.3086"/><text fill="#000000" font-family="sans-serif" font-size="11.7" font-weight="bold" lengthAdjust="spacing" textLength="6.3" x="676.8" y="235.0292">6</text><text fill="#000000" font-family="sans-serif" font-size="11.7" lengthAdjust="spacing" textLength="126.9" x="686.7" y="235.0292">getMessageRepository()</text><polygon fill="#181818" points="680.4,261.3797,671.4,264.9797,680.4,268.5797,676.8,264.9797" style="stroke:#181818;stroke-width:0.9;"/><line style="stroke:#181818;stroke-width:0.9;stroke-dasharray:2.0,2.0;" x1="675" x2="922.5" y1="264.9797" y2="264.9797"/><text fill="#000000" font-family="sans-serif" font-size="11.7" font-weight="bold" lengthAdjust="spacing" textLength="6.3" x="685.8" y="260.7003">7</text><text fill="#000000" font-family="sans-serif" font-size="11.7" lengthAdjust="spacing" textLength="103.5" x="695.7" y="260.7003">MessageRepository</text><polygon fill="#181818" points="1130.4,287.0508,1139.4,290.6508,1130.4,294.2508,1134,290.6508" style="stroke:#181818;stroke-width:0.9;"/><line style="stroke:#181818;stroke-width:0.9;" x1="670.5" x2="1135.8" y1="290.6508" y2="290.6508"/><text fill="#000000" font-family="sans-serif" font-size="11.7" font-weight="bold" lengthAdjust="spacing" textLength="6.3" x="676.8" y="286.3714">8</text><text fill="#000000" font-family="sans-serif" font-size="11.7" lengthAdjust="spacing" textLength="71.1" x="686.7" y="286.3714">getMessage()</text><polygon fill="#181818" points="680.4,312.7219,671.4,316.3219,680.4,319.9219,676.8,316.3219" style="stroke:#181818;stroke-width:0.9;"/><line style="stroke:#181818;stroke-width:0.9;stroke-dasharray:2.0,2.0;" x1="675" x2="1144.8" y1="316.3219" y2="316.3219"/><text fill="#000000" font-family="sans-serif" font-size="11.7" font-weight="bold" lengthAdjust="spacing" textLength="6.3" x="685.8" y="312.0425">9</text><text fill="#000000" font-family="sans-serif" font-size="11.7" lengthAdjust="spacing" textLength="66.6" x="695.7" y="312.0425">messageList</text><polygon fill="#181818" points="478.8,338.393,469.8,341.993,478.8,345.593,475.2,341.993" style="stroke:#181818;stroke-width:0.9;"/><line style="stroke:#181818;stroke-width:0.9;stroke-dasharray:2.0,2.0;" x1="473.4" x2="665.1" y1="341.993" y2="341.993"/><text fill="#000000" font-family="sans-serif" font-size="11.7" font-weight="bold" lengthAdjust="spacing" textLength="12.6" x="484.2" y="337.7136">10</text><text fill="#000000" font-family="sans-serif" font-size="11.7" lengthAdjust="spacing" textLength="66.6" x="500.4" y="337.7136">messageList</text><polygon fill="#181818" points="87.3,377.1352,78.3,380.7352,87.3,384.3352,83.7,380.7352" style="stroke:#181818;stroke-width:0.9;"/><line style="stroke:#181818;stroke-width:0.9;stroke-dasharray:2.0,2.0;" x1="81.9" x2="463.5" y1="380.7352" y2="380.7352"/><text fill="#000000" font-family="sans-serif" font-size="11.7" font-weight="bold" lengthAdjust="spacing" textLength="12.6" x="92.7" y="369.9202">11</text><text fill="#000000" font-family="sans-serif" font-size="11.7" lengthAdjust="spacing" textLength="219.6" x="108.9" y="363.3847">Shows the list off all booking requests and</text><text fill="#000000" font-family="sans-serif" font-size="11.7" lengthAdjust="spacing" textLength="118.8" x="112.5" y="376.4558">and asks to sleect one</text><polygon fill="#181818" points="449.1,402.8063,458.1,406.4063,449.1,410.0063,452.7,406.4063" style="stroke:#181818;stroke-width:0.9;"/><line style="stroke:#181818;stroke-width:0.9;" x1="77.4" x2="454.5" y1="406.4063" y2="406.4063"/><text fill="#000000" font-family="sans-serif" font-size="11.7" font-weight="bold" lengthAdjust="spacing" textLength="12.6" x="83.7" y="402.1269">12</text><text fill="#000000" font-family="sans-serif" font-size="11.7" lengthAdjust="spacing" textLength="349.2" x="99.9" y="402.1269">Selects a booking request and asks to select the option to respond</text><polygon fill="#181818" points="87.3,428.4773,78.3,432.0773,87.3,435.6773,83.7,432.0773" style="stroke:#181818;stroke-width:0.9;"/><line style="stroke:#181818;stroke-width:0.9;stroke-dasharray:2.0,2.0;" x1="81.9" x2="463.5" y1="432.0773" y2="432.0773"/><text fill="#000000" font-family="sans-serif" font-size="11.7" font-weight="bold" lengthAdjust="spacing" textLength="12.6" x="92.7" y="427.7979">13</text><text fill="#000000" font-family="sans-serif" font-size="11.7" lengthAdjust="spacing" textLength="221.4" x="108.9" y="427.7979">Informs about the success of the operation</text><polygon fill="#181818" points="449.1,454.1484,458.1,457.7484,449.1,461.3484,452.7,457.7484" style="stroke:#181818;stroke-width:0.9;"/><line style="stroke:#181818;stroke-width:0.9;" x1="77.4" x2="454.5" y1="457.7484" y2="457.7484"/><text fill="#000000" font-family="sans-serif" font-size="11.7" font-weight="bold" lengthAdjust="spacing" textLength="12.6" x="83.7" y="453.469">14</text><text fill="#000000" font-family="sans-serif" font-size="11.7" lengthAdjust="spacing" textLength="180.9" x="99.9" y="453.469">Responding to the booking request</text><polygon fill="#181818" points="655.2,479.8195,664.2,483.4195,655.2,487.0195,658.8,483.4195" style="stroke:#181818;stroke-width:0.9;"/><line style="stroke:#181818;stroke-width:0.9;" x1="468.9" x2="660.6" y1="483.4195" y2="483.4195"/><text fill="#000000" font-family="sans-serif" font-size="11.7" font-weight="bold" lengthAdjust="spacing" textLength="12.6" x="475.2" y="479.1401">15</text><text fill="#000000" font-family="sans-serif" font-size="11.7" lengthAdjust="spacing" textLength="72.9" x="491.4" y="479.1401">replyMessage</text><polygon fill="#181818" points="1025.1,505.4906,1034.1,509.0906,1025.1,512.6906,1028.7,509.0906" style="stroke:#181818;stroke-width:0.9;"/><line style="stroke:#181818;stroke-width:0.9;" x1="666" x2="1030.5" y1="509.0906" y2="509.0906"/><text fill="#000000" font-family="sans-serif" font-size="11.7" font-weight="bold" lengthAdjust="spacing" textLength="12.6" x="672.3" y="504.8112">16</text><text fill="#000000" font-family="sans-serif" font-size="11.7" lengthAdjust="spacing" textLength="101.7" x="688.5" y="504.8112">getBookingRequest</text><polygon fill="#181818" points="675.9,531.1617,666.9,534.7617,675.9,538.3617,672.3,534.7617" style="stroke:#181818;stroke-width:0.9;"/><line style="stroke:#181818;stroke-width:0.9;stroke-dasharray:2.0,2.0;" x1="670.5" x2="1039.5" y1="534.7617" y2="534.7617"/><text fill="#000000" font-family="sans-serif" font-size="11.7" font-weight="bold" lengthAdjust="spacing" textLength="12.6" x="681.3" y="530.4823">17</text><text fill="#000000" font-family="sans-serif" font-size="11.7" lengthAdjust="spacing" textLength="47.7" x="697.5" y="530.4823">message</text><polygon fill="#181818" points="1348.65,556.8328,1357.65,560.4328,1348.65,564.0328,1352.25,560.4328" style="stroke:#181818;stroke-width:0.9;"/><line style="stroke:#181818;stroke-width:0.9;" x1="666" x2="1354.05" y1="560.4328" y2="560.4328"/><text fill="#000000" font-family="sans-serif" font-size="11.7" font-weight="bold" lengthAdjust="spacing" textLength="12.6" x="672.3" y="556.1534">18</text><text fill="#000000" font-family="sans-serif" font-size="11.7" lengthAdjust="spacing" textLength="127.8" x="688.5" y="556.1534">replyMessage(message)</text><polygon fill="#181818" points="675.9,582.5039,666.9,586.1039,675.9,589.7039,672.3,586.1039" style="stroke:#181818;stroke-width:0.9;"/><line style="stroke:#181818;stroke-width:0.9;stroke-dasharray:2.0,2.0;" x1="670.5" x2="1363.05" y1="586.1039" y2="586.1039"/><text fill="#000000" font-family="sans-serif" font-size="11.7" font-weight="bold" lengthAdjust="spacing" textLength="12.6" x="681.3" y="581.8245">19</text><text fill="#000000" font-family="sans-serif" font-size="11.7" lengthAdjust="spacing" textLength="81.9" x="697.5" y="581.8245">writes message</text><polygon fill="#181818" points="1025.1,608.175,1034.1,611.775,1025.1,615.375,1028.7,611.775" style="stroke:#181818;stroke-width:0.9;"/><line style="stroke:#181818;stroke-width:0.9;" x1="666" x2="1030.5" y1="611.775" y2="611.775"/><text fill="#000000" font-family="sans-serif" font-size="11.7" font-weight="bold" lengthAdjust="spacing" textLength="12.6" x="672.3" y="607.4956">20</text><text fill="#000000" font-family="sans-serif" font-size="11.7" lengthAdjust="spacing" textLength="78.3" x="688.5" y="607.4956">save(message)</text><polygon fill="#181818" points="675.9,633.8461,666.9,637.4461,675.9,641.0461,672.3,637.4461" style="stroke:#181818;stroke-width:0.9;"/><line style="stroke:#181818;stroke-width:0.9;stroke-dasharray:2.0,2.0;" x1="670.5" x2="1039.5" y1="637.4461" y2="637.4461"/><text fill="#000000" font-family="sans-serif" font-size="11.7" font-weight="bold" lengthAdjust="spacing" textLength="12.6" x="681.3" y="633.1667">21</text><text fill="#000000" font-family="sans-serif" font-size="11.7" lengthAdjust="spacing" textLength="3.6" x="697.5" y="633.1667">&#160;</text><polygon fill="#181818" points="478.8,659.5172,469.8,663.1172,478.8,666.7172,475.2,663.1172" style="stroke:#181818;stroke-width:0.9;"/><line style="stroke:#181818;stroke-width:0.9;stroke-dasharray:2.0,2.0;" x1="473.4" x2="665.1" y1="663.1172" y2="663.1172"/><text fill="#000000" font-family="sans-serif" font-size="11.7" font-weight="bold" lengthAdjust="spacing" textLength="12.6" x="484.2" y="658.8378">22</text><text fill="#000000" font-family="sans-serif" font-size="11.7" lengthAdjust="spacing" textLength="3.6" x="500.4" y="658.8378">&#160;</text><polygon fill="#181818" points="87.3,685.1883,78.3,688.7883,87.3,692.3883,83.7,688.7883" style="stroke:#181818;stroke-width:0.9;"/><line style="stroke:#181818;stroke-width:0.9;stroke-dasharray:2.0,2.0;" x1="81.9" x2="463.5" y1="688.7883" y2="688.7883"/><text fill="#000000" font-family="sans-serif" font-size="11.7" font-weight="bold" lengthAdjust="spacing" textLength="12.6" x="92.7" y="684.5089">23</text><text fill="#000000" font-family="sans-serif" font-size="11.7" lengthAdjust="spacing" textLength="221.4" x="108.9" y="684.5089">Informs about the success of the operation</text><!--SRC=[hLLDRzim3BthLn2zz0FD7yYXGDlj4A35XgQzzQB8J2BKbZn9RfVz-b7obsJP0GPCbpOK-VX8yT7sGwgQ6rv1fPKMHwCh16SQP7QugRduu0VSkbE9O50uhWvbx62FlD1VKXrWpqkBZF76QTLKEpICNHvbWR3NsktqRyQ5qmOkVfW3L_8FTr8h-5xLfJuXNW2tSF_jcH6gaqBMN3cuU45RQrKyQ4tv3Y_ugq7htZR1-MsJ-gvddH-rSaQN9PeGzFZwyfI5rTfAOYRH1f_1SDfANooLauQOAE9TvG0_d-vVquXdj9QwE2AltrLc2x6PTHOeTaqTTdtrKQQ7gIs4PrRc7qX-SeVX8HXqXtx0wexw3MkujnyMd0QBD2b7X59Q1teFl2oXIqrJ4ZflHuG1bzwCNK9q27H5s3x5UWY4WZiELmRtQ509l8K2hJ2ozXDp2o3LNfkAb_2kqXk7ugYae9l4N3I6j_y9RTqrYmbS2eEUMHYCARExOBwv8Mwj6rjm8OS3kkv1hj8CG_4XHNBbJmWdc9cfQr4tofBen1GsWPuRsSpRdxaigwu8_m3Z96VX1VvRkhumhuQaFsFqkPA2Y6Ph280ZwLmnPvZFe_PKEwXphvbmx1KuHxF7MeqZKhMc9zBCEOwBg2tDNefBQ15IFd69thP7_MLZ6S_h6BWglDJy7zxhlqJw5e1Mo6RoUfbFDySMIueWi2b-YXky0YSTrEkDfbtiB5ibB2jf4rO3PTdffeMnZH3KAR-aMbHibq4RF26TiUw-APuk4V404_OBfARRWPHLdYOFEvcwQ6NxyKi_OmFgT4hYzPrEtdWpCuE3SpvtCIABUSOrJ4gwwc2lMTgFlEm49EBrPQH3czABkAL0x6px2CtopqLE2uqxrxMCpW969D0yPXJZ_vpOlm00]--></g></svg>