<?xml version="1.0" encoding="us-ascii" standalone="no"?><svg xmlns="http://www.w3.org/2000/svg" xmlns:xlink="http://www.w3.org/1999/xlink" contentStyleType="text/css" height="1124px" preserveAspectRatio="none" style="width:594px;height:1124px;background:#FFFFFF;" version="1.1" viewBox="0 0 594 1124" width="594px" zoomAndPan="magnify"><defs/><g><text fill="#000000" font-family="sans-serif" font-size="14" font-weight="bold" lengthAdjust="spacing" textLength="288" x="154.75" y="27.6738">System Sequence Diagram (SSD) - US 004</text><rect fill="#FFFFFF" height="908.2734" style="stroke:#181818;stroke-width:1.0;" width="10" x="48.5" y="127.2813"/><rect fill="#FFFFFF" height="28.5234" style="stroke:#181818;stroke-width:1.0;" width="10" x="531.5" y="147.8047"/><rect fill="#FFFFFF" height="28.5234" style="stroke:#181818;stroke-width:1.0;" width="10" x="531.5" y="204.8516"/><rect fill="#FFFFFF" height="28.5234" style="stroke:#181818;stroke-width:1.0;" width="10" x="531.5" y="261.8984"/><rect fill="#FFFFFF" height="43.0469" style="stroke:#181818;stroke-width:1.0;" width="10" x="531.5" y="318.9453"/><rect fill="#FFFFFF" height="52.0469" style="stroke:#181818;stroke-width:1.0;" width="10" x="531.5" y="390.5156"/><rect fill="#FFFFFF" height="59.0469" style="stroke:#181818;stroke-width:1.0;" width="10" x="531.5" y="471.0859"/><rect fill="#FFFFFF" height="73.5703" style="stroke:#181818;stroke-width:1.0;" width="10" x="531.5" y="558.6563"/><rect fill="#FFFFFF" height="52.0469" style="stroke:#181818;stroke-width:1.0;" width="10" x="531.5" y="660.75"/><rect fill="#FFFFFF" height="42.5234" style="stroke:#181818;stroke-width:1.0;" width="10" x="531.5" y="741.3203"/><rect fill="#FFFFFF" height="28.5234" style="stroke:#181818;stroke-width:1.0;" width="10" x="531.5" y="812.3672"/><rect fill="#FFFFFF" height="43.0469" style="stroke:#181818;stroke-width:1.0;" width="10" x="531.5" y="926.4609"/><rect fill="#FFFFFF" height="28.5234" style="stroke:#181818;stroke-width:1.0;" width="10" x="531.5" y="998.0313"/><rect fill="none" height="73.5703" style="stroke:#000000;stroke-width:1.5;" width="558.5" x="20" y="405.5156"/><rect fill="none" height="73.5703" style="stroke:#000000;stroke-width:1.5;" width="558.5" x="20" y="493.0859"/><rect fill="none" height="175.6641" style="stroke:#000000;stroke-width:1.5;" width="578.5" x="10" y="580.6563"/><rect fill="none" height="73.5703" style="stroke:#000000;stroke-width:1.5;" width="558.5" x="20" y="675.75"/><line style="stroke:#181818;stroke-width:0.5;stroke-dasharray:5.0,5.0;" x1="53" x2="53" y1="117.2813" y2="1044.5547"/><line style="stroke:#181818;stroke-width:0.5;stroke-dasharray:5.0,5.0;" x1="536.5" x2="536.5" y1="117.2813" y2="1044.5547"/><text fill="#000000" font-family="sans-serif" font-size="14" lengthAdjust="spacing" textLength="41" x="30" y="114.3145">Owner</text><ellipse cx="53.5" cy="50.1406" fill="#E3E3E3" rx="8" ry="8" style="stroke:#181818;stroke-width:0.5;"/><path d="M53.5,58.1406 L53.5,85.1406 M40.5,66.1406 L66.5,66.1406 M53.5,85.1406 L40.5,100.1406 M53.5,85.1406 L66.5,100.1406 " fill="none" style="stroke:#181818;stroke-width:0.5;"/><text fill="#000000" font-family="sans-serif" font-size="14" lengthAdjust="spacing" textLength="41" x="30" y="1056.2285">Owner</text><ellipse cx="53.5" cy="1067.6953" fill="#E3E3E3" rx="8" ry="8" style="stroke:#181818;stroke-width:0.5;"/><path d="M53.5,1075.6953 L53.5,1102.6953 M40.5,1083.6953 L66.5,1083.6953 M53.5,1102.6953 L40.5,1117.6953 M53.5,1102.6953 L66.5,1117.6953 " fill="none" style="stroke:#181818;stroke-width:0.5;"/><rect fill="#E3E3E3" height="29.6406" rx="2.5" ry="2.5" style="stroke:#181818;stroke-width:0.5;" width="64" x="504.5" y="86.6406"/><text fill="#000000" font-family="sans-serif" font-size="14" lengthAdjust="spacing" textLength="50" x="511.5" y="106.3145">:System</text><rect fill="#E3E3E3" height="29.6406" rx="2.5" ry="2.5" style="stroke:#181818;stroke-width:0.5;" width="64" x="504.5" y="1043.5547"/><text fill="#000000" font-family="sans-serif" font-size="14" lengthAdjust="spacing" textLength="50" x="511.5" y="1063.2285">:System</text><rect fill="#FFFFFF" height="908.2734" style="stroke:#181818;stroke-width:1.0;" width="10" x="48.5" y="127.2813"/><rect fill="#FFFFFF" height="28.5234" style="stroke:#181818;stroke-width:1.0;" width="10" x="531.5" y="147.8047"/><rect fill="#FFFFFF" height="28.5234" style="stroke:#181818;stroke-width:1.0;" width="10" x="531.5" y="204.8516"/><rect fill="#FFFFFF" height="28.5234" style="stroke:#181818;stroke-width:1.0;" width="10" x="531.5" y="261.8984"/><rect fill="#FFFFFF" height="43.0469" style="stroke:#181818;stroke-width:1.0;" width="10" x="531.5" y="318.9453"/><rect fill="#FFFFFF" height="52.0469" style="stroke:#181818;stroke-width:1.0;" width="10" x="531.5" y="390.5156"/><rect fill="#FFFFFF" height="59.0469" style="stroke:#181818;stroke-width:1.0;" width="10" x="531.5" y="471.0859"/><rect fill="#FFFFFF" height="73.5703" style="stroke:#181818;stroke-width:1.0;" width="10" x="531.5" y="558.6563"/><rect fill="#FFFFFF" height="52.0469" style="stroke:#181818;stroke-width:1.0;" width="10" x="531.5" y="660.75"/><rect fill="#FFFFFF" height="42.5234" style="stroke:#181818;stroke-width:1.0;" width="10" x="531.5" y="741.3203"/><rect fill="#FFFFFF" height="28.5234" style="stroke:#181818;stroke-width:1.0;" width="10" x="531.5" y="812.3672"/><rect fill="#FFFFFF" height="43.0469" style="stroke:#181818;stroke-width:1.0;" width="10" x="531.5" y="926.4609"/><rect fill="#FFFFFF" height="28.5234" style="stroke:#181818;stroke-width:1.0;" width="10" x="531.5" y="998.0313"/><polygon fill="#181818" points="519.5,143.8047,529.5,147.8047,519.5,151.8047,523.5,147.8047" style="stroke:#181818;stroke-width:1.0;"/><line style="stroke:#181818;stroke-width:1.0;" x1="58.5" x2="525.5" y1="147.8047" y2="147.8047"/><text fill="#000000" font-family="sans-serif" font-size="13" font-weight="bold" lengthAdjust="spacing" textLength="7" x="65.5" y="143.0498">1</text><text fill="#000000" font-family="sans-serif" font-size="13" lengthAdjust="spacing" textLength="168" x="76.5" y="143.0498">asks to create a new request</text><polygon fill="#181818" points="69.5,172.3281,59.5,176.3281,69.5,180.3281,65.5,176.3281" style="stroke:#181818;stroke-width:1.0;"/><line style="stroke:#181818;stroke-width:1.0;stroke-dasharray:2.0,2.0;" x1="63.5" x2="535.5" y1="176.3281" y2="176.3281"/><text fill="#000000" font-family="sans-serif" font-size="13" font-weight="bold" lengthAdjust="spacing" textLength="7" x="75.5" y="171.5732">2</text><text fill="#000000" font-family="sans-serif" font-size="13" lengthAdjust="spacing" textLength="269" x="86.5" y="171.5732">asks to select the type of request (Sell or rent)</text><polygon fill="#181818" points="519.5,200.8516,529.5,204.8516,519.5,208.8516,523.5,204.8516" style="stroke:#181818;stroke-width:1.0;"/><line style="stroke:#181818;stroke-width:1.0;" x1="58.5" x2="525.5" y1="204.8516" y2="204.8516"/><text fill="#000000" font-family="sans-serif" font-size="13" font-weight="bold" lengthAdjust="spacing" textLength="7" x="65.5" y="200.0967">3</text><text fill="#000000" font-family="sans-serif" font-size="13" lengthAdjust="spacing" textLength="143" x="76.5" y="200.0967">selects a type of request</text><polygon fill="#181818" points="69.5,229.375,59.5,233.375,69.5,237.375,65.5,233.375" style="stroke:#181818;stroke-width:1.0;"/><line style="stroke:#181818;stroke-width:1.0;stroke-dasharray:2.0,2.0;" x1="63.5" x2="535.5" y1="233.375" y2="233.375"/><text fill="#000000" font-family="sans-serif" font-size="13" font-weight="bold" lengthAdjust="spacing" textLength="7" x="75.5" y="228.6201">4</text><text fill="#000000" font-family="sans-serif" font-size="13" lengthAdjust="spacing" textLength="351" x="86.5" y="228.6201">asks to select the type of property (Land, House, Apartment)</text><polygon fill="#181818" points="519.5,257.8984,529.5,261.8984,519.5,265.8984,523.5,261.8984" style="stroke:#181818;stroke-width:1.0;"/><line style="stroke:#181818;stroke-width:1.0;" x1="58.5" x2="525.5" y1="261.8984" y2="261.8984"/><text fill="#000000" font-family="sans-serif" font-size="13" font-weight="bold" lengthAdjust="spacing" textLength="7" x="65.5" y="257.1436">5</text><text fill="#000000" font-family="sans-serif" font-size="13" lengthAdjust="spacing" textLength="147" x="76.5" y="257.1436">selects a type of property</text><polygon fill="#181818" points="69.5,286.4219,59.5,290.4219,69.5,294.4219,65.5,290.4219" style="stroke:#181818;stroke-width:1.0;"/><line style="stroke:#181818;stroke-width:1.0;stroke-dasharray:2.0,2.0;" x1="63.5" x2="535.5" y1="290.4219" y2="290.4219"/><text fill="#000000" font-family="sans-serif" font-size="13" font-weight="bold" lengthAdjust="spacing" textLength="7" x="75.5" y="285.667">6</text><text fill="#000000" font-family="sans-serif" font-size="13" lengthAdjust="spacing" textLength="349" x="86.5" y="285.667">requests data(area, location, price, distanceFromCityCentre)</text><polygon fill="#181818" points="519.5,314.9453,529.5,318.9453,519.5,322.9453,523.5,318.9453" style="stroke:#181818;stroke-width:1.0;"/><line style="stroke:#181818;stroke-width:1.0;" x1="58.5" x2="525.5" y1="318.9453" y2="318.9453"/><text fill="#000000" font-family="sans-serif" font-size="13" font-weight="bold" lengthAdjust="spacing" textLength="7" x="65.5" y="314.1904">7</text><text fill="#000000" font-family="sans-serif" font-size="13" lengthAdjust="spacing" textLength="68" x="76.5" y="314.1904">inserts data</text><polygon fill="#181818" points="69.5,357.9922,59.5,361.9922,69.5,365.9922,65.5,361.9922" style="stroke:#181818;stroke-width:1.0;"/><line style="stroke:#181818;stroke-width:1.0;stroke-dasharray:2.0,2.0;" x1="63.5" x2="535.5" y1="361.9922" y2="361.9922"/><text fill="#000000" font-family="sans-serif" font-size="13" font-weight="bold" lengthAdjust="spacing" textLength="7" x="75.5" y="349.9756">8</text><text fill="#000000" font-family="sans-serif" font-size="13" lengthAdjust="spacing" textLength="176" x="86.5" y="342.7139">requests the number of photos</text><text fill="#000000" font-family="sans-serif" font-size="13" lengthAdjust="spacing" textLength="186" x="86.5" y="357.2373">that the owner intends to submit</text><polygon fill="#181818" points="519.5,386.5156,529.5,390.5156,519.5,394.5156,523.5,390.5156" style="stroke:#181818;stroke-width:1.0;"/><line style="stroke:#181818;stroke-width:1.0;" x1="58.5" x2="525.5" y1="390.5156" y2="390.5156"/><text fill="#000000" font-family="sans-serif" font-size="13" font-weight="bold" lengthAdjust="spacing" textLength="7" x="65.5" y="385.7607">9</text><text fill="#000000" font-family="sans-serif" font-size="13" lengthAdjust="spacing" textLength="165" x="76.5" y="385.7607">inserts the number of photos</text><path d="M20,405.5156 L93,405.5156 L93,412.0391 L83,422.0391 L20,422.0391 L20,405.5156 " fill="#EEEEEE" style="stroke:#000000;stroke-width:1.5;"/><rect fill="none" height="73.5703" style="stroke:#000000;stroke-width:1.5;" width="558.5" x="20" y="405.5156"/><text fill="#000000" font-family="sans-serif" font-size="13" font-weight="bold" lengthAdjust="spacing" textLength="28" x="35" y="418.2842">loop</text><text fill="#000000" font-family="sans-serif" font-size="11" font-weight="bold" lengthAdjust="spacing" textLength="227" x="108" y="417.4736">[from 1 to the number of photos defined]</text><polygon fill="#181818" points="69.5,438.5625,59.5,442.5625,69.5,446.5625,65.5,442.5625" style="stroke:#181818;stroke-width:1.0;"/><line style="stroke:#181818;stroke-width:1.0;stroke-dasharray:2.0,2.0;" x1="63.5" x2="535.5" y1="442.5625" y2="442.5625"/><text fill="#000000" font-family="sans-serif" font-size="13" font-weight="bold" lengthAdjust="spacing" textLength="14" x="75.5" y="437.8076">10</text><text fill="#000000" font-family="sans-serif" font-size="13" lengthAdjust="spacing" textLength="136" x="93.5" y="437.8076">asks for the photos URI</text><polygon fill="#181818" points="519.5,467.0859,529.5,471.0859,519.5,475.0859,523.5,471.0859" style="stroke:#181818;stroke-width:1.0;"/><line style="stroke:#181818;stroke-width:1.0;" x1="58.5" x2="525.5" y1="471.0859" y2="471.0859"/><text fill="#000000" font-family="sans-serif" font-size="13" font-weight="bold" lengthAdjust="spacing" textLength="14" x="65.5" y="466.3311">11</text><text fill="#000000" font-family="sans-serif" font-size="13" lengthAdjust="spacing" textLength="107" x="83.5" y="466.3311">inserts photos URI</text><path d="M20,493.0859 L85,493.0859 L85,499.6094 L75,509.6094 L20,509.6094 L20,493.0859 " fill="#EEEEEE" style="stroke:#000000;stroke-width:1.5;"/><rect fill="none" height="73.5703" style="stroke:#000000;stroke-width:1.5;" width="558.5" x="20" y="493.0859"/><text fill="#000000" font-family="sans-serif" font-size="13" font-weight="bold" lengthAdjust="spacing" textLength="20" x="35" y="505.8545">opt</text><text fill="#000000" font-family="sans-serif" font-size="11" font-weight="bold" lengthAdjust="spacing" textLength="93" x="100" y="505.0439">[Rent a Property]</text><polygon fill="#181818" points="69.5,526.1328,59.5,530.1328,69.5,534.1328,65.5,530.1328" style="stroke:#181818;stroke-width:1.0;"/><line style="stroke:#181818;stroke-width:1.0;stroke-dasharray:2.0,2.0;" x1="63.5" x2="535.5" y1="530.1328" y2="530.1328"/><text fill="#000000" font-family="sans-serif" font-size="13" font-weight="bold" lengthAdjust="spacing" textLength="14" x="75.5" y="525.3779">12</text><text fill="#000000" font-family="sans-serif" font-size="13" lengthAdjust="spacing" textLength="188" x="93.5" y="525.3779">requests data (contract duration)</text><polygon fill="#181818" points="519.5,554.6563,529.5,558.6563,519.5,562.6563,523.5,558.6563" style="stroke:#181818;stroke-width:1.0;"/><line style="stroke:#181818;stroke-width:1.0;" x1="58.5" x2="525.5" y1="558.6563" y2="558.6563"/><text fill="#000000" font-family="sans-serif" font-size="13" font-weight="bold" lengthAdjust="spacing" textLength="14" x="65.5" y="553.9014">13</text><text fill="#000000" font-family="sans-serif" font-size="13" lengthAdjust="spacing" textLength="68" x="83.5" y="553.9014">inserts data</text><path d="M10,580.6563 L75,580.6563 L75,587.1797 L65,597.1797 L10,597.1797 L10,580.6563 " fill="#EEEEEE" style="stroke:#000000;stroke-width:1.5;"/><rect fill="none" height="175.6641" style="stroke:#000000;stroke-width:1.5;" width="578.5" x="10" y="580.6563"/><text fill="#000000" font-family="sans-serif" font-size="13" font-weight="bold" lengthAdjust="spacing" textLength="20" x="25" y="593.4248">opt</text><text fill="#000000" font-family="sans-serif" font-size="11" font-weight="bold" lengthAdjust="spacing" textLength="184" x="90" y="592.6143">[Property is Apartment or House]</text><polygon fill="#181818" points="69.5,628.2266,59.5,632.2266,69.5,636.2266,65.5,632.2266" style="stroke:#181818;stroke-width:1.0;"/><line style="stroke:#181818;stroke-width:1.0;stroke-dasharray:2.0,2.0;" x1="63.5" x2="535.5" y1="632.2266" y2="632.2266"/><text fill="#000000" font-family="sans-serif" font-size="13" font-weight="bold" lengthAdjust="spacing" textLength="14" x="75.5" y="620.21">14</text><text fill="#000000" font-family="sans-serif" font-size="13" lengthAdjust="spacing" textLength="339" x="93.5" y="612.9482">requests data (number of bedrooms, number of bathrooms,</text><text fill="#000000" font-family="sans-serif" font-size="13" lengthAdjust="spacing" textLength="295" x="93.5" y="627.4717">number of parking spaces and available equipment)</text><polygon fill="#181818" points="519.5,656.75,529.5,660.75,519.5,664.75,523.5,660.75" style="stroke:#181818;stroke-width:1.0;"/><line style="stroke:#181818;stroke-width:1.0;" x1="58.5" x2="525.5" y1="660.75" y2="660.75"/><text fill="#000000" font-family="sans-serif" font-size="13" font-weight="bold" lengthAdjust="spacing" textLength="14" x="65.5" y="655.9951">15</text><text fill="#000000" font-family="sans-serif" font-size="13" lengthAdjust="spacing" textLength="68" x="83.5" y="655.9951">inserts data</text><path d="M20,675.75 L85,675.75 L85,682.2734 L75,692.2734 L20,692.2734 L20,675.75 " fill="#EEEEEE" style="stroke:#000000;stroke-width:1.5;"/><rect fill="none" height="73.5703" style="stroke:#000000;stroke-width:1.5;" width="558.5" x="20" y="675.75"/><text fill="#000000" font-family="sans-serif" font-size="13" font-weight="bold" lengthAdjust="spacing" textLength="20" x="35" y="688.5186">opt</text><text fill="#000000" font-family="sans-serif" font-size="11" font-weight="bold" lengthAdjust="spacing" textLength="116" x="100" y="687.708">[Property is a House]</text><polygon fill="#181818" points="69.5,708.7969,59.5,712.7969,69.5,716.7969,65.5,712.7969" style="stroke:#181818;stroke-width:1.0;"/><line style="stroke:#181818;stroke-width:1.0;stroke-dasharray:2.0,2.0;" x1="63.5" x2="535.5" y1="712.7969" y2="712.7969"/><text fill="#000000" font-family="sans-serif" font-size="13" font-weight="bold" lengthAdjust="spacing" textLength="14" x="75.5" y="708.042">16</text><text fill="#000000" font-family="sans-serif" font-size="13" lengthAdjust="spacing" textLength="431" x="93.5" y="708.042">requests data (existence of a basement, inhabitable loft and sun exposure)</text><polygon fill="#181818" points="519.5,737.3203,529.5,741.3203,519.5,745.3203,523.5,741.3203" style="stroke:#181818;stroke-width:1.0;"/><line style="stroke:#181818;stroke-width:1.0;" x1="58.5" x2="525.5" y1="741.3203" y2="741.3203"/><text fill="#000000" font-family="sans-serif" font-size="13" font-weight="bold" lengthAdjust="spacing" textLength="14" x="65.5" y="736.5654">17</text><text fill="#000000" font-family="sans-serif" font-size="13" lengthAdjust="spacing" textLength="68" x="83.5" y="736.5654">inserts data</text><polygon fill="#181818" points="69.5,779.8438,59.5,783.8438,69.5,787.8438,65.5,783.8438" style="stroke:#181818;stroke-width:1.0;"/><line style="stroke:#181818;stroke-width:1.0;stroke-dasharray:2.0,2.0;" x1="63.5" x2="535.5" y1="783.8438" y2="783.8438"/><text fill="#000000" font-family="sans-serif" font-size="13" font-weight="bold" lengthAdjust="spacing" textLength="14" x="75.5" y="779.0889">18</text><text fill="#000000" font-family="sans-serif" font-size="13" lengthAdjust="spacing" textLength="250" x="93.5" y="779.0889">shows agencies list and asks to select one</text><polygon fill="#181818" points="519.5,808.3672,529.5,812.3672,519.5,816.3672,523.5,812.3672" style="stroke:#181818;stroke-width:1.0;"/><line style="stroke:#181818;stroke-width:1.0;" x1="58.5" x2="525.5" y1="812.3672" y2="812.3672"/><text fill="#000000" font-family="sans-serif" font-size="13" font-weight="bold" lengthAdjust="spacing" textLength="14" x="65.5" y="807.6123">19</text><text fill="#000000" font-family="sans-serif" font-size="13" lengthAdjust="spacing" textLength="106" x="83.5" y="807.6123">selects an agency</text><polygon fill="#181818" points="69.5,836.8906,59.5,840.8906,69.5,844.8906,65.5,840.8906" style="stroke:#181818;stroke-width:1.0;"/><line style="stroke:#181818;stroke-width:1.0;stroke-dasharray:2.0,2.0;" x1="63.5" x2="535.5" y1="840.8906" y2="840.8906"/><text fill="#000000" font-family="sans-serif" font-size="13" font-weight="bold" lengthAdjust="spacing" textLength="14" x="75.5" y="836.1357">20</text><text fill="#000000" font-family="sans-serif" font-size="13" lengthAdjust="spacing" textLength="237" x="93.5" y="836.1357">shows branch list and asks to select one</text><polygon fill="#181818" points="524.5,865.4141,534.5,869.4141,524.5,873.4141,528.5,869.4141" style="stroke:#181818;stroke-width:1.0;"/><line style="stroke:#181818;stroke-width:1.0;" x1="58.5" x2="530.5" y1="869.4141" y2="869.4141"/><text fill="#000000" font-family="sans-serif" font-size="13" font-weight="bold" lengthAdjust="spacing" textLength="14" x="65.5" y="864.6592">21</text><text fill="#000000" font-family="sans-serif" font-size="13" lengthAdjust="spacing" textLength="96" x="83.5" y="864.6592">selects a branch</text><polygon fill="#181818" points="69.5,893.9375,59.5,897.9375,69.5,901.9375,65.5,897.9375" style="stroke:#181818;stroke-width:1.0;"/><line style="stroke:#181818;stroke-width:1.0;stroke-dasharray:2.0,2.0;" x1="63.5" x2="535.5" y1="897.9375" y2="897.9375"/><text fill="#000000" font-family="sans-serif" font-size="13" font-weight="bold" lengthAdjust="spacing" textLength="14" x="75.5" y="893.1826">22</text><text fill="#000000" font-family="sans-serif" font-size="13" lengthAdjust="spacing" textLength="237" x="93.5" y="893.1826">shows agents list and asks to select one</text><polygon fill="#181818" points="519.5,922.4609,529.5,926.4609,519.5,930.4609,523.5,926.4609" style="stroke:#181818;stroke-width:1.0;"/><line style="stroke:#181818;stroke-width:1.0;" x1="58.5" x2="525.5" y1="926.4609" y2="926.4609"/><text fill="#000000" font-family="sans-serif" font-size="13" font-weight="bold" lengthAdjust="spacing" textLength="14" x="65.5" y="921.7061">23</text><text fill="#000000" font-family="sans-serif" font-size="13" lengthAdjust="spacing" textLength="96" x="83.5" y="921.7061">selects an agent</text><polygon fill="#181818" points="69.5,965.5078,59.5,969.5078,69.5,973.5078,65.5,969.5078" style="stroke:#181818;stroke-width:1.0;"/><line style="stroke:#181818;stroke-width:1.0;stroke-dasharray:2.0,2.0;" x1="63.5" x2="535.5" y1="969.5078" y2="969.5078"/><text fill="#000000" font-family="sans-serif" font-size="13" font-weight="bold" lengthAdjust="spacing" textLength="14" x="75.5" y="957.4912">24</text><text fill="#000000" font-family="sans-serif" font-size="13" lengthAdjust="spacing" textLength="232" x="93.5" y="950.2295">shows all the data related to the request</text><text fill="#000000" font-family="sans-serif" font-size="13" lengthAdjust="spacing" textLength="114" x="93.5" y="964.7529">and asks to confirm</text><polygon fill="#181818" points="519.5,994.0313,529.5,998.0313,519.5,1002.0313,523.5,998.0313" style="stroke:#181818;stroke-width:1.0;"/><line style="stroke:#181818;stroke-width:1.0;" x1="58.5" x2="525.5" y1="998.0313" y2="998.0313"/><text fill="#000000" font-family="sans-serif" font-size="13" font-weight="bold" lengthAdjust="spacing" textLength="14" x="65.5" y="993.2764">25</text><text fill="#000000" font-family="sans-serif" font-size="13" lengthAdjust="spacing" textLength="78" x="83.5" y="993.2764">confirms data</text><polygon fill="#181818" points="69.5,1022.5547,59.5,1026.5547,69.5,1030.5547,65.5,1026.5547" style="stroke:#181818;stroke-width:1.0;"/><line style="stroke:#181818;stroke-width:1.0;stroke-dasharray:2.0,2.0;" x1="63.5" x2="535.5" y1="1026.5547" y2="1026.5547"/><text fill="#000000" font-family="sans-serif" font-size="13" font-weight="bold" lengthAdjust="spacing" textLength="14" x="75.5" y="1021.7998">26</text><text fill="#000000" font-family="sans-serif" font-size="13" lengthAdjust="spacing" textLength="147" x="93.5" y="1021.7998">shows operation success</text><!--SRC=[jLLDRzim3BtxLn0zfK02TC1EFGmOMWmRC613WzvoeMqw5cABdaGtpRyVBTdvMjebHfEJ48kFxv6Fb5yPsw336cgsd9MEQm9nBIL- -wN1R8LBcikc8d2K2TfbjN_1bvZpsjWb55XvIX8nebVd6ozKmvp-j6GpWaU3o-xwP3v_l8KPFC_Xxkvpac0hRDiw9QVdJDZ1pQ-r9NS3w26S4iqZ9ZCDMe6R-mWSFiTZY3ClADJVJq1_uGYpBmEHUmrOUH26p55t5y7IMXKfFoynPeip07T_zl4pXOgOEoHFbHO4fDIgRHe2BWOybKbL1Qh6aPNRY9JJoGJ_CesuNYaUmNuOpSPnGqusCFc9Df_2TsuzJU5hL-hwGnWF6IwZtElqaAFW1BLJKwWuGp5ifuffCcMP6wykpEYR-lN1oEP12JkwbBAnNld5J2D9TXMDtWsAInRsiB1IOgmsXm1ZXMmUEz6cjP6HH4zbUuTunTn0eIM2JrtgarnpAeob_7q75UhYBhgFUNxwCLB0CS39S2rLF70ZyAITLK_zFl3I_sm3aupL48eEUUk2TQxaZGEk0qamVZT7tGO8itKkzLsBKieTS-sdUsrBKSh-puNTwoQwLRU0lIvhqY6qEU0BcWfJNSIARvenCtrc4OwrusM2wLMdERmGAWHLeQUEx5JJbvWQ2HegBYJ8ygq5UctOjrSR-6rJjuSJ8dp9QvMwLE96ArwfXbZsmvNBbiOkKXlHBzoVaLVgT3sMrs3LGvzH5xbYLMHCKL3VuswD1TivgZGm7nRZy6elx3vTNIE5SVM5NFkeCGzB9DgDKjXQwlPCvzc_HU0l]--></g></svg>