<?xml version="1.0" encoding="us-ascii" standalone="no"?><svg xmlns="http://www.w3.org/2000/svg" xmlns:xlink="http://www.w3.org/1999/xlink" contentStyleType="text/css" height="1525px" preserveAspectRatio="none" style="width:507px;height:1525px;background:#FFFFFF;" version="1.1" viewBox="0 0 507 1525" width="507px" zoomAndPan="magnify"><defs/><g><text fill="#000000" font-family="sans-serif" font-size="14" font-weight="bold" lengthAdjust="spacing" textLength="156" x="168.75" y="22.6738">US019 - Domain Model</text><!--class Address--><g id="elem_Address"><rect codeLine="67" fill="#F1F1F1" height="127.4844" id="Address" rx="2.5" ry="2.5" style="stroke:#181818;stroke-width:0.5;" width="100" x="166" y="968.6406"/><text fill="#000000" font-family="sans-serif" font-size="14" lengthAdjust="spacing" textLength="52" x="190" y="986.3145">Address</text><line style="stroke:#181818;stroke-width:0.5;" x1="167" x2="265" y1="994.2813" y2="994.2813"/><text fill="#000000" font-family="sans-serif" font-size="14" lengthAdjust="spacing" textLength="88" x="172" y="1010.9551">streetAddress</text><text fill="#000000" font-family="sans-serif" font-size="14" lengthAdjust="spacing" textLength="51" x="172" y="1026.5957">zipCode</text><text fill="#000000" font-family="sans-serif" font-size="14" lengthAdjust="spacing" textLength="88" x="172" y="1042.2363">streetAddress</text><text fill="#000000" font-family="sans-serif" font-size="14" lengthAdjust="spacing" textLength="78" x="172" y="1057.877">doorNumber</text><text fill="#000000" font-family="sans-serif" font-size="14" lengthAdjust="spacing" textLength="77" x="172" y="1073.5176">floorNumber</text><text fill="#000000" font-family="sans-serif" font-size="14" lengthAdjust="spacing" textLength="51" x="172" y="1089.1582">zipCode</text></g><!--class State--><g id="elem_State"><rect codeLine="74" fill="#F1F1F1" height="64.9219" id="State" rx="2.5" ry="2.5" style="stroke:#181818;stroke-width:0.5;" width="79" x="176.5" y="1453.6406"/><text fill="#000000" font-family="sans-serif" font-size="14" lengthAdjust="spacing" textLength="33" x="199.5" y="1471.3145">State</text><line style="stroke:#181818;stroke-width:0.5;" x1="177.5" x2="254.5" y1="1479.2813" y2="1479.2813"/><text fill="#000000" font-family="sans-serif" font-size="14" lengthAdjust="spacing" textLength="67" x="182.5" y="1495.9551">stateName</text><text fill="#000000" font-family="sans-serif" font-size="14" lengthAdjust="spacing" textLength="67" x="182.5" y="1511.5957">stateName</text></g><!--class District--><g id="elem_District"><rect codeLine="78" fill="#F1F1F1" height="64.9219" id="District" rx="2.5" ry="2.5" style="stroke:#181818;stroke-width:0.5;" width="89" x="171.5" y="1312.6406"/><text fill="#000000" font-family="sans-serif" font-size="14" lengthAdjust="spacing" textLength="43" x="194.5" y="1330.3145">District</text><line style="stroke:#181818;stroke-width:0.5;" x1="172.5" x2="259.5" y1="1338.2813" y2="1338.2813"/><text fill="#000000" font-family="sans-serif" font-size="14" lengthAdjust="spacing" textLength="77" x="177.5" y="1354.9551">districtName</text><text fill="#000000" font-family="sans-serif" font-size="14" lengthAdjust="spacing" textLength="77" x="177.5" y="1370.5957">districtName</text></g><!--class City--><g id="elem_City"><rect codeLine="82" fill="#F1F1F1" height="64.9219" id="City" rx="2.5" ry="2.5" style="stroke:#181818;stroke-width:0.5;" width="69" x="181.5" y="1171.6406"/><text fill="#000000" font-family="sans-serif" font-size="14" lengthAdjust="spacing" textLength="24" x="204" y="1189.3145">City</text><line style="stroke:#181818;stroke-width:0.5;" x1="182.5" x2="249.5" y1="1197.2813" y2="1197.2813"/><text fill="#000000" font-family="sans-serif" font-size="14" lengthAdjust="spacing" textLength="57" x="187.5" y="1213.9551">cityName</text><text fill="#000000" font-family="sans-serif" font-size="14" lengthAdjust="spacing" textLength="57" x="187.5" y="1229.5957">cityName</text></g><!--class Employee--><g id="elem_Employee"><rect codeLine="89" fill="#F1F1F1" height="127.4844" id="Employee" rx="2.5" ry="2.5" style="stroke:#181818;stroke-width:0.5;" width="101" x="99.5" y="153.6406"/><text fill="#000000" font-family="sans-serif" font-size="14" lengthAdjust="spacing" textLength="62" x="119" y="171.3145">Employee</text><line style="stroke:#181818;stroke-width:0.5;" x1="100.5" x2="199.5" y1="179.2813" y2="179.2813"/><text fill="#000000" font-family="sans-serif" font-size="14" lengthAdjust="spacing" textLength="35" x="105.5" y="195.9551">name</text><text fill="#000000" font-family="sans-serif" font-size="14" lengthAdjust="spacing" textLength="85" x="105.5" y="211.5957">emailAddress</text><text fill="#000000" font-family="sans-serif" font-size="14" lengthAdjust="spacing" textLength="89" x="105.5" y="227.2363">phoneNumber</text><text fill="#000000" font-family="sans-serif" font-size="14" lengthAdjust="spacing" textLength="35" x="105.5" y="242.877">name</text><text fill="#000000" font-family="sans-serif" font-size="14" lengthAdjust="spacing" textLength="85" x="105.5" y="258.5176">emailAddress</text><text fill="#000000" font-family="sans-serif" font-size="14" lengthAdjust="spacing" textLength="89" x="105.5" y="274.1582">phoneNumber</text></g><!--class Order--><g id="elem_Order"><rect codeLine="36" fill="#F1F1F1" height="96.2031" id="Order" rx="2.5" ry="2.5" style="stroke:#181818;stroke-width:0.5;" width="95" x="93.5" y="356.6406"/><text fill="#000000" font-family="sans-serif" font-size="14" lengthAdjust="spacing" textLength="37" x="122.5" y="374.3145">Order</text><line style="stroke:#181818;stroke-width:0.5;" x1="94.5" x2="187.5" y1="382.2813" y2="382.2813"/><text fill="#000000" font-family="sans-serif" font-size="14" lengthAdjust="spacing" textLength="66" x="99.5" y="398.9551">orderPrice</text><text fill="#000000" font-family="sans-serif" font-size="14" lengthAdjust="spacing" textLength="28" x="99.5" y="414.5957">date</text><text fill="#000000" font-family="sans-serif" font-size="14" lengthAdjust="spacing" textLength="83" x="99.5" y="430.2363">orderNumber</text><text fill="#000000" font-family="sans-serif" font-size="14" lengthAdjust="spacing" textLength="52" x="99.5" y="445.877">decision</text></g><!--class Announcement--><g id="elem_Announcement"><rect codeLine="43" fill="#F1F1F1" height="80.5625" id="Announcement" rx="2.5" ry="2.5" style="stroke:#181818;stroke-width:0.5;" width="106" x="88" y="616.1406"/><text fill="#000000" font-family="sans-serif" font-size="14" lengthAdjust="spacing" textLength="95" x="93.5" y="633.8145">Announcement</text><line style="stroke:#181818;stroke-width:0.5;" x1="89" x2="193" y1="641.7813" y2="641.7813"/><text fill="#000000" font-family="sans-serif" font-size="14" lengthAdjust="spacing" textLength="94" x="94" y="658.4551">comissionType</text><text fill="#000000" font-family="sans-serif" font-size="14" lengthAdjust="spacing" textLength="62" x="94" y="674.0957">comission</text><text fill="#000000" font-family="sans-serif" font-size="14" lengthAdjust="spacing" textLength="28" x="94" y="689.7363">date</text></g><!--class Client--><g id="elem_Client"><rect codeLine="49" fill="#F1F1F1" height="33.6406" id="Client" rx="2.5" ry="2.5" style="stroke:#181818;stroke-width:0.5;" width="42" x="7" y="200.1406"/><text fill="#000000" font-family="sans-serif" font-size="14" lengthAdjust="spacing" textLength="36" x="10" y="217.8145">Client</text><line style="stroke:#181818;stroke-width:0.5;" x1="8" x2="48" y1="225.7813" y2="225.7813"/></g><!--class Property--><g id="elem_Property"><rect codeLine="52" fill="#F1F1F1" height="111.8438" id="Property" rx="2.5" ry="2.5" style="stroke:#181818;stroke-width:0.5;" width="165" x="133.5" y="780.6406"/><text fill="#000000" font-family="sans-serif" font-size="14" lengthAdjust="spacing" textLength="54" x="189" y="798.3145">Property</text><line style="stroke:#181818;stroke-width:0.5;" x1="134.5" x2="297.5" y1="806.2813" y2="806.2813"/><text fill="#000000" font-family="sans-serif" font-size="14" lengthAdjust="spacing" textLength="29" x="139.5" y="822.9551">area</text><text fill="#000000" font-family="sans-serif" font-size="14" lengthAdjust="spacing" textLength="31" x="139.5" y="838.5957">price</text><text fill="#000000" font-family="sans-serif" font-size="14" lengthAdjust="spacing" textLength="153" x="139.5" y="854.2363">distanceFromCityCenter</text><text fill="#000000" font-family="sans-serif" font-size="14" lengthAdjust="spacing" textLength="85" x="139.5" y="869.877">propertyType</text><text fill="#000000" font-family="sans-serif" font-size="14" lengthAdjust="spacing" textLength="95" x="139.5" y="885.5176">photographList</text></g><!--class Store--><g id="elem_Store"><rect codeLine="60" fill="#F1F1F1" height="96.2031" id="Store" rx="2.5" ry="2.5" style="stroke:#181818;stroke-width:0.5;" width="101" x="399.5" y="482.6406"/><text fill="#000000" font-family="sans-serif" font-size="14" lengthAdjust="spacing" textLength="34" x="433" y="500.3145">Store</text><line style="stroke:#181818;stroke-width:0.5;" x1="400.5" x2="499.5" y1="508.2813" y2="508.2813"/><text fill="#000000" font-family="sans-serif" font-size="14" lengthAdjust="spacing" textLength="73" x="405.5" y="524.9551">designation</text><text fill="#000000" font-family="sans-serif" font-size="14" lengthAdjust="spacing" textLength="89" x="405.5" y="540.5957">phoneNumber</text><text fill="#000000" font-family="sans-serif" font-size="14" lengthAdjust="spacing" textLength="85" x="405.5" y="556.2363">emailAddress</text><text fill="#000000" font-family="sans-serif" font-size="14" lengthAdjust="spacing" textLength="13" x="405.5" y="571.877">ID</text></g><!--class NetworkManager--><g id="elem_NetworkManager"><rect codeLine="86" fill="#F1F1F1" height="33.6406" id="NetworkManager" rx="2.5" ry="2.5" style="stroke:#181818;stroke-width:0.5;" width="112" x="215" y="43.6406"/><text fill="#000000" font-family="sans-serif" font-size="14" lengthAdjust="spacing" textLength="106" x="218" y="61.3145">NetworkManager</text><line style="stroke:#181818;stroke-width:0.5;" x1="216" x2="326" y1="69.2813" y2="69.2813"/></g><!--class Residence--><g id="elem_Residence"><rect codeLine="95" fill="#F1F1F1" height="96.2031" id="Residence" rx="2.5" ry="2.5" style="stroke:#181818;stroke-width:0.5;" width="170" x="229" y="608.6406"/><text fill="#000000" font-family="sans-serif" font-size="14" lengthAdjust="spacing" textLength="67" x="280.5" y="626.3145">Residence</text><line style="stroke:#181818;stroke-width:0.5;" x1="230" x2="398" y1="634.2813" y2="634.2813"/><text fill="#000000" font-family="sans-serif" font-size="14" lengthAdjust="spacing" textLength="127" x="235" y="650.9551">numberOfBedrooms</text><text fill="#000000" font-family="sans-serif" font-size="14" lengthAdjust="spacing" textLength="131" x="235" y="666.5957">numberOfBathrooms</text><text fill="#000000" font-family="sans-serif" font-size="14" lengthAdjust="spacing" textLength="158" x="235" y="682.2363">numberOfParkingSpaces</text><text fill="#000000" font-family="sans-serif" font-size="14" lengthAdjust="spacing" textLength="123" x="235" y="697.877">availableEquipment</text></g><!--class House--><g id="elem_House"><rect codeLine="102" fill="#F1F1F1" height="64.9219" id="House" rx="2.5" ry="2.5" style="stroke:#181818;stroke-width:0.5;" width="158" x="235" y="372.1406"/><text fill="#000000" font-family="sans-serif" font-size="14" lengthAdjust="spacing" textLength="40" x="294" y="389.8145">House</text><line style="stroke:#181818;stroke-width:0.5;" x1="236" x2="392" y1="397.7813" y2="397.7813"/><text fill="#000000" font-family="sans-serif" font-size="14" lengthAdjust="spacing" textLength="146" x="241" y="414.4551">existenceOfABasement</text><text fill="#000000" font-family="sans-serif" font-size="14" lengthAdjust="spacing" textLength="93" x="241" y="430.0957">inhabitableLoft</text></g><!--link Residence to Property--><g id="link_Residence_Property"><path codeLine="107" d="M288,704.8706 C278.18,722.6906 266.78,743.4106 255.98,763.0206 " fill="none" id="Residence-to-Property" style="stroke:#181818;stroke-width:1.0;"/><polygon fill="none" points="262.08,766.4606,246.3,780.6106,249.81,759.7106,262.08,766.4606" style="stroke:#181818;stroke-width:1.0;"/></g><!--link House to Residence--><g id="link_House_Residence"><path codeLine="108" d="M314,437.3006 C314,475.0406 314,539.1506 314,588.1706 " fill="none" id="House-to-Residence" style="stroke:#181818;stroke-width:1.0;"/><polygon fill="none" points="321,588.4706,314,608.4706,307,588.4706,321,588.4706" style="stroke:#181818;stroke-width:1.0;"/></g><!--link Store to Address--><g id="link_Store_Address"><path codeLine="110" d="M440.98,578.9106 C431.21,630.1406 417,704.6406 417,704.6406 C417,704.6406 316,892.6406 316,892.6406 C316,892.6406 287.78,931.7306 261.32,968.3706 " fill="none" id="Store-Address" style="stroke:#181818;stroke-width:1.0;"/><polygon fill="#000000" points="402.9056,747.4425,409.3631,740.4603,404.0258,737.9982,402.9056,747.4425" style="stroke:#000000;stroke-width:1.0;"/><text fill="#000000" font-family="sans-serif" font-size="13" lengthAdjust="spacing" textLength="21" x="414" y="747.4092">has</text><text fill="#000000" font-family="sans-serif" font-size="13" lengthAdjust="spacing" textLength="7" x="432.2194" y="598.474">1</text></g><!--link Address to City--><g id="link_Address_City"><path codeLine="111" d="M216,1095.9606 C216,1121.6906 216,1150.3306 216,1171.5306 " fill="none" id="Address-City" style="stroke:#181818;stroke-width:1.0;"/><polygon fill="#000000" points="221,1138.9023,223.9389,1129.8573,218.0611,1129.8573,221,1138.9023" style="stroke:#000000;stroke-width:1.0;"/><text fill="#000000" font-family="sans-serif" font-size="13" lengthAdjust="spacing" textLength="21" x="230" y="1138.4092">has</text><text fill="#000000" font-family="sans-serif" font-size="13" lengthAdjust="spacing" textLength="7" x="208.2344" y="1160.7003">1</text></g><!--link City to District--><g id="link_City_District"><path codeLine="112" d="M216,1236.6806 C216,1259.2706 216,1289.5706 216,1312.2406 " fill="none" id="City-District" style="stroke:#181818;stroke-width:1.0;"/><polygon fill="#000000" points="221,1279.9023,223.9389,1270.8573,218.0611,1270.8573,221,1279.9023" style="stroke:#000000;stroke-width:1.0;"/><text fill="#000000" font-family="sans-serif" font-size="13" lengthAdjust="spacing" textLength="24" x="230" y="1279.4092">is in</text><text fill="#000000" font-family="sans-serif" font-size="13" lengthAdjust="spacing" textLength="7" x="208.2781" y="1301.8418">1</text></g><!--link District to State--><g id="link_District_State"><path codeLine="113" d="M216,1377.6806 C216,1400.2706 216,1430.5706 216,1453.2406 " fill="none" id="District-State" style="stroke:#181818;stroke-width:1.0;"/><polygon fill="#000000" points="221,1420.9023,223.9389,1411.8573,218.0611,1411.8573,221,1420.9023" style="stroke:#000000;stroke-width:1.0;"/><text fill="#000000" font-family="sans-serif" font-size="13" lengthAdjust="spacing" textLength="24" x="230" y="1420.4092">is in</text><text fill="#000000" font-family="sans-serif" font-size="13" lengthAdjust="spacing" textLength="7" x="208.2781" y="1442.8418">1</text></g><!--link NetworkManager to Order--><g id="link_NetworkManager_Order"><path codeLine="114" d="M267.1,77.7406 C254.86,128.3206 218,280.6406 218,280.6406 C218,280.6406 192.26,321.7506 170.55,356.4406 " fill="none" id="NetworkManager-Order" style="stroke:#181818;stroke-width:1.0;"/><text fill="#000000" font-family="sans-serif" font-size="13" lengthAdjust="spacing" textLength="74" x="260" y="214.4092">analyzes the</text><polygon fill="#000000" points="253.3633,229.1503,259.1011,221.5656,253.5471,219.6415,253.3633,229.1503" style="stroke:#000000;stroke-width:1.0;"/><text fill="#000000" font-family="sans-serif" font-size="13" lengthAdjust="spacing" textLength="85" x="263" y="228.9326">performance of</text><text fill="#000000" font-family="sans-serif" font-size="13" lengthAdjust="spacing" textLength="24" x="149.2373" y="345.7812">1...*</text></g><!--link NetworkManager to Employee--><g id="link_NetworkManager_Employee"><path codeLine="115" d="M253.16,77.7306 C238.46,90.9906 220,107.6406 220,107.6406 C220,107.6406 212.04,119.9806 201.49,136.3306 " fill="none" id="NetworkManager-to-Employee" style="stroke:#181818;stroke-width:1.0;"/><polygon fill="none" points="207.24,140.3306,190.52,153.3406,195.48,132.7406,207.24,140.3306" style="stroke:#181818;stroke-width:1.0;"/><polygon fill="#000000" points="221.6932,119.6527,229.8797,114.812,225.4709,110.9246,221.6932,119.6527" style="stroke:#000000;stroke-width:1.0;"/><text fill="#000000" font-family="sans-serif" font-size="13" lengthAdjust="spacing" textLength="10" x="234" y="120.4092">is</text></g><!--link NetworkManager to Store--><g id="link_NetworkManager_Store"><path codeLine="116" d="M285.98,77.6706 C310.62,104.0206 357,153.6406 357,153.6406 C357,153.6406 411,356.6406 411,356.6406 C411,356.6406 427.8,431.1406 439.34,482.3706 " fill="none" id="NetworkManager-Store" style="stroke:#181818;stroke-width:1.0;"/><polygon fill="#000000" points="396.7718,222.0779,396.3148,212.5783,390.8184,214.6612,396.7718,222.0779" style="stroke:#000000;stroke-width:1.0;"/><text fill="#000000" font-family="sans-serif" font-size="13" lengthAdjust="spacing" textLength="53" x="404" y="221.9092">manages</text><text fill="#000000" font-family="sans-serif" font-size="13" lengthAdjust="spacing" textLength="7" x="282.4958" y="96.9335">1</text><text fill="#000000" font-family="sans-serif" font-size="13" lengthAdjust="spacing" textLength="24" x="412.0118" y="472.0449">1...*</text></g><!--link Property to Address--><g id="link_Property_Address"><path codeLine="117" d="M216,892.8306 C216,916.4006 216,944.0306 216,968.3806 " fill="none" id="Property-Address" style="stroke:#181818;stroke-width:1.0;"/><polygon fill="#000000" points="221,935.9023,223.9389,926.8573,218.0611,926.8573,221,935.9023" style="stroke:#000000;stroke-width:1.0;"/><text fill="#000000" font-family="sans-serif" font-size="13" lengthAdjust="spacing" textLength="21" x="230" y="935.4092">has</text></g><!--link Order to Announcement--><g id="link_Order_Announcement"><path codeLine="118" d="M141,452.6606 C141,499.7606 141,571.4606 141,615.8306 " fill="none" id="Order-Announcement" style="stroke:#181818;stroke-width:1.0;"/><polygon fill="#000000" points="146,535.9023,148.9389,526.8573,143.0611,526.8573,146,535.9023" style="stroke:#000000;stroke-width:1.0;"/><text fill="#000000" font-family="sans-serif" font-size="13" lengthAdjust="spacing" textLength="14" x="155" y="535.4092">on</text><text fill="#000000" font-family="sans-serif" font-size="13" lengthAdjust="spacing" textLength="7" x="133.3984" y="605.4644">1</text></g><!--link Announcement to Property--><g id="link_Announcement_Property"><path codeLine="119" d="M155.09,697.3506 C164.06,722.6306 174,750.6406 174,750.6406 C174,750.6406 180.67,764.1306 188.69,780.3706 " fill="none" id="Announcement-Property" style="stroke:#181818;stroke-width:1.0;"/><polygon fill="#000000" points="180.8758,747.5371,180.2067,738.0501,174.7582,740.2553,180.8758,747.5371" style="stroke:#000000;stroke-width:1.0;"/><text fill="#000000" font-family="sans-serif" font-size="13" lengthAdjust="spacing" textLength="63" x="188" y="747.4092">announces</text><text fill="#000000" font-family="sans-serif" font-size="13" lengthAdjust="spacing" textLength="7" x="177.7425" y="770.0763">1</text></g><!--link Client to Order--><g id="link_Client_Order"><path codeLine="120" d="M37.83,234.2806 C54.26,261.2506 87.9,316.4806 112.32,356.5506 " fill="none" id="Client-Order" style="stroke:#181818;stroke-width:1.0;"/><polygon fill="#000000" points="99.6014,323.1723,97.4053,313.9188,92.3856,316.9769,99.6014,323.1723" style="stroke:#000000;stroke-width:1.0;"/><text fill="#000000" font-family="sans-serif" font-size="13" lengthAdjust="spacing" textLength="39" x="106" y="323.4092">makes</text></g><!--link Client to Address--><g id="link_Client_Address"><path codeLine="121" d="M27.04,234.2806 C24.37,279.4106 17,403.6406 17,403.6406 C17,403.6406 17,403.6406 17,837.6406 C17,837.6406 106.83,924.9906 165.78,982.3106 " fill="none" id="Client-Address" style="stroke:#181818;stroke-width:1.0;"/><polygon fill="#000000" points="22.9118,661.8185,24.152,652.3891,18.3727,653.461,22.9118,661.8185" style="stroke:#000000;stroke-width:1.0;"/><text fill="#000000" font-family="sans-serif" font-size="13" lengthAdjust="spacing" textLength="21" x="31" y="661.4092">has</text></g><!--SRC=[jLF9ZXCn4BtxAwov825bn1oPGwJCWa2QJGHkN2hjwcuhjilO3aCcyE-KtMk6N3XmIThrNYtlbHstsda8OAKbHrKRoA9COOSYZeY7QWiDhjFUe0nO9N2DcHDY2ugUjMja3IRE4QCTfhr7wSdiyq68DmRh91F9e9isIQLpHKrEY5Ohb9KE5HSltnPJIoeAaNJYrb_NxoxUouMy8GlQoNjIQ4Hb84QvKYfWZ0SHKq1C_L6yQ7_DBF5RzBnrWeIPnNyFO6V8ZUPKNQM3KFtNCNwjq_uWAluTuZrmQxsXFN9Lbm7asSpGtxVay65dDnYcIez1OJW8odzFt0Y5uccwSyzLMEcOFHcJLixHpbLeqV685LaTC-4BUpkTkaBJo4ONzXXu2kGnP1qG48JlchDSuCeVUFLPv3Ndy0Y-vvOEh2DH4y2tTyoUsqc1XIkCkd5GjZYNVEJ5fvkPcjFhKaI30xMPll_h5hlu0wPd2jjxS7pHmyooVzxkP_P28Vl96GLwhAzG1I8Rfm2azZZo187VJBFcfuPHm0_k0Xk3jzztskULJ_K_qYvoRVp9-dARntfr1R7S2w5T2nkTSkOTrILf74Sk5h-MumqGfKmN6ob2b7tAiuipHeOboKlPGfHBCPmPoenivOYLGmyCEs1GHyaFTId6K4yf2vpXn_OpAzFEpy_VddMlXQaCcVqBHfbQbDySgwWfs7nn9TMdIh2oONbTfxyudSwfLQV-Kjg2vuJ1hbDsT8FrWkRFancKHHt5UjvOC0lgu69VUQcPDCYri7s5lEx_1m00]--></g></svg>