<?xml version="1.0" encoding="us-ascii" standalone="no"?><svg xmlns="http://www.w3.org/2000/svg" xmlns:xlink="http://www.w3.org/1999/xlink" contentStyleType="text/css" height="519.2px" preserveAspectRatio="none" style="width:755px;height:519px;background:#FFFFFF;" version="1.1" viewBox="0 0 755 519" width="755.2px" zoomAndPan="magnify"><defs/><g><text fill="#000000" font-family="sans-serif" font-size="11.2" font-weight="bold" lengthAdjust="spacing" textLength="182.4" x="287.8" y="22.1391">System Sequence Diagram (SSD)</text><rect fill="#FFFFFF" height="339.0813" style="stroke:#181818;stroke-width:0.8000000000000002;" width="8" x="37.2" y="101.825"/><rect fill="#FFFFFF" height="22.8188" style="stroke:#181818;stroke-width:0.8000000000000002;" width="8" x="705.2" y="118.2438"/><rect fill="#FFFFFF" height="22.8188" style="stroke:#181818;stroke-width:0.8000000000000002;" width="8" x="705.2" y="163.8813"/><rect fill="#FFFFFF" height="41.6375" style="stroke:#181818;stroke-width:0.8000000000000002;" width="8" x="705.2" y="209.5188"/><rect fill="#FFFFFF" height="41.6375" style="stroke:#181818;stroke-width:0.8000000000000002;" width="8" x="705.2" y="273.975"/><rect fill="#FFFFFF" height="34.0188" style="stroke:#181818;stroke-width:0.8000000000000002;" width="8" x="705.2" y="338.4313"/><rect fill="#FFFFFF" height="22.8188" style="stroke:#181818;stroke-width:0.8000000000000002;" width="8" x="705.2" y="395.2688"/><rect fill="none" height="128.9125" style="stroke:#000000;stroke-width:1.2000000000000002;" width="742.8" x="8" y="221.5188"/><rect fill="none" height="58.8563" style="stroke:#000000;stroke-width:1.2000000000000002;" width="726.8" x="16" y="285.975"/><line style="stroke:#181818;stroke-width:0.4000000000000001;stroke-dasharray:5.0,5.0;" x1="40.8" x2="40.8" y1="93.825" y2="455.3063"/><line style="stroke:#181818;stroke-width:0.4000000000000001;stroke-dasharray:5.0,5.0;" x1="709.2" x2="709.2" y1="93.825" y2="455.3063"/><text fill="#000000" font-family="sans-serif" font-size="11.2" lengthAdjust="spacing" textLength="29.6" x="24" y="91.4516">Agent</text><ellipse cx="41.2" cy="40.1125" fill="#E3E3E3" rx="6.4" ry="6.4" style="stroke:#181818;stroke-width:0.4000000000000001;"/><path d="M41.2,46.5125 L41.2,68.1125 M30.8,52.9125 L51.6,52.9125 M41.2,68.1125 L30.8,80.1125 M41.2,68.1125 L51.6,80.1125 " fill="none" style="stroke:#181818;stroke-width:0.4000000000000001;"/><text fill="#000000" font-family="sans-serif" font-size="11.2" lengthAdjust="spacing" textLength="29.6" x="24" y="464.6453">Agent</text><ellipse cx="41.2" cy="473.8188" fill="#E3E3E3" rx="6.4" ry="6.4" style="stroke:#181818;stroke-width:0.4000000000000001;"/><path d="M41.2,480.2188 L41.2,501.8188 M30.8,486.6188 L51.6,486.6188 M41.2,501.8188 L30.8,513.8188 M41.2,501.8188 L51.6,513.8188 " fill="none" style="stroke:#181818;stroke-width:0.4000000000000001;"/><rect fill="#E3E3E3" height="23.7125" rx="2" ry="2" style="stroke:#181818;stroke-width:0.4000000000000001;" width="51.2" x="683.6" y="69.3125"/><text fill="#000000" font-family="sans-serif" font-size="11.2" lengthAdjust="spacing" textLength="40" x="689.2" y="85.0516">:System</text><rect fill="#E3E3E3" height="23.7125" rx="2" ry="2" style="stroke:#181818;stroke-width:0.4000000000000001;" width="51.2" x="683.6" y="454.5063"/><text fill="#000000" font-family="sans-serif" font-size="11.2" lengthAdjust="spacing" textLength="40" x="689.2" y="470.2453">:System</text><rect fill="#FFFFFF" height="339.0813" style="stroke:#181818;stroke-width:0.8000000000000002;" width="8" x="37.2" y="101.825"/><rect fill="#FFFFFF" height="22.8188" style="stroke:#181818;stroke-width:0.8000000000000002;" width="8" x="705.2" y="118.2438"/><rect fill="#FFFFFF" height="22.8188" style="stroke:#181818;stroke-width:0.8000000000000002;" width="8" x="705.2" y="163.8813"/><rect fill="#FFFFFF" height="41.6375" style="stroke:#181818;stroke-width:0.8000000000000002;" width="8" x="705.2" y="209.5188"/><rect fill="#FFFFFF" height="41.6375" style="stroke:#181818;stroke-width:0.8000000000000002;" width="8" x="705.2" y="273.975"/><rect fill="#FFFFFF" height="34.0188" style="stroke:#181818;stroke-width:0.8000000000000002;" width="8" x="705.2" y="338.4313"/><rect fill="#FFFFFF" height="22.8188" style="stroke:#181818;stroke-width:0.8000000000000002;" width="8" x="705.2" y="395.2688"/><polygon fill="#181818" points="695.6,115.0438,703.6,118.2438,695.6,121.4438,698.8,118.2438" style="stroke:#181818;stroke-width:0.8000000000000002;"/><line style="stroke:#181818;stroke-width:0.8000000000000002;" x1="45.2" x2="700.4" y1="118.2438" y2="118.2438"/><text fill="#000000" font-family="sans-serif" font-size="10.4" font-weight="bold" lengthAdjust="spacing" textLength="5.6" x="50.8" y="114.4398">1</text><text fill="#000000" font-family="sans-serif" font-size="10.4" lengthAdjust="spacing" textLength="173.6" x="59.6" y="114.4398">asks to register a new announcement</text><polygon fill="#181818" points="54,137.8625,46,141.0625,54,144.2625,50.8,141.0625" style="stroke:#181818;stroke-width:0.8000000000000002;"/><line style="stroke:#181818;stroke-width:0.8000000000000002;stroke-dasharray:2.0,2.0;" x1="49.2" x2="708.4" y1="141.0625" y2="141.0625"/><text fill="#000000" font-family="sans-serif" font-size="10.4" font-weight="bold" lengthAdjust="spacing" textLength="5.6" x="58.8" y="137.2586">2</text><text fill="#000000" font-family="sans-serif" font-size="10.4" lengthAdjust="spacing" textLength="115.2" x="67.6" y="137.2586">requests type of property</text><polygon fill="#181818" points="695.6,160.6813,703.6,163.8813,695.6,167.0813,698.8,163.8813" style="stroke:#181818;stroke-width:0.8000000000000002;"/><line style="stroke:#181818;stroke-width:0.8000000000000002;" x1="45.2" x2="700.4" y1="163.8813" y2="163.8813"/><text fill="#000000" font-family="sans-serif" font-size="10.4" font-weight="bold" lengthAdjust="spacing" textLength="5.6" x="50.8" y="160.0773">3</text><text fill="#000000" font-family="sans-serif" font-size="10.4" lengthAdjust="spacing" textLength="262.4" x="59.6" y="160.0773">selects one of the types given (apartment, house or land)</text><polygon fill="#181818" points="54,183.5,46,186.7,54,189.9,50.8,186.7" style="stroke:#181818;stroke-width:0.8000000000000002;"/><line style="stroke:#181818;stroke-width:0.8000000000000002;stroke-dasharray:2.0,2.0;" x1="49.2" x2="708.4" y1="186.7" y2="186.7"/><text fill="#000000" font-family="sans-serif" font-size="10.4" font-weight="bold" lengthAdjust="spacing" textLength="5.6" x="58.8" y="182.8961">4</text><text fill="#000000" font-family="sans-serif" font-size="10.4" lengthAdjust="spacing" textLength="63.2" x="67.6" y="182.8961">requests data</text><polygon fill="#181818" points="695.6,206.3188,703.6,209.5188,695.6,212.7188,698.8,209.5188" style="stroke:#181818;stroke-width:0.8000000000000002;"/><line style="stroke:#181818;stroke-width:0.8000000000000002;" x1="45.2" x2="700.4" y1="209.5188" y2="209.5188"/><text fill="#000000" font-family="sans-serif" font-size="10.4" font-weight="bold" lengthAdjust="spacing" textLength="5.6" x="50.8" y="205.7148">5</text><text fill="#000000" font-family="sans-serif" font-size="10.4" lengthAdjust="spacing" textLength="636" x="59.6" y="205.7148">types the requested data (area in m2, localization, distance from the city centre, requested price, comission on the sale, one or more photos)</text><path d="M8,221.5188 L60,221.5188 L60,226.7375 L52,234.7375 L8,234.7375 L8,221.5188 " fill="#EEEEEE" style="stroke:#000000;stroke-width:1.2000000000000002;"/><rect fill="none" height="128.9125" style="stroke:#000000;stroke-width:1.2000000000000002;" width="742.8" x="8" y="221.5188"/><text fill="#000000" font-family="sans-serif" font-size="10.4" font-weight="bold" lengthAdjust="spacing" textLength="16" x="20" y="231.7336">opt</text><text fill="#000000" font-family="sans-serif" font-size="8.8" font-weight="bold" lengthAdjust="spacing" textLength="148" x="72" y="231.0852">[property is an Apartment/House]</text><polygon fill="#181818" points="54,247.9563,46,251.1563,54,254.3563,50.8,251.1563" style="stroke:#181818;stroke-width:0.8000000000000002;"/><line style="stroke:#181818;stroke-width:0.8000000000000002;stroke-dasharray:2.0,2.0;" x1="49.2" x2="708.4" y1="251.1563" y2="251.1563"/><text fill="#000000" font-family="sans-serif" font-size="10.4" font-weight="bold" lengthAdjust="spacing" textLength="5.6" x="58.8" y="247.3523">6</text><text fill="#000000" font-family="sans-serif" font-size="10.4" lengthAdjust="spacing" textLength="63.2" x="67.6" y="247.3523">requests data</text><polygon fill="#181818" points="695.6,270.775,703.6,273.975,695.6,277.175,698.8,273.975" style="stroke:#181818;stroke-width:0.8000000000000002;"/><line style="stroke:#181818;stroke-width:0.8000000000000002;" x1="45.2" x2="700.4" y1="273.975" y2="273.975"/><text fill="#000000" font-family="sans-serif" font-size="10.4" font-weight="bold" lengthAdjust="spacing" textLength="5.6" x="50.8" y="270.1711">7</text><text fill="#000000" font-family="sans-serif" font-size="10.4" lengthAdjust="spacing" textLength="464.8" x="59.6" y="270.1711">types the requested data (number of bedrooms and bathrooms, parking spaces, available equipment)</text><path d="M16,285.975 L68,285.975 L68,291.1938 L60,299.1938 L16,299.1938 L16,285.975 " fill="#EEEEEE" style="stroke:#000000;stroke-width:1.2000000000000002;"/><rect fill="none" height="58.8563" style="stroke:#000000;stroke-width:1.2000000000000002;" width="726.8" x="16" y="285.975"/><text fill="#000000" font-family="sans-serif" font-size="10.4" font-weight="bold" lengthAdjust="spacing" textLength="16" x="28" y="296.1898">opt</text><text fill="#000000" font-family="sans-serif" font-size="8.8" font-weight="bold" lengthAdjust="spacing" textLength="92.8" x="80" y="295.5414">[property is a House]</text><polygon fill="#181818" points="54,312.4125,46,315.6125,54,318.8125,50.8,315.6125" style="stroke:#181818;stroke-width:0.8000000000000002;"/><line style="stroke:#181818;stroke-width:0.8000000000000002;stroke-dasharray:2.0,2.0;" x1="49.2" x2="708.4" y1="315.6125" y2="315.6125"/><text fill="#000000" font-family="sans-serif" font-size="10.4" font-weight="bold" lengthAdjust="spacing" textLength="5.6" x="58.8" y="311.8086">8</text><text fill="#000000" font-family="sans-serif" font-size="10.4" lengthAdjust="spacing" textLength="63.2" x="67.6" y="311.8086">requests data</text><polygon fill="#181818" points="695.6,335.2313,703.6,338.4313,695.6,341.6313,698.8,338.4313" style="stroke:#181818;stroke-width:0.8000000000000002;"/><line style="stroke:#181818;stroke-width:0.8000000000000002;" x1="45.2" x2="700.4" y1="338.4313" y2="338.4313"/><text fill="#000000" font-family="sans-serif" font-size="10.4" font-weight="bold" lengthAdjust="spacing" textLength="5.6" x="50.8" y="334.6273">9</text><text fill="#000000" font-family="sans-serif" font-size="10.4" lengthAdjust="spacing" textLength="396.8" x="59.6" y="334.6273">types the requested data (existence of a basement and inhabitable loft, sun exposure)</text><polygon fill="#181818" points="54,369.25,46,372.45,54,375.65,50.8,372.45" style="stroke:#181818;stroke-width:0.8000000000000002;"/><line style="stroke:#181818;stroke-width:0.8000000000000002;stroke-dasharray:2.0,2.0;" x1="49.2" x2="708.4" y1="372.45" y2="372.45"/><text fill="#000000" font-family="sans-serif" font-size="10.4" font-weight="bold" lengthAdjust="spacing" textLength="11.2" x="58.8" y="368.6461">10</text><text fill="#000000" font-family="sans-serif" font-size="10.4" lengthAdjust="spacing" textLength="134.4" x="73.2" y="368.6461">presents all the data inserted</text><polygon fill="#181818" points="695.6,392.0688,703.6,395.2688,695.6,398.4688,698.8,395.2688" style="stroke:#181818;stroke-width:0.8000000000000002;"/><line style="stroke:#181818;stroke-width:0.8000000000000002;" x1="45.2" x2="700.4" y1="395.2688" y2="395.2688"/><text fill="#000000" font-family="sans-serif" font-size="10.4" font-weight="bold" lengthAdjust="spacing" textLength="11.2" x="50.8" y="391.4648">11</text><text fill="#000000" font-family="sans-serif" font-size="10.4" lengthAdjust="spacing" textLength="102.4" x="65.2" y="391.4648">confirms inserted data</text><polygon fill="#181818" points="54,414.8875,46,418.0875,54,421.2875,50.8,418.0875" style="stroke:#181818;stroke-width:0.8000000000000002;"/><line style="stroke:#181818;stroke-width:0.8000000000000002;stroke-dasharray:2.0,2.0;" x1="49.2" x2="708.4" y1="418.0875" y2="418.0875"/><text fill="#000000" font-family="sans-serif" font-size="10.4" font-weight="bold" lengthAdjust="spacing" textLength="11.2" x="58.8" y="414.2836">12</text><text fill="#000000" font-family="sans-serif" font-size="10.4" lengthAdjust="spacing" textLength="365.6" x="73.2" y="414.2836">analyses the data and, if approved, sends a confirmation request before posting</text><polygon fill="#181818" points="699.6,437.7063,707.6,440.9063,699.6,444.1063,702.8,440.9063" style="stroke:#181818;stroke-width:0.8000000000000002;"/><line style="stroke:#181818;stroke-width:0.8000000000000002;" x1="41.2" x2="704.4" y1="440.9063" y2="440.9063"/><text fill="#000000" font-family="sans-serif" font-size="10.4" font-weight="bold" lengthAdjust="spacing" textLength="11.2" x="46.8" y="437.1023">13</text><text fill="#000000" font-family="sans-serif" font-size="10.4" lengthAdjust="spacing" textLength="98.4" x="61.2" y="437.1023">confirms publishment</text><!--SRC=[fPJ1Rjim38RlVWgYfmP8KM3770OKw67tF05jqxOGMTH4EgtVVfJifDcwTVFgaoIBltz-92qd5o8c767amCsGU2JGD54brpSHcnFsTDJP4oHg54FlRo_8W2s_kD13XrwegjIfNJtEeZJ2aRvF51g2PuTzldv_F3xlgWedvJ2DDILRDye9xfvw2de7A51MbSchQrp4e71tMFJAwsLPujmPbTRx5TXJbl3mzVBzWmMS19JDU-_iA052e1V047WoO-Crz2ftqOVrMQKUJ7MHFvYOfILgmdCau0vYuaX9voMgfT-AlJSdv0sf08UYeWCLHO7UdId0FMO8sU8U1fx4BYNm6DhT9ootgBZHvk8fkrjLg2qoPZ0HWWimVjc3vmRLSTX3QwGnLxspbYfnZTCP6jDDjByHYSarTj3mw4Gir42KwuBUZWkLPCsP2EB0ohBcpL6lnC695HEUBgGUlsLGRoW-oUW3JbjPBVsUwrnJcvZ7RBo56dKekxqDMphbIHAREh8zdj5vh6sSJCh5dDxkxTllAC0lgN-O_ZO4Vy6m5GMzvbdC7M8qq1186SJ2muK1QwSbRS-TjRvC0UWriao9Tl-O7fcI0LeEVjhy8V6OI6nb6BqldejJ5yJmKhjnO1eEdKjMu4ly3Suj3Oa1_Imhn6B82Et16RHefJ-JRSnrcuk_VhECu0MuTLfNfeT5hR7-DuiurTx9iFmhRyAN7-yF]--></g></svg>