<?xml version="1.0" encoding="us-ascii" standalone="no"?><svg xmlns="http://www.w3.org/2000/svg" xmlns:xlink="http://www.w3.org/1999/xlink" contentStyleType="text/css" height="1362px" preserveAspectRatio="none" style="width:1682px;height:1362px;background:#FFFFFF;" version="1.1" viewBox="0 0 1682 1362" width="1682px" zoomAndPan="magnify"><defs/><g><text fill="#000000" font-family="sans-serif" font-size="14" font-weight="bold" lengthAdjust="spacing" textLength="230" x="727" y="27.6738">US017 - Sequence Diagram (SSD)</text><rect fill="#FFFFFF" height="1137.3438" style="stroke:#181818;stroke-width:1.0;" width="10" x="56" y="127.2813"/><rect fill="#FFFFFF" height="311.875" style="stroke:#181818;stroke-width:1.0;" width="10" x="433" y="147.8047"/><rect fill="#FFFFFF" height="28.5234" style="stroke:#181818;stroke-width:1.0;" width="10" x="433" y="488.2031"/><rect fill="#FFFFFF" height="719.375" style="stroke:#181818;stroke-width:1.0;" width="10" x="433" y="545.25"/><rect fill="#FFFFFF" height="199.6641" style="stroke:#181818;stroke-width:1.0;" width="10" x="832" y="216.9688"/><rect fill="#FFFFFF" height="287.2344" style="stroke:#181818;stroke-width:1.0;" width="10" x="832" y="597.2969"/><rect fill="#FFFFFF" height="287.2344" style="stroke:#181818;stroke-width:1.0;" width="10" x="832" y="927.3438"/><rect fill="#FFFFFF" height="28.5234" style="stroke:#181818;stroke-width:1.0;" width="10" x="959.5" y="245.4922"/><rect fill="#FFFFFF" height="28.5234" style="stroke:#181818;stroke-width:1.0;" width="10" x="1066" y="302.5391"/><rect fill="#FFFFFF" height="28.5234" style="stroke:#181818;stroke-width:1.0;" width="10" x="1231" y="359.5859"/><rect fill="#FFFFFF" height="230.1875" style="stroke:#181818;stroke-width:1.0;" width="10" x="1231" y="625.8203"/><rect fill="#FFFFFF" height="230.1875" style="stroke:#181818;stroke-width:1.0;" width="10" x="1231" y="955.8672"/><rect fill="#FFFFFF" height="142.6172" style="stroke:#181818;stroke-width:1.0;" width="10" x="1391" y="677.8672"/><rect fill="#FFFFFF" height="142.6172" style="stroke:#181818;stroke-width:1.0;" width="10" x="1391" y="1007.9141"/><rect fill="#FFFFFF" height="85.5703" style="stroke:#181818;stroke-width:1.0;" width="10" x="1513" y="706.3906"/><rect fill="#FFFFFF" height="85.5703" style="stroke:#181818;stroke-width:1.0;" width="10" x="1513" y="1036.4375"/><rect fill="#FFFFFF" height="28.5234" style="stroke:#181818;stroke-width:1.0;" width="10" x="1614.5" y="734.9141"/><rect fill="#FFFFFF" height="28.5234" style="stroke:#181818;stroke-width:1.0;" width="10" x="1614.5" y="1064.9609"/><rect fill="none" height="662.3281" style="stroke:#000000;stroke-width:1.5;" width="1291" x="384" y="560.25"/><rect fill="none" height="187.6641" style="stroke:#000000;stroke-width:1.5;" width="501" x="1164" y="640.8203"/><rect fill="none" height="187.6641" style="stroke:#000000;stroke-width:1.5;" width="501" x="1164" y="970.8672"/><line style="stroke:#181818;stroke-width:0.5;stroke-dasharray:5.0,5.0;" x1="61" x2="61" y1="117.2813" y2="1282.625"/><line style="stroke:#181818;stroke-width:0.5;stroke-dasharray:5.0,5.0;" x1="438" x2="438" y1="117.2813" y2="1282.625"/><line style="stroke:#181818;stroke-width:0.5;stroke-dasharray:5.0,5.0;" x1="837" x2="837" y1="186.125" y2="1282.625"/><line style="stroke:#181818;stroke-width:0.5;stroke-dasharray:5.0,5.0;" x1="964" x2="964" y1="117.2813" y2="1282.625"/><line style="stroke:#181818;stroke-width:0.5;stroke-dasharray:5.0,5.0;" x1="1071" x2="1071" y1="117.2813" y2="1282.625"/><line style="stroke:#181818;stroke-width:0.5;stroke-dasharray:5.0,5.0;" x1="1236" x2="1236" y1="117.2813" y2="1282.625"/><line style="stroke:#181818;stroke-width:0.5;stroke-dasharray:5.0,5.0;" x1="1396" x2="1396" y1="117.2813" y2="1282.625"/><line style="stroke:#181818;stroke-width:0.5;stroke-dasharray:5.0,5.0;" x1="1518" x2="1518" y1="117.2813" y2="1282.625"/><line style="stroke:#181818;stroke-width:0.5;stroke-dasharray:5.0,5.0;" x1="1619" x2="1619" y1="117.2813" y2="1282.625"/><text fill="#000000" font-family="sans-serif" font-size="14" lengthAdjust="spacing" textLength="106" x="5" y="114.3145">NetworkManager</text><ellipse cx="61" cy="50.1406" fill="#E2E2F0" rx="8" ry="8" style="stroke:#181818;stroke-width:0.5;"/><path d="M61,58.1406 L61,85.1406 M48,66.1406 L74,66.1406 M61,85.1406 L48,100.1406 M61,85.1406 L74,100.1406 " fill="none" style="stroke:#181818;stroke-width:0.5;"/><text fill="#000000" font-family="sans-serif" font-size="14" lengthAdjust="spacing" textLength="106" x="5" y="1294.2988">NetworkManager</text><ellipse cx="61" cy="1305.7656" fill="#E2E2F0" rx="8" ry="8" style="stroke:#181818;stroke-width:0.5;"/><path d="M61,1313.7656 L61,1340.7656 M48,1321.7656 L74,1321.7656 M61,1340.7656 L48,1355.7656 M61,1340.7656 L74,1355.7656 " fill="none" style="stroke:#181818;stroke-width:0.5;"/><rect fill="#E2E2F0" height="29.6406" rx="2.5" ry="2.5" style="stroke:#181818;stroke-width:0.5;" width="88" x="394" y="86.6406"/><text fill="#000000" font-family="sans-serif" font-size="14" lengthAdjust="spacing" textLength="74" x="401" y="106.3145">:ListDealsUI</text><rect fill="#E2E2F0" height="29.6406" rx="2.5" ry="2.5" style="stroke:#181818;stroke-width:0.5;" width="88" x="394" y="1281.625"/><text fill="#000000" font-family="sans-serif" font-size="14" lengthAdjust="spacing" textLength="74" x="401" y="1301.2988">:ListDealsUI</text><rect fill="#E2E2F0" height="29.6406" rx="2.5" ry="2.5" style="stroke:#181818;stroke-width:0.5;" width="138" x="768" y="1281.625"/><text fill="#000000" font-family="sans-serif" font-size="14" lengthAdjust="spacing" textLength="124" x="775" y="1301.2988">:ListDealsController</text><rect fill="#E2E2F0" height="29.6406" rx="2.5" ry="2.5" style="stroke:#181818;stroke-width:0.5;" width="97" x="916" y="86.6406"/><text fill="#000000" font-family="sans-serif" font-size="14" lengthAdjust="spacing" textLength="83" x="923" y="106.3145">:Repositories</text><rect fill="#E2E2F0" height="29.6406" rx="2.5" ry="2.5" style="stroke:#181818;stroke-width:0.5;" width="97" x="916" y="1281.625"/><text fill="#000000" font-family="sans-serif" font-size="14" lengthAdjust="spacing" textLength="83" x="923" y="1301.2988">:Repositories</text><rect fill="#E2E2F0" height="45.2813" rx="2.5" ry="2.5" style="stroke:#181818;stroke-width:0.5;" width="96" x="1023" y="71"/><text fill="#000000" font-family="sans-serif" font-size="14" lengthAdjust="spacing" textLength="82" x="1030" y="90.6738">repositories :</text><text fill="#000000" font-family="sans-serif" font-size="14" lengthAdjust="spacing" textLength="79" x="1031.5" y="106.3145">Repositories</text><rect fill="#E2E2F0" height="45.2813" rx="2.5" ry="2.5" style="stroke:#181818;stroke-width:0.5;" width="96" x="1023" y="1281.625"/><text fill="#000000" font-family="sans-serif" font-size="14" lengthAdjust="spacing" textLength="82" x="1030" y="1301.2988">repositories :</text><text fill="#000000" font-family="sans-serif" font-size="14" lengthAdjust="spacing" textLength="79" x="1031.5" y="1316.9395">Repositories</text><rect fill="#E2E2F0" height="45.2813" rx="2.5" ry="2.5" style="stroke:#181818;stroke-width:0.5;" width="124" x="1174" y="71"/><text fill="#000000" font-family="sans-serif" font-size="14" lengthAdjust="spacing" textLength="110" x="1181" y="90.6738">orderRepository :</text><text fill="#000000" font-family="sans-serif" font-size="14" lengthAdjust="spacing" textLength="105" x="1183.5" y="106.3145">OrderRepository</text><rect fill="#E2E2F0" height="45.2813" rx="2.5" ry="2.5" style="stroke:#181818;stroke-width:0.5;" width="124" x="1174" y="1281.625"/><text fill="#000000" font-family="sans-serif" font-size="14" lengthAdjust="spacing" textLength="110" x="1181" y="1301.2988">orderRepository :</text><text fill="#000000" font-family="sans-serif" font-size="14" lengthAdjust="spacing" textLength="105" x="1183.5" y="1316.9395">OrderRepository</text><rect fill="#E2E2F0" height="45.2813" rx="2.5" ry="2.5" style="stroke:#181818;stroke-width:0.5;" width="52" x="1370" y="71"/><text fill="#000000" font-family="sans-serif" font-size="14" lengthAdjust="spacing" textLength="38" x="1377" y="90.6738">order:</text><text fill="#000000" font-family="sans-serif" font-size="14" lengthAdjust="spacing" textLength="37" x="1377.5" y="106.3145">Order</text><rect fill="#E2E2F0" height="45.2813" rx="2.5" ry="2.5" style="stroke:#181818;stroke-width:0.5;" width="52" x="1370" y="1281.625"/><text fill="#000000" font-family="sans-serif" font-size="14" lengthAdjust="spacing" textLength="38" x="1377" y="1301.2988">order:</text><text fill="#000000" font-family="sans-serif" font-size="14" lengthAdjust="spacing" textLength="37" x="1377.5" y="1316.9395">Order</text><rect fill="#E2E2F0" height="45.2813" rx="2.5" ry="2.5" style="stroke:#181818;stroke-width:0.5;" width="112" x="1462" y="71"/><text fill="#000000" font-family="sans-serif" font-size="14" lengthAdjust="spacing" textLength="98" x="1469" y="90.6738">announcement:</text><text fill="#000000" font-family="sans-serif" font-size="14" lengthAdjust="spacing" textLength="95" x="1470.5" y="106.3145">Announcement</text><rect fill="#E2E2F0" height="45.2813" rx="2.5" ry="2.5" style="stroke:#181818;stroke-width:0.5;" width="112" x="1462" y="1281.625"/><text fill="#000000" font-family="sans-serif" font-size="14" lengthAdjust="spacing" textLength="98" x="1469" y="1301.2988">announcement:</text><text fill="#000000" font-family="sans-serif" font-size="14" lengthAdjust="spacing" textLength="95" x="1470.5" y="1316.9395">Announcement</text><rect fill="#E2E2F0" height="45.2813" rx="2.5" ry="2.5" style="stroke:#181818;stroke-width:0.5;" width="71" x="1584" y="71"/><text fill="#000000" font-family="sans-serif" font-size="14" lengthAdjust="spacing" textLength="57" x="1591" y="90.6738">property:</text><text fill="#000000" font-family="sans-serif" font-size="14" lengthAdjust="spacing" textLength="54" x="1592.5" y="106.3145">Property</text><rect fill="#E2E2F0" height="45.2813" rx="2.5" ry="2.5" style="stroke:#181818;stroke-width:0.5;" width="71" x="1584" y="1281.625"/><text fill="#000000" font-family="sans-serif" font-size="14" lengthAdjust="spacing" textLength="57" x="1591" y="1301.2988">property:</text><text fill="#000000" font-family="sans-serif" font-size="14" lengthAdjust="spacing" textLength="54" x="1592.5" y="1316.9395">Property</text><rect fill="#FFFFFF" height="1137.3438" style="stroke:#181818;stroke-width:1.0;" width="10" x="56" y="127.2813"/><rect fill="#FFFFFF" height="311.875" style="stroke:#181818;stroke-width:1.0;" width="10" x="433" y="147.8047"/><rect fill="#FFFFFF" height="28.5234" style="stroke:#181818;stroke-width:1.0;" width="10" x="433" y="488.2031"/><rect fill="#FFFFFF" height="719.375" style="stroke:#181818;stroke-width:1.0;" width="10" x="433" y="545.25"/><rect fill="#FFFFFF" height="199.6641" style="stroke:#181818;stroke-width:1.0;" width="10" x="832" y="216.9688"/><rect fill="#FFFFFF" height="287.2344" style="stroke:#181818;stroke-width:1.0;" width="10" x="832" y="597.2969"/><rect fill="#FFFFFF" height="287.2344" style="stroke:#181818;stroke-width:1.0;" width="10" x="832" y="927.3438"/><rect fill="#FFFFFF" height="28.5234" style="stroke:#181818;stroke-width:1.0;" width="10" x="959.5" y="245.4922"/><rect fill="#FFFFFF" height="28.5234" style="stroke:#181818;stroke-width:1.0;" width="10" x="1066" y="302.5391"/><rect fill="#FFFFFF" height="28.5234" style="stroke:#181818;stroke-width:1.0;" width="10" x="1231" y="359.5859"/><rect fill="#FFFFFF" height="230.1875" style="stroke:#181818;stroke-width:1.0;" width="10" x="1231" y="625.8203"/><rect fill="#FFFFFF" height="230.1875" style="stroke:#181818;stroke-width:1.0;" width="10" x="1231" y="955.8672"/><rect fill="#FFFFFF" height="142.6172" style="stroke:#181818;stroke-width:1.0;" width="10" x="1391" y="677.8672"/><rect fill="#FFFFFF" height="142.6172" style="stroke:#181818;stroke-width:1.0;" width="10" x="1391" y="1007.9141"/><rect fill="#FFFFFF" height="85.5703" style="stroke:#181818;stroke-width:1.0;" width="10" x="1513" y="706.3906"/><rect fill="#FFFFFF" height="85.5703" style="stroke:#181818;stroke-width:1.0;" width="10" x="1513" y="1036.4375"/><rect fill="#FFFFFF" height="28.5234" style="stroke:#181818;stroke-width:1.0;" width="10" x="1614.5" y="734.9141"/><rect fill="#FFFFFF" height="28.5234" style="stroke:#181818;stroke-width:1.0;" width="10" x="1614.5" y="1064.9609"/><polygon fill="#181818" points="421,143.8047,431,147.8047,421,151.8047,425,147.8047" style="stroke:#181818;stroke-width:1.0;"/><line style="stroke:#181818;stroke-width:1.0;" x1="66" x2="427" y1="147.8047" y2="147.8047"/><text fill="#000000" font-family="sans-serif" font-size="13" font-weight="bold" lengthAdjust="spacing" textLength="7" x="73" y="143.0498">1</text><text fill="#000000" font-family="sans-serif" font-size="13" lengthAdjust="spacing" textLength="174" x="84" y="143.0498">asks to list all the deals made</text><polygon fill="#181818" points="756,172.3281,766,176.3281,756,180.3281,760,176.3281" style="stroke:#181818;stroke-width:1.0;"/><line style="stroke:#181818;stroke-width:1.0;stroke-dasharray:2.0,2.0;" x1="443" x2="762" y1="176.3281" y2="176.3281"/><text fill="#000000" font-family="sans-serif" font-size="13" font-weight="bold" lengthAdjust="spacing" textLength="7" x="450" y="171.5732">2</text><text fill="#000000" font-family="sans-serif" font-size="13" lengthAdjust="spacing" textLength="36" x="461" y="171.5732">create</text><rect fill="#E2E2F0" height="29.6406" rx="2.5" ry="2.5" style="stroke:#181818;stroke-width:0.5;" width="138" x="768" y="155.8047"/><text fill="#000000" font-family="sans-serif" font-size="14" lengthAdjust="spacing" textLength="124" x="775" y="175.4785">:ListDealsController</text><polygon fill="#181818" points="820,212.9688,830,216.9688,820,220.9688,824,216.9688" style="stroke:#181818;stroke-width:1.0;"/><line style="stroke:#181818;stroke-width:1.0;" x1="443" x2="826" y1="216.9688" y2="216.9688"/><text fill="#000000" font-family="sans-serif" font-size="13" font-weight="bold" lengthAdjust="spacing" textLength="7" x="450" y="212.2139">3</text><text fill="#000000" font-family="sans-serif" font-size="13" lengthAdjust="spacing" textLength="59" x="461" y="212.2139">getDeals()</text><polygon fill="#181818" points="947.5,241.4922,957.5,245.4922,947.5,249.4922,951.5,245.4922" style="stroke:#181818;stroke-width:1.0;"/><line style="stroke:#181818;stroke-width:1.0;" x1="842" x2="953.5" y1="245.4922" y2="245.4922"/><text fill="#000000" font-family="sans-serif" font-size="13" font-weight="bold" lengthAdjust="spacing" textLength="7" x="849" y="240.7373">4</text><text fill="#000000" font-family="sans-serif" font-size="13" lengthAdjust="spacing" textLength="75" x="860" y="240.7373">getInstance()</text><polygon fill="#181818" points="853,270.0156,843,274.0156,853,278.0156,849,274.0156" style="stroke:#181818;stroke-width:1.0;"/><line style="stroke:#181818;stroke-width:1.0;stroke-dasharray:2.0,2.0;" x1="847" x2="963.5" y1="274.0156" y2="274.0156"/><text fill="#000000" font-family="sans-serif" font-size="13" font-weight="bold" lengthAdjust="spacing" textLength="7" x="859" y="269.2607">5</text><text fill="#000000" font-family="sans-serif" font-size="13" lengthAdjust="spacing" textLength="67" x="870" y="269.2607">repositories</text><polygon fill="#181818" points="1054,298.5391,1064,302.5391,1054,306.5391,1058,302.5391" style="stroke:#181818;stroke-width:1.0;"/><line style="stroke:#181818;stroke-width:1.0;" x1="842" x2="1060" y1="302.5391" y2="302.5391"/><text fill="#000000" font-family="sans-serif" font-size="13" font-weight="bold" lengthAdjust="spacing" textLength="7" x="849" y="297.7842">6</text><text fill="#000000" font-family="sans-serif" font-size="13" lengthAdjust="spacing" textLength="127" x="860" y="297.7842">getOrdersRepository()</text><polygon fill="#181818" points="853,327.0625,843,331.0625,853,335.0625,849,331.0625" style="stroke:#181818;stroke-width:1.0;"/><line style="stroke:#181818;stroke-width:1.0;stroke-dasharray:2.0,2.0;" x1="847" x2="1070" y1="331.0625" y2="331.0625"/><text fill="#000000" font-family="sans-serif" font-size="13" font-weight="bold" lengthAdjust="spacing" textLength="7" x="859" y="326.3076">7</text><text fill="#000000" font-family="sans-serif" font-size="13" lengthAdjust="spacing" textLength="98" x="870" y="326.3076">ordersRepository</text><polygon fill="#181818" points="1219,355.5859,1229,359.5859,1219,363.5859,1223,359.5859" style="stroke:#181818;stroke-width:1.0;"/><line style="stroke:#181818;stroke-width:1.0;" x1="842" x2="1225" y1="359.5859" y2="359.5859"/><text fill="#000000" font-family="sans-serif" font-size="13" font-weight="bold" lengthAdjust="spacing" textLength="7" x="849" y="354.8311">8</text><text fill="#000000" font-family="sans-serif" font-size="13" lengthAdjust="spacing" textLength="120" x="860" y="354.8311">getAcceptedOrders()</text><polygon fill="#181818" points="853,384.1094,843,388.1094,853,392.1094,849,388.1094" style="stroke:#181818;stroke-width:1.0;"/><line style="stroke:#181818;stroke-width:1.0;stroke-dasharray:2.0,2.0;" x1="847" x2="1235" y1="388.1094" y2="388.1094"/><text fill="#000000" font-family="sans-serif" font-size="13" font-weight="bold" lengthAdjust="spacing" textLength="7" x="859" y="383.3545">9</text><text fill="#000000" font-family="sans-serif" font-size="13" lengthAdjust="spacing" textLength="92" x="870" y="383.3545">acceptedOrders</text><polygon fill="#181818" points="454,412.6328,444,416.6328,454,420.6328,450,416.6328" style="stroke:#181818;stroke-width:1.0;"/><line style="stroke:#181818;stroke-width:1.0;stroke-dasharray:2.0,2.0;" x1="448" x2="836" y1="416.6328" y2="416.6328"/><text fill="#000000" font-family="sans-serif" font-size="13" font-weight="bold" lengthAdjust="spacing" textLength="14" x="460" y="411.8779">10</text><text fill="#000000" font-family="sans-serif" font-size="13" lengthAdjust="spacing" textLength="31" x="478" y="411.8779">deals</text><polygon fill="#181818" points="77,455.6797,67,459.6797,77,463.6797,73,459.6797" style="stroke:#181818;stroke-width:1.0;"/><line style="stroke:#181818;stroke-width:1.0;stroke-dasharray:2.0,2.0;" x1="71" x2="437" y1="459.6797" y2="459.6797"/><text fill="#000000" font-family="sans-serif" font-size="13" font-weight="bold" lengthAdjust="spacing" textLength="14" x="83" y="447.6631">11</text><text fill="#000000" font-family="sans-serif" font-size="13" lengthAdjust="spacing" textLength="252" x="101" y="440.4014">shows the list and asks to select one of the</text><text fill="#000000" font-family="sans-serif" font-size="13" lengthAdjust="spacing" textLength="269" x="101" y="454.9248">sorting methods (Bubble Sort or Insertion Sort)</text><polygon fill="#181818" points="421,484.2031,431,488.2031,421,492.2031,425,488.2031" style="stroke:#181818;stroke-width:1.0;"/><line style="stroke:#181818;stroke-width:1.0;" x1="66" x2="427" y1="488.2031" y2="488.2031"/><text fill="#000000" font-family="sans-serif" font-size="13" font-weight="bold" lengthAdjust="spacing" textLength="14" x="73" y="483.4482">12</text><text fill="#000000" font-family="sans-serif" font-size="13" lengthAdjust="spacing" textLength="330" x="91" y="483.4482">selects the sorting method (Bubble Sort or Insertion Sort)</text><polygon fill="#181818" points="77,512.7266,67,516.7266,77,520.7266,73,516.7266" style="stroke:#181818;stroke-width:1.0;"/><line style="stroke:#181818;stroke-width:1.0;stroke-dasharray:2.0,2.0;" x1="71" x2="437" y1="516.7266" y2="516.7266"/><text fill="#000000" font-family="sans-serif" font-size="13" font-weight="bold" lengthAdjust="spacing" textLength="14" x="83" y="511.9717">13</text><text fill="#000000" font-family="sans-serif" font-size="13" lengthAdjust="spacing" textLength="314" x="101" y="511.9717">asks for the order of sorting (ascending or descending)</text><polygon fill="#181818" points="421,541.25,431,545.25,421,549.25,425,545.25" style="stroke:#181818;stroke-width:1.0;"/><line style="stroke:#181818;stroke-width:1.0;" x1="66" x2="427" y1="545.25" y2="545.25"/><text fill="#000000" font-family="sans-serif" font-size="13" font-weight="bold" lengthAdjust="spacing" textLength="14" x="73" y="540.4951">14</text><text fill="#000000" font-family="sans-serif" font-size="13" lengthAdjust="spacing" textLength="310" x="91" y="540.4951">selects the order of sorting (ascending or descending)</text><path d="M384,560.25 L445,560.25 L445,566.7734 L435,576.7734 L384,576.7734 L384,560.25 " fill="#EEEEEE" style="stroke:#000000;stroke-width:1.5;"/><rect fill="none" height="662.3281" style="stroke:#000000;stroke-width:1.5;" width="1291" x="384" y="560.25"/><text fill="#000000" font-family="sans-serif" font-size="13" font-weight="bold" lengthAdjust="spacing" textLength="16" x="399" y="573.0186">alt</text><text fill="#000000" font-family="sans-serif" font-size="11" font-weight="bold" lengthAdjust="spacing" textLength="182" x="460" y="572.208">[Bubble Sort method is selected]</text><polygon fill="#181818" points="820,593.2969,830,597.2969,820,601.2969,824,597.2969" style="stroke:#181818;stroke-width:1.0;"/><line style="stroke:#181818;stroke-width:1.0;stroke-dasharray:2.0,2.0;" x1="443" x2="826" y1="597.2969" y2="597.2969"/><text fill="#000000" font-family="sans-serif" font-size="13" font-weight="bold" lengthAdjust="spacing" textLength="14" x="450" y="592.542">15</text><text fill="#000000" font-family="sans-serif" font-size="13" lengthAdjust="spacing" textLength="343" x="468" y="592.542">sortListByBubbleSort(deals, sortingMethod, orderOfSorting)</text><polygon fill="#181818" points="1219,621.8203,1229,625.8203,1219,629.8203,1223,625.8203" style="stroke:#181818;stroke-width:1.0;"/><line style="stroke:#181818;stroke-width:1.0;" x1="842" x2="1225" y1="625.8203" y2="625.8203"/><text fill="#000000" font-family="sans-serif" font-size="13" font-weight="bold" lengthAdjust="spacing" textLength="14" x="849" y="621.0654">16</text><text fill="#000000" font-family="sans-serif" font-size="13" lengthAdjust="spacing" textLength="343" x="867" y="621.0654">sortListByBubbleSort(deals, sortingMethod ,orderOfSorting)</text><path d="M1164,640.8203 L1237,640.8203 L1237,647.3438 L1227,657.3438 L1164,657.3438 L1164,640.8203 " fill="#EEEEEE" style="stroke:#000000;stroke-width:1.5;"/><rect fill="none" height="187.6641" style="stroke:#000000;stroke-width:1.5;" width="501" x="1164" y="640.8203"/><text fill="#000000" font-family="sans-serif" font-size="13" font-weight="bold" lengthAdjust="spacing" textLength="28" x="1179" y="653.5889">loop</text><text fill="#000000" font-family="sans-serif" font-size="11" font-weight="bold" lengthAdjust="spacing" textLength="84" x="1252" y="652.7783">[for every deal]</text><polygon fill="#181818" points="1379,673.8672,1389,677.8672,1379,681.8672,1383,677.8672" style="stroke:#181818;stroke-width:1.0;"/><line style="stroke:#181818;stroke-width:1.0;stroke-dasharray:2.0,2.0;" x1="1241" x2="1385" y1="677.8672" y2="677.8672"/><text fill="#000000" font-family="sans-serif" font-size="13" font-weight="bold" lengthAdjust="spacing" textLength="14" x="1248" y="673.1123">17</text><text fill="#000000" font-family="sans-serif" font-size="13" lengthAdjust="spacing" textLength="113" x="1266" y="673.1123">getAnnouncement()</text><polygon fill="#181818" points="1501,702.3906,1511,706.3906,1501,710.3906,1505,706.3906" style="stroke:#181818;stroke-width:1.0;"/><line style="stroke:#181818;stroke-width:1.0;" x1="1401" x2="1507" y1="706.3906" y2="706.3906"/><text fill="#000000" font-family="sans-serif" font-size="13" font-weight="bold" lengthAdjust="spacing" textLength="14" x="1408" y="701.6357">18</text><text fill="#000000" font-family="sans-serif" font-size="13" lengthAdjust="spacing" textLength="75" x="1426" y="701.6357">getProperty()</text><polygon fill="#181818" points="1602.5,730.9141,1612.5,734.9141,1602.5,738.9141,1606.5,734.9141" style="stroke:#181818;stroke-width:1.0;"/><line style="stroke:#181818;stroke-width:1.0;" x1="1523" x2="1608.5" y1="734.9141" y2="734.9141"/><text fill="#000000" font-family="sans-serif" font-size="13" font-weight="bold" lengthAdjust="spacing" textLength="14" x="1530" y="730.1592">19</text><text fill="#000000" font-family="sans-serif" font-size="13" lengthAdjust="spacing" textLength="53" x="1548" y="730.1592">getArea()</text><polygon fill="#181818" points="1534,759.4375,1524,763.4375,1534,767.4375,1530,763.4375" style="stroke:#181818;stroke-width:1.0;"/><line style="stroke:#181818;stroke-width:1.0;stroke-dasharray:2.0,2.0;" x1="1528" x2="1618.5" y1="763.4375" y2="763.4375"/><text fill="#000000" font-family="sans-serif" font-size="13" font-weight="bold" lengthAdjust="spacing" textLength="14" x="1540" y="758.6826">20</text><text fill="#000000" font-family="sans-serif" font-size="13" lengthAdjust="spacing" textLength="25" x="1558" y="758.6826">area</text><polygon fill="#181818" points="1412,787.9609,1402,791.9609,1412,795.9609,1408,791.9609" style="stroke:#181818;stroke-width:1.0;"/><line style="stroke:#181818;stroke-width:1.0;stroke-dasharray:2.0,2.0;" x1="1406" x2="1517" y1="791.9609" y2="791.9609"/><text fill="#000000" font-family="sans-serif" font-size="13" font-weight="bold" lengthAdjust="spacing" textLength="14" x="1418" y="787.2061">21</text><text fill="#000000" font-family="sans-serif" font-size="13" lengthAdjust="spacing" textLength="25" x="1436" y="787.2061">area</text><polygon fill="#181818" points="1252,816.4844,1242,820.4844,1252,824.4844,1248,820.4844" style="stroke:#181818;stroke-width:1.0;"/><line style="stroke:#181818;stroke-width:1.0;stroke-dasharray:2.0,2.0;" x1="1246" x2="1395" y1="820.4844" y2="820.4844"/><text fill="#000000" font-family="sans-serif" font-size="13" font-weight="bold" lengthAdjust="spacing" textLength="14" x="1258" y="815.7295">22</text><text fill="#000000" font-family="sans-serif" font-size="13" lengthAdjust="spacing" textLength="25" x="1276" y="815.7295">area</text><polygon fill="#181818" points="853,852.0078,843,856.0078,853,860.0078,849,856.0078" style="stroke:#181818;stroke-width:1.0;"/><line style="stroke:#181818;stroke-width:1.0;stroke-dasharray:2.0,2.0;" x1="847" x2="1235" y1="856.0078" y2="856.0078"/><text fill="#000000" font-family="sans-serif" font-size="13" font-weight="bold" lengthAdjust="spacing" textLength="14" x="859" y="851.2529">23</text><text fill="#000000" font-family="sans-serif" font-size="13" lengthAdjust="spacing" textLength="100" x="877" y="851.2529">sortedListByArea</text><polygon fill="#181818" points="454,880.5313,444,884.5313,454,888.5313,450,884.5313" style="stroke:#181818;stroke-width:1.0;"/><line style="stroke:#181818;stroke-width:1.0;stroke-dasharray:2.0,2.0;" x1="448" x2="836" y1="884.5313" y2="884.5313"/><text fill="#000000" font-family="sans-serif" font-size="13" font-weight="bold" lengthAdjust="spacing" textLength="14" x="460" y="879.7764">24</text><text fill="#000000" font-family="sans-serif" font-size="13" lengthAdjust="spacing" textLength="57" x="478" y="879.7764">sortedList</text><line style="stroke:#000000;stroke-width:1.0;stroke-dasharray:2.0,2.0;" x1="384" x2="1675" y1="893.5313" y2="893.5313"/><text fill="#000000" font-family="sans-serif" font-size="11" font-weight="bold" lengthAdjust="spacing" textLength="194" x="389" y="903.4893">[Insertion Sort method is selected]</text><polygon fill="#181818" points="820,923.3438,830,927.3438,820,931.3438,824,927.3438" style="stroke:#181818;stroke-width:1.0;"/><line style="stroke:#181818;stroke-width:1.0;stroke-dasharray:2.0,2.0;" x1="443" x2="826" y1="927.3438" y2="927.3438"/><text fill="#000000" font-family="sans-serif" font-size="13" font-weight="bold" lengthAdjust="spacing" textLength="14" x="450" y="922.5889">25</text><text fill="#000000" font-family="sans-serif" font-size="13" lengthAdjust="spacing" textLength="352" x="468" y="922.5889">sortListByInsertionSort(deals, sortingMethod, orderOfSorting)</text><polygon fill="#181818" points="1219,951.8672,1229,955.8672,1219,959.8672,1223,955.8672" style="stroke:#181818;stroke-width:1.0;"/><line style="stroke:#181818;stroke-width:1.0;" x1="842" x2="1225" y1="955.8672" y2="955.8672"/><text fill="#000000" font-family="sans-serif" font-size="13" font-weight="bold" lengthAdjust="spacing" textLength="14" x="849" y="951.1123">26</text><text fill="#000000" font-family="sans-serif" font-size="13" lengthAdjust="spacing" textLength="352" x="867" y="951.1123">sortListByInsertionSort(deals, sortingMethod, orderOfSorting)</text><path d="M1164,970.8672 L1237,970.8672 L1237,977.3906 L1227,987.3906 L1164,987.3906 L1164,970.8672 " fill="#EEEEEE" style="stroke:#000000;stroke-width:1.5;"/><rect fill="none" height="187.6641" style="stroke:#000000;stroke-width:1.5;" width="501" x="1164" y="970.8672"/><text fill="#000000" font-family="sans-serif" font-size="13" font-weight="bold" lengthAdjust="spacing" textLength="28" x="1179" y="983.6357">loop</text><text fill="#000000" font-family="sans-serif" font-size="11" font-weight="bold" lengthAdjust="spacing" textLength="84" x="1252" y="982.8252">[for every deal]</text><polygon fill="#181818" points="1379,1003.9141,1389,1007.9141,1379,1011.9141,1383,1007.9141" style="stroke:#181818;stroke-width:1.0;"/><line style="stroke:#181818;stroke-width:1.0;stroke-dasharray:2.0,2.0;" x1="1241" x2="1385" y1="1007.9141" y2="1007.9141"/><text fill="#000000" font-family="sans-serif" font-size="13" font-weight="bold" lengthAdjust="spacing" textLength="14" x="1248" y="1003.1592">27</text><text fill="#000000" font-family="sans-serif" font-size="13" lengthAdjust="spacing" textLength="113" x="1266" y="1003.1592">getAnnouncement()</text><polygon fill="#181818" points="1501,1032.4375,1511,1036.4375,1501,1040.4375,1505,1036.4375" style="stroke:#181818;stroke-width:1.0;"/><line style="stroke:#181818;stroke-width:1.0;" x1="1401" x2="1507" y1="1036.4375" y2="1036.4375"/><text fill="#000000" font-family="sans-serif" font-size="13" font-weight="bold" lengthAdjust="spacing" textLength="14" x="1408" y="1031.6826">28</text><text fill="#000000" font-family="sans-serif" font-size="13" lengthAdjust="spacing" textLength="75" x="1426" y="1031.6826">getProperty()</text><polygon fill="#181818" points="1602.5,1060.9609,1612.5,1064.9609,1602.5,1068.9609,1606.5,1064.9609" style="stroke:#181818;stroke-width:1.0;"/><line style="stroke:#181818;stroke-width:1.0;" x1="1523" x2="1608.5" y1="1064.9609" y2="1064.9609"/><text fill="#000000" font-family="sans-serif" font-size="13" font-weight="bold" lengthAdjust="spacing" textLength="14" x="1530" y="1060.2061">29</text><text fill="#000000" font-family="sans-serif" font-size="13" lengthAdjust="spacing" textLength="53" x="1548" y="1060.2061">getArea()</text><polygon fill="#181818" points="1534,1089.4844,1524,1093.4844,1534,1097.4844,1530,1093.4844" style="stroke:#181818;stroke-width:1.0;"/><line style="stroke:#181818;stroke-width:1.0;stroke-dasharray:2.0,2.0;" x1="1528" x2="1618.5" y1="1093.4844" y2="1093.4844"/><text fill="#000000" font-family="sans-serif" font-size="13" font-weight="bold" lengthAdjust="spacing" textLength="14" x="1540" y="1088.7295">30</text><text fill="#000000" font-family="sans-serif" font-size="13" lengthAdjust="spacing" textLength="25" x="1558" y="1088.7295">area</text><polygon fill="#181818" points="1412,1118.0078,1402,1122.0078,1412,1126.0078,1408,1122.0078" style="stroke:#181818;stroke-width:1.0;"/><line style="stroke:#181818;stroke-width:1.0;stroke-dasharray:2.0,2.0;" x1="1406" x2="1517" y1="1122.0078" y2="1122.0078"/><text fill="#000000" font-family="sans-serif" font-size="13" font-weight="bold" lengthAdjust="spacing" textLength="14" x="1418" y="1117.2529">31</text><text fill="#000000" font-family="sans-serif" font-size="13" lengthAdjust="spacing" textLength="25" x="1436" y="1117.2529">area</text><polygon fill="#181818" points="1252,1146.5313,1242,1150.5313,1252,1154.5313,1248,1150.5313" style="stroke:#181818;stroke-width:1.0;"/><line style="stroke:#181818;stroke-width:1.0;stroke-dasharray:2.0,2.0;" x1="1246" x2="1395" y1="1150.5313" y2="1150.5313"/><text fill="#000000" font-family="sans-serif" font-size="13" font-weight="bold" lengthAdjust="spacing" textLength="14" x="1258" y="1145.7764">32</text><text fill="#000000" font-family="sans-serif" font-size="13" lengthAdjust="spacing" textLength="25" x="1276" y="1145.7764">area</text><polygon fill="#181818" points="853,1182.0547,843,1186.0547,853,1190.0547,849,1186.0547" style="stroke:#181818;stroke-width:1.0;"/><line style="stroke:#181818;stroke-width:1.0;stroke-dasharray:2.0,2.0;" x1="847" x2="1235" y1="1186.0547" y2="1186.0547"/><text fill="#000000" font-family="sans-serif" font-size="13" font-weight="bold" lengthAdjust="spacing" textLength="14" x="859" y="1181.2998">33</text><text fill="#000000" font-family="sans-serif" font-size="13" lengthAdjust="spacing" textLength="100" x="877" y="1181.2998">sortedListByArea</text><polygon fill="#181818" points="454,1210.5781,444,1214.5781,454,1218.5781,450,1214.5781" style="stroke:#181818;stroke-width:1.0;"/><line style="stroke:#181818;stroke-width:1.0;stroke-dasharray:2.0,2.0;" x1="448" x2="836" y1="1214.5781" y2="1214.5781"/><text fill="#000000" font-family="sans-serif" font-size="13" font-weight="bold" lengthAdjust="spacing" textLength="14" x="460" y="1209.8232">34</text><text fill="#000000" font-family="sans-serif" font-size="13" lengthAdjust="spacing" textLength="57" x="478" y="1209.8232">sortedList</text><polygon fill="#181818" points="72,1260.625,62,1264.625,72,1268.625,68,1264.625" style="stroke:#181818;stroke-width:1.0;"/><line style="stroke:#181818;stroke-width:1.0;stroke-dasharray:2.0,2.0;" x1="66" x2="437" y1="1264.625" y2="1264.625"/><text fill="#000000" font-family="sans-serif" font-size="13" font-weight="bold" lengthAdjust="spacing" textLength="14" x="78" y="1252.6084">35</text><text fill="#000000" font-family="sans-serif" font-size="13" lengthAdjust="spacing" textLength="244" x="96" y="1245.3467">shows the list of all the deals made sorted</text><text fill="#000000" font-family="sans-serif" font-size="13" lengthAdjust="spacing" textLength="237" x="96" y="1259.8701">by the selected sorting method and order</text><!--SRC=[hLTDRzim3BtxLn0z9KK3RAS1EGn8rnqAD4sHhBTU59jDZJgIPoajykz7IVwGBDb9YkaKItoF5Fd8gkoW13_ijrWbYSfLWV2y-VRz1ynWWtyFo5E4kvpjAhQ7oMPpDqqIbYfHmTKZgazHlIyPPpkihe19U5mc9QjKdkObumgkvW-vL7V82lbyRmoUxuSCVWckAb4KDLFtcVGGQoo5p2c27AKnVNfO_F5jAiS4vYyyWAn_F_a8KMLOjMP73LhvMmQtMaTWZQsnC3k-4UDS72YDU-IAR1VEfu6uvpwoh4I9bJeIwgd-QH3DlYb5_i4KwimdGEjn2REVb6QOa-6x12MWe1G3AmfGRmYPpZNiMORMlYMWofWDWiw8eSl_zJLnfHMIKMVX6j3n3cqH9zCUgrj6VU2WY4DNpgBlkLICSX0GcEAQBMCywtjsIstjw8OXsFTBvRTkJTraL-J0lHQAsT6GmBdemOC0MhZlVxMsxXTfYgN2p8OHE2UrcGqo3rmp3neuRg2ktqONHW81ebyfHmkagJd8D_4fZOIiddZM2anYWQa2mH74gp5vuLAGZlaEzgZUH2PXSdlORccsR6YVyWPKS59mBhZPcGRXD79qz6pTs1Xy-lFOXwHkhcVkyafGpMxggk_Ik9amcIBFz4yooR3vkZZk2vXD1LYXmBrRVTzSrgoOTTKAOeYsimw8cFJSlJrQQiqyCQguQU9Q6ZytDjxLwyRkJYFEOhg9gFridt1pscUZRhqA8KfJEFn06joQiZkiEyTctRQSCsmdCMuxmDjz2oKETqfRgcOaHscyeTuTkoH4sWpoEZOQib6oRjutHorm5eR6YAQpTBGPqlZnE9aQv8ZVgyvIK-n1T2-v9FMWLe5ICREwMGoHkcg8pRkE90eF18o5nDu46UsxC_giPVjAgvtkjzDDzny3SDDzkWEzTNuxnbttvEEj2nirxY2kRj_seXQEkmaRqLldDxUtHZjzv0w3RJ_4VaQMHWV24EzOURrHyOLvCJOqBfeS8-F33tJayKH__yFtUEsDtaxRettZr9Ec_zZHJoydLRt7X_D9_nFy0m00]--></g></svg>