<?xml version="1.0" encoding="us-ascii" standalone="no"?><svg xmlns="http://www.w3.org/2000/svg" xmlns:xlink="http://www.w3.org/1999/xlink" contentStyleType="text/css" height="1468px" preserveAspectRatio="none" style="width:703px;height:1468px;background:#FFFFFF;" version="1.1" viewBox="0 0 703 1468" width="703px" zoomAndPan="magnify"><defs/><g><text fill="#000000" font-family="sans-serif" font-size="14" font-weight="bold" lengthAdjust="spacing" textLength="189" x="250" y="22.6738">US017 - Class Diagram (UC)</text><!--class ListDealsUI--><g id="elem_ListDealsUI"><rect codeLine="11" fill="#F1F1F1" height="48" id="ListDealsUI" rx="2.5" ry="2.5" style="stroke:#181818;stroke-width:0.5;" width="102" x="300.5" y="43.6406"/><ellipse cx="315.5" cy="59.6406" fill="#ADD1B2" rx="11" ry="11" style="stroke:#181818;stroke-width:1.0;"/><path d="M318.2656,55.5156 Q318.4219,55.2969 318.6094,55.1875 Q318.7969,55.0781 319.0156,55.0781 Q319.3906,55.0781 319.625,55.3438 Q319.8594,55.5938 319.8594,56.2031 L319.8594,57.6563 Q319.8594,58.2656 319.625,58.5313 Q319.3906,58.7969 319.0156,58.7969 Q318.6719,58.7969 318.4688,58.5938 Q318.2656,58.4063 318.1563,57.8906 Q318.1094,57.5313 317.9219,57.3438 Q317.5938,56.9688 316.9844,56.75 Q316.375,56.5313 315.75,56.5313 Q314.9844,56.5313 314.3438,56.8594 Q313.7188,57.1875 313.2188,57.9375 Q312.7344,58.6875 312.7344,59.7188 L312.7344,60.8125 Q312.7344,62.0469 313.625,62.875 Q314.5156,63.6875 316.1094,63.6875 Q317.0469,63.6875 317.7031,63.4375 Q318.0938,63.2813 318.5156,62.8438 Q318.7813,62.5781 318.9219,62.5 Q319.0781,62.4219 319.2813,62.4219 Q319.6094,62.4219 319.8594,62.6875 Q320.125,62.9375 320.125,63.2813 Q320.125,63.625 319.7813,64.0313 Q319.2813,64.6094 318.4844,64.9375 Q317.4063,65.3906 316.1094,65.3906 Q314.5938,65.3906 313.3906,64.7656 Q312.4063,64.2656 311.7188,63.2031 Q311.0313,62.125 311.0313,60.8438 L311.0313,59.6875 Q311.0313,58.3594 311.6406,57.2188 Q312.2656,56.0625 313.3594,55.4531 Q314.4531,54.8281 315.6875,54.8281 Q316.4219,54.8281 317.0625,55 Q317.7188,55.1563 318.2656,55.5156 Z " fill="#000000"/><text fill="#000000" font-family="sans-serif" font-size="14" lengthAdjust="spacing" textLength="70" x="329.5" y="64.4941">ListDealsUI</text><line style="stroke:#181818;stroke-width:0.5;" x1="301.5" x2="401.5" y1="75.6406" y2="75.6406"/><line style="stroke:#181818;stroke-width:0.5;" x1="301.5" x2="401.5" y1="83.6406" y2="83.6406"/></g><!--class ListDealsController--><g id="elem_ListDealsController"><rect codeLine="14" fill="#F1F1F1" height="63.6406" id="ListDealsController" rx="2.5" ry="2.5" style="stroke:#181818;stroke-width:0.5;" width="152" x="275.5" y="214.6406"/><ellipse cx="290.5" cy="230.6406" fill="#ADD1B2" rx="11" ry="11" style="stroke:#181818;stroke-width:1.0;"/><path d="M293.2656,226.5156 Q293.4219,226.2969 293.6094,226.1875 Q293.7969,226.0781 294.0156,226.0781 Q294.3906,226.0781 294.625,226.3438 Q294.8594,226.5938 294.8594,227.2031 L294.8594,228.6563 Q294.8594,229.2656 294.625,229.5313 Q294.3906,229.7969 294.0156,229.7969 Q293.6719,229.7969 293.4688,229.5938 Q293.2656,229.4063 293.1563,228.8906 Q293.1094,228.5313 292.9219,228.3438 Q292.5938,227.9688 291.9844,227.75 Q291.375,227.5313 290.75,227.5313 Q289.9844,227.5313 289.3438,227.8594 Q288.7188,228.1875 288.2188,228.9375 Q287.7344,229.6875 287.7344,230.7188 L287.7344,231.8125 Q287.7344,233.0469 288.625,233.875 Q289.5156,234.6875 291.1094,234.6875 Q292.0469,234.6875 292.7031,234.4375 Q293.0938,234.2813 293.5156,233.8438 Q293.7813,233.5781 293.9219,233.5 Q294.0781,233.4219 294.2813,233.4219 Q294.6094,233.4219 294.8594,233.6875 Q295.125,233.9375 295.125,234.2813 Q295.125,234.625 294.7813,235.0313 Q294.2813,235.6094 293.4844,235.9375 Q292.4063,236.3906 291.1094,236.3906 Q289.5938,236.3906 288.3906,235.7656 Q287.4063,235.2656 286.7188,234.2031 Q286.0313,233.125 286.0313,231.8438 L286.0313,230.6875 Q286.0313,229.3594 286.6406,228.2188 Q287.2656,227.0625 288.3594,226.4531 Q289.4531,225.8281 290.6875,225.8281 Q291.4219,225.8281 292.0625,226 Q292.7188,226.1563 293.2656,226.5156 Z " fill="#000000"/><text fill="#000000" font-family="sans-serif" font-size="14" lengthAdjust="spacing" textLength="120" x="304.5" y="235.4941">ListDealsController</text><line style="stroke:#181818;stroke-width:0.5;" x1="276.5" x2="426.5" y1="246.6406" y2="246.6406"/><line style="stroke:#181818;stroke-width:0.5;" x1="276.5" x2="426.5" y1="254.6406" y2="254.6406"/><text fill="#000000" font-family="sans-serif" font-size="14" lengthAdjust="spacing" textLength="74" x="281.5" y="271.3145">+getDeals()</text></g><!--class Repositories--><g id="elem_Repositories"><rect codeLine="18" fill="#F1F1F1" height="94.9219" id="Repositories" rx="2.5" ry="2.5" style="stroke:#181818;stroke-width:0.5;" width="271" x="82" y="401.6406"/><ellipse cx="173.75" cy="417.6406" fill="#ADD1B2" rx="11" ry="11" style="stroke:#181818;stroke-width:1.0;"/><path d="M176.5156,413.5156 Q176.6719,413.2969 176.8594,413.1875 Q177.0469,413.0781 177.2656,413.0781 Q177.6406,413.0781 177.875,413.3438 Q178.1094,413.5938 178.1094,414.2031 L178.1094,415.6563 Q178.1094,416.2656 177.875,416.5313 Q177.6406,416.7969 177.2656,416.7969 Q176.9219,416.7969 176.7188,416.5938 Q176.5156,416.4063 176.4063,415.8906 Q176.3594,415.5313 176.1719,415.3438 Q175.8438,414.9688 175.2344,414.75 Q174.625,414.5313 174,414.5313 Q173.2344,414.5313 172.5938,414.8594 Q171.9688,415.1875 171.4688,415.9375 Q170.9844,416.6875 170.9844,417.7188 L170.9844,418.8125 Q170.9844,420.0469 171.875,420.875 Q172.7656,421.6875 174.3594,421.6875 Q175.2969,421.6875 175.9531,421.4375 Q176.3438,421.2813 176.7656,420.8438 Q177.0313,420.5781 177.1719,420.5 Q177.3281,420.4219 177.5313,420.4219 Q177.8594,420.4219 178.1094,420.6875 Q178.375,420.9375 178.375,421.2813 Q178.375,421.625 178.0313,422.0313 Q177.5313,422.6094 176.7344,422.9375 Q175.6563,423.3906 174.3594,423.3906 Q172.8438,423.3906 171.6406,422.7656 Q170.6563,422.2656 169.9688,421.2031 Q169.2813,420.125 169.2813,418.8438 L169.2813,417.6875 Q169.2813,416.3594 169.8906,415.2188 Q170.5156,414.0625 171.6094,413.4531 Q172.7031,412.8281 173.9375,412.8281 Q174.6719,412.8281 175.3125,413 Q175.9688,413.1563 176.5156,413.5156 Z " fill="#000000"/><text fill="#000000" font-family="sans-serif" font-size="14" lengthAdjust="spacing" textLength="79" x="194.25" y="422.4941">Repositories</text><line style="stroke:#181818;stroke-width:0.5;" x1="83" x2="352" y1="433.6406" y2="433.6406"/><text fill="#000000" font-family="sans-serif" font-size="14" lengthAdjust="spacing" textLength="84" x="88" y="450.3145">-Repositories</text><line style="stroke:#181818;stroke-width:0.5;" x1="83" x2="352" y1="457.2813" y2="457.2813"/><text fill="#000000" font-family="sans-serif" font-size="14" lengthAdjust="spacing" textLength="182" x="88" y="473.9551">+getInstance() : Repositories</text><text fill="#000000" font-family="sans-serif" font-size="14" lengthAdjust="spacing" textLength="259" x="88" y="489.5957">getOrdersRepository() : OrderRepository</text></g><!--class OrderRepository--><g id="elem_OrderRepository"><rect codeLine="24" fill="#F1F1F1" height="79.2813" id="OrderRepository" rx="2.5" ry="2.5" style="stroke:#181818;stroke-width:0.5;" width="172" x="265.5" y="572.6406"/><ellipse cx="296.25" cy="588.6406" fill="#ADD1B2" rx="11" ry="11" style="stroke:#181818;stroke-width:1.0;"/><path d="M299.0156,584.5156 Q299.1719,584.2969 299.3594,584.1875 Q299.5469,584.0781 299.7656,584.0781 Q300.1406,584.0781 300.375,584.3438 Q300.6094,584.5938 300.6094,585.2031 L300.6094,586.6563 Q300.6094,587.2656 300.375,587.5313 Q300.1406,587.7969 299.7656,587.7969 Q299.4219,587.7969 299.2188,587.5938 Q299.0156,587.4063 298.9063,586.8906 Q298.8594,586.5313 298.6719,586.3438 Q298.3438,585.9688 297.7344,585.75 Q297.125,585.5313 296.5,585.5313 Q295.7344,585.5313 295.0938,585.8594 Q294.4688,586.1875 293.9688,586.9375 Q293.4844,587.6875 293.4844,588.7188 L293.4844,589.8125 Q293.4844,591.0469 294.375,591.875 Q295.2656,592.6875 296.8594,592.6875 Q297.7969,592.6875 298.4531,592.4375 Q298.8438,592.2813 299.2656,591.8438 Q299.5313,591.5781 299.6719,591.5 Q299.8281,591.4219 300.0313,591.4219 Q300.3594,591.4219 300.6094,591.6875 Q300.875,591.9375 300.875,592.2813 Q300.875,592.625 300.5313,593.0313 Q300.0313,593.6094 299.2344,593.9375 Q298.1563,594.3906 296.8594,594.3906 Q295.3438,594.3906 294.1406,593.7656 Q293.1563,593.2656 292.4688,592.2031 Q291.7813,591.125 291.7813,589.8438 L291.7813,588.6875 Q291.7813,587.3594 292.3906,586.2188 Q293.0156,585.0625 294.1094,584.4531 Q295.2031,583.8281 296.4375,583.8281 Q297.1719,583.8281 297.8125,584 Q298.4688,584.1563 299.0156,584.5156 Z " fill="#000000"/><text fill="#000000" font-family="sans-serif" font-size="14" lengthAdjust="spacing" textLength="105" x="313.75" y="593.4941">OrderRepository</text><line style="stroke:#181818;stroke-width:0.5;" x1="266.5" x2="436.5" y1="604.6406" y2="604.6406"/><line style="stroke:#181818;stroke-width:0.5;" x1="266.5" x2="436.5" y1="612.6406" y2="612.6406"/><text fill="#000000" font-family="sans-serif" font-size="14" lengthAdjust="spacing" textLength="150" x="271.5" y="629.3145">+sortListByBubbleSort()</text><text fill="#000000" font-family="sans-serif" font-size="14" lengthAdjust="spacing" textLength="160" x="271.5" y="644.9551">+sortListByInsertionSort()</text></g><!--class Order--><g id="elem_Order"><rect codeLine="29" fill="#F1F1F1" height="266.9688" id="Order" rx="2.5" ry="2.5" style="stroke:#181818;stroke-width:0.5;" width="170" x="266.5" y="727.6406"/><ellipse cx="328.75" cy="743.6406" fill="#ADD1B2" rx="11" ry="11" style="stroke:#181818;stroke-width:1.0;"/><path d="M331.5156,739.5156 Q331.6719,739.2969 331.8594,739.1875 Q332.0469,739.0781 332.2656,739.0781 Q332.6406,739.0781 332.875,739.3438 Q333.1094,739.5938 333.1094,740.2031 L333.1094,741.6563 Q333.1094,742.2656 332.875,742.5313 Q332.6406,742.7969 332.2656,742.7969 Q331.9219,742.7969 331.7188,742.5938 Q331.5156,742.4063 331.4063,741.8906 Q331.3594,741.5313 331.1719,741.3438 Q330.8438,740.9688 330.2344,740.75 Q329.625,740.5313 329,740.5313 Q328.2344,740.5313 327.5938,740.8594 Q326.9688,741.1875 326.4688,741.9375 Q325.9844,742.6875 325.9844,743.7188 L325.9844,744.8125 Q325.9844,746.0469 326.875,746.875 Q327.7656,747.6875 329.3594,747.6875 Q330.2969,747.6875 330.9531,747.4375 Q331.3438,747.2813 331.7656,746.8438 Q332.0313,746.5781 332.1719,746.5 Q332.3281,746.4219 332.5313,746.4219 Q332.8594,746.4219 333.1094,746.6875 Q333.375,746.9375 333.375,747.2813 Q333.375,747.625 333.0313,748.0313 Q332.5313,748.6094 331.7344,748.9375 Q330.6563,749.3906 329.3594,749.3906 Q327.8438,749.3906 326.6406,748.7656 Q325.6563,748.2656 324.9688,747.2031 Q324.2813,746.125 324.2813,744.8438 L324.2813,743.6875 Q324.2813,742.3594 324.8906,741.2188 Q325.5156,740.0625 326.6094,739.4531 Q327.7031,738.8281 328.9375,738.8281 Q329.6719,738.8281 330.3125,739 Q330.9688,739.1563 331.5156,739.5156 Z " fill="#000000"/><text fill="#000000" font-family="sans-serif" font-size="14" lengthAdjust="spacing" textLength="37" x="349.25" y="748.4941">Order</text><line style="stroke:#181818;stroke-width:0.5;" x1="267.5" x2="435.5" y1="759.6406" y2="759.6406"/><text fill="#000000" font-family="sans-serif" font-size="14" lengthAdjust="spacing" textLength="90" x="272.5" y="776.3145">-int orderPrice</text><text fill="#000000" font-family="sans-serif" font-size="14" lengthAdjust="spacing" textLength="107" x="272.5" y="791.9551">-int orderNumber</text><text fill="#000000" font-family="sans-serif" font-size="14" lengthAdjust="spacing" textLength="112" x="272.5" y="807.5957">-boolean decision</text><text fill="#000000" font-family="sans-serif" font-size="14" lengthAdjust="spacing" textLength="101" x="272.5" y="823.2363">-LocalDate date</text><line style="stroke:#181818;stroke-width:0.5;" x1="267.5" x2="435.5" y1="830.2031" y2="830.2031"/><text fill="#000000" font-family="sans-serif" font-size="14" lengthAdjust="spacing" textLength="133" x="272.5" y="846.877">+getAnnouncement()</text><text fill="#000000" font-family="sans-serif" font-size="14" lengthAdjust="spacing" textLength="107" x="272.5" y="862.5176">+getOrderPrice()</text><text fill="#000000" font-family="sans-serif" font-size="14" lengthAdjust="spacing" textLength="132" x="272.5" y="878.1582">+setAnnouncement()</text><text fill="#000000" font-family="sans-serif" font-size="14" lengthAdjust="spacing" textLength="106" x="272.5" y="893.7988">+setOrderPrice()</text><text fill="#000000" font-family="sans-serif" font-size="14" lengthAdjust="spacing" textLength="68" x="272.5" y="909.4395">+getDate()</text><text fill="#000000" font-family="sans-serif" font-size="14" lengthAdjust="spacing" textLength="67" x="272.5" y="925.0801">+setDate()</text><text fill="#000000" font-family="sans-serif" font-size="14" lengthAdjust="spacing" textLength="158" x="272.5" y="940.7207">+makeDecision(decision)</text><text fill="#000000" font-family="sans-serif" font-size="14" lengthAdjust="spacing" textLength="110" x="272.5" y="956.3613">+getClientName()</text><text fill="#000000" font-family="sans-serif" font-size="14" lengthAdjust="spacing" textLength="74" x="272.5" y="972.002">+getClient()</text><text fill="#000000" font-family="sans-serif" font-size="14" lengthAdjust="spacing" textLength="124" x="272.5" y="987.6426">+getOrderNumber()</text></g><!--class Announcement--><g id="elem_Announcement"><rect codeLine="46" fill="#F1F1F1" height="188.7656" id="Announcement" rx="2.5" ry="2.5" style="stroke:#181818;stroke-width:0.5;" width="214" x="244.5" y="1070.6406"/><ellipse cx="299.75" cy="1086.6406" fill="#ADD1B2" rx="11" ry="11" style="stroke:#181818;stroke-width:1.0;"/><path d="M302.5156,1082.5156 Q302.6719,1082.2969 302.8594,1082.1875 Q303.0469,1082.0781 303.2656,1082.0781 Q303.6406,1082.0781 303.875,1082.3438 Q304.1094,1082.5938 304.1094,1083.2031 L304.1094,1084.6563 Q304.1094,1085.2656 303.875,1085.5313 Q303.6406,1085.7969 303.2656,1085.7969 Q302.9219,1085.7969 302.7188,1085.5938 Q302.5156,1085.4063 302.4063,1084.8906 Q302.3594,1084.5313 302.1719,1084.3438 Q301.8438,1083.9688 301.2344,1083.75 Q300.625,1083.5313 300,1083.5313 Q299.2344,1083.5313 298.5938,1083.8594 Q297.9688,1084.1875 297.4688,1084.9375 Q296.9844,1085.6875 296.9844,1086.7188 L296.9844,1087.8125 Q296.9844,1089.0469 297.875,1089.875 Q298.7656,1090.6875 300.3594,1090.6875 Q301.2969,1090.6875 301.9531,1090.4375 Q302.3438,1090.2813 302.7656,1089.8438 Q303.0313,1089.5781 303.1719,1089.5 Q303.3281,1089.4219 303.5313,1089.4219 Q303.8594,1089.4219 304.1094,1089.6875 Q304.375,1089.9375 304.375,1090.2813 Q304.375,1090.625 304.0313,1091.0313 Q303.5313,1091.6094 302.7344,1091.9375 Q301.6563,1092.3906 300.3594,1092.3906 Q298.8438,1092.3906 297.6406,1091.7656 Q296.6563,1091.2656 295.9688,1090.2031 Q295.2813,1089.125 295.2813,1087.8438 L295.2813,1086.6875 Q295.2813,1085.3594 295.8906,1084.2188 Q296.5156,1083.0625 297.6094,1082.4531 Q298.7031,1081.8281 299.9375,1081.8281 Q300.6719,1081.8281 301.3125,1082 Q301.9688,1082.1563 302.5156,1082.5156 Z " fill="#000000"/><text fill="#000000" font-family="sans-serif" font-size="14" lengthAdjust="spacing" textLength="95" x="320.25" y="1091.4941">Announcement</text><line style="stroke:#181818;stroke-width:0.5;" x1="245.5" x2="457.5" y1="1102.6406" y2="1102.6406"/><text fill="#000000" font-family="sans-serif" font-size="14" lengthAdjust="spacing" textLength="154" x="250.5" y="1119.3145">-LocalDate creationDate</text><text fill="#000000" font-family="sans-serif" font-size="14" lengthAdjust="spacing" textLength="131" x="250.5" y="1134.9551">-int announcementID</text><text fill="#000000" font-family="sans-serif" font-size="14" lengthAdjust="spacing" textLength="56" x="250.5" y="1150.5957">-int Price</text><line style="stroke:#181818;stroke-width:0.5;" x1="245.5" x2="457.5" y1="1157.5625" y2="1157.5625"/><text fill="#000000" font-family="sans-serif" font-size="14" lengthAdjust="spacing" textLength="70" x="250.5" y="1174.2363">+getPrice()</text><text fill="#000000" font-family="sans-serif" font-size="14" lengthAdjust="spacing" textLength="100" x="250.5" y="1189.877">+setPrice(price)</text><text fill="#000000" font-family="sans-serif" font-size="14" lengthAdjust="spacing" textLength="122" x="250.5" y="1205.5176">+getCreationDate()</text><text fill="#000000" font-family="sans-serif" font-size="14" lengthAdjust="spacing" textLength="202" x="250.5" y="1221.1582">+setCreationDate(creationDate)</text><text fill="#000000" font-family="sans-serif" font-size="14" lengthAdjust="spacing" textLength="146" x="250.5" y="1236.7988">+getAnnouncementID()</text><text fill="#000000" font-family="sans-serif" font-size="14" lengthAdjust="spacing" textLength="92" x="250.5" y="1252.4395">+getProperty()</text></g><!--class Property--><g id="elem_Property"><rect codeLine="58" fill="#F1F1F1" height="126.2031" id="Property" rx="2.5" ry="2.5" style="stroke:#181818;stroke-width:0.5;" width="689" x="7" y="1335.6406"/><ellipse cx="320.25" cy="1351.6406" fill="#ADD1B2" rx="11" ry="11" style="stroke:#181818;stroke-width:1.0;"/><path d="M323.0156,1347.5156 Q323.1719,1347.2969 323.3594,1347.1875 Q323.5469,1347.0781 323.7656,1347.0781 Q324.1406,1347.0781 324.375,1347.3438 Q324.6094,1347.5938 324.6094,1348.2031 L324.6094,1349.6563 Q324.6094,1350.2656 324.375,1350.5313 Q324.1406,1350.7969 323.7656,1350.7969 Q323.4219,1350.7969 323.2188,1350.5938 Q323.0156,1350.4063 322.9063,1349.8906 Q322.8594,1349.5313 322.6719,1349.3438 Q322.3438,1348.9688 321.7344,1348.75 Q321.125,1348.5313 320.5,1348.5313 Q319.7344,1348.5313 319.0938,1348.8594 Q318.4688,1349.1875 317.9688,1349.9375 Q317.4844,1350.6875 317.4844,1351.7188 L317.4844,1352.8125 Q317.4844,1354.0469 318.375,1354.875 Q319.2656,1355.6875 320.8594,1355.6875 Q321.7969,1355.6875 322.4531,1355.4375 Q322.8438,1355.2813 323.2656,1354.8438 Q323.5313,1354.5781 323.6719,1354.5 Q323.8281,1354.4219 324.0313,1354.4219 Q324.3594,1354.4219 324.6094,1354.6875 Q324.875,1354.9375 324.875,1355.2813 Q324.875,1355.625 324.5313,1356.0313 Q324.0313,1356.6094 323.2344,1356.9375 Q322.1563,1357.3906 320.8594,1357.3906 Q319.3438,1357.3906 318.1406,1356.7656 Q317.1563,1356.2656 316.4688,1355.2031 Q315.7813,1354.125 315.7813,1352.8438 L315.7813,1351.6875 Q315.7813,1350.3594 316.3906,1349.2188 Q317.0156,1348.0625 318.1094,1347.4531 Q319.2031,1346.8281 320.4375,1346.8281 Q321.1719,1346.8281 321.8125,1347 Q322.4688,1347.1563 323.0156,1347.5156 Z " fill="#000000"/><text fill="#000000" font-family="sans-serif" font-size="14" lengthAdjust="spacing" textLength="54" x="340.75" y="1356.4941">Property</text><line style="stroke:#181818;stroke-width:0.5;" x1="8" x2="695" y1="1367.6406" y2="1367.6406"/><text fill="#000000" font-family="sans-serif" font-size="14" lengthAdjust="spacing" textLength="81" x="13" y="1384.3145">-double area</text><text fill="#000000" font-family="sans-serif" font-size="14" lengthAdjust="spacing" textLength="205" x="13" y="1399.9551">-double distanceFromCityCenter</text><text fill="#000000" font-family="sans-serif" font-size="14" lengthAdjust="spacing" textLength="83" x="13" y="1415.5957">-double price</text><line style="stroke:#181818;stroke-width:0.5;" x1="8" x2="695" y1="1422.5625" y2="1422.5625"/><text fill="#000000" font-family="sans-serif" font-size="14" lengthAdjust="spacing" textLength="677" x="13" y="1439.2363">+createRequest(agentName, propertyType, area, location, distanceFromCityCenter, price, photographList )</text><text fill="#000000" font-family="sans-serif" font-size="14" lengthAdjust="spacing" textLength="68" x="13" y="1454.877">+getArea()</text></g><!--link ListDealsUI to ListDealsController--><g id="link_ListDealsUI_ListDealsController"><path codeLine="66" d="M351.5,91.7806 C351.5,121.7006 351.5,174.1406 351.5,209.3806 " fill="none" id="ListDealsUI-to-ListDealsController" style="stroke:#181818;stroke-width:1.0;stroke-dasharray:7.0,7.0;"/><polygon fill="#181818" points="351.5,214.4406,355.5,205.4406,351.5,209.4406,347.5,205.4406,351.5,214.4406" style="stroke:#181818;stroke-width:1.0;"/></g><!--link ListDealsController to Repositories--><g id="link_ListDealsController_Repositories"><path codeLine="68" d="M330.56,278.9706 C309.48,310.5106 276.62,359.6906 251.74,396.9106 " fill="none" id="ListDealsController-to-Repositories" style="stroke:#181818;stroke-width:1.0;stroke-dasharray:7.0,7.0;"/><polygon fill="#181818" points="248.75,401.3806,257.0705,396.111,251.5235,397.2204,250.4141,391.6734,248.75,401.3806" style="stroke:#181818;stroke-width:1.0;"/></g><!--link Repositories to Repositories--><g id="link_Repositories_Repositories"><path codeLine="70" d="M353.26,435.8006 C373.95,437.8406 388,442.2806 388,449.1406 C388,455.4106 376.26,459.6606 358.44,461.9006 " fill="none" id="Repositories-to-Repositories" style="stroke:#181818;stroke-width:1.0;"/><polygon fill="#181818" points="353.26,462.4806,362.6495,465.4534,358.2289,461.9238,361.7585,457.5032,353.26,462.4806" style="stroke:#181818;stroke-width:1.0;"/><text fill="#000000" font-family="sans-serif" font-size="13" lengthAdjust="spacing" textLength="49" x="394" y="453.9092">instance</text></g><!--link Repositories to OrderRepository--><g id="link_Repositories_OrderRepository"><path codeLine="72" d="M256.26,496.7106 C275.1,519.3506 297.6,546.3806 316,568.4806 " fill="none" id="Repositories-to-OrderRepository" style="stroke:#181818;stroke-width:1.0;"/><polygon fill="#181818" points="319.38,572.5506,316.6947,563.0749,316.1805,568.7083,310.547,568.1941,319.38,572.5506" style="stroke:#181818;stroke-width:1.0;"/><text fill="#000000" font-family="sans-serif" font-size="13" lengthAdjust="spacing" textLength="93" x="294.5" y="539.4092">dealsRepository</text><text fill="#000000" font-family="sans-serif" font-size="13" lengthAdjust="spacing" textLength="7" x="305.8126" y="561.7515">1</text></g><!--link ListDealsController to OrderRepository--><g id="link_ListDealsController_OrderRepository"><path codeLine="74" d="M371.33,278.8006 C399.97,323.8006 449.5,401.6406 449.5,401.6406 C449.5,401.6406 449.5,496.6406 449.5,496.6406 C449.5,496.6406 415.9,535.9006 388.04,568.4406 " fill="none" id="ListDealsController-to-OrderRepository" style="stroke:#181818;stroke-width:1.0;stroke-dasharray:7.0,7.0;"/><polygon fill="#181818" points="384.68,572.3806,393.5649,568.1312,387.9257,568.5773,387.4796,562.938,384.68,572.3806" style="stroke:#181818;stroke-width:1.0;"/></g><!--link OrderRepository to Order--><g id="link_OrderRepository_Order"><path codeLine="76" d="M351.5,651.7306 C351.5,671.3206 351.5,696.4406 351.5,722.4006 " fill="none" id="OrderRepository-to-Order" style="stroke:#181818;stroke-width:1.0;"/><polygon fill="#181818" points="351.5,727.6006,355.5,718.6006,351.5,722.6006,347.5,718.6006,351.5,727.6006" style="stroke:#181818;stroke-width:1.0;"/><text fill="#000000" font-family="sans-serif" font-size="13" lengthAdjust="spacing" textLength="36" x="352.5" y="694.4092">orders</text><text fill="#000000" font-family="sans-serif" font-size="13" lengthAdjust="spacing" textLength="20" x="330.8906" y="716.8219">1..*</text></g><!--link Order to Announcement--><g id="link_Order_Announcement"><path codeLine="78" d="M351.5,995.0406 C351.5,1018.7306 351.5,1043.0206 351.5,1065.5306 " fill="none" id="Order-to-Announcement" style="stroke:#181818;stroke-width:1.0;"/><polygon fill="#181818" points="351.5,1070.6106,355.5,1061.6106,351.5,1065.6106,347.5,1061.6106,351.5,1070.6106" style="stroke:#181818;stroke-width:1.0;"/><text fill="#000000" font-family="sans-serif" font-size="13" lengthAdjust="spacing" textLength="85" x="352.5" y="1037.4092">announcement</text><text fill="#000000" font-family="sans-serif" font-size="13" lengthAdjust="spacing" textLength="7" x="344.2102" y="1060.0026">1</text></g><!--link Announcement to Property--><g id="link_Announcement_Property"><path codeLine="80" d="M351.5,1259.9706 C351.5,1283.5206 351.5,1308.3306 351.5,1330.3106 " fill="none" id="Announcement-to-Property" style="stroke:#181818;stroke-width:1.0;"/><polygon fill="#181818" points="351.5,1335.5306,355.5,1326.5306,351.5,1330.5306,347.5,1326.5306,351.5,1335.5306" style="stroke:#181818;stroke-width:1.0;"/><text fill="#000000" font-family="sans-serif" font-size="13" lengthAdjust="spacing" textLength="47" x="352.5" y="1302.4092">property</text><text fill="#000000" font-family="sans-serif" font-size="13" lengthAdjust="spacing" textLength="7" x="344.0734" y="1324.774">1</text></g><!--SRC=[TLF1Rjim3BthAuHUvYnnq9u6x50WTJ0WGD4DJVC1YiqbGcJ9asGCNh1_7oNPCUskEJWc-VZuI9gVt4NgHbXHyzfeKvwjgO5xsm8R8uqeB-84Uzyfu1PAB_H9KO0xYyhyblh4VmhbQ4H93RvhW3T6TS5W95WguTp6UokFhOTTQVHU_W5-pnXxanvh7VRt3rzupei0v5ifJY4jEnGBnc8oVvRERm6B7dPNzlUTjp3QMwCKs2jRdY0viyM8V8N6EEcDbU2kBATcJDXfXzsMa2turmcOOV2xhS2wcxUBeEWSVMEfMG05EMDzaFhKFRN7eu8zsYYE-B4yM2znC2aq9KF1KdjkmliFAqiWzajR7y6o_6YC0g5v1QLqICJoPrCAjHKUU8MFsEL6QzDYbpNeA63eBP96HUynReu9uqN2FZQyrk82sxvsDeX8w499v7eHzP2U75H0we8sJcLS6STVpiUEIWiYZ2iOVJ1CH92atPO4qjI2lUHOS-WbETpWQC9pCS8AKeMY9tugXUHk9bAo1Irk6bnsHxiTVBZfohJuYN21j3UZakdh_8PNMqZV5KWQbjw7eswsZ4hW5Nwru7o6Xvo6li9uOd_30rr5vXLNECiWU_K1-Ignuj_PU8Fts9p3fyhJqZR8aVIJm-JvEd_ytqqIrEXCwCcfCMhnMHHFJlP7EWSYykxXRdvuc525akH6FzOnlsOs9qj5rklFVHraZ_VdUkXD1LqyWkWdoTWaE6GCoqVqi2ds3m00]--></g></svg>