<?xml version="1.0" encoding="us-ascii" standalone="no"?><svg xmlns="http://www.w3.org/2000/svg" xmlns:xlink="http://www.w3.org/1999/xlink" contentStyleType="text/css" height="902px" preserveAspectRatio="none" style="width:1173px;height:902px;background:#FFFFFF;" version="1.1" viewBox="0 0 1173 902" width="1173px" zoomAndPan="magnify"><defs/><g><text fill="#000000" font-family="sans-serif" font-size="14" font-weight="bold" lengthAdjust="spacing" textLength="230" x="472.5" y="27.6738">US017 - Sequence Diagram (SSD)</text><rect fill="#FFFFFF" height="676.9688" style="stroke:#181818;stroke-width:1.0;" width="10" x="56" y="127.2813"/><rect fill="#FFFFFF" height="254.8281" style="stroke:#181818;stroke-width:1.0;" width="10" x="433" y="147.8047"/><rect fill="#FFFFFF" height="28.5234" style="stroke:#181818;stroke-width:1.0;" width="10" x="433" y="431.1563"/><rect fill="#FFFFFF" height="316.0469" style="stroke:#181818;stroke-width:1.0;" width="10" x="433" y="488.2031"/><rect fill="#FFFFFF" height="142.6172" style="stroke:#181818;stroke-width:1.0;" width="10" x="742" y="216.9688"/><rect fill="#FFFFFF" height="85.5703" style="stroke:#181818;stroke-width:1.0;" width="10" x="742" y="540.25"/><rect fill="#FFFFFF" height="85.5703" style="stroke:#181818;stroke-width:1.0;" width="10" x="742" y="668.6328"/><rect fill="#FFFFFF" height="28.5234" style="stroke:#181818;stroke-width:1.0;" width="10" x="869.5" y="245.4922"/><rect fill="#FFFFFF" height="28.5234" style="stroke:#181818;stroke-width:1.0;" width="10" x="976" y="302.5391"/><rect fill="#FFFFFF" height="28.5234" style="stroke:#181818;stroke-width:1.0;" width="10" x="1092.5" y="568.7734"/><rect fill="#FFFFFF" height="28.5234" style="stroke:#181818;stroke-width:1.0;" width="10" x="1092.5" y="697.1563"/><rect fill="none" height="259" style="stroke:#000000;stroke-width:1.5;" width="782" x="384" y="503.2031"/><line style="stroke:#181818;stroke-width:0.5;stroke-dasharray:5.0,5.0;" x1="61" x2="61" y1="117.2813" y2="822.25"/><line style="stroke:#181818;stroke-width:0.5;stroke-dasharray:5.0,5.0;" x1="438" x2="438" y1="117.2813" y2="822.25"/><line style="stroke:#181818;stroke-width:0.5;stroke-dasharray:5.0,5.0;" x1="747" x2="747" y1="186.125" y2="822.25"/><line style="stroke:#181818;stroke-width:0.5;stroke-dasharray:5.0,5.0;" x1="874" x2="874" y1="117.2813" y2="822.25"/><line style="stroke:#181818;stroke-width:0.5;stroke-dasharray:5.0,5.0;" x1="981" x2="981" y1="117.2813" y2="822.25"/><line style="stroke:#181818;stroke-width:0.5;stroke-dasharray:5.0,5.0;" x1="1097" x2="1097" y1="117.2813" y2="822.25"/><text fill="#000000" font-family="sans-serif" font-size="14" lengthAdjust="spacing" textLength="106" x="5" y="114.3145">NetworkManager</text><ellipse cx="61" cy="50.1406" fill="#E2E2F0" rx="8" ry="8" style="stroke:#181818;stroke-width:0.5;"/><path d="M61,58.1406 L61,85.1406 M48,66.1406 L74,66.1406 M61,85.1406 L48,100.1406 M61,85.1406 L74,100.1406 " fill="none" style="stroke:#181818;stroke-width:0.5;"/><text fill="#000000" font-family="sans-serif" font-size="14" lengthAdjust="spacing" textLength="106" x="5" y="833.9238">NetworkManager</text><ellipse cx="61" cy="845.3906" fill="#E2E2F0" rx="8" ry="8" style="stroke:#181818;stroke-width:0.5;"/><path d="M61,853.3906 L61,880.3906 M48,861.3906 L74,861.3906 M61,880.3906 L48,895.3906 M61,880.3906 L74,895.3906 " fill="none" style="stroke:#181818;stroke-width:0.5;"/><rect fill="#E2E2F0" height="29.6406" rx="2.5" ry="2.5" style="stroke:#181818;stroke-width:0.5;" width="88" x="394" y="86.6406"/><text fill="#000000" font-family="sans-serif" font-size="14" lengthAdjust="spacing" textLength="74" x="401" y="106.3145">:ListDealsUI</text><rect fill="#E2E2F0" height="29.6406" rx="2.5" ry="2.5" style="stroke:#181818;stroke-width:0.5;" width="88" x="394" y="821.25"/><text fill="#000000" font-family="sans-serif" font-size="14" lengthAdjust="spacing" textLength="74" x="401" y="840.9238">:ListDealsUI</text><rect fill="#E2E2F0" height="29.6406" rx="2.5" ry="2.5" style="stroke:#181818;stroke-width:0.5;" width="138" x="678" y="821.25"/><text fill="#000000" font-family="sans-serif" font-size="14" lengthAdjust="spacing" textLength="124" x="685" y="840.9238">:ListDealsController</text><rect fill="#E2E2F0" height="29.6406" rx="2.5" ry="2.5" style="stroke:#181818;stroke-width:0.5;" width="97" x="826" y="86.6406"/><text fill="#000000" font-family="sans-serif" font-size="14" lengthAdjust="spacing" textLength="83" x="833" y="106.3145">:Repositories</text><rect fill="#E2E2F0" height="29.6406" rx="2.5" ry="2.5" style="stroke:#181818;stroke-width:0.5;" width="97" x="826" y="821.25"/><text fill="#000000" font-family="sans-serif" font-size="14" lengthAdjust="spacing" textLength="83" x="833" y="840.9238">:Repositories</text><rect fill="#E2E2F0" height="45.2813" rx="2.5" ry="2.5" style="stroke:#181818;stroke-width:0.5;" width="96" x="933" y="71"/><text fill="#000000" font-family="sans-serif" font-size="14" lengthAdjust="spacing" textLength="82" x="940" y="90.6738">repositories :</text><text fill="#000000" font-family="sans-serif" font-size="14" lengthAdjust="spacing" textLength="79" x="941.5" y="106.3145">Repositories</text><rect fill="#E2E2F0" height="45.2813" rx="2.5" ry="2.5" style="stroke:#181818;stroke-width:0.5;" width="96" x="933" y="821.25"/><text fill="#000000" font-family="sans-serif" font-size="14" lengthAdjust="spacing" textLength="82" x="940" y="840.9238">repositories :</text><text fill="#000000" font-family="sans-serif" font-size="14" lengthAdjust="spacing" textLength="79" x="941.5" y="856.5645">Repositories</text><rect fill="#E2E2F0" height="45.2813" rx="2.5" ry="2.5" style="stroke:#181818;stroke-width:0.5;" width="117" x="1039" y="71"/><text fill="#000000" font-family="sans-serif" font-size="14" lengthAdjust="spacing" textLength="103" x="1046" y="90.6738">dealRepository :</text><text fill="#000000" font-family="sans-serif" font-size="14" lengthAdjust="spacing" textLength="97" x="1049" y="106.3145">DealRepository</text><rect fill="#E2E2F0" height="45.2813" rx="2.5" ry="2.5" style="stroke:#181818;stroke-width:0.5;" width="117" x="1039" y="821.25"/><text fill="#000000" font-family="sans-serif" font-size="14" lengthAdjust="spacing" textLength="103" x="1046" y="840.9238">dealRepository :</text><text fill="#000000" font-family="sans-serif" font-size="14" lengthAdjust="spacing" textLength="97" x="1049" y="856.5645">DealRepository</text><rect fill="#FFFFFF" height="676.9688" style="stroke:#181818;stroke-width:1.0;" width="10" x="56" y="127.2813"/><rect fill="#FFFFFF" height="254.8281" style="stroke:#181818;stroke-width:1.0;" width="10" x="433" y="147.8047"/><rect fill="#FFFFFF" height="28.5234" style="stroke:#181818;stroke-width:1.0;" width="10" x="433" y="431.1563"/><rect fill="#FFFFFF" height="316.0469" style="stroke:#181818;stroke-width:1.0;" width="10" x="433" y="488.2031"/><rect fill="#FFFFFF" height="142.6172" style="stroke:#181818;stroke-width:1.0;" width="10" x="742" y="216.9688"/><rect fill="#FFFFFF" height="85.5703" style="stroke:#181818;stroke-width:1.0;" width="10" x="742" y="540.25"/><rect fill="#FFFFFF" height="85.5703" style="stroke:#181818;stroke-width:1.0;" width="10" x="742" y="668.6328"/><rect fill="#FFFFFF" height="28.5234" style="stroke:#181818;stroke-width:1.0;" width="10" x="869.5" y="245.4922"/><rect fill="#FFFFFF" height="28.5234" style="stroke:#181818;stroke-width:1.0;" width="10" x="976" y="302.5391"/><rect fill="#FFFFFF" height="28.5234" style="stroke:#181818;stroke-width:1.0;" width="10" x="1092.5" y="568.7734"/><rect fill="#FFFFFF" height="28.5234" style="stroke:#181818;stroke-width:1.0;" width="10" x="1092.5" y="697.1563"/><polygon fill="#181818" points="421,143.8047,431,147.8047,421,151.8047,425,147.8047" style="stroke:#181818;stroke-width:1.0;"/><line style="stroke:#181818;stroke-width:1.0;" x1="66" x2="427" y1="147.8047" y2="147.8047"/><text fill="#000000" font-family="sans-serif" font-size="13" font-weight="bold" lengthAdjust="spacing" textLength="7" x="73" y="143.0498">1</text><text fill="#000000" font-family="sans-serif" font-size="13" lengthAdjust="spacing" textLength="188" x="84" y="143.0498">asks to list of all the deals made</text><polygon fill="#181818" points="666,172.3281,676,176.3281,666,180.3281,670,176.3281" style="stroke:#181818;stroke-width:1.0;"/><line style="stroke:#181818;stroke-width:1.0;stroke-dasharray:2.0,2.0;" x1="443" x2="672" y1="176.3281" y2="176.3281"/><text fill="#000000" font-family="sans-serif" font-size="13" font-weight="bold" lengthAdjust="spacing" textLength="7" x="450" y="171.5732">2</text><text fill="#000000" font-family="sans-serif" font-size="13" lengthAdjust="spacing" textLength="36" x="461" y="171.5732">create</text><rect fill="#E2E2F0" height="29.6406" rx="2.5" ry="2.5" style="stroke:#181818;stroke-width:0.5;" width="138" x="678" y="155.8047"/><text fill="#000000" font-family="sans-serif" font-size="14" lengthAdjust="spacing" textLength="124" x="685" y="175.4785">:ListDealsController</text><polygon fill="#181818" points="730,212.9688,740,216.9688,730,220.9688,734,216.9688" style="stroke:#181818;stroke-width:1.0;"/><line style="stroke:#181818;stroke-width:1.0;" x1="443" x2="736" y1="216.9688" y2="216.9688"/><text fill="#000000" font-family="sans-serif" font-size="13" font-weight="bold" lengthAdjust="spacing" textLength="7" x="450" y="212.2139">3</text><text fill="#000000" font-family="sans-serif" font-size="13" lengthAdjust="spacing" textLength="59" x="461" y="212.2139">getDeals()</text><polygon fill="#181818" points="857.5,241.4922,867.5,245.4922,857.5,249.4922,861.5,245.4922" style="stroke:#181818;stroke-width:1.0;"/><line style="stroke:#181818;stroke-width:1.0;" x1="752" x2="863.5" y1="245.4922" y2="245.4922"/><text fill="#000000" font-family="sans-serif" font-size="13" font-weight="bold" lengthAdjust="spacing" textLength="7" x="759" y="240.7373">4</text><text fill="#000000" font-family="sans-serif" font-size="13" lengthAdjust="spacing" textLength="75" x="770" y="240.7373">getInstance()</text><polygon fill="#181818" points="763,270.0156,753,274.0156,763,278.0156,759,274.0156" style="stroke:#181818;stroke-width:1.0;"/><line style="stroke:#181818;stroke-width:1.0;stroke-dasharray:2.0,2.0;" x1="757" x2="873.5" y1="274.0156" y2="274.0156"/><text fill="#000000" font-family="sans-serif" font-size="13" font-weight="bold" lengthAdjust="spacing" textLength="7" x="769" y="269.2607">5</text><text fill="#000000" font-family="sans-serif" font-size="13" lengthAdjust="spacing" textLength="67" x="780" y="269.2607">repositories</text><polygon fill="#181818" points="964,298.5391,974,302.5391,964,306.5391,968,302.5391" style="stroke:#181818;stroke-width:1.0;"/><line style="stroke:#181818;stroke-width:1.0;" x1="752" x2="970" y1="302.5391" y2="302.5391"/><text fill="#000000" font-family="sans-serif" font-size="13" font-weight="bold" lengthAdjust="spacing" textLength="7" x="759" y="297.7842">6</text><text fill="#000000" font-family="sans-serif" font-size="13" lengthAdjust="spacing" textLength="121" x="770" y="297.7842">getDealsRepository()</text><polygon fill="#181818" points="763,327.0625,753,331.0625,763,335.0625,759,331.0625" style="stroke:#181818;stroke-width:1.0;"/><line style="stroke:#181818;stroke-width:1.0;stroke-dasharray:2.0,2.0;" x1="757" x2="980" y1="331.0625" y2="331.0625"/><text fill="#000000" font-family="sans-serif" font-size="13" font-weight="bold" lengthAdjust="spacing" textLength="7" x="769" y="326.3076">7</text><text fill="#000000" font-family="sans-serif" font-size="13" lengthAdjust="spacing" textLength="93" x="780" y="326.3076">dealsRepository</text><polygon fill="#181818" points="454,355.5859,444,359.5859,454,363.5859,450,359.5859" style="stroke:#181818;stroke-width:1.0;"/><line style="stroke:#181818;stroke-width:1.0;stroke-dasharray:2.0,2.0;" x1="448" x2="746" y1="359.5859" y2="359.5859"/><text fill="#000000" font-family="sans-serif" font-size="13" font-weight="bold" lengthAdjust="spacing" textLength="7" x="460" y="354.8311">8</text><text fill="#000000" font-family="sans-serif" font-size="13" lengthAdjust="spacing" textLength="31" x="471" y="354.8311">deals</text><polygon fill="#181818" points="77,398.6328,67,402.6328,77,406.6328,73,402.6328" style="stroke:#181818;stroke-width:1.0;"/><line style="stroke:#181818;stroke-width:1.0;stroke-dasharray:2.0,2.0;" x1="71" x2="437" y1="402.6328" y2="402.6328"/><text fill="#000000" font-family="sans-serif" font-size="13" font-weight="bold" lengthAdjust="spacing" textLength="7" x="83" y="390.6162">9</text><text fill="#000000" font-family="sans-serif" font-size="13" lengthAdjust="spacing" textLength="229" x="94" y="383.3545">shows the two different sorting methods</text><text fill="#000000" font-family="sans-serif" font-size="13" lengthAdjust="spacing" textLength="312" x="94" y="397.8779">(Bubble Sort or Insertion Sort) and asks to select  one</text><polygon fill="#181818" points="421,427.1563,431,431.1563,421,435.1563,425,431.1563" style="stroke:#181818;stroke-width:1.0;"/><line style="stroke:#181818;stroke-width:1.0;" x1="66" x2="427" y1="431.1563" y2="431.1563"/><text fill="#000000" font-family="sans-serif" font-size="13" font-weight="bold" lengthAdjust="spacing" textLength="14" x="73" y="426.4014">10</text><text fill="#000000" font-family="sans-serif" font-size="13" lengthAdjust="spacing" textLength="330" x="91" y="426.4014">selects the sorting method (Bubble Sort or Insertion Sort)</text><polygon fill="#181818" points="77,455.6797,67,459.6797,77,463.6797,73,459.6797" style="stroke:#181818;stroke-width:1.0;"/><line style="stroke:#181818;stroke-width:1.0;stroke-dasharray:2.0,2.0;" x1="71" x2="437" y1="459.6797" y2="459.6797"/><text fill="#000000" font-family="sans-serif" font-size="13" font-weight="bold" lengthAdjust="spacing" textLength="14" x="83" y="454.9248">11</text><text fill="#000000" font-family="sans-serif" font-size="13" lengthAdjust="spacing" textLength="314" x="101" y="454.9248">asks for the order of sorting (ascending or descending)</text><polygon fill="#181818" points="421,484.2031,431,488.2031,421,492.2031,425,488.2031" style="stroke:#181818;stroke-width:1.0;"/><line style="stroke:#181818;stroke-width:1.0;" x1="66" x2="427" y1="488.2031" y2="488.2031"/><text fill="#000000" font-family="sans-serif" font-size="13" font-weight="bold" lengthAdjust="spacing" textLength="14" x="73" y="483.4482">12</text><text fill="#000000" font-family="sans-serif" font-size="13" lengthAdjust="spacing" textLength="310" x="91" y="483.4482">selects the order of sorting (ascending or descending)</text><path d="M384,503.2031 L445,503.2031 L445,509.7266 L435,519.7266 L384,519.7266 L384,503.2031 " fill="#EEEEEE" style="stroke:#000000;stroke-width:1.5;"/><rect fill="none" height="259" style="stroke:#000000;stroke-width:1.5;" width="782" x="384" y="503.2031"/><text fill="#000000" font-family="sans-serif" font-size="13" font-weight="bold" lengthAdjust="spacing" textLength="16" x="399" y="515.9717">alt</text><text fill="#000000" font-family="sans-serif" font-size="11" font-weight="bold" lengthAdjust="spacing" textLength="182" x="460" y="515.1611">[Bubble Sort method is selected]</text><polygon fill="#181818" points="730,536.25,740,540.25,730,544.25,734,540.25" style="stroke:#181818;stroke-width:1.0;"/><line style="stroke:#181818;stroke-width:1.0;stroke-dasharray:2.0,2.0;" x1="443" x2="736" y1="540.25" y2="540.25"/><text fill="#000000" font-family="sans-serif" font-size="13" font-weight="bold" lengthAdjust="spacing" textLength="14" x="450" y="535.4951">13</text><text fill="#000000" font-family="sans-serif" font-size="13" lengthAdjust="spacing" textLength="253" x="468" y="535.4951">sortListByBubbleSort(deals, orderOfSorting)</text><polygon fill="#181818" points="1080.5,564.7734,1090.5,568.7734,1080.5,572.7734,1084.5,568.7734" style="stroke:#181818;stroke-width:1.0;"/><line style="stroke:#181818;stroke-width:1.0;" x1="752" x2="1086.5" y1="568.7734" y2="568.7734"/><text fill="#000000" font-family="sans-serif" font-size="13" font-weight="bold" lengthAdjust="spacing" textLength="14" x="759" y="564.0186">14</text><text fill="#000000" font-family="sans-serif" font-size="13" lengthAdjust="spacing" textLength="253" x="777" y="564.0186">sortListByBubbleSort(deals, orderOfSorting)</text><polygon fill="#181818" points="763,593.2969,753,597.2969,763,601.2969,759,597.2969" style="stroke:#181818;stroke-width:1.0;"/><line style="stroke:#181818;stroke-width:1.0;stroke-dasharray:2.0,2.0;" x1="757" x2="1096.5" y1="597.2969" y2="597.2969"/><text fill="#000000" font-family="sans-serif" font-size="13" font-weight="bold" lengthAdjust="spacing" textLength="14" x="769" y="592.542">15</text><text fill="#000000" font-family="sans-serif" font-size="13" lengthAdjust="spacing" textLength="57" x="787" y="592.542">sortedList</text><polygon fill="#181818" points="454,621.8203,444,625.8203,454,629.8203,450,625.8203" style="stroke:#181818;stroke-width:1.0;"/><line style="stroke:#181818;stroke-width:1.0;stroke-dasharray:2.0,2.0;" x1="448" x2="746" y1="625.8203" y2="625.8203"/><text fill="#000000" font-family="sans-serif" font-size="13" font-weight="bold" lengthAdjust="spacing" textLength="14" x="460" y="621.0654">16</text><text fill="#000000" font-family="sans-serif" font-size="13" lengthAdjust="spacing" textLength="57" x="478" y="621.0654">sortedList</text><line style="stroke:#000000;stroke-width:1.0;stroke-dasharray:2.0,2.0;" x1="384" x2="1166" y1="634.8203" y2="634.8203"/><text fill="#000000" font-family="sans-serif" font-size="11" font-weight="bold" lengthAdjust="spacing" textLength="194" x="389" y="644.7783">[Insertion Sort method is selected]</text><polygon fill="#181818" points="730,664.6328,740,668.6328,730,672.6328,734,668.6328" style="stroke:#181818;stroke-width:1.0;"/><line style="stroke:#181818;stroke-width:1.0;stroke-dasharray:2.0,2.0;" x1="443" x2="736" y1="668.6328" y2="668.6328"/><text fill="#000000" font-family="sans-serif" font-size="13" font-weight="bold" lengthAdjust="spacing" textLength="14" x="450" y="663.8779">17</text><text fill="#000000" font-family="sans-serif" font-size="13" lengthAdjust="spacing" textLength="262" x="468" y="663.8779">sortListByInsertionSort(deals, orderOfSorting)</text><polygon fill="#181818" points="1080.5,693.1563,1090.5,697.1563,1080.5,701.1563,1084.5,697.1563" style="stroke:#181818;stroke-width:1.0;"/><line style="stroke:#181818;stroke-width:1.0;" x1="752" x2="1086.5" y1="697.1563" y2="697.1563"/><text fill="#000000" font-family="sans-serif" font-size="13" font-weight="bold" lengthAdjust="spacing" textLength="14" x="759" y="692.4014">18</text><text fill="#000000" font-family="sans-serif" font-size="13" lengthAdjust="spacing" textLength="262" x="777" y="692.4014">sortListByInsertionSort(deals, orderOfSorting)</text><polygon fill="#181818" points="763,721.6797,753,725.6797,763,729.6797,759,725.6797" style="stroke:#181818;stroke-width:1.0;"/><line style="stroke:#181818;stroke-width:1.0;stroke-dasharray:2.0,2.0;" x1="757" x2="1096.5" y1="725.6797" y2="725.6797"/><text fill="#000000" font-family="sans-serif" font-size="13" font-weight="bold" lengthAdjust="spacing" textLength="14" x="769" y="720.9248">19</text><text fill="#000000" font-family="sans-serif" font-size="13" lengthAdjust="spacing" textLength="57" x="787" y="720.9248">sortedList</text><polygon fill="#181818" points="454,750.2031,444,754.2031,454,758.2031,450,754.2031" style="stroke:#181818;stroke-width:1.0;"/><line style="stroke:#181818;stroke-width:1.0;stroke-dasharray:2.0,2.0;" x1="448" x2="746" y1="754.2031" y2="754.2031"/><text fill="#000000" font-family="sans-serif" font-size="13" font-weight="bold" lengthAdjust="spacing" textLength="14" x="460" y="749.4482">20</text><text fill="#000000" font-family="sans-serif" font-size="13" lengthAdjust="spacing" textLength="57" x="478" y="749.4482">sortedList</text><polygon fill="#181818" points="72,800.25,62,804.25,72,808.25,68,804.25" style="stroke:#181818;stroke-width:1.0;"/><line style="stroke:#181818;stroke-width:1.0;stroke-dasharray:2.0,2.0;" x1="66" x2="437" y1="804.25" y2="804.25"/><text fill="#000000" font-family="sans-serif" font-size="13" font-weight="bold" lengthAdjust="spacing" textLength="14" x="78" y="792.2334">21</text><text fill="#000000" font-family="sans-serif" font-size="13" lengthAdjust="spacing" textLength="244" x="96" y="784.9717">shows the list of all the deals made sorted</text><text fill="#000000" font-family="sans-serif" font-size="13" lengthAdjust="spacing" textLength="237" x="96" y="799.4951">by the selected sorting method and order</text><!--SRC=[fLLDR-8m4BtdLumu9TKYRKyhSLXfs-m1gR0LMMwzc7Y0gC6cjjcAVxzZcn0dJg6ed8ZptfkFDvwmWv7Yi5kXIX9JcHfXMNo__m5ZAF3jWA94o2ksKMm7QL7aMPAmqaW5epcQTwbUPqom3QeHC0tpMR9dobHbjMV2m6ZoL6cJ8wlrSke0o-b7W4SfZ99rVL9g7vCUOu5xgIlAe4BjeCzFl_vsCIg0mEH5H9J5x-SkWrCAPzJHSlBEYMFb2rTxzOyPjAKcGB_v3CO_gIwO4EHLWv5GKqqWry3g6imMmOfhs36EddBMe6wu0sAFIQIj-UwEv4g516eH8O1URz0tBirwgc7hx8k0HHgsMvuz5TemiZSIS0rrHmuyxaSEs-jnL65CxiQbbWT9jvsDebjlt8bbHB5vbns5FxF3w8r1ZXnH-lqA725p9w2tybqx8sdUWLVhDIgaeT6I1aXiO8TcAxc65v4-75Ohka05lG6w8jHX98mKxYG39lXvI3JMM1e0AJ3Ag9cBOBOytAVH3GnNebwUELUXosbDLAik5QUUqVWsOLAcInJS_YK8n-OfkpNl6vIT2Qms4DPsghVI9rNahM5H3eFtoYP4IdRfF1ozj5LEtM1yymd-MHS-lMn0VMXMkdEUBxuSnEwPvf3a1aj0RlLRNE12I1-w1LVeKObOQ-mDrKKhFj7wizgd6dFTWki-V2LYsD2RJBdap4tsNF38MoHuVAlRlVNn1-aKZNRNwkXtoydE_fAngykrQ_3I1u_qNVmF]--></g></svg>