<?xml version="1.0" encoding="us-ascii" standalone="no"?><svg xmlns="http://www.w3.org/2000/svg" xmlns:xlink="http://www.w3.org/1999/xlink" contentStyleType="text/css" height="1362px" preserveAspectRatio="none" style="width:1547px;height:1362px;background:#FFFFFF;" version="1.1" viewBox="0 0 1547 1362" width="1547px" zoomAndPan="magnify"><defs/><g><text fill="#000000" font-family="sans-serif" font-size="14" font-weight="bold" lengthAdjust="spacing" textLength="230" x="659.5" y="27.6738">US017 - Sequence Diagram (SSD)</text><rect fill="#FFFFFF" height="1137.3438" style="stroke:#181818;stroke-width:1.0;" width="10" x="56" y="127.2813"/><rect fill="#FFFFFF" height="311.875" style="stroke:#181818;stroke-width:1.0;" width="10" x="433" y="147.8047"/><rect fill="#FFFFFF" height="28.5234" style="stroke:#181818;stroke-width:1.0;" width="10" x="433" y="488.2031"/><rect fill="#FFFFFF" height="719.375" style="stroke:#181818;stroke-width:1.0;" width="10" x="433" y="545.25"/><rect fill="#FFFFFF" height="199.6641" style="stroke:#181818;stroke-width:1.0;" width="10" x="742" y="216.9688"/><rect fill="#FFFFFF" height="287.2344" style="stroke:#181818;stroke-width:1.0;" width="10" x="742" y="597.2969"/><rect fill="#FFFFFF" height="287.2344" style="stroke:#181818;stroke-width:1.0;" width="10" x="742" y="927.3438"/><rect fill="#FFFFFF" height="28.5234" style="stroke:#181818;stroke-width:1.0;" width="10" x="869.5" y="245.4922"/><rect fill="#FFFFFF" height="28.5234" style="stroke:#181818;stroke-width:1.0;" width="10" x="976" y="302.5391"/><rect fill="#FFFFFF" height="28.5234" style="stroke:#181818;stroke-width:1.0;" width="10" x="1096" y="359.5859"/><rect fill="#FFFFFF" height="230.1875" style="stroke:#181818;stroke-width:1.0;" width="10" x="1096" y="625.8203"/><rect fill="#FFFFFF" height="230.1875" style="stroke:#181818;stroke-width:1.0;" width="10" x="1096" y="955.8672"/><rect fill="#FFFFFF" height="142.6172" style="stroke:#181818;stroke-width:1.0;" width="10" x="1256" y="677.8672"/><rect fill="#FFFFFF" height="142.6172" style="stroke:#181818;stroke-width:1.0;" width="10" x="1256" y="1007.9141"/><rect fill="#FFFFFF" height="85.5703" style="stroke:#181818;stroke-width:1.0;" width="10" x="1378" y="706.3906"/><rect fill="#FFFFFF" height="85.5703" style="stroke:#181818;stroke-width:1.0;" width="10" x="1378" y="1036.4375"/><rect fill="#FFFFFF" height="28.5234" style="stroke:#181818;stroke-width:1.0;" width="10" x="1479.5" y="734.9141"/><rect fill="#FFFFFF" height="28.5234" style="stroke:#181818;stroke-width:1.0;" width="10" x="1479.5" y="1064.9609"/><rect fill="none" height="662.3281" style="stroke:#000000;stroke-width:1.5;" width="1156" x="384" y="560.25"/><rect fill="none" height="187.6641" style="stroke:#000000;stroke-width:1.5;" width="501" x="1029" y="640.8203"/><rect fill="none" height="187.6641" style="stroke:#000000;stroke-width:1.5;" width="501" x="1029" y="970.8672"/><line style="stroke:#181818;stroke-width:0.5;stroke-dasharray:5.0,5.0;" x1="61" x2="61" y1="117.2813" y2="1282.625"/><line style="stroke:#181818;stroke-width:0.5;stroke-dasharray:5.0,5.0;" x1="438" x2="438" y1="117.2813" y2="1282.625"/><line style="stroke:#181818;stroke-width:0.5;stroke-dasharray:5.0,5.0;" x1="747" x2="747" y1="186.125" y2="1282.625"/><line style="stroke:#181818;stroke-width:0.5;stroke-dasharray:5.0,5.0;" x1="874" x2="874" y1="117.2813" y2="1282.625"/><line style="stroke:#181818;stroke-width:0.5;stroke-dasharray:5.0,5.0;" x1="981" x2="981" y1="117.2813" y2="1282.625"/><line style="stroke:#181818;stroke-width:0.5;stroke-dasharray:5.0,5.0;" x1="1101" x2="1101" y1="117.2813" y2="1282.625"/><line style="stroke:#181818;stroke-width:0.5;stroke-dasharray:5.0,5.0;" x1="1261" x2="1261" y1="117.2813" y2="1282.625"/><line style="stroke:#181818;stroke-width:0.5;stroke-dasharray:5.0,5.0;" x1="1383" x2="1383" y1="117.2813" y2="1282.625"/><line style="stroke:#181818;stroke-width:0.5;stroke-dasharray:5.0,5.0;" x1="1484" x2="1484" y1="117.2813" y2="1282.625"/><text fill="#000000" font-family="sans-serif" font-size="14" lengthAdjust="spacing" textLength="106" x="5" y="114.3145">NetworkManager</text><ellipse cx="61" cy="50.1406" fill="#E2E2F0" rx="8" ry="8" style="stroke:#181818;stroke-width:0.5;"/><path d="M61,58.1406 L61,85.1406 M48,66.1406 L74,66.1406 M61,85.1406 L48,100.1406 M61,85.1406 L74,100.1406 " fill="none" style="stroke:#181818;stroke-width:0.5;"/><text fill="#000000" font-family="sans-serif" font-size="14" lengthAdjust="spacing" textLength="106" x="5" y="1294.2988">NetworkManager</text><ellipse cx="61" cy="1305.7656" fill="#E2E2F0" rx="8" ry="8" style="stroke:#181818;stroke-width:0.5;"/><path d="M61,1313.7656 L61,1340.7656 M48,1321.7656 L74,1321.7656 M61,1340.7656 L48,1355.7656 M61,1340.7656 L74,1355.7656 " fill="none" style="stroke:#181818;stroke-width:0.5;"/><rect fill="#E2E2F0" height="29.6406" rx="2.5" ry="2.5" style="stroke:#181818;stroke-width:0.5;" width="88" x="394" y="86.6406"/><text fill="#000000" font-family="sans-serif" font-size="14" lengthAdjust="spacing" textLength="74" x="401" y="106.3145">:ListDealsUI</text><rect fill="#E2E2F0" height="29.6406" rx="2.5" ry="2.5" style="stroke:#181818;stroke-width:0.5;" width="88" x="394" y="1281.625"/><text fill="#000000" font-family="sans-serif" font-size="14" lengthAdjust="spacing" textLength="74" x="401" y="1301.2988">:ListDealsUI</text><rect fill="#E2E2F0" height="29.6406" rx="2.5" ry="2.5" style="stroke:#181818;stroke-width:0.5;" width="138" x="678" y="1281.625"/><text fill="#000000" font-family="sans-serif" font-size="14" lengthAdjust="spacing" textLength="124" x="685" y="1301.2988">:ListDealsController</text><rect fill="#E2E2F0" height="29.6406" rx="2.5" ry="2.5" style="stroke:#181818;stroke-width:0.5;" width="97" x="826" y="86.6406"/><text fill="#000000" font-family="sans-serif" font-size="14" lengthAdjust="spacing" textLength="83" x="833" y="106.3145">:Repositories</text><rect fill="#E2E2F0" height="29.6406" rx="2.5" ry="2.5" style="stroke:#181818;stroke-width:0.5;" width="97" x="826" y="1281.625"/><text fill="#000000" font-family="sans-serif" font-size="14" lengthAdjust="spacing" textLength="83" x="833" y="1301.2988">:Repositories</text><rect fill="#E2E2F0" height="45.2813" rx="2.5" ry="2.5" style="stroke:#181818;stroke-width:0.5;" width="96" x="933" y="71"/><text fill="#000000" font-family="sans-serif" font-size="14" lengthAdjust="spacing" textLength="82" x="940" y="90.6738">repositories :</text><text fill="#000000" font-family="sans-serif" font-size="14" lengthAdjust="spacing" textLength="79" x="941.5" y="106.3145">Repositories</text><rect fill="#E2E2F0" height="45.2813" rx="2.5" ry="2.5" style="stroke:#181818;stroke-width:0.5;" width="96" x="933" y="1281.625"/><text fill="#000000" font-family="sans-serif" font-size="14" lengthAdjust="spacing" textLength="82" x="940" y="1301.2988">repositories :</text><text fill="#000000" font-family="sans-serif" font-size="14" lengthAdjust="spacing" textLength="79" x="941.5" y="1316.9395">Repositories</text><rect fill="#E2E2F0" height="45.2813" rx="2.5" ry="2.5" style="stroke:#181818;stroke-width:0.5;" width="124" x="1039" y="71"/><text fill="#000000" font-family="sans-serif" font-size="14" lengthAdjust="spacing" textLength="110" x="1046" y="90.6738">orderRepository :</text><text fill="#000000" font-family="sans-serif" font-size="14" lengthAdjust="spacing" textLength="105" x="1048.5" y="106.3145">OrderRepository</text><rect fill="#E2E2F0" height="45.2813" rx="2.5" ry="2.5" style="stroke:#181818;stroke-width:0.5;" width="124" x="1039" y="1281.625"/><text fill="#000000" font-family="sans-serif" font-size="14" lengthAdjust="spacing" textLength="110" x="1046" y="1301.2988">orderRepository :</text><text fill="#000000" font-family="sans-serif" font-size="14" lengthAdjust="spacing" textLength="105" x="1048.5" y="1316.9395">OrderRepository</text><rect fill="#E2E2F0" height="45.2813" rx="2.5" ry="2.5" style="stroke:#181818;stroke-width:0.5;" width="52" x="1235" y="71"/><text fill="#000000" font-family="sans-serif" font-size="14" lengthAdjust="spacing" textLength="38" x="1242" y="90.6738">order:</text><text fill="#000000" font-family="sans-serif" font-size="14" lengthAdjust="spacing" textLength="37" x="1242.5" y="106.3145">Order</text><rect fill="#E2E2F0" height="45.2813" rx="2.5" ry="2.5" style="stroke:#181818;stroke-width:0.5;" width="52" x="1235" y="1281.625"/><text fill="#000000" font-family="sans-serif" font-size="14" lengthAdjust="spacing" textLength="38" x="1242" y="1301.2988">order:</text><text fill="#000000" font-family="sans-serif" font-size="14" lengthAdjust="spacing" textLength="37" x="1242.5" y="1316.9395">Order</text><rect fill="#E2E2F0" height="45.2813" rx="2.5" ry="2.5" style="stroke:#181818;stroke-width:0.5;" width="112" x="1327" y="71"/><text fill="#000000" font-family="sans-serif" font-size="14" lengthAdjust="spacing" textLength="98" x="1334" y="90.6738">announcement:</text><text fill="#000000" font-family="sans-serif" font-size="14" lengthAdjust="spacing" textLength="95" x="1335.5" y="106.3145">Announcement</text><rect fill="#E2E2F0" height="45.2813" rx="2.5" ry="2.5" style="stroke:#181818;stroke-width:0.5;" width="112" x="1327" y="1281.625"/><text fill="#000000" font-family="sans-serif" font-size="14" lengthAdjust="spacing" textLength="98" x="1334" y="1301.2988">announcement:</text><text fill="#000000" font-family="sans-serif" font-size="14" lengthAdjust="spacing" textLength="95" x="1335.5" y="1316.9395">Announcement</text><rect fill="#E2E2F0" height="45.2813" rx="2.5" ry="2.5" style="stroke:#181818;stroke-width:0.5;" width="71" x="1449" y="71"/><text fill="#000000" font-family="sans-serif" font-size="14" lengthAdjust="spacing" textLength="57" x="1456" y="90.6738">property:</text><text fill="#000000" font-family="sans-serif" font-size="14" lengthAdjust="spacing" textLength="54" x="1457.5" y="106.3145">Property</text><rect fill="#E2E2F0" height="45.2813" rx="2.5" ry="2.5" style="stroke:#181818;stroke-width:0.5;" width="71" x="1449" y="1281.625"/><text fill="#000000" font-family="sans-serif" font-size="14" lengthAdjust="spacing" textLength="57" x="1456" y="1301.2988">property:</text><text fill="#000000" font-family="sans-serif" font-size="14" lengthAdjust="spacing" textLength="54" x="1457.5" y="1316.9395">Property</text><rect fill="#FFFFFF" height="1137.3438" style="stroke:#181818;stroke-width:1.0;" width="10" x="56" y="127.2813"/><rect fill="#FFFFFF" height="311.875" style="stroke:#181818;stroke-width:1.0;" width="10" x="433" y="147.8047"/><rect fill="#FFFFFF" height="28.5234" style="stroke:#181818;stroke-width:1.0;" width="10" x="433" y="488.2031"/><rect fill="#FFFFFF" height="719.375" style="stroke:#181818;stroke-width:1.0;" width="10" x="433" y="545.25"/><rect fill="#FFFFFF" height="199.6641" style="stroke:#181818;stroke-width:1.0;" width="10" x="742" y="216.9688"/><rect fill="#FFFFFF" height="287.2344" style="stroke:#181818;stroke-width:1.0;" width="10" x="742" y="597.2969"/><rect fill="#FFFFFF" height="287.2344" style="stroke:#181818;stroke-width:1.0;" width="10" x="742" y="927.3438"/><rect fill="#FFFFFF" height="28.5234" style="stroke:#181818;stroke-width:1.0;" width="10" x="869.5" y="245.4922"/><rect fill="#FFFFFF" height="28.5234" style="stroke:#181818;stroke-width:1.0;" width="10" x="976" y="302.5391"/><rect fill="#FFFFFF" height="28.5234" style="stroke:#181818;stroke-width:1.0;" width="10" x="1096" y="359.5859"/><rect fill="#FFFFFF" height="230.1875" style="stroke:#181818;stroke-width:1.0;" width="10" x="1096" y="625.8203"/><rect fill="#FFFFFF" height="230.1875" style="stroke:#181818;stroke-width:1.0;" width="10" x="1096" y="955.8672"/><rect fill="#FFFFFF" height="142.6172" style="stroke:#181818;stroke-width:1.0;" width="10" x="1256" y="677.8672"/><rect fill="#FFFFFF" height="142.6172" style="stroke:#181818;stroke-width:1.0;" width="10" x="1256" y="1007.9141"/><rect fill="#FFFFFF" height="85.5703" style="stroke:#181818;stroke-width:1.0;" width="10" x="1378" y="706.3906"/><rect fill="#FFFFFF" height="85.5703" style="stroke:#181818;stroke-width:1.0;" width="10" x="1378" y="1036.4375"/><rect fill="#FFFFFF" height="28.5234" style="stroke:#181818;stroke-width:1.0;" width="10" x="1479.5" y="734.9141"/><rect fill="#FFFFFF" height="28.5234" style="stroke:#181818;stroke-width:1.0;" width="10" x="1479.5" y="1064.9609"/><polygon fill="#181818" points="421,143.8047,431,147.8047,421,151.8047,425,147.8047" style="stroke:#181818;stroke-width:1.0;"/><line style="stroke:#181818;stroke-width:1.0;" x1="66" x2="427" y1="147.8047" y2="147.8047"/><text fill="#000000" font-family="sans-serif" font-size="13" font-weight="bold" lengthAdjust="spacing" textLength="7" x="73" y="143.0498">1</text><text fill="#000000" font-family="sans-serif" font-size="13" lengthAdjust="spacing" textLength="174" x="84" y="143.0498">asks to list all the deals made</text><polygon fill="#181818" points="666,172.3281,676,176.3281,666,180.3281,670,176.3281" style="stroke:#181818;stroke-width:1.0;"/><line style="stroke:#181818;stroke-width:1.0;stroke-dasharray:2.0,2.0;" x1="443" x2="672" y1="176.3281" y2="176.3281"/><text fill="#000000" font-family="sans-serif" font-size="13" font-weight="bold" lengthAdjust="spacing" textLength="7" x="450" y="171.5732">2</text><text fill="#000000" font-family="sans-serif" font-size="13" lengthAdjust="spacing" textLength="36" x="461" y="171.5732">create</text><rect fill="#E2E2F0" height="29.6406" rx="2.5" ry="2.5" style="stroke:#181818;stroke-width:0.5;" width="138" x="678" y="155.8047"/><text fill="#000000" font-family="sans-serif" font-size="14" lengthAdjust="spacing" textLength="124" x="685" y="175.4785">:ListDealsController</text><polygon fill="#181818" points="730,212.9688,740,216.9688,730,220.9688,734,216.9688" style="stroke:#181818;stroke-width:1.0;"/><line style="stroke:#181818;stroke-width:1.0;" x1="443" x2="736" y1="216.9688" y2="216.9688"/><text fill="#000000" font-family="sans-serif" font-size="13" font-weight="bold" lengthAdjust="spacing" textLength="7" x="450" y="212.2139">3</text><text fill="#000000" font-family="sans-serif" font-size="13" lengthAdjust="spacing" textLength="59" x="461" y="212.2139">getDeals()</text><polygon fill="#181818" points="857.5,241.4922,867.5,245.4922,857.5,249.4922,861.5,245.4922" style="stroke:#181818;stroke-width:1.0;"/><line style="stroke:#181818;stroke-width:1.0;" x1="752" x2="863.5" y1="245.4922" y2="245.4922"/><text fill="#000000" font-family="sans-serif" font-size="13" font-weight="bold" lengthAdjust="spacing" textLength="7" x="759" y="240.7373">4</text><text fill="#000000" font-family="sans-serif" font-size="13" lengthAdjust="spacing" textLength="75" x="770" y="240.7373">getInstance()</text><polygon fill="#181818" points="763,270.0156,753,274.0156,763,278.0156,759,274.0156" style="stroke:#181818;stroke-width:1.0;"/><line style="stroke:#181818;stroke-width:1.0;stroke-dasharray:2.0,2.0;" x1="757" x2="873.5" y1="274.0156" y2="274.0156"/><text fill="#000000" font-family="sans-serif" font-size="13" font-weight="bold" lengthAdjust="spacing" textLength="7" x="769" y="269.2607">5</text><text fill="#000000" font-family="sans-serif" font-size="13" lengthAdjust="spacing" textLength="67" x="780" y="269.2607">repositories</text><polygon fill="#181818" points="964,298.5391,974,302.5391,964,306.5391,968,302.5391" style="stroke:#181818;stroke-width:1.0;"/><line style="stroke:#181818;stroke-width:1.0;" x1="752" x2="970" y1="302.5391" y2="302.5391"/><text fill="#000000" font-family="sans-serif" font-size="13" font-weight="bold" lengthAdjust="spacing" textLength="7" x="759" y="297.7842">6</text><text fill="#000000" font-family="sans-serif" font-size="13" lengthAdjust="spacing" textLength="127" x="770" y="297.7842">getOrdersRepository()</text><polygon fill="#181818" points="763,327.0625,753,331.0625,763,335.0625,759,331.0625" style="stroke:#181818;stroke-width:1.0;"/><line style="stroke:#181818;stroke-width:1.0;stroke-dasharray:2.0,2.0;" x1="757" x2="980" y1="331.0625" y2="331.0625"/><text fill="#000000" font-family="sans-serif" font-size="13" font-weight="bold" lengthAdjust="spacing" textLength="7" x="769" y="326.3076">7</text><text fill="#000000" font-family="sans-serif" font-size="13" lengthAdjust="spacing" textLength="98" x="780" y="326.3076">ordersRepository</text><polygon fill="#181818" points="1084,355.5859,1094,359.5859,1084,363.5859,1088,359.5859" style="stroke:#181818;stroke-width:1.0;"/><line style="stroke:#181818;stroke-width:1.0;" x1="752" x2="1090" y1="359.5859" y2="359.5859"/><text fill="#000000" font-family="sans-serif" font-size="13" font-weight="bold" lengthAdjust="spacing" textLength="7" x="759" y="354.8311">8</text><text fill="#000000" font-family="sans-serif" font-size="13" lengthAdjust="spacing" textLength="120" x="770" y="354.8311">getAcceptedOrders()</text><polygon fill="#181818" points="763,384.1094,753,388.1094,763,392.1094,759,388.1094" style="stroke:#181818;stroke-width:1.0;"/><line style="stroke:#181818;stroke-width:1.0;stroke-dasharray:2.0,2.0;" x1="757" x2="1100" y1="388.1094" y2="388.1094"/><text fill="#000000" font-family="sans-serif" font-size="13" font-weight="bold" lengthAdjust="spacing" textLength="7" x="769" y="383.3545">9</text><text fill="#000000" font-family="sans-serif" font-size="13" lengthAdjust="spacing" textLength="92" x="780" y="383.3545">acceptedOrders</text><polygon fill="#181818" points="454,412.6328,444,416.6328,454,420.6328,450,416.6328" style="stroke:#181818;stroke-width:1.0;"/><line style="stroke:#181818;stroke-width:1.0;stroke-dasharray:2.0,2.0;" x1="448" x2="746" y1="416.6328" y2="416.6328"/><text fill="#000000" font-family="sans-serif" font-size="13" font-weight="bold" lengthAdjust="spacing" textLength="14" x="460" y="411.8779">10</text><text fill="#000000" font-family="sans-serif" font-size="13" lengthAdjust="spacing" textLength="31" x="478" y="411.8779">deals</text><polygon fill="#181818" points="77,455.6797,67,459.6797,77,463.6797,73,459.6797" style="stroke:#181818;stroke-width:1.0;"/><line style="stroke:#181818;stroke-width:1.0;stroke-dasharray:2.0,2.0;" x1="71" x2="437" y1="459.6797" y2="459.6797"/><text fill="#000000" font-family="sans-serif" font-size="13" font-weight="bold" lengthAdjust="spacing" textLength="14" x="83" y="447.6631">11</text><text fill="#000000" font-family="sans-serif" font-size="13" lengthAdjust="spacing" textLength="252" x="101" y="440.4014">shows the list and asks to select one of the</text><text fill="#000000" font-family="sans-serif" font-size="13" lengthAdjust="spacing" textLength="269" x="101" y="454.9248">sorting methods (Bubble Sort or Insertion Sort)</text><polygon fill="#181818" points="421,484.2031,431,488.2031,421,492.2031,425,488.2031" style="stroke:#181818;stroke-width:1.0;"/><line style="stroke:#181818;stroke-width:1.0;" x1="66" x2="427" y1="488.2031" y2="488.2031"/><text fill="#000000" font-family="sans-serif" font-size="13" font-weight="bold" lengthAdjust="spacing" textLength="14" x="73" y="483.4482">12</text><text fill="#000000" font-family="sans-serif" font-size="13" lengthAdjust="spacing" textLength="330" x="91" y="483.4482">selects the sorting method (Bubble Sort or Insertion Sort)</text><polygon fill="#181818" points="77,512.7266,67,516.7266,77,520.7266,73,516.7266" style="stroke:#181818;stroke-width:1.0;"/><line style="stroke:#181818;stroke-width:1.0;stroke-dasharray:2.0,2.0;" x1="71" x2="437" y1="516.7266" y2="516.7266"/><text fill="#000000" font-family="sans-serif" font-size="13" font-weight="bold" lengthAdjust="spacing" textLength="14" x="83" y="511.9717">13</text><text fill="#000000" font-family="sans-serif" font-size="13" lengthAdjust="spacing" textLength="314" x="101" y="511.9717">asks for the order of sorting (ascending or descending)</text><polygon fill="#181818" points="421,541.25,431,545.25,421,549.25,425,545.25" style="stroke:#181818;stroke-width:1.0;"/><line style="stroke:#181818;stroke-width:1.0;" x1="66" x2="427" y1="545.25" y2="545.25"/><text fill="#000000" font-family="sans-serif" font-size="13" font-weight="bold" lengthAdjust="spacing" textLength="14" x="73" y="540.4951">14</text><text fill="#000000" font-family="sans-serif" font-size="13" lengthAdjust="spacing" textLength="310" x="91" y="540.4951">selects the order of sorting (ascending or descending)</text><path d="M384,560.25 L445,560.25 L445,566.7734 L435,576.7734 L384,576.7734 L384,560.25 " fill="#EEEEEE" style="stroke:#000000;stroke-width:1.5;"/><rect fill="none" height="662.3281" style="stroke:#000000;stroke-width:1.5;" width="1156" x="384" y="560.25"/><text fill="#000000" font-family="sans-serif" font-size="13" font-weight="bold" lengthAdjust="spacing" textLength="16" x="399" y="573.0186">alt</text><text fill="#000000" font-family="sans-serif" font-size="11" font-weight="bold" lengthAdjust="spacing" textLength="182" x="460" y="572.208">[Bubble Sort method is selected]</text><polygon fill="#181818" points="730,593.2969,740,597.2969,730,601.2969,734,597.2969" style="stroke:#181818;stroke-width:1.0;"/><line style="stroke:#181818;stroke-width:1.0;stroke-dasharray:2.0,2.0;" x1="443" x2="736" y1="597.2969" y2="597.2969"/><text fill="#000000" font-family="sans-serif" font-size="13" font-weight="bold" lengthAdjust="spacing" textLength="14" x="450" y="592.542">15</text><text fill="#000000" font-family="sans-serif" font-size="13" lengthAdjust="spacing" textLength="253" x="468" y="592.542">sortListByBubbleSort(deals, orderOfSorting)</text><polygon fill="#181818" points="1084,621.8203,1094,625.8203,1084,629.8203,1088,625.8203" style="stroke:#181818;stroke-width:1.0;"/><line style="stroke:#181818;stroke-width:1.0;" x1="752" x2="1090" y1="625.8203" y2="625.8203"/><text fill="#000000" font-family="sans-serif" font-size="13" font-weight="bold" lengthAdjust="spacing" textLength="14" x="759" y="621.0654">16</text><text fill="#000000" font-family="sans-serif" font-size="13" lengthAdjust="spacing" textLength="253" x="777" y="621.0654">sortListByBubbleSort(deals, orderOfSorting)</text><path d="M1029,640.8203 L1102,640.8203 L1102,647.3438 L1092,657.3438 L1029,657.3438 L1029,640.8203 " fill="#EEEEEE" style="stroke:#000000;stroke-width:1.5;"/><rect fill="none" height="187.6641" style="stroke:#000000;stroke-width:1.5;" width="501" x="1029" y="640.8203"/><text fill="#000000" font-family="sans-serif" font-size="13" font-weight="bold" lengthAdjust="spacing" textLength="28" x="1044" y="653.5889">loop</text><text fill="#000000" font-family="sans-serif" font-size="11" font-weight="bold" lengthAdjust="spacing" textLength="84" x="1117" y="652.7783">[for every deal]</text><polygon fill="#181818" points="1244,673.8672,1254,677.8672,1244,681.8672,1248,677.8672" style="stroke:#181818;stroke-width:1.0;"/><line style="stroke:#181818;stroke-width:1.0;stroke-dasharray:2.0,2.0;" x1="1106" x2="1250" y1="677.8672" y2="677.8672"/><text fill="#000000" font-family="sans-serif" font-size="13" font-weight="bold" lengthAdjust="spacing" textLength="14" x="1113" y="673.1123">17</text><text fill="#000000" font-family="sans-serif" font-size="13" lengthAdjust="spacing" textLength="113" x="1131" y="673.1123">getAnnouncement()</text><polygon fill="#181818" points="1366,702.3906,1376,706.3906,1366,710.3906,1370,706.3906" style="stroke:#181818;stroke-width:1.0;"/><line style="stroke:#181818;stroke-width:1.0;" x1="1266" x2="1372" y1="706.3906" y2="706.3906"/><text fill="#000000" font-family="sans-serif" font-size="13" font-weight="bold" lengthAdjust="spacing" textLength="14" x="1273" y="701.6357">18</text><text fill="#000000" font-family="sans-serif" font-size="13" lengthAdjust="spacing" textLength="75" x="1291" y="701.6357">getProperty()</text><polygon fill="#181818" points="1467.5,730.9141,1477.5,734.9141,1467.5,738.9141,1471.5,734.9141" style="stroke:#181818;stroke-width:1.0;"/><line style="stroke:#181818;stroke-width:1.0;" x1="1388" x2="1473.5" y1="734.9141" y2="734.9141"/><text fill="#000000" font-family="sans-serif" font-size="13" font-weight="bold" lengthAdjust="spacing" textLength="14" x="1395" y="730.1592">19</text><text fill="#000000" font-family="sans-serif" font-size="13" lengthAdjust="spacing" textLength="53" x="1413" y="730.1592">getArea()</text><polygon fill="#181818" points="1399,759.4375,1389,763.4375,1399,767.4375,1395,763.4375" style="stroke:#181818;stroke-width:1.0;"/><line style="stroke:#181818;stroke-width:1.0;stroke-dasharray:2.0,2.0;" x1="1393" x2="1483.5" y1="763.4375" y2="763.4375"/><text fill="#000000" font-family="sans-serif" font-size="13" font-weight="bold" lengthAdjust="spacing" textLength="14" x="1405" y="758.6826">20</text><text fill="#000000" font-family="sans-serif" font-size="13" lengthAdjust="spacing" textLength="25" x="1423" y="758.6826">area</text><polygon fill="#181818" points="1277,787.9609,1267,791.9609,1277,795.9609,1273,791.9609" style="stroke:#181818;stroke-width:1.0;"/><line style="stroke:#181818;stroke-width:1.0;stroke-dasharray:2.0,2.0;" x1="1271" x2="1382" y1="791.9609" y2="791.9609"/><text fill="#000000" font-family="sans-serif" font-size="13" font-weight="bold" lengthAdjust="spacing" textLength="14" x="1283" y="787.2061">21</text><text fill="#000000" font-family="sans-serif" font-size="13" lengthAdjust="spacing" textLength="25" x="1301" y="787.2061">area</text><polygon fill="#181818" points="1117,816.4844,1107,820.4844,1117,824.4844,1113,820.4844" style="stroke:#181818;stroke-width:1.0;"/><line style="stroke:#181818;stroke-width:1.0;stroke-dasharray:2.0,2.0;" x1="1111" x2="1260" y1="820.4844" y2="820.4844"/><text fill="#000000" font-family="sans-serif" font-size="13" font-weight="bold" lengthAdjust="spacing" textLength="14" x="1123" y="815.7295">22</text><text fill="#000000" font-family="sans-serif" font-size="13" lengthAdjust="spacing" textLength="25" x="1141" y="815.7295">area</text><polygon fill="#181818" points="763,852.0078,753,856.0078,763,860.0078,759,856.0078" style="stroke:#181818;stroke-width:1.0;"/><line style="stroke:#181818;stroke-width:1.0;stroke-dasharray:2.0,2.0;" x1="757" x2="1100" y1="856.0078" y2="856.0078"/><text fill="#000000" font-family="sans-serif" font-size="13" font-weight="bold" lengthAdjust="spacing" textLength="14" x="769" y="851.2529">23</text><text fill="#000000" font-family="sans-serif" font-size="13" lengthAdjust="spacing" textLength="100" x="787" y="851.2529">sortedListByArea</text><polygon fill="#181818" points="454,880.5313,444,884.5313,454,888.5313,450,884.5313" style="stroke:#181818;stroke-width:1.0;"/><line style="stroke:#181818;stroke-width:1.0;stroke-dasharray:2.0,2.0;" x1="448" x2="746" y1="884.5313" y2="884.5313"/><text fill="#000000" font-family="sans-serif" font-size="13" font-weight="bold" lengthAdjust="spacing" textLength="14" x="460" y="879.7764">24</text><text fill="#000000" font-family="sans-serif" font-size="13" lengthAdjust="spacing" textLength="57" x="478" y="879.7764">sortedList</text><line style="stroke:#000000;stroke-width:1.0;stroke-dasharray:2.0,2.0;" x1="384" x2="1540" y1="893.5313" y2="893.5313"/><text fill="#000000" font-family="sans-serif" font-size="11" font-weight="bold" lengthAdjust="spacing" textLength="194" x="389" y="903.4893">[Insertion Sort method is selected]</text><polygon fill="#181818" points="730,923.3438,740,927.3438,730,931.3438,734,927.3438" style="stroke:#181818;stroke-width:1.0;"/><line style="stroke:#181818;stroke-width:1.0;stroke-dasharray:2.0,2.0;" x1="443" x2="736" y1="927.3438" y2="927.3438"/><text fill="#000000" font-family="sans-serif" font-size="13" font-weight="bold" lengthAdjust="spacing" textLength="14" x="450" y="922.5889">25</text><text fill="#000000" font-family="sans-serif" font-size="13" lengthAdjust="spacing" textLength="262" x="468" y="922.5889">sortListByInsertionSort(deals, orderOfSorting)</text><polygon fill="#181818" points="1084,951.8672,1094,955.8672,1084,959.8672,1088,955.8672" style="stroke:#181818;stroke-width:1.0;"/><line style="stroke:#181818;stroke-width:1.0;" x1="752" x2="1090" y1="955.8672" y2="955.8672"/><text fill="#000000" font-family="sans-serif" font-size="13" font-weight="bold" lengthAdjust="spacing" textLength="14" x="759" y="951.1123">26</text><text fill="#000000" font-family="sans-serif" font-size="13" lengthAdjust="spacing" textLength="262" x="777" y="951.1123">sortListByInsertionSort(deals, orderOfSorting)</text><path d="M1029,970.8672 L1102,970.8672 L1102,977.3906 L1092,987.3906 L1029,987.3906 L1029,970.8672 " fill="#EEEEEE" style="stroke:#000000;stroke-width:1.5;"/><rect fill="none" height="187.6641" style="stroke:#000000;stroke-width:1.5;" width="501" x="1029" y="970.8672"/><text fill="#000000" font-family="sans-serif" font-size="13" font-weight="bold" lengthAdjust="spacing" textLength="28" x="1044" y="983.6357">loop</text><text fill="#000000" font-family="sans-serif" font-size="11" font-weight="bold" lengthAdjust="spacing" textLength="84" x="1117" y="982.8252">[for every deal]</text><polygon fill="#181818" points="1244,1003.9141,1254,1007.9141,1244,1011.9141,1248,1007.9141" style="stroke:#181818;stroke-width:1.0;"/><line style="stroke:#181818;stroke-width:1.0;stroke-dasharray:2.0,2.0;" x1="1106" x2="1250" y1="1007.9141" y2="1007.9141"/><text fill="#000000" font-family="sans-serif" font-size="13" font-weight="bold" lengthAdjust="spacing" textLength="14" x="1113" y="1003.1592">27</text><text fill="#000000" font-family="sans-serif" font-size="13" lengthAdjust="spacing" textLength="113" x="1131" y="1003.1592">getAnnouncement()</text><polygon fill="#181818" points="1366,1032.4375,1376,1036.4375,1366,1040.4375,1370,1036.4375" style="stroke:#181818;stroke-width:1.0;"/><line style="stroke:#181818;stroke-width:1.0;" x1="1266" x2="1372" y1="1036.4375" y2="1036.4375"/><text fill="#000000" font-family="sans-serif" font-size="13" font-weight="bold" lengthAdjust="spacing" textLength="14" x="1273" y="1031.6826">28</text><text fill="#000000" font-family="sans-serif" font-size="13" lengthAdjust="spacing" textLength="75" x="1291" y="1031.6826">getProperty()</text><polygon fill="#181818" points="1467.5,1060.9609,1477.5,1064.9609,1467.5,1068.9609,1471.5,1064.9609" style="stroke:#181818;stroke-width:1.0;"/><line style="stroke:#181818;stroke-width:1.0;" x1="1388" x2="1473.5" y1="1064.9609" y2="1064.9609"/><text fill="#000000" font-family="sans-serif" font-size="13" font-weight="bold" lengthAdjust="spacing" textLength="14" x="1395" y="1060.2061">29</text><text fill="#000000" font-family="sans-serif" font-size="13" lengthAdjust="spacing" textLength="53" x="1413" y="1060.2061">getArea()</text><polygon fill="#181818" points="1399,1089.4844,1389,1093.4844,1399,1097.4844,1395,1093.4844" style="stroke:#181818;stroke-width:1.0;"/><line style="stroke:#181818;stroke-width:1.0;stroke-dasharray:2.0,2.0;" x1="1393" x2="1483.5" y1="1093.4844" y2="1093.4844"/><text fill="#000000" font-family="sans-serif" font-size="13" font-weight="bold" lengthAdjust="spacing" textLength="14" x="1405" y="1088.7295">30</text><text fill="#000000" font-family="sans-serif" font-size="13" lengthAdjust="spacing" textLength="25" x="1423" y="1088.7295">area</text><polygon fill="#181818" points="1277,1118.0078,1267,1122.0078,1277,1126.0078,1273,1122.0078" style="stroke:#181818;stroke-width:1.0;"/><line style="stroke:#181818;stroke-width:1.0;stroke-dasharray:2.0,2.0;" x1="1271" x2="1382" y1="1122.0078" y2="1122.0078"/><text fill="#000000" font-family="sans-serif" font-size="13" font-weight="bold" lengthAdjust="spacing" textLength="14" x="1283" y="1117.2529">31</text><text fill="#000000" font-family="sans-serif" font-size="13" lengthAdjust="spacing" textLength="25" x="1301" y="1117.2529">area</text><polygon fill="#181818" points="1117,1146.5313,1107,1150.5313,1117,1154.5313,1113,1150.5313" style="stroke:#181818;stroke-width:1.0;"/><line style="stroke:#181818;stroke-width:1.0;stroke-dasharray:2.0,2.0;" x1="1111" x2="1260" y1="1150.5313" y2="1150.5313"/><text fill="#000000" font-family="sans-serif" font-size="13" font-weight="bold" lengthAdjust="spacing" textLength="14" x="1123" y="1145.7764">32</text><text fill="#000000" font-family="sans-serif" font-size="13" lengthAdjust="spacing" textLength="25" x="1141" y="1145.7764">area</text><polygon fill="#181818" points="763,1182.0547,753,1186.0547,763,1190.0547,759,1186.0547" style="stroke:#181818;stroke-width:1.0;"/><line style="stroke:#181818;stroke-width:1.0;stroke-dasharray:2.0,2.0;" x1="757" x2="1100" y1="1186.0547" y2="1186.0547"/><text fill="#000000" font-family="sans-serif" font-size="13" font-weight="bold" lengthAdjust="spacing" textLength="14" x="769" y="1181.2998">33</text><text fill="#000000" font-family="sans-serif" font-size="13" lengthAdjust="spacing" textLength="100" x="787" y="1181.2998">sortedListByArea</text><polygon fill="#181818" points="454,1210.5781,444,1214.5781,454,1218.5781,450,1214.5781" style="stroke:#181818;stroke-width:1.0;"/><line style="stroke:#181818;stroke-width:1.0;stroke-dasharray:2.0,2.0;" x1="448" x2="746" y1="1214.5781" y2="1214.5781"/><text fill="#000000" font-family="sans-serif" font-size="13" font-weight="bold" lengthAdjust="spacing" textLength="14" x="460" y="1209.8232">34</text><text fill="#000000" font-family="sans-serif" font-size="13" lengthAdjust="spacing" textLength="57" x="478" y="1209.8232">sortedList</text><polygon fill="#181818" points="72,1260.625,62,1264.625,72,1268.625,68,1264.625" style="stroke:#181818;stroke-width:1.0;"/><line style="stroke:#181818;stroke-width:1.0;stroke-dasharray:2.0,2.0;" x1="66" x2="437" y1="1264.625" y2="1264.625"/><text fill="#000000" font-family="sans-serif" font-size="13" font-weight="bold" lengthAdjust="spacing" textLength="14" x="78" y="1252.6084">35</text><text fill="#000000" font-family="sans-serif" font-size="13" lengthAdjust="spacing" textLength="244" x="96" y="1245.3467">shows the list of all the deals made sorted</text><text fill="#000000" font-family="sans-serif" font-size="13" lengthAdjust="spacing" textLength="237" x="96" y="1259.8701">by the selected sorting method and order</text><!--SRC=[fLPDRzim3BtxLn0z9SK2RAS1EGn8snq2D4sHhBTU59jDZJgIPoajykz7IVwGBDbDLfrYYU-H8XyPiQCI_7ZOOPKaAbS5mjFs-u-VC8Cj_ZqYJn7kShQls04cs-tTD4bOgaG5Lm-eFaJrjcASxR6w0YRXOPMKh59vcfUCAxYQt-TItI4hvDFI63mjXmnk1LULA8gQgVjCUeWDbaBc546EqfW-tY_- -3QLOmBpPnv0DhyVVOIeCgnQivC6hVqjWrjl8h36rbYO7T-8SIwEbCO3SaMs2-VJGDnp7rbMeiHAdGZrMFyqY6RVb29_PmfrvXEWzR22sIzACyp9y4s24b1GYe4L1QXNX4pd6WuiGslV4b1bp0P1PyJGvV_wchZI2iceit0Dw7YFjeYJQO_LBQC-S534eIjdqKik5QCS10Ick6RB6C_wdjrIMpkwOGZs_LBvhLjJDzaLEN2lXM9sD2HmBdhm880MxljVRwpxHPfYgJ2pOGJEIMrcWym3ryo31euRgEktqOMHG83eLyhH0cbg3l9LV4WZ8QiddhK2arXWga1m1F5YJ9wv5AHZleS3gbUHIPZS77SxcYrRsgUy0HMS59mBRdQcGJYD71qzMpSs1f_-FFOXgPlhcRky45IpcxhgkpHk9aoco3FzaqmoRBukZli2PbC1LYXmxrRVDvSrAsPTjO8Oeksi0o8cFNTlJfPQCq-CAhxP0DSlMnlUDC8U4qf4tbzpqkXNhqA8qfG6tv56i-Re3klUi7crJUMCqqcCsuxeTjz2YSETmvQg6RfH6cziTySk2P4sexgEZSPebAoRwCrH2vo5eJ6YwImTzOKqVZnEfWOvulUgizHKTn3TIow9EQXLe4NCh50MGwIk6c8JhIE9mWF5OY6nDoD6E-kCJchPpjBvvntrULjznQERqCzxp5ldDrpSTKyWthgm5UCEulhrRIzgqhYRiDMyTNxxUckqbqVkCDZOG-ndP6cqvOTunyhh3OF_c0XZO-6YsJ0o8Fn0Hnv0z1yUlgbhR_J-sPtiEwMU9Vq7Ytu-EQdgFI2SJthN_mC0]--></g></svg>