<?xml version="1.0" encoding="us-ascii" standalone="no"?><svg xmlns="http://www.w3.org/2000/svg" xmlns:xlink="http://www.w3.org/1999/xlink" contentStyleType="text/css" height="620px" preserveAspectRatio="none" style="width:600px;height:620px;background:#FFFFFF;" version="1.1" viewBox="0 0 600 620" width="600px" zoomAndPan="magnify"><defs/><g><!--class PublishRequestUI--><g id="elem_PublishRequestUI"><rect codeLine="11" fill="#F1F1F1" height="48" id="PublishRequestUI" rx="2.5" ry="2.5" style="stroke:#181818;stroke-width:0.5;" width="143" x="126.03" y="38.5"/><ellipse cx="141.03" cy="54.5" fill="#ADD1B2" rx="11" ry="11" style="stroke:#181818;stroke-width:1.0;"/><path d="M143.7956,50.375 Q143.9519,50.1563 144.1394,50.0469 Q144.3269,49.9375 144.5456,49.9375 Q144.9206,49.9375 145.155,50.2031 Q145.3894,50.4531 145.3894,51.0625 L145.3894,52.5156 Q145.3894,53.125 145.155,53.3906 Q144.9206,53.6563 144.5456,53.6563 Q144.2019,53.6563 143.9988,53.4531 Q143.7956,53.2656 143.6863,52.75 Q143.6394,52.3906 143.4519,52.2031 Q143.1238,51.8281 142.5144,51.6094 Q141.905,51.3906 141.28,51.3906 Q140.5144,51.3906 139.8738,51.7188 Q139.2488,52.0469 138.7488,52.7969 Q138.2644,53.5469 138.2644,54.5781 L138.2644,55.6719 Q138.2644,56.9063 139.155,57.7344 Q140.0456,58.5469 141.6394,58.5469 Q142.5769,58.5469 143.2331,58.2969 Q143.6238,58.1406 144.0456,57.7031 Q144.3113,57.4375 144.4519,57.3594 Q144.6081,57.2813 144.8113,57.2813 Q145.1394,57.2813 145.3894,57.5469 Q145.655,57.7969 145.655,58.1406 Q145.655,58.4844 145.3113,58.8906 Q144.8113,59.4688 144.0144,59.7969 Q142.9363,60.25 141.6394,60.25 Q140.1238,60.25 138.9206,59.625 Q137.9363,59.125 137.2488,58.0625 Q136.5613,56.9844 136.5613,55.7031 L136.5613,54.5469 Q136.5613,53.2188 137.1706,52.0781 Q137.7956,50.9219 138.8894,50.3125 Q139.9831,49.6875 141.2175,49.6875 Q141.9519,49.6875 142.5925,49.8594 Q143.2488,50.0156 143.7956,50.375 Z " fill="#000000"/><text fill="#000000" font-family="sans-serif" font-size="14" lengthAdjust="spacing" textLength="111" x="155.03" y="59.3535">PublishRequestUI</text><line style="stroke:#181818;stroke-width:0.5;" x1="127.03" x2="268.03" y1="70.5" y2="70.5"/><line style="stroke:#181818;stroke-width:0.5;" x1="127.03" x2="268.03" y1="78.5" y2="78.5"/></g><!--class PublishRequestController--><g id="elem_PublishRequestController"><rect codeLine="13" fill="#F1F1F1" height="220.0469" id="PublishRequestController" rx="2.5" ry="2.5" style="stroke:#181818;stroke-width:0.5;" width="281" x="57.03" y="121.5"/><ellipse cx="112.78" cy="137.5" fill="#ADD1B2" rx="11" ry="11" style="stroke:#181818;stroke-width:1.0;"/><path d="M115.5456,133.375 Q115.7019,133.1563 115.8894,133.0469 Q116.0769,132.9375 116.2956,132.9375 Q116.6706,132.9375 116.905,133.2031 Q117.1394,133.4531 117.1394,134.0625 L117.1394,135.5156 Q117.1394,136.125 116.905,136.3906 Q116.6706,136.6563 116.2956,136.6563 Q115.9519,136.6563 115.7488,136.4531 Q115.5456,136.2656 115.4363,135.75 Q115.3894,135.3906 115.2019,135.2031 Q114.8738,134.8281 114.2644,134.6094 Q113.655,134.3906 113.03,134.3906 Q112.2644,134.3906 111.6238,134.7188 Q110.9988,135.0469 110.4988,135.7969 Q110.0144,136.5469 110.0144,137.5781 L110.0144,138.6719 Q110.0144,139.9063 110.905,140.7344 Q111.7956,141.5469 113.3894,141.5469 Q114.3269,141.5469 114.9831,141.2969 Q115.3738,141.1406 115.7956,140.7031 Q116.0613,140.4375 116.2019,140.3594 Q116.3581,140.2813 116.5613,140.2813 Q116.8894,140.2813 117.1394,140.5469 Q117.405,140.7969 117.405,141.1406 Q117.405,141.4844 117.0613,141.8906 Q116.5613,142.4688 115.7644,142.7969 Q114.6863,143.25 113.3894,143.25 Q111.8738,143.25 110.6706,142.625 Q109.6863,142.125 108.9988,141.0625 Q108.3113,139.9844 108.3113,138.7031 L108.3113,137.5469 Q108.3113,136.2188 108.9206,135.0781 Q109.5456,133.9219 110.6394,133.3125 Q111.7331,132.6875 112.9675,132.6875 Q113.7019,132.6875 114.3425,132.8594 Q114.9988,133.0156 115.5456,133.375 Z " fill="#000000"/><text fill="#000000" font-family="sans-serif" font-size="14" lengthAdjust="spacing" textLength="161" x="133.28" y="142.3535">PublishRequestController</text><line style="stroke:#181818;stroke-width:0.5;" x1="58.03" x2="337.03" y1="153.5" y2="153.5"/><text fill="#000000" font-family="sans-serif" font-size="14" lengthAdjust="spacing" textLength="144" x="63.03" y="170.1738">-comissionType: String</text><text fill="#000000" font-family="sans-serif" font-size="14" lengthAdjust="spacing" textLength="120" x="63.03" y="185.8145">-comission: Double</text><text fill="#000000" font-family="sans-serif" font-size="14" lengthAdjust="spacing" textLength="114" x="63.03" y="201.4551">-request: Request</text><line style="stroke:#181818;stroke-width:0.5;" x1="58.03" x2="337.03" y1="208.4219" y2="208.4219"/><text fill="#000000" font-family="sans-serif" font-size="14" lengthAdjust="spacing" textLength="120" x="63.03" y="225.0957">+getRequestsList()</text><text fill="#000000" font-family="sans-serif" font-size="14" lengthAdjust="spacing" textLength="162" x="63.03" y="240.7363">+getRequestInfo(request)</text><text fill="#000000" font-family="sans-serif" font-size="14" lengthAdjust="spacing" textLength="269" x="63.03" y="256.377">+saveDataComissionType(comissionType)</text><text fill="#000000" font-family="sans-serif" font-size="14" lengthAdjust="spacing" textLength="205" x="63.03" y="272.0176">+saveDataComission(comission)</text><text fill="#000000" font-family="sans-serif" font-size="14" lengthAdjust="spacing" textLength="153" x="63.03" y="287.6582">+createAnnouncement()</text><text fill="#000000" font-family="sans-serif" font-size="14" lengthAdjust="spacing" textLength="137" x="63.03" y="303.2988">+addAnnouncement()</text><text fill="#000000" font-family="sans-serif" font-size="14" lengthAdjust="spacing" textLength="82" x="63.03" y="318.9395">+saveEmail()</text><text fill="#000000" font-family="sans-serif" font-size="14" lengthAdjust="spacing" textLength="167" x="63.03" y="334.5801">+excludeRequest(request)</text></g><!--class Repositories--><g id="elem_Repositories"><rect codeLine="28" fill="#F1F1F1" height="94.9219" id="Repositories" rx="2.5" ry="2.5" style="stroke:#181818;stroke-width:0.5;" width="213" x="91.03" y="377"/><ellipse cx="153.78" cy="393" fill="#ADD1B2" rx="11" ry="11" style="stroke:#181818;stroke-width:1.0;"/><path d="M156.5456,388.875 Q156.7019,388.6563 156.8894,388.5469 Q157.0769,388.4375 157.2956,388.4375 Q157.6706,388.4375 157.905,388.7031 Q158.1394,388.9531 158.1394,389.5625 L158.1394,391.0156 Q158.1394,391.625 157.905,391.8906 Q157.6706,392.1563 157.2956,392.1563 Q156.9519,392.1563 156.7488,391.9531 Q156.5456,391.7656 156.4363,391.25 Q156.3894,390.8906 156.2019,390.7031 Q155.8738,390.3281 155.2644,390.1094 Q154.655,389.8906 154.03,389.8906 Q153.2644,389.8906 152.6238,390.2188 Q151.9988,390.5469 151.4988,391.2969 Q151.0144,392.0469 151.0144,393.0781 L151.0144,394.1719 Q151.0144,395.4063 151.905,396.2344 Q152.7956,397.0469 154.3894,397.0469 Q155.3269,397.0469 155.9831,396.7969 Q156.3738,396.6406 156.7956,396.2031 Q157.0613,395.9375 157.2019,395.8594 Q157.3581,395.7813 157.5613,395.7813 Q157.8894,395.7813 158.1394,396.0469 Q158.405,396.2969 158.405,396.6406 Q158.405,396.9844 158.0613,397.3906 Q157.5613,397.9688 156.7644,398.2969 Q155.6863,398.75 154.3894,398.75 Q152.8738,398.75 151.6706,398.125 Q150.6863,397.625 149.9988,396.5625 Q149.3113,395.4844 149.3113,394.2031 L149.3113,393.0469 Q149.3113,391.7188 149.9206,390.5781 Q150.5456,389.4219 151.6394,388.8125 Q152.7331,388.1875 153.9675,388.1875 Q154.7019,388.1875 155.3425,388.3594 Q155.9988,388.5156 156.5456,388.875 Z " fill="#000000"/><text fill="#000000" font-family="sans-serif" font-size="14" lengthAdjust="spacing" textLength="79" x="174.28" y="397.8535">Repositories</text><line style="stroke:#181818;stroke-width:0.5;" x1="92.03" x2="303.03" y1="409" y2="409"/><line style="stroke:#181818;stroke-width:0.5;" x1="92.03" x2="303.03" y1="417" y2="417"/><text fill="#000000" font-family="sans-serif" font-size="14" lengthAdjust="spacing" textLength="91" x="97.03" y="433.6738">+getInstance()</text><text fill="#000000" font-family="sans-serif" font-size="14" lengthAdjust="spacing" textLength="166" x="97.03" y="449.3145">+getRequestsRepository()</text><text fill="#000000" font-family="sans-serif" font-size="14" lengthAdjust="spacing" textLength="201" x="97.03" y="464.9551">+getAnnouncementRepository()</text></g><!--class RequestRepository--><g id="elem_RequestRepository"><rect codeLine="35" fill="#F1F1F1" height="94.9219" id="RequestRepository" rx="2.5" ry="2.5" style="stroke:#181818;stroke-width:0.5;" width="179" x="108.03" y="507"/><ellipse cx="134.73" cy="523" fill="#ADD1B2" rx="11" ry="11" style="stroke:#181818;stroke-width:1.0;"/><path d="M137.4956,518.875 Q137.6519,518.6563 137.8394,518.5469 Q138.0269,518.4375 138.2456,518.4375 Q138.6206,518.4375 138.855,518.7031 Q139.0894,518.9531 139.0894,519.5625 L139.0894,521.0156 Q139.0894,521.625 138.855,521.8906 Q138.6206,522.1563 138.2456,522.1563 Q137.9019,522.1563 137.6988,521.9531 Q137.4956,521.7656 137.3863,521.25 Q137.3394,520.8906 137.1519,520.7031 Q136.8238,520.3281 136.2144,520.1094 Q135.605,519.8906 134.98,519.8906 Q134.2144,519.8906 133.5738,520.2188 Q132.9488,520.5469 132.4488,521.2969 Q131.9644,522.0469 131.9644,523.0781 L131.9644,524.1719 Q131.9644,525.4063 132.855,526.2344 Q133.7456,527.0469 135.3394,527.0469 Q136.2769,527.0469 136.9331,526.7969 Q137.3238,526.6406 137.7456,526.2031 Q138.0113,525.9375 138.1519,525.8594 Q138.3081,525.7813 138.5113,525.7813 Q138.8394,525.7813 139.0894,526.0469 Q139.355,526.2969 139.355,526.6406 Q139.355,526.9844 139.0113,527.3906 Q138.5113,527.9688 137.7144,528.2969 Q136.6363,528.75 135.3394,528.75 Q133.8238,528.75 132.6206,528.125 Q131.6363,527.625 130.9488,526.5625 Q130.2613,525.4844 130.2613,524.2031 L130.2613,523.0469 Q130.2613,521.7188 130.8706,520.5781 Q131.4956,519.4219 132.5894,518.8125 Q133.6831,518.1875 134.9175,518.1875 Q135.6519,518.1875 136.2925,518.3594 Q136.9488,518.5156 137.4956,518.875 Z " fill="#000000"/><text fill="#000000" font-family="sans-serif" font-size="14" lengthAdjust="spacing" textLength="121" x="151.33" y="527.8535">RequestRepository</text><line style="stroke:#181818;stroke-width:0.5;" x1="109.03" x2="286.03" y1="539" y2="539"/><line style="stroke:#181818;stroke-width:0.5;" x1="109.03" x2="286.03" y1="547" y2="547"/><text fill="#000000" font-family="sans-serif" font-size="14" lengthAdjust="spacing" textLength="98" x="114.03" y="563.6738">+getRequests()</text><text fill="#000000" font-family="sans-serif" font-size="14" lengthAdjust="spacing" textLength="139" x="114.03" y="579.3145">+getRequest(request)</text><text fill="#000000" font-family="sans-serif" font-size="14" lengthAdjust="spacing" textLength="167" x="114.03" y="594.9551">+excludeRequest(request)</text></g><!--class AnnouncementRepository--><g id="elem_AnnouncementRepository"><rect codeLine="42" fill="#F1F1F1" height="63.6406" id="AnnouncementRepository" rx="2.5" ry="2.5" style="stroke:#181818;stroke-width:0.5;" width="195" x="398.03" y="199.5"/><ellipse cx="413.03" cy="215.5" fill="#ADD1B2" rx="11" ry="11" style="stroke:#181818;stroke-width:1.0;"/><path d="M415.7956,211.375 Q415.9519,211.1563 416.1394,211.0469 Q416.3269,210.9375 416.5456,210.9375 Q416.9206,210.9375 417.155,211.2031 Q417.3894,211.4531 417.3894,212.0625 L417.3894,213.5156 Q417.3894,214.125 417.155,214.3906 Q416.9206,214.6563 416.5456,214.6563 Q416.2019,214.6563 415.9988,214.4531 Q415.7956,214.2656 415.6863,213.75 Q415.6394,213.3906 415.4519,213.2031 Q415.1238,212.8281 414.5144,212.6094 Q413.905,212.3906 413.28,212.3906 Q412.5144,212.3906 411.8738,212.7188 Q411.2488,213.0469 410.7488,213.7969 Q410.2644,214.5469 410.2644,215.5781 L410.2644,216.6719 Q410.2644,217.9063 411.155,218.7344 Q412.0456,219.5469 413.6394,219.5469 Q414.5769,219.5469 415.2331,219.2969 Q415.6238,219.1406 416.0456,218.7031 Q416.3113,218.4375 416.4519,218.3594 Q416.6081,218.2813 416.8113,218.2813 Q417.1394,218.2813 417.3894,218.5469 Q417.655,218.7969 417.655,219.1406 Q417.655,219.4844 417.3113,219.8906 Q416.8113,220.4688 416.0144,220.7969 Q414.9363,221.25 413.6394,221.25 Q412.1238,221.25 410.9206,220.625 Q409.9363,220.125 409.2488,219.0625 Q408.5613,217.9844 408.5613,216.7031 L408.5613,215.5469 Q408.5613,214.2188 409.1706,213.0781 Q409.7956,211.9219 410.8894,211.3125 Q411.9831,210.6875 413.2175,210.6875 Q413.9519,210.6875 414.5925,210.8594 Q415.2488,211.0156 415.7956,211.375 Z " fill="#000000"/><text fill="#000000" font-family="sans-serif" font-size="14" lengthAdjust="spacing" textLength="163" x="427.03" y="220.3535">AnnouncementRepository</text><line style="stroke:#181818;stroke-width:0.5;" x1="399.03" x2="592.03" y1="231.5" y2="231.5"/><line style="stroke:#181818;stroke-width:0.5;" x1="399.03" x2="592.03" y1="239.5" y2="239.5"/><text fill="#000000" font-family="sans-serif" font-size="14" lengthAdjust="spacing" textLength="137" x="404.03" y="256.1738">+addAnnouncement()</text></g><!--class Announcement--><g id="elem_Announcement"><rect codeLine="48" fill="#F1F1F1" height="126.2031" id="Announcement" rx="2.5" ry="2.5" style="stroke:#181818;stroke-width:0.5;" width="190" x="400.53" y="298.5"/><ellipse cx="443.88" cy="314.5" fill="#ADD1B2" rx="11" ry="11" style="stroke:#181818;stroke-width:1.0;"/><path d="M446.6456,310.375 Q446.8019,310.1563 446.9894,310.0469 Q447.1769,309.9375 447.3956,309.9375 Q447.7706,309.9375 448.005,310.2031 Q448.2394,310.4531 448.2394,311.0625 L448.2394,312.5156 Q448.2394,313.125 448.005,313.3906 Q447.7706,313.6563 447.3956,313.6563 Q447.0519,313.6563 446.8488,313.4531 Q446.6456,313.2656 446.5363,312.75 Q446.4894,312.3906 446.3019,312.2031 Q445.9738,311.8281 445.3644,311.6094 Q444.755,311.3906 444.13,311.3906 Q443.3644,311.3906 442.7238,311.7188 Q442.0988,312.0469 441.5988,312.7969 Q441.1144,313.5469 441.1144,314.5781 L441.1144,315.6719 Q441.1144,316.9063 442.005,317.7344 Q442.8956,318.5469 444.4894,318.5469 Q445.4269,318.5469 446.0831,318.2969 Q446.4738,318.1406 446.8956,317.7031 Q447.1613,317.4375 447.3019,317.3594 Q447.4581,317.2813 447.6613,317.2813 Q447.9894,317.2813 448.2394,317.5469 Q448.505,317.7969 448.505,318.1406 Q448.505,318.4844 448.1613,318.8906 Q447.6613,319.4688 446.8644,319.7969 Q445.7863,320.25 444.4894,320.25 Q442.9738,320.25 441.7706,319.625 Q440.7863,319.125 440.0988,318.0625 Q439.4113,316.9844 439.4113,315.7031 L439.4113,314.5469 Q439.4113,313.2188 440.0206,312.0781 Q440.6456,310.9219 441.7394,310.3125 Q442.8331,309.6875 444.0675,309.6875 Q444.8019,309.6875 445.4425,309.8594 Q446.0988,310.0156 446.6456,310.375 Z " fill="#000000"/><text fill="#000000" font-family="sans-serif" font-size="14" lengthAdjust="spacing" textLength="95" x="464.18" y="319.3535">Announcement</text><line style="stroke:#181818;stroke-width:0.5;" x1="401.53" x2="589.53" y1="330.5" y2="330.5"/><text fill="#000000" font-family="sans-serif" font-size="14" lengthAdjust="spacing" textLength="105" x="406.53" y="347.1738">-date: LocalDate</text><text fill="#000000" font-family="sans-serif" font-size="14" lengthAdjust="spacing" textLength="120" x="406.53" y="362.8145">-property: Property</text><text fill="#000000" font-family="sans-serif" font-size="14" lengthAdjust="spacing" textLength="144" x="406.53" y="378.4551">-comissionType: String</text><text fill="#000000" font-family="sans-serif" font-size="14" lengthAdjust="spacing" textLength="120" x="406.53" y="394.0957">-comission: Double</text><text fill="#000000" font-family="sans-serif" font-size="14" lengthAdjust="spacing" textLength="178" x="406.53" y="409.7363">-requestType: RequestType</text><line style="stroke:#181818;stroke-width:0.5;" x1="401.53" x2="589.53" y1="416.7031" y2="416.7031"/></g><!--class Agent--><g id="elem_Agent"><rect codeLine="57" fill="#F1F1F1" height="157.4844" id="Agent" rx="2.5" ry="2.5" style="stroke:#181818;stroke-width:0.5;" width="188" x="401.53" y="7"/><ellipse cx="472.78" cy="23" fill="#ADD1B2" rx="11" ry="11" style="stroke:#181818;stroke-width:1.0;"/><path d="M475.5456,18.875 Q475.7019,18.6563 475.8894,18.5469 Q476.0769,18.4375 476.2956,18.4375 Q476.6706,18.4375 476.905,18.7031 Q477.1394,18.9531 477.1394,19.5625 L477.1394,21.0156 Q477.1394,21.625 476.905,21.8906 Q476.6706,22.1563 476.2956,22.1563 Q475.9519,22.1563 475.7488,21.9531 Q475.5456,21.7656 475.4363,21.25 Q475.3894,20.8906 475.2019,20.7031 Q474.8738,20.3281 474.2644,20.1094 Q473.655,19.8906 473.03,19.8906 Q472.2644,19.8906 471.6238,20.2188 Q470.9988,20.5469 470.4988,21.2969 Q470.0144,22.0469 470.0144,23.0781 L470.0144,24.1719 Q470.0144,25.4063 470.905,26.2344 Q471.7956,27.0469 473.3894,27.0469 Q474.3269,27.0469 474.9831,26.7969 Q475.3738,26.6406 475.7956,26.2031 Q476.0613,25.9375 476.2019,25.8594 Q476.3581,25.7813 476.5613,25.7813 Q476.8894,25.7813 477.1394,26.0469 Q477.405,26.2969 477.405,26.6406 Q477.405,26.9844 477.0613,27.3906 Q476.5613,27.9688 475.7644,28.2969 Q474.6863,28.75 473.3894,28.75 Q471.8738,28.75 470.6706,28.125 Q469.6863,27.625 468.9988,26.5625 Q468.3113,25.4844 468.3113,24.2031 L468.3113,23.0469 Q468.3113,21.7188 468.9206,20.5781 Q469.5456,19.4219 470.6394,18.8125 Q471.7331,18.1875 472.9675,18.1875 Q473.7019,18.1875 474.3425,18.3594 Q474.9988,18.5156 475.5456,18.875 Z " fill="#000000"/><text fill="#000000" font-family="sans-serif" font-size="14" lengthAdjust="spacing" textLength="37" x="493.28" y="27.8535">Agent</text><line style="stroke:#181818;stroke-width:0.5;" x1="402.53" x2="588.53" y1="39" y2="39"/><text fill="#000000" font-family="sans-serif" font-size="14" lengthAdjust="spacing" textLength="85" x="407.53" y="55.6738">-name: String</text><text fill="#000000" font-family="sans-serif" font-size="14" lengthAdjust="spacing" textLength="176" x="407.53" y="71.3145">-citizenCardNumber: Integer</text><text fill="#000000" font-family="sans-serif" font-size="14" lengthAdjust="spacing" textLength="124" x="407.53" y="86.9551">-taxNumber: Integer</text><text fill="#000000" font-family="sans-serif" font-size="14" lengthAdjust="spacing" textLength="93" x="407.53" y="102.5957">-adress: String</text><text fill="#000000" font-family="sans-serif" font-size="14" lengthAdjust="spacing" textLength="83" x="407.53" y="118.2363">-email: String</text><text fill="#000000" font-family="sans-serif" font-size="14" lengthAdjust="spacing" textLength="146" x="407.53" y="133.877">-phoneNumber: Integer</text><text fill="#000000" font-family="sans-serif" font-size="14" lengthAdjust="spacing" textLength="96" x="407.53" y="149.5176">-agency: String</text><line style="stroke:#181818;stroke-width:0.5;" x1="402.53" x2="588.53" y1="156.4844" y2="156.4844"/></g><!--class Request--><g id="elem_Request"><rect codeLine="68" fill="#F1F1F1" height="141.8438" id="Request" rx="2.5" ry="2.5" style="stroke:#181818;stroke-width:0.5;" width="190" x="400.53" y="471.5"/><ellipse cx="464.78" cy="487.5" fill="#ADD1B2" rx="11" ry="11" style="stroke:#181818;stroke-width:1.0;"/><path d="M467.5456,483.375 Q467.7019,483.1563 467.8894,483.0469 Q468.0769,482.9375 468.2956,482.9375 Q468.6706,482.9375 468.905,483.2031 Q469.1394,483.4531 469.1394,484.0625 L469.1394,485.5156 Q469.1394,486.125 468.905,486.3906 Q468.6706,486.6563 468.2956,486.6563 Q467.9519,486.6563 467.7488,486.4531 Q467.5456,486.2656 467.4363,485.75 Q467.3894,485.3906 467.2019,485.2031 Q466.8738,484.8281 466.2644,484.6094 Q465.655,484.3906 465.03,484.3906 Q464.2644,484.3906 463.6238,484.7188 Q462.9988,485.0469 462.4988,485.7969 Q462.0144,486.5469 462.0144,487.5781 L462.0144,488.6719 Q462.0144,489.9063 462.905,490.7344 Q463.7956,491.5469 465.3894,491.5469 Q466.3269,491.5469 466.9831,491.2969 Q467.3738,491.1406 467.7956,490.7031 Q468.0613,490.4375 468.2019,490.3594 Q468.3581,490.2813 468.5613,490.2813 Q468.8894,490.2813 469.1394,490.5469 Q469.405,490.7969 469.405,491.1406 Q469.405,491.4844 469.0613,491.8906 Q468.5613,492.4688 467.7644,492.7969 Q466.6863,493.25 465.3894,493.25 Q463.8738,493.25 462.6706,492.625 Q461.6863,492.125 460.9988,491.0625 Q460.3113,489.9844 460.3113,488.7031 L460.3113,487.5469 Q460.3113,486.2188 460.9206,485.0781 Q461.5456,483.9219 462.6394,483.3125 Q463.7331,482.6875 464.9675,482.6875 Q465.7019,482.6875 466.3425,482.8594 Q466.9988,483.0156 467.5456,483.375 Z " fill="#000000"/><text fill="#000000" font-family="sans-serif" font-size="14" lengthAdjust="spacing" textLength="53" x="485.28" y="492.3535">Request</text><line style="stroke:#181818;stroke-width:0.5;" x1="401.53" x2="589.53" y1="503.5" y2="503.5"/><text fill="#000000" font-family="sans-serif" font-size="14" lengthAdjust="spacing" textLength="120" x="406.53" y="520.1738">-Property: property</text><text fill="#000000" font-family="sans-serif" font-size="14" lengthAdjust="spacing" textLength="89" x="406.53" y="535.8145">-price: Double</text><text fill="#000000" font-family="sans-serif" font-size="14" lengthAdjust="spacing" textLength="178" x="406.53" y="551.4551">-requestType: RequestType</text><text fill="#000000" font-family="sans-serif" font-size="14" lengthAdjust="spacing" textLength="86" x="406.53" y="567.0957">-agent: Agent</text><text fill="#000000" font-family="sans-serif" font-size="14" lengthAdjust="spacing" textLength="79" x="406.53" y="582.7363">-store: Store</text><text fill="#000000" font-family="sans-serif" font-size="14" lengthAdjust="spacing" textLength="92" x="406.53" y="598.377">-owner: Owner</text><line style="stroke:#181818;stroke-width:0.5;" x1="401.53" x2="589.53" y1="605.3438" y2="605.3438"/></g><!--link PublishRequestUI to PublishRequestController--><g id="link_PublishRequestUI_PublishRequestController"><path codeLine="78" d="M197.53,86.83 C197.53,96.6 197.53,106.37 197.53,116.14 " fill="none" id="PublishRequestUI-to-PublishRequestController" style="stroke:#181818;stroke-width:1.0;"/><polygon fill="#181818" points="197.53,121.25,201.53,112.25,197.53,116.25,193.53,112.25,197.53,121.25" style="stroke:#181818;stroke-width:1.0;"/></g><!--link PublishRequestController to Repositories--><g id="link_PublishRequestController_Repositories"><path codeLine="79" d="M197.53,341.76 C197.53,351.66 197.53,361.56 197.53,371.45 " fill="none" id="PublishRequestController-to-Repositories" style="stroke:#181818;stroke-width:1.0;"/><polygon fill="#181818" points="197.53,376.63,201.53,367.63,197.53,371.63,193.53,367.63,197.53,376.63" style="stroke:#181818;stroke-width:1.0;"/></g><!--link Repositories to AnnouncementRepository--><g id="link_Repositories_AnnouncementRepository"><path codeLine="80" d="M304.24,381.2 C316.15,374.4 327.7,366.82 338.03,358.5 C372.08,331.05 364.36,308.42 398.03,280.5 C404.19,275.38 410.99,270.61 418.02,266.21 " fill="none" id="Repositories-to-AnnouncementRepository" style="stroke:#181818;stroke-width:1.0;"/><polygon fill="#181818" points="422.43,263.52,412.6624,264.7827,418.159,266.1197,416.822,271.6163,422.43,263.52" style="stroke:#181818;stroke-width:1.0;"/></g><!--link Repositories to RequestRepository--><g id="link_Repositories_RequestRepository"><path codeLine="81" d="M197.53,472.06 C197.53,481.91 197.53,491.76 197.53,501.61 " fill="none" id="Repositories-to-RequestRepository" style="stroke:#181818;stroke-width:1.0;"/><polygon fill="#181818" points="197.53,506.77,201.53,497.77,197.53,501.77,193.53,497.77,197.53,506.77" style="stroke:#181818;stroke-width:1.0;"/></g><!--link Agent to Announcement--><g id="link_Agent_Announcement"><path codeLine="82" d="M401.36,151.74 C387.83,165.7 375.85,181.56 368.03,199 C356.38,224.95 355.49,237.47 368.03,263 C374.95,277.1 384.97,289.75 396.4,300.91 " fill="none" id="Agent-to-Announcement" style="stroke:#181818;stroke-width:1.0;"/><polygon fill="#181818" points="400.32,304.64,396.5444,295.5436,396.6929,301.1985,391.038,301.347,400.32,304.64" style="stroke:#181818;stroke-width:1.0;"/></g><!--link AnnouncementRepository to Announcement--><g id="link_AnnouncementRepository_Announcement"><path codeLine="83" d="M495.53,263.58 C495.53,273.43 495.53,283.28 495.53,293.13 " fill="none" id="AnnouncementRepository-to-Announcement" style="stroke:#181818;stroke-width:1.0;"/><polygon fill="#181818" points="495.53,298.28,499.53,289.28,495.53,293.28,491.53,289.28,495.53,298.28" style="stroke:#181818;stroke-width:1.0;"/><text fill="#000000" font-family="sans-serif" font-size="13" lengthAdjust="spacing" textLength="21" x="473.3159" y="287.9479">has</text></g><!--link RequestRepository to Request--><g id="link_RequestRepository_Request"><path codeLine="84" d="M287.34,550.9 C321.34,549.52 360.33,547.94 395.25,546.52 " fill="none" id="RequestRepository-to-Request" style="stroke:#181818;stroke-width:1.0;"/><polygon fill="#181818" points="400.38,546.32,391.2273,542.6829,395.384,546.5198,391.5471,550.6765,400.38,546.32" style="stroke:#181818;stroke-width:1.0;"/><text fill="#000000" font-family="sans-serif" font-size="13" lengthAdjust="spacing" textLength="21" x="371.6213" y="558.9081">has</text></g><!--link PublishRequestController to Announcement--><g id="link_PublishRequestController_Announcement"><path codeLine="85" d="M338.29,292.88 C357.61,301.37 377.12,309.94 395.49,318 " fill="none" id="PublishRequestController-to-Announcement" style="stroke:#181818;stroke-width:1.0;"/><polygon fill="#181818" points="400.14,320.04,393.5086,312.7582,395.5622,318.0292,390.2912,320.0828,400.14,320.04" style="stroke:#181818;stroke-width:1.0;"/></g><!--link PublishRequestController to AnnouncementRepository--><g id="link_PublishRequestController_AnnouncementRepository"><path codeLine="86" d="M338.29,231.5 C356.61,231.5 375.09,231.5 392.61,231.5 " fill="none" id="PublishRequestController-to-AnnouncementRepository" style="stroke:#181818;stroke-width:1.0;stroke-dasharray:7.0,7.0;"/><polygon fill="#181818" points="398.02,231.5,389.02,227.5,393.02,231.5,389.02,235.5,398.02,231.5" style="stroke:#181818;stroke-width:1.0;"/></g><!--link PublishRequestController to RequestRepository--><g id="link_PublishRequestController_RequestRepository"><path codeLine="87" d="M56.7,331.78 C44.83,345.63 34.52,360.75 27.03,377 C9.34,415.34 6,435.39 27.03,472 C43.43,500.56 73.09,519.39 103.12,531.75 " fill="none" id="PublishRequestController-to-RequestRepository" style="stroke:#181818;stroke-width:1.0;stroke-dasharray:7.0,7.0;"/><polygon fill="#181818" points="107.95,533.68,101.0793,526.6236,103.3076,531.823,98.1081,534.0514,107.95,533.68" style="stroke:#181818;stroke-width:1.0;"/></g><!--link PublishRequestController to Request--><g id="link_PublishRequestController_Request"><path codeLine="88" d="M321.66,341.82 C327.3,347.69 332.78,353.61 338.03,359.5 C368.28,393.51 368.82,407.59 398.03,442.5 C404.88,450.69 412.25,459.04 419.75,467.24 " fill="none" id="PublishRequestController-to-Request" style="stroke:#181818;stroke-width:1.0;"/><polygon fill="#181818" points="423.44,471.26,420.2973,461.926,420.0575,467.5778,414.4057,467.338,423.44,471.26" style="stroke:#181818;stroke-width:1.0;"/></g><!--SRC=[fLHDZvim4BtpAwozD5MLLSySAgsoFI2jsYXfVu1Z9c2jyL1xw2wj-jzhWo7cQtie5_3CcpTldctUsMUfQsvunIhKA4g35J0o3IItJCt5Co_WJAq2Pa0GruMA0RRaERv8NR0hLpREAAc1sXfOZQhrYxKS6i8aIWZ5hNqWClBI46G2zLd-0lOnIHHSYH4o8ukIM2wz68awIReITcmkIjho13yQiFGzMuyVK9D1fS0alnFcdht0IbhhYBuvEIaxkywwcALIzeYE1lgmwQbI5ZYxw8S2AApjaxIqUpyFP_gAkr0RafR_X4TE_11hs4qKRI5lg80G1ZZ1WzROQ04Lw542p_EriAVyN76fXW2y2jNa4EJUfFuPh3n1ZLOI6WassEVdoxHrfqB0ScGxLhHHCXOp0KIDkl9RCkesK2-xpSpzvpZhEePMIzVMAuTpb3ltK_Q4WYktKU6er0PhCDIcx1Y-_lFGzVZJRH69AY8rcbTpNadk8ka3D_cNfhg0ILcc2Gft4xeyyTVLECyDM3lb0dzifg6wH0th14wNQ4Uqqtk8DpaePllZw5KTU-LDb08cRhnX1njxkWlQMzA7hDlSpXBt2Y5yqLxjL__okkQ_4BR_jFtxs4hueib5YHS-kN7ivh3b7UYccJCawtGUTbToUpS5BqZPVWGE-x4zsBpr9lB-VdFCxPgraT_KCWXE_W80]--></g></svg>