<?xml version="1.0" encoding="us-ascii" standalone="no"?><svg xmlns="http://www.w3.org/2000/svg" xmlns:xlink="http://www.w3.org/1999/xlink" contentStyleType="text/css" height="1383px" preserveAspectRatio="none" style="width:573px;height:1383px;background:#FFFFFF;" version="1.1" viewBox="0 0 573 1383" width="573px" zoomAndPan="magnify"><defs/><g><text fill="#000000" font-family="sans-serif" font-size="14" font-weight="bold" lengthAdjust="spacing" textLength="156" x="201.8989" y="22.6738">US017 - Domain Model</text><!--class Address--><g id="elem_Address"><rect codeLine="69" fill="#F1F1F1" height="127.4844" id="Address" rx="2.5" ry="2.5" style="stroke:#181818;stroke-width:0.5;" width="100" x="362.2978" y="826.6406"/><text fill="#000000" font-family="sans-serif" font-size="14" lengthAdjust="spacing" textLength="52" x="386.2978" y="844.3145">Address</text><line style="stroke:#181818;stroke-width:0.5;" x1="363.2978" x2="461.2978" y1="852.2813" y2="852.2813"/><text fill="#000000" font-family="sans-serif" font-size="14" lengthAdjust="spacing" textLength="88" x="368.2978" y="868.9551">streetAddress</text><text fill="#000000" font-family="sans-serif" font-size="14" lengthAdjust="spacing" textLength="51" x="368.2978" y="884.5957">zipCode</text><text fill="#000000" font-family="sans-serif" font-size="14" lengthAdjust="spacing" textLength="88" x="368.2978" y="900.2363">streetAddress</text><text fill="#000000" font-family="sans-serif" font-size="14" lengthAdjust="spacing" textLength="78" x="368.2978" y="915.877">doorNumber</text><text fill="#000000" font-family="sans-serif" font-size="14" lengthAdjust="spacing" textLength="77" x="368.2978" y="931.5176">floorNumber</text><text fill="#000000" font-family="sans-serif" font-size="14" lengthAdjust="spacing" textLength="51" x="368.2978" y="947.1582">zipCode</text></g><!--class State--><g id="elem_State"><rect codeLine="76" fill="#F1F1F1" height="64.9219" id="State" rx="2.5" ry="2.5" style="stroke:#181818;stroke-width:0.5;" width="79" x="372.7978" y="1311.6406"/><text fill="#000000" font-family="sans-serif" font-size="14" lengthAdjust="spacing" textLength="33" x="395.7978" y="1329.3145">State</text><line style="stroke:#181818;stroke-width:0.5;" x1="373.7978" x2="450.7978" y1="1337.2813" y2="1337.2813"/><text fill="#000000" font-family="sans-serif" font-size="14" lengthAdjust="spacing" textLength="67" x="378.7978" y="1353.9551">stateName</text><text fill="#000000" font-family="sans-serif" font-size="14" lengthAdjust="spacing" textLength="67" x="378.7978" y="1369.5957">stateName</text></g><!--class District--><g id="elem_District"><rect codeLine="80" fill="#F1F1F1" height="64.9219" id="District" rx="2.5" ry="2.5" style="stroke:#181818;stroke-width:0.5;" width="89" x="367.7978" y="1170.6406"/><text fill="#000000" font-family="sans-serif" font-size="14" lengthAdjust="spacing" textLength="43" x="390.7978" y="1188.3145">District</text><line style="stroke:#181818;stroke-width:0.5;" x1="368.7978" x2="455.7978" y1="1196.2813" y2="1196.2813"/><text fill="#000000" font-family="sans-serif" font-size="14" lengthAdjust="spacing" textLength="77" x="373.7978" y="1212.9551">districtName</text><text fill="#000000" font-family="sans-serif" font-size="14" lengthAdjust="spacing" textLength="77" x="373.7978" y="1228.5957">districtName</text></g><!--class City--><g id="elem_City"><rect codeLine="84" fill="#F1F1F1" height="64.9219" id="City" rx="2.5" ry="2.5" style="stroke:#181818;stroke-width:0.5;" width="69" x="377.7978" y="1029.6406"/><text fill="#000000" font-family="sans-serif" font-size="14" lengthAdjust="spacing" textLength="24" x="400.2978" y="1047.3145">City</text><line style="stroke:#181818;stroke-width:0.5;" x1="378.7978" x2="445.7978" y1="1055.2813" y2="1055.2813"/><text fill="#000000" font-family="sans-serif" font-size="14" lengthAdjust="spacing" textLength="57" x="383.7978" y="1071.9551">cityName</text><text fill="#000000" font-family="sans-serif" font-size="14" lengthAdjust="spacing" textLength="57" x="383.7978" y="1087.5957">cityName</text></g><!--class Agent--><g id="elem_Agent"><rect codeLine="29" fill="#F1F1F1" height="33.6406" id="Agent" rx="2.5" ry="2.5" style="stroke:#181818;stroke-width:0.5;" width="43" x="383.7978" y="138.6406"/><text fill="#000000" font-family="sans-serif" font-size="14" lengthAdjust="spacing" textLength="37" x="386.7978" y="156.3145">Agent</text><line style="stroke:#181818;stroke-width:0.5;" x1="384.7978" x2="425.7978" y1="164.2813" y2="164.2813"/></g><!--class Employee--><g id="elem_Employee"><rect codeLine="91" fill="#F1F1F1" height="127.4844" id="Employee" rx="2.5" ry="2.5" style="stroke:#181818;stroke-width:0.5;" width="101" x="320.7978" y="435.6406"/><text fill="#000000" font-family="sans-serif" font-size="14" lengthAdjust="spacing" textLength="62" x="340.2978" y="453.3145">Employee</text><line style="stroke:#181818;stroke-width:0.5;" x1="321.7978" x2="420.7978" y1="461.2813" y2="461.2813"/><text fill="#000000" font-family="sans-serif" font-size="14" lengthAdjust="spacing" textLength="35" x="326.7978" y="477.9551">name</text><text fill="#000000" font-family="sans-serif" font-size="14" lengthAdjust="spacing" textLength="85" x="326.7978" y="493.5957">emailAddress</text><text fill="#000000" font-family="sans-serif" font-size="14" lengthAdjust="spacing" textLength="89" x="326.7978" y="509.2363">phoneNumber</text><text fill="#000000" font-family="sans-serif" font-size="14" lengthAdjust="spacing" textLength="35" x="326.7978" y="524.877">name</text><text fill="#000000" font-family="sans-serif" font-size="14" lengthAdjust="spacing" textLength="85" x="326.7978" y="540.5176">emailAddress</text><text fill="#000000" font-family="sans-serif" font-size="14" lengthAdjust="spacing" textLength="89" x="326.7978" y="556.1582">phoneNumber</text></g><!--class Order--><g id="elem_Order"><rect codeLine="38" fill="#F1F1F1" height="96.2031" id="Order" rx="2.5" ry="2.5" style="stroke:#181818;stroke-width:0.5;" width="95" x="87.7978" y="263.6406"/><text fill="#000000" font-family="sans-serif" font-size="14" lengthAdjust="spacing" textLength="37" x="116.7978" y="281.3145">Order</text><line style="stroke:#181818;stroke-width:0.5;" x1="88.7978" x2="181.7978" y1="289.2813" y2="289.2813"/><text fill="#000000" font-family="sans-serif" font-size="14" lengthAdjust="spacing" textLength="66" x="93.7978" y="305.9551">orderPrice</text><text fill="#000000" font-family="sans-serif" font-size="14" lengthAdjust="spacing" textLength="28" x="93.7978" y="321.5957">date</text><text fill="#000000" font-family="sans-serif" font-size="14" lengthAdjust="spacing" textLength="83" x="93.7978" y="337.2363">orderNumber</text><text fill="#000000" font-family="sans-serif" font-size="14" lengthAdjust="spacing" textLength="52" x="93.7978" y="352.877">decision</text></g><!--class Announcement--><g id="elem_Announcement"><rect codeLine="45" fill="#F1F1F1" height="80.5625" id="Announcement" rx="2.5" ry="2.5" style="stroke:#181818;stroke-width:0.5;" width="106" x="170.2978" y="458.6406"/><text fill="#000000" font-family="sans-serif" font-size="14" lengthAdjust="spacing" textLength="95" x="175.7978" y="476.3145">Announcement</text><line style="stroke:#181818;stroke-width:0.5;" x1="171.2978" x2="275.2978" y1="484.2813" y2="484.2813"/><text fill="#000000" font-family="sans-serif" font-size="14" lengthAdjust="spacing" textLength="94" x="176.2978" y="500.9551">comissionType</text><text fill="#000000" font-family="sans-serif" font-size="14" lengthAdjust="spacing" textLength="62" x="176.2978" y="516.5957">comission</text><text fill="#000000" font-family="sans-serif" font-size="14" lengthAdjust="spacing" textLength="28" x="176.2978" y="532.2363">date</text></g><!--class Client--><g id="elem_Client"><rect codeLine="51" fill="#F1F1F1" height="33.6406" id="Client" rx="2.5" ry="2.5" style="stroke:#181818;stroke-width:0.5;" width="42" x="131.2978" y="138.6406"/><text fill="#000000" font-family="sans-serif" font-size="14" lengthAdjust="spacing" textLength="36" x="134.2978" y="156.3145">Client</text><line style="stroke:#181818;stroke-width:0.5;" x1="132.2978" x2="172.2978" y1="164.2813" y2="164.2813"/></g><!--class Property--><g id="elem_Property"><rect codeLine="54" fill="#F1F1F1" height="111.8438" id="Property" rx="2.5" ry="2.5" style="stroke:#181818;stroke-width:0.5;" width="165" x="234.7978" y="638.6406"/><text fill="#000000" font-family="sans-serif" font-size="14" lengthAdjust="spacing" textLength="54" x="290.2978" y="656.3145">Property</text><line style="stroke:#181818;stroke-width:0.5;" x1="235.7978" x2="398.7978" y1="664.2813" y2="664.2813"/><text fill="#000000" font-family="sans-serif" font-size="14" lengthAdjust="spacing" textLength="29" x="240.7978" y="680.9551">area</text><text fill="#000000" font-family="sans-serif" font-size="14" lengthAdjust="spacing" textLength="31" x="240.7978" y="696.5957">price</text><text fill="#000000" font-family="sans-serif" font-size="14" lengthAdjust="spacing" textLength="153" x="240.7978" y="712.2363">distanceFromCityCenter</text><text fill="#000000" font-family="sans-serif" font-size="14" lengthAdjust="spacing" textLength="85" x="240.7978" y="727.877">propertyType</text><text fill="#000000" font-family="sans-serif" font-size="14" lengthAdjust="spacing" textLength="95" x="240.7978" y="743.5176">photographList</text></g><!--class Store--><g id="elem_Store"><rect codeLine="62" fill="#F1F1F1" height="96.2031" id="Store" rx="2.5" ry="2.5" style="stroke:#181818;stroke-width:0.5;" width="101" x="465.7978" y="263.6406"/><text fill="#000000" font-family="sans-serif" font-size="14" lengthAdjust="spacing" textLength="34" x="499.2978" y="281.3145">Store</text><line style="stroke:#181818;stroke-width:0.5;" x1="466.7978" x2="565.7978" y1="289.2813" y2="289.2813"/><text fill="#000000" font-family="sans-serif" font-size="14" lengthAdjust="spacing" textLength="73" x="471.7978" y="305.9551">designation</text><text fill="#000000" font-family="sans-serif" font-size="14" lengthAdjust="spacing" textLength="89" x="471.7978" y="321.5957">phoneNumber</text><text fill="#000000" font-family="sans-serif" font-size="14" lengthAdjust="spacing" textLength="85" x="471.7978" y="337.2363">emailAddress</text><text fill="#000000" font-family="sans-serif" font-size="14" lengthAdjust="spacing" textLength="13" x="471.7978" y="352.877">ID</text></g><!--class NetworkManager--><g id="elem_NetworkManager"><rect codeLine="88" fill="#F1F1F1" height="33.6406" id="NetworkManager" rx="2.5" ry="2.5" style="stroke:#181818;stroke-width:0.5;" width="112" x="180.2978" y="43.6406"/><text fill="#000000" font-family="sans-serif" font-size="14" lengthAdjust="spacing" textLength="106" x="183.2978" y="61.3145">NetworkManager</text><line style="stroke:#181818;stroke-width:0.5;" x1="181.2978" x2="291.2978" y1="69.2813" y2="69.2813"/></g><!--link Store to Address--><g id="link_Store_Address"><path codeLine="97" d="M507.7878,359.8206 C489.1378,463.2206 444.6478,709.8306 423.6478,826.2506 " fill="none" id="Store-Address" style="stroke:#181818;stroke-width:1.0;"/><polygon fill="#000000" points="469.4102,605.8229,473.9081,597.4432,468.1237,596.3998,469.4102,605.8229" style="stroke:#000000;stroke-width:1.0;"/><text fill="#000000" font-family="sans-serif" font-size="13" lengthAdjust="spacing" textLength="21" x="479.2978" y="605.4092">has</text><text fill="#000000" font-family="sans-serif" font-size="13" lengthAdjust="spacing" textLength="7" x="499.0238" y="379.7173">1</text></g><!--link Address to City--><g id="link_Address_City"><path codeLine="98" d="M412.2978,953.9606 C412.2978,979.6906 412.2978,1008.3306 412.2978,1029.5306 " fill="none" id="Address-City" style="stroke:#181818;stroke-width:1.0;"/><polygon fill="#000000" points="417.2978,996.9023,420.2367,987.8573,414.3589,987.8573,417.2978,996.9023" style="stroke:#000000;stroke-width:1.0;"/><text fill="#000000" font-family="sans-serif" font-size="13" lengthAdjust="spacing" textLength="21" x="426.2978" y="996.4092">has</text><text fill="#000000" font-family="sans-serif" font-size="13" lengthAdjust="spacing" textLength="7" x="404.5322" y="1018.7003">1</text></g><!--link City to District--><g id="link_City_District"><path codeLine="99" d="M412.2978,1094.6806 C412.2978,1117.2706 412.2978,1147.5706 412.2978,1170.2406 " fill="none" id="City-District" style="stroke:#181818;stroke-width:1.0;"/><polygon fill="#000000" points="417.2978,1137.9023,420.2367,1128.8573,414.3589,1128.8573,417.2978,1137.9023" style="stroke:#000000;stroke-width:1.0;"/><text fill="#000000" font-family="sans-serif" font-size="13" lengthAdjust="spacing" textLength="24" x="426.2978" y="1137.4092">is in</text><text fill="#000000" font-family="sans-serif" font-size="13" lengthAdjust="spacing" textLength="7" x="404.5759" y="1159.8418">1</text></g><!--link District to State--><g id="link_District_State"><path codeLine="100" d="M412.2978,1235.6806 C412.2978,1258.2706 412.2978,1288.5706 412.2978,1311.2406 " fill="none" id="District-State" style="stroke:#181818;stroke-width:1.0;"/><polygon fill="#000000" points="417.2978,1278.9023,420.2367,1269.8573,414.3589,1269.8573,417.2978,1278.9023" style="stroke:#000000;stroke-width:1.0;"/><text fill="#000000" font-family="sans-serif" font-size="13" lengthAdjust="spacing" textLength="24" x="426.2978" y="1278.4092">is in</text><text fill="#000000" font-family="sans-serif" font-size="13" lengthAdjust="spacing" textLength="7" x="404.5759" y="1300.8418">1</text></g><!--link NetworkManager to Order--><g id="link_NetworkManager_Order"><path codeLine="101" d="M189.8178,77.6906 C124.4678,100.2506 13.2978,138.6406 13.2978,138.6406 C13.2978,138.6406 13.2978,172.6406 13.2978,172.6406 C13.2978,172.6406 58.3078,223.5606 93.6578,263.5306 " fill="none" id="NetworkManager-Order" style="stroke:#181818;stroke-width:1.0;"/><polygon fill="#000000" points="16,160.3431,22.7669,153.6603,17.5465,150.9591,16,160.3431" style="stroke:#000000;stroke-width:1.0;"/><text fill="#000000" font-family="sans-serif" font-size="13" lengthAdjust="spacing" textLength="86" x="27.2978" y="160.4092">sorts the deals</text><text fill="#000000" font-family="sans-serif" font-size="13" lengthAdjust="spacing" textLength="24" x="61.4442" y="252.885">1...*</text></g><!--link NetworkManager to Employee--><g id="link_NetworkManager_Employee"><path codeLine="102" d="M235.4978,77.8106 C233.6578,114.8506 229.2978,202.6406 229.2978,202.6406 C229.2978,202.6406 229.2978,233.6406 229.2978,233.6406 C229.2978,233.6406 286.1678,339.5706 327.9278,417.3606 " fill="none" id="NetworkManager-to-Employee" style="stroke:#181818;stroke-width:1.0;"/><polygon fill="none" points="334.3578,414.5206,337.6478,435.4606,322.0178,421.1506,334.3578,414.5206" style="stroke:#181818;stroke-width:1.0;"/><polygon fill="#000000" points="235.6111,223.2268,236.0711,213.7274,230.3996,215.2712,235.6111,223.2268" style="stroke:#000000;stroke-width:1.0;"/><text fill="#000000" font-family="sans-serif" font-size="13" lengthAdjust="spacing" textLength="10" x="243.2978" y="222.9092">is</text></g><!--link Agent to Employee--><g id="link_Agent_Employee"><path codeLine="103" d="M403.7078,172.6506 C399.4578,215.2806 387.6578,333.8106 379.5378,415.4206 " fill="none" id="Agent-to-Employee" style="stroke:#181818;stroke-width:1.0;"/><polygon fill="none" points="386.4778,416.3506,377.5278,435.5606,372.5478,414.9606,386.4778,416.3506" style="stroke:#181818;stroke-width:1.0;"/><polygon fill="#000000" points="398.8024,316.8777,402.623,308.1683,396.7741,307.586,398.8024,316.8777" style="stroke:#000000;stroke-width:1.0;"/><text fill="#000000" font-family="sans-serif" font-size="13" lengthAdjust="spacing" textLength="10" x="408.2978" y="316.4092">is</text></g><!--link Agent to Order--><g id="link_Agent_Order"><path codeLine="104" d="M383.6478,165.9506 C352.3778,179.3906 298.2978,202.6406 298.2978,202.6406 C298.2978,202.6406 262.2978,233.6406 262.2978,233.6406 C262.2978,233.6406 218.9878,259.9006 182.9478,281.7506 " fill="none" id="Agent-Order" style="stroke:#181818;stroke-width:1.0;"/><text fill="#000000" font-family="sans-serif" font-size="13" lengthAdjust="spacing" textLength="61" x="306.2978" y="215.4092">makes the</text><polygon fill="#000000" points="299.967,227.9246,309.2703,225.9498,306.3327,220.8586,299.967,227.9246" style="stroke:#000000;stroke-width:1.0;"/><text fill="#000000" font-family="sans-serif" font-size="13" lengthAdjust="spacing" textLength="66" x="312.2978" y="229.9326">decision on</text><text fill="#000000" font-family="sans-serif" font-size="13" lengthAdjust="spacing" textLength="7" x="368.9456" y="164.868">1</text><text fill="#000000" font-family="sans-serif" font-size="13" lengthAdjust="spacing" textLength="24" x="190.9633" y="274.5836">1...*</text></g><!--link Agent to Store--><g id="link_Agent_Store"><path codeLine="105" d="M416.9578,172.9706 C433.1078,195.5706 460.2978,233.6406 460.2978,233.6406 C460.2978,233.6406 470.4478,247.6006 482.1078,263.6306 " fill="none" id="Agent-Store" style="stroke:#181818;stroke-width:1.0;"/><polygon fill="#000000" points="468.2156,222.4627,465.3238,213.4024,460.5506,216.8325,468.2156,222.4627" style="stroke:#000000;stroke-width:1.0;"/><text fill="#000000" font-family="sans-serif" font-size="13" lengthAdjust="spacing" textLength="52" x="474.2978" y="222.9092">works for</text></g><!--link NetworkManager to Store--><g id="link_NetworkManager_Store"><path codeLine="106" d="M279.6478,77.6906 C340.6078,100.2506 444.2978,138.6406 444.2978,138.6406 C444.2978,138.6406 531.2978,202.6406 531.2978,202.6406 C531.2978,202.6406 531.2978,233.6406 531.2978,233.6406 C531.2978,233.6406 528.5778,247.6006 525.4578,263.6306 " fill="none" id="NetworkManager-Store" style="stroke:#181818;stroke-width:1.0;"/><polygon fill="#000000" points="497.2854,158.9187,491.8447,151.1181,488.2987,155.8059,497.2854,158.9187" style="stroke:#000000;stroke-width:1.0;"/><text fill="#000000" font-family="sans-serif" font-size="13" lengthAdjust="spacing" textLength="53" x="502.2978" y="160.4092">manages</text><text fill="#000000" font-family="sans-serif" font-size="13" lengthAdjust="spacing" textLength="7" x="284.8519" y="96.9597">1</text><text fill="#000000" font-family="sans-serif" font-size="13" lengthAdjust="spacing" textLength="24" x="501.0229" y="253.0003">1...*</text></g><!--link Property to Address--><g id="link_Property_Address"><path codeLine="107" d="M344.3978,750.8306 C355.9678,774.4006 369.5278,802.0306 381.4878,826.3806 " fill="none" id="Property-Address" style="stroke:#181818;stroke-width:1.0;"/><polygon fill="#000000" points="371.5012,793.3906,370.1533,783.9761,364.877,786.5664,371.5012,793.3906" style="stroke:#000000;stroke-width:1.0;"/><text fill="#000000" font-family="sans-serif" font-size="13" lengthAdjust="spacing" textLength="21" x="378.2978" y="793.4092">has</text></g><!--link Order to Announcement--><g id="link_Order_Announcement"><path codeLine="108" d="M157.7278,359.9306 C172.1978,390.4106 190.7878,429.6006 204.4778,458.4606 " fill="none" id="Order-Announcement" style="stroke:#181818;stroke-width:1.0;"/><polygon fill="#000000" points="186.4411,402.4197,185.219,392.9879,179.9086,395.5076,186.4411,402.4197" style="stroke:#000000;stroke-width:1.0;"/><text fill="#000000" font-family="sans-serif" font-size="13" lengthAdjust="spacing" textLength="14" x="193.2978" y="402.4092">on</text><text fill="#000000" font-family="sans-serif" font-size="13" lengthAdjust="spacing" textLength="7" x="193.502" y="447.8218">1</text></g><!--link Announcement to Property--><g id="link_Announcement_Property"><path codeLine="109" d="M242.5478,539.7606 C256.3478,568.1806 275.1278,606.8406 290.4178,638.3006 " fill="none" id="Announcement-Property" style="stroke:#181818;stroke-width:1.0;"/><polygon fill="#000000" points="282.4826,605.3997,281.1738,595.9797,275.8867,598.5481,282.4826,605.3997" style="stroke:#000000;stroke-width:1.0;"/><text fill="#000000" font-family="sans-serif" font-size="13" lengthAdjust="spacing" textLength="63" x="289.2978" y="605.4092">announces</text><text fill="#000000" font-family="sans-serif" font-size="13" lengthAdjust="spacing" textLength="7" x="279.5254" y="627.9973">1</text></g><!--link Client to Order--><g id="link_Client_Order"><path codeLine="110" d="M147.7478,172.7306 C143.9978,185.9906 139.2978,202.6406 139.2978,202.6406 C139.2978,202.6406 138.1178,234.4806 137.0378,263.5806 " fill="none" id="Client-Order" style="stroke:#181818;stroke-width:1.0;"/><polygon fill="#000000" points="143.7124,223.368,147.6901,214.7292,141.8527,214.041,143.7124,223.368" style="stroke:#000000;stroke-width:1.0;"/><text fill="#000000" font-family="sans-serif" font-size="13" lengthAdjust="spacing" textLength="39" x="153.2978" y="222.9092">makes</text></g><!--SRC=[lLDDYnin3BtxLuYz50e9tLDX3u4bQQ7GJHVItdfnRMN6nBQCxR2aQVzxvHdFLvjUUYY4ZENtBBqdo-baV91HEd3aIRMH74AEPnHfH89K9zdW8LyiGaILfM_id91QgUd5-0QEqgOvOet7V0a8WUob14AyidZCa0cYQTeCsfICXhmGhT48oaJ5oRkrmzoIJa9aaxdqbyER-xUmWXqvQJmyaKOhb9KfmQFM4LEwYfGZOgwX-6x2bbdYfwYyGvOP2ui_U-bcoCxmKQFoLUYwMk9RaozNeVX_kV_OeET3O_pE1KiNv2A-y92bsa5EQCdZ_ko-OPmEV8eQurLG-JnpNHIQnVLnvMfK9fKMJLMzfxDNwBhYYfn9XV2PMpr5VQB9WJLBgS-H0iPYIqQK8lJ5sRtapEzv4ehdBPzX2Q5okmhi8rCJPMW_CdlUNOfiN6CoZPVTfSujBthnOJTpS_lsDD7GWQETrl_XKlUONoYUdgJdkO__ThjTC-3k_WvMgy4XF40h4sp443DK64N7Y7L11GO339e4FFGRCMvLIkT-XY-rCwlGrklrwxj-r9YQAEO4kKNGo0_srg4Vcz5hdvirbqal-VwALRE_btFoX7svhtuOPU3VB6S_EimjAX8SAVufgiy-fH-Ek0ulAeQ1ljNnNapjsVpvC8DAtnPxbJScV01PuUw6kfTKI4kB6_4B]--></g></svg>