<?xml version="1.0" encoding="us-ascii" standalone="no"?><svg xmlns="http://www.w3.org/2000/svg" xmlns:xlink="http://www.w3.org/1999/xlink" contentStyleType="text/css" height="898px" preserveAspectRatio="none" style="width:494px;height:898px;background:#FFFFFF;" version="1.1" viewBox="0 0 494 898" width="494px" zoomAndPan="magnify"><defs/><g><text fill="#000000" font-family="sans-serif" font-size="14" font-weight="bold" lengthAdjust="spacing" textLength="156" x="162" y="22.6738">US017 - Domain Model</text><!--class Deal--><g id="elem_Deal"><rect codeLine="54" fill="#F1F1F1" height="64.9219" id="Deal" rx="2.5" ry="2.5" style="stroke:#181818;stroke-width:0.5;" width="107" x="194" y="264.1406"/><text fill="#000000" font-family="sans-serif" font-size="14" lengthAdjust="spacing" textLength="29" x="233" y="281.8145">Deal</text><line style="stroke:#181818;stroke-width:0.5;" x1="195" x2="300" y1="289.7813" y2="289.7813"/><text fill="#000000" font-family="sans-serif" font-size="14" lengthAdjust="spacing" textLength="28" x="200" y="306.4551">date</text><text fill="#000000" font-family="sans-serif" font-size="14" lengthAdjust="spacing" textLength="95" x="200" y="322.0957">acceptedOrder</text></g><!--class Store--><g id="elem_Store"><rect codeLine="59" fill="#F1F1F1" height="96.2031" id="Store" rx="2.5" ry="2.5" style="stroke:#181818;stroke-width:0.5;" width="101" x="7" y="248.6406"/><text fill="#000000" font-family="sans-serif" font-size="14" lengthAdjust="spacing" textLength="34" x="40.5" y="266.3145">Store</text><line style="stroke:#181818;stroke-width:0.5;" x1="8" x2="107" y1="274.2813" y2="274.2813"/><text fill="#000000" font-family="sans-serif" font-size="14" lengthAdjust="spacing" textLength="73" x="13" y="290.9551">designation</text><text fill="#000000" font-family="sans-serif" font-size="14" lengthAdjust="spacing" textLength="89" x="13" y="306.5957">phoneNumber</text><text fill="#000000" font-family="sans-serif" font-size="14" lengthAdjust="spacing" textLength="85" x="13" y="322.2363">emailAddress</text><text fill="#000000" font-family="sans-serif" font-size="14" lengthAdjust="spacing" textLength="13" x="13" y="337.877">ID</text></g><!--class Address--><g id="elem_Address"><rect codeLine="66" fill="#F1F1F1" height="96.2031" id="Address" rx="2.5" ry="2.5" style="stroke:#181818;stroke-width:0.5;" width="100" x="7.5" y="420.6406"/><text fill="#000000" font-family="sans-serif" font-size="14" lengthAdjust="spacing" textLength="52" x="31.5" y="438.3145">Address</text><line style="stroke:#181818;stroke-width:0.5;" x1="8.5" x2="106.5" y1="446.2813" y2="446.2813"/><text fill="#000000" font-family="sans-serif" font-size="14" lengthAdjust="spacing" textLength="88" x="13.5" y="462.9551">streetAddress</text><text fill="#000000" font-family="sans-serif" font-size="14" lengthAdjust="spacing" textLength="78" x="13.5" y="478.5957">doorNumber</text><text fill="#000000" font-family="sans-serif" font-size="14" lengthAdjust="spacing" textLength="77" x="13.5" y="494.2363">floorNumber</text><text fill="#000000" font-family="sans-serif" font-size="14" lengthAdjust="spacing" textLength="51" x="13.5" y="509.877">zipCode</text></g><!--class State--><g id="elem_State"><rect codeLine="73" fill="#F1F1F1" height="49.2813" id="State" rx="2.5" ry="2.5" style="stroke:#181818;stroke-width:0.5;" width="79" x="18" y="842.6406"/><text fill="#000000" font-family="sans-serif" font-size="14" lengthAdjust="spacing" textLength="33" x="41" y="860.3145">State</text><line style="stroke:#181818;stroke-width:0.5;" x1="19" x2="96" y1="868.2813" y2="868.2813"/><text fill="#000000" font-family="sans-serif" font-size="14" lengthAdjust="spacing" textLength="67" x="24" y="884.9551">stateName</text></g><!--class District--><g id="elem_District"><rect codeLine="77" fill="#F1F1F1" height="49.2813" id="District" rx="2.5" ry="2.5" style="stroke:#181818;stroke-width:0.5;" width="89" x="13" y="717.6406"/><text fill="#000000" font-family="sans-serif" font-size="14" lengthAdjust="spacing" textLength="43" x="36" y="735.3145">District</text><line style="stroke:#181818;stroke-width:0.5;" x1="14" x2="101" y1="743.2813" y2="743.2813"/><text fill="#000000" font-family="sans-serif" font-size="14" lengthAdjust="spacing" textLength="77" x="19" y="759.9551">districtName</text></g><!--class City--><g id="elem_City"><rect codeLine="81" fill="#F1F1F1" height="49.2813" id="City" rx="2.5" ry="2.5" style="stroke:#181818;stroke-width:0.5;" width="69" x="23" y="592.6406"/><text fill="#000000" font-family="sans-serif" font-size="14" lengthAdjust="spacing" textLength="24" x="45.5" y="610.3145">City</text><line style="stroke:#181818;stroke-width:0.5;" x1="24" x2="91" y1="618.2813" y2="618.2813"/><text fill="#000000" font-family="sans-serif" font-size="14" lengthAdjust="spacing" textLength="57" x="29" y="634.9551">cityName</text></g><!--class NetworkManager--><g id="elem_NetworkManager"><rect codeLine="85" fill="#F1F1F1" height="33.6406" id="NetworkManager" rx="2.5" ry="2.5" style="stroke:#181818;stroke-width:0.5;" width="112" x="113.5" y="43.6406"/><text fill="#000000" font-family="sans-serif" font-size="14" lengthAdjust="spacing" textLength="106" x="116.5" y="61.3145">NetworkManager</text><line style="stroke:#181818;stroke-width:0.5;" x1="114.5" x2="224.5" y1="69.2813" y2="69.2813"/></g><!--class Employee--><g id="elem_Employee"><rect codeLine="88" fill="#F1F1F1" height="80.5625" id="Employee" rx="2.5" ry="2.5" style="stroke:#181818;stroke-width:0.5;" width="101" x="386" y="428.1406"/><text fill="#000000" font-family="sans-serif" font-size="14" lengthAdjust="spacing" textLength="62" x="405.5" y="445.8145">Employee</text><line style="stroke:#181818;stroke-width:0.5;" x1="387" x2="486" y1="453.7813" y2="453.7813"/><text fill="#000000" font-family="sans-serif" font-size="14" lengthAdjust="spacing" textLength="35" x="392" y="470.4551">name</text><text fill="#000000" font-family="sans-serif" font-size="14" lengthAdjust="spacing" textLength="85" x="392" y="486.0957">emailAddress</text><text fill="#000000" font-family="sans-serif" font-size="14" lengthAdjust="spacing" textLength="89" x="392" y="501.7363">phoneNumber</text></g><!--class Agent--><g id="elem_Agent"><rect codeLine="94" fill="#F1F1F1" height="33.6406" id="Agent" rx="2.5" ry="2.5" style="stroke:#181818;stroke-width:0.5;" width="43" x="313" y="138.6406"/><text fill="#000000" font-family="sans-serif" font-size="14" lengthAdjust="spacing" textLength="37" x="316" y="156.3145">Agent</text><line style="stroke:#181818;stroke-width:0.5;" x1="314" x2="355" y1="164.2813" y2="164.2813"/></g><!--link Store to Address--><g id="link_Store_Address"><path codeLine="97" d="M57.5,344.9906 C57.5,368.5706 57.5,397.0006 57.5,420.5406 " fill="none" id="Store-Address" style="stroke:#181818;stroke-width:1.0;"/><polygon fill="#000000" points="62.5,387.9023,65.4389,378.8573,59.5611,378.8573,62.5,387.9023" style="stroke:#000000;stroke-width:1.0;"/><text fill="#000000" font-family="sans-serif" font-size="13" lengthAdjust="spacing" textLength="21" x="71.5" y="387.4092">has</text><text fill="#000000" font-family="sans-serif" font-size="13" lengthAdjust="spacing" textLength="7" x="50.0078" y="364.5653">1</text></g><!--link Address to City--><g id="link_Address_City"><path codeLine="98" d="M57.5,516.8006 C57.5,542.0606 57.5,572.0806 57.5,592.4606 " fill="none" id="Address-City" style="stroke:#181818;stroke-width:1.0;"/><polygon fill="#000000" points="62.5,559.9023,65.4389,550.8573,59.5611,550.8573,62.5,559.9023" style="stroke:#000000;stroke-width:1.0;"/><text fill="#000000" font-family="sans-serif" font-size="13" lengthAdjust="spacing" textLength="21" x="71.5" y="559.4092">has</text></g><!--link City to District--><g id="link_City_District"><path codeLine="99" d="M57.5,641.8606 C57.5,663.6406 57.5,695.7406 57.5,717.5006 " fill="none" id="City-District" style="stroke:#181818;stroke-width:1.0;"/><polygon fill="#000000" points="62.5,684.9023,65.4389,675.8573,59.5611,675.8573,62.5,684.9023" style="stroke:#000000;stroke-width:1.0;"/><text fill="#000000" font-family="sans-serif" font-size="13" lengthAdjust="spacing" textLength="24" x="71.5" y="684.4092">is in</text></g><!--link District to State--><g id="link_District_State"><path codeLine="100" d="M57.5,766.8606 C57.5,788.6406 57.5,820.7406 57.5,842.5006 " fill="none" id="District-State" style="stroke:#181818;stroke-width:1.0;"/><polygon fill="#000000" points="62.5,809.9023,65.4389,800.8573,59.5611,800.8573,62.5,809.9023" style="stroke:#000000;stroke-width:1.0;"/><text fill="#000000" font-family="sans-serif" font-size="13" lengthAdjust="spacing" textLength="24" x="71.5" y="809.4092">is in</text></g><!--link NetworkManager to Deal--><g id="link_NetworkManager_Deal"><path codeLine="101" d="M169.23,77.9006 C169.28,107.1606 171.91,170.1506 191.5,218.6406 C198.06,234.8906 208.79,250.8806 219.11,264.0406 " fill="none" id="NetworkManager-Deal" style="stroke:#181818;stroke-width:1.0;"/><polygon fill="#000000" points="184.7942,160.7319,185.2917,151.2344,179.6142,152.7558,184.7942,160.7319" style="stroke:#000000;stroke-width:1.0;"/><text fill="#000000" font-family="sans-serif" font-size="13" lengthAdjust="spacing" textLength="24" x="192.5" y="160.4092">lists</text><text fill="#000000" font-family="sans-serif" font-size="13" lengthAdjust="spacing" textLength="24" x="186.2747" y="253.2125">1...*</text></g><!--link NetworkManager to Employee--><g id="link_NetworkManager_Employee"><path codeLine="102" d="M225.74,71.5806 C270.18,81.8806 331.51,101.8306 373.5,138.6406 C449.39,205.1606 451.34,332.6706 444.73,407.9206 " fill="none" id="NetworkManager-to-Employee" style="stroke:#181818;stroke-width:1.0;"/><polygon fill="none" points="451.66,408.9406,442.63,428.1106,437.73,407.5006,451.66,408.9406" style="stroke:#181818;stroke-width:1.0;"/><polygon fill="#000000" points="434.2282,215.0925,431.7558,205.9089,426.83,209.116,434.2282,215.0925" style="stroke:#000000;stroke-width:1.0;"/><text fill="#000000" font-family="sans-serif" font-size="13" lengthAdjust="spacing" textLength="10" x="440.5" y="215.4092">is</text></g><!--link Agent to Employee--><g id="link_Agent_Employee"><path codeLine="103" d="M341.09,172.7206 C344.62,181.5106 348.95,192.6106 352.5,202.6406 C377.33,272.8406 402.74,354.6806 419.02,408.6306 " fill="none" id="Agent-to-Employee" style="stroke:#181818;stroke-width:1.0;"/><polygon fill="none" points="425.74,406.6906,424.79,427.8606,412.33,410.7106,425.74,406.6906" style="stroke:#181818;stroke-width:1.0;"/><polygon fill="#000000" points="406.0683,301.65,406.0218,292.1396,400.4406,293.9832,406.0683,301.65" style="stroke:#000000;stroke-width:1.0;"/><text fill="#000000" font-family="sans-serif" font-size="13" lengthAdjust="spacing" textLength="10" x="413.5" y="301.4092">is</text></g><!--link Agent to Deal--><g id="link_Agent_Deal"><path codeLine="104" d="M324.35,172.8606 C310.41,195.1306 285.05,235.6506 267.29,264.0306 " fill="none" id="Agent-Deal" style="stroke:#181818;stroke-width:1.0;"/><polygon fill="#000000" points="306.8474,215.1407,314.1373,209.0326,309.1548,205.9143,306.8474,215.1407" style="stroke:#000000;stroke-width:1.0;"/><text fill="#000000" font-family="sans-serif" font-size="13" lengthAdjust="spacing" textLength="25" x="318.5" y="215.4092">sets</text><text fill="#000000" font-family="sans-serif" font-size="13" lengthAdjust="spacing" textLength="7" x="313.1697" y="192.1817">1</text><text fill="#000000" font-family="sans-serif" font-size="13" lengthAdjust="spacing" textLength="24" x="244.9941" y="253.2003">0...*</text></g><!--link Agent to Store--><g id="link_Agent_Store"><path codeLine="105" d="M312.9,164.4806 C289.89,173.0506 252.57,187.5806 221.5,202.6406 C182.62,221.4806 140.23,245.6206 108.29,264.5806 " fill="none" id="Agent-Store" style="stroke:#181818;stroke-width:1.0;"/><polygon fill="#000000" points="222.0087,213.0996,231.4251,211.7647,228.842,206.4848,222.0087,213.0996" style="stroke:#000000;stroke-width:1.0;"/><text fill="#000000" font-family="sans-serif" font-size="13" lengthAdjust="spacing" textLength="52" x="235.5" y="215.4092">works for</text></g><!--link NetworkManager to Store--><g id="link_NetworkManager_Store"><path codeLine="106" d="M149.47,77.9206 C133.13,92.2606 110.68,114.5606 97.5,138.6406 C78.8,172.8206 68.63,215.9706 63.23,248.3806 " fill="none" id="NetworkManager-Store" style="stroke:#181818;stroke-width:1.0;"/><polygon fill="#000000" points="100.2428,160.3639,106.9485,153.6196,101.7037,150.9662,100.2428,160.3639" style="stroke:#000000;stroke-width:1.0;"/><text fill="#000000" font-family="sans-serif" font-size="13" lengthAdjust="spacing" textLength="53" x="111.5" y="160.4092">manages</text><text fill="#000000" font-family="sans-serif" font-size="13" lengthAdjust="spacing" textLength="7" x="135.5581" y="96.9511">1</text><text fill="#000000" font-family="sans-serif" font-size="13" lengthAdjust="spacing" textLength="24" x="38.3091" y="238.0564">1...*</text></g><!--SRC=[TLBDJlCm4BplKwnwGK9g1ISa3fK-KGuSA8UA1rZiRMBLFv6z29N0kxD9coRH1vVOtfcTsR5J3Yusb2bWI36PEgV0AFcTeLoGXio1Ajx9qJDcDaAnybD2gScc3nSht9ClKyIxo79i62sLcYt0bUUze2JChge5hUlqN8e0jRECncMZqlq-iDJ95W1neiQlkvlRErpY9WLo4P-JPGzWF9M26oRVWYLX86Eu4ROlsNA6xu6navHPALnS5QbtREeKUViUtfJ7gkd_MPkv57ZQZ7tdMWj5ChCC59jIFhVk_RZ_TCs3pZMrrPcwPbss52R8ngcYCw8pdNTp_C79iGMZttbzo_AHyk6PeZv9RaVWCJG-7LdTOjSmIpIDEaQhE4ghH-Wl1nUt2rmkXyHuZpKLNCDmLgYRwLBl3reSWYZW2khBhE5IKhY_WGasdryPIpLUhLRNY_uLbUcrk_p6_5fVGfu4TRWkGoVo9tPEjRYPUHIMQVlfzz1wPrXmd_B__YUXSTgX9VHuf_O3]--></g></svg>