<?xml version="1.0" encoding="us-ascii" standalone="no"?><svg xmlns="http://www.w3.org/2000/svg" xmlns:xlink="http://www.w3.org/1999/xlink" contentStyleType="text/css" height="585px" preserveAspectRatio="none" style="width:350px;height:585px;background:#FFFFFF;" version="1.1" viewBox="0 0 350 585" width="350px" zoomAndPan="magnify"><defs/><g><text fill="#000000" font-family="sans-serif" font-size="14" font-weight="bold" lengthAdjust="spacing" textLength="156" x="90.25" y="22.6738">US013 - Domain Model</text><!--class Store--><g id="elem_Store"><rect codeLine="12" fill="#F1F1F1" height="96.2031" id="Store" rx="2.5" ry="2.5" style="stroke:#181818;stroke-width:0.5;" width="101" x="83" y="168.6406"/><text fill="#000000" font-family="sans-serif" font-size="14" lengthAdjust="spacing" textLength="34" x="116.5" y="186.3145">Store</text><line style="stroke:#181818;stroke-width:0.5;" x1="84" x2="183" y1="194.2813" y2="194.2813"/><text fill="#000000" font-family="sans-serif" font-size="14" lengthAdjust="spacing" textLength="73" x="89" y="210.9551">designation</text><text fill="#000000" font-family="sans-serif" font-size="14" lengthAdjust="spacing" textLength="89" x="89" y="226.5957">phoneNumber</text><text fill="#000000" font-family="sans-serif" font-size="14" lengthAdjust="spacing" textLength="85" x="89" y="242.2363">emailAddress</text><text fill="#000000" font-family="sans-serif" font-size="14" lengthAdjust="spacing" textLength="13" x="89" y="257.877">ID</text></g><!--class Agent--><g id="elem_Agent"><rect codeLine="19" fill="#F1F1F1" height="80.5625" id="Agent" rx="2.5" ry="2.5" style="stroke:#181818;stroke-width:0.5;" width="101" x="99" y="340.6406"/><text fill="#000000" font-family="sans-serif" font-size="14" lengthAdjust="spacing" textLength="37" x="131" y="358.3145">Agent</text><line style="stroke:#181818;stroke-width:0.5;" x1="100" x2="199" y1="366.2813" y2="366.2813"/><text fill="#000000" font-family="sans-serif" font-size="14" lengthAdjust="spacing" textLength="35" x="105" y="382.9551">name</text><text fill="#000000" font-family="sans-serif" font-size="14" lengthAdjust="spacing" textLength="89" x="105" y="398.5957">phoneNumber</text><text fill="#000000" font-family="sans-serif" font-size="14" lengthAdjust="spacing" textLength="85" x="105" y="414.2363">emailAddress</text></g><!--class StoreManager--><g id="elem_StoreManager"><rect codeLine="25" fill="#F1F1F1" height="49.2813" id="StoreManager" rx="2.5" ry="2.5" style="stroke:#181818;stroke-width:0.5;" width="103" x="7" y="43.6406"/><text fill="#000000" font-family="sans-serif" font-size="14" lengthAdjust="spacing" textLength="90" x="13.5" y="61.3145">StoreManager</text><line style="stroke:#181818;stroke-width:0.5;" x1="8" x2="109" y1="69.2813" y2="69.2813"/><text fill="#000000" font-family="sans-serif" font-size="14" lengthAdjust="spacing" textLength="91" x="13" y="85.9551">assignedStore</text></g><!--class Employee--><g id="elem_Employee"><rect codeLine="29" fill="#F1F1F1" height="80.5625" id="Employee" rx="2.5" ry="2.5" style="stroke:#181818;stroke-width:0.5;" width="101" x="99" y="497.6406"/><text fill="#000000" font-family="sans-serif" font-size="14" lengthAdjust="spacing" textLength="62" x="118.5" y="515.3145">Employee</text><line style="stroke:#181818;stroke-width:0.5;" x1="100" x2="199" y1="523.2813" y2="523.2813"/><text fill="#000000" font-family="sans-serif" font-size="14" lengthAdjust="spacing" textLength="35" x="105" y="539.9551">name</text><text fill="#000000" font-family="sans-serif" font-size="14" lengthAdjust="spacing" textLength="85" x="105" y="555.5957">emailAddress</text><text fill="#000000" font-family="sans-serif" font-size="14" lengthAdjust="spacing" textLength="89" x="105" y="571.2363">phoneNumber</text></g><!--class NetworkManager--><g id="elem_NetworkManager"><rect codeLine="35" fill="#F1F1F1" height="80.5625" id="NetworkManager" rx="2.5" ry="2.5" style="stroke:#181818;stroke-width:0.5;" width="112" x="231.5" y="176.1406"/><text fill="#000000" font-family="sans-serif" font-size="14" lengthAdjust="spacing" textLength="106" x="234.5" y="193.8145">NetworkManager</text><line style="stroke:#181818;stroke-width:0.5;" x1="232.5" x2="342.5" y1="201.7813" y2="201.7813"/><text fill="#000000" font-family="sans-serif" font-size="14" lengthAdjust="spacing" textLength="35" x="237.5" y="218.4551">name</text><text fill="#000000" font-family="sans-serif" font-size="14" lengthAdjust="spacing" textLength="85" x="237.5" y="234.0957">emailAddress</text><text fill="#000000" font-family="sans-serif" font-size="14" lengthAdjust="spacing" textLength="89" x="237.5" y="249.7363">phoneNumber</text></g><!--link StoreManager to Store--><g id="link_StoreManager_Store"><path codeLine="41" d="M70.55,92.6806 C80.98,113.0606 96.4,143.1706 109.36,168.4906 " fill="none" id="StoreManager-Store" style="stroke:#181818;stroke-width:1.0;"/><text fill="#000000" font-family="sans-serif" font-size="13" lengthAdjust="spacing" textLength="70" x="95.5" y="135.4092">manages &gt;"</text><text fill="#000000" font-family="sans-serif" font-size="13" lengthAdjust="spacing" textLength="7" x="65.7409" y="112.5623">1</text><text fill="#000000" font-family="sans-serif" font-size="13" lengthAdjust="spacing" textLength="7" x="98.1276" y="157.8389">1</text></g><!--link Store to Agent--><g id="link_Store_Agent"><path codeLine="42" d="M124.05,264.6606 C122.39,279.4406 121.91,295.7806 124.5,310.6406 C126.22,320.4906 129.21,330.7906 132.54,340.3606 " fill="none" id="Store-Agent" style="stroke:#181818;stroke-width:1.0;"/><polygon fill="#000000" points="130.0573,307.8712,131.9698,298.5549,126.1285,299.21,130.0573,307.8712" style="stroke:#000000;stroke-width:1.0;"/><text fill="#000000" font-family="sans-serif" font-size="13" lengthAdjust="spacing" textLength="49" x="138.5" y="307.4092">employs</text><text fill="#000000" font-family="sans-serif" font-size="13" lengthAdjust="spacing" textLength="7" x="115.148" y="284.5338">1</text><text fill="#000000" font-family="sans-serif" font-size="13" lengthAdjust="spacing" textLength="5" x="124.1953" y="329.9996">*</text></g><!--link StoreManager to Employee--><g id="link_StoreManager_Employee"><path codeLine="43" d="M56.06,93.0006 C50.98,151.0006 42.71,303.3406 81.5,421.6406 C90.34,448.6206 106.2,476.1106 120.38,497.5106 " fill="none" id="StoreManager-Employee" style="stroke:#181818;stroke-width:1.0;"/><polygon fill="#000000" points="64.2852,307.8403,65.7672,298.4459,59.9623,299.369,64.2852,307.8403" style="stroke:#000000;stroke-width:1.0;"/><text fill="#000000" font-family="sans-serif" font-size="13" lengthAdjust="spacing" textLength="10" x="72.5" y="307.4092">is</text></g><!--link Agent to Employee--><g id="link_Agent_Employee"><path codeLine="44" d="M149.5,421.6506 C149.5,444.8806 149.5,474.1606 149.5,497.4306 " fill="none" id="Agent-Employee" style="stroke:#181818;stroke-width:1.0;"/><polygon fill="#000000" points="154.5,464.9023,157.4389,455.8573,151.5611,455.8573,154.5,464.9023" style="stroke:#000000;stroke-width:1.0;"/><text fill="#000000" font-family="sans-serif" font-size="13" lengthAdjust="spacing" textLength="10" x="163.5" y="464.4092">is</text></g><!--link NetworkManager to Employee--><g id="link_NetworkManager_Employee"><path codeLine="45" d="M279.7,257.4406 C276.03,274.0706 271.19,293.4706 265.5,310.6406 C248.58,361.6606 241.85,373.7206 217.5,421.6406 C204.38,447.4706 187.93,475.4906 174.51,497.4706 " fill="none" id="NetworkManager-Employee" style="stroke:#181818;stroke-width:1.0;"/><polygon fill="#000000" points="258.4931,385.9819,264.8154,378.8771,259.4318,376.5178,258.4931,385.9819" style="stroke:#000000;stroke-width:1.0;"/><text fill="#000000" font-family="sans-serif" font-size="13" lengthAdjust="spacing" textLength="10" x="269.5" y="385.9092">is</text></g><!--link NetworkManager to Agent--><g id="link_NetworkManager_Agent"><path codeLine="46" d="M253.74,257.3906 C232.28,282.6706 204.59,315.2706 183.15,340.5206 " fill="none" id="NetworkManager-Agent" style="stroke:#181818;stroke-width:1.0;"/><polygon fill="#000000" points="220.2636,306.7136,228.3585,301.7212,223.8781,297.9167,220.2636,306.7136" style="stroke:#000000;stroke-width:1.0;"/><text fill="#000000" font-family="sans-serif" font-size="13" lengthAdjust="spacing" textLength="24" x="232.5" y="307.4092">lists</text><text fill="#000000" font-family="sans-serif" font-size="13" lengthAdjust="spacing" textLength="5" x="183.6986" y="329.8925">*</text></g><!--SRC=[ZO_1QiCm44Jl-nMBBuM2eQ6t7Wg1zD13SZ7v0DNQsCAIraWRGZ3vzyfouzhGqfuaTjxCpiRE-5u5vT2nvxeDx0Wbd0dYhFIgxbH3bLmjOQ1Qb6_i4eYjqdmnli6Jif407YoT18KncAOLr6Pq6VO0hT64jGbr2iX_HzAoZW1Y9CKVgwVDCvQuOwUCnprhiW2rLJ5Y9Hne04tHD5xblBvbJuUp-w00b1nsgtMW6E5z1xUxRzkGbm6ySlIxuRRQibS-NHm6I9EqZ7IUVaDlhhTy9VfANIKjLyo60yc5GpVd_cbRri1YKs1PvYVFyGLTbYA-5XCwCu_5T71YABTCp3ejKVV-2JAZFZb-4DQz_qSiArWJPQG-0G00]--></g></svg>