<?xml version="1.0" encoding="us-ascii" standalone="no"?><svg xmlns="http://www.w3.org/2000/svg" xmlns:xlink="http://www.w3.org/1999/xlink" contentStyleType="text/css" height="1383px" preserveAspectRatio="none" style="width:692px;height:1383px;background:#FFFFFF;" version="1.1" viewBox="0 0 692 1383" width="692px" zoomAndPan="magnify"><defs/><g><text fill="#000000" font-family="sans-serif" font-size="14" font-weight="bold" lengthAdjust="spacing" textLength="156" x="261.25" y="22.6738">US017 - Domain Model</text><!--class Address--><g id="elem_Address"><rect codeLine="69" fill="#F1F1F1" height="127.4844" id="Address" rx="2.5" ry="2.5" style="stroke:#181818;stroke-width:0.5;" width="100" x="304" y="826.6406"/><text fill="#000000" font-family="sans-serif" font-size="14" lengthAdjust="spacing" textLength="52" x="328" y="844.3145">Address</text><line style="stroke:#181818;stroke-width:0.5;" x1="305" x2="403" y1="852.2813" y2="852.2813"/><text fill="#000000" font-family="sans-serif" font-size="14" lengthAdjust="spacing" textLength="88" x="310" y="868.9551">streetAddress</text><text fill="#000000" font-family="sans-serif" font-size="14" lengthAdjust="spacing" textLength="51" x="310" y="884.5957">zipCode</text><text fill="#000000" font-family="sans-serif" font-size="14" lengthAdjust="spacing" textLength="88" x="310" y="900.2363">streetAddress</text><text fill="#000000" font-family="sans-serif" font-size="14" lengthAdjust="spacing" textLength="78" x="310" y="915.877">doorNumber</text><text fill="#000000" font-family="sans-serif" font-size="14" lengthAdjust="spacing" textLength="77" x="310" y="931.5176">floorNumber</text><text fill="#000000" font-family="sans-serif" font-size="14" lengthAdjust="spacing" textLength="51" x="310" y="947.1582">zipCode</text></g><!--class State--><g id="elem_State"><rect codeLine="76" fill="#F1F1F1" height="64.9219" id="State" rx="2.5" ry="2.5" style="stroke:#181818;stroke-width:0.5;" width="79" x="314.5" y="1311.6406"/><text fill="#000000" font-family="sans-serif" font-size="14" lengthAdjust="spacing" textLength="33" x="337.5" y="1329.3145">State</text><line style="stroke:#181818;stroke-width:0.5;" x1="315.5" x2="392.5" y1="1337.2813" y2="1337.2813"/><text fill="#000000" font-family="sans-serif" font-size="14" lengthAdjust="spacing" textLength="67" x="320.5" y="1353.9551">stateName</text><text fill="#000000" font-family="sans-serif" font-size="14" lengthAdjust="spacing" textLength="67" x="320.5" y="1369.5957">stateName</text></g><!--class District--><g id="elem_District"><rect codeLine="80" fill="#F1F1F1" height="64.9219" id="District" rx="2.5" ry="2.5" style="stroke:#181818;stroke-width:0.5;" width="89" x="309.5" y="1170.6406"/><text fill="#000000" font-family="sans-serif" font-size="14" lengthAdjust="spacing" textLength="43" x="332.5" y="1188.3145">District</text><line style="stroke:#181818;stroke-width:0.5;" x1="310.5" x2="397.5" y1="1196.2813" y2="1196.2813"/><text fill="#000000" font-family="sans-serif" font-size="14" lengthAdjust="spacing" textLength="77" x="315.5" y="1212.9551">districtName</text><text fill="#000000" font-family="sans-serif" font-size="14" lengthAdjust="spacing" textLength="77" x="315.5" y="1228.5957">districtName</text></g><!--class City--><g id="elem_City"><rect codeLine="84" fill="#F1F1F1" height="64.9219" id="City" rx="2.5" ry="2.5" style="stroke:#181818;stroke-width:0.5;" width="69" x="319.5" y="1029.6406"/><text fill="#000000" font-family="sans-serif" font-size="14" lengthAdjust="spacing" textLength="24" x="342" y="1047.3145">City</text><line style="stroke:#181818;stroke-width:0.5;" x1="320.5" x2="387.5" y1="1055.2813" y2="1055.2813"/><text fill="#000000" font-family="sans-serif" font-size="14" lengthAdjust="spacing" textLength="57" x="325.5" y="1071.9551">cityName</text><text fill="#000000" font-family="sans-serif" font-size="14" lengthAdjust="spacing" textLength="57" x="325.5" y="1087.5957">cityName</text></g><!--class Agent--><g id="elem_Agent"><rect codeLine="29" fill="#F1F1F1" height="33.6406" id="Agent" rx="2.5" ry="2.5" style="stroke:#181818;stroke-width:0.5;" width="43" x="442.5" y="138.6406"/><text fill="#000000" font-family="sans-serif" font-size="14" lengthAdjust="spacing" textLength="37" x="445.5" y="156.3145">Agent</text><line style="stroke:#181818;stroke-width:0.5;" x1="443.5" x2="484.5" y1="164.2813" y2="164.2813"/></g><!--class Employee--><g id="elem_Employee"><rect codeLine="91" fill="#F1F1F1" height="127.4844" id="Employee" rx="2.5" ry="2.5" style="stroke:#181818;stroke-width:0.5;" width="101" x="584.5" y="435.6406"/><text fill="#000000" font-family="sans-serif" font-size="14" lengthAdjust="spacing" textLength="62" x="604" y="453.3145">Employee</text><line style="stroke:#181818;stroke-width:0.5;" x1="585.5" x2="684.5" y1="461.2813" y2="461.2813"/><text fill="#000000" font-family="sans-serif" font-size="14" lengthAdjust="spacing" textLength="35" x="590.5" y="477.9551">name</text><text fill="#000000" font-family="sans-serif" font-size="14" lengthAdjust="spacing" textLength="85" x="590.5" y="493.5957">emailAddress</text><text fill="#000000" font-family="sans-serif" font-size="14" lengthAdjust="spacing" textLength="89" x="590.5" y="509.2363">phoneNumber</text><text fill="#000000" font-family="sans-serif" font-size="14" lengthAdjust="spacing" textLength="35" x="590.5" y="524.877">name</text><text fill="#000000" font-family="sans-serif" font-size="14" lengthAdjust="spacing" textLength="85" x="590.5" y="540.5176">emailAddress</text><text fill="#000000" font-family="sans-serif" font-size="14" lengthAdjust="spacing" textLength="89" x="590.5" y="556.1582">phoneNumber</text></g><!--class Order--><g id="elem_Order"><rect codeLine="38" fill="#F1F1F1" height="96.2031" id="Order" rx="2.5" ry="2.5" style="stroke:#181818;stroke-width:0.5;" width="95" x="209.5" y="263.6406"/><text fill="#000000" font-family="sans-serif" font-size="14" lengthAdjust="spacing" textLength="37" x="238.5" y="281.3145">Order</text><line style="stroke:#181818;stroke-width:0.5;" x1="210.5" x2="303.5" y1="289.2813" y2="289.2813"/><text fill="#000000" font-family="sans-serif" font-size="14" lengthAdjust="spacing" textLength="66" x="215.5" y="305.9551">orderPrice</text><text fill="#000000" font-family="sans-serif" font-size="14" lengthAdjust="spacing" textLength="28" x="215.5" y="321.5957">date</text><text fill="#000000" font-family="sans-serif" font-size="14" lengthAdjust="spacing" textLength="83" x="215.5" y="337.2363">orderNumber</text><text fill="#000000" font-family="sans-serif" font-size="14" lengthAdjust="spacing" textLength="52" x="215.5" y="352.877">decision</text></g><!--class Announcement--><g id="elem_Announcement"><rect codeLine="45" fill="#F1F1F1" height="80.5625" id="Announcement" rx="2.5" ry="2.5" style="stroke:#181818;stroke-width:0.5;" width="106" x="212" y="458.6406"/><text fill="#000000" font-family="sans-serif" font-size="14" lengthAdjust="spacing" textLength="95" x="217.5" y="476.3145">Announcement</text><line style="stroke:#181818;stroke-width:0.5;" x1="213" x2="317" y1="484.2813" y2="484.2813"/><text fill="#000000" font-family="sans-serif" font-size="14" lengthAdjust="spacing" textLength="94" x="218" y="500.9551">comissionType</text><text fill="#000000" font-family="sans-serif" font-size="14" lengthAdjust="spacing" textLength="62" x="218" y="516.5957">comission</text><text fill="#000000" font-family="sans-serif" font-size="14" lengthAdjust="spacing" textLength="28" x="218" y="532.2363">date</text></g><!--class Client--><g id="elem_Client"><rect codeLine="51" fill="#F1F1F1" height="33.6406" id="Client" rx="2.5" ry="2.5" style="stroke:#181818;stroke-width:0.5;" width="42" x="278" y="138.6406"/><text fill="#000000" font-family="sans-serif" font-size="14" lengthAdjust="spacing" textLength="36" x="281" y="156.3145">Client</text><line style="stroke:#181818;stroke-width:0.5;" x1="279" x2="319" y1="164.2813" y2="164.2813"/></g><!--class Property--><g id="elem_Property"><rect codeLine="54" fill="#F1F1F1" height="111.8438" id="Property" rx="2.5" ry="2.5" style="stroke:#181818;stroke-width:0.5;" width="165" x="182.5" y="638.6406"/><text fill="#000000" font-family="sans-serif" font-size="14" lengthAdjust="spacing" textLength="54" x="238" y="656.3145">Property</text><line style="stroke:#181818;stroke-width:0.5;" x1="183.5" x2="346.5" y1="664.2813" y2="664.2813"/><text fill="#000000" font-family="sans-serif" font-size="14" lengthAdjust="spacing" textLength="29" x="188.5" y="680.9551">area</text><text fill="#000000" font-family="sans-serif" font-size="14" lengthAdjust="spacing" textLength="31" x="188.5" y="696.5957">price</text><text fill="#000000" font-family="sans-serif" font-size="14" lengthAdjust="spacing" textLength="153" x="188.5" y="712.2363">distanceFromCityCenter</text><text fill="#000000" font-family="sans-serif" font-size="14" lengthAdjust="spacing" textLength="85" x="188.5" y="727.877">propertyType</text><text fill="#000000" font-family="sans-serif" font-size="14" lengthAdjust="spacing" textLength="95" x="188.5" y="743.5176">photographList</text></g><!--class Store--><g id="elem_Store"><rect codeLine="62" fill="#F1F1F1" height="96.2031" id="Store" rx="2.5" ry="2.5" style="stroke:#181818;stroke-width:0.5;" width="101" x="382.5" y="263.6406"/><text fill="#000000" font-family="sans-serif" font-size="14" lengthAdjust="spacing" textLength="34" x="416" y="281.3145">Store</text><line style="stroke:#181818;stroke-width:0.5;" x1="383.5" x2="482.5" y1="289.2813" y2="289.2813"/><text fill="#000000" font-family="sans-serif" font-size="14" lengthAdjust="spacing" textLength="73" x="388.5" y="305.9551">designation</text><text fill="#000000" font-family="sans-serif" font-size="14" lengthAdjust="spacing" textLength="89" x="388.5" y="321.5957">phoneNumber</text><text fill="#000000" font-family="sans-serif" font-size="14" lengthAdjust="spacing" textLength="85" x="388.5" y="337.2363">emailAddress</text><text fill="#000000" font-family="sans-serif" font-size="14" lengthAdjust="spacing" textLength="13" x="388.5" y="352.877">ID</text></g><!--class NetworkManager--><g id="elem_NetworkManager"><rect codeLine="88" fill="#F1F1F1" height="33.6406" id="NetworkManager" rx="2.5" ry="2.5" style="stroke:#181818;stroke-width:0.5;" width="112" x="539" y="43.6406"/><text fill="#000000" font-family="sans-serif" font-size="14" lengthAdjust="spacing" textLength="106" x="542" y="61.3145">NetworkManager</text><line style="stroke:#181818;stroke-width:0.5;" x1="540" x2="650" y1="69.2813" y2="69.2813"/></g><!--class Residence--><g id="elem_Residence"><rect codeLine="97" fill="#F1F1F1" height="96.2031" id="Residence" rx="2.5" ry="2.5" style="stroke:#181818;stroke-width:0.5;" width="170" x="7" y="451.1406"/><text fill="#000000" font-family="sans-serif" font-size="14" lengthAdjust="spacing" textLength="67" x="58.5" y="468.8145">Residence</text><line style="stroke:#181818;stroke-width:0.5;" x1="8" x2="176" y1="476.7813" y2="476.7813"/><text fill="#000000" font-family="sans-serif" font-size="14" lengthAdjust="spacing" textLength="127" x="13" y="493.4551">numberOfBedrooms</text><text fill="#000000" font-family="sans-serif" font-size="14" lengthAdjust="spacing" textLength="131" x="13" y="509.0957">numberOfBathrooms</text><text fill="#000000" font-family="sans-serif" font-size="14" lengthAdjust="spacing" textLength="158" x="13" y="524.7363">numberOfParkingSpaces</text><text fill="#000000" font-family="sans-serif" font-size="14" lengthAdjust="spacing" textLength="123" x="13" y="540.377">availableEquipment</text></g><!--class House--><g id="elem_House"><rect codeLine="104" fill="#F1F1F1" height="64.9219" id="House" rx="2.5" ry="2.5" style="stroke:#181818;stroke-width:0.5;" width="158" x="13" y="279.1406"/><text fill="#000000" font-family="sans-serif" font-size="14" lengthAdjust="spacing" textLength="40" x="72" y="296.8145">House</text><line style="stroke:#181818;stroke-width:0.5;" x1="14" x2="170" y1="304.7813" y2="304.7813"/><text fill="#000000" font-family="sans-serif" font-size="14" lengthAdjust="spacing" textLength="146" x="19" y="321.4551">existenceOfABasement</text><text fill="#000000" font-family="sans-serif" font-size="14" lengthAdjust="spacing" textLength="93" x="19" y="337.0957">inhabitableLoft</text></g><!--link Store to Address--><g id="link_Store_Address"><path codeLine="109" d="M426.54,359.8206 C412.37,463.2206 378.57,709.8306 362.62,826.2506 " fill="none" id="Store-Address" style="stroke:#181818;stroke-width:1.0;"/><polygon fill="#000000" points="398.3211,605.856,402.4609,597.2937,396.6375,596.4957,398.3211,605.856" style="stroke:#000000;stroke-width:1.0;"/><text fill="#000000" font-family="sans-serif" font-size="13" lengthAdjust="spacing" textLength="21" x="408" y="605.4092">has</text><text fill="#000000" font-family="sans-serif" font-size="13" lengthAdjust="spacing" textLength="7" x="418.0771" y="379.7173">1</text></g><!--link Address to City--><g id="link_Address_City"><path codeLine="110" d="M354,953.9606 C354,979.6906 354,1008.3306 354,1029.5306 " fill="none" id="Address-City" style="stroke:#181818;stroke-width:1.0;"/><polygon fill="#000000" points="359,996.9023,361.9389,987.8573,356.0611,987.8573,359,996.9023" style="stroke:#000000;stroke-width:1.0;"/><text fill="#000000" font-family="sans-serif" font-size="13" lengthAdjust="spacing" textLength="21" x="368" y="996.4092">has</text><text fill="#000000" font-family="sans-serif" font-size="13" lengthAdjust="spacing" textLength="7" x="346.2344" y="1018.7003">1</text></g><!--link City to District--><g id="link_City_District"><path codeLine="111" d="M354,1094.6806 C354,1117.2706 354,1147.5706 354,1170.2406 " fill="none" id="City-District" style="stroke:#181818;stroke-width:1.0;"/><polygon fill="#000000" points="359,1137.9023,361.9389,1128.8573,356.0611,1128.8573,359,1137.9023" style="stroke:#000000;stroke-width:1.0;"/><text fill="#000000" font-family="sans-serif" font-size="13" lengthAdjust="spacing" textLength="24" x="368" y="1137.4092">is in</text><text fill="#000000" font-family="sans-serif" font-size="13" lengthAdjust="spacing" textLength="7" x="346.2781" y="1159.8418">1</text></g><!--link District to State--><g id="link_District_State"><path codeLine="112" d="M354,1235.6806 C354,1258.2706 354,1288.5706 354,1311.2406 " fill="none" id="District-State" style="stroke:#181818;stroke-width:1.0;"/><polygon fill="#000000" points="359,1278.9023,361.9389,1269.8573,356.0611,1269.8573,359,1278.9023" style="stroke:#000000;stroke-width:1.0;"/><text fill="#000000" font-family="sans-serif" font-size="13" lengthAdjust="spacing" textLength="24" x="368" y="1278.4092">is in</text><text fill="#000000" font-family="sans-serif" font-size="13" lengthAdjust="spacing" textLength="7" x="346.2781" y="1300.8418">1</text></g><!--link NetworkManager to Order--><g id="link_NetworkManager_Order"><path codeLine="113" d="M538.58,71.6306 C420.88,92.4606 160,138.6406 160,138.6406 C160,138.6406 160,172.6406 160,172.6406 C160,172.6406 195.79,223.5606 223.89,263.5306 " fill="none" id="NetworkManager-Order" style="stroke:#181818;stroke-width:1.0;"/><polygon fill="#000000" points="160.7311,158.5055,169.9837,156.3055,166.9235,151.2871,160.7311,158.5055" style="stroke:#000000;stroke-width:1.0;"/><text fill="#000000" font-family="sans-serif" font-size="13" lengthAdjust="spacing" textLength="86" x="174" y="160.4092">sorts the deals</text><text fill="#000000" font-family="sans-serif" font-size="13" lengthAdjust="spacing" textLength="24" x="192.9825" y="252.885">1...*</text></g><!--link NetworkManager to Employee--><g id="link_NetworkManager_Employee"><path codeLine="114" d="M604.54,77.9706 C617.75,100.5706 640,138.6406 640,138.6406 C640,138.6406 640,172.6406 640,172.6406 C640,172.6406 637.75,318.9006 636.27,415.3306 " fill="none" id="NetworkManager-to-Employee" style="stroke:#181818;stroke-width:1.0;"/><polygon fill="none" points="643.27,415.4906,635.96,435.3806,629.27,415.2806,643.27,415.4906" style="stroke:#181818;stroke-width:1.0;"/><polygon fill="#000000" points="644.4682,223.3804,646.5472,214.0998,640.6952,214.6502,644.4682,223.3804" style="stroke:#000000;stroke-width:1.0;"/><text fill="#000000" font-family="sans-serif" font-size="13" lengthAdjust="spacing" textLength="10" x="653" y="222.9092">is</text></g><!--link Agent to Employee--><g id="link_Agent_Employee"><path codeLine="115" d="M485.67,172.2106 C504.23,185.5606 528,202.6406 528,202.6406 C528,202.6406 573.82,329.1706 605.49,416.6406 " fill="none" id="Agent-to-Employee" style="stroke:#181818;stroke-width:1.0;"/><polygon fill="none" points="612.08,414.2806,612.31,435.4706,598.92,419.0506,612.08,414.2806" style="stroke:#181818;stroke-width:1.0;"/><polygon fill="#000000" points="590.2008,316.3919,588.8584,306.9766,583.5806,309.5638,590.2008,316.3919" style="stroke:#000000;stroke-width:1.0;"/><text fill="#000000" font-family="sans-serif" font-size="13" lengthAdjust="spacing" textLength="10" x="597" y="316.4092">is</text></g><!--link Agent to Order--><g id="link_Agent_Order"><path codeLine="116" d="M442.5,166.0606 C411.78,179.5206 359,202.6406 359,202.6406 C359,202.6406 328.93,234.4806 301.44,263.5806 " fill="none" id="Agent-Order" style="stroke:#181818;stroke-width:1.0;"/><text fill="#000000" font-family="sans-serif" font-size="13" lengthAdjust="spacing" textLength="61" x="367" y="215.4092">makes the</text><polygon fill="#000000" points="360.8872,228.2691,369.9986,225.5429,366.6561,220.708,360.8872,228.2691" style="stroke:#000000;stroke-width:1.0;"/><text fill="#000000" font-family="sans-serif" font-size="13" lengthAdjust="spacing" textLength="66" x="373" y="229.9326">decision on</text><text fill="#000000" font-family="sans-serif" font-size="13" lengthAdjust="spacing" textLength="7" x="427.5313" y="165.06">1</text><text fill="#000000" font-family="sans-serif" font-size="13" lengthAdjust="spacing" textLength="24" x="282.4074" y="252.9426">1...*</text></g><!--link Agent to Store--><g id="link_Agent_Store"><path codeLine="117" d="M460.74,172.8306 C456.45,194.1406 448.72,232.5206 442.51,263.3806 " fill="none" id="Agent-Store" style="stroke:#181818;stroke-width:1.0;"/><polygon fill="#000000" points="457.0132,223.304,461.6795,215.0169,455.9172,213.8568,457.0132,223.304" style="stroke:#000000;stroke-width:1.0;"/><text fill="#000000" font-family="sans-serif" font-size="13" lengthAdjust="spacing" textLength="52" x="467" y="222.9092">works for</text></g><!--link NetworkManager to Store--><g id="link_NetworkManager_Store"><path codeLine="118" d="M588.7,77.8206 C572.02,120.6406 528,233.6406 528,233.6406 C528,233.6406 506.25,251.2706 483.56,269.6606 " fill="none" id="NetworkManager-Store" style="stroke:#181818;stroke-width:1.0;"/><polygon fill="#000000" points="566.5969,160.287,573.5214,153.7676,568.3669,150.9426,566.5969,160.287" style="stroke:#000000;stroke-width:1.0;"/><text fill="#000000" font-family="sans-serif" font-size="13" lengthAdjust="spacing" textLength="53" x="578" y="160.4092">manages</text><text fill="#000000" font-family="sans-serif" font-size="13" lengthAdjust="spacing" textLength="7" x="578.6988" y="97.1295">1</text><text fill="#000000" font-family="sans-serif" font-size="13" lengthAdjust="spacing" textLength="24" x="491.5755" y="261.1741">1...*</text></g><!--link Property to Address--><g id="link_Property_Address"><path codeLine="119" d="M290.38,750.8306 C301.23,774.4006 313.94,802.0306 325.13,826.3806 " fill="none" id="Property-Address" style="stroke:#181818;stroke-width:1.0;"/><polygon fill="#000000" points="316.0894,793.4449,314.9797,783.9993,309.6396,786.4555,316.0894,793.4449" style="stroke:#000000;stroke-width:1.0;"/><text fill="#000000" font-family="sans-serif" font-size="13" lengthAdjust="spacing" textLength="21" x="323" y="793.4092">has</text></g><!--link Residence to Property--><g id="link_Residence_Property"><path codeLine="120" d="M134.32,547.4806 C154.8,570.3806 179.78,598.3306 202.41,623.6306 " fill="none" id="Residence-to-Property" style="stroke:#181818;stroke-width:1.0;"/><polygon fill="none" points="207.65,618.9906,215.76,638.5606,197.21,628.3206,207.65,618.9906" style="stroke:#181818;stroke-width:1.0;"/></g><!--link House to Residence--><g id="link_House_Residence"><path codeLine="121" d="M92,344.5306 C92,368.2306 92,401.4306 92,430.9106 " fill="none" id="House-to-Residence" style="stroke:#181818;stroke-width:1.0;"/><polygon fill="none" points="99,431.0306,92,451.0306,85,431.0306,99,431.0306" style="stroke:#181818;stroke-width:1.0;"/></g><!--link Order to Announcement--><g id="link_Order_Announcement"><path codeLine="122" d="M259.04,359.9306 C260.35,390.4106 262.04,429.6006 263.29,458.4606 " fill="none" id="Order-Announcement" style="stroke:#181818;stroke-width:1.0;"/><polygon fill="#000000" points="266.2155,402.8977,268.7619,393.7344,262.8895,393.9877,266.2155,402.8977" style="stroke:#000000;stroke-width:1.0;"/><text fill="#000000" font-family="sans-serif" font-size="13" lengthAdjust="spacing" textLength="14" x="275" y="402.4092">on</text><text fill="#000000" font-family="sans-serif" font-size="13" lengthAdjust="spacing" textLength="7" x="255.362" y="447.8218">1</text></g><!--link Announcement to Property--><g id="link_Announcement_Property"><path codeLine="123" d="M265,539.7606 C265,568.1806 265,606.8406 265,638.3006 " fill="none" id="Announcement-Property" style="stroke:#181818;stroke-width:1.0;"/><polygon fill="#000000" points="270,605.9023,272.9389,596.8573,267.0611,596.8573,270,605.9023" style="stroke:#000000;stroke-width:1.0;"/><text fill="#000000" font-family="sans-serif" font-size="13" lengthAdjust="spacing" textLength="63" x="279" y="605.4092">announces</text><text fill="#000000" font-family="sans-serif" font-size="13" lengthAdjust="spacing" textLength="7" x="257.5516" y="627.9973">1</text></g><!--link Client to Order--><g id="link_Client_Order"><path codeLine="124" d="M280.46,172.7306 C265.18,185.9906 246,202.6406 246,202.6406 C246,202.6406 246,233.6406 246,233.6406 C246,233.6406 247.99,247.6006 250.28,263.6306 " fill="none" id="Client-Order" style="stroke:#181818;stroke-width:1.0;"/><polygon fill="#000000" points="249.4245,223.1476,255.0638,215.4894,249.4854,213.6373,249.4245,223.1476" style="stroke:#000000;stroke-width:1.0;"/><text fill="#000000" font-family="sans-serif" font-size="13" lengthAdjust="spacing" textLength="39" x="260" y="222.9092">makes</text></g><!--SRC=[lLHDRnCn4BtxLrYz826beYUa7YAbJH58RL8Hk76Ph6TthTYUnNOe8V3V6Nk_IpaX8KLPZz-RhpUsmq6x1ZnOQSbHKNkoAAC_eWW3qa1nW0ftyMHGUYmYkCfC2Q46HK_QLR844wQ8qGxZgK7Pa3abGuXN1iie8qclgpfAfLD4JKw8MYkKXVO51yzhYx4c5OI8EdBgpxitLs_bGgx9WdRoWHGQKHW8GQwKyXZ2MOJe4MDdYX-wkMMM-2KwtYv2nCJYpmRi15bhTjL5F0lLhURuhOwdioZuVxw_gj2nqs3VsSRG2Jc9IppaKarVJbEJmytHxj6F3bklq9y5fSyZvqMXkBZMxhWA2nsIH6DMv-Ze2hGvUK5MXqJun5AFLXjexC3eUQcFdXhqgItm2A9fatFtm97VyKb8FT-o3vVGTDoSWVk8L7bewdjcJzKbpuqh3Bfoa8SwRNccnOVrf9kNfwU8UWLACwx_mr0t69_87nx0yRdt_pBTZwo5GjQJFJAqBMzGUI8RnWs8zNpd4JnVeMh7Dm-3W6-S1VO6xxuUTPD6FiP_JyV0iV4xzvVIRClL3OHyBeHsDUnrJ9xtL6QdF25vSNKX5ujUTdajQmXoANgReSH8uWnODZgWLvL17IJVnAKOjZfA7ia4dmlAh4IxlBnyVT6UVwO6yZ78MADKoA_8Iqu_byC0sjXSSxf-ATvViQxPv-ai7B1DzyNrzqloRnApFS_CJLK4MPB_iwWs-XY-Tx4PJrNqj-mbnOVJqJRNKqMUQhitK4HRUIVmz07WS9H4dkrrl27xjOGEpkFCRq4YpVLOYjy0]--></g></svg>