<?xml version="1.0" encoding="us-ascii" standalone="no"?><svg xmlns="http://www.w3.org/2000/svg" xmlns:xlink="http://www.w3.org/1999/xlink" contentStyleType="text/css" height="636.5px" preserveAspectRatio="none" style="width:594px;height:636px;background:#FFFFFF;" version="1.1" viewBox="0 0 594 636" width="594.5px" zoomAndPan="magnify"><defs/><g><text fill="#000000" font-family="sans-serif" font-size="7" font-weight="bold" lengthAdjust="spacing" textLength="81.5" x="253.125" y="11.3369">Project - Domain Model</text><!--class District--><g id="elem_District"><rect codeLine="14" fill="#F1F1F1" height="16.8203" id="District" rx="1.25" ry="1.25" style="stroke:#181818;stroke-width:0.25;" width="24.5" x="98" y="553.3203"/><text fill="#000000" font-family="sans-serif" font-size="7" lengthAdjust="spacing" textLength="21.5" x="99.5" y="562.1572">District</text><line style="stroke:#181818;stroke-width:0.25;" x1="98.5" x2="122" y1="566.1406" y2="566.1406"/></g><!--class Branch--><g id="elem_Branch"><rect codeLine="18" fill="#F1F1F1" height="40.2813" id="Branch" rx="1.25" ry="1.25" style="stroke:#181818;stroke-width:0.25;" width="48.5" x="231.5" y="240.5703"/><text fill="#000000" font-family="sans-serif" font-size="7" lengthAdjust="spacing" textLength="22.5" x="244.5" y="249.4072">Branch</text><line style="stroke:#181818;stroke-width:0.25;" x1="232" x2="279.5" y1="253.3906" y2="253.3906"/><text fill="#000000" font-family="sans-serif" font-size="7" lengthAdjust="spacing" textLength="36.5" x="234.5" y="261.7275">designation</text><text fill="#000000" font-family="sans-serif" font-size="7" lengthAdjust="spacing" textLength="24.5" x="234.5" y="269.5479">location</text><text fill="#000000" font-family="sans-serif" font-size="7" lengthAdjust="spacing" textLength="42.5" x="234.5" y="277.3682">localManager</text></g><!--class Agent--><g id="elem_Agent"><rect codeLine="24" fill="#F1F1F1" height="71.5625" id="Agent" rx="1.25" ry="1.25" style="stroke:#181818;stroke-width:0.25;" width="65.5" x="223" y="326.8203"/><text fill="#000000" font-family="sans-serif" font-size="7" lengthAdjust="spacing" textLength="18.5" x="246.5" y="335.6572">Agent</text><line style="stroke:#181818;stroke-width:0.25;" x1="223.5" x2="288" y1="339.6406" y2="339.6406"/><text fill="#000000" font-family="sans-serif" font-size="7" lengthAdjust="spacing" textLength="17.5" x="226" y="347.9775">name</text><text fill="#000000" font-family="sans-serif" font-size="7" lengthAdjust="spacing" textLength="59.5" x="226" y="355.7979">citizenCardNumber</text><text fill="#000000" font-family="sans-serif" font-size="7" lengthAdjust="spacing" textLength="35" x="226" y="363.6182">tax number</text><text fill="#000000" font-family="sans-serif" font-size="7" lengthAdjust="spacing" textLength="25.5" x="226" y="371.4385">address</text><text fill="#000000" font-family="sans-serif" font-size="7" lengthAdjust="spacing" textLength="16.5" x="226" y="379.2588">email</text><text fill="#000000" font-family="sans-serif" font-size="7" lengthAdjust="spacing" textLength="44.5" x="226" y="387.0791">phoneNumber</text><text fill="#000000" font-family="sans-serif" font-size="7" lengthAdjust="spacing" textLength="23" x="226" y="394.8994">agency</text></g><!--class Property--><g id="elem_Property"><rect codeLine="34" fill="#F1F1F1" height="63.7422" id="Property" rx="1.25" ry="1.25" style="stroke:#181818;stroke-width:0.25;" width="82.5" x="454.5" y="436.3203"/><text fill="#000000" font-family="sans-serif" font-size="7" lengthAdjust="spacing" textLength="27" x="482.25" y="445.1572">Property</text><line style="stroke:#181818;stroke-width:0.25;" x1="455" x2="536.5" y1="449.1406" y2="449.1406"/><text fill="#000000" font-family="sans-serif" font-size="7" lengthAdjust="spacing" textLength="14.5" x="457.5" y="457.4775">area</text><text fill="#000000" font-family="sans-serif" font-size="7" lengthAdjust="spacing" textLength="24.5" x="457.5" y="465.2979">location</text><text fill="#000000" font-family="sans-serif" font-size="7" lengthAdjust="spacing" textLength="76.5" x="457.5" y="473.1182">distanceFromCityCentre</text><text fill="#000000" font-family="sans-serif" font-size="7" lengthAdjust="spacing" textLength="48" x="457.5" y="480.9385">requestedPrice</text><text fill="#000000" font-family="sans-serif" font-size="7" lengthAdjust="spacing" textLength="48" x="457.5" y="488.7588">typeOfProperty</text><text fill="#000000" font-family="sans-serif" font-size="7" lengthAdjust="spacing" textLength="40" x="457.5" y="496.5791">photographs</text></g><!--class Advertisement--><g id="elem_Advertisement"><rect codeLine="43" fill="#F1F1F1" height="24.6406" id="Advertisement" rx="1.25" ry="1.25" style="stroke:#181818;stroke-width:0.25;" width="48" x="243.25" y="455.8203"/><text fill="#000000" font-family="sans-serif" font-size="7" lengthAdjust="spacing" textLength="45" x="244.75" y="464.6572">Advertisement</text><line style="stroke:#181818;stroke-width:0.25;" x1="243.75" x2="290.75" y1="468.6406" y2="468.6406"/><text fill="#000000" font-family="sans-serif" font-size="7" lengthAdjust="spacing" textLength="14" x="246.25" y="476.9775">date</text></g><!--class Residence--><g id="elem_Residence"><rect codeLine="47" fill="#F1F1F1" height="48.1016" id="Residence" rx="1.25" ry="1.25" style="stroke:#181818;stroke-width:0.25;" width="67.5" x="420.5" y="537.8203"/><text fill="#000000" font-family="sans-serif" font-size="7" lengthAdjust="spacing" textLength="33.5" x="437.5" y="546.6572">Residence</text><line style="stroke:#181818;stroke-width:0.25;" x1="421" x2="487.5" y1="550.6406" y2="550.6406"/><text fill="#000000" font-family="sans-serif" font-size="7" lengthAdjust="spacing" textLength="56" x="423.5" y="558.9775">numberBedrooms</text><text fill="#000000" font-family="sans-serif" font-size="7" lengthAdjust="spacing" textLength="58" x="423.5" y="566.7979">numberBathrooms</text><text fill="#000000" font-family="sans-serif" font-size="7" lengthAdjust="spacing" textLength="48" x="423.5" y="574.6182">numberParking</text><text fill="#000000" font-family="sans-serif" font-size="7" lengthAdjust="spacing" textLength="61.5" x="423.5" y="582.4385">availableEquipment</text></g><!--class House--><g id="elem_House"><rect codeLine="54" fill="#F1F1F1" height="40.2813" id="House" rx="1.25" ry="1.25" style="stroke:#181818;stroke-width:0.25;" width="52.5" x="532.5" y="541.5703"/><text fill="#000000" font-family="sans-serif" font-size="7" lengthAdjust="spacing" textLength="20" x="548.75" y="550.4072">House</text><line style="stroke:#181818;stroke-width:0.25;" x1="533" x2="584.5" y1="554.3906" y2="554.3906"/><text fill="#000000" font-family="sans-serif" font-size="7" lengthAdjust="spacing" textLength="31" x="535.5" y="562.7275">basement</text><text fill="#000000" font-family="sans-serif" font-size="7" lengthAdjust="spacing" textLength="46.5" x="535.5" y="570.5479">inhabitableLoft</text><text fill="#000000" font-family="sans-serif" font-size="7" lengthAdjust="spacing" textLength="41" x="535.5" y="578.3682">sunExposure</text></g><!--class Comission--><g id="elem_Comission"><rect codeLine="60" fill="#F1F1F1" height="32.4609" id="Comission" rx="1.25" ry="1.25" style="stroke:#181818;stroke-width:0.25;" width="42" x="301.75" y="545.5703"/><text fill="#000000" font-family="sans-serif" font-size="7" lengthAdjust="spacing" textLength="32.5" x="306.5" y="554.4072">Comission</text><line style="stroke:#181818;stroke-width:0.25;" x1="302.25" x2="343.25" y1="558.3906" y2="558.3906"/><text fill="#000000" font-family="sans-serif" font-size="7" lengthAdjust="spacing" textLength="14.5" x="304.75" y="566.7275">fixed</text><text fill="#000000" font-family="sans-serif" font-size="7" lengthAdjust="spacing" textLength="36" x="304.75" y="574.5479">percentage</text></g><!--class SystemAdministrator--><g id="elem_SystemAdministrator"><rect codeLine="65" fill="#F1F1F1" height="63.7422" id="SystemAdministrator" rx="1.25" ry="1.25" style="stroke:#181818;stroke-width:0.25;" width="67.5" x="71" y="21.8203"/><text fill="#000000" font-family="sans-serif" font-size="7" lengthAdjust="spacing" textLength="64.5" x="72.5" y="30.6572">SystemAdministrator</text><line style="stroke:#181818;stroke-width:0.25;" x1="71.5" x2="138" y1="34.6406" y2="34.6406"/><text fill="#000000" font-family="sans-serif" font-size="7" lengthAdjust="spacing" textLength="17.5" x="74" y="42.9775">name</text><text fill="#000000" font-family="sans-serif" font-size="7" lengthAdjust="spacing" textLength="16.5" x="74" y="50.7979">email</text><text fill="#000000" font-family="sans-serif" font-size="7" lengthAdjust="spacing" textLength="59.5" x="74" y="58.6182">citizenCardNumber</text><text fill="#000000" font-family="sans-serif" font-size="7" lengthAdjust="spacing" textLength="33.5" x="74" y="66.4385">taxNumber</text><text fill="#000000" font-family="sans-serif" font-size="7" lengthAdjust="spacing" textLength="53.5" x="74" y="74.2588">physycalAddress</text><text fill="#000000" font-family="sans-serif" font-size="7" lengthAdjust="spacing" textLength="44.5" x="74" y="82.0791">phoneNumber</text></g><!--class Employee--><g id="elem_Employee"><rect codeLine="75" fill="#F1F1F1" height="71.5625" id="Employee" rx="1.25" ry="1.25" style="stroke:#181818;stroke-width:0.25;" width="65.5" x="45" y="123.3203"/><text fill="#000000" font-family="sans-serif" font-size="7" lengthAdjust="spacing" textLength="31" x="62.25" y="132.1572">Employee</text><line style="stroke:#181818;stroke-width:0.25;" x1="45.5" x2="110" y1="136.1406" y2="136.1406"/><text fill="#000000" font-family="sans-serif" font-size="7" lengthAdjust="spacing" textLength="17.5" x="48" y="144.4775">name</text><text fill="#000000" font-family="sans-serif" font-size="7" lengthAdjust="spacing" textLength="59.5" x="48" y="152.2979">citizenCardNumber</text><text fill="#000000" font-family="sans-serif" font-size="7" lengthAdjust="spacing" textLength="25.5" x="48" y="160.1182">address</text><text fill="#000000" font-family="sans-serif" font-size="7" lengthAdjust="spacing" textLength="16.5" x="48" y="167.9385">email</text><text fill="#000000" font-family="sans-serif" font-size="7" lengthAdjust="spacing" textLength="44.5" x="48" y="175.7588">phoneNumber</text><text fill="#000000" font-family="sans-serif" font-size="7" lengthAdjust="spacing" textLength="33.5" x="48" y="183.5791">taxNumber</text><text fill="#000000" font-family="sans-serif" font-size="7" lengthAdjust="spacing" textLength="23" x="48" y="191.3994">agency</text></g><!--class CompanyBranch--><g id="elem_CompanyBranch"><rect codeLine="85" fill="#F1F1F1" height="55.9219" id="CompanyBranch" rx="1.25" ry="1.25" style="stroke:#181818;stroke-width:0.25;" width="55.5" x="53.5" y="232.8203"/><text fill="#000000" font-family="sans-serif" font-size="7" lengthAdjust="spacing" textLength="52.5" x="55" y="241.6572">CompanyBranch</text><line style="stroke:#181818;stroke-width:0.25;" x1="54" x2="108.5" y1="245.6406" y2="245.6406"/><text fill="#000000" font-family="sans-serif" font-size="7" lengthAdjust="spacing" textLength="5.5" x="56.5" y="253.9775">id</text><text fill="#000000" font-family="sans-serif" font-size="7" lengthAdjust="spacing" textLength="17.5" x="56.5" y="261.7979">name</text><text fill="#000000" font-family="sans-serif" font-size="7" lengthAdjust="spacing" textLength="24.5" x="56.5" y="269.6182">location</text><text fill="#000000" font-family="sans-serif" font-size="7" lengthAdjust="spacing" textLength="44.5" x="56.5" y="277.4385">phoneNumber</text><text fill="#000000" font-family="sans-serif" font-size="7" lengthAdjust="spacing" textLength="16.5" x="56.5" y="285.2588">email</text></g><!--class Role--><g id="elem_Role"><rect codeLine="93" fill="#F1F1F1" height="16.8203" id="Role" rx="1.25" ry="1.25" style="stroke:#181818;stroke-width:0.25;" width="17.5" x="18.5" y="252.3203"/><text fill="#000000" font-family="sans-serif" font-size="7" lengthAdjust="spacing" textLength="14.5" x="20" y="261.1572">Role</text><line style="stroke:#181818;stroke-width:0.25;" x1="19" x2="35.5" y1="265.1406" y2="265.1406"/></g><!--class Store--><g id="elem_Store"><rect codeLine="97" fill="#F1F1F1" height="40.2813" id="Store" rx="1.25" ry="1.25" style="stroke:#181818;stroke-width:0.25;" width="50.5" x="130.5" y="342.3203"/><text fill="#000000" font-family="sans-serif" font-size="7" lengthAdjust="spacing" textLength="17" x="147.25" y="351.1572">Store</text><line style="stroke:#181818;stroke-width:0.25;" x1="131" x2="180.5" y1="355.1406" y2="355.1406"/><text fill="#000000" font-family="sans-serif" font-size="7" lengthAdjust="spacing" textLength="34" x="133.5" y="363.4775">storeName</text><text fill="#000000" font-family="sans-serif" font-size="7" lengthAdjust="spacing" textLength="44.5" x="133.5" y="371.2979">phoneNumber</text><text fill="#000000" font-family="sans-serif" font-size="7" lengthAdjust="spacing" textLength="42.5" x="133.5" y="379.1182">emailAddress</text></g><!--class Address--><g id="elem_Address"><rect codeLine="103" fill="#F1F1F1" height="63.7422" id="Address" rx="1.25" ry="1.25" style="stroke:#181818;stroke-width:0.25;" width="45" x="87.75" y="436.3203"/><text fill="#000000" font-family="sans-serif" font-size="7" lengthAdjust="spacing" textLength="26" x="97.25" y="445.1572">Address</text><line style="stroke:#181818;stroke-width:0.25;" x1="88.25" x2="132.25" y1="449.1406" y2="449.1406"/><text fill="#000000" font-family="sans-serif" font-size="7" lengthAdjust="spacing" textLength="18" x="90.75" y="457.4775">street</text><text fill="#000000" font-family="sans-serif" font-size="7" lengthAdjust="spacing" textLength="36" x="90.75" y="465.2979">postalCode</text><text fill="#000000" font-family="sans-serif" font-size="7" lengthAdjust="spacing" textLength="39" x="90.75" y="473.1182">doorNumber</text><text fill="#000000" font-family="sans-serif" font-size="7" lengthAdjust="spacing" textLength="38.5" x="90.75" y="480.9385">floorNumber</text><text fill="#000000" font-family="sans-serif" font-size="7" lengthAdjust="spacing" textLength="10.5" x="90.75" y="488.7588">city</text><text fill="#000000" font-family="sans-serif" font-size="7" lengthAdjust="spacing" textLength="15.5" x="90.75" y="496.5791">state</text></g><!--class Owner--><g id="elem_Owner"><rect codeLine="111" fill="#F1F1F1" height="55.9219" id="Owner" rx="1.25" ry="1.25" style="stroke:#181818;stroke-width:0.25;" width="65.5" x="436.5" y="232.8203"/><text fill="#000000" font-family="sans-serif" font-size="7" lengthAdjust="spacing" textLength="20.5" x="459" y="241.6572">Owner</text><line style="stroke:#181818;stroke-width:0.25;" x1="437" x2="501.5" y1="245.6406" y2="245.6406"/><text fill="#000000" font-family="sans-serif" font-size="7" lengthAdjust="spacing" textLength="17.5" x="439.5" y="253.9775">name</text><text fill="#000000" font-family="sans-serif" font-size="7" lengthAdjust="spacing" textLength="59.5" x="439.5" y="261.7979">citizenCardNumber</text><text fill="#000000" font-family="sans-serif" font-size="7" lengthAdjust="spacing" textLength="33.5" x="439.5" y="269.6182">taxNumber</text><text fill="#000000" font-family="sans-serif" font-size="7" lengthAdjust="spacing" textLength="16.5" x="439.5" y="277.4385">email</text><text fill="#000000" font-family="sans-serif" font-size="7" lengthAdjust="spacing" textLength="44.5" x="439.5" y="285.2588">phoneNumber</text></g><!--class Appartment--><g id="elem_Appartment"><rect codeLine="119" fill="#F1F1F1" height="16.8203" id="Appartment" rx="1.25" ry="1.25" style="stroke:#181818;stroke-width:0.25;" width="39.5" x="434.5" y="616.3203"/><text fill="#000000" font-family="sans-serif" font-size="7" lengthAdjust="spacing" textLength="36.5" x="436" y="625.1572">Appartment</text><line style="stroke:#181818;stroke-width:0.25;" x1="435" x2="473.5" y1="629.1406" y2="629.1406"/></g><!--class Company--><g id="elem_Company"><rect codeLine="122" fill="#F1F1F1" height="24.6406" id="Company" rx="1.25" ry="1.25" style="stroke:#181818;stroke-width:0.25;" width="42.5" x="3.5" y="350.3203"/><text fill="#000000" font-family="sans-serif" font-size="7" lengthAdjust="spacing" textLength="30" x="9.75" y="359.1572">Company</text><line style="stroke:#181818;stroke-width:0.25;" x1="4" x2="45.5" y1="363.1406" y2="363.1406"/><text fill="#000000" font-family="sans-serif" font-size="7" lengthAdjust="spacing" textLength="36.5" x="6.5" y="371.4775">designation</text></g><!--class InitialData--><g id="elem_InitialData"><rect codeLine="126" fill="#F1F1F1" height="40.2813" id="InitialData" rx="1.25" ry="1.25" style="stroke:#181818;stroke-width:0.25;" width="62.5" x="398" y="342.3203"/><text fill="#000000" font-family="sans-serif" font-size="7" lengthAdjust="spacing" textLength="31" x="413.75" y="351.1572">InitialData</text><line style="stroke:#181818;stroke-width:0.25;" x1="398.5" x2="460" y1="355.1406" y2="355.1406"/><text fill="#000000" font-family="sans-serif" font-size="7" lengthAdjust="spacing" textLength="56.5" x="401" y="363.4775">propertiesNumber</text><text fill="#000000" font-family="sans-serif" font-size="7" lengthAdjust="spacing" textLength="42.5" x="401" y="371.2979">propertyType</text><text fill="#000000" font-family="sans-serif" font-size="7" lengthAdjust="spacing" textLength="36" x="401" y="379.1182">saleOrRent</text></g><!--class PropertyType--><g id="elem_PropertyType"><rect codeLine="132" fill="#F1F1F1" height="40.2813" id="PropertyType" rx="1.25" ry="1.25" style="stroke:#181818;stroke-width:0.25;" width="46" x="390.75" y="447.8203"/><text fill="#000000" font-family="sans-serif" font-size="7" lengthAdjust="spacing" textLength="43" x="392.25" y="456.6572">PropertyType</text><line style="stroke:#181818;stroke-width:0.25;" x1="391.25" x2="436.25" y1="460.6406" y2="460.6406"/><text fill="#000000" font-family="sans-serif" font-size="7" lengthAdjust="spacing" textLength="13.5" x="393.75" y="468.9775">land</text><text fill="#000000" font-family="sans-serif" font-size="7" lengthAdjust="spacing" textLength="19.5" x="393.75" y="476.7979">house</text><text fill="#000000" font-family="sans-serif" font-size="7" lengthAdjust="spacing" textLength="32" x="393.75" y="484.6182">apartment</text></g><!--class Rent--><g id="elem_Rent"><rect codeLine="138" fill="#F1F1F1" height="32.4609" id="Rent" rx="1.25" ry="1.25" style="stroke:#181818;stroke-width:0.25;" width="58.5" x="143" y="545.5703"/><text fill="#000000" font-family="sans-serif" font-size="7" lengthAdjust="spacing" textLength="15" x="164.75" y="554.4072">Rent</text><line style="stroke:#181818;stroke-width:0.25;" x1="143.5" x2="201" y1="558.3906" y2="558.3906"/><text fill="#000000" font-family="sans-serif" font-size="7" lengthAdjust="spacing" textLength="46" x="146" y="566.7275">pricePerMonth</text><text fill="#000000" font-family="sans-serif" font-size="7" lengthAdjust="spacing" textLength="52.5" x="146" y="574.5479">contractDuration</text></g><!--class Sale--><g id="elem_Sale"><rect codeLine="143" fill="#F1F1F1" height="24.6406" id="Sale" rx="1.25" ry="1.25" style="stroke:#181818;stroke-width:0.25;" width="21.5" x="229.5" y="549.5703"/><text fill="#000000" font-family="sans-serif" font-size="7" lengthAdjust="spacing" textLength="14" x="233.25" y="558.4072">Sale</text><line style="stroke:#181818;stroke-width:0.25;" x1="230" x2="250.5" y1="562.3906" y2="562.3906"/><text fill="#000000" font-family="sans-serif" font-size="7" lengthAdjust="spacing" textLength="15.5" x="232.5" y="570.7275">price</text></g><!--link CompanyBranch to Company--><g id="link_CompanyBranch_Company"><path codeLine="147" d="M53.285,281.8053 C46.415,288.1353 39.745,295.6203 35.25,303.8203 C27.245,318.4153 25.165,337.8653 24.72,350.1803 " fill="none" id="CompanyBranch-Company" style="stroke:#181818;stroke-width:0.5;"/><polygon fill="#000000" points="36.7863,310.258,39.8856,306.6514,37.1738,305.5185,36.7863,310.258" style="stroke:#000000;stroke-width:0.5;"/><text fill="#000000" font-family="sans-serif" font-size="6.5" lengthAdjust="spacing" textLength="25.5" x="42.25" y="310.2046">is owned</text><text fill="#000000" font-family="sans-serif" font-size="6.5" lengthAdjust="spacing" textLength="12" x="37.5701" y="282.6206">0...*</text><text fill="#000000" font-family="sans-serif" font-size="6.5" lengthAdjust="spacing" textLength="3.5" x="20.7639" y="345.0083">1</text></g><!--link CompanyBranch to Agent--><g id="link_CompanyBranch_Agent"><path codeLine="148" d="M109.095,277.3953 C140.075,295.2853 190.095,324.1653 222.95,343.1353 " fill="none" id="CompanyBranch-Agent" style="stroke:#181818;stroke-width:0.5;"/><polygon fill="#000000" points="173.415,309.2013,170.2332,305.6673,168.7637,308.2124,173.415,309.2013" style="stroke:#000000;stroke-width:0.5;"/><text fill="#000000" font-family="sans-serif" font-size="6.5" lengthAdjust="spacing" textLength="24.5" x="175.75" y="310.2046">employs</text><text fill="#000000" font-family="sans-serif" font-size="6.5" lengthAdjust="spacing" textLength="3.5" x="112.9794" y="277.811">1</text><text fill="#000000" font-family="sans-serif" font-size="6.5" lengthAdjust="spacing" textLength="12" x="206.9488" y="339.6647">0...*</text></g><!--link CompanyBranch to Address--><g id="link_CompanyBranch_Address"><path codeLine="149" d="M82.975,288.8703 C84.94,316.6253 88.695,360.6253 94.75,398.3203 C96.75,410.7903 99.635,424.3753 102.375,436.1853 " fill="none" id="CompanyBranch-Address" style="stroke:#181818;stroke-width:0.5;"/><polygon fill="#000000" points="97.5764,365.1798,98.4428,360.5041,95.529,360.8878,97.5764,365.1798" style="stroke:#000000;stroke-width:0.5;"/><text fill="#000000" font-family="sans-serif" font-size="6.5" lengthAdjust="spacing" textLength="19.5" x="101.75" y="364.9546">has an</text><text fill="#000000" font-family="sans-serif" font-size="6.5" lengthAdjust="spacing" textLength="3.5" x="77.3501" y="298.6205">1</text><text fill="#000000" font-family="sans-serif" font-size="6.5" lengthAdjust="spacing" textLength="12" x="88.7707" y="430.9793">0...*</text></g><!--link SystemAdministrator to Store--><g id="link_SystemAdministrator_Store"><path codeLine="151" d="M128.78,85.4103 C131.545,90.2053 133.995,95.2503 135.75,100.3203 C165.54,186.3453 161.02,297.4853 157.59,342.1703 " fill="none" id="SystemAdministrator-Store" style="stroke:#181818;stroke-width:0.5;"/><polygon fill="#000000" points="161.0288,216.4356,161.9848,211.7774,159.0642,212.1051,161.0288,216.4356" style="stroke:#000000;stroke-width:0.5;"/><text fill="#000000" font-family="sans-serif" font-size="6.5" lengthAdjust="spacing" textLength="25" x="165.25" y="216.2046">registers</text><text fill="#000000" font-family="sans-serif" font-size="6.5" lengthAdjust="spacing" textLength="3.5" x="127.8561" y="95.3819">1</text><text fill="#000000" font-family="sans-serif" font-size="6.5" lengthAdjust="spacing" textLength="10" x="147.0469" y="336.9881">0..*</text></g><!--link SystemAdministrator to Employee--><g id="link_SystemAdministrator_Employee"><path codeLine="152" d="M96.65,85.4253 C93.575,97.3253 90.05,110.9653 86.885,123.2103 " fill="none" id="SystemAdministrator-Employee" style="stroke:#181818;stroke-width:0.5;"/><polygon fill="#000000" points="95.3755,102.0307,92.8212,106.0417,95.6666,106.7771,95.3755,102.0307" style="stroke:#000000;stroke-width:0.5;"/><text fill="#000000" font-family="sans-serif" font-size="6.5" lengthAdjust="spacing" textLength="32" x="99.25" y="106.7046">registed by</text><text fill="#000000" font-family="sans-serif" font-size="6.5" lengthAdjust="spacing" textLength="3.5" x="92.0111" y="95.3986">1</text><text fill="#000000" font-family="sans-serif" font-size="6.5" lengthAdjust="spacing" textLength="12" x="75.2083" y="118.0459">0...*</text></g><!--link SystemAdministrator to Employee--><g id="link_SystemAdministrator_Employee"><path codeLine="153" d="M81.14,85.3703 C78.52,90.1703 76.255,95.2253 74.75,100.3203 C72.595,107.6053 71.96,115.6203 72.14,123.3103 " fill="none" id="SystemAdministrator-Employee-1" style="stroke:#181818;stroke-width:0.5;"/><polygon fill="#000000" points="76.673,106.8837,79.1466,102.8224,76.287,102.1441,76.673,106.8837" style="stroke:#000000;stroke-width:0.5;"/><text fill="#000000" font-family="sans-serif" font-size="6.5" lengthAdjust="spacing" textLength="5" x="81.75" y="106.7046">is</text><text fill="#000000" font-family="sans-serif" font-size="6.5" lengthAdjust="spacing" textLength="3.5" x="74.7078" y="95.3373">1</text><text fill="#000000" font-family="sans-serif" font-size="6.5" lengthAdjust="spacing" textLength="3.5" x="67.835" y="117.9114">1</text></g><!--link Store to Address--><g id="link_Store_Address"><path codeLine="155" d="M130.545,382.9603 C121.925,391.3053 113.31,401.7653 108.75,413.3203 C105.93,420.4653 105.06,428.5553 105.18,436.2703 " fill="none" id="Store-Address" style="stroke:#181818;stroke-width:0.5;"/><polygon fill="#000000" points="110.1759,419.7087,113.4459,416.2562,110.7921,414.9935,110.1759,419.7087" style="stroke:#000000;stroke-width:0.5;"/><text fill="#000000" font-family="sans-serif" font-size="6.5" lengthAdjust="spacing" textLength="19.5" x="115.75" y="419.7046">has an</text><text fill="#000000" font-family="sans-serif" font-size="6.5" lengthAdjust="spacing" textLength="3.5" x="122.9175" y="384.4677">1</text><text fill="#000000" font-family="sans-serif" font-size="6.5" lengthAdjust="spacing" textLength="3.5" x="104.7754" y="430.8536">1</text></g><!--link Store to Advertisement--><g id="link_Store_Advertisement"><path codeLine="156" d="M150.555,382.8803 C148.57,394.9653 148.31,410.1753 155.75,421.3203 C175.185,450.4253 216.715,461.2403 243.24,465.2403 " fill="none" id="Store-Advertisement" style="stroke:#181818;stroke-width:0.5;"/><polygon fill="#000000" points="160.1188,419.1118,157.7142,415.0093,155.762,417.2062,160.1188,419.1118" style="stroke:#000000;stroke-width:0.5;"/><text fill="#000000" font-family="sans-serif" font-size="6.5" lengthAdjust="spacing" textLength="24" x="162.75" y="419.7046">displays</text><text fill="#000000" font-family="sans-serif" font-size="6.5" lengthAdjust="spacing" textLength="3.5" x="145.9915" y="392.4473">1</text><text fill="#000000" font-family="sans-serif" font-size="6.5" lengthAdjust="spacing" textLength="2.5" x="236.7142" y="463.1254">*</text></g><!--link Employee to CompanyBranch--><g id="link_Employee_CompanyBranch"><path codeLine="158" d="M78.98,194.9503 C79.41,207.3653 79.89,221.1203 80.295,232.7953 " fill="none" id="Employee-CompanyBranch" style="stroke:#181818;stroke-width:0.5;"/><polygon fill="#000000" points="82.3368,216.4497,83.6483,211.8788,80.7112,211.9809,82.3368,216.4497" style="stroke:#000000;stroke-width:0.5;"/><text fill="#000000" font-family="sans-serif" font-size="6.5" lengthAdjust="spacing" textLength="26" x="86.75" y="216.2046">works for</text><text fill="#000000" font-family="sans-serif" font-size="6.5" lengthAdjust="spacing" textLength="3.5" x="75.4288" y="204.7209">1</text><text fill="#000000" font-family="sans-serif" font-size="6.5" lengthAdjust="spacing" textLength="3.5" x="76.4315" y="227.4663">1</text></g><!--link Employee to Role--><g id="link_Employee_Role"><path codeLine="159" d="M60.015,194.9503 C49.67,215.5903 37.475,239.9203 31.29,252.2653 " fill="none" id="Employee-Role" style="stroke:#181818;stroke-width:0.5;"/><polygon fill="#000000" points="54.1299,216.1862,57.4699,212.8014,54.8425,211.4846,54.1299,216.1862" style="stroke:#000000;stroke-width:0.5;"/><text fill="#000000" font-family="sans-serif" font-size="6.5" lengthAdjust="spacing" textLength="10.5" x="59.75" y="216.2046">has</text><text fill="#000000" font-family="sans-serif" font-size="6.5" lengthAdjust="spacing" textLength="12" x="45.6786" y="204.7209">0...*</text><text fill="#000000" font-family="sans-serif" font-size="6.5" lengthAdjust="spacing" textLength="12" x="18.5917" y="246.9336">1...*</text></g><!--link Agent to Address--><g id="link_Agent_Address"><path codeLine="161" d="M222.945,393.9953 C212.515,403.2203 200.705,413.0653 189.25,421.3203 C171.135,434.3753 149.11,447.0303 132.92,455.7953 " fill="none" id="Agent-Address" style="stroke:#181818;stroke-width:0.5;"/><polygon fill="#000000" points="199.6889,418.8661,204.2491,417.518,202.5858,415.095,199.6889,418.8661" style="stroke:#000000;stroke-width:0.5;"/><text fill="#000000" font-family="sans-serif" font-size="6.5" lengthAdjust="spacing" textLength="19.5" x="206.25" y="419.7046">has an</text><text fill="#000000" font-family="sans-serif" font-size="6.5" lengthAdjust="spacing" textLength="3.5" x="215.4496" y="396.1199">1</text><text fill="#000000" font-family="sans-serif" font-size="6.5" lengthAdjust="spacing" textLength="3.5" x="136.8004" y="452.3641">1</text></g><!--link Agent to Advertisement--><g id="link_Agent_Advertisement"><path codeLine="162" d="M253,398.4403 C252.925,406.0153 253.235,413.9553 254.25,421.3203 C255.9,433.3003 259.855,446.5453 262.97,455.7803 " fill="none" id="Agent-Advertisement" style="stroke:#181818;stroke-width:0.5;"/><polygon fill="#000000" points="257.1783,419.9142,257.8513,415.2068,254.9558,415.7103,257.1783,419.9142" style="stroke:#000000;stroke-width:0.5;"/><text fill="#000000" font-family="sans-serif" font-size="6.5" lengthAdjust="spacing" textLength="63" x="261.25" y="419.7046">reviews and publishes</text><text fill="#000000" font-family="sans-serif" font-size="6.5" lengthAdjust="spacing" textLength="3.5" x="249.057" y="408.2099">1</text><text fill="#000000" font-family="sans-serif" font-size="6.5" lengthAdjust="spacing" textLength="2.5" x="258.9838" y="450.4373">*</text></g><!--link Agent to Comission--><g id="link_Agent_Comission"><path codeLine="163" d="M288.635,377.5453 C303.105,385.7853 318.63,397.6253 326.75,413.3203 C349.19,456.6953 336.12,517.2103 327.885,545.5303 " fill="none" id="Agent-Comission" style="stroke:#181818;stroke-width:0.5;"/><polygon fill="#000000" points="341.8188,470.6356,342.2207,465.8973,339.3589,466.566,341.8188,470.6356" style="stroke:#000000;stroke-width:0.5;"/><text fill="#000000" font-family="sans-serif" font-size="6.5" lengthAdjust="spacing" textLength="20.5" x="345.75" y="470.4546">defines</text><text fill="#000000" font-family="sans-serif" font-size="6.5" lengthAdjust="spacing" textLength="3.5" x="292.4232" y="377.6956">1</text><text fill="#000000" font-family="sans-serif" font-size="6.5" lengthAdjust="spacing" textLength="3.5" x="325.1255" y="540.1184">1</text></g><!--link Owner to InitialData--><g id="link_Owner_InitialData"><path codeLine="165" d="M458.32,288.8503 C451.61,305.7453 443.175,326.9903 437.125,342.2403 " fill="none" id="Owner-InitialData" style="stroke:#181818;stroke-width:0.5;"/><polygon fill="#000000" points="452.8276,310.2748,455.862,306.6135,453.1305,305.5291,452.8276,310.2748" style="stroke:#000000;stroke-width:0.5;"/><text fill="#000000" font-family="sans-serif" font-size="6.5" lengthAdjust="spacing" textLength="20.5" x="458.25" y="310.2046">specify</text><text fill="#000000" font-family="sans-serif" font-size="6.5" lengthAdjust="spacing" textLength="3.5" x="453.2746" y="298.598">1</text><text fill="#000000" font-family="sans-serif" font-size="6.5" lengthAdjust="spacing" textLength="12" x="425.459" y="336.9227">0...*</text></g><!--link Owner to Property--><g id="link_Owner_Property"><path codeLine="166" d="M479.42,288.9503 C480.915,293.8503 482.275,298.9453 483.25,303.8203 C492.33,349.2553 494.915,402.9853 495.6,436.1753 " fill="none" id="Owner-Property" style="stroke:#181818;stroke-width:0.5;"/><polygon fill="#000000" points="496.5231,365.1862,497.4897,360.5302,494.5684,360.8513,496.5231,365.1862" style="stroke:#000000;stroke-width:0.5;"/><text fill="#000000" font-family="sans-serif" font-size="6.5" lengthAdjust="spacing" textLength="54" x="500.75" y="364.9546">creates request for</text><text fill="#000000" font-family="sans-serif" font-size="6.5" lengthAdjust="spacing" textLength="3.5" x="476.9462" y="298.7102">1</text><text fill="#000000" font-family="sans-serif" font-size="6.5" lengthAdjust="spacing" textLength="3.5" x="491.8803" y="430.9682">1</text></g><!--link Owner to Property--><g id="link_Owner_Property"><path codeLine="167" d="M502.18,275.5653 C522.67,286.3753 547.33,303.4003 559.25,326.8203 C573.665,355.1403 570.775,368.7053 559.25,398.3203 C553.75,412.4603 543.865,425.4653 533.51,436.2903 " fill="none" id="Owner-Property-1" style="stroke:#181818;stroke-width:0.5;"/><polygon fill="#000000" points="571.7283,365.155,572.3053,360.4348,569.4207,360.9971,571.7283,365.155" style="stroke:#000000;stroke-width:0.5;"/><text fill="#000000" font-family="sans-serif" font-size="6.5" lengthAdjust="spacing" textLength="15" x="575.75" y="364.9546">owns</text><text fill="#000000" font-family="sans-serif" font-size="6.5" lengthAdjust="spacing" textLength="3.5" x="505.9731" y="275.6981">1</text><text fill="#000000" font-family="sans-serif" font-size="6.5" lengthAdjust="spacing" textLength="3.5" x="534.3987" y="430.876">1</text></g><!--link Owner to Agent--><g id="link_Owner_Agent"><path codeLine="168" d="M436.36,276.8403 C396.18,295.8003 328.62,327.6853 288.505,346.6153 " fill="none" id="Owner-Agent" style="stroke:#181818;stroke-width:0.5;"/><polygon fill="#000000" points="375.4891,309.0181,380.2062,308.4169,378.952,305.7591,375.4891,309.0181" style="stroke:#000000;stroke-width:0.5;"/><text fill="#000000" font-family="sans-serif" font-size="6.5" lengthAdjust="spacing" textLength="21.5" x="382.25" y="310.2046">talks to</text><text fill="#000000" font-family="sans-serif" font-size="6.5" lengthAdjust="spacing" textLength="3.5" x="429.0713" y="277.1126">1</text><text fill="#000000" font-family="sans-serif" font-size="6.5" lengthAdjust="spacing" textLength="3.5" x="292.4946" y="343.2616">1</text></g><!--link InitialData to PropertyType--><g id="link_InitialData_PropertyType"><path codeLine="170" d="M433.215,382.9253 C434.835,394.2653 435.8,408.7003 433.25,421.3203 C431.435,430.2903 427.83,439.6803 424.205,447.6403 " fill="none" id="InitialData-PropertyType" style="stroke:#181818;stroke-width:0.5;"/><polygon fill="#000000" points="436.4053,419.9273,438.4843,415.6506,435.5735,415.2453,436.4053,419.9273" style="stroke:#000000;stroke-width:0.5;"/><text fill="#000000" font-family="sans-serif" font-size="6.5" lengthAdjust="spacing" textLength="24" x="441.25" y="419.7046">includes</text><text fill="#000000" font-family="sans-serif" font-size="6.5" lengthAdjust="spacing" textLength="3.5" x="425.7479" y="392.4992">1</text><text fill="#000000" font-family="sans-serif" font-size="6.5" lengthAdjust="spacing" textLength="3.5" x="422.2012" y="442.4529">1</text></g><!--link InitialData to Advertisement--><g id="link_InitialData_Advertisement"><path codeLine="171" d="M398.59,382.8503 C365.29,404.3303 313.19,437.9353 285.685,455.6803 " fill="none" id="InitialData-Advertisement" style="stroke:#181818;stroke-width:0.5;"/><polygon fill="#000000" points="348.6492,418.8063,353.2462,417.5897,351.6531,415.12,348.6492,418.8063" style="stroke:#000000;stroke-width:0.5;"/><text fill="#000000" font-family="sans-serif" font-size="6.5" lengthAdjust="spacing" textLength="38" x="355.25" y="419.7046">is included in</text><text fill="#000000" font-family="sans-serif" font-size="6.5" lengthAdjust="spacing" textLength="3.5" x="390.5323" y="392.1124">1</text><text fill="#000000" font-family="sans-serif" font-size="6.5" lengthAdjust="spacing" textLength="3.5" x="304.3949" y="450.5083">1</text></g><!--reverse link PropertyType to Residence--><g id="link_PropertyType_Residence"><path codeLine="173" d="M423.49,490.8803 C429.665,505.0203 437.645,523.2903 443.925,537.6803 " fill="none" id="PropertyType-backto-Residence" style="stroke:#181818;stroke-width:0.5;"/><polygon fill="#181818" points="422.44,488.4653,422.4057,493.3896,423.4394,490.7569,426.0722,491.7905,422.44,488.4653" style="stroke:#181818;stroke-width:0.5;"/></g><!--reverse link Residence to Appartment--><g id="link_Residence_Appartment"><path codeLine="175" d="M454.25,588.4603 C454.25,598.4503 454.25,609.1303 454.25,616.2153 " fill="none" id="Residence-backto-Appartment" style="stroke:#181818;stroke-width:0.5;"/><polygon fill="#181818" points="454.25,585.9353,452.25,590.4353,454.25,588.4353,456.25,590.4353,454.25,585.9353" style="stroke:#181818;stroke-width:0.5;"/></g><!--link Advertisement to Sale--><g id="link_Advertisement_Sale"><path codeLine="177" d="M257.36,480.4403 C250.655,489.2953 242.375,502.0253 238.75,514.8203 C235.79,525.2603 236.35,537.5553 237.55,546.8753 " fill="none" id="Advertisement-to-Sale" style="stroke:#181818;stroke-width:0.5;"/><polygon fill="#181818" points="237.905,549.4203,239.2695,544.6887,237.5624,546.9439,235.3073,545.2368,237.905,549.4203" style="stroke:#181818;stroke-width:0.5;"/><polygon fill="#000000" points="240.5356,521.3469,243.2361,517.4329,240.4198,516.5931,240.5356,521.3469" style="stroke:#000000;stroke-width:0.5;"/><text fill="#000000" font-family="sans-serif" font-size="6.5" lengthAdjust="spacing" textLength="40.5" x="245.75" y="521.2046">can announce</text></g><!--link Advertisement to Rent--><g id="link_Advertisement_Rent"><path codeLine="178" d="M243.185,476.3753 C224.745,483.5553 200.025,495.9753 185.25,514.8203 C178.96,522.8403 175.715,533.7303 174.04,542.9553 " fill="none" id="Advertisement-to-Rent" style="stroke:#181818;stroke-width:0.5;"/><polygon fill="#181818" points="173.605,545.5103,176.3349,541.4118,174.0264,543.0461,172.3922,540.7376,173.605,545.5103" style="stroke:#181818;stroke-width:0.5;"/><polygon fill="#000000" points="185.9491,520.6852,190.2262,518.6068,188.1877,516.4898,185.9491,520.6852" style="stroke:#000000;stroke-width:0.5;"/><text fill="#000000" font-family="sans-serif" font-size="6.5" lengthAdjust="spacing" textLength="40.5" x="192.25" y="521.2046">can announce</text></g><!--link Advertisement to Comission--><g id="link_Advertisement_Comission"><path codeLine="179" d="M274.39,480.5053 C284.315,497.0903 302.3,527.1403 313.315,545.5553 " fill="none" id="Advertisement-Comission" style="stroke:#181818;stroke-width:0.5;"/><polygon fill="#000000" points="302.0337,521.0964,300.9724,516.4611,298.4505,517.9702,302.0337,521.0964" style="stroke:#000000;stroke-width:0.5;"/><text fill="#000000" font-family="sans-serif" font-size="6.5" lengthAdjust="spacing" textLength="10.5" x="305.25" y="521.2046">has</text><text fill="#000000" font-family="sans-serif" font-size="6.5" lengthAdjust="spacing" textLength="3.5" x="272.2038" y="490.2885">1</text><text fill="#000000" font-family="sans-serif" font-size="6.5" lengthAdjust="spacing" textLength="3.5" x="307.3683" y="540.1489">1</text></g><!--link Advertisement to Property--><g id="link_Advertisement_Property"><path codeLine="180" d="M282.44,455.8103 C291.68,448.9903 304.025,440.9653 316.25,436.3203 C365.055,417.7803 383.18,404.9403 432.75,421.3203 C442.71,424.6103 452.375,430.1503 461.025,436.2903 " fill="none" id="Advertisement-Property" style="stroke:#181818;stroke-width:0.5;"/><polygon fill="#000000" points="419.7352,417.1795,415.0798,416.2102,415.3991,419.1317,419.7352,417.1795" style="stroke:#000000;stroke-width:0.5;"/><text fill="#000000" font-family="sans-serif" font-size="6.5" lengthAdjust="spacing" textLength="10.5" x="421.75" y="419.7046">has</text><text fill="#000000" font-family="sans-serif" font-size="6.5" lengthAdjust="spacing" textLength="3.5" x="282.552" y="450.4754">1</text><text fill="#000000" font-family="sans-serif" font-size="6.5" lengthAdjust="spacing" textLength="3.5" x="453.0796" y="430.876">1</text></g><!--link Branch to Agent--><g id="link_Branch_Agent"><path codeLine="182" d="M255.75,281.2253 C255.75,294.1853 255.75,311.4553 255.75,326.7053 " fill="none" id="Branch-Agent" style="stroke:#181818;stroke-width:0.5;"/><polygon fill="#000000" points="258.25,310.4512,259.7195,305.9286,256.7805,305.9286,258.25,310.4512" style="stroke:#000000;stroke-width:0.5;"/><text fill="#000000" font-family="sans-serif" font-size="6.5" lengthAdjust="spacing" textLength="10.5" x="262.75" y="310.2046">has</text><text fill="#000000" font-family="sans-serif" font-size="6.5" lengthAdjust="spacing" textLength="3.5" x="251.982" y="290.8068">1</text><text fill="#000000" font-family="sans-serif" font-size="6.5" lengthAdjust="spacing" textLength="2.5" x="253.1211" y="321.5403">*</text></g><!--link Property to Residence--><g id="link_Property_Residence"><path codeLine="184" d="M481.76,499.8403 C476.205,512.2553 469.925,526.2853 464.77,537.8053 " fill="none" id="Property-Residence" style="stroke:#181818;stroke-width:0.5;"/><polygon fill="#000000" points="476.2288,521.2331,479.4174,517.7053,476.7349,516.5048,476.2288,521.2331" style="stroke:#000000;stroke-width:0.5;"/><text fill="#000000" font-family="sans-serif" font-size="6.5" lengthAdjust="spacing" textLength="19.5" x="481.75" y="521.2046">can be</text><text fill="#000000" font-family="sans-serif" font-size="6.5" lengthAdjust="spacing" textLength="3.5" x="476.3417" y="510.0243">1</text><text fill="#000000" font-family="sans-serif" font-size="6.5" lengthAdjust="spacing" textLength="3.5" x="462.6129" y="532.4886">1</text></g><!--link Residence to House--><g id="link_Residence_House"><path codeLine="186" d="M488.035,561.8203 C502.405,561.8203 518.915,561.8203 532.365,561.8203 " fill="none" id="Residence-House" style="stroke:#181818;stroke-width:0.5;"/><polygon fill="#000000" points="501.75,556.4512,497.2275,554.9817,497.2275,557.9206,501.75,556.4512" style="stroke:#000000;stroke-width:0.5;"/><text fill="#000000" font-family="sans-serif" font-size="6.5" lengthAdjust="spacing" textLength="19.5" x="503.75" y="558.7046">can be</text><text fill="#000000" font-family="sans-serif" font-size="6.5" lengthAdjust="spacing" textLength="3.5" x="491.9216" y="560.3305">1</text><text fill="#000000" font-family="sans-serif" font-size="6.5" lengthAdjust="spacing" textLength="3.5" x="525.0844" y="560.2666">1</text></g><!--link Address to District--><g id="link_Address_District"><path codeLine="188" d="M110.25,499.8403 C110.25,518.7753 110.25,541.4753 110.25,553.2903 " fill="none" id="Address-District" style="stroke:#181818;stroke-width:0.5;"/><polygon fill="#000000" points="112.75,521.4512,114.2195,516.9286,111.2805,516.9286,112.75,521.4512" style="stroke:#000000;stroke-width:0.5;"/><text fill="#000000" font-family="sans-serif" font-size="6.5" lengthAdjust="spacing" textLength="12" x="117.25" y="521.2046">is in</text><text fill="#000000" font-family="sans-serif" font-size="6.5" lengthAdjust="spacing" textLength="3.5" x="106.5367" y="510.0243">1</text><text fill="#000000" font-family="sans-serif" font-size="6.5" lengthAdjust="spacing" textLength="3.5" x="106.1266" y="547.9675">1</text></g><!--SRC=[ZLPTRziw37tNhn3wCk02APRNO2ZGfRtOWDirQFO768k9TIjBdYItzOBzzr4VjkKaAvQNo38FUNX8IdRFKhTWeU6DqQQghMcGUziXS-ER5gfdEE3MzmgvnSg3FgZImDKWpAlK1xu7vP2n3mhtddl3hJpKdWiPKD9eLe0g1SxTUc_bhlFujJ9wAtyY_yXOBGNoIjgAWiHrWxusmZ7cfISA6sl-9tzymUzC0rBp1oDGCHOzyZlfo2UzFh9VRDZyR45NDMrn-Wbqyg0X4WhFobJp1_K0cXAsmK72tnvG-mpNq61SLD8JOxq6AxvrpOximww7DwwdHn32edDnZSHMnLLR6uq5YABfgf_YKOejMj_da60HpgaAofJImd-fQ6lf-pLnj8cQnHyTEezYGrAaBT-t-BWV70yil3bOQ6jNf2fUo40wRAQK1NYSB9v8Fq5ySH0avl4PXJMcSUKM-FfqRmEMMk2GqdeXFM2dyFv79ziGRmhonNHk2B23n2O-I5t3Jle0-y_iqvxhzFrRQrnd2vfhqqZdIApiPI_VKAIyqLRaZaIVhBSzoTNSYaRgq43WZGsmNEoXSfTAJWKVrstTkvuQw7QiUbdfgH_lcrQP7l7lMkhlUgZaSTvHf4OBka-3S6HIi1XqRAZIMuenrTieB8TfIzeCp5rOVnledrAAZWOjYWwB6wC7YvZAI1NqeDOqpQdhZB65ixsQFvDMVVQGsZDvVtpLIAMBsPtBEOcKaZmfJoROqX7bGySTpmGyilBu6Dz-rHGAr1ruEB8s3Pb4bptdZVuxpI1peF3HFiswVLCO79a2BLWT1e31mAGSly2h3OEzGVjWjAyPdPxKivM_w-m9iIs4uaNhi3bh0txryVhw-fyhlbZmg-NLa29VSUcu8Hq5lpb5B8FY2P71wMnSKR53JxjBaBbzBl-Ar-0uQ0Am2zCN6MKOeLBJhUXaEv05sX3d3wZ5OWWrZDa84tpNyq_l09SbIBh8BKOUs2ml9Z3Q19EOOtc8hi9HtIg8uh1nziU8CxrM_DNOPyVtnEccC4uf1K3ABKnbOa0-Kmr6Zg525rZEhIxGjFWYyJLO2zvsEoLTZMuE71eb7wsK6kwbZbOiZbvPjy2pc0ooTYrMSj-JzToO_iOxRyKhkkyy-SpNMDRYFGHrgxja4fclw6nK92bza13Bab2IwiHT6C8m0xfIdOYPpI49mEDlUIuYTKs62bg4Y3F7dmWytg2CJPTfU36TF5JJcT_5uYRESb27YWbQcowWRYxOFIKYxzeL6fNLJFrqmVHKyDnuuunFFPMFWsmmGeg0Kyw9v2xGAvIO0gQlWD9gQEl2tVZ5bxKFPk7t6m00]--></g></svg>