<?xml version="1.0" encoding="us-ascii" standalone="no"?><svg xmlns="http://www.w3.org/2000/svg" xmlns:xlink="http://www.w3.org/1999/xlink" contentStyleType="text/css" height="827px" preserveAspectRatio="none" style="width:1051px;height:827px;background:#FFFFFF;" version="1.1" viewBox="0 0 1051 827" width="1051px" zoomAndPan="magnify"><defs/><g><text fill="#000000" font-family="sans-serif" font-size="14" font-weight="bold" lengthAdjust="spacing" textLength="156" x="440.5" y="22.6738">US004 - Domain Model</text><!--class Property--><g id="elem_Property"><rect codeLine="14" fill="#F1F1F1" height="111.8438" id="Property" rx="2.5" ry="2.5" style="stroke:#181818;stroke-width:0.5;" width="190" x="24.5" y="99.3506"/><text fill="#000000" font-family="sans-serif" font-size="14" font-style="italic" lengthAdjust="spacing" textLength="54" x="92.5" y="117.0245">Property</text><line style="stroke:#181818;stroke-width:0.5;" x1="25.5" x2="213.5" y1="124.9913" y2="124.9913"/><text fill="#000000" font-family="sans-serif" font-size="14" lengthAdjust="spacing" textLength="29" x="30.5" y="141.6651">area</text><text fill="#000000" font-family="sans-serif" font-size="14" lengthAdjust="spacing" textLength="69" x="30.5" y="157.3057">localization</text><text fill="#000000" font-family="sans-serif" font-size="14" lengthAdjust="spacing" textLength="178" x="30.5" y="172.9463">distanceFromTheCityCentre</text><text fill="#000000" font-family="sans-serif" font-size="14" lengthAdjust="spacing" textLength="31" x="30.5" y="188.587">price</text><text fill="#000000" font-family="sans-serif" font-size="14" lengthAdjust="spacing" textLength="80" x="30.5" y="204.2276">photographs</text></g><!--class Owner--><g id="elem_Owner"><rect codeLine="22" fill="#F1F1F1" height="127.4844" id="Owner" rx="2.5" ry="2.5" style="stroke:#181818;stroke-width:0.5;" width="131" x="7" y="287.3506"/><text fill="#000000" font-family="sans-serif" font-size="14" lengthAdjust="spacing" textLength="41" x="52" y="305.0245">Owner</text><line style="stroke:#181818;stroke-width:0.5;" x1="8" x2="137" y1="312.9913" y2="312.9913"/><text fill="#000000" font-family="sans-serif" font-size="14" lengthAdjust="spacing" textLength="35" x="13" y="329.6651">name</text><text fill="#000000" font-family="sans-serif" font-size="14" lengthAdjust="spacing" textLength="119" x="13" y="345.3057">citizenCardNumber</text><text fill="#000000" font-family="sans-serif" font-size="14" lengthAdjust="spacing" textLength="67" x="13" y="360.9463">taxNumber</text><text fill="#000000" font-family="sans-serif" font-size="14" lengthAdjust="spacing" textLength="51" x="13" y="376.587">address</text><text fill="#000000" font-family="sans-serif" font-size="14" lengthAdjust="spacing" textLength="85" x="13" y="392.2276">emailAddress</text><text fill="#000000" font-family="sans-serif" font-size="14" lengthAdjust="spacing" textLength="112" x="13" y="407.8682">telephoneNumber</text></g><!--class Land--><g id="elem_Land"><rect codeLine="31" fill="#F1F1F1" height="33.6406" id="Land" rx="2.5" ry="2.5" style="stroke:#181818;stroke-width:0.5;" width="38" x="683.5" y="138.3506"/><text fill="#000000" font-family="sans-serif" font-size="14" lengthAdjust="spacing" textLength="32" x="686.5" y="156.0245">Land</text><line style="stroke:#181818;stroke-width:0.5;" x1="684.5" x2="720.5" y1="163.9913" y2="163.9913"/></g><!--class House--><g id="elem_House"><rect codeLine="35" fill="#F1F1F1" height="111.8438" id="House" rx="2.5" ry="2.5" style="stroke:#181818;stroke-width:0.5;" width="155" x="303" y="99.3506"/><text fill="#000000" font-family="sans-serif" font-size="14" lengthAdjust="spacing" textLength="40" x="360.5" y="117.0245">House</text><line style="stroke:#181818;stroke-width:0.5;" x1="304" x2="457" y1="124.9913" y2="124.9913"/><text fill="#000000" font-family="sans-serif" font-size="14" lengthAdjust="spacing" textLength="112" x="309" y="141.6651">bedroomsNumber</text><text fill="#000000" font-family="sans-serif" font-size="14" lengthAdjust="spacing" textLength="116" x="309" y="157.3057">bathroomsNumber</text><text fill="#000000" font-family="sans-serif" font-size="14" lengthAdjust="spacing" textLength="143" x="309" y="172.9463">parkingSpacesNumber</text><text fill="#000000" font-family="sans-serif" font-size="14" lengthAdjust="spacing" textLength="123" x="309" y="188.587">availableEquipment</text><text fill="#000000" font-family="sans-serif" font-size="14" lengthAdjust="spacing" textLength="82" x="309" y="204.2276">sunExposure</text></g><!--class Apartment--><g id="elem_Apartment"><rect codeLine="43" fill="#F1F1F1" height="96.2031" id="Apartment" rx="2.5" ry="2.5" style="stroke:#181818;stroke-width:0.5;" width="155" x="493" y="107.3506"/><text fill="#000000" font-family="sans-serif" font-size="14" lengthAdjust="spacing" textLength="65" x="538" y="125.0245">Apartment</text><line style="stroke:#181818;stroke-width:0.5;" x1="494" x2="647" y1="132.9913" y2="132.9913"/><text fill="#000000" font-family="sans-serif" font-size="14" lengthAdjust="spacing" textLength="112" x="499" y="149.6651">bedroomsNumber</text><text fill="#000000" font-family="sans-serif" font-size="14" lengthAdjust="spacing" textLength="116" x="499" y="165.3057">bathroomsNumber</text><text fill="#000000" font-family="sans-serif" font-size="14" lengthAdjust="spacing" textLength="143" x="499" y="180.9463">parkingSpacesNumber</text><text fill="#000000" font-family="sans-serif" font-size="14" lengthAdjust="spacing" textLength="123" x="499" y="196.587">availableEquipment</text></g><!--class Agent--><g id="elem_Agent"><rect codeLine="49" fill="#F1F1F1" height="64.9219" id="Agent" rx="2.5" ry="2.5" style="stroke:#181818;stroke-width:0.5;" width="94" x="173.5" y="318.3506"/><text fill="#000000" font-family="sans-serif" font-size="14" lengthAdjust="spacing" textLength="37" x="202" y="336.0245">Agent</text><line style="stroke:#181818;stroke-width:0.5;" x1="174.5" x2="266.5" y1="343.9913" y2="343.9913"/><text fill="#000000" font-family="sans-serif" font-size="14" lengthAdjust="spacing" textLength="35" x="179.5" y="360.6651">name</text><text fill="#000000" font-family="sans-serif" font-size="14" lengthAdjust="spacing" textLength="82" x="179.5" y="376.3057">agencyName</text></g><!--class Store--><g id="elem_Store"><rect codeLine="53" fill="#F1F1F1" height="80.5625" id="Store" rx="2.5" ry="2.5" style="stroke:#181818;stroke-width:0.5;" width="101" x="517" y="513.3506"/><text fill="#000000" font-family="sans-serif" font-size="14" lengthAdjust="spacing" textLength="34" x="550.5" y="531.0245">Store</text><line style="stroke:#181818;stroke-width:0.5;" x1="518" x2="617" y1="538.9913" y2="538.9913"/><text fill="#000000" font-family="sans-serif" font-size="14" lengthAdjust="spacing" textLength="68" x="523" y="555.6651">storeName</text><text fill="#000000" font-family="sans-serif" font-size="14" lengthAdjust="spacing" textLength="89" x="523" y="571.3057">phoneNumber</text><text fill="#000000" font-family="sans-serif" font-size="14" lengthAdjust="spacing" textLength="85" x="523" y="586.9463">emailAddress</text></g><!--class SystemAdministrator--><g id="elem_SystemAdministrator"><rect codeLine="58" fill="#F1F1F1" height="127.4844" id="SystemAdministrator" rx="2.5" ry="2.5" style="stroke:#181818;stroke-width:0.5;" width="135" x="354" y="287.3506"/><text fill="#000000" font-family="sans-serif" font-size="14" lengthAdjust="spacing" textLength="129" x="357" y="305.0245">SystemAdministrator</text><line style="stroke:#181818;stroke-width:0.5;" x1="355" x2="488" y1="312.9913" y2="312.9913"/><text fill="#000000" font-family="sans-serif" font-size="14" lengthAdjust="spacing" textLength="35" x="360" y="329.6651">name</text><text fill="#000000" font-family="sans-serif" font-size="14" lengthAdjust="spacing" textLength="33" x="360" y="345.3057">email</text><text fill="#000000" font-family="sans-serif" font-size="14" lengthAdjust="spacing" textLength="119" x="360" y="360.9463">citizenCardNumber</text><text fill="#000000" font-family="sans-serif" font-size="14" lengthAdjust="spacing" textLength="67" x="360" y="376.587">taxNumber</text><text fill="#000000" font-family="sans-serif" font-size="14" lengthAdjust="spacing" textLength="99" x="360" y="392.2276">physycalAdress</text><text fill="#000000" font-family="sans-serif" font-size="14" lengthAdjust="spacing" textLength="89" x="360" y="407.8682">phoneNumber</text></g><!--class Role--><g id="elem_Role"><rect codeLine="67" fill="#F1F1F1" height="49.2813" id="Role" rx="2.5" ry="2.5" style="stroke:#181818;stroke-width:0.5;" width="68" x="381.5" y="732.3506"/><text fill="#000000" font-family="sans-serif" font-size="14" lengthAdjust="spacing" textLength="29" x="401" y="750.0245">Role</text><line style="stroke:#181818;stroke-width:0.5;" x1="382.5" x2="448.5" y1="757.9913" y2="757.9913"/><text fill="#000000" font-family="sans-serif" font-size="14" lengthAdjust="spacing" textLength="56" x="387.5" y="774.6651">roleType</text></g><!--class Address--><g id="elem_Address"><rect codeLine="71" fill="#F1F1F1" height="127.4844" id="Address" rx="2.5" ry="2.5" style="stroke:#181818;stroke-width:0.5;" width="90" x="522.5" y="693.3506"/><text fill="#000000" font-family="sans-serif" font-size="14" lengthAdjust="spacing" textLength="52" x="541.5" y="711.0245">Address</text><line style="stroke:#181818;stroke-width:0.5;" x1="523.5" x2="611.5" y1="718.9913" y2="718.9913"/><text fill="#000000" font-family="sans-serif" font-size="14" lengthAdjust="spacing" textLength="36" x="528.5" y="735.6651">street</text><text fill="#000000" font-family="sans-serif" font-size="14" lengthAdjust="spacing" textLength="72" x="528.5" y="751.3057">postalCode</text><text fill="#000000" font-family="sans-serif" font-size="14" lengthAdjust="spacing" textLength="78" x="528.5" y="766.9463">doorNumber</text><text fill="#000000" font-family="sans-serif" font-size="14" lengthAdjust="spacing" textLength="77" x="528.5" y="782.587">floorNumber</text><text fill="#000000" font-family="sans-serif" font-size="14" lengthAdjust="spacing" textLength="21" x="528.5" y="798.2276">city</text><text fill="#000000" font-family="sans-serif" font-size="14" lengthAdjust="spacing" textLength="31" x="528.5" y="813.8682">state</text></g><!--class Employee--><g id="elem_Employee"><rect codeLine="79" fill="#F1F1F1" height="127.4844" id="Employee" rx="2.5" ry="2.5" style="stroke:#181818;stroke-width:0.5;" width="131" x="213" y="490.3506"/><text fill="#000000" font-family="sans-serif" font-size="14" lengthAdjust="spacing" textLength="62" x="247.5" y="508.0245">Employee</text><line style="stroke:#181818;stroke-width:0.5;" x1="214" x2="343" y1="515.9913" y2="515.9913"/><text fill="#000000" font-family="sans-serif" font-size="14" lengthAdjust="spacing" textLength="35" x="219" y="532.6651">name</text><text fill="#000000" font-family="sans-serif" font-size="14" lengthAdjust="spacing" textLength="119" x="219" y="548.3057">citizenCardNumber</text><text fill="#000000" font-family="sans-serif" font-size="14" lengthAdjust="spacing" textLength="43" x="219" y="563.9463">adress</text><text fill="#000000" font-family="sans-serif" font-size="14" lengthAdjust="spacing" textLength="33" x="219" y="579.587">email</text><text fill="#000000" font-family="sans-serif" font-size="14" lengthAdjust="spacing" textLength="89" x="219" y="595.2276">Phonenumber</text><text fill="#000000" font-family="sans-serif" font-size="14" lengthAdjust="spacing" textLength="67" x="219" y="610.8682">taxNumber</text></g><!--class User--><g id="elem_User"><rect codeLine="88" fill="#F1F1F1" height="80.5625" id="User" rx="2.5" ry="2.5" style="stroke:#181818;stroke-width:0.5;" width="72" x="756.5" y="114.8506"/><text fill="#000000" font-family="sans-serif" font-size="14" lengthAdjust="spacing" textLength="29" x="778" y="132.5245">User</text><line style="stroke:#181818;stroke-width:0.5;" x1="757.5" x2="827.5" y1="140.4913" y2="140.4913"/><text fill="#000000" font-family="sans-serif" font-size="14" lengthAdjust="spacing" textLength="35" x="762.5" y="157.1651">name</text><text fill="#000000" font-family="sans-serif" font-size="14" lengthAdjust="spacing" textLength="33" x="762.5" y="172.8057">email</text><text fill="#000000" font-family="sans-serif" font-size="14" lengthAdjust="spacing" textLength="60" x="762.5" y="188.4463">password</text></g><!--class Application--><g id="elem_Application"><rect codeLine="94" fill="#F1F1F1" height="33.6406" id="Application" rx="2.5" ry="2.5" style="stroke:#181818;stroke-width:0.5;" width="75" x="969" y="138.3506"/><text fill="#000000" font-family="sans-serif" font-size="14" lengthAdjust="spacing" textLength="69" x="972" y="156.0245">Application</text><line style="stroke:#181818;stroke-width:0.5;" x1="970" x2="1043" y1="163.9913" y2="163.9913"/></g><!--class CompanyBranch--><g id="elem_CompanyBranch"><rect codeLine="97" fill="#F1F1F1" height="111.8438" id="CompanyBranch" rx="2.5" ry="2.5" style="stroke:#181818;stroke-width:0.5;" width="111" x="190" y="700.8506"/><text fill="#000000" font-family="sans-serif" font-size="14" lengthAdjust="spacing" textLength="105" x="193" y="718.5245">CompanyBranch</text><line style="stroke:#181818;stroke-width:0.5;" x1="191" x2="300" y1="726.4913" y2="726.4913"/><text fill="#000000" font-family="sans-serif" font-size="14" lengthAdjust="spacing" textLength="11" x="196" y="743.1651">id</text><text fill="#000000" font-family="sans-serif" font-size="14" lengthAdjust="spacing" textLength="35" x="196" y="758.8057">name</text><text fill="#000000" font-family="sans-serif" font-size="14" lengthAdjust="spacing" textLength="49" x="196" y="774.4463">location</text><text fill="#000000" font-family="sans-serif" font-size="14" lengthAdjust="spacing" textLength="89" x="196" y="790.087">phoneNumber</text><text fill="#000000" font-family="sans-serif" font-size="14" lengthAdjust="spacing" textLength="33" x="196" y="805.7276">email</text></g><!--link Property to Owner--><g id="link_Property_Owner"><path codeLine="105" d="M104.16,211.5806 C101.52,221.4706 98.87,231.7006 96.5,241.3506 C94.43,249.7906 92.34,258.6206 90.31,267.4406 " fill="none" id="Property-to-Owner" style="stroke:#181818;stroke-width:1.0;"/><polygon fill="none" points="97.08,269.2306,85.84,287.2006,83.42,266.1406,97.08,269.2306" style="stroke:#181818;stroke-width:1.0;"/><polygon fill="#000000" points="100.2967,254.4654,105.326,246.3934,99.6209,244.9789,100.2967,254.4654" style="stroke:#000000;stroke-width:1.0;"/><text fill="#000000" font-family="sans-serif" font-size="13" lengthAdjust="spacing" textLength="39" x="110.5" y="254.1192">has an</text><text fill="#000000" font-family="sans-serif" font-size="13" lengthAdjust="spacing" textLength="7" x="94.8639" y="231.0968">1</text><text fill="#000000" font-family="sans-serif" font-size="13" lengthAdjust="spacing" textLength="7" x="79.9778" y="276.8025">1</text></g><!--link Property to Agent--><g id="link_Property_Agent"><path codeLine="106" d="M148.31,211.5406 C162.88,239.4506 180.42,273.0606 194.56,300.1606 " fill="none" id="Property-to-Agent" style="stroke:#181818;stroke-width:1.0;"/><polygon fill="none" points="200.9,297.1706,203.95,318.1406,188.49,303.6506,200.9,297.1706" style="stroke:#181818;stroke-width:1.0;"/><polygon fill="#000000" points="177.8134,254.045,176.2339,244.6665,171.023,247.386,177.8134,254.045" style="stroke:#000000;stroke-width:1.0;"/><text fill="#000000" font-family="sans-serif" font-size="13" lengthAdjust="spacing" textLength="39" x="184.5" y="254.1192">has an</text><text fill="#000000" font-family="sans-serif" font-size="13" lengthAdjust="spacing" textLength="7" x="144.3947" y="231.0519">1</text><text fill="#000000" font-family="sans-serif" font-size="13" lengthAdjust="spacing" textLength="7" x="192.8147" y="307.781">1</text></g><!--link Property to Apartment--><g id="link_Property_Apartment"><path codeLine="108" d="M214.82,101.3306 C281.66,70.5006 372.77,42.6406 451.5,68.3506 C469.73,74.3006 487.48,84.2306 503.48,95.2806 " fill="none" id="Property-to-Apartment" style="stroke:#181818;stroke-width:1.0;"/><polygon fill="none" points="507.86,89.8206,519.77,107.3506,499.53,101.0706,507.86,89.8206" style="stroke:#181818;stroke-width:1.0;"/><polygon fill="#000000" points="407.4989,61.5076,398.3942,58.7588,398.5174,64.6354,407.4989,61.5076" style="stroke:#000000;stroke-width:1.0;"/><text fill="#000000" font-family="sans-serif" font-size="13" lengthAdjust="spacing" textLength="39" x="411.5" y="66.1192">can be</text><text fill="#000000" font-family="sans-serif" font-size="13" lengthAdjust="spacing" textLength="7" x="222.3859" y="94.4534">1</text><text fill="#000000" font-family="sans-serif" font-size="13" lengthAdjust="spacing" textLength="7" x="504.466" y="96.7218">0</text></g><!--link Property to House--><g id="link_Property_House"><path codeLine="109" d="M214.83,155.3506 C236.91,155.3506 260.43,155.3506 282.61,155.3506 " fill="none" id="Property-to-House" style="stroke:#181818;stroke-width:1.0;"/><polygon fill="none" points="282.95,148.3506,302.95,155.3506,282.95,162.3506,282.95,148.3506" style="stroke:#181818;stroke-width:1.0;"/><polygon fill="#000000" points="241.75,144.6123,232.7049,141.6734,232.7049,147.5513,241.75,144.6123" style="stroke:#000000;stroke-width:1.0;"/><text fill="#000000" font-family="sans-serif" font-size="13" lengthAdjust="spacing" textLength="39" x="245.75" y="149.1192">can be</text><text fill="#000000" font-family="sans-serif" font-size="13" lengthAdjust="spacing" textLength="7" x="222.3967" y="152.6093">1</text><text fill="#000000" font-family="sans-serif" font-size="13" lengthAdjust="spacing" textLength="7" x="287.9716" y="152.4636">0</text></g><!--link Property to Land--><g id="link_Property_Land"><path codeLine="110" d="M214,99.3506 C240.17,86.6006 269.18,74.9006 297.5,68.3506 C351.31,55.9006 581.13,48.4706 665.5,99.3506 C678.45,107.1606 687.78,121.4406 693.83,133.6306 " fill="none" id="Property-to-Land" style="stroke:#181818;stroke-width:1.0;"/><polygon fill="#181818" points="696.07,138.3506,695.8362,128.5045,693.9314,133.8311,688.6049,131.9263,696.07,138.3506" style="stroke:#181818;stroke-width:1.0;"/><polygon fill="#000000" points="307.4873,61.9686,298.6746,58.3926,298.2558,64.2555,307.4873,61.9686" style="stroke:#000000;stroke-width:1.0;"/><text fill="#000000" font-family="sans-serif" font-size="13" lengthAdjust="spacing" textLength="39" x="311.5" y="66.1192">can be</text><text fill="#000000" font-family="sans-serif" font-size="13" lengthAdjust="spacing" textLength="7" x="219.2281" y="88.6992">1</text><text fill="#000000" font-family="sans-serif" font-size="13" lengthAdjust="spacing" textLength="7" x="685.5324" y="127.7264">0</text></g><!--link SystemAdministrator to Store--><g id="link_SystemAdministrator_Store"><path codeLine="112" d="M467.09,414.6206 C490.52,446.8706 518.35,485.1906 538.77,513.2906 " fill="none" id="SystemAdministrator-Store" style="stroke:#181818;stroke-width:1.0;"/><polygon fill="#000000" points="506.4387,456.6576,503.5003,447.6123,498.7448,451.067,506.4387,456.6576" style="stroke:#000000;stroke-width:1.0;"/><text fill="#000000" font-family="sans-serif" font-size="13" lengthAdjust="spacing" textLength="50" x="512.5" y="457.1192">registers</text><text fill="#000000" font-family="sans-serif" font-size="13" lengthAdjust="spacing" textLength="7" x="464.9567" y="434.5742">1</text><text fill="#000000" font-family="sans-serif" font-size="13" lengthAdjust="spacing" textLength="20" x="511.8712" y="502.6731">0..*</text></g><!--link Store to Address--><g id="link_Store_Address"><path codeLine="113" d="M567.5,594.5606 C567.5,622.7106 567.5,661.0406 567.5,693.2706 " fill="none" id="Store-Address" style="stroke:#181818;stroke-width:1.0;"/><polygon fill="#000000" points="572.5,660.6123,575.4389,651.5673,569.5611,651.5673,572.5,660.6123" style="stroke:#000000;stroke-width:1.0;"/><text fill="#000000" font-family="sans-serif" font-size="13" lengthAdjust="spacing" textLength="39" x="581.5" y="660.1192">has an</text><text fill="#000000" font-family="sans-serif" font-size="13" lengthAdjust="spacing" textLength="7" x="559.9641" y="613.7083">1</text><text fill="#000000" font-family="sans-serif" font-size="13" lengthAdjust="spacing" textLength="24" x="542.0375" y="682.4396">0...*</text></g><!--link SystemAdministrator to Employee--><g id="link_SystemAdministrator_Employee"><path codeLine="115" d="M353.7,377.0306 C324.1,391.8206 292.35,413.7206 275.5,444.3506 C267.91,458.1406 265.6,474.4706 265.92,490.2306 " fill="none" id="SystemAdministrator-Employee" style="stroke:#181818;stroke-width:1.0;"/><polygon fill="#000000" points="283.5639,448.6611,275.6987,454.008,280.3437,457.6099,283.5639,448.6611" style="stroke:#000000;stroke-width:1.0;"/><text fill="#000000" font-family="sans-serif" font-size="13" lengthAdjust="spacing" textLength="64" x="289.5" y="457.1192">registed by</text><text fill="#000000" font-family="sans-serif" font-size="13" lengthAdjust="spacing" textLength="7" x="338.9016" y="376.8991">1</text><text fill="#000000" font-family="sans-serif" font-size="13" lengthAdjust="spacing" textLength="24" x="238.9243" y="479.3947">0...*</text></g><!--link SystemAdministrator to Employee--><g id="link_SystemAdministrator_Employee"><path codeLine="124" d="M387.79,414.5006 C378.81,429.8506 368.75,445.9906 358.5,460.3506 C351.41,470.2906 343.47,480.4306 335.42,490.1806 " fill="none" id="SystemAdministrator-Employee-1" style="stroke:#181818;stroke-width:1.0;"/><polygon fill="#000000" points="370.6548,456.7239,378.2185,450.9584,373.3851,447.6137,370.6548,456.7239" style="stroke:#000000;stroke-width:1.0;"/><text fill="#000000" font-family="sans-serif" font-size="13" lengthAdjust="spacing" textLength="10" x="382.5" y="457.1192">is</text><text fill="#000000" font-family="sans-serif" font-size="13" lengthAdjust="spacing" textLength="7" x="376.4876" y="434.4403">1</text><text fill="#000000" font-family="sans-serif" font-size="13" lengthAdjust="spacing" textLength="7" x="334.5967" y="479.7802">1</text></g><!--link User to Application--><g id="link_User_Application"><path codeLine="117" d="M828.8,155.3506 C867.8,155.3506 929.46,155.3506 968.94,155.3506 " fill="none" id="User-Application" style="stroke:#181818;stroke-width:1.0;"/><text fill="#000000" font-family="sans-serif" font-size="13" lengthAdjust="spacing" textLength="65" x="864.25" y="134.1192">requests to</text><polygon fill="#000000" points="856.75,144.1358,847.7049,141.1969,847.7049,147.0747,856.75,144.1358" style="stroke:#000000;stroke-width:1.0;"/><text fill="#000000" font-family="sans-serif" font-size="13" lengthAdjust="spacing" textLength="91" x="859.75" y="148.6426">show properties</text></g><!--link SystemAdministrator to Role--><g id="link_SystemAdministrator_Role"><path codeLine="119" d="M420.57,414.5306 C419.21,505.8406 416.76,671.2106 415.85,732.3306 " fill="none" id="SystemAdministrator-Role" style="stroke:#181818;stroke-width:1.0;"/><polygon fill="#000000" points="424.4257,559.1118,427.4987,550.1113,421.6215,550.0241,424.4257,559.1118" style="stroke:#000000;stroke-width:1.0;"/><text fill="#000000" font-family="sans-serif" font-size="13" lengthAdjust="spacing" textLength="21" x="433.5" y="558.6192">has</text><text fill="#000000" font-family="sans-serif" font-size="13" lengthAdjust="spacing" textLength="7" x="413.0578" y="434.4738">1</text><text fill="#000000" font-family="sans-serif" font-size="13" lengthAdjust="spacing" textLength="7" x="408.0034" y="721.6607">1</text></g><!--link Employee to Role--><g id="link_Employee_Role"><path codeLine="121" d="M321.28,617.6206 C347.82,656.5506 380.38,704.3206 399.45,732.3006 " fill="none" id="Employee-Role" style="stroke:#181818;stroke-width:1.0;"/><polygon fill="#000000" points="359.3162,659.7438,356.6501,650.6146,351.7932,653.9252,359.3162,659.7438" style="stroke:#000000;stroke-width:1.0;"/><text fill="#000000" font-family="sans-serif" font-size="13" lengthAdjust="spacing" textLength="21" x="365.5" y="660.1192">has</text><text fill="#000000" font-family="sans-serif" font-size="13" lengthAdjust="spacing" textLength="7" x="318.8217" y="637.5742">1</text><text fill="#000000" font-family="sans-serif" font-size="13" lengthAdjust="spacing" textLength="7" x="387.1959" y="721.6227">1</text></g><!--link Agent to Employee--><g id="link_Agent_Employee"><path codeLine="123" d="M225.45,383.5306 C229.22,405.3606 235.03,434.9006 242.5,460.3506 C243.53,463.8606 244.64,467.4206 245.8,471.0006 " fill="none" id="Agent-to-Employee" style="stroke:#181818;stroke-width:1.0;"/><polygon fill="none" points="252.5,468.9706,252.44,490.1606,239.28,473.5506,252.5,468.9706" style="stroke:#181818;stroke-width:1.0;"/></g><!--link Employee to CompanyBranch--><g id="link_Employee_CompanyBranch"><path codeLine="125" d="M212.84,594.4806 C195.12,608.7406 178.19,626.5406 168.5,647.3506 C157.48,671.0106 171.19,694.9206 189.95,714.2606 " fill="none" id="Employee-CompanyBranch" style="stroke:#181818;stroke-width:1.0;"/><polygon fill="#000000" points="172.5615,660.5235,177.146,652.1908,171.3726,651.0875,172.5615,660.5235" style="stroke:#000000;stroke-width:1.0;"/><text fill="#000000" font-family="sans-serif" font-size="13" lengthAdjust="spacing" textLength="53" x="182.5" y="660.1192">manages</text><text fill="#000000" font-family="sans-serif" font-size="13" lengthAdjust="spacing" textLength="7" x="197.8434" y="596.1399">1</text><text fill="#000000" font-family="sans-serif" font-size="13" lengthAdjust="spacing" textLength="7" x="175.0152" y="705.4112">1</text></g><!--link Employee to CompanyBranch--><g id="link_Employee_CompanyBranch"><path codeLine="126" d="M268.19,617.6206 C263.83,644.2306 258.78,674.9606 254.56,700.6906 " fill="none" id="Employee-CompanyBranch-1" style="stroke:#181818;stroke-width:1.0;"/><polygon fill="#000000" points="267.6904,660.5464,272.0551,652.0965,266.2548,651.1448,267.6904,660.5464" style="stroke:#000000;stroke-width:1.0;"/><text fill="#000000" font-family="sans-serif" font-size="13" lengthAdjust="spacing" textLength="52" x="277.5" y="660.1192">works for</text><text fill="#000000" font-family="sans-serif" font-size="13" lengthAdjust="spacing" textLength="7" x="259.5932" y="637.5742">1</text><text fill="#000000" font-family="sans-serif" font-size="13" lengthAdjust="spacing" textLength="7" x="248.3071" y="690.0177">1</text></g><!--SRC=[jLKzRzim4DtvAmWl1GeuS81EGH70TLEqG9i6SR9rEObdYGX5AYHLHt7pttiaPPcndJHBDTX7wl7UVRoZt9tKBLXeU6EqAMjh6kJUTiZS-AQ5yWugNFfU8RTOUj2LoW6k1c7MKbTy1SeXO-yKhZptXbjPrPuB6Kv9erbsg5JWtDnxAulEuxVIwALyH3vZh9O2UIbjIIJHRj3NHZZ6lFGKmkroDll0f_opQK1g_iC8L8n1uRo5qYV7_CgQ5gtl-OPnUi0YH4EP4fHyX1XEs13IKK8bVg7KRsfSIDylK7kByMrhPJbOjV6cij3MZZqnbbX-hZNQWK93av2bz9I9Ne0LbrrJe8sx7Xwo5GXXqRbe8wMXvjc6HuL4ft4uCD9z1oqsRBV-QZg7YRr0OOrfNCPHWA_tzwZsr85gIJt5V1z-KmnGABouxsJRK07YjklqnKDhN4Vb65ddvCG7oFzYVjeILIF9M5mIeYxxox3SmfRUM1oQu89zkGNdHJoez7YyTnwRkMYaba52v65mbj4EPmVxU8VtUnpuUzUJtkQxtXu6DTRrsYXgfgNVcxv5jYj32dZCq2Acxb1ZFAW5wJyfsHYR-LsfvsiAkXyyWDzLxw9fbUaHtwPYs9DjjAv2HlgOr4UMMtSu9pi7BK7MnefSOwsIPPnIljcvMPYc1Tr_iZInzOP9mQAtCDHneFFQ9lVaSRmA9gSJFft-EOz66jqpNeFZeFdv2x2emHosXxkEmDbaDnK4BWbPu87F4HldzZLSU18qZ7oEPCVacY8c_Cd9-yam3sTqLLU4GEleMDhBS06u5LQUtGlkfzFjeQrUHl-25pt_o5XiyJJlN83ST-Yy2z-2NzhLPaqtQanLeljNDlGNHc88Zy2ZL5z4f6wbxesHlfBJQPwF32voZWHufhapte2cE-XDK9BqdUChOgFGmlCN]--></g></svg>