<?xml version="1.0" encoding="us-ascii" standalone="no"?><svg xmlns="http://www.w3.org/2000/svg" xmlns:xlink="http://www.w3.org/1999/xlink" contentStyleType="text/css" height="927px" preserveAspectRatio="none" style="width:859px;height:927px;background:#FFFFFF;" version="1.1" viewBox="0 0 859 927" width="859px" zoomAndPan="magnify"><defs/><g><text fill="#000000" font-family="sans-serif" font-size="14" font-weight="bold" lengthAdjust="spacing" textLength="156" x="344.5" y="22.6738">Domain Model - US004</text><!--class Owner--><g id="elem_Owner"><rect codeLine="15" fill="#F1F1F1" height="64.9219" id="Owner" rx="2.5" ry="2.5" style="stroke:#181818;stroke-width:0.5;" width="116" x="109.5" y="168.6406"/><text fill="#000000" font-family="sans-serif" font-size="14" lengthAdjust="spacing" textLength="41" x="147" y="186.3145">Owner</text><line style="stroke:#181818;stroke-width:0.5;" x1="110.5" x2="224.5" y1="194.2813" y2="194.2813"/><text fill="#000000" font-family="sans-serif" font-size="14" lengthAdjust="spacing" textLength="35" x="115.5" y="210.9551">name</text><text fill="#000000" font-family="sans-serif" font-size="14" lengthAdjust="spacing" textLength="104" x="115.5" y="226.5957">passportNumber</text></g><!--class Agent--><g id="elem_Agent"><rect codeLine="20" fill="#F1F1F1" height="64.9219" id="Agent" rx="2.5" ry="2.5" style="stroke:#181818;stroke-width:0.5;" width="116" x="223.5" y="43.6406"/><text fill="#000000" font-family="sans-serif" font-size="14" lengthAdjust="spacing" textLength="37" x="263" y="61.3145">Agent</text><line style="stroke:#181818;stroke-width:0.5;" x1="224.5" x2="338.5" y1="69.2813" y2="69.2813"/><text fill="#000000" font-family="sans-serif" font-size="14" lengthAdjust="spacing" textLength="35" x="229.5" y="85.9551">name</text><text fill="#000000" font-family="sans-serif" font-size="14" lengthAdjust="spacing" textLength="104" x="229.5" y="101.5957">passportNumber</text></g><!--class CompanyBranch--><g id="elem_CompanyBranch"><rect codeLine="25" fill="#F1F1F1" height="64.9219" id="CompanyBranch" rx="2.5" ry="2.5" style="stroke:#181818;stroke-width:0.5;" width="111" x="335" y="293.6406"/><text fill="#000000" font-family="sans-serif" font-size="14" lengthAdjust="spacing" textLength="105" x="338" y="311.3145">CompanyBranch</text><line style="stroke:#181818;stroke-width:0.5;" x1="336" x2="445" y1="319.2813" y2="319.2813"/><text fill="#000000" font-family="sans-serif" font-size="14" lengthAdjust="spacing" textLength="13" x="341" y="335.9551">ID</text><text fill="#000000" font-family="sans-serif" font-size="14" lengthAdjust="spacing" textLength="73" x="341" y="351.5957">designation</text></g><!--class Contacts--><g id="elem_Contacts"><rect codeLine="30" fill="#F1F1F1" height="64.9219" id="Contacts" rx="2.5" ry="2.5" style="stroke:#181818;stroke-width:0.5;" width="101" x="193" y="418.6406"/><text fill="#000000" font-family="sans-serif" font-size="14" lengthAdjust="spacing" textLength="56" x="215.5" y="436.3145">Contacts</text><line style="stroke:#181818;stroke-width:0.5;" x1="194" x2="293" y1="444.2813" y2="444.2813"/><text fill="#000000" font-family="sans-serif" font-size="14" lengthAdjust="spacing" textLength="89" x="199" y="460.9551">phoneNumber</text><text fill="#000000" font-family="sans-serif" font-size="14" lengthAdjust="spacing" textLength="85" x="199" y="476.5957">emailAddress</text></g><!--class Address--><g id="elem_Address"><rect codeLine="35" fill="#F1F1F1" height="143.125" id="Address" rx="2.5" ry="2.5" style="stroke:#181818;stroke-width:0.5;" width="90" x="206.5" y="652.6406"/><text fill="#000000" font-family="sans-serif" font-size="14" lengthAdjust="spacing" textLength="52" x="225.5" y="670.3145">Address</text><line style="stroke:#181818;stroke-width:0.5;" x1="207.5" x2="295.5" y1="678.2813" y2="678.2813"/><text fill="#000000" font-family="sans-serif" font-size="14" lengthAdjust="spacing" textLength="78" x="212.5" y="694.9551">doorNumber</text><text fill="#000000" font-family="sans-serif" font-size="14" lengthAdjust="spacing" textLength="77" x="212.5" y="710.5957">floorNumber</text><text fill="#000000" font-family="sans-serif" font-size="14" lengthAdjust="spacing" textLength="36" x="212.5" y="726.2363">street</text><text fill="#000000" font-family="sans-serif" font-size="14" lengthAdjust="spacing" textLength="21" x="212.5" y="741.877">city</text><text fill="#000000" font-family="sans-serif" font-size="14" lengthAdjust="spacing" textLength="31" x="212.5" y="757.5176">state</text><text fill="#000000" font-family="sans-serif" font-size="14" lengthAdjust="spacing" textLength="41" x="212.5" y="773.1582">district</text><text fill="#000000" font-family="sans-serif" font-size="14" lengthAdjust="spacing" textLength="72" x="212.5" y="788.7988">postalCode</text></g><!--class Request--><g id="elem_Request"><rect codeLine="45" fill="#F1F1F1" height="64.9219" id="Request" rx="2.5" ry="2.5" style="stroke:#181818;stroke-width:0.5;" width="59" x="481" y="293.6406"/><text fill="#000000" font-family="sans-serif" font-size="14" lengthAdjust="spacing" textLength="53" x="484" y="311.3145">Request</text><line style="stroke:#181818;stroke-width:0.5;" x1="482" x2="539" y1="319.2813" y2="319.2813"/><text fill="#000000" font-family="sans-serif" font-size="14" lengthAdjust="spacing" textLength="38" x="487" y="335.9551">status</text><text fill="#000000" font-family="sans-serif" font-size="14" lengthAdjust="spacing" textLength="28" x="487" y="351.5957">date</text></g><!--class Property--><g id="elem_Property"><rect codeLine="50" fill="#F1F1F1" height="64.9219" id="Property" rx="2.5" ry="2.5" style="stroke:#181818;stroke-width:0.5;" width="190" x="631.5" y="418.6406"/><text fill="#000000" font-family="sans-serif" font-size="14" lengthAdjust="spacing" textLength="54" x="699.5" y="436.3145">Property</text><line style="stroke:#181818;stroke-width:0.5;" x1="632.5" x2="820.5" y1="444.2813" y2="444.2813"/><text fill="#000000" font-family="sans-serif" font-size="14" lengthAdjust="spacing" textLength="29" x="637.5" y="460.9551">area</text><text fill="#000000" font-family="sans-serif" font-size="14" lengthAdjust="spacing" textLength="178" x="637.5" y="476.5957">distanceFromTheCityCentre</text></g><!--class Residence--><g id="elem_Residence"><rect codeLine="55" fill="#F1F1F1" height="96.2031" id="Residence" rx="2.5" ry="2.5" style="stroke:#181818;stroke-width:0.5;" width="170" x="559.5" y="676.1406"/><text fill="#000000" font-family="sans-serif" font-size="14" lengthAdjust="spacing" textLength="67" x="611" y="693.8145">Residence</text><line style="stroke:#181818;stroke-width:0.5;" x1="560.5" x2="728.5" y1="701.7813" y2="701.7813"/><text fill="#000000" font-family="sans-serif" font-size="14" lengthAdjust="spacing" textLength="127" x="565.5" y="718.4551">numberOfBedrooms</text><text fill="#000000" font-family="sans-serif" font-size="14" lengthAdjust="spacing" textLength="131" x="565.5" y="734.0957">numberOfBathrooms</text><text fill="#000000" font-family="sans-serif" font-size="14" lengthAdjust="spacing" textLength="158" x="565.5" y="749.7363">numberOfParkingSpaces</text><text fill="#000000" font-family="sans-serif" font-size="14" lengthAdjust="spacing" textLength="123" x="565.5" y="765.377">availableEquipment</text></g><!--class House--><g id="elem_House"><rect codeLine="62" fill="#F1F1F1" height="64.9219" id="House" rx="2.5" ry="2.5" style="stroke:#181818;stroke-width:0.5;" width="158" x="408.5" y="855.6406"/><text fill="#000000" font-family="sans-serif" font-size="14" lengthAdjust="spacing" textLength="40" x="467.5" y="873.3145">House</text><line style="stroke:#181818;stroke-width:0.5;" x1="409.5" x2="565.5" y1="881.2813" y2="881.2813"/><text fill="#000000" font-family="sans-serif" font-size="14" lengthAdjust="spacing" textLength="146" x="414.5" y="897.9551">existenceOfABasement</text><text fill="#000000" font-family="sans-serif" font-size="14" lengthAdjust="spacing" textLength="93" x="414.5" y="913.5957">inhabitableLoft</text></g><!--class Land--><g id="elem_Land"><rect codeLine="67" fill="#F1F1F1" height="33.6406" id="Land" rx="2.5" ry="2.5" style="stroke:#181818;stroke-width:0.5;" width="38" x="361.5" y="707.1406"/><text fill="#000000" font-family="sans-serif" font-size="14" lengthAdjust="spacing" textLength="32" x="364.5" y="724.8145">Land</text><line style="stroke:#181818;stroke-width:0.5;" x1="362.5" x2="398.5" y1="732.7813" y2="732.7813"/></g><!--class Sell--><g id="elem_Sell"><rect codeLine="70" fill="#F1F1F1" height="49.2813" id="Sell" rx="2.5" ry="2.5" style="stroke:#181818;stroke-width:0.5;" width="43" x="401" y="426.6406"/><text fill="#000000" font-family="sans-serif" font-size="14" lengthAdjust="spacing" textLength="23" x="411" y="444.3145">Sell</text><line style="stroke:#181818;stroke-width:0.5;" x1="402" x2="443" y1="452.2813" y2="452.2813"/><text fill="#000000" font-family="sans-serif" font-size="14" lengthAdjust="spacing" textLength="31" x="407" y="468.9551">price</text></g><!--class Rent--><g id="elem_Rent"><rect codeLine="74" fill="#F1F1F1" height="64.9219" id="Rent" rx="2.5" ry="2.5" style="stroke:#181818;stroke-width:0.5;" width="117" x="479" y="418.6406"/><text fill="#000000" font-family="sans-serif" font-size="14" lengthAdjust="spacing" textLength="30" x="522.5" y="436.3145">Rent</text><line style="stroke:#181818;stroke-width:0.5;" x1="480" x2="595" y1="444.2813" y2="444.2813"/><text fill="#000000" font-family="sans-serif" font-size="14" lengthAdjust="spacing" textLength="92" x="485" y="460.9551">pricePerMonth</text><text fill="#000000" font-family="sans-serif" font-size="14" lengthAdjust="spacing" textLength="105" x="485" y="476.5957">contractDuration</text></g><!--class Photographs--><g id="elem_Photographs"><rect codeLine="79" fill="#F1F1F1" height="49.2813" id="Photographs" rx="2.5" ry="2.5" style="stroke:#181818;stroke-width:0.5;" width="87" x="765" y="699.6406"/><text fill="#000000" font-family="sans-serif" font-size="14" lengthAdjust="spacing" textLength="81" x="768" y="717.3145">Photographs</text><line style="stroke:#181818;stroke-width:0.5;" x1="766" x2="851" y1="725.2813" y2="725.2813"/><text fill="#000000" font-family="sans-serif" font-size="14" lengthAdjust="spacing" textLength="22" x="771" y="741.9551">URI</text></g><!--class TaxNumber--><g id="elem_TaxNumber"><rect codeLine="83" fill="#F1F1F1" height="49.2813" id="TaxNumber" rx="2.5" ry="2.5" style="stroke:#181818;stroke-width:0.5;" width="79" x="7" y="301.6406"/><text fill="#000000" font-family="sans-serif" font-size="14" lengthAdjust="spacing" textLength="72" x="10.5" y="319.3145">TaxNumber</text><line style="stroke:#181818;stroke-width:0.5;" x1="8" x2="85" y1="327.2813" y2="327.2813"/><text fill="#000000" font-family="sans-serif" font-size="14" lengthAdjust="spacing" textLength="67" x="13" y="343.9551">taxNumber</text></g><!--class Apartment--><g id="elem_Apartment"><rect codeLine="87" fill="#F1F1F1" height="33.6406" id="Apartment" rx="2.5" ry="2.5" style="stroke:#181818;stroke-width:0.5;" width="71" x="609" y="871.1406"/><text fill="#000000" font-family="sans-serif" font-size="14" lengthAdjust="spacing" textLength="65" x="612" y="888.8145">Apartment</text><line style="stroke:#181818;stroke-width:0.5;" x1="610" x2="679" y1="896.7813" y2="896.7813"/></g><!--class SunExposure--><g id="elem_SunExposure"><rect codeLine="90" fill="#F1F1F1" height="49.2813" id="SunExposure" rx="2.5" ry="2.5" style="stroke:#181818;stroke-width:0.5;" width="90" x="434.5" y="699.6406"/><text fill="#000000" font-family="sans-serif" font-size="14" lengthAdjust="spacing" textLength="84" x="437.5" y="717.3145">SunExposure</text><line style="stroke:#181818;stroke-width:0.5;" x1="435.5" x2="523.5" y1="725.2813" y2="725.2813"/><text fill="#000000" font-family="sans-serif" font-size="14" lengthAdjust="spacing" textLength="54" x="440.5" y="741.9551">direction</text></g><!--class PropertyType--><g id="elem_PropertyType"><rect codeLine="94" fill="#F1F1F1" height="49.2813" id="PropertyType" rx="2.5" ry="2.5" style="stroke:#181818;stroke-width:0.5;" width="97" x="596" y="543.6406"/><text fill="#000000" font-family="sans-serif" font-size="14" lengthAdjust="spacing" textLength="86" x="601.5" y="561.3145">PropertyType</text><line style="stroke:#181818;stroke-width:0.5;" x1="597" x2="692" y1="569.2813" y2="569.2813"/><text fill="#000000" font-family="sans-serif" font-size="14" lengthAdjust="spacing" textLength="85" x="602" y="585.9551">propertyType</text></g><!--link Owner to Address--><g id="link_Owner_Address"><path codeLine="98" d="M165.17,233.8906 C165.17,348.4906 165.17,724.6406 165.17,724.6406 C165.17,724.6406 185.42,724.6406 206.31,724.6406 " fill="none" id="Owner-Address" style="stroke:#181818;stroke-width:1.0;"/><polygon fill="#000000" points="134.5877,497.0849,136.7607,487.8259,130.9034,488.3169,134.5877,497.0849" style="stroke:#000000;stroke-width:1.0;"/><text fill="#000000" font-family="sans-serif" font-size="13" lengthAdjust="spacing" textLength="21" x="143.17" y="496.6092">has</text><text fill="#000000" font-family="sans-serif" font-size="13" lengthAdjust="spacing" textLength="7" x="157.0587" y="253.2939">1</text><text fill="#000000" font-family="sans-serif" font-size="13" lengthAdjust="spacing" textLength="7" x="191.55" y="721.405">1</text></g><!--link Owner to Request--><g id="link_Owner_Request"><path codeLine="99" d="M225.53,201.6406 C320.99,201.6406 500.67,201.6406 500.67,201.6406 C500.67,201.6406 500.67,256.5406 500.67,293.4306 " fill="none" id="Owner-Request" style="stroke:#181818;stroke-width:1.0;"/><polygon fill="#000000" points="360.733,195.4847,353.0829,189.8343,351.2227,195.4101,360.733,195.4847" style="stroke:#000000;stroke-width:1.0;"/><text fill="#000000" font-family="sans-serif" font-size="13" lengthAdjust="spacing" textLength="43" x="364.99" y="198.4092">creates</text><text fill="#000000" font-family="sans-serif" font-size="13" lengthAdjust="spacing" textLength="7" x="233.4135" y="198.6149">1</text><text fill="#000000" font-family="sans-serif" font-size="13" lengthAdjust="spacing" textLength="24" x="472.1676" y="283.071">1...*</text></g><!--link Owner to TaxNumber--><g id="link_Owner_TaxNumber"><path codeLine="100" d="M137.33,233.8706 C137.33,268.6406 137.33,318.6406 137.33,318.6406 C137.33,318.6406 110.55,318.6406 86.08,318.6406 " fill="none" id="Owner-TaxNumber" style="stroke:#181818;stroke-width:1.0;"/><polygon fill="#000000" points="103.7431,298.4211,110.9378,292.2012,105.9078,289.1602,103.7431,298.4211" style="stroke:#000000;stroke-width:1.0;"/><text fill="#000000" font-family="sans-serif" font-size="13" lengthAdjust="spacing" textLength="21" x="115.33" y="298.6492">has</text><text fill="#000000" font-family="sans-serif" font-size="13" lengthAdjust="spacing" textLength="7" x="123.9117" y="253.27">1</text><text fill="#000000" font-family="sans-serif" font-size="13" lengthAdjust="spacing" textLength="7" x="94.0229" y="313.7581">1</text></g><!--link Owner to Contacts--><g id="link_Owner_Contacts"><path codeLine="101" d="M209.25,233.8206 C209.25,281.7406 209.25,370.5306 209.25,418.4506 " fill="none" id="Owner-Contacts" style="stroke:#181818;stroke-width:1.0;"/><polygon fill="#000000" points="178.25,323.4023,181.1889,314.3573,175.3111,314.3573,178.25,323.4023" style="stroke:#000000;stroke-width:1.0;"/><text fill="#000000" font-family="sans-serif" font-size="13" lengthAdjust="spacing" textLength="21" x="187.25" y="322.9092">has</text><text fill="#000000" font-family="sans-serif" font-size="13" lengthAdjust="spacing" textLength="7" x="209.5414" y="253.2105">1</text><text fill="#000000" font-family="sans-serif" font-size="13" lengthAdjust="spacing" textLength="7" x="194.4641" y="408.0952">1</text></g><!--link Agent to Address--><g id="link_Agent_Address"><path codeLine="103" d="M309.33,108.7106 C309.33,231.3806 309.33,658.6406 309.33,658.6406 C309.33,658.6406 304.1,658.6406 296.78,658.6406 " fill="none" id="Agent-Address" style="stroke:#181818;stroke-width:1.0;"/><polygon fill="#000000" points="278.2159,387.211,281.3605,378.2354,275.4841,378.1013,278.2159,387.211" style="stroke:#000000;stroke-width:1.0;"/><text fill="#000000" font-family="sans-serif" font-size="13" lengthAdjust="spacing" textLength="21" x="287.33" y="386.7192">has</text><text fill="#000000" font-family="sans-serif" font-size="13" lengthAdjust="spacing" textLength="7" x="307.12" y="128.3287">1</text><text fill="#000000" font-family="sans-serif" font-size="13" lengthAdjust="spacing" textLength="7" x="304.5543" y="644.8862">1</text></g><!--link Agent to Request--><g id="link_Agent_Request"><path codeLine="104" d="M339.62,76.6406 C410.32,76.6406 520.33,76.6406 520.33,76.6406 C520.33,76.6406 520.33,225.8906 520.33,293.5206 " fill="none" id="Agent-Request" style="stroke:#181818;stroke-width:1.0;"/><polygon fill="#000000" points="387.5307,90.8237,383.9985,81.9933,379.4827,85.756,387.5307,90.8237" style="stroke:#000000;stroke-width:1.0;"/><text fill="#000000" font-family="sans-serif" font-size="13" lengthAdjust="spacing" textLength="126" x="393.33" y="91.4892">reviews and publishes</text><text fill="#000000" font-family="sans-serif" font-size="13" lengthAdjust="spacing" textLength="7" x="347.5151" y="73.6149">1</text><text fill="#000000" font-family="sans-serif" font-size="13" lengthAdjust="spacing" textLength="24" x="525.1053" y="282.6881">1...*</text></g><!--link Agent to TaxNumber--><g id="link_Agent_TaxNumber"><path codeLine="105" d="M248.33,108.8806 C248.33,178.4406 248.33,334.6406 248.33,334.6406 C248.33,334.6406 145.2,334.6406 86.38,334.6406 " fill="none" id="Agent-TaxNumber" style="stroke:#181818;stroke-width:1.0;"/><polygon fill="#000000" points="214.4156,299.0651,222.0759,293.4286,217.2998,290.0024,214.4156,299.0651" style="stroke:#000000;stroke-width:1.0;"/><text fill="#000000" font-family="sans-serif" font-size="13" lengthAdjust="spacing" textLength="21" x="226.33" y="299.5092">has</text><text fill="#000000" font-family="sans-serif" font-size="13" lengthAdjust="spacing" textLength="7" x="234.3398" y="128.282">1</text><text fill="#000000" font-family="sans-serif" font-size="13" lengthAdjust="spacing" textLength="7" x="94.1071" y="332.6979">1</text></g><!--link Agent to Contacts--><g id="link_Agent_Contacts"><path codeLine="106" d="M271.17,108.7606 C271.17,179.7706 271.17,347.6506 271.17,418.5906 " fill="none" id="Agent-Contacts" style="stroke:#181818;stroke-width:1.0;"/><polygon fill="#000000" points="240.17,260.9423,243.1089,251.8973,237.2311,251.8973,240.17,260.9423" style="stroke:#000000;stroke-width:1.0;"/><text fill="#000000" font-family="sans-serif" font-size="13" lengthAdjust="spacing" textLength="21" x="249.17" y="260.4492">has</text><text fill="#000000" font-family="sans-serif" font-size="13" lengthAdjust="spacing" textLength="7" x="261.4472" y="128.3886">1</text><text fill="#000000" font-family="sans-serif" font-size="13" lengthAdjust="spacing" textLength="7" x="269.4572" y="407.7734">1</text></g><!--link Agent to CompanyBranch--><g id="link_Agent_CompanyBranch"><path codeLine="107" d="M322.17,108.8206 C322.17,170.4406 322.17,297.6406 322.17,297.6406 C322.17,297.6406 327.28,297.6406 334.7,297.6406 " fill="none" id="Agent-CompanyBranch" style="stroke:#181818;stroke-width:1.0;"/><polygon fill="#000000" points="260.5011,206.7514,262.8346,197.5315,256.9697,197.9207,260.5011,206.7514" style="stroke:#000000;stroke-width:1.0;"/><text fill="#000000" font-family="sans-serif" font-size="13" lengthAdjust="spacing" textLength="52" x="269.17" y="206.2692">works for</text><text fill="#000000" font-family="sans-serif" font-size="13" lengthAdjust="spacing" textLength="7" x="322.2555" y="128.2105">1</text><text fill="#000000" font-family="sans-serif" font-size="13" lengthAdjust="spacing" textLength="7" x="320.1022" y="290.8993">1</text></g><!--link Property to PropertyType--><g id="link_Property_PropertyType"><path codeLine="109" d="M662.25,483.7306 C662.25,502.6606 662.25,526.1306 662.25,543.5106 " fill="none" id="Property-PropertyType" style="stroke:#181818;stroke-width:1.0;"/><polygon fill="#000000" points="631.25,526.8823,634.1889,517.8373,628.3111,517.8373,631.25,526.8823" style="stroke:#000000;stroke-width:1.0;"/><text fill="#000000" font-family="sans-serif" font-size="13" lengthAdjust="spacing" textLength="21" x="640.25" y="526.3892">has</text><text fill="#000000" font-family="sans-serif" font-size="13" lengthAdjust="spacing" textLength="7" x="641.9117" y="503.3527">1</text><text fill="#000000" font-family="sans-serif" font-size="13" lengthAdjust="spacing" textLength="7" x="659.0797" y="532.8112">1</text></g><!--link Property to Photographs--><g id="link_Property_Photographs"><path codeLine="110" d="M793.25,483.8006 C793.25,539.1406 793.25,650.1206 793.25,699.4906 " fill="none" id="Property-Photographs" style="stroke:#181818;stroke-width:1.0;"/><text fill="#000000" font-family="sans-serif" font-size="13" lengthAdjust="spacing" textLength="21" x="771.25" y="588.4092">has</text><text fill="#000000" font-family="sans-serif" font-size="13" lengthAdjust="spacing" textLength="7" x="798.7023" y="503.4365">1</text><text fill="#000000" font-family="sans-serif" font-size="13" lengthAdjust="spacing" textLength="33" x="751.7172" y="688.7858">1...30</text></g><!--link Property to Address--><g id="link_Property_Address"><path codeLine="112" d="M711.25,484.0006 C711.25,545.2306 711.25,670.6406 711.25,670.6406 C711.25,670.6406 412.83,670.6406 296.84,670.6406 " fill="none" id="Property-Address" style="stroke:#181818;stroke-width:1.0;"/><polygon fill="#000000" points="561.801,664.9556,571.2551,663.9209,568.8414,658.5615,561.801,664.9556" style="stroke:#000000;stroke-width:1.0;"/><text fill="#000000" font-family="sans-serif" font-size="13" lengthAdjust="spacing" textLength="21" x="575.36" y="667.4092">has</text><text fill="#000000" font-family="sans-serif" font-size="13" lengthAdjust="spacing" textLength="7" x="700.6758" y="503.4248">1</text><text fill="#000000" font-family="sans-serif" font-size="13" lengthAdjust="spacing" textLength="7" x="304.6239" y="675.03">1</text></g><!--link PropertyType to Residence--><g id="link_PropertyType_Residence"><path codeLine="113" d="M644.5,592.8606 C644.5,592.8606 644.5,670.9506 644.5,670.9506 " fill="none" id="PropertyType-to-Residence" style="stroke:#181818;stroke-width:1.0;"/><polygon fill="#181818" points="644.5,675.9506,648.5,666.9506,644.5,670.9506,640.5,666.9506,644.5,675.9506" style="stroke:#181818;stroke-width:1.0;"/><text fill="#000000" font-family="sans-serif" font-size="13" lengthAdjust="spacing" textLength="39" x="604.5" y="628.6792">can be</text></g><!--link PropertyType to Land--><g id="link_PropertyType_Land"><path codeLine="114" d="M595.77,568.6406 C519.49,568.6406 380.5,568.6406 380.5,568.6406 C380.5,568.6406 380.5,701.9006 380.5,701.9006 " fill="none" id="PropertyType-to-Land" style="stroke:#181818;stroke-width:1.0;"/><polygon fill="#181818" points="380.5,706.9006,384.5,697.9006,380.5,701.9006,376.5,697.9006,380.5,706.9006" style="stroke:#181818;stroke-width:1.0;"/><text fill="#000000" font-family="sans-serif" font-size="13" lengthAdjust="spacing" textLength="39" x="381.5" y="565.4092">can be</text></g><!--link CompanyBranch to Address--><g id="link_CompanyBranch_Address"><path codeLine="116" d="M352.67,358.9006 C352.67,443.8506 352.67,664.6406 352.67,664.6406 C352.67,664.6406 323.69,664.6406 296.76,664.6406 " fill="none" id="CompanyBranch-Address" style="stroke:#181818;stroke-width:1.0;"/><polygon fill="#000000" points="320.7706,536.9108,325.2886,528.5419,319.5067,527.4846,320.7706,536.9108" style="stroke:#000000;stroke-width:1.0;"/><text fill="#000000" font-family="sans-serif" font-size="13" lengthAdjust="spacing" textLength="21" x="330.67" y="536.4992">has</text><text fill="#000000" font-family="sans-serif" font-size="13" lengthAdjust="spacing" textLength="7" x="337.7915" y="378.3058">1</text><text fill="#000000" font-family="sans-serif" font-size="13" lengthAdjust="spacing" textLength="7" x="304.5311" y="668.0737">1</text></g><!--link CompanyBranch to Contacts--><g id="link_CompanyBranch_Contacts"><path codeLine="117" d="M343.83,358.8106 C343.83,386.8106 343.83,422.6406 343.83,422.6406 C343.83,422.6406 319.14,422.6406 294.25,422.6406 " fill="none" id="CompanyBranch-Contacts" style="stroke:#181818;stroke-width:1.0;"/><polygon fill="#000000" points="309.7628,411.7211,317.6324,406.3806,312.9904,402.7749,309.7628,411.7211" style="stroke:#000000;stroke-width:1.0;"/><text fill="#000000" font-family="sans-serif" font-size="13" lengthAdjust="spacing" textLength="21" x="321.83" y="412.2792">has</text><text fill="#000000" font-family="sans-serif" font-size="13" lengthAdjust="spacing" textLength="7" x="326.9528" y="378.4484">1</text><text fill="#000000" font-family="sans-serif" font-size="13" lengthAdjust="spacing" textLength="7" x="301.8789" y="415.4593">1</text></g><!--reverse link Residence to House--><g id="link_Residence_House"><path codeLine="119" d="M563,792.4606 C563,792.4606 563,855.4606 563,855.4606 " fill="none" id="Residence-backto-House" style="stroke:#181818;stroke-width:1.0;"/><polygon fill="none" points="556,792.4606,563,772.4606,570,792.4606,556,792.4606" style="stroke:#181818;stroke-width:1.0;"/></g><!--reverse link Residence to Apartment--><g id="link_Residence_Apartment"><path codeLine="120" d="M644.5,792.4606 C644.5,792.4606 644.5,871.0506 644.5,871.0506 " fill="none" id="Residence-backto-Apartment" style="stroke:#181818;stroke-width:1.0;"/><polygon fill="none" points="637.5,792.4606,644.5,772.4606,651.5,792.4606,637.5,792.4606" style="stroke:#181818;stroke-width:1.0;"/></g><!--link Request to Sell--><g id="link_Request_Sell"><path codeLine="122" d="M500.67,358.8506 C500.67,373.9806 500.67,388.6406 500.67,388.6406 C500.67,388.6406 422.5,388.6406 422.5,388.6406 C422.5,388.6406 422.5,421.4406 422.5,421.4406 " fill="none" id="Request-to-Sell" style="stroke:#181818;stroke-width:1.0;"/><polygon fill="#181818" points="422.5,426.4406,426.5,417.4406,422.5,421.4406,418.5,417.4406,422.5,426.4406" style="stroke:#181818;stroke-width:1.0;"/><text fill="#000000" font-family="sans-serif" font-size="13" lengthAdjust="spacing" textLength="39" x="420.08" y="385.4092">can be</text></g><!--link Request to Rent--><g id="link_Request_Rent"><path codeLine="123" d="M520.33,358.6606 C520.33,358.6606 520.33,413.3506 520.33,413.3506 " fill="none" id="Request-to-Rent" style="stroke:#181818;stroke-width:1.0;"/><polygon fill="#181818" points="520.33,418.3506,524.33,409.3506,520.33,413.3506,516.33,409.3506,520.33,418.3506" style="stroke:#181818;stroke-width:1.0;"/><text fill="#000000" font-family="sans-serif" font-size="13" lengthAdjust="spacing" textLength="39" x="480.33" y="382.7692">can be</text></g><!--link Request to Property--><g id="link_Request_Property"><path codeLine="124" d="M540.08,326.6406 C599.24,326.6406 726.5,326.6406 726.5,326.6406 C726.5,326.6406 726.5,381.5406 726.5,418.4306 " fill="none" id="Request-Property" style="stroke:#181818;stroke-width:1.0;"/><polygon fill="#000000" points="610.6757,321.111,603.8592,314.4788,601.2627,319.7521,610.6757,321.111" style="stroke:#000000;stroke-width:1.0;"/><text fill="#000000" font-family="sans-serif" font-size="13" lengthAdjust="spacing" textLength="63" x="615.19" y="323.4092">announces</text><text fill="#000000" font-family="sans-serif" font-size="13" lengthAdjust="spacing" textLength="7" x="548.1433" y="322.8981">1</text><text fill="#000000" font-family="sans-serif" font-size="13" lengthAdjust="spacing" textLength="24" x="700.025" y="408.071">1...*</text></g><!--link SunExposure to House--><g id="link_SunExposure_House"><path codeLine="126" d="M479.5,748.6906 C479.5,777.1106 479.5,824.0206 479.5,855.4906 " fill="none" id="SunExposure-House" style="stroke:#181818;stroke-width:1.0;"/><polygon fill="#000000" points="448.5,789.3523,445.5611,798.3974,451.4389,798.3974,448.5,789.3523" style="stroke:#000000;stroke-width:1.0;"/><text fill="#000000" font-family="sans-serif" font-size="13" lengthAdjust="spacing" textLength="21" x="457.5" y="798.8592">has</text></g><!--SRC=[XLFRRjim37tdLmXv6J30HORjgIWAf6c75MZNeEa-GB5fIwWikHBTDClsxwESn78kxPuiauVa8GyPdhLjf9Urg9rrkVAkHa6-HGYznsYBj6fGE4_A3HoDp9zbXNDQ6HGUSvAsCiF8e6JXbjfMefGc8C0dWoK9SiBhIf4eT8pIpi8WA3SoX0cHrukMy3PtTgv_enW3A5sWoBNFkKZthf495G60D365QrTBRSMzAz28JFoQZyVV0Bfyuc5fqQ_1oXgXOKF3pVniwmLw-Bl3J2gqz1_CrDMDjAihBsskrd1x3GK6NLdPjJ60MP8vXJKqobdSPa7cPoP5uJ64GTcDOGs5StwBB4rw1_A81Bcc5Ryb8HIQRJedQ1mRp9GRJkaUyQN5m7r4R1kWY16zT-PTWvvMQv0UPPU9Ey7lBFoJmYdNcF8G_5w-mBDc34-c8_HGNc7XdQj3CaXI-vQPzAneDUSTmG3obHkN2uCtBwrkQgwGylzmRU3S-CPKOfc7Sd8b0tOWRPLSQ8gHTwuS1Dr9MwpJxnoDuL7pJFQ8HpKxumpzFIkYWBU9F0jptVe3nMRAaQkyR1GhyUlnDdcUvDj6YJNGxZbGZxUMwgvKejFQcpVMflNSM5ho8n6U-AeYm_GNCTsgYj6NaSYohFjkDqIS2oM3kDn3yEVixEppQASxWt9Mbl04S9HwUI_Ng5_T7W7TNNn8w11noCZZgyPb4AoQQDg5qK7XgRXJ18ynHmnFGGPdohYbyyz1bCx7VdRZ7tOzbAJFUm3STlPrF1fkomODfy37WzehasMNwRgYRjAA1HvZuh8dD-ptzb6rKyXtD4uyBlumg3lAGsE_wX6-aJRIYyUNw0qzyGAFFKmWotOxqa_jd9V3kfQBTNm69oHsVBPiB-0V]--></g></svg>