<?xml version="1.0" encoding="us-ascii" standalone="no"?><svg xmlns="http://www.w3.org/2000/svg" xmlns:xlink="http://www.w3.org/1999/xlink" contentStyleType="text/css" height="618.4px" preserveAspectRatio="none" style="width:914px;height:618px;background:#FFFFFF;" version="1.1" viewBox="0 0 914 618" width="914.4px" zoomAndPan="magnify"><defs/><g><text fill="#000000" font-family="sans-serif" font-size="11.2" font-weight="bold" lengthAdjust="spacing" textLength="124.8" x="389.42" y="18.1391">Domain Model - US004</text><!--class Owner--><g id="elem_Owner"><rect codeLine="14" fill="#F1F1F1" height="51.9375" id="Owner" rx="2" ry="2" style="stroke:#181818;stroke-width:0.4000000000000001;" width="92.8" x="373.2" y="34.9125"/><text fill="#000000" font-family="sans-serif" font-size="11.2" lengthAdjust="spacing" textLength="32.8" x="403.2" y="49.0516">Owner</text><line style="stroke:#181818;stroke-width:0.4000000000000001;" x1="374" x2="465.2" y1="55.425" y2="55.425"/><text fill="#000000" font-family="sans-serif" font-size="11.2" lengthAdjust="spacing" textLength="28" x="378" y="68.7641">name</text><text fill="#000000" font-family="sans-serif" font-size="11.2" lengthAdjust="spacing" textLength="83.2" x="378" y="81.2766">passportNumber</text></g><!--class Agent--><g id="elem_Agent"><rect codeLine="19" fill="#F1F1F1" height="51.9375" id="Agent" rx="2" ry="2" style="stroke:#181818;stroke-width:0.4000000000000001;" width="92.8" x="744.4" y="34.9125"/><text fill="#000000" font-family="sans-serif" font-size="11.2" lengthAdjust="spacing" textLength="29.6" x="776" y="49.0516">Agent</text><line style="stroke:#181818;stroke-width:0.4000000000000001;" x1="745.2" x2="836.4" y1="55.425" y2="55.425"/><text fill="#000000" font-family="sans-serif" font-size="11.2" lengthAdjust="spacing" textLength="28" x="749.2" y="68.7641">name</text><text fill="#000000" font-family="sans-serif" font-size="11.2" lengthAdjust="spacing" textLength="83.2" x="749.2" y="81.2766">passportNumber</text></g><!--class CompanyBranch--><g id="elem_CompanyBranch"><rect codeLine="24" fill="#F1F1F1" height="51.9375" id="CompanyBranch" rx="2" ry="2" style="stroke:#181818;stroke-width:0.4000000000000001;" width="88.8" x="626.4" y="147.7125"/><text fill="#000000" font-family="sans-serif" font-size="11.2" lengthAdjust="spacing" textLength="84" x="628.8" y="161.8516">CompanyBranch</text><line style="stroke:#181818;stroke-width:0.4000000000000001;" x1="627.2" x2="714.4" y1="168.225" y2="168.225"/><text fill="#000000" font-family="sans-serif" font-size="11.2" lengthAdjust="spacing" textLength="10.4" x="631.2" y="181.5641">ID</text><text fill="#000000" font-family="sans-serif" font-size="11.2" lengthAdjust="spacing" textLength="58.4" x="631.2" y="194.0766">designation</text></g><!--class Contacts--><g id="elem_Contacts"><rect codeLine="29" fill="#F1F1F1" height="51.9375" id="Contacts" rx="2" ry="2" style="stroke:#181818;stroke-width:0.4000000000000001;" width="80.8" x="630.4" y="266.9125"/><text fill="#000000" font-family="sans-serif" font-size="11.2" lengthAdjust="spacing" textLength="44.8" x="648.4" y="281.0516">Contacts</text><line style="stroke:#181818;stroke-width:0.4000000000000001;" x1="631.2" x2="710.4" y1="287.425" y2="287.425"/><text fill="#000000" font-family="sans-serif" font-size="11.2" lengthAdjust="spacing" textLength="71.2" x="635.2" y="300.7641">phoneNumber</text><text fill="#000000" font-family="sans-serif" font-size="11.2" lengthAdjust="spacing" textLength="68" x="635.2" y="313.2766">emailAddress</text></g><!--class Address--><g id="elem_Address"><rect codeLine="34" fill="#F1F1F1" height="114.5" id="Address" rx="2" ry="2" style="stroke:#181818;stroke-width:0.4000000000000001;" width="72" x="384.4" y="386.1125"/><text fill="#000000" font-family="sans-serif" font-size="11.2" lengthAdjust="spacing" textLength="41.6" x="399.6" y="400.2516">Address</text><line style="stroke:#181818;stroke-width:0.4000000000000001;" x1="385.2" x2="455.6" y1="406.625" y2="406.625"/><text fill="#000000" font-family="sans-serif" font-size="11.2" lengthAdjust="spacing" textLength="62.4" x="389.2" y="419.9641">doorNumber</text><text fill="#000000" font-family="sans-serif" font-size="11.2" lengthAdjust="spacing" textLength="61.6" x="389.2" y="432.4766">floorNumber</text><text fill="#000000" font-family="sans-serif" font-size="11.2" lengthAdjust="spacing" textLength="28.8" x="389.2" y="444.9891">street</text><text fill="#000000" font-family="sans-serif" font-size="11.2" lengthAdjust="spacing" textLength="16.8" x="389.2" y="457.5016">city</text><text fill="#000000" font-family="sans-serif" font-size="11.2" lengthAdjust="spacing" textLength="24.8" x="389.2" y="470.0141">state</text><text fill="#000000" font-family="sans-serif" font-size="11.2" lengthAdjust="spacing" textLength="32.8" x="389.2" y="482.5266">district</text><text fill="#000000" font-family="sans-serif" font-size="11.2" lengthAdjust="spacing" textLength="57.6" x="389.2" y="495.0391">postalCode</text></g><!--class Request--><g id="elem_Request"><rect codeLine="44" fill="#F1F1F1" height="51.9375" id="Request" rx="2" ry="2" style="stroke:#181818;stroke-width:0.4000000000000001;" width="47.2" x="307.2" y="147.7125"/><text fill="#000000" font-family="sans-serif" font-size="11.2" lengthAdjust="spacing" textLength="42.4" x="309.6" y="161.8516">Request</text><line style="stroke:#181818;stroke-width:0.4000000000000001;" x1="308" x2="353.6" y1="168.225" y2="168.225"/><text fill="#000000" font-family="sans-serif" font-size="11.2" lengthAdjust="spacing" textLength="30.4" x="312" y="181.5641">status</text><text fill="#000000" font-family="sans-serif" font-size="11.2" lengthAdjust="spacing" textLength="22.4" x="312" y="194.0766">date</text></g><!--class Property--><g id="elem_Property"><rect codeLine="49" fill="#F1F1F1" height="64.45" id="Property" rx="2" ry="2" style="stroke:#181818;stroke-width:0.4000000000000001;" width="152" x="52.4" y="260.5125"/><text fill="#000000" font-family="sans-serif" font-size="11.2" lengthAdjust="spacing" textLength="43.2" x="106.8" y="274.6516">Property</text><line style="stroke:#181818;stroke-width:0.4000000000000001;" x1="53.2" x2="203.6" y1="281.025" y2="281.025"/><text fill="#000000" font-family="sans-serif" font-size="11.2" lengthAdjust="spacing" textLength="23.2" x="57.2" y="294.3641">area</text><text fill="#000000" font-family="sans-serif" font-size="11.2" lengthAdjust="spacing" textLength="142.4" x="57.2" y="306.8766">distanceFromTheCityCentre</text><text fill="#000000" font-family="sans-serif" font-size="11.2" lengthAdjust="spacing" textLength="24.8" x="57.2" y="319.3891">price</text></g><!--class Residence--><g id="elem_Residence"><rect codeLine="55" fill="#F1F1F1" height="76.9625" id="Residence" rx="2" ry="2" style="stroke:#181818;stroke-width:0.4000000000000001;" width="136" x="103.6" y="404.9125"/><text fill="#000000" font-family="sans-serif" font-size="11.2" lengthAdjust="spacing" textLength="53.6" x="144.8" y="419.0516">Residence</text><line style="stroke:#181818;stroke-width:0.4000000000000001;" x1="104.4" x2="238.8" y1="425.425" y2="425.425"/><text fill="#000000" font-family="sans-serif" font-size="11.2" lengthAdjust="spacing" textLength="101.6" x="108.4" y="438.7641">numberOfBedrooms</text><text fill="#000000" font-family="sans-serif" font-size="11.2" lengthAdjust="spacing" textLength="104.8" x="108.4" y="451.2766">numberOfBathrooms</text><text fill="#000000" font-family="sans-serif" font-size="11.2" lengthAdjust="spacing" textLength="126.4" x="108.4" y="463.7891">numberOfParkingSpaces</text><text fill="#000000" font-family="sans-serif" font-size="11.2" lengthAdjust="spacing" textLength="98.4" x="108.4" y="476.3016">availableEquipment</text></g><!--class House--><g id="elem_House"><rect codeLine="62" fill="#F1F1F1" height="51.9375" id="House" rx="2" ry="2" style="stroke:#181818;stroke-width:0.4000000000000001;" width="126.4" x="366.8" y="561.3125"/><text fill="#000000" font-family="sans-serif" font-size="11.2" lengthAdjust="spacing" textLength="32" x="414" y="575.4516">House</text><line style="stroke:#181818;stroke-width:0.4000000000000001;" x1="367.6" x2="492.4" y1="581.825" y2="581.825"/><text fill="#000000" font-family="sans-serif" font-size="11.2" lengthAdjust="spacing" textLength="116.8" x="371.6" y="595.1641">existenceOfABasement</text><text fill="#000000" font-family="sans-serif" font-size="11.2" lengthAdjust="spacing" textLength="74.4" x="371.6" y="607.6766">inhabitableLoft</text></g><!--class Land--><g id="elem_Land"><rect codeLine="67" fill="#F1F1F1" height="26.9125" id="Land" rx="2" ry="2" style="stroke:#181818;stroke-width:0.4000000000000001;" width="30.4" x="267.6" y="429.7125"/><text fill="#000000" font-family="sans-serif" font-size="11.2" lengthAdjust="spacing" textLength="25.6" x="270" y="443.8516">Land</text><line style="stroke:#181818;stroke-width:0.4000000000000001;" x1="268.4" x2="297.2" y1="450.225" y2="450.225"/></g><!--class Sell--><g id="elem_Sell"><rect codeLine="70" fill="#F1F1F1" height="26.9125" id="Sell" rx="2" ry="2" style="stroke:#181818;stroke-width:0.4000000000000001;" width="23.2" x="232.8" y="279.3125"/><text fill="#000000" font-family="sans-serif" font-size="11.2" lengthAdjust="spacing" textLength="18.4" x="235.2" y="293.4516">Sell</text><line style="stroke:#181818;stroke-width:0.4000000000000001;" x1="233.6" x2="255.2" y1="299.825" y2="299.825"/></g><!--class Rent--><g id="elem_Rent"><rect codeLine="73" fill="#F1F1F1" height="39.425" id="Rent" rx="2" ry="2" style="stroke:#181818;stroke-width:0.4000000000000001;" width="93.6" x="284" y="273.3125"/><text fill="#000000" font-family="sans-serif" font-size="11.2" lengthAdjust="spacing" textLength="24" x="318.8" y="287.4516">Rent</text><line style="stroke:#181818;stroke-width:0.4000000000000001;" x1="284.8" x2="376.8" y1="293.825" y2="293.825"/><text fill="#000000" font-family="sans-serif" font-size="11.2" lengthAdjust="spacing" textLength="84" x="288.8" y="307.1641">contractDuration</text></g><!--class Commission--><g id="elem_Commission"><rect codeLine="77" fill="#F1F1F1" height="39.425" id="Commission" rx="2" ry="2" style="stroke:#181818;stroke-width:0.4000000000000001;" width="96" x="745.2" y="154.1125"/><text fill="#000000" font-family="sans-serif" font-size="11.2" lengthAdjust="spacing" textLength="60.8" x="762.8" y="168.2516">Commission</text><line style="stroke:#181818;stroke-width:0.4000000000000001;" x1="746" x2="840.4" y1="174.625" y2="174.625"/><text fill="#000000" font-family="sans-serif" font-size="11.2" lengthAdjust="spacing" textLength="86.4" x="750" y="187.9641">percentageValue</text></g><!--class Photographs--><g id="elem_Photographs"><rect codeLine="81" fill="#F1F1F1" height="39.425" id="Photographs" rx="2" ry="2" style="stroke:#181818;stroke-width:0.4000000000000001;" width="69.6" x="5.6" y="423.7125"/><text fill="#000000" font-family="sans-serif" font-size="11.2" lengthAdjust="spacing" textLength="64.8" x="8" y="437.8516">Photographs</text><line style="stroke:#181818;stroke-width:0.4000000000000001;" x1="6.4" x2="74.4" y1="444.225" y2="444.225"/><text fill="#000000" font-family="sans-serif" font-size="11.2" lengthAdjust="spacing" textLength="17.6" x="10.4" y="457.5641">URI</text></g><!--class TaxNumber--><g id="elem_TaxNumber"><rect codeLine="85" fill="#F1F1F1" height="39.425" id="TaxNumber" rx="2" ry="2" style="stroke:#181818;stroke-width:0.4000000000000001;" width="63.2" x="532" y="154.1125"/><text fill="#000000" font-family="sans-serif" font-size="11.2" lengthAdjust="spacing" textLength="57.6" x="534.8" y="168.2516">TaxNumber</text><line style="stroke:#181818;stroke-width:0.4000000000000001;" x1="532.8" x2="594.4" y1="174.625" y2="174.625"/><text fill="#000000" font-family="sans-serif" font-size="11.2" lengthAdjust="spacing" textLength="53.6" x="536.8" y="187.9641">taxNumber</text></g><!--class Apartment--><g id="elem_Apartment"><rect codeLine="89" fill="#F1F1F1" height="26.9125" id="Apartment" rx="2" ry="2" style="stroke:#181818;stroke-width:0.4000000000000001;" width="56.8" x="143.2" y="573.7125"/><text fill="#000000" font-family="sans-serif" font-size="11.2" lengthAdjust="spacing" textLength="52" x="145.6" y="587.8516">Apartment</text><line style="stroke:#181818;stroke-width:0.4000000000000001;" x1="144" x2="199.2" y1="594.225" y2="594.225"/></g><!--class SunExposure--><g id="elem_SunExposure"><rect codeLine="91" fill="#F1F1F1" height="39.425" id="SunExposure" rx="2" ry="2" style="stroke:#181818;stroke-width:0.4000000000000001;" width="72" x="484.4" y="423.7125"/><text fill="#000000" font-family="sans-serif" font-size="11.2" lengthAdjust="spacing" textLength="67.2" x="486.8" y="437.8516">SunExposure</text><line style="stroke:#181818;stroke-width:0.4000000000000001;" x1="485.2" x2="555.6" y1="444.225" y2="444.225"/><text fill="#000000" font-family="sans-serif" font-size="11.2" lengthAdjust="spacing" textLength="43.2" x="489.2" y="457.5641">direction</text></g><!--link Owner to Address--><g id="link_Owner_Address"><path codeLine="95" d="M419.656,86.9925 C419.784,147.5445 420.104,302.0645 420.28,386.0725 " fill="none" id="Owner-Address" style="stroke:#181818;stroke-width:0.8000000000000002;"/><polygon fill="#000000" points="424.4083,234.3219,426.7444,227.0809,422.0421,227.0907,424.4083,234.3219" style="stroke:#000000;stroke-width:0.8000000000000002;"/><text fill="#000000" font-family="sans-serif" font-size="10.4" lengthAdjust="spacing" textLength="16.8" x="431.6" y="233.9273">has</text><text fill="#000000" font-family="sans-serif" font-size="10.4" lengthAdjust="spacing" textLength="5.6" x="413.5158" y="102.6917">1</text><text fill="#000000" font-family="sans-serif" font-size="10.4" lengthAdjust="spacing" textLength="5.6" x="414.3606" y="377.4317">1</text></g><!--link Owner to Request--><g id="link_Owner_Request"><path codeLine="96" d="M373.144,78.7605 C358.752,86.3685 344.384,96.8725 335.6,110.9125 C328.84,121.7125 327.296,135.7285 327.592,147.7045 " fill="none" id="Owner-Request" style="stroke:#181818;stroke-width:0.8000000000000002;"/><polygon fill="#000000" points="337.395,120.8592,343.3455,116.118,339.4223,113.5258,337.395,120.8592" style="stroke:#000000;stroke-width:0.8000000000000002;"/><text fill="#000000" font-family="sans-serif" font-size="10.4" lengthAdjust="spacing" textLength="34.4" x="346.8" y="121.1273">creates</text><text fill="#000000" font-family="sans-serif" font-size="10.4" lengthAdjust="spacing" textLength="5.6" x="361.2331" y="78.5754">1</text><text fill="#000000" font-family="sans-serif" font-size="10.4" lengthAdjust="spacing" textLength="19.2" x="305.5903" y="139.0577">1...*</text></g><!--link Owner to TaxNumber--><g id="link_Owner_TaxNumber"><path codeLine="97" d="M441.272,87.1205 C452.104,99.0085 465.816,112.8885 479.6,123.7125 C495.816,136.4485 515.656,148.2165 531.976,157.0565 " fill="none" id="Owner-TaxNumber" style="stroke:#181818;stroke-width:0.8000000000000002;"/><polygon fill="#000000" points="486.7677,119.9643,482.4729,113.684,479.6016,117.4079,486.7677,119.9643" style="stroke:#000000;stroke-width:0.8000000000000002;"/><text fill="#000000" font-family="sans-serif" font-size="10.4" lengthAdjust="spacing" textLength="16.8" x="490.8" y="121.1273">has</text><text fill="#000000" font-family="sans-serif" font-size="10.4" lengthAdjust="spacing" textLength="5.6" x="439.2695" y="102.6446">1</text><text fill="#000000" font-family="sans-serif" font-size="10.4" lengthAdjust="spacing" textLength="5.6" x="520.0291" y="151.1858">1</text></g><!--link Owner to Contacts--><g id="link_Owner_Contacts"><path codeLine="98" d="M426.68,86.9925 C436.312,117.3045 456.248,167.9765 489.2,199.7125 C535.96,244.7365 565.096,229.2805 622,260.5125 C625.624,262.5045 629.344,264.6645 633.032,266.8965 " fill="none" id="Owner-Contacts" style="stroke:#181818;stroke-width:0.8000000000000002;"/><polygon fill="#000000" points="496.215,176.5505,492.3058,170.0231,489.2157,173.5675,496.215,176.5505" style="stroke:#000000;stroke-width:0.8000000000000002;"/><text fill="#000000" font-family="sans-serif" font-size="10.4" lengthAdjust="spacing" textLength="16.8" x="500.4" y="177.5273">has</text><text fill="#000000" font-family="sans-serif" font-size="10.4" lengthAdjust="spacing" textLength="5.6" x="421.9226" y="102.6917">1</text><text fill="#000000" font-family="sans-serif" font-size="10.4" lengthAdjust="spacing" textLength="5.6" x="618.5578" y="258.248">1</text></g><!--link Agent to Address--><g id="link_Agent_Address"><path codeLine="100" d="M837.224,81.8885 C850.864,89.4885 864.968,99.1845 875.6,110.9125 C902.584,140.6645 909.24,163.2485 892.4,199.7125 C877.632,231.6885 793.16,294.3365 725.2,325.3125 C619.104,373.6725 569.904,326.0005 470,386.1125 C465.304,388.9365 460.816,392.3525 456.592,396.0885 " fill="none" id="Agent-Address" style="stroke:#181818;stroke-width:0.8000000000000002;"/><polygon fill="#000000" points="874.9152,232.8683,881.9924,230.075,878.9989,226.4486,874.9152,232.8683" style="stroke:#000000;stroke-width:0.8000000000000002;"/><text fill="#000000" font-family="sans-serif" font-size="10.4" lengthAdjust="spacing" textLength="16.8" x="885.2" y="233.9273">has</text><text fill="#000000" font-family="sans-serif" font-size="10.4" lengthAdjust="spacing" textLength="5.6" x="843.5308" y="82.1042">1</text><text fill="#000000" font-family="sans-serif" font-size="10.4" lengthAdjust="spacing" textLength="5.6" x="462.8064" y="385.9099">1</text></g><!--link Agent to Request--><g id="link_Agent_Request"><path codeLine="101" d="M744.296,67.8405 C693.608,75.2245 610.472,89.3765 541.2,110.9125 C527.512,115.1685 525.128,118.9765 511.6,123.7125 C456.336,143.0725 389.4,159.5285 354.528,167.6005 " fill="none" id="Agent-Request" style="stroke:#181818;stroke-width:0.8000000000000002;"/><polygon fill="#000000" points="541.3249,118.5137,548.918,118.9972,547.752,114.4418,541.3249,118.5137" style="stroke:#000000;stroke-width:0.8000000000000002;"/><text fill="#000000" font-family="sans-serif" font-size="10.4" lengthAdjust="spacing" textLength="100.8" x="552.4" y="121.1273">reviews and publishes</text><text fill="#000000" font-family="sans-serif" font-size="10.4" lengthAdjust="spacing" textLength="5.6" x="732.3789" y="66.2563">1</text><text fill="#000000" font-family="sans-serif" font-size="10.4" lengthAdjust="spacing" textLength="19.2" x="360.8812" y="163.6286">1...*</text></g><!--link Agent to TaxNumber--><g id="link_Agent_TaxNumber"><path codeLine="102" d="M744.048,83.8165 C707.96,100.9845 656.856,125.5285 612.4,147.7125 C606.856,150.4805 600.976,153.4645 595.296,156.3845 " fill="none" id="Agent-TaxNumber" style="stroke:#181818;stroke-width:0.8000000000000002;"/><polygon fill="#000000" points="685.605,119.2757,693.1393,118.2161,691.0776,113.9899,685.605,119.2757" style="stroke:#000000;stroke-width:0.8000000000000002;"/><text fill="#000000" font-family="sans-serif" font-size="10.4" lengthAdjust="spacing" textLength="16.8" x="696.4" y="121.1273">has</text><text fill="#000000" font-family="sans-serif" font-size="10.4" lengthAdjust="spacing" textLength="5.6" x="732.4089" y="84.1696">1</text><text fill="#000000" font-family="sans-serif" font-size="10.4" lengthAdjust="spacing" textLength="5.6" x="601.6562" y="150.3899">1</text></g><!--link Agent to Contacts--><g id="link_Agent_Contacts"><path codeLine="103" d="M834.056,87.0885 C842.008,93.8005 849.28,101.7685 854,110.9125 C858.648,119.9205 857.728,196.2645 855.6,199.7125 C824.2,250.5205 755.472,274.3205 711.256,284.7605 " fill="none" id="Agent-Contacts" style="stroke:#181818;stroke-width:0.8000000000000002;"/><polygon fill="#000000" points="859.0892,177.3196,864.9048,172.4137,860.9105,169.9324,859.0892,177.3196" style="stroke:#000000;stroke-width:0.8000000000000002;"/><text fill="#000000" font-family="sans-serif" font-size="10.4" lengthAdjust="spacing" textLength="16.8" x="868.4" y="177.5273">has</text><text fill="#000000" font-family="sans-serif" font-size="10.4" lengthAdjust="spacing" textLength="5.6" x="836.1679" y="102.6065">1</text><text fill="#000000" font-family="sans-serif" font-size="10.4" lengthAdjust="spacing" textLength="5.6" x="717.6092" y="280.9909">1</text></g><!--link Agent to Commission--><g id="link_Agent_Commission"><path codeLine="104" d="M798.2,87.0325 C800.096,94.6405 801.856,103.0565 802.8,110.9125 C804.544,125.4005 801.832,141.7125 798.848,153.9605 " fill="none" id="Agent-Commission" style="stroke:#181818;stroke-width:0.8000000000000002;"/><polygon fill="#000000" points="806.8387,121.5217,809.1197,114.2632,804.4176,114.3087,806.8387,121.5217" style="stroke:#000000;stroke-width:0.8000000000000002;"/><text fill="#000000" font-family="sans-serif" font-size="10.4" lengthAdjust="spacing" textLength="32.8" x="814" y="121.1273">defines</text><text fill="#000000" font-family="sans-serif" font-size="10.4" lengthAdjust="spacing" textLength="5.6" x="793.5056" y="102.7396">1</text><text fill="#000000" font-family="sans-serif" font-size="10.4" lengthAdjust="spacing" textLength="5.6" x="794.0134" y="145.388">1</text></g><!--link Agent to CompanyBranch--><g id="link_Agent_CompanyBranch"><path codeLine="105" d="M763.568,86.9445 C744,105.0805 717.72,129.4325 698.128,147.5845 " fill="none" id="Agent-CompanyBranch" style="stroke:#181818;stroke-width:0.8000000000000002;"/><polygon fill="#000000" points="735.066,120.2407,741.9717,117.0469,738.7756,113.5978,735.066,120.2407" style="stroke:#000000;stroke-width:0.8000000000000002;"/><text fill="#000000" font-family="sans-serif" font-size="10.4" lengthAdjust="spacing" textLength="41.6" x="745.2" y="121.1273">works for</text><text fill="#000000" font-family="sans-serif" font-size="10.4" lengthAdjust="spacing" textLength="5.6" x="752.0555" y="102.6343">1</text><text fill="#000000" font-family="sans-serif" font-size="10.4" lengthAdjust="spacing" textLength="5.6" x="697.5869" y="139.3051">1</text></g><!--link Property to Address--><g id="link_Property_Address"><path codeLine="107" d="M204.736,321.0245 C225.944,329.3765 248.752,339.0725 269.2,349.3125 C310.008,369.7445 354.168,397.7045 384.16,417.6565 " fill="none" id="Property-Address" style="stroke:#181818;stroke-width:0.8000000000000002;"/><polygon fill="#000000" points="298.3217,357.8186,293.0657,352.3174,290.836,356.4574,298.3217,357.8186" style="stroke:#000000;stroke-width:0.8000000000000002;"/><text fill="#000000" font-family="sans-serif" font-size="10.4" lengthAdjust="spacing" textLength="16.8" x="302" y="359.5273">has</text><text fill="#000000" font-family="sans-serif" font-size="10.4" lengthAdjust="spacing" textLength="5.6" x="210.7949" y="320.9923">1</text><text fill="#000000" font-family="sans-serif" font-size="10.4" lengthAdjust="spacing" textLength="5.6" x="372.338" y="410.9153">1</text></g><!--link Property to Photographs--><g id="link_Property_Photographs"><path codeLine="108" d="M109.52,325.6325 C91.896,355.4405 66.184,398.9125 51.6,423.5765 " fill="none" id="Property-Photographs" style="stroke:#181818;stroke-width:0.8000000000000002;"/><polygon fill="#000000" points="97.5639,359.3649,103.271,354.3332,99.2234,351.9396,97.5639,359.3649" style="stroke:#000000;stroke-width:0.8000000000000002;"/><text fill="#000000" font-family="sans-serif" font-size="10.4" lengthAdjust="spacing" textLength="16.8" x="106.8" y="359.5273">has</text><text fill="#000000" font-family="sans-serif" font-size="10.4" lengthAdjust="spacing" textLength="5.6" x="100.7358" y="340.732">1</text><text fill="#000000" font-family="sans-serif" font-size="10.4" lengthAdjust="spacing" textLength="26.4" x="24.6625" y="415.0083">1...30</text></g><!--reverse link Property to Residence--><g id="link_Property_Residence"><path codeLine="109" d="M142.216,341.2965 C148.184,361.8485 155.064,385.5525 160.664,404.8565 " fill="none" id="Property-backto-Residence" style="stroke:#181818;stroke-width:0.8000000000000002;"/><polygon fill="none" points="136.752,342.5605,137.664,325.6325,147.504,339.4405,136.752,342.5605" style="stroke:#181818;stroke-width:0.8000000000000002;"/><text fill="#000000" font-family="sans-serif" font-size="10.4" lengthAdjust="spacing" textLength="31.2" x="148.4" y="359.5273">can be</text></g><!--reverse link Property to Land--><g id="link_Property_Land"><path codeLine="110" d="M195.344,334.8245 C215.56,349.3445 236.736,366.8885 253.2,386.1125 C264.496,399.2965 273.072,417.5205 278.008,429.6485 " fill="none" id="Property-backto-Land" style="stroke:#181818;stroke-width:0.8000000000000002;"/><polygon fill="none" points="191.864,339.2245,181.92,325.4965,198.256,330.0245,191.864,339.2245" style="stroke:#181818;stroke-width:0.8000000000000002;"/><text fill="#000000" font-family="sans-serif" font-size="10.4" lengthAdjust="spacing" textLength="31.2" x="230.8" y="359.5273">can be</text></g><!--link CompanyBranch to Address--><g id="link_CompanyBranch_Address"><path codeLine="112" d="M646.008,199.8965 C607.712,239.2725 532.112,317.6645 470,386.1125 C465.616,390.9445 461.056,396.0325 456.552,401.1045 " fill="none" id="CompanyBranch-Address" style="stroke:#181818;stroke-width:0.8000000000000002;"/><polygon fill="#000000" points="588.0579,296.0341,594.7302,292.3776,591.3067,289.1541,588.0579,296.0341" style="stroke:#000000;stroke-width:0.8000000000000002;"/><text fill="#000000" font-family="sans-serif" font-size="10.4" lengthAdjust="spacing" textLength="16.8" x="598" y="296.7273">has</text><text fill="#000000" font-family="sans-serif" font-size="10.4" lengthAdjust="spacing" textLength="5.6" x="635.1483" y="215.416">1</text><text fill="#000000" font-family="sans-serif" font-size="10.4" lengthAdjust="spacing" textLength="5.6" x="462.76" y="404.7103">1</text></g><!--link CompanyBranch to Contacts--><g id="link_CompanyBranch_Contacts"><path codeLine="113" d="M670.8,199.7445 C670.8,219.5125 670.8,246.9045 670.8,266.7205 " fill="none" id="CompanyBranch-Contacts" style="stroke:#181818;stroke-width:0.8000000000000002;"/><polygon fill="#000000" points="674.8,234.3219,677.1511,227.0858,672.4489,227.0858,674.8,234.3219" style="stroke:#000000;stroke-width:0.8000000000000002;"/><text fill="#000000" font-family="sans-serif" font-size="10.4" lengthAdjust="spacing" textLength="16.8" x="682" y="233.9273">has</text><text fill="#000000" font-family="sans-serif" font-size="10.4" lengthAdjust="spacing" textLength="5.6" x="664.6488" y="215.4343">1</text><text fill="#000000" font-family="sans-serif" font-size="10.4" lengthAdjust="spacing" textLength="5.6" x="664.6225" y="258.4279">1</text></g><!--reverse link Residence to House--><g id="link_Residence_House"><path codeLine="115" d="M236.912,490.5205 C242.36,494.0005 247.832,497.3765 253.2,500.5125 C291.88,523.1125 337.376,545.1445 372.52,561.2485 " fill="none" id="Residence-backto-House" style="stroke:#181818;stroke-width:0.8000000000000002;"/><polygon fill="none" points="233.808,495.1845,223.504,481.7205,239.96,485.8245,233.808,495.1845" style="stroke:#181818;stroke-width:0.8000000000000002;"/></g><!--reverse link Residence to Apartment--><g id="link_Residence_Apartment"><path codeLine="116" d="M171.6,497.9205 C171.6,525.3525 171.6,556.4485 171.6,573.5365 " fill="none" id="Residence-backto-Apartment" style="stroke:#181818;stroke-width:0.8000000000000002;"/><polygon fill="none" points="166,497.8965,171.6,481.8965,177.2,497.8965,166,497.8965" style="stroke:#181818;stroke-width:0.8000000000000002;"/></g><!--link Request to Sell--><g id="link_Request_Sell"><path codeLine="118" d="M310.12,199.7925 C304.04,207.3925 297.456,215.8165 291.6,223.7125 C278.68,241.1205 264.664,261.6645 255.296,275.6565 " fill="none" id="Request-to-Sell" style="stroke:#181818;stroke-width:0.8000000000000002;"/><polygon fill="#181818" points="253.016,279.0645,259.6824,274.8646,255.2427,275.7416,254.3657,271.3019,253.016,279.0645" style="stroke:#181818;stroke-width:0.8000000000000002;"/><text fill="#000000" font-family="sans-serif" font-size="10.4" lengthAdjust="spacing" textLength="31.2" x="292.4" y="233.9273">can be</text></g><!--link Request to Rent--><g id="link_Request_Rent"><path codeLine="119" d="M330.8,199.7445 C330.8,220.2805 330.8,249.0405 330.8,268.9925 " fill="none" id="Request-to-Rent" style="stroke:#181818;stroke-width:0.8000000000000002;"/><polygon fill="#181818" points="330.8,273.1125,334,265.9125,330.8,269.1125,327.6,265.9125,330.8,273.1125" style="stroke:#181818;stroke-width:0.8000000000000002;"/><text fill="#000000" font-family="sans-serif" font-size="10.4" lengthAdjust="spacing" textLength="31.2" x="331.6" y="233.9273">can be</text></g><!--link Request to Property--><g id="link_Request_Property"><path codeLine="120" d="M307.024,182.4645 C282.928,191.0085 245,205.8005 214.8,223.7125 C197.112,234.2085 179.04,247.9445 164.032,260.3605 " fill="none" id="Request-Property" style="stroke:#181818;stroke-width:0.8000000000000002;"/><polygon fill="#000000" points="215.2874,232.2354,222.7665,230.8385,220.517,226.7091,215.2874,232.2354" style="stroke:#000000;stroke-width:0.8000000000000002;"/><text fill="#000000" font-family="sans-serif" font-size="10.4" lengthAdjust="spacing" textLength="50.4" x="226" y="233.9273">announces</text><text fill="#000000" font-family="sans-serif" font-size="10.4" lengthAdjust="spacing" textLength="5.6" x="295.2783" y="181.4639">1</text><text fill="#000000" font-family="sans-serif" font-size="10.4" lengthAdjust="spacing" textLength="19.2" x="149.469" y="251.848">1...*</text></g><!--link SunExposure to House--><g id="link_SunExposure_House"><path codeLine="122" d="M508.392,463.0245 C492.352,488.2885 463.88,533.1445 446.024,561.2725 " fill="none" id="SunExposure-House" style="stroke:#181818;stroke-width:0.8000000000000002;"/><polygon fill="#000000" points="473.7437,527.7448,467.8807,532.5939,471.8506,535.114,473.7437,527.7448" style="stroke:#000000;stroke-width:0.8000000000000002;"/><text fill="#000000" font-family="sans-serif" font-size="10.4" lengthAdjust="spacing" textLength="16.8" x="478.8" y="534.7273">has</text></g><!--SRC=[XLDDJzmm4BtxLrXxgLGfQAlsX13Iib0LYHR4Gk-pyIIsSEnWJrYsAV-zax3vOBFGKvpncvatVc_YWt4b12XauPrFTV05IWeLYjZVb90-G8uhsbgK0LC2bzin86fGVcDSBZEm4ONuP34ZILu6askIoZHPnZinIaejnBWW2cPT4LwctgtC7vHp8RHHA5CJKcxIdWiaxLKKWWmnXNDVW77ofrTePIBlL_FvDo7QUl9wup3Kma61ekH0wGFzgeer1l7IOHOvEleFPkcB4jpsB81BTIqkpuN2Q787xHWZc2D8ATQYrDxXhWeoFxjGAc2CexQlWLeexyCEcTdX72aWaaWDRVaCX48PZfcKHEavO9Syy53k5XyhZ3n7WwsYK4r6VtiJV8c1jhM0WD1MuadmE-jxft79FPRy284VW1kygHhvnHd9xzFIkixEK0NlYpW4WFJRo0q4rZLViLCm2dZYyM5jyUAnCcN1VORwFtmLkJO-Cw6cpNMsE8E8BSWu3Mj3JUQLpqP9L-1KFVokqDfwJBbHa_r3WQKuhy94ew8mCNACLSAGCfpT_1jiDNulxSdd0KhD0jtVNWutT_3yAb0jg3kEH6KpKz4oUEdeLUxYcHMh0WywM9zJMdFAsPUPJ9BsixE4F9OQeZpT1nmT7NsUTK8pA6Kf2Gy0PmFBzshDUg_s2D4kmaTyzW3xV08-6Tn4oVB8ibfR4pKUI3l4RWAPi3k0w7HaZCBCE7mFDwmkGpS-F4IP-T2CtEt5HrDFCJpur_biR98f-EGlG_lrQTG29zUu1sYiFDo9jrm_uFGkSAhgmA7js6xSVh2tRGD_bJD9JjlD6jYDRvebczumWIJfVD4FUio6SBxYPYsVqJx8Zi-ExOdu1m00]--></g></svg>